<svg version="1.1" id="图层_1" x="0px" y="0px" width="100px" height="98.479px" viewBox="0 0 100 98.479" enable-background="new 0 0 100 98.479" xml:space="preserve" xmlns="http://www.w3.org/2000/svg" xmlns:xlink="http://www.w3.org/1999/xlink" xmlns:xml="http://www.w3.org/XML/1998/namespace">
  <path fill="#404040" d="M93.963,76.165L84.995,56.93L100,41.948l-19.234-8.945l1.856-21.127l-20.468,5.497L50-0.004L37.831,17.373
	l-20.465-5.497l1.855,21.127L0,41.948L14.994,56.93L6.035,76.165l21.114,1.831l5.485,20.486L50,86.316l17.354,12.167l5.485-20.486
	L93.963,76.165z M64.372,90.285L50.001,80.21L35.616,90.288l-4.544-16.971l-17.489-1.517l7.421-15.934L8.592,43.465l15.917-7.408
	l-1.537-17.498l16.945,4.552L49.998,8.717l10.069,14.395l16.949-4.552l-1.538,17.499l15.927,7.407L78.983,55.867l7.428,15.934
	l-17.496,1.517L64.372,90.285z" class="color c1"/>
</svg>