<svg version="1.1" id="图层_1" x="0px" y="0px" width="100px" height="86.654px" viewBox="0 0 100 86.654" enable-background="new 0 0 100 86.654" xml:space="preserve" xmlns="http://www.w3.org/2000/svg" xmlns:xlink="http://www.w3.org/1999/xlink" xmlns:xml="http://www.w3.org/XML/1998/namespace">
  <path fill="#404040" d="M50,86.654c30.318-26.142,55.07-45.329,49.107-67.822C93.85-1.017,71.193-9.259,50,14.607
	C28.81-9.259,6.151-1.017,0.893,18.832C-5.07,41.325,19.682,60.513,50,86.654z M5.727,20.112C8.195,10.791,14.928,5,23.297,5
	c7.408,0,15.563,4.591,22.964,12.927L50,22.137l3.739-4.21C61.142,9.591,69.298,5,76.705,5c8.368,0,15.1,5.791,17.569,15.113
	c4.75,17.917-15.606,35.368-41.378,57.462c-0.958,0.821-1.924,1.649-2.896,2.484c-0.971-0.834-1.936-1.661-2.893-2.481
	C21.334,55.483,0.976,38.031,5.727,20.112z" class="color c1"/>
</svg>