<svg version="1.1" id="图层_1" x="0px" y="0px" width="100px" height="100px" viewBox="0 0 100 100" enable-background="new 0 0 100 100" xml:space="preserve" xmlns="http://www.w3.org/2000/svg" xmlns:xlink="http://www.w3.org/1999/xlink" xmlns:xml="http://www.w3.org/XML/1998/namespace">
  <path fill="#404040" d="M100,12c-6,0-12-6-12-12H11.77C12,6,6,12,0,12v76c6,0,12,8,12,12h76c0-6,6-12,12-12V12z M95,83.885
	C89.964,85.67,85.67,89.964,83.885,95H15.78C13.854,90.651,9.826,86.061,5,84.049V16.123c2.535-0.892,4.935-2.441,6.947-4.532
	C13.822,9.643,15.201,7.373,15.995,5h67.89C85.67,10.036,89.964,14.33,95,16.115V83.885z" class="color c1"/>
</svg>