<svg version="1.1" id="图层_1" x="0px" y="0px" width="100px" height="82.662px" viewBox="0 0 100 82.662" enable-background="new 0 0 100 82.662" xml:space="preserve" xmlns="http://www.w3.org/2000/svg" xmlns:xlink="http://www.w3.org/1999/xlink" xmlns:xml="http://www.w3.org/XML/1998/namespace">
  <path fill="#404040" d="M90.158,67.896c0,0,3.761-0.096,3.92-0.119c3.318-0.125,5.922-2.824,5.922-6.144V6.156
	C100,2.762,97.236,0,93.842,0H6.156C2.763,0,0,2.762,0,6.156v55.477c0,3.394,2.763,6.156,6.156,6.156h39.093l0.217,0.765
	c0.314,1.11,0.451,2.2,0.451,3.26c0,4.362-2.351,8.17-4.593,10.85c6.16-2.807,16.143-8.125,18.591-14.217l0.265-0.656h12.354
	L90.158,67.896z M56.805,62.79l-1.529,3.792c-0.491,1.224-1.875,2.888-4.363,4.816c-0.035-1.424-0.248-2.837-0.636-4.209l-1.248-4.4
	H6.156C5.529,62.789,5,62.26,5,61.633V6.156C5,5.529,5.529,5,6.156,5h87.686C94.48,5,95,5.519,95,6.156v55.477
	c0,0.63-0.478,1.123-1.11,1.147l-0.312,0.016c-0.74,0.03-3.015,0.088-3.468,0.1L72.533,62.79H56.805z" class="color c1"/>
</svg>