<svg version="1.1" id="图层_1" x="0px" y="0px" width="100px" height="75.086px" viewBox="0 0 100 75.086" enable-background="new 0 0 100 75.086" xml:space="preserve" xmlns="http://www.w3.org/2000/svg" xmlns:xlink="http://www.w3.org/1999/xlink" xmlns:xml="http://www.w3.org/XML/1998/namespace">
  <path fill="#404040" d="M100,31.441C100,14.104,77.568,0,49.999,0C22.43,0,0,14.104,0,31.441c0,14.292,15.356,26.8,37.346,30.42
	l0.62,0.104l0.196,0.596c0.37,1.133,0.533,2.238,0.533,3.311c0,3.646-1.875,6.875-3.771,9.215
	c5.277-2.409,13.249-6.704,15.588-11.632l0.276-0.583l0.644-0.01C78.211,62.384,100,48.289,100,31.441z M51.355,57.862l-3.753,0.057
	l-1.607,3.392c-0.354,0.746-1.132,1.701-2.4,2.802c-0.12-1.05-0.348-2.092-0.683-3.116l-1.142-3.465l-3.611-0.604
	C18.945,53.765,5,43.046,5,31.441C5,17.108,25.607,5,49.999,5C74.392,5,95,17.108,95,31.441C95,45.341,75.008,57.44,51.355,57.862z" class="color c1"/>
</svg>