<svg version="1.1" id="图层_1" x="0px" y="0px" width="71.559px" height="100px" viewBox="0 0 71.559 100" enable-background="new 0 0 71.559 100" xml:space="preserve" xmlns="http://www.w3.org/2000/svg" xmlns:xlink="http://www.w3.org/1999/xlink" xmlns:xml="http://www.w3.org/XML/1998/namespace">
  <path fill="#404040" d="M35.76,0C16.034,32.979,0.001,46.266,0.001,65.374C0.001,84.479,16.034,100,35.76,100
	c19.767,0,35.798-15.521,35.798-34.626C71.559,46.266,55.528,32.979,35.76,0z M35.76,95C18.8,95,5.001,81.71,5.001,65.374
	c0-11.142,6.67-20.662,16.766-35.074c4.253-6.071,8.95-12.775,13.997-20.763c5.043,7.969,9.737,14.66,13.987,20.72
	c10.121,14.431,16.808,23.964,16.807,35.117C66.558,81.71,52.742,95,35.76,95z" class="color c1"/>
</svg>