<?xml version="1.0" encoding="utf-8"?>
<!-- Generator: Adobe Illustrator 16.0.0, SVG Export Plug-In . SVG Version: 6.00 Build 0)  -->
<!DOCTYPE svg PUBLIC "-//W3C//DTD SVG 1.1//EN" "http://www.w3.org/Graphics/SVG/1.1/DTD/svg11.dtd">
<svg version="1.1" id="图层_1" xmlns="http://www.w3.org/2000/svg" xmlns:xlink="http://www.w3.org/1999/xlink" x="0px" y="0px"
	 width="258px" height="36px" viewBox="0 0 258 36" enable-background="new 0 0 258 36" xml:space="preserve">
<g>
	<path fill="#545454" d="M13.257,24.729l5.708-14.063h2.167l5.625,14.063l-1.813,0.729l-1.625-4.167h-6.751l-1.625,4.125
		L13.257,24.729z M17.194,19.625h5.479l-2.729-7L17.194,19.625z"/>
	<path fill="#545454" d="M28.84,10.708c0.486-0.056,1.086-0.104,1.802-0.146c0.715-0.042,1.545-0.063,2.489-0.063
		c1.792,0,3.163,0.333,4.114,1c0.952,0.667,1.428,1.583,1.428,2.75c0,0.778-0.201,1.431-0.604,1.958
		c-0.403,0.527-0.999,0.965-1.791,1.312c0.944,0.334,1.658,0.792,2.145,1.376c0.486,0.583,0.729,1.312,0.729,2.187
		c0,1.334-0.517,2.39-1.552,3.167c-1.036,0.777-2.552,1.166-4.552,1.166c-0.848,0-1.649-0.017-2.406-0.052
		c-0.757-0.035-1.358-0.087-1.802-0.156V10.708z M33.11,16.958c1.097,0,1.969-0.226,2.615-0.677
		c0.646-0.452,0.969-1.045,0.969-1.781c0-0.792-0.32-1.389-0.958-1.792c-0.639-0.402-1.514-0.604-2.625-0.604
		c-0.458,0-0.875,0.01-1.25,0.031c-0.375,0.021-0.723,0.045-1.042,0.073v4.75H33.11z M33.194,23.771c1.25,0,2.219-0.222,2.906-0.667
		c0.687-0.444,1.031-1.09,1.031-1.937c0-0.834-0.34-1.486-1.021-1.958c-0.681-0.472-1.653-0.708-2.917-0.708h-2.375v5.146
		C31.541,23.729,32.332,23.771,33.194,23.771z"/>
	<path fill="#545454" d="M42.943,20.604c0.125,1.015,0.479,1.807,1.063,2.375c0.584,0.569,1.354,0.854,2.313,0.854
		c0.625,0,1.187-0.066,1.687-0.198s0.979-0.302,1.438-0.511l0.437,1.604c-0.5,0.237-1.063,0.424-1.687,0.563
		c-0.625,0.139-1.326,0.208-2.104,0.208s-1.479-0.128-2.104-0.385c-0.625-0.257-1.156-0.625-1.593-1.104
		c-0.438-0.479-0.774-1.069-1.011-1.771c-0.236-0.701-0.354-1.503-0.354-2.405c0-0.806,0.118-1.556,0.354-2.25
		c0.236-0.694,0.57-1.294,1-1.802c0.431-0.507,0.944-0.903,1.542-1.188c0.597-0.284,1.263-0.427,2-0.427
		c0.777,0,1.459,0.132,2.042,0.396c0.583,0.264,1.07,0.625,1.459,1.083c0.388,0.458,0.68,0.994,0.874,1.604
		c0.195,0.611,0.292,1.257,0.292,1.938c0,0.486-0.021,0.958-0.063,1.416H42.943z M45.881,15.792c-0.82,0-1.489,0.278-2.01,0.833
		c-0.521,0.556-0.837,1.375-0.949,2.458h5.938c0-1.056-0.264-1.868-0.792-2.437C47.541,16.077,46.811,15.792,45.881,15.792z"/>
	<path fill="#545454" d="M54.276,20.604c0.125,1.015,0.479,1.807,1.063,2.375c0.583,0.569,1.354,0.854,2.312,0.854
		c0.625,0,1.188-0.066,1.688-0.198c0.5-0.132,0.979-0.302,1.438-0.511l0.437,1.604c-0.5,0.237-1.063,0.424-1.688,0.563
		C58.902,25.431,58.2,25.5,57.423,25.5c-0.778,0-1.479-0.128-2.104-0.385c-0.625-0.257-1.156-0.625-1.594-1.104
		c-0.438-0.479-0.774-1.069-1.011-1.771c-0.235-0.701-0.354-1.503-0.354-2.405c0-0.806,0.119-1.556,0.354-2.25
		c0.236-0.694,0.57-1.294,1-1.802c0.43-0.507,0.944-0.903,1.541-1.188c0.598-0.284,1.264-0.427,2-0.427
		c0.778,0,1.458,0.132,2.042,0.396c0.583,0.264,1.069,0.625,1.458,1.083c0.388,0.458,0.681,0.994,0.875,1.604
		c0.194,0.611,0.292,1.257,0.292,1.938c0,0.486-0.021,0.958-0.062,1.416H54.276z M57.214,15.792c-0.819,0-1.49,0.278-2.01,0.833
		c-0.521,0.556-0.837,1.375-0.948,2.458h5.937c0-1.056-0.264-1.868-0.792-2.437C58.873,16.077,58.145,15.792,57.214,15.792z"/>
	<path fill="#545454" d="M63.589,23.708l7.75-11.333h-7.396v-1.708h9.667v1.5L65.86,23.5h8.042v1.75H63.589V23.708z"/>
	<path fill="#545454" d="M77.588,20.604c0.125,1.015,0.479,1.807,1.063,2.375c0.583,0.569,1.354,0.854,2.312,0.854
		c0.626,0,1.188-0.066,1.688-0.198s0.979-0.302,1.438-0.511l0.437,1.604c-0.5,0.237-1.063,0.424-1.688,0.563
		c-0.624,0.139-1.325,0.208-2.104,0.208s-1.479-0.128-2.104-0.385c-0.625-0.257-1.156-0.625-1.593-1.104
		c-0.438-0.479-0.775-1.069-1.01-1.771c-0.236-0.701-0.354-1.503-0.354-2.405c0-0.806,0.118-1.556,0.354-2.25
		c0.235-0.694,0.569-1.294,1-1.802c0.43-0.507,0.944-0.903,1.542-1.188c0.597-0.284,1.263-0.427,2-0.427
		c0.778,0,1.458,0.132,2.042,0.396c0.583,0.264,1.07,0.625,1.459,1.083c0.389,0.458,0.68,0.994,0.874,1.604
		c0.195,0.611,0.292,1.257,0.292,1.938c0,0.486-0.021,0.958-0.062,1.416H77.588z M80.526,15.792c-0.82,0-1.489,0.278-2.01,0.833
		c-0.521,0.556-0.837,1.375-0.949,2.458h5.938c0-1.056-0.264-1.868-0.791-2.437C82.186,16.077,81.457,15.792,80.526,15.792z"/>
	<path fill="#545454" d="M88.922,20.604c0.125,1.015,0.479,1.807,1.063,2.375c0.583,0.569,1.354,0.854,2.312,0.854
		c0.625,0,1.188-0.066,1.688-0.198c0.499-0.132,0.979-0.302,1.437-0.511l0.438,1.604c-0.5,0.237-1.063,0.424-1.688,0.563
		c-0.625,0.139-1.326,0.208-2.104,0.208c-0.777,0-1.479-0.128-2.104-0.385c-0.625-0.257-1.156-0.625-1.594-1.104
		c-0.437-0.479-0.774-1.069-1.011-1.771c-0.235-0.701-0.353-1.503-0.353-2.405c0-0.806,0.118-1.556,0.353-2.25
		c0.237-0.694,0.57-1.294,1.001-1.802c0.43-0.507,0.944-0.903,1.541-1.188c0.598-0.284,1.264-0.427,2-0.427
		c0.778,0,1.459,0.132,2.042,0.396c0.584,0.264,1.07,0.625,1.459,1.083c0.388,0.458,0.68,0.994,0.875,1.604
		c0.194,0.611,0.292,1.257,0.292,1.938c0,0.486-0.021,0.958-0.063,1.416H88.922z M91.859,15.792c-0.82,0-1.49,0.278-2.011,0.833
		c-0.521,0.556-0.836,1.375-0.948,2.458h5.937c0-1.056-0.264-1.868-0.792-2.437C93.519,16.077,92.79,15.792,91.859,15.792z"/>
</g>
</svg>
