<?xml version="1.0" encoding="utf-8"?>
<!-- Generator: Adobe Illustrator 16.0.0, SVG Export Plug-In . SVG Version: 6.00 Build 0)  -->
<!DOCTYPE svg PUBLIC "-//W3C//DTD SVG 1.1//EN" "http://www.w3.org/Graphics/SVG/1.1/DTD/svg11.dtd">
<svg version="1.1" id="图层_1" xmlns="http://www.w3.org/2000/svg" xmlns:xlink="http://www.w3.org/1999/xlink" x="0px" y="0px"
	 width="258px" height="36px" viewBox="0 0 258 36" enable-background="new 0 0 258 36" xml:space="preserve">
<g>
	<path fill="#545454" d="M21.231,22.361h-5.308l-1.099,3.905h-1.567L18.168,9.5h0.794l4.935,16.767h-1.556L21.231,22.361z
		 M16.332,20.923h4.502l-2.21-7.729l-0.047-0.62l-0.047,0.62L16.332,20.923z"/>
	<path fill="#545454" d="M33.292,24.349c-0.184,0.429-0.435,0.803-0.754,1.122c-0.32,0.319-0.694,0.571-1.123,0.754
		c-0.428,0.184-0.884,0.275-1.367,0.275h-0.959c-0.483,0-0.939-0.092-1.368-0.275c-0.428-0.183-0.803-0.435-1.123-0.754
		c-0.319-0.319-0.571-0.693-0.754-1.122s-0.274-0.884-0.274-1.367V9.5h1.438v5.799c0.328-0.39,0.721-0.694,1.181-0.912
		s0.958-0.328,1.497-0.328h0.363c0.483,0,0.939,0.092,1.367,0.275c0.429,0.183,0.803,0.435,1.123,0.754
		c0.319,0.32,0.57,0.694,0.754,1.123c0.183,0.429,0.274,0.885,0.274,1.368v5.402C33.566,23.465,33.474,23.92,33.292,24.349z
		 M32.127,17.497c0-0.288-0.054-0.559-0.163-0.813c-0.11-0.253-0.257-0.474-0.445-0.661c-0.187-0.187-0.407-0.335-0.661-0.444
		c-0.253-0.109-0.524-0.164-0.812-0.164h-0.959c-0.289,0-0.56,0.055-0.813,0.164c-0.253,0.109-0.473,0.257-0.66,0.444
		s-0.335,0.408-0.444,0.661c-0.109,0.253-0.164,0.524-0.164,0.813v5.565c0,0.288,0.055,0.561,0.164,0.813
		c0.109,0.252,0.257,0.473,0.444,0.66c0.187,0.187,0.407,0.335,0.66,0.443c0.253,0.109,0.524,0.164,0.813,0.164h0.959
		c0.288,0,0.559-0.055,0.812-0.164c0.253-0.108,0.474-0.257,0.661-0.443c0.188-0.188,0.335-0.408,0.445-0.66
		c0.109-0.253,0.163-0.525,0.163-0.813V17.497z"/>
	<path fill="#545454" d="M44.165,24.349c-0.184,0.429-0.435,0.803-0.754,1.122c-0.32,0.319-0.694,0.571-1.123,0.754
		c-0.428,0.184-0.884,0.275-1.367,0.275h-0.959c-0.483,0-0.939-0.092-1.368-0.275c-0.428-0.183-0.803-0.435-1.123-0.754
		s-0.571-0.693-0.754-1.122s-0.274-0.884-0.274-1.367v-5.402c0-0.483,0.091-0.939,0.274-1.368c0.183-0.428,0.435-0.803,0.754-1.123
		c0.32-0.319,0.694-0.571,1.123-0.754c0.429-0.183,0.885-0.275,1.368-0.275h0.959c0.483,0,0.939,0.092,1.367,0.275
		c0.429,0.183,0.803,0.435,1.123,0.754c0.319,0.32,0.57,0.694,0.754,1.123c0.183,0.429,0.274,0.885,0.274,1.368v2.818H37.88v2.666
		c0,0.288,0.055,0.561,0.164,0.813c0.109,0.252,0.257,0.473,0.444,0.66c0.187,0.187,0.407,0.335,0.66,0.443
		c0.253,0.109,0.524,0.164,0.813,0.164h0.959c0.288,0,0.559-0.055,0.812-0.164c0.253-0.108,0.474-0.257,0.661-0.443
		c0.188-0.188,0.335-0.408,0.445-0.66c0.109-0.253,0.163-0.525,0.163-0.813v-0.795l1.438,0.233v0.48
		C44.439,23.465,44.347,23.92,44.165,24.349z M43.001,17.497c0-0.288-0.054-0.559-0.163-0.813c-0.11-0.253-0.257-0.474-0.445-0.661
		c-0.187-0.187-0.407-0.335-0.661-0.444c-0.253-0.109-0.524-0.164-0.812-0.164h-0.959c-0.289,0-0.56,0.055-0.813,0.164
		c-0.253,0.109-0.473,0.257-0.66,0.444c-0.188,0.187-0.335,0.408-0.444,0.661c-0.109,0.253-0.164,0.524-0.164,0.813v1.777h5.121
		V17.497z"/>
	<path fill="#545454" d="M47.795,26.267V9.5h1.438v16.767H47.795z"/>
</g>
</svg>
