<?xml version="1.0" encoding="utf-8"?>
<!-- Generator: Adobe Illustrator 16.0.0, SVG Export Plug-In . SVG Version: 6.00 Build 0)  -->
<!DOCTYPE svg PUBLIC "-//W3C//DTD SVG 1.1//EN" "http://www.w3.org/Graphics/SVG/1.1/DTD/svg11.dtd">
<svg version="1.1" id="图层_1" xmlns="http://www.w3.org/2000/svg" xmlns:xlink="http://www.w3.org/1999/xlink" x="0px" y="0px"
	 width="258px" height="36px" viewBox="0 0 258 36" enable-background="new 0 0 258 36" xml:space="preserve">
<g>
	<path fill="#545454" d="M26.364,26.396h-2.567l-3.955-11.43l-3.996,11.43h-2.588l5.342-15.24h2.464L26.364,26.396z M21.208,21.551
		l0.601,1.678h-3.955l0.58-1.678H21.208z"/>
	<path fill="#545454" d="M31.934,22.835c0,0.47,0.062,0.838,0.186,1.108c0.125,0.269,0.297,0.469,0.518,0.6
		c0.221,0.132,0.473,0.218,0.755,0.259c0.283,0.042,0.59,0.063,0.922,0.063v1.532c-0.18,0.027-0.366,0.048-0.56,0.063
		c-0.151,0.014-0.331,0.024-0.538,0.03c-0.207,0.008-0.414,0.011-0.621,0.011s-0.414-0.007-0.621-0.021
		c-0.208-0.014-0.394-0.035-0.559-0.063c-0.47-0.097-0.835-0.304-1.098-0.621s-0.462-0.674-0.601-1.065
		c-0.138-0.395-0.224-0.777-0.259-1.15c-0.035-0.372-0.052-0.662-0.052-0.869v-0.249V10.308h2.526V22.835z"/>
	<path fill="#545454" d="M39.45,22.835c0,0.47,0.063,0.838,0.187,1.108c0.124,0.269,0.297,0.469,0.518,0.6
		c0.221,0.132,0.473,0.218,0.756,0.259c0.283,0.042,0.59,0.063,0.921,0.063v1.532c-0.179,0.027-0.366,0.048-0.559,0.063
		c-0.152,0.014-0.331,0.024-0.538,0.03c-0.207,0.008-0.414,0.011-0.622,0.011c-0.207,0-0.414-0.007-0.621-0.021
		s-0.394-0.035-0.559-0.063c-0.469-0.097-0.835-0.304-1.097-0.621s-0.462-0.674-0.601-1.065c-0.138-0.395-0.225-0.777-0.259-1.15
		c-0.035-0.372-0.052-0.662-0.052-0.869v-0.249V10.308h2.526V22.835z"/>
	<path fill="#545454" d="M49.824,24.45c0.152,0,0.342-0.018,0.569-0.052c0.228-0.035,0.47-0.097,0.725-0.187
		c0.255-0.089,0.511-0.203,0.766-0.342c0.255-0.138,0.479-0.304,0.673-0.497l0.911,1.388c-0.456,0.565-0.987,0.994-1.595,1.284
		c-0.607,0.289-1.38,0.435-2.319,0.435c-0.759,0-1.47-0.156-2.133-0.466c-0.663-0.312-1.229-0.735-1.698-1.273
		c-0.47-0.539-0.842-1.167-1.118-1.885c-0.276-0.718-0.414-1.49-0.414-2.319c0-0.786,0.127-1.532,0.383-2.236
		c0.255-0.703,0.604-1.322,1.046-1.853c0.441-0.532,0.956-0.963,1.542-1.294c0.586-0.332,1.218-0.519,1.895-0.56v1.988
		c-0.511,0.097-0.932,0.304-1.263,0.621c-0.331,0.317-0.59,0.68-0.776,1.086c-0.187,0.408-0.317,0.825-0.394,1.254
		c-0.076,0.428-0.114,0.793-0.114,1.097c0,0.539,0.065,1.04,0.197,1.501c0.131,0.464,0.335,0.864,0.611,1.201
		c0.276,0.339,0.618,0.607,1.025,0.809C48.751,24.35,49.245,24.45,49.824,24.45z M49.907,14.614c0.745,0.069,1.418,0.27,2.019,0.601
		c0.601,0.331,1.115,0.76,1.543,1.284c0.428,0.524,0.756,1.125,0.983,1.801c0.228,0.677,0.342,1.381,0.342,2.112
		c0,0.331-0.021,0.663-0.062,0.994h-7.103v-1.822h4.783c0-0.358-0.059-0.704-0.176-1.035c-0.118-0.331-0.29-0.638-0.518-0.922
		c-0.228-0.282-0.493-0.521-0.797-0.714s-0.642-0.311-1.015-0.353V14.614z"/>
	<path fill="#545454" d="M60.467,14.718l0.27,1.201v6.336v0.042v4.1h-2.506V14.718H60.467z M61.585,15.235
		c0.345-0.193,0.759-0.342,1.243-0.444c0.483-0.104,1.139-0.156,1.967-0.156v2.609c-0.386-0.11-0.855-0.173-1.408-0.187
		c-0.304,0-0.611,0.024-0.921,0.072c-0.311,0.049-0.604,0.121-0.88,0.218V15.235z"/>
	<path fill="#545454" d="M70.8,22.855c0,0.47,0.063,0.835,0.187,1.098s0.3,0.463,0.528,0.601c0.228,0.138,0.483,0.224,0.766,0.259
		c0.283,0.034,0.583,0.052,0.901,0.052v1.532c-0.179,0.027-0.359,0.048-0.539,0.063c-0.151,0.014-0.334,0.024-0.548,0.03
		c-0.214,0.008-0.425,0.011-0.632,0.011s-0.417-0.007-0.631-0.021s-0.397-0.035-0.549-0.063c-0.469-0.083-0.835-0.287-1.097-0.61
		c-0.263-0.325-0.459-0.685-0.59-1.076c-0.131-0.395-0.214-0.777-0.249-1.15c-0.035-0.372-0.052-0.662-0.052-0.869v-6.295h-1.532
		v-1.698h1.532v-3.313H70.8v3.313h1.864v1.698H70.8V22.855z"/>
	<path fill="#545454" d="M78.151,22.876c0,0.621,0.127,1.084,0.383,1.388s0.625,0.483,1.108,0.538v1.678
		c-0.055,0.014-0.145,0.021-0.269,0.021c-0.469,0-0.921-0.063-1.356-0.187c-0.435-0.124-0.818-0.324-1.149-0.601
		c-0.332-0.275-0.59-0.642-0.777-1.098c-0.186-0.455-0.279-1.014-0.279-1.677c0-0.635,0.134-1.185,0.404-1.646
		c0.269-0.464,0.614-0.842,1.035-1.14c0.421-0.296,0.901-0.517,1.439-0.663c0.539-0.144,1.084-0.217,1.636-0.217h0.911v1.47H80.78
		c-0.276,0-0.566,0.028-0.87,0.083c-0.304,0.056-0.586,0.159-0.849,0.311c-0.262,0.152-0.48,0.369-0.652,0.653
		C78.237,22.071,78.151,22.435,78.151,22.876z M84.59,22.938c0,0.11,0.007,0.273,0.021,0.486c0.014,0.215,0.041,0.432,0.083,0.652
		s0.107,0.421,0.197,0.601s0.21,0.297,0.362,0.353l-0.663,1.387c-0.179,0-0.369-0.041-0.569-0.124s-0.394-0.2-0.58-0.353
		c-0.187-0.151-0.345-0.321-0.477-0.506c-0.131-0.188-0.231-0.391-0.3-0.611c-0.138,0.345-0.411,0.652-0.818,0.921
		c-0.407,0.27-0.859,0.466-1.356,0.59v-1.573c0.331-0.069,0.631-0.204,0.9-0.403c0.27-0.201,0.5-0.438,0.694-0.715v-4.369
		c0-0.677-0.035-1.215-0.104-1.615s-0.187-0.694-0.352-0.88c-0.166-0.187-0.369-0.303-0.611-0.353
		c-0.242-0.047-0.528-0.072-0.859-0.072c-0.304,0-0.59,0.039-0.859,0.113c-0.269,0.077-0.518,0.166-0.745,0.271
		c-0.228,0.103-0.428,0.217-0.601,0.341c-0.173,0.125-0.3,0.222-0.383,0.29l-0.932-1.429c0.138-0.151,0.345-0.307,0.621-0.466
		c0.276-0.158,0.594-0.3,0.953-0.424c0.359-0.125,0.749-0.226,1.17-0.3c0.421-0.077,0.859-0.115,1.315-0.115
		c0.414,0,0.818,0.042,1.211,0.125c0.393,0.082,0.752,0.221,1.077,0.414c0.324,0.193,0.607,0.451,0.849,0.776
		c0.242,0.324,0.411,0.729,0.507,1.211c0.097,0.483,0.163,0.971,0.197,1.46c0.035,0.49,0.052,0.977,0.052,1.46v2.691V22.938z"/>
	<path fill="#545454" d="M94.55,23.602c0.193,0.11,0.438,0.218,0.735,0.32c0.297,0.104,0.604,0.201,0.922,0.29
		c0.317,0.09,0.635,0.162,0.952,0.218c0.317,0.055,0.614,0.082,0.891,0.082h0.062v1.968H98.07c-0.331,0-0.673-0.018-1.025-0.052
		c-0.352-0.035-0.708-0.094-1.066-0.176c-0.359-0.083-0.701-0.196-1.025-0.343c-0.324-0.144-0.604-0.32-0.839-0.527L94.55,23.602z
		 M94.219,15.153c0-0.607,0.104-1.153,0.311-1.637c0.208-0.482,0.487-0.906,0.839-1.273c0.352-0.365,0.766-0.654,1.242-0.87
		c0.477-0.213,0.977-0.354,1.501-0.424v2.175c-0.442,0.151-0.808,0.417-1.098,0.797c-0.29,0.379-0.435,0.763-0.435,1.149
		c0,0.538,0.145,0.973,0.435,1.305c0.29,0.331,0.656,0.621,1.098,0.869v2.36c-0.456-0.221-0.911-0.459-1.367-0.714
		c-0.456-0.256-0.87-0.556-1.242-0.901c-0.373-0.345-0.68-0.745-0.921-1.2C94.34,16.333,94.219,15.788,94.219,15.153z
		 M101.363,13.496c-0.069-0.027-0.152-0.075-0.249-0.145s-0.235-0.134-0.414-0.197c-0.18-0.062-0.407-0.113-0.684-0.155
		c-0.276-0.041-0.628-0.048-1.056-0.021v-2.091c0.607,0.014,1.225,0.079,1.853,0.196c0.628,0.118,1.135,0.301,1.522,0.549
		c-0.083,0.18-0.18,0.376-0.29,0.591c-0.11,0.213-0.214,0.414-0.311,0.6c-0.097,0.187-0.179,0.342-0.249,0.466
		C101.418,13.413,101.376,13.482,101.363,13.496z M98.961,17.658c0.456,0.207,0.921,0.428,1.397,0.663
		c0.476,0.234,0.908,0.521,1.294,0.859c0.387,0.337,0.704,0.748,0.953,1.231s0.373,1.084,0.373,1.802
		c0,0.497-0.093,0.98-0.279,1.449c-0.187,0.47-0.449,0.894-0.787,1.274c-0.338,0.378-0.756,0.7-1.253,0.962
		c-0.497,0.263-1.063,0.435-1.698,0.518V24.43c1.132-0.276,1.698-1.028,1.698-2.258c0-0.482-0.159-0.883-0.476-1.2
		c-0.318-0.317-0.725-0.614-1.222-0.891V17.658z"/>
	<path fill="#545454" d="M108.775,22.855c0,0.47,0.063,0.835,0.187,1.098s0.3,0.463,0.528,0.601
		c0.228,0.138,0.483,0.224,0.766,0.259c0.283,0.034,0.583,0.052,0.901,0.052v1.532c-0.179,0.027-0.359,0.048-0.538,0.063
		c-0.152,0.014-0.335,0.024-0.549,0.03c-0.214,0.008-0.424,0.011-0.632,0.011c-0.207,0-0.417-0.007-0.631-0.021
		s-0.397-0.035-0.549-0.063c-0.469-0.083-0.835-0.287-1.097-0.61c-0.262-0.325-0.459-0.685-0.59-1.076
		c-0.131-0.395-0.214-0.777-0.249-1.15c-0.034-0.372-0.052-0.662-0.052-0.869v-6.295h-1.532v-1.698h1.532v-3.313h2.505v3.313h1.864
		v1.698h-1.864V22.855z"/>
	<path fill="#545454" d="M119.439,24.45c0.152,0,0.342-0.018,0.569-0.052c0.228-0.035,0.469-0.097,0.725-0.187
		c0.255-0.089,0.51-0.203,0.766-0.342c0.256-0.138,0.48-0.304,0.674-0.497l0.91,1.388c-0.455,0.565-0.986,0.994-1.594,1.284
		c-0.607,0.289-1.381,0.435-2.319,0.435c-0.759,0-1.47-0.156-2.133-0.466c-0.663-0.312-1.229-0.735-1.698-1.273
		c-0.469-0.539-0.842-1.167-1.118-1.885c-0.276-0.718-0.414-1.49-0.414-2.319c0-0.786,0.128-1.532,0.383-2.236
		c0.255-0.703,0.604-1.322,1.045-1.853c0.442-0.532,0.956-0.963,1.543-1.294c0.586-0.332,1.218-0.519,1.895-0.56v1.988
		c-0.511,0.097-0.932,0.304-1.263,0.621c-0.331,0.317-0.59,0.68-0.776,1.086c-0.187,0.408-0.317,0.825-0.394,1.254
		c-0.076,0.428-0.114,0.793-0.114,1.097c0,0.539,0.065,1.04,0.197,1.501c0.131,0.464,0.334,0.864,0.611,1.201
		c0.276,0.339,0.618,0.607,1.025,0.809C118.366,24.35,118.86,24.45,119.439,24.45z M119.522,14.614
		c0.745,0.069,1.418,0.27,2.018,0.601c0.602,0.331,1.115,0.76,1.543,1.284s0.756,1.125,0.984,1.801
		c0.227,0.677,0.342,1.381,0.342,2.112c0,0.331-0.021,0.663-0.063,0.994h-7.103v-1.822h4.783c0-0.358-0.059-0.704-0.177-1.035
		c-0.117-0.331-0.289-0.638-0.518-0.922c-0.227-0.282-0.493-0.521-0.797-0.714c-0.303-0.193-0.642-0.311-1.014-0.353V14.614z"/>
	<path fill="#545454" d="M130.082,14.718l0.27,1.181v10.498h-2.505V14.718H130.082z M136.543,16.002
		c0.234,0.234,0.418,0.507,0.549,0.818c0.131,0.31,0.229,0.635,0.289,0.972c0.063,0.34,0.102,0.681,0.115,1.026
		c0.014,0.345,0.02,0.683,0.02,1.015v6.149v0.414h-2.525V20.04c0-0.47-0.021-0.918-0.063-1.347
		c-0.041-0.428-0.137-0.808-0.289-1.139s-0.359-0.591-0.621-0.776c-0.264-0.187-0.629-0.279-1.098-0.279
		c-0.193,0-0.453,0.031-0.777,0.093c-0.324,0.063-0.639,0.162-0.941,0.301v-1.595c0.373-0.193,0.775-0.359,1.211-0.497
		s0.859-0.207,1.273-0.207c0.621,0,1.146,0.128,1.574,0.383C135.688,15.232,136.115,15.574,136.543,16.002z"/>
	<path fill="#545454" d="M140.643,20.558c0-0.787,0.115-1.525,0.342-2.216c0.229-0.69,0.563-1.298,1.004-1.822
		c0.443-0.524,0.963-0.949,1.564-1.273c0.6-0.325,1.273-0.515,2.018-0.569v2.009c-0.689,0.151-1.242,0.576-1.656,1.272
		c-0.414,0.698-0.621,1.543-0.621,2.537c0,0.511,0.053,0.991,0.156,1.438c0.104,0.45,0.252,0.846,0.445,1.191
		c0.193,0.345,0.432,0.635,0.713,0.869c0.283,0.235,0.605,0.38,0.963,0.436v2.05c-0.758-0.042-1.441-0.225-2.049-0.549
		c-0.607-0.325-1.125-0.753-1.553-1.283c-0.428-0.532-0.756-1.15-0.984-1.854C140.758,22.09,140.643,21.344,140.643,20.558z
		 M148.74,17.741c-0.207-0.248-0.494-0.479-0.859-0.694c-0.367-0.213-0.854-0.341-1.461-0.383v-1.987
		c0.76,0.041,1.412,0.203,1.957,0.487c0.545,0.281,1.039,0.692,1.48,1.231L148.74,17.741z M146.42,24.43
		c0.498-0.056,0.922-0.177,1.273-0.362c0.352-0.188,0.688-0.404,1.004-0.652l0.932,1.346c-0.428,0.538-0.889,0.949-1.387,1.231
		c-0.496,0.284-1.104,0.445-1.822,0.487V24.43z"/>
	<path fill="#545454" d="M155.82,10.991c0,0.414-0.145,0.763-0.434,1.045c-0.291,0.284-0.643,0.425-1.057,0.425
		s-0.764-0.145-1.045-0.435c-0.283-0.29-0.426-0.635-0.426-1.035c0-0.414,0.145-0.767,0.436-1.057
		c0.289-0.29,0.635-0.435,1.035-0.435c0.414,0,0.766,0.145,1.057,0.435C155.676,10.225,155.82,10.577,155.82,10.991z
		 M155.594,26.396h-2.527V14.718h2.527V26.396z"/>
	<path fill="#545454" d="M161.598,22.835c0,0.47,0.063,0.838,0.188,1.108c0.123,0.269,0.297,0.469,0.518,0.6
		c0.221,0.132,0.473,0.218,0.756,0.259c0.281,0.042,0.59,0.063,0.92,0.063v1.532c-0.178,0.027-0.365,0.048-0.559,0.063
		c-0.152,0.014-0.33,0.024-0.539,0.03c-0.207,0.008-0.414,0.011-0.621,0.011s-0.414-0.007-0.621-0.021s-0.393-0.035-0.559-0.063
		c-0.469-0.097-0.834-0.304-1.098-0.621c-0.262-0.317-0.463-0.674-0.6-1.065c-0.139-0.395-0.225-0.777-0.26-1.15
		c-0.033-0.372-0.051-0.662-0.051-0.869v-0.249V10.308h2.525V22.835z"/>
</g>
</svg>
