<?xml version="1.0" encoding="utf-8"?>
<!-- Generator: Adobe Illustrator 16.0.0, SVG Export Plug-In . SVG Version: 6.00 Build 0)  -->
<!DOCTYPE svg PUBLIC "-//W3C//DTD SVG 1.1//EN" "http://www.w3.org/Graphics/SVG/1.1/DTD/svg11.dtd">
<svg version="1.1" id="图层_1" xmlns="http://www.w3.org/2000/svg" xmlns:xlink="http://www.w3.org/1999/xlink" x="0px" y="0px"
	 width="258px" height="36px" viewBox="0 0 258 36" enable-background="new 0 0 258 36" xml:space="preserve">
<g>
	<path fill="#545454" d="M29.166,26.5h-2.874v-3.891H16.189V26.5h-2.874v-7.925c0-1.158,0.199-2.222,0.597-3.194
		c0.398-0.974,0.951-1.811,1.658-2.509c0.708-0.701,1.544-1.247,2.509-1.636c0.965-0.392,2.019-0.587,3.161-0.587h6.477
		c0.199,0,0.387,0.037,0.563,0.11c0.178,0.074,0.332,0.177,0.465,0.31s0.235,0.288,0.309,0.465c0.074,0.177,0.111,0.365,0.111,0.563
		V26.5z M16.189,19.735h10.103v-6.212h-5.051c-0.088,0-0.275,0.014-0.559,0.039s-0.612,0.091-0.983,0.193
		c-0.373,0.104-0.765,0.262-1.177,0.475c-0.413,0.214-0.792,0.509-1.139,0.885c-0.346,0.376-0.632,0.845-0.857,1.409
		c-0.225,0.563-0.336,1.247-0.336,2.051V19.735z"/>
	<path fill="#545454" d="M45.193,25.052c0,0.206-0.037,0.397-0.111,0.574c-0.073,0.177-0.175,0.331-0.304,0.459
		c-0.129,0.13-0.28,0.23-0.452,0.305c-0.174,0.073-0.359,0.11-0.559,0.11h-6.5c-0.354,0-0.731-0.04-1.133-0.122
		c-0.402-0.08-0.797-0.211-1.188-0.392s-0.769-0.409-1.134-0.686c-0.364-0.276-0.683-0.611-0.956-1.006
		c-0.272-0.394-0.491-0.85-0.658-1.365c-0.164-0.517-0.248-1.098-0.248-1.746v-6.632h2.874v6.632c0,0.375,0.063,0.713,0.194,1.011
		c0.128,0.299,0.303,0.555,0.523,0.769c0.222,0.214,0.48,0.378,0.78,0.491c0.298,0.115,0.62,0.172,0.967,0.172h5.029v-9.074h2.874
		V25.052z"/>
	<path fill="#545454" d="M61,22.466c0,0.493-0.063,0.938-0.188,1.332c-0.126,0.395-0.291,0.74-0.497,1.039
		c-0.207,0.298-0.446,0.553-0.719,0.762c-0.273,0.211-0.559,0.382-0.856,0.514c-0.299,0.133-0.601,0.231-0.906,0.294
		c-0.307,0.063-0.595,0.094-0.868,0.094h-5.184c-0.494,0-0.936-0.063-1.326-0.188c-0.391-0.126-0.735-0.294-1.034-0.503
		c-0.298-0.211-0.553-0.452-0.763-0.725s-0.381-0.558-0.514-0.856c-0.133-0.298-0.23-0.601-0.293-0.906s-0.094-0.591-0.094-0.856
		v-3.891c0-0.736,0.134-1.362,0.402-1.874c0.27-0.512,0.605-0.928,1.007-1.249c0.401-0.32,0.838-0.551,1.31-0.69
		c0.472-0.141,0.906-0.21,1.305-0.21h5.184v2.874h-5.162c-0.383,0-0.674,0.097-0.873,0.293c-0.199,0.195-0.299,0.479-0.299,0.856
		v3.868c0,0.392,0.098,0.686,0.293,0.884c0.195,0.2,0.481,0.299,0.857,0.299h5.184c0.391,0,0.682-0.099,0.873-0.299
		c0.191-0.198,0.287-0.486,0.287-0.861V9.5H61V22.466z"/>
	<path fill="#545454" d="M66.658,12.097h-2.873V9.5h2.873V12.097z M66.658,26.5h-2.873V14.552h2.873V26.5z"/>
	<path fill="#545454" d="M82.41,22.466c0,0.493-0.063,0.938-0.188,1.332c-0.125,0.395-0.291,0.74-0.497,1.039
		c-0.207,0.298-0.446,0.553-0.719,0.762c-0.272,0.211-0.559,0.382-0.856,0.514c-0.299,0.133-0.601,0.231-0.906,0.294
		S78.648,26.5,78.375,26.5h-5.184c-0.398,0-0.833-0.069-1.305-0.211c-0.471-0.139-0.908-0.369-1.31-0.69
		c-0.401-0.319-0.737-0.736-1.007-1.248c-0.268-0.512-0.402-1.142-0.402-1.885v-3.891c0-0.736,0.135-1.362,0.402-1.874
		c0.27-0.512,0.605-0.928,1.007-1.249c0.401-0.32,0.839-0.551,1.31-0.69c0.472-0.141,0.906-0.21,1.305-0.21h5.184
		c0.737,0,1.363,0.133,1.879,0.398c0.516,0.265,0.933,0.598,1.25,1c0.316,0.401,0.547,0.838,0.689,1.31
		c0.145,0.472,0.217,0.909,0.217,1.315V22.466z M79.535,18.597c0-0.398-0.099-0.693-0.298-0.885
		c-0.198-0.191-0.486-0.286-0.862-0.286h-5.162c-0.383,0-0.674,0.097-0.873,0.293c-0.199,0.195-0.299,0.479-0.299,0.856v3.891
		c0,0.375,0.1,0.663,0.299,0.861c0.199,0.2,0.49,0.299,0.873,0.299h5.162c0.391,0,0.682-0.099,0.873-0.299
		c0.191-0.198,0.287-0.486,0.287-0.861V18.597z"/>
	<path fill="#545454" d="M104.527,14.552c-0.457,1.023-0.951,2.032-1.48,3.022c-0.531,0.991-1.086,1.93-1.664,2.813
		c-0.578,0.885-1.17,1.7-1.774,2.448s-1.203,1.393-1.796,1.935c-0.594,0.541-1.172,0.965-1.735,1.271
		C95.514,26.348,94.98,26.5,94.48,26.5c-0.207,0-0.398-0.037-0.575-0.11c-0.177-0.074-0.331-0.175-0.464-0.305
		c-0.133-0.128-0.236-0.282-0.311-0.459c-0.073-0.177-0.109-0.368-0.109-0.574v-5.36l-5.704,6.377
		c-0.147,0.147-0.308,0.257-0.48,0.326c-0.174,0.07-0.353,0.105-0.536,0.105c-0.199,0-0.386-0.037-0.559-0.11
		c-0.174-0.074-0.326-0.175-0.459-0.305c-0.133-0.128-0.236-0.282-0.314-0.459c-0.077-0.177-0.116-0.368-0.116-0.574v-10.5h2.874
		v6.809l5.725-6.4c0.207-0.206,0.451-0.337,0.735-0.393c0.284-0.055,0.563-0.023,0.835,0.094c0.272,0.112,0.488,0.286,0.646,0.525
		c0.158,0.24,0.238,0.503,0.238,0.791v6.831c0.619-0.598,1.179-1.227,1.68-1.89s0.967-1.348,1.398-2.051s0.836-1.419,1.215-2.145
		c0.38-0.726,0.75-1.449,1.111-2.172H104.527z"/>
	<path fill="#545454" d="M108.44,12.097h-2.874V9.5h2.874V12.097z M108.44,26.5h-2.874V14.552h2.874V26.5z"/>
	<path fill="#545454" d="M124.302,22.466c0,0.493-0.063,0.938-0.188,1.332c-0.125,0.395-0.291,0.74-0.497,1.039
		c-0.206,0.298-0.446,0.553-0.718,0.762c-0.273,0.211-0.559,0.382-0.857,0.514c-0.299,0.133-0.601,0.231-0.906,0.294
		s-0.595,0.094-0.867,0.094h-5.184c-0.494,0-0.937-0.063-1.327-0.188c-0.391-0.126-0.735-0.294-1.034-0.503
		c-0.297-0.211-0.553-0.452-0.762-0.725c-0.211-0.272-0.381-0.558-0.514-0.856c-0.133-0.298-0.23-0.601-0.294-0.906
		c-0.063-0.306-0.093-0.591-0.093-0.856v-3.891c0-0.736,0.133-1.362,0.402-1.874s0.604-0.928,1.006-1.249
		c0.402-0.32,0.838-0.551,1.311-0.69c0.471-0.141,0.906-0.21,1.305-0.21h5.184v2.874h-5.162c-0.383,0-0.674,0.097-0.873,0.293
		c-0.199,0.195-0.299,0.479-0.299,0.856v3.868c0,0.392,0.098,0.686,0.293,0.884c0.195,0.2,0.48,0.299,0.857,0.299h5.184
		c0.391,0,0.682-0.099,0.873-0.299c0.191-0.198,0.287-0.486,0.287-0.861V9.5h2.874V22.466z"/>
	<path fill="#545454" d="M139.898,18.508c0,0.398-0.07,0.827-0.211,1.289c-0.14,0.461-0.366,0.888-0.68,1.281
		c-0.313,0.395-0.723,0.725-1.227,0.99c-0.505,0.265-1.118,0.397-1.84,0.397h-5.185v-2.73h5.185c0.391,0,0.691-0.12,0.906-0.359
		c0.213-0.238,0.32-0.535,0.32-0.889c0-0.377-0.12-0.672-0.359-0.885c-0.24-0.215-0.529-0.321-0.867-0.321h-5.185
		c-0.391,0-0.692,0.12-0.906,0.359c-0.214,0.24-0.321,0.537-0.321,0.891v4.012c0,0.383,0.12,0.681,0.36,0.896
		c0.239,0.213,0.536,0.32,0.89,0.32h5.162V26.5h-5.185c-0.397,0-0.827-0.069-1.288-0.211c-0.461-0.139-0.888-0.366-1.281-0.679
		c-0.395-0.313-0.725-0.722-0.99-1.228c-0.265-0.504-0.397-1.118-0.397-1.84v-4.035c0-0.397,0.069-0.826,0.21-1.287
		c0.141-0.46,0.366-0.888,0.68-1.282c0.313-0.394,0.723-0.724,1.227-0.988c0.505-0.266,1.119-0.398,1.841-0.398h5.185
		c0.397,0,0.826,0.069,1.287,0.21c0.461,0.14,0.888,0.367,1.283,0.68c0.393,0.313,0.723,0.723,0.988,1.227
		C139.766,17.173,139.898,17.786,139.898,18.508z"/>
</g>
</svg>
