<?xml version="1.0" encoding="utf-8"?>
<!-- Generator: Adobe Illustrator 16.0.0, SVG Export Plug-In . SVG Version: 6.00 Build 0)  -->
<!DOCTYPE svg PUBLIC "-//W3C//DTD SVG 1.1//EN" "http://www.w3.org/Graphics/SVG/1.1/DTD/svg11.dtd">
<svg version="1.1" id="图层_1" xmlns="http://www.w3.org/2000/svg" xmlns:xlink="http://www.w3.org/1999/xlink" x="0px" y="0px"
	 width="258px" height="36px" viewBox="0 0 258 36" enable-background="new 0 0 258 36" xml:space="preserve">
<g>
	<path fill="#545454" d="M18.726,17.439c0.247,0.081,0.37,0.203,0.37,0.369v8.273c0,0.329-0.232,0.548-0.698,0.658
		c-0.466,0.109-0.918,0.164-1.356,0.164h-3.726V8h3.096c0.566,0,1.109,0.092,1.631,0.274c0.52,0.183,0.779,0.529,0.779,1.041
		l-0.026,0.273L18,16.575c0,0.202-0.019,0.339-0.054,0.411c-0.038,0.073-0.12,0.146-0.248,0.22
		C18.138,17.278,18.48,17.356,18.726,17.439z M15.206,16.301l1.042-0.41c0.164-0.036,0.246-0.119,0.246-0.246l0.273-5.918
		c0-0.074-0.127-0.109-0.383-0.109h-1.179c-0.218,0-0.328,0.035-0.328,0.109v6.356C14.877,16.229,14.988,16.301,15.206,16.301z
		 M16.891,25.151c0.138-0.147,0.206-0.293,0.206-0.439c0-0.108-0.02-0.165-0.056-0.165v-6.164c0.056-0.035,0.083-0.063,0.083-0.081
		c0-0.055-0.064-0.083-0.192-0.083h-1.15c-0.056,0-0.114,0.019-0.179,0.055c-0.063,0.038-0.105,0.074-0.123,0.109v6.904
		c0.018,0.019,0.055,0.037,0.109,0.055c0.055,0.02,0.119,0.028,0.192,0.028h0.41C16.521,25.37,16.754,25.297,16.891,25.151z"/>
	<path fill="#545454" d="M27.864,27.452h-1.206l-0.986-7.287l-2.191,1.04l-0.602,6.247h-1.699L22.412,8h4.328L27.864,27.452z
		 M25.151,9.15l-1.177,0.274c-0.11,0.056-0.166,0.146-0.166,0.273v9.646c0,0.09,0.056,0.135,0.166,0.135l1.014-0.163
		c0.109,0,0.163-0.055,0.163-0.164l0.165-9.836C25.316,9.205,25.261,9.15,25.151,9.15z"/>
	<path fill="#545454" d="M34.521,18.959l-2.355-0.467v8.96h-2.028V8h1.974l-0.302,8.631l2.712-0.138V8h2v19.452h-1.205
		L34.521,18.959z"/>
	<path fill="#545454" d="M41.562,26.904h-2.301V8h1.725L41.562,26.904z"/>
	<path fill="#545454" d="M50.219,27.452h-1.206l-0.986-7.287l-2.191,1.04l-0.602,6.247h-1.699L44.767,8h4.328L50.219,27.452z
		 M47.507,9.15l-1.179,0.274c-0.109,0.056-0.164,0.146-0.164,0.273v9.646c0,0.09,0.055,0.135,0.164,0.135l1.015-0.163
		c0.109,0,0.164-0.055,0.164-0.164l0.164-9.836C47.671,9.205,47.617,9.15,47.507,9.15z"/>
	<path fill="#545454" d="M58.658,28h-1.863l-2.686-15.726H54L53.48,28h-1.397l0.876-20h1.672l2.768,15.863h0.191V8h1.617L58.658,28z
		"/>
	<path fill="#545454" d="M67.835,27.452H66.63l-0.987-7.287l-2.191,1.04l-0.603,6.247H61.15L62.382,8h4.33L67.835,27.452z
		 M65.123,9.15l-1.178,0.274c-0.109,0.056-0.164,0.146-0.164,0.273v9.646c0,0.09,0.055,0.135,0.164,0.135l1.014-0.163
		c0.109,0,0.164-0.055,0.164-0.164l0.164-9.836C65.287,9.205,65.232,9.15,65.123,9.15z"/>
</g>
</svg>
