<svg version="1.1" id="图层_1" x="0px" y="0px" width="200.001px" height="54.401px" viewBox="-0.001 72.798 200.001 54.401" enable-background="new -0.001 72.798 200.001 54.401" xml:space="preserve" xmlns="http://www.w3.org/2000/svg" xmlns:xlink="http://www.w3.org/1999/xlink" xmlns:xml="http://www.w3.org/XML/1998/namespace">
  <g>
    <path fill="#404040" d="M199.887,106.027c-2.053-2.523-4.377-4.826-6.666-7.138c-1.144-1.156-2.293-2.306-3.449-3.452
		c-0.987-0.98-3.422-2.633-3.899-3.864c-0.617-0.331-0.591-0.722,0.078-1.17c0.248-0.422,0.543-0.811,0.877-1.166
		c0.466-0.586,0.973-1.144,1.44-1.728c0.75-0.933,1.478-1.884,2.176-2.854c0.236-0.328,0.461-0.667,0.691-1.002
		c0.027-0.006,0.059-0.012,0.086-0.018c0.219-0.051,0.287-0.27,0.236-0.451c1.45-2.146,2.768-4.376,3.947-6.685
		c0.293-0.575-0.139-1.107-0.621-1.195c-0.104-0.299-0.367-0.522-0.789-0.486c-26.742,2.25-30.756,2.378-57.523,0.522
		c-3.313-0.229-6.679-0.666-10.004-0.509c-1.322,0.062-3.4-0.02-4.381,1.106c-0.854,0.979-0.779,1.98-0.246,2.897
		c0.25,3.914,0.539,7.984,1.248,11.805c-9.699,0.201-19.398,0.402-29.098,0.604c-10.406,0.218-20.814,0.505-31.225,0.606
		c0.012-4.891,0.852-9.997,0.399-14.874c0.09-0.295,0.124-0.613,0.083-0.963c-0.289-2.447-3.699-2.413-5.463-2.553
		c-10.646-0.843-21.38-0.512-32.048-0.488c-10.947,0.024-13.254-0.54-24.172,0.251c-0.217,0.014-0.355,0.128-0.431,0.273
		c-0.502,0.105-0.907,0.622-0.544,1.172c1.314,2.005,2.657,3.992,3.998,5.977c-0.03,0.112,0.024,0.243,0.169,0.251
		c0.449,0.666,0.898,1.33,1.346,1.995c0.793,1.178,1.586,2.358,2.378,3.536c-0.014,0.085,0.028,0.167,0.126,0.188
		c0.087,0.127,0.173,0.257,0.26,0.384c0.851,1.266,2.775,3.279,2.723,4.754c-0.05,1.391-1.707,2.955-2.517,4.075
		c-0.943,1.308-1.889,2.615-2.83,3.925c-1.994,2.771-4.049,5.525-5.725,8.504c-0.001,0.002-0.001,0.004-0.001,0.006
		c-0.011,0-0.021,0-0.033,0c-0.657,0.045-0.635,0.932,0,1.006c5.604,0.644,11.326,0.535,16.963,0.672
		c5.447,0.135,2.072,0.367,7.523,0.379c0.001,0.308,0.005,0.615,0.004,0.922c-0.005,2.332-0.063,4.674-0.064,7.012
		c-0.162,0.016-0.252,0.289-0.075,0.37c0.024,0.01,0.05,0.021,0.074,0.03c0.002,0.951,0.013,1.906,0.044,2.854
		c0.063,1.894,0.211,3.806,2.048,4.806c2.197,1.195,5.496,0.603,7.895,0.643c3.853,0.066,7.706,0.117,11.56,0.154
		c7.493,0.076,14.985,0.101,22.479,0.086c15.201-0.029,30.402-0.221,45.601-0.489c7.492-0.134,14.986-0.287,22.479-0.448
		c3.639-0.078,7.277-0.158,10.918-0.24c3.666-0.084,7.623,0.221,11.256-0.279c6.319-0.869,4.953-8.006,4.49-12.51
		c-0.16-1.568-0.268-3.136-0.348-4.703c2.967,0.418,3.816,0.642,3.859,0.754c0.604-0.012,1.502-0.016,2.836-0.006
		c9.647,0.069,19.447,0.158,28.951-1.741c0.477-0.097,0.67-0.438,0.654-0.798C199.93,106.695,200.141,106.342,199.887,106.027z
		 M127.686,90.017c-0.576-0.207-1.228-0.191-1.836-0.239c-0.496-0.037-0.99-0.077-1.484-0.109c-0.004-0.722-0.022-1.449-0.067-2.187
		c2.244,1.218,5.146,2.033,7.593,1.325c0.326-0.095,0.252-0.562-0.078-0.579c-1.404-0.076-2.729,0.079-4.127-0.195
		c-1.195-0.233-2.343-0.65-3.435-1.185c-0.074-0.96-0.176-1.929-0.31-2.894c4.131,1.524,8.633,2.318,13.031,2.248
		c0.479-0.008,0.473-0.711,0-0.739c-4.502-0.263-8.772-0.944-13.117-2.108c-0.141-0.953-0.303-1.903-0.483-2.838
		c1.003,0.807,2.176,1.431,2.942,1.737c4.92,1.968,10.981,2.025,16.195,2.344c3.344,0.205,6.693,0.291,10.043,0.271
		c3.295-0.021,6.943-0.339,9.184,2.26c-0.818,2.013-2.114,2.95-3.897,2.782c-0.639,0.012-1.276,0.026-1.916,0.038
		c-1.489,0.027-2.979,0.06-4.469,0.092c-2.556,0.056-5.106,0.109-7.662,0.163c-5.533,0.117-11.065,0.235-16.601,0.351
		c-0.95,0.021-1.901,0.04-2.854,0.06c0.01-0.037,0.025-0.073,0.026-0.115c0.003-0.125-0.001-0.255,0-0.383
		c0.444,0.063,0.891,0.12,1.337,0.176c0.656,0.084,1.324,0.237,1.984,0.144C127.919,90.401,127.863,90.081,127.686,90.017z
		 M46.823,85.526c5.13,0.341,10.746-1.997,14.896-4.925c-0.135,1.045-0.276,2.097-0.396,3.147c-2.54,1.473-5.221,2.471-8.142,2.922
		c-0.313,0.05-0.244,0.598,0.076,0.56c2.814-0.333,5.492-1.142,7.96-2.497c-0.051,0.522-0.091,1.042-0.122,1.561
		c-3.503,2.059-6.548,3.384-10.734,3.749c-0.228,0.02-0.233,0.347,0,0.36c3.596,0.209,7.779-0.869,10.691-3.154
		c-0.021,0.765-0.009,1.522,0.045,2.271c-0.224,0.165-0.451,0.329-0.704,0.456c-0.623,0.317-1.289,0.49-1.983,0.551
		c-0.343,0.031-0.354,0.556,0,0.544c0.867-0.03,1.928-0.239,2.776-0.706c0.062,0.505,0.139,1.007,0.25,1.501
		c-5.447,0.042-10.894-0.014-16.339-0.167c-2.558-0.072-5.113-0.168-7.67-0.285c-2.729-0.126-8.916,0.556-10.465-2.344
		c-0.273-2.976,6.417-3.617,8.16-3.968c2.32-0.469,4.651-0.873,6.982-1.288c5.027-0.893,10.076-1.804,14.953-3.344
		c1.207-0.381,3.478-0.905,4.912-1.959c-0.042,0.395-0.09,0.793-0.139,1.193c-0.08-0.016-0.17-0.008-0.266,0.048
		c-4.822,2.862-9.461,4.034-14.781,5.501C46.629,85.298,46.67,85.517,46.823,85.526z M25.267,88.898
		c-0.622,6.575-0.355,13.319-0.302,19.948c-5.443-0.255-2.072-0.291-7.519-0.425c-5.21-0.127-10.48-0.464-15.695-0.223
		c0.425-0.48,0.832-0.978,1.239-1.474c3.278,0.31,6.799,0.215,9.93-0.789c0.268-0.086,0.24-0.561-0.07-0.521
		c-3.189,0.42-6.215,0.821-9.396,0.751c0.591-0.736,1.163-1.488,1.729-2.244c4.897,0.333,9.983,0.262,14.815-0.558
		c0.315-0.054,0.244-0.58-0.075-0.56c-4.817,0.315-9.552,0.633-14.372,0.625c0.605-0.813,1.2-1.635,1.796-2.453
		c2.22,0.271,4.553,0.119,6.774,0.045c0.305-0.008,0.306-0.465,0-0.475c-2.12-0.069-4.341-0.209-6.468,0.01
		c0.117-0.159,0.234-0.317,0.35-0.479c0.545-0.745,1.088-1.49,1.632-2.235c2.891,0.027,5.781,0.077,8.671-0.028
		c0.314-0.012,0.315-0.477,0-0.488c-2.757-0.1-5.516-0.062-8.273-0.032c0.511-0.701,1.023-1.402,1.533-2.104
		c0.202-0.276,0.448-0.565,0.697-0.866c2.354,0.143,4.768,0.161,7.072-0.373c0.244-0.056,0.192-0.45-0.061-0.44
		c-2.199,0.092-4.365,0.283-6.562,0.245c0.44-0.584,0.814-1.21,0.866-1.886c0.025-0.333-0.039-0.697-0.157-1.076
		c2.056,0.044,4.127,0.105,6.172-0.054c0.31-0.023,0.31-0.456,0-0.482c-2.118-0.165-4.265-0.092-6.392-0.048
		c-0.524-1.182-1.505-2.473-2.401-3.607c2.293-0.006,4.605,0.013,6.866-0.217c0.244-0.026,0.254-0.375,0-0.387
		c-2.378-0.105-4.798,0.063-7.193,0.189c-0.475-0.596-0.907-1.141-1.2-1.574c-0.202-0.302-0.404-0.603-0.606-0.905
		c2.567,0.076,5.15,0.142,7.707-0.016c0.341-0.022,0.342-0.509,0-0.53c-2.68-0.166-5.391-0.086-8.078-0.006
		c-0.499-0.746-0.999-1.489-1.498-2.234c2.871,0.09,5.759,0.371,8.604,0.267c0.284-0.012,0.369-0.448,0.069-0.514
		c-2.861-0.628-6.056-0.521-9.047-0.309c-0.586-0.873-1.18-1.74-1.767-2.611c4.01-0.04,8.051,0.163,12.038-0.056
		c0.464-0.026,0.443-0.651,0-0.705c-4.04-0.486-8.331-0.176-12.414,0.207c-0.655-0.971-1.307-1.945-1.97-2.91
		c9.844,0.62,11.028,0.109,20.887,0.098c10.064-0.014,20.165-0.261,30.221,0.231c1.248,0.062,2.497,0.132,3.744,0.231
		c1.421,0.111,5.511-0.295,2.815,2.936c-0.936,1.122-5.322,1.668-6.762,2.024c-4.587,1.139-9.265,1.876-13.913,2.707
		C36.432,83.035,24.544,83.887,25.267,88.898z M158.205,123.986c-6.504,0.736-13.359,0.32-19.908,0.468
		c-6.637,0.149-13.273,0.293-19.908,0.422c-26.542,0.519-53.094,0.817-79.64,0.461c-3.382-0.046-11.039,1.199-12.08-3.243
		c2.571,1.387,5.772,2.139,8.6,1.575c0.211-0.042,0.142-0.337-0.048-0.354c-3.152-0.279-5.808-0.662-8.662-1.873
		c-0.11-0.709-0.161-1.45-0.185-2.203c2.748,0.984,5.722,1.383,8.606,0.812c0.261-0.053,0.204-0.483-0.063-0.467
		c-2.984,0.192-5.763,0.04-8.556-0.835c-0.011-0.818,0.019-1.652,0.057-2.484c1.497,0.439,3.067,0.686,4.625,0.493
		c0.267-0.032,0.283-0.421,0-0.427c-1.569-0.04-3.086-0.141-4.604-0.512c0.049-0.959,0.105-1.909,0.146-2.834
		c1.005,0.305,2.318,0.361,2.924,0.447c2.333,0.334,4.779,0.375,7.084-0.15c0.295-0.065,0.236-0.553-0.071-0.532
		c-1.807,0.112-3.577,0.295-5.388,0.169c-0.997-0.066-1.99-0.189-2.974-0.372c-0.226-0.042-0.936-0.118-1.549-0.203
		c0.012-0.377,0.019-0.743,0.019-1.104c0.001-0.487,0.006-0.977,0.011-1.465c1.873,0.388,3.783,0.522,5.696,0.459
		c0.429-0.017,0.428-0.689,0-0.666c-1.924,0.113-3.799-0.023-5.693-0.306c0.014-1.305,0.036-2.614,0.06-3.926
		c3.54,1.283,7.46,1.802,11.178,1.212c0.313-0.05,0.234-0.552-0.074-0.546c-3.855,0.097-7.417-0.214-11.093-1.254
		c0.016-0.933,0.03-1.869,0.044-2.806c2.292,0.916,4.827,1.156,7.255,0.713c0.306-0.057,0.239-0.578-0.073-0.547
		c-2.506,0.262-4.804,0.009-7.173-0.732c0.015-1.2,0.019-2.397,0.015-3.596c3.771,1.304,7.834,1.643,11.736,0.689
		c0.332-0.081,0.181-0.54-0.137-0.496c-3.997,0.54-7.776,0.369-11.603-0.775c-0.007-0.933-0.023-1.865-0.049-2.794
		c2.709,0.406,5.438,0.758,8.168,0.923c0.279,0.018,0.349-0.442,0.067-0.492c-2.728-0.477-5.493-0.768-8.254-1.001
		c-0.03-0.918-0.067-1.835-0.125-2.748c0.763,0.831,2.047,1.298,3.344,1.471c5.184,0.696,10.583,0.662,15.807,0.827
		c10.552,0.333,21.103,0.126,31.653-0.086c21.708-0.432,43.417-0.866,65.124-1.289c5.641-0.109,11.838,0.486,17.401-0.454
		c0.905-0.153,1.771-0.528,2.464-1.053c-0.086,0.608-0.156,1.22-0.23,1.83c-3.801,1.347-7.638,2.2-11.666,2.612
		c-0.297,0.03-0.312,0.488,0,0.475c3.953-0.168,7.828-0.927,11.561-2.219c-0.093,0.836-0.176,1.675-0.246,2.514
		c-2.365,0.967-4.463,1.773-7.119,1.955c-0.303,0.02-0.309,0.467,0,0.475c2.313,0.056,4.957-0.359,7.041-1.525
		c-0.05,0.648-0.094,1.298-0.131,1.947c-0.002,0-0.002,0-0.002,0c-4.342,1.886-8.609,2.794-13.357,2.344
		c-0.313-0.029-0.392,0.511-0.076,0.555c4.556,0.617,9.259,0.06,13.386-2.021c-0.063,1.284-0.108,2.573-0.12,3.86
		c-0.879,0.258-1.732,0.639-2.62,0.871c-1.248,0.329-2.513,0.506-3.797,0.62c-0.235,0.021-0.244,0.373,0,0.371
		c1.996-0.009,4.521-0.218,6.415-1.146c0,0.438-0.001,0.871,0.004,1.309c0.003,0.18,0.012,0.355,0.016,0.535
		c-4.319,1.365-8.254,2.628-12.873,2.768c-0.291,0.008-0.291,0.444,0,0.446c4.291,0.032,9.021-0.55,12.889-2.56
		c0.064,2.438,0.227,4.875,0.488,7.303c-4.045,1.31-7.738,2.338-12.09,2.216c-0.238-0.007-0.232,0.351,0,0.366
		c4.016,0.291,8.488-0.131,12.152-1.959c0.092,0.802,0.21,1.658,0.292,2.521c-0.006,0.002-0.01,0.002-0.017,0.004
		c-3.313,1.443-6.543,2.25-10.184,2.063c-0.225-0.014-0.221,0.324,0,0.345c3.494,0.31,7.116-0.212,10.244-1.856
		C162.561,120.583,162.139,123.545,158.205,123.986z M169.385,107.418c-4.699-0.034,0.906-0.09-3.793-0.162
		c-0.917-0.014-1.402-0.037-1.613-0.064c-0.203,0.021-0.436,0.041-0.711,0.066c-0.242-6.449,0.185-12.878,1.211-19.288
		c0.09-0.558-0.313-0.948-0.746-1.038c-0.098-0.307-0.239-0.62-0.442-0.938c-0.22-0.341-0.552-0.437-0.849-0.373
		c-1.396-1.877-3.975-2.509-6.469-2.627c-5.752-0.272-11.469-0.048-17.223-0.554c-2.962-0.263-5.982-0.504-8.895-1.124
		c-1.492-0.317-2.988-0.735-4.313-1.515c-1.505-0.488-1.938-1.511-1.304-3.065c0.744-0.075,1.486-0.153,2.229-0.229
		c6.01-0.314,12.28,0.779,18.284,1.116c23.854,1.338,24.959,0.971,48.767-1.012c-0.599,1.086-1.222,2.152-1.869,3.204
		c-5.191,0.186-10.527,0.27-15.676,0.947c-0.232,0.031-0.25,0.364,0,0.374c5.006,0.189,10.135-0.193,15.146-0.488
		c-0.519,0.817-1.05,1.625-1.604,2.418c-1.371,0.146-2.738,0.351-4.111,0.466c-1.653,0.138-3.33,0.132-4.963,0.429
		c-0.125,0.022-0.129,0.235,0,0.255c2.556,0.403,5.588,0.281,8.348-0.129c-0.441,0.604-0.891,1.205-1.357,1.796
		c-0.005,0.004-0.012,0.012-0.017,0.016c-4.929,0.368-9.687,0.975-14.662,0.793c-0.306-0.01-0.298,0.444,0,0.469
		c4.492,0.362,9.347,0.494,13.836-0.375c-0.864,0.867-1.998,1.955-2.571,3.054c-3.093-0.013-6.26,0.51-9.332,0.793
		c-0.293,0.025-0.302,0.479,0,0.46c2.985-0.184,6.088-0.165,9.061-0.598c-0.113,0.391-0.133,0.777-0.018,1.148
		c0.112,0.366,0.395,0.727,0.729,1.069c-3.689-0.018-7.408,0.304-11.073,0.69c-0.246,0.025-0.258,0.406,0,0.393
		c3.866-0.193,7.735-0.218,11.601-0.383c0.068-0.004,0.123-0.026,0.172-0.054c0.304,0.261,0.597,0.502,0.809,0.711
		c0.616,0.606,1.232,1.212,1.848,1.82c-3.084,0.012-6.172,0.255-9.265,0.213c-0.203-0.002-0.198,0.299,0,0.311
		c3.209,0.205,6.587,0.398,9.793-0.004c0.513,0.505,1.022,1.011,1.534,1.513c0.132,0.13,0.268,0.259,0.398,0.389
		c-4.879,0.142-9.731,0.442-14.625,0.358c-0.211-0.004-0.209,0.317,0,0.325c5.006,0.226,10.131,0.356,15.121-0.199
		c0.814,0.797,1.629,1.595,2.449,2.391c-4.326-0.256-8.732,0.004-13.064,0.043c-0.262,0.002-0.262,0.404,0,0.406
		c4.482,0.04,9.05,0.323,13.523,0.021c0.012,0,0.016-0.012,0.025-0.014c0.689,0.662,1.377,1.326,2.08,1.973
		c-7.279-0.338-14.809,0.104-22.066,0.576c-0.234,0.014-0.238,0.359,0,0.363c7.432,0.153,15.141,0.264,22.54-0.443
		c0.024,0,0.04-0.008,0.06-0.014c0.646,0.582,1.302,1.156,1.97,1.711C188.68,107.344,179.089,107.486,169.385,107.418z" class="color c1"/>
    <path fill="#404040" d="M167.189,109.279C164.764,109.325,167.27,109.48,167.189,109.279L167.189,109.279z" class="color c1"/>
    <path fill="#404040" d="M163.977,107.189C166.684,106.922,163.115,107.081,163.977,107.189L163.977,107.189z" class="color c1"/>
    <path fill="#404040" d="M161.436,120.061c-6.01,1.28-11.871,2.215-18.033,2.34c-0.176,0.004-0.174,0.261,0,0.271
		c6.074,0.383,12.382-0.156,18.188-2.057C161.943,120.5,161.8,119.98,161.436,120.061z" class="color c1"/>
    <path fill="#404040" d="M154.355,112.339c2.293,0.093,5.254-0.339,6.992-1.979c0.188-0.178-0.007-0.565-0.269-0.457
		c-1.037,0.426-1.961,1.033-3.047,1.373c-1.198,0.371-2.425,0.518-3.679,0.494C153.986,111.761,153.988,112.322,154.355,112.339z" class="color c1"/>
  </g>
</svg>