<?xml version="1.0" encoding="utf-8"?>
<!-- Generator: Adobe Illustrator 16.0.0, SVG Export Plug-In . SVG Version: 6.00 Build 0)  -->
<!DOCTYPE svg PUBLIC "-//W3C//DTD SVG 1.1//EN" "http://www.w3.org/Graphics/SVG/1.1/DTD/svg11.dtd">
<svg version="1.1" id="图层_1" xmlns="http://www.w3.org/2000/svg" xmlns:xlink="http://www.w3.org/1999/xlink" x="0px" y="0px"
	 width="258px" height="36px" viewBox="0 0 258 36" enable-background="new 0 0 258 36" xml:space="preserve">
<g>
	<path fill="#545454" d="M13.316,19.447c0-2.443,0.763-4.549,2.289-6.316c1.526-1.766,3.479-2.65,5.861-2.65
		c0.404,0,0.685,0.005,0.841,0.012c0.156,0.008,0.443,0.028,0.864,0.059c0.42,0.031,0.731,0.089,0.934,0.175s0.44,0.207,0.712,0.361
		c0.272,0.156,0.467,0.366,0.584,0.631c0.117,0.266,0.175,0.576,0.175,0.935c0,0.109-0.031,0.233-0.094,0.374
		c-0.062,0.14-0.147,0.209-0.257,0.209c-0.265,0-0.739-0.12-1.424-0.361c-0.686-0.241-1.222-0.361-1.611-0.361
		c-0.887,0-1.97,0.24-3.246,0.723c-2.023,0.747-3.036,2.864-3.036,6.352c0,0.031,0.004,0.13,0.012,0.292
		c0.008,0.164,0.012,0.261,0.012,0.292c0.093,0.031,0.167,0.156,0.222,0.374c0.054,0.219,0.093,0.455,0.117,0.713
		c0.023,0.257,0.05,0.417,0.081,0.479c0.747,1.728,2.748,2.592,6.001,2.592c0.42,0,0.961-0.144,1.623-0.432
		c0.662-0.288,1.055-0.433,1.179-0.433c0.28,0,0.42,0.188,0.42,0.561c0,0.451-0.043,0.859-0.128,1.226s-0.191,0.548-0.315,0.548
		c-0.063,0-0.148-0.007-0.257-0.021h-0.163c-1.65,0.295-2.951,0.443-3.899,0.443c-0.063,0-0.156-0.004-0.28-0.012
		c-0.125-0.009-0.218-0.013-0.281-0.013c-0.046,0.079-0.167,0.147-0.362,0.212c-0.195,0.062-0.362,0.093-0.502,0.093
		c-1.65-0.124-3.075-0.911-4.273-2.358C13.916,22.692,13.316,21.13,13.316,19.447z M13.993,19.026v0.141
		c0,0.39,0.102,0.584,0.304,0.584c0.187,0,0.49-0.241,0.91-0.725H13.993z M15.418,17.51c-0.436,0-0.751,0.058-0.946,0.175
		c-0.195,0.116-0.292,0.37-0.292,0.759v0.116c0.016,0.079,0.023,0.125,0.023,0.141C15.013,18.203,15.418,17.806,15.418,17.51z
		 M14.203,20.592c0,0.093,0.02,0.214,0.059,0.361c0.038,0.148,0.066,0.223,0.082,0.223h0.28l0.747-0.725v-0.163
		C14.593,20.288,14.203,20.39,14.203,20.592z M15.138,19.424c-0.14,0-0.304,0.081-0.49,0.245c-0.187,0.164-0.289,0.331-0.304,0.502
		c0.234,0,0.404-0.007,0.514-0.022c0.109-0.016,0.222-0.065,0.338-0.151s0.175-0.224,0.175-0.41c0-0.03-0.035-0.065-0.105-0.104
		C15.196,19.443,15.153,19.424,15.138,19.424z M15.371,16.132h-0.747c-0.109,0-0.164,0.171-0.164,0.514v0.187l0.911-0.561V16.132z
		 M15.371,16.552c-0.218,0-0.522,0.241-0.911,0.725c0.015,0,0.047,0,0.094,0c0.202,0,0.358-0.009,0.467-0.024
		c0.108-0.015,0.214-0.065,0.315-0.151c0.102-0.085,0.152-0.222,0.152-0.408c0-0.016-0.016-0.043-0.046-0.081
		C15.41,16.571,15.386,16.552,15.371,16.552z M15.371,18.117c-0.42,0.172-0.724,0.365-0.911,0.583c0.031,0,0.094,0.005,0.187,0.012
		c0.093,0.008,0.164,0.012,0.21,0.012c0.358,0,0.537-0.125,0.537-0.373C15.395,18.225,15.386,18.148,15.371,18.117z M18.804,24.911
		c-0.016,0.187,0.292,0.327,0.923,0.42c0.63,0.094,1.14,0.141,1.529,0.141c0.623,0,1.288-0.05,1.997-0.151
		c0.708-0.101,1.194-0.238,1.459-0.409v-0.443c-1.292,0.405-2.25,0.607-2.873,0.607c-0.187,0-0.63-0.055-1.331-0.164
		c-0.218-0.047-0.946-0.253-2.184-0.619c-1.237-0.364-1.895-0.548-1.973-0.548l0.28-0.257c-0.046-0.109-0.101-0.164-0.164-0.164
		c-0.031,0-0.078,0.008-0.14,0.024c-0.063,0.016-0.109,0.022-0.14,0.022c0-0.187-0.004-0.314-0.012-0.385
		c-0.008-0.07-0.055-0.152-0.14-0.246c-0.086-0.094-0.222-0.14-0.409-0.14c0.14-0.077,0.241-0.218,0.304-0.421
		c-0.265,0-0.397-0.17-0.397-0.514h-0.467c0.062-0.046,0.144-0.088,0.245-0.128c0.102-0.039,0.179-0.077,0.233-0.117
		c0.055-0.038,0.082-0.081,0.082-0.128c0-0.187-0.046-0.374-0.14-0.561c-0.156,0.032-0.339,0.137-0.549,0.314
		c-0.21,0.18-0.315,0.34-0.315,0.479c0,0.047,0.05,0.218,0.151,0.514c0.101,0.297,0.16,0.444,0.176,0.444
		c0.108,0,0.249-0.062,0.42-0.188c-0.109,0.078-0.164,0.18-0.164,0.304c0,0.233,0.035,0.448,0.105,0.643
		c0.07,0.194,0.179,0.37,0.327,0.526c0.148,0.154,0.288,0.283,0.42,0.383c0.132,0.103,0.322,0.208,0.572,0.316
		c0.249,0.109,0.439,0.188,0.572,0.233c0.132,0.048,0.339,0.114,0.619,0.199c0.28,0.086,0.459,0.144,0.537,0.175h0.023
		C18.415,25.075,18.555,25.021,18.804,24.911z M15.861,14.638c-0.171,0-0.35,0.058-0.537,0.175c-0.187,0.116-0.28,0.245-0.28,0.386
		c0,0.015,0.008,0.038,0.023,0.069c0.015-0.015,0.07-0.043,0.163-0.081c0.094-0.04,0.167-0.074,0.222-0.105
		c0.055-0.03,0.117-0.07,0.187-0.116c0.07-0.047,0.125-0.098,0.164-0.152S15.861,14.699,15.861,14.638z M15.932,15.127
		c-0.187,0.047-0.429,0.233-0.724,0.561c0.031,0.031,0.102,0.046,0.21,0.046c0.155,0,0.284-0.049,0.385-0.15
		c0.101-0.102,0.152-0.23,0.152-0.385v-0.024L15.932,15.127z M15.488,14.239v0.328c0.202-0.141,0.424-0.254,0.666-0.34
		c0.241-0.084,0.4-0.152,0.478-0.198c0.078-0.047,0.148-0.163,0.21-0.35c0.063-0.187,0.094-0.475,0.094-0.864L15.488,14.239z
		 M17.986,12.186c-0.187,0-0.343,0.062-0.467,0.187c-0.125,0.125-0.187,0.288-0.187,0.49c0.155,0,0.303-0.074,0.443-0.222
		S17.986,12.341,17.986,12.186z M18.36,12.231l-0.396,0.584c0.28-0.28,0.42-0.451,0.42-0.514v-0.022L18.36,12.231z M18.804,11.929
		l0.14,0.303c0.763-0.545,1.145-0.832,1.145-0.863h-0.257c-0.125,0-0.327,0.081-0.607,0.245
		C18.944,11.776,18.804,11.882,18.804,11.929z M20.182,11.788c-0.219,0-0.53,0.242-0.935,0.725c0.343-0.016,0.677-0.258,1.004-0.725
		H20.182z M20.369,11.228c0,0.125,0.108,0.273,0.327,0.444l0.42-0.444H20.369z M21.255,11.484c-0.14,0-0.288,0.148-0.443,0.444
		l0.069,0.023c0.047,0,0.078,0,0.094,0c0.171,0,0.319-0.148,0.444-0.444l-0.07-0.023C21.303,11.484,21.271,11.484,21.255,11.484z
		 M21.699,11.228v0.164c0.125,0,0.218-0.056,0.28-0.164H21.699z M22.4,11.228l-0.561,0.561c0.078,0.016,0.125,0.024,0.14,0.024
		c0.124,0,0.226-0.063,0.304-0.188C22.36,11.501,22.4,11.368,22.4,11.228z M23.217,11.182c-0.093,0-0.184,0.034-0.269,0.104
		c-0.086,0.069-0.152,0.132-0.199,0.187s-0.07,0.074-0.07,0.06C23.039,11.532,23.217,11.415,23.217,11.182z M23.498,11.345
		c-0.14,0-0.269,0.09-0.385,0.269s-0.175,0.331-0.175,0.455c0.171,0,0.311-0.069,0.42-0.21c0.109-0.141,0.179-0.304,0.21-0.49
		L23.498,11.345z M23.964,11.672c-0.093,0.155-0.14,0.319-0.14,0.49c0.14,0,0.276-0.048,0.408-0.141s0.199-0.209,0.199-0.35
		c0-0.14-0.051-0.254-0.152-0.339c-0.101-0.086-0.221-0.13-0.361-0.13c-0.047,0-0.098,0.06-0.152,0.177
		c-0.054,0.116-0.081,0.214-0.081,0.292H23.964z M24.572,12.302c0,0.156,0.101,0.233,0.303,0.233v-0.747
		C24.673,11.913,24.572,12.084,24.572,12.302z"/>
	<path fill="#545454" d="M33.539,24.981c-0.125,0-0.3,0.079-0.525,0.233c-0.226,0.155-0.37,0.233-0.433,0.233
		c-0.778,0.359-1.424,0.538-1.938,0.538c-0.98,0-1.899-0.292-2.755-0.876c-0.856-0.583-1.285-1.421-1.285-2.511
		c0-0.202,0.059-0.524,0.176-0.969s0.221-0.767,0.315-0.969c0.342-0.498,0.981-0.867,1.915-1.11c0.934-0.24,1.763-0.435,2.487-0.582
		c0.724-0.149,1.085-0.379,1.085-0.69c0-0.467-0.151-0.859-0.455-1.179c-0.305-0.318-0.728-0.479-1.273-0.479
		c-0.343,0-0.783,0.122-1.319,0.363c-0.537,0.241-0.915,0.361-1.132,0.361c-0.405,0-0.607-0.413-0.607-1.238
		c0-0.918,0.809-1.377,2.428-1.377c0.203,0,0.553,0.04,1.051,0.116c0.498,0.078,0.84,0.118,1.027,0.118
		c0.046,0,0.132-0.005,0.257-0.012c0.124-0.009,0.218-0.013,0.28-0.013c0.389,0,0.584,0.148,0.584,0.444
		c0.374,0,0.56,0.14,0.56,0.42c0.436,0,0.747,0.358,0.934,1.074c0.187,0.716,0.28,1.386,0.28,2.008c0,0.405-0.063,0.997-0.187,1.775
		c-0.125,0.779-0.187,1.362-0.187,1.75c0,0.095,0.015,0.23,0.046,0.41c0.031,0.179,0.047,0.315,0.047,0.408
		c0,0.015-0.004,0.046-0.011,0.093c-0.008,0.047-0.012,0.086-0.012,0.117c0.078,0.156,0.125,0.242,0.14,0.257
		c0,0.109,0.082,0.199,0.246,0.269c0.163,0.07,0.346,0.124,0.548,0.164c0.203,0.038,0.386,0.116,0.549,0.233
		c0.164,0.117,0.245,0.269,0.245,0.454c0,0.671-0.194,1.113-0.584,1.332c-0.482-0.156-0.817-0.249-1.004-0.28
		c-0.156-0.031-0.436-0.188-0.84-0.467C33.788,25.122,33.569,24.981,33.539,24.981z M27.538,22.529
		c-0.047,0-0.109,0.032-0.188,0.095c-0.077,0.062-0.117,0.107-0.117,0.14l0.023,0.069c0.047,0,0.109-0.023,0.187-0.069
		c0.078-0.047,0.117-0.086,0.117-0.118V22.6C27.545,22.569,27.538,22.545,27.538,22.529z M27.256,23.697
		c0.016,0.047,0.05,0.098,0.105,0.152c0.054,0.054,0.105,0.098,0.152,0.128c0.047,0.031,0.078,0.047,0.093,0.047
		c0.109,0,0.202-0.094,0.28-0.28c0.078-0.188,0.117-0.327,0.117-0.421C27.615,23.323,27.366,23.449,27.256,23.697z M27.538,21.525
		c-0.109,0-0.165,0.156-0.165,0.468c0.234,0,0.436-0.102,0.608-0.304C27.825,21.58,27.677,21.525,27.538,21.525z M28.261,22.25
		c0.047-0.047,0.07-0.125,0.07-0.233c0-0.016-0.039-0.023-0.117-0.023c-0.452,0-0.724,0.085-0.817,0.257H28.261z M28.028,22.786
		c-0.219,0-0.382,0.118-0.49,0.352C27.864,23.138,28.028,23.021,28.028,22.786z M27.817,21.223c0.031,0.047,0.125,0.108,0.28,0.187
		c0.155,0.078,0.257,0.116,0.304,0.116c0.031,0,0.093-0.059,0.187-0.175c0.093-0.117,0.14-0.199,0.14-0.245h-0.63
		c0.078-0.141,0.424-0.311,1.039-0.514c0.615-0.202,0.992-0.413,1.132-0.631h-0.093c-0.67,0-1.02,0.141-1.051,0.421
		c-0.078,0.031-0.187,0.069-0.327,0.117c-0.14,0.046-0.249,0.085-0.327,0.116c-0.078,0.031-0.164,0.074-0.257,0.129
		c-0.094,0.054-0.171,0.12-0.233,0.198C27.918,21.021,27.864,21.113,27.817,21.223z M28.331,23.79c-0.203,0-0.319,0.11-0.35,0.328
		C28.214,24.087,28.331,23.978,28.331,23.79z M28.401,15.828c0,0.233,0.054,0.404,0.163,0.514c0.171,0,0.447-0.059,0.829-0.176
		c0.381-0.116,0.626-0.252,0.735-0.408l0.234,0.188c0.016,0,0.066-0.031,0.152-0.094c0.085-0.063,0.152-0.094,0.199-0.094
		c0.171,0,0.377,0.035,0.619,0.105c0.241,0.069,0.463,0.104,0.666,0.104c0-0.357-0.085-0.536-0.257-0.536
		c-0.032,0-0.097,0.011-0.199,0.035c-0.101,0.021-0.175,0.034-0.221,0.034c-0.296-0.016-0.499-0.023-0.607-0.023
		C29.841,15.478,29.07,15.594,28.401,15.828z M28.658,22.576c0,1.044,0.49,1.565,1.47,1.565c0.452,0,1.024-0.138,1.717-0.409
		c0.692-0.271,1.039-0.604,1.039-0.993v-0.094c0-0.279-0.004-0.492-0.011-0.641c-0.008-0.148-0.032-0.343-0.07-0.585
		c-0.039-0.241-0.102-0.428-0.187-0.56c-0.086-0.132-0.214-0.249-0.386-0.35c-0.171-0.102-0.382-0.152-0.63-0.152
		c-0.078,0-0.195,0.034-0.35,0.105c-0.156,0.068-0.265,0.104-0.327,0.104c-0.109,0-0.23,0.035-0.362,0.104
		c-0.133,0.071-0.296,0.172-0.491,0.305c-0.194,0.132-0.315,0.214-0.362,0.245c-0.14,0.078-0.296,0.322-0.467,0.735
		C29.07,22.37,28.875,22.576,28.658,22.576z M28.821,24.864c0.031,0.018,0.101,0.051,0.21,0.105
		c0.108,0.055,0.206,0.103,0.292,0.141s0.152,0.059,0.199,0.059c0-0.078-0.058-0.18-0.175-0.305
		c-0.117-0.123-0.207-0.187-0.269-0.187C28.969,24.678,28.883,24.741,28.821,24.864z M29.989,25.263
		c0.203,0.124,0.319,0.186,0.35,0.186c0.141,0,0.211-0.147,0.211-0.443l-0.117-0.023C30.245,24.981,30.098,25.075,29.989,25.263z
		 M31.227,19.587l-0.654,0.327l0.864-0.116L31.227,19.587z M32.161,24.398c-0.249,0-0.506,0.082-0.771,0.245
		c-0.265,0.163-0.396,0.37-0.396,0.619l1.004-0.258L32.161,24.398z M31.88,19.798c0.171,0.108,0.405,0.163,0.7,0.163
		c0.14,0,0.288-0.055,0.444-0.163c-0.233-0.172-0.444-0.258-0.63-0.258C32.129,19.54,31.958,19.626,31.88,19.798z M32.674,15.758
		c-0.14,0-0.265,0.06-0.374,0.175c-0.109,0.117-0.164,0.253-0.164,0.409c0.016,0,0.055,0.004,0.117,0.012
		c0.062,0.009,0.101,0.011,0.117,0.011c0.155,0,0.35-0.033,0.583-0.104c0.234-0.069,0.351-0.16,0.351-0.269
		C33.305,15.836,33.094,15.758,32.674,15.758z M32.441,24.258v0.491c0.155,0,0.295-0.074,0.42-0.222
		c0.125-0.149,0.187-0.309,0.187-0.479l-0.023-0.094c0-0.062,0-0.101,0-0.117l-0.304,0.305l0.047,0.116H32.441z M33.094,18.653
		l-0.21,0.257l0.818-0.117L33.094,18.653z M33.024,16.973c0,0.046,0.032,0.101,0.093,0.163c0.063,0.063,0.132,0.094,0.211,0.094
		c0.389,0,0.583-0.141,0.583-0.421c0-0.109-0.043-0.233-0.129-0.374c-0.086-0.14-0.183-0.209-0.292-0.209L33.024,16.973z
		 M33.422,20.662c0,0.171,0.035,0.396,0.104,0.677c0.07,0.28,0.105,0.506,0.105,0.678s-0.023,0.357-0.07,0.56
		c0.342-0.078,0.591-0.42,0.747-1.027c0.155-0.606,0.233-1.252,0.233-1.938c0-0.406-0.023-0.686-0.07-0.841
		c-0.343,0-0.825,0.201-1.448,0.606c0.032,0.126,0.187,0.214,0.467,0.269c0.281,0.056,0.451,0.105,0.514,0.152
		c-0.063,0.093-0.125,0.167-0.187,0.221c-0.063,0.056-0.117,0.091-0.164,0.106c-0.047,0.015-0.09,0.039-0.129,0.07
		c-0.039,0.03-0.066,0.081-0.081,0.151C33.43,20.416,33.422,20.521,33.422,20.662z M34.169,17.346
		c-0.031,0.015-0.082,0.032-0.152,0.047c-0.07,0.016-0.121,0.031-0.152,0.047c-0.031,0.017-0.078,0.035-0.14,0.058
		c-0.062,0.023-0.109,0.043-0.14,0.06c-0.032,0.015-0.07,0.038-0.117,0.069c-0.046,0.032-0.082,0.066-0.105,0.105
		s-0.043,0.081-0.059,0.128c-0.015,0.047-0.023,0.102-0.023,0.164C33.577,18.023,33.873,17.797,34.169,17.346z M33.445,18.373
		l0.864,0.14l0.023-0.069c0.031-0.047,0.058-0.098,0.081-0.152c0.023-0.054,0.036-0.088,0.036-0.104c0-0.063-0.028-0.132-0.082-0.21
		c-0.055-0.078-0.097-0.117-0.128-0.117c-0.093,0-0.23,0.059-0.409,0.175C33.651,18.151,33.523,18.265,33.445,18.373z
		 M33.445,23.535c0.031,0.107,0.108,0.162,0.233,0.162c0.031,0,0.117-0.059,0.257-0.175c0.14-0.118,0.21-0.199,0.21-0.246
		c0-0.046-0.032-0.069-0.093-0.069C33.772,23.207,33.569,23.316,33.445,23.535z M34.215,22.483c-0.125,0-0.245,0.058-0.362,0.174
		c-0.117,0.118-0.175,0.238-0.175,0.364c0.202,0,0.342-0.04,0.42-0.117C34.177,22.825,34.215,22.686,34.215,22.483z M33.959,24.118
		c0,0.046,0.019,0.093,0.058,0.14c0.038,0.046,0.074,0.07,0.105,0.07c0.265,0,0.397-0.202,0.397-0.607
		c-0.094,0-0.21,0.039-0.351,0.116C34.029,23.916,33.959,24.009,33.959,24.118z M34.215,24.584c0,0.141,0.055,0.243,0.164,0.305
		c0.124-0.078,0.187-0.18,0.187-0.305H34.215z M35.033,24.608c-0.172,0-0.256,0.116-0.256,0.35c0.264,0,0.42-0.055,0.466-0.163
		C35.165,24.67,35.095,24.608,35.033,24.608z M35.033,25.263c0,0.154,0.295,0.232,0.887,0.232c0-0.326-0.078-0.49-0.233-0.49
		C35.344,25.005,35.126,25.091,35.033,25.263z"/>
	<path fill="#545454" d="M39.049,25.519c-0.047-0.561-0.101-1.184-0.164-1.867c0-0.842,0.027-2.336,0.082-4.484
		c0.054-2.148,0.082-3.837,0.082-5.067c0-1.696,0.093-3.082,0.28-4.157C39.376,9.647,39.633,9.5,40.1,9.5
		c0.482,0,0.809,0.058,0.98,0.175c0.171,0.116,0.257,0.332,0.257,0.642c0,0.25-0.093,0.421-0.28,0.514l0.163,0.117
		c-0.016,0.063-0.023,0.241-0.023,0.537c0,0.141,0.023,0.546,0.07,1.215s0.093,1.314,0.14,1.938l0.07,0.934l0.164,0.162
		c0.903-0.497,2.25-0.746,4.04-0.746c0.031,0.094,0.249,0.206,0.654,0.339c0.404,0.132,0.798,0.295,1.179,0.491
		c0.381,0.194,0.572,0.415,0.572,0.664c0.374,0,0.704,0.503,0.992,1.506c0.289,1.005,0.502,1.546,0.642,1.624
		c-0.016,0.046-0.023,0.209-0.023,0.49c0,0.171,0.023,0.4,0.07,0.688s0.07,0.519,0.07,0.688c0,0.017-0.02,0.113-0.058,0.292
		c-0.039,0.18-0.059,0.277-0.059,0.292c0.078,0.079,0.117,0.126,0.117,0.141c0,0.249-0.148,0.583-0.443,1.004
		c-1.027,1.822-2.678,2.732-4.951,2.732c-0.358,0-0.849-0.12-1.471-0.362c-0.623-0.241-1.09-0.362-1.401-0.362
		c-0.031,0-0.117,0.121-0.257,0.362c-0.14,0.242-0.312,0.362-0.514,0.362C40.038,25.939,39.454,25.798,39.049,25.519z M39.75,15.921
		v0.958h1.308c-0.343-0.529-0.514-1.261-0.514-2.194c0-0.141,0.003-0.354,0.011-0.644c0.008-0.287,0.012-0.501,0.012-0.642h-0.094
		l0.163-0.28v-2.615c0-0.094-0.069-0.183-0.209-0.269s-0.265-0.129-0.374-0.129c-0.219,0-0.327,0.164-0.327,0.49
		c0,0.172,0.007,0.301,0.023,0.386c0.016,0.086,0.035,0.136,0.058,0.152c0.023,0.015,0.043,0.031,0.059,0.047
		c0.015,0.015,0.023,0.038,0.023,0.069c0,0.063-0.043,0.188-0.128,0.374c-0.086,0.188-0.128,0.304-0.128,0.35
		c0,0.017,0.042,0.063,0.128,0.14c0.085,0.079,0.128,0.126,0.128,0.141c0,0.047-0.027,0.133-0.082,0.258
		c-0.055,0.124-0.082,0.28-0.082,0.466c0,0.482,0.108,0.724,0.327,0.724l-0.304,0.585l0.304,0.117c-0.016,0-0.039-0.009-0.07-0.024
		H39.96c-0.156,0-0.233,0.141-0.233,0.421c0,0.187,0.027,0.314,0.082,0.386c0.054,0.068,0.082,0.112,0.082,0.128
		c0,0.14-0.046,0.279-0.14,0.419l0.467,0.188H39.75z M40.264,21.315c-0.358,0-0.537,0.109-0.537,0.328
		c0.015,0.062,0.023,0.1,0.023,0.116C40.092,21.65,40.264,21.503,40.264,21.315z M40.264,22.483c-0.358,0-0.537,0.108-0.537,0.326
		c0.218,0,0.467-0.108,0.747-0.326H40.264z M40.217,23.487c-0.062,0.031-0.121,0.063-0.175,0.094
		c-0.054,0.031-0.102,0.062-0.14,0.093c-0.039,0.032-0.07,0.07-0.093,0.116c-0.023,0.047-0.039,0.086-0.047,0.118
		c-0.008,0.031-0.016,0.081-0.023,0.15c-0.008,0.071-0.012,0.122-0.012,0.152c0,0.031,0,0.093,0,0.188c0,0.093,0,0.155,0,0.186
		c0.28,0,0.529-0.163,0.747-0.489h-0.21c-0.249,0-0.374-0.062-0.374-0.187L40.217,23.487z M40.054,17.136
		c-0.156,0-0.257,0.055-0.304,0.163l0.14,0.024c0.171,0,0.281-0.056,0.327-0.164c-0.016,0-0.046-0.008-0.093-0.023H40.054z
		 M39.75,18.887v0.864h0.14l0.747-0.725v-0.14H39.75z M39.75,20.031v1.074c0.405,0,0.607-0.124,0.607-0.374
		c-0.14,0-0.296,0.063-0.467,0.187c0-0.062,0.074-0.178,0.222-0.35c0.147-0.171,0.222-0.271,0.222-0.304
		c0-0.063-0.07-0.116-0.21-0.163S39.858,20.031,39.75,20.031z M40.311,21.644l-0.561,0.56h0.794
		C40.544,21.86,40.465,21.675,40.311,21.644z M40.777,22.646c-0.109,0-0.307,0.078-0.596,0.234s-0.432,0.265-0.432,0.327v0.163
		c0.218,0,0.432-0.03,0.642-0.094c0.21-0.062,0.374-0.127,0.491-0.198c0.117-0.069,0.175-0.121,0.175-0.152
		c0-0.123-0.023-0.202-0.07-0.233C40.941,22.662,40.871,22.646,40.777,22.646z M41.221,17.604c-0.903,0.202-1.354,0.498-1.354,0.887
		c0.918,0,1.377-0.226,1.377-0.678L41.221,17.604z M40.147,16.575h0.07l-0.327,0.163C39.952,16.63,40.038,16.575,40.147,16.575z
		 M40.474,24.491c-0.312,0.265-0.467,0.483-0.467,0.654c0.421,0,0.63-0.109,0.63-0.328C40.637,24.647,40.583,24.537,40.474,24.491z
		 M41.127,17.159c-0.452,0-0.81,0.147-1.074,0.444h0.163c0.015,0,0.351-0.147,1.004-0.444H41.127z M40.311,19.611
		c-0.094,0.093-0.14,0.202-0.14,0.326c0.124,0,0.226-0.062,0.303-0.187L40.311,19.611z M40.637,23.651
		c0.032,0,0.241,0.073,0.631,0.221c0.39,0.148,0.654,0.223,0.794,0.223c-0.062-0.047-0.164-0.187-0.304-0.421
		c-0.14-0.233-0.296-0.351-0.467-0.351C41.026,23.323,40.808,23.434,40.637,23.651z M42.833,23.885c0.108,0,0.272,0.043,0.49,0.128
		c0.218,0.086,0.327,0.151,0.327,0.198v0.14h1.471l0.117,0.141l0.14-0.28c0.607-0.28,0.973-0.421,1.098-0.421
		c0.451,0,0.767-0.303,0.946-0.91c0.179-0.607,0.268-1.215,0.268-1.821c0-0.357-0.046-0.759-0.14-1.202
		c-0.094-0.444-0.23-0.895-0.409-1.355c-0.179-0.458-0.436-0.843-0.771-1.155c-0.334-0.312-0.711-0.467-1.132-0.467
		c-0.125,0-0.84,0.047-2.148,0.14c-0.56,0.126-1.04,0.615-1.437,1.472c-0.396,0.855-0.595,1.564-0.595,2.125
		c0,0.405,0.093,0.794,0.28,1.167c0.187,0.374,0.389,0.666,0.607,0.875c0.218,0.212,0.42,0.43,0.607,0.654
		C42.739,23.537,42.833,23.729,42.833,23.885z M47.386,24.001l-0.023,0.023c0,0.031,0.023,0.07,0.07,0.117
		c0.047,0.046,0.094,0.069,0.14,0.069c0.094-0.124,0.21-0.233,0.351-0.326c0.14-0.095,0.241-0.188,0.303-0.281
		c0.062-0.093,0.094-0.24,0.094-0.442c0.451,0,0.677-0.133,0.677-0.397c0-0.078-0.055-0.172-0.164-0.28h0.303
		c0.094,0,0.141-0.335,0.141-1.005c0-2.553-0.569-4.187-1.705-4.903c0.016-0.016,0.023-0.03,0.023-0.047
		c0-0.124-0.459-0.288-1.377-0.49s-1.463-0.305-1.635-0.305c-0.654,0-1.21,0.103-1.67,0.305c-0.459,0.202-0.938,0.528-1.436,0.98
		l0.164,0.141l0.864-0.725c0.108,0,0.525-0.05,1.25-0.151c0.724-0.101,1.179-0.151,1.366-0.151c0.031,0,0.167,0.004,0.409,0.012
		c0.241,0.007,0.377,0.011,0.409,0.011c0.342,0.405,0.607,0.607,0.794,0.607c0.015,0,0.039,0,0.07,0l0.023-0.023l0.561,1.285
		l0.28-0.164v0.747c0.14,0,0.252,0.094,0.338,0.28c0.085,0.187,0.16,0.405,0.222,0.653c0.062,0.25,0.117,0.413,0.163,0.491
		l-0.14,0.233c0,0.032,0.047,0.094,0.14,0.187c0,0.031-0.02,0.113-0.058,0.246c-0.04,0.133-0.058,0.206-0.058,0.221
		c0,0.157,0.082,0.289,0.245,0.397c0.164,0.109,0.246,0.227,0.246,0.35c-0.016,0-0.051,0-0.105,0s-0.089,0-0.104,0
		c-0.016,0-0.043,0.01-0.082,0.024c-0.04,0.016-0.063,0.042-0.07,0.081c-0.008,0.039-0.012,0.09-0.012,0.152
		c0,0.14,0.063,0.233,0.187,0.28c-0.218,0.093-0.327,0.24-0.327,0.442c0,0.141,0.047,0.234,0.14,0.28
		c-0.218,0-0.44,0.13-0.665,0.386C47.499,23.569,47.386,23.8,47.386,24.001z M42.062,24.351c0.202,0.233,0.358,0.351,0.468,0.351
		c0-0.248-0.102-0.373-0.304-0.373L42.062,24.351z M43.509,25.098c0.093,0.094,0.249,0.141,0.467,0.141
		c0.063,0,0.176-0.004,0.339-0.011c0.164-0.008,0.284-0.013,0.362-0.013c-0.203-0.093-0.475-0.14-0.817-0.14
		c-0.031,0-0.093,0.005-0.187,0.012C43.58,25.095,43.525,25.098,43.509,25.098z M45.938,24.911l-1.004,0.304
		c0.016,0,0.063,0,0.141,0l0.094,0.023C45.619,25.238,45.875,25.13,45.938,24.911z M47.176,24.351c-0.14,0-0.335,0.051-0.584,0.152
		c-0.25,0.101-0.374,0.222-0.374,0.361l0.023,0.047c0.436-0.047,0.779-0.233,1.028-0.561H47.176z"/>
	<path fill="#545454" d="M52.616,25.636c-0.031-0.108-0.101-0.241-0.21-0.397s-0.179-0.304-0.21-0.443
		c-0.343-1.4-0.514-3.518-0.514-6.352c0-0.078,0-0.202,0-0.373c0-0.577,0.008-1.009,0.023-1.297c0.016-0.288,0.063-0.623,0.14-1.004
		c0.079-0.382,0.219-0.657,0.421-0.829c0.202-0.17,0.466-0.256,0.793-0.256c0.996,0,1.494,0.88,1.494,2.639
		c0,0.794-0.058,1.685-0.175,2.674c-0.117,0.987-0.175,1.739-0.175,2.253c0,0.374,0.027,0.931,0.082,1.669
		c0.054,0.739,0.081,1.289,0.081,1.646c0,0.25-0.101,0.375-0.303,0.375C53.597,25.894,53.114,25.791,52.616,25.636z M52.033,10.504
		l0.304-0.257c0.078-0.108,0.505-0.164,1.284-0.164c0.125,0,0.276,0.036,0.456,0.105c0.178,0.07,0.268,0.137,0.268,0.199v1.727
		c0,0.203-0.203,0.305-0.607,0.305c-1.136,0-1.704-0.147-1.704-0.444V10.504z M52.336,16.809l-0.023,0.023
		c0,0.031,0.019,0.066,0.058,0.105c0.039,0.039,0.074,0.058,0.105,0.058c0.125,0,0.421-0.233,0.887-0.7h-0.093
		c-0.032,0-0.086,0.008-0.164,0.023c-0.078,0.015-0.179,0.039-0.303,0.069c-0.125,0.031-0.233,0.083-0.327,0.152
		C52.383,16.611,52.336,16.699,52.336,16.809z M52.756,15.874l-0.14,0.28h0.233c0.623,0,0.935-0.093,0.935-0.28
		c0-0.187-0.02-0.31-0.058-0.373c-0.04-0.063-0.114-0.094-0.223-0.094c-0.046,0-0.125,0.027-0.233,0.081
		c-0.109,0.056-0.18,0.083-0.21,0.083c-0.031,0-0.07-0.027-0.117-0.083c-0.046-0.054-0.109-0.081-0.187-0.081
		c-0.171,0-0.312,0.103-0.42,0.305c0.124,0.124,0.241,0.187,0.35,0.187l0.023-0.024C52.725,15.874,52.741,15.874,52.756,15.874z
		 M52.336,18.279c0,0.031,0.019,0.066,0.058,0.105c0.038,0.039,0.066,0.059,0.082,0.059c0.342-0.187,0.678-0.467,1.004-0.84h-0.093
		c-0.063-0.017-0.101-0.024-0.116-0.024c-0.25,0-0.467,0.059-0.654,0.175C52.43,17.871,52.336,18.046,52.336,18.279z M53.223,20.148
		c-0.202,0-0.396,0.063-0.583,0.187c-0.187,0.124-0.28,0.28-0.28,0.467c0.171,0,0.358-0.066,0.561-0.198
		C53.122,20.471,53.223,20.318,53.223,20.148z M52.92,19.005c-0.312,0-0.467,0.132-0.467,0.396c0.015,0.125,0.023,0.202,0.023,0.233
		l0.584-0.607l-0.07-0.021H52.92z M53.831,20.312h-0.21c-0.156,0.078-0.537,0.42-1.144,1.027h1.144
		C53.761,21.339,53.831,20.997,53.831,20.312z M52.476,21.898c0,0.204,0.047,0.305,0.14,0.305l0.747-0.584v-0.141
		C52.772,21.558,52.476,21.696,52.476,21.898z M52.546,10.808c0,0.481,0.132,0.725,0.397,0.725c0.202,0,0.346-0.005,0.432-0.013
		c0.085-0.007,0.164-0.043,0.233-0.104c0.07-0.063,0.105-0.164,0.105-0.305c0-0.077-0.032-0.178-0.094-0.303
		c-0.249,0.108-0.389,0.162-0.42,0.162l0.163-0.162H52.546z M53.831,16.342c-0.405,0-0.81,0.357-1.214,1.074
		c0.171-0.063,0.342-0.098,0.514-0.104c0.171-0.008,0.292-0.008,0.362,0c0.07,0.007,0.136-0.017,0.198-0.071
		c0.062-0.054,0.101-0.147,0.117-0.279C53.822,16.829,53.831,16.621,53.831,16.342z M52.616,22.624v0.186
		c0.389,0,0.658-0.078,0.806-0.233c0.148-0.154,0.222-0.428,0.222-0.816H53.48L52.616,22.624z M52.616,23.348
		c0,0.14,0.047,0.233,0.14,0.28l0.607-0.561c-0.016,0-0.055-0.004-0.117-0.012s-0.101-0.013-0.117-0.013
		C52.834,23.043,52.663,23.145,52.616,23.348z M52.616,24.655c0.094,0.248,0.452,0.374,1.074,0.374c0-0.079-0.02-0.16-0.058-0.246
		c-0.039-0.085-0.082-0.151-0.129-0.199c-0.046-0.047-0.07-0.077-0.07-0.093h0.023c0.171-0.093,0.257-0.475,0.257-1.144h-0.351
		c-0.031,0-0.144,0.123-0.338,0.373c-0.194,0.249-0.292,0.405-0.292,0.467v0.023h0.63L52.616,24.655z M53.784,17.743
		c-0.421,0.218-0.709,0.498-0.864,0.841h0.094c0.062,0.015,0.101,0.022,0.116,0.022c0.436,0,0.654-0.054,0.654-0.163V17.743z
		 M52.92,19.751v0.163c0.7,0,1.051-0.343,1.051-1.027h-0.187L52.92,19.751z"/>
	<path fill="#545454" d="M65.67,26.033l-0.117-0.188c0-0.264-0.07-0.489-0.21-0.676c0.047-1.588,0.07-2.391,0.07-2.405
		c0-1.666-0.164-3.13-0.49-4.391c-0.172-0.124-0.339-0.28-0.503-0.467c-0.163-0.187-0.291-0.319-0.385-0.396
		c-0.094-0.078-0.249-0.149-0.467-0.211c-0.218-0.062-0.506-0.093-0.864-0.093c-0.639,0-1.386,0.25-2.242,0.747
		c-0.311,0.187-0.467,0.638-0.467,1.354c0,1.667,0.109,2.796,0.327,3.386v3.013c0,0.093-0.07,0.14-0.21,0.14
		c-0.062,0-0.253-0.011-0.572-0.034c-0.319-0.022-0.627-0.05-0.922-0.082l-0.443-0.023l-0.444-0.28
		c-0.016-0.015-0.043-0.481-0.082-1.4c-0.039-0.92-0.059-1.65-0.059-2.195c0-0.467,0.027-1.12,0.082-1.961
		c0.055-0.842,0.082-1.65,0.082-2.429c0-0.343-0.004-0.763-0.012-1.261c-0.008-0.498-0.012-0.771-0.012-0.818
		c0.233-0.187,0.521-0.279,0.864-0.279c0.312,0,0.572,0.163,0.783,0.49c0.21,0.327,0.361,0.49,0.455,0.49
		c0.296,0,0.779-0.19,1.449-0.573c0.668-0.381,1.213-0.57,1.634-0.57c0.265,0,0.557,0.047,0.876,0.14
		c0.319,0.094,0.708,0.233,1.168,0.42c0.458,0.188,0.696,0.289,0.712,0.304c1.557,0.606,2.335,2.787,2.335,6.538
		c0,0.312-0.034,0.764-0.104,1.354c-0.07,0.593-0.105,1.027-0.105,1.308c0,0.202,0.008,0.35,0.023,0.443
		c-0.141,0-0.223,0.039-0.246,0.118c-0.023,0.077-0.031,0.167-0.023,0.268c0.009,0.101-0.069,0.191-0.232,0.269
		c-0.164,0.078-0.432,0.116-0.806,0.116c0.031-0.093,0.047-0.179,0.047-0.256c0-0.031-0.009-0.046-0.023-0.046
		c-0.016,0-0.044,0.018-0.082,0.057c-0.039,0.04-0.093,0.078-0.163,0.117s-0.129,0.066-0.176,0.082
		C65.927,26.149,65.779,26.11,65.67,26.033z M59.038,23.557c-0.312,0-0.545,0.047-0.701,0.141c-0.156,0.093-0.233,0.288-0.233,0.585
		h0.35l0.724-0.726H59.038z M58.314,22.412v1.052c0.14,0,0.369-0.249,0.688-0.747c0.319-0.498,0.479-0.856,0.479-1.073
		c0-0.202-0.027-0.504-0.082-0.899c-0.054-0.397-0.082-0.697-0.082-0.899c0-0.126,0.007-0.227,0.023-0.305l-0.303,0.117
		c0.125-0.154,0.206-0.287,0.245-0.397c0.039-0.107,0.07-0.248,0.094-0.42c0.023-0.17,0.05-0.327,0.081-0.467
		c0.063-0.249,0.171-0.479,0.327-0.688c0.156-0.21,0.308-0.366,0.456-0.467c0.147-0.102,0.276-0.206,0.385-0.316
		c0.108-0.108,0.164-0.202,0.164-0.28c0-0.046-0.008-0.085-0.023-0.116c-0.109,0.031-0.292,0.156-0.549,0.374
		c-0.256,0.218-0.432,0.327-0.525,0.327c-0.203,0-0.374-0.145-0.514-0.433s-0.28-0.432-0.42-0.432c-0.063,0-0.117,0.008-0.164,0.022
		c0.094-0.046,0.14-0.147,0.14-0.303c0-0.03-0.016-0.059-0.046-0.082c-0.032-0.022-0.07-0.042-0.117-0.059l-0.07-0.022
		c-0.032,0-0.07,0.062-0.117,0.187s-0.07,0.218-0.07,0.279c0,0.219,0.026,0.549,0.081,0.994c0.055,0.442,0.082,0.712,0.082,0.805
		c0,0.078-0.004,0.176-0.012,0.292c-0.007,0.117-0.012,0.184-0.012,0.198c0.094,0,0.14,0.047,0.14,0.14c0,0.11-0.046,0.3-0.14,0.573
		c-0.093,0.271-0.14,0.471-0.14,0.595h0.583l-0.444,0.421l0.14,0.163c-0.312,0.233-0.467,0.592-0.467,1.074
		c0.295,0,0.498-0.124,0.607-0.374c0,0.063,0.015,0.094,0.047,0.094c0,0.017-0.082,0.132-0.246,0.351
		c-0.163,0.219-0.245,0.35-0.245,0.396h0.747L58.314,22.412z M58.898,24.562c-0.032,0.062-0.125,0.137-0.28,0.222
		c-0.156,0.086-0.233,0.214-0.233,0.386h1.237c0.093-0.047,0.14-0.118,0.14-0.211c0-0.062-0.027-0.151-0.082-0.269
		c-0.055-0.116-0.082-0.19-0.082-0.222s0.036-0.069,0.106-0.117c0.069-0.047,0.135-0.068,0.198-0.068
		c-0.063-0.032-0.113-0.138-0.151-0.316c-0.039-0.179-0.105-0.269-0.199-0.269c-0.156,0-0.522,0.288-1.098,0.864H58.898z
		 M59.668,22.296c-0.156,0-0.354,0.126-0.596,0.374c-0.241,0.249-0.362,0.452-0.362,0.606h0.747
		C59.598,23.276,59.668,22.95,59.668,22.296z M62.19,16.364c0.793,0,1.417,0.095,1.868,0.281c0.078,0.031,0.249,0.159,0.514,0.385
		c0.265,0.227,0.459,0.34,0.584,0.34s0.187-0.057,0.187-0.164l-0.116-0.117c0.03-0.063,0.113-0.125,0.245-0.188
		c0.132-0.062,0.198-0.123,0.198-0.187c0-0.155-0.172-0.233-0.514-0.233c-0.109,0-0.211,0.028-0.304,0.082
		c-0.094,0.055-0.163,0.082-0.21,0.082c-0.078-0.109-0.148-0.164-0.211-0.164l-0.046,0.023l0.116-0.279
		c-0.108-0.109-0.265-0.164-0.467-0.164c-0.094,0-0.219,0.012-0.373,0.036c-0.156,0.021-0.257,0.034-0.305,0.034v-0.467
		c-0.591,0-0.926,0.133-1.004,0.396v-0.28c-0.078,0.047-0.229,0.09-0.455,0.129c-0.226,0.038-0.424,0.102-0.595,0.188
		c-0.171,0.085-0.257,0.214-0.257,0.384l0.07,0.047c0.047,0.047,0.07,0.086,0.07,0.117l0.303-0.281l0.14,0.141h0.07
		c0.031,0,0.097-0.034,0.198-0.105c0.102-0.068,0.152-0.128,0.152-0.174L62.19,16.364z M65.506,18.093l0.164,0.164
		c0.202-0.094,0.326-0.191,0.373-0.292c0.047-0.102,0.07-0.254,0.07-0.455c0-0.265-0.055-0.405-0.164-0.421
		c-0.404,0.156-0.606,0.397-0.606,0.724h0.468L65.506,18.093z M66.534,18.653c-0.468,0.063-0.701,0.272-0.701,0.631
		c0.202,0,0.417-0.101,0.643-0.304c0.226-0.202,0.339-0.404,0.339-0.607c0-0.063-0.039-0.148-0.117-0.256
		c-0.078-0.108-0.155-0.164-0.233-0.164c-0.171,0-0.327,0.073-0.468,0.222c-0.14,0.148-0.209,0.308-0.209,0.479H66.534z
		 M66.814,18.934c-0.203,0.063-0.389,0.179-0.562,0.351c-0.171,0.171-0.257,0.35-0.257,0.536c0.639,0,0.958-0.147,0.958-0.443
		C66.954,19.205,66.908,19.058,66.814,18.934z M66.37,19.961c-0.202,0-0.304,0.094-0.304,0.281l0.023,0.14
		c0.063-0.016,0.129-0.07,0.199-0.164c0.07-0.093,0.105-0.155,0.105-0.187L66.37,19.961z M67.398,22.553
		c0-0.109-0.028-0.385-0.082-0.828c-0.055-0.445-0.098-0.666-0.129-0.666c-0.016,0-0.09,0.047-0.222,0.14
		c-0.132,0.094-0.269,0.198-0.408,0.316c-0.14,0.116-0.211,0.206-0.211,0.268c0,0.032,0.023,0.07,0.071,0.116
		c0.046,0.047,0.084,0.071,0.116,0.071c-0.249,0-0.374,0.147-0.374,0.442c0.156,0,0.318-0.069,0.49-0.209
		c0.172-0.141,0.318-0.21,0.443-0.21v0.093c-0.451,0.25-0.731,0.569-0.841,0.957h0.421c-0.248,0.062-0.373,0.25-0.373,0.561
		c0.248,0,0.493-0.116,0.734-0.349C67.277,23.021,67.398,22.786,67.398,22.553z M66.23,20.592c0,0.437-0.016,0.709-0.047,0.817
		c0.265,0,0.49-0.117,0.678-0.351c0.187-0.233,0.279-0.49,0.279-0.771l-0.023-0.163c-0.016-0.094-0.023-0.148-0.023-0.164
		C66.519,20.195,66.23,20.404,66.23,20.592z M67.234,23.276c-0.42,0.312-0.677,0.6-0.771,0.865
		c-0.094,0.265-0.141,0.692-0.141,1.283h0.864c0-0.497-0.125-0.785-0.373-0.863c0.279-0.125,0.42-0.218,0.42-0.279V23.276z"/>
	<path fill="#545454" d="M77.695,25.986c-0.031-0.031-0.063-0.047-0.094-0.047s-0.07,0.008-0.117,0.022
		c-0.046,0.016-0.078,0.024-0.093,0.024c-0.405,0-0.759-0.144-1.063-0.432c-0.304-0.289-0.526-0.62-0.665-0.993
		c0.248,0,0.436-0.132,0.56-0.397c0.125-0.264,0.214-0.528,0.269-0.794s0.113-0.396,0.176-0.396l2.008,1.168
		c0.141-0.031,0.279-0.047,0.42-0.047c0.188,0,0.289,0.047,0.305,0.14c0.015,0,0.089-0.004,0.221-0.012
		c0.133-0.007,0.246-0.012,0.34-0.012c0.264,0,0.467,0.031,0.606,0.093c0.14,0.063,0.233,0.095,0.28,0.095
		c0.373,0,0.767-0.031,1.18-0.095c0.412-0.062,0.844-0.167,1.295-0.314s0.826-0.377,1.121-0.688
		c0.296-0.312,0.443-0.686,0.443-1.122c0-0.342-0.101-0.723-0.303-1.144c-0.203-0.42-0.443-0.686-0.725-0.793l-6.328-2.756
		c-1.151-0.499-1.729-1.534-1.729-3.106c0-0.172,0.017-0.33,0.047-0.479c0.031-0.147,0.094-0.314,0.188-0.502
		s0.163-0.319,0.21-0.397c0.047-0.077,0.144-0.233,0.292-0.467s0.23-0.357,0.246-0.373c0.855-1.168,2.482-1.752,4.879-1.752
		c0.094,0,0.281,0.028,0.562,0.082c0.28,0.055,0.638,0.081,1.074,0.081c1.385,0.219,2.109,0.359,2.171,0.421l0.421,0.444v1.728
		c0,0.078-0.07,0.222-0.21,0.432c-0.141,0.21-0.242,0.315-0.304,0.315c-0.249-0.108-0.681-0.322-1.296-0.642
		s-1.164-0.569-1.646-0.748c-0.482-0.178-0.942-0.269-1.378-0.269c-0.856,0-1.631,0.184-2.323,0.55
		c-0.693,0.366-1.039,0.944-1.039,1.739c0,0.358,0.253,0.771,0.759,1.237s0.914,0.7,1.226,0.7c0.047,0,0.109,0,0.188,0l0.116-0.022
		c0.358,0.107,0.72,0.291,1.087,0.548c0.365,0.257,0.738,0.471,1.12,0.643s0.845,0.257,1.39,0.257
		c0.84,0.171,1.631,0.592,2.369,1.261c0.74,0.67,1.109,1.401,1.109,2.195c0,0.266-0.063,0.583-0.187,0.957
		c-0.124,0.373-0.202,0.638-0.233,0.795c-0.265,0.949-0.467,1.525-0.607,1.728c-0.248,0.342-0.825,0.583-1.729,0.723
		c-0.016,0-0.043,0.021-0.08,0.06c-0.04,0.038-0.059,0.066-0.059,0.081c-1.06,0.405-2.017,0.607-2.873,0.607
		C79.952,26.313,78.754,26.204,77.695,25.986z M76.48,14.73c0,0.312,0.086,0.468,0.258,0.468c0.171,0,0.256-0.156,0.256-0.468H76.48
		z M76.504,13.89c0,0.312,0.094,0.467,0.281,0.467c0.232,0,0.35-0.155,0.35-0.467H76.504z M77.229,13.399
		c-0.343,0-0.529,0.069-0.561,0.209h0.561V13.399z M77.111,15.198l-0.443,0.256l0.117,0.023c0.232,0,0.35-0.077,0.35-0.233
		L77.111,15.198z M76.785,15.758v0.141h0.326v-0.141H76.785z M76.925,24.889c0,0.265,0.155,0.396,0.467,0.396
		c0.296,0,0.443-0.179,0.443-0.536v-0.024l-0.022-0.023c-0.047,0.016-0.242,0.109-0.584,0.28l-0.047-0.023
		c-0.031-0.015-0.055-0.023-0.07-0.023v-0.093l0.164-0.093c0.124-0.048,0.236-0.102,0.338-0.165
		c0.102-0.062,0.167-0.123,0.199-0.186c-0.032-0.109-0.164-0.164-0.397-0.164c-0.155,0-0.277,0.079-0.362,0.233
		C76.967,24.623,76.925,24.764,76.925,24.889z M77.813,12.302c-0.188,0.063-0.355,0.184-0.503,0.361
		c-0.148,0.18-0.222,0.363-0.222,0.549c0.218,0,0.393-0.085,0.525-0.257C77.746,12.785,77.813,12.566,77.813,12.302z M77.461,15.874
		c-0.093,0-0.171,0.109-0.232,0.327h0.07c0.046,0.016,0.077,0.024,0.093,0.024c0.155,0,0.257-0.055,0.304-0.164
		C77.617,15.938,77.539,15.874,77.461,15.874z M77.509,16.552l-0.024,0.023c0,0.016,0.02,0.036,0.059,0.058
		c0.039,0.024,0.086,0.048,0.141,0.071c0.055,0.022,0.097,0.05,0.129,0.081c0.232,0,0.35-0.155,0.35-0.467
		c-0.141,0-0.284,0.023-0.432,0.069C77.582,16.435,77.509,16.49,77.509,16.552z M78.559,24.562c-0.42,0-0.63,0.233-0.63,0.701h0.327
		l-0.141-0.117C78.41,24.943,78.559,24.749,78.559,24.562z M79.307,11.415c-0.203,0-0.452,0.058-0.748,0.174
		c-0.295,0.117-0.443,0.245-0.443,0.386c0,0.031,0.063,0.047,0.188,0.047c0.154,0,0.361-0.066,0.618-0.199
		C79.178,11.691,79.307,11.555,79.307,11.415z M78.465,16.599c-0.046,0-0.116,0.094-0.209,0.28h0.63c0-0.078-0.047-0.144-0.14-0.198
		C78.652,16.626,78.559,16.599,78.465,16.599z M78.559,25.263c0.28,0.107,0.476,0.162,0.584,0.162c0.172,0,0.312-0.077,0.421-0.233
		c0.108-0.155,0.163-0.327,0.163-0.514C78.948,24.678,78.559,24.873,78.559,25.263z M78.955,17.206
		c0.048,0.046,0.145,0.105,0.293,0.174c0.147,0.071,0.253,0.106,0.315,0.106c0.03,0,0.085-0.035,0.163-0.106
		c0.078-0.068,0.117-0.128,0.117-0.174l-0.164-0.141L78.955,17.206z M80.684,24.842c-0.326,0-0.536,0.051-0.63,0.152
		c-0.093,0.101-0.14,0.291-0.14,0.57h1.214c0.046,0,0.093-0.054,0.14-0.162C81.268,25.029,81.072,24.842,80.684,24.842z
		 M79.961,17.323c0,0.047,0.003,0.085,0.011,0.116s0.02,0.058,0.036,0.081c0.015,0.023,0.033,0.047,0.058,0.071
		c0.022,0.021,0.046,0.038,0.069,0.046s0.055,0.016,0.094,0.022c0.039,0.009,0.074,0.017,0.105,0.024s0.065,0.012,0.105,0.012
		c0.039,0,0.073,0,0.104,0c0.03,0,0.069,0,0.116,0s0.078,0,0.094,0C80.754,17.446,80.489,17.323,79.961,17.323z M80.404,11.274
		c0.108,0.109,0.201,0.164,0.279,0.164c0.094,0,0.203-0.027,0.328-0.083c0.123-0.054,0.186-0.12,0.186-0.198
		C80.948,11.157,80.684,11.196,80.404,11.274z M84.724,12.442c0,0.218,0.148,0.365,0.444,0.443l0.303-1.145
		c0-0.124-0.533-0.28-1.6-0.467c-1.066-0.188-1.833-0.28-2.3-0.28c-0.016,0-0.046,0.031-0.094,0.093
		c-0.046,0.063-0.069,0.109-0.069,0.141c0,0.156,0.117,0.233,0.35,0.233c0.327,0,0.499-0.062,0.515-0.187
		c0.077,0.326,0.265,0.491,0.56,0.491c0.188,0,0.288-0.063,0.305-0.188l0.443,0.421l0.443-0.421v0.468l0.117-0.047
		c0.061-0.016,0.151-0.051,0.268-0.105c0.117-0.055,0.223-0.105,0.315-0.152c0.016,0,0.043,0.005,0.082,0.012
		c0.038,0.008,0.066,0.013,0.081,0.013c0,0.077-0.027,0.194-0.081,0.349C84.751,12.271,84.724,12.38,84.724,12.442z M81.408,18.07
		c0.202,0.202,0.404,0.303,0.607,0.303c0.016,0,0.039-0.003,0.069-0.013c0.031-0.007,0.056-0.01,0.07-0.01
		C81.75,18.163,81.502,18.07,81.408,18.07z M81.408,24.981c0,0.172,0.077,0.314,0.233,0.433c0.155,0.116,0.319,0.175,0.49,0.175
		c0.265,0,0.413-0.062,0.444-0.187c0.42-0.062,0.734-0.113,0.945-0.152c0.211-0.037,0.518-0.12,0.922-0.245
		c0.405-0.123,0.713-0.3,0.923-0.524c0.21-0.227,0.331-0.495,0.362-0.807c-0.109-0.093-0.258-0.139-0.443-0.139
		c-0.047,0-0.172,0.197-0.375,0.595c-0.202,0.397-0.428,0.595-0.677,0.595l-0.14-0.069c-0.094-0.062-0.172-0.094-0.234-0.094
		c-0.202,0-0.494,0.027-0.875,0.082c-0.382,0.055-0.643,0.081-0.782,0.081c-0.28,0-0.444-0.008-0.491-0.023
		C81.54,24.795,81.439,24.889,81.408,24.981z M82.155,25.146c0.031-0.016,0.054-0.023,0.07-0.023c0.031,0,0.093,0.047,0.187,0.141
		h-0.257V25.146z M82.832,18.63l0.188,0.163l0.117-0.163H82.832z M83.3,18.934c0.342,0.42,0.677,0.631,1.003,0.631v-0.211h-0.139
		c0.093-0.047,0.139-0.124,0.139-0.233c0-0.233-0.171-0.35-0.513-0.35C83.479,18.771,83.314,18.824,83.3,18.934z M84.514,11.999
		c-0.047,0.016-0.098,0.049-0.151,0.104c-0.055,0.056-0.082,0.105-0.082,0.152c0.015,0.017,0.022,0.031,0.022,0.047l0.281-0.303
		H84.514z M84.957,19.493c-0.28,0-0.42,0.094-0.42,0.28h1.004C85.541,19.587,85.346,19.493,84.957,19.493z M85.729,20.802
		c-0.219,0.031-0.327,0.156-0.327,0.374c0.14,0,0.288-0.051,0.443-0.152c0.155-0.101,0.272-0.198,0.351-0.292
		s0.117-0.155,0.117-0.187c0-0.312-0.195-0.467-0.584-0.467c-0.047,0-0.176,0.035-0.386,0.104s-0.315,0.129-0.315,0.176v0.163
		L85.729,20.802z M85.729,22.974c-0.219,0.031-0.327,0.148-0.327,0.35c0.544,0,0.817-0.373,0.817-1.12
		c-0.109,0-0.242,0.043-0.397,0.128c-0.155,0.086-0.233,0.176-0.233,0.269S85.635,22.817,85.729,22.974z M85.588,21.596
		c0,0.155,0.109,0.233,0.327,0.233c0.202,0,0.351-0.047,0.443-0.14c0.093-0.094,0.144-0.184,0.151-0.27
		c0.008-0.085,0.012-0.259,0.012-0.524c-0.155,0-0.35,0.082-0.583,0.244C85.705,21.304,85.588,21.456,85.588,21.596z"/>
	<path fill="#545454" d="M89.184,19.4v-3.386c0.109-0.217,0.164-0.343,0.164-0.374c0-0.047-0.074-0.171-0.222-0.373
		s-0.222-0.312-0.222-0.327c0-0.14,0.055-0.264,0.163-0.373c0-0.64,0.035-1.565,0.104-2.779c0.07-1.215,0.129-1.821,0.176-1.821
		h1.868l0.14,0.14c-0.016,0.156-0.023,0.39-0.023,0.701c0,0.639,0.055,1.596,0.164,2.872s0.164,2.226,0.164,2.849
		c0,0.156-0.004,0.358-0.012,0.607c-0.009,0.249-0.012,0.428-0.012,0.537c0,0.576,0.054,1.129,0.163,1.658
		c0.451-0.405,1.054-1.055,1.81-1.951c0.756-0.895,1.351-1.536,1.787-1.926c0.217-0.108,0.506-0.163,0.863-0.163
		c0.218,0,0.381,0.008,0.49,0.023c0.108,0.016,0.223,0.063,0.34,0.14c0.116,0.078,0.174,0.203,0.174,0.374
		c0,0.203-0.094,0.412-0.28,0.631c-1.183,1.307-2.241,2.693-3.175,4.156c0.389,0.561,0.957,1.33,1.705,2.311
		c0.746,0.982,1.283,1.697,1.61,2.149c0.093,0.14,0.14,0.287,0.14,0.443c0,0.203-0.047,0.304-0.14,0.304h-1.892
		c-0.031-0.141-0.211-0.21-0.537-0.21l-0.257-0.257c-0.187-0.187-0.308-0.312-0.362-0.374c-0.055-0.062-0.163-0.19-0.326-0.385
		c-0.164-0.195-0.293-0.354-0.386-0.479s-0.202-0.281-0.327-0.467c-0.125-0.188-0.229-0.378-0.314-0.573
		c-0.086-0.194-0.16-0.386-0.223-0.571l-0.863-0.863h-0.164c0,0.171,0.004,0.45,0.012,0.84c0.008,0.389,0.012,0.686,0.012,0.887
		c0,1.728-0.141,2.592-0.42,2.592h-1.588c-0.094-0.154-0.141-0.257-0.141-0.303C89.238,24.304,89.184,22.219,89.184,19.4z
		 M90.212,19.19c-0.265,0-0.397,0.155-0.397,0.467C90.049,19.657,90.18,19.503,90.212,19.19z M90.234,10.689
		c-0.232,0-0.35,0.352-0.35,1.052c0.514,0,0.771-0.209,0.771-0.631c0-0.171-0.023-0.283-0.07-0.338
		C90.539,10.719,90.422,10.689,90.234,10.689z M89.908,11.999v2.614c0.592,0,0.887-0.233,0.887-0.7c0-0.125-0.008-0.229-0.022-0.315
		c-0.016-0.086-0.035-0.144-0.059-0.175c-0.023-0.03-0.043-0.063-0.058-0.095c-0.016-0.029-0.023-0.053-0.023-0.068
		c0.093-0.141,0.14-0.233,0.14-0.281c0-0.419-0.047-0.847-0.14-1.284L89.908,11.999z M89.908,16.154v0.421
		c0.218-0.125,0.326-0.264,0.326-0.421H89.908z M89.908,17.883v0.141l0.164-0.141H89.908z M89.908,23.207
		c0,0.312,0.078,0.467,0.234,0.467c0.046,0,0.124-0.132,0.232-0.397c0.109-0.265,0.164-0.436,0.164-0.513
		C90.118,22.764,89.908,22.911,89.908,23.207z M90.633,24.795c-0.203,0.14-0.305,0.366-0.305,0.677c0.296,0,0.444-0.131,0.444-0.396
		L90.633,24.795z M90.516,21.059c-0.078,0-0.117,0.047-0.117,0.14c0,0.094,0.039,0.141,0.117,0.141c0.062,0,0.094-0.047,0.094-0.141
		C90.609,21.105,90.577,21.059,90.516,21.059z M90.516,16.879l0.257,0.14v-0.28L90.516,16.879z M90.982,18.163
		c-0.233,0-0.35,0.102-0.35,0.304C90.865,18.437,90.982,18.335,90.982,18.163z M92.943,21.993c0,0.14,0.258,0.525,0.771,1.156
		c0.514,0.629,0.786,0.992,0.816,1.085c0.063,0.233,0.195,0.46,0.397,0.677c0.202,0.219,0.405,0.327,0.607,0.327
		c0.124,0,0.312-0.055,0.56-0.163c-0.217,0-0.326-0.094-0.326-0.28c0-0.031,0.016-0.078,0.047-0.14
		c-0.016-0.016-0.066-0.108-0.152-0.28s-0.15-0.3-0.198-0.386c-0.046-0.086-0.124-0.206-0.233-0.361
		c-0.109-0.157-0.211-0.276-0.304-0.362c-0.094-0.085-0.202-0.163-0.327-0.234c-0.125-0.069-0.249-0.105-0.373-0.105
		c0.015-0.015,0.039-0.03,0.07-0.046c0.03-0.016,0.054-0.03,0.069-0.047c0.016-0.016,0.023-0.038,0.023-0.069
		c0-0.327-0.343-0.538-1.027-0.631h0.606c-0.016-0.063-0.069-0.163-0.162-0.304c-0.094-0.14-0.148-0.21-0.164-0.21
		c-0.031,0-0.09,0.024-0.176,0.07c-0.085,0.047-0.137,0.07-0.151,0.07c0-0.39-0.043-0.662-0.128-0.817
		c-0.086-0.155-0.315-0.305-0.689-0.443c0.016,0.016,0.047,0.022,0.094,0.022c0.28,0,0.744-0.455,1.39-1.366
		s1.062-1.568,1.249-1.973h-0.42c-0.016,0.016-0.07,0.085-0.164,0.21s-0.151,0.202-0.175,0.233
		c-0.022,0.032-0.082,0.105-0.175,0.222c-0.094,0.117-0.16,0.195-0.199,0.233c-0.039,0.039-0.102,0.109-0.187,0.21
		c-0.085,0.102-0.155,0.176-0.21,0.222c-0.055,0.047-0.125,0.113-0.211,0.199c-0.085,0.086-0.16,0.152-0.221,0.198
		c-0.063,0.047-0.137,0.098-0.223,0.152s-0.167,0.097-0.244,0.128l0.139,0.141c-0.124,0.062-0.236,0.147-0.338,0.256
		c-0.102,0.11-0.203,0.191-0.304,0.246c-0.102,0.055-0.237,0.081-0.409,0.081c-0.047,0-0.194-0.058-0.443-0.175
		c-0.249-0.116-0.42-0.206-0.514-0.269l-0.163,0.163c0,0.125,0.362,0.537,1.086,1.238C92.582,21.572,92.943,21.945,92.943,21.993z
		 M95.489,16.797c-0.046-0.038-0.077-0.059-0.093-0.059s-0.164,0.047-0.445,0.141h0.608C95.56,16.863,95.536,16.836,95.489,16.797z
		 M95.652,16.226c0,0.046,0.027,0.098,0.082,0.151s0.105,0.082,0.152,0.082c0.108,0,0.232-0.102,0.373-0.305
		c-0.047-0.108-0.141-0.163-0.28-0.163C95.762,15.991,95.652,16.069,95.652,16.226z"/>
	<path fill="#545454" d="M99.342,20.756c0-0.779,0.141-1.636,0.421-2.569c0.28-0.935,0.623-1.736,1.028-2.405
		c0.015,0.017,0.03,0.023,0.046,0.023c0.094,0,0.284-0.098,0.571-0.292c0.289-0.194,0.472-0.293,0.549-0.293
		c1.075-0.248,1.791-0.373,2.148-0.373v0.211c0.313-0.108,0.693-0.164,1.145-0.164c1.402,0,2.102,0.211,2.102,0.631
		c0.405,0,0.739,0.167,1.004,0.502c0.266,0.336,0.479,0.697,0.643,1.086c0.164,0.39,0.308,0.614,0.433,0.678v2.008l-0.421,0.304
		l0.117,0.141c-0.421,0.326-1.34,0.489-2.756,0.489c-1.494,0-2.37-0.008-2.627-0.022s-0.768-0.078-1.529-0.188
		c-0.016-0.093-0.063-0.14-0.141-0.14c-0.016,0-0.055,0.008-0.117,0.022c-0.062,0.017-0.108,0.024-0.14,0.024
		c0,0.451,0.06,0.949,0.176,1.494s0.292,0.941,0.524,1.191c0.125,0.123,0.413,0.272,0.865,0.442c0.451,0.172,0.691,0.266,0.723,0.28
		c0.281,0.203,0.521,0.305,0.725,0.305c0.404,0,1.023-0.102,1.856-0.305c0.833-0.201,1.444-0.302,1.833-0.302
		c0.342,0,0.514,0.318,0.514,0.956c0,0.312-0.027,0.506-0.082,0.584s-0.14,0.125-0.256,0.14c-0.117,0.016-0.215,0.079-0.293,0.188
		c-0.094,0.031-1.004,0.187-2.732,0.467c-1.463,0-2.514-0.102-3.152-0.305c-0.731-0.233-1.443-0.895-2.137-1.983
		C99.688,22.491,99.342,21.549,99.342,20.756z M100.486,20.662l-0.279,0.443c0.015,0,0.055,0.004,0.116,0.012
		c0.063,0.008,0.101,0.013,0.116,0.013c0.141,0,0.284-0.036,0.432-0.106c0.148-0.07,0.223-0.167,0.223-0.292
		c0-0.016-0.023-0.066-0.07-0.151s-0.07-0.151-0.07-0.198c0.031-0.078,0.074-0.176,0.129-0.292c0.055-0.117,0.094-0.219,0.117-0.305
		c0.023-0.084,0.035-0.189,0.035-0.314c0-0.187-0.078-0.315-0.234-0.385c-0.155-0.07-0.232-0.136-0.232-0.199
		c0-0.063,0.05-0.206,0.15-0.432c0.102-0.226,0.152-0.378,0.152-0.456c0-0.14,0.164-0.416,0.49-0.828
		c0.327-0.412,0.49-0.721,0.49-0.923c0.031,0,0.125,0.017,0.28,0.047c0.155,0.031,0.257,0.047,0.304,0.047s0.078-0.043,0.094-0.128
		c0.016-0.086,0.039-0.137,0.07-0.152c0.077-0.03,0.271-0.05,0.584-0.059c0.311-0.007,0.603-0.026,0.875-0.058
		s0.408-0.086,0.408-0.164c-0.264-0.124-0.63-0.188-1.097-0.188c-1.059,0-1.864,0.358-2.417,1.074
		c-0.553,0.717-0.829,1.621-0.829,2.709h0.747v0.141l-0.863,0.864v0.443L100.486,20.662z M100.977,21.339
		c-0.295,0-0.482,0.043-0.56,0.128c-0.079,0.086-0.116,0.284-0.116,0.596c0.186,0,0.346-0.073,0.478-0.221
		C100.91,21.693,100.977,21.525,100.977,21.339z M101.07,21.665c-0.295,0.468-0.443,0.778-0.443,0.935
		c0.451,0,0.747-0.062,0.887-0.188c-0.047-0.107-0.125-0.236-0.232-0.385C101.172,21.88,101.102,21.76,101.07,21.665z
		 M100.791,22.974c0.186,0.141,0.279,0.335,0.279,0.583c0.357-0.187,0.537-0.481,0.537-0.887
		C101.156,22.67,100.884,22.771,100.791,22.974z M101.211,23.674l0.746,0.608c0.188-0.281,0.281-0.46,0.281-0.538l-0.023-0.07
		l-0.841-0.117L101.211,23.674z M101.98,19.167c-0.14,0-0.26,0.055-0.361,0.164c-0.102,0.108-0.152,0.233-0.152,0.373
		c0.203,0,0.34-0.038,0.41-0.117C101.946,19.51,101.98,19.37,101.98,19.167z M101.795,18.396c0.14,0.266,1.291,0.396,3.455,0.396
		c0.28,0,0.65-0.03,1.109-0.093c0.459-0.062,0.82-0.094,1.086-0.094c0-0.077-0.055-0.236-0.163-0.479
		c-0.109-0.24-0.195-0.361-0.257-0.361l-0.047,0.024c-0.109-0.327-0.455-0.6-1.039-0.817c-0.584-0.219-1.078-0.327-1.482-0.327
		C103.117,16.646,102.229,17.229,101.795,18.396z M102.425,19.377c-0.03,0-0.128,0.078-0.292,0.234
		c-0.163,0.155-0.277,0.272-0.338,0.35c0.123-0.03,0.264-0.062,0.42-0.093c0.155-0.031,0.271-0.055,0.35-0.07
		c0.078-0.015,0.176-0.047,0.293-0.094c0.116-0.047,0.244-0.108,0.385-0.187c-0.047-0.015-0.288-0.063-0.725-0.141H102.425z
		 M102.215,24.421c0,0.016,0.023,0.043,0.07,0.082c0.046,0.039,0.076,0.059,0.093,0.059c0.14-0.031,0.296-0.101,0.467-0.211
		c0.172-0.108,0.257-0.187,0.257-0.232c0-0.063-0.016-0.117-0.046-0.164c-0.031-0.046-0.063-0.078-0.095-0.093
		c-0.03-0.016-0.054-0.024-0.069-0.024c-0.14,0-0.288,0.066-0.444,0.199C102.292,24.168,102.215,24.297,102.215,24.421z
		 M102.799,24.842c0.342,0.093,0.537,0.147,0.584,0.163c0.077,0.077,0.124,0.117,0.14,0.117c0.233,0,0.439-0.074,0.618-0.222
		c0.18-0.147,0.27-0.331,0.27-0.55c-0.592,0-0.888,0.07-0.888,0.211c0-0.046-0.028-0.108-0.082-0.187
		c-0.055-0.078-0.097-0.117-0.128-0.117s-0.129,0.074-0.293,0.223c-0.162,0.147-0.244,0.244-0.244,0.291
		C102.791,24.803,102.799,24.827,102.799,24.842z M103.242,19.798c0.312,0.108,0.584,0.163,0.817,0.163
		c0.14,0,0.261-0.047,0.361-0.141c0.102-0.093,0.152-0.209,0.152-0.35C103.795,19.471,103.351,19.58,103.242,19.798z
		 M104.387,25.005c0.077,0.077,0.124,0.117,0.14,0.117c0.312,0,0.817-0.066,1.519-0.199c0.699-0.132,1.158-0.198,1.377-0.198
		l0.141,0.07l0.14,0.047c0.498,0,0.747-0.164,0.747-0.491c-0.296,0-0.681,0.06-1.156,0.177c-0.475,0.116-0.82,0.182-1.038,0.197
		c-0.156,0-0.374,0.008-0.655,0.024c-0.279,0.015-0.529,0.031-0.746,0.046l-0.327,0.047L104.387,25.005z M106.255,19.657h-0.794
		c-0.639,0-0.958,0.126-0.958,0.374l0.023,0.023c0,0.016,0,0.03,0,0.047l0.304-0.023c0.202-0.016,0.393-0.035,0.572-0.06
		c0.179-0.021,0.357-0.065,0.537-0.128C106.117,19.829,106.223,19.751,106.255,19.657z M106.722,16.295
		c0,0.124,0.14,0.312,0.421,0.56c0.279,0.25,0.467,0.375,0.56,0.375s0.218-0.031,0.374-0.094c0.155-0.063,0.232-0.132,0.232-0.21
		c0-0.079-0.03-0.219-0.093-0.421l-0.094-0.304c0,0.094-0.093,0.141-0.28,0.141c-0.125-0.016-0.268-0.077-0.432-0.188
		c-0.164-0.108-0.244-0.233-0.244-0.373c-0.453,0-0.678-0.109-0.678-0.327c-0.016,0-0.047,0.027-0.094,0.081
		c-0.047,0.056-0.121,0.11-0.223,0.165c-0.101,0.054-0.229,0.081-0.385,0.081c-0.063,0-0.14-0.03-0.233-0.094
		c-0.093-0.062-0.194-0.094-0.304-0.094c-0.016,0-0.066,0.005-0.151,0.012c-0.086,0.009-0.137,0.013-0.151,0.013
		c0.03,0.016,0.104,0.115,0.221,0.303c0.117,0.187,0.215,0.289,0.293,0.305c0.016,0,0.069-0.027,0.163-0.082
		c0.093-0.055,0.171-0.082,0.233-0.082c0.016,0,0.125,0.038,0.327,0.117C106.387,16.257,106.566,16.295,106.722,16.295z
		 M108.309,18.887c0,0.218-0.086,0.37-0.256,0.456c-0.172,0.086-0.362,0.121-0.572,0.104c-0.211-0.016-0.4,0.005-0.572,0.058
		c-0.172,0.057-0.256,0.168-0.256,0.34c1.088,0,1.672-0.109,1.75-0.327c0.078,0.125,0.188,0.187,0.327,0.187
		c0-0.124-0.026-0.265-0.081-0.42s-0.082-0.265-0.082-0.327c0-0.047,0.055-0.113,0.163-0.199c0.108-0.085,0.164-0.252,0.164-0.501
		c0-0.607-0.179-0.911-0.538-0.911c-0.108,0-0.19,0.027-0.244,0.081c-0.055,0.056-0.086,0.117-0.094,0.187
		c-0.008,0.071-0.012,0.184-0.012,0.34c0.171,0.514,0.272,0.793,0.303,0.84V18.887z"/>
	<path fill="#545454" d="M113.586,25.543c-0.513,0-0.77-0.989-0.77-2.967c0-0.295,0.031-0.678,0.094-1.145
		c0.062-0.467,0.093-0.777,0.093-0.933c0-0.748-0.101-2.001-0.304-3.761c-0.125-0.015-0.393-0.07-0.806-0.163
		c-0.412-0.094-0.681-0.141-0.806-0.141c-0.077,0-0.171-0.111-0.279-0.337c-0.109-0.227-0.164-0.41-0.164-0.55
		c0-0.264,0.09-0.459,0.269-0.583c0.179-0.126,0.378-0.184,0.596-0.177c0.218,0.009,0.421,0,0.606-0.022
		c0.188-0.024,0.289-0.081,0.305-0.175c0-1.059,0.094-1.682,0.279-1.869c0.203,0.078,0.304,0.444,0.304,1.099
		c0,0.124,0,0.265,0,0.419l-0.023,0.212l0.14,0.14l0.258-0.118c0.187-0.093,0.361-0.189,0.525-0.291
		c0.163-0.102,0.245-0.19,0.245-0.269c0-0.016-0.005-0.042-0.012-0.081c-0.009-0.04-0.012-0.073-0.012-0.106
		c0.093-0.575,0.14-0.964,0.14-1.166h-0.047c-0.062,0-0.256,0.073-0.583,0.221c-0.327,0.148-0.499,0.222-0.515,0.222
		c0.078-0.077,0.273-0.225,0.584-0.442c-0.311-0.063-0.553-0.156-0.724-0.28c0.202-0.172,0.503-0.27,0.899-0.293
		s0.674-0.066,0.829-0.128c0,0.062,0.047,0.136,0.14,0.222c0.094,0.085,0.141,0.151,0.141,0.199c0,0.015-0.023,0.108-0.07,0.28
		c-0.047,0.171-0.07,0.271-0.07,0.303c0,0.764,0.117,1.242,0.351,1.437s0.692,0.292,1.378,0.292c0.109,0,0.264-0.023,0.467-0.07
		c0.202-0.048,0.374-0.069,0.514-0.069c0.047,0,0.112,0.034,0.198,0.104c0.085,0.069,0.129,0.129,0.129,0.175v1.729l-0.163,0.14
		c-1.402,0-2.359,0.047-2.873,0.14c0,0.016,0.004,0.044,0.012,0.082c0.008,0.039,0.012,0.066,0.012,0.081
		c0,0.157-0.051,0.397-0.151,0.725c-0.103,0.327-0.151,0.561-0.151,0.7c0,0.031,0.019,0.066,0.058,0.105
		c0.038,0.039,0.066,0.059,0.082,0.059v2.428c0.108,0.11,0.163,0.352,0.163,0.726c0,0.077,0,0.162,0,0.255
		c0,0.095-0.004,0.169-0.012,0.224c-0.008,0.054-0.012,0.088-0.012,0.104c0.078,0.016,0.125,0.122,0.141,0.315
		c0.016,0.195,0.035,0.406,0.058,0.63c0.024,0.227,0.176,0.449,0.456,0.666c0.28,0.219,0.685,0.351,1.214,0.397l0.163,0.023
		c0.125,0.016,0.203,0.024,0.233,0.024c0.032,0,0.091,0.015,0.176,0.046s0.14,0.066,0.163,0.104c0.023,0.039,0.051,0.09,0.082,0.151
		c0.031,0.063,0.047,0.141,0.047,0.233c0,0.203-0.016,0.374-0.047,0.514c-0.031,0.141-0.063,0.246-0.094,0.316
		c-0.031,0.069-0.093,0.183-0.187,0.339c-0.093,0.155-0.171,0.288-0.233,0.396c-0.405-0.031-0.996-0.175-1.775-0.433
		C114.467,25.694,113.914,25.558,113.586,25.543z M111.252,15.665c0,0.093,0.175,0.179,0.525,0.256
		c0.35,0.078,0.604,0.117,0.759,0.117l1.308-1.027h0.304l-0.747,0.723v0.141l1.447-0.723c-0.109-0.047-0.253-0.18-0.432-0.397
		c-0.18-0.217-0.316-0.327-0.408-0.327c-0.219,0-0.328,0.101-0.328,0.304h0.164c-0.125,0.202-0.405,0.366-0.841,0.489
		c-0.437,0.126-0.837,0.219-1.202,0.281C111.435,15.564,111.252,15.618,111.252,15.665z M114.264,15.733
		c-0.078,0.048-0.229,0.133-0.455,0.258s-0.4,0.234-0.525,0.327c-0.125,0.094-0.188,0.187-0.188,0.28h0.305l0.863-0.725V15.733z
		 M114.755,25.051c0,0.328,0.116,0.492,0.35,0.492c0.218,0,0.374-0.102,0.468-0.305c0.015,0,0.038,0.012,0.07,0.036
		c0.03,0.021,0.054,0.034,0.069,0.034v0.256c0.374,0,0.708-0.202,1.004-0.606c-0.03-0.187-0.366-0.28-1.004-0.28
		c-0.155,0-0.304,0.047-0.443,0.14c0.015-0.015,0.023-0.046,0.023-0.093c0-0.093-0.086-0.175-0.257-0.244
		c-0.172-0.07-0.305-0.105-0.396-0.105c-0.094,0-0.223,0.023-0.387,0.069c-0.162,0.047-0.299,0.071-0.408,0.071
		c0.016-0.048,0.098-0.109,0.246-0.188c0.146-0.078,0.283-0.141,0.408-0.187l0.21-0.071l0.022-0.046c0-0.14-0.054-0.21-0.162-0.21
		c-0.016,0-0.047,0.004-0.094,0.011c-0.047,0.009-0.086,0.012-0.117,0.012c0-0.047,0.012-0.198,0.035-0.454
		c0.023-0.258,0.035-0.401,0.035-0.433c-0.016-0.187-0.063-0.467-0.141-0.841c-0.078-0.373-0.124-0.575-0.14-0.606l-0.164-0.141
		l0.164-0.14c0-0.016,0.003-0.093,0.012-0.233c0.007-0.141,0.011-0.242,0.011-0.305c0-0.342-0.034-0.835-0.104-1.481
		c-0.069-0.647-0.104-1.148-0.104-1.507c-0.188,0-0.327,0.113-0.421,0.338c-0.093,0.226-0.14,0.448-0.14,0.666
		c0,0.187,0.023,0.312,0.069,0.373c0.048,0.063,0.07,0.103,0.07,0.117c0,0.063-0.027,0.133-0.081,0.21
		c-0.055,0.078-0.082,0.187-0.082,0.327c0,0.327,0.077,0.49,0.232,0.49c0.031,0,0.063-0.007,0.094-0.022
		c-0.078,0-0.148,0.12-0.21,0.361s-0.093,0.464-0.093,0.666c0.108,0,0.163,0.039,0.163,0.116c0,0.063-0.055,0.167-0.163,0.316
		c-0.109,0.147-0.164,0.229-0.164,0.243c0,0.188,0.039,0.359,0.117,0.514c0.078,0.157,0.116,0.266,0.116,0.327
		c0,0.125-0.069,0.289-0.21,0.491c0.108,0.28,0.202,0.421,0.28,0.421c0.28,0,0.483-0.048,0.607-0.141
		c-0.063,0.093-0.183,0.187-0.362,0.279c-0.179,0.095-0.308,0.149-0.385,0.164C113.4,24.687,113.852,25.051,114.755,25.051z
		 M113.26,17.439c0,0.296,0.047,0.452,0.141,0.467c0.404-0.312,0.607-0.646,0.607-1.005l-0.024-0.163
		c-0.187,0-0.354,0.082-0.501,0.246C113.334,17.146,113.26,17.299,113.26,17.439z M115.572,15.151c-0.219,0-0.413,0.147-0.584,0.442
		c0.078-0.015,0.206-0.074,0.385-0.175c0.18-0.101,0.293-0.189,0.339-0.268H115.572z M116.6,15.291l-0.725,0.023
		c-0.125,0.016-0.303,0.098-0.537,0.245c-0.233,0.147-0.35,0.253-0.35,0.314v0.188c0.078,0,0.237-0.07,0.479-0.21
		c0.242-0.14,0.377-0.226,0.408-0.258l-0.303,0.444c0.187,0,0.451-0.026,0.793-0.081c0.343-0.056,0.6-0.083,0.771-0.083l0.163-0.56
		c-0.047,0-0.167-0.004-0.362-0.013C116.743,15.295,116.631,15.291,116.6,15.291z M116.716,25.238
		c-0.218,0.124-0.327,0.272-0.327,0.443h0.537C116.926,25.434,116.855,25.285,116.716,25.238z"/>
	<path fill="#545454" d="M119.961,23.043c-0.311-0.606-0.467-1.275-0.467-2.008c0-1.806,0.51-3.245,1.529-4.32
		c1.021-1.074,2.371-1.61,4.053-1.61c0.03,0,0.12,0.003,0.269,0.011c0.147,0.009,0.229,0.012,0.245,0.012l-0.304,0.141
		c0.14,0,0.319-0.023,0.536-0.069c0.219-0.047,0.39-0.071,0.515-0.071c1.027,0,1.642,0.133,1.845,0.397
		c0,0.031,0.004,0.136,0.012,0.315c0.008,0.179,0.012,0.276,0.012,0.292c0,0.201-0.035,0.467-0.105,0.794
		c-0.07,0.326-0.105,0.6-0.105,0.817c-0.669,0-1.424-0.257-2.265-0.771h-2.008c-0.218,0-0.534,0.257-0.946,0.771
		s-0.674,0.98-0.782,1.4c-0.016,0.047-0.034,0.16-0.058,0.34c-0.023,0.179-0.055,0.337-0.094,0.478s-0.09,0.257-0.152,0.351
		c0.156,0.918,0.378,1.634,0.666,2.147c0.287,0.515,0.79,0.997,1.506,1.449v0.162c0.141,0,0.342,0.02,0.607,0.06
		c0.264,0.038,0.467,0.058,0.607,0.058c1.184,0,2.125-0.193,2.825-0.584c0.296,0.98,0.443,1.542,0.443,1.682
		c0,0.437-0.568,0.654-1.704,0.654c-0.545,0-0.98-0.004-1.309-0.013c-0.326-0.008-0.789-0.05-1.389-0.129
		c-0.6-0.076-1.09-0.186-1.471-0.326c-0.382-0.141-0.771-0.354-1.168-0.642s-0.697-0.643-0.898-1.062
		c-0.032-0.063-0.056-0.16-0.07-0.293c-0.016-0.133-0.047-0.233-0.094-0.305C120.195,23.103,120.102,23.059,119.961,23.043z
		 M120.102,21.151c0.109,0.421,0.276,0.911,0.502,1.473c0.227,0.56,0.394,0.84,0.502,0.84l0.584-0.421l0.023-0.069
		c0-0.25-0.074-0.58-0.222-0.992c-0.147-0.413-0.315-0.689-0.502-0.83l0.116-0.116c-0.016-0.062-0.022-0.163-0.022-0.304
		c0-0.606,0.093-1.284,0.28-2.031c0.187-0.747,0.396-1.121,0.63-1.121c0.233-0.529,0.545-0.867,0.935-1.016
		c0.389-0.147,0.848-0.24,1.377-0.28c0.529-0.038,0.958-0.144,1.285-0.315c-0.234-0.077-0.429-0.116-0.584-0.116
		c-0.405,0-0.915,0.086-1.529,0.256c-0.615,0.172-1.109,0.366-1.483,0.585s-0.763,0.794-1.167,1.728
		c-0.047,0.124-0.129,0.417-0.246,0.876c-0.116,0.459-0.221,0.883-0.314,1.272S120.117,21.151,120.102,21.151z M122.25,23.464
		c0-0.109-0.109-0.202-0.326-0.28c-0.063,0-0.141,0.043-0.234,0.128c-0.094,0.086-0.167,0.169-0.222,0.245
		c-0.054,0.079-0.081,0.126-0.081,0.141c0,0.14,0.108,0.211,0.326,0.211C121.932,23.908,122.109,23.76,122.25,23.464z
		 M122.109,24.398c0,0.155,0.156,0.233,0.468,0.233c0.187,0,0.374-0.148,0.562-0.444c-0.032-0.107-0.133-0.163-0.305-0.163
		C122.352,24.024,122.109,24.149,122.109,24.398z M123.139,24.842c0,0.14,0.14,0.209,0.42,0.209c0.17,0,0.271-0.046,0.303-0.14
		c0-0.124-0.02-0.206-0.059-0.244c-0.039-0.039-0.113-0.059-0.221-0.059C123.285,24.608,123.139,24.687,123.139,24.842z
		 M124.633,24.795c-0.281,0-0.437,0.087-0.467,0.256l0.956,0.095c-0.016-0.078-0.085-0.156-0.21-0.234
		C124.787,24.834,124.693,24.795,124.633,24.795z M125.426,24.911c0,0.187,0.07,0.28,0.211,0.28c0.217,0,0.389-0.094,0.514-0.28
		H125.426z M127.154,16.085l-0.49-0.07c-0.28,0.171-0.42,0.304-0.42,0.397l0.91,0.28V16.085z M127.411,24.655
		c-0.468,0.031-0.786,0.209-0.958,0.536l0.211,0.023C127.162,25.215,127.411,25.029,127.411,24.655z"/>
	<path fill="#545454" d="M137.266,25.916v-4.624c0-1.681-0.141-2.834-0.42-3.455h-0.023c-0.078,0-0.332-0.129-0.76-0.386
		s-0.657-0.417-0.688-0.479c0,0.015-0.233,0.058-0.7,0.128s-0.95,0.226-1.448,0.467c-0.499,0.242-0.786,0.572-0.864,0.992
		c-0.093,0.374-0.14,0.811-0.14,1.309c-0.125,2.07-0.187,3.308-0.187,3.713c0,0.389,0.008,0.677,0.023,0.863l-0.141,0.14
		c0.295,0.467,0.443,0.771,0.443,0.911c0,0.281-0.102,0.421-0.303,0.421h-1.705c-0.047-0.094-0.121-0.148-0.222-0.164
		c-0.102-0.016-0.168-0.062-0.198-0.14c0-0.109-0.004-0.432-0.012-0.969c-0.008-0.538-0.012-0.854-0.012-0.946
		c0-1.042,0.073-2.604,0.222-4.682c0.147-2.078,0.222-3.631,0.222-4.659c0-0.515-0.027-1.271-0.082-2.276s-0.082-1.771-0.082-2.3
		h1.729l0.304,0.141v1.214c0,2.631,0.047,3.946,0.14,3.946l0.141,0.304c1.447-0.482,2.576-0.725,3.386-0.725
		c1.059,0,1.958,0.467,2.698,1.401c0.738,0.934,1.108,1.93,1.108,2.989c0,0.482-0.074,1.237-0.222,2.265
		c-0.148,1.027-0.223,1.799-0.223,2.313c0,0.248,0.009,0.436,0.023,0.56c-0.094,0-0.14,0.04-0.14,0.116l0.069,0.305
		c0.047,0.187,0.094,0.393,0.141,0.619c0.047,0.226,0.07,0.4,0.07,0.524c0,0.156-0.152,0.265-0.455,0.327
		c-0.305,0.063-0.607,0.095-0.911,0.095s-0.456,0.007-0.456,0.021C137.374,26.071,137.266,25.978,137.266,25.916z M130.61,24.981
		c0,0.032,0.055,0.069,0.164,0.116c0.108,0.048,0.202,0.071,0.28,0.071c0.311,0,0.467-0.194,0.467-0.585
		c0-0.249-0.055-0.435-0.164-0.56c-0.249,0.109-0.396,0.163-0.443,0.163l0.584-0.584c-0.047-0.311-0.125-0.466-0.233-0.466
		l-0.07,0.023l0.163-0.305c-0.451,0.032-0.747,0.187-0.888,0.467c0,0.079,0.056,0.117,0.164,0.117s0.202-0.038,0.28-0.117
		l-0.28,0.421l0.141,0.141c-0.109,0.046-0.164,0.14-0.164,0.279c0,0.032,0.026,0.12,0.082,0.269
		c0.054,0.149,0.082,0.254,0.082,0.316C130.665,24.827,130.61,24.903,130.61,24.981z M130.588,21.829
		c0.107,0,0.252,0.035,0.432,0.105c0.178,0.07,0.291,0.144,0.338,0.222c0.109-0.155,0.164-0.351,0.164-0.584h-0.327
		c0.077-0.202,0.179-0.35,0.304-0.442c-0.031-0.468-0.047-0.928-0.047-1.379c0-0.794,0.063-1.432,0.188-1.914
		c-0.079,0.078-0.172,0.116-0.281,0.116c-0.265,0.124-0.432,0.229-0.502,0.314c-0.07,0.086-0.105,0.245-0.105,0.479
		c0,0.063,0.009,0.094,0.024,0.094l0.28,0.165l-0.28,0.255v1.87l0.28,0.162C130.742,21.355,130.588,21.534,130.588,21.829z
		 M130.61,22.529c0,0.141,0.124,0.21,0.374,0.21c0.233,0,0.404-0.054,0.514-0.163c0-0.015-0.02-0.042-0.059-0.081
		s-0.066-0.059-0.082-0.059c-0.047,0-0.125,0.022-0.233,0.07c-0.108,0.046-0.179,0.069-0.21,0.069l0.141-0.28
		C130.759,22.296,130.61,22.374,130.61,22.529z M131.357,16.248c-0.233,0.171-0.35,0.327-0.35,0.467
		c0.062,0,0.155-0.026,0.279-0.082c0.125-0.054,0.238-0.104,0.339-0.151c0.102-0.047,0.152-0.077,0.152-0.094
		c0-0.123-0.032-0.295-0.094-0.514c-0.063-0.217-0.125-0.334-0.187-0.35l0.07-0.21c0.046-0.141,0.07-0.218,0.07-0.233
		c0-0.202-0.036-0.502-0.105-0.899c-0.07-0.396-0.105-0.713-0.105-0.946h-0.07c0.109-0.202,0.164-0.497,0.164-0.888
		c0-0.233-0.027-0.381-0.082-0.442c-0.055-0.063-0.082-0.102-0.082-0.117c0-0.077,0.027-0.194,0.082-0.35
		c0.055-0.156,0.082-0.328,0.082-0.515c0-0.373-0.055-0.561-0.164-0.561s-0.233,0.031-0.373,0.093
		c-0.141,0.064-0.21,0.117-0.21,0.164c0,0.219,0.069,0.593,0.21,1.121c0.14,0.53,0.21,0.872,0.21,1.027
		c0,0.156-0.046,0.258-0.14,0.305v2.312l0.14,0.14c-0.14,0-0.21,0.242-0.21,0.724H131.357z M130.914,17.393
		c0,0.187,0.094,0.28,0.28,0.28c0.389-0.063,0.665-0.136,0.829-0.222c0.163-0.086,0.264-0.179,0.304-0.28
		c0.038-0.101,0.097-0.167,0.175-0.198c0.047-0.032,0.299-0.133,0.759-0.305c0.459-0.171,0.888-0.35,1.284-0.536
		c0.397-0.187,0.627-0.343,0.689-0.467l-0.141-0.141l-1.705,0.443c-0.047,0-0.107,0-0.187,0l-0.116-0.022
		c-0.063,0.046-0.195,0.187-0.397,0.419c-0.202,0.234-0.382,0.351-0.536,0.351c-0.032,0-0.109-0.063-0.234-0.187
		c-0.219,0.078-0.381,0.14-0.49,0.187s-0.222,0.13-0.338,0.246C130.973,17.078,130.914,17.221,130.914,17.393z M134.813,16.107
		l-0.583,0.305l0.093,0.022c0.063,0,0.101,0,0.116,0C134.689,16.435,134.813,16.326,134.813,16.107z M135.094,16.412l0.141,0.116
		c0.14,0,0.677-0.288,1.611-0.863c-0.141-0.094-0.482-0.141-1.028-0.141L135.094,16.412z M135.678,16.528l0.326,0.187
		c0.094,0,0.32-0.201,0.678-0.607C136.34,16.186,136.004,16.326,135.678,16.528z M137.383,15.945l-0.701,0.747l0.07,0.022
		c0.047,0,0.078,0,0.094,0c0.357,0,0.638-0.155,0.84-0.467L137.383,15.945z M138.13,18.257l-0.327,0.303
		c0.155,0,0.369-0.066,0.643-0.199c0.271-0.131,0.408-0.306,0.408-0.523c0-0.219-0.109-0.327-0.327-0.327
		c-0.016,0-0.034,0.003-0.058,0.011c-0.023,0.009-0.044,0.012-0.059,0.012c0.093-0.093,0.14-0.179,0.14-0.256
		c0-0.156-0.039-0.297-0.116-0.422c-0.079-0.124-0.18-0.187-0.304-0.187c-0.343,0-0.631,0.203-0.864,0.608
		c0.125,0.047,0.218,0.084,0.28,0.116c0,0.016-0.031,0.094-0.093,0.233l-0.07,0.211c0,0.078,0.054,0.116,0.163,0.116
		c0.046,0,0.116-0.02,0.21-0.06c0.094-0.037,0.164-0.057,0.21-0.057l-0.163,0.303L138.13,18.257z M139.086,18.373
		c-0.373,0-0.699,0.117-0.98,0.351c-0.279,0.233-0.42,0.536-0.42,0.91c0.404,0,0.739-0.108,1.004-0.327
		C138.954,19.089,139.086,18.778,139.086,18.373z M137.966,22.437v3.082c0.405,0,0.638-0.062,0.7-0.188
		c0.016-0.046,0.023-0.101,0.023-0.162c0-0.249-0.027-0.622-0.081-1.121c-0.056-0.498-0.082-0.896-0.082-1.191h-0.116
		c0.233-0.232,0.35-0.466,0.35-0.7h-0.257c0-0.108,0.077-0.334,0.233-0.678c0.156-0.342,0.233-0.661,0.233-0.957
		c0-0.155-0.046-0.233-0.14-0.233l-0.864,0.561c0,0.187,0.055,0.281,0.164,0.281c-0.296,0.232-0.444,0.428-0.444,0.582l0.28-0.14
		c-0.016,0.017-0.022,0.038-0.022,0.071c0,0.124,0.062,0.201,0.187,0.232c-0.032,0.032-0.063,0.055-0.094,0.069
		c-0.047,0.048-0.07,0.117-0.07,0.211c0,0.016,0.023,0.044,0.07,0.082s0.077,0.058,0.094,0.058L137.966,22.437z M138.27,20.125
		c-0.047,0.062-0.14,0.132-0.28,0.21c-0.14,0.078-0.21,0.18-0.21,0.303c0.265,0,0.533-0.136,0.807-0.407
		c0.271-0.273,0.407-0.55,0.407-0.83c-0.171,0-0.39,0.078-0.653,0.233c-0.266,0.156-0.396,0.319-0.396,0.491H138.27z"/>
</g>
</svg>
