<?xml version="1.0" encoding="utf-8"?>
<!-- Generator: Adobe Illustrator 16.0.0, SVG Export Plug-In . SVG Version: 6.00 Build 0)  -->
<!DOCTYPE svg PUBLIC "-//W3C//DTD SVG 1.1//EN" "http://www.w3.org/Graphics/SVG/1.1/DTD/svg11.dtd">
<svg version="1.1" id="图层_1" xmlns="http://www.w3.org/2000/svg" xmlns:xlink="http://www.w3.org/1999/xlink" x="0px" y="0px"
	 width="258px" height="36px" viewBox="0 0 258 36" enable-background="new 0 0 258 36" xml:space="preserve">
<g>
	<path fill="#545454" d="M20.812,23.474c-2.313,0-4.141-0.588-5.482-1.764c-1.343-1.176-2.014-2.836-2.014-4.981
		c0-1.312,0.215-2.46,0.646-3.451c0.43-0.988,1.038-1.778,1.821-2.37c1.554-1.169,3.604-1.753,6.148-1.753
		c1.645,0,3.289,0.225,4.934,0.674c0.629,0.206,0.944,0.714,0.944,1.522c0,1.105-0.348,1.657-1.041,1.657
		c-0.116,0-0.495-0.051-1.137-0.154c-0.643-0.102-1.092-0.154-1.349-0.154c-0.913,0-1.616,0.318-2.111,0.955
		c-0.495,0.636-0.742,1.394-0.742,2.273s0.231,1.654,0.694,2.322c0.462,0.669,1.092,1.016,1.889,1.041
		c0.54,0.026,1.496,0.039,2.871,0.039c0.668,0,1.034,0.314,1.099,0.943c0.038,0.231,0.058,0.467,0.058,0.704
		c0,0.238-0.02,0.479-0.058,0.723c-0.077,0.463-0.437,0.8-1.079,1.013c-0.643,0.211-1.568,0.392-2.775,0.539
		C22.919,23.398,21.814,23.474,20.812,23.474z"/>
	<path fill="#545454" d="M29.986,22.182l-0.039-6.301c0-1.929,0.02-3.804,0.059-5.629c0.012-0.424,0.092-0.738,0.24-0.943
		C30.394,9.103,30.68,9,31.104,9h3.701c0.424,0,0.709,0.1,0.857,0.299c0.147,0.198,0.237,0.559,0.27,1.079
		c0.031,0.521,0.061,1.911,0.086,4.173c1.002-1.016,2.207-1.523,3.614-1.523s2.515,0.348,3.325,1.041
		c0.809,0.693,1.223,1.65,1.242,2.871s0.029,2.313,0.029,3.277c0,0.963-0.007,1.612-0.02,1.946s-0.1,0.575-0.26,0.723
		c-0.161,0.147-0.473,0.222-0.936,0.222l-3.7,0.039c-0.411,0-0.696-0.074-0.856-0.223c-0.162-0.146-0.242-0.369-0.242-0.665
		l0.02-4.702c0-0.386-0.096-0.674-0.289-0.867c-0.192-0.192-0.434-0.289-0.723-0.289s-0.549,0.1-0.781,0.298
		c-0.23,0.2-0.354,0.479-0.365,0.839l-0.115,4.645c-0.014,0.245-0.129,0.45-0.348,0.617s-0.484,0.263-0.8,0.289
		s-0.665,0.039-1.05,0.039l-2.699-0.039c-0.244,0-0.484-0.087-0.723-0.26C30.104,22.654,29.986,22.439,29.986,22.182z"/>
	<path fill="#545454" d="M53.133,12.97c4.188,0,6.302,1.362,6.34,4.086c0.025,1.156,0.039,2.216,0.039,3.18s-0.007,1.613-0.02,1.946
		c-0.013,0.335-0.1,0.575-0.26,0.724c-0.161,0.147-0.473,0.222-0.936,0.222h-4.085c-0.411,0-0.694-0.074-0.849-0.222
		c-0.154-0.148-0.237-0.369-0.25-0.665c0-0.013-0.004-0.035-0.01-0.067c-0.007-0.032-0.01-0.061-0.01-0.087
		c-0.848,0.874-2.004,1.311-3.469,1.311c-1.016,0-1.879-0.254-2.593-0.761c-0.713-0.509-1.069-1.209-1.069-2.102
		c0-0.894,0.254-1.605,0.762-2.139c0.507-0.533,1.111-0.896,1.812-1.089c0.7-0.193,1.452-0.29,2.255-0.29s1.59,0.077,2.36,0.231
		v-0.077c0-0.642-0.125-1.104-0.376-1.388c-0.25-0.282-0.654-0.424-1.214-0.424c-0.559,0-1.024,0.049-1.397,0.145
		c-0.373,0.097-0.654,0.196-0.848,0.299c-0.527,0.309-0.893,0.463-1.099,0.463s-0.389-0.097-0.549-0.289
		c-0.161-0.193-0.241-0.491-0.241-0.896c0-0.404,0.074-0.684,0.222-0.838s0.382-0.309,0.703-0.463
		C49.471,13.239,51.063,12.97,53.133,12.97z M52.227,20.853c0.564,0,0.854-0.109,0.867-0.328c0.025-0.424,0.039-0.982,0.039-1.677
		c0-0.27-0.206-0.404-0.617-0.404s-0.745,0.1-1.002,0.299c-0.258,0.199-0.386,0.491-0.386,0.876c0,0.386,0.106,0.688,0.317,0.906
		C51.658,20.743,51.918,20.853,52.227,20.853z"/>
	<path fill="#545454" d="M70.188,22.259l0.02-4.702c0-0.386-0.097-0.674-0.289-0.867c-0.192-0.192-0.435-0.289-0.724-0.289
		s-0.552,0.1-0.789,0.298c-0.238,0.2-0.357,0.479-0.357,0.839v1.177c0,1.695-0.038,2.852-0.115,3.468
		c-0.039,0.219-0.148,0.411-0.328,0.578c-0.18,0.168-0.498,0.268-0.953,0.3c-0.457,0.031-0.91,0.048-1.359,0.048
		S64.079,23.082,63,23.029c-0.309-0.012-0.553-0.102-0.732-0.27c-0.18-0.167-0.283-0.359-0.309-0.578
		c-0.09-0.834-0.135-2.113-0.135-3.835s0.025-2.9,0.077-3.536c0.052-0.637,0.147-1.051,0.289-1.243s0.431-0.29,0.867-0.29h3.759
		c0.436,0,0.729,0.098,0.876,0.29s0.241,0.521,0.28,0.983v0.019c0.988-1.028,2.193-1.542,3.613-1.542s2.534,0.348,3.344,1.041
		c0.809,0.693,1.224,1.65,1.243,2.871c0.019,1.221,0.028,2.313,0.028,3.277c0,0.963-0.006,1.612-0.02,1.946
		c-0.012,0.334-0.1,0.575-0.26,0.723s-0.473,0.222-0.935,0.222l-3.7,0.039c-0.412,0-0.697-0.074-0.857-0.223
		C70.269,22.777,70.188,22.555,70.188,22.259z"/>
	<path fill="#545454" d="M91.889,14.203l0.039,5.916c0,1.286-0.007,2.263-0.02,2.931c-0.013,0.667-0.205,1.271-0.578,1.811
		c-0.373,0.54-0.88,0.965-1.522,1.273C88.549,26.711,86.871,27,84.777,27s-3.81-0.282-5.146-0.848
		c-0.321-0.142-0.556-0.292-0.704-0.453c-0.147-0.161-0.221-0.443-0.221-0.848c0-0.405,0.08-0.703,0.24-0.896
		c0.16-0.192,0.35-0.289,0.568-0.289s0.488,0.077,0.81,0.231c0.989,0.488,1.979,0.732,2.969,0.732c0.449,0,0.854-0.048,1.214-0.145
		c0.359-0.096,0.678-0.292,0.954-0.588s0.414-0.674,0.414-1.138l-0.019-1.021c0-0.128-0.039-0.192-0.116-0.192
		c-0.038,0-0.077,0.019-0.115,0.057c-1.028,0.989-2.159,1.484-3.393,1.484s-2.265-0.392-3.093-1.176
		c-0.829-0.783-1.244-2.023-1.244-3.72c0-1.695,0.489-2.977,1.465-3.845c0.977-0.867,2.172-1.301,3.585-1.301
		s2.461,0.443,3.142,1.33c0.013-0.334,0.135-0.591,0.366-0.771c0.231-0.18,0.488-0.282,0.771-0.308
		c0.283-0.026,0.797-0.039,1.543-0.039l2.043,0.039c0.243,0,0.484,0.087,0.722,0.26C91.771,13.731,91.889,13.946,91.889,14.203z
		 M84.643,16.228c-0.758,0-1.137,0.556-1.137,1.667s0.365,1.667,1.098,1.667c0.321,0,0.602-0.087,0.839-0.261
		c0.237-0.173,0.356-0.421,0.356-0.741v-1.33c0-0.309-0.119-0.553-0.356-0.732C85.205,16.316,84.938,16.228,84.643,16.228z"/>
	<path fill="#545454" d="M101.043,23.512c-4.793,0-7.188-1.747-7.188-5.242c0-1.657,0.61-2.942,1.831-3.854s3.006-1.368,5.357-1.368
		s4.137,0.456,5.358,1.368c1.22,0.912,1.831,2.197,1.831,3.854C108.232,21.765,105.836,23.512,101.043,23.512z M101.043,20.428
		c0.758,0,1.138-0.719,1.138-2.158c0-0.655-0.077-1.159-0.231-1.513c-0.154-0.353-0.456-0.529-0.906-0.529
		c-0.449,0-0.752,0.177-0.905,0.529c-0.154,0.354-0.231,0.857-0.231,1.513C99.906,19.709,100.285,20.428,101.043,20.428z"/>
</g>
</svg>
