<?xml version="1.0" encoding="utf-8"?>
<!-- Generator: Adobe Illustrator 16.0.0, SVG Export Plug-In . SVG Version: 6.00 Build 0)  -->
<!DOCTYPE svg PUBLIC "-//W3C//DTD SVG 1.1//EN" "http://www.w3.org/Graphics/SVG/1.1/DTD/svg11.dtd">
<svg version="1.1" id="图层_1" xmlns="http://www.w3.org/2000/svg" xmlns:xlink="http://www.w3.org/1999/xlink" x="0px" y="0px"
	 width="258px" height="36px" viewBox="0 0 258 36" enable-background="new 0 0 258 36" xml:space="preserve">
<g>
	<path fill="#545454" d="M21.787,22.554c-0.22,0.658-0.463,1.258-0.73,1.8c-0.266,0.54-0.561,1.008-0.882,1.399
		c-0.321,0.393-0.659,0.698-1.011,0.918C18.81,26.89,18.445,27,18.068,27c-0.658,0-1.278-0.321-1.857-0.964
		c-0.581-0.644-1.083-1.491-1.507-2.542c-0.423-1.051-0.761-2.247-1.011-3.589c-0.252-1.34-0.377-2.717-0.377-4.129
		c0-1.145,0.125-2.063,0.377-2.753c0.25-0.689,0.592-1.219,1.023-1.588c0.431-0.368,0.937-0.612,1.518-0.729
		c0.58-0.117,1.191-0.177,1.834-0.177c0.613,0,1.189,0.051,1.73,0.153c0.541,0.102,1.023,0.306,1.447,0.611
		c0.423,0.306,0.768,0.741,1.035,1.306c0.266,0.565,0.439,1.317,0.518,2.259l-2.023,0.565c-0.016-0.863-0.098-1.557-0.247-2.083
		c-0.149-0.525-0.345-0.925-0.589-1.2c-0.243-0.273-0.525-0.454-0.847-0.541c-0.321-0.086-0.663-0.129-1.024-0.129
		c-0.36,0-0.705,0.047-1.034,0.141c-0.33,0.094-0.616,0.291-0.859,0.589c-0.243,0.299-0.435,0.729-0.577,1.294
		c-0.141,0.565-0.211,1.325-0.211,2.282c0,1.302,0.066,2.568,0.2,3.801c0.133,1.23,0.321,2.329,0.564,3.294s0.529,1.737,0.859,2.317
		c0.329,0.581,0.683,0.87,1.058,0.87c0.439,0,0.836-0.356,1.189-1.069c0.353-0.715,0.654-1.636,0.906-2.766L21.787,22.554z"/>
	<path fill="#545454" d="M28.962,27c-0.564,0-1.094-0.251-1.588-0.752c-0.494-0.503-0.926-1.161-1.294-1.978
		c-0.368-0.815-0.655-1.741-0.858-2.776c-0.205-1.035-0.307-2.086-0.307-3.153c0-0.894,0.105-1.607,0.318-2.141
		c0.211-0.533,0.502-0.949,0.87-1.247s0.8-0.494,1.294-0.588s1.016-0.142,1.564-0.142s1.07,0.048,1.565,0.142
		c0.494,0.094,0.925,0.29,1.294,0.588c0.368,0.298,0.658,0.714,0.871,1.247c0.211,0.533,0.316,1.247,0.316,2.141
		c0,1.067-0.102,2.118-0.305,3.153c-0.205,1.035-0.49,1.961-0.859,2.776c-0.369,0.816-0.8,1.475-1.294,1.978
		C30.056,26.749,29.528,27,28.962,27z M28.962,26.036c0.298,0,0.58-0.22,0.848-0.659c0.266-0.438,0.494-1.02,0.682-1.742
		c0.189-0.721,0.338-1.544,0.447-2.47s0.165-1.867,0.165-2.824c0-0.674-0.056-1.22-0.165-1.635
		c-0.109-0.416-0.262-0.737-0.459-0.965c-0.195-0.228-0.424-0.376-0.682-0.447c-0.26-0.07-0.538-0.105-0.836-0.105
		s-0.576,0.035-0.835,0.105c-0.259,0.071-0.486,0.22-0.683,0.447c-0.195,0.228-0.349,0.549-0.459,0.965
		c-0.109,0.415-0.164,0.961-0.164,1.635c0,0.957,0.055,1.898,0.164,2.824c0.11,0.926,0.259,1.749,0.447,2.47
		c0.188,0.723,0.412,1.304,0.671,1.742C28.363,25.816,28.649,26.036,28.962,26.036z"/>
	<path fill="#545454" d="M45.292,15.142c-0.314,0-0.585,0.313-0.813,0.94c-0.228,0.628-0.428,1.471-0.6,2.53
		c-0.173,1.059-0.314,2.282-0.424,3.67c-0.109,1.389-0.188,2.844-0.235,4.365H41.55c0.047-1.224,0.07-2.416,0.07-3.577
		c0-1.113-0.023-2.152-0.07-3.117s-0.125-1.804-0.234-2.519c-0.111-0.713-0.252-1.273-0.424-1.682
		c-0.173-0.408-0.377-0.611-0.611-0.611c-0.314,0-0.613,0.313-0.895,0.94c-0.283,0.628-0.537,1.471-0.766,2.53
		c-0.227,1.059-0.419,2.282-0.576,3.67c-0.156,1.389-0.258,2.844-0.306,4.365h-1.906l0.235-12.142h0.848l0.447,6.754
		c0.109-1.036,0.25-1.985,0.424-2.848c0.172-0.863,0.379-1.612,0.623-2.247c0.243-0.635,0.521-1.13,0.835-1.482
		s0.675-0.529,1.083-0.529c0.359,0,0.674,0.145,0.94,0.436c0.267,0.29,0.49,0.693,0.671,1.212c0.18,0.518,0.325,1.137,0.436,1.858
		c0.109,0.722,0.188,1.515,0.234,2.376c0.11-0.861,0.248-1.654,0.412-2.376c0.165-0.722,0.356-1.341,0.577-1.858
		c0.22-0.519,0.474-0.922,0.765-1.212c0.289-0.291,0.615-0.436,0.977-0.436c0.532,0,1.02,0.298,1.459,0.894
		c0.438,0.597,0.818,1.4,1.141,2.412s0.572,2.196,0.753,3.553c0.181,1.357,0.271,2.796,0.271,4.317c0,0.221,0,0.44,0,0.66
		s-0.008,0.438-0.023,0.658h-1.906c0.016-0.36,0.023-0.709,0.023-1.047s0-0.679,0-1.024c0-1.286-0.043-2.501-0.129-3.646
		c-0.086-1.145-0.204-2.149-0.354-3.012c-0.148-0.862-0.333-1.541-0.553-2.035C45.801,15.388,45.558,15.142,45.292,15.142z"/>
	<path fill="#545454" d="M51.998,9h1.2l0.142,8.001c0.266-0.832,0.6-1.503,1-2.013c0.399-0.51,0.89-0.765,1.471-0.765
		c0.564,0,1.094,0.251,1.588,0.753s0.926,1.161,1.294,1.977s0.655,1.741,0.858,2.776c0.204,1.035,0.307,2.086,0.307,3.153
		c0,0.895-0.106,1.607-0.318,2.142c-0.211,0.533-0.502,0.948-0.871,1.246c-0.368,0.299-0.799,0.495-1.293,0.589S56.359,27,55.81,27
		c-0.55,0-1.071-0.047-1.565-0.141c-0.493-0.094-0.925-0.29-1.294-0.589c-0.369-0.298-0.659-0.713-0.871-1.246
		c-0.211-0.534-0.317-1.247-0.317-2.142L51.998,9z M55.81,15.188c-0.314,0-0.604,0.22-0.871,0.659
		c-0.268,0.438-0.506,1.019-0.718,1.74c-0.212,0.723-0.376,1.546-0.494,2.471c-0.118,0.926-0.177,1.867-0.177,2.824
		c0,0.69,0.063,1.239,0.188,1.646c0.126,0.409,0.294,0.727,0.506,0.953c0.212,0.228,0.45,0.377,0.718,0.447
		c0.267,0.07,0.549,0.106,0.848,0.106c0.297,0,0.576-0.036,0.834-0.106c0.26-0.07,0.486-0.22,0.684-0.447
		c0.195-0.227,0.349-0.544,0.459-0.953c0.109-0.407,0.164-0.956,0.164-1.646c0-0.957-0.055-1.898-0.164-2.824
		c-0.11-0.925-0.26-1.748-0.447-2.471c-0.188-0.722-0.416-1.302-0.683-1.74C56.39,15.408,56.107,15.188,55.81,15.188z"/>
	<path fill="#545454" d="M66.256,27c-0.564,0-1.094-0.251-1.588-0.752c-0.495-0.503-0.927-1.161-1.294-1.978
		c-0.369-0.815-0.656-1.741-0.859-2.776c-0.204-1.035-0.306-2.086-0.306-3.153c0-0.894,0.106-1.607,0.317-2.141
		c0.212-0.533,0.502-0.949,0.871-1.247c0.368-0.298,0.799-0.494,1.294-0.588c0.494-0.094,1.016-0.142,1.564-0.142
		c0.55,0,1.071,0.048,1.565,0.142s0.925,0.29,1.293,0.588c0.369,0.298,0.66,0.714,0.871,1.247c0.212,0.533,0.318,1.247,0.318,2.141
		c0,1.067-0.104,2.118-0.307,3.153c-0.204,1.035-0.49,1.961-0.859,2.776c-0.368,0.816-0.799,1.475-1.293,1.978
		C67.351,26.749,66.822,27,66.256,27z M66.256,26.036c0.298,0,0.58-0.22,0.847-0.659c0.268-0.438,0.494-1.02,0.684-1.742
		c0.188-0.721,0.336-1.544,0.446-2.47s0.165-1.867,0.165-2.824c0-0.674-0.055-1.22-0.165-1.635c-0.11-0.416-0.263-0.737-0.459-0.965
		s-0.423-0.376-0.683-0.447c-0.258-0.07-0.537-0.105-0.835-0.105s-0.576,0.035-0.835,0.105c-0.259,0.071-0.486,0.22-0.683,0.447
		s-0.349,0.549-0.459,0.965c-0.11,0.415-0.164,0.961-0.164,1.635c0,0.957,0.054,1.898,0.164,2.824s0.259,1.749,0.447,2.47
		c0.188,0.723,0.412,1.304,0.671,1.742C65.657,25.816,65.943,26.036,66.256,26.036z"/>
</g>
</svg>
