<?xml version="1.0" encoding="utf-8"?>
<!-- Generator: Adobe Illustrator 16.0.0, SVG Export Plug-In . SVG Version: 6.00 Build 0)  -->
<!DOCTYPE svg PUBLIC "-//W3C//DTD SVG 1.1//EN" "http://www.w3.org/Graphics/SVG/1.1/DTD/svg11.dtd">
<svg version="1.1" id="图层_1" xmlns="http://www.w3.org/2000/svg" xmlns:xlink="http://www.w3.org/1999/xlink" x="0px" y="0px"
	 width="258px" height="36px" viewBox="0 0 258 36" enable-background="new 0 0 258 36" xml:space="preserve">
<g>
	<path fill="#545454" d="M13.316,23.503c0.364-1.748,0.949-3.918,1.754-6.512c0.805-2.594,1.431-4.478,1.879-5.652
		c0.504-1.314,1.05-1.972,1.638-1.972c0.196,0,0.392,0.07,0.588,0.21c-0.84,1.943-1.69,4.278-2.552,7.005
		c-0.861,2.727-1.522,5.138-1.984,7.235c0.336,0.056,0.637,0.084,0.903,0.084c1.442,0,2.828-0.542,4.158-1.625
		c1.33-1.084,2.394-2.465,3.192-4.143s1.197-3.376,1.197-5.097c0-1.636-0.385-2.869-1.155-3.701s-1.82-1.248-3.15-1.248
		c-1.372,0-2.517,0.392-3.434,1.175c-0.917,0.782-1.375,1.755-1.375,2.915c0,0.308,0.035,0.566,0.105,0.775
		c-0.84,0-1.26-0.391-1.26-1.174c0-1.025,0.665-1.995,1.995-2.909c1.33-0.913,2.863-1.37,4.599-1.37
		c1.771,0,3.082,0.526,3.932,1.579s1.276,2.449,1.276,4.189c0,1.468-0.297,2.897-0.891,4.289c-0.594,1.391-1.362,2.587-2.305,3.586
		c-0.943,1-2.019,1.801-3.228,2.402c-1.208,0.601-2.42,0.901-3.636,0.901C14.513,24.447,13.764,24.132,13.316,23.503z"/>
	<path fill="#545454" d="M25.097,21.864c0-0.829,0.29-1.749,0.869-2.76c0.579-1.012,1.33-1.883,2.25-2.612
		c0.921-0.73,1.815-1.096,2.68-1.096c0.551,0,1.01,0.148,1.377,0.446s0.551,0.682,0.551,1.149c0,0.602-0.343,0.903-1.029,0.903
		c0.07-0.252,0.105-0.497,0.105-0.735c0-0.784-0.349-1.176-1.045-1.176c-0.614,0-1.266,0.354-1.956,1.061s-1.255,1.525-1.694,2.457
		c-0.439,0.931-0.659,1.739-0.659,2.425c0,0.546,0.189,0.819,0.567,0.819c0.251,0,0.544-0.119,0.879-0.357
		c0.335-0.237,0.643-0.504,0.922-0.798c0.279-0.294,0.611-0.689,0.995-1.187c0.384-0.496,0.667-0.878,0.849-1.145l0.754-1.092
		c0.567,0.099,0.851,0.273,0.851,0.525c0,0.112-0.207,0.532-0.62,1.26c-0.413,0.729-0.62,1.281-0.62,1.659
		c0,0.238,0.061,0.451,0.184,0.641c0.122,0.188,0.305,0.283,0.55,0.283c0.406,0,0.917-0.29,1.533-0.871s1.225-1.396,1.827-2.447
		l0.21,0.21c-0.434,1.113-1.047,2.024-1.837,2.733c-0.791,0.71-1.57,1.064-2.336,1.064c-0.484,0-0.855-0.142-1.111-0.424
		c-0.256-0.281-0.384-0.622-0.384-1.021c0-0.168,0.021-0.371,0.063-0.609c-0.63,0.826-1.194,1.432-1.691,1.816
		s-0.99,0.578-1.48,0.578c-0.462,0-0.836-0.144-1.124-0.431C25.241,22.848,25.097,22.424,25.097,21.864z"/>
	<path fill="#545454" d="M34.001,22.473c0-0.042,0.123-0.37,0.367-0.986c0.245-0.616,0.494-1.334,0.746-2.152
		c0.252-0.819,0.378-1.495,0.378-2.027c0.266-0.294,0.588-0.44,0.966-0.44c0.378,0,0.567,0.182,0.567,0.546
		c0,0.477-0.224,1.4-0.672,2.772c1.609-2.464,3.066-3.696,4.368-3.696c0.497,0,0.877,0.186,1.139,0.557
		c0.263,0.371,0.394,0.815,0.394,1.333c0,0.462-0.14,1.05-0.42,1.765c-0.28,0.714-0.42,1.231-0.42,1.554
		c0,0.532,0.205,0.798,0.614,0.798c0.868,0,1.848-1.092,2.94-3.276l0.231,0.273c-1.008,2.366-2.215,3.549-3.621,3.549
		c-0.475,0-0.838-0.123-1.089-0.367c-0.251-0.245-0.377-0.57-0.377-0.977c0-0.28,0.102-0.753,0.305-1.418
		c0.203-0.664,0.304-1.165,0.304-1.501c0-0.686-0.28-1.029-0.84-1.029c-0.336,0-0.697,0.133-1.082,0.399
		c-0.385,0.266-0.725,0.553-1.019,0.86c-0.294,0.309-0.641,0.756-1.04,1.345c-0.399,0.588-0.683,1.021-0.851,1.302l-0.777,1.281
		C34.596,22.936,34.225,22.781,34.001,22.473z"/>
	<path fill="#545454" d="M44.48,21.108c0-1.387,0.494-2.664,1.48-3.833s2.026-1.753,3.119-1.753c0.532,0,0.914,0.15,1.145,0.451
		s0.346,0.669,0.346,1.103c0,0.42-0.094,0.78-0.283,1.081c-0.189,0.302-0.445,0.452-0.767,0.452c-0.238,0-0.441-0.105-0.609-0.315
		c0.21-0.098,0.392-0.318,0.546-0.661c0.154-0.343,0.231-0.676,0.231-0.998c0-0.35-0.154-0.524-0.462-0.524
		c-0.728,0-1.484,0.595-2.268,1.785c-0.784,1.189-1.176,2.31-1.176,3.359c0,1.162,0.511,1.743,1.533,1.743
		c0.854,0,1.697-0.35,2.531-1.05c0.833-0.7,1.473-1.617,1.921-2.751l0.273,0.21c-0.476,1.268-1.208,2.313-2.194,3.135
		c-0.987,0.822-1.992,1.233-3.014,1.233c-0.7,0-1.267-0.229-1.701-0.688C44.697,22.629,44.48,21.97,44.48,21.108z"/>
	<path fill="#545454" d="M51.263,21.402c0-0.546,0.147-1.281,0.441-2.205s0.686-1.771,1.176-2.541
		c0.49-0.77,0.958-1.155,1.407-1.155c0.308,0,0.462,0.154,0.462,0.464c0,0.168-0.182,0.555-0.546,1.158
		c-0.364,0.604-0.728,1.288-1.092,2.054c-0.364,0.766-0.546,1.436-0.546,2.012c0,0.491,0.081,0.825,0.242,1
		c0.161,0.176,0.423,0.264,0.788,0.264c1.092,0,2.17-1.073,3.234-3.221l0.189,0.211c-0.392,1.171-0.97,2.085-1.732,2.74
		c-0.763,0.655-1.564,0.983-2.404,0.983c-0.519,0-0.917-0.165-1.197-0.493C51.402,22.344,51.263,21.92,51.263,21.402z
		 M54.539,12.855c0-0.28,0.168-0.532,0.504-0.757c0.336-0.224,0.679-0.336,1.029-0.336c0.462,0,0.693,0.21,0.693,0.631
		c0,0.279-0.144,0.542-0.431,0.787s-0.598,0.367-0.934,0.367C54.826,13.548,54.539,13.317,54.539,12.855z"/>
	<path fill="#545454" d="M55.631,22.473c0-0.042,0.123-0.37,0.367-0.986c0.245-0.616,0.494-1.334,0.746-2.152
		c0.252-0.819,0.378-1.495,0.378-2.027c0.266-0.294,0.588-0.44,0.966-0.44c0.378,0,0.567,0.182,0.567,0.546
		c0,0.477-0.224,1.4-0.672,2.772c1.609-2.464,3.066-3.696,4.368-3.696c0.497,0,0.877,0.186,1.139,0.557s0.394,0.815,0.394,1.333
		c0,0.462-0.14,1.05-0.42,1.765c-0.28,0.714-0.42,1.231-0.42,1.554c0,0.532,0.205,0.798,0.614,0.798
		c0.868,0,1.848-1.092,2.939-3.276l0.231,0.273c-1.008,2.366-2.215,3.549-3.621,3.549c-0.475,0-0.838-0.123-1.089-0.367
		c-0.251-0.245-0.377-0.57-0.377-0.977c0-0.28,0.102-0.753,0.305-1.418c0.203-0.664,0.304-1.165,0.304-1.501
		c0-0.686-0.28-1.029-0.84-1.029c-0.336,0-0.697,0.133-1.082,0.399c-0.385,0.266-0.725,0.553-1.019,0.86
		c-0.294,0.309-0.641,0.756-1.04,1.345c-0.399,0.588-0.683,1.021-0.851,1.302l-0.777,1.281
		C56.226,22.936,55.855,22.781,55.631,22.473z"/>
	<path fill="#545454" d="M65.795,27.301c0-0.281,0.052-0.548,0.156-0.801c0.105-0.254,0.284-0.5,0.536-0.738
		c0.252-0.239,0.473-0.443,0.661-0.611c0.189-0.169,0.494-0.366,0.914-0.591l0.882-0.485c0.168-0.099,0.483-0.26,0.944-0.484
		c0.393-0.992,0.75-2.129,1.072-3.411c-1.246,1.754-2.388,2.631-3.424,2.631c-0.49,0-0.875-0.18-1.154-0.538
		c-0.28-0.358-0.42-0.836-0.42-1.432c0-0.936,0.305-1.839,0.913-2.711c0.608-0.871,1.341-1.556,2.194-2.052s1.666-0.744,2.436-0.744
		c0.756,0,1.135,0.225,1.135,0.672c0,0.227-0.084,0.368-0.252,0.425c-0.154-0.213-0.435-0.319-0.84-0.319
		c-1.037,0-1.999,0.561-2.889,1.683c-0.889,1.123-1.333,2.174-1.333,3.153c0,0.696,0.245,1.044,0.735,1.044
		c0.378,0,0.851-0.263,1.418-0.788c0.566-0.525,1.13-1.2,1.689-2.024l0.252-1.129c0.154-0.725,0.512-1.087,1.071-1.087
		c0.126,0,0.272,0.021,0.441,0.064c0,0.377-0.154,1.135-0.462,2.273c-0.309,1.139-0.693,2.294-1.155,3.468
		c0.728-0.346,1.403-0.826,2.026-1.441s1.088-1.303,1.396-2.063l0.273,0.214c-0.295,0.844-0.822,1.612-1.586,2.304
		s-1.543,1.225-2.342,1.598c-1.414,3.415-2.776,5.122-4.087,5.122c-0.332,0-0.616-0.1-0.852-0.3S65.795,27.7,65.795,27.301z
		 M66.445,27.111c0,0.225,0.045,0.403,0.133,0.538c0.09,0.133,0.209,0.199,0.359,0.199c0.322,0,0.725-0.306,1.207-0.917
		c0.483-0.611,0.984-1.536,1.502-2.772c-1.021,0.52-1.811,1.005-2.367,1.455C66.723,26.063,66.445,26.563,66.445,27.111z"/>
	<path fill="#545454" d="M79.695,20.688c0-0.994,0.273-1.712,0.817-2.153c0.545-0.44,1.167-0.661,1.864-0.661
		c-0.766,0.84-1.148,1.778-1.148,2.814c0,0.84,0.274,1.54,0.822,2.1s1.341,0.84,2.379,0.84c1.037,0,1.949-0.272,2.737-0.818
		c0.787-0.547,1.181-1.295,1.181-2.247c0-0.658-0.221-1.25-0.664-1.774c-0.443-0.525-0.98-0.977-1.613-1.354l-1.877-1.113
		c-0.619-0.378-1.145-0.837-1.578-1.376c-0.435-0.538-0.651-1.151-0.651-1.837c0-0.813,0.237-1.642,0.714-2.489
		c0.476-0.847,1.186-1.578,2.131-2.194c0.944-0.615,1.99-0.924,3.139-0.924c1.471,0,2.207,0.7,2.207,2.101
		c0,0.7-0.168,1.483-0.504,2.352s-0.707,1.624-1.113,2.268c-0.463-0.098-0.693-0.398-0.693-0.902c0-0.392,0.207-1.124,0.619-2.194
		c0.413-1.071,0.62-1.81,0.62-2.216c0-0.602-0.394-0.903-1.179-0.903c-1.236,0-2.318,0.525-3.247,1.575
		c-0.928,1.05-1.392,2.065-1.392,3.045c0,0.574,0.219,1.089,0.654,1.544s0.963,0.851,1.581,1.187l1.835,1.07
		c0.618,0.364,1.145,0.851,1.578,1.46c0.435,0.608,0.652,1.306,0.652,2.089c0,1.358-0.563,2.443-1.686,3.256
		c-1.124,0.812-2.396,1.218-3.814,1.218c-1.227,0-2.262-0.325-3.105-0.977S79.695,21.893,79.695,20.688z"/>
	<path fill="#545454" d="M90.973,21.108c0-1.387,0.494-2.664,1.48-3.833c0.987-1.169,2.027-1.753,3.119-1.753
		c0.531,0,0.914,0.15,1.145,0.451s0.346,0.669,0.346,1.103c0,0.42-0.094,0.78-0.283,1.081c-0.188,0.302-0.444,0.452-0.766,0.452
		c-0.238,0-0.441-0.105-0.609-0.315c0.21-0.098,0.392-0.318,0.546-0.661c0.153-0.343,0.231-0.676,0.231-0.998
		c0-0.35-0.154-0.524-0.463-0.524c-0.728,0-1.484,0.595-2.268,1.785c-0.784,1.189-1.176,2.31-1.176,3.359
		c0,1.162,0.511,1.743,1.533,1.743c0.854,0,1.697-0.35,2.53-1.05s1.474-1.617,1.921-2.751l0.273,0.21
		c-0.477,1.268-1.207,2.313-2.194,3.135s-1.992,1.233-3.014,1.233c-0.7,0-1.267-0.229-1.701-0.688
		C91.189,22.629,90.973,21.97,90.973,21.108z"/>
	<path fill="#545454" d="M97.904,19.932c0.672-1.302,1.239-2.632,1.701-3.989c-0.155-0.14-0.232-0.308-0.232-0.504
		c0-0.378,0.107-0.711,0.325-0.998c0.217-0.286,0.402-0.431,0.557-0.431c0.196,0,0.294,0.168,0.294,0.504
		c0,0.057-0.024,0.193-0.074,0.41c-0.049,0.217-0.072,0.34-0.072,0.367c0,0.168,0.11,0.347,0.332,0.535
		c0.223,0.189,0.465,0.368,0.729,0.536s0.51,0.417,0.738,0.745c0.229,0.329,0.343,0.697,0.343,1.103
		c0,0.462-0.179,1.103-0.536,1.922c-0.356,0.818-0.535,1.361-0.535,1.627c0,0.42,0.215,0.63,0.643,0.63
		c0.615,0,1.291-0.35,2.026-1.05c0.735-0.699,1.249-1.393,1.544-2.079l0.273,0.21c-0.435,0.967-1.064,1.824-1.891,2.573
		c-0.826,0.748-1.662,1.123-2.51,1.123c-0.477,0-0.852-0.13-1.125-0.389s-0.41-0.591-0.41-0.997c0-0.42,0.193-1.089,0.578-2.006
		s0.577-1.557,0.577-1.921c0-0.141-0.021-0.276-0.063-0.41c-0.041-0.133-0.08-0.237-0.115-0.314s-0.107-0.165-0.22-0.263
		l-0.231-0.21c-0.041-0.042-0.136-0.112-0.283-0.21c-0.146-0.098-0.234-0.161-0.266-0.189c-0.684,1.681-1.318,3.024-1.906,4.032
		L97.904,19.932z"/>
	<path fill="#545454" d="M105.063,21.402c0-0.546,0.147-1.281,0.44-2.205c0.295-0.924,0.687-1.771,1.177-2.541
		c0.489-0.77,0.958-1.155,1.407-1.155c0.307,0,0.461,0.154,0.461,0.464c0,0.168-0.182,0.555-0.545,1.158
		c-0.365,0.604-0.729,1.288-1.092,2.054c-0.365,0.766-0.547,1.436-0.547,2.012c0,0.491,0.08,0.825,0.242,1
		c0.16,0.176,0.423,0.264,0.787,0.264c1.092,0,2.17-1.073,3.234-3.221l0.188,0.211c-0.392,1.171-0.97,2.085-1.732,2.74
		s-1.564,0.983-2.404,0.983c-0.519,0-0.917-0.165-1.197-0.493C105.203,22.344,105.063,21.92,105.063,21.402z M108.34,12.855
		c0-0.28,0.168-0.532,0.504-0.757c0.336-0.224,0.679-0.336,1.029-0.336c0.461,0,0.692,0.21,0.692,0.631
		c0,0.279-0.144,0.542-0.431,0.787s-0.598,0.367-0.934,0.367C108.627,13.548,108.34,13.317,108.34,12.855z"/>
	<path fill="#545454" d="M109.117,25.119c0.461-1.344,0.832-2.705,1.112-4.085c0.28-1.378,0.573-3.342,0.882-5.89
		c0.014-0.141,0.045-0.234,0.095-0.284c0.049-0.049,0.15-0.073,0.304-0.073c0.337,0,0.589,0.092,0.757,0.274s0.252,0.403,0.252,0.66
		c0,0.396-0.161,1.353-0.483,2.866c0.434-0.851,0.963-1.585,1.586-2.203c0.623-0.617,1.305-0.926,2.047-0.926
		c0.616,0,1.124,0.225,1.523,0.674c0.398,0.448,0.598,1.036,0.598,1.763c0,1.208-0.486,2.393-1.459,3.552
		c-0.973,1.16-2.139,1.74-3.496,1.74c-0.351,0-0.641-0.041-0.872-0.121s-0.347-0.172-0.347-0.273c0-0.073,0.176-0.109,0.525-0.109
		c1.092,0,2.079-0.49,2.961-1.471c0.882-0.979,1.322-2.022,1.322-3.129c0-0.476-0.102-0.864-0.304-1.165
		c-0.203-0.301-0.501-0.452-0.893-0.452c-0.658,0-1.319,0.371-1.984,1.113s-1.165,1.498-1.501,2.268
		c-1.232,5.225-2.094,8.073-2.584,8.548c-0.07,0.069-0.154,0.104-0.252,0.104c-0.154,0-0.308-0.119-0.462-0.356
		c-0.14-0.21-0.202-0.351-0.188-0.421c0-0.111,0.031-0.272,0.094-0.482c0.063-0.21,0.183-0.543,0.357-0.998
		C108.883,25.787,109.019,25.413,109.117,25.119z"/>
	<path fill="#545454" d="M118.356,21.507c0-1.203,0.405-2.891,1.218-5.061c-0.336-0.056-0.588-0.112-0.756-0.168V15.9
		c0.504,0.056,0.813,0.084,0.924,0.084c0.616-1.597,1.277-2.979,1.984-4.147s1.264-1.754,1.67-1.754
		c0.111,0,0.213,0.042,0.305,0.126c0.091,0.084,0.137,0.196,0.137,0.336c0,0.21-0.137,0.574-0.41,1.092
		c-0.273,0.519-0.658,1.212-1.154,2.079c-0.498,0.868-0.907,1.646-1.229,2.331h0.776c1.162,0,2.163-0.042,3.003-0.126v0.378
		c-1.484,0.168-2.681,0.252-3.591,0.252c-0.042,0-0.077,0-0.104,0h-0.315c-0.771,1.751-1.155,3.27-1.155,4.558
		c0,0.63,0.092,1.07,0.273,1.322c0.182,0.253,0.482,0.379,0.902,0.379c0.715,0,1.422-0.318,2.121-0.956
		c0.7-0.637,1.323-1.516,1.869-2.636l0.273,0.21c-0.519,1.219-1.219,2.216-2.1,2.993c-0.883,0.776-1.807,1.165-2.772,1.165
		C118.979,23.586,118.356,22.894,118.356,21.507z"/>
</g>
</svg>
