<svg version="1.1" id="图层_1" x="0px" y="0px" width="500px" height="178.726px" viewBox="0 160.637 500 178.726" enable-background="new 0 160.637 500 178.726" xml:space="preserve" xmlns="http://www.w3.org/2000/svg" xmlns:xlink="http://www.w3.org/1999/xlink" xmlns:xml="http://www.w3.org/XML/1998/namespace">
  <g>
    <polygon fill="#404040" points="104.223,250.001 14.853,160.637 1.149,174.35 74.502,247.724 73.393,248.853 74.502,250.001
		0,324.531 14.853,339.363 	" class="color c1"/>
    <polygon fill="#404040" points="170.219,250.001 80.809,160.637 67.143,174.35 140.514,247.724 139.368,248.853 140.514,250.001
		65.975,324.531 80.809,339.363 	" class="color c1"/>
    <polygon fill="#404040" points="236.099,250.001 146.765,160.637 133.099,174.35 206.452,247.724 205.324,248.853 206.452,250.001
		131.913,324.531 146.765,339.363 	" class="color c1"/>
    <polygon fill="#404040" points="302.073,250.001 212.721,160.637 199.018,174.35 272.427,247.724 271.279,248.853 272.427,250.001
		197.869,324.531 212.721,339.363 	" class="color c1"/>
    <polygon fill="#404040" points="368.067,250.001 278.677,160.637 265.029,174.35 338.364,247.724 337.255,248.853 338.364,250.001
		263.825,324.531 278.677,339.363 	" class="color c1"/>
    <polygon fill="#404040" points="434.023,250.001 344.689,160.637 330.967,174.35 404.36,247.724 403.192,248.853 404.36,250.001
		329.8,324.531 344.689,339.363 	" class="color c1"/>
    <polygon fill="#404040" points="500,250.001 410.645,160.637 396.942,174.35 470.277,247.724 469.148,248.853 470.277,250.001
		395.795,324.531 410.645,339.363 	" class="color c1"/>
  </g>
</svg>