<svg version="1.1" id="图层_1" x="0px" y="0px" width="203.699px" height="58.051px" viewBox="-1.847 70.231 203.699 58.051" enable-background="new -1.847 70.231 203.699 58.051" xml:space="preserve" xmlns="http://www.w3.org/2000/svg" xmlns:xlink="http://www.w3.org/1999/xlink" xmlns:xml="http://www.w3.org/XML/1998/namespace">
  <path fill="#404040" d="M100,77.399c-2.563,1.708-4.482,3.63-5.765,5.764c-1.277,2.134-2.063,4.426-2.35,6.872
	c0.743,0.569,1.226,0.969,1.453,1.196c0.683,0.739,1.024,1.422,1.024,2.048c0,1.082-0.456,1.621-1.366,1.621
	c-0.626,0-1.206-0.354-1.747-1.066c-0.543-0.711-0.868-1.72-0.984-3.029c-0.685-0.514-1.878-0.769-3.587-0.769
	c-1.363,0-2.532,0.255-3.498,0.769c-1.878,1.194-2.96,2.761-3.241,4.695c3.241,0,6.315,1.565,9.215,4.696
	c2.393,2.619,3.588,5.804,3.588,9.561c0,4.78-2.105,8.622-6.317,11.525c-1.992,1.366-3.899,2.362-5.719,2.987
	c-2.563,0.854-5.663,1.281-9.306,1.281c-3.758,0-7.728-0.798-11.91-2.393c-4.184-1.592-8.352-4.067-12.508-7.424
	c-2.846,1.422-5.437,2.418-7.767,2.986c-2.334,0.568-4.439,0.854-6.317,0.854c-0.797,0-1.595-0.045-2.393-0.129
	c-0.796-0.084-1.393-0.155-1.794-0.213c-0.682,2.334-1.904,4.27-3.67,5.807c-2.446,2.162-5.719,3.243-9.817,3.243
	c-4.727,0-8.681-1.394-11.867-4.181c-3.472-3.019-5.204-7.117-5.204-12.295c0-5.977,2.334-10.586,6.998-13.831
	c4.214-2.902,9.676-4.353,16.392-4.353c5.294,0,10.527,0.883,15.708,2.645c6.09,2.108,12.689,5.777,19.806,11.014
	c1.99-1.138,4.566-2.19,7.728-3.159c3.159-0.967,5.761-1.452,7.811-1.452c3.132,0,5.634,0.399,7.515,1.196
	c2.954,1.252,4.435,3.301,4.435,6.148c0,2.047-1.189,3.728-3.581,5.034c-2.053,1.142-4.302,1.708-6.745,1.708
	c-3.644,0-7.085-0.566-10.331-1.708c-2.618-0.907-5.406-2.305-8.366-4.181l-4.692,2.816c3.751,2.959,7.608,5.394,11.564,7.299
	c3.954,1.908,7.528,2.859,10.714,2.859c2.791,0,5.318-0.328,7.6-0.982c2.275-0.651,4.294-1.691,6.061-3.115
	c3.247-2.561,4.865-6.09,4.865-10.585c0-3.359-1.482-6.247-4.438-8.664c-2.962-2.42-6.031-3.631-9.22-3.631
	c-0.4,0.058-0.713,0.085-0.938,0.085c0-1.59,0.381-3.03,1.152-4.31c0.769-1.281,1.775-2.333,3.03-3.158
	c1.252-0.825,2.814-1.237,4.695-1.237c1.535,0,2.959,0.314,4.27,0.938c0-3.13,1.221-6.544,3.669-10.244
	c2.053-2.903,4.098-5.805,6.148-8.709c2.043,2.904,4.097,5.806,6.144,8.709c2.445,3.7,3.674,7.114,3.674,10.244
	c1.31-0.624,2.728-0.938,4.268-0.938c1.876,0,3.443,0.413,4.695,1.237c1.252,0.825,2.262,1.877,3.033,3.158
	c0.764,1.28,1.145,2.72,1.145,4.31c-0.223,0-0.538-0.027-0.934-0.085c-3.19,0-6.26,1.211-9.221,3.631
	c-2.959,2.417-4.438,5.305-4.438,8.664c0,4.495,1.62,8.024,4.862,10.585c1.767,1.424,3.789,2.464,6.062,3.115
	c2.276,0.654,4.81,0.982,7.599,0.982c3.188,0,6.762-0.953,10.713-2.859c3.959-1.905,7.814-4.34,11.57-7.299l-4.691-2.816
	c-2.965,1.875-5.75,3.273-8.371,4.181c-3.241,1.142-6.688,1.708-10.326,1.708c-2.45,0-4.697-0.566-6.745-1.708
	c-2.394-1.307-3.586-2.987-3.586-5.034c0-2.848,1.479-4.896,4.44-6.148c1.873-0.795,4.381-1.196,7.512-1.196
	c2.048,0,4.652,0.485,7.81,1.452c3.157,0.969,5.734,2.021,7.729,3.159c7.111-5.237,13.718-8.906,19.809-11.014
	c5.178-1.762,10.408-2.645,15.705-2.645c6.716,0,12.178,1.451,16.395,4.353c4.664,3.245,6.998,7.854,6.998,13.831
	c0,5.18-1.74,9.277-5.207,12.295c-3.188,2.787-7.144,4.181-11.869,4.181c-4.099,0-7.371-1.081-9.819-3.243
	c-1.763-1.537-2.986-3.473-3.671-5.807c-0.396,0.058-0.995,0.129-1.791,0.213c-0.795,0.084-1.592,0.129-2.391,0.129
	c-1.879,0-3.98-0.284-6.314-0.854c-2.331-0.568-4.924-1.564-7.77-2.986c-4.156,3.356-8.322,5.832-12.511,7.424
	c-4.181,1.595-8.153,2.393-11.907,2.393c-3.641,0-6.746-0.428-9.308-1.281c-1.819-0.625-3.726-1.621-5.722-2.987
	c-4.207-2.903-6.313-6.745-6.313-11.525c0-3.757,1.194-6.942,3.586-9.561c2.902-3.131,5.974-4.696,9.222-4.696
	c-0.282-1.934-1.366-3.501-3.248-4.695c-0.963-0.514-2.135-0.769-3.498-0.769c-1.705,0-2.903,0.255-3.586,0.769
	c-0.116,1.309-0.44,2.318-0.982,3.029c-0.541,0.712-1.118,1.066-1.752,1.066c-0.909,0-1.359-0.539-1.359-1.621
	c0-0.626,0.336-1.309,1.022-2.048c0.229-0.227,0.711-0.627,1.448-1.196c-0.281-2.446-1.064-4.738-2.346-6.872
	C104.479,81.029,102.561,79.107,100,77.399z M52.959,109.245c-5.634-3.7-9.361-6.091-11.186-7.171
	c-3.867-2.277-7.284-3.899-10.243-4.866c-3.528-1.139-7.372-1.708-11.525-1.708c-5.974,0-10.729,1.224-14.255,3.67
	c-4.214,2.904-6.32,7.342-6.32,13.318c0,4.496,1.597,8.111,4.78,10.843c3.021,2.562,6.805,3.842,11.356,3.842
	c2.847,0,5.406-0.712,7.685-2.134c2.276-1.422,3.727-3.443,4.355-6.063c-1.711-0.17-3.448-0.939-5.209-2.305
	c-2.164-1.65-3.247-3.529-3.247-5.636c0-0.683,0.158-1.437,0.471-2.263c0.315-0.823,0.869-1.606,1.664-2.349
	c-1.31-0.737-3.013-1.108-5.119-1.108c-2.334,0-4.217,0.684-5.634,2.051c-1.427,1.365-2.135,2.816-2.135,4.354
	c0,1.536,0.396,2.59,1.193,3.158c0.456,0.342,1.082,0.512,1.876,0.512c0.687,0,1.028,0.398,1.028,1.196
	c0,0.91-0.482,1.364-1.453,1.364c-2.679,0-4.009-1.962-4.009-5.889c0-1.992,0.879-3.785,2.646-5.379
	c1.761-1.593,3.984-2.393,6.657-2.393c1.252,0,2.388,0.129,3.416,0.386c1.024,0.255,1.849,0.612,2.476,1.066
	c1.023-0.566,2.135-0.981,3.329-1.237c1.193-0.254,2.562-0.384,4.095-0.384c2.621,0,5.52,0.683,8.711,2.05
	c2.443,1.023,5.748,2.932,9.901,5.719L52.959,109.245z M151.732,111.891c4.154-2.787,7.457-4.695,9.904-5.719
	c3.184-1.367,6.09-2.05,8.703-2.05c1.54,0,2.904,0.13,4.104,0.384c1.192,0.256,2.3,0.671,3.328,1.237
	c0.625-0.454,1.446-0.812,2.471-1.066c1.027-0.257,2.166-0.386,3.416-0.386c2.679,0,4.896,0.8,6.662,2.393
	c1.763,1.594,2.646,3.387,2.646,5.379c0,3.926-1.337,5.889-4.011,5.889c-0.969,0-1.453-0.454-1.453-1.364
	c0-0.798,0.342-1.196,1.023-1.196c0.799,0,1.427-0.168,1.877-0.512c0.802-0.568,1.199-1.622,1.199-3.158
	c0-1.537-0.711-2.988-2.136-4.354c-1.424-1.367-3.3-2.051-5.634-2.051c-2.105,0-3.816,0.371-5.124,1.108
	c0.795,0.742,1.354,1.525,1.664,2.349c0.312,0.826,0.469,1.58,0.469,2.263c0,2.106-1.08,3.983-3.239,5.636
	c-1.767,1.364-3.504,2.135-5.211,2.305c0.629,2.618,2.082,4.641,4.353,6.063c2.274,1.422,4.841,2.134,7.687,2.134
	c4.553,0,8.338-1.282,11.354-3.842c3.189-2.731,4.783-6.347,4.783-10.843c0-5.977-2.104-10.414-6.323-13.318
	c-3.525-2.446-8.272-3.67-14.253-3.67c-4.153,0-7.994,0.569-11.524,1.708c-2.96,0.967-6.376,2.589-10.243,4.866
	c-1.82,1.08-5.553,3.471-11.186,7.171L151.732,111.891z M27.861,117.95c0.114-0.908,0.169-1.535,0.169-1.875
	c0-2.446-0.798-4.581-2.392-6.403c-0.854-0.967-1.905-1.82-3.159-2.561c-0.51,0.455-0.937,1.021-1.276,1.707
	c-0.345,0.684-0.515,1.479-0.515,2.389c0,1.993,0.912,3.645,2.732,4.953C24.731,117.128,26.211,117.725,27.861,117.95z
	 M176.573,116.16c1.823-1.309,2.731-2.96,2.731-4.953c0-0.909-0.17-1.706-0.51-2.389c-0.342-0.685-0.771-1.252-1.281-1.707
	c-1.252,0.74-2.305,1.594-3.158,2.561c-1.597,1.822-2.393,3.957-2.393,6.403c0,0.341,0.059,0.968,0.17,1.875
	C173.788,117.725,175.264,117.128,176.573,116.16z M44.766,114.195c-2.904-2.334-5.292-4.127-7.175-5.379
	c-3.525-2.393-6.77-3.586-9.729-3.586c-1.194,0-2.094,0.101-2.688,0.301c-0.6,0.199-1.185,0.498-1.752,0.894
	c3.702,2.28,5.552,5.581,5.552,9.905c0,0.798-0.029,1.395-0.088,1.794c0.567,0.056,1.082,0.099,1.538,0.126
	c0.451,0.029,0.854,0.043,1.193,0.043c1.932,0,3.842-0.271,5.722-0.811C39.216,116.943,41.69,115.848,44.766,114.195z
	 M162.661,117.482c1.876,0.541,3.784,0.812,5.721,0.812c0.335,0,0.738-0.013,1.194-0.043c0.456-0.026,0.966-0.069,1.533-0.126
	c-0.053-0.4-0.082-0.996-0.082-1.794c0-4.324,1.849-7.625,5.546-9.905c-0.567-0.395-1.154-0.693-1.747-0.894
	c-0.602-0.2-1.494-0.3-2.692-0.3c-2.96,0-6.202,1.192-9.731,3.586c-1.875,1.252-4.264,3.045-7.17,5.377
	C158.305,115.848,160.783,116.943,162.661,117.482z M83.181,109.501c0-1.649-0.799-2.96-2.388-3.929
	c-1.596-0.967-3.843-1.451-6.745-1.451c-3.021,0-6.008,0.542-8.968,1.622c-1.876,0.682-3.838,1.651-5.891,2.901
	c2.393,1.767,4.813,3.188,7.26,4.27c3.071,1.368,5.861,2.049,8.368,2.049c2.613,0,4.665-0.454,6.146-1.365
	C82.442,112.689,83.181,111.32,83.181,109.501z M119.036,113.6c1.479,0.91,3.526,1.364,6.144,1.364c2.51,0,5.295-0.682,8.368-2.049
	c2.448-1.081,4.865-2.503,7.257-4.269c-2.053-1.25-4.013-2.221-5.891-2.902c-2.96-1.079-5.949-1.622-8.969-1.622
	c-2.898,0-5.147,0.483-6.744,1.451c-1.592,0.968-2.389,2.278-2.389,3.929C116.813,111.32,117.557,112.689,119.036,113.6z" class="color c1"/>
</svg>