<svg version="1.1" id="图层_1" x="0px" y="0px" width="500px" height="182.441px" viewBox="0 158.78 500 182.441" enable-background="new 0 158.78 500 182.441" xml:space="preserve" xmlns="http://www.w3.org/2000/svg" xmlns:xlink="http://www.w3.org/1999/xlink" xmlns:xml="http://www.w3.org/XML/1998/namespace">
  <g>
    <polygon fill="#404040" points="18.608,341.221 0,332.907 77.858,158.78 96.463,167.104 	" class="color c1"/>
    <polygon fill="#404040" points="85.861,341.221 67.266,332.907 145.124,158.78 163.716,167.104 	" class="color c1"/>
    <polygon fill="#404040" points="153.113,341.221 134.518,332.907 212.373,158.78 230.968,167.104 	" class="color c1"/>
    <polygon fill="#404040" points="220.375,341.221 201.771,332.907 279.625,158.78 298.232,167.104 	" class="color c1"/>
    <polygon fill="#404040" points="287.641,341.221 269.02,332.907 346.878,158.78 365.495,167.104 	" class="color c1"/>
    <polygon fill="#404040" points="354.893,341.221 336.271,332.907 414.131,158.78 432.747,167.104 	" class="color c1"/>
    <polygon fill="#404040" points="422.142,341.221 403.537,332.907 481.392,158.78 500,167.104 	" class="color c1"/>
  </g>
</svg>