<svg version="1.1" id="图层_1" x="0px" y="0px" width="200.001px" height="46.128px" viewBox="0 76.938 200.001 46.128" enable-background="new 0 76.938 200.001 46.128" xml:space="preserve" xmlns="http://www.w3.org/2000/svg" xmlns:xlink="http://www.w3.org/1999/xlink" xmlns:xml="http://www.w3.org/XML/1998/namespace">
  <g>
    <g>
      <g>
        <g>
          <path fill="#404040" d="M79.586,97.641c0,0,4.468-5.914,13.483-1.802c9.015,4.11,7.672,27.722-11.465,26.757
					c-19.136-0.961-45.196-44.425-65.005-39.904c-19.811,4.518-11.729,20.19-5.77,18.558c0,0-2.984-6.153,2.788-8.943
					c5.77-2.788,10.002,3.367,8.753,6.059c0,0,6.346-7.02,14.518-0.962c0,0,3.391,1.825,2.379,5.577c0,0-0.598,1.443-2.189,0.865
					c-1.583-0.572-1.225-2.328-0.19-2.451c1.035-0.117-1.103-2.261-3.75-0.338c-2.644,1.924-10.481,9.137-20.385,7.887
					c-9.905-1.25-16.25-11.636-10.674-22.023c5.576-10.384,22.118-15.671,40.196-0.67c18.077,15.001,29.617,34.712,40.003,31.635
					c10.383-3.074,12.885-13.078,8.655-15.961c-4.232-2.884-0.483,8.752-7.309,8.559C76.797,110.288,75.737,101.055,79.586,97.641z" class="color c1"/>
        </g>
        <path fill="#404040" d="M82.084,122.691c0,0-6.155,1.632-14.233-1.924c-8.076-3.558-13.846-3.941-15.002-0.481
				c-1.149,3.464-3.171-9.519,7.984-9.136c0,0,2.5-0.289,2.694,0c0.189,0.291,14.905,11.06,20.001,10.386
				C88.624,120.865,84.104,122.307,82.084,122.691z" class="color c1"/>
        <path fill="#404040" d="M38.09,90.765c0,0-5.243-3.076-9.376-1.009c-4.133,2.069,0.241-6.539,7.168-4.23
				C42.802,87.834,38.09,90.765,38.09,90.765z" class="color c1"/>
        <path fill="#404040" d="M64.871,107.786c0,0-4.711-9.229-1.058-16.157c3.654-6.923,14.041-2.307,12.984,0.772
				c0,0,3.076,1.248,1.92-3.653c-1.15-4.907-10.867-12.021-20.192-5.291c0,0-5.288-0.479-6.636,3.945
				C50.54,91.826,48.716,99.036,64.871,107.786z" class="color c1"/>
      </g>
    </g>
    <g>
      <g>
        <g>
          <path fill="#404040" d="M120.416,97.641c0,0-4.473-5.914-13.489-1.802c-9.014,4.11-7.672,27.722,11.468,26.757
					c19.138-0.961,45.197-44.425,65.004-39.904c19.812,4.518,11.731,20.19,5.771,18.558c0,0,2.979-6.153-2.788-8.943
					c-5.77-2.788-10.001,3.367-8.75,6.059c0,0-6.344-7.02-14.518-0.962c0,0-3.391,1.825-2.381,5.577c0,0,0.601,1.443,2.186,0.865
					c1.588-0.572,1.229-2.328,0.195-2.451c-1.035-0.117,1.104-2.261,3.748-0.338c2.646,1.924,10.482,9.137,20.385,7.887
					c9.906-1.25,16.253-11.636,10.676-22.023c-5.576-10.384-22.113-15.671-40.197-0.67c-18.078,15.001-29.615,34.712-40.002,31.635
					c-10.387-3.074-12.887-13.078-8.654-15.961c4.229-2.884,0.479,8.752,7.309,8.559
					C123.203,110.288,124.262,101.055,120.416,97.641z" class="color c1"/>
        </g>
        <path fill="#404040" d="M117.915,122.691c0,0,6.155,1.632,14.231-1.924c8.078-3.558,13.848-3.941,15.002-0.481
				c1.154,3.464,3.172-9.519-7.983-9.136c0,0-2.498-0.289-2.69,0c-0.193,0.291-14.908,11.06-20.002,10.386
				C111.376,120.865,115.896,122.307,117.915,122.691z" class="color c1"/>
        <path fill="#404040" d="M161.91,90.765c0,0,5.24-3.076,9.375-1.009c4.132,2.069-0.239-6.539-7.163-4.23
				C157.193,87.834,161.91,90.765,161.91,90.765z" class="color c1"/>
        <path fill="#404040" d="M135.126,107.786c0,0,4.713-9.229,1.058-16.157c-3.652-6.923-14.035-2.307-12.98,0.772
				c0,0-3.076,1.248-1.924-3.653c1.154-4.907,10.867-12.021,20.193-5.291c0,0,5.293-0.479,6.637,3.945
				C149.454,91.826,151.283,99.036,135.126,107.786z" class="color c1"/>
      </g>
    </g>
  </g>
</svg>