<svg version="1.1" id="图层_1" x="0px" y="0px" width="499.999px" height="187.821px" viewBox="0 156.09 499.999 187.821" enable-background="new 0 156.09 499.999 187.821" xml:space="preserve" xmlns="http://www.w3.org/2000/svg" xmlns:xlink="http://www.w3.org/1999/xlink" xmlns:xml="http://www.w3.org/XML/1998/namespace">
  <g>
    <path fill="#404040" d="M262.63,241.994c42.7,25.078,88.906,51.527,133.771,59.287c43.508,7.521,99.213-11.147,89.687-60.808
		c-3.032-15.813-16.646-24.162-30.403-22.797c-21.319,2.107-18.243,31.665-45.603,28.879c-9.102-0.923-18.899-6.167-19.763-19.761
		c-1.354-21.308,18.13-29.409,30.402-33.442c61.506-20.232,97.375,50.412,69.927,97.287c-14.702,25.104-48.904,52.036-86.647,53.207
		c-54.297,1.682-104.755-29.43-158.093-56.244c-48.198-24.235-98.137-59.976-147.456-68.408
		c-42.695-7.302-78.229,10.654-82.084,42.563c-2.417,20,5.212,40.093,27.363,39.524c19.121-0.491,26.406-34.637,53.203-27.363
		c4.941,1.34,12.476,7.993,13.684,16.721c2.798,20.313-17.668,35.784-39.526,38.004c-44.294,4.502-77.858-34.69-69.926-74.485
		c9.766-48.986,68.247-77.941,124.653-71.447C174.661,188.337,219.664,216.767,262.63,241.994z" class="color c1"/>
    <path fill="#404040" d="M444.455,255.495c-63.359,17.673-120.388-19.099-170.803-48.247c-54.27-31.37-118.18-72.839-181.241-37.81
		c54.36-9.678,109.389,23.54,157.771,49.548c42.511,22.851,86.535,51.538,130.388,56.066
		C410.725,278.161,426.357,269.34,444.455,255.495z" class="color c1"/>
  </g>
</svg>