<svg version="1.1" id="图层_1" x="0px" y="0px" width="500px" height="234.313px" viewBox="0 132.843 500 234.313" enable-background="new 0 132.843 500 234.313" xml:space="preserve" xmlns="http://www.w3.org/2000/svg" xmlns:xlink="http://www.w3.org/1999/xlink" xmlns:xml="http://www.w3.org/XML/1998/namespace">
  <path fill="#404040" d="M472.646,228.893c-45.763-20.894-68.473,9.106-68.473,9.106c-19.497,17.373-14.121,64.233,20.488,65.19
	c34.712,1.035,15.703-58.082,37.147-43.434c21.505,14.645,8.779,65.444-43.882,81.09c-26.646,7.891-54.766-13.717-87.881-46.832
	c-3.291-7.344-23.018-54.214-5.952-86.522c18.589-35.195,71.294-11.704,65.957,3.94c0,0,15.563,6.309,9.78-18.584
	c-5.967-24.937-55.225-61.045-102.554-26.821c0,0-26.904-2.495-33.74,19.941c-2.969,9.688-6.362,22.002-2.72,36.426
	c-14.419-14.316-29.731-28.662-46.108-42.246c-91.797-76.221-175.83-49.316-204.15,3.408
	c-28.32,52.764,3.892,105.493,54.229,111.841c50.293,6.353,90.103-30.244,103.569-40.024c13.354-9.761,24.214,1.079,19.028,1.675
	c-5.273,0.631-7.09,9.521,0.972,12.446c8.062,2.983,11.133-4.341,11.133-4.341c5.103-19.111-12.104-28.345-12.104-28.345
	c-41.509-30.776-73.809,4.912-73.809,4.912c6.392-13.672-15.156-44.956-44.429-30.801c-29.316,14.189-14.16,45.387-14.16,45.387
	c-30.269,8.383-71.245-71.25,29.312-94.209c22.319-5.098,46.201,1.812,70.923,15.698c-17.52,8.076-24.155,27.583-9.346,20.215
	c17.163-8.633,38.115,0.298,45.132,3.809c39.355,30.107,79.878,71.274,118.828,104.707c-0.547,0.055-0.894,0.094-0.894,0.094
	c-56.621-1.93-46.401,63.984-40.513,46.396c5.858-17.607,35.137-15.646,76.177,2.476c41.021,18.075,72.261,9.756,72.261,9.756
	c0.542-0.103,1.128-0.226,1.733-0.356C511.801,366.152,517.807,249.439,472.646,228.893z M324.247,288.116
	c0.063,0.077,0.122,0.151,0.186,0.229c-0.059-0.063-0.122-0.128-0.186-0.187V288.116z" class="color c1"/>
</svg>