<svg version="1.1" id="图层_1" x="0px" y="0px" width="200.003px" height="55.389px" viewBox="0 72.305 200.003 55.389" enable-background="new 0 72.305 200.003 55.389" xml:space="preserve" xmlns="http://www.w3.org/2000/svg" xmlns:xlink="http://www.w3.org/1999/xlink" xmlns:xml="http://www.w3.org/XML/1998/namespace">
  <path fill="#404040" d="M160.654,72.599c-1.107,0.054-9.563-0.099-9.563-0.099s-23.151-0.523-28.028,0.142
	c-16.517,2.249-20.547,10.602-21.467,16.63c-0.912-6.136-4.927-14.664-21.56-16.53c0,0-39.912-0.104-40.691-0.143
	C16.498,71.507,0,79.47,0,93.834c0,14.364,8.639,15.925,11.969,15.925c3.332,0,10.93-0.938,10.723-9.681
	c-0.178-7.492-6.037-7.911-7.703-7.911c-1.664,0-7.285-0.208-7.285,6.038s7.492,5.204,7.492,5.204
	c-3.121,5.827-10.926-1.3-10.822-8.535c0.104-7.286,7.285-18.944,35.389-17.487c1.486,0.077,11.379-0.159,11.555-0.154
	c0-0.003,24.895,0.431,24.895,0.431s23.061-1.996,23.414,17.22c0.229,12.527-10.203,14.437-14.008,13.892
	c-3.803-0.545-10.607-3.369-9.336-12.247c1.273-8.875,9.061-7.759,9.939-7.448c0.883,0.311,6.6,1.686,5.77,7.482
	c-0.832,5.794-6.781,3.464-6.781,3.464s-4.037-1.503-2.223-6.419c0,0-5,9.08,3.875,10.354c5.797,0.83,7.895-3.491,8.439-7.294
	c0.545-3.804-0.408-10.041-9.465-11.339s-12.838,5.739-13.592,10.992c-0.754,5.253,0.77,13.974,13.086,15.74
	c5.846,0.838,8.887-1.635,10.186-3.187c-1.432,2.571-3.479,9.302,6.15,18.819c9.592-9.563,7.51-16.293,6.067-18.856
	c1.304,1.546,4.355,4.009,10.199,3.146c12.31-1.817,13.795-10.545,13.021-15.795c-0.774-5.249-4.586-12.27-13.638-10.933
	c-9.051,1.337-9.979,7.577-9.418,11.378c0.563,3.801,2.679,8.113,8.472,7.259c8.868-1.311,3.834-10.37,3.834-10.37
	c1.832,4.909-2.197,6.428-2.197,6.428s-5.94,2.357-6.797-3.436c-0.854-5.793,4.856-7.191,5.735-7.506
	c0.88-0.314,8.662-1.463,9.976,7.406c1.31,8.87-5.483,11.724-9.287,12.285c-3.801,0.561-14.241-1.306-14.063-13.832
	c0.272-19.217,23.338-17.318,23.338-17.318c0.988-0.063,30.287-0.003,33.334-0.161c28.104-1.458,35.283,10.201,35.391,17.487
	c0.1,7.235-7.703,14.362-10.826,8.535c0,0,7.492,1.041,7.492-5.204s-5.619-6.038-7.285-6.038s-7.522,0.419-7.703,7.911
	c-0.207,8.742,7.392,9.681,10.724,9.681c3.329,0,11.969-1.562,11.969-15.925C200,79.47,183.502,71.507,160.654,72.599z
	 M106.197,112.667c-0.637,4.04-4.543,10.067-4.543,10.067s-3.93-6.002-4.584-10.039c-0.576-3.564,3.555-7.635,4.53-11.896
	C102.6,105.063,106.758,109.104,106.197,112.667z" class="color c1"/>
</svg>