<svg version="1.1" id="图层_1" x="0px" y="0px" width="500px" height="285.81px" viewBox="0 107.095 500 285.81" enable-background="new 0 107.095 500 285.81" xml:space="preserve" xmlns="http://www.w3.org/2000/svg" xmlns:xlink="http://www.w3.org/1999/xlink" xmlns:xml="http://www.w3.org/XML/1998/namespace">
  <g>
    <path fill="#404040" d="M38.953,107.095c79.134,0,128.943,27.123,149.474,81.348c7.36-12.654,15.933-22.118,25.648-28.443
		c9.742-6.319,20.665-9.469,32.765-9.469c18.063,0,32.982,6.844,44.751,20.525c11.742,13.693,17.627,31.126,17.627,52.366
		c0,10.342-1.756,21.24-5.25,32.625l-15.799-4.982c1.229-5.251,1.834-9.851,1.834-13.684c0-12.1-3.723-22.283-11.194-30.545
		c-7.447-8.241-16.611-12.372-27.479-12.372c-11.773,0-22.066,5.005-30.93,14.998c-8.873,10.019-13.276,21.677-13.276,35.01
		c0,25.262,13.197,48.25,39.605,68.945c26.386,20.694,55.646,31.038,87.753,31.038c32.631,0,59.723-10.949,81.324-32.872
		c21.563-21.924,32.352-49.463,32.352-82.633c0-30.71-9.335-55.402-28.029-74.068c-18.669-18.696-44.508-29.178-77.492-31.449
		v-16.338h5.015c43.136,0,79.318,13.024,108.527,39.078C485.383,172.237,500,204.483,500,242.909
		c0,35.774-13.248,65.692-39.744,89.724c-26.496,24.029-59.561,36.047-99.195,36.047c-24.743,0-51.68-6.104-80.801-18.279
		c-29.121-12.183-54.991-28.224-77.626-48.039l-10.785-9.197c-26.306-23.156-50.883-34.758-73.68-34.758
		c-14.044,0-25.79,4.27-35.253,12.753c-9.474,8.487-14.209,19.021-14.209,31.644c0,15.902,6.268,29.502,18.802,40.785
		c12.539,11.299,27.514,16.939,44.867,16.939c21.918,0,40.615-9.664,56.052-28.938l14.207,11.031
		c-23.678,33.533-54.716,50.283-93.143,50.283c-26.334,0-48.422-7.69-66.328-23.043c-17.9-15.336-26.82-34.243-26.82-56.717
		c0-20.854,6.787-37.826,20.39-50.912c13.574-13.061,32.844-21.081,57.755-24.086c-14.751-5.774-25.345-12.15-31.832-19.051
		c-6.518-6.952-12.999-19-19.493-36.187l-5.007-12.917C26.414,138.949,13.688,123.433,0,123.433v-16.338H38.953z M179.236,243.675
		c0-75.769-40.269-115.782-120.797-119.995c12.105,9.469,22.28,24.138,30.521,43.954l3.694,8.437
		c7.72,18.225,17.574,33.063,29.592,44.448c12.01,11.411,30.928,24.226,56.709,38.432L179.236,243.675z" class="color c1"/>
  </g>
</svg>