<svg version="1.1" id="图层_1" x="0px" y="0px" width="200px" height="200px" viewBox="0 0 200 200" enable-background="new 0 0 200 200" xml:space="preserve" xmlns:xml="http://www.w3.org/XML/1998/namespace" xmlns="http://www.w3.org/2000/svg" xmlns:xlink="http://www.w3.org/1999/xlink">
  <path fill="#404040" d="M199.043,100.281c-0.217-0.722-0.448-1.377-0.705-2.003c-2.466-6.002-6.751-9.769-9.143-11.51
	c-0.785-1.283-1.674-2.604-2.51-3.727c-0.426-0.576-0.833-1.102-1.205-1.572c-0.724-3.279-1.612-6.464-2.644-9.466
	c-1.393-4.058-3.116-8.064-5.134-11.937c0.231,0.177,0.463,0.361,0.693,0.549c1.755,4.206,3.638,7.826,5.757,11.069l0.06,0.088
	c0.275,0.413,0.549,0.821,0.838,1.214c1.732,2.464,3.931,4.781,6.723,7.084c2.488,2.043,4.706,3.435,5.806,4.083l0.751,0.442v-0.871
	c0-2.338-0.274-4.654-0.814-6.881c-0.538-2.249-1.645-5.583-3.864-8.708c-0.501-0.696-0.904-1.212-1.309-1.674
	c-4.065-4.631-8.969-6.851-12.4-7.901c-1.161-0.958-2.434-1.913-3.589-2.694c-0.588-0.408-1.142-0.772-1.647-1.095
	c-1.658-2.711-3.441-5.297-5.298-7.706l0.005-0.004l-0.305-0.392c-0.004-0.004-0.008-0.009-0.011-0.013l-0.295-0.378l-0.007,0.005
	c-2.545-3.232-5.36-6.329-8.4-9.224c0.279,0.093,0.552,0.187,0.813,0.283c2.848,3.221,5.646,5.913,8.537,8.209l-0.017,0.013
	l0.824,0.618l0.006-0.005l0.095,0.071c0.289,0.215,0.577,0.43,0.876,0.642c2.473,1.774,5.387,3.286,8.661,4.492
	c2.972,1.103,5.538,1.706,6.804,1.966l0.845,0.174l-0.272-0.819c-0.4-1.197-1.322-3.599-3.001-6.239
	c-1.156-1.822-3.107-4.394-5.951-6.564l0.013-0.009l-0.548-0.387c-0.027-0.02-0.056-0.04-0.083-0.06l-0.216-0.154l-0.002,0.002
	c-0.463-0.322-0.956-0.649-1.486-0.938c-5.484-3.133-10.971-3.555-14.309-3.448c-1.397-0.526-2.903-1.019-4.25-1.392
	c-0.677-0.191-1.312-0.354-1.886-0.493c-2.457-2.036-4.98-3.909-7.511-5.588l0.004-0.005l-0.357-0.234
	c-0.02-0.012-0.038-0.025-0.058-0.038l-0.415-0.272l-0.006,0.009c-3.474-2.242-7.148-4.263-10.963-6.012
	c0.284-0.002,0.576,0.001,0.867,0.009c3.972,2.249,7.685,3.953,11.352,5.206c0.494,0.168,0.999,0.326,1.505,0.482
	c2.908,0.882,6.068,1.359,9.666,1.457c0.417,0.011,0.826,0.017,1.225,0.017c1.954,0,3.923-0.123,5.851-0.364l0.872-0.109
	l-0.544-0.692c-0.99-1.26-2.637-3.134-4.863-4.911c-2.611-2.084-5.509-3.637-8.379-4.492c-0.816-0.245-1.456-0.406-2.073-0.524
	c-1.58-0.307-3.209-0.461-4.841-0.461c-4.151,0-7.615,0.989-9.819,1.835c-1.485-0.043-3.072-0.019-4.464,0.065
	c-0.713,0.036-1.374,0.087-1.972,0.141c-3.139-1.185-6.296-2.178-9.384-2.955c-4.146-1.051-8.446-1.797-12.812-2.227
	c0.263-0.094,0.535-0.188,0.816-0.278c4.44,0.819,8.456,1.217,12.271,1.217l0.181,0c0.519,0,1.049,0,1.574-0.023
	c3.021-0.115,6.164-0.697,9.609-1.779c2.805-0.875,5.132-1.902,6.591-2.61l0.787-0.382l-0.731-0.481
	c-1.334-0.878-3.494-2.127-6.205-3.09c-2.839-1.005-5.788-1.536-8.53-1.536c-0.288,0-0.578,0.006-0.872,0.018
	c-0.669,0.032-1.39,0.077-2.126,0.181c-6.421,0.922-11.122,4.173-13.398,6.076c-1.416,0.44-2.911,0.98-4.224,1.523
	c-0.655,0.271-1.258,0.536-1.799,0.78c-3.144-0.091-6.305-0.02-9.351,0.208l0-0.007l-0.493,0.04c-0.001,0-0.003,0-0.004,0
	l-0.493,0.04l0.001,0.009c-4.106,0.36-8.244,1.02-12.336,1.982c0.229-0.179,0.462-0.356,0.698-0.53
	c4.196-0.611,8.079-1.5,11.555-2.646l0.001,0.016l0.527-0.193c0.025-0.009,0.051-0.018,0.076-0.026l0.367-0.125l-0.001-0.01
	c0.374-0.137,0.748-0.274,1.123-0.419c2.886-1.118,5.668-2.686,8.505-4.793c2.332-1.716,4.197-3.453,5.35-4.607l0.606-0.607
	l-0.827-0.225c-0.996-0.271-3.688-0.902-7.181-0.902c-3.265,0-6.306,0.541-9.039,1.607L91.41,1.92v0.002
	c-0.51,0.204-1.033,0.441-1.591,0.72c-5.781,2.949-9.184,7.537-10.726,10.068c-1.191,0.873-2.433,1.866-3.507,2.805
	c-0.536,0.471-1.023,0.919-1.459,1.328c-3.042,0.941-5.986,2.028-8.77,3.227l-0.003-0.006l-0.392,0.173
	c-0.021,0.009-0.043,0.018-0.064,0.026l-0.456,0.2l0.004,0.01c-3.761,1.681-7.457,3.656-11.011,5.901
	c0.155-0.24,0.317-0.481,0.482-0.721c3.957-2.048,7.507-4.291,10.56-6.672l0.388-0.31c0.283-0.225,0.57-0.453,0.842-0.687
	c2.32-1.951,4.446-4.337,6.499-7.297c1.957-2.841,3.153-5.218,3.577-6.109l0.369-0.775l-0.856,0.065
	c-1.554,0.119-3.994,0.456-6.792,1.379c-2.201,0.725-5.437,2.104-8.358,4.569c-0.474,0.411-1.029,0.903-1.547,1.444
	c-4.514,4.684-6.226,10.131-6.85,13.025c-0.856,1.232-1.704,2.578-2.391,3.796c-0.352,0.613-0.666,1.188-0.943,1.712
	c-2.707,1.982-5.27,4.083-7.618,6.245c-3.153,2.904-6.129,6.091-8.87,9.492c0.068-0.283,0.139-0.56,0.212-0.828
	c3.095-3.228,5.729-6.504,7.83-9.737c0.292-0.44,0.563-0.877,0.847-1.343c1.559-2.606,2.792-5.553,3.769-9.014
	c0.86-3.138,1.236-5.694,1.383-6.938l0.103-0.865l-0.797,0.351c-1.458,0.642-3.673,1.771-5.952,3.508
	c-1.837,1.391-4.439,3.74-6.398,7.024c-0.367,0.595-0.715,1.244-1.007,1.875c-2.746,5.891-2.606,11.593-2.263,14.531
	c-0.407,1.426-0.777,2.973-1.046,4.367c-0.135,0.703-0.246,1.357-0.339,1.949c-1.921,2.753-3.661,5.564-5.172,8.354
	c-2.044,3.76-3.829,7.739-5.317,11.858c-0.025-0.286-0.046-0.577-0.063-0.87c1.902-4.109,3.293-7.951,4.253-11.745
	c0.124-0.505,0.247-1.021,0.36-1.539c0.633-2.984,0.847-6.171,0.653-9.746c-0.196-3.216-0.668-5.777-0.932-7.017l-0.181-0.85
	l-0.642,0.587c-1.692,1.548-3.25,3.366-4.504,5.253c-1.298,1.933-3.008,5.014-3.79,8.718c-0.17,0.795-0.282,1.465-0.353,2.108
	c-0.695,6.443,1.297,11.812,2.581,14.493c0.08,1.473,0.234,3.051,0.435,4.457c0.102,0.706,0.209,1.358,0.314,1.947
	c-0.917,3.221-1.647,6.447-2.168,9.593c-0.697,4.229-1.083,8.576-1.153,12.947c-0.122-0.27-0.238-0.536-0.346-0.796
	c0.455-4.448,0.516-8.65,0.182-12.481c-0.026-0.39-0.07-0.785-0.114-1.183l-0.045-0.402c-0.368-3.003-1.205-6.088-2.56-9.432
	c-1.248-3.021-2.521-5.27-3.17-6.341l-0.45-0.744l-0.414,0.764c-0.75,1.387-1.802,3.631-2.547,6.45
	c-0.596,2.235-1.208,5.695-0.737,9.497c0.104,0.775,0.223,1.459,0.365,2.092c1.455,6.33,5.071,10.733,7.148,12.833
	c0.566,1.397,1.229,2.843,1.872,4.081c0.323,0.639,0.637,1.223,0.926,1.746c0.166,3.178,0.494,6.295,0.968,9.289h-0.008l0.082,0.492
	c0.001,0.008,0.003,0.016,0.004,0.023l0.076,0.465l0.01-0.002c0.698,4.07,1.697,8.139,2.994,12.129
	c-0.198-0.211-0.39-0.42-0.572-0.625c-1.004-4.336-2.306-8.338-3.866-11.887c-0.204-0.486-0.43-0.963-0.667-1.447
	c-1.329-2.754-3.114-5.4-5.459-8.092c-1.527-1.738-3.225-3.408-5.047-4.966L0.55,99.856l-0.148,0.863
	c-0.265,1.541-0.537,3.99-0.329,6.904c0.155,2.303,0.691,5.77,2.365,9.223c0.283,0.566,0.619,1.223,1.024,1.865
	c3.403,5.518,8.259,8.523,10.912,9.848c0.978,1.125,2.074,2.281,3.096,3.266c0.513,0.494,0.999,0.943,1.441,1.342
	c1.256,3.111,2.664,6.107,4.185,8.906c2.034,3.758,4.391,7.422,7.022,10.918c-0.258-0.137-0.509-0.273-0.75-0.41
	c-2.287-3.652-4.621-6.779-7.119-9.537l0.007-0.004l-0.377-0.4c-0.009-0.01-0.018-0.02-0.026-0.029l-0.262-0.283l-0.003,0.002
	c-0.273-0.289-0.55-0.578-0.838-0.865c-2.141-2.16-4.697-4.082-7.816-5.867c-2.566-1.477-4.883-2.479-6.373-3.059l-0.806-0.314
	l0.133,0.854c0.196,1.254,0.707,3.783,1.925,6.65c1.215,2.848,2.865,5.412,4.794,7.457l-0.008,0.004l0.373,0.373
	c0.032,0.033,0.064,0.066,0.097,0.098l0.001,0.002c0.455,0.457,0.99,0.982,1.572,1.449c5.024,4.1,10.59,5.354,13.525,5.736
	c1.284,0.742,2.698,1.48,3.991,2.082c0.643,0.299,1.246,0.563,1.792,0.795c2.198,2.535,4.501,4.914,6.848,7.076
	c3.16,2.904,6.582,5.609,10.194,8.059c-0.281-0.045-0.571-0.094-0.866-0.148c-3.52-2.859-6.902-5.15-10.397-7.033
	c-0.441-0.238-0.882-0.475-1.345-0.701c-2.742-1.346-5.866-2.359-9.284-3.012c-2.917-0.555-5.437-0.752-7.037-0.82l-0.875-0.037
	l0.416,0.77c1.113,2.064,2.454,3.969,3.985,5.66c2.241,2.479,4.847,4.484,7.536,5.799c0.714,0.354,1.352,0.633,1.949,0.855
	c2.878,1.063,5.949,1.6,9.127,1.6c1.869,0,3.735-0.186,5.547-0.549c1.465,0.287,3.033,0.523,4.423,0.668
	c0.708,0.078,1.367,0.139,1.963,0.184c2.755,1.604,5.547,3.033,8.309,4.266l-0.003,0.006l0.443,0.195
	c0.004,0.002,0.009,0.004,0.013,0.006l0.454,0.199l0.004-0.01c3.792,1.641,7.751,3.027,11.808,4.123
	c-0.295,0.053-0.584,0.102-0.866,0.143c-4.173-1.529-8.227-2.627-12.048-3.264c-0.498-0.088-0.995-0.152-1.579-0.227
	c-3.009-0.389-6.188-0.342-9.767,0.156c-2.903,0.404-5.363,1.035-6.915,1.494l-0.84,0.248l0.643,0.596
	c1.167,1.078,3.086,2.656,5.602,4.063c2.012,1.125,5.209,2.568,9.013,3.053c0.7,0.09,1.396,0.146,2.132,0.172
	c6.228,0.15,11.179-1.977,14.238-3.775c1.456-0.199,3.013-0.482,4.399-0.799c0.697-0.16,1.34-0.322,1.919-0.477
	c3.293,0.646,6.567,1.104,9.732,1.354c4.273,0.355,8.641,0.389,13,0.105c-0.241,0.133-0.493,0.27-0.751,0.404
	c-0.505-0.01-1.046-0.018-1.618-0.018c-3.865,0-7.515,0.289-10.873,0.861c-0.51,0.09-1.022,0.18-1.541,0.289
	c-3.013,0.629-6.016,1.721-9.18,3.336c-2.617,1.326-4.741,2.727-6.062,3.666l-0.712,0.508l0.799,0.354
	c1.454,0.643,3.784,1.514,6.634,2.014c1.587,0.279,3.186,0.42,4.75,0.42c1.643,0,3.244-0.156,4.764-0.467
	c0.76-0.162,1.433-0.338,2.061-0.535c5.859-1.877,9.854-5.467,12.191-8.176c1.329-0.67,2.721-1.449,3.927-2.199
	c0.604-0.373,1.158-0.732,1.654-1.063c3.154-0.424,6.238-1.012,9.184-1.734l0.002,0.008l0.483-0.123
	c0.007-0.002,0.015-0.004,0.021-0.006l0.458-0.115l-0.002-0.01c3.994-1.033,7.971-2.371,11.855-4.004
	c-0.188,0.209-0.388,0.424-0.594,0.639c-4.332,1.393-8.102,2.975-11.527,4.838l-1.378,0.773c-2.629,1.557-5.119,3.559-7.614,6.121
	c-2.081,2.139-3.619,4.137-4.543,5.436l-0.506,0.709l0.869,0.074c0.8,0.068,1.623,0.102,2.447,0.102c1.508,0,3.012-0.113,4.466-0.34
	c2.274-0.342,5.682-1.16,9.01-3.127c0.573-0.352,1.183-0.732,1.771-1.16c4.969-3.682,7.587-8.391,8.916-11.729
	c1.037-1.066,2.093-2.246,2.977-3.332c0.454-0.553,0.862-1.078,1.227-1.555c2.992-1.508,5.862-3.16,8.531-4.908
	c3.586-2.346,7.048-5.004,10.315-7.918c-0.117,0.275-0.234,0.543-0.354,0.799c-3.442,2.568-6.36,5.145-8.9,7.855l-0.01-0.014
	l-0.684,0.768l0.005,0.008l-0.792,0.904c-1.983,2.322-3.685,5.025-5.199,8.266c-1.33,2.865-2.149,5.379-2.52,6.621l-0.25,0.842
	l0.85-0.217c1.516-0.387,3.868-1.131,6.475-2.49c1.919-1.014,4.647-2.75,7.031-5.383l0.01,0.014l0.667-0.795l-0.003-0.006
	c0.323-0.395,0.699-0.875,1.061-1.4c3.685-5.359,4.471-11.012,4.606-13.969c0.634-1.338,1.249-2.803,1.737-4.129
	c0.247-0.67,0.464-1.295,0.652-1.859c2.222-2.273,4.291-4.629,6.171-7.008l0.005,0.004l0.278-0.357
	c0.01-0.012,0.02-0.023,0.029-0.035l0.305-0.391l-0.008-0.006c2.521-3.27,4.842-6.766,6.907-10.436
	c-0.021,0.297-0.046,0.586-0.074,0.867c-2.563,3.754-4.572,7.316-6.143,10.896c-0.203,0.471-0.405,0.953-0.608,1.461
	c-1.121,2.859-1.852,5.965-2.232,9.496c-0.351,3.219-0.3,5.822-0.238,7.086l0.042,0.871l0.728-0.479
	c1.34-0.879,3.35-2.365,5.307-4.447c1.585-1.674,3.766-4.418,5.161-7.977c0.255-0.627,0.486-1.303,0.688-2.012
	c1.74-6.262,0.666-11.873-0.154-14.719c0.167-1.482,0.275-3.066,0.308-4.469c0.021-0.717,0.024-1.379,0.019-1.98
	c1.438-3.025,2.69-6.08,3.724-9.086c1.391-4.055,2.49-8.281,3.276-12.594c0.072,0.277,0.142,0.563,0.207,0.85
	c-1.179,4.33-1.935,8.467-2.249,12.309l-0.087,1.561c-0.137,3.055,0.176,6.234,0.957,9.725c0.696,3.104,1.596,5.574,2.069,6.771
	l0.319,0.805l0.534-0.682c0.956-1.215,2.354-3.227,3.591-5.92c0.954-2.123,2.126-5.449,2.289-9.236c0.034-0.711,0.034-1.406,0-2.133
	c-0.387-6.48-3.232-11.434-4.939-13.855c-0.328-1.469-0.747-3.006-1.181-4.332c-0.215-0.682-0.427-1.309-0.628-1.871
	c0.374-3.332,0.563-6.637,0.563-9.82c0-4.297-0.327-8.652-0.973-12.977c0.159,0.242,0.318,0.493,0.475,0.748
	c0.269,4.428,0.893,8.583,1.853,12.35c0.066,0.268,0.141,0.539,0.216,0.816c0.062,0.23,0.125,0.465,0.19,0.719
	c0.856,2.883,2.191,5.783,4.083,8.863c1.534,2.471,3.115,4.477,4.171,5.725l0.564,0.666l0.286-0.824
	c0.513-1.479,1.184-3.852,1.459-6.76C200.096,107.438,200.12,103.916,199.043,100.281z M166.499,152.119l-0.057,0.074
	c-1.882,2.41-3.969,4.795-6.21,7.084c-0.531,0.182-1.115,0.375-1.741,0.576c-1.123,0.369-2.344,0.744-3.511,1.102l-0.507,0.154
	c-4.852-0.559-9.186-0.617-12.876-0.174c-0.556,0.08-1.09,0.17-1.619,0.283c-5.438,1.107-9.492,4.125-10.825,5.117l-0.561,0.418
	l0.578,0.393c1.221,0.83,3.21,1.98,5.757,2.758c3.005,0.889,6.081,1.01,8.888,0.342c0.456-0.105,0.939-0.24,1.43-0.402
	c4.785-1.504,8.277-4.549,9.984-6.295c0.258-0.078,0.515-0.154,0.77-0.227c-3.129,2.787-6.446,5.332-9.885,7.58
	c-2.58,1.691-5.356,3.287-8.253,4.744c-0.56-0.002-1.174-0.006-1.828-0.018c-1.262-0.012-2.631-0.061-3.927-0.107l-0.271-0.01
	c-4.505-2.146-8.461-3.572-12.086-4.354c-0.587-0.135-1.162-0.215-1.647-0.277c-0.973-0.127-1.979-0.191-2.989-0.191
	c-4.235,0-7.755,1.139-8.912,1.514l-0.665,0.215l0.421,0.559c1.302,1.723,2.87,3.268,4.536,4.467
	c1.779,1.277,4.663,2.875,8.289,3.227c0.54,0.063,1.029,0.092,1.483,0.092c0.001,0,0.003,0,0.005,0
	c5.011,0.143,9.341-1.619,11.5-2.705c0.264,0.012,0.525,0.023,0.785,0.037c-3.854,1.617-7.812,2.943-11.79,3.953l-0.024,0.006
	c-2.979,0.754-6.117,1.354-9.327,1.785c-0.534-0.184-1.121-0.389-1.743-0.611c-1.212-0.439-2.519-0.941-3.751-1.414l-0.187-0.07
	c-3.479-3.432-6.859-6.139-10.044-8.043c-0.419-0.254-0.84-0.475-1.252-0.691l-0.21-0.109c-4.995-2.461-10.037-2.557-11.693-2.588
	l-0.701-0.014l0.219,0.666c0.69,2.102,1.649,4.02,2.849,5.695c1.254,1.777,3.454,4.219,6.81,5.74
	c0.459,0.205,0.917,0.402,1.366,0.559c2.504,0.934,5.263,1.408,8.201,1.408c1.197,0,2.394-0.08,3.56-0.238
	c0.25,0.098,0.498,0.197,0.744,0.295c-4.178,0.273-8.368,0.242-12.468-0.092c-3.074-0.25-6.241-0.693-9.417-1.322
	c-0.443-0.344-0.927-0.727-1.438-1.143c-0.986-0.785-2.033-1.662-3.023-2.49l-0.224-0.188c-2.184-4.369-4.497-8.021-6.875-10.859
	c-0.392-0.465-0.727-0.834-1.048-1.15l-0.068-0.07c-3.904-3.951-8.639-5.695-10.195-6.27l-0.653-0.24l-0.016,0.695
	c-0.034,1.477,0.083,3.768,0.833,6.314c0.605,2.084,1.887,5.105,4.552,7.654c0.28,0.264,0.567,0.514,0.872,0.773l-0.001,0.006
	l0.243,0.201c3.863,3.184,8.336,4.441,10.741,4.914c0.207,0.176,0.412,0.352,0.613,0.527c-4.056-1.098-8.007-2.486-11.77-4.145
	l-0.048-0.021c-2.799-1.23-5.631-2.676-8.417-4.299c-0.305-0.471-0.637-0.988-0.986-1.545c-0.686-1.076-1.398-2.26-2.07-3.375
	l-0.122-0.203c-0.643-4.863-1.646-9.078-2.981-12.535c-0.161-0.412-0.337-0.813-0.517-1.205l0.003-0.002l-0.105-0.219
	c-0.013-0.027-0.025-0.055-0.038-0.082l-0.313-0.672l-0.017,0.018c-2.425-4.633-6.071-7.605-7.306-8.611l-0.544-0.443l-0.238,0.66
	c-0.742,2.057-1.164,4.164-1.253,6.266c-0.095,2.178,0.147,5.457,1.839,8.713c0.24,0.447,0.481,0.869,0.754,1.293l0.019,0.029
	c2.615,4.234,6.41,6.867,8.518,8.096c0.142,0.236,0.282,0.475,0.418,0.711c-3.473-2.357-6.76-4.957-9.791-7.746
	c-2.262-2.088-4.483-4.385-6.605-6.832c-0.138-0.547-0.285-1.146-0.436-1.787c-0.306-1.266-0.605-2.643-0.886-3.934l-0.036-0.168
	c0.967-4.818,1.383-9.129,1.238-12.814c-0.023-0.576-0.069-1.131-0.139-1.646l-0.01-0.078c-0.019-0.154-0.04-0.307-0.062-0.463
	l-0.023-0.174h-0.002c-0.53-3.5-1.88-6.939-4.113-10.488l-0.371-0.588l-0.437,0.539c-0.933,1.15-2.248,3.039-3.215,5.502
	c-0.802,2.02-1.643,5.191-1.096,8.844c0.06,0.363,0.131,0.719,0.206,1.072l-0.002,0.002l0.058,0.262
	c0.007,0.033,0.015,0.068,0.022,0.102l0.14,0.648l0.015-0.008c1.178,4.564,3.771,8.063,5.309,9.834
	c0.057,0.268,0.112,0.535,0.164,0.801c-2.533-3.361-4.803-6.883-6.763-10.49c-1.465-2.701-2.82-5.59-4.028-8.592
	c0.049-0.564,0.105-1.182,0.17-1.842c0.118-1.256,0.278-2.607,0.429-3.889l0.035-0.293c2.47-4.215,4.269-8.145,5.349-11.691
	c0.159-0.547,0.296-1.078,0.41-1.604c0.794-3.691,0.681-7.725-0.336-11.99l-0.16-0.674l-0.587,0.367
	c-1.24,0.774-3.085,2.125-4.832,4.17c-1.407,1.639-3.227,4.355-3.904,7.984c-0.071,0.336-0.116,0.684-0.16,1.025l-0.06,0.449
	c-0.549,4.975,0.836,9.416,1.749,11.693c-0.032,0.264-0.066,0.527-0.102,0.787c-1.291-3.984-2.28-8.043-2.947-12.088l-0.005-0.031
	c-0.507-3.041-0.85-6.221-1.018-9.457c0.228-0.514,0.48-1.074,0.756-1.67c0.499-1.109,1.07-2.293,1.614-3.42l0.181-0.376
	c3.718-3.216,6.691-6.364,8.834-9.355c0.256-0.35,0.5-0.711,0.739-1.095l0.004,0l0.174-0.291c0.033-0.055,0.066-0.111,0.099-0.167
	l0.275-0.459l-0.011-0.002c1.722-3.093,2.771-6.639,3.2-10.813l0.071-0.697l-0.682,0.162c-1.456,0.347-3.667,1.039-5.923,2.37
	c-1.874,1.105-4.485,3.096-6.279,6.304c-0.186,0.329-0.354,0.659-0.516,0.983l-0.01-0.001l-0.16,0.341
	c-0.004,0.009-0.008,0.018-0.012,0.026l-0.282,0.565l0.026,0.004c-1.868,4.34-1.971,8.691-1.846,11.032
	c-0.119,0.245-0.239,0.488-0.359,0.728c0.069-4.202,0.446-8.377,1.124-12.44c0.498-3.032,1.199-6.146,2.085-9.258
	c0.382-0.413,0.803-0.864,1.25-1.334l2.934-3.016c4.546-1.812,8.387-3.812,11.423-5.95c0.455-0.33,0.886-0.67,1.294-1.012
	c4.295-3.596,6.404-8.162,7.098-9.663l0.292-0.632l-0.693-0.071c-2.068-0.21-4.302-0.107-6.373,0.308
	c-2.144,0.453-5.27,1.5-7.99,3.918c-0.282,0.248-0.547,0.509-0.811,0.77l-0.263,0.259c-3.5,3.587-5.126,7.941-5.797,10.298
	c-0.19,0.191-0.381,0.38-0.57,0.565c1.425-3.946,3.138-7.77,5.102-11.394c1.464-2.701,3.147-5.415,5.005-8.069
	c0.498-0.267,1.045-0.557,1.633-0.861c1.175-0.621,2.469-1.26,3.68-1.859l0.063-0.031c4.89-0.234,9.173-0.884,12.731-1.933
	c0.549-0.16,1.082-0.346,1.585-0.552l0.037-0.014c5.205-2.019,8.655-5.633,9.791-6.824l0.479-0.501l-0.628-0.292
	c-1.34-0.625-3.492-1.438-6.134-1.766c-3.096-0.392-6.154-0.012-8.843,1.118c-0.455,0.204-0.9,0.409-1.332,0.638l-0.041,0.021
	c-4.436,2.261-7.378,5.83-8.779,7.831c-0.244,0.12-0.488,0.238-0.729,0.353c2.634-3.263,5.495-6.322,8.527-9.113
	c2.266-2.089,4.738-4.118,7.35-6.03c0.554-0.091,1.163-0.188,1.815-0.286c1.313-0.207,2.746-0.395,4.087-0.571l0.078-0.01
	c4.703,1.358,8.96,2.127,12.648,2.287c0.562,0.035,1.112,0.022,1.661,0.001c3.796-0.134,7.563-1.2,11.517-3.261l0.615-0.32
	l-0.501-0.48c-1.555-1.488-3.36-2.757-5.22-3.67c-2.804-1.375-5.86-2.009-8.696-1.807c-0.457,0.02-0.894,0.077-1.347,0.138
	l-0.147,0.02c-4.975,0.692-8.921,3.127-10.892,4.574c-0.261,0.032-0.521,0.062-0.779,0.09c3.553-2.242,7.247-4.206,11.004-5.85
	l0.072-0.031c2.798-1.228,5.771-2.332,8.843-3.282c0.553,0.094,1.158,0.2,1.794,0.318l4.129,0.804
	c4.078,2.873,7.748,4.938,11.217,6.314c0.503,0.197,1.008,0.353,1.57,0.526c2.243,0.689,4.676,1.039,7.231,1.039
	c1.524,0,3.081-0.124,4.76-0.376l0.687-0.104l-0.318-0.617c-0.688-1.326-1.896-3.298-3.76-5.162
	c-1.528-1.538-4.097-3.575-7.653-4.547c-0.491-0.137-0.972-0.24-1.46-0.332c-1.341-0.263-2.75-0.397-4.189-0.397
	c-3.137,0-5.841,0.623-7.594,1.162c-0.254-0.054-0.509-0.11-0.759-0.165c4.074-0.955,8.203-1.607,12.303-1.94l0.005,0
	c3.089-0.252,6.313-0.329,9.511-0.231c0.492,0.267,1.029,0.563,1.592,0.878l3.635,2.094c2.934,4.028,5.747,7.17,8.595,9.601
	c0.335,0.29,0.684,0.55,1.029,0.805l-0.001,0.004l0.275,0.197c0.016,0.012,0.032,0.023,0.048,0.035l0.544,0.4l0.005-0.02
	c2.945,1.982,6.386,3.317,10.494,4.077l0.686,0.126l-0.104-0.688c-0.22-1.48-0.722-3.737-1.868-6.084
	c-0.938-1.949-2.697-4.709-5.767-6.795c-0.306-0.205-0.611-0.401-0.927-0.588l-0.003-0.001c-0.091-0.054-0.182-0.106-0.273-0.158
	l-0.049-0.028c-4.341-2.504-8.963-3.008-11.413-3.08c-0.226-0.133-0.449-0.267-0.67-0.401c4.187,0.413,8.313,1.129,12.291,2.136
	c2.977,0.748,6.021,1.705,9.051,2.847c0.378,0.415,0.791,0.872,1.226,1.366c0.87,0.97,1.792,2.045,2.659,3.057l0.104,0.122
	c1.431,4.684,3.108,8.671,4.986,11.851c0.287,0.489,0.593,0.944,0.904,1.391c2.168,3.076,5.213,5.724,9.052,7.871l0.607,0.339
	l0.126-0.684c0.268-1.464,0.521-3.757,0.204-6.369c-0.263-2.167-1.038-5.366-3.249-8.299c-0.309-0.4-0.618-0.788-0.94-1.146
	c-3.284-3.785-7.483-5.767-9.774-6.632c-0.173-0.205-0.344-0.411-0.512-0.615c3.814,1.75,7.482,3.774,10.927,6.031l0.078,0.051
	c2.552,1.677,5.094,3.562,7.561,5.606c0.225,0.514,0.467,1.081,0.72,1.684c0.452,1.083,0.918,2.255,1.365,3.379l0.209,0.524
	c-0.161,4.99,0.127,9.195,0.882,12.862c0.125,0.545,0.263,1.069,0.419,1.584c1.571,5.378,4.905,9.136,6.002,10.372l0.459,0.518
	l0.344-0.602c0.725-1.265,1.704-3.327,2.26-5.964c0.458-2.132,0.763-5.405-0.379-8.882c-0.144-0.469-0.322-0.915-0.516-1.398
	c-1.88-4.623-5.214-7.859-7.103-9.422c-0.104-0.262-0.204-0.524-0.302-0.782c3.034,2.887,5.837,5.979,8.355,9.21l0.031,0.042
	c1.896,2.426,3.713,5.057,5.405,7.821c0.045,0.561,0.09,1.175,0.131,1.834c0.092,1.255,0.157,2.617,0.221,3.905l0.014,0.279
	c-1.74,4.585-2.862,8.766-3.334,12.422c-0.064,0.458-0.092,0.902-0.118,1.343l-0.02,0.326c-0.258,5.57,1.665,10.214,2.297,11.74
	l0.27,0.649l0.522-0.469c1.634-1.466,3.006-3.116,4.075-4.898c1.123-1.854,2.477-4.839,2.542-8.535c0-0.5,0-1.002-0.034-1.474
	c-0.276-4.993-2.379-9.14-3.656-11.233c-0.01-0.266-0.019-0.532-0.025-0.794c1.939,3.727,3.591,7.573,4.917,11.46
	c1.002,2.91,1.862,5.991,2.56,9.158c-0.14,0.543-0.295,1.136-0.467,1.765c-0.313,1.166-0.681,2.422-1.032,3.621l-0.12,0.415
	c-3.209,3.847-5.564,7.339-7.202,10.672c-0.282,0.576-0.5,1.08-0.661,1.526c-1.394,3.534-1.929,7.422-1.637,11.887l0.045,0.695
	l0.643-0.268c1.368-0.572,3.424-1.611,5.448-3.316c1.662-1.4,3.904-3.797,5.15-7.256c0.174-0.455,0.305-0.898,0.461-1.424
	c1.361-4.836,0.728-9.429,0.203-11.814c0.075-0.251,0.153-0.501,0.229-0.748c0.614,4.133,0.926,8.305,0.926,12.428
	c0,3.087-0.184,6.279-0.547,9.49c-0.307,0.467-0.646,0.977-1.017,1.52c-0.744,1.125-1.588,2.328-2.376,3.447
	c-4.189,2.543-7.646,5.156-10.279,7.768c-0.398,0.398-0.761,0.807-1.116,1.219c-3.63,4.244-4.968,9.082-5.407,10.672l-0.186,0.672
	l0.696-0.043c2.142-0.133,4.3-0.598,6.243-1.348c2.038-0.791,4.947-2.332,7.244-5.184c0.305-0.387,0.589-0.779,0.876-1.184
	c2.841-4.109,3.73-8.674,4.008-11.113c0.153-0.213,0.308-0.426,0.461-0.635c-0.756,4.129-1.812,8.178-3.147,12.063
	c-0.992,2.908-2.201,5.865-3.593,8.789c-0.446,0.348-0.938,0.725-1.463,1.121c-0.914,0.688-1.91,1.408-2.87,2.102l-0.501,0.361
	c-4.881,1.068-8.892,2.377-12.259,4.006c-0.497,0.244-0.971,0.502-1.45,0.789l-0.117,0.068c-0.039,0.023-0.077,0.047-0.116,0.07
	l-0.39,0.232l0.005,0.004c-3.013,1.896-5.627,4.52-7.972,7.996l-0.388,0.574l0.668,0.184c1.373,0.377,3.661,0.83,6.334,0.73
	c2.169-0.076,5.41-0.578,8.532-2.553c0.313-0.201,0.619-0.404,0.92-0.617l0.002,0.002l0.091-0.068
	c0.072-0.051,0.144-0.104,0.214-0.156l0.525-0.389l-0.006-0.006c3.694-2.9,5.863-6.674,6.873-8.793
	c0.227-0.162,0.454-0.322,0.68-0.479C171.362,145.389,169.037,148.875,166.499,152.119z M31.935,137.277
	C31.934,137.277,31.934,137.277,31.935,137.277L31.935,137.277L31.935,137.277z M47.611,43.436
	C47.612,43.436,47.612,43.436,47.611,43.436L47.611,43.436L47.611,43.436z M17.861,144.906L17.861,144.906L17.861,144.906
	L17.861,144.906z M17.167,145.281c0,0.002,0,0.002,0,0.002l0,0L17.167,145.281z" class="color c1"/>
</svg>