<svg version="1.1" id="图层_1" x="0px" y="0px" width="500px" height="308.311px" viewBox="0 95.846 500 308.311" enable-background="new 0 95.846 500 308.311" xml:space="preserve" xmlns="http://www.w3.org/2000/svg" xmlns:xlink="http://www.w3.org/1999/xlink" xmlns:xml="http://www.w3.org/XML/1998/namespace">
  <g>
    <path fill="#404040" d="M324.323,101.351c0,0,0,36.036,36.037,103.604c14.422,27.041,39.667,39.646,64.76,45.046
		c-25.094,5.399-50.338,18.005-64.76,45.046c-36.037,67.566-36.037,103.604-36.037,103.604S436.936,448.198,500,250
		C436.936,51.802,324.323,101.351,324.323,101.351z" class="color c1"/>
    <path fill="#404040" d="M162.162,101.351c0,0,0,36.036,36.037,103.604c14.422,27.041,39.666,39.646,64.76,45.046
		c-25.094,5.399-50.338,18.005-64.76,45.046c-36.037,67.566-36.037,103.604-36.037,103.604S274.773,448.198,337.838,250
		C274.773,51.802,162.162,101.351,162.162,101.351z" class="color c1"/>
    <path fill="#404040" d="M0,101.351c0,0,0,36.036,36.037,103.604c14.422,27.04,39.666,39.645,64.76,45.045
		c-25.094,5.4-50.338,18.005-64.76,45.046C0,362.611,0,398.649,0,398.649S112.613,448.198,175.677,250
		C112.613,51.802,0,101.351,0,101.351z" class="color c1"/>
  </g>
</svg>