<svg version="1.1" id="图层_1" x="0px" y="0px" width="500.001px" height="175.456px" viewBox="0 162.271 500.001 175.456" enable-background="new 0 162.271 500.001 175.456" xml:space="preserve" xmlns="http://www.w3.org/2000/svg" xmlns:xlink="http://www.w3.org/1999/xlink" xmlns:xml="http://www.w3.org/XML/1998/namespace">
  <path fill="#404040" d="M41.812,243.188c29.694-47.344,90.753-41.319,166.238-3.083c12.937,6.557,24.062,25.338,21.299,47.309
	c18.961-17.859,41.92-13.607,53.863-7.193c80.515,43.342,159.756,81.188,201.999,39.372c21.401-21.264,17.79-57.163,0.564-75.095
	c-25.761-26.719-57.056-10.666-63.436,10.596c-4.536,15.17,6.804,35.227,27.469,33.668c10.276-0.781,19.456-8.646,22.928-18.783
	c14.241,15.166,6.379,33.737-1.913,40.682c-32.252,27.004-95.612-15.271-167.447-61.519c-12.296-7.938-26.188-26.189-22.644-51.493
	c-15.521,14.638-39.62,12.759-52.094,5.848c-47.413-26.222-95.257-45.218-137.709-40.505C14.88,171.462-16.947,251.41,8.78,292.802
	c14.533,23.317,63.048,38.095,85.158-1.241C110.917,261.332,80.191,220.118,41.812,243.188z" class="color c1"/>
</svg>