<svg version="1.1" id="图层_1" x="0px" y="0px" width="200px" height="82.402px" viewBox="-0.001 58.798 200 82.402" enable-background="new -0.001 58.798 200 82.402" xml:space="preserve" xmlns="http://www.w3.org/2000/svg" xmlns:xlink="http://www.w3.org/1999/xlink" xmlns:xml="http://www.w3.org/XML/1998/namespace">
  <g>
    <path fill="#404040" d="M63.318,78.917c0,0-0.304-0.235-0.894-0.691c-0.297-0.225-0.655-0.519-1.102-0.84
		c-0.449-0.312-0.971-0.673-1.561-1.081c-0.593-0.401-1.289-0.805-2.033-1.272c-0.375-0.229-0.789-0.435-1.208-0.668
		c-0.425-0.222-0.85-0.482-1.322-0.697c-0.468-0.221-0.954-0.451-1.456-0.688c-0.496-0.248-1.043-0.435-1.586-0.669
		c-0.272-0.113-0.55-0.229-0.832-0.345c-0.285-0.107-0.58-0.204-0.875-0.31c-0.296-0.103-0.597-0.208-0.901-0.314
		c-0.151-0.053-0.305-0.107-0.459-0.16c-0.157-0.046-0.315-0.091-0.475-0.137c-2.529-0.777-5.407-1.39-8.564-1.606
		c-3.152-0.208-6.582-0.065-10.111,0.704c-0.221,0.047-0.441,0.095-0.663,0.143l-0.334,0.072l-0.084,0.018
		c-0.037,0.008,0.031-0.007-0.039,0.011l-0.171,0.05c-0.458,0.132-0.92,0.264-1.386,0.397c-0.482,0.124-0.892,0.292-1.325,0.448
		c-0.43,0.165-0.862,0.296-1.298,0.489c-0.87,0.386-1.762,0.751-2.617,1.226c-0.88,0.424-1.713,0.963-2.571,1.473
		c-1.666,1.106-3.315,2.326-4.849,3.748c-1.52,1.434-2.948,3.023-4.234,4.768c-1.257,1.766-2.36,3.681-3.255,5.722
		c-0.207,0.518-0.438,1.027-0.63,1.554c-0.176,0.531-0.354,1.065-0.532,1.602l-0.033,0.1c-0.016,0.044,0.011-0.04-0.015,0.049
		l-0.059,0.222l-0.118,0.443l-0.118,0.443L5.55,93.34l-0.04,0.198c-0.104,0.528-0.227,1.042-0.302,1.615
		c-0.358,2.237-0.396,4.552-0.128,6.863c0.292,2.31,0.893,4.613,1.835,6.814c1.87,4.4,5.021,8.413,9.121,11.275
		c2.043,1.434,4.312,2.58,6.716,3.388l0.225,0.077l0.112,0.039c0.051,0.02-0.047-0.016,0.055,0.018l0.511,0.15l1.016,0.295
		c0.611,0.136,1.179,0.304,1.838,0.417c1.276,0.272,2.584,0.426,3.899,0.546c5.277,0.421,10.771-0.402,16.19-1.98
		c5.428-1.584,10.789-3.908,16.136-6.509c10.707-5.301,21.397-11.299,32.088-17.362c10.713-6.032,21.495-12.109,32.495-17.479
		c5.492-2.697,11.055-5.188,16.648-7.433c2.814-1.125,5.549-2.197,8.402-3.2c2.846-1.007,5.802-1.884,8.861-2.463
		c1.533-0.278,3.088-0.478,4.651-0.582c0.786-0.033,1.567-0.075,2.354-0.056c0.394,0,0.783,0.002,1.177,0.029l0.587,0.032
		l0.292,0.017l0.146,0.008c-0.004-0.002,0.174,0.012,0.203,0.016l1.057,0.106l0.265,0.026l0.294,0.04l0.594,0.082
		c0.807,0.102,1.532,0.253,2.289,0.395c1.493,0.316,2.959,0.729,4.391,1.213c5.703,1.968,10.848,5.362,14.521,9.903
		c1.837,2.259,3.295,4.791,4.288,7.444c0.518,1.32,0.869,2.686,1.16,4.042c0.271,1.362,0.426,2.73,0.482,4.085
		c0.024,0.677,0.024,1.351,0.008,2.019c-0.018,0.334-0.034,0.666-0.051,0.998l-0.015,0.249l-0.007,0.124
		c-0.02,0.235-0.014,0.131-0.021,0.213l-0.058,0.453c-0.038,0.303-0.075,0.604-0.114,0.905c-0.041,0.308-0.06,0.583-0.142,0.935
		c-0.142,0.672-0.28,1.34-0.419,2.004c-0.658,2.517-1.648,4.865-2.854,7.015c-0.584,1.087-1.277,2.085-1.955,3.075
		c-0.367,0.475-0.731,0.943-1.095,1.412c-0.356,0.473-0.772,0.893-1.153,1.334c-1.576,1.717-3.246,3.278-5.06,4.554
		c-1.8,1.284-3.644,2.415-5.556,3.27c-0.235,0.111-0.471,0.224-0.705,0.334c-0.241,0.097-0.482,0.191-0.723,0.286
		c-0.24,0.096-0.479,0.189-0.717,0.284l-0.354,0.14l-0.177,0.07c-0.019,0.009-0.162,0.057-0.144,0.049l-0.087,0.026
		c-0.462,0.143-0.92,0.284-1.375,0.426c-0.457,0.142-0.895,0.289-1.398,0.39c-0.488,0.11-0.973,0.221-1.451,0.328
		c-0.239,0.051-0.479,0.117-0.713,0.149c-0.235,0.032-0.473,0.067-0.705,0.102c-0.467,0.066-0.931,0.134-1.391,0.198
		c-0.456,0.077-0.918,0.075-1.371,0.113c-0.453,0.029-0.9,0.06-1.347,0.09c-0.444,0.014-0.886-0.001-1.322-0.003
		c-0.437-0.007-0.868-0.013-1.296-0.021c-0.425-0.035-0.847-0.07-1.264-0.105c-3.334-0.287-6.318-1.014-8.914-1.895
		c-2.604-0.878-4.785-1.994-6.633-3.019c-0.448-0.278-0.883-0.544-1.299-0.802c-0.416-0.254-0.813-0.496-1.174-0.765
		c-0.363-0.259-0.712-0.504-1.043-0.737c-0.164-0.116-0.324-0.229-0.482-0.342c-0.153-0.113-0.295-0.236-0.438-0.349
		c-0.563-0.455-1.06-0.858-1.489-1.206c-0.404-0.373-0.744-0.688-1.021-0.941c-0.546-0.506-0.828-0.769-0.828-0.769
		s0.306,0.233,0.897,0.688c0.295,0.225,0.662,0.504,1.1,0.836c0.454,0.307,0.979,0.662,1.575,1.063
		c0.149,0.099,0.299,0.207,0.461,0.308c0.163,0.097,0.331,0.193,0.504,0.297c0.345,0.201,0.706,0.414,1.086,0.639
		c0.374,0.232,0.785,0.438,1.214,0.652c0.428,0.217,0.872,0.441,1.333,0.676c0.47,0.218,0.968,0.42,1.476,0.642
		c0.256,0.109,0.514,0.222,0.776,0.334c0.267,0.107,0.543,0.197,0.819,0.302c0.559,0.196,1.126,0.42,1.721,0.613
		c0.602,0.176,1.221,0.356,1.854,0.542c2.558,0.667,5.455,1.152,8.607,1.197c0.395,0.006,0.792,0.01,1.193,0.017
		c0.398-0.023,0.804-0.047,1.212-0.07c0.407-0.026,0.819-0.031,1.233-0.071c0.41-0.052,0.826-0.104,1.246-0.157
		c0.416-0.063,0.844-0.083,1.262-0.18c0.422-0.087,0.845-0.174,1.271-0.26c0.215-0.043,0.428-0.088,0.643-0.131
		c0.218-0.041,0.416-0.115,0.625-0.172c0.416-0.119,0.834-0.238,1.257-0.357c0.411-0.102,0.86-0.282,1.307-0.449
		c0.447-0.167,0.896-0.336,1.349-0.507l0.086-0.03c0.076-0.029-0.008,0.004,0.027-0.014l0.157-0.074l0.313-0.146
		c0.211-0.098,0.422-0.195,0.633-0.295c0.212-0.098,0.425-0.194,0.637-0.295c0.207-0.113,0.413-0.228,0.621-0.342
		c1.682-0.871,3.285-1.996,4.832-3.242c1.554-1.246,2.99-2.707,4.316-4.3c0.318-0.409,0.672-0.794,0.967-1.228
		c0.302-0.428,0.604-0.857,0.908-1.289c0.551-0.9,1.121-1.801,1.58-2.77c0.957-1.912,1.707-3.964,2.162-6.105
		c0.084-0.512,0.168-1.025,0.254-1.543c0.055-0.235,0.063-0.566,0.09-0.862c0.025-0.303,0.049-0.605,0.072-0.909l0.037-0.456
		l0.001-0.33l0.005-0.841c-0.014-0.561-0.039-1.123-0.086-1.684c-0.062-0.559-0.107-1.121-0.214-1.675
		c-0.077-0.56-0.206-1.11-0.327-1.664c-0.281-1.096-0.602-2.191-1.063-3.241c-0.883-2.112-2.131-4.106-3.691-5.886
		c-3.113-3.568-7.438-6.289-12.275-7.786c-1.211-0.367-2.446-0.677-3.707-0.904c-0.625-0.101-1.281-0.221-1.877-0.278l-0.457-0.055
		l-0.229-0.027l-0.263-0.02l-1.061-0.082l-0.896-0.025c-0.317-0.017-0.637-0.01-0.956-0.002c-0.64-0.002-1.281,0.051-1.925,0.091
		c-1.288,0.119-2.582,0.314-3.883,0.582c-2.604,0.553-5.221,1.402-7.883,2.388c-2.658,0.983-5.402,2.111-8.08,3.237
		c-0.675,0.283-1.354,0.555-2.023,0.85c-0.672,0.3-1.342,0.599-2.014,0.898c-1.342,0.603-2.695,1.187-4.03,1.834
		c-1.341,0.633-2.69,1.249-4.03,1.9c-1.338,0.658-2.678,1.317-4.021,1.979c-10.703,5.399-21.358,11.415-32.064,17.487
		c-5.365,3.013-10.741,6.036-16.164,8.968c-2.717,1.463-5.466,2.935-8.171,4.303l-2.032,1.043l-2.076,1.043
		c-1.372,0.687-2.757,1.359-4.147,2.021c-2.782,1.323-5.606,2.585-8.486,3.725c-2.887,1.127-5.823,2.147-8.829,2.966
		c-1.5,0.413-3.017,0.776-4.55,1.075c-1.528,0.311-3.077,0.541-4.631,0.718c-1.553,0.185-3.122,0.257-4.686,0.284
		c-1.567,0.004-3.134-0.06-4.689-0.219c-1.554-0.176-3.102-0.398-4.616-0.759c-0.748-0.147-1.549-0.391-2.321-0.593l-1.025-0.325
		l-0.508-0.162c0.018,0.007-0.165-0.052-0.197-0.063l-0.139-0.053l-0.274-0.103c-2.947-1.06-5.695-2.56-8.136-4.39
		c-4.892-3.656-8.567-8.604-10.613-13.99c-2.065-5.38-2.525-11.189-1.417-16.47c0.118-0.652,0.305-1.336,0.479-2.004l0.065-0.251
		l0.07-0.221l0.139-0.438l0.139-0.438l0.069-0.219c-0.005,0.016,0.045-0.142,0.057-0.168l0.044-0.115
		c0.235-0.61,0.469-1.219,0.702-1.824c0.249-0.598,0.54-1.174,0.807-1.755c1.135-2.296,2.492-4.411,4.001-6.33
		c1.537-1.898,3.217-3.599,4.979-5.111c1.776-1.5,3.658-2.775,5.571-3.873c0.979-0.51,1.928-1.041,2.921-1.453
		c0.968-0.462,1.97-0.809,2.945-1.172c0.487-0.183,1.012-0.313,1.509-0.469c0.501-0.146,1.009-0.311,1.472-0.399
		c0.472-0.106,0.94-0.211,1.406-0.316l0.174-0.039c-0.012,0.003,0.113-0.026,0.134-0.028l0.092-0.015l0.365-0.057
		c0.243-0.038,0.484-0.075,0.726-0.113c3.851-0.594,7.517-0.561,10.816-0.085c3.306,0.465,6.251,1.316,8.804,2.306
		c5.122,1.981,8.663,4.462,10.93,6.25c0.558,0.463,1.05,0.872,1.475,1.225c0.414,0.362,0.743,0.688,1.018,0.94
		C63.038,78.655,63.318,78.917,63.318,78.917z" class="color c1"/>
    <path fill="#404040" d="M193.037,66.395c0,0-0.771-0.311-2.221-0.894c-0.728-0.28-1.635-0.583-2.687-0.95
		c-1.083-0.303-2.3-0.71-3.702-1.023c-2.787-0.676-6.218-1.25-10.164-1.414c-0.49-0.037-0.994-0.021-1.502-0.031
		c-0.51-0.002-1.025-0.024-1.548-0.011c-1.048,0.039-2.122,0.044-3.226,0.146c-1.1,0.064-2.227,0.192-3.375,0.316
		c-0.575,0.063-1.154,0.162-1.741,0.243c-0.291,0.042-0.586,0.085-0.884,0.128c-0.293,0.054-0.59,0.107-0.889,0.162
		c-2.383,0.409-4.847,0.964-7.363,1.664c-2.518,0.7-5.103,1.492-7.717,2.458c-5.237,1.896-10.636,4.276-16.127,6.986
		c-2.742,1.366-5.517,2.795-8.312,4.288c-2.802,1.523-5.638,3.063-8.496,4.617c-5.731,3.128-11.588,6.245-17.44,9.369
		c-5.865,3.095-11.744,6.183-17.563,9.16c-1.452,0.746-2.898,1.492-4.339,2.233c-1.444,0.731-2.881,1.462-4.31,2.187
		c-2.856,1.447-5.675,2.887-8.463,4.269c-0.696,0.349-1.39,0.694-2.079,1.039l-0.518,0.259l-0.539,0.262
		c-0.354,0.168-0.708,0.336-1.061,0.504c-1.46,0.686-2.882,1.301-4.339,1.863c-2.896,1.133-5.806,2.09-8.724,2.777
		c-2.92,0.676-5.839,1.135-8.726,1.203c-1.441,0.029-2.87-0.01-4.273-0.188c-0.7-0.063-1.396-0.207-2.079-0.319
		c-0.683-0.164-1.359-0.291-2.015-0.517c-1.321-0.381-2.57-0.938-3.738-1.555c-0.574-0.333-1.146-0.648-1.666-1.036
		c-0.262-0.19-0.536-0.356-0.778-0.563c-0.244-0.204-0.486-0.406-0.727-0.608c-0.245-0.194-0.465-0.414-0.683-0.633
		c-0.218-0.218-0.435-0.435-0.649-0.647c-0.395-0.457-0.789-0.902-1.146-1.363c-0.332-0.478-0.689-0.928-0.979-1.407
		c-0.143-0.239-0.285-0.478-0.426-0.714L15.62,108.3l-0.052-0.088c0.021,0.037-0.059-0.101-0.058-0.103l-0.021-0.043l-0.081-0.172
		c-0.215-0.467-0.436-0.864-0.63-1.429c-0.097-0.262-0.192-0.521-0.287-0.778c-0.078-0.256-0.137-0.506-0.205-0.754
		c-0.06-0.25-0.139-0.492-0.18-0.74s-0.081-0.492-0.121-0.735c-0.095-0.481-0.102-0.968-0.137-1.437
		c-0.084-1.877,0.206-3.591,0.712-5.038c0.508-1.446,1.184-2.643,1.924-3.554c0.161-0.243,0.38-0.432,0.554-0.636
		c0.188-0.194,0.348-0.396,0.535-0.557c0.379-0.316,0.695-0.628,1.023-0.854c0.328-0.22,0.618-0.415,0.869-0.583
		c0.262-0.147,0.492-0.254,0.672-0.347c0.359-0.182,0.545-0.275,0.545-0.275s-0.166,0.125-0.489,0.366
		c-0.158,0.122-0.362,0.264-0.59,0.449c-0.213,0.201-0.461,0.434-0.74,0.696c-0.278,0.261-0.532,0.608-0.84,0.954
		c-0.15,0.176-0.271,0.392-0.416,0.598c-0.133,0.216-0.305,0.413-0.418,0.663c-0.125,0.24-0.255,0.489-0.389,0.748
		c-0.13,0.257-0.22,0.547-0.34,0.829c-0.054,0.144-0.123,0.283-0.166,0.437c-0.044,0.152-0.088,0.307-0.132,0.464
		c-0.092,0.312-0.188,0.63-0.234,0.972c-0.534,2.67-0.196,6.139,1.872,9.239l0.101,0.16l0.025,0.041
		c0.016,0.026-0.046-0.084-0.007-0.021l0.054,0.072l0.217,0.282c0.144,0.188,0.289,0.38,0.435,0.573
		c0.29,0.386,0.636,0.729,0.953,1.104c0.341,0.354,0.708,0.688,1.069,1.03c0.194,0.156,0.39,0.313,0.586,0.472
		c0.195,0.157,0.39,0.319,0.606,0.454c0.21,0.142,0.422,0.284,0.635,0.429c0.21,0.145,0.445,0.256,0.667,0.39
		c0.439,0.271,0.925,0.476,1.402,0.7c0.981,0.4,2.006,0.757,3.107,0.961c0.271,0.063,0.545,0.117,0.828,0.15
		c0.28,0.041,0.562,0.084,0.844,0.125c0.576,0.045,1.148,0.121,1.742,0.125c1.177,0.055,2.395-0.012,3.631-0.138
		c2.476-0.254,5.04-0.813,7.629-1.608c1.293-0.404,2.597-0.855,3.905-1.353c1.307-0.504,2.615-1.062,3.926-1.659
		c1.303-0.595,2.628-1.252,3.908-1.917c0.33-0.174,0.66-0.349,0.992-0.524l0.487-0.262l0.504-0.281
		c0.674-0.375,1.351-0.75,2.03-1.125c2.713-1.519,5.488-3.027,8.293-4.564c1.403-0.768,2.814-1.54,4.232-2.316
		c1.424-0.768,2.854-1.539,4.289-2.313c5.735-3.112,11.598-6.205,17.449-9.335c5.87-3.09,11.736-6.188,17.543-9.176
		c5.769-3.002,11.58-5.974,17.356-8.518c5.773-2.564,11.531-4.733,17.142-6.372c5.612-1.624,11.081-2.704,16.194-3.132
		c2.556-0.209,5.015-0.307,7.354-0.213c1.168,0.015,2.303,0.125,3.404,0.199c0.551,0.044,1.092,0.121,1.625,0.179
		c0.531,0.068,1.057,0.117,1.568,0.214c4.108,0.639,7.582,1.68,10.326,2.764c1.383,0.513,2.563,1.104,3.594,1.581
		c1.013,0.539,1.873,0.983,2.55,1.372C192.328,65.959,193.037,66.395,193.037,66.395z" class="color c1"/>
    <path fill="#404040" d="M10.824,134.021c0,0,0.776,0.299,2.233,0.858c0.732,0.269,1.644,0.558,2.701,0.907
		c1.088,0.286,2.312,0.675,3.719,0.966c2.796,0.63,6.236,1.149,10.185,1.252c0.491,0.028,0.995,0.007,1.504,0.009
		c0.509-0.006,1.023,0.008,1.547-0.015c1.047-0.056,2.12-0.077,3.221-0.194c1.1-0.082,2.224-0.229,3.371-0.371
		c0.573-0.072,1.151-0.18,1.735-0.271c0.292-0.048,0.586-0.095,0.881-0.142c0.294-0.06,0.59-0.117,0.887-0.176
		c2.376-0.449,4.831-1.041,7.336-1.781c2.506-0.739,5.078-1.571,7.676-2.578c5.207-1.979,10.567-4.443,16.017-7.239
		c2.719-1.41,5.471-2.883,8.241-4.419c2.777-1.566,5.588-3.152,8.421-4.751c5.683-3.218,11.487-6.427,17.29-9.644
		c5.814-3.188,11.645-6.367,17.414-9.436c1.441-0.771,2.876-1.539,4.303-2.303c1.434-0.755,2.859-1.506,4.275-2.253
		c2.834-1.493,5.628-2.976,8.395-4.402c0.69-0.358,1.379-0.716,2.063-1.071l0.514-0.267l0.535-0.27
		c0.352-0.174,0.703-0.348,1.053-0.521c1.448-0.707,2.86-1.346,4.309-1.933c2.877-1.178,5.771-2.18,8.678-2.915
		c2.908-0.722,5.82-1.226,8.706-1.34c1.44-0.053,2.87-0.035,4.274,0.119c0.701,0.052,1.398,0.185,2.084,0.287
		c0.686,0.153,1.363,0.271,2.023,0.485c1.326,0.358,2.584,0.897,3.762,1.494c0.579,0.324,1.156,0.631,1.682,1.01
		c0.266,0.186,0.543,0.348,0.789,0.551c0.246,0.201,0.492,0.4,0.735,0.598c0.249,0.19,0.472,0.408,0.69,0.623
		c0.223,0.213,0.443,0.425,0.66,0.636c0.401,0.451,0.804,0.892,1.168,1.347c0.34,0.472,0.705,0.916,1.002,1.391
		c0.146,0.238,0.293,0.475,0.438,0.709l0.215,0.35l0.053,0.087c-0.021-0.037,0.061,0.1,0.06,0.101l0.021,0.042l0.086,0.171
		c0.222,0.463,0.447,0.858,0.65,1.419c0.102,0.261,0.201,0.519,0.301,0.775c0.082,0.253,0.146,0.503,0.217,0.75
		c0.063,0.249,0.146,0.489,0.19,0.737c0.045,0.246,0.091,0.491,0.134,0.733c0.103,0.481,0.116,0.966,0.158,1.433
		c0.113,1.876-0.148,3.595-0.632,5.049c-0.485,1.455-1.142,2.661-1.867,3.583c-0.157,0.246-0.373,0.438-0.543,0.645
		c-0.185,0.197-0.342,0.401-0.526,0.564c-0.375,0.322-0.686,0.641-1.008,0.87c-0.326,0.226-0.611,0.425-0.859,0.597
		c-0.26,0.151-0.488,0.262-0.666,0.357c-0.357,0.188-0.541,0.283-0.541,0.283s0.164-0.125,0.482-0.373
		c0.156-0.125,0.357-0.271,0.582-0.459c0.211-0.203,0.454-0.439,0.729-0.707c0.274-0.266,0.524-0.617,0.825-0.969
		c0.147-0.177,0.266-0.396,0.406-0.604c0.129-0.219,0.299-0.418,0.408-0.67c0.12-0.242,0.246-0.493,0.376-0.754
		c0.126-0.26,0.21-0.553,0.326-0.836c0.052-0.144,0.118-0.283,0.158-0.438c0.042-0.152,0.081-0.309,0.125-0.466
		c0.087-0.313,0.177-0.634,0.219-0.975c0.492-2.678,0.101-6.142-2.019-9.21l-0.104-0.159l-0.025-0.04
		c-0.017-0.026,0.047,0.084,0.008,0.021l-0.055-0.07L185,90.535c-0.146-0.187-0.295-0.376-0.443-0.566
		c-0.295-0.381-0.646-0.719-0.971-1.088c-0.346-0.348-0.719-0.675-1.086-1.014c-0.195-0.152-0.395-0.306-0.594-0.461
		c-0.197-0.156-0.395-0.314-0.613-0.444c-0.212-0.139-0.426-0.278-0.643-0.418c-0.211-0.143-0.448-0.25-0.672-0.379
		c-0.443-0.266-0.935-0.462-1.414-0.68c-0.986-0.384-2.019-0.725-3.123-0.911c-0.271-0.058-0.547-0.109-0.83-0.138
		c-0.279-0.037-0.563-0.075-0.846-0.112c-0.576-0.035-1.148-0.103-1.742-0.096c-1.178-0.036-2.396,0.049-3.629,0.193
		c-2.472,0.293-5.025,0.894-7.603,1.729c-1.287,0.425-2.583,0.896-3.883,1.414c-1.3,0.523-2.601,1.102-3.897,1.719
		c-1.293,0.617-2.609,1.294-3.879,1.979c-0.326,0.18-0.654,0.36-0.984,0.541l-0.481,0.271l-0.5,0.288
		c-0.667,0.385-1.338,0.771-2.011,1.159c-2.689,1.56-5.44,3.113-8.221,4.694c-1.392,0.79-2.789,1.584-4.194,2.383
		c-1.41,0.791-2.828,1.584-4.252,2.381c-5.687,3.203-11.497,6.388-17.298,9.608c-5.821,3.183-11.638,6.371-17.396,9.452
		c-5.72,3.092-11.484,6.154-17.219,8.79c-5.731,2.655-11.455,4.915-17.038,6.642c-5.586,1.713-11.038,2.879-16.144,3.387
		c-2.552,0.25-5.009,0.388-7.348,0.33c-1.167,0.002-2.306-0.09-3.408-0.146c-0.551-0.034-1.093-0.104-1.627-0.152
		c-0.533-0.06-1.059-0.101-1.572-0.188c-4.119-0.573-7.608-1.56-10.368-2.601c-1.392-0.49-2.58-1.063-3.62-1.523
		c-1.02-0.524-1.888-0.954-2.569-1.331C11.539,134.445,10.824,134.021,10.824,134.021z" class="color c1"/>
  </g>
</svg>