<svg version="1.1" id="图层_1" x="0px" y="0px" width="200px" height="108.686px" viewBox="0 45.657 200 108.686" enable-background="new 0 45.657 200 108.686" xml:space="preserve" xmlns="http://www.w3.org/2000/svg" xmlns:xlink="http://www.w3.org/1999/xlink" xmlns:xml="http://www.w3.org/XML/1998/namespace">
  <g>
    <path fill="#404040" d="M151.146,90.358c-5.563-2.362-12.334-0.408-17.263,2.524c-3.067,1.824-5.684,3.854-7.875,6.679
		c-0.271,0.35-4.637,6.263-4.31,4.137c0.811-5.256,6.638-10.039,10.572-12.988c10.82-8.116,24.049-9.679,36.791-5.604
		c6.096,1.948,11.431,5.486,14.666,11.089c1.612,2.792,1.586,5.347,5.224,5.653c1.491,0.125,7.282,0.692,6.88-1.962
		c-1.934-12.739-14.605-23.487-26.766-25.903c-14.018-2.785-29.032-0.382-40.95,7.756c-10.375,7.084-20.382,20.366-19.38,33.515
		c-1.352,14.805,11.93,30.057,27.465,26.26c6.349-1.552,11.619-6.229,11.033-13.193c-0.525-6.272-7.101-12.631-12.924-7.08
		c-2.181,2.078-2.418,4.57-1.332,7.277c1.477,3.681-5.431,1.159-6.481,0.295c-4.781-3.933-4.724-12.254-2.819-17.582
		c2.262-6.33,7.926-10.526,14.608-10.873c4.44-0.229,13.657,4.684,9.622,10.33c-1.043,1.457-4.852,3.99-0.004,4.221
		c2.295,0.107,4.758-1.772,6.015-3.547c1.474-2.082,2.052-5.592,1.698-8.088c-0.346-2.45-2.059-3.254-3.305-5.063
		c-0.783-1.133,3.86-0.769,4.051-2.529C156.598,93.498,152.741,91.034,151.146,90.358z" class="color c1"/>
    <path fill="#404040" d="M68.834,79.385c-11.163-5.863-27.032-9.376-39.231-5.06c-6.666,2.359-12.966,6.181-17.504,11.694
		c-1.338,1.624-10.507,14.831-5.594,14.94c2.692,0.061,6.731,1.398,8.271-1.463c1.413-2.627,3.145-5.083,5.193-7.253
		c4.035-4.276,9.003-6.908,14.753-8.034c13.322-2.608,25.423-0.617,35.996,8.355c2.818,2.393,5.385,5.017,7.29,8.206
		c0.505,0.846,1.726,2.394,1.662,3.449c-0.065,1.086-1.181,0.586-1.511,0.09c-3.313-4.984-7.276-9.292-12.672-12.125
		c-5.323-2.796-12.841-4.729-18.146-0.848c-1.379,1.009-4.503,4.174-1.64,5.326c3.942,1.586,1.265,1.892-0.262,4.495
		c-2.522,4.307,0.798,13.822,6.713,13.392c4.4-0.319,1.97-2.478,0.485-3.978c-1.822-1.846-0.349-5.331,1.027-7.008
		c9.186-11.186,25.575,4.037,24.323,14.861c-0.224,3.674-0.462,6.801-3.166,9.615c-1.271,1.324-5.902,4.688-7.506,2.104
		c-0.656-1.057,1.166-3.406,1.129-4.668c-0.045-1.49-0.799-2.806-1.719-3.928c-1.841-2.242-4.423-2.963-7.243-2.525
		c-6.803,1.053-8.472,11.545-4.622,16.276c4.263,5.24,10.445,7.211,17.047,6.062c14.522-2.528,20.524-15.313,20.2-28.728
		C91.785,99.15,80.248,85.379,68.834,79.385z" class="color c1"/>
    <path fill="#404040" d="M189.691,110.582c-5.85-0.178-7.217,6.711-13.426,6.26c-1.104-0.08-5.613-1.76-4.226-3.585
		c0.679-0.893,3.533,0.278,4.799-0.472c4.487-2.659,2.293-10.196-1.778-12.059c-4.068-1.86-9.354,0.039-11.795,3.563
		c-6.402,9.238,1.644,24.341,13.311,23.222c6.249,0.165,11.9-3.208,15.523-8.214c1.271-1.755,3.467-4.854,3.209-7.164
		C195.057,109.886,191.098,110.624,189.691,110.582z" class="color c1"/>
    <path fill="#404040" d="M26.838,99.852c-4.401,1.478-7.709,7.315-3.928,11.248c0.771,0.801,5.571,2.215,4.752,3.211
		c-1.47,1.787-3.046,2.34-5.312,1.879c-2.975-0.605-4.684-2.168-6.523-4.447c-1.362-1.688-4.327-1.204-6.419-1.102
		c0.224,0.006,0.25,0.018-0.603,0.018c0-0.1-4.044-0.393-3.379,2.533c0.587,2.576,1.819,4.947,3.582,6.912
		c3.311,3.688,8.101,6.293,13.085,6.506c10.672,0.457,21.885-9.283,16.601-20.594C36.547,101.417,32.016,98.112,26.838,99.852z" class="color c1"/>
    <path fill="#404040" d="M15.302,108.215c1.293,0,2.34-1.048,2.34-2.34v-0.048c0-1.292-1.047-2.341-2.34-2.341h-1.186l0,0H2.34
		c-1.292,0-2.34,1.049-2.34,2.341v0.048c0,1.292,1.048,2.34,2.34,2.34h1.187H14.63H15.302z" class="color c1"/>
    <path fill="#404040" d="M197.66,103.486h-2.249h-7.894h-1.733c-1.293,0-2.341,1.049-2.341,2.341v0.048
		c0,1.292,1.048,2.34,2.341,2.34h2.248h7.892h1.737c1.292,0,2.339-1.048,2.339-2.34v-0.048
		C200,104.535,198.953,103.486,197.66,103.486z" class="color c1"/>
    <path fill="#404040" d="M104.605,109.661c0-25.161,22.291-37.406,30.201-40.292c-5.022-2.865-10.064-6.467-13.664-9.336
		c-7.182,5.756-11.514,13.67-15.113,20.848h-0.711v-5.023c0-6.488,2.867-15.824,7.179-21.581c-2.867-2.153-9.334-5.751-12.201-8.62
		c-2.889,2.869-9.357,6.467-12.244,8.62c4.313,6.472,7.199,15.093,7.199,21.581v5.023h-0.732
		c-3.58-7.178-7.891-15.092-15.823-20.848c-2.866,2.869-7.891,6.471-12.936,8.646c7.912,2.844,29.491,15.82,29.491,41.692v3.598
		c0,2.159-1.424,23.838-2.887,26.703c2.887,3.602,5.775,7.914,7.932,13.671c1.422-5.757,5.022-10.069,7.892-13.671
		c-1.424-2.154-3.58-23.834-3.58-25.986v-5.024H104.605z" class="color c1"/>
  </g>
</svg>