<svg version="1.1" id="图层_1" x="0px" y="0px" width="200.001px" height="196.868px" viewBox="0 1.566 200.001 196.868" enable-background="new 0 1.566 200.001 196.868" xml:space="preserve" xmlns="http://www.w3.org/2000/svg" xmlns:xlink="http://www.w3.org/1999/xlink" xmlns:xml="http://www.w3.org/XML/1998/namespace">
  <g>
    <g>
      <path fill="#404040" d="M182.124,99.882c-0.228,36.188-23.804,68.687-58.421,79.601c-34.889,10.998-73.313-3.453-93.637-33.438
			c-20.364-30.049-17.963-71.02,4.676-99.081C58.055,18.068,98.905,8.746,132.7,23.649C162.616,36.842,181.92,67.39,182.124,99.882
			c0.005,0.784,1.672,0.468,1.667-0.169c-0.212-33.802-20.536-64.474-51.65-77.746C101.75,9.004,65.869,15.798,41.598,37.874
			c-25.219,22.94-33.645,59.927-21.874,91.733c11.573,31.274,41.7,52.633,74.759,54.504c22.768,1.287,45.261-7.107,62.063-22.389
			c17.364-15.793,27.101-38.638,27.246-62.01C183.797,98.931,182.129,99.244,182.124,99.882z" class="color c1"/>
    </g>
    <g>
      <path fill="#404040" d="M7.54,64.403c-0.43-0.117-1.265,0.05-1.321,0.608c-0.809,7.846,2.113,16.46,9.601,20.104
			c0.069,0.066,0.156,0.112,0.267,0.137c0.277,0.111,0.65,0.016,0.922-0.167c0.191-0.11,0.34-0.263,0.371-0.453
			C18.714,76.647,16.428,66.804,7.54,64.403z M7.819,65.902c6.627,2.559,8.664,10.013,8.145,16.663
			c-0.99-3.832-2.631-7.589-4.905-10.813c-0.217-0.306-1.286,0.064-1.027,0.434c2.249,3.188,3.86,6.916,4.834,10.708
			C9.697,79.21,7.452,72.274,7.819,65.902z" class="color c1"/>
      <path fill="#404040" d="M46.543,49.953c0.108-0.43-0.071-1.262-0.632-1.311c-7.858-0.676-16.422,2.39-19.941,9.938
			c-0.064,0.068-0.11,0.158-0.131,0.269c-0.107,0.279-0.005,0.649,0.182,0.919c0.114,0.19,0.269,0.335,0.459,0.363
			C34.486,61.333,44.29,58.88,46.543,49.953z M45.048,50.258c-2.448,6.668-9.866,8.83-16.524,8.422
			c3.814-1.053,7.544-2.757,10.729-5.085c0.303-0.221-0.085-1.284-0.45-1.019c-3.151,2.302-6.852,3.976-10.625,5.013
			C31.772,52.358,38.67,49.998,45.048,50.258z" class="color c1"/>
    </g>
    <g>
      <path fill="#404040" d="M49.303,15.902c-0.251-0.367-0.993-0.783-1.401-0.396c-5.714,5.435-9.097,13.879-5.78,21.518
			c0.009,0.094,0.045,0.186,0.116,0.276c0.137,0.265,0.482,0.435,0.807,0.474c0.218,0.04,0.429,0.02,0.577-0.104
			C49.829,32.473,54.492,23.508,49.303,15.902z M48.539,17.223c3.37,6.255,0.07,13.241-4.649,17.956
			c1.741-3.554,2.938-7.477,3.307-11.404c0.034-0.373-1.02-0.787-1.063-0.338c-0.365,3.884-1.564,7.764-3.29,11.277
			C41.312,28.555,44.117,21.826,48.539,17.223z" class="color c1"/>
      <path fill="#404040" d="M86.04,30.291c0.363-0.255,0.768-1.004,0.373-1.405c-5.529-5.625-14.028-8.866-21.61-5.42
			c-0.094,0.011-0.186,0.048-0.275,0.118c-0.262,0.144-0.426,0.491-0.459,0.817c-0.036,0.218-0.014,0.429,0.113,0.574
			C69.481,31.095,78.523,35.609,86.04,30.291z M84.706,29.551c-6.195,3.474-13.237,0.292-18.029-4.348
			c3.582,1.681,7.523,2.812,11.457,3.115c0.374,0.029,0.771-1.032,0.321-1.066c-3.891-0.3-7.789-1.436-11.331-3.102
			C73.256,22.513,80.032,25.206,84.706,29.551z" class="color c1"/>
    </g>
    <g>
      <path fill="#404040" d="M111.473,2.74c0.027-0.444-0.305-1.228-0.863-1.171c-7.848,0.799-15.689,5.405-17.743,13.476
			c-0.049,0.08-0.078,0.175-0.078,0.289c-0.053,0.294,0.116,0.64,0.35,0.869c0.148,0.166,0.326,0.279,0.519,0.271
			C101.746,16.165,110.922,11.931,111.473,2.74z M110.063,3.317c-1.164,7.009-8.051,10.513-14.668,11.353
			c3.552-1.745,6.899-4.114,9.596-6.994c0.255-0.274-0.324-1.247-0.633-0.918c-2.668,2.849-5.99,5.182-9.506,6.903
			C97.41,7.853,103.747,4.25,110.063,3.317z" class="color c1"/>
      <path fill="#404040" d="M131.716,36.607c0.442,0.021,1.222-0.325,1.154-0.883c-0.929-7.833-5.666-15.599-13.771-17.515
			c-0.08-0.05-0.177-0.076-0.289-0.075c-0.297-0.048-0.639,0.126-0.863,0.365c-0.163,0.149-0.273,0.33-0.264,0.522
			C118.131,27.106,122.518,36.21,131.716,36.607z M131.113,35.206c-7.025-1.047-10.646-7.875-11.596-14.476
			c1.805,3.522,4.229,6.829,7.153,9.478c0.278,0.251,1.24-0.344,0.905-0.648c-2.893-2.618-5.28-5.902-7.061-9.389
			C126.367,22.631,130.077,28.908,131.113,35.206z" class="color c1"/>
    </g>
    <g>
      <path fill="#404040" d="M169.948,31.292c0.29-0.336,0.501-1.161,0.022-1.456c-6.726-4.124-15.755-5.217-22.281-0.044
			c-0.088,0.034-0.168,0.092-0.236,0.183c-0.221,0.201-0.296,0.579-0.25,0.902c0.018,0.221,0.091,0.419,0.248,0.53
			C154.072,36.067,163.938,38.264,169.948,31.292z M168.475,30.895c-5.175,4.866-12.775,3.477-18.547,0.131
			c3.883,0.767,7.98,0.913,11.871,0.258c0.369-0.063,0.499-1.188,0.055-1.112c-3.849,0.647-7.906,0.486-11.746-0.276
			C155.665,26.828,162.891,27.806,168.475,30.895z" class="color c1"/>
      <path fill="#404040" d="M165.251,71.652c0.34,0.284,1.169,0.482,1.455-0.002c4.01-6.792,4.953-15.839-0.329-22.278
			c-0.034-0.088-0.095-0.166-0.186-0.234c-0.207-0.217-0.584-0.285-0.907-0.233c-0.222,0.021-0.418,0.097-0.525,0.256
			C160.211,55.859,158.177,65.756,165.251,71.652z M165.622,70.172c-4.951-5.093-3.688-12.717-0.44-18.541
			c-0.701,3.894-0.779,7.992-0.061,11.873c0.068,0.368,1.195,0.478,1.113,0.034c-0.713-3.836-0.619-7.896,0.08-11.748
			C169.475,57.294,168.618,64.536,165.622,70.172z" class="color c1"/>
    </g>
    <path fill="#404040" d="M199.188,89.472c0.42-0.146,1.015-0.757,0.746-1.25c-3.769-6.929-11.047-12.384-19.285-11.159
		c-0.094-0.015-0.19-0.004-0.297,0.04c-0.291,0.064-0.545,0.354-0.666,0.657c-0.097,0.2-0.131,0.409-0.051,0.583
		C183.047,85.687,190.497,92.514,199.188,89.472z M198.109,88.393c-6.914,1.634-12.809-3.364-16.139-9.144
		c2.98,2.603,6.459,4.774,10.157,6.148c0.353,0.131,1.024-0.78,0.603-0.937c-3.657-1.36-7.094-3.524-10.039-6.102
		C189.038,78.475,194.811,82.929,198.109,88.393z" class="color c1"/>
    <path fill="#404040" d="M167.795,117.328c0.057,0.441,0.529,1.148,1.066,0.988c7.559-2.26,14.396-8.256,14.896-16.57
		c0.034-0.088,0.044-0.188,0.023-0.297c-0.004-0.301-0.233-0.607-0.508-0.789c-0.176-0.135-0.371-0.213-0.56-0.17
		C174.825,102.316,166.607,108.197,167.795,117.328z M169.072,116.496c-0.174-7.102,5.933-11.838,12.273-13.904
		c-3.162,2.381-6.004,5.334-8.111,8.672c-0.2,0.316,0.553,1.162,0.795,0.781c2.082-3.299,4.91-6.215,8.039-8.566
		C180.646,109.664,175.102,114.395,169.072,116.496z" class="color c1"/>
    <path fill="#404040" d="M189.545,148.455c0.441,0.051,1.243-0.236,1.217-0.797c-0.359-7.881-4.521-15.969-12.466-18.467
		c-0.077-0.055-0.171-0.088-0.285-0.096c-0.288-0.068-0.645,0.079-0.887,0.301c-0.173,0.139-0.296,0.311-0.3,0.502
		C176.684,137.996,180.4,147.393,189.545,148.455z M189.047,147.014c-6.932-1.553-10.048-8.625-10.518-15.279
		c1.544,3.646,3.724,7.119,6.449,9.974c0.258,0.271,1.263-0.256,0.949-0.582c-2.693-2.821-4.839-6.271-6.361-9.877
		C185.225,134.129,188.469,140.656,189.047,147.014z" class="color c1"/>
    <path fill="#404040" d="M144.184,155.697c-0.175,0.406-0.123,1.258,0.424,1.391c7.662,1.865,16.594,0.141,21.222-6.785
		c0.073-0.059,0.133-0.139,0.171-0.246c0.148-0.26,0.104-0.641-0.04-0.936c-0.084-0.205-0.213-0.371-0.397-0.428
		C157.831,146.285,147.77,147.215,144.184,155.697z M145.705,155.621c3.436-6.217,11.098-7.225,17.615-5.807
		c-3.932,0.461-7.877,1.576-11.379,3.391c-0.334,0.174-0.111,1.283,0.289,1.076c3.465-1.795,7.377-2.887,11.265-3.336
		C159.146,155.568,151.971,156.85,145.705,155.621z" class="color c1"/>
    <path fill="#404040" d="M140.757,188.084c0.212,0.389,0.907,0.881,1.353,0.537c6.244-4.82,10.475-12.873,7.957-20.811
		c0-0.097-0.026-0.191-0.086-0.287c-0.108-0.279-0.436-0.482-0.754-0.556c-0.213-0.063-0.426-0.063-0.584,0.043
		C141.934,171.545,136.375,179.984,140.757,188.084z M141.65,186.846c-2.709-6.563,1.291-13.178,6.469-17.383
		c-2.098,3.357-3.689,7.135-4.46,11.006c-0.073,0.367,0.934,0.887,1.021,0.443c0.764-3.826,2.354-7.563,4.432-10.879
		C150.004,176.318,146.523,182.723,141.65,186.846z" class="color c1"/>
    <path fill="#404040" d="M103.08,170.402c-0.389,0.213-0.875,0.912-0.529,1.354c4.863,6.211,12.944,10.385,20.866,7.814
		c0.095-0.002,0.19-0.029,0.286-0.088c0.277-0.111,0.479-0.439,0.547-0.76c0.063-0.214,0.063-0.425-0.046-0.584
		C119.624,171.461,111.146,165.961,103.08,170.402z M104.32,171.287c6.55-2.756,13.188,1.197,17.43,6.346
		c-3.372-2.072-7.16-3.641-11.035-4.383c-0.369-0.07-0.882,0.939-0.438,1.023c3.83,0.735,7.578,2.301,10.91,4.354
		C114.91,179.566,108.48,176.131,104.32,171.287z" class="color c1"/>
    <path fill="#404040" d="M77.351,197.24c-0.038,0.443,0.274,1.234,0.836,1.191c7.864-0.607,15.816-5.021,18.064-13.041
		c0.052-0.078,0.082-0.173,0.087-0.287c0.06-0.291-0.101-0.642-0.328-0.877c-0.144-0.168-0.32-0.287-0.512-0.283
		C87.4,184.057,78.125,188.066,77.351,197.24z M78.776,196.697c1.334-6.977,8.304-10.313,14.94-10.99
		c-3.596,1.658-6.998,3.943-9.764,6.756c-0.263,0.27,0.293,1.256,0.61,0.934c2.735-2.782,6.114-5.032,9.67-6.67
		C91.534,192.471,85.111,195.92,78.776,196.697z" class="color c1"/>
    <path fill="#404040" d="M54.818,158.367c-0.44-0.043-1.235,0.264-1.196,0.824c0.544,7.869,4.894,15.856,12.895,18.17
		c0.079,0.053,0.174,0.084,0.287,0.088c0.291,0.063,0.643-0.094,0.879-0.322c0.17-0.141,0.29-0.314,0.288-0.508
		C67.923,168.521,63.989,159.213,54.818,158.367z M55.352,159.795c6.967,1.391,10.247,8.387,10.871,15.027
		c-1.63-3.605-3.888-7.027-6.681-9.816c-0.264-0.264-1.256,0.283-0.936,0.604c2.76,2.757,4.986,6.154,6.591,9.724
		C59.476,172.588,56.078,166.137,55.352,159.795z" class="color c1"/>
    <path fill="#404040" d="M25.035,165.08c-0.307,0.32-0.56,1.133-0.096,1.451c6.506,4.459,15.469,6.01,22.25,1.174
		c0.089-0.029,0.172-0.084,0.245-0.17c0.23-0.189,0.325-0.563,0.295-0.889c-0.005-0.222-0.068-0.424-0.22-0.543
		C41.133,161.115,31.394,158.42,25.035,165.08z M26.487,165.551c5.414-4.598,12.936-2.824,18.529,0.809
		c-3.839-0.963-7.923-1.315-11.843-0.858c-0.372,0.045-0.559,1.162-0.109,1.106c3.875-0.448,7.918-0.084,11.715,0.873
		C39.074,170.26,31.908,168.918,26.487,165.551z" class="color c1"/>
    <path fill="#404040" d="M31.017,124.799c-0.329-0.297-1.149-0.525-1.452-0.053c-4.261,6.639-5.54,15.645-0.5,22.275
		c0.032,0.09,0.09,0.172,0.178,0.242c0.197,0.225,0.571,0.307,0.897,0.266c0.221-0.012,0.42-0.08,0.536-0.236
		C35.468,140.77,37.868,130.953,31.017,124.799z M30.591,126.264c4.76,5.273,3.216,12.846-0.247,18.547
		c0.845-3.867,1.076-7.961,0.499-11.865c-0.053-0.368-1.176-0.521-1.109-0.071c0.568,3.856,0.325,7.912-0.517,11.731
		C26.264,138.99,27.389,131.785,30.591,126.264z" class="color c1"/>
    <path fill="#404040" d="M0.854,113.182c-0.426,0.129-1.045,0.713-0.798,1.217c3.478,7.08,10.524,12.832,18.806,11.949
		c0.092,0.021,0.191,0.012,0.297-0.027c0.294-0.051,0.561-0.329,0.694-0.629c0.104-0.194,0.148-0.401,0.074-0.582
		C16.823,117.633,9.663,110.502,0.854,113.182z M1.887,114.305c6.975-1.346,12.655,3.891,15.744,9.805
		c-2.871-2.725-6.256-5.039-9.895-6.563c-0.345-0.146-1.056,0.738-0.639,0.912c3.597,1.51,6.94,3.813,9.778,6.513
		C10.539,124.588,4.956,119.9,1.887,114.305z" class="color c1"/>
    <path fill="#404040" d="M32.609,91.117c-0.008-0.442-0.4-1.199-0.953-1.098c-7.759,1.42-15.212,6.636-16.616,14.844
		c-0.043,0.084-0.064,0.182-0.055,0.295c-0.03,0.297,0.167,0.629,0.418,0.838c0.16,0.152,0.345,0.252,0.538,0.23
		C23.982,105.273,32.792,100.324,32.609,91.117z M31.249,91.806c-0.602,7.077-7.188,11.12-13.718,12.483
		c3.402-2.023,6.551-4.651,9.009-7.737c0.234-0.292-0.422-1.216-0.704-0.861c-2.43,3.049-5.559,5.639-8.925,7.635
		C18.997,97.333,25.029,93.236,31.249,91.806z" class="color c1"/>
  </g>
</svg>