<svg version="1.1" id="图层_1" x="0px" y="0px" width="200px" height="191.803px" viewBox="0 4.098 200 191.803" enable-background="new 0 4.098 200 191.803" xml:space="preserve" xmlns="http://www.w3.org/2000/svg" xmlns:xlink="http://www.w3.org/1999/xlink" xmlns:xml="http://www.w3.org/XML/1998/namespace">
  <g>
    <path fill="#404040" d="M83.244,184.547c6.213-3.878,14.887-4.138,14.986-4.184c-0.035-0.052-0.214,7.942-6.881,12.44
		c-6.787,4.547-16.602,2.758-16.48,2.711C74.838,195.461,76.94,188.467,83.244,184.547" class="color c1"/>
    <path fill="#404040" d="M78.85,173.396c3.727,5.725,12.528,6.848,12.521,6.758c0.076-0.01-0.082-7.67-4.178-12.867
		c-4.062-5.137-10.07-6.587-10.099-6.653C77.167,160.629,75.127,167.763,78.85,173.396" class="color c1"/>
    <path fill="#404040" d="M54.779,188.663c-0.107,0.029,8.307,3.443,15.172,0.341c6.76-3.075,8.491-10.541,8.516-10.483
		c-0.088,0.029-7.779-1.229-14.085,1.311C57.992,182.396,54.759,188.606,54.779,188.663" class="color c1"/>
    <path fill="#404040" d="M62.592,168.536c2.278,6.088,9.865,8.688,9.867,8.599c0.067,0.003,1.449-7.206-1.198-12.834
		c-2.63-5.563-7.829-8.077-7.845-8.146C63.479,156.163,60.307,162.539,62.592,168.536" class="color c1"/>
    <path fill="#404040" d="M37.906,178.535c-0.095,0.013,6.935,4.799,13.7,3.106c6.668-1.679,9.647-8.404,9.661-8.345
		c-0.078,0.015-6.768-2.578-12.988-1.353C41.986,173.185,37.897,178.478,37.906,178.535" class="color c1"/>
    <path fill="#404040" d="M48.707,160.894c1.006,6.229,7.393,10.084,7.406,9.998c0.058,0.014,2.68-6.533,1.303-12.367
		c-1.371-5.773-5.746-9.201-5.75-9.271C51.719,149.271,47.686,154.75,48.707,160.894" class="color c1"/>
    <path fill="#404040" d="M24.199,165.711c-0.084-0.003,5.576,5.903,12.076,5.563c6.412-0.344,10.354-6.168,10.357-6.107
		c-0.068,0.005-5.743-3.738-11.711-3.768C28.893,161.373,24.199,165.653,24.199,165.711" class="color c1"/>
    <path fill="#404040" d="M37.211,150.899c-0.107,6.179,5.099,11.076,5.121,10.996c0.047,0.021,3.636-5.703,3.365-11.559
		c-0.273-5.793-3.807-9.986-3.799-10.053C41.941,140.31,37.293,144.802,37.211,150.899" class="color c1"/>
    <path fill="#404040" d="M13.604,150.767c-0.072-0.018,4.236,6.758,10.316,7.678c6.006,0.906,10.646-3.907,10.642-3.85
		c-0.06-0.007-4.703-4.707-10.267-5.904C18.679,147.487,13.613,150.709,13.604,150.767" class="color c1"/>
    <path fill="#404040" d="M28.117,138.996c-1.072,5.965,2.965,11.692,2.998,11.619c0.037,0.024,4.336-4.765,5.027-10.478
		c0.678-5.652-1.998-10.459-1.982-10.521C34.195,129.646,29.154,133.103,28.117,138.996" class="color c1"/>
    <path fill="#404040" d="M6.073,134.263c-0.063-0.025,2.908,7.367,8.435,9.435c5.459,2.04,10.562-1.702,10.549-1.646
		c-0.053-0.016-3.651-5.483-8.672-7.733C11.316,132.052,6.09,134.21,6.073,134.263" class="color c1"/>
    <path fill="#404040" d="M21.443,125.621c-1.904,5.618,0.979,11.964,1.019,11.896c0.028,0.03,4.806-3.762,6.325-9.194
		c1.496-5.378-0.307-10.638-0.279-10.694C28.534,117.661,23.305,120.067,21.443,125.621" class="color c1"/>
    <path fill="#404040" d="M1.555,116.757C1.5,116.722,3.153,124.492,8,127.563c4.791,3.035,10.134,0.39,10.114,0.438
		c-0.044-0.021-2.587-6.064-6.94-9.23C6.78,115.585,1.579,116.711,1.555,116.757" class="color c1"/>
    <path fill="#404040" d="M17.201,111.22c-2.615,5.155-0.875,11.911-0.828,11.854c0.021,0.034,5.064-2.736,7.293-7.777
		c2.195-4.991,1.283-10.548,1.318-10.597C25.004,104.735,19.767,106.119,17.201,111.22" class="color c1"/>
    <path fill="#404040" d="M0.004,98.793c-0.047-0.043,0.303,7.864,4.361,11.779c4.01,3.87,9.398,2.304,9.371,2.347
		c-0.037-0.027-1.51-6.449-5.086-10.371C5.041,98.601,0.033,98.754,0.004,98.793" class="color c1"/>
    <path fill="#404040" d="M15.405,96.239c-3.218,4.6-2.609,11.56-2.556,11.513c0.015,0.035,5.135-1.724,7.963-6.278
		c2.79-4.515,2.785-10.201,2.828-10.242C23.653,91.268,18.57,91.685,15.405,96.239" class="color c1"/>
    <path fill="#404040" d="M1.371,80.91C1.33,80.86,0.396,88.667,3.568,93.245c3.129,4.529,8.389,3.989,8.355,4.026
		c-0.032-0.032-0.425-6.635-3.123-11.135C6.071,81.605,1.407,80.876,1.371,80.91" class="color c1"/>
    <path fill="#404040" d="M16.07,81.125c-3.727,3.969-4.24,10.929-4.183,10.894c0.011,0.035,5.038-0.75,8.376-4.749
		c3.29-3.964,4.209-9.617,4.258-9.646C24.529,77.661,19.74,77.188,16.07,81.125" class="color c1"/>
    <path fill="#404040" d="M5.611,63.63c-0.033-0.055-2.236,7.417-0.035,12.465c2.165,4.991,7.137,5.402,7.098,5.431
		c-0.026-0.037,0.672-6.619-1.067-11.505C9.846,65.104,5.652,63.608,5.611,63.63" class="color c1"/>
    <path fill="#404040" d="M19.212,66.333c-4.157,3.277-5.781,10.034-5.719,10.014c0.006,0.035,4.791,0.145,8.555-3.231
		c3.709-3.356,5.571-8.803,5.626-8.82C27.678,64.329,23.307,63.076,19.212,66.333" class="color c1"/>
    <path fill="#404040" d="M12.68,47.476c-0.029-0.06-3.481,6.85-2.324,12.156c1.129,5.247,5.679,6.502,5.636,6.521
		c-0.022-0.039,1.772-6.397,1.071-11.461C16.34,49.592,12.725,47.46,12.68,47.476" class="color c1"/>
    <path fill="#404040" d="M24.838,52.314c-4.516,2.537-7.241,8.893-7.176,8.884c0.002,0.036,4.416,0.948,8.536-1.763
		c4.062-2.702,6.885-7.767,6.944-7.772C33.143,51.698,29.289,49.786,24.838,52.314" class="color c1"/>
    <path fill="#404040" d="M22.534,32.95c-0.024-0.061-4.709,6.056-4.655,11.403c0.029,5.285,4.039,7.256,3.993,7.266
		c-0.02-0.042,2.885-5.976,3.278-10.998C25.525,35.562,22.581,32.946,22.534,32.95" class="color c1"/>
    <path fill="#404040" d="M32.967,39.529c-4.819,1.76-8.639,7.514-8.57,7.521c-0.002,0.033,3.932,1.629,8.352-0.377
		c4.356-2.01,8.156-6.517,8.223-6.509C40.967,40.196,37.718,37.764,32.967,39.529" class="color c1"/>
    <path fill="#404040" d="M35.13,20.555c-0.021-0.063-5.919,5.043-7.019,10.201c-1.117,5.096,2.256,7.639,2.205,7.639
		c-0.016-0.044,4.002-5.346,5.542-10.103C37.381,23.498,35.181,20.563,35.13,20.555" class="color c1"/>
    <path fill="#404040" d="M43.607,28.437c-5.074,0.953-9.984,5.908-9.912,5.929c-0.004,0.031,3.355,2.181,8.029,0.909
		c4.608-1.29,9.404-5.054,9.474-5.033C51.192,30.271,48.613,27.463,43.607,28.437" class="color c1"/>
    <path fill="#404040" d="M50.426,10.777c-0.017-0.067-7.109,3.81-9.398,8.55c-2.304,4.671,0.353,7.633,0.3,7.62
		c-0.015-0.045,5.124-4.51,7.847-8.768C51.885,13.883,50.479,10.795,50.426,10.777" class="color c1"/>
    <path fill="#404040" d="M56.775,19.499c-5.299,0.12-11.29,4.081-11.215,4.115c-0.008,0.03,2.704,2.588,7.6,2.074
		c4.825-0.546,10.636-3.38,10.708-3.344C63.859,22.373,62,19.343,56.775,19.499" class="color c1"/>
    <path fill="#404040" d="M68.384,4.1c-0.015-0.068-8.286,2.369-11.788,6.45c-3.518,4.012-1.64,7.22-1.693,7.199
		c-0.012-0.047,6.252-3.467,10.186-6.99C69.01,7.193,68.438,4.127,68.384,4.1" class="color c1"/>
    <path fill="#404040" d="M72.478,13.182c-5.497-0.736-12.563,2.036-12.488,2.085c-0.01,0.026,2,2.839,7.091,3.107
		c5.021,0.221,11.867-1.49,11.94-1.442C79.012,16.958,77.903,13.868,72.478,13.182" class="color c1"/>
    <path fill="#404040" d="M78.357,4.945c-4.48,1.18-7.396,5.73-7.373,5.71c0.034,0.022,3.403,0.504,7.529-0.788
		c4.113-1.348,8.003-3.675,8.027-3.667C86.574,6.235,82.824,3.75,78.357,4.945" class="color c1"/>
    <path fill="#404040" d="M125.131,195.515c0.123,0.049-9.693,1.836-16.482-2.709c-6.666-4.498-6.843-12.494-6.879-12.441
		c0.103,0.045,8.774,0.306,14.986,4.185C123.061,188.467,125.162,195.461,125.131,195.515" class="color c1"/>
    <path fill="#404040" d="M122.906,160.633c-0.028,0.066-6.038,1.517-10.1,6.653c-4.097,5.197-4.255,12.857-4.177,12.867
		c-0.009,0.091,8.793-1.033,12.521-6.758C124.872,167.763,122.832,160.63,122.906,160.633" class="color c1"/>
    <path fill="#404040" d="M135.618,179.83c-6.304-2.539-13.997-1.28-14.085-1.312c0.025-0.058,1.758,7.41,8.515,10.484
		c6.867,3.104,15.28-0.311,15.173-0.341C145.24,188.606,142.008,182.396,135.618,179.83" class="color c1"/>
    <path fill="#404040" d="M136.584,156.155c-0.016,0.066-5.215,2.582-7.846,8.146c-2.646,5.628-1.266,12.835-1.197,12.833
		c0.004,0.09,7.589-2.51,9.867-8.598C139.691,162.539,136.521,156.163,136.584,156.155" class="color c1"/>
    <path fill="#404040" d="M151.721,171.946c-6.219-1.227-12.91,1.367-12.988,1.352c0.016-0.06,2.994,6.666,9.662,8.346
		c6.765,1.691,13.795-3.097,13.699-3.108C162.104,178.478,158.014,173.185,151.721,171.946" class="color c1"/>
    <path fill="#404040" d="M148.334,149.254c-0.004,0.067-4.379,3.497-5.75,9.269c-1.377,5.838,1.246,12.381,1.303,12.369
		c0.014,0.086,6.401-3.771,7.406-10C152.314,154.75,148.281,149.271,148.334,149.254" class="color c1"/>
    <path fill="#404040" d="M165.078,161.399c-5.969,0.027-11.643,3.771-11.711,3.767c0.004-0.06,3.945,5.765,10.359,6.106
		c6.498,0.342,12.157-5.564,12.073-5.563C175.801,165.653,171.107,161.373,165.078,161.399" class="color c1"/>
    <path fill="#404040" d="M158.102,140.285c0.01,0.065-3.524,4.26-3.799,10.052c-0.27,5.854,3.318,11.578,3.366,11.561
		c0.021,0.08,5.228-4.818,5.12-10.998C162.707,144.802,158.059,140.31,158.102,140.285" class="color c1"/>
    <path fill="#404040" d="M175.704,148.69c-5.563,1.194-10.207,5.896-10.267,5.902c-0.004-0.058,4.637,4.758,10.643,3.852
		c6.08-0.92,10.39-7.695,10.314-7.68C186.387,150.71,181.32,147.487,175.704,148.69" class="color c1"/>
    <path fill="#404040" d="M165.839,129.618c0.019,0.061-2.66,4.867-1.981,10.52c0.691,5.713,4.99,10.504,5.027,10.479
		c0.032,0.074,4.07-5.653,2.998-11.619C170.846,133.103,165.805,129.646,165.839,129.618" class="color c1"/>
    <path fill="#404040" d="M183.615,134.315c-5.021,2.248-8.62,7.72-8.672,7.732c-0.012-0.054,5.09,3.688,10.551,1.646
		c5.523-2.065,8.498-9.461,8.434-9.435C193.912,134.211,188.684,132.052,183.615,134.315" class="color c1"/>
    <path fill="#404040" d="M171.492,117.628c0.027,0.057-1.775,5.314-0.279,10.695c1.521,5.433,6.296,9.226,6.326,9.193
		c0.039,0.067,2.922-6.277,1.02-11.896C176.695,120.069,171.467,117.66,171.492,117.628" class="color c1"/>
    <path fill="#404040" d="M188.826,118.771c-4.354,3.166-6.896,9.209-6.939,9.23c-0.021-0.049,5.323,2.598,10.113-0.438
		c4.848-3.07,6.5-10.842,6.445-10.807C198.42,116.711,193.221,115.585,188.826,118.771" class="color c1"/>
    <path fill="#404040" d="M175.016,104.7c0.035,0.049-0.877,5.604,1.318,10.597c2.229,5.041,7.271,7.812,7.293,7.777
		c0.047,0.057,1.787-6.699-0.828-11.854C180.234,106.119,174.996,104.735,175.016,104.7" class="color c1"/>
    <path fill="#404040" d="M191.35,102.548c-3.574,3.922-5.049,10.344-5.086,10.37c-0.027-0.043,5.362,1.524,9.372-2.347
		c4.058-3.915,4.408-11.821,4.36-11.778C199.967,98.753,194.959,98.603,191.35,102.548" class="color c1"/>
    <path fill="#404040" d="M176.359,91.23c0.043,0.041,0.037,5.728,2.828,10.243c2.828,4.555,7.946,6.313,7.965,6.277
		c0.052,0.047,0.66-6.913-2.559-11.514C181.43,91.685,176.348,91.268,176.359,91.23" class="color c1"/>
    <path fill="#404040" d="M191.201,86.137c-2.7,4.5-3.094,11.103-3.125,11.135c-0.033-0.037,5.227,0.503,8.355-4.026
		c3.172-4.577,2.237-12.384,2.196-12.335C198.594,80.876,193.928,81.605,191.201,86.137" class="color c1"/>
    <path fill="#404040" d="M175.479,77.625c0.049,0.028,0.969,5.682,4.258,9.646c3.339,3.996,8.365,4.783,8.377,4.749
		c0.058,0.034-0.454-6.926-4.184-10.895C180.258,77.188,175.471,77.661,175.479,77.625" class="color c1"/>
    <path fill="#404040" d="M188.393,70.022c-1.738,4.885-1.041,11.467-1.066,11.503c-0.039-0.028,4.934-0.439,7.101-5.431
		c2.199-5.048-0.002-12.52-0.036-12.464C194.348,63.607,190.154,65.104,188.393,70.022" class="color c1"/>
    <path fill="#404040" d="M172.326,64.293c0.056,0.019,1.914,5.465,5.626,8.82c3.764,3.377,8.549,3.267,8.554,3.232
		c0.063,0.021-1.561-6.736-5.717-10.014C176.695,63.076,172.322,64.329,172.326,64.293" class="color c1"/>
    <path fill="#404040" d="M182.939,54.69c-0.703,5.063,1.092,11.422,1.069,11.461c-0.043-0.02,4.507-1.273,5.636-6.521
		c1.157-5.307-2.297-12.216-2.324-12.156C187.273,47.461,183.661,49.592,182.939,54.69" class="color c1"/>
    <path fill="#404040" d="M166.857,51.664c0.061,0.006,2.883,5.07,6.943,7.773c4.12,2.709,8.534,1.797,8.536,1.763
		c0.065,0.008-2.66-6.348-7.176-8.885C170.711,49.786,166.857,51.698,166.857,51.664" class="color c1"/>
    <path fill="#404040" d="M174.85,40.621c0.396,5.023,3.299,10.957,3.279,10.998c-0.047-0.01,3.965-1.981,3.992-7.267
		c0.055-5.348-4.631-11.464-4.654-11.402C177.419,32.945,174.475,35.561,174.85,40.621" class="color c1"/>
    <path fill="#404040" d="M159.029,40.165c0.065-0.007,3.867,4.5,8.223,6.51c4.42,2.006,8.354,0.409,8.352,0.375
		c0.068-0.005-3.75-5.76-8.569-7.52C162.283,37.765,159.033,40.198,159.029,40.165" class="color c1"/>
    <path fill="#404040" d="M164.143,28.292c1.539,4.756,5.557,10.059,5.541,10.101c-0.05,0.002,3.322-2.543,2.205-7.638
		c-1.1-5.158-6.998-10.265-7.018-10.2C164.82,20.563,162.618,23.498,164.143,28.292" class="color c1"/>
    <path fill="#404040" d="M148.802,30.241c0.069-0.021,4.865,3.743,9.474,5.033c4.677,1.271,8.033-0.877,8.029-0.909
		c0.071-0.021-4.838-4.977-9.912-5.929C151.387,27.463,148.809,30.272,148.802,30.241" class="color c1"/>
    <path fill="#404040" d="M150.826,18.182c2.723,4.258,7.861,8.723,7.847,8.766c-0.052,0.013,2.604-2.948,0.3-7.619
		c-2.289-4.739-9.383-8.616-9.397-8.549C149.521,10.794,148.113,13.883,150.826,18.182" class="color c1"/>
    <path fill="#404040" d="M136.133,22.343c0.071-0.035,5.883,2.799,10.709,3.344c4.895,0.515,7.605-2.043,7.6-2.072
		c0.074-0.035-5.918-3.996-11.215-4.117C138,19.343,136.141,22.373,136.133,22.343" class="color c1"/>
    <path fill="#404040" d="M134.912,10.758c3.933,3.523,10.197,6.943,10.186,6.99c-0.054,0.021,1.824-3.187-1.693-7.199
		c-3.502-4.082-11.772-6.518-11.787-6.45C131.563,4.127,130.99,7.193,134.912,10.758" class="color c1"/>
    <path fill="#404040" d="M120.98,16.933c0.074-0.05,6.92,1.663,11.938,1.441c5.093-0.269,7.103-3.08,7.094-3.107
		c0.075-0.049-6.989-2.821-12.489-2.085C122.098,13.869,120.988,16.959,120.98,16.933" class="color c1"/>
    <path fill="#404040" d="M113.459,6.201c0.025-0.007,3.914,2.32,8.027,3.666c4.125,1.293,7.496,0.812,7.529,0.789
		c0.022,0.021-2.894-4.53-7.373-5.71C117.176,3.751,113.426,6.235,113.459,6.201" class="color c1"/>
  </g>
</svg>