<svg version="1.1" id="图层_1" x="0px" y="0px" width="197.25px" height="200px" viewBox="1.375 0 197.25 200" enable-background="new 1.375 0 197.25 200" xml:space="preserve" xmlns="http://www.w3.org/2000/svg" xmlns:xlink="http://www.w3.org/1999/xlink" xmlns:xml="http://www.w3.org/XML/1998/namespace">
  <g>
    <path fill="#404040" d="M107.331,180.535c0.063-0.585,0.907-1.032,1.884-1.003c0.975,0.032,1.71,0.534,1.645,1.118
		c-0.569,4.897-2.477,8.904-5.202,11.969c-2.447,2.751-5.567,4.753-8.993,5.972c-3.532,1.255-7.377,1.681-11.156,1.241
		c-4.646-0.54-9.144-2.389-12.759-5.605c-4.499-4.004-6.91-10.537-9.35-17.144c-3.172-8.592-6.39-17.313-13.925-19.871
		c-5.146-1.746-9.251-0.241-11.771,2.533c-1.191,1.31-2.058,2.889-2.553,4.562c-0.502,1.691-0.623,3.471-0.318,5.164
		c0.628,3.502,3.066,6.609,7.728,7.637c2.351,0.52,4.259-0.543,5.404-2.159c0.517-0.73,0.886-1.573,1.084-2.454
		c0.2-0.889,0.227-1.807,0.059-2.684c-0.389-2.03-1.798-3.828-4.469-4.393c-0.914-0.193-1.386-0.797-1.053-1.35
		c0.333-0.551,1.347-0.844,2.262-0.648c4.119,0.869,6.241,3.36,6.771,6.123c0.201,1.057,0.173,2.152-0.065,3.207
		c-0.239,1.063-0.697,2.092-1.342,3.006c-1.888,2.666-5.331,4.35-9.9,3.342c-6.088-1.343-9.229-5.143-9.99-9.379
		c-0.338-1.889-0.203-3.871,0.354-5.752c0.563-1.898,1.558-3.703,2.932-5.216c3.489-3.838,9.27-5.885,16.632-3.386
		c8.892,3.019,12.277,12.195,15.614,21.236c2.37,6.416,4.712,12.763,8.829,16.428c3.065,2.729,6.771,4.281,10.534,4.721
		c2.924,0.338,5.916,0.002,8.683-0.98c2.876-1.021,5.526-2.738,7.649-5.125C105.043,188.836,106.797,185.121,107.331,180.535z" class="color c1"/>
    <path fill="#404040" d="M173.411,133.919c-0.474-0.349-0.44-1.305,0.073-2.131c0.517-0.828,1.315-1.216,1.791-0.867
		c3.957,2.942,6.475,6.599,7.765,10.491c1.157,3.494,1.332,7.197,0.673,10.773c-0.68,3.688-2.232,7.229-4.503,10.282
		c-2.79,3.753-6.64,6.724-11.233,8.247c-5.719,1.895-12.58,0.715-19.521-0.477c-9.026-1.551-18.188-3.122-24.172,2.125
		c-4.085,3.582-4.835,7.889-3.694,11.46c0.541,1.686,1.477,3.227,2.676,4.491c1.215,1.279,2.695,2.272,4.313,2.857
		c3.347,1.207,7.256,0.646,10.476-2.874c1.627-1.776,1.661-3.96,0.832-5.761c-0.373-0.813-0.919-1.553-1.58-2.165
		c-0.67-0.619-1.453-1.101-2.298-1.394c-1.952-0.679-4.212-0.355-6.036,1.674c-0.625,0.695-1.384,0.803-1.695,0.238
		c-0.312-0.565-0.055-1.588,0.568-2.283c2.814-3.133,6.032-3.727,8.689-2.803c1.013,0.353,1.949,0.928,2.742,1.66
		c0.802,0.739,1.466,1.649,1.934,2.665c1.365,2.968,1.102,6.79-2.057,10.243c-4.205,4.604-9.065,5.422-13.115,3.963
		c-1.807-0.65-3.456-1.759-4.807-3.184c-1.361-1.436-2.426-3.198-3.049-5.146c-1.582-4.94-0.465-10.969,5.381-16.096
		c7.062-6.19,16.701-4.536,26.201-2.904c6.74,1.157,13.406,2.302,18.64,0.567c3.896-1.292,7.094-3.723,9.354-6.764
		c1.756-2.362,2.961-5.121,3.492-8.012c0.553-2.999,0.391-6.152-0.613-9.186C179.456,140.051,177.115,136.674,173.411,133.919z" class="color c1"/>
    <path fill="#404040" d="M166.08,53.385c-0.539,0.234-1.35-0.27-1.807-1.13c-0.461-0.861-0.396-1.749,0.143-1.985
		c4.525-1.955,8.951-2.309,12.967-1.479c3.605,0.746,6.899,2.444,9.667,4.805c2.854,2.431,5.146,5.548,6.655,9.041
		c1.855,4.292,2.503,9.11,1.521,13.852c-1.218,5.899-5.668,11.253-10.17,16.668c-5.855,7.042-11.8,14.188-10.246,21.993
		c1.06,5.33,4.414,8.135,8.078,8.93c1.729,0.376,3.53,0.337,5.229-0.071c1.716-0.411,3.316-1.194,4.632-2.305
		c2.718-2.295,4.188-5.961,2.749-10.511c-0.727-2.295-2.602-3.418-4.572-3.602c-0.891-0.082-1.803,0.021-2.669,0.288
		c-0.866,0.271-1.677,0.708-2.353,1.29c-1.563,1.354-2.418,3.475-1.57,6.066c0.291,0.89,0.005,1.6-0.641,1.586
		c-0.645-0.012-1.402-0.744-1.692-1.633c-1.308-4.004-0.211-7.088,1.918-8.926c0.812-0.701,1.778-1.227,2.812-1.547
		c1.039-0.322,2.16-0.443,3.271-0.341c3.254,0.301,6.432,2.44,7.846,6.901c1.881,5.943,0.16,10.564-3.129,13.341
		c-1.466,1.239-3.251,2.112-5.158,2.571c-1.925,0.461-3.983,0.502-5.98,0.067c-5.069-1.103-9.73-5.084-11.248-12.711
		c-1.833-9.21,4.423-16.731,10.583-24.142c4.373-5.26,8.696-10.46,9.812-15.858c0.83-4.019,0.323-8.006-1.18-11.483
		c-1.167-2.701-2.954-5.124-5.189-7.029c-2.322-1.979-5.135-3.416-8.262-4.063C174.414,51.213,170.318,51.553,166.08,53.385z" class="color c1"/>
    <path fill="#404040" d="M92.67,19.465c-0.064,0.585-0.908,1.033-1.884,1.002c-0.975-0.032-1.711-0.534-1.645-1.118
		c0.568-4.897,2.477-8.905,5.203-11.968c2.447-2.752,5.567-4.752,8.993-5.972c3.533-1.255,7.376-1.681,11.155-1.24
		c4.646,0.537,9.145,2.388,12.759,5.604c4.5,4.005,6.912,10.537,9.349,17.144c3.174,8.591,6.392,17.312,13.926,19.869
		c5.146,1.747,9.25,0.244,11.772-2.531c1.19-1.31,2.058-2.889,2.554-4.563c0.502-1.69,0.621-3.47,0.317-5.164
		c-0.628-3.501-3.067-6.607-7.728-7.635c-2.352-0.52-4.26,0.542-5.404,2.158c-0.518,0.732-0.887,1.572-1.085,2.454
		c-0.201,0.888-0.228,1.808-0.06,2.684c0.391,2.031,1.801,3.829,4.469,4.393c0.916,0.194,1.388,0.797,1.055,1.349
		c-0.333,0.552-1.348,0.842-2.262,0.65c-4.119-0.872-6.241-3.362-6.771-6.125c-0.2-1.055-0.173-2.152,0.065-3.207
		c0.238-1.063,0.693-2.093,1.342-3.005c1.889-2.665,5.33-4.349,9.9-3.342c6.088,1.343,9.228,5.143,9.99,9.378
		c0.338,1.891,0.203,3.872-0.354,5.755c-0.563,1.896-1.558,3.7-2.933,5.212c-3.49,3.84-9.27,5.888-16.631,3.386
		c-8.893-3.018-12.279-12.195-15.617-21.236c-2.367-6.415-4.711-12.761-8.828-16.426c-3.063-2.729-6.771-4.283-10.533-4.72
		c-2.924-0.34-5.915-0.004-8.684,0.98c-2.875,1.022-5.525,2.738-7.647,5.123C94.957,11.163,93.204,14.88,92.67,19.465z" class="color c1"/>
    <path fill="#404040" d="M26.59,66.08c0.473,0.349,0.439,1.304-0.075,2.132c-0.514,0.828-1.316,1.216-1.791,0.866
		c-3.956-2.94-6.474-6.597-7.764-10.49c-1.157-3.495-1.332-7.196-0.672-10.773c0.677-3.688,2.23-7.229,4.503-10.283
		c2.79-3.755,6.64-6.724,11.234-8.246c5.718-1.895,12.58-0.716,19.519,0.476c9.027,1.549,18.188,3.124,24.172-2.125
		c4.086-3.582,4.837-7.89,3.694-11.461c-0.54-1.685-1.476-3.226-2.676-4.492c-1.214-1.278-2.694-2.273-4.313-2.855
		c-3.347-1.209-7.256-0.649-10.477,2.873c-1.625,1.777-1.661,3.959-0.832,5.759c0.373,0.814,0.919,1.554,1.582,2.167
		c0.67,0.617,1.452,1.101,2.294,1.393c1.953,0.68,4.215,0.356,6.04-1.673c0.624-0.696,1.382-0.805,1.693-0.239
		c0.313,0.564,0.056,1.59-0.566,2.284c-2.815,3.132-6.033,3.725-8.69,2.802c-1.013-0.353-1.951-0.927-2.746-1.662
		c-0.797-0.737-1.462-1.646-1.93-2.662c-1.366-2.968-1.102-6.792,2.057-10.245c4.205-4.603,9.065-5.422,13.115-3.961
		c1.806,0.65,3.456,1.757,4.807,3.182c1.36,1.435,2.425,3.199,3.048,5.146c1.582,4.942,0.465,10.97-5.382,16.097
		c-7.059,6.19-16.702,4.536-26.201,2.905c-6.74-1.157-13.405-2.301-18.638-0.568c-3.896,1.291-7.096,3.724-9.354,6.763
		c-1.756,2.362-2.962,5.121-3.494,8.011c-0.552,3-0.392,6.154,0.614,9.185C20.542,59.95,22.885,63.325,26.59,66.08z" class="color c1"/>
    <path fill="#404040" d="M33.92,146.615c0.539-0.234,1.348,0.271,1.809,1.13c0.46,0.86,0.395,1.749-0.146,1.983
		c-4.524,1.957-8.949,2.309-12.966,1.479c-3.607-0.744-6.899-2.444-9.666-4.804c-2.857-2.432-5.146-5.547-6.655-9.043
		c-1.856-4.291-2.505-9.109-1.525-13.852c1.219-5.896,5.67-11.252,10.173-16.667C20.798,99.8,26.742,92.654,25.19,84.847
		c-1.06-5.327-4.414-8.131-8.079-8.928c-1.729-0.377-3.529-0.336-5.228,0.07c-1.714,0.412-3.315,1.197-4.631,2.306
		c-2.718,2.295-4.189,5.962-2.75,10.511c0.727,2.294,2.6,3.418,4.572,3.601c0.892,0.083,1.806-0.019,2.669-0.287
		c0.868-0.271,1.677-0.707,2.353-1.291c1.564-1.353,2.416-3.472,1.57-6.065c-0.292-0.892-0.004-1.601,0.642-1.587
		c0.643,0.013,1.401,0.745,1.691,1.634c1.306,4.003,0.21,7.086-1.917,8.926c-0.814,0.702-1.778,1.225-2.812,1.546
		c-1.039,0.323-2.157,0.444-3.271,0.342c-3.254-0.303-6.432-2.442-7.845-6.904c-1.883-5.943-0.162-10.563,3.127-13.339
		c1.466-1.239,3.251-2.113,5.158-2.571c1.924-0.461,3.984-0.501,5.982-0.067c5.07,1.102,9.73,5.084,11.248,12.71
		c1.831,9.208-4.422,16.729-10.585,24.144c-4.371,5.256-8.696,10.459-9.81,15.857c-0.832,4.018-0.323,8.004,1.18,11.482
		c1.166,2.701,2.952,5.123,5.191,7.028c2.319,1.979,5.132,3.415,8.261,4.062C25.587,148.786,29.683,148.445,33.92,146.615z" class="color c1"/>
    <path fill="#404040" d="M133.969,17.472c-0.281-1.008-1.025-1.374-1.658-0.819c-0.636,0.554-0.92,1.82-0.639,2.827
		c1.13,4.012,2.357,8.483,2.876,12.411l0.001,0.008l-0.001,0.001c0.452,3.418,0.377,6.399-0.832,8.117
		c-2.127,3.021-4.767,3.862-7.112,3.381c-1.156-0.237-2.231-0.79-3.135-1.558c-0.863-0.737-1.563-1.665-2.01-2.693
		c-0.791-1.813-0.587-4.126,1.375-6.165c1.361-1.415,2.855-1.737,4.021-1.386c0.424,0.129,0.799,0.346,1.093,0.632
		c0.233,0.226,0.403,0.473,0.483,0.722c0.135,0.412-0.146,1.126-1.08,2.071c-0.615,0.619-0.848,1.904-0.524,2.869
		c0.325,0.964,1.084,1.244,1.696,0.625c2.483-2.516,2.914-5.407,2.135-7.777c-0.282-0.856-0.735-1.587-1.313-2.143
		c-0.516-0.498-1.145-0.873-1.842-1.084c-1.711-0.517-3.895-0.05-5.874,2.008c-3.666,3.809-3.905,8.452-2.254,12.241
		c0.647,1.483,1.622,2.793,2.808,3.802c1.144,0.976,2.486,1.672,3.914,1.964c2.985,0.613,6.377-0.505,9.16-4.46
		c2.148-3.051,2.395-7.503,1.751-12.375h-0.003C136.43,26.328,135.146,21.653,133.969,17.472z" class="color c1"/>
    <path fill="#404040" d="M188.456,88.155c0.729-0.748,0.677-1.576-0.121-1.848c-0.797-0.273-2.035,0.113-2.767,0.86
		c-2.91,2.983-6.168,6.283-9.311,8.697l-0.006,0.004h-0.002c-2.732,2.099-5.354,3.526-7.445,3.336
		c-3.678-0.331-5.729-2.194-6.484-4.468c-0.371-1.119-0.432-2.329-0.217-3.493c0.205-1.114,0.66-2.186,1.326-3.088
		c1.174-1.59,3.279-2.57,6.026-1.891c1.905,0.472,2.935,1.603,3.21,2.788c0.102,0.432,0.1,0.865,0,1.264
		c-0.078,0.316-0.21,0.584-0.383,0.778c-0.29,0.323-1.049,0.436-2.336,0.102c-0.844-0.223-2.071,0.217-2.745,0.98
		c-0.675,0.762-0.537,1.561,0.305,1.781c3.423,0.894,6.142-0.181,7.802-2.04c0.604-0.673,1.01-1.431,1.203-2.208
		c0.174-0.697,0.184-1.428,0.018-2.137c-0.408-1.74-1.903-3.398-4.676-4.084c-5.131-1.271-9.273,0.846-11.729,4.168
		c-0.961,1.304-1.608,2.803-1.89,4.333c-0.271,1.479-0.202,2.99,0.258,4.373c0.961,2.891,3.627,5.27,8.441,5.703
		c3.717,0.336,7.695-1.677,11.594-4.672l-0.002-0.002C182.018,94.715,185.424,91.266,188.456,88.155z" class="color c1"/>
    <path fill="#404040" d="M154.484,170.684c1.015,0.258,1.705-0.203,1.541-1.031c-0.162-0.824-1.116-1.703-2.129-1.963
		c-4.039-1.028-8.525-2.199-12.188-3.715l-0.004-0.004l-0.002-0.002c-3.188-1.316-5.73-2.873-6.614-4.779
		c-1.552-3.35-0.962-6.059,0.63-7.849c0.783-0.883,1.799-1.539,2.916-1.937c1.068-0.379,2.223-0.521,3.338-0.396
		c1.963,0.224,3.865,1.556,4.649,4.274c0.545,1.888,0.078,3.342-0.81,4.175c-0.322,0.306-0.699,0.521-1.094,0.631
		c-0.313,0.091-0.609,0.112-0.865,0.06c-0.427-0.09-0.902-0.691-1.256-1.974c-0.229-0.84-1.225-1.685-2.223-1.888
		c-0.998-0.2-1.618,0.316-1.391,1.156c0.938,3.41,3.229,5.227,5.668,5.736c0.885,0.186,1.744,0.156,2.514-0.063
		c0.689-0.199,1.327-0.556,1.857-1.056c1.305-1.222,1.992-3.348,1.199-6.091c-1.466-5.077-5.367-7.606-9.475-8.071
		c-1.607-0.183-3.23,0.006-4.696,0.527c-1.417,0.506-2.69,1.32-3.657,2.41c-2.022,2.277-2.75,5.773-0.719,10.163
		c1.57,3.388,5.301,5.824,9.844,7.703V166.7C145.585,168.384,150.275,169.611,154.484,170.684z" class="color c1"/>
    <path fill="#404040" d="M66.03,182.529c0.283,1.007,1.027,1.371,1.66,0.818c0.636-0.556,0.92-1.822,0.639-2.828
		c-1.13-4.012-2.358-8.484-2.876-12.412l-0.002-0.006l0.002-0.002c-0.452-3.416-0.377-6.398,0.832-8.117
		c2.127-3.019,4.767-3.859,7.11-3.381c1.158,0.237,2.233,0.789,3.137,1.56c0.862,0.733,1.563,1.665,2.01,2.692
		c0.791,1.812,0.586,4.123-1.375,6.162c-1.361,1.418-2.856,1.739-4.021,1.389c-0.425-0.129-0.8-0.348-1.094-0.633
		c-0.235-0.226-0.402-0.474-0.483-0.722c-0.136-0.411,0.146-1.126,1.08-2.071c0.613-0.619,0.848-1.904,0.525-2.869
		c-0.326-0.963-1.086-1.243-1.697-0.625c-2.485,2.515-2.915,5.406-2.135,7.776c0.283,0.856,0.736,1.587,1.313,2.144
		c0.516,0.498,1.145,0.873,1.842,1.084c1.711,0.517,3.896,0.05,5.873-2.008c3.665-3.808,3.906-8.451,2.254-12.241
		c-0.647-1.482-1.622-2.794-2.806-3.802c-1.144-0.976-2.488-1.672-3.915-1.963c-2.984-0.615-6.378,0.504-9.16,4.459
		c-2.148,3.053-2.395,7.502-1.751,12.377l0.003-0.002C63.571,173.67,64.852,178.348,66.03,182.529z" class="color c1"/>
    <path fill="#404040" d="M11.545,111.846c-0.732,0.748-0.678,1.576,0.121,1.848c0.797,0.272,2.035-0.112,2.765-0.861
		c2.91-2.982,6.169-6.283,9.312-8.696l0.005-0.004h0.002c2.733-2.099,5.355-3.526,7.446-3.337c3.677,0.33,5.728,2.196,6.483,4.471
		c0.373,1.117,0.434,2.326,0.217,3.491c-0.204,1.115-0.658,2.187-1.325,3.087c-1.175,1.592-3.279,2.571-6.027,1.893
		c-1.906-0.473-2.933-1.604-3.21-2.788c-0.101-0.433-0.1-0.866,0.001-1.263c0.078-0.317,0.208-0.586,0.383-0.779
		c0.289-0.324,1.049-0.438,2.335-0.102c0.844,0.223,2.073-0.219,2.746-0.981c0.674-0.763,0.536-1.56-0.307-1.78
		c-3.421-0.893-6.141,0.182-7.802,2.039c-0.602,0.674-1.007,1.432-1.201,2.208c-0.173,0.696-0.183,1.429-0.019,2.138
		c0.408,1.74,1.905,3.398,4.679,4.084c5.129,1.271,9.271-0.846,11.726-4.17c0.963-1.302,1.609-2.803,1.891-4.331
		c0.272-1.479,0.202-2.989-0.257-4.374c-0.963-2.89-3.627-5.269-8.442-5.702c-3.719-0.335-7.695,1.679-11.594,4.672l0.001,0.002
		C17.984,105.287,14.577,108.732,11.545,111.846z" class="color c1"/>
    <path fill="#404040" d="M45.514,29.316c-1.012-0.258-1.702,0.203-1.539,1.031c0.162,0.825,1.117,1.705,2.129,1.965
		c4.039,1.026,8.525,2.198,12.188,3.713l0.005,0.004l0.002,0.001c3.186,1.317,5.73,2.875,6.612,4.779
		c1.552,3.352,0.963,6.059-0.628,7.85c-0.783,0.883-1.8,1.537-2.917,1.936c-1.068,0.38-2.223,0.522-3.336,0.396
		c-1.966-0.222-3.866-1.556-4.651-4.273c-0.545-1.887-0.077-3.342,0.81-4.175c0.324-0.305,0.699-0.52,1.093-0.631
		c0.313-0.091,0.61-0.112,0.866-0.059c0.427,0.087,0.903,0.691,1.256,1.972c0.229,0.84,1.225,1.686,2.223,1.888
		c0.998,0.201,1.619-0.315,1.391-1.156c-0.938-3.408-3.229-5.227-5.668-5.736c-0.884-0.185-1.743-0.157-2.513,0.063
		c-0.692,0.197-1.33,0.555-1.858,1.055c-1.305,1.222-1.991,3.347-1.2,6.091c1.465,5.078,5.367,7.607,9.474,8.072
		c1.61,0.182,3.231-0.009,4.695-0.53c1.418-0.502,2.693-1.318,3.66-2.407c2.023-2.278,2.75-5.775,0.718-10.163
		c-1.57-3.389-5.301-5.825-9.844-7.705v0.002C54.415,31.617,49.724,30.388,45.514,29.316z" class="color c1"/>
    <path fill="#404040" d="M51.849,33.267c-1.006-0.292-1.364-1.038-0.805-1.669c0.56-0.629,1.827-0.904,2.831-0.612
		c4.003,1.16,40.693,6.789,44.617,7.34l0.007,0.001l0.001-0.001c3.412,0.479,6.396,0.429,8.123-0.768
		c3.035-2.101,3.902-4.734,3.439-7.084c-0.229-1.158-0.772-2.238-1.533-3.147c-0.729-0.868-1.652-1.576-2.678-2.032
		c-1.804-0.804-4.119-0.618-6.174,1.327c-1.426,1.351-1.762,2.84-1.419,4.008c0.125,0.427,0.34,0.801,0.621,1.099
		c0.225,0.236,0.471,0.405,0.718,0.489c0.411,0.139,1.129-0.139,2.081-1.065c0.627-0.607,1.911-0.829,2.873-0.5
		c0.963,0.334,1.236,1.096,0.613,1.701c-2.537,2.465-5.433,2.87-7.795,2.072c-0.854-0.288-1.58-0.748-2.134-1.328
		c-0.493-0.521-0.863-1.152-1.067-1.853c-0.504-1.714-0.019-3.893,2.055-5.857c3.838-3.634,8.483-3.837,12.259-2.154
		c1.479,0.659,2.781,1.646,3.779,2.838c0.965,1.151,1.65,2.502,1.932,3.931c0.59,2.99-0.557,6.373-4.533,9.124
		c-3.069,2.124-7.521,2.334-12.391,1.65v-0.002C92.916,40.163,56.021,34.477,51.849,33.267z" class="color c1"/>
    <path fill="#404040" d="M133.716,24.934c-0.249-1.016,0.22-1.701,1.043-1.533c0.825,0.171,1.697,1.131,1.947,2.146
		c0.995,4.047,14.468,38.637,15.95,42.309l0.004,0.008l0.001-0.002c1.293,3.197,2.829,5.756,4.728,6.653
		c3.336,1.579,6.051,1.012,7.854-0.565c0.889-0.775,1.554-1.785,1.958-2.899c0.39-1.065,0.541-2.219,0.424-3.334
		c-0.205-1.967-1.524-3.879-4.235-4.685c-1.883-0.562-3.342-0.106-4.182,0.775c-0.307,0.32-0.523,0.695-0.641,1.087
		c-0.094,0.313-0.116,0.61-0.065,0.866c0.085,0.427,0.685,0.908,1.963,1.271c0.839,0.238,1.675,1.239,1.869,2.237
		c0.192,1.001-0.329,1.618-1.168,1.382c-3.399-0.965-5.201-3.27-5.69-5.714c-0.177-0.887-0.143-1.743,0.086-2.513
		c0.203-0.688,0.563-1.323,1.067-1.852c1.231-1.291,3.363-1.963,6.101-1.147c5.066,1.506,7.564,5.429,7.996,9.539
		c0.168,1.608-0.035,3.23-0.565,4.691c-0.517,1.412-1.343,2.681-2.441,3.639c-2.295,2.005-5.796,2.704-10.167,0.636
		c-3.375-1.597-5.783-5.347-7.625-9.904h0.002C148.277,63.944,134.755,29.152,133.716,24.934z" class="color c1"/>
    <path fill="#404040" d="M181.869,91.666c0.754-0.724,1.581-0.662,1.847,0.137c0.267,0.8-0.131,2.035-0.883,2.759
		c-3.009,2.887-26.228,31.846-28.666,34.97l-0.007,0.006l0.003,0.001c-2.122,2.715-3.57,5.325-3.397,7.419
		c0.301,3.681,2.149,5.744,4.416,6.521c1.116,0.381,2.323,0.451,3.491,0.246c1.117-0.197,2.191-0.644,3.099-1.303
		c1.6-1.16,2.598-3.259,1.938-6.011c-0.455-1.91-1.579-2.946-2.762-3.233c-0.433-0.104-0.864-0.105-1.263-0.011
		c-0.315,0.077-0.588,0.204-0.783,0.377c-0.325,0.286-0.442,1.047-0.119,2.335c0.215,0.846-0.235,2.071-1.004,2.738
		c-0.768,0.668-1.563,0.521-1.777-0.321c-0.863-3.428,0.229-6.138,2.104-7.786c0.679-0.596,1.438-0.994,2.218-1.183
		c0.698-0.167,1.43-0.171,2.138,0c1.736,0.422,3.381,1.933,4.046,4.709c1.228,5.142-0.92,9.267-4.264,11.694
		c-1.312,0.949-2.815,1.584-4.347,1.854c-1.481,0.261-2.994,0.179-4.373-0.294c-2.883-0.982-5.238-3.668-5.633-8.486
		c-0.307-3.722,1.74-7.683,4.766-11.558l0.001,0.002C155.365,123.783,178.732,94.676,181.869,91.666z" class="color c1"/>
    <path fill="#404040" d="M148.152,166.732c1.002,0.291,1.363,1.039,0.806,1.67c-0.562,0.629-1.829,0.904-2.832,0.611
		c-4.003-1.16-40.692-6.791-44.618-7.341l-0.006-0.002l-0.001,0.003c-3.413-0.479-6.396-0.429-8.124,0.768
		c-3.035,2.101-3.901,4.734-3.438,7.084c0.229,1.158,0.772,2.238,1.532,3.146c0.729,0.87,1.653,1.578,2.677,2.033
		c1.806,0.804,4.12,0.62,6.175-1.325c1.426-1.353,1.763-2.842,1.42-4.011c-0.126-0.426-0.341-0.799-0.624-1.096
		c-0.223-0.237-0.469-0.405-0.716-0.49c-0.41-0.141-1.129,0.139-2.081,1.064c-0.625,0.607-1.912,0.83-2.873,0.498
		c-0.961-0.33-1.235-1.093-0.612-1.699c2.537-2.465,5.433-2.871,7.794-2.071c0.855,0.289,1.581,0.748,2.135,1.33
		c0.493,0.519,0.862,1.149,1.067,1.849c0.502,1.717,0.019,3.895-2.056,5.857c-3.837,3.636-8.482,3.837-12.259,2.154
		c-1.479-0.658-2.781-1.646-3.779-2.836c-0.966-1.152-1.65-2.502-1.933-3.933c-0.588-2.988,0.559-6.372,4.533-9.123
		c3.071-2.125,7.522-2.334,12.392-1.651v0.002C107.085,159.838,143.979,165.521,148.152,166.732z" class="color c1"/>
    <path fill="#404040" d="M66.283,175.066c0.25,1.017-0.216,1.701-1.041,1.531c-0.825-0.168-1.696-1.131-1.948-2.146
		c-0.995-4.047-14.466-38.635-15.952-42.309l-0.003-0.008l0,0c-1.292-3.193-2.828-5.756-4.726-6.65
		c-3.337-1.58-6.052-1.012-7.855,0.563c-0.889,0.776-1.553,1.787-1.958,2.901c-0.39,1.063-0.54,2.217-0.424,3.333
		c0.206,1.966,1.524,3.879,4.237,4.686c1.882,0.56,3.341,0.104,4.181-0.776c0.307-0.321,0.523-0.693,0.641-1.088
		c0.091-0.313,0.115-0.608,0.064-0.865c-0.084-0.426-0.685-0.908-1.962-1.271c-0.84-0.236-1.676-1.238-1.869-2.238
		c-0.194-0.998,0.329-1.615,1.166-1.379c3.4,0.963,5.203,3.27,5.691,5.713c0.178,0.888,0.144,1.744-0.084,2.514
		c-0.203,0.689-0.565,1.324-1.069,1.85c-1.232,1.295-3.362,1.965-6.101,1.151c-5.065-1.509-7.563-5.431-7.995-9.54
		c-0.168-1.609,0.035-3.232,0.566-4.691c0.516-1.412,1.342-2.682,2.44-3.64c2.296-2.005,5.797-2.703,10.169-0.636
		c3.372,1.597,5.782,5.348,7.623,9.904h-0.002C51.723,136.055,65.246,170.848,66.283,175.066z" class="color c1"/>
    <path fill="#404040" d="M18.132,108.333c-0.755,0.726-1.582,0.664-1.848-0.136c-0.265-0.801,0.13-2.035,0.884-2.76
		c3.008-2.886,26.228-31.846,28.666-34.969l0.007-0.007l-0.003-0.001c2.122-2.716,3.568-5.326,3.397-7.418
		c-0.301-3.681-2.149-5.746-4.416-6.521c-1.117-0.383-2.326-0.451-3.491-0.247c-1.116,0.198-2.191,0.643-3.098,1.302
		c-1.601,1.161-2.598,3.258-1.939,6.011c0.455,1.911,1.579,2.948,2.761,3.234c0.434,0.104,0.864,0.105,1.263,0.009
		c0.315-0.074,0.587-0.202,0.784-0.375c0.325-0.287,0.442-1.047,0.117-2.336c-0.213-0.844,0.237-2.069,1.004-2.736
		c0.768-0.669,1.564-0.525,1.779,0.32c0.864,3.427-0.231,6.138-2.104,7.785c-0.678,0.596-1.438,0.995-2.217,1.185
		c-0.698,0.165-1.43,0.171-2.139,0c-1.735-0.424-3.381-1.934-4.045-4.711c-1.229-5.14,0.92-9.266,4.264-11.694
		c1.312-0.95,2.814-1.585,4.347-1.854c1.481-0.261,2.992-0.181,4.372,0.293c2.883,0.983,5.239,3.667,5.634,8.487
		c0.305,3.721-1.741,7.682-4.767,11.556l-0.001-0.002C44.636,76.218,21.267,105.325,18.132,108.333z" class="color c1"/>
  </g>
</svg>