<?xml version="1.0" encoding="utf-8"?>
<!-- Generator: Adobe Illustrator 16.0.0, SVG Export Plug-In . SVG Version: 6.00 Build 0)  -->
<!DOCTYPE svg PUBLIC "-//W3C//DTD SVG 1.1//EN" "http://www.w3.org/Graphics/SVG/1.1/DTD/svg11.dtd">
<svg version="1.1" id="图层_1" xmlns="http://www.w3.org/2000/svg" xmlns:xlink="http://www.w3.org/1999/xlink" x="0px" y="0px"
	 width="258px" height="36px" viewBox="0 0 258 36" enable-background="new 0 0 258 36" xml:space="preserve">
<g>
	<path fill="#545454" d="M13.407,13.167l-0.091-0.883c0-0.195,0.083-0.348,0.249-0.452c0.86-0.574,2.075-1.049,3.645-1.427
		c0.649-0.136,1.185-0.203,1.607-0.203c2.143,0,3.689,1.313,4.64,3.938c0.332,0.937,0.498,1.925,0.498,2.966
		c0,1.57-0.416,3.154-1.245,4.754c-0.83,1.6-1.683,2.89-2.558,3.87c-0.482,0.514-0.996,0.771-1.539,0.771
		c-0.543,0-0.966-0.212-1.267-0.635c-0.302-0.422-0.453-0.961-0.453-1.618c0-0.656,0.121-1.393,0.362-2.207
		c0.242-0.814,0.619-1.327,1.132-1.539c-0.076,0.348-0.113,0.713-0.113,1.098c0,0.386,0.132,0.857,0.396,1.415
		c0.264,0.559,0.577,0.838,0.939,0.838c0.362,0,0.657-0.212,0.883-0.634c0.936-1.69,1.403-3.614,1.403-5.772
		c0-2.565-0.671-4.226-2.015-4.98c-0.393-0.21-0.77-0.316-1.132-0.316c-0.362,0-0.754,0.106-1.177,0.316
		c0.121,0.649,0.181,1.469,0.181,2.456c0,0.988-0.17,2.566-0.509,4.731c-0.34,2.165-0.51,3.813-0.51,4.945v0.725
		c0,0.393-0.09,0.649-0.271,0.771c-0.181,0.12-0.37,0.181-0.566,0.181c-0.558,0-0.95-1.033-1.177-3.101
		c-0.09-0.831-0.166-1.389-0.227-1.676c0.045-0.015,0.113-0.022,0.204-0.022c0.271,0,0.588,0.196,0.951,0.589v-0.589
		c-0.016-1.192,0.143-3.365,0.475-6.519c0.015-0.121,0.022-0.344,0.022-0.669c0-0.324-0.03-0.66-0.09-1.007
		c-0.106,0.061-0.317,0.219-0.634,0.476c-0.739,0.604-1.264,0.905-1.573,0.905c-0.31,0-0.464-0.265-0.464-0.793L13.407,13.167z"/>
	<path fill="#545454" d="M31.131,22.99c0,2.295-1.163,3.441-3.486,3.441c-0.966,0-1.671-0.248-2.116-0.747
		c-0.445-0.498-0.834-1.26-1.166-2.285c-0.121-0.393-0.181-0.813-0.181-1.258c0-0.444,0.2-1.041,0.6-1.788
		c0.399-0.746,0.841-1.398,1.324-1.958c0.06-0.829,0.249-1.245,0.566-1.245c0.166,0,0.279,0.099,0.339,0.295
		c0.317-0.286,0.702-0.566,1.154-0.838c0.453-0.271,0.86-0.407,1.223-0.407s0.736,0.211,1.121,0.634s0.577,0.856,0.577,1.302
		s-0.31,1.053-0.928,1.822c-1.162,1.448-2.075,2.173-2.739,2.173c-0.483,0-0.86-0.399-1.132-1.199
		c-0.015,0.03-0.087,0.154-0.215,0.372c-0.128,0.22-0.219,0.383-0.271,0.488c-0.053,0.104-0.124,0.248-0.215,0.429
		c-0.151,0.348-0.227,0.657-0.227,0.929c0,0.619,0.309,0.929,0.928,0.929c1.026,0,1.897-0.216,2.614-0.646
		c0.717-0.431,1.43-1.083,2.14-1.958C31.1,22.139,31.131,22.645,31.131,22.99z M28.516,19.369c0.475-0.588,0.713-0.992,0.713-1.211
		c0-0.218-0.08-0.328-0.238-0.328c-0.158,0-0.43,0.196-0.814,0.589s-0.69,0.731-0.917,1.018c-0.03,0.182-0.045,0.317-0.045,0.408
		c0,0.271,0.075,0.407,0.227,0.407C27.683,20.252,28.041,19.958,28.516,19.369z"/>
	<path fill="#545454" d="M32.081,15.59l1.086-0.091c0.513,0,1.042,0.257,1.584,0.77c0.286,0.271,0.43,0.535,0.43,0.791
		c0,0.469-0.4,2.355-1.2,5.659c-0.031,0.151-0.045,0.288-0.045,0.407c0,0.121,0.03,0.183,0.091,0.183
		c0.06,0,0.158-0.068,0.294-0.204c0.483-0.604,0.822-1.2,1.019-1.789c0.196-0.588,0.339-1.021,0.43-1.301s0.173-0.676,0.25-1.188
		c0.075-0.513,0.128-0.876,0.158-1.086c0.045-0.288,0.128-1.057,0.249-2.31c0.045-0.286,0.131-0.43,0.26-0.43
		s0.215,0.112,0.261,0.339c0.317,1.72,0.475,3.472,0.475,5.252c0,1.781-0.415,3.29-1.245,4.527
		c-0.423,0.664-0.906,0.995-1.449,0.995c-0.227,0-0.445-0.06-0.657-0.181c-0.588-0.271-1.056-0.762-1.403-1.472
		c-0.348-0.708-0.521-1.418-0.521-2.127c0-0.498,0.057-0.947,0.17-1.348c0.113-0.398,0.222-0.772,0.328-1.12
		c0.167-0.543,0.249-0.886,0.249-1.03c0-0.144-0.139-0.274-0.418-0.396c-0.279-0.12-0.46-0.283-0.543-0.486
		c-0.083-0.204-0.201-0.604-0.351-1.2c-0.15-0.596-0.227-0.946-0.227-1.053c0-0.105,0.053-0.158,0.159-0.158L32.081,15.59z"/>
	<path fill="#545454" d="M43.693,20.637c0,1.826-0.528,3.448-1.584,4.866c-0.377,0.483-0.796,0.726-1.256,0.726
		c-0.46,0-0.827-0.114-1.098-0.34c-0.981-0.815-1.472-2.211-1.472-4.188c0-1.374,0.37-3.124,1.11-5.252
		c0.06-0.15,0.113-0.245,0.158-0.283s0.125-0.057,0.237-0.057c0.113,0,0.253-0.079,0.419-0.237s0.441-0.237,0.827-0.237
		c0.385,0,0.773,0.144,1.166,0.43c0.392,0.287,0.679,0.671,0.86,1.154C43.481,18.351,43.693,19.49,43.693,20.637z M41.814,19.165
		c0-1.389-0.174-2.082-0.521-2.082c-0.167,0-0.317,0.129-0.453,0.385c-0.604,1.435-0.905,3.146-0.905,5.139
		c0,0.498,0.007,0.876,0.022,1.132C41.195,22.787,41.814,21.263,41.814,19.165z"/>
	<path fill="#545454" d="M52.045,20.954c0,0.739-0.038,1.381-0.113,1.924c-0.076,0.543-0.348,1.271-0.815,2.185
		s-0.928,1.369-1.38,1.369c-0.196,0-0.385-0.105-0.566-0.317c-0.891-1.071-1.336-2.089-1.336-3.056c0-0.286,0.098-0.942,0.294-1.969
		c0.272-1.539,0.408-2.396,0.408-2.569s-0.027-0.261-0.08-0.261s-0.109,0.062-0.17,0.182c-0.392,0.694-0.709,1.482-0.95,2.365
		c-0.242,0.883-0.4,1.626-0.476,2.229c-0.076,0.604-0.158,1.449-0.249,2.535c0,0.377-0.098,0.566-0.294,0.566
		c-0.091,0-0.242-0.083-0.453-0.249c-0.815-0.694-1.223-1.645-1.223-2.853c0-0.513,0.049-1.223,0.147-2.128
		c0.098-0.905,0.154-1.531,0.169-1.879c0.166-2.097,0.37-3.146,0.611-3.146c0.136,0,0.234,0.147,0.294,0.442
		c0.06,0.294,0.09,0.626,0.09,0.996c0,0.369,0.011,0.705,0.034,1.007c0.023,0.303,0.08,0.453,0.17,0.453
		c0.091,0,0.219-0.241,0.385-0.725s0.411-0.97,0.736-1.46c0.324-0.49,0.675-0.735,1.052-0.735s0.709,0.083,0.996,0.248
		c0.648,0.333,0.973,1.026,0.973,2.083c0,0.362-0.045,0.808-0.136,1.335c-0.09,0.528-0.169,1.106-0.237,1.731
		c-0.068,0.627-0.102,0.981-0.102,1.064s0.03,0.124,0.09,0.124c0.121,0,0.427-0.301,0.917-0.905c0.49-0.604,0.826-0.905,1.007-0.905
		C51.978,20.637,52.045,20.743,52.045,20.954z"/>
	<path fill="#545454" d="M57.116,15.793c0.392,0,0.86,0.154,1.403,0.464c0.543,0.31,0.815,0.672,0.815,1.086
		c0,0.416-0.163,0.79-0.487,1.121c-0.325,0.332-0.69,0.498-1.098,0.498c-0.619,0-1.049-0.286-1.29-0.859
		c-0.031-0.091-0.08-0.137-0.147-0.137s-0.317,0.091-0.747,0.272c-0.43,0.181-0.721,0.31-0.872,0.384
		c-0.151,0.076-0.226,0.147-0.226,0.215c0,0.068,0.105,0.155,0.317,0.261c2.686,0.725,4.029,1.834,4.029,3.327
		c0,0.529-0.208,1.075-0.622,1.642c-0.416,0.566-1,1.029-1.754,1.392s-1.479,0.544-2.173,0.544c-0.694,0-1.181-0.189-1.46-0.566
		c-0.28-0.377-0.419-0.92-0.419-1.629c0-0.71,0.249-1.238,0.747-1.586c0.664-0.437,1.208-0.655,1.63-0.655
		c0.105,0,0.159,0.026,0.159,0.079s-0.117,0.147-0.351,0.283c-0.234,0.136-0.483,0.331-0.747,0.588
		c-0.264,0.257-0.396,0.464-0.396,0.622c0,0.159,0.182,0.238,0.543,0.238c0.965,0,1.917-0.271,2.852-0.814
		c0.211-0.105,0.317-0.231,0.317-0.374c0-0.144-0.158-0.291-0.475-0.441s-0.849-0.369-1.596-0.656
		c-0.748-0.287-1.336-0.532-1.766-0.736c-0.43-0.203-0.645-0.539-0.645-1.007c0-0.136,0.034-0.328,0.102-0.577
		s0.109-0.419,0.124-0.51c0.075-0.528,0.313-0.891,0.713-1.086c0.399-0.196,1.264-0.604,2.591-1.223
		C56.415,15.847,56.724,15.793,57.116,15.793z"/>
	<path fill="#545454" d="M67.03,22.81c0,1.192-0.219,2.105-0.657,2.739c-0.332,0.423-0.619,0.635-0.859,0.635
		c-0.242,0-0.483-0.121-0.725-0.363c-0.846-0.98-1.268-2.157-1.268-3.531c0-0.452,0.053-0.92,0.158-1.402
		c0.182-0.831,0.271-1.366,0.271-1.607s-0.015-0.362-0.045-0.362c-0.09,0-0.687,2.074-1.788,6.224
		c-0.136,0.424-0.279,0.634-0.43,0.634c-0.407,0-0.89-0.701-1.449-2.104c-0.302-0.664-0.453-1.465-0.453-2.4
		c0-1.056,0.064-1.946,0.193-2.671c0.127-0.724,0.207-1.173,0.237-1.347c0.03-0.173,0.087-0.453,0.17-0.837
		c0.083-0.386,0.139-0.638,0.169-0.759c0.181-0.755,0.302-1.291,0.363-1.607c-0.377,0-0.566-0.113-0.566-0.339
		c0-0.105,0.045-0.22,0.136-0.341c0.83-1.313,1.418-2.475,1.766-3.484c0.06-0.258,0.181-0.386,0.362-0.386
		c0.241,0,0.422,0.234,0.543,0.702c0.121,0.468,0.181,0.875,0.181,1.222c0,0.876-0.287,1.577-0.86,2.105
		c-0.679,4.211-1.019,6.421-1.019,6.632c0,0.212,0.03,0.317,0.09,0.317c0.06,0,0.17-0.14,0.328-0.419
		c0.158-0.278,0.411-0.814,0.758-1.607c0.347-0.792,0.634-1.376,0.86-1.754c0.333-0.559,0.755-0.837,1.268-0.837
		c0.815,0,1.222,0.762,1.222,2.286c0,1.236-0.287,2.799-0.859,4.686c-0.016,0.06-0.023,0.121-0.023,0.181
		c0,0.166,0.08,0.249,0.238,0.249s0.438-0.219,0.838-0.656c0.399-0.438,0.641-0.657,0.725-0.657
		C66.988,21.949,67.03,22.237,67.03,22.81z"/>
	<path fill="#545454" d="M72.055,20.456c0.166-0.257,0.283-0.386,0.352-0.386c0.067,0,0.119,0.189,0.158,0.566
		c0.037,0.378,0.057,0.879,0.057,1.505c0,0.627-0.147,1.299-0.441,2.016c-0.295,0.717-0.721,1.293-1.279,1.731
		c-0.316,0.241-0.607,0.362-0.871,0.362s-0.483-0.058-0.656-0.17c-0.174-0.113-0.328-0.298-0.465-0.555
		c-0.226-0.362-0.449-0.829-0.668-1.403c-0.219-0.573-0.328-1.192-0.328-1.856c0-0.663,0.053-1.335,0.158-2.015
		c0.106-0.68,0.159-1.135,0.159-1.37c0-0.233-0.12-0.534-0.362-0.905c-0.242-0.369-0.362-0.591-0.362-0.667s0.026-0.155,0.079-0.238
		c0.053-0.082,0.121-0.165,0.204-0.248s0.166-0.155,0.249-0.216c0.082-0.06,0.177-0.136,0.283-0.227
		c0.347-0.286,0.664-0.43,0.951-0.43c0.285,0,0.539,0.099,0.758,0.294c0.219,0.197,0.324,0.536,0.316,1.02
		c-0.008,0.482-0.125,1.396-0.351,2.738c-0.287,1.721-0.431,2.709-0.431,2.966s0.068,0.385,0.204,0.385
		C70.07,23.354,70.832,22.388,72.055,20.456z M71.828,10.405c0,0.498-0.211,1.188-0.634,2.071c-0.423,0.884-0.822,1.521-1.199,1.913
		c-0.061,0.09-0.151,0.136-0.271,0.136c-0.378,0-0.565-0.302-0.565-0.905s0.264-1.448,0.791-2.536
		c0.105-0.226,0.174-0.46,0.204-0.701s0.05-0.381,0.058-0.419c0.007-0.037,0.014-0.068,0.021-0.09
		c0.008-0.023,0.016-0.053,0.023-0.091s0.015-0.068,0.022-0.091c0.007-0.022,0.019-0.045,0.034-0.068
		c0.014-0.021,0.029-0.041,0.045-0.056c0.045-0.03,0.166-0.045,0.361-0.045c0.197,0,0.431,0.083,0.702,0.248
		C71.693,9.938,71.828,10.149,71.828,10.405z"/>
	<path fill="#545454" d="M79.842,20.887c0.105,0,0.158,0.313,0.158,0.938s-0.211,1.256-0.634,1.891
		c-0.181,0.362-0.472,0.78-0.871,1.256s-0.668,0.767-0.804,0.871c-0.407,0.287-0.736,0.431-0.984,0.431
		c-0.25,0-0.435-0.016-0.555-0.045c-0.121-0.03-0.238-0.095-0.352-0.192c-0.113-0.099-0.203-0.174-0.271-0.227
		c-0.067-0.053-0.15-0.159-0.249-0.317c-0.098-0.158-0.162-0.261-0.192-0.306c-0.03-0.046-0.098-0.165-0.203-0.362
		c-0.105-0.196-0.158-0.301-0.158-0.316c-0.287-0.528-0.431-1.03-0.431-1.506c0-0.475,0.042-0.92,0.124-1.336
		c0.083-0.414,0.216-0.923,0.396-1.527c0.182-0.603,0.295-0.988,0.34-1.154c-0.227,0.287-0.528,0.597-0.905,0.929
		c-0.151,0.121-0.313,0.181-0.487,0.181s-0.316-0.079-0.43-0.238c-0.113-0.157-0.26-0.501-0.441-1.029s-0.271-0.886-0.271-1.075
		c0-0.188,0.12-0.482,0.361-0.883c0.242-0.399,0.385-0.668,0.431-0.804c0.075-0.271,0.188-0.407,0.339-0.407
		c0.076,0,0.258,0.078,0.544,0.237c0.286,0.158,0.476,0.465,0.565,0.917c0.031,0.181,0.099,0.271,0.204,0.271
		c0.046,0,0.178-0.083,0.396-0.249c0.218-0.166,0.46-0.249,0.724-0.249s0.66,0.241,1.189,0.725c0.181,0.181,0.271,0.438,0.271,0.77
		s-0.02,0.566-0.057,0.702c-0.039,0.136-0.08,0.227-0.125,0.271c-0.136,0.105-0.238,0.253-0.306,0.441
		c-0.067,0.189-0.271,0.897-0.61,2.127c-0.34,1.23-0.51,1.906-0.51,2.026c0,0.121,0.045,0.181,0.135,0.181
		c0.121,0,0.604-0.362,1.449-1.086c0.846-0.725,1.456-1.26,1.834-1.607C79.684,20.97,79.812,20.887,79.842,20.887z"/>
	<path fill="#545454" d="M86.746,22.99c0,2.295-1.163,3.441-3.486,3.441c-0.967,0-1.672-0.248-2.117-0.747
		c-0.445-0.498-0.834-1.26-1.166-2.285c-0.121-0.393-0.181-0.813-0.181-1.258c0-0.444,0.2-1.041,0.601-1.788
		c0.398-0.746,0.841-1.398,1.324-1.958c0.06-0.829,0.248-1.245,0.565-1.245c0.165,0,0.278,0.099,0.339,0.295
		c0.317-0.286,0.702-0.566,1.154-0.838c0.453-0.271,0.861-0.407,1.223-0.407c0.363,0,0.736,0.211,1.121,0.634
		S86.7,17.69,86.7,18.136s-0.31,1.053-0.929,1.822c-1.162,1.448-2.074,2.173-2.738,2.173c-0.483,0-0.86-0.399-1.132-1.199
		c-0.015,0.03-0.087,0.154-0.216,0.372c-0.128,0.22-0.219,0.383-0.271,0.488c-0.053,0.104-0.123,0.248-0.215,0.429
		c-0.15,0.348-0.227,0.657-0.227,0.929c0,0.619,0.31,0.929,0.929,0.929c1.026,0,1.897-0.216,2.614-0.646
		c0.717-0.431,1.43-1.083,2.14-1.958C86.715,22.139,86.746,22.645,86.746,22.99z M84.131,19.369
		c0.475-0.588,0.713-0.992,0.713-1.211c0-0.218-0.079-0.328-0.238-0.328c-0.158,0-0.43,0.196-0.814,0.589s-0.689,0.731-0.916,1.018
		c-0.031,0.182-0.046,0.317-0.046,0.408c0,0.271,0.075,0.407,0.227,0.407C83.297,20.252,83.656,19.958,84.131,19.369z"/>
</g>
</svg>
