<?xml version="1.0" encoding="utf-8"?>
<!-- Generator: Adobe Illustrator 16.0.0, SVG Export Plug-In . SVG Version: 6.00 Build 0)  -->
<!DOCTYPE svg PUBLIC "-//W3C//DTD SVG 1.1//EN" "http://www.w3.org/Graphics/SVG/1.1/DTD/svg11.dtd">
<svg version="1.1" id="图层_1" xmlns="http://www.w3.org/2000/svg" xmlns:xlink="http://www.w3.org/1999/xlink" x="0px" y="0px"
	 width="258px" height="36px" viewBox="0 0 258 36" enable-background="new 0 0 258 36" xml:space="preserve">
<g>
	<path fill="#545454" d="M13.257,9.263h4.884c0.502,0,0.984,0.035,1.445,0.104c0.46,0.07,0.888,0.193,1.283,0.372
		c0.394,0.178,0.753,0.427,1.078,0.745c0.324,0.317,0.601,0.725,0.83,1.221c0.229,0.496,0.405,1.094,0.53,1.793
		c0.124,0.699,0.186,1.519,0.186,2.46c0,0.974-0.057,1.82-0.171,2.543c-0.115,0.722-0.28,1.338-0.496,1.85
		c-0.216,0.513-0.48,0.933-0.792,1.26c-0.312,0.326-0.667,0.585-1.064,0.771c-0.397,0.188-0.833,0.316-1.306,0.388
		c-0.474,0.068-0.981,0.104-1.521,0.104h-4.884V9.263z M17.521,20.747c0.324,0,0.639-0.008,0.944-0.024
		c0.305-0.016,0.589-0.072,0.854-0.166c0.263-0.097,0.505-0.24,0.725-0.435c0.219-0.194,0.407-0.469,0.563-0.825
		c0.156-0.355,0.277-0.807,0.362-1.35c0.086-0.544,0.129-1.214,0.129-2.008c0-0.737-0.041-1.362-0.124-1.875
		c-0.083-0.511-0.2-0.936-0.353-1.273c-0.153-0.336-0.336-0.599-0.549-0.786s-0.453-0.327-0.72-0.42
		c-0.267-0.092-0.555-0.147-0.864-0.167c-0.308-0.019-0.631-0.028-0.968-0.028h-1.974v9.357H17.521z"/>
	<path fill="#545454" d="M25.485,17.837c0-0.852,0.092-1.606,0.277-2.265c0.184-0.658,0.472-1.213,0.863-1.665
		c0.391-0.451,0.885-0.794,1.483-1.029s1.313-0.354,2.146-0.354s1.55,0.118,2.151,0.354c0.6,0.235,1.095,0.578,1.483,1.029
		c0.388,0.452,0.674,1.007,0.858,1.665c0.184,0.658,0.276,1.413,0.276,2.265c0,0.853-0.092,1.611-0.276,2.275
		c-0.185,0.665-0.471,1.223-0.858,1.674c-0.388,0.451-0.883,0.795-1.483,1.03c-0.602,0.235-1.318,0.353-2.151,0.353
		s-1.548-0.117-2.146-0.353s-1.092-0.579-1.483-1.03c-0.392-0.451-0.679-1.009-0.863-1.674
		C25.577,19.448,25.485,18.689,25.485,17.837z M30.254,21.252c0.502,0,0.909-0.074,1.221-0.225c0.312-0.149,0.553-0.369,0.725-0.658
		c0.172-0.291,0.288-0.646,0.348-1.07c0.06-0.423,0.091-0.912,0.091-1.466c0-0.548-0.031-1.034-0.091-1.457
		c-0.061-0.424-0.176-0.779-0.348-1.07c-0.172-0.289-0.413-0.509-0.725-0.658c-0.312-0.15-0.719-0.225-1.221-0.225
		c-0.496,0-0.9,0.074-1.211,0.225c-0.312,0.149-0.555,0.369-0.73,0.658c-0.175,0.291-0.292,0.646-0.352,1.07
		c-0.061,0.423-0.091,0.909-0.091,1.457c0,0.554,0.03,1.043,0.091,1.466c0.06,0.424,0.177,0.779,0.352,1.07
		c0.175,0.289,0.418,0.509,0.73,0.658C29.354,21.178,29.758,21.252,30.254,21.252z"/>
	<path fill="#545454" d="M39.773,27.5h-2.27V12.812h1.66l0.276,0.743c0.35-0.191,0.731-0.362,1.145-0.515
		c0.356-0.127,0.764-0.245,1.226-0.354c0.46-0.107,0.958-0.162,1.493-0.162s0.998,0.101,1.393,0.301
		c0.394,0.2,0.723,0.515,0.987,0.944c0.264,0.429,0.46,0.979,0.591,1.649c0.13,0.672,0.195,1.478,0.195,2.418
		c0,0.999-0.078,1.838-0.233,2.519c-0.155,0.681-0.387,1.229-0.695,1.646c-0.308,0.417-0.687,0.716-1.138,0.896
		c-0.451,0.182-0.971,0.271-1.562,0.271c-0.425,0-0.824-0.035-1.195-0.104c-0.372-0.07-0.697-0.15-0.977-0.239
		c-0.324-0.102-0.623-0.216-0.896-0.343V27.5z M39.773,20.861c0.184,0.057,0.39,0.104,0.619,0.143c0.197,0.032,0.43,0.062,0.7,0.091
		c0.27,0.028,0.573,0.043,0.909,0.043c0.413,0,0.753-0.04,1.023-0.119c0.269-0.079,0.482-0.24,0.637-0.482
		c0.156-0.241,0.265-0.583,0.328-1.024c0.063-0.441,0.096-1.023,0.096-1.74c0-0.593-0.024-1.093-0.071-1.503
		c-0.048-0.41-0.137-0.744-0.267-1.002c-0.13-0.257-0.311-0.443-0.542-0.558c-0.232-0.114-0.528-0.172-0.89-0.172
		c-0.331,0-0.647,0.023-0.952,0.072c-0.305,0.047-0.574,0.097-0.809,0.147c-0.279,0.063-0.539,0.133-0.78,0.209V20.861z"/>
	<path fill="#545454" d="M51.391,27.5h-2.27V12.812h1.66l0.276,0.743c0.35-0.191,0.731-0.362,1.145-0.515
		c0.356-0.127,0.765-0.245,1.226-0.354c0.46-0.107,0.958-0.162,1.492-0.162s0.999,0.101,1.393,0.301
		c0.395,0.2,0.723,0.515,0.988,0.944c0.263,0.429,0.46,0.979,0.591,1.649c0.13,0.672,0.195,1.478,0.195,2.418
		c0,0.999-0.078,1.838-0.233,2.519c-0.155,0.681-0.388,1.229-0.695,1.646c-0.308,0.417-0.688,0.716-1.139,0.896
		c-0.45,0.182-0.971,0.271-1.562,0.271c-0.425,0-0.824-0.035-1.195-0.104c-0.372-0.07-0.697-0.15-0.977-0.239
		c-0.324-0.102-0.622-0.216-0.895-0.343V27.5z M51.391,20.861c0.184,0.057,0.39,0.104,0.619,0.143
		c0.196,0.032,0.43,0.062,0.699,0.091c0.27,0.028,0.573,0.043,0.909,0.043c0.412,0,0.753-0.04,1.023-0.119s0.482-0.24,0.637-0.482
		c0.156-0.241,0.266-0.583,0.329-1.024c0.063-0.441,0.095-1.023,0.095-1.74c0-0.593-0.023-1.093-0.071-1.503
		s-0.137-0.744-0.267-1.002c-0.13-0.257-0.311-0.443-0.542-0.558c-0.232-0.114-0.528-0.172-0.89-0.172
		c-0.33,0-0.647,0.023-0.952,0.072c-0.305,0.047-0.574,0.097-0.809,0.147c-0.279,0.063-0.539,0.133-0.78,0.209V20.861z"/>
	<path fill="#545454" d="M62.044,11.104c-0.261,0-0.476-0.02-0.644-0.058c-0.169-0.038-0.305-0.104-0.411-0.2
		c-0.104-0.095-0.178-0.226-0.219-0.391c-0.042-0.166-0.062-0.378-0.062-0.64c0-0.26,0.021-0.475,0.062-0.644
		c0.041-0.169,0.114-0.303,0.219-0.405c0.105-0.102,0.242-0.172,0.411-0.21C61.569,8.519,61.784,8.5,62.044,8.5
		s0.475,0.019,0.644,0.057c0.169,0.038,0.304,0.108,0.406,0.21c0.102,0.103,0.172,0.236,0.21,0.405s0.057,0.384,0.057,0.644
		c0,0.262-0.019,0.474-0.057,0.64c-0.038,0.165-0.108,0.296-0.21,0.391c-0.102,0.096-0.237,0.162-0.406,0.2
		C62.52,11.084,62.305,11.104,62.044,11.104z M60.91,12.812h2.27v10.062h-2.27V12.812z"/>
	<path fill="#545454" d="M65.812,17.837c0-0.852,0.092-1.606,0.277-2.265s0.472-1.213,0.863-1.665
		c0.391-0.451,0.885-0.794,1.483-1.029s1.313-0.354,2.146-0.354c0.833,0,1.55,0.118,2.151,0.354
		c0.601,0.235,1.095,0.578,1.483,1.029c0.388,0.452,0.674,1.007,0.858,1.665s0.276,1.413,0.276,2.265
		c0,0.853-0.092,1.611-0.276,2.275c-0.185,0.665-0.471,1.223-0.858,1.674s-0.882,0.795-1.483,1.03
		c-0.602,0.235-1.318,0.353-2.151,0.353c-0.833,0-1.548-0.117-2.146-0.353s-1.092-0.579-1.483-1.03
		c-0.392-0.451-0.679-1.009-0.863-1.674C65.904,19.448,65.812,18.689,65.812,17.837z M70.581,21.252c0.502,0,0.91-0.074,1.221-0.225
		c0.312-0.149,0.553-0.369,0.725-0.658c0.172-0.291,0.288-0.646,0.348-1.07c0.061-0.423,0.091-0.912,0.091-1.466
		c0-0.548-0.03-1.034-0.091-1.457c-0.061-0.424-0.176-0.779-0.348-1.07c-0.171-0.289-0.413-0.509-0.725-0.658
		c-0.312-0.15-0.719-0.225-1.221-0.225c-0.496,0-0.899,0.074-1.211,0.225c-0.312,0.149-0.555,0.369-0.73,0.658
		c-0.175,0.291-0.292,0.646-0.353,1.07c-0.061,0.423-0.091,0.909-0.091,1.457c0,0.554,0.03,1.043,0.091,1.466
		c0.06,0.424,0.178,0.779,0.353,1.07c0.175,0.289,0.418,0.509,0.73,0.658C69.682,21.178,70.085,21.252,70.581,21.252z"/>
	<path fill="#545454" d="M87.826,23.169c-0.585,0-1.128-0.041-1.631-0.124c-0.502-0.082-0.96-0.227-1.374-0.434
		c-0.414-0.207-0.781-0.481-1.102-0.825c-0.321-0.344-0.593-0.777-0.815-1.302c-0.223-0.525-0.391-1.146-0.506-1.865
		c-0.114-0.718-0.171-1.555-0.171-2.509c0-1.43,0.127-2.606,0.381-3.528c0.254-0.923,0.623-1.648,1.106-2.18
		c0.483-0.53,1.071-0.899,1.765-1.106c0.693-0.206,1.475-0.31,2.346-0.31c0.579,0,1.119,0.044,1.622,0.133
		c0.502,0.09,0.96,0.238,1.374,0.449c0.413,0.209,0.779,0.49,1.097,0.844c0.318,0.353,0.586,0.793,0.806,1.321
		c0.219,0.527,0.386,1.152,0.501,1.874c0.114,0.722,0.171,1.557,0.171,2.503c0,0.948-0.057,1.78-0.171,2.5
		c-0.115,0.718-0.282,1.34-0.501,1.864c-0.22,0.525-0.488,0.961-0.806,1.307c-0.318,0.347-0.684,0.622-1.097,0.825
		c-0.414,0.203-0.871,0.348-1.374,0.435C88.945,23.126,88.405,23.169,87.826,23.169z M87.826,21.062c0.623,0,1.14-0.073,1.55-0.22
		c0.411-0.146,0.736-0.405,0.978-0.777s0.411-0.877,0.51-1.517c0.099-0.639,0.148-1.451,0.148-2.438c0-0.992-0.05-1.809-0.148-2.45
		c-0.099-0.643-0.268-1.152-0.51-1.531s-0.567-0.643-0.978-0.792c-0.41-0.149-0.927-0.225-1.55-0.225s-1.141,0.075-1.555,0.225
		c-0.413,0.149-0.741,0.413-0.982,0.792s-0.412,0.889-0.51,1.531c-0.099,0.642-0.148,1.458-0.148,2.45
		c0,0.986,0.049,1.799,0.148,2.438c0.098,0.64,0.269,1.145,0.51,1.517s0.569,0.632,0.982,0.777
		C86.685,20.988,87.203,21.062,87.826,21.062z"/>
	<path fill="#545454" d="M96.077,12.812h1.662l0.277,0.743c0.35-0.191,0.732-0.362,1.146-0.515c0.356-0.127,0.767-0.245,1.231-0.354
		c0.465-0.107,0.961-0.162,1.49-0.162c0.993,0,1.727,0.26,2.201,0.777c0.474,0.519,0.711,1.331,0.711,2.438v7.134h-2.27v-6.857
		c0-0.261-0.017-0.484-0.052-0.673c-0.035-0.187-0.109-0.34-0.224-0.458c-0.114-0.117-0.279-0.204-0.495-0.262
		c-0.216-0.057-0.505-0.086-0.866-0.086c-0.381,0-0.727,0.023-1.038,0.072c-0.311,0.047-0.577,0.097-0.799,0.147
		c-0.26,0.063-0.495,0.133-0.704,0.209v7.907h-2.27V12.812z"/>
	<path fill="#545454" d="M107.246,17.732c0-1.05,0.137-1.911,0.41-2.585s0.636-1.204,1.087-1.593
		c0.451-0.388,0.966-0.656,1.545-0.806s1.173-0.225,1.784-0.225c0.77,0,1.407,0.105,1.912,0.315
		c0.506,0.209,0.908,0.504,1.207,0.882c0.299,0.379,0.508,0.832,0.629,1.358c0.121,0.529,0.181,1.11,0.181,1.746
		c0,0.299-0.011,0.607-0.034,0.925c-0.022,0.318-0.052,0.646-0.09,0.983h-6.305c0.006,0.451,0.055,0.832,0.148,1.14
		c0.092,0.308,0.245,0.56,0.458,0.753c0.212,0.194,0.496,0.334,0.849,0.42c0.353,0.086,0.793,0.129,1.321,0.129
		c0.445,0,0.862-0.011,1.25-0.033c0.388-0.022,0.729-0.05,1.021-0.081c0.343-0.032,0.655-0.073,0.935-0.124v1.583
		c-0.324,0.121-0.677,0.229-1.059,0.325c-0.325,0.081-0.703,0.157-1.135,0.223c-0.433,0.067-0.894,0.101-1.383,0.101
		c-0.75,0-1.418-0.094-2.003-0.281c-0.585-0.188-1.08-0.495-1.483-0.925s-0.712-0.99-0.924-1.684
		C107.352,19.586,107.246,18.737,107.246,17.732z M113.913,17.036v-0.364c0-0.383-0.024-0.716-0.071-0.999
		c-0.048-0.285-0.145-0.52-0.291-0.704c-0.146-0.186-0.353-0.322-0.62-0.411c-0.267-0.091-0.623-0.135-1.068-0.135
		c-0.477,0-0.867,0.057-1.168,0.167c-0.303,0.112-0.538,0.278-0.706,0.498c-0.169,0.221-0.283,0.493-0.343,0.819
		c-0.061,0.325-0.091,0.701-0.091,1.129H113.913z"/>
</g>
</svg>
