<?xml version="1.0" encoding="utf-8"?>
<!-- Generator: Adobe Illustrator 16.0.0, SVG Export Plug-In . SVG Version: 6.00 Build 0)  -->
<!DOCTYPE svg PUBLIC "-//W3C//DTD SVG 1.1//EN" "http://www.w3.org/Graphics/SVG/1.1/DTD/svg11.dtd">
<svg version="1.1" id="图层_1" xmlns="http://www.w3.org/2000/svg" xmlns:xlink="http://www.w3.org/1999/xlink" x="0px" y="0px"
	 width="258px" height="36px" viewBox="0 0 258 36" enable-background="new 0 0 258 36" xml:space="preserve">
<g>
	<path fill="#545454" d="M20.646,25.118c0,0.15-0.019,0.312-0.055,0.482c-0.037,0.171-0.109,0.33-0.217,0.478
		c-0.109,0.148-0.262,0.271-0.458,0.37c-0.197,0.098-0.453,0.147-0.769,0.147h-4.335c-0.31,0-0.56-0.029-0.754-0.089
		c-0.194-0.059-0.347-0.144-0.458-0.256s-0.188-0.253-0.227-0.425c-0.039-0.17-0.059-0.37-0.059-0.6V14.162
		c0-0.374,0.043-0.676,0.127-0.9c0.086-0.228,0.207-0.401,0.365-0.523c0.158-0.121,0.347-0.201,0.566-0.236
		c0.221-0.036,0.465-0.054,0.734-0.054h9.152c0.314,0,0.473,0.164,0.473,0.492v0.907c0,0.13-0.039,0.216-0.118,0.256
		c-0.079,0.039-0.174,0.059-0.286,0.059c-0.065,0-0.167-0.01-0.305-0.029c-0.139-0.019-0.299-0.044-0.482-0.073
		c-0.185-0.03-0.383-0.066-0.598-0.109c-0.213-0.043-0.428-0.083-0.645-0.123c-0.506-0.099-1.057-0.213-1.654-0.344v2.502h3.664
		c0.139,0,0.207,0.069,0.207,0.206v0.985c0,0.146-0.068,0.217-0.207,0.217h-3.664V25.118z"/>
	<path fill="#545454" d="M29.276,26.596c-0.354,0-0.712-0.023-1.069-0.068c-0.357-0.046-0.699-0.121-1.025-0.222
		c-0.324-0.103-0.629-0.235-0.91-0.399c-0.282-0.165-0.527-0.367-0.734-0.611c-0.207-0.243-0.369-0.528-0.487-0.857
		c-0.118-0.328-0.177-0.706-0.177-1.132c0-0.571,0.107-1.062,0.324-1.468c0.217-0.408,0.508-0.746,0.872-1.016
		s0.783-0.477,1.257-0.621c0.473-0.144,0.961-0.236,1.467-0.275v-0.68c0-0.256-0.033-0.459-0.098-0.611
		c-0.066-0.15-0.15-0.265-0.252-0.339c-0.102-0.076-0.213-0.124-0.335-0.147s-0.237-0.035-0.349-0.035
		c-0.133,0-0.271,0.02-0.42,0.06c-0.146,0.039-0.29,0.087-0.428,0.143c-0.139,0.055-0.27,0.116-0.395,0.183
		c-0.125,0.065-0.23,0.125-0.315,0.177c-0.04,0.026-0.075,0.049-0.108,0.067c-0.033,0.021-0.065,0.031-0.099,0.031
		c-0.059,0-0.114-0.043-0.167-0.127l-0.335-0.533c-0.033-0.046-0.05-0.096-0.05-0.148c0-0.052,0.021-0.098,0.064-0.138
		c0.043-0.039,0.084-0.072,0.123-0.099c0.217-0.15,0.492-0.305,0.828-0.463c0.334-0.156,0.711-0.299,1.127-0.424
		c0.418-0.125,0.869-0.227,1.355-0.305c0.486-0.08,0.988-0.119,1.508-0.119c0.492,0,0.973,0.018,1.442,0.05s0.913,0.104,1.331,0.212
		c0.416,0.108,0.797,0.263,1.143,0.463c0.344,0.2,0.643,0.464,0.896,0.794c0.252,0.328,0.447,0.731,0.586,1.212
		c0.139,0.479,0.207,1.053,0.207,1.724v4.395c0,0.215-0.02,0.408-0.06,0.575c-0.039,0.168-0.114,0.308-0.227,0.419
		c-0.112,0.11-0.266,0.195-0.463,0.251s-0.453,0.084-0.769,0.084H29.276z M28.792,21.178c-0.473,0-0.869,0.059-1.191,0.177
		s-0.582,0.275-0.779,0.474c-0.196,0.196-0.338,0.424-0.423,0.684s-0.128,0.526-0.128,0.803c0,0.275,0.043,0.537,0.128,0.784
		c0.085,0.246,0.227,0.46,0.423,0.645c0.197,0.185,0.457,0.329,0.779,0.435s0.719,0.156,1.191,0.156V21.178z"/>
	<path fill="#545454" d="M44.891,16.163c0.421,0,0.841,0.024,1.261,0.073s0.82,0.113,1.197,0.192
		c0.377,0.078,0.723,0.166,1.034,0.261c0.313,0.096,0.567,0.188,0.765,0.28c0.032,0.014,0.066,0.034,0.103,0.061
		c0.036,0.024,0.054,0.075,0.054,0.146c0,0.021-0.003,0.047-0.01,0.079c-0.006,0.032-0.013,0.066-0.02,0.098l-0.117,0.583
		c-0.014,0.079-0.031,0.126-0.055,0.142c-0.023,0.017-0.045,0.025-0.064,0.025c-0.033,0-0.096-0.01-0.188-0.03
		c-0.092-0.019-0.189-0.029-0.295-0.029c-0.375,0-0.67,0.1-0.887,0.301c-0.217,0.2-0.354,0.55-0.414,1.05l-0.551,4.601
		c-0.053,0.406-0.189,0.788-0.41,1.143c-0.219,0.354-0.537,0.666-0.95,0.935c-0.413,0.271-0.925,0.482-1.532,0.637
		c-0.607,0.153-1.318,0.23-2.133,0.23c-0.512,0-1.012-0.03-1.498-0.094c-0.485-0.061-0.934-0.137-1.344-0.225
		c-0.411-0.089-0.769-0.178-1.074-0.268c-0.305-0.088-0.533-0.159-0.686-0.212c-0.053-0.012-0.093-0.03-0.123-0.054
		c-0.028-0.022-0.044-0.061-0.044-0.113c0-0.026,0.004-0.056,0.01-0.089c0.007-0.031,0.017-0.071,0.03-0.117l0.117-0.553
		c0.014-0.052,0.037-0.095,0.07-0.128c0.032-0.032,0.092-0.049,0.177-0.049c0.216,0,0.435-0.011,0.655-0.034
		c0.22-0.023,0.424-0.083,0.611-0.183c0.187-0.099,0.351-0.249,0.492-0.453c0.141-0.203,0.237-0.489,0.29-0.857l0.69-4.748
		c0.072-0.499,0.256-0.916,0.551-1.252c0.296-0.335,0.662-0.602,1.099-0.803c0.437-0.2,0.932-0.342,1.483-0.424
		C43.738,16.203,44.306,16.163,44.891,16.163z"/>
	<path fill="#545454" d="M56.94,21.61c0,0.663,0.071,1.215,0.212,1.655s0.32,0.79,0.537,1.049c0.217,0.26,0.449,0.442,0.699,0.548
		s0.482,0.157,0.699,0.157c0.164,0,0.315-0.021,0.453-0.064c0.139-0.043,0.26-0.092,0.365-0.146
		c0.105-0.057,0.193-0.105,0.266-0.148s0.128-0.064,0.168-0.064c0.059,0,0.1,0.011,0.123,0.029c0.023,0.02,0.051,0.056,0.083,0.108
		l0.345,0.533c0.033,0.052,0.05,0.098,0.05,0.136c0,0.048-0.013,0.083-0.04,0.11c-0.025,0.026-0.053,0.048-0.078,0.069
		c-0.217,0.15-0.482,0.31-0.798,0.477c-0.315,0.168-0.683,0.32-1.099,0.458c-0.417,0.139-0.882,0.253-1.395,0.345
		C57.019,26.954,56.46,27,55.856,27c-0.492,0-0.985-0.039-1.478-0.119c-0.492-0.077-0.963-0.206-1.414-0.384
		c-0.449-0.177-0.868-0.405-1.256-0.685s-0.725-0.617-1.01-1.016c-0.285-0.397-0.51-0.859-0.675-1.389
		c-0.164-0.528-0.246-1.128-0.246-1.798c0-0.669,0.082-1.27,0.246-1.798c0.165-0.528,0.39-0.992,0.675-1.389
		c0.285-0.397,0.622-0.736,1.01-1.015c0.388-0.28,0.807-0.508,1.256-0.685c0.451-0.178,0.922-0.307,1.414-0.386
		c0.492-0.078,0.985-0.117,1.478-0.117c0.539,0,1.058,0.04,1.558,0.123c0.498,0.082,0.959,0.19,1.383,0.325s0.806,0.282,1.145,0.443
		c0.338,0.16,0.611,0.32,0.822,0.479c0.025,0.02,0.053,0.042,0.078,0.068c0.026,0.025,0.039,0.062,0.039,0.108
		c0,0.046-0.016,0.092-0.049,0.138l-0.345,0.532c-0.032,0.052-0.062,0.089-0.084,0.107c-0.022,0.021-0.063,0.03-0.123,0.03
		c-0.04,0-0.092-0.021-0.157-0.059c-0.066-0.04-0.148-0.085-0.246-0.133c-0.099-0.05-0.213-0.096-0.346-0.139
		c-0.131-0.043-0.279-0.063-0.443-0.063c-0.217,0-0.449,0.054-0.699,0.162s-0.482,0.294-0.699,0.556
		c-0.217,0.263-0.396,0.614-0.537,1.055C57.011,20.396,56.94,20.947,56.94,21.61z"/>
	<path fill="#545454" d="M62.043,17.876c0-0.222,0.02-0.421,0.06-0.596c0.039-0.174,0.114-0.316,0.227-0.429
		c0.111-0.111,0.266-0.197,0.463-0.256c0.196-0.059,0.453-0.089,0.768-0.089h4.315c0.302,0,0.547,0.028,0.735,0.085
		c0.186,0.055,0.332,0.14,0.438,0.25c0.104,0.112,0.174,0.253,0.207,0.424s0.049,0.374,0.049,0.61v7.369
		c0,0.225-0.016,0.419-0.049,0.587c-0.033,0.167-0.103,0.309-0.207,0.423c-0.105,0.115-0.252,0.201-0.438,0.257
		c-0.188,0.056-0.434,0.084-0.735,0.084H63.56c-0.314,0-0.571-0.029-0.768-0.089c-0.197-0.059-0.352-0.144-0.463-0.256
		c-0.112-0.112-0.188-0.253-0.227-0.425c-0.04-0.17-0.06-0.37-0.06-0.6V17.876z M62.408,12.29c0-0.452,0.087-0.88,0.262-1.28
		c0.174-0.401,0.408-0.748,0.704-1.044s0.644-0.53,1.044-0.704S65.246,9,65.699,9c0.447,0,0.869,0.088,1.266,0.262
		s0.744,0.408,1.039,0.704c0.296,0.296,0.531,0.643,0.705,1.044c0.174,0.4,0.261,0.828,0.261,1.28c0,0.446-0.087,0.869-0.261,1.267
		c-0.174,0.398-0.409,0.744-0.705,1.04c-0.295,0.295-0.643,0.529-1.039,0.704c-0.396,0.174-0.818,0.26-1.266,0.26
		c-0.453,0-0.881-0.086-1.281-0.26c-0.4-0.175-0.748-0.409-1.044-0.704c-0.296-0.296-0.53-0.642-0.704-1.04
		C62.495,13.159,62.408,12.736,62.408,12.29z"/>
	<path fill="#545454" d="M71.117,17.876c0-0.222,0.02-0.421,0.059-0.596c0.04-0.174,0.115-0.316,0.228-0.429
		c0.111-0.111,0.267-0.197,0.463-0.256s0.454-0.089,0.769-0.089h4.029c0.295,0,0.55,0.03,0.764,0.089
		c0.213,0.059,0.365,0.16,0.458,0.306c0.085-0.06,0.188-0.123,0.311-0.192c0.121-0.069,0.255-0.133,0.399-0.191
		c0.144-0.061,0.299-0.108,0.463-0.148c0.164-0.039,0.334-0.059,0.512-0.059c0.631,0,1.121,0.216,1.473,0.65
		c0.352,0.433,0.527,1.07,0.527,1.91v7.262c0,0.111-0.016,0.198-0.045,0.261s-0.064,0.108-0.107,0.139
		c-0.043,0.029-0.094,0.047-0.152,0.054c-0.06,0.007-0.119,0.01-0.178,0.01h-0.631c-0.171,0-0.281-0.05-0.33-0.147
		c-0.049-0.1-0.074-0.204-0.074-0.315v-7.359c0-0.375-0.066-0.66-0.201-0.858c-0.135-0.196-0.35-0.294-0.646-0.294
		c-0.15,0-0.303,0.041-0.457,0.122c-0.154,0.082-0.277,0.17-0.369,0.261v7.212c0,0.23-0.02,0.431-0.06,0.603
		c-0.04,0.17-0.114,0.313-0.227,0.428c-0.112,0.114-0.267,0.202-0.463,0.261c-0.197,0.06-0.453,0.089-0.769,0.089h-4.227
		c-0.314,0-0.572-0.029-0.769-0.089c-0.196-0.059-0.352-0.144-0.463-0.256c-0.112-0.112-0.188-0.253-0.228-0.425
		c-0.039-0.17-0.059-0.37-0.059-0.6V17.876z"/>
	<path fill="#545454" d="M87.501,26.596c-0.355,0-0.712-0.023-1.07-0.068c-0.357-0.046-0.698-0.121-1.023-0.222
		c-0.325-0.103-0.629-0.235-0.912-0.399c-0.282-0.165-0.527-0.367-0.732-0.611c-0.209-0.243-0.371-0.528-0.489-0.857
		c-0.118-0.328-0.177-0.706-0.177-1.132c0-0.571,0.108-1.062,0.325-1.468c0.216-0.408,0.507-0.746,0.872-1.016
		c0.363-0.27,0.783-0.477,1.256-0.621c0.473-0.144,0.962-0.236,1.468-0.275v-0.68c0-0.256-0.032-0.459-0.099-0.611
		c-0.065-0.15-0.149-0.265-0.251-0.339c-0.102-0.076-0.214-0.124-0.335-0.147s-0.238-0.035-0.35-0.035
		c-0.132,0-0.271,0.02-0.419,0.06c-0.147,0.039-0.29,0.087-0.429,0.143c-0.138,0.055-0.27,0.116-0.395,0.183
		c-0.124,0.065-0.229,0.125-0.314,0.177c-0.039,0.026-0.075,0.049-0.108,0.067c-0.032,0.021-0.065,0.031-0.099,0.031
		c-0.059,0-0.115-0.043-0.168-0.127l-0.334-0.533c-0.033-0.046-0.05-0.096-0.05-0.148c0-0.052,0.021-0.098,0.063-0.138
		c0.043-0.039,0.084-0.072,0.124-0.099c0.216-0.15,0.492-0.305,0.827-0.463c0.335-0.156,0.711-0.299,1.129-0.424
		c0.416-0.125,0.867-0.227,1.354-0.305c0.486-0.08,0.988-0.119,1.508-0.119c0.492,0,0.973,0.018,1.443,0.05
		c0.469,0.032,0.912,0.104,1.33,0.212c0.417,0.108,0.798,0.263,1.143,0.463c0.344,0.2,0.645,0.464,0.896,0.794
		c0.253,0.328,0.448,0.731,0.586,1.212c0.139,0.479,0.207,1.053,0.207,1.724v4.395c0,0.215-0.02,0.408-0.059,0.575
		c-0.04,0.168-0.115,0.308-0.227,0.419c-0.112,0.11-0.266,0.195-0.463,0.251s-0.453,0.084-0.77,0.084H87.501z M87.018,21.178
		c-0.473,0-0.87,0.059-1.192,0.177c-0.321,0.118-0.58,0.275-0.777,0.474c-0.197,0.196-0.339,0.424-0.424,0.684
		c-0.086,0.26-0.129,0.526-0.129,0.803c0,0.275,0.043,0.537,0.129,0.784c0.085,0.246,0.227,0.46,0.424,0.645
		s0.456,0.329,0.777,0.435c0.322,0.105,0.72,0.156,1.192,0.156V21.178z"/>
	<path fill="#545454" d="M95.392,19.739c-0.139,0-0.207-0.072-0.207-0.218v-0.787c0-0.139,0.068-0.207,0.207-0.207h1.025v-2.236
		c0-0.1,0.014-0.197,0.043-0.296c0.031-0.099,0.11-0.174,0.242-0.227l5.438-2.009c0.249-0.093,0.456-0.162,0.62-0.208
		s0.309-0.068,0.434-0.068c0.046,0,0.098,0.008,0.153,0.023c0.057,0.017,0.109,0.045,0.158,0.084c0.049,0.04,0.09,0.094,0.123,0.163
		c0.033,0.068,0.049,0.152,0.049,0.252v4.521h1.773c0.139,0,0.207,0.068,0.207,0.207v0.787c0,0.146-0.068,0.218-0.207,0.218h-1.773
		v3.97c0,0.467,0.078,0.795,0.232,0.985s0.393,0.285,0.715,0.285c0.07,0,0.146-0.008,0.225-0.024
		c0.08-0.016,0.154-0.032,0.223-0.049s0.133-0.033,0.191-0.05c0.061-0.017,0.109-0.024,0.148-0.024c0.072,0,0.109,0.042,0.109,0.128
		v0.759c0,0.132-0.027,0.22-0.08,0.266c-0.053,0.047-0.098,0.076-0.139,0.088c-0.25,0.105-0.543,0.211-0.881,0.315
		c-0.338,0.105-0.703,0.199-1.094,0.281c-0.391,0.083-0.803,0.148-1.237,0.197c-0.434,0.05-0.867,0.073-1.301,0.073
		c-0.623,0-1.203-0.03-1.738-0.094c-0.535-0.061-0.998-0.204-1.389-0.427c-0.391-0.225-0.697-0.556-0.916-0.995
		c-0.221-0.441-0.33-1.039-0.33-1.795v-3.89H95.392z"/>
	<path fill="#545454" d="M116.092,24.96c0.178,0,0.338-0.024,0.482-0.073c0.145-0.05,0.273-0.104,0.391-0.163
		c0.113-0.06,0.209-0.113,0.285-0.163c0.074-0.048,0.133-0.073,0.172-0.073c0.059,0,0.1,0.01,0.123,0.03
		c0.023,0.019,0.051,0.056,0.084,0.107l0.344,0.532c0.033,0.052,0.051,0.099,0.051,0.138c0,0.046-0.014,0.082-0.041,0.107
		c-0.025,0.027-0.051,0.051-0.078,0.07c-0.217,0.15-0.482,0.313-0.799,0.487c-0.314,0.175-0.68,0.334-1.098,0.478
		c-0.418,0.145-0.889,0.265-1.414,0.36s-1.104,0.142-1.734,0.142c-0.492,0-0.984-0.038-1.477-0.117
		c-0.494-0.079-0.965-0.203-1.414-0.374c-0.451-0.171-0.869-0.395-1.256-0.67c-0.389-0.275-0.725-0.614-1.01-1.015
		c-0.287-0.401-0.512-0.866-0.676-1.395s-0.246-1.135-0.246-1.817c0-0.67,0.082-1.27,0.246-1.798
		c0.164-0.529,0.389-0.994,0.676-1.395c0.285-0.401,0.621-0.74,1.01-1.02c0.387-0.279,0.805-0.507,1.256-0.68
		c0.449-0.174,0.92-0.301,1.414-0.38c0.492-0.077,0.984-0.117,1.477-0.117c0.822,0,1.586,0.091,2.291,0.275
		c0.707,0.184,1.318,0.486,1.838,0.907c0.518,0.419,0.926,0.971,1.221,1.654c0.297,0.684,0.443,1.521,0.443,2.513v0.551
		c0,0.119-0.029,0.21-0.088,0.276c-0.059,0.065-0.158,0.099-0.295,0.099h-4.08c0.053,0.485,0.146,0.891,0.281,1.216
		s0.289,0.586,0.463,0.779s0.363,0.33,0.566,0.408C115.703,24.922,115.9,24.96,116.092,24.96z M117.254,21.226
		c0-0.525-0.041-0.96-0.123-1.304c-0.082-0.347-0.191-0.622-0.33-0.829c-0.139-0.206-0.301-0.353-0.486-0.438
		c-0.189-0.085-0.383-0.127-0.588-0.127c-0.15,0-0.314,0.028-0.492,0.088s-0.344,0.185-0.498,0.375
		c-0.154,0.189-0.285,0.462-0.393,0.817c-0.109,0.354-0.174,0.827-0.193,1.418H117.254z"/>
</g>
</svg>
