<?xml version="1.0" encoding="utf-8"?>
<!-- Generator: Adobe Illustrator 16.0.0, SVG Export Plug-In . SVG Version: 6.00 Build 0)  -->
<!DOCTYPE svg PUBLIC "-//W3C//DTD SVG 1.1//EN" "http://www.w3.org/Graphics/SVG/1.1/DTD/svg11.dtd">
<svg version="1.1" id="图层_1" xmlns="http://www.w3.org/2000/svg" xmlns:xlink="http://www.w3.org/1999/xlink" x="0px" y="0px"
	 width="258px" height="36px" viewBox="0 0 258 36" enable-background="new 0 0 258 36" xml:space="preserve">
<g>
	<path fill="#545454" d="M22.943,17.097h-5.226l-0.904,5.187h-3.556l2.495-14.146h9.863l-0.55,3.064h-6.327l-0.491,2.831h5.226
		L22.943,17.097z"/>
	<path fill="#545454" d="M34.24,19.258c0,0.34,0.174,0.51,0.521,0.51c0.347,0,0.639-0.064,0.875-0.195l-0.099,2.221
		c-0.629,0.51-1.336,0.766-2.122,0.766c-1.481,0-2.286-0.57-2.417-1.71c-0.786,1.14-1.844,1.71-3.173,1.71
		c-1.33,0-2.19-0.302-2.584-0.904c-0.262-0.38-0.393-0.812-0.393-1.296s0.04-0.931,0.118-1.336l1.101-6.189h3.34l-0.923,5.227
		c-0.04,0.235-0.059,0.472-0.059,0.707c0,0.629,0.354,0.942,1.061,0.942c0.589,0,1.061-0.202,1.415-0.608l1.12-6.268h3.34
		l-1.1,6.189C34.246,19.101,34.24,19.18,34.24,19.258z"/>
	<path fill="#545454" d="M43.523,26.547C42.495,27.516,41.319,28,39.997,28c-1.323,0-2.276-0.242-2.858-0.727
		c-0.583-0.485-0.875-1.119-0.875-1.905c0-1.152,0.733-2.155,2.201-3.007c-1.114-0.354-1.67-1.197-1.67-2.534
		c0-0.327,0.033-0.688,0.098-1.081l0.393-2.299c0.209-1.178,0.694-2.117,1.454-2.819c0.759-0.699,1.745-1.051,2.957-1.051
		c1.211,0,2.04,0.295,2.485,0.885l0.118-0.629h2.927l-1.729,9.765C45.21,24.262,44.551,25.577,43.523,26.547z M40.449,25.191
		c0.851,0,1.407-0.773,1.669-2.318l0.197-1.14c-1.821,0.851-2.731,1.709-2.731,2.573c0,0.262,0.075,0.476,0.226,0.639
		C39.96,25.109,40.174,25.191,40.449,25.191z M40.311,18.314c-0.026,0.117-0.039,0.282-0.039,0.491s0.098,0.416,0.294,0.619
		c0.197,0.202,0.527,0.305,0.992,0.305s0.868-0.184,1.208-0.55l0.589-3.302c-0.184-0.327-0.53-0.491-1.042-0.491
		c-0.511,0-0.911,0.131-1.198,0.393c-0.289,0.263-0.472,0.616-0.55,1.062L40.311,18.314z"/>
	<path fill="#545454" d="M57.011,19.258c0,0.34,0.173,0.51,0.521,0.51c0.347,0,0.638-0.064,0.874-0.195l-0.098,2.221
		c-0.629,0.51-1.336,0.766-2.122,0.766c-1.441,0-2.24-0.523-2.397-1.572c-0.655,1.049-1.618,1.572-2.889,1.572
		c-2.148,0-3.222-0.923-3.222-2.771c0-0.314,0.033-0.661,0.099-1.042l0.412-2.299c0.21-1.178,0.691-2.117,1.444-2.819
		c0.753-0.699,1.735-1.051,2.947-1.051c1.211,0,2.034,0.281,2.466,0.845l0.098-0.589h2.986l-1.1,6.189
		C57.018,19.101,57.011,19.18,57.011,19.258z M51.196,18.314c-0.027,0.117-0.04,0.282-0.04,0.491s0.098,0.416,0.294,0.619
		c0.197,0.202,0.527,0.305,0.993,0.305c0.464,0,0.867-0.184,1.208-0.55l0.589-3.302c-0.145-0.327-0.484-0.491-1.022-0.491
		c-1.008,0-1.598,0.485-1.768,1.454L51.196,18.314z"/>
	<path fill="#545454" d="M67.896,22.283h-8.822l0.491-2.751l5.54-3.949h-4.853l0.491-2.75h8.821l-0.491,2.75l-5.364,3.949h4.676
		L67.896,22.283z"/>
	<path fill="#545454" d="M82.552,8c3.157,0,4.735,1.29,4.735,3.87c0,0.433-0.046,0.897-0.138,1.395l-0.688,3.931
		c-0.314,1.819-0.996,3.169-2.043,4.047s-2.521,1.316-4.421,1.316c-1.899,0-3.222-0.438-3.968-1.316
		c-0.511-0.603-0.767-1.434-0.767-2.496c0-0.471,0.053-0.988,0.157-1.551l0.688-3.931C76.723,9.755,78.871,8,82.552,8z
		 M80.528,19.513c0.655,0,1.179-0.17,1.572-0.511s0.668-0.969,0.825-1.886l0.668-3.773c0.04-0.261,0.059-0.497,0.059-0.707
		c0-1.06-0.537-1.592-1.611-1.592c-1.349,0.027-2.155,0.793-2.417,2.299l-0.668,3.773c-0.052,0.327-0.079,0.667-0.079,1.021
		C78.878,19.056,79.428,19.513,80.528,19.513z"/>
	<path fill="#545454" d="M94.34,16.252c0-0.563-0.272-0.846-0.815-0.846c-0.543,0-0.992,0.203-1.346,0.609l-1.101,6.268h-3.34
		l1.67-9.45h3.104l-0.216,1.159c0.772-0.956,1.749-1.435,2.927-1.435c1.179,0,1.945,0.288,2.299,0.864
		c0.223,0.367,0.334,0.786,0.334,1.258s-0.033,0.911-0.098,1.316l-0.53,3.026c-0.013,0.078-0.02,0.149-0.02,0.216
		c0,0.354,0.196,0.529,0.589,0.529c0.301,0,0.569-0.064,0.805-0.195l-0.098,2.221c-0.616,0.51-1.316,0.766-2.102,0.766
		c-1.782,0-2.672-0.747-2.672-2.24c0-0.262,0.026-0.543,0.079-0.845l0.471-2.613C94.321,16.625,94.34,16.422,94.34,16.252z"/>
	<path fill="#545454" d="M103.731,22.559c-2.725,0-4.087-0.943-4.087-2.829c0-0.262,0.026-0.544,0.079-0.845l0.413-2.438
		c0.223-1.257,0.802-2.223,1.739-2.897c0.936-0.675,2.177-1.012,3.723-1.012c2.633,0,3.949,0.995,3.949,2.987
		c0,0.287-0.026,0.602-0.079,0.942l-0.236,1.395h-5.992l-0.079,0.452c-0.026,0.157-0.039,0.302-0.039,0.432
		c0,0.722,0.425,1.081,1.277,1.081c0.314,0,0.583-0.098,0.805-0.295c0.223-0.195,0.354-0.426,0.394-0.688l3.261,0.04
		C108.427,21.334,106.718,22.559,103.731,22.559z M106.089,16.664c0.052-0.222,0.078-0.429,0.078-0.618
		c0-0.19-0.085-0.384-0.255-0.58c-0.171-0.196-0.442-0.296-0.816-0.296c-0.373,0-0.714,0.126-1.021,0.374
		c-0.308,0.25-0.521,0.622-0.638,1.12H106.089z"/>
</g>
</svg>
