<?xml version="1.0" encoding="utf-8"?>
<!-- Generator: Adobe Illustrator 16.0.0, SVG Export Plug-In . SVG Version: 6.00 Build 0)  -->
<!DOCTYPE svg PUBLIC "-//W3C//DTD SVG 1.1//EN" "http://www.w3.org/Graphics/SVG/1.1/DTD/svg11.dtd">
<svg version="1.1" id="图层_1" xmlns="http://www.w3.org/2000/svg" xmlns:xlink="http://www.w3.org/1999/xlink" x="0px" y="0px"
	 width="258px" height="36px" viewBox="0 0 258 36" enable-background="new 0 0 258 36" xml:space="preserve">
<g>
	<path fill="#545454" d="M13.315,19.191c0-1.048,0.164-2.026,0.491-2.932c0.327-0.906,0.82-1.692,1.478-2.36
		c0.658-0.667,1.481-1.191,2.47-1.573c0.988-0.382,2.147-0.571,3.475-0.571c0.947,0,1.864,0.143,2.75,0.429
		c0.887,0.286,1.715,0.776,2.484,1.469l1.173-1.755h0.657v6.188h-0.743c-0.229-1.01-0.539-1.849-0.93-2.517
		c-0.391-0.667-0.82-1.2-1.288-1.597c-0.467-0.397-0.954-0.678-1.458-0.839c-0.505-0.162-0.984-0.243-1.435-0.243
		c-0.216,0-0.431,0.018-0.644,0.053c-0.213,0.034-0.418,0.113-0.615,0.237c-0.197,0.124-0.381,0.305-0.553,0.54
		c-0.171,0.235-0.319,0.553-0.444,0.958c-0.124,0.403-0.222,0.9-0.295,1.491c-0.073,0.591-0.11,1.304-0.11,2.136
		c0,1.259,0.027,2.324,0.081,3.195c0.054,0.87,0.146,1.574,0.277,2.111s0.302,0.927,0.516,1.168
		c0.212,0.242,0.478,0.361,0.796,0.361c0.254,0,0.454-0.05,0.6-0.152c0.146-0.101,0.254-0.265,0.324-0.49s0.113-0.519,0.129-0.877
		c0.016-0.36,0.024-0.8,0.024-1.32v-2.708h-1.773v-0.754h9.077v0.754h-1.535v6.397h-0.591c-0.305-0.312-0.617-0.528-0.935-0.648
		c-0.318-0.121-0.655-0.181-1.011-0.181c-0.343,0-0.69,0.038-1.039,0.114c-0.35,0.076-0.725,0.165-1.125,0.267
		c-0.451,0.107-0.933,0.211-1.445,0.31S21.073,26,20.457,26c-1.087,0-2.069-0.18-2.946-0.534c-0.877-0.355-1.627-0.843-2.25-1.459
		s-1.103-1.338-1.439-2.164C13.483,21.017,13.315,20.133,13.315,19.191z"/>
	<path fill="#545454" d="M31.27,24.941h1.668v-9.239H31.27v-0.686h7.342v1.22c0.203-0.248,0.444-0.469,0.725-0.663
		c0.279-0.193,0.589-0.359,0.93-0.495c0.34-0.137,0.705-0.242,1.096-0.315c0.391-0.072,0.797-0.11,1.216-0.11
		c0.438,0,0.833,0.056,1.183,0.163c0.35,0.108,0.648,0.256,0.896,0.442c0.248,0.188,0.437,0.411,0.567,0.668
		c0.131,0.258,0.195,0.535,0.195,0.834c0,0.287-0.071,0.558-0.214,0.812c-0.144,0.254-0.341,0.476-0.591,0.667
		c-0.252,0.19-0.546,0.342-0.883,0.453c-0.336,0.111-0.695,0.167-1.077,0.167s-0.741-0.056-1.077-0.167
		c-0.338-0.111-0.631-0.263-0.883-0.453c-0.251-0.191-0.449-0.413-0.596-0.667s-0.219-0.524-0.219-0.812
		c0-0.146,0.02-0.29,0.063-0.434c0.04-0.143,0.096-0.277,0.166-0.404c-0.133,0.063-0.287,0.16-0.463,0.29
		c-0.174,0.131-0.338,0.292-0.49,0.482s-0.281,0.411-0.387,0.662c-0.104,0.251-0.156,0.523-0.156,0.815v6.77h1.85v0.687H31.27
		V24.941z"/>
	<path fill="#545454" d="M46.857,23.13c0-0.489,0.093-0.911,0.277-1.264c0.184-0.353,0.445-0.652,0.781-0.896
		c0.338-0.245,0.741-0.442,1.211-0.591c0.471-0.151,0.994-0.266,1.568-0.35c0.575-0.082,1.193-0.138,1.855-0.166
		c0.66-0.029,1.348-0.043,2.059-0.043v-0.533c0-0.813-0.056-1.467-0.167-1.955c-0.11-0.49-0.28-0.865-0.505-1.125
		c-0.227-0.262-0.504-0.432-0.834-0.511c-0.331-0.079-0.715-0.119-1.154-0.119c-0.234,0-0.484,0.02-0.748,0.057
		c-0.264,0.039-0.498,0.083-0.701,0.135c0.293,0.031,0.563,0.104,0.811,0.219c0.248,0.113,0.461,0.257,0.639,0.429
		c0.179,0.172,0.316,0.362,0.414,0.572c0.1,0.21,0.148,0.424,0.148,0.639c0,0.267-0.066,0.519-0.199,0.754
		c-0.135,0.234-0.318,0.439-0.554,0.614c-0.235,0.176-0.509,0.313-0.819,0.415c-0.313,0.102-0.646,0.152-1.002,0.152
		s-0.688-0.051-0.996-0.152s-0.578-0.239-0.811-0.415c-0.232-0.175-0.415-0.38-0.549-0.614c-0.133-0.235-0.199-0.487-0.199-0.754
		c0-0.355,0.097-0.677,0.29-0.963c0.194-0.285,0.458-0.538,0.792-0.758c0.334-0.219,0.727-0.408,1.182-0.568
		c0.455-0.158,0.943-0.288,1.464-0.391c0.521-0.101,1.063-0.176,1.626-0.224c0.563-0.047,1.123-0.072,1.683-0.072
		c0.991,0,1.854,0.069,2.589,0.206s1.344,0.379,1.831,0.725c0.485,0.346,0.85,0.819,1.091,1.421c0.242,0.6,0.363,1.362,0.363,2.284
		v3.994c0,0.477,0.049,0.844,0.147,1.101c0.099,0.258,0.281,0.387,0.548,0.387c0.133,0,0.242-0.043,0.329-0.129
		c0.085-0.086,0.153-0.197,0.2-0.338c0.048-0.14,0.08-0.302,0.1-0.486s0.029-0.372,0.029-0.563V22.31h0.849v0.944
		c0,0.509-0.065,0.938-0.196,1.286c-0.131,0.351-0.355,0.634-0.676,0.85c-0.322,0.216-0.751,0.369-1.288,0.462
		s-1.212,0.139-2.026,0.139c-0.412,0-0.799-0.023-1.158-0.066c-0.359-0.045-0.686-0.121-0.982-0.229
		c-0.295-0.107-0.551-0.251-0.767-0.429c-0.217-0.179-0.388-0.4-0.515-0.667c-0.191,0.292-0.445,0.529-0.764,0.709
		c-0.317,0.183-0.66,0.323-1.029,0.426c-0.369,0.101-0.74,0.169-1.115,0.204s-0.719,0.053-1.029,0.053
		c-0.744,0-1.377-0.078-1.898-0.233c-0.521-0.156-0.943-0.364-1.268-0.625s-0.561-0.563-0.706-0.91S46.857,23.511,46.857,23.13z
		 M52.359,23.024c0,0.471,0.086,0.851,0.258,1.139c0.172,0.29,0.455,0.436,0.848,0.436c0.331,0,0.604-0.12,0.82-0.358
		c0.217-0.237,0.324-0.558,0.324-0.958v-2.584c-0.457,0-0.832,0.042-1.125,0.124c-0.293,0.083-0.523,0.215-0.691,0.396
		s-0.283,0.422-0.343,0.72C52.39,22.237,52.359,22.6,52.359,23.024z"/>
	<path fill="#545454" d="M64.745,15.702h-1.659v-0.686h8.887v0.686h-1.277l2.603,6.455c0.134-0.35,0.279-0.732,0.438-1.149
		c0.158-0.416,0.319-0.837,0.48-1.263c0.163-0.426,0.32-0.839,0.473-1.24c0.152-0.399,0.289-0.76,0.41-1.076
		c0.121-0.318,0.219-0.582,0.295-0.793c0.077-0.208,0.121-0.333,0.134-0.371c0.02-0.044,0.029-0.083,0.029-0.114
		c0-0.082-0.044-0.152-0.129-0.21c-0.087-0.058-0.207-0.104-0.362-0.138c-0.156-0.035-0.34-0.062-0.553-0.077
		s-0.447-0.023-0.701-0.023v-0.686h4.443v0.686c-0.279,0-0.52,0.011-0.721,0.033c-0.199,0.022-0.368,0.057-0.505,0.105
		c-0.137,0.047-0.247,0.108-0.334,0.185c-0.085,0.076-0.151,0.169-0.194,0.277c-0.052,0.108-0.131,0.303-0.239,0.587
		c-0.108,0.282-0.238,0.62-0.392,1.015c-0.152,0.395-0.318,0.831-0.5,1.312c-0.182,0.479-0.367,0.975-0.558,1.482
		c-0.19,0.509-0.38,1.014-0.567,1.516c-0.188,0.503-0.361,0.973-0.524,1.412c-0.162,0.438-0.307,0.832-0.434,1.182
		c-0.128,0.35-0.226,0.623-0.296,0.82h-4.09L64.745,15.702z"/>
	<path fill="#545454" d="M78.885,24.941h1.668v-9.239h-1.668v-0.686h7.342v9.925h1.668v0.687h-9.01V24.941z M83.29,14.053
		c-0.369,0-0.725-0.036-1.067-0.109c-0.344-0.073-0.646-0.191-0.906-0.354c-0.261-0.161-0.471-0.37-0.629-0.624
		c-0.16-0.255-0.238-0.566-0.238-0.935s0.078-0.682,0.238-0.938c0.158-0.258,0.368-0.468,0.629-0.63
		c0.26-0.162,0.563-0.279,0.906-0.353C82.565,10.038,82.921,10,83.29,10c0.362,0,0.715,0.038,1.058,0.11
		c0.344,0.073,0.646,0.19,0.906,0.353c0.261,0.162,0.471,0.371,0.629,0.625c0.16,0.254,0.238,0.565,0.238,0.934
		c0,0.369-0.078,0.682-0.238,0.939c-0.158,0.257-0.368,0.468-0.629,0.629c-0.26,0.162-0.563,0.28-0.906,0.354
		C84.005,14.017,83.652,14.053,83.29,14.053z"/>
	<path fill="#545454" d="M90.278,15.702H88.61v-0.686h1.668c0.643,0,1.219-0.11,1.731-0.33c0.511-0.219,0.946-0.505,1.306-0.858
		c0.359-0.353,0.634-0.748,0.825-1.187c0.19-0.438,0.285-0.877,0.285-1.316h1.525v3.691h3.07v0.686h-3.07v5.874
		c0,0.681,0.037,1.233,0.109,1.664c0.074,0.428,0.178,0.765,0.316,1.005c0.135,0.242,0.298,0.405,0.485,0.491
		s0.396,0.129,0.625,0.129c0.222,0,0.438-0.049,0.647-0.148c0.211-0.099,0.395-0.257,0.554-0.477
		c0.159-0.219,0.286-0.505,0.382-0.858c0.095-0.353,0.143-0.786,0.143-1.301c0-0.121-0.004-0.246-0.01-0.377
		c-0.006-0.13-0.016-0.266-0.028-0.405h0.8c0.02,0.317,0.029,0.607,0.029,0.867c0,0.795-0.109,1.442-0.328,1.94
		c-0.221,0.499-0.533,0.889-0.939,1.169c-0.407,0.279-0.902,0.469-1.482,0.572C96.672,25.948,96.019,26,95.294,26
		c-0.813,0-1.532-0.08-2.155-0.239s-1.146-0.41-1.572-0.758c-0.426-0.346-0.748-0.793-0.963-1.34
		c-0.217-0.547-0.325-1.21-0.325-1.993V15.702z"/>
	<path fill="#545454" d="M101.434,23.13c0-0.489,0.093-0.911,0.277-1.264c0.184-0.353,0.445-0.652,0.781-0.896
		c0.338-0.245,0.74-0.442,1.211-0.591c0.471-0.151,0.993-0.266,1.568-0.35c0.576-0.082,1.193-0.138,1.855-0.166
		c0.66-0.029,1.347-0.043,2.059-0.043v-0.533c0-0.813-0.056-1.467-0.166-1.955c-0.111-0.49-0.281-0.865-0.506-1.125
		c-0.227-0.262-0.504-0.432-0.834-0.511c-0.331-0.079-0.715-0.119-1.154-0.119c-0.234,0-0.484,0.02-0.748,0.057
		c-0.264,0.039-0.498,0.083-0.701,0.135c0.293,0.031,0.563,0.104,0.811,0.219c0.248,0.113,0.461,0.257,0.639,0.429
		s0.316,0.362,0.415,0.572s0.147,0.424,0.147,0.639c0,0.267-0.066,0.519-0.2,0.754c-0.134,0.234-0.317,0.439-0.553,0.614
		c-0.235,0.176-0.509,0.313-0.819,0.415c-0.313,0.102-0.646,0.152-1.002,0.152c-0.355,0-0.688-0.051-0.996-0.152
		c-0.309-0.102-0.578-0.239-0.811-0.415c-0.232-0.175-0.414-0.38-0.548-0.614c-0.134-0.235-0.2-0.487-0.2-0.754
		c0-0.355,0.096-0.677,0.29-0.963c0.194-0.285,0.458-0.538,0.792-0.758c0.333-0.219,0.728-0.408,1.182-0.568
		c0.455-0.158,0.943-0.288,1.464-0.391c0.521-0.101,1.063-0.176,1.626-0.224c0.563-0.047,1.123-0.072,1.684-0.072
		c0.99,0,1.854,0.069,2.588,0.206c0.733,0.137,1.344,0.379,1.83,0.725s0.851,0.819,1.092,1.421c0.242,0.6,0.363,1.362,0.363,2.284
		v3.994c0,0.477,0.049,0.844,0.147,1.101c0.098,0.258,0.281,0.387,0.548,0.387c0.134,0,0.243-0.043,0.33-0.129
		c0.084-0.086,0.152-0.197,0.199-0.338c0.048-0.14,0.081-0.302,0.1-0.486c0.02-0.185,0.029-0.372,0.029-0.563V22.31h0.848v0.944
		c0,0.509-0.064,0.938-0.195,1.286c-0.13,0.351-0.355,0.634-0.676,0.85c-0.322,0.216-0.75,0.369-1.288,0.462
		c-0.537,0.093-1.212,0.139-2.026,0.139c-0.412,0-0.799-0.023-1.158-0.066c-0.359-0.045-0.687-0.121-0.981-0.229
		c-0.296-0.107-0.552-0.251-0.769-0.429c-0.215-0.179-0.387-0.4-0.514-0.667c-0.191,0.292-0.445,0.529-0.764,0.709
		c-0.317,0.183-0.66,0.323-1.029,0.426c-0.369,0.101-0.74,0.169-1.115,0.204s-0.719,0.053-1.029,0.053
		c-0.744,0-1.377-0.078-1.898-0.233c-0.521-0.156-0.943-0.364-1.268-0.625s-0.56-0.563-0.706-0.91
		C101.508,23.875,101.434,23.511,101.434,23.13z M106.936,23.024c0,0.471,0.086,0.851,0.258,1.139
		c0.172,0.29,0.454,0.436,0.849,0.436c0.33,0,0.604-0.12,0.819-0.358c0.217-0.237,0.324-0.558,0.324-0.958v-2.584
		c-0.457,0-0.832,0.042-1.125,0.124c-0.292,0.083-0.523,0.215-0.691,0.396s-0.283,0.422-0.342,0.72
		C106.965,22.237,106.936,22.6,106.936,23.024z"/>
	<path fill="#545454" d="M118.921,21.471h0.706c0.273,0.483,0.65,0.945,1.135,1.388c0.482,0.441,1.027,0.833,1.635,1.172
		c0.606,0.341,1.25,0.612,1.93,0.815c0.681,0.204,1.357,0.305,2.031,0.305c0.279,0,0.551-0.015,0.811-0.042
		c0.261-0.029,0.49-0.083,0.688-0.163c0.195-0.079,0.354-0.187,0.471-0.318c0.117-0.135,0.177-0.306,0.177-0.516
		c0-0.215-0.097-0.396-0.29-0.539c-0.195-0.143-0.457-0.262-0.787-0.356c-0.33-0.097-0.711-0.176-1.14-0.239
		s-0.876-0.126-1.339-0.189c-0.84-0.108-1.625-0.251-2.355-0.431c-0.731-0.177-1.367-0.422-1.907-0.733s-0.965-0.706-1.272-1.182
		c-0.309-0.478-0.463-1.068-0.463-1.774c0-0.647,0.145-1.223,0.434-1.721c0.289-0.499,0.691-0.919,1.207-1.258
		c0.515-0.341,1.125-0.598,1.83-0.773c0.705-0.174,1.475-0.263,2.308-0.263c0.394,0,0.792,0.039,1.196,0.115
		c0.403,0.076,0.795,0.177,1.173,0.301s0.737,0.267,1.077,0.429s0.646,0.326,0.92,0.491l1.277-1.221h0.792v3.757h-0.677
		c-0.261-0.439-0.59-0.846-0.987-1.221s-0.847-0.698-1.349-0.973c-0.502-0.272-1.045-0.487-1.631-0.643
		c-0.584-0.156-1.195-0.234-1.83-0.234c-0.312,0-0.598,0.017-0.858,0.048c-0.261,0.032-0.486,0.083-0.677,0.152
		c-0.191,0.07-0.338,0.163-0.443,0.276c-0.105,0.115-0.158,0.251-0.158,0.41c0,0.216,0.08,0.395,0.239,0.534s0.396,0.262,0.71,0.366
		c0.314,0.106,0.704,0.199,1.168,0.281c0.465,0.083,1.005,0.172,1.621,0.268c0.781,0.127,1.51,0.283,2.184,0.468
		s1.256,0.436,1.749,0.753s0.881,0.722,1.163,1.211c0.283,0.489,0.425,1.105,0.425,1.85c0,0.604-0.116,1.149-0.349,1.635
		c-0.232,0.487-0.575,0.897-1.029,1.235c-0.455,0.337-1.016,0.596-1.683,0.777c-0.667,0.18-1.434,0.271-2.298,0.271
		c-0.406,0-0.846-0.04-1.316-0.119c-0.47-0.08-0.936-0.194-1.396-0.344s-0.897-0.33-1.311-0.543
		c-0.414-0.213-0.763-0.454-1.049-0.721l-1.668,1.584h-0.792V21.471z"/>
	<path fill="#545454" d="M140.955,18.868c0-0.63,0.064-1.243,0.195-1.841s0.334-1.16,0.61-1.688
		c0.276-0.526,0.631-1.009,1.063-1.448c0.432-0.438,0.95-0.817,1.555-1.134c0.604-0.318,1.299-0.564,2.087-0.74
		c0.788-0.174,1.675-0.262,2.661-0.262c0.984,0,1.871,0.088,2.66,0.262c0.787,0.176,1.484,0.422,2.092,0.74
		c0.607,0.316,1.127,0.695,1.56,1.134c0.433,0.439,0.784,0.922,1.058,1.448c0.273,0.528,0.476,1.091,0.606,1.688
		c0.13,0.598,0.195,1.211,0.195,1.841c0,0.628-0.065,1.244-0.195,1.844c-0.131,0.602-0.333,1.166-0.606,1.693
		s-0.625,1.01-1.058,1.448c-0.433,0.439-0.952,0.818-1.56,1.135c-0.607,0.318-1.305,0.565-2.092,0.739
		c-0.789,0.175-1.676,0.263-2.66,0.263c-0.986,0-1.873-0.088-2.661-0.263c-0.788-0.174-1.483-0.421-2.087-0.739
		c-0.604-0.316-1.123-0.695-1.555-1.135c-0.433-0.438-0.787-0.921-1.063-1.448s-0.479-1.09-0.61-1.688
		C141.02,20.12,140.955,19.504,140.955,18.868z M149.127,25.332c0.33,0,0.604-0.099,0.824-0.295
		c0.219-0.198,0.396-0.543,0.529-1.034c0.133-0.494,0.227-1.154,0.281-1.983c0.054-0.83,0.081-1.88,0.081-3.151
		c0-1.266-0.027-2.313-0.081-3.143c-0.055-0.829-0.148-1.49-0.281-1.983c-0.133-0.492-0.311-0.837-0.529-1.034
		c-0.22-0.196-0.494-0.295-0.824-0.295c-0.331,0-0.605,0.099-0.826,0.295c-0.219,0.197-0.394,0.542-0.523,1.034
		c-0.131,0.493-0.223,1.154-0.277,1.983c-0.053,0.829-0.08,1.877-0.08,3.143c0,1.271,0.027,2.321,0.08,3.151
		c0.055,0.829,0.146,1.489,0.277,1.983c0.13,0.491,0.305,0.836,0.523,1.034C148.521,25.233,148.796,25.332,149.127,25.332z"/>
	<path fill="#545454" d="M159.186,24.941h1.668v-9.239h-1.668v-0.686h7.342v1.22c0.203-0.248,0.449-0.47,0.738-0.668
		c0.289-0.196,0.609-0.363,0.959-0.5s0.723-0.24,1.12-0.311c0.397-0.069,0.806-0.105,1.226-0.105c0.863,0,1.578,0.114,2.14,0.339
		c0.563,0.227,1.006,0.547,1.331,0.964c0.323,0.416,0.549,0.922,0.676,1.516c0.127,0.595,0.191,1.257,0.191,1.988v5.482h1.668v0.687
		h-8.295v-0.687h0.953v-5.482c0-0.655-0.019-1.19-0.057-1.607c-0.038-0.415-0.105-0.743-0.2-0.981
		c-0.096-0.238-0.223-0.404-0.382-0.495c-0.158-0.093-0.358-0.139-0.6-0.139c-0.242,0-0.455,0.052-0.64,0.152
		c-0.185,0.103-0.338,0.244-0.462,0.43c-0.125,0.184-0.217,0.403-0.277,0.657c-0.061,0.255-0.09,0.531-0.09,0.829v6.637h0.943v0.687
		h-8.285V24.941z"/>
	<path fill="#545454" d="M177.74,20.222c0-0.852,0.174-1.621,0.523-2.308s0.835-1.271,1.454-1.754
		c0.62-0.482,1.354-0.855,2.203-1.116c0.849-0.26,1.769-0.392,2.761-0.392c0.762,0,1.453,0.076,2.072,0.229
		c0.621,0.152,1.17,0.361,1.65,0.625c0.479,0.265,0.893,0.577,1.24,0.938c0.346,0.363,0.632,0.754,0.857,1.173
		c0.226,0.42,0.393,0.86,0.5,1.321c0.108,0.46,0.162,0.923,0.162,1.387h-7.646c0,0.973,0.043,1.764,0.129,2.374
		s0.223,1.088,0.41,1.436c0.188,0.346,0.429,0.583,0.725,0.71c0.295,0.128,0.652,0.191,1.072,0.191c0.534,0,1.036-0.066,1.507-0.202
		c0.47-0.132,0.892-0.321,1.263-0.565c0.373-0.246,0.682-0.541,0.93-0.888c0.248-0.346,0.417-0.735,0.506-1.168h0.896
		c-0.064,0.591-0.245,1.121-0.544,1.588c-0.298,0.468-0.694,0.863-1.187,1.187c-0.494,0.325-1.072,0.572-1.736,0.745
		c-0.664,0.17-1.391,0.257-2.178,0.257c-1.24,0-2.332-0.129-3.275-0.387c-0.944-0.257-1.734-0.632-2.369-1.125
		c-0.636-0.492-1.115-1.097-1.439-1.812S177.74,21.136,177.74,20.222z M186.197,19.364c-0.02-0.795-0.058-1.456-0.115-1.983
		c-0.057-0.528-0.14-0.951-0.248-1.269c-0.107-0.318-0.24-0.543-0.4-0.672c-0.158-0.131-0.35-0.195-0.571-0.195
		c-0.223,0-0.415,0.064-0.577,0.195c-0.162,0.129-0.297,0.354-0.405,0.672c-0.108,0.317-0.19,0.74-0.247,1.269
		c-0.059,0.527-0.093,1.188-0.105,1.983H186.197z"/>
</g>
</svg>
