<?xml version="1.0" encoding="utf-8"?>
<!-- Generator: Adobe Illustrator 16.0.0, SVG Export Plug-In . SVG Version: 6.00 Build 0)  -->
<!DOCTYPE svg PUBLIC "-//W3C//DTD SVG 1.1//EN" "http://www.w3.org/Graphics/SVG/1.1/DTD/svg11.dtd">
<svg version="1.1" id="图层_1" xmlns="http://www.w3.org/2000/svg" xmlns:xlink="http://www.w3.org/1999/xlink" x="0px" y="0px"
	 width="258px" height="36px" viewBox="0 0 258 36" enable-background="new 0 0 258 36" xml:space="preserve">
<g>
	<path fill="#545454" d="M14.458,22.783l0.262-0.149c0.038,0,0.056,0.019,0.056,0.057c0,0.1-0.156,0.262-0.468,0.486
		s-0.556,0.337-0.73,0.337c-0.175,0-0.262-0.087-0.262-0.262c0-0.662,0.908-2.216,2.725-4.662c1.816-2.446,3.348-4.344,4.596-5.692
		l0.038-0.075c0-0.024-0.019-0.037-0.056-0.037c-0.487,0.324-1.504,0.827-3.052,1.507c-1.548,0.681-2.659,1.021-3.333,1.021
		c-0.375,0-0.562-0.124-0.562-0.374c0-0.075,0.053-0.178,0.159-0.31c0.106-0.131,0.181-0.195,0.225-0.195
		c0.043,0,0.109,0.04,0.196,0.12c0.087,0.082,0.359,0.122,0.814,0.122c0.456,0,1.227-0.202,2.313-0.608
		c1.086-0.404,2.216-0.945,3.389-1.619c0.399-0.237,0.73-0.474,0.993-0.712c0.262-0.236,0.564-0.536,0.907-0.898
		c0.344-0.362,0.568-0.597,0.675-0.701c0.105-0.106,0.305-0.319,0.599-0.638c0.293-0.318,0.527-0.564,0.703-0.739
		c0.486-0.462,0.886-0.693,1.198-0.693c0.1,0,0.15,0.045,0.15,0.132c0,0.499-0.805,1.336-2.416,2.509
		c-0.611,0.462-0.967,0.749-1.067,0.861c-1.411,1.548-3.108,3.636-5.093,6.263c-1.985,2.628-2.983,4.26-2.996,4.896
		C14.42,22.765,14.433,22.783,14.458,22.783z M24.007,20.181l-1.348,0.824c-0.475,0.3-0.896,0.449-1.264,0.449
		s-0.696-0.131-0.983-0.394c-0.35,1.111-0.771,2.041-1.264,2.79c-0.493,0.749-0.977,1.123-1.451,1.123
		c-0.162,0-0.243-0.074-0.243-0.225c0-0.786,0.811-2.303,2.434-4.549c-0.325-0.787-0.487-1.897-0.487-3.333
		c0-0.487,0.075-0.893,0.225-1.218c0.15-0.324,0.355-0.486,0.618-0.486c0.599,0,0.898,0.624,0.898,1.873
		c0,0.523-0.056,1.085-0.168,1.685c1.735-2.26,3.714-4.612,5.936-7.059c2.222-2.447,3.707-3.944,4.457-4.494
		C31.54,7.056,31.752,7,32.002,7s0.375,0.044,0.375,0.131c0,0.063-0.025,0.119-0.075,0.169c-0.063,0.063-0.163,0.155-0.3,0.28
		s-0.256,0.237-0.355,0.337c-4.369,4.369-7.902,8.157-10.598,11.365l-0.225,0.281c-0.013,0.037-0.044,0.172-0.094,0.402
		c-0.05,0.231-0.094,0.402-0.131,0.515c0.262,0.45,0.599,0.675,1.011,0.675c0.237,0,0.468-0.063,0.692-0.188
		c0.375-0.213,0.817-0.487,1.329-0.824c0.088-0.05,0.181-0.075,0.281-0.075s0.15,0.013,0.15,0.037
		C24.063,20.131,24.045,20.156,24.007,20.181z M17.81,24.749c0.362,0,0.746-0.402,1.151-1.207c0.406-0.805,0.759-1.788,1.058-2.949
		c-1.536,2.122-2.303,3.451-2.303,3.988C17.716,24.668,17.747,24.724,17.81,24.749z M19.869,16.53c0,1.272,0.125,2.321,0.375,3.146
		c0.287-1.286,0.431-2.331,0.431-3.137c0-0.805-0.144-1.207-0.431-1.207C19.994,15.332,19.869,15.731,19.869,16.53z"/>
	<path fill="#545454" d="M22.396,22.596c0,0.163,0.063,0.244,0.188,0.244c0.149,0,0.486-0.103,1.011-0.31
		c0.524-0.205,0.955-0.408,1.292-0.608l1.835-1.16l0.019,0.243c-1.311,0.874-2.287,1.43-2.93,1.666
		c-0.643,0.237-1.07,0.356-1.283,0.356c-0.35,0-0.524-0.219-0.524-0.656c0-0.586,0.212-1.173,0.636-1.76
		c0.425-0.587,0.92-1.067,1.489-1.441c0.568-0.374,1.117-0.68,1.648-0.918c0.53-0.236,0.933-0.355,1.208-0.355
		c0.274,0,0.412,0.094,0.412,0.28c0,0.463-0.546,1.024-1.638,1.687c-1.092,0.661-2,1.099-2.724,1.31
		C22.608,21.785,22.396,22.259,22.396,22.596z M26.722,18.177c0-0.037-0.025-0.056-0.075-0.056c-0.337,0-0.861,0.294-1.573,0.881
		c-0.711,0.587-1.329,1.229-1.853,1.929c0.624-0.2,1.363-0.649,2.219-1.349C26.294,18.884,26.722,18.415,26.722,18.177z"/>
	<path fill="#545454" d="M32.414,20.2l0.15,0.168c-0.574,0.35-1.043,0.644-1.405,0.88c-0.362,0.237-0.636,0.356-0.824,0.356
		c-0.274,0-0.412-0.119-0.412-0.356c0-0.174,0.096-0.521,0.29-1.039c0.193-0.518,0.328-0.883,0.403-1.095l-0.057-0.057
		c-0.05,0-0.106,0.025-0.168,0.075c-1.261,1.011-2.075,1.691-2.443,2.04c-0.368,0.351-0.724,0.725-1.067,1.124
		c-0.344,0.399-0.531,0.618-0.562,0.655s-0.053,0.063-0.065,0.075c-0.038,0.037-0.166,0.057-0.384,0.057
		c-0.218,0-0.327-0.02-0.327-0.057c0.025-0.038,0.181-0.213,0.468-0.524c0.699-0.761,1.33-1.491,1.891-2.19l-0.542,0.317
		c-0.575,0.35-0.993,0.612-1.255,0.787l-0.075-0.206l1.179-0.749c0.424-0.274,0.79-0.562,1.095-0.861
		c0.306-0.299,0.515-0.543,0.627-0.73s0.212-0.343,0.3-0.468c0.087-0.125,0.168-0.188,0.243-0.188s0.194,0.044,0.356,0.131
		c0,0.125-0.1,0.344-0.3,0.656c-0.2,0.312-0.399,0.593-0.599,0.842L28.631,20.2c0,0.025,0.006,0.037,0.019,0.037
		c0.038,0,0.081-0.021,0.131-0.065s0.259-0.219,0.627-0.524c0.368-0.307,0.689-0.568,0.964-0.787
		c0.274-0.218,0.59-0.427,0.946-0.627c0.355-0.199,0.615-0.299,0.777-0.299s0.244,0.037,0.244,0.112c0,0.1-0.306,0.312-0.918,0.636
		c-0.138,0.075-0.346,0.434-0.627,1.077c-0.281,0.643-0.421,1.114-0.421,1.413c0,0.063,0.059,0.095,0.178,0.095
		s0.353-0.112,0.702-0.337L32.414,20.2z"/>
	<path fill="#545454" d="M37.188,20.2l0.15,0.168c-0.574,0.35-1.043,0.644-1.405,0.88c-0.362,0.237-0.636,0.356-0.823,0.356
		c-0.275,0-0.412-0.119-0.412-0.356c0-0.174,0.096-0.521,0.29-1.039c0.193-0.518,0.328-0.883,0.403-1.095l-0.056-0.057
		c-0.05,0-0.106,0.025-0.168,0.075c-1.261,1.011-2.076,1.691-2.444,2.04c-0.368,0.351-0.724,0.725-1.067,1.124
		c-0.344,0.399-0.531,0.618-0.562,0.655c-0.032,0.037-0.054,0.063-0.066,0.075c-0.038,0.037-0.166,0.057-0.384,0.057
		s-0.328-0.02-0.328-0.057c0.025-0.038,0.181-0.213,0.468-0.524c0.699-0.761,1.33-1.491,1.892-2.19l-0.543,0.317
		c-0.575,0.35-0.993,0.612-1.255,0.787l-0.075-0.206l1.179-0.749c0.425-0.274,0.79-0.562,1.095-0.861
		c0.306-0.299,0.515-0.543,0.627-0.73s0.212-0.343,0.3-0.468c0.087-0.125,0.168-0.188,0.243-0.188s0.194,0.044,0.356,0.131
		c0,0.125-0.1,0.344-0.3,0.656c-0.2,0.312-0.399,0.593-0.599,0.842L33.406,20.2c0,0.025,0.006,0.037,0.019,0.037
		c0.038,0,0.081-0.021,0.131-0.065c0.049-0.044,0.259-0.219,0.627-0.524c0.368-0.307,0.69-0.568,0.964-0.787
		c0.274-0.218,0.59-0.427,0.946-0.627c0.355-0.199,0.615-0.299,0.777-0.299s0.244,0.037,0.244,0.112c0,0.1-0.306,0.312-0.918,0.636
		c-0.138,0.075-0.346,0.434-0.627,1.077c-0.281,0.643-0.421,1.114-0.421,1.413c0,0.063,0.059,0.095,0.178,0.095
		s0.353-0.112,0.702-0.337L37.188,20.2z"/>
	<path fill="#545454" d="M45.913,15.425c-0.537,0.762-1.401,1.567-2.594,2.415c-1.192,0.85-2.181,1.274-2.968,1.274
		c-0.212,0-0.365-0.06-0.458-0.179c-0.093-0.118-0.141-0.314-0.141-0.59c0-0.686,0.272-1.55,0.815-2.593
		c0.542-1.042,1.232-2.063,2.068-3.062c0.836-0.998,1.845-1.856,3.024-2.574s2.325-1.076,3.436-1.076
		c0.761,0,1.142,0.468,1.142,1.403c0,0.624-0.325,1.567-0.974,2.827c-0.649,1.262-1.367,2.47-2.153,3.623
		c-0.786,1.155-1.504,2.204-2.153,3.146c-0.649,0.943-0.973,1.439-0.973,1.489c0.299-0.349,1.014-1.093,2.144-2.228
		c1.13-1.137,2.135-2.116,3.015-2.939c0.88-0.825,1.91-1.739,3.089-2.744c1.179-1.005,2.275-1.868,3.286-2.593
		c1.011-0.724,2.028-1.332,3.052-1.826c1.023-0.492,1.885-0.739,2.584-0.739c0.237,0,0.355,0.05,0.355,0.15
		c0,0.124-0.346,0.409-1.039,0.852s-1.064,0.665-1.114,0.665c-0.05,0-0.075-0.02-0.075-0.057c0-0.038,0.047-0.105,0.141-0.206
		c0.094-0.1,0.14-0.161,0.14-0.187S59.543,9.64,59.506,9.64c-0.762,0-2.19,0.737-4.288,2.209c-2.097,1.474-4.372,3.333-6.825,5.58
		s-4.509,4.375-6.169,6.385c-0.262,0.324-0.681,0.486-1.254,0.486c-0.1,0-0.15-0.019-0.15-0.056s0.075-0.125,0.225-0.262
		c0.149-0.138,0.567-0.656,1.254-1.555s1.133-1.513,1.339-1.844s0.689-1.052,1.451-2.163c0.761-1.111,1.414-2.084,1.957-2.921
		c0.542-0.836,1.104-1.815,1.685-2.939c0.581-1.123,0.933-2.034,1.058-2.733c-0.025-0.425-0.269-0.637-0.73-0.637
		c-0.674,0-1.539,0.344-2.593,1.029c-1.055,0.688-2.057,1.505-3.005,2.453c-0.949,0.949-1.767,1.963-2.453,3.043
		c-0.687,1.08-1.03,1.969-1.03,2.668c0,0.362,0.156,0.543,0.468,0.543c0.737,0,1.588-0.353,2.556-1.058
		c0.967-0.705,1.887-1.57,2.762-2.594c0.062-0.075,0.118-0.112,0.168-0.112c0.05,0,0.075,0.025,0.075,0.074
		C46.006,15.288,45.975,15.35,45.913,15.425z"/>
	<path fill="#545454" d="M47.261,22.428c0-0.936,0.54-1.869,1.62-2.799c1.08-0.931,1.975-1.396,2.687-1.396
		c0.349,0,0.524,0.156,0.524,0.469c0,0.887-0.475,1.771-1.423,2.658c0.075,0.025,0.15,0.037,0.225,0.037
		c0.349,0,0.855-0.217,1.517-0.654l0.094,0.188c-0.799,0.536-1.404,0.805-1.816,0.805c-0.163,0-0.281-0.031-0.356-0.094
		c-0.486,0.399-0.999,0.724-1.535,0.974c-0.538,0.25-0.927,0.374-1.17,0.374S47.261,22.803,47.261,22.428z M47.841,22.69
		c0.475,0,1.242-0.499,2.303-1.498v-0.094c0-0.387,0.19-0.864,0.571-1.433c0.38-0.567,0.727-0.933,1.039-1.096
		c-0.038-0.037-0.087-0.056-0.15-0.056c-0.462,0-1.226,0.53-2.294,1.591c-1.067,1.062-1.601,1.886-1.601,2.473
		C47.71,22.652,47.753,22.69,47.841,22.69z M51.829,18.777v-0.02c-0.25,0.126-0.524,0.422-0.824,0.89s-0.474,0.87-0.524,1.208
		C51.38,19.932,51.829,19.238,51.829,18.777z"/>
	<path fill="#545454" d="M52.166,21.155l-0.056-0.225l0.618-0.394c0.936-0.625,1.522-1.064,1.76-1.32
		c0.237-0.256,0.381-0.415,0.431-0.478c0.325-0.411,0.506-0.643,0.543-0.692c0.15,0.05,0.225,0.199,0.225,0.449
		c-0.25,0.362-0.587,0.796-1.011,1.302c-0.425,0.505-0.774,0.924-1.048,1.254c-0.275,0.33-0.412,0.521-0.412,0.57
		c0,0.051,0.009,0.075,0.028,0.075c0.019,0,0.112-0.065,0.281-0.196c0.169-0.131,0.627-0.458,1.376-0.983
		c1.51-1.048,2.471-1.713,2.884-1.994c0.412-0.28,0.677-0.421,0.795-0.421s0.178,0.122,0.178,0.365s-0.187,0.609-0.562,1.096
		s-0.787,0.936-1.236,1.348c-1.198,1.099-1.797,1.704-1.797,1.816c0,0.012,0.025,0.019,0.075,0.019c0.15,0,0.993-0.493,2.528-1.479
		l0.768-0.506l0.019,0.243c-2.01,1.336-3.233,2.004-3.67,2.004c-0.075,0-0.112-0.038-0.112-0.113c0-0.461,0.291-1.008,0.871-1.638
		c0.58-0.631,1.157-1.198,1.731-1.704s0.862-0.839,0.862-1.001c0-0.025-0.013-0.038-0.038-0.038
		c-0.362,0.175-1.202,0.728-2.519,1.657s-2.087,1.476-2.312,1.638c-0.587,0.438-0.896,0.665-0.927,0.684
		c-0.031,0.02-0.097,0.085-0.197,0.197c-0.225,0.236-0.431,0.355-0.618,0.355c-0.3-0.025-0.456-0.044-0.468-0.057
		c-0.012-0.012-0.019-0.025-0.019-0.037s0.106-0.132,0.318-0.356c0.2-0.211,0.399-0.424,0.599-0.636
		c0.662-0.736,1.117-1.262,1.367-1.573L52.166,21.155z"/>
	<path fill="#545454" d="M62.52,22.896c-0.287,0-0.456-0.075-0.505-0.225c0-0.162,0.537-0.886,1.611-2.172
		c1.072-1.285,2.252-2.68,3.538-4.185c1.286-1.504,2.465-3.033,3.539-4.587c1.073-1.554,1.61-2.649,1.61-3.286
		c0-0.399-0.207-0.6-0.618-0.6c-0.674,0-1.386,0.179-2.135,0.534s-1.45,0.817-2.106,1.385c-0.654,0.568-1.289,1.202-1.9,1.901
		s-1.13,1.392-1.554,2.078c-0.961,1.497-1.442,2.59-1.442,3.276c0,0.362,0.15,0.543,0.449,0.543c0.413,0,1.08-0.349,2.003-1.048
		s1.742-1.398,2.453-2.098l1.067-1.03c0.024-0.024,0.065-0.037,0.122-0.037c0.056,0,0.084,0.02,0.084,0.057l-0.037,0.074
		c-0.113,0.113-0.266,0.269-0.459,0.469c-0.194,0.199-0.559,0.546-1.096,1.039s-1.039,0.93-1.508,1.311
		c-0.467,0.381-0.971,0.728-1.507,1.039c-0.536,0.313-0.961,0.468-1.273,0.468c-0.449,0-0.674-0.271-0.674-0.814
		c0-0.543,0.16-1.204,0.478-1.983c0.318-0.78,0.78-1.596,1.386-2.444c0.605-0.849,1.285-1.647,2.04-2.396
		c0.756-0.749,1.627-1.367,2.613-1.854c0.984-0.487,1.965-0.73,2.939-0.73c0.249,0,0.492,0.091,0.729,0.271s0.356,0.456,0.356,0.823
		c0,0.369-0.135,0.853-0.402,1.452c-0.27,0.599-0.672,1.298-1.209,2.097c-0.536,0.799-1.032,1.52-1.488,2.162
		c-0.455,0.643-1.061,1.427-1.816,2.351c-0.755,0.924-1.281,1.563-1.582,1.919c-0.299,0.355-0.742,0.883-1.329,1.582
		c0.013,0.012,0.068-0.02,0.169-0.094c5.317-4.818,8.319-7.533,9.006-8.145s1.058-0.948,1.113-1.011
		c0.057-0.063,0.098-0.106,0.123-0.132c0.1-0.1,0.227-0.149,0.383-0.149s0.234,0.074,0.234,0.225c0,0.375-0.547,1.323-1.639,2.846
		c-1.092,1.523-2.182,2.978-3.267,4.362c-1.087,1.387-1.63,2.104-1.63,2.153l0.02,0.02c0.762-0.662,2.324-2.095,4.69-4.297
		c2.365-2.203,4.431-4.104,6.197-5.702s2.749-2.396,2.948-2.396c0.138,0,0.207,0.088,0.207,0.262c0,0.337-0.284,0.938-0.853,1.798
		c-0.567,0.861-1.582,2.216-3.042,4.063c-0.063,0.074-1.074,1.285-3.033,3.632c-4.319,5.155-6.479,8.133-6.479,8.931
		c0,0.05,0.04,0.075,0.121,0.075c0.082,0,0.394-0.14,0.937-0.421c0.544-0.281,0.921-0.515,1.133-0.702s0.337-0.281,0.374-0.281
		c0.038,0,0.057,0.028,0.057,0.084c0,0.057-0.012,0.097-0.037,0.122c-0.138,0.176-0.559,0.462-1.264,0.861
		c-0.706,0.399-1.152,0.6-1.34,0.6c-0.187,0-0.28-0.081-0.28-0.243c0-0.786,0.668-2.173,2.003-4.157
		c2.098-3.133,4.637-6.348,7.621-9.643c0.375-0.424,1.067-1.26,2.078-2.509c1.012-1.248,1.517-1.923,1.517-2.022
		c0-0.024-0.007-0.037-0.019-0.037c-0.074,0-2.381,2.085-6.918,6.254c-4.538,4.169-7.475,6.89-8.811,8.163
		c-0.149,0.149-0.293,0.225-0.43,0.225c-0.362,0-0.543-0.044-0.543-0.131s0.087-0.24,0.262-0.459s1.111-1.363,2.809-3.436
		c3.994-4.881,5.992-7.439,5.992-7.677l-0.02-0.019c-0.111,0.05-1.748,1.511-4.905,4.381C65.766,19.8,63.144,22.222,62.52,22.896z"
		/>
	<path fill="#545454" d="M78.396,18.945c0.113-0.137,0.244-0.312,0.394-0.524c0.15-0.212,0.274-0.318,0.375-0.318
		c0.1,0,0.206,0.094,0.318,0.281c0,0.225-0.565,0.961-1.694,2.209c-1.131,1.248-1.695,1.929-1.695,2.041
		c0,0.025,0.037,0.037,0.112,0.037s0.513-0.255,1.312-0.768c1.672-1.073,3.113-2.253,4.324-3.538c0.3-0.275,0.563-0.413,0.787-0.413
		c0.012,0,0.024,0,0.037,0c0.236,0.014,0.355,0.045,0.355,0.095l-0.019,0.037c-0.536,0.5-1.335,1.342-2.396,2.527
		c-1.062,1.187-1.591,1.886-1.591,2.097c0,0.051,0.039,0.075,0.121,0.075c0.081,0,0.933-0.511,2.556-1.535l0.768-0.486l0.019,0.225
		c-0.149,0.1-0.344,0.225-0.58,0.374c-1.86,1.174-2.945,1.761-3.258,1.761c-0.113,0-0.169-0.063-0.169-0.188
		c0-0.124,0.153-0.479,0.459-1.066s0.527-0.961,0.665-1.123l-0.3,0.168c-1.885,1.348-3.015,2.021-3.39,2.021
		c-0.149,0-0.225-0.083-0.225-0.252c0-0.168,0.068-0.387,0.207-0.655c0.137-0.269,0.265-0.483,0.383-0.646
		c0.119-0.162,0.297-0.384,0.534-0.665c0.237-0.28,0.362-0.428,0.374-0.44l-1.46,0.861l-0.056-0.205l0.636-0.394
		C77.387,19.838,78.085,19.308,78.396,18.945z"/>
	<path fill="#545454" d="M82.198,22.596c0,0.163,0.062,0.244,0.187,0.244c0.15,0,0.487-0.103,1.012-0.31
		c0.524-0.205,0.955-0.408,1.292-0.608l1.835-1.16l0.019,0.243c-1.312,0.874-2.288,1.43-2.931,1.666
		c-0.643,0.237-1.07,0.356-1.282,0.356c-0.35,0-0.524-0.219-0.524-0.656c0-0.586,0.213-1.173,0.637-1.76s0.92-1.067,1.488-1.441
		s1.117-0.68,1.648-0.918c0.529-0.236,0.933-0.355,1.207-0.355s0.412,0.094,0.412,0.28c0,0.463-0.546,1.024-1.639,1.687
		c-1.092,0.661-2,1.099-2.725,1.31C82.41,21.785,82.198,22.259,82.198,22.596z M86.523,18.177c0-0.037-0.025-0.056-0.075-0.056
		c-0.337,0-0.86,0.294-1.573,0.881c-0.711,0.587-1.328,1.229-1.854,1.929c0.625-0.2,1.364-0.649,2.219-1.349
		C86.096,18.884,86.523,18.415,86.523,18.177z"/>
	<path fill="#545454" d="M96.989,10.332c0.112,0,0.169,0.069,0.169,0.206c0,0.6-1.339,2.194-4.017,4.784s-4.803,4.435-6.376,5.533
		c-0.549,0.786-0.823,1.354-0.823,1.703c0,0.112,0.024,0.169,0.075,0.169c0.512,0,1.43-0.412,2.752-1.235l1.123-0.73l0.02,0.243
		c-0.313,0.2-0.668,0.425-1.067,0.674c-1.448,0.899-2.453,1.349-3.015,1.349c-0.15,0-0.225-0.119-0.225-0.356
		c0-0.724,0.506-1.794,1.517-3.211c1.011-1.416,2.169-2.79,3.474-4.119c1.304-1.329,2.584-2.496,3.838-3.502
		C95.688,10.835,96.54,10.332,96.989,10.332z M96.634,10.669c-0.375,0-1.754,1.199-4.138,3.596c-2.385,2.396-4.194,4.45-5.43,6.16
		c1.147-0.874,3.035-2.587,5.663-5.14s3.942-4.072,3.942-4.56C96.672,10.7,96.658,10.683,96.634,10.669z"/>
	<path fill="#545454" d="M100.379,10.332c0.111,0,0.168,0.069,0.168,0.206c0,0.6-1.339,2.194-4.016,4.784
		c-2.679,2.59-4.803,4.435-6.377,5.533c-0.549,0.786-0.823,1.354-0.823,1.703c0,0.112,0.024,0.169,0.075,0.169
		c0.512,0,1.43-0.412,2.752-1.235l1.124-0.73l0.019,0.243c-0.313,0.2-0.668,0.425-1.067,0.674c-1.448,0.899-2.453,1.349-3.015,1.349
		c-0.149,0-0.225-0.119-0.225-0.356c0-0.724,0.506-1.794,1.518-3.211c1.01-1.416,2.168-2.79,3.473-4.119
		c1.304-1.329,2.584-2.496,3.838-3.502C99.077,10.835,99.929,10.332,100.379,10.332z M100.022,10.669
		c-0.374,0-1.754,1.199-4.138,3.596c-2.385,2.396-4.194,4.45-5.43,6.16c1.148-0.874,3.036-2.587,5.663-5.14
		c2.628-2.553,3.942-4.072,3.942-4.56C100.061,10.7,100.047,10.683,100.022,10.669z"/>
	<path fill="#545454" d="M93.058,22.596c0,0.163,0.062,0.244,0.187,0.244c0.15,0,0.487-0.103,1.012-0.31
		c0.524-0.205,0.955-0.408,1.292-0.608l1.835-1.16l0.019,0.243c-1.312,0.874-2.288,1.43-2.931,1.666
		c-0.643,0.237-1.07,0.356-1.282,0.356c-0.35,0-0.524-0.219-0.524-0.656c0-0.586,0.213-1.173,0.637-1.76s0.92-1.067,1.488-1.441
		s1.117-0.68,1.648-0.918c0.529-0.236,0.933-0.355,1.207-0.355s0.412,0.094,0.412,0.28c0,0.463-0.546,1.024-1.639,1.687
		c-1.092,0.661-2,1.099-2.725,1.31C93.27,21.785,93.058,22.259,93.058,22.596z M97.383,18.177c0-0.037-0.025-0.056-0.075-0.056
		c-0.337,0-0.86,0.294-1.573,0.881c-0.711,0.587-1.328,1.229-1.854,1.929c0.625-0.2,1.364-0.649,2.219-1.349
		C96.955,18.884,97.383,18.415,97.383,18.177z"/>
	<path fill="#545454" d="M103.074,20.2l0.15,0.168c-0.574,0.35-1.043,0.644-1.404,0.88c-0.363,0.237-0.637,0.356-0.824,0.356
		c-0.275,0-0.412-0.119-0.412-0.356c0-0.174,0.096-0.521,0.29-1.039c0.193-0.518,0.328-0.883,0.403-1.095l-0.057-0.057
		c-0.051,0-0.106,0.025-0.168,0.075c-1.262,1.011-2.076,1.691-2.444,2.04c-0.368,0.351-0.724,0.725-1.067,1.124
		c-0.343,0.399-0.53,0.618-0.561,0.655c-0.031,0.037-0.055,0.063-0.066,0.075c-0.037,0.037-0.166,0.057-0.384,0.057
		s-0.327-0.02-0.327-0.057c0.025-0.038,0.181-0.213,0.468-0.524c0.698-0.761,1.329-1.491,1.892-2.19L98.02,20.63
		c-0.575,0.35-0.993,0.612-1.255,0.787l-0.075-0.206l1.18-0.749c0.424-0.274,0.789-0.562,1.096-0.861
		c0.306-0.299,0.515-0.543,0.627-0.73s0.212-0.343,0.299-0.468c0.088-0.125,0.169-0.188,0.244-0.188
		c0.074,0,0.193,0.044,0.355,0.131c0,0.125-0.1,0.344-0.3,0.656c-0.2,0.312-0.399,0.593-0.599,0.842l-0.3,0.356
		c0,0.025,0.007,0.037,0.019,0.037c0.037,0,0.081-0.021,0.131-0.065s0.26-0.219,0.628-0.524c0.368-0.307,0.689-0.568,0.964-0.787
		c0.274-0.218,0.59-0.427,0.945-0.627c0.356-0.199,0.615-0.299,0.777-0.299S103,17.972,103,18.047c0,0.1-0.307,0.312-0.918,0.636
		c-0.138,0.075-0.346,0.434-0.627,1.077c-0.281,0.643-0.422,1.114-0.422,1.413c0,0.063,0.06,0.095,0.178,0.095
		c0.119,0,0.353-0.112,0.702-0.337L103.074,20.2z"/>
	<path fill="#545454" d="M113.484,10.127c0,0.587-1.083,1.956-3.248,4.109c-2.166,2.153-3.979,3.71-5.439,4.671l-0.3,0.356
		c-0.312,0.287-0.942,1.066-1.892,2.341c-0.074,0.124-0.111,0.193-0.111,0.205c0,0.014,0.01,0.02,0.027,0.02
		c0.02,0,0.09-0.041,0.215-0.122s0.594-0.414,1.405-1.001c1.872-1.361,3.239-2.254,4.101-2.679c0.074-0.024,0.125-0.037,0.149-0.037
		c0.138,0,0.206,0.115,0.206,0.347s-0.182,0.587-0.543,1.067c-0.362,0.48-0.762,0.926-1.198,1.339
		c-1.173,1.111-1.761,1.734-1.761,1.872c0,0.075,0.025,0.112,0.075,0.112c0.699-0.225,1.312-0.493,1.835-0.806l1.835-1.16
		l0.019,0.243c-1.311,0.874-2.287,1.43-2.93,1.666c-0.643,0.237-1.055,0.356-1.236,0.356c-0.181,0-0.271-0.057-0.271-0.169
		c0-0.225,0.318-0.674,0.955-1.348c0.637-0.675,1.271-1.333,1.9-1.976c0.631-0.644,0.945-1.027,0.945-1.151
		c0-0.025-0.018-0.038-0.056-0.038c-0.162,0-0.937,0.469-2.321,1.405c-1.387,0.936-2.426,1.669-3.117,2.2
		c-0.693,0.53-1.077,0.836-1.152,0.917c-0.074,0.081-0.268,0.141-0.58,0.178c-0.125,0-0.188-0.031-0.188-0.094
		s0.088-0.213,0.262-0.449c0.898-1.098,2.348-2.812,4.344-5.14c1.997-2.328,3.071-3.563,3.221-3.708
		c0.15-0.143,0.365-0.358,0.646-0.646c0.281-0.286,0.53-0.54,0.748-0.759c0.219-0.218,0.5-0.486,0.844-0.805
		c0.342-0.318,0.639-0.583,0.889-0.795c0.637-0.524,1.105-0.787,1.404-0.787c0.088,0,0.162,0.028,0.225,0.084
		C113.453,10.005,113.484,10.064,113.484,10.127z M108.13,15.013l-2.716,3.164c0.986-0.66,2.503-2.033,4.551-4.118
		c2.047-2.084,3.07-3.327,3.07-3.727c0-0.062-0.031-0.093-0.094-0.093s-0.131,0.018-0.205,0.056
		c-0.813,0.449-1.799,1.367-2.959,2.752c-0.051,0.051-0.309,0.359-0.777,0.928C108.531,14.542,108.242,14.889,108.13,15.013z"/>
	<path fill="#545454" d="M108.092,22.428c0-0.936,0.54-1.869,1.619-2.799c1.08-0.931,1.976-1.396,2.688-1.396
		c0.35,0,0.523,0.156,0.523,0.469c0,0.887-0.475,1.771-1.423,2.658c0.075,0.025,0.149,0.037,0.226,0.037
		c0.35,0,0.854-0.217,1.516-0.654l0.094,0.188c-0.799,0.536-1.404,0.805-1.816,0.805c-0.162,0-0.28-0.031-0.355-0.094
		c-0.486,0.399-0.998,0.724-1.535,0.974s-0.927,0.374-1.17,0.374S108.092,22.803,108.092,22.428z M108.672,22.69
		c0.475,0,1.242-0.499,2.303-1.498v-0.094c0-0.387,0.191-0.864,0.572-1.433c0.38-0.567,0.727-0.933,1.039-1.096
		c-0.038-0.037-0.088-0.056-0.15-0.056c-0.462,0-1.227,0.53-2.294,1.591c-1.067,1.062-1.601,1.886-1.601,2.473
		C108.541,22.652,108.584,22.69,108.672,22.69z M112.66,18.777v-0.02c-0.25,0.126-0.523,0.422-0.823,0.89s-0.475,0.87-0.524,1.208
		C112.211,19.932,112.66,19.238,112.66,18.777z"/>
	<path fill="#545454" d="M123.52,9.733c0.112,0,0.169,0.05,0.169,0.149c0,0.512-0.35,1.235-1.049,2.173
		c-0.699,0.936-1.554,1.885-2.565,2.845c-2.185,2.123-3.926,3.652-5.224,4.588l-1.198,1.498c0.1-0.075,0.188-0.112,0.262-0.112
		c0.199,0,0.3,0.144,0.3,0.431s-0.131,0.729-0.394,1.329c0.462-0.225,0.955-0.499,1.479-0.824l1.629-1.048l0.019,0.243
		c-1.473,0.974-2.559,1.598-3.258,1.872c-0.662,1.397-1.584,2.769-2.771,4.11c-1.186,1.342-2.215,2.013-3.089,2.013
		c-0.137,0-0.206-0.082-0.206-0.244c0-0.461,1.18-2.259,3.539-5.392s4.855-6.188,7.49-9.165
		C121.285,11.222,122.908,9.733,123.52,9.733z M108.017,28.663c0,0.037,0.024,0.056,0.075,0.056c0.624,0,1.438-0.611,2.443-1.835
		c1.004-1.223,1.888-2.521,2.648-3.895c-0.125-0.049-0.187-0.234-0.187-0.552c0-0.318,0.131-0.695,0.394-1.133
		C109.809,25.785,108.017,28.238,108.017,28.663z M113.952,21.285c0-0.049-0.013-0.074-0.038-0.074
		c-0.174,0-0.327,0.144-0.459,0.431c-0.131,0.287-0.196,0.527-0.196,0.721s0.019,0.321,0.056,0.384
		C113.74,21.973,113.952,21.485,113.952,21.285z M123.221,10.201c0-0.024-0.02-0.037-0.057-0.037c-0.438,0-2.965,2.808-7.584,8.426
		c1.262-0.911,2.85-2.381,4.766-4.41C122.262,12.152,123.221,10.826,123.221,10.201z"/>
	<path fill="#545454" d="M127.265,9.733c0.112,0,0.169,0.05,0.169,0.149c0,0.512-0.35,1.235-1.049,2.173
		c-0.699,0.936-1.555,1.885-2.565,2.845c-2.185,2.123-3.926,3.652-5.224,4.588l-1.199,1.498c0.101-0.075,0.188-0.112,0.264-0.112
		c0.199,0,0.299,0.144,0.299,0.431s-0.131,0.729-0.393,1.329c0.461-0.225,0.954-0.499,1.479-0.824l1.629-1.048l0.019,0.243
		c-1.474,0.974-2.559,1.598-3.258,1.872c-0.662,1.397-1.585,2.769-2.771,4.11S112.447,29,111.574,29
		c-0.137,0-0.206-0.082-0.206-0.244c0-0.461,1.18-2.259,3.538-5.392c2.359-3.133,4.856-6.188,7.49-9.165
		C125.029,11.222,126.652,9.733,127.265,9.733z M111.762,28.663c0,0.037,0.025,0.056,0.074,0.056c0.625,0,1.439-0.611,2.443-1.835
		c1.006-1.223,1.889-2.521,2.649-3.895c-0.124-0.049-0.187-0.234-0.187-0.552c0-0.318,0.131-0.695,0.393-1.133
		C113.553,25.785,111.762,28.238,111.762,28.663z M117.697,21.285c0-0.049-0.014-0.074-0.037-0.074
		c-0.176,0-0.328,0.144-0.459,0.431c-0.132,0.287-0.197,0.527-0.197,0.721s0.019,0.321,0.057,0.384
		C117.484,21.973,117.697,21.485,117.697,21.285z M126.965,10.201c0-0.024-0.019-0.037-0.056-0.037
		c-0.438,0-2.966,2.808-7.583,8.426c1.26-0.911,2.848-2.381,4.765-4.41C126.007,12.152,126.965,10.826,126.965,10.201z"/>
</g>
</svg>
