<?xml version="1.0" encoding="utf-8"?>
<!-- Generator: Adobe Illustrator 16.0.0, SVG Export Plug-In . SVG Version: 6.00 Build 0)  -->
<!DOCTYPE svg PUBLIC "-//W3C//DTD SVG 1.1//EN" "http://www.w3.org/Graphics/SVG/1.1/DTD/svg11.dtd">
<svg version="1.1" id="图层_1" xmlns="http://www.w3.org/2000/svg" xmlns:xlink="http://www.w3.org/1999/xlink" x="0px" y="0px"
	 width="258px" height="36px" viewBox="0 0 258 36" enable-background="new 0 0 258 36" xml:space="preserve">
<g>
	<path fill="#545454" d="M28.007,16.014c-0.483,0.218-0.977,0.396-1.483,0.532c-0.506,0.138-1.015,0.268-1.526,0.391
		c-0.019,0-0.069,0.01-0.149,0.028c-0.081,0.019-0.164,0.041-0.249,0.063c-0.085,0.024-0.199,0.05-0.341,0.078
		c-0.113-0.037-0.225-0.039-0.333-0.006s-0.218,0.072-0.327,0.12c-0.108,0.047-0.225,0.083-0.348,0.106s-0.26,0.002-0.412-0.064
		c-0.028-0.009-0.081-0.002-0.156,0.021c-0.076,0.024-0.151,0.055-0.227,0.093c-0.076,0.037-0.142,0.083-0.199,0.134
		c-0.057,0.053-0.09,0.098-0.099,0.136l0.085,0.085c0.01,0.028-0.005,0.083-0.042,0.164c-0.038,0.08-0.081,0.165-0.128,0.255
		s-0.097,0.173-0.149,0.248c-0.052,0.076-0.092,0.123-0.121,0.142c0.009,0.086-0.012,0.188-0.064,0.306
		c-0.052,0.118-0.109,0.244-0.17,0.376c-0.062,0.133-0.118,0.27-0.17,0.412c-0.052,0.142-0.078,0.274-0.078,0.397
		c0,0.038,0.004,0.075,0.014,0.113c0.009,0.038,0.009,0.071,0,0.1l-0.014,0.028c-0.095,0.075-0.164,0.173-0.206,0.291
		s-0.076,0.241-0.099,0.369c-0.024,0.127-0.052,0.253-0.085,0.376s-0.087,0.231-0.163,0.326v0.015l-0.014,0.014
		c-0.123,0.057-0.225,0.066-0.305,0.028c-0.081-0.037-0.151-0.095-0.213-0.17s-0.119-0.163-0.17-0.263
		c-0.052-0.099-0.111-0.187-0.178-0.263c-0.038-0.123-0.052-0.229-0.042-0.319c0.01-0.09,0.052-0.182,0.128-0.276l0.028-0.015
		c-0.057-0.075-0.073-0.144-0.05-0.206c0.024-0.061,0.052-0.12,0.085-0.177s0.057-0.116,0.071-0.178s-0.017-0.135-0.092-0.22
		l0.028-0.028c0.123-0.123,0.189-0.263,0.199-0.42c0.01-0.155,0.002-0.313-0.021-0.475c-0.024-0.161-0.038-0.322-0.043-0.482
		c-0.004-0.161,0.041-0.308,0.135-0.44l0.015-0.014c0.009-0.058-0.028-0.133-0.114-0.228c-0.085-0.095-0.151-0.166-0.199-0.213
		c-0.057,0.142-0.13,0.216-0.22,0.221c-0.09,0.004-0.189-0.008-0.298-0.036s-0.215-0.052-0.319-0.071
		c-0.104-0.019-0.199,0.015-0.284,0.1l-0.071,0.057l-0.028-0.057c-0.038-0.085-0.087-0.13-0.149-0.135s-0.13-0.002-0.206,0.007
		c-0.113,0.01-0.22,0.017-0.319,0.021c-0.099,0.005-0.201,0.007-0.305,0.007c-0.057-0.047-0.121-0.066-0.191-0.057
		c-0.071,0.01-0.142,0.02-0.213,0.028c-0.071,0.01-0.142,0.013-0.213,0.007c-0.071-0.004-0.14-0.045-0.206-0.12
		c-0.066,0.028-0.17,0.14-0.313,0.334c-0.142,0.194-0.291,0.409-0.447,0.646c-0.156,0.236-0.303,0.466-0.44,0.688
		c-0.138,0.223-0.229,0.376-0.277,0.461c-0.038,0.057-0.083,0.128-0.135,0.213c-0.052,0.085-0.106,0.173-0.163,0.263
		s-0.109,0.176-0.156,0.256s-0.085,0.148-0.113,0.205l0.014,0.043c0,0.095-0.014,0.168-0.042,0.22
		c-0.028,0.053-0.064,0.096-0.106,0.129c-0.043,0.032-0.083,0.062-0.121,0.085c-0.038,0.023-0.071,0.049-0.099,0.077
		c-0.076,0-0.132,0.02-0.17,0.058c-0.038,0.037-0.071,0.08-0.099,0.127c-0.029,0.048-0.064,0.09-0.106,0.128
		c-0.043,0.038-0.111,0.057-0.206,0.057c-0.038,0.048-0.062,0.081-0.071,0.1c-0.01,0.019-0.024,0.057-0.043,0.113
		c-0.019,0.066-0.035,0.114-0.049,0.143s-0.028,0.05-0.042,0.063c-0.015,0.015-0.031,0.028-0.05,0.043
		c-0.019,0.014-0.038,0.035-0.057,0.063c-0.057,0.01-0.1,0-0.128-0.028s-0.057-0.063-0.085-0.106
		c-0.029-0.042-0.055-0.085-0.078-0.127c-0.024-0.044-0.055-0.074-0.092-0.093l0.014-0.043c0.189-0.559,0.416-1.09,0.681-1.597
		c0.265-0.506,0.549-1.011,0.852-1.512c0.019-0.038,0.033-0.076,0.042-0.113c0.01-0.038,0.024-0.076,0.043-0.114
		c0.047-0.123,0.097-0.241,0.149-0.354s0.116-0.223,0.192-0.326c0.066-0.104,0.125-0.204,0.177-0.299
		c0.052-0.095,0.102-0.193,0.149-0.298l-0.028-0.028c-0.303-0.246-0.565-0.499-0.788-0.759c-0.222-0.261-0.433-0.557-0.631-0.888
		c-0.047-0.085-0.095-0.173-0.142-0.263s-0.095-0.173-0.142-0.248l-0.014-0.015c0-0.189,0.014-0.378,0.043-0.567
		c0.028-0.189,0.113-0.355,0.255-0.497l0.014-0.015v-0.014c0.047-0.095,0.099-0.166,0.156-0.213
		c0.057-0.048,0.116-0.085,0.177-0.113c0.062-0.029,0.125-0.055,0.192-0.079c0.066-0.022,0.132-0.063,0.198-0.12v-0.014
		c0.218-0.095,0.431-0.176,0.639-0.242c0.208-0.065,0.43-0.037,0.667,0.086l0.028-0.015c0.085-0.047,0.189-0.073,0.313-0.077
		c0.123-0.005,0.232-0.008,0.326-0.008c0.057,0.028,0.116,0.064,0.178,0.106c0.062,0.043,0.123,0.083,0.185,0.12
		c0.062,0.038,0.125,0.066,0.191,0.086c0.066,0.019,0.128,0.014,0.185-0.015h0.014v-0.014c0.095-0.095,0.17-0.229,0.227-0.405
		c0.057-0.174,0.116-0.361,0.178-0.561c0.062-0.198,0.13-0.395,0.206-0.589c0.076-0.193,0.18-0.362,0.313-0.504
		c0-0.028,0.019-0.092,0.057-0.192c0.038-0.099,0.078-0.212,0.121-0.34c0.042-0.127,0.076-0.256,0.1-0.383
		c0.023-0.129,0.021-0.234-0.007-0.32l0.128,0.015c0.038-0.038,0.062-0.071,0.071-0.1l-0.014-0.042
		c-0.038-0.038-0.052-0.086-0.042-0.143c0.009-0.057,0.023-0.108,0.042-0.156h-0.014L18.979,9.2c0.028-0.01,0.083-0.028,0.163-0.057
		c0.081-0.028,0.163-0.062,0.249-0.1c0.085-0.037,0.163-0.07,0.234-0.099c0.071-0.028,0.111-0.043,0.121-0.043
		c0.132,0.075,0.206,0.161,0.22,0.256s0.007,0.208-0.021,0.341c-0.01,0.065-0.012,0.12-0.007,0.163
		c0.005,0.042,0.007,0.092,0.007,0.148c0,0.095-0.024,0.211-0.071,0.348c-0.047,0.138-0.102,0.282-0.163,0.434
		s-0.13,0.293-0.206,0.426c-0.076,0.132-0.142,0.241-0.199,0.326v0.085c0,0.199-0.028,0.404-0.085,0.618
		c-0.057,0.212-0.128,0.423-0.213,0.631c-0.085,0.209-0.177,0.412-0.277,0.61c-0.099,0.199-0.196,0.389-0.291,0.568
		c-0.066,0.113-0.137,0.244-0.213,0.39c-0.076,0.147-0.149,0.296-0.22,0.447c-0.071,0.151-0.132,0.306-0.184,0.462
		c-0.052,0.156-0.088,0.296-0.106,0.419v0.014l-0.355,0.667c0.038,0.048,0.097,0.088,0.177,0.121s0.166,0.063,0.255,0.092
		c0.09,0.028,0.18,0.05,0.27,0.064c0.09,0.014,0.168,0.021,0.234,0.021c0.104,0,0.192,0.007,0.263,0.021
		c0.071,0.015,0.145,0.064,0.22,0.149l0.028,0.028h0.028c0.076-0.019,0.142-0.028,0.199-0.028s0.123,0,0.199,0
		c0.076,0.019,0.149,0.023,0.22,0.014c0.071-0.009,0.144-0.019,0.22-0.027l-0.014,0.099c0.047,0.048,0.085,0.081,0.114,0.1
		c0.047-0.076,0.104-0.151,0.17-0.228c0.038,0.057,0.071,0.1,0.099,0.128c0.028-0.019,0.064-0.057,0.106-0.113
		s0.073-0.085,0.092-0.085l0.014-0.015l0.014,0.015c0.17,0.057,0.327,0.075,0.469,0.057c0.142-0.02,0.298-0.028,0.468-0.028
		c0.028-0.066,0.068-0.118,0.121-0.156s0.1-0.078,0.142-0.12c0.042-0.044,0.068-0.088,0.078-0.136
		c0.009-0.047-0.014-0.113-0.071-0.198L21.463,16c0.066-0.114,0.119-0.206,0.156-0.277c0.038-0.07,0.073-0.135,0.106-0.191
		s0.054-0.095,0.064-0.113c0.189-0.313,0.355-0.632,0.497-0.958c0.142-0.327,0.213-0.675,0.213-1.044v-0.099
		c0.019-0.01,0.038-0.015,0.057-0.015c0.142-0.057,0.218-0.136,0.227-0.233c0.009-0.101,0.004-0.207-0.014-0.32
		c-0.019-0.113-0.017-0.227,0.007-0.341c0.024-0.113,0.121-0.213,0.291-0.298l0.028-0.014l0.015-0.029
		c0.057-0.142,0.106-0.285,0.149-0.433c0.042-0.146,0.092-0.291,0.149-0.433c0.18-0.426,0.313-0.885,0.397-1.377
		c0.019-0.113,0.064-0.215,0.135-0.305c0.071-0.09,0.145-0.18,0.22-0.271c0.076-0.09,0.144-0.185,0.206-0.284
		c0.062-0.099,0.092-0.21,0.092-0.333c0-0.076-0.009-0.128-0.028-0.156V8.434l0.028-0.014c0.189-0.095,0.336-0.213,0.44-0.355
		c0.104-0.142,0.156-0.321,0.156-0.539c0-0.028-0.002-0.08-0.007-0.156c-0.005-0.075-0.017-0.123-0.036-0.142
		c0.085-0.057,0.175-0.133,0.27-0.228l0.029,0.015c0.18,0.132,0.291,0.268,0.333,0.404c0.042,0.138,0.052,0.277,0.028,0.419
		c-0.024,0.142-0.059,0.288-0.106,0.439s-0.071,0.308-0.071,0.469L25.48,8.761c-0.142,0.246-0.255,0.524-0.34,0.837
		c-0.085,0.313-0.128,0.615-0.128,0.909c-0.104,0-0.168,0.023-0.192,0.07c-0.023,0.048-0.042,0.107-0.057,0.178
		c-0.014,0.071-0.033,0.145-0.057,0.22c-0.023,0.076-0.083,0.142-0.177,0.199l0.028,0.042c0,0.02,0.002,0.033,0.007,0.043
		c0.005,0.01,0.007,0.023,0.007,0.043c0,0.057-0.014,0.105-0.042,0.148c-0.029,0.042-0.057,0.086-0.085,0.128
		c-0.028,0.043-0.045,0.087-0.05,0.135c-0.004,0.047,0.017,0.1,0.064,0.156c0.038,0.057,0.062,0.09,0.071,0.1h-0.156
		c-0.151,0.293-0.289,0.591-0.412,0.894s-0.237,0.61-0.341,0.923c-0.085,0.265-0.175,0.525-0.27,0.781
		c-0.095,0.255-0.208,0.506-0.341,0.752v0.043c0.085,0.16,0.092,0.288,0.021,0.383c-0.071,0.095-0.147,0.177-0.228,0.249
		c-0.08,0.07-0.135,0.139-0.163,0.205s0.038,0.151,0.199,0.256c0.123-0.123,0.237-0.166,0.341-0.128s0.232,0.075,0.383,0.113
		c0.028-0.028,0.054-0.054,0.078-0.077c0.023-0.023,0.063-0.026,0.121-0.008c0.009,0.01,0.019,0.017,0.028,0.021
		s0.019,0.012,0.028,0.021c0.057-0.086,0.109-0.133,0.156-0.143c0.047-0.009,0.095-0.004,0.142,0.015
		c0.047,0.019,0.094,0.038,0.142,0.057s0.095,0.015,0.142-0.015c0.028-0.019,0.047-0.05,0.057-0.092
		c0.01-0.043,0.024-0.083,0.042-0.121c0.142,0.143,0.263,0.211,0.362,0.207c0.099-0.005,0.194-0.033,0.284-0.086
		c0.09-0.052,0.18-0.102,0.27-0.149c0.09-0.047,0.196-0.042,0.319,0.015c0.104,0,0.21-0.012,0.319-0.035s0.215-0.045,0.319-0.064
		c0.274-0.047,0.544-0.085,0.809-0.113s0.535-0.02,0.809,0.028L28.007,16.014z M17.092,13.288c-0.085,0-0.164,0.005-0.234,0.015
		c-0.071,0.01-0.135,0.043-0.192,0.1c-0.009-0.01-0.019-0.015-0.028-0.015c-0.369-0.104-0.724-0.085-1.064,0.057
		c-0.341,0.143-0.634,0.346-0.88,0.61l-0.028,0.114c-0.009,0.028-0.014,0.059-0.014,0.092s0,0.06,0,0.078
		c0,0.18,0.042,0.346,0.128,0.497c0.057,0.113,0.125,0.208,0.206,0.284c0.081,0.075,0.17,0.146,0.27,0.213
		c0.099,0.065,0.199,0.132,0.298,0.198c0.1,0.066,0.192,0.146,0.277,0.241c0.189,0,0.319-0.05,0.391-0.148
		c0.071-0.101,0.123-0.218,0.156-0.355c0.033-0.137,0.069-0.276,0.106-0.419c0.038-0.142,0.119-0.255,0.242-0.341
		c0.009,0,0.014-0.002,0.014-0.007c0-0.004,0.004-0.007,0.014-0.007c-0.038-0.095-0.036-0.189,0.007-0.284
		c0.043-0.095,0.095-0.189,0.156-0.284c0.062-0.094,0.114-0.193,0.156-0.298C17.113,13.525,17.12,13.411,17.092,13.288z"/>
	<path fill="#545454" d="M35.232,16.823c0.038,0.142,0.023,0.262-0.042,0.362c-0.066,0.099-0.154,0.187-0.263,0.262
		c-0.109,0.076-0.227,0.145-0.355,0.206c-0.127,0.062-0.234,0.13-0.319,0.206c-0.426,0.095-0.812,0.163-1.157,0.206
		c-0.345,0.042-0.727,0.097-1.143,0.163c-0.123,0.019-0.239,0.017-0.348-0.008c-0.108-0.022-0.22-0.03-0.333-0.021
		c-0.066,0-0.127-0.002-0.185-0.008c-0.057-0.004-0.113-0.002-0.17,0.008c-0.217,0.019-0.359,0.092-0.426,0.22
		c-0.066,0.128-0.121,0.274-0.163,0.44s-0.095,0.321-0.156,0.468c-0.062,0.147-0.191,0.249-0.39,0.306
		c-0.019,0.047-0.012,0.09,0.021,0.128c0.033,0.037,0.06,0.07,0.078,0.099c-0.161,0.048-0.267,0.133-0.319,0.256
		c-0.052,0.123-0.097,0.246-0.135,0.369s-0.092,0.227-0.163,0.313c-0.071,0.085-0.206,0.113-0.405,0.085
		c-0.293,0.313-0.639,0.565-1.036,0.76c-0.397,0.193-0.809,0.319-1.235,0.376c-0.076-0.038-0.149-0.086-0.22-0.143
		c-0.071-0.057-0.142-0.108-0.213-0.156c-0.071-0.047-0.146-0.083-0.227-0.105c-0.081-0.024-0.173-0.026-0.277-0.008
		c-0.009-0.198-0.049-0.383-0.121-0.554c-0.071-0.17-0.163-0.331-0.277-0.482c-0.019-0.17,0.002-0.328,0.064-0.476
		c0.062-0.146,0.125-0.291,0.191-0.433c0.066-0.142,0.121-0.286,0.164-0.433s0.036-0.315-0.021-0.504
		c0.095-0.058,0.159-0.123,0.192-0.199s0.057-0.153,0.071-0.234c0.014-0.08,0.036-0.156,0.064-0.227
		c0.028-0.071,0.095-0.131,0.199-0.178c-0.076-0.228-0.064-0.395,0.036-0.504c0.099-0.108,0.22-0.206,0.362-0.291
		s0.274-0.18,0.397-0.284c0.123-0.104,0.17-0.26,0.142-0.468c0.057-0.058,0.123-0.104,0.198-0.143
		c0.076-0.038,0.149-0.073,0.22-0.106c0.071-0.032,0.14-0.068,0.206-0.106c0.066-0.038,0.127-0.09,0.184-0.156
		c-0.066-0.047-0.097-0.095-0.092-0.142c0.004-0.048,0.017-0.097,0.035-0.148c0.019-0.053,0.041-0.107,0.064-0.164
		c0.024-0.057,0.021-0.113-0.007-0.17c0.256,0.038,0.48,0.003,0.674-0.107c0.194-0.107,0.379-0.22,0.554-0.333
		c0.175-0.113,0.353-0.193,0.532-0.241c0.18-0.047,0.388,0.01,0.625,0.17c0.019,0.066,0.05,0.164,0.092,0.291
		c0.043,0.129,0.085,0.259,0.128,0.391c0.042,0.133,0.083,0.261,0.121,0.384c0.038,0.123,0.062,0.213,0.071,0.27
		c0,0.047,0,0.123,0,0.227c0,0.104,0,0.216,0,0.334s0,0.229,0,0.334c0,0.104,0,0.184,0,0.241c0.274,0.16,0.549,0.258,0.823,0.29
		c0.274,0.034,0.549-0.03,0.823-0.191c0.104,0.095,0.203,0.121,0.298,0.078c0.095-0.042,0.187-0.092,0.277-0.148
		s0.182-0.088,0.277-0.092c0.095-0.005,0.189,0.072,0.284,0.233c0.133-0.123,0.27-0.2,0.412-0.233
		c0.142-0.033,0.289-0.053,0.44-0.058c0.151-0.004,0.3-0.017,0.447-0.035C34.946,16.988,35.09,16.927,35.232,16.823z M29.682,18.2
		c-0.189,0-0.353-0.045-0.49-0.135s-0.274-0.192-0.412-0.306s-0.279-0.221-0.426-0.319c-0.146-0.1-0.324-0.158-0.532-0.178
		c-0.085,0.114-0.185,0.22-0.298,0.32c-0.113,0.099-0.213,0.205-0.298,0.318c-0.085,0.114-0.145,0.237-0.177,0.369
		c-0.033,0.133-0.012,0.284,0.064,0.455c-0.218,0.104-0.365,0.253-0.44,0.447c-0.076,0.193-0.125,0.404-0.149,0.631
		c-0.023,0.228-0.045,0.454-0.064,0.682c-0.019,0.227-0.08,0.431-0.185,0.61l0.313-0.213c0.038,0.019,0.068,0.047,0.092,0.085
		c0.023,0.038,0.026,0.08,0.007,0.128c0.076-0.076,0.161-0.135,0.256-0.178c0.094-0.042,0.191-0.075,0.291-0.099
		c0.099-0.023,0.199-0.046,0.298-0.064c0.1-0.019,0.196-0.047,0.291-0.085c0.237,0.132,0.407,0.161,0.511,0.085
		c0.104-0.075,0.189-0.189,0.255-0.341c0.066-0.151,0.137-0.31,0.213-0.475c0.076-0.166,0.199-0.269,0.369-0.306l-0.1-0.1
		c0.161-0.199,0.305-0.405,0.433-0.617C29.633,18.703,29.692,18.465,29.682,18.2z M29.782,17.064c0-0.142,0.023-0.294,0.071-0.454
		c0.047-0.161,0.085-0.32,0.114-0.476c0.028-0.156,0.026-0.306-0.007-0.447s-0.125-0.27-0.277-0.384
		c-0.104,0.058-0.189,0.135-0.255,0.235c-0.066,0.099-0.132,0.198-0.199,0.297c-0.066,0.101-0.144,0.183-0.234,0.249
		c-0.09,0.066-0.206,0.085-0.348,0.057c-0.047,0.113-0.047,0.205,0,0.277c0.047,0.07,0.104,0.137,0.17,0.198s0.13,0.125,0.191,0.191
		s0.083,0.151,0.064,0.256c0.038,0.028,0.09,0.055,0.156,0.077c0.066,0.024,0.135,0.039,0.206,0.044
		c0.071,0.005,0.139-0.003,0.206-0.021C29.706,17.145,29.753,17.111,29.782,17.064z"/>
	<path fill="#545454" d="M49.186,18.811c-0.085,0.075-0.201,0.173-0.348,0.29c-0.146,0.119-0.244,0.226-0.291,0.32
		c-0.057,0.095-0.102,0.18-0.135,0.255c-0.033,0.076-0.071,0.141-0.113,0.191c-0.042,0.053-0.1,0.093-0.17,0.121
		s-0.168,0.043-0.291,0.043c0,0.028-0.05,0.088-0.149,0.177c-0.1,0.091-0.206,0.186-0.319,0.284c-0.114,0.1-0.218,0.194-0.313,0.284
		s-0.142,0.148-0.142,0.178l-0.127-0.071c-0.019-0.01-0.073-0.007-0.164,0.007c-0.09,0.015-0.194,0.043-0.312,0.085
		c-0.118,0.043-0.234,0.103-0.348,0.178c-0.114,0.076-0.204,0.175-0.27,0.298l-0.057-0.014c-0.142-0.038-0.286-0.046-0.433-0.021
		c-0.146,0.023-0.291,0.035-0.433,0.035c-0.303,0.02-0.525-0.026-0.667-0.135c-0.142-0.108-0.293-0.314-0.454-0.617
		c-0.038-0.066-0.071-0.138-0.099-0.213c-0.029-0.076-0.052-0.151-0.071-0.228v-0.057c0.133-0.075,0.204-0.177,0.213-0.306
		c0.01-0.127,0.005-0.262-0.014-0.404c-0.019-0.142-0.031-0.278-0.036-0.411c-0.004-0.133,0.045-0.241,0.149-0.326
		c-0.057-0.151-0.05-0.296,0.021-0.433c0.071-0.138,0.14-0.268,0.206-0.391s0.099-0.242,0.099-0.355s-0.104-0.231-0.312-0.354
		c-0.218,0.085-0.423,0.191-0.618,0.318c-0.194,0.129-0.388,0.262-0.582,0.397c-0.194,0.139-0.388,0.272-0.582,0.405
		c-0.194,0.133-0.399,0.241-0.617,0.326c-0.199,0.218-0.407,0.404-0.625,0.562c-0.218,0.155-0.428,0.319-0.632,0.489
		s-0.388,0.362-0.554,0.574c-0.166,0.214-0.291,0.477-0.376,0.788c-0.047-0.057-0.095-0.094-0.142-0.113
		c-0.047-0.019-0.109-0.038-0.185-0.057c-0.104-0.028-0.18-0.059-0.227-0.092s-0.109-0.083-0.185-0.149l0.014-0.028
		c0.085-0.246,0.185-0.497,0.298-0.753c0.113-0.255,0.17-0.511,0.17-0.767c0-0.094-0.01-0.182-0.028-0.262
		c-0.019-0.08-0.029-0.168-0.029-0.263c0-0.171,0.029-0.327,0.085-0.469s0.121-0.274,0.191-0.397
		c0.071-0.123,0.137-0.243,0.199-0.362c0.062-0.117,0.092-0.243,0.092-0.376c0-0.104-0.023-0.208-0.071-0.313
		c-0.047-0.104-0.109-0.193-0.185-0.27c-0.142-0.01-0.274,0.008-0.397,0.05c-0.123,0.043-0.246,0.093-0.369,0.149
		s-0.25,0.105-0.383,0.149c-0.132,0.042-0.274,0.059-0.426,0.049c-0.199,0.199-0.402,0.396-0.61,0.589
		c-0.208,0.194-0.417,0.386-0.625,0.575c-0.436,0.388-0.859,0.79-1.271,1.207c-0.412,0.416-0.741,0.89-0.986,1.419
		c-0.047,0.104-0.088,0.211-0.121,0.319c-0.033,0.109-0.074,0.216-0.121,0.319c0,0.02-0.009,0.038-0.028,0.057h-0.071
		c-0.104,0-0.173,0.029-0.206,0.086c-0.033,0.057-0.057,0.121-0.071,0.191c-0.014,0.071-0.031,0.14-0.05,0.206
		c-0.019,0.065-0.062,0.108-0.127,0.127c-0.076,0.02-0.149,0.005-0.22-0.042c-0.071-0.048-0.13-0.095-0.177-0.143l-0.014-0.014
		c-0.095-0.151-0.147-0.308-0.156-0.469c-0.01-0.16,0.007-0.319,0.05-0.475c0.042-0.157,0.104-0.311,0.185-0.462
		c0.08-0.151,0.158-0.294,0.234-0.426c0.114-0.199,0.22-0.405,0.319-0.617c0.1-0.214,0.149-0.438,0.149-0.675
		c0-0.104-0.012-0.196-0.035-0.277c-0.024-0.079-0.045-0.162-0.064-0.248l0.313-0.213c-0.047-0.066-0.074-0.125-0.078-0.177
		c-0.005-0.052-0.005-0.103,0-0.149c0.004-0.047,0.009-0.093,0.014-0.135c0.005-0.043-0.002-0.088-0.021-0.135v-0.043l0.114-0.128
		c-0.019-0.312-0.028-0.605-0.028-0.88s-0.057-0.563-0.17-0.865c0.132-0.123,0.26-0.154,0.383-0.093s0.246,0.13,0.369,0.206v0.014
		l0.015,0.015c0.076,0.113,0.142,0.251,0.198,0.411c0.057,0.161,0.102,0.33,0.135,0.505c0.033,0.175,0.059,0.347,0.078,0.518
		c0.019,0.17,0.028,0.321,0.028,0.454c0,0.038-0.002,0.074-0.007,0.107c-0.005,0.032-0.007,0.067-0.007,0.105l-0.085,0.085
		c0.047,0.048,0.1,0.095,0.156,0.143c0.057,0.047,0.118,0.065,0.185,0.057c0.057-0.171,0.146-0.281,0.27-0.333
		c0.123-0.053,0.249-0.093,0.376-0.121c0.127-0.028,0.241-0.068,0.34-0.121c0.1-0.052,0.149-0.163,0.149-0.333
		c0-0.038-0.005-0.066-0.014-0.086l0.028-0.028c0.265-0.265,0.537-0.503,0.816-0.717c0.279-0.212,0.573-0.371,0.88-0.476
		c0.308-0.104,0.629-0.146,0.965-0.128c0.336,0.02,0.698,0.123,1.086,0.313l0.029,0.015l0.156,0.582l-0.099,0.099
		c0.095,0.133,0.13,0.287,0.106,0.462c-0.024,0.175-0.064,0.348-0.121,0.519c-0.057,0.17-0.109,0.328-0.156,0.476
		c-0.047,0.146-0.042,0.253,0.014,0.318c0.047,0.066,0.135,0.095,0.263,0.086c0.127-0.01,0.229-0.02,0.305-0.028
		c0.076-0.104,0.182-0.194,0.319-0.271c0.137-0.075,0.274-0.146,0.412-0.213c0.137-0.065,0.258-0.135,0.362-0.205
		c0.104-0.071,0.161-0.149,0.17-0.234c0.151,0.028,0.274,0.021,0.369-0.021c0.095-0.043,0.17-0.106,0.227-0.191
		s0.109-0.178,0.156-0.277c0.047-0.099,0.102-0.193,0.163-0.284c0.062-0.089,0.14-0.158,0.234-0.205
		c0.095-0.048,0.222-0.062,0.383-0.043c0.218-0.218,0.476-0.376,0.773-0.475c0.298-0.101,0.599-0.154,0.901-0.164
		c0.218-0.01,0.369,0.055,0.455,0.192c0.085,0.137,0.127,0.3,0.127,0.489c0,0.246-0.057,0.482-0.17,0.71
		c-0.113,0.227-0.241,0.459-0.383,0.695c-0.142,0.236-0.27,0.482-0.383,0.738c-0.113,0.255-0.17,0.539-0.17,0.852
		c0,0.028,0,0.077,0,0.149c0,0.07,0.004,0.142,0.014,0.212c0.009,0.071,0.021,0.138,0.035,0.199s0.036,0.102,0.064,0.12
		c0.038,0.02,0.071,0.033,0.1,0.043L44.7,20.229c0.218,0.028,0.412,0.069,0.582,0.121s0.355,0.035,0.554-0.05
		c0.057-0.019,0.116-0.033,0.177-0.043c0.062-0.009,0.121-0.023,0.178-0.042c0.085-0.01,0.137-0.045,0.156-0.106
		c0.019-0.062,0.055-0.123,0.107-0.186c0.052-0.061,0.137-0.117,0.255-0.17c0.118-0.052,0.314-0.078,0.589-0.078v-0.227
		c0.189-0.057,0.35-0.13,0.483-0.22c0.132-0.09,0.262-0.173,0.39-0.249c0.128-0.075,0.27-0.132,0.426-0.17
		S48.949,18.772,49.186,18.811z"/>
	<path fill="#545454" d="M58.98,16.937c-0.085,0.085-0.149,0.151-0.192,0.199c-0.042,0.047-0.081,0.092-0.113,0.135
		c-0.033,0.042-0.071,0.087-0.114,0.135c-0.042,0.047-0.106,0.118-0.191,0.213c-0.076,0.075-0.147,0.156-0.213,0.241
		c-0.066,0.085-0.142,0.161-0.228,0.227c-0.113-0.028-0.201-0.014-0.262,0.043c-0.062,0.057-0.119,0.12-0.17,0.192
		c-0.052,0.07-0.1,0.137-0.142,0.198s-0.097,0.087-0.163,0.078c-0.227,0.123-0.455,0.229-0.682,0.319s-0.445,0.22-0.653,0.391
		l-0.114-0.114l-1.476,0.71c-0.047,0.019-0.095,0.047-0.142,0.085s-0.094,0.071-0.142,0.1c-0.208,0.113-0.424,0.216-0.646,0.306
		c-0.223,0.09-0.442,0.172-0.66,0.248l-0.185,0.057c0.076,0.189,0.076,0.321,0,0.397c-0.076,0.075-0.185,0.13-0.326,0.163
		c-0.142,0.033-0.298,0.055-0.469,0.064c-0.17,0.009-0.303,0.042-0.397,0.099c-0.113-0.019-0.229-0.026-0.348-0.021
		s-0.239,0.017-0.362,0.036c-0.133,0.019-0.256,0.028-0.369,0.028c-0.114,0-0.237-0.015-0.369-0.043h-0.028
		c-0.161,0.076-0.3,0.092-0.419,0.05c-0.118-0.043-0.225-0.113-0.319-0.213c-0.095-0.099-0.182-0.217-0.263-0.354
		c-0.08-0.138-0.163-0.263-0.248-0.376c-0.057-0.076-0.128-0.186-0.213-0.327c-0.085-0.142-0.159-0.293-0.22-0.454
		s-0.1-0.324-0.114-0.489c-0.014-0.166,0.021-0.311,0.107-0.434c0.085-0.123,0.153-0.255,0.206-0.397
		c0.052-0.142,0.078-0.308,0.078-0.496c0-0.066-0.002-0.128-0.007-0.185c-0.004-0.058-0.007-0.119-0.007-0.185
		c0.047,0,0.099,0.002,0.156,0.006c0.057,0.006,0.111,0.006,0.163,0c0.052-0.004,0.095-0.022,0.128-0.057
		c0.033-0.032,0.049-0.092,0.049-0.177c0-0.047-0.017-0.085-0.049-0.113c-0.033-0.028-0.055-0.057-0.064-0.085
		c0.057-0.086,0.111-0.154,0.163-0.206s0.097-0.104,0.135-0.157c0.038-0.051,0.066-0.113,0.085-0.184
		c0.019-0.071,0.014-0.168-0.014-0.291c0.113-0.199,0.248-0.377,0.404-0.532c0.156-0.156,0.319-0.303,0.49-0.44
		c0.17-0.137,0.345-0.271,0.525-0.404c0.18-0.133,0.35-0.274,0.511-0.426c0.18,0.076,0.324,0.076,0.433,0s0.206-0.158,0.291-0.249
		c0.085-0.089,0.17-0.163,0.255-0.22s0.199-0.033,0.341,0.071l0.028,0.028c0.255-0.256,0.513-0.369,0.773-0.341
		s0.483,0.114,0.667,0.256c0.184,0.142,0.305,0.306,0.362,0.489c0.057,0.186,0.005,0.311-0.156,0.377
		c0.104,0.104,0.156,0.227,0.156,0.368c0,0.143-0.038,0.266-0.114,0.369c-0.085,0.114-0.158,0.23-0.22,0.349
		s-0.125,0.243-0.192,0.376c-0.095,0.218-0.199,0.424-0.312,0.617c-0.114,0.194-0.274,0.357-0.483,0.489
		c-0.17-0.047-0.286-0.028-0.348,0.057c-0.062,0.086-0.106,0.178-0.135,0.277c-0.028,0.099-0.062,0.178-0.1,0.234
		c-0.038,0.057-0.118,0.038-0.241-0.057l-0.028-0.028l-0.028,0.028c-0.076,0.075-0.135,0.16-0.177,0.255
		c-0.043,0.095-0.102,0.166-0.178,0.213c-0.085-0.028-0.175-0.052-0.27-0.07c-0.095-0.02-0.185-0.038-0.27-0.058
		c0,0.199-0.038,0.355-0.113,0.469s-0.173,0.206-0.291,0.276c-0.118,0.072-0.253,0.129-0.405,0.171
		c-0.151,0.043-0.3,0.095-0.447,0.156c-0.147,0.062-0.284,0.138-0.412,0.228c-0.128,0.09-0.229,0.215-0.305,0.376
		c0.094,0.104,0.213,0.163,0.354,0.177c0.142,0.015,0.289,0.015,0.44,0c0.151-0.014,0.3-0.021,0.447-0.021
		c0.147,0,0.277,0.037,0.391,0.113l0.014,0.014l0.014-0.014c0.227-0.028,0.447-0.083,0.66-0.163s0.421-0.165,0.625-0.256
		c0.203-0.09,0.412-0.175,0.625-0.255c0.213-0.081,0.433-0.141,0.66-0.178c0.047,0.075,0.111,0.118,0.191,0.128
		c0.081,0.009,0.159,0.004,0.234-0.015l0.014-0.028c0.019-0.066,0.038-0.125,0.057-0.178c0.019-0.052,0.047-0.111,0.085-0.177
		c0.066-0.104,0.146-0.185,0.241-0.242c0.095-0.057,0.196-0.099,0.305-0.127s0.225-0.048,0.348-0.057
		c0.123-0.01,0.246-0.024,0.369-0.043h0.028l0.014-0.043c0.038-0.113,0.087-0.191,0.149-0.233c0.062-0.044,0.128-0.074,0.199-0.093
		c0.071-0.019,0.147-0.033,0.228-0.043c0.08-0.009,0.158-0.037,0.234-0.085c0.17,0.057,0.313,0.038,0.426-0.057
		c0.114-0.095,0.223-0.194,0.327-0.298l0.114,0.142l0.042-0.057c0.142-0.133,0.249-0.231,0.319-0.298s0.14-0.125,0.206-0.178
		c0.066-0.052,0.145-0.104,0.234-0.156c0.09-0.052,0.215-0.13,0.376-0.234c0.133-0.085,0.263-0.17,0.391-0.255
		s0.253-0.18,0.376-0.284c0.047,0.019,0.071,0.055,0.071,0.106c0,0.053,0,0.102,0,0.149c-0.01,0.019-0.017,0.047-0.021,0.085
		S58.961,16.918,58.98,16.937z M53.104,15.162c-0.009-0.01-0.017-0.014-0.021-0.014c-0.005,0-0.012-0.005-0.021-0.015
		c-0.199-0.104-0.364-0.153-0.497-0.149c-0.133,0.006-0.253,0.043-0.362,0.113c-0.109,0.072-0.208,0.162-0.298,0.271
		c-0.09,0.109-0.185,0.208-0.284,0.298c-0.099,0.091-0.215,0.158-0.348,0.206c-0.132,0.047-0.293,0.043-0.482-0.015
		c-0.028,0.151-0.055,0.301-0.078,0.448c-0.024,0.146-0.041,0.295-0.05,0.446c-0.161,0.057-0.286,0.138-0.376,0.241
		c-0.09,0.104-0.166,0.218-0.227,0.341c-0.062,0.123-0.119,0.254-0.17,0.391c-0.052,0.138-0.121,0.267-0.206,0.39l0.057,0.071
		c0.038-0.019,0.081-0.005,0.128,0.043c0.047,0.047,0.081,0.08,0.1,0.099c0.104-0.15,0.244-0.278,0.418-0.383
		c0.175-0.104,0.355-0.201,0.54-0.291s0.362-0.187,0.532-0.291c0.17-0.104,0.298-0.241,0.383-0.411
		c0.303-0.086,0.53-0.256,0.681-0.512c0.151-0.255,0.279-0.521,0.383-0.795c0.019-0.057,0.055-0.139,0.106-0.248
		C53.063,15.288,53.094,15.21,53.104,15.162z"/>
	<path fill="#545454" d="M72.764,18.811c-0.086,0.075-0.201,0.173-0.348,0.29c-0.146,0.119-0.244,0.226-0.291,0.32
		c-0.057,0.095-0.102,0.18-0.135,0.255c-0.033,0.076-0.071,0.141-0.114,0.191c-0.042,0.053-0.099,0.093-0.17,0.121
		s-0.168,0.043-0.291,0.043c0,0.028-0.05,0.088-0.149,0.177c-0.1,0.091-0.205,0.186-0.319,0.284c-0.113,0.1-0.218,0.194-0.312,0.284
		c-0.096,0.09-0.143,0.148-0.143,0.178l-0.128-0.071c-0.019-0.01-0.073-0.007-0.163,0.007c-0.09,0.015-0.193,0.043-0.313,0.085
		c-0.118,0.043-0.234,0.103-0.348,0.178c-0.113,0.076-0.203,0.175-0.27,0.298l-0.057-0.014c-0.143-0.038-0.287-0.046-0.434-0.021
		c-0.146,0.023-0.291,0.035-0.433,0.035c-0.303,0.02-0.524-0.026-0.667-0.135s-0.293-0.314-0.454-0.617
		c-0.038-0.066-0.071-0.138-0.1-0.213c-0.028-0.076-0.052-0.151-0.071-0.228v-0.057c0.133-0.075,0.204-0.177,0.213-0.306
		c0.01-0.127,0.006-0.262-0.014-0.404c-0.02-0.142-0.031-0.278-0.035-0.411c-0.005-0.133,0.045-0.241,0.148-0.326
		c-0.057-0.151-0.049-0.296,0.021-0.433c0.07-0.138,0.14-0.268,0.206-0.391c0.065-0.123,0.099-0.242,0.099-0.355
		s-0.104-0.231-0.312-0.354c-0.218,0.085-0.424,0.191-0.618,0.318c-0.193,0.129-0.388,0.262-0.582,0.397
		c-0.193,0.139-0.388,0.272-0.582,0.405c-0.193,0.133-0.399,0.241-0.617,0.326c-0.198,0.218-0.406,0.404-0.624,0.562
		c-0.218,0.155-0.429,0.319-0.632,0.489c-0.204,0.17-0.388,0.362-0.554,0.574c-0.166,0.214-0.291,0.477-0.376,0.788
		c-0.047-0.057-0.095-0.094-0.142-0.113c-0.047-0.019-0.109-0.038-0.185-0.057c-0.104-0.028-0.18-0.059-0.227-0.092
		s-0.109-0.083-0.185-0.149l0.014-0.028c0.085-0.246,0.185-0.497,0.298-0.753c0.113-0.255,0.17-0.511,0.17-0.767
		c0-0.094-0.009-0.182-0.028-0.262c-0.019-0.08-0.028-0.168-0.028-0.263c0-0.171,0.028-0.327,0.085-0.469
		c0.057-0.142,0.121-0.274,0.192-0.397s0.137-0.243,0.199-0.362c0.062-0.117,0.092-0.243,0.092-0.376
		c0-0.104-0.024-0.208-0.071-0.313c-0.047-0.104-0.109-0.193-0.185-0.27c-0.142-0.01-0.274,0.008-0.397,0.05
		c-0.123,0.043-0.246,0.093-0.369,0.149s-0.251,0.105-0.383,0.149c-0.132,0.042-0.274,0.059-0.426,0.049
		c-0.199,0.199-0.402,0.396-0.61,0.589c-0.208,0.194-0.417,0.386-0.625,0.575c-0.436,0.388-0.859,0.79-1.271,1.207
		c-0.412,0.416-0.741,0.89-0.987,1.419c-0.047,0.104-0.087,0.211-0.121,0.319c-0.033,0.109-0.073,0.216-0.121,0.319
		c0,0.02-0.009,0.038-0.028,0.057h-0.071c-0.104,0-0.173,0.029-0.206,0.086s-0.057,0.121-0.071,0.191
		c-0.014,0.071-0.031,0.14-0.05,0.206c-0.019,0.065-0.062,0.108-0.128,0.127c-0.076,0.02-0.149,0.005-0.22-0.042
		c-0.071-0.048-0.13-0.095-0.178-0.143l-0.014-0.014c-0.095-0.151-0.146-0.308-0.156-0.469c-0.01-0.16,0.007-0.319,0.049-0.475
		c0.043-0.157,0.104-0.311,0.185-0.462c0.081-0.151,0.159-0.294,0.234-0.426c0.113-0.199,0.22-0.405,0.319-0.617
		c0.1-0.214,0.149-0.438,0.149-0.675c0-0.104-0.012-0.196-0.035-0.277c-0.024-0.079-0.045-0.162-0.064-0.248l0.312-0.213
		c-0.047-0.066-0.073-0.125-0.078-0.177c-0.004-0.052-0.004-0.103,0-0.149c0.005-0.047,0.01-0.093,0.014-0.135
		c0.005-0.043-0.002-0.088-0.021-0.135v-0.043l0.113-0.128c-0.019-0.312-0.028-0.605-0.028-0.88s-0.057-0.563-0.17-0.865
		c0.133-0.123,0.26-0.154,0.383-0.093s0.246,0.13,0.369,0.206v0.014l0.014,0.015c0.076,0.113,0.142,0.251,0.199,0.411
		c0.057,0.161,0.102,0.33,0.135,0.505c0.033,0.175,0.06,0.347,0.078,0.518c0.019,0.17,0.029,0.321,0.029,0.454
		c0,0.038-0.002,0.074-0.007,0.107c-0.005,0.032-0.007,0.067-0.007,0.105l-0.085,0.085c0.047,0.048,0.1,0.095,0.156,0.143
		c0.057,0.047,0.118,0.065,0.185,0.057c0.057-0.171,0.146-0.281,0.27-0.333c0.123-0.053,0.249-0.093,0.376-0.121
		c0.128-0.028,0.242-0.068,0.341-0.121c0.1-0.052,0.149-0.163,0.149-0.333c0-0.038-0.004-0.066-0.014-0.086l0.028-0.028
		c0.265-0.265,0.537-0.503,0.816-0.717c0.279-0.212,0.572-0.371,0.88-0.476c0.308-0.104,0.629-0.146,0.965-0.128
		c0.336,0.02,0.698,0.123,1.086,0.313l0.027,0.015l0.156,0.582l-0.099,0.099c0.095,0.133,0.13,0.287,0.106,0.462
		s-0.064,0.348-0.121,0.519c-0.057,0.17-0.108,0.328-0.156,0.476c-0.047,0.146-0.042,0.253,0.015,0.318
		c0.048,0.066,0.135,0.095,0.263,0.086c0.127-0.01,0.229-0.02,0.305-0.028c0.076-0.104,0.183-0.194,0.32-0.271
		c0.137-0.075,0.273-0.146,0.411-0.213c0.138-0.065,0.258-0.135,0.362-0.205c0.104-0.071,0.16-0.149,0.17-0.234
		c0.151,0.028,0.274,0.021,0.369-0.021c0.095-0.043,0.17-0.106,0.227-0.191s0.109-0.178,0.156-0.277
		c0.048-0.099,0.102-0.193,0.164-0.284c0.061-0.089,0.139-0.158,0.234-0.205c0.094-0.048,0.222-0.062,0.383-0.043
		c0.217-0.218,0.475-0.376,0.773-0.475c0.298-0.101,0.599-0.154,0.901-0.164c0.218-0.01,0.369,0.055,0.454,0.192
		c0.086,0.137,0.128,0.3,0.128,0.489c0,0.246-0.057,0.482-0.171,0.71c-0.113,0.227-0.24,0.459-0.383,0.695s-0.27,0.482-0.383,0.738
		c-0.113,0.255-0.171,0.539-0.171,0.852c0,0.028,0,0.077,0,0.149c0,0.07,0.005,0.142,0.015,0.212
		c0.01,0.071,0.021,0.138,0.035,0.199s0.035,0.102,0.064,0.12c0.037,0.02,0.07,0.033,0.099,0.043l-0.071,0.057
		c0.219,0.028,0.412,0.069,0.582,0.121c0.171,0.052,0.355,0.035,0.555-0.05c0.057-0.019,0.115-0.033,0.177-0.043
		c0.062-0.009,0.12-0.023,0.178-0.042c0.085-0.01,0.137-0.045,0.155-0.106c0.02-0.062,0.055-0.123,0.107-0.186
		c0.052-0.061,0.137-0.117,0.256-0.17c0.117-0.052,0.314-0.078,0.588-0.078v-0.227c0.189-0.057,0.351-0.13,0.482-0.22
		c0.133-0.09,0.264-0.173,0.391-0.249c0.128-0.075,0.27-0.132,0.426-0.17S72.527,18.772,72.764,18.811z"/>
	<path fill="#545454" d="M81.891,19.79c-0.133,0.227-0.234,0.409-0.305,0.547c-0.071,0.137-0.143,0.25-0.213,0.34
		c-0.071,0.09-0.152,0.171-0.242,0.241c-0.09,0.071-0.215,0.159-0.376,0.263c-0.104,0.095-0.208,0.175-0.312,0.241
		c-0.086,0.066-0.168,0.123-0.249,0.171c-0.081,0.047-0.145,0.07-0.191,0.07c-0.019,0-0.038-0.002-0.058-0.007
		c-0.019-0.005-0.037-0.007-0.057-0.007c-0.057,0-0.111,0.002-0.162,0.007c-0.053,0.005-0.098-0.03-0.136-0.106
		c-0.028,0.028-0.052,0.062-0.071,0.1c-0.019,0.038-0.037,0.073-0.057,0.106c-0.019,0.032-0.045,0.059-0.078,0.078
		c-0.033,0.019-0.078,0.019-0.135,0l-0.07-0.085l-0.213,0.184c-0.266-0.132-0.519-0.243-0.76-0.333
		c-0.241-0.091-0.457-0.196-0.646-0.319c-0.188-0.123-0.35-0.281-0.482-0.476c-0.132-0.193-0.227-0.462-0.283-0.802
		c-0.047-0.057-0.1-0.107-0.156-0.149c-0.057-0.043-0.123-0.055-0.199-0.035c-0.094,0.161-0.208,0.298-0.34,0.411
		c-0.133,0.113-0.266,0.236-0.398,0.369c-0.047,0.048-0.084,0.1-0.113,0.156c-0.028,0.057-0.066,0.109-0.113,0.156
		c-0.076,0.085-0.166,0.145-0.27,0.177c-0.104,0.034-0.209,0.064-0.313,0.093s-0.201,0.076-0.291,0.143
		c-0.09,0.065-0.154,0.18-0.191,0.34c-0.113-0.066-0.228-0.085-0.341-0.057c-0.085,0.02-0.175,0.04-0.27,0.064
		c-0.095,0.023-0.187,0.037-0.276,0.042s-0.178-0.007-0.264-0.035c-0.085-0.028-0.16-0.09-0.227-0.185
		c-0.133,0.057-0.256,0.054-0.369-0.008s-0.221-0.146-0.319-0.255c-0.1-0.108-0.196-0.225-0.291-0.348s-0.185-0.213-0.27-0.27
		c-0.058-0.151-0.055-0.281,0.007-0.391c0.062-0.108,0.128-0.213,0.199-0.312c0.07-0.101,0.12-0.199,0.148-0.299
		c0.028-0.099-0.014-0.22-0.127-0.362c0.094-0.142,0.18-0.291,0.255-0.446c0.075-0.157,0.153-0.313,0.234-0.47
		c0.08-0.155,0.165-0.307,0.255-0.454c0.09-0.146,0.201-0.271,0.334-0.375c-0.057-0.066-0.085-0.13-0.085-0.192
		c0-0.061,0.015-0.122,0.042-0.184c0.029-0.062,0.063-0.123,0.1-0.186c0.038-0.061,0.066-0.12,0.086-0.177l0.411-0.199l-0.1-0.341
		c0.104,0.02,0.183,0.015,0.234-0.014s0.09-0.071,0.114-0.128c0.023-0.057,0.042-0.12,0.057-0.192
		c0.014-0.07,0.035-0.134,0.063-0.19c0.048-0.086,0.118-0.147,0.213-0.186c0.198-0.151,0.396-0.312,0.589-0.482
		c0.194-0.17,0.389-0.336,0.582-0.496c0.193-0.161,0.395-0.314,0.604-0.462c0.208-0.146,0.436-0.271,0.682-0.376
		c0.17,0.028,0.305,0.08,0.404,0.156c0.1,0.075,0.175,0.165,0.227,0.27c0.053,0.104,0.093,0.221,0.121,0.348
		c0.028,0.128,0.057,0.253,0.085,0.376c0.048,0.161,0.104,0.299,0.171,0.412s0.18,0.208,0.34,0.284
		c-0.133,0.227-0.184,0.452-0.156,0.674c0.029,0.223,0.057,0.457,0.086,0.703c0.028,0.227,0.025,0.449-0.008,0.667
		s-0.172,0.411-0.418,0.582c-0.02,0.065-0.023,0.137-0.015,0.213c0.01,0.075,0.015,0.151,0.015,0.227
		c0,0.076-0.015,0.146-0.043,0.213s-0.08,0.118-0.156,0.156c0.086,0.104,0.131,0.208,0.135,0.313
		c0.005,0.104,0.01,0.203,0.015,0.298s0.028,0.18,0.071,0.256c0.042,0.075,0.144,0.133,0.305,0.17
		c0.028,0.123,0.055,0.216,0.078,0.276c0.023,0.063,0.052,0.112,0.085,0.149c0.033,0.038,0.078,0.074,0.135,0.106
		c0.058,0.034,0.133,0.083,0.228,0.149c0.075,0.019,0.16,0.019,0.256,0c0.094-0.019,0.17,0.01,0.227,0.085
		c0.047-0.047,0.104-0.073,0.17-0.077c0.066-0.005,0.128-0.003,0.186,0.006l0.184,0.313c0.104-0.075,0.223-0.142,0.355-0.198
		s0.26-0.104,0.383-0.143c0.143-0.037,0.284-0.07,0.426-0.099L81.891,19.79z M76.439,14.935c-0.085,0.076-0.189,0.152-0.313,0.228
		c-0.123,0.076-0.243,0.156-0.361,0.241s-0.221,0.178-0.305,0.277c-0.086,0.099-0.138,0.215-0.156,0.348
		c-0.219,0.037-0.369,0.128-0.455,0.27c-0.085,0.142-0.156,0.298-0.213,0.469c-0.057,0.17-0.118,0.338-0.184,0.504
		c-0.066,0.166-0.186,0.295-0.355,0.39c-0.057,0.038-0.109,0.058-0.156,0.058c0.01,0-0.019,0.019-0.085,0.057
		c-0.104,0.075-0.194,0.17-0.27,0.283c-0.076,0.114-0.14,0.237-0.192,0.369c-0.052,0.133-0.099,0.268-0.142,0.405
		c-0.042,0.137-0.083,0.262-0.12,0.376C73,19.227,72.9,19.255,72.834,19.293s-0.105,0.078-0.12,0.12
		c-0.015,0.043-0.013,0.093,0.007,0.149s0.047,0.118,0.086,0.185c0.037,0.057,0.077,0.123,0.12,0.199
		c0.042,0.075,0.078,0.151,0.106,0.227c0.028,0.076,0.045,0.151,0.05,0.228c0.005,0.075-0.017,0.146-0.063,0.213
		c0.132,0.104,0.26,0.126,0.383,0.063c0.123-0.061,0.236-0.13,0.34-0.206c0.039-0.028,0.078-0.059,0.121-0.093
		c0.043-0.032,0.088-0.059,0.135-0.077c0.218,0.047,0.416,0.033,0.597-0.043c0.18-0.075,0.345-0.18,0.497-0.312
		c0.15-0.133,0.298-0.275,0.439-0.426c0.143-0.152,0.284-0.284,0.426-0.398l-0.113-0.113c0.17-0.047,0.291-0.11,0.361-0.191
		c0.071-0.08,0.116-0.173,0.135-0.277c0.02-0.104,0.02-0.215,0-0.333c-0.019-0.118-0.032-0.244-0.042-0.376
		c-0.009-0.076-0.012-0.149-0.007-0.22c0.004-0.072,0.021-0.145,0.049-0.221c-0.075-0.218-0.087-0.426-0.035-0.624
		c0.053-0.199,0.123-0.391,0.213-0.575s0.178-0.371,0.263-0.561s0.128-0.388,0.128-0.597L76.439,14.935z"/>
	<path fill="#545454" d="M92.424,18.186c-0.209,0.474-0.398,0.841-0.568,1.101s-0.357,0.476-0.561,0.646s-0.438,0.329-0.703,0.476
		c-0.265,0.146-0.592,0.353-0.979,0.617c-0.162,0.01-0.337,0.046-0.525,0.107c-0.189,0.062-0.351,0.144-0.483,0.248
		c-0.284-0.028-0.544-0.09-0.78-0.185s-0.459-0.246-0.668-0.454c-0.047-0.048-0.09-0.1-0.127-0.156
		c-0.038-0.057-0.08-0.109-0.128-0.156c-0.104-0.123-0.171-0.232-0.198-0.327c-0.029-0.095-0.053-0.217-0.071-0.368
		c-0.038-0.218-0.095-0.374-0.171-0.469c-0.075-0.095-0.223-0.048-0.439,0.142l-0.128-0.113l-0.028,0.028
		c-0.086,0.066-0.154,0.123-0.206,0.17c-0.052,0.048-0.104,0.098-0.156,0.149c-0.052,0.053-0.102,0.106-0.149,0.163
		c-0.047,0.057-0.104,0.128-0.17,0.213c-0.113,0.143-0.238,0.289-0.376,0.44s-0.296,0.255-0.476,0.313
		c-0.028,0.028-0.052,0.055-0.07,0.078c-0.02,0.023-0.053,0.04-0.1,0.049c-0.057,0.02-0.123,0.015-0.199-0.014
		s-0.137-0.066-0.185-0.113c-0.104,0-0.196,0.026-0.276,0.078s-0.156,0.118-0.228,0.198c-0.071,0.081-0.138,0.163-0.198,0.248
		c-0.063,0.086-0.131,0.156-0.206,0.213c-0.151-0.057-0.291-0.065-0.419-0.028c-0.127,0.038-0.253,0.073-0.376,0.107
		c-0.123,0.032-0.246,0.046-0.369,0.042c-0.123-0.005-0.246-0.078-0.369-0.22c-0.057-0.284-0.104-0.544-0.142-0.781
		c-0.038-0.198-0.071-0.388-0.1-0.567s-0.043-0.289-0.043-0.326c0.048-0.048,0.068-0.111,0.064-0.191
		c-0.005-0.081-0.017-0.149-0.035-0.207c-0.02-0.009-0.029-0.019-0.029-0.027c0-0.01-0.01-0.02-0.027-0.029
		c0.047-0.037,0.082-0.085,0.105-0.142s0.06-0.104,0.107-0.142c-0.029-0.076-0.063-0.161-0.1-0.256
		c-0.038-0.095-0.057-0.189-0.057-0.284c0.027-0.075,0.054-0.118,0.078-0.128c0.023-0.009,0.078-0.023,0.162-0.042
		c-0.009-0.048-0.021-0.093-0.035-0.135c-0.014-0.043-0.016-0.088-0.007-0.135c0-0.095,0.021-0.178,0.063-0.249
		c0.043-0.07,0.088-0.142,0.135-0.212c0.048-0.072,0.09-0.149,0.129-0.235c0.037-0.085,0.057-0.184,0.057-0.298v-0.07
		c0.142,0,0.236-0.04,0.283-0.121c0.047-0.08,0.076-0.173,0.086-0.276c0.009-0.104,0.014-0.209,0.014-0.313
		c0-0.104,0.028-0.18,0.085-0.228c0.038-0.038,0.073-0.054,0.106-0.049s0.073,0.007,0.121,0.007
		c0.057-0.066,0.094-0.116,0.113-0.149s0.014-0.097-0.014-0.191c0.065,0,0.117-0.015,0.156-0.043
		c0.037-0.028,0.068-0.066,0.092-0.113c0.023-0.048,0.047-0.095,0.07-0.142c0.023-0.048,0.055-0.09,0.093-0.128
		c0-0.237,0.062-0.402,0.185-0.497s0.263-0.172,0.418-0.234c0.156-0.061,0.313-0.135,0.469-0.22s0.272-0.236,0.348-0.454
		c0.123,0.075,0.228,0.083,0.313,0.021c0.086-0.061,0.166-0.127,0.242-0.198c0.075-0.07,0.16-0.118,0.255-0.143
		c0.095-0.022,0.213,0.041,0.354,0.192c0.057-0.18,0.173-0.274,0.348-0.284c0.176-0.01,0.334,0.028,0.477,0.113v0.015h0.014
		c0.151,0.028,0.266,0.103,0.341,0.22c0.075,0.119,0.14,0.251,0.191,0.397c0.052,0.147,0.108,0.291,0.171,0.434
		c0.061,0.142,0.148,0.255,0.262,0.341c0.057-0.246,0.111-0.497,0.164-0.753c0.052-0.255,0.139-0.497,0.262-0.724
		c0.086,0.104,0.176,0.123,0.27,0.057l-0.014-0.028c0-0.151,0.031-0.289,0.092-0.412c0.063-0.123,0.123-0.243,0.186-0.362
		c0.061-0.117,0.1-0.24,0.113-0.369c0.014-0.127-0.031-0.271-0.135-0.433c0.16-0.047,0.276-0.137,0.348-0.27
		c0.07-0.132,0.127-0.276,0.17-0.433s0.09-0.314,0.143-0.476c0.052-0.161,0.135-0.298,0.248-0.412c0-0.028-0.002-0.057-0.007-0.085
		s-0.007-0.057-0.007-0.085c0.009-0.075,0.037-0.142,0.084-0.198c0.048-0.058,0.1-0.114,0.156-0.171s0.107-0.12,0.149-0.192
		c0.043-0.07,0.06-0.157,0.05-0.262c0.095-0.123,0.18-0.286,0.256-0.489c0.075-0.204,0.156-0.396,0.241-0.575
		s0.185-0.314,0.298-0.405c0.113-0.089,0.26-0.082,0.439,0.021c0.039,0.114,0.053,0.216,0.043,0.306s-0.062,0.182-0.156,0.276
		c0.057,0.057,0.1,0.104,0.128,0.143c-0.028,0.293-0.083,0.584-0.163,0.872c-0.08,0.289-0.158,0.57-0.234,0.845
		c0.02,0.02,0.038,0.038,0.057,0.058c0.02,0.019,0.038,0.037,0.057,0.057c-0.16,0.227-0.291,0.454-0.39,0.681
		c-0.1,0.228-0.187,0.474-0.263,0.738c-0.028,0.104-0.055,0.213-0.078,0.327c-0.023,0.113-0.055,0.217-0.092,0.312
		c-0.048,0.095-0.104,0.197-0.171,0.306c-0.066,0.109-0.123,0.215-0.171,0.319c-0.104,0.218-0.195,0.438-0.276,0.66
		c-0.08,0.223-0.158,0.447-0.233,0.674c-0.096,0.274-0.192,0.544-0.291,0.81c-0.1,0.265-0.221,0.525-0.363,0.78v0.228
		c-0.009,0.104-0.042,0.178-0.099,0.22c-0.057,0.043-0.12,0.081-0.192,0.113c-0.07,0.034-0.139,0.081-0.205,0.142
		c-0.066,0.063-0.113,0.164-0.143,0.306v0.015l0.015,0.014c0.095,0.209,0.116,0.4,0.063,0.575c-0.052,0.176-0.111,0.346-0.177,0.511
		c-0.066,0.166-0.111,0.329-0.135,0.49c-0.024,0.16,0.04,0.326,0.191,0.496c-0.01,0.189,0.028,0.339,0.113,0.448
		c0.085,0.108,0.185,0.2,0.298,0.276c0.114,0.075,0.23,0.145,0.348,0.206c0.119,0.062,0.207,0.14,0.264,0.233
		c0.094-0.094,0.195-0.167,0.305-0.22c0.109-0.052,0.218-0.092,0.326-0.12c0.109-0.029,0.218-0.055,0.326-0.079
		c0.109-0.022,0.216-0.054,0.32-0.092c0.246-0.066,0.416-0.146,0.511-0.241s0.142-0.156,0.142-0.185
		c0.01-0.133,0.06-0.218,0.149-0.256c0.09-0.037,0.194-0.063,0.313-0.078c0.118-0.014,0.236-0.035,0.354-0.063
		s0.206-0.1,0.263-0.213c0.104,0.01,0.196-0.025,0.276-0.106c0.081-0.08,0.154-0.163,0.221-0.248
		c0.066-0.086,0.133-0.156,0.198-0.213C92.276,18.114,92.348,18.119,92.424,18.186z M86.589,16
		c-0.151-0.114-0.253-0.243-0.306-0.391c-0.051-0.146-0.094-0.296-0.127-0.447s-0.076-0.295-0.128-0.434
		c-0.052-0.136-0.153-0.252-0.306-0.347l-0.027-0.015c-0.01,0-0.063,0.01-0.156,0.028c-0.096,0.02-0.152,0.033-0.171,0.043
		c0.075,0.066,0.123,0.123,0.142,0.17c0.02,0.048,0.021,0.095,0.008,0.143c-0.015,0.047-0.038,0.097-0.071,0.148
		c-0.033,0.053-0.06,0.116-0.078,0.191c-0.019,0.02-0.057,0.013-0.113-0.021c-0.057-0.032-0.1-0.059-0.128-0.077
		c-0.133,0.198-0.319,0.329-0.561,0.39c-0.241,0.063-0.471,0.121-0.688,0.178c0.019,0.048,0.038,0.09,0.057,0.128
		s0.038,0.08,0.057,0.128c-0.284,0.189-0.489,0.418-0.617,0.688c-0.128,0.269-0.241,0.549-0.341,0.837
		c-0.1,0.289-0.218,0.567-0.355,0.838c-0.137,0.27-0.348,0.499-0.631,0.688c0.047,0.075,0.08,0.151,0.1,0.227
		c0.019,0.076,0.08,0.133,0.184,0.171c0.029,0.104,0.041,0.211,0.036,0.319c-0.005,0.109-0.017,0.215-0.036,0.319
		c-0.019,0.104-0.03,0.211-0.035,0.319c-0.004,0.109,0.008,0.22,0.035,0.334l0.029,0.028c0.293,0.104,0.522,0.113,0.688,0.028
		c0.166-0.085,0.313-0.194,0.44-0.327c0.128-0.132,0.268-0.255,0.419-0.369c0.151-0.113,0.364-0.142,0.639-0.085l0.057-0.085
		c-0.019-0.047-0.033-0.09-0.043-0.128c-0.009-0.038-0.014-0.08-0.014-0.128c0.01-0.104,0.038-0.187,0.086-0.248
		c0.047-0.062,0.108-0.13,0.184-0.206c0.066-0.075,0.131-0.156,0.191-0.241c0.063-0.085,0.121-0.175,0.178-0.27
		c0.057-0.085,0.123-0.158,0.199-0.221c0.075-0.061,0.175-0.068,0.298-0.021l0.27-1.022c0.01-0.047,0.055-0.09,0.135-0.127
		c0.081-0.038,0.151-0.081,0.213-0.128c0.062-0.048,0.1-0.109,0.114-0.185c0.014-0.076-0.041-0.176-0.164-0.299
		c0.02-0.037,0.033-0.085,0.043-0.142s0.023-0.108,0.043-0.156c0.019-0.047,0.042-0.085,0.07-0.113
		c0.029-0.028,0.076-0.033,0.143-0.015L86.589,16z"/>
	<path fill="#545454" d="M101.777,16.937c-0.085,0.085-0.148,0.151-0.191,0.199c-0.043,0.047-0.08,0.092-0.113,0.135
		c-0.033,0.042-0.071,0.087-0.113,0.135c-0.043,0.047-0.107,0.118-0.192,0.213c-0.075,0.075-0.146,0.156-0.213,0.241
		c-0.065,0.085-0.142,0.161-0.228,0.227c-0.113-0.028-0.201-0.014-0.262,0.043c-0.063,0.057-0.119,0.12-0.171,0.192
		c-0.052,0.07-0.099,0.137-0.142,0.198s-0.098,0.087-0.164,0.078c-0.227,0.123-0.453,0.229-0.681,0.319s-0.444,0.22-0.653,0.391
		l-0.113-0.114l-1.477,0.71c-0.047,0.019-0.094,0.047-0.142,0.085s-0.095,0.071-0.142,0.1c-0.209,0.113-0.424,0.216-0.646,0.306
		s-0.441,0.172-0.66,0.248l-0.184,0.057c0.075,0.189,0.075,0.321,0,0.397c-0.076,0.075-0.186,0.13-0.327,0.163
		s-0.298,0.055-0.468,0.064c-0.171,0.009-0.303,0.042-0.398,0.099c-0.113-0.019-0.229-0.026-0.348-0.021
		c-0.118,0.005-0.238,0.017-0.361,0.036c-0.133,0.019-0.256,0.028-0.369,0.028s-0.236-0.015-0.369-0.043h-0.028
		c-0.161,0.076-0.301,0.092-0.419,0.05c-0.118-0.043-0.225-0.113-0.319-0.213c-0.095-0.099-0.183-0.217-0.263-0.354
		s-0.163-0.263-0.248-0.376c-0.057-0.076-0.128-0.186-0.213-0.327c-0.086-0.142-0.158-0.293-0.221-0.454
		c-0.061-0.161-0.1-0.324-0.113-0.489c-0.014-0.166,0.021-0.311,0.106-0.434s0.153-0.255,0.206-0.397
		c0.052-0.142,0.078-0.308,0.078-0.496c0-0.066-0.002-0.128-0.008-0.185c-0.004-0.058-0.007-0.119-0.007-0.185
		c0.048,0,0.1,0.002,0.156,0.006c0.058,0.006,0.111,0.006,0.163,0c0.053-0.004,0.095-0.022,0.128-0.057
		c0.033-0.032,0.05-0.092,0.05-0.177c0-0.047-0.017-0.085-0.05-0.113s-0.054-0.057-0.063-0.085c0.057-0.086,0.111-0.154,0.163-0.206
		s0.097-0.104,0.135-0.157c0.038-0.051,0.066-0.113,0.085-0.184c0.02-0.071,0.014-0.168-0.014-0.291
		c0.113-0.199,0.248-0.377,0.404-0.532c0.156-0.156,0.319-0.303,0.49-0.44c0.17-0.137,0.345-0.271,0.524-0.404
		c0.181-0.133,0.351-0.274,0.511-0.426c0.18,0.076,0.324,0.076,0.434,0c0.108-0.076,0.205-0.158,0.291-0.249
		c0.085-0.089,0.17-0.163,0.256-0.22c0.084-0.057,0.198-0.033,0.34,0.071l0.029,0.028c0.255-0.256,0.513-0.369,0.773-0.341
		c0.26,0.028,0.482,0.114,0.666,0.256c0.186,0.142,0.306,0.306,0.363,0.489c0.057,0.186,0.004,0.311-0.156,0.377
		c0.104,0.104,0.156,0.227,0.156,0.368c0,0.143-0.039,0.266-0.114,0.369c-0.085,0.114-0.159,0.23-0.22,0.349
		c-0.062,0.118-0.125,0.243-0.191,0.376c-0.096,0.218-0.199,0.424-0.313,0.617c-0.113,0.194-0.275,0.357-0.482,0.489
		c-0.171-0.047-0.287-0.028-0.348,0.057c-0.063,0.086-0.107,0.178-0.135,0.277c-0.029,0.099-0.063,0.178-0.1,0.234
		c-0.038,0.057-0.119,0.038-0.242-0.057l-0.027-0.028l-0.029,0.028c-0.075,0.075-0.135,0.16-0.178,0.255
		c-0.042,0.095-0.102,0.166-0.177,0.213c-0.085-0.028-0.175-0.052-0.27-0.07c-0.095-0.02-0.185-0.038-0.271-0.058
		c0,0.199-0.037,0.355-0.113,0.469c-0.075,0.113-0.172,0.206-0.291,0.276c-0.118,0.072-0.253,0.129-0.404,0.171
		c-0.151,0.043-0.301,0.095-0.447,0.156s-0.283,0.138-0.412,0.228c-0.127,0.09-0.229,0.215-0.305,0.376
		c0.095,0.104,0.213,0.163,0.355,0.177c0.142,0.015,0.288,0.015,0.439,0c0.151-0.014,0.301-0.021,0.447-0.021
		s0.277,0.037,0.391,0.113l0.014,0.014l0.015-0.014c0.228-0.028,0.446-0.083,0.659-0.163c0.214-0.08,0.422-0.165,0.625-0.256
		c0.203-0.09,0.412-0.175,0.625-0.255c0.213-0.081,0.433-0.141,0.66-0.178c0.047,0.075,0.111,0.118,0.191,0.128
		c0.08,0.009,0.158,0.004,0.234-0.015l0.014-0.028c0.02-0.066,0.038-0.125,0.057-0.178c0.02-0.052,0.048-0.111,0.086-0.177
		c0.066-0.104,0.146-0.185,0.241-0.242c0.095-0.057,0.196-0.099,0.306-0.127c0.107-0.028,0.225-0.048,0.348-0.057
		c0.123-0.01,0.246-0.024,0.369-0.043h0.027l0.015-0.043c0.038-0.113,0.087-0.191,0.149-0.233c0.061-0.044,0.127-0.074,0.198-0.093
		s0.146-0.033,0.228-0.043c0.08-0.009,0.158-0.037,0.234-0.085c0.17,0.057,0.312,0.038,0.426-0.057
		c0.113-0.095,0.222-0.194,0.326-0.298l0.113,0.142l0.043-0.057c0.142-0.133,0.248-0.231,0.319-0.298s0.14-0.125,0.206-0.178
		c0.066-0.052,0.145-0.104,0.234-0.156c0.09-0.052,0.215-0.13,0.375-0.234c0.133-0.085,0.264-0.17,0.391-0.255
		c0.128-0.085,0.254-0.18,0.377-0.284c0.047,0.019,0.07,0.055,0.07,0.106c0,0.053,0,0.102,0,0.149
		c-0.01,0.019-0.017,0.047-0.021,0.085C101.752,16.89,101.759,16.918,101.777,16.937z M95.9,15.162
		c-0.009-0.01-0.016-0.014-0.021-0.014c-0.004,0-0.012-0.005-0.021-0.015c-0.198-0.104-0.364-0.153-0.497-0.149
		c-0.133,0.006-0.253,0.043-0.361,0.113c-0.109,0.072-0.209,0.162-0.299,0.271c-0.09,0.109-0.185,0.208-0.283,0.298
		c-0.1,0.091-0.216,0.158-0.348,0.206c-0.133,0.047-0.294,0.043-0.483-0.015c-0.028,0.151-0.054,0.301-0.078,0.448
		c-0.023,0.146-0.04,0.295-0.05,0.446c-0.16,0.057-0.286,0.138-0.376,0.241c-0.09,0.104-0.165,0.218-0.228,0.341
		c-0.061,0.123-0.117,0.254-0.17,0.391c-0.052,0.138-0.121,0.267-0.205,0.39l0.057,0.071c0.037-0.019,0.08-0.005,0.127,0.043
		c0.048,0.047,0.081,0.08,0.1,0.099c0.104-0.15,0.244-0.278,0.419-0.383c0.175-0.104,0.354-0.201,0.54-0.291
		c0.184-0.09,0.361-0.187,0.531-0.291c0.171-0.104,0.299-0.241,0.384-0.411c0.303-0.086,0.53-0.256,0.681-0.512
		c0.152-0.255,0.279-0.521,0.384-0.795c0.019-0.057,0.054-0.139,0.106-0.248C95.861,15.288,95.892,15.21,95.9,15.162z"/>
	<path fill="#545454" d="M119.236,17.632c-0.018,0.256-0.068,0.447-0.148,0.575c-0.08,0.127-0.166,0.243-0.256,0.348
		s-0.18,0.223-0.27,0.354c-0.09,0.133-0.158,0.332-0.205,0.597c-0.313,0.123-0.54,0.268-0.682,0.434
		c-0.143,0.165-0.263,0.318-0.362,0.461c-0.099,0.142-0.218,0.251-0.354,0.326s-0.362,0.09-0.674,0.043
		c-0.048-0.058-0.098-0.109-0.149-0.156c-0.052-0.048-0.111-0.095-0.178-0.143c-0.075,0.199-0.173,0.331-0.291,0.397
		s-0.249,0.112-0.39,0.135c-0.143,0.024-0.289,0.055-0.44,0.093s-0.298,0.133-0.44,0.284c-0.359-0.048-0.646-0.128-0.858-0.242
		c-0.214-0.113-0.382-0.238-0.504-0.375c-0.123-0.138-0.22-0.284-0.291-0.441c-0.071-0.155-0.145-0.305-0.22-0.446
		c-0.076-0.142-0.168-0.271-0.277-0.39c-0.109-0.119-0.268-0.211-0.476-0.277c-0.095-0.028-0.173-0.033-0.233-0.015
		c-0.063,0.02-0.117,0.052-0.164,0.1c-0.047,0.047-0.092,0.102-0.135,0.163s-0.092,0.116-0.148,0.163l-0.156-0.156
		c-0.086,0.228-0.211,0.404-0.377,0.533c-0.166,0.127-0.354,0.222-0.567,0.284c-0.213,0.061-0.436,0.098-0.667,0.113
		c-0.232,0.014-0.452,0.021-0.66,0.021c-0.104,0.228-0.232,0.397-0.383,0.511c-0.152,0.114-0.32,0.199-0.504,0.256
		c-0.186,0.057-0.377,0.1-0.576,0.128c-0.198,0.028-0.401,0.071-0.609,0.128c-0.086-0.02-0.178-0.015-0.277,0.014
		s-0.199,0.059-0.298,0.092c-0.1,0.033-0.198,0.06-0.298,0.079c-0.1,0.019-0.183,0.009-0.248-0.028
		c-0.086-0.048-0.129-0.104-0.129-0.171s-0.023-0.128-0.07-0.185h-0.028c-0.198-0.019-0.36-0.082-0.483-0.191
		c-0.123-0.108-0.229-0.239-0.318-0.391s-0.168-0.313-0.234-0.482s-0.133-0.326-0.199-0.469c0-0.208-0.012-0.437-0.035-0.688
		c-0.023-0.25-0.026-0.501-0.008-0.752c0.02-0.25,0.072-0.485,0.156-0.702c0.086-0.218,0.228-0.394,0.426-0.525l0.043-0.028
		l-0.156-0.128c0.123-0.104,0.197-0.205,0.221-0.306c0.023-0.099,0.03-0.22,0.021-0.361c0.065-0.104,0.139-0.196,0.219-0.276
		c0.081-0.081,0.164-0.159,0.249-0.234c0.237-0.246,0.45-0.502,0.639-0.768c0.189-0.265,0.284-0.577,0.284-0.937
		c0-0.047-0.002-0.09-0.008-0.128c-0.004-0.037-0.006-0.08-0.006-0.127c0.132-0.038,0.258-0.102,0.375-0.191
		c0.119-0.09,0.234-0.18,0.348-0.271c0.114-0.09,0.232-0.163,0.355-0.22s0.251-0.071,0.383-0.043
		c-0.019-0.057-0.037-0.108-0.057-0.156c-0.019-0.047-0.028-0.099-0.028-0.156c0-0.16,0.06-0.303,0.178-0.426
		s0.225-0.231,0.319-0.326c0.076-0.075,0.16-0.168,0.256-0.276c0.094-0.108,0.165-0.188,0.213-0.234l-0.086-0.085
		c0.143-0.01,0.246-0.055,0.313-0.135s0.131-0.164,0.191-0.249c0.063-0.085,0.131-0.163,0.206-0.233
		c0.076-0.072,0.189-0.107,0.341-0.107h0.043c0.075-0.151,0.189-0.285,0.34-0.404c0.152-0.118,0.311-0.234,0.477-0.348
		c0.165-0.113,0.328-0.232,0.489-0.355c0.161-0.122,0.284-0.273,0.369-0.454c0.142-0.047,0.265-0.11,0.369-0.191
		c0.104-0.08,0.206-0.155,0.306-0.228c0.099-0.07,0.207-0.135,0.326-0.191c0.117-0.057,0.262-0.09,0.433-0.099
		c0.048-0.048,0.108-0.109,0.185-0.185c0.076-0.076,0.137-0.114,0.185-0.114s0.078,0.018,0.093,0.05
		c0.014,0.033,0.03,0.064,0.049,0.093c0.057-0.048,0.135-0.064,0.234-0.05c0.1,0.014,0.201,0.045,0.305,0.092
		c0.104,0.048,0.204,0.1,0.299,0.156c0.094,0.057,0.17,0.1,0.227,0.128c0.236,0.587,0.266,1.188,0.086,1.803
		c-0.048,0-0.1,0.003-0.156,0.008s-0.113,0.007-0.17,0.007c0-0.038,0.023-0.081,0.07-0.128c0.047-0.048,0.08-0.081,0.1-0.1
		c-0.113-0.057-0.199-0.135-0.256-0.233c-0.057-0.101-0.109-0.199-0.156-0.299s-0.106-0.189-0.178-0.27
		c-0.07-0.08-0.182-0.131-0.333-0.149c-0.208-0.028-0.402,0.008-0.582,0.106c-0.18,0.1-0.346,0.209-0.497,0.327
		s-0.293,0.227-0.426,0.325c-0.133,0.101-0.26,0.141-0.383,0.121c-0.057,0.114-0.121,0.209-0.191,0.284
		c-0.071,0.076-0.138,0.151-0.199,0.228c-0.062,0.075-0.109,0.16-0.143,0.255s-0.03,0.218,0.008,0.369
		c-0.341,0.322-0.688,0.632-1.043,0.93c-0.355,0.299-0.684,0.632-0.986,1.001l-0.156-0.156c0,0.066-0.021,0.126-0.064,0.178
		s-0.083,0.106-0.121,0.163c-0.037,0.057-0.068,0.12-0.092,0.192c-0.023,0.07-0.021,0.148,0.007,0.233
		c-0.075,0.048-0.14,0.103-0.191,0.163c-0.052,0.063-0.102,0.13-0.149,0.206c-0.057,0.085-0.115,0.163-0.178,0.233
		c-0.061,0.072-0.139,0.141-0.233,0.207l-0.015,0.014c0.01,0.095,0.015,0.185,0.015,0.27c0,0.086,0,0.18,0,0.284
		c-0.104,0.161-0.231,0.313-0.384,0.454c-0.15,0.143-0.298,0.287-0.439,0.434c-0.143,0.146-0.268,0.305-0.377,0.475
		c-0.108,0.171-0.172,0.36-0.191,0.568c-0.16,0.057-0.273,0.151-0.34,0.283c-0.066,0.133-0.119,0.271-0.156,0.412
		c-0.038,0.142-0.071,0.279-0.1,0.412c-0.028,0.132-0.086,0.231-0.17,0.298l0.127,0.128c-0.246,0.142-0.426,0.316-0.539,0.524
		c-0.113,0.209-0.133,0.455-0.057,0.738l0.014,0.015v0.014c0.275,0.237,0.554,0.364,0.838,0.384
		c0.283,0.019,0.592,0.005,0.922-0.043c0.152-0.019,0.297-0.03,0.434-0.035s0.271-0.007,0.404-0.007h0.029
		c0.132-0.133,0.273-0.215,0.426-0.248c0.15-0.033,0.316-0.051,0.496-0.051c0.151,0,0.299-0.009,0.44-0.028
		c0.142-0.019,0.265-0.09,0.368-0.213c0.039-0.038,0.066-0.075,0.086-0.113s0.043-0.076,0.07-0.113
		c0.02-0.02,0.039-0.038,0.058-0.058c0.019-0.019,0.038-0.037,0.057-0.057c0.208,0.048,0.401,0.021,0.582-0.077
		c0.18-0.101,0.353-0.221,0.519-0.362c0.165-0.143,0.33-0.286,0.496-0.433s0.334-0.249,0.504-0.306
		c0.218-0.218,0.362-0.454,0.434-0.71c0.07-0.255,0.115-0.525,0.135-0.809c0.009-0.143,0.021-0.274,0.035-0.397
		s0.037-0.239,0.07-0.349c0.033-0.108,0.084-0.212,0.149-0.313c0.066-0.099,0.161-0.2,0.284-0.305l0.028-0.028
		c-0.019-0.075-0.038-0.142-0.057-0.198c-0.019-0.058-0.028-0.128-0.028-0.213c0-0.181,0.033-0.351,0.1-0.512
		c0.066-0.16,0.139-0.323,0.22-0.489c0.08-0.165,0.153-0.343,0.22-0.532s0.1-0.402,0.1-0.639c0.133-0.228,0.279-0.459,0.439-0.696
		c0.161-0.236,0.336-0.463,0.525-0.681s0.393-0.412,0.611-0.582c0.217-0.171,0.453-0.303,0.709-0.397
		c0.123,0.01,0.248,0.021,0.376,0.035c0.128,0.014,0.249,0.031,0.362,0.05c-0.057,0.133-0.086,0.286-0.086,0.462
		c0,0.175-0.006,0.346-0.021,0.511c-0.015,0.166-0.055,0.314-0.12,0.447c-0.066,0.132-0.189,0.227-0.369,0.283
		c0.019,0.028,0.03,0.083,0.035,0.163c0.004,0.081,0.007,0.14,0.007,0.178c0,0.284-0.062,0.554-0.185,0.81
		c-0.123,0.255-0.263,0.509-0.418,0.76c-0.156,0.251-0.309,0.503-0.455,0.759s-0.248,0.516-0.305,0.78
		c-0.029,0.123-0.093,0.237-0.191,0.341c-0.1,0.104-0.199,0.209-0.299,0.313c-0.1,0.104-0.18,0.216-0.241,0.334
		s-0.068,0.248-0.021,0.39c-0.075,0.123-0.163,0.226-0.263,0.306c-0.1,0.081-0.187,0.161-0.262,0.241
		c-0.076,0.081-0.129,0.178-0.156,0.291c-0.029,0.113-0.01,0.26,0.057,0.44h0.014v0.014c0.104,0.161,0.185,0.326,0.242,0.497
		c0.057,0.17,0.12,0.336,0.191,0.497c0.07,0.16,0.165,0.307,0.283,0.439c0.119,0.133,0.287,0.232,0.504,0.298
		c0.02-0.104,0.062-0.158,0.128-0.163c0.066-0.004,0.138-0.007,0.213-0.007c0.048,0.047,0.095,0.092,0.142,0.135
		c0.048,0.042,0.096,0.088,0.143,0.135c0.416,0,0.748-0.014,0.994-0.042c0.245-0.029,0.456-0.081,0.631-0.156
		c0.176-0.076,0.348-0.187,0.518-0.334c0.171-0.146,0.394-0.338,0.668-0.575c0.256-0.218,0.511-0.433,0.767-0.646
		C118.697,18.022,118.963,17.821,119.236,17.632z M114.524,13.587c-0.048-0.104-0.128-0.156-0.241-0.156s-0.218,0.005-0.313,0.014
		c0.076,0.076,0.145,0.161,0.206,0.256s0.12,0.185,0.177,0.27c0.048-0.047,0.098-0.104,0.149-0.17S114.563,13.662,114.524,13.587z"
		/>
	<path fill="#545454" d="M128.577,17.803c-0.019,0.236-0.083,0.449-0.191,0.639s-0.243,0.359-0.405,0.511
		c-0.16,0.151-0.336,0.289-0.524,0.412c-0.189,0.123-0.374,0.236-0.554,0.34c-0.086-0.037-0.168-0.033-0.248,0.015
		c-0.081,0.047-0.164,0.098-0.249,0.148c-0.085,0.053-0.173,0.091-0.263,0.114s-0.182-0.007-0.276-0.093
		c-0.075,0.161-0.168,0.239-0.276,0.234c-0.109-0.004-0.223-0.019-0.342-0.042c-0.117-0.023-0.229-0.028-0.333-0.015
		c-0.104,0.015-0.185,0.121-0.241,0.319l-0.1-0.113c-0.17,0.104-0.336,0.239-0.496,0.404c-0.162,0.166-0.33,0.324-0.504,0.476
		c-0.176,0.151-0.36,0.274-0.555,0.369c-0.193,0.095-0.399,0.118-0.617,0.071c-0.057,0.113-0.135,0.17-0.234,0.17
		s-0.201-0.033-0.305-0.1c-0.104-0.066-0.203-0.142-0.299-0.227c-0.094-0.085-0.165-0.156-0.213-0.213
		c-0.047,0.075-0.097,0.108-0.148,0.1c-0.053-0.01-0.106-0.036-0.164-0.078c-0.057-0.043-0.113-0.088-0.17-0.135
		c-0.057-0.048-0.118-0.066-0.184-0.058c-0.133-0.397-0.306-0.731-0.519-1c-0.213-0.271-0.452-0.547-0.717-0.831
		c-0.028,0.104-0.069,0.199-0.121,0.284s-0.104,0.168-0.155,0.248c-0.053,0.081-0.1,0.163-0.143,0.249
		c-0.043,0.085-0.068,0.185-0.078,0.298l-0.085,0.113c0.104,0.151,0.14,0.276,0.106,0.377c-0.033,0.099-0.092,0.191-0.178,0.276
		c-0.085,0.085-0.166,0.178-0.241,0.276c-0.075,0.1-0.104,0.225-0.085,0.376c-0.066,0.058-0.113,0.135-0.143,0.235
		c-0.027,0.099-0.054,0.205-0.078,0.318c-0.023,0.114-0.047,0.228-0.07,0.341s-0.064,0.213-0.121,0.298
		c0.029,0.114,0.017,0.201-0.035,0.264c-0.053,0.061-0.113,0.122-0.185,0.184s-0.14,0.133-0.206,0.214
		c-0.066,0.079-0.09,0.187-0.07,0.318c0.009,0.095,0.016,0.14,0.021,0.136c0.004-0.006,0.006,0.04,0.006,0.135
		c0,0.132-0.035,0.263-0.105,0.39c-0.071,0.128-0.183,0.201-0.334,0.221c0.095,0.236,0.133,0.419,0.113,0.546
		c-0.019,0.128-0.068,0.231-0.148,0.313c-0.08,0.08-0.178,0.146-0.291,0.198s-0.221,0.116-0.32,0.192
		c-0.099,0.075-0.177,0.177-0.233,0.306c-0.058,0.127-0.066,0.3-0.028,0.518c0.037,0.246,0.004,0.436-0.1,0.567
		c-0.104,0.133-0.218,0.258-0.341,0.376s-0.225,0.249-0.306,0.391c-0.08,0.142-0.072,0.346,0.021,0.61
		c-0.027,0.113-0.068,0.18-0.12,0.199c-0.052,0.019-0.106,0.016-0.163-0.008s-0.119-0.054-0.185-0.092
		c-0.066-0.038-0.128-0.057-0.185-0.057c0-0.076-0.02-0.146-0.057-0.213c-0.038-0.066-0.076-0.133-0.113-0.199
		c-0.039-0.066-0.06-0.132-0.064-0.198s0.025-0.143,0.092-0.228c-0.085-0.085-0.13-0.185-0.135-0.298
		c-0.004-0.113,0.01-0.234,0.043-0.362c0.033-0.127,0.07-0.253,0.113-0.376s0.068-0.236,0.078-0.341
		c0.095-0.113,0.164-0.233,0.206-0.362c0.042-0.127,0.075-0.26,0.099-0.397c0.024-0.137,0.053-0.271,0.086-0.404
		c0.033-0.132,0.092-0.255,0.178-0.369c-0.066-0.208-0.071-0.386-0.015-0.532s0.13-0.281,0.22-0.404s0.176-0.254,0.256-0.391
		c0.08-0.138,0.106-0.305,0.078-0.504c0.189-0.444,0.416-0.878,0.682-1.298c0.265-0.422,0.482-0.869,0.652-1.342
		c0.218-0.218,0.393-0.469,0.525-0.753c0.133-0.283,0.209-0.577,0.227-0.88c0.123-0.085,0.211-0.187,0.264-0.306
		c0.052-0.117,0.104-0.233,0.156-0.348c0.052-0.113,0.115-0.222,0.191-0.326c0.075-0.104,0.193-0.189,0.354-0.255
		c-0.038-0.133-0.052-0.239-0.042-0.32c0.009-0.079,0.042-0.187,0.099-0.319c0.085-0.028,0.136-0.072,0.149-0.135
		c0.014-0.061,0.017-0.127,0.007-0.199c-0.009-0.069-0.015-0.144-0.015-0.219c0-0.076,0.029-0.143,0.086-0.199
		c0.037-0.038,0.062-0.062,0.07-0.071c0.02-0.009,0.043-0.032,0.071-0.07c0.058-0.076,0.108-0.163,0.156-0.263
		s0.1-0.191,0.156-0.277c0.057-0.085,0.126-0.153,0.206-0.206c0.08-0.051,0.187-0.063,0.319-0.035
		c0.057,0.048,0.104,0.109,0.142,0.185c0.038,0.076,0.073,0.151,0.106,0.228c0.033,0.075,0.073,0.137,0.12,0.185
		c0.048,0.047,0.114,0.062,0.199,0.042c0.038,0,0.08-0.014,0.128-0.042c0.123-0.085,0.243-0.176,0.362-0.27
		c0.118-0.095,0.234-0.194,0.348-0.299c0.076,0.086,0.145,0.121,0.205,0.107c0.063-0.016,0.123-0.048,0.186-0.101
		c0.061-0.051,0.127-0.105,0.198-0.163c0.071-0.057,0.153-0.09,0.249-0.099c0.406-0.038,0.759-0.005,1.057,0.099
		c0.299,0.104,0.584,0.313,0.859,0.625c0.047,0.057,0.102,0.121,0.163,0.191c0.062,0.071,0.11,0.145,0.149,0.221
		c0.075,0.142,0.12,0.321,0.135,0.539c0.014,0.218,0.014,0.447,0,0.688c-0.015,0.242-0.031,0.479-0.051,0.71
		c-0.019,0.232-0.027,0.434-0.027,0.604l0.496,0.397c0.615-0.104,1.202-0.27,1.76-0.496
		C127.588,18.555,128.104,18.229,128.577,17.803z M124.021,18.726c-0.113-0.161-0.163-0.317-0.149-0.469
		c0.015-0.151,0.043-0.303,0.086-0.454s0.078-0.301,0.106-0.447s0.005-0.296-0.071-0.447c-0.066-0.133-0.133-0.256-0.199-0.369
		c-0.065-0.113-0.137-0.228-0.213-0.341c-0.246-0.151-0.473-0.205-0.681-0.163c-0.208,0.043-0.414,0.121-0.618,0.234
		c-0.203,0.113-0.408,0.229-0.617,0.348c-0.208,0.118-0.436,0.173-0.682,0.163c-0.075,0.104-0.156,0.191-0.24,0.263
		c-0.086,0.07-0.174,0.135-0.264,0.191s-0.184,0.112-0.283,0.163c-0.1,0.053-0.196,0.116-0.291,0.192
		c-0.076,0.265-0.057,0.471,0.057,0.617c0.113,0.147,0.266,0.274,0.454,0.383c0.189,0.109,0.384,0.221,0.582,0.334
		s0.341,0.274,0.426,0.482c0.181-0.095,0.351-0.12,0.511-0.078c0.161,0.043,0.32,0.091,0.477,0.142
		c0.156,0.053,0.307,0.079,0.453,0.079s0.291-0.086,0.434-0.256c0.095,0.075,0.18,0.098,0.256,0.063
		c0.075-0.032,0.139-0.085,0.191-0.155c0.052-0.072,0.1-0.154,0.142-0.249S123.973,18.782,124.021,18.726z M123.184,20.357
		c-0.048,0-0.102,0.003-0.164,0.008c-0.061,0.005-0.105-0.026-0.135-0.093l-0.085,0.113c-0.085,0.028-0.165,0.026-0.241-0.008
		c-0.076-0.032-0.156-0.059-0.241-0.077c-0.095,0.047-0.196,0.064-0.306,0.05c-0.108-0.014-0.217-0.045-0.326-0.093
		c-0.109-0.047-0.215-0.099-0.319-0.156c-0.104-0.057-0.198-0.104-0.284-0.142c0.02,0.161,0.064,0.268,0.135,0.32
		c0.071,0.052,0.154,0.092,0.249,0.12s0.188,0.062,0.284,0.099c0.094,0.038,0.17,0.123,0.227,0.256
		c0.236,0.057,0.457,0.06,0.66,0.008C122.84,20.71,123.022,20.575,123.184,20.357z"/>
	<path fill="#545454" d="M138.344,17.803c-0.02,0.236-0.084,0.449-0.192,0.639s-0.243,0.359-0.404,0.511s-0.336,0.289-0.525,0.412
		c-0.188,0.123-0.374,0.236-0.554,0.34c-0.085-0.037-0.168-0.033-0.248,0.015c-0.08,0.047-0.164,0.098-0.248,0.148
		c-0.086,0.053-0.174,0.091-0.264,0.114s-0.182-0.007-0.276-0.093c-0.075,0.161-0.168,0.239-0.276,0.234
		c-0.109-0.004-0.223-0.019-0.341-0.042s-0.229-0.028-0.333-0.015c-0.105,0.015-0.186,0.121-0.242,0.319l-0.1-0.113
		c-0.17,0.104-0.336,0.239-0.496,0.404c-0.161,0.166-0.329,0.324-0.504,0.476c-0.176,0.151-0.359,0.274-0.554,0.369
		s-0.399,0.118-0.618,0.071c-0.057,0.113-0.135,0.17-0.234,0.17c-0.099,0-0.2-0.033-0.305-0.1c-0.104-0.066-0.203-0.142-0.298-0.227
		s-0.165-0.156-0.213-0.213c-0.048,0.075-0.097,0.108-0.149,0.1c-0.052-0.01-0.105-0.036-0.163-0.078
		c-0.057-0.043-0.113-0.088-0.171-0.135c-0.057-0.048-0.117-0.066-0.184-0.058c-0.133-0.397-0.306-0.731-0.519-1
		c-0.213-0.271-0.452-0.547-0.717-0.831c-0.028,0.104-0.068,0.199-0.12,0.284c-0.053,0.085-0.104,0.168-0.156,0.248
		c-0.053,0.081-0.1,0.163-0.143,0.249c-0.042,0.085-0.068,0.185-0.078,0.298l-0.085,0.113c0.104,0.151,0.14,0.276,0.106,0.377
		c-0.033,0.099-0.092,0.191-0.178,0.276c-0.084,0.085-0.165,0.178-0.24,0.276c-0.076,0.1-0.104,0.225-0.086,0.376
		c-0.066,0.058-0.113,0.135-0.142,0.235c-0.028,0.099-0.055,0.205-0.078,0.318c-0.024,0.114-0.048,0.228-0.071,0.341
		s-0.063,0.213-0.121,0.298c0.029,0.114,0.018,0.201-0.035,0.264c-0.052,0.061-0.113,0.122-0.184,0.184
		c-0.072,0.062-0.141,0.133-0.207,0.214c-0.065,0.079-0.09,0.187-0.07,0.318c0.01,0.095,0.017,0.14,0.021,0.136
		c0.004-0.006,0.007,0.04,0.007,0.135c0,0.132-0.036,0.263-0.106,0.39c-0.07,0.128-0.182,0.201-0.334,0.221
		c0.096,0.236,0.133,0.419,0.113,0.546c-0.018,0.128-0.068,0.231-0.148,0.313c-0.08,0.08-0.178,0.146-0.291,0.198
		s-0.22,0.116-0.319,0.192c-0.099,0.075-0.177,0.177-0.234,0.306c-0.057,0.127-0.065,0.3-0.028,0.518
		c0.038,0.246,0.005,0.436-0.1,0.567c-0.104,0.133-0.217,0.258-0.34,0.376s-0.225,0.249-0.306,0.391s-0.073,0.346,0.021,0.61
		c-0.028,0.113-0.069,0.18-0.12,0.199c-0.053,0.019-0.107,0.016-0.164-0.008s-0.118-0.054-0.185-0.092
		c-0.065-0.038-0.128-0.057-0.185-0.057c0-0.076-0.019-0.146-0.057-0.213c-0.037-0.066-0.076-0.133-0.113-0.199
		c-0.038-0.066-0.06-0.132-0.064-0.198c-0.004-0.066,0.026-0.143,0.093-0.228c-0.085-0.085-0.13-0.185-0.135-0.298
		s0.009-0.234,0.042-0.362c0.033-0.127,0.071-0.253,0.113-0.376c0.043-0.123,0.069-0.236,0.078-0.341
		c0.096-0.113,0.164-0.233,0.207-0.362c0.042-0.127,0.075-0.26,0.099-0.397c0.024-0.137,0.052-0.271,0.085-0.404
		c0.033-0.132,0.093-0.255,0.178-0.369c-0.066-0.208-0.07-0.386-0.014-0.532s0.129-0.281,0.22-0.404
		c0.09-0.123,0.175-0.254,0.255-0.391c0.081-0.138,0.107-0.305,0.078-0.504c0.189-0.444,0.416-0.878,0.682-1.298
		c0.266-0.422,0.482-0.869,0.652-1.342c0.219-0.218,0.394-0.469,0.525-0.753c0.133-0.283,0.209-0.577,0.228-0.88
		c0.123-0.085,0.21-0.187,0.263-0.306c0.053-0.117,0.104-0.233,0.156-0.348c0.052-0.113,0.115-0.222,0.191-0.326
		c0.076-0.104,0.194-0.189,0.355-0.255c-0.039-0.133-0.053-0.239-0.043-0.32c0.01-0.079,0.043-0.187,0.1-0.319
		c0.085-0.028,0.135-0.072,0.148-0.135c0.015-0.061,0.017-0.127,0.008-0.199c-0.01-0.069-0.015-0.144-0.015-0.219
		c0-0.076,0.028-0.143,0.085-0.199c0.038-0.038,0.062-0.062,0.071-0.071c0.019-0.009,0.042-0.032,0.071-0.07
		c0.057-0.076,0.108-0.163,0.156-0.263c0.047-0.1,0.099-0.191,0.156-0.277c0.057-0.085,0.125-0.153,0.205-0.206
		c0.08-0.051,0.188-0.063,0.319-0.035c0.058,0.048,0.104,0.109,0.142,0.185c0.038,0.076,0.074,0.151,0.107,0.228
		c0.033,0.075,0.072,0.137,0.12,0.185c0.048,0.047,0.114,0.062,0.198,0.042c0.039,0,0.081-0.014,0.129-0.042
		c0.123-0.085,0.243-0.176,0.361-0.27c0.118-0.095,0.234-0.194,0.348-0.299c0.076,0.086,0.145,0.121,0.206,0.107
		c0.062-0.016,0.123-0.048,0.185-0.101c0.062-0.051,0.127-0.105,0.199-0.163c0.07-0.057,0.153-0.09,0.248-0.099
		c0.406-0.038,0.76-0.005,1.057,0.099c0.299,0.104,0.585,0.313,0.859,0.625c0.047,0.057,0.102,0.121,0.163,0.191
		c0.062,0.071,0.111,0.145,0.149,0.221c0.076,0.142,0.121,0.321,0.135,0.539s0.014,0.447,0,0.688
		c-0.014,0.242-0.031,0.479-0.05,0.71c-0.019,0.232-0.028,0.434-0.028,0.604l0.496,0.397c0.615-0.104,1.203-0.27,1.761-0.496
		C137.354,18.555,137.87,18.229,138.344,17.803z M133.787,18.726c-0.113-0.161-0.164-0.317-0.149-0.469s0.042-0.303,0.085-0.454
		s0.078-0.301,0.106-0.447s0.005-0.296-0.071-0.447c-0.066-0.133-0.132-0.256-0.198-0.369s-0.138-0.228-0.213-0.341
		c-0.246-0.151-0.474-0.205-0.681-0.163c-0.209,0.043-0.414,0.121-0.618,0.234s-0.409,0.229-0.618,0.348
		c-0.207,0.118-0.435,0.173-0.681,0.163c-0.075,0.104-0.156,0.191-0.241,0.263c-0.086,0.07-0.173,0.135-0.263,0.191
		s-0.185,0.112-0.284,0.163c-0.1,0.053-0.196,0.116-0.291,0.192c-0.075,0.265-0.057,0.471,0.057,0.617
		c0.113,0.147,0.266,0.274,0.455,0.383c0.189,0.109,0.383,0.221,0.582,0.334c0.198,0.113,0.34,0.274,0.426,0.482
		c0.18-0.095,0.35-0.12,0.511-0.078c0.161,0.043,0.319,0.091,0.476,0.142c0.156,0.053,0.307,0.079,0.454,0.079
		c0.146,0,0.291-0.086,0.433-0.256c0.095,0.075,0.18,0.098,0.256,0.063c0.076-0.032,0.14-0.085,0.191-0.155
		c0.053-0.072,0.1-0.154,0.143-0.249C133.694,18.857,133.739,18.782,133.787,18.726z M132.949,20.357
		c-0.047,0-0.102,0.003-0.163,0.008s-0.106-0.026-0.136-0.093l-0.084,0.113c-0.086,0.028-0.166,0.026-0.242-0.008
		c-0.075-0.032-0.156-0.059-0.24-0.077c-0.096,0.047-0.197,0.064-0.306,0.05c-0.108-0.014-0.218-0.045-0.327-0.093
		c-0.108-0.047-0.215-0.099-0.318-0.156c-0.104-0.057-0.199-0.104-0.285-0.142c0.02,0.161,0.064,0.268,0.136,0.32
		c0.071,0.052,0.153,0.092,0.248,0.12s0.189,0.062,0.284,0.099c0.095,0.038,0.17,0.123,0.227,0.256
		c0.236,0.057,0.457,0.06,0.66,0.008C132.605,20.71,132.788,20.575,132.949,20.357z"/>
	<path fill="#545454" d="M146.803,16.624c0.01,0.143-0.016,0.279-0.078,0.412c-0.061,0.132-0.115,0.251-0.162,0.354l-0.455,0.482
		l-0.27,0.81c-0.104,0.075-0.215,0.149-0.334,0.22c-0.117,0.071-0.225,0.145-0.318,0.22c-0.104,0.086-0.197,0.181-0.277,0.284
		c-0.08,0.104-0.168,0.194-0.263,0.27c-0.095,0.076-0.206,0.141-0.333,0.191c-0.128,0.053-0.244,0.112-0.348,0.178
		c-0.189,0.114-0.367,0.232-0.533,0.355c-0.165,0.123-0.338,0.241-0.518,0.354c-0.047,0.019-0.083,0.041-0.106,0.064
		c-0.024,0.023-0.06,0.045-0.106,0.063c-0.028,0.019-0.151,0.057-0.369,0.113s-0.457,0.12-0.717,0.192
		c-0.26,0.07-0.504,0.135-0.73,0.191c-0.229,0.057-0.355,0.085-0.384,0.085c-0.171,0.019-0.346,0.028-0.525,0.028
		s-0.359,0.005-0.54,0.014l-0.213,0.128c-0.104-0.075-0.217-0.146-0.34-0.213s-0.228-0.137-0.313-0.213
		c-0.095-0.085-0.189-0.182-0.283-0.291c-0.096-0.108-0.181-0.21-0.256-0.305c-0.048-0.133-0.095-0.263-0.143-0.391
		c-0.047-0.128-0.085-0.253-0.113-0.376l-0.07-0.539c-0.02-0.181-0.036-0.355-0.051-0.525c-0.014-0.171-0.03-0.346-0.049-0.525
		c0.16-0.445,0.305-0.892,0.433-1.342c0.128-0.449,0.286-0.892,0.476-1.327c0.047-0.104,0.092-0.21,0.135-0.319
		c0.043-0.108,0.088-0.215,0.135-0.319c0.057-0.113,0.118-0.221,0.185-0.319c0.066-0.1,0.123-0.201,0.171-0.305
		c0.047-0.114,0.084-0.229,0.113-0.348c0.028-0.118,0.066-0.23,0.113-0.334c0.028-0.057,0.076-0.14,0.143-0.249
		c0.065-0.108,0.137-0.222,0.213-0.341c0.075-0.117,0.148-0.233,0.219-0.348c0.072-0.113,0.131-0.203,0.178-0.27
		c0.076-0.095,0.152-0.185,0.228-0.27s0.138-0.18,0.185-0.284c0.095-0.16,0.185-0.364,0.27-0.61c0.086-0.246,0.18-0.463,0.284-0.652
		c0.113-0.208,0.248-0.405,0.404-0.589c0.156-0.186,0.3-0.377,0.433-0.575c0.143-0.199,0.279-0.416,0.412-0.653l0.625-0.454
		l0.283,0.284l0.682-0.114l0.426,0.64c-0.02,0.142-0.041,0.303-0.064,0.482s-0.042,0.362-0.057,0.546
		c-0.014,0.186-0.023,0.365-0.027,0.539c-0.006,0.176,0.002,0.33,0.021,0.462c-0.048,0.171-0.116,0.349-0.206,0.532
		c-0.09,0.186-0.191,0.344-0.305,0.476l-0.057,0.767l-0.568,0.511l-0.07,0.725l-0.482,0.567c-0.029,0.133-0.058,0.268-0.086,0.405
		c-0.028,0.137-0.066,0.267-0.113,0.39c-0.047,0.113-0.104,0.229-0.17,0.349c-0.066,0.118-0.133,0.238-0.199,0.361
		c-0.189,0.161-0.383,0.341-0.582,0.539c-0.199,0.199-0.379,0.397-0.539,0.597c-0.086,0.104-0.164,0.215-0.234,0.333
		c-0.071,0.119-0.145,0.229-0.221,0.334c-0.246,0.313-0.51,0.605-0.795,0.88c-0.283,0.274-0.563,0.559-0.837,0.852l0.313,0.554
		c0.198,0.066,0.401,0.128,0.61,0.185c0.208,0.057,0.416,0.109,0.625,0.156c0.094-0.019,0.203-0.04,0.326-0.064
		c0.123-0.022,0.25-0.051,0.383-0.085c0.133-0.032,0.263-0.068,0.391-0.106c0.127-0.037,0.234-0.075,0.319-0.113
		c0.188-0.076,0.407-0.187,0.653-0.333s0.453-0.277,0.624-0.391c0.303-0.189,0.61-0.384,0.923-0.582
		c0.313-0.199,0.61-0.407,0.895-0.625c0.189-0.142,0.388-0.321,0.596-0.539c0.209-0.218,0.404-0.423,0.59-0.617
		c0.184-0.194,0.35-0.353,0.496-0.476S146.746,16.596,146.803,16.624z M142.942,9.91c-0.198,0.331-0.409,0.651-0.632,0.958
		c-0.223,0.308-0.428,0.627-0.617,0.958c-0.066,0.114-0.123,0.23-0.17,0.348c-0.048,0.119-0.109,0.234-0.186,0.349
		c-0.066,0.104-0.137,0.208-0.213,0.312c-0.075,0.104-0.142,0.218-0.198,0.341c-0.114,0.218-0.216,0.447-0.306,0.689
		c-0.09,0.24-0.187,0.475-0.291,0.702c-0.113,0.227-0.246,0.439-0.396,0.639c-0.152,0.198-0.289,0.411-0.412,0.639l-0.227,0.454
		c-0.02,0.047-0.039,0.083-0.058,0.106c-0.019,0.024-0.038,0.06-0.057,0.106c-0.038,0.104-0.057,0.218-0.057,0.341
		s-0.015,0.236-0.042,0.341c-0.029,0.113-0.072,0.222-0.129,0.326s-0.108,0.208-0.156,0.313c-0.047,0.104-0.084,0.211-0.113,0.319
		c-0.028,0.109-0.061,0.215-0.1,0.319c0.076-0.076,0.159-0.145,0.249-0.206s0.177-0.13,0.263-0.206
		c0.085-0.085,0.166-0.175,0.241-0.27s0.161-0.18,0.255-0.256c0.086-0.075,0.178-0.144,0.277-0.205s0.196-0.126,0.291-0.191
		c0.151-0.209,0.283-0.422,0.397-0.64c0.057-0.104,0.106-0.222,0.149-0.354c0.042-0.133,0.097-0.251,0.163-0.354
		c0.057-0.104,0.13-0.204,0.22-0.299s0.168-0.193,0.234-0.298c0.076-0.104,0.14-0.213,0.191-0.326
		c0.053-0.113,0.111-0.223,0.178-0.326c0.133-0.209,0.279-0.407,0.439-0.597l0.071-0.895l0.511-0.596l0.071-0.54l0.354-0.496
		l0.043-0.795L142.942,9.91z"/>
	<path fill="#545454" d="M155.59,16.937c-0.085,0.085-0.148,0.151-0.191,0.199c-0.043,0.047-0.08,0.092-0.113,0.135
		c-0.033,0.042-0.071,0.087-0.114,0.135c-0.042,0.047-0.106,0.118-0.191,0.213c-0.075,0.075-0.146,0.156-0.213,0.241
		s-0.142,0.161-0.228,0.227c-0.113-0.028-0.201-0.014-0.262,0.043c-0.063,0.057-0.119,0.12-0.171,0.192
		c-0.052,0.07-0.099,0.137-0.142,0.198s-0.098,0.087-0.164,0.078c-0.227,0.123-0.453,0.229-0.681,0.319s-0.444,0.22-0.653,0.391
		l-0.113-0.114l-1.477,0.71c-0.047,0.019-0.094,0.047-0.142,0.085s-0.095,0.071-0.142,0.1c-0.209,0.113-0.424,0.216-0.646,0.306
		s-0.442,0.172-0.66,0.248l-0.184,0.057c0.075,0.189,0.075,0.321,0,0.397c-0.076,0.075-0.186,0.13-0.327,0.163
		s-0.298,0.055-0.468,0.064c-0.171,0.009-0.304,0.042-0.398,0.099c-0.113-0.019-0.229-0.026-0.348-0.021
		c-0.118,0.005-0.238,0.017-0.361,0.036c-0.133,0.019-0.256,0.028-0.369,0.028s-0.236-0.015-0.369-0.043h-0.029
		c-0.16,0.076-0.3,0.092-0.418,0.05c-0.119-0.043-0.225-0.113-0.319-0.213c-0.095-0.099-0.183-0.217-0.263-0.354
		s-0.164-0.263-0.248-0.376c-0.057-0.076-0.129-0.186-0.213-0.327c-0.086-0.142-0.159-0.293-0.221-0.454s-0.1-0.324-0.113-0.489
		c-0.014-0.166,0.021-0.311,0.106-0.434s0.153-0.255,0.206-0.397c0.052-0.142,0.078-0.308,0.078-0.496
		c0-0.066-0.003-0.128-0.008-0.185c-0.004-0.058-0.007-0.119-0.007-0.185c0.048,0,0.1,0.002,0.156,0.006
		c0.057,0.006,0.111,0.006,0.163,0c0.053-0.004,0.095-0.022,0.128-0.057c0.033-0.032,0.05-0.092,0.05-0.177
		c0-0.047-0.017-0.085-0.05-0.113s-0.055-0.057-0.063-0.085c0.057-0.086,0.111-0.154,0.162-0.206
		c0.053-0.052,0.098-0.104,0.136-0.157c0.038-0.051,0.065-0.113,0.085-0.184c0.02-0.071,0.014-0.168-0.014-0.291
		c0.113-0.199,0.248-0.377,0.404-0.532c0.156-0.156,0.319-0.303,0.489-0.44c0.171-0.137,0.346-0.271,0.525-0.404
		s0.351-0.274,0.511-0.426c0.18,0.076,0.324,0.076,0.434,0c0.108-0.076,0.205-0.158,0.291-0.249c0.085-0.089,0.17-0.163,0.255-0.22
		s0.198-0.033,0.341,0.071l0.028,0.028c0.256-0.256,0.514-0.369,0.774-0.341c0.26,0.028,0.482,0.114,0.666,0.256
		c0.186,0.142,0.306,0.306,0.362,0.489c0.058,0.186,0.005,0.311-0.155,0.377c0.104,0.104,0.155,0.227,0.155,0.368
		c0,0.143-0.038,0.266-0.113,0.369c-0.085,0.114-0.159,0.23-0.22,0.349c-0.063,0.118-0.126,0.243-0.191,0.376
		c-0.096,0.218-0.199,0.424-0.313,0.617c-0.113,0.194-0.275,0.357-0.482,0.489c-0.171-0.047-0.287-0.028-0.349,0.057
		c-0.062,0.086-0.106,0.178-0.135,0.277c-0.028,0.099-0.062,0.178-0.099,0.234c-0.039,0.057-0.119,0.038-0.242-0.057l-0.028-0.028
		l-0.028,0.028c-0.076,0.075-0.135,0.16-0.178,0.255c-0.042,0.095-0.102,0.166-0.177,0.213c-0.085-0.028-0.175-0.052-0.271-0.07
		c-0.094-0.02-0.184-0.038-0.27-0.058c0,0.199-0.037,0.355-0.113,0.469s-0.172,0.206-0.291,0.276
		c-0.118,0.072-0.253,0.129-0.404,0.171c-0.151,0.043-0.301,0.095-0.447,0.156s-0.283,0.138-0.412,0.228
		c-0.127,0.09-0.229,0.215-0.305,0.376c0.095,0.104,0.213,0.163,0.355,0.177c0.142,0.015,0.288,0.015,0.439,0
		c0.151-0.014,0.301-0.021,0.447-0.021s0.277,0.037,0.391,0.113l0.014,0.014l0.014-0.014c0.228-0.028,0.447-0.083,0.66-0.163
		s0.422-0.165,0.625-0.256c0.203-0.09,0.412-0.175,0.625-0.255c0.213-0.081,0.433-0.141,0.66-0.178
		c0.047,0.075,0.111,0.118,0.191,0.128c0.08,0.009,0.158,0.004,0.234-0.015l0.014-0.028c0.02-0.066,0.038-0.125,0.057-0.178
		c0.02-0.052,0.048-0.111,0.086-0.177c0.066-0.104,0.146-0.185,0.24-0.242c0.096-0.057,0.197-0.099,0.306-0.127
		s0.226-0.048,0.348-0.057c0.123-0.01,0.246-0.024,0.369-0.043h0.028l0.015-0.043c0.038-0.113,0.087-0.191,0.149-0.233
		c0.061-0.044,0.127-0.074,0.198-0.093s0.146-0.033,0.228-0.043c0.08-0.009,0.158-0.037,0.234-0.085
		c0.17,0.057,0.312,0.038,0.426-0.057c0.113-0.095,0.222-0.194,0.326-0.298l0.113,0.142l0.043-0.057
		c0.142-0.133,0.248-0.231,0.318-0.298c0.072-0.066,0.141-0.125,0.207-0.178c0.065-0.052,0.144-0.104,0.233-0.156
		c0.091-0.052,0.216-0.13,0.376-0.234c0.133-0.085,0.264-0.17,0.391-0.255c0.128-0.085,0.254-0.18,0.377-0.284
		c0.047,0.019,0.07,0.055,0.07,0.106c0,0.053,0,0.102,0,0.149c-0.01,0.019-0.017,0.047-0.021,0.085
		C155.564,16.89,155.57,16.918,155.59,16.937z M149.713,15.162c-0.01-0.01-0.016-0.014-0.021-0.014
		c-0.004,0-0.012-0.005-0.021-0.015c-0.198-0.104-0.363-0.153-0.496-0.149c-0.133,0.006-0.253,0.043-0.361,0.113
		c-0.109,0.072-0.209,0.162-0.299,0.271c-0.09,0.109-0.185,0.208-0.283,0.298c-0.1,0.091-0.216,0.158-0.349,0.206
		c-0.132,0.047-0.293,0.043-0.482-0.015c-0.028,0.151-0.054,0.301-0.078,0.448c-0.023,0.146-0.04,0.295-0.05,0.446
		c-0.16,0.057-0.286,0.138-0.376,0.241c-0.09,0.104-0.165,0.218-0.228,0.341c-0.061,0.123-0.117,0.254-0.17,0.391
		c-0.052,0.138-0.121,0.267-0.205,0.39l0.057,0.071c0.037-0.019,0.08-0.005,0.127,0.043c0.047,0.047,0.08,0.08,0.1,0.099
		c0.104-0.15,0.244-0.278,0.419-0.383c0.175-0.104,0.354-0.201,0.539-0.291s0.362-0.187,0.532-0.291
		c0.17-0.104,0.299-0.241,0.383-0.411c0.304-0.086,0.531-0.256,0.682-0.512c0.152-0.255,0.279-0.521,0.384-0.795
		c0.019-0.057,0.054-0.139,0.106-0.248C149.673,15.288,149.703,15.21,149.713,15.162z"/>
</g>
</svg>
