<?xml version="1.0" encoding="utf-8"?>
<!-- Generator: Adobe Illustrator 16.0.0, SVG Export Plug-In . SVG Version: 6.00 Build 0)  -->
<!DOCTYPE svg PUBLIC "-//W3C//DTD SVG 1.1//EN" "http://www.w3.org/Graphics/SVG/1.1/DTD/svg11.dtd">
<svg version="1.1" id="图层_1" xmlns="http://www.w3.org/2000/svg" xmlns:xlink="http://www.w3.org/1999/xlink" x="0px" y="0px"
	 width="258px" height="36px" viewBox="0 0 258 36" enable-background="new 0 0 258 36" xml:space="preserve">
<g>
	<path fill="#545454" d="M14.607,25.497c-0.792-0.669-1.241-1.752-1.347-3.247c-0.018-0.229,0.035-0.405,0.158-0.528
		c0.123-0.122,0.299-0.185,0.528-0.185c0.423,0,0.651,0.229,0.687,0.686c0.07,1.093,0.373,1.85,0.91,2.271s1.43,0.634,2.68,0.634
		h1.056c0.916,0,1.632-0.111,2.152-0.331c0.519-0.22,0.889-0.589,1.109-1.108c0.22-0.519,0.33-1.236,0.33-2.151V10.185
		c0-0.456,0.229-0.685,0.687-0.685c0.458,0,0.687,0.229,0.687,0.685v11.353c0,1.741-0.392,3.006-1.175,3.788
		c-0.783,0.783-2.046,1.175-3.789,1.175h-1.056C16.604,26.5,15.398,26.166,14.607,25.497z"/>
	<path fill="#545454" d="M40.055,14.726v11.088c0,0.458-0.229,0.687-0.687,0.687s-0.686-0.229-0.686-0.687v-1.268
		c-0.845,1.304-2.359,1.954-4.541,1.954h-0.739c-1.654,0-2.86-0.383-3.617-1.149c-0.757-0.765-1.135-1.966-1.135-3.602v-7.023
		c0-0.458,0.228-0.686,0.686-0.686c0.458,0,0.686,0.228,0.686,0.686v7.023c0,1.267,0.246,2.146,0.739,2.64
		c0.493,0.492,1.373,0.739,2.64,0.739h0.739c1.39,0,2.473-0.222,3.247-0.661s1.197-1.09,1.268-1.953
		c0-0.087,0.009-0.148,0.026-0.186v-7.603c0-0.458,0.229-0.686,0.686-0.686S40.055,14.268,40.055,14.726z"/>
	<path fill="#545454" d="M52.119,14.726c0,0.458-0.229,0.687-0.687,0.687c-1.584,0-2.808,0.361-3.669,1.083
		c-0.863,0.722-1.329,1.75-1.399,3.089c0,0.088-0.009,0.149-0.026,0.184v6.046c0,0.458-0.229,0.687-0.686,0.687
		c-0.458,0-0.687-0.229-0.687-0.687V14.726c0-0.458,0.229-0.686,0.687-0.686c0.457,0,0.686,0.228,0.686,0.686v2.113
		c0.458-0.898,1.122-1.589,1.993-2.072c0.872-0.483,1.905-0.727,3.102-0.727C51.89,14.04,52.119,14.268,52.119,14.726z"/>
	<path fill="#545454" d="M63.788,15.175c0.756,0.758,1.135,1.964,1.135,3.617v7.021c0,0.458-0.229,0.687-0.686,0.687
		c-0.458,0-0.687-0.229-0.687-0.687V24.52c-0.423,0.652-1.017,1.146-1.782,1.479c-0.766,0.334-1.686,0.501-2.759,0.501h-1.478
		c-1.355,0-2.354-0.316-2.997-0.95s-0.963-1.638-0.963-3.01c0-1.373,0.32-2.38,0.963-3.022s1.642-0.963,2.997-0.963h6.019
		c-0.036-1.162-0.299-1.977-0.792-2.442c-0.493-0.467-1.355-0.7-2.586-0.7H58.64c-1.126,0-1.945,0.119-2.456,0.356
		s-0.827,0.647-0.95,1.228c-0.07,0.229-0.158,0.393-0.264,0.488c-0.105,0.099-0.255,0.145-0.449,0.145
		c-0.247,0-0.427-0.061-0.542-0.184c-0.115-0.123-0.163-0.3-0.145-0.528c0.123-1.003,0.576-1.733,1.36-2.191
		c0.783-0.458,1.931-0.686,3.445-0.686h1.531C61.825,14.04,63.031,14.418,63.788,15.175z M63.55,22.277v-2.35h-6.019
		c-0.986,0-1.663,0.188-2.033,0.566c-0.37,0.379-0.554,1.061-0.554,2.046c0,0.968,0.189,1.643,0.567,2.021s1.052,0.567,2.02,0.567
		h1.478c2.728,0,4.225-0.881,4.488-2.64L63.55,22.277z"/>
</g>
</svg>
