<?xml version="1.0" encoding="utf-8"?>
<!-- Generator: Adobe Illustrator 16.0.0, SVG Export Plug-In . SVG Version: 6.00 Build 0)  -->
<!DOCTYPE svg PUBLIC "-//W3C//DTD SVG 1.1//EN" "http://www.w3.org/Graphics/SVG/1.1/DTD/svg11.dtd">
<svg version="1.1" id="图层_1" xmlns="http://www.w3.org/2000/svg" xmlns:xlink="http://www.w3.org/1999/xlink" x="0px" y="0px"
	 width="258px" height="36px" viewBox="0 0 258 36" enable-background="new 0 0 258 36" xml:space="preserve">
<g>
	<path fill="#545454" d="M13.257,11.184h2.764v7.052l7.192-7.052h3.539l-6.712,6.503l6.712,7.122h-3.679l-5.021-5.196l-2.031,1.962
		v3.234h-2.764V11.184z"/>
	<path fill="#545454" d="M27.789,14.521h2.581v1.483c0.569-0.425,1.17-0.79,1.805-1.1c0.633-0.307,1.264-0.542,1.891-0.704
		l0.758,2.361c-0.994,0.099-1.867,0.322-2.619,0.666c-0.753,0.347-1.364,0.834-1.835,1.462v6.119h-2.581V14.521z"/>
	<path fill="#545454" d="M36.122,19.665c0-0.738,0.149-1.43,0.449-2.074c0.299-0.646,0.726-1.21,1.281-1.691
		c0.555-0.482,1.227-0.862,2.014-1.143c0.787-0.277,1.673-0.417,2.655-0.417s1.867,0.14,2.654,0.417
		c0.788,0.28,1.458,0.66,2.014,1.143c0.555,0.481,0.982,1.046,1.282,1.691c0.299,0.645,0.449,1.336,0.449,2.074
		c0,0.737-0.15,1.431-0.449,2.074c-0.3,0.645-0.727,1.209-1.282,1.692c-0.556,0.481-1.226,0.862-2.014,1.141
		c-0.788,0.279-1.672,0.419-2.654,0.419s-1.868-0.14-2.655-0.419c-0.787-0.278-1.458-0.659-2.014-1.141
		c-0.555-0.483-0.982-1.048-1.281-1.692C36.271,21.096,36.122,20.402,36.122,19.665z M38.833,19.665
		c0,0.412,0.083,0.803,0.249,1.172c0.166,0.369,0.407,0.696,0.723,0.977c0.317,0.281,0.703,0.506,1.161,0.672
		c0.456,0.165,0.974,0.249,1.556,0.249c0.581,0,1.099-0.084,1.555-0.249c0.457-0.166,0.843-0.391,1.161-0.672
		c0.316-0.28,0.558-0.607,0.723-0.977c0.167-0.369,0.249-0.76,0.249-1.172c0-0.413-0.083-0.805-0.249-1.177
		c-0.165-0.372-0.407-0.699-0.723-0.981c-0.317-0.28-0.704-0.505-1.161-0.671c-0.456-0.166-0.974-0.249-1.555-0.249
		c-0.582,0-1.1,0.083-1.556,0.249c-0.458,0.166-0.843,0.391-1.161,0.671c-0.316,0.282-0.557,0.609-0.723,0.981
		C38.916,18.86,38.833,19.252,38.833,19.665z"/>
	<path fill="#545454" d="M51.526,14.521h2.58v0.874c0.686-0.391,1.341-0.664,1.966-0.819c0.625-0.158,1.237-0.235,1.835-0.235
		c0.785,0,1.511,0.113,2.179,0.344c0.669,0.229,1.247,0.571,1.735,1.024c0.488,0.453,0.869,1.018,1.146,1.695
		c0.276,0.677,0.413,1.46,0.413,2.35v5.056H60.81V20.17c0-0.563-0.081-1.067-0.24-1.512c-0.16-0.445-0.39-0.819-0.689-1.124
		c-0.3-0.307-0.663-0.539-1.09-0.698c-0.427-0.158-0.905-0.238-1.434-0.238c-0.28,0-0.566,0.028-0.859,0.086
		c-0.294,0.059-0.582,0.142-0.863,0.248c-0.281,0.107-0.554,0.241-0.814,0.401c-0.262,0.16-0.5,0.343-0.715,0.545v6.931h-2.58
		V14.521z"/>
	<path fill="#545454" d="M66.058,21.565c0-0.495,0.107-0.945,0.323-1.352c0.214-0.406,0.537-0.757,0.967-1.05
		c0.43-0.294,0.966-0.521,1.609-0.68c0.642-0.161,1.39-0.24,2.245-0.24c0.633,0,1.299,0.048,2,0.14
		c0.7,0.093,1.423,0.235,2.167,0.428c-0.029-0.326-0.127-0.627-0.297-0.902c-0.168-0.276-0.402-0.516-0.702-0.716
		c-0.299-0.199-0.659-0.355-1.081-0.467c-0.421-0.109-0.898-0.165-1.434-0.165c-0.291,0-0.61,0.018-0.959,0.052
		c-0.349,0.036-0.708,0.088-1.081,0.158c-0.372,0.069-0.739,0.155-1.102,0.262c-0.364,0.104-0.703,0.229-1.016,0.374l-0.784-2.119
		c0.389-0.139,0.806-0.267,1.25-0.384c0.445-0.115,0.899-0.215,1.364-0.3c0.465-0.084,0.93-0.149,1.395-0.195
		c0.465-0.047,0.916-0.069,1.352-0.069c1.923,0,3.353,0.49,4.288,1.472c0.936,0.982,1.404,2.487,1.404,4.517v4.48h-2.581v-0.968
		c-0.267,0.156-0.56,0.305-0.875,0.443c-0.317,0.141-0.662,0.263-1.033,0.367c-0.373,0.104-0.771,0.188-1.199,0.247
		c-0.427,0.063-0.878,0.093-1.356,0.093c-0.801,0-1.506-0.087-2.113-0.261c-0.608-0.175-1.114-0.417-1.521-0.724
		c-0.406-0.309-0.713-0.669-0.919-1.086C66.161,22.505,66.058,22.054,66.058,21.565z M68.777,21.479
		c0,0.167,0.044,0.328,0.131,0.482c0.087,0.155,0.227,0.291,0.418,0.409c0.192,0.12,0.437,0.216,0.736,0.288
		c0.299,0.074,0.661,0.108,1.085,0.108c0.454,0,0.893-0.04,1.317-0.121c0.424-0.082,0.819-0.189,1.185-0.321
		c0.366-0.135,0.697-0.289,0.994-0.463c0.296-0.176,0.542-0.355,0.74-0.541v-0.454c-0.395-0.11-0.786-0.203-1.172-0.277
		c-0.386-0.077-0.755-0.136-1.106-0.179c-0.353-0.044-0.683-0.074-0.994-0.094c-0.311-0.015-0.583-0.025-0.815-0.025
		c-0.482,0-0.883,0.033-1.203,0.096c-0.32,0.066-0.578,0.15-0.776,0.258c-0.197,0.108-0.337,0.233-0.418,0.38
		C68.818,21.17,68.777,21.321,68.777,21.479z"/>
	<path fill="#545454" d="M86.822,17.956c0-1.029,0.189-1.971,0.567-2.823c0.378-0.855,0.908-1.589,1.592-2.201
		c0.682-0.612,1.501-1.09,2.458-1.426C92.394,11.169,93.453,11,94.615,11c1.157,0,2.214,0.169,3.173,0.506
		c0.959,0.336,1.78,0.813,2.462,1.426c0.683,0.612,1.213,1.346,1.591,2.201c0.378,0.853,0.567,1.794,0.567,2.823
		c0,1.035-0.188,1.983-0.567,2.847c-0.378,0.863-0.908,1.606-1.591,2.227c-0.683,0.623-1.503,1.106-2.462,1.452
		C96.829,24.827,95.772,25,94.615,25c-1.162,0-2.222-0.173-3.177-0.519c-0.956-0.346-1.775-0.829-2.458-1.452
		c-0.684-0.62-1.214-1.363-1.592-2.227C87.011,19.939,86.822,18.991,86.822,17.956z M89.585,17.956c0,0.704,0.127,1.336,0.379,1.9
		c0.253,0.564,0.604,1.045,1.055,1.444c0.45,0.397,0.982,0.703,1.595,0.918c0.613,0.216,1.28,0.323,2,0.323
		c0.721,0,1.387-0.107,2.001-0.323c0.612-0.215,1.143-0.521,1.59-0.918c0.447-0.399,0.799-0.88,1.055-1.444
		c0.255-0.564,0.383-1.196,0.383-1.9c0-0.702-0.128-1.333-0.383-1.891c-0.256-0.56-0.608-1.03-1.055-1.418
		c-0.448-0.387-0.978-0.68-1.59-0.885c-0.614-0.202-1.28-0.305-2.001-0.305c-0.72,0-1.388,0.103-2,0.305
		c-0.613,0.205-1.145,0.498-1.595,0.885c-0.451,0.388-0.801,0.858-1.055,1.418C89.712,16.623,89.585,17.254,89.585,17.956z"/>
	<path fill="#545454" d="M105.155,14.521h2.58v0.874c0.686-0.391,1.341-0.664,1.966-0.819c0.624-0.158,1.236-0.235,1.834-0.235
		c0.784,0,1.511,0.113,2.179,0.344c0.669,0.229,1.247,0.571,1.735,1.024c0.488,0.453,0.87,1.018,1.146,1.695
		c0.275,0.677,0.413,1.46,0.413,2.35v5.056h-2.571V20.17c0-0.563-0.08-1.067-0.239-1.512c-0.16-0.445-0.39-0.819-0.689-1.124
		c-0.299-0.307-0.663-0.539-1.089-0.698c-0.427-0.158-0.905-0.238-1.435-0.238c-0.279,0-0.565,0.028-0.858,0.086
		c-0.293,0.059-0.582,0.142-0.863,0.248c-0.281,0.107-0.554,0.241-0.814,0.401c-0.262,0.16-0.5,0.343-0.715,0.545v6.931h-2.58
		V14.521z"/>
	<path fill="#545454" d="M119.687,19.631c0-0.697,0.143-1.364,0.426-2.002c0.286-0.635,0.695-1.197,1.23-1.687
		c0.533-0.487,1.189-0.877,1.965-1.168s1.658-0.435,2.646-0.435c0.981,0,1.867,0.146,2.654,0.44
		c0.787,0.293,1.456,0.695,2.004,1.205c0.551,0.513,0.971,1.113,1.264,1.806c0.295,0.691,0.441,1.433,0.441,2.224
		c0,0.098-0.002,0.205-0.004,0.316c-0.004,0.114-0.012,0.218-0.021,0.311h-9.729c0.109,0.308,0.289,0.591,0.535,0.846
		s0.557,0.477,0.929,0.662c0.372,0.187,0.802,0.329,1.29,0.432c0.488,0.102,1.029,0.153,1.621,0.153c0.594,0,1.184-0.063,1.77-0.188
		c0.588-0.124,1.148-0.283,1.684-0.476l0.871,1.971c-0.338,0.157-0.678,0.296-1.025,0.415c-0.345,0.118-0.706,0.217-1.081,0.295
		s-0.768,0.139-1.178,0.179c-0.408,0.041-0.84,0.062-1.293,0.062c-1.156,0-2.172-0.14-3.043-0.419
		c-0.872-0.278-1.602-0.659-2.188-1.141c-0.588-0.483-1.029-1.05-1.325-1.7C119.834,21.081,119.687,20.38,119.687,19.631z
		 M129.58,18.628c-0.092-0.285-0.236-0.552-0.43-0.799c-0.195-0.246-0.438-0.462-0.729-0.644c-0.291-0.184-0.627-0.327-1.012-0.433
		c-0.383-0.104-0.805-0.155-1.264-0.155c-0.488,0-0.934,0.056-1.334,0.165s-0.752,0.259-1.055,0.444
		c-0.303,0.185-0.554,0.401-0.754,0.646c-0.201,0.243-0.348,0.501-0.439,0.775H129.58z"/>
</g>
</svg>
