<?xml version="1.0" encoding="utf-8"?>
<!-- Generator: Adobe Illustrator 16.0.0, SVG Export Plug-In . SVG Version: 6.00 Build 0)  -->
<!DOCTYPE svg PUBLIC "-//W3C//DTD SVG 1.1//EN" "http://www.w3.org/Graphics/SVG/1.1/DTD/svg11.dtd">
<svg version="1.1" id="图层_1" xmlns="http://www.w3.org/2000/svg" xmlns:xlink="http://www.w3.org/1999/xlink" x="0px" y="0px"
	 width="258px" height="36px" viewBox="0 0 258 36" enable-background="new 0 0 258 36" xml:space="preserve">
<g>
	<path fill="#545454" d="M13.315,10.957h4.653v11.32h6.022v3.412H13.315V10.957z"/>
	<path fill="#545454" d="M32.779,25.689l-0.414-1.629C31.572,25.354,30.47,26,29.057,26c-1.154,0-2.098-0.324-2.83-0.969
		c-0.732-0.646-1.099-1.557-1.099-2.729c0-0.723,0.211-1.357,0.633-1.9c0.422-0.541,1.004-0.926,1.745-1.148
		c0.965-0.277,2.456-0.432,4.472-0.467c0-1.137-0.052-1.738-0.155-1.809c-0.086-0.068-0.361-0.104-0.826-0.104
		c-0.294,0-0.698,0.018-1.215,0.051c-0.828,0.035-1.948,0.131-3.36,0.285c-0.138-0.93-0.242-1.93-0.311-2.998
		c0.914-0.189,1.87-0.35,2.869-0.479c1-0.129,1.896-0.193,2.689-0.193c1.379,0,2.412,0.229,3.102,0.686
		c0.689,0.455,1.137,1.055,1.344,1.797c0.207,0.74,0.302,1.678,0.285,2.816l-0.026,3.801l0.077,3.049H32.779z M31.978,22.846v-1.912
		h-0.206c-1.275,0-1.982,0.068-2.119,0.207c-0.087,0.086-0.152,0.215-0.195,0.387s-0.064,0.336-0.064,0.49
		c0,0.414,0.096,0.699,0.285,0.854c0.189,0.156,0.482,0.234,0.879,0.234C31.004,23.105,31.478,23.018,31.978,22.846z"/>
	<path fill="#545454" d="M38.465,10.182L42.885,10v15.689h-4.42V10.182z"/>
	<path fill="#545454" d="M54.697,22.459c0.155,0,0.439-0.018,0.854-0.053l0.388,2.662C54.611,25.689,52.889,26,50.769,26
		c-1.981,0-3.502-0.5-4.562-1.5c-1.061-0.998-1.59-2.508-1.59-4.523c0-1.033,0.133-2.033,0.4-2.998s0.572-1.637,0.918-2.016
		c0.361-0.379,1.033-0.707,2.016-0.982s1.955-0.414,2.921-0.414c1.552,0,2.714,0.275,3.489,0.828
		c0.775,0.551,1.284,1.313,1.525,2.287c0.241,0.973,0.361,2.279,0.361,3.916c-1.172,0.068-2.317,0.104-3.438,0.104h-3.67
		c0,0.551,0.116,0.965,0.349,1.24s0.564,0.451,0.995,0.529c0.43,0.078,1.033,0.117,1.81,0.117
		C52.725,22.588,53.525,22.545,54.697,22.459z M49.166,17.314c-0.051,0.396-0.086,0.844-0.104,1.344h1.344
		c0.811,0,1.396-0.008,1.759-0.025c0-0.828-0.116-1.412-0.35-1.758c-0.232-0.344-0.634-0.518-1.202-0.518
		c-0.465,0-0.87,0.096-1.215,0.285C49.296,16.695,49.219,16.918,49.166,17.314z"/>
	<path fill="#545454" d="M68.113,22.795v2.895H57.438v-2.973l5.738-6.1h-5.584v-2.818h10.391v2.947l-5.711,6.049H68.113z"/>
	<path fill="#545454" d="M76.953,25.689l-0.414-1.629C75.746,25.354,74.643,26,73.23,26c-1.154,0-2.099-0.324-2.83-0.969
		c-0.732-0.646-1.1-1.557-1.1-2.729c0-0.723,0.211-1.357,0.634-1.9c0.423-0.541,1.004-0.926,1.745-1.148
		c0.965-0.277,2.455-0.432,4.471-0.467c0-1.137-0.051-1.738-0.154-1.809c-0.087-0.068-0.361-0.104-0.827-0.104
		c-0.294,0-0.698,0.018-1.215,0.051c-0.827,0.035-1.948,0.131-3.36,0.285c-0.138-0.93-0.241-1.93-0.311-2.998
		c0.914-0.189,1.87-0.35,2.869-0.479c1-0.129,1.896-0.193,2.688-0.193c1.379,0,2.413,0.229,3.103,0.686
		c0.688,0.455,1.137,1.055,1.344,1.797c0.207,0.74,0.301,1.678,0.284,2.816l-0.026,3.801l0.078,3.049H76.953z M76.15,22.846v-1.912
		h-0.206c-1.275,0-1.981,0.068-2.119,0.207c-0.087,0.086-0.151,0.215-0.194,0.387s-0.064,0.336-0.064,0.49
		c0,0.414,0.095,0.699,0.285,0.854c0.188,0.156,0.481,0.234,0.878,0.234C75.178,23.105,75.65,23.018,76.15,22.846z"/>
	<path fill="#545454" d="M90.639,13.619c0.25,0.051,0.436,0.111,0.557,0.18c0,0.381-0.044,1.004-0.13,1.875
		c-0.087,0.869-0.164,1.486-0.232,1.848c-0.173-0.018-0.491-0.025-0.956-0.025c-1.086,0-2.051,0.061-2.895,0.18v8.014h-4.421V13.799
		h3.696l0.518,1.912h0.025c0.5-0.654,1.033-1.178,1.603-1.576c0.568-0.396,1.077-0.594,1.525-0.594
		C90.152,13.541,90.389,13.566,90.639,13.619z"/>
</g>
</svg>
