<?xml version="1.0" encoding="utf-8"?>
<!-- Generator: Adobe Illustrator 16.0.0, SVG Export Plug-In . SVG Version: 6.00 Build 0)  -->
<!DOCTYPE svg PUBLIC "-//W3C//DTD SVG 1.1//EN" "http://www.w3.org/Graphics/SVG/1.1/DTD/svg11.dtd">
<svg version="1.1" id="图层_1" xmlns="http://www.w3.org/2000/svg" xmlns:xlink="http://www.w3.org/1999/xlink" x="0px" y="0px"
	 width="258px" height="36px" viewBox="0 0 258 36" enable-background="new 0 0 258 36" xml:space="preserve">
<g>
	<path fill="#545454" d="M15.532,24.4h7.274v1.912h-9.55V9.5h2.275V24.4z"/>
	<path fill="#545454" d="M33.717,26.313h-0.927c-0.204,0-0.368-0.03-0.493-0.094c-0.125-0.063-0.208-0.195-0.247-0.399l-0.235-1.103
		c-0.313,0.282-0.618,0.534-0.915,0.757c-0.297,0.224-0.611,0.411-0.939,0.563c-0.329,0.152-0.679,0.268-1.05,0.345
		c-0.372,0.079-0.785,0.118-1.238,0.118c-0.462,0-0.894-0.065-1.296-0.194c-0.403-0.129-0.753-0.323-1.05-0.583
		c-0.297-0.259-0.534-0.587-0.71-0.982c-0.175-0.396-0.264-0.865-0.264-1.406c0-0.472,0.129-0.925,0.387-1.36
		c0.258-0.437,0.674-0.822,1.25-1.159c0.575-0.338,1.327-0.614,2.258-0.831c0.931-0.216,2.068-0.322,3.414-0.322v-0.934
		c0-0.929-0.198-1.631-0.593-2.106c-0.395-0.478-0.979-0.715-1.753-0.715c-0.509,0-0.937,0.064-1.285,0.193
		s-0.649,0.274-0.904,0.434c-0.254,0.161-0.473,0.306-0.657,0.435c-0.184,0.129-0.365,0.194-0.545,0.194
		c-0.141,0-0.264-0.037-0.37-0.111s-0.189-0.167-0.252-0.277l-0.375-0.668c0.657-0.634,1.365-1.106,2.124-1.419
		c0.759-0.313,1.6-0.471,2.523-0.471c0.665,0,1.255,0.11,1.771,0.33c0.516,0.218,0.95,0.523,1.302,0.914
		c0.352,0.392,0.617,0.864,0.797,1.421c0.18,0.554,0.27,1.165,0.27,1.828V26.313z M28.297,25.033c0.367,0,0.704-0.037,1.009-0.111
		c0.305-0.074,0.592-0.18,0.862-0.316c0.27-0.137,0.527-0.303,0.774-0.499c0.246-0.194,0.486-0.418,0.721-0.668v-2.453
		c-0.962,0-1.779,0.062-2.452,0.184c-0.672,0.122-1.22,0.281-1.643,0.478c-0.422,0.196-0.729,0.429-0.921,0.696
		c-0.191,0.269-0.287,0.567-0.287,0.896c0,0.314,0.051,0.588,0.152,0.814c0.102,0.229,0.238,0.416,0.411,0.561
		c0.172,0.146,0.375,0.252,0.61,0.319C27.769,25.001,28.023,25.033,28.297,25.033z"/>
	<path fill="#545454" d="M40.486,26.5c-0.938,0-1.66-0.262-2.165-0.785c-0.504-0.524-0.756-1.279-0.756-2.266v-7.273h-1.432
		c-0.125,0-0.231-0.037-0.316-0.111c-0.086-0.074-0.129-0.19-0.129-0.346v-0.833l1.948-0.246l0.481-3.673
		c0.016-0.117,0.066-0.213,0.152-0.287c0.086-0.074,0.195-0.111,0.329-0.111h1.056v4.095h3.402v1.513h-3.402v7.134
		c0,0.5,0.121,0.872,0.363,1.114s0.555,0.363,0.938,0.363c0.219,0,0.409-0.028,0.569-0.088c0.161-0.059,0.3-0.124,0.417-0.193
		c0.117-0.07,0.217-0.136,0.299-0.193c0.083-0.06,0.154-0.089,0.217-0.089c0.109,0,0.207,0.066,0.293,0.2l0.61,0.997
		c-0.36,0.336-0.794,0.601-1.302,0.791C41.55,26.404,41.026,26.5,40.486,26.5z"/>
	<path fill="#545454" d="M50.446,14.24c0.869,0,1.652,0.145,2.353,0.434c0.7,0.291,1.294,0.701,1.783,1.232s0.864,1.175,1.127,1.93
		c0.262,0.756,0.393,1.598,0.393,2.527c0,0.939-0.131,1.784-0.393,2.535c-0.263,0.752-0.638,1.392-1.127,1.924
		s-1.083,0.94-1.783,1.226c-0.7,0.286-1.484,0.428-2.353,0.428c-0.868,0-1.652-0.142-2.352-0.428
		c-0.701-0.285-1.297-0.693-1.79-1.226s-0.872-1.172-1.138-1.924c-0.266-0.751-0.398-1.596-0.398-2.535
		c0-0.93,0.133-1.771,0.398-2.527c0.267-0.755,0.646-1.398,1.138-1.93s1.089-0.941,1.79-1.232
		C48.794,14.385,49.578,14.24,50.446,14.24z M50.446,24.846c1.173,0,2.049-0.393,2.628-1.179c0.579-0.786,0.868-1.883,0.868-3.29
		c0-1.417-0.289-2.519-0.868-3.309c-0.579-0.79-1.455-1.186-2.628-1.186c-0.594,0-1.111,0.101-1.548,0.305
		c-0.438,0.204-0.804,0.496-1.097,0.881c-0.293,0.382-0.512,0.854-0.657,1.413c-0.146,0.56-0.217,1.19-0.217,1.896
		c0,0.702,0.072,1.333,0.217,1.888c0.145,0.556,0.363,1.023,0.657,1.402s0.659,0.671,1.097,0.873
		C49.335,24.744,49.852,24.846,50.446,24.846z"/>
</g>
</svg>
