<?xml version="1.0" encoding="utf-8"?>
<!-- Generator: Adobe Illustrator 16.0.0, SVG Export Plug-In . SVG Version: 6.00 Build 0)  -->
<!DOCTYPE svg PUBLIC "-//W3C//DTD SVG 1.1//EN" "http://www.w3.org/Graphics/SVG/1.1/DTD/svg11.dtd">
<svg version="1.1" id="图层_1" xmlns="http://www.w3.org/2000/svg" xmlns:xlink="http://www.w3.org/1999/xlink" x="0px" y="0px"
	 width="258px" height="36px" viewBox="0 0 258 36" enable-background="new 0 0 258 36" xml:space="preserve">
<g>
	<path fill="#545454" d="M26.84,21.264c0.21,0,0.315,0.238,0.315,0.715c0,0.994-0.462,1.957-1.386,2.887
		c-0.924,0.932-2.051,1.404-3.381,1.418c-0.938,0-2.023-0.371-3.255-1.113c-0.882,0.938-1.981,1.408-3.297,1.408
		c-0.868,0-1.505-0.219-1.911-0.652s-0.609-1.008-0.609-1.721c0-0.715,0.263-1.25,0.788-1.607s1.193-0.535,2.005-0.535
		c0.434,0,0.84,0.021,1.218,0.063c0-1.707,0.189-3.373,0.567-4.998c-0.462-0.238-0.858-0.504-1.187-0.797
		c-0.329-0.295-0.494-0.525-0.494-0.693c0-0.449,0.098-0.672,0.294-0.672c0.28,0,0.57,0.08,0.872,0.24
		c0.301,0.162,0.626,0.283,0.977,0.367c0.868-2.506,2.058-4.121,3.57-4.85c0.532-0.252,1.092-0.379,1.68-0.379
		c2.212,0,3.318,0.932,3.318,2.793c0,1.064-0.399,1.982-1.197,2.752c-1.106,1.064-2.786,1.623-5.04,1.68
		c-0.154,1.176-0.231,2.568-0.231,4.18c0,0.391-0.049,0.832-0.147,1.322c0.49,0.252,0.966,0.482,1.428,0.693
		c0.462,0.209,1.029,0.314,1.701,0.314c0.35,0,0.696-0.146,1.04-0.441c0.343-0.293,0.665-0.615,0.966-0.965
		c0.301-0.35,0.57-0.672,0.809-0.967C26.49,21.412,26.686,21.264,26.84,21.264z M15.353,24.352c0.014,0.393,0.287,0.588,0.819,0.588
		c0.532,0,0.868-0.309,1.008-0.924c-0.392-0.197-0.714-0.295-0.966-0.295C15.654,23.721,15.367,23.932,15.353,24.352z
		 M23.564,12.402c-1.176,0-2.03,1.119-2.562,3.359c1.008-0.084,1.858-0.367,2.551-0.85c0.693-0.482,1.04-0.969,1.04-1.459
		C24.593,12.752,24.25,12.402,23.564,12.402z"/>
	<path fill="#545454" d="M31.061,23.932c1.092,0,2.149-0.434,3.171-1.303c0.378-0.322,0.686-0.619,0.924-0.893
		c0.238-0.273,0.42-0.408,0.546-0.408c0.196,0,0.294,0.195,0.294,0.588c0,0.391-0.105,0.828-0.315,1.313
		c-0.21,0.482-0.56,0.955-1.05,1.416c-1.204,1.135-2.856,1.701-4.956,1.701c-1.667,0-2.8-0.602-3.402-1.805
		c-0.21-0.42-0.315-1.023-0.315-1.807s0.154-1.6,0.462-2.447c0.308-0.846,0.717-1.578,1.229-2.193
		c0.511-0.617,1.103-1.096,1.774-1.439c0.672-0.342,1.39-0.514,2.153-0.514c0.763,0,1.351,0.189,1.764,0.566
		c0.413,0.379,0.62,0.869,0.62,1.471s-0.15,1.096-0.451,1.48c-0.301,0.385-0.69,0.707-1.166,0.965
		c-0.476,0.26-1.005,0.49-1.586,0.693S29.605,21.748,29.045,22v0.523c0.014,0.504,0.224,0.861,0.63,1.072
		C30.081,23.805,30.543,23.918,31.061,23.932z M30.704,18.01c-0.728,0-1.232,0.846-1.512,2.541c0.294-0.197,0.57-0.371,0.83-0.525
		c0.259-0.154,0.486-0.301,0.683-0.441c0.42-0.307,0.637-0.658,0.651-1.049C31.355,18.184,31.138,18.01,30.704,18.01z"/>
	<path fill="#545454" d="M43.283,21.264c0.252,0,0.378,0.215,0.378,0.641c0,0.428-0.109,0.887-0.326,1.375
		c-0.217,0.49-0.546,0.963-0.987,1.418c-0.441,0.455-1.005,0.844-1.691,1.166s-1.495,0.482-2.425,0.482
		c-0.931,0-1.747-0.275-2.446-0.828c-0.7-0.555-1.05-1.352-1.05-2.395s0.165-1.988,0.494-2.836c0.329-0.846,0.763-1.578,1.302-2.193
		c0.539-0.617,1.151-1.096,1.838-1.439c0.686-0.342,1.336-0.514,1.953-0.514c1.078,0,1.617,0.428,1.617,1.281
		c0,0.49-0.102,0.881-0.305,1.176c-0.203,0.293-0.409,0.441-0.619,0.441c-0.28,0-0.525-0.098-0.735-0.295
		c-0.21-0.195-0.441-0.297-0.693-0.305c-0.252-0.006-0.494,0.115-0.725,0.367s-0.423,0.574-0.577,0.967
		c-0.308,0.783-0.462,1.701-0.462,2.75c0.014,0.504,0.245,0.883,0.693,1.135c0.308,0.168,0.672,0.256,1.092,0.262
		c0.42,0.008,0.822-0.129,1.208-0.408c0.385-0.281,0.738-0.584,1.061-0.914c0.322-0.328,0.605-0.633,0.851-0.914
		C42.971,21.404,43.157,21.264,43.283,21.264z"/>
	<path fill="#545454" d="M48.743,21.621c0.378,1.498,1.015,2.248,1.911,2.248c0.434,0,0.826-0.135,1.176-0.4
		c0.35-0.266,0.665-0.557,0.945-0.871c0.28-0.314,0.525-0.605,0.735-0.871s0.406-0.398,0.588-0.398c0.182,0,0.273,0.238,0.273,0.713
		c0,0.994-0.462,1.953-1.386,2.877c-0.924,0.924-1.957,1.383-3.097,1.375c-1.142-0.006-2.16-1.01-3.056-3.014
		c-0.252-0.559-0.49-1.125-0.714-1.699l-0.147,2.877c0,0.266-0.014,0.527-0.042,0.787c-0.028,0.26-0.147,0.473-0.357,0.641
		c-0.546,0.434-1.099,0.65-1.659,0.65c-0.658,0-0.987-0.68-0.987-2.037c0-1.959,0.231-4.012,0.693-6.152
		c0.462-2.143,0.913-3.756,1.354-4.842c0.441-1.084,0.784-1.809,1.029-2.172c0.245-0.365,0.438-0.588,0.578-0.672
		c0.14-0.084,0.297-0.127,0.472-0.127c0.175,0,0.36,0.088,0.557,0.262c0.196,0.176,0.406,0.441,0.63,0.799s0.339,0.707,0.347,1.051
		c0.007,0.342-0.049,0.678-0.168,1.008c-0.119,0.328-0.277,0.65-0.473,0.965c-0.196,0.316-0.413,0.639-0.651,0.967
		c-0.238,0.328-0.476,0.682-0.714,1.061l-0.21,1.764c0.49-1.021,1.21-1.707,2.163-2.059c0.336-0.125,0.728-0.188,1.176-0.188
		c0.896,0,1.582,0.213,2.058,0.639c0.476,0.428,0.714,1.055,0.714,1.881s-0.413,1.525-1.239,2.1
		C50.415,21.355,49.583,21.635,48.743,21.621z M49.541,19.164c0-0.504-0.287-0.756-0.861-0.756c-0.574,0-1.197,0.553-1.869,1.658
		c-0.196,0.322-0.364,0.652-0.504,0.988c1.456-0.084,2.45-0.477,2.982-1.176C49.457,19.654,49.541,19.416,49.541,19.164z"/>
	<path fill="#545454" d="M58.213,23.932c1.092,0,2.149-0.434,3.171-1.303c0.378-0.322,0.686-0.619,0.924-0.893
		c0.238-0.273,0.42-0.408,0.546-0.408c0.196,0,0.294,0.195,0.294,0.588c0,0.391-0.105,0.828-0.315,1.313
		c-0.21,0.482-0.56,0.955-1.05,1.416c-1.204,1.135-2.856,1.701-4.956,1.701c-1.667,0-2.8-0.602-3.402-1.805
		c-0.21-0.42-0.315-1.023-0.315-1.807s0.154-1.6,0.462-2.447c0.308-0.846,0.717-1.578,1.229-2.193
		c0.511-0.617,1.103-1.096,1.774-1.439c0.672-0.342,1.39-0.514,2.153-0.514c0.763,0,1.351,0.189,1.764,0.566
		c0.413,0.379,0.62,0.869,0.62,1.471s-0.15,1.096-0.451,1.48c-0.301,0.385-0.69,0.707-1.166,0.965
		c-0.476,0.26-1.005,0.49-1.586,0.693S56.757,21.748,56.197,22v0.523c0.014,0.504,0.224,0.861,0.63,1.072
		C57.233,23.805,57.695,23.918,58.213,23.932z M57.856,18.01c-0.728,0-1.232,0.846-1.512,2.541c0.294-0.197,0.57-0.371,0.83-0.525
		c0.259-0.154,0.486-0.301,0.683-0.441c0.42-0.307,0.637-0.658,0.651-1.049C58.507,18.184,58.29,18.01,57.856,18.01z"/>
	<path fill="#545454" d="M65.164,22.691l0.126,2.563c0,0.336-0.175,0.637-0.524,0.902c-0.351,0.268-0.826,0.4-1.428,0.4
		c-0.35,0-0.592-0.182-0.725-0.547c-0.133-0.363-0.2-0.895-0.2-1.596c0-1.471,0.074-2.621,0.221-3.455
		c0.147-0.832,0.438-1.676,0.872-2.529c-0.644-0.617-0.966-1.148-0.966-1.596c0-0.939,0.504-1.408,1.512-1.408
		c0.518,0,0.973,0.273,1.365,0.82c0.28,0.377,0.483,0.818,0.609,1.322c0.195,0.07,0.441,0.105,0.734,0.105
		c0.406,0,0.875-0.133,1.408-0.4l0.545-0.271c0.168-0.084,0.315-0.127,0.441-0.127c0.406,0,0.812,0.596,1.218,1.785
		c-0.126,0.547-0.263,1.07-0.409,1.574s-0.318,1.113-0.515,1.828c-0.196,0.713-0.298,1.193-0.305,1.438
		c-0.007,0.246,0.066,0.369,0.221,0.369c0.21,0,0.469-0.135,0.776-0.4c0.309-0.266,0.617-0.557,0.925-0.871s0.591-0.605,0.851-0.871
		c0.259-0.266,0.438-0.398,0.535-0.398c0.195,0,0.294,0.238,0.294,0.713c0,0.967-0.423,1.918-1.271,2.855
		c-0.848,0.939-1.816,1.4-2.908,1.387c-0.645,0-1.127-0.26-1.449-0.777s-0.49-1.146-0.504-1.889c0-1.471,0.328-2.863,0.986-4.18
		c-0.308,0.125-0.654,0.189-1.039,0.189s-0.661-0.014-0.829-0.043c-0.126,0.533-0.252,1.068-0.378,1.607
		C65.227,21.73,65.164,22.23,65.164,22.691z"/>
	<path fill="#545454" d="M76.379,26.283c-2.003,0.014-3.367-0.734-4.096-2.246c-0.252-0.533-0.378-1.201-0.378-2.006
		s0.069-1.662,0.21-2.572c0.28-1.82,0.819-3.5,1.617-5.041c0.406-0.783,0.861-1.455,1.365-2.016
		c1.105-1.232,2.338-1.842,3.695-1.826c0.602,0,1.074,0.164,1.418,0.492c0.343,0.33,0.515,0.803,0.515,1.418
		s-0.183,1.236-0.546,1.857c-0.364,0.625-0.83,1.268-1.396,1.934c-0.567,0.664-1.193,1.361-1.88,2.09
		c-0.687,0.727-1.358,1.518-2.017,2.371v0.842c0,0.783,0.169,1.357,0.505,1.721c0.336,0.365,0.728,0.547,1.176,0.547
		c1.204,0,2.269-0.596,3.192-1.785c0.377-0.49,0.664-0.734,0.861-0.734c0.195,0,0.293,0.238,0.293,0.713
		c0,0.477-0.129,0.963-0.389,1.459c-0.259,0.498-0.598,0.953-1.018,1.365c-0.42,0.414-0.903,0.754-1.449,1.02
		C77.512,26.15,76.952,26.283,76.379,26.283z M77.512,15.006c0.295-0.363,0.525-0.693,0.693-0.986
		c0.168-0.295,0.252-0.6,0.252-0.914s-0.111-0.473-0.336-0.473c-0.49,0-1.032,0.504-1.627,1.512
		c-0.596,1.008-1.039,2.332-1.334,3.969c0.477-0.727,0.914-1.336,1.313-1.826C76.872,15.797,77.219,15.371,77.512,15.006z"/>
	<path fill="#545454" d="M82.195,26.283c-1.4,0-2.101-1.309-2.101-3.928c0-1.428,0.175-2.723,0.525-3.885
		c0.546-1.791,1.161-2.688,1.848-2.688c0.406,0,0.728,0.273,0.966,0.818c0.196,0.42,0.287,0.834,0.273,1.24
		c0,0.559-0.168,1.547-0.504,2.961c-0.322,1.232-0.483,1.994-0.483,2.289c0,0.293,0.073,0.496,0.221,0.609
		c0.147,0.111,0.321,0.168,0.524,0.168s0.459-0.135,0.768-0.4c0.307-0.266,0.615-0.557,0.924-0.871
		c0.308-0.314,0.591-0.605,0.85-0.871c0.26-0.266,0.438-0.398,0.536-0.398c0.196,0,0.294,0.238,0.294,0.713
		c0,0.98-0.494,1.936-1.48,2.867S83.314,26.297,82.195,26.283z M83.057,14.082c-0.379-0.561-0.568-1.162-0.568-1.807
		c0-0.643,0.102-1.178,0.305-1.605s0.396-0.742,0.578-0.945s0.392-0.305,0.63-0.305c0.392,0,0.749,0.291,1.071,0.871
		c0.322,0.582,0.482,1.068,0.482,1.461c0,0.727-0.256,1.299-0.766,1.711C84.277,13.875,83.699,14.082,83.057,14.082z"/>
	<path fill="#545454" d="M108.193,12.57c0,0.154-0.211,0.23-0.631,0.23c-0.154,0-0.357-0.021-0.609-0.063
		c-0.252-0.043-0.721-0.105-1.406-0.189c-0.687-0.084-1.418-0.125-2.195-0.125c-0.776,0-1.48,0.207-2.109,0.619
		c-0.631,0.412-1.159,0.941-1.586,1.586c-0.428,0.643-0.756,1.365-0.987,2.162c-0.231,0.799-0.347,1.582-0.347,2.352
		c0,1.4,0.322,2.492,0.967,3.277c0.644,0.783,1.539,1.176,2.688,1.176c2.072,0,3.661-0.736,4.768-2.205
		c0.336-0.449,0.608-0.945,0.818-1.492c-1.021-0.125-1.806-0.506-2.352-1.145c-0.547-0.637-0.819-1.42-0.819-2.352
		c0-0.93,0.259-1.67,0.776-2.215c0.519-0.547,1.215-0.818,2.09-0.818s1.547,0.332,2.016,0.996c0.47,0.666,0.704,1.502,0.704,2.51
		c0,0.35-0.015,0.68-0.042,0.986c0.252-0.111,0.462-0.23,0.63-0.355c0.169-0.127,0.337-0.189,0.505-0.189
		c0.279,0,0.42,0.119,0.42,0.357c0,0.49-0.166,0.912-0.494,1.27c-0.329,0.357-0.767,0.627-1.313,0.809
		c-0.42,2.045-1.313,3.662-2.678,4.852s-3.133,1.785-5.303,1.785s-3.863-0.658-5.082-1.975c-1.063-1.162-1.596-2.652-1.596-4.473
		c0-1.232,0.199-2.422,0.599-3.57s0.966-2.162,1.701-3.045s1.628-1.588,2.677-2.121c1.051-0.531,2.23-0.799,3.539-0.799
		s2.412,0.232,3.308,0.693C107.744,11.563,108.193,12.053,108.193,12.57z M107.521,15.217c-0.294,0-0.44,0.238-0.44,0.713
		c0,0.84,0.336,1.449,1.008,1.828c0.042-0.379,0.063-0.77,0.063-1.176C108.15,15.672,107.94,15.217,107.521,15.217z"/>
	<path fill="#545454" d="M114.807,15.742c0.504,0,0.98,0.482,1.429,1.447c0.657-0.686,1.474-1.027,2.446-1.027
		s1.705,0.213,2.195,0.639c0.489,0.428,0.734,1.029,0.734,1.807s-0.102,1.564-0.305,2.363c-0.203,0.797-0.35,1.367-0.441,1.711
		c-0.091,0.344-0.136,0.627-0.136,0.85c0,0.225,0.077,0.338,0.231,0.338c0.209,0,0.469-0.135,0.776-0.4s0.616-0.557,0.924-0.871
		s0.591-0.605,0.851-0.871c0.259-0.266,0.438-0.398,0.535-0.398c0.196,0,0.295,0.238,0.295,0.713c0,0.98-0.483,1.926-1.449,2.836
		c-1.625,0.951-2.66,1.428-3.108,1.428c-0.042,0-0.07-0.008-0.084-0.021c-1.12,0-1.68-0.896-1.68-2.688
		c0-0.77,0.073-1.477,0.22-2.121c0.147-0.645,0.256-1.113,0.326-1.408c0.07-0.293,0.105-0.594,0.105-0.902
		c0-0.504-0.291-0.756-0.872-0.756s-1.134,0.43-1.659,1.291s-0.879,1.754-1.061,2.678v0.146c0,0.477,0.074,0.967,0.221,1.471
		s0.221,0.854,0.221,1.051c0,0.475-0.596,0.943-1.785,1.406c-0.182,0.07-0.344,0.105-0.482,0.105c-0.351,0-0.592-0.182-0.725-0.547
		c-0.134-0.363-0.2-0.93-0.2-1.701c0-1.986,0.077-3.422,0.231-4.305c0.21-1.316,0.686-2.541,1.428-3.674
		C114.24,15.938,114.514,15.742,114.807,15.742z"/>
	<path fill="#545454" d="M128.184,23.932c1.093,0,2.149-0.434,3.172-1.303c0.377-0.322,0.686-0.619,0.924-0.893
		s0.42-0.408,0.546-0.408c0.196,0,0.294,0.195,0.294,0.588c0,0.391-0.105,0.828-0.314,1.313c-0.211,0.482-0.561,0.955-1.051,1.416
		c-1.204,1.135-2.855,1.701-4.955,1.701c-1.667,0-2.801-0.602-3.402-1.805c-0.211-0.42-0.315-1.023-0.315-1.807
		s0.153-1.6,0.462-2.447c0.309-0.846,0.717-1.578,1.229-2.193c0.512-0.617,1.103-1.096,1.774-1.439
		c0.673-0.342,1.39-0.514,2.153-0.514c0.762,0,1.35,0.189,1.764,0.566c0.412,0.379,0.619,0.869,0.619,1.471s-0.15,1.096-0.451,1.48
		s-0.689,0.707-1.166,0.965c-0.476,0.26-1.004,0.49-1.586,0.693c-0.58,0.203-1.15,0.432-1.711,0.684v0.523
		c0.014,0.504,0.225,0.861,0.631,1.072C127.204,23.805,127.666,23.918,128.184,23.932z M127.827,18.01
		c-0.728,0-1.231,0.846-1.513,2.541c0.295-0.197,0.57-0.371,0.83-0.525c0.259-0.154,0.486-0.301,0.683-0.441
		c0.42-0.307,0.637-0.658,0.651-1.049C128.479,18.184,128.261,18.01,127.827,18.01z"/>
</g>
</svg>
