<?xml version="1.0" encoding="utf-8"?>
<!-- Generator: Adobe Illustrator 16.0.0, SVG Export Plug-In . SVG Version: 6.00 Build 0)  -->
<!DOCTYPE svg PUBLIC "-//W3C//DTD SVG 1.1//EN" "http://www.w3.org/Graphics/SVG/1.1/DTD/svg11.dtd">
<svg version="1.1" id="图层_1" xmlns="http://www.w3.org/2000/svg" xmlns:xlink="http://www.w3.org/1999/xlink" x="0px" y="0px"
	 width="258px" height="36px" viewBox="0 0 258 36" enable-background="new 0 0 258 36" xml:space="preserve">
<g>
	<path fill="#545454" d="M20.252,20.617c0.131,0.049,0.278,0.072,0.439,0.072s0.316-0.018,0.466-0.055
		c0.149-0.035,0.287-0.121,0.412-0.26c0.125-0.137,0.224-0.248,0.295-0.332c0.072-0.082,0.162-0.268,0.27-0.555
		c0.131-0.334,0.292-0.807,0.484-1.416c0.501,0.467,0.8,0.818,0.896,1.057c-0.574,2.104-1.583,3.156-3.029,3.156
		c-0.681,0-1.547-0.443-2.599-1.328c-0.55,0.885-1.404,1.328-2.563,1.328c-0.514,0-0.977-0.174-1.389-0.521
		c-0.413-0.346-0.619-0.842-0.619-1.486c0-0.646,0.215-1.176,0.645-1.588c0.43-0.41,0.986-0.617,1.667-0.617
		c0.131,0,0.316,0.012,0.556,0.037l0.251-2.277c-0.526,0.168-1.338,0.383-2.438,0.645v-1.344c0.897-0.203,1.757-0.43,2.582-0.682
		l0.358-2.922c0.251-1.994,1.267-2.992,3.047-2.992c0.705,0,1.269,0.193,1.693,0.582s0.637,0.936,0.637,1.641
		c0,1.697-1.093,3.064-3.28,4.104l-0.538,4.23l-0.018,0.18C19.362,20.063,19.953,20.51,20.252,20.617z M14.678,20.152
		c0,0.357,0.203,0.537,0.61,0.537c0.394,0,0.638-0.354,0.734-1.059c-0.228-0.094-0.439-0.143-0.637-0.143
		c-0.197,0-0.364,0.066-0.501,0.197C14.746,19.816,14.678,19.973,14.678,20.152z M20.969,10.902c0-0.502-0.209-0.752-0.627-0.752
		c-0.501,0-0.818,0.592-0.949,1.775l-0.179,1.416C20.383,12.646,20.969,11.834,20.969,10.902z"/>
	<path fill="#545454" d="M23.532,13.744c0.334-0.115,0.666-0.172,0.995-0.172s0.619,0.043,0.87,0.127
		c-0.466,3.596-0.699,5.412-0.699,5.449c-0.06,0.238-0.09,0.438-0.09,0.6s0.012,0.301,0.036,0.422
		c0.048,0.311,0.266,0.465,0.654,0.465c0.389,0,0.747-0.254,1.076-0.762c0.329-0.506,0.577-1.084,0.745-1.729
		c0.083,0.047,0.215,0.191,0.395,0.43c0.178,0.24,0.286,0.418,0.322,0.537c-0.24,0.957-0.646,1.729-1.22,2.313
		c-0.573,0.586-1.26,0.879-2.061,0.879c-0.8,0-1.395-0.197-1.783-0.592c-0.389-0.395-0.583-0.902-0.583-1.523
		c0-0.131,0.006-0.27,0.018-0.412l0.646-5.539C22.97,14.021,23.197,13.857,23.532,13.744z M23.585,8.977
		c0.275-0.281,0.61-0.422,1.004-0.422s0.731,0.141,1.012,0.422c0.281,0.279,0.422,0.617,0.422,1.012s-0.141,0.729-0.422,1.004
		c-0.281,0.275-0.618,0.412-1.012,0.412s-0.729-0.137-1.004-0.412s-0.412-0.609-0.412-1.004S23.311,9.256,23.585,8.977z"/>
	<path fill="#545454" d="M28.774,22.303c-0.734,0-1.312-0.207-1.729-0.617c-0.418-0.414-0.627-0.979-0.627-1.695
		c0-0.191,0.323-3.029,0.968-8.514c0.167-1.41,0.615-2.301,1.344-2.672c0.335-0.178,0.735-0.268,1.201-0.268
		c1.577,0,2.366,0.729,2.366,2.186c0,0.119-0.006,0.246-0.018,0.377c-0.12,1.602-1.123,3.232-3.012,4.893
		c-0.061,0.586-0.125,1.154-0.197,1.703c-0.144,1.232-0.215,1.912-0.215,2.043c0,0.623,0.269,0.934,0.807,0.934
		c0.585,0,1.132-0.338,1.641-1.014c0.506-0.674,0.898-1.539,1.173-2.59c0.108,0.035,0.257,0.135,0.448,0.297
		c0.191,0.16,0.322,0.301,0.395,0.42c-0.191,0.992-0.621,1.941-1.291,2.85c-0.334,0.467-0.758,0.85-1.271,1.148
		C30.17,22.129,29.51,22.303,28.774,22.303z M29.465,14.201c1.1-1.207,1.648-2.289,1.648-3.246c0-0.572-0.215-0.859-0.645-0.859
		c-0.275,0.023-0.457,0.203-0.547,0.537c-0.09,0.336-0.174,0.879-0.251,1.633c-0.077,0.752-0.128,1.219-0.151,1.396L29.465,14.201z"
		/>
	<path fill="#545454" d="M34.932,27.5c-0.682,0-1.268-0.207-1.756-0.617c-0.491-0.414-0.736-1.014-0.736-1.801
		c0-0.971,0.49-1.912,1.471-2.834c-0.693-0.059-1.25-0.287-1.668-0.682c-0.418-0.393-0.627-0.949-0.627-1.666
		c0-0.334,0.041-0.836,0.125-1.506c0.084-0.668,0.174-1.393,0.27-2.168c0.096-0.777,0.197-1.602,0.305-2.475
		c0.37-0.131,0.711-0.197,1.021-0.197s0.544,0.012,0.699,0.037c0.155,0.023,0.305,0.113,0.448,0.268
		c0.144,0.156,0.216,0.377,0.216,0.664l-0.592,4.57c-0.025,0.191-0.037,0.322-0.037,0.395c0,0.705,0.323,1.057,0.969,1.057
		c0.586,0,1.063-0.273,1.434-0.824c0.035-0.275,0.125-1.066,0.269-2.373c0.144-1.311,0.263-2.328,0.359-3.059
		c0.106-0.225,0.331-0.404,0.671-0.537c0.342-0.131,0.619-0.197,0.834-0.197c0.383,0,0.729,0.049,1.04,0.145l-0.843,6.613
		c1.398,0.252,2.234,1.213,2.51,2.887c-0.048,0.227-0.275,0.584-0.682,1.074c-0.238-1.492-0.896-2.4-1.971-2.725l-0.287,2.24
		c-0.132,1.076-0.473,1.963-1.021,2.662C36.801,27.15,35.994,27.5,34.932,27.5z M34.125,25.619c0.191,0.189,0.445,0.285,0.762,0.285
		s0.559-0.131,0.726-0.393c0.167-0.264,0.298-0.789,0.395-1.578l0.233-1.973c-1.566,0.813-2.366,1.74-2.402,2.779
		C33.838,25.133,33.934,25.426,34.125,25.619z"/>
	<path fill="#545454" d="M51.402,13.143c0.359-0.537,0.539-1.039,0.539-1.504c0-0.467-0.133-0.838-0.395-1.113
		c-0.264-0.273-0.609-0.412-1.04-0.412s-0.776,0.105-1.04,0.314c-0.263,0.209-0.395,0.537-0.395,0.986
		c0,0.447,0.312,1.252,0.934,2.41c0.621,1.158,1.015,1.906,1.182,2.24c0.455,0.908,0.682,1.787,0.682,2.635
		c0,1.064-0.385,1.928-1.156,2.59c-0.771,0.664-1.679,0.996-2.725,0.996c-1.045,0-1.867-0.326-2.464-0.979
		c-0.599-0.65-0.897-1.412-0.897-2.285c0-1.613,0.998-2.945,2.994-3.996c-0.813-1.602-1.219-2.719-1.219-3.352
		c0-0.885,0.355-1.635,1.066-2.25S49.053,8.5,50.086,8.5s1.825,0.264,2.375,0.791c0.549,0.525,0.824,1.193,0.824,2.006
		c0,0.537-0.18,1.154-0.538,1.846H51.402z M47.881,20.652c0.46,0,0.818-0.133,1.076-0.402c0.256-0.268,0.385-0.666,0.385-1.191
		c0-0.479-0.186-1.063-0.556-1.758c-0.048-0.096-0.138-0.271-0.269-0.527c-0.132-0.258-0.228-0.439-0.287-0.547
		c-1.338,0.693-2.008,1.564-2.008,2.615c0,0.539,0.162,0.969,0.484,1.293C47.029,20.48,47.421,20.652,47.881,20.652z"/>
	<path fill="#545454" d="M58.859,16.102c0-0.777-0.347-1.166-1.04-1.166c-0.514,0-0.974,0.293-1.38,0.879
		c-0.431,0.633-0.646,1.373-0.646,2.223c0,0.848,0.188,1.502,0.565,1.963c0.375,0.459,0.893,0.689,1.55,0.689
		c0.789,0,1.622-0.324,2.5-0.969s1.587-1.445,2.124-2.402c0.239,0.18,0.473,0.51,0.699,0.986c-0.347,0.693-0.992,1.471-1.936,2.33
		c-0.49,0.455-1.1,0.836-1.828,1.148c-0.789,0.334-1.578,0.502-2.366,0.502c-1.063,0-1.962-0.365-2.698-1.094
		c-0.734-0.729-1.102-1.68-1.102-2.852c0-1.42,0.479-2.572,1.434-3.457c0.956-0.885,2.025-1.328,3.209-1.328
		c0.92,0,1.648,0.191,2.186,0.574c0.539,0.383,0.808,0.885,0.808,1.506c0,0.406-0.144,0.758-0.431,1.057
		c-0.525,0.527-1.165,0.789-1.918,0.789C58.77,16.883,58.859,16.424,58.859,16.102z"/>
	<path fill="#545454" d="M66.943,15.904c0-0.525-0.242-0.791-0.727-0.791c-0.483,0-0.869,0.313-1.156,0.934
		c1.291,1.016,1.936,2.158,1.936,3.424c0,0.92-0.256,1.619-0.771,2.096c-0.514,0.479-1.159,0.719-1.937,0.719
		c-0.775,0-1.343-0.242-1.701-0.727c-0.359-0.484-0.539-1.096-0.539-1.838c0-0.227,0.007-0.395,0.019-0.5l0.628-5.469
		c0.43-0.131,0.865-0.197,1.309-0.197c0.729,0,1.093,0.27,1.093,0.807v0.037c0.478-0.561,1.087-0.844,1.829-0.844
		c0.537,0,0.955,0.123,1.254,0.367c0.299,0.246,0.447,0.572,0.447,0.979s-0.151,0.738-0.456,0.994s-0.702,0.385-1.192,0.385
		c-0.023,0-0.047,0-0.071,0C66.932,16.148,66.943,16.023,66.943,15.904z M64.756,17.301c-0.215,1.721-0.322,2.588-0.322,2.6
		c0,0.502,0.203,0.752,0.609,0.752c0.525,0,0.789-0.424,0.789-1.271C65.832,18.688,65.473,17.996,64.756,17.301z"/>
	<path fill="#545454" d="M70.348,13.744c0.334-0.115,0.666-0.172,0.995-0.172c0.328,0,0.618,0.043,0.869,0.127
		c-0.466,3.596-0.699,5.412-0.699,5.449c-0.06,0.238-0.09,0.438-0.09,0.6s0.013,0.301,0.036,0.422
		c0.048,0.311,0.266,0.465,0.654,0.465s0.746-0.254,1.076-0.762c0.328-0.506,0.576-1.084,0.743-1.729
		c0.083,0.047,0.216,0.191,0.395,0.43c0.179,0.24,0.286,0.418,0.323,0.537c-0.24,0.957-0.646,1.729-1.22,2.313
		c-0.573,0.586-1.261,0.879-2.062,0.879s-1.395-0.197-1.783-0.592s-0.582-0.902-0.582-1.523c0-0.131,0.006-0.27,0.018-0.412
		l0.646-5.539C69.786,14.021,70.014,13.857,70.348,13.744z M70.402,8.977c0.273-0.281,0.609-0.422,1.003-0.422
		c0.395,0,0.731,0.141,1.013,0.422c0.281,0.279,0.422,0.617,0.422,1.012s-0.141,0.729-0.422,1.004s-0.618,0.412-1.013,0.412
		c-0.394,0-0.729-0.137-1.003-0.412c-0.275-0.275-0.412-0.609-0.412-1.004S70.127,9.256,70.402,8.977z"/>
	<path fill="#545454" d="M75.151,13.537c0.776,0,1.231,0.197,1.362,0.592c0.563-0.395,1.272-0.592,2.133-0.592
		c0.861,0,1.602,0.352,2.223,1.057c0.621,0.707,0.932,1.531,0.932,2.475c0,0.131-0.006,0.27-0.018,0.412
		c-0.131,1.564-0.657,2.758-1.577,3.576c-0.921,0.818-2.121,1.229-3.603,1.229c-0.334,0-0.699-0.043-1.094-0.127l-0.573,4.93h-2.349
		c0.766-6.584,1.279-11.053,1.542-13.408C74.381,13.586,74.722,13.537,75.151,13.537z M79.274,17.195
		c0-0.527-0.12-0.994-0.358-1.398c-0.24-0.408-0.609-0.611-1.111-0.611c-0.682,0-1.201,0.443-1.56,1.328
		c-0.239,1.768-0.376,2.795-0.413,3.082c-0.012,0.359,0.103,0.627,0.342,0.807c0.238,0.18,0.531,0.27,0.878,0.27
		c0.609,0,1.11-0.275,1.505-0.826C79.035,19.166,79.274,18.281,79.274,17.195z"/>
	<path fill="#545454" d="M86.713,9.701c0,0.072-0.162,1.357-0.484,3.854h2.635v1.381h-2.814l-0.053,0.447
		c1.397,1.172,2.097,2.451,2.097,3.838c0,1.086-0.278,1.869-0.834,2.346c-0.556,0.479-1.222,0.719-1.999,0.719
		c-0.776,0-1.344-0.207-1.702-0.619s-0.538-0.912-0.538-1.496c0-0.131,0.013-0.275,0.036-0.432l0.556-4.768l-0.072-0.035h-1.451
		c-0.012-0.119-0.018-0.314-0.018-0.582c0-0.27,0.054-0.535,0.161-0.799h1.542l0.572-4.875c0.252-0.094,0.586-0.143,1.004-0.143
		C86.258,8.537,86.713,8.926,86.713,9.701z M86.892,19.201c0-0.824-0.358-1.637-1.075-2.438c-0.215,1.781-0.322,2.809-0.322,3.082
		c0,0.539,0.173,0.807,0.52,0.807c0.25,0,0.46-0.115,0.627-0.348C86.809,20.07,86.892,19.703,86.892,19.201z"/>
	<path fill="#545454" d="M108.758,14.971c-0.275,0.299-0.729,0.564-1.361,0.799c-0.634,0.232-1.139,0.35-1.515,0.35
		c-0.377,0-0.655-0.012-0.833-0.035c-0.299,1.768-1.062,3.242-2.287,4.426c-1.225,1.184-2.646,1.775-4.265,1.775
		c-1.62,0-2.839-0.502-3.657-1.506s-1.227-2.313-1.227-3.926c0-1.053,0.16-2.076,0.482-3.074c0.323-0.996,0.769-1.885,1.336-2.662
		s1.281-1.4,2.142-1.873c0.86-0.471,1.76-0.707,2.698-0.707c0.938,0,1.709,0.211,2.313,0.637c0.604,0.424,0.904,1.012,0.904,1.764
		c0,0.574-0.199,1.086-0.6,1.533s-0.954,0.672-1.658,0.672c-0.371,0-0.699-0.092-0.986-0.277s-0.43-0.48-0.43-0.889
		c0-0.189,0.047-0.357,0.143-0.5s0.191-0.232,0.287-0.27l0.162-0.07c0,0.477,0.19,0.717,0.572,0.717c0.18,0,0.335-0.064,0.467-0.189
		c0.131-0.125,0.203-0.266,0.215-0.42c0.012-0.156,0.006-0.279-0.018-0.369c-0.024-0.09-0.072-0.193-0.144-0.313
		c-0.167-0.299-0.521-0.449-1.058-0.449c-0.705,0-1.375,0.336-2.008,1.004c-0.633,0.67-1.138,1.529-1.514,2.582
		c-0.377,1.051-0.564,2.127-0.564,3.225c0,0.922,0.148,1.74,0.447,2.457c0.168,0.383,0.412,0.684,0.734,0.904
		c0.324,0.223,0.711,0.332,1.166,0.332c0.752,0,1.424-0.316,2.016-0.949s1.028-1.398,1.309-2.295
		c0.281-0.896,0.422-1.805,0.422-2.725v-0.215c-0.035-0.131-0.054-0.256-0.054-0.377c0-0.572,0.203-1.01,0.608-1.309
		c0.264-0.189,0.592-0.287,0.986-0.287c0.107,0,0.281,0.018,0.521,0.055c0.239,0.035,0.405,0.09,0.501,0.162
		c-0.25,0.012-0.445,0.096-0.582,0.25c-0.138,0.156-0.207,0.365-0.207,0.627c0,0.264,0.121,0.51,0.359,0.734
		c0.334,0.322,0.857,0.484,1.568,0.484s1.449-0.293,2.213-0.877L108.758,14.971z"/>
	<path fill="#545454" d="M111.268,20.17l0.431-3.998c0-0.322-0.085-0.59-0.251-0.807c-0.168-0.215-0.445-0.322-0.834-0.322
		s-0.717,0.17-0.986,0.51c-0.269,0.342-0.438,0.77-0.51,1.283c-0.431,3.273-0.658,5.055-0.682,5.342h-2.42l0.986-8.443
		c0.502-0.131,0.884-0.197,1.146-0.197c0.801,0,1.219,0.293,1.255,0.879c0.585-0.574,1.288-0.861,2.106-0.861
		s1.461,0.203,1.927,0.609s0.698,0.922,0.698,1.541c0,0.168-0.035,0.484-0.106,0.951c-0.275,1.816-0.413,2.873-0.413,3.174
		c0,0.549,0.186,0.822,0.557,0.822c0.813,0,1.428-0.848,1.846-2.543c0.406,0.43,0.65,0.77,0.734,1.02
		c-0.633,2.104-1.732,3.156-3.297,3.156c-0.742,0-1.291-0.227-1.65-0.682C111.447,21.148,111.268,20.672,111.268,20.17z"/>
	<path fill="#545454" d="M120.453,17.266c0.365-0.441,0.547-0.869,0.547-1.281s-0.111-0.693-0.332-0.842
		c-0.221-0.15-0.463-0.225-0.726-0.225c-0.562,0-1.054,0.313-1.479,0.941c-0.425,0.625-0.636,1.375-0.636,2.24
		s0.205,1.512,0.618,1.936c0.411,0.424,0.923,0.637,1.532,0.637c0.896,0,1.756-0.311,2.58-0.934
		c0.826-0.621,1.494-1.434,2.008-2.438c0.264,0.252,0.503,0.563,0.718,0.934c-0.396,0.895-1.094,1.773-2.097,2.635
		c-0.502,0.418-1.097,0.758-1.784,1.021c-0.687,0.262-1.396,0.395-2.124,0.395c-1.195,0-2.139-0.365-2.832-1.094
		c-0.74-0.789-1.111-1.799-1.111-3.029s0.463-2.307,1.389-3.227c0.927-0.92,2.035-1.381,3.326-1.381c0.92,0,1.666,0.201,2.24,0.602
		c0.573,0.398,0.866,0.939,0.878,1.621c0,0.922-0.368,1.668-1.103,2.24c-0.734,0.574-1.74,0.975-3.02,1.203l-0.251-1.059
		C119.536,18.006,120.089,17.707,120.453,17.266z"/>
</g>
</svg>
