<?xml version="1.0" encoding="utf-8"?>
<!-- Generator: Adobe Illustrator 16.0.0, SVG Export Plug-In . SVG Version: 6.00 Build 0)  -->
<!DOCTYPE svg PUBLIC "-//W3C//DTD SVG 1.1//EN" "http://www.w3.org/Graphics/SVG/1.1/DTD/svg11.dtd">
<svg version="1.1" id="图层_1" xmlns="http://www.w3.org/2000/svg" xmlns:xlink="http://www.w3.org/1999/xlink" x="0px" y="0px"
	 width="258px" height="36px" viewBox="0 0 258 36" enable-background="new 0 0 258 36" xml:space="preserve">
<g>
	<path fill="#545454" d="M21.345,22.82c0.332,0,0.497,0.141,0.497,0.422c0,0.113-0.067,0.213-0.202,0.301
		c-0.134,0.086-0.373,0.131-0.717,0.131h-7.607V10.416h4.778v12.639h1.752c0.394,0,0.733-0.039,1.017-0.117
		C21.147,22.859,21.308,22.82,21.345,22.82z"/>
	<path fill="#545454" d="M25.562,12.027c-0.643,0-1.146-0.145-1.508-0.432c-0.363-0.287-0.544-0.664-0.544-1.133
		c0-0.395,0.2-0.732,0.6-1.012C24.535,9.15,24.984,9,25.458,9S26.3,9.047,26.56,9.141s0.479,0.217,0.66,0.365
		c0.363,0.307,0.544,0.662,0.544,1.068s-0.206,0.75-0.618,1.031S26.206,12.027,25.562,12.027z M23.595,13.666h4.028v10.008h-4.028
		V13.666z"/>
	<path fill="#545454" d="M41.539,16.254c0.013,0.148,0.02,0.299,0.02,0.447v6.973h-4.021v-9.088
		c-0.069-0.031-0.149-0.047-0.243-0.047h-0.301c-0.486,0-1.055,0.334-1.705,1.002c-0.2,0.207-0.391,0.434-0.572,0.684v7.449h-4.028
		V13.666h4.028v1.51c1.057-1.119,2.236-1.678,3.543-1.678c1.687,0,2.727,0.625,3.12,1.875c0.537-0.619,1.13-1.086,1.775-1.402
		c0.647-0.314,1.298-0.473,1.954-0.473c1.118,0,1.945,0.266,2.482,0.797c0.538,0.531,0.807,1.334,0.807,2.406v6.973h-4.02v-9.098
		c-0.057-0.025-0.197-0.037-0.422-0.037s-0.434,0.041-0.623,0.125c-0.191,0.084-0.387,0.203-0.586,0.352
		C42.31,15.334,41.908,15.748,41.539,16.254z"/>
	<path fill="#545454" d="M60.158,21.396c0.244,0,0.365,0.113,0.365,0.338c0,0.168-0.109,0.367-0.328,0.6
		c-0.986,1.012-2.34,1.518-4.057,1.518c-1.543,0-2.844-0.465-3.898-1.396c-1.094-0.967-1.641-2.193-1.641-3.674
		c0-1.51,0.494-2.754,1.48-3.729c1.044-1.037,2.431-1.555,4.161-1.555c1.387,0,2.552,0.422,3.495,1.266
		c1.018,0.904,1.527,2.094,1.527,3.568c0,0.213-0.006,0.438-0.019,0.676H55.06v4.02c0.425,0.088,0.902,0.131,1.434,0.131
		c1.125,0,2.084-0.371,2.877-1.115c0.162-0.162,0.277-0.291,0.347-0.383C59.861,21.484,60.007,21.396,60.158,21.396z M57.656,14.359
		c-0.406-0.117-0.865-0.178-1.377-0.178c-0.513,0-0.919,0.035-1.219,0.104v4.039h2.596V14.359z"/>
	<path fill="#545454" d="M63.643,10.416h4.029v13.258h-4.029V10.416z"/>
	<path fill="#545454" d="M72.705,12.027c-0.644,0-1.146-0.145-1.509-0.432s-0.544-0.664-0.544-1.133c0-0.395,0.201-0.732,0.6-1.012
		C71.677,9.15,72.126,9,72.601,9s0.842,0.047,1.102,0.141c0.259,0.094,0.479,0.217,0.66,0.365c0.362,0.307,0.543,0.662,0.543,1.068
		s-0.205,0.75-0.617,1.031C73.875,11.887,73.347,12.027,72.705,12.027z M70.736,13.666h4.029v10.008h-4.029V13.666z"/>
	<path fill="#545454" d="M79.873,20.619c-0.557,0.168-0.834,0.352-0.834,0.553c0,0.193,0.162,0.328,0.487,0.402
		c0.632,0.15,1.499,0.238,2.604,0.268c1.106,0.027,1.938,0.113,2.498,0.252c0.559,0.141,1.004,0.318,1.335,0.529
		c0.6,0.395,0.899,0.916,0.899,1.564c0,0.813-0.402,1.473-1.209,1.979C84.761,26.721,83.502,27,81.878,27
		c-1.682,0-3.068-0.25-4.161-0.75c-0.394-0.193-0.591-0.412-0.591-0.654c0-0.107,0.039-0.191,0.118-0.254
		c0.077-0.063,0.161-0.094,0.248-0.094c0.106,0,0.228,0.041,0.365,0.121c0.319,0.182,0.614,0.334,0.886,0.455
		s0.697,0.238,1.279,0.352c0.58,0.111,1.141,0.168,1.682,0.168s0.98-0.023,1.32-0.07c0.342-0.047,0.624-0.102,0.85-0.164
		c0.443-0.131,0.664-0.277,0.664-0.439c0-0.15-0.043-0.26-0.131-0.328s-0.201-0.131-0.342-0.184s-0.336-0.102-0.586-0.145
		c-0.512-0.088-1.209-0.152-2.09-0.197c-0.881-0.043-1.577-0.129-2.089-0.258c-0.513-0.127-0.931-0.291-1.256-0.492
		c-0.631-0.381-0.946-0.896-0.946-1.545c0-0.938,0.634-1.697,1.902-2.277c-0.581-0.318-1.043-0.738-1.387-1.26
		s-0.516-1.088-0.516-1.697s0.113-1.137,0.342-1.582c0.229-0.447,0.549-0.832,0.961-1.158c0.867-0.699,1.989-1.049,3.363-1.049
		c0.613,0,1.229,0.094,1.846,0.281c0.888-0.855,1.709-1.283,2.465-1.283c0.318,0,0.555,0.053,0.708,0.158
		c0.153,0.107,0.229,0.24,0.229,0.402c0,0.164-0.053,0.281-0.16,0.354c-0.105,0.07-0.205,0.107-0.299,0.107
		c-0.169,0-0.313-0.02-0.432-0.057c-0.175-0.063-0.353-0.094-0.534-0.094c-0.337,0-0.763,0.234-1.274,0.703
		c1.019,0.5,1.684,1.219,1.996,2.154c0.1,0.313,0.15,0.693,0.15,1.146s-0.132,0.904-0.395,1.355
		c-0.262,0.449-0.611,0.836-1.049,1.162c-0.912,0.674-1.983,1.012-3.215,1.012C81.154,20.912,80.509,20.818,79.873,20.619z
		 M81.84,20.215c1.013-0.012,1.884-0.258,2.614-0.74c0.844-0.549,1.266-1.293,1.266-2.229c0-0.938-0.416-1.693-1.246-2.268
		c-0.763-0.525-1.641-0.797-2.634-0.814V20.215z"/>
	<path fill="#545454" d="M96.673,13.498c2.199,0,3.299,1.068,3.299,3.203v6.973h-4.029v-9.117c-0.113-0.074-0.261-0.113-0.445-0.113
		c-0.184,0-0.376,0.045-0.576,0.133s-0.409,0.209-0.628,0.365c-0.468,0.344-0.884,0.775-1.246,1.293v7.439h-4.029V10.416h4.029
		v4.834C94.116,14.082,95.324,13.498,96.673,13.498z"/>
	<path fill="#545454" d="M106.887,23.852c-2.447,0-3.672-1.119-3.672-3.354l-0.01-6.146l-1.078,0.047
		c-0.336,0-0.506-0.129-0.506-0.385s0.182-0.385,0.544-0.385l0.899,0.037h0.141v-1.451l4.02-1.799v3.25h1.256l0.891-0.037
		c0.369,0,0.553,0.131,0.553,0.395c0,0.119-0.051,0.211-0.154,0.275c-0.104,0.066-0.221,0.1-0.352,0.1l-1.162-0.047h-1.031v8.807
		c0.73-0.014,1.34-0.223,1.828-0.627c0.23-0.176,0.395-0.4,0.49-0.676c0.098-0.275,0.186-0.451,0.264-0.529s0.17-0.117,0.275-0.117
		c0.107,0,0.197,0.043,0.273,0.127c0.074,0.084,0.111,0.184,0.111,0.299c0,0.117-0.031,0.244-0.094,0.385s-0.156,0.289-0.281,0.445
		c-0.281,0.35-0.605,0.627-0.975,0.834C108.449,23.666,107.707,23.852,106.887,23.852z"/>
</g>
</svg>
