<svg version="1.1" id="图层_1" x="0px" y="0px" width="199.998px" height="35.625px" viewBox="0.002 82.188 199.998 35.625" enable-background="new 0.002 82.188 199.998 35.625" xml:space="preserve" xmlns="http://www.w3.org/2000/svg" xmlns:xlink="http://www.w3.org/1999/xlink" xmlns:xml="http://www.w3.org/XML/1998/namespace">
  <g>
    <g>
      <path fill="#404040" d="M82.364,111.813c4.01-0.172,6.984-3.502,6.499-7.539c-0.486-4.031-4.075-7.065-8.117-6.962
			c-8.364,0.215-12.238,10.529-6.99,16.68c4.709,5.518,14.25,4.646,19.169-0.08c5.67-5.447,5.576-15.321-0.771-20.186
			c-5.595-4.287-13.656-3.938-20.229-2.781c-9.664,1.701-18.373,6.513-26.985,10.979c-8.631,4.478-18.174,9.544-28.245,8.087
			c-4.361-0.632-8.369-2.671-11.192-6.093c-2.883-3.496-4.458-8.518-2.795-12.906c2.778-7.332,13.798-9.095,18.764-3.024
			c2.689,3.286,2.692,8.503-0.573,11.401c-3.725,3.307-10.554,1.975-10.783-3.667c-0.106-2.585,1.889-4.567,4.421-4.676
			c1.369-0.058,1.376-2.194,0-2.136c-4.01,0.17-6.984,3.501-6.498,7.539c0.485,4.031,4.073,7.065,8.116,6.962
			c8.418-0.217,11.989-10.266,7.142-16.54c-4.191-5.424-12.712-6.09-18.157-2.232c-7.423,5.259-6.102,15.472-0.488,21.542
			c5.842,6.313,14.937,7.123,22.91,5.327c10.401-2.343,19.608-8.669,29.148-13.159c7.635-3.595,15.932-6.378,24.484-5.945
			c3.505,0.177,7.274,0.975,10.025,3.293c3.179,2.678,4.406,7.082,3.412,11.078c-1.103,4.434-4.536,7.572-8.949,8.558
			c-3.438,0.767-7.52,0.209-10.046-2.437c-3.002-3.144-2.901-8.656,0.368-11.561c3.723-3.307,10.553-1.975,10.783,3.667
			c0.106,2.586-1.89,4.567-4.422,4.676C80.994,109.734,80.987,111.871,82.364,111.813L82.364,111.813z" class="color c1"/>
    </g>
    <g>
      <path fill="#404040" d="M117.516,109.677c-6.109-0.26-5.264-8.521-0.244-10.007c4.996-1.48,9.392,3.234,9.121,7.998
			c-0.506,8.896-12.25,9.975-17.752,4.895c-3.373-3.112-4.629-8.164-3.045-12.479c1.301-3.54,4.334-5.809,7.869-6.844
			c6.912-2.024,14.837-0.559,21.506,1.729c10.772,3.694,20.293,10.185,30.819,14.457c7.642,3.101,16.953,4.515,24.549,0.511
			c7.175-3.783,12.289-13.269,8.218-21.031c-3.384-6.447-12.106-8.455-18.332-5.104c-6.438,3.463-8.26,13.052-2.014,17.703
			c3.227,2.4,7.939,2.663,11.037-0.104c2.869-2.563,3.667-7.219,1.038-10.238c-1.271-1.461-3.033-2.172-4.94-2.253
			c-1.375-0.059-1.373,2.078,0,2.136c6.109,0.261,5.262,8.521,0.243,10.007c-4.946,1.466-9.401-3.194-9.122-7.946
			c0.469-7.976,10.188-10.834,16.364-7.164c4.092,2.432,5.728,7.122,4.688,11.671c-1.045,4.573-4.314,8.469-8.463,10.586
			c-8.447,4.314-18.466,1.222-26.49-2.488c-9.812-4.535-19.047-10.578-29.508-13.589c-6.605-1.9-14.443-2.983-21.074-0.647
			c-7.301,2.572-11.146,10.324-8.203,17.669c2.816,7.033,11.494,10.588,18.488,7.613c6.928-2.945,8.623-12.889,2.379-17.539
			c-3.226-2.401-7.939-2.663-11.035,0.103c-2.87,2.563-3.668,7.22-1.038,10.241c1.271,1.459,3.032,2.17,4.94,2.252
			C118.891,111.871,118.889,109.734,117.516,109.677L117.516,109.677z" class="color c1"/>
    </g>
  </g>
</svg>