<svg version="1.1" id="图层_1" x="0px" y="0px" width="200.002px" height="13.919px" viewBox="0.001 93.038 200.002 13.919" enable-background="new 0.001 93.038 200.002 13.919" xml:space="preserve" xmlns="http://www.w3.org/2000/svg" xmlns:xlink="http://www.w3.org/1999/xlink" xmlns:xml="http://www.w3.org/XML/1998/namespace">
  <g>
    <path fill="#404040" d="M113.784,104.4c-0.462,0.063-0.933,0.117-0.984,0.591C113.063,105.08,113.83,104.939,113.784,104.4z" class="color c1"/>
    <path fill="#404040" d="M122.839,104.303c0.231,0.453,1.201,0.03,1.673,0C124.313,103.623,122.586,103.814,122.839,104.303z" class="color c1"/>
    <path fill="#404040" d="M19.204,93.082c-0.706-0.026-1.01,0.361-1.28,0.494c-0.474,0.23-0.332-0.146-0.885-0.198
		c-0.082-0.007-0.286,0.212-0.492,0.198c-0.213-0.018-0.229-0.213-0.394-0.198c-0.211,0.019-0.404,0.261-0.688,0.296
		c-0.313,0.037-0.562-0.184-0.887-0.197c-0.14-0.006-0.334,0.188-0.491,0.197c-0.561,0.035-1.672-0.047-2.461-0.098
		c-0.443-0.031-1.13-0.064-1.278-0.1c-0.798-0.188-0.692-0.566-1.183-0.395c0.034-0.012-0.255,0.547-0.195,0.494
		c-0.079,0.069-1.812,0.689-1.773,0.688c-0.194,0.008-0.644-0.366-0.786-0.394c-1.192-0.233-1.093,0.476-1.969,0.196
		c-0.023,0.287,0.015,0.946,0.196,1.182c0.275,0.355,1.112,0.285,1.083,0.689c-0.074,1.043-2.041-0.365-2.46,0.393
		c-0.053,0.349,0.347,0.243,0.294,0.592c-0.697,0.107-0.8-0.381-1.377-0.395c-0.424,0.334-0.016,1.341-0.099,1.576
		c-0.231-0.033-0.37-0.156-0.688-0.1c-0.21,0.375,0.006,0.646,0.098,0.984c-0.183-0.023-0.651-0.254-0.787,0
		c0.41,0.661,1.212,0.537,1.477,1.182c-0.569,0.021-1.025-0.738-1.574-0.395c-0.582,0.365,0.177,1.734,0.589,1.28
		c0.007,0.125,0.127,0.137,0.099,0.295c-0.638,0.146-0.543-0.44-1.181-0.295c-0.06,0.234-0.142,0.449-0.098,0.786
		c0.128,0.191,0.521-0.196,0.591,0.196c-0.41,0.166,0.12,1.298,0.394,1.479c0.102,0.065,0.406-0.084,0.491,0
		c0.159,0.152,0.146,0.526,0.295,0.688c0.151,0.162,0.341-0.004,0.494,0.099c0.311,0.208,0.391,0.834,0.786,0.591
		c0.023-0.385-0.212-0.51-0.296-0.787c0.416-0.326,0.628,0.056,0.887,0.099c0.251,0.042,0.464-0.153,0.59-0.099
		c0.156,0.069,0.172,0.397,0.297,0.492c0.841,0.639,1.275,0.086,1.967-0.099c-0.783,1.183,1.246,0.808,2.166,0.885
		c2.402,0.203,6.931,0.867,8.168-0.394c0,0.099,0.081,0.117,0.099,0.197c-0.041,0.318-0.438,0.282-0.394,0.688
		c0.904-0.347,1.295,0.388,1.673,0.394c0.865,0.016,1.476-1.021,2.265-0.887c0.195,0.035-0.039,0.406,0.098,0.493
		c0.683,0.433,1.673-0.169,2.066-0.789c0.427,0.336-0.171,0.375-0.197,0.789c1.001-0.229,1.663,1.019,2.264-0.099
		c0.219,0.076-0.02,0.608,0.394,0.49c0.025-0.658,0.425-0.166,0.591-0.195c0.058-0.01,0.215-0.278,0.295-0.295
		c0.274-0.062,1.136-0.008,1.28,0.099c0.007,0.004,0.04,0.519,0.196,0.59c0.666,0.313,1.579-0.063,2.264,0.197
		c0.2-0.368-0.126-0.709,0-0.886c0.555,0.027,1.356,0.324,0.789,0.983c1.398,0.036,2.089-1.218,3.346-0.493
		c-0.168,0.098-0.253,0.272-0.197,0.592c0.464,0.006,0.54-0.379,0.885-0.492c0.174,0.208,0.223,0.292,0.1,0.592
		c0.845-0.302,0.669-0.536,1.476-0.689c0.119,0.153,0.314,0.383,0.098,0.592c0.65-0.411,1.226-0.616,1.772,0
		c0.157-1.541,2.43,0.858,2.46-0.493c0.003-0.134-0.342-0.101-0.196-0.394c0.664,0.609,1.334-0.39,1.771,0.394
		c0.06,0.108-0.44,0.392,0.099,0.493c-0.014-0.396,1.088-0.863,1.377-0.788c0.217,0.056,0.287,0.428,0.492,0.491
		c-0.028-0.008,0.04-0.24,0.197-0.196c0.46,0.129,1.18,0.606,1.771,0c-0.026,0.225,0.024,0.37,0.197,0.396
		c0.429-0.523,0.605-1.298,1.082-1.772c-0.032,0.229,0.017,0.379,0.099,0.491c0.288,0.082,0.32-0.586,0.492-0.295
		c0.083,0.902-0.74,0.901-1.082,1.379c0.54-0.187,1.571,0.256,1.969-0.197c0.869,0.857,3.057-1.791,3.148,0.492
		c0.204-0.155-0.06-0.78,0.394-0.688c0.231,0.031,0.06,0.466,0.394,0.394c0.142-0.151,0.131-0.459,0.295-0.59
		c0.244,0.233,0.178,0.402,0.394,0.491c0.379,0.019,0.446-0.276,0.591-0.491c0.368-0.105,0.28,0.244,0.591,0.196
		c0.428-0.869,1.32,0.653,1.969,0.492c0.314-0.08,0.188-0.552,0.688-0.787c-0.162,1.567,0.732,0.528,0.789,0.082
		c0.046,0.798,1.234,0.565,1.574-0.082c0.144,0.513,2.626-0.878,2.362,0.688c0.631-0.614,0.683-0.287,1.277-0.592
		c0.112,0.31-0.097,0.543,0.297,0.689c0.671-0.773,0.904-1.331,1.969-0.887c-0.029,0.201-0.267,0.192-0.296,0.395
		c0.857,0.069,1.549-1.281,1.772-0.1c0.159-0.153,0.764-1.039,0.884-0.295c0.443,0.113,0.106-0.549,0.592-0.395
		c-0.063,0.227-0.196,0.594,0,0.788c0.191-0.237,0.893-0.067,0.984-0.099c0.179-0.063,0.308-0.412,0.491-0.394
		c0.031,0.003,0.172,0.479,0.197,0.491c0.678,0.325,1.246-1.029,1.082-0.984c0.951-0.264,0.556,0.412,0.492,0.887
		c0.438,0.256,0.639-0.506,0.59-0.787c0.229,0.183,1.017-0.251,1.183,0.195c-0.155,0.011-0.342-0.013-0.296,0.198
		c0.354-0.032,0.629,0.632,0.787,0.196c-0.448-0.869,0.765-0.501,1.083-0.493c1.432,0.033,2.886-0.718,2.658,1.083
		c0.457-0.361,0.452-0.541,1.18-0.295c0.189-0.288,0.097-0.484,0.198-0.689c0.615,0.08-0.023,0.36,0.098,0.787
		c0.684,0.028,0.8-0.512,1.181-0.787c0.163,0.102,0.106,0.418,0.197,0.592c0.365-0.049,0.268-0.559,0.688-0.295
		c0.04,0.236-0.181,0.214-0.098,0.49c1.19-0.203,1.753-0.689,3.051-0.295c-0.068-1.008,1.026-0.773,1.673-0.688
		c-0.272,0.322-0.729,0.144-0.887,0.395c0.586,0.684,1.158,0.184,1.378-0.492c0.314,0.176,0.249,0.438,0.198,0.787
		c1.19,0.217,3.114,0.504,3.248-0.888c0.563-0.015,0.032,0.748,0.394,0.888c0.376,0.145,0.735-0.295,0.983-0.688
		c-0.031,0.229,0.016,0.378,0.099,0.491c0.329-0.026,0.671-0.428,0.295-0.59c0.164-0.166,0.578-0.078,0.886-0.101
		c-0.022,0.874,1.49,1.021,2.264,0.593c0.453-0.251,0.575-1.234,1.182-0.689c0.021,0.295-0.364,0.335-0.099,0.591
		c0.131,0,0.263,0,0.394,0c0.228-0.22-0.033-0.384,0-0.688c0.415,0.002,0.632-0.187,0.885,0.099
		c-0.165,0.14-0.567-0.159-0.491,0.394c0.619,0.76,0.887-0.021,1.378-0.296c0.514-0.285,1.19-0.555,1.674-0.194
		c-0.31-0.047-0.279,0.246-0.396,0.394c0.984,0.137,0.432-1.448,0.493-1.478c0.199-0.091,0.94,0.572,0.394,0.787
		c0.15,0.211,0.68,0.043,0.591,0.491c-0.176,0.2-0.568-0.34-0.886,0c-0.158,0.913,1.011,0.499,1.671,0.593
		c0.207-0.287-0.026-1.014,0.494-0.984c0.224,0.07,0.027,0.562,0.394,0.492c-0.06-0.354,0.035-0.557,0.296-0.592
		c0.256,0.307,0.003,0.732-0.102,0.984c0.191,0.01,1.265-0.075,1.576-0.688c0.082-0.16-0.069-0.32,0.099-0.395
		c1.059-0.471,1.386,0.355,1.182,0.982c0.442-0.44,0.897-1.176,1.673-0.982c-0.236,0.34-0.443,0.329-0.295,0.885
		c0.934-0.26,2.643,0.233,2.264-1.181c0.619,0.417,1.109-0.504,1.379,0.196c0.26,0.678-0.906,0.201-0.887,0.197
		c-0.013,0.002-0.646,0.221-0.295,0.59c0.396,0.416,1.991-0.147,2.264-0.49c-0.315,0.084-0.307-0.152-0.395-0.297
		c0.855-0.705,0.608,0.392,0.885,0.787c0.277-0.084,0.19-0.531,0.198-0.886c0.89,0.005,2.104-0.325,2.952,0
		c0.066,0.026-0.199,0.201-0.197,0.197c-0.316,0.407,0.805-0.472,0.887-0.296c0.322,0.678-0.795,0.488-0.688,0.885
		c0.89,0.119,1.664-0.121,1.278-0.982c0.896-0.194,0.441,0.604,0.689,0.689c0.865,0.296,0.85-0.684,1.254-0.781
		c-0.158,0.049,0.655,0.231,0.616,0.189c0.082,0.089-0.063,0.385,0,0.492c0.584,0.119,0.04-0.596,0.688-0.887
		c0.662-0.297,2.035,0.014,2.066,0.1c0.07,0.191-0.365,0.361-0.197,0.591c1.027,0.481,0.852-0.601,1.281-0.886
		c0.192-0.131,0.438,0.125,0.688,0.099c0.49-0.054,0.804-0.397,1.279-0.296c0.688,0.146,1.271-0.016,1.869,0.1
		c-0.16,0.2-0.318,0.401-0.394,0.688c0.534,0.217,0.938-0.205,1.377-0.197c0.157,0.004,0.155,0.292,0.394,0.197
		c0.433-0.171,0.467-0.758,0.688-0.887c0.619-0.352,1.176,0.113,2.166-0.098c-0.048,0.223-0.195,0.502,0,0.688
		c1.136,0.251,1.024-0.748,1.869-0.787c0.013,0.241,0.016,0.474-0.099,0.591c1.196-0.322,4.547,0.393,4.43-0.689
		c-0.293-0.265-0.721,0.429-0.787-0.196c0.932-0.241,0.966,0.411,1.378,0.688c-0.04-0.574,0.808-1.084,1.674-0.688
		c-0.303,0.567-1.251-0.042-1.183,0.788c2.408-0.438,5.955,0.089,8.365-0.788c-0.188,0.315,0.416,0.397,0.492,0.395
		c3.031-0.12,7.6-0.346,11.022-0.395c3.284-0.046,6.839-0.298,10.235-0.099c1.771,0.104,3.562,0.049,5.117,0
		c1.575-0.05,3.412-0.315,5.021-0.295c0.53,0.006,1.079,0.301,1.575,0.295c0.131,0,0.359-0.273,0.49-0.295
		c1.275-0.203,2.803,0.141,4.133,0.098c2.459-0.079,5.086,0.013,7.58,0.101c1.115,0.038,2.397,0.004,3.443,0.195
		c1.225,0.226,1.521,0.692,2.756,0.395c0.553-0.135,1.577-1.403,1.575-1.379c0.047-0.508-0.562-0.489-0.888-0.983
		c-0.26-0.396-0.568-1.279-0.588-1.771c-0.027-0.631-0.205-0.445-0.297-0.887c-0.047-0.229,0.221-0.353,0.196-0.394
		c-0.237-0.419-0.868-0.495-1.278-0.786c-0.713-0.509-0.768-1.334-1.279-0.887c-0.25,0.215-1.594-0.437-2.264-0.592
		c-0.682-0.157-1.438-0.09-2.066-0.196c-0.52-0.087-0.999-0.372-1.575-0.394c-0.469-0.018-0.996,0.139-1.478,0.098
		c-1.43-0.117-2.859-0.592-4.23-0.59c-1.434,0.001-2.824,0.238-4.23,0.197c-0.688-0.021-1.455-0.254-2.166-0.296
		c-1.824-0.108-3.189,0-4.625-0.196c-0.842-0.116-2.211,0.376-3.053,0.196c-0.504-0.108-0.228-0.022-0.787,0.099
		c-0.545,0.117-1.83-0.241-2.656-0.197c-0.762,0.04-0.959,0.381-1.18-0.197c-1.438,0.641-2.979-0.359-4.727-0.294
		c-0.209,0.009-0.452,0.256-0.689,0.294c-0.632,0.104-1.517-0.344-2.361-0.393c-0.803-0.047-1.594,0.273-2.461,0.295
		c-0.996,0.025-1.95-0.446-2.754-0.295c-0.133,0.025-0.287,0.197-0.395,0.196c-0.475-0.001-1.006-0.399-1.378-0.294
		c-0.291,0.08-0.106,0.333-0.396,0.294c-0.108-0.014-0.276-0.353-0.393-0.394c-0.55-0.191-1.523-0.053-1.87,0.296
		c-0.151,0.149,0.089,0.529-0.296,0.491c-0.229-0.098-0.316-0.338-0.295-0.688c-2.313,0.102-4.784,0.283-6.988,0.294
		c-0.453,0.003-0.863-0.376-1.279-0.394c-0.137-0.006-1.807,0.212-1.771,0.197c-0.289,0.119-0.457,0.996-0.983,0.59
		c0.055-0.24,0.381-0.21,0.295-0.59c-0.832,0.357-1.719-0.258-2.656-0.197c-0.11,0.006-0.365,0.277-0.492,0.296
		c-0.354,0.05-0.53-0.149-0.887-0.196c-0.945-0.128-2.752,0.049-3.148,0.49c-0.031-0.227,0.016-0.377,0.1-0.49
		c-1.567,0.249-3.291-0.277-4.528,0c-0.472,0.104-0.269-0.023-0.688-0.1c-0.916-0.164-0.683,1.17-1.574,0.787
		c-0.004-0.398,0.672-0.115,0.59-0.59c-0.788,0.291-1.545-0.105-2.361-0.098c-0.643,0.005-1.579,0.178-2.462,0.098
		c-0.28-0.025-0.843-0.037-0.981,0c-0.545,0.138-0.201,0.159-0.688,0.099c-0.313-0.04-0.972,0.261-1.379,0.196
		c-0.325-0.052-0.47-0.388-0.689-0.393c-0.382-0.012-0.698,0.543-1.081,0.196c0.028,0.229,0.209,0.423-0.099,0.491
		c-0.056-1.133-1.114-0.184-1.675,0.099c0.422-0.9-1.346-0.306-1.477-0.296c-1.24,0.106-2.65-0.326-2.756,0.494
		c-0.318-1.227-1.398-0.283-2.46-0.494c-1.604-0.316-4.135-0.465-5.512,0.296c-0.082-0.114-0.13-0.264-0.098-0.492
		c-1.74,0.397-4.025-0.007-6.005,0.492c-0.009-0.269,0.165-0.198,0-0.394c-1.116,0.441-2.166-0.34-3.444,0.197
		c0.015-0.245,0.02-0.479-0.195-0.492c-0.359,0.475-0.955,0.154-1.477,0.295c-0.228,0.063-0.435,0.379-0.689,0.394
		c-0.141,0.007-0.299-0.257-0.491-0.296c-0.798-0.157-1.291,0.344-1.871,0.395c0.036-0.003-0.072-0.189-0.197-0.197
		c-0.357-0.021-1.094,0.317-1.377,0.297c-0.382-0.031-0.696-0.343-0.886,0.195c-0.347-0.246-0.596-0.373-0.887,0
		c-0.107-0.352-0.371-0.546-0.688-0.689c-0.075,0.252-0.098,0.56-0.295,0.689c-0.243-0.2,0.329-0.402,0-0.689
		c-1.068,0.557-2.72-0.135-3.445,0.592c-0.604-1.08-1.322,0.113-1.967,0.393c0.216-0.43-0.08-0.949-0.492-0.688
		c0.529,0.224,0.102,0.937-0.296,0.688c0.5-0.964-0.947-1.154-1.28-0.295c0.071-0.301-0.1-0.358-0.098-0.59
		c-0.614,0.078-1.538,0.52-2.361,0.395c-0.236-0.037-0.357-0.28-0.592-0.297c-0.384-0.027-0.773,0.141-1.181,0.099
		c-0.584-0.059-1.052-0.399-1.477-0.296c-0.2,0.049-0.212,0.311-0.394,0.296c-0.299-0.023-0.582-0.343-0.885-0.394
		c-0.573-0.096-1.321-0.083-1.87-0.099c-0.647-0.019-1.549,0.247-1.87,0.196c-0.111-0.017-0.352-0.389-0.492-0.393
		c-0.401-0.014-1.001,0.396-1.575,0.393c-0.257-0.001-0.535-0.278-0.787-0.294c-0.458-0.03-1.539,0.396-1.87,0.394
		c-0.038,0,0.004-0.223-0.197-0.197c-0.384,0.051-2.04,0.188-2.263,0.394c-0.179,0.163,0.121,0.614-0.198,0.688
		c-0.276-0.236,0.137-0.596-0.098-0.787c-0.438,0.277-0.58-0.191-0.984-0.197c-0.232-0.002-0.231,0.223-0.491,0.296
		c-0.267,0.075-1.518,0.056-1.673,0c-0.062-0.022-0.226-0.385-0.296-0.394c-0.145-0.018-0.288,0.26-0.493,0.295
		c-0.148,0.026-0.854-0.254-1.377-0.197c-0.381,0.041-0.622,0.303-0.886,0.296c-0.312-0.01-0.631-0.247-0.788-0.196
		c-0.257,0.084-0.037,0.4-0.295,0.395c-0.13-0.005-0.417-0.367-0.589-0.395c-0.175-0.029-0.424,0.225-0.689,0.196
		c-0.228-0.023-0.261-0.208-0.393-0.196c-0.12,0.01-0.274,0.277-0.396,0.295c-0.37,0.055-0.764-0.342-1.181-0.395
		c-0.038-0.004-0.376,0.198-0.493,0.197c-0.627-0.004-1.101-0.668-1.476,0.099c-0.338-0.808-1.163-0.21-1.574-0.196
		c-0.117,0.003-0.364-0.188-0.492-0.197c-0.933-0.068-2.177,0.58-2.756,0.492c-0.19-0.029-0.306-0.292-0.492-0.295
		c-0.224-0.004-0.359,0.277-0.591,0.295c-0.396,0.029-0.637-0.374-1.181-0.197c-0.184,0.061-1.184,0.309-1.279,0.297
		c-0.106-0.017-0.036-0.361-0.098-0.395c-0.317-0.174-1.172,0.269-1.772,0.295c-0.649,0.029-0.552,0.141-0.984,0.395
		c-0.151-0.244-0.06-0.729-0.492-0.689c-0.008,0.154,0.014,0.341-0.196,0.295c-0.391-0.738-1.153-0.254-1.772-0.295
		c-0.941-0.063-2.005-0.326-3.051-0.394c-0.848-0.057-1.96,0.219-2.755,0c-0.459-0.127-0.676-0.633-1.182-0.69
		c-0.859-0.094-1.825,0.375-2.756,0.198C19.515,93.246,19.38,93.09,19.204,93.082z M79.141,104.303
		c-0.007-0.218,0.172-1.348,0.492-0.984C79.948,103.68,79.686,104.465,79.141,104.303z M28.16,105.188
		c0.424-0.989,1.074-0.646,1.87-0.787C29.575,105.229,28.846,104.593,28.16,105.188z M92.82,104.303
		c-0.86,0.314-0.533-1.339,0.297-0.984C93.148,103.383,92.902,104.271,92.82,104.303z M102.07,103.909
		c-0.627-0.288-0.217-1.356,0.395-1.083c-0.033,0.131-0.172,0.154-0.195,0.296c0.17,0.19,0.592-0.595,0.983-0.198
		C103.275,103.668,102.122,103.236,102.07,103.909z M110.143,102.631C109.326,104.107,107.814,102.102,110.143,102.631
		L110.143,102.631z M122.346,103.021c-0.785-0.686,0.217-1.179,1.084-1.082C123.23,102.468,122.502,102.457,122.346,103.021z
		 M123.822,102.826c-0.006-0.957,0.113-0.85,0.787-0.788C124.436,102.391,124.375,102.854,123.822,102.826z M125.594,102.531
		c0.141,0.24-0.273-0.071-0.295-0.395c0.006,0.098,0.208-0.4,0.49-0.296C126.137,101.971,126.016,103.257,125.594,102.531z" class="color c1"/>
  </g>
</svg>