<svg version="1.1" id="图层_1" x="0px" y="0px" width="200px" height="3.639px" viewBox="0 98.181 200 3.639" enable-background="new 0 98.181 200 3.639" xml:space="preserve" xmlns="http://www.w3.org/2000/svg" xmlns:xlink="http://www.w3.org/1999/xlink" xmlns:xml="http://www.w3.org/XML/1998/namespace">
  <path fill="#404040" d="M0,100c0,0,0.781-0.034,2.245-0.099c1.467-0.056,3.615-0.177,6.349-0.254
	c5.469-0.155,13.281-0.482,22.656-0.688c4.688-0.098,9.766-0.202,15.137-0.313c5.371-0.078,11.035-0.16,16.894-0.245
	c5.86-0.047,11.914-0.149,18.067-0.157c6.152-0.021,12.402-0.042,18.653-0.063c6.249,0.021,12.499,0.041,18.651,0.063
	c6.152,0,12.207,0.108,18.066,0.154c11.719,0.127,22.656,0.322,32.03,0.558c9.375,0.203,17.188,0.535,22.655,0.69
	c2.734,0.078,4.883,0.199,6.35,0.256C199.219,99.966,200,100,200,100s-0.781,0.034-2.245,0.099
	c-1.467,0.057-3.614,0.178-6.349,0.256c-5.469,0.155-13.281,0.487-22.656,0.69c-9.374,0.234-20.313,0.432-32.029,0.559
	c-5.861,0.047-11.914,0.153-18.068,0.154c-6.151,0.021-12.401,0.041-18.65,0.063c-6.251-0.021-12.501-0.043-18.653-0.063
	c-6.153-0.007-12.207-0.108-18.067-0.157c-5.858-0.084-11.522-0.166-16.894-0.244c-5.371-0.111-10.449-0.217-15.137-0.313
	c-9.375-0.205-17.188-0.532-22.656-0.688c-2.733-0.077-4.882-0.198-6.349-0.254C0.781,100.034,0,100,0,100z" class="color c1"/>
</svg>