<svg version="1.1" id="图层_1" x="0px" y="0px" width="200.001px" height="20.63px" viewBox="-0.001 89.686 200.001 20.63" enable-background="new -0.001 89.686 200.001 20.63" xml:space="preserve" xmlns="http://www.w3.org/2000/svg" xmlns:xlink="http://www.w3.org/1999/xlink" xmlns:xml="http://www.w3.org/XML/1998/namespace">
  <path fill="#404040" d="M191.713,97.563c2.029-4.637-1.014-7.877-1.014-7.877s-2.523,7.383-7.172,9.113
	c-0.397-0.627-1.094-1.045-1.891-1.045c-0.972,0-1.791,0.621-2.104,1.486h-74.148h-10.77H20.466
	c-0.313-0.865-1.132-1.486-2.104-1.486c-0.796,0-1.493,0.418-1.891,1.045c-4.648-1.73-7.17-9.113-7.17-9.113
	s-3.044,3.24-1.015,7.877c0,0-5.581-1.621-8.287,2.438c2.706,4.058,8.287,2.437,8.287,2.437c-2.03,4.639,1.015,7.879,1.015,7.879
	s2.522-7.385,7.17-9.113c0.398,0.627,1.095,1.045,1.891,1.045c0.972,0,1.792-0.621,2.104-1.486h74.149h10.77h74.148
	c0.313,0.865,1.133,1.486,2.104,1.486c0.797,0,1.492-0.418,1.891-1.045c4.647,1.729,7.172,9.113,7.172,9.113s3.043-3.24,1.014-7.879
	c0,0,5.58,1.621,8.287-2.437C197.293,95.941,191.713,97.563,191.713,97.563z" class="color c1"/>
</svg>