<svg version="1.1" id="图层_1" x="0px" y="0px" width="200px" height="9.426px" viewBox="0 95.287 200 9.426" enable-background="new 0 95.287 200 9.426" xml:space="preserve" xmlns="http://www.w3.org/2000/svg" xmlns:xlink="http://www.w3.org/1999/xlink" xmlns:xml="http://www.w3.org/XML/1998/namespace">
  <path fill="#404040" d="M197.63,95.736c-16.125-1.216-32.752,0.382-48.916,0.749c-16.787,0.38-33.575,0.71-50.363,0.986
	c-16.311,0.27-32.62,0.49-48.931,0.663C33.518,98.301,17.18,97.45,1.409,99.68c-2.379,0.338-1.43,3.568,0.518,3.823
	c16.05,2.093,32.774,0.876,48.933,0.688c16.311-0.19,32.62-0.431,48.93-0.717c15.829-0.281,31.657-0.607,47.485-0.978
	c16.627-0.392,33.863,0.354,50.354-1.847C200.71,100.243,200.868,95.979,197.63,95.736z" class="color c1"/>
</svg>