<svg version="1.1" id="图层_1" x="0px" y="0px" width="200px" height="15.884px" viewBox="0 92.058 200 15.884" enable-background="new 0 92.058 200 15.884" xml:space="preserve" xmlns="http://www.w3.org/2000/svg" xmlns:xlink="http://www.w3.org/1999/xlink" xmlns:xml="http://www.w3.org/XML/1998/namespace">
  <g>
    <path fill="#404040" d="M199.852,92.082c-7.097,6.45-15.166,9.643-24.652,10.41c-9.754,0.79-19.001-1.316-28.295-4.039
		c-4.635-1.356-9.063-2.654-13.898-2.931c-4.652-0.267-9.611,0.117-14.211,0.876c-7.102,1.173-13.827,4.723-17.621,11.004
		c-0.007,0.013,0.012,0.021,0.02,0.011c5.347-7.972,16.082-11.543,25.312-9.532c4.755,1.035,9.255,3.03,13.931,4.354
		c4.701,1.332,9.346,2.861,14.097,4.005c8.421,2.026,17.271,2.741,25.452-0.688c7.434-3.115,14.465-7.434,19.992-13.347
		C200.051,92.123,199.936,92.007,199.852,92.082z" class="color c1"/>
    <path fill="#404040" d="M0.148,92.082c7.096,6.45,15.167,9.643,24.652,10.41c9.755,0.79,19.002-1.316,28.296-4.039
		c4.634-1.356,9.062-2.654,13.897-2.931c4.654-0.267,9.612,0.117,14.212,0.876c7.101,1.173,13.827,4.723,17.62,11.004
		c0.008,0.013-0.011,0.021-0.019,0.011c-5.347-7.972-16.081-11.543-25.312-9.532c-4.754,1.035-9.254,3.03-13.931,4.354
		c-4.699,1.332-9.344,2.861-14.096,4.005c-8.42,2.026-17.271,2.741-25.452-0.688c-7.433-3.115-14.465-7.434-19.992-13.347
		C-0.051,92.123,0.065,92.007,0.148,92.082z" class="color c1"/>
  </g>
</svg>