<?xml version="1.0" encoding="utf-8"?>
<!-- Generator: Adobe Illustrator 16.0.0, SVG Export Plug-In . SVG Version: 6.00 Build 0)  -->
<!DOCTYPE svg PUBLIC "-//W3C//DTD SVG 1.1//EN" "http://www.w3.org/Graphics/SVG/1.1/DTD/svg11.dtd">
<svg version="1.1" id="图层_1" xmlns="http://www.w3.org/2000/svg" xmlns:xlink="http://www.w3.org/1999/xlink" x="0px" y="0px"
	 width="258px" height="36px" viewBox="0 0 258 36" enable-background="new 0 0 258 36" xml:space="preserve">
<g>
	<path fill="#545454" d="M20.235,8.787v14.639c0.437,0.097,0.863,0.246,1.28,0.45c0.416,0.205,0.843,0.41,1.28,0.614
		c0.437,0.205,0.897,0.382,1.382,0.532s1.014,0.226,1.587,0.226c0.477,0,1.003-0.136,1.576-0.41
		c0.041,0.192,0.062,0.376,0.062,0.554c0,0.286-0.051,0.557-0.154,0.808c-0.102,0.254-0.252,0.475-0.45,0.667
		c-0.198,0.19-0.437,0.345-0.716,0.461c-0.28,0.115-0.591,0.173-0.932,0.173c-0.532,0-1.059-0.168-1.577-0.501
		c-0.519-0.335-1.044-0.703-1.576-1.106c-0.533-0.402-1.089-0.771-1.669-1.105c-0.581-0.334-1.198-0.501-1.853-0.501
		c-0.082,0-0.16,0-0.235,0s-0.153,0.006-0.235,0.021V9.893c-0.915,0.26-1.638,0.704-2.17,1.33c-0.532,0.629-0.798,1.413-0.798,2.355
		c0,0.368,0.027,0.68,0.082,0.932c0.054,0.253,0.123,0.47,0.205,0.655c0.082,0.185,0.181,0.341,0.297,0.47
		c0.116,0.131,0.235,0.25,0.358,0.359c-0.819,0-1.467-0.188-1.945-0.563c-0.478-0.376-0.716-1.015-0.716-1.915
		c0-0.655,0.17-1.272,0.512-1.853s0.795-1.093,1.361-1.536s1.215-0.795,1.945-1.055c0.73-0.259,1.484-0.389,2.263-0.389
		c0.15,0,0.296,0.004,0.439,0.011c0.144,0.007,0.283,0.017,0.42,0.03L20.235,8.787z"/>
	<path fill="#545454" d="M26.91,13.496c0.532,0,0.989,0.082,1.372,0.246s0.696,0.393,0.942,0.686s0.44,0.638,0.583,1.034
		c0.144,0.396,0.249,0.818,0.317,1.269h0.123c0.573,0,1.099-0.115,1.576-0.347c0.478-0.232,0.887-0.526,1.229-0.881l0.307,0.553
		c-0.273,0.437-0.706,0.798-1.3,1.085c-0.594,0.286-1.204,0.484-1.832,0.594c0,0.136,0.003,0.273,0.01,0.409
		c0.007,0.137,0.01,0.28,0.01,0.43c0,1.68-0.307,2.997-0.921,3.951c-0.614,0.956-1.474,1.434-2.58,1.434
		c-0.451,0-0.905-0.082-1.362-0.245c-0.458-0.164-0.87-0.437-1.238-0.819c-0.369-0.383-0.666-0.874-0.891-1.474
		c-0.225-0.601-0.338-1.345-0.338-2.231c0-0.601,0.065-1.236,0.195-1.904c0.129-0.669,0.348-1.283,0.655-1.844
		c0.307-0.56,0.716-1.023,1.229-1.392C25.507,13.681,26.145,13.496,26.91,13.496z M27.125,22.402c0.72,0,1.249-0.357,1.589-1.075
		c0.339-0.717,0.509-1.729,0.509-3.04c0-0.081,0-0.163,0-0.245s-0.007-0.164-0.021-0.246c-0.396-0.027-0.679-0.116-0.85-0.267
		c-0.171-0.15-0.256-0.402-0.256-0.758c0-0.313,0.068-0.535,0.205-0.665s0.341-0.201,0.614-0.215
		c-0.163-0.485-0.37-0.822-0.621-1.009c-0.251-0.188-0.533-0.282-0.845-0.282c-0.421,0-0.777,0.142-1.069,0.422
		c-0.292,0.281-0.529,0.64-0.713,1.078c-0.183,0.438-0.315,0.921-0.397,1.447s-0.122,1.043-0.122,1.549
		c0,0.671,0.061,1.219,0.183,1.644c0.123,0.424,0.278,0.759,0.469,1.005c0.189,0.246,0.4,0.417,0.631,0.514
		C26.663,22.354,26.894,22.402,27.125,22.402z"/>
	<path fill="#545454" d="M48.182,20.171c-0.396,0.56-0.813,1.023-1.25,1.392c-0.437,0.369-0.853,0.689-1.249,0.962
		c-0.164,0.301-0.362,0.543-0.594,0.728s-0.478,0.327-0.737,0.43s-0.515,0.174-0.768,0.216c-0.252,0.04-0.488,0.061-0.706,0.061
		c-0.601,0-1.096-0.099-1.484-0.297c-0.39-0.198-0.697-0.443-0.922-0.737c-0.225-0.293-0.385-0.611-0.48-0.952
		c-0.096-0.341-0.144-0.661-0.144-0.961c0-0.301,0.037-0.554,0.112-0.758c0.075-0.205,0.174-0.37,0.297-0.491
		c0.123-0.124,0.255-0.212,0.399-0.267c0.143-0.055,0.283-0.082,0.419-0.082c0.232,0,0.447,0.082,0.646,0.245
		c0.197,0.164,0.296,0.41,0.296,0.737c0,0.274-0.068,0.474-0.205,0.604c-0.137,0.131-0.294,0.195-0.471,0.195
		s-0.341-0.096-0.491-0.287c0.109,0.479,0.266,0.85,0.471,1.116c0.205,0.267,0.587,0.399,1.146,0.399
		c0.491,0,0.853-0.123,1.085-0.369c0.232-0.245,0.348-0.682,0.348-1.31c0-0.287-0.024-0.584-0.072-0.892
		c-0.048-0.307-0.126-0.689-0.235-1.146c-0.109-0.457-0.249-1.023-0.42-1.698c-0.171-0.676-0.378-1.533-0.624-2.57
		c-0.341,0.819-0.819,1.502-1.434,2.048c-0.614,0.546-1.262,0.921-1.945,1.126v0.369c0,0.777-0.092,1.527-0.276,2.251
		s-0.464,1.361-0.84,1.915c-0.375,0.553-0.842,0.993-1.402,1.32c-0.56,0.328-1.215,0.491-1.965,0.491
		c-0.424,0-0.816-0.064-1.177-0.194c-0.362-0.129-0.673-0.341-0.932-0.635c-0.26-0.293-0.461-0.683-0.604-1.166
		c-0.143-0.486-0.215-1.082-0.215-1.792V9.791l2.047-0.287v4.852c0.232-0.231,0.505-0.423,0.819-0.573
		c0.314-0.149,0.689-0.225,1.126-0.225c0.313,0,0.645,0.048,0.993,0.143c0.348,0.097,0.676,0.263,0.983,0.503
		c0.307,0.238,0.58,0.562,0.819,0.972c0.238,0.41,0.412,0.929,0.521,1.556c0.669-0.081,1.276-0.433,1.822-1.054
		c0.545-0.621,1.017-1.389,1.413-2.304l2.068-0.409c0.287,1.146,0.536,2.127,0.748,2.938c0.211,0.813,0.389,1.519,0.532,2.119
		c0.143,0.602,0.249,1.112,0.317,1.535c0.068,0.424,0.103,0.819,0.103,1.188c0,0.068,0,0.133,0,0.194
		c0,0.061-0.007,0.126-0.021,0.194c0.231-0.15,0.454-0.311,0.666-0.481c0.211-0.17,0.413-0.33,0.604-0.48H48.182z M37.352,18.451
		c0-0.124-0.004-0.245-0.011-0.369c-0.007-0.122-0.017-0.238-0.03-0.348c-0.424-0.109-0.635-0.431-0.635-0.963
		c0-0.327,0.082-0.565,0.246-0.716c-0.177-0.437-0.409-0.784-0.696-1.044s-0.628-0.39-1.023-0.39c-0.273,0-0.526,0.064-0.758,0.194
		S34,15.113,33.809,15.319v5.384c0,1.229,0.403,1.842,1.208,1.842c0.382,0,0.72-0.112,1.014-0.337
		c0.293-0.226,0.539-0.529,0.737-0.912c0.198-0.381,0.345-0.818,0.44-1.31C37.303,19.495,37.352,18.982,37.352,18.451z"/>
	<path fill="#545454" d="M49.349,10.486v3.112h1.577v0.736h-1.577v6.229c0,0.163,0.007,0.351,0.021,0.563
		c0.013,0.21,0.051,0.411,0.113,0.602s0.157,0.351,0.287,0.479c0.129,0.13,0.311,0.194,0.543,0.194c0.368,0,0.72-0.185,1.054-0.553
		c0.334-0.369,0.597-0.929,0.788-1.679h0.758c-0.232,0.859-0.481,1.538-0.748,2.037c-0.266,0.498-0.543,0.876-0.829,1.136
		c-0.287,0.261-0.57,0.427-0.85,0.502c-0.28,0.074-0.536,0.112-0.768,0.112c-0.491,0-0.894-0.091-1.208-0.276
		c-0.314-0.183-0.56-0.418-0.737-0.704c-0.178-0.285-0.3-0.603-0.369-0.95c-0.068-0.347-0.102-0.691-0.102-1.032v-6.66h-0.696
		v-0.736h0.696v-2.825L49.349,10.486z"/>
	<path fill="#545454" d="M58.521,16.157c0,0.955-0.393,1.755-1.177,2.396c-0.785,0.643-1.873,1.037-3.266,1.188
		c0.054,0.547,0.154,0.99,0.297,1.331c0.143,0.341,0.317,0.611,0.521,0.81c0.205,0.198,0.44,0.334,0.707,0.409
		c0.266,0.074,0.542,0.112,0.829,0.112c0.655,0,1.27-0.171,1.843-0.512c0.573-0.341,1.037-0.914,1.392-1.72h0.656
		c-0.178,0.505-0.423,0.986-0.738,1.443c-0.314,0.457-0.683,0.859-1.105,1.207c-0.423,0.349-0.88,0.625-1.372,0.83
		c-0.491,0.204-0.997,0.307-1.515,0.307c-0.478,0-0.938-0.082-1.382-0.245c-0.443-0.164-0.836-0.434-1.177-0.81
		c-0.341-0.375-0.618-0.862-0.829-1.464c-0.212-0.601-0.317-1.337-0.317-2.211c0-0.573,0.064-1.194,0.194-1.862
		c0.129-0.669,0.348-1.29,0.655-1.863s0.709-1.052,1.208-1.434c0.498-0.382,1.116-0.573,1.853-0.573
		c0.341,0,0.672,0.038,0.993,0.113c0.321,0.074,0.611,0.211,0.871,0.409c0.259,0.198,0.467,0.467,0.624,0.808
		C58.442,15.169,58.521,15.612,58.521,16.157z M54.057,18.942c0.969-0.15,1.737-0.491,2.304-1.024
		c0.566-0.532,0.849-1.188,0.849-1.965c0-0.518-0.088-0.892-0.266-1.116c-0.177-0.225-0.43-0.338-0.757-0.338
		c-0.355,0-0.666,0.137-0.932,0.41c-0.266,0.272-0.488,0.624-0.666,1.054c-0.177,0.43-0.31,0.908-0.399,1.434
		S54.057,18.438,54.057,18.942z"/>
	<path fill="#545454" d="M61.694,13.599v1.721c0.164-0.246,0.324-0.479,0.481-0.697c0.157-0.218,0.331-0.409,0.522-0.573
		c0.191-0.164,0.402-0.297,0.634-0.399c0.232-0.103,0.491-0.153,0.778-0.153c0.464,0,0.806,0.119,1.024,0.358
		s0.328,0.529,0.328,0.87c0,0.205-0.034,0.375-0.102,0.513c-0.069,0.136-0.151,0.245-0.246,0.327
		c-0.096,0.082-0.198,0.139-0.307,0.174c-0.109,0.034-0.205,0.051-0.287,0.051c-0.123,0-0.222-0.026-0.297-0.082
		c-0.075-0.054-0.15-0.112-0.225-0.174c-0.075-0.062-0.161-0.119-0.256-0.174c-0.096-0.055-0.219-0.082-0.369-0.082
		c-0.314,0-0.614,0.109-0.901,0.327c-0.286,0.219-0.546,0.451-0.778,0.697v7.533h-2.047V13.599H61.694z"/>
	<path fill="#545454" d="M81.922,10.938c-0.492,0-1.021-0.048-1.587-0.144c-0.567-0.096-1.157-0.212-1.771-0.348v13.389h-2.232
		V10.118c-0.15-0.027-0.29-0.042-0.419-0.042c-0.13,0-0.263,0-0.399,0c-1.146,0-2.023,0.209-2.631,0.625
		c-0.607,0.417-0.911,1.171-0.911,2.263c0,0.818,0.093,1.443,0.278,1.873c0.186,0.431,0.375,0.754,0.567,0.974
		c-0.342,0-0.66-0.052-0.955-0.154c-0.294-0.104-0.551-0.27-0.77-0.501c-0.219-0.232-0.39-0.536-0.513-0.912
		c-0.124-0.375-0.185-0.842-0.185-1.401c0-0.561,0.11-1.099,0.329-1.619c0.219-0.518,0.571-0.979,1.058-1.381
		c0.485-0.403,1.115-0.727,1.888-0.973C74.442,8.624,75.39,8.5,76.512,8.5c0.547,0,1.043,0.024,1.488,0.072
		c0.445,0.048,0.862,0.103,1.25,0.164c0.389,0.061,0.775,0.116,1.157,0.163c0.381,0.048,0.784,0.072,1.208,0.072
		c0.573,0,1.054-0.045,1.443-0.133c0.389-0.09,0.712-0.188,0.972-0.297c0.042,0.245,0.062,0.478,0.062,0.695
		C84.093,10.371,83.369,10.938,81.922,10.938z"/>
	<path fill="#545454" d="M83.355,13.599v6.961c0,0.669,0.116,1.144,0.348,1.423c0.232,0.28,0.525,0.42,0.881,0.42
		c0.191,0,0.382-0.051,0.573-0.154c0.19-0.102,0.361-0.248,0.512-0.439c0.15-0.19,0.272-0.423,0.368-0.696
		c0.095-0.273,0.144-0.587,0.144-0.941v-6.572h2.047v6.961c0,0.232,0.013,0.458,0.041,0.676c0.027,0.219,0.085,0.413,0.174,0.583
		c0.088,0.171,0.211,0.311,0.368,0.42c0.157,0.109,0.358,0.164,0.604,0.164c0.423,0,0.778-0.154,1.064-0.461
		s0.522-0.706,0.707-1.197s0.317-1.041,0.399-1.648s0.123-1.212,0.123-1.812c0-0.383-0.014-0.762-0.041-1.137
		s-0.075-0.712-0.144-1.014c-0.068,0.069-0.157,0.112-0.266,0.134c-0.109,0.02-0.198,0.03-0.266,0.03
		c-0.327,0-0.573-0.116-0.737-0.349c-0.164-0.232-0.246-0.478-0.246-0.736c0-0.272,0.088-0.516,0.266-0.728
		c0.177-0.212,0.437-0.316,0.778-0.316c0.232,0,0.454,0.068,0.666,0.204c0.211,0.137,0.396,0.352,0.553,0.646
		c0.157,0.293,0.279,0.679,0.369,1.156c0.088,0.479,0.133,1.064,0.133,1.761c0,0.779-0.065,1.58-0.195,2.406
		c-0.13,0.825-0.345,1.579-0.645,2.262c-0.3,0.683-0.69,1.246-1.167,1.689c-0.478,0.443-1.071,0.665-1.781,0.665
		c-0.532,0-1.037-0.136-1.515-0.409c-0.478-0.272-0.833-0.668-1.065-1.188c-0.273,0.561-0.604,0.967-0.993,1.219
		c-0.389,0.253-0.795,0.379-1.218,0.379c-0.396,0-0.771-0.055-1.126-0.163c-0.355-0.109-0.662-0.29-0.921-0.543
		c-0.259-0.253-0.464-0.58-0.615-0.982c-0.15-0.402-0.225-0.897-0.225-1.484v-7.187H83.355z"/>
	<path fill="#545454" d="M97.81,13.496c0.477,0,0.893,0.069,1.249,0.204c0.355,0.138,0.658,0.325,0.911,0.563
		c0.252,0.239,0.457,0.525,0.614,0.86c0.157,0.334,0.276,0.692,0.358,1.074c0.382,0,0.655-0.119,0.819-0.357
		c0.164-0.239,0.28-0.461,0.348-0.666h0.594c-0.109,0.45-0.291,0.911-0.542,1.382c-0.253,0.472-0.604,0.822-1.055,1.055
		c0.027,0.164,0.041,0.324,0.041,0.481c0,0.156,0,0.316,0,0.48c0,1.68-0.307,2.997-0.921,3.951c-0.614,0.956-1.474,1.434-2.58,1.434
		c-0.45,0-0.904-0.082-1.361-0.245c-0.458-0.164-0.87-0.437-1.239-0.819s-0.666-0.874-0.891-1.474
		c-0.225-0.601-0.338-1.345-0.338-2.231c0-0.601,0.064-1.236,0.194-1.904c0.13-0.669,0.348-1.283,0.655-1.844
		c0.307-0.56,0.716-1.023,1.229-1.392C96.407,13.681,97.045,13.496,97.81,13.496z M98.025,22.402c0.72,0,1.25-0.357,1.589-1.075
		c0.339-0.717,0.509-1.729,0.509-3.04c0-0.068-0.004-0.141-0.011-0.215c-0.007-0.075-0.01-0.146-0.01-0.215
		c-0.382,0-0.662-0.105-0.84-0.318c-0.178-0.211-0.266-0.514-0.266-0.91c0-0.273,0.068-0.488,0.205-0.646
		c0.137-0.156,0.321-0.248,0.553-0.276c-0.163-0.403-0.367-0.688-0.611-0.854c-0.244-0.168-0.509-0.252-0.794-0.252
		c-0.421,0-0.777,0.142-1.069,0.422c-0.292,0.281-0.529,0.64-0.712,1.078c-0.183,0.438-0.315,0.921-0.397,1.447
		c-0.082,0.526-0.123,1.043-0.123,1.549c0,0.671,0.061,1.219,0.184,1.644c0.122,0.424,0.278,0.759,0.468,1.005
		s0.4,0.417,0.632,0.514C97.563,22.354,97.794,22.402,98.025,22.402z"/>
</g>
</svg>
