<?xml version="1.0" encoding="utf-8"?>
<!-- Generator: Adobe Illustrator 16.0.0, SVG Export Plug-In . SVG Version: 6.00 Build 0)  -->
<!DOCTYPE svg PUBLIC "-//W3C//DTD SVG 1.1//EN" "http://www.w3.org/Graphics/SVG/1.1/DTD/svg11.dtd">
<svg version="1.1" id="图层_1" xmlns="http://www.w3.org/2000/svg" xmlns:xlink="http://www.w3.org/1999/xlink" x="0px" y="0px"
	 width="258px" height="36px" viewBox="0 0 258 36" enable-background="new 0 0 258 36" xml:space="preserve">
<g>
	<path fill="#545454" d="M14.06,11.895l0.221-0.061c1.073,0,1.999,0.121,2.777,0.363H17.4h0.261l0.041,0.1l-0.02,1.166
		c-0.014,0.08-0.061,0.121-0.141,0.121l-0.242-0.24l-0.543-0.121h-0.181l-0.121,0.039v0.082c0.188,0.08,0.308,0.119,0.362,0.119
		v0.041c0,0.055-0.154,0.094-0.462,0.121l-0.121,3.922v0.424l-0.02,5.391v0.322c0,0.121,0.375,0.182,1.126,0.182h3.863l0.644,0.039
		c0.08,0,0.147-0.367,0.201-1.105c0.04-0.188,0.101-0.281,0.181-0.281c0.792,0.025,1.187,0.1,1.187,0.221
		c-0.054,0.121-0.134,0.182-0.241,0.182v0.061c0.134,0.133,0.201,0.248,0.201,0.342c0,0.309-0.047,0.717-0.141,1.227v0.301
		l0.02,0.102c-0.08,0.146-0.12,0.281-0.12,0.402c-0.027,0-0.081,0.088-0.161,0.262c-0.295,0.107-0.583,0.162-0.865,0.162h-0.081
		l-1.73-0.162h-0.101l-3.963,0.162l-2.756-0.264c-0.107-0.08-0.161-0.166-0.161-0.26c0.107-0.791,0.275-1.188,0.503-1.188
		c0.067-0.066,0.329-0.121,0.785-0.162c0.174-0.428,0.181-2.373,0.02-5.834c0.081-0.939,0.147-2.334,0.201-4.184v-0.201
		c0-0.201-0.141-0.303-0.422-0.303l-0.181-0.039v-0.061c0.242-0.121,0.429-0.182,0.563-0.182v-0.08l-0.462-0.061H14.04v0.08
		c0.054,0,0.081,0.021,0.081,0.061c-0.04,0.066-0.101,0.102-0.181,0.102h-0.081c-0.134-0.055-0.201-0.209-0.201-0.463V12.68
		c0-0.309,0.087-0.504,0.261-0.584C13.959,12.096,14.007,12.029,14.06,11.895z M13.738,24.689l-0.121,0.021v0.059l0.061,0.061h0.06
		l0.061-0.061v-0.02L13.738,24.689z M13.698,24.549c0.107,0,0.161-0.047,0.161-0.141v-0.041h-0.04
		C13.738,24.381,13.698,24.441,13.698,24.549z M14.221,12.518l-0.061,0.041v0.039h0.101l0.061-0.059v-0.021H14.221z M15.569,23.361
		h-0.101v0.061c-0.067,0.201-0.1,0.35-0.1,0.443c0,0.188,0.047,0.303,0.141,0.342h0.081c0.053,0,0.08-0.195,0.08-0.584v-0.08
		C15.669,23.449,15.636,23.389,15.569,23.361z M15.408,12.68c0.054,0.094,0.201,0.141,0.442,0.141h0.141l0.101-0.102
		c-0.12-0.08-0.241-0.121-0.362-0.121h-0.161C15.462,12.598,15.408,12.625,15.408,12.68z M15.489,25.455h-0.041v0.059h0.041V25.455z
		 M15.649,17.447h-0.06c-0.107,0.563-0.114,0.932-0.021,1.107c0.067,0.119,0.115,0.08,0.141-0.121l0.02-0.664
		C15.717,17.555,15.69,17.447,15.649,17.447z M15.69,24.51h-0.101v0.1c0.241,0.041,1.448,0.113,3.622,0.221l0.04-0.02V24.77
		L15.69,24.51z M15.871,13.041l-0.101,0.041v0.02l0.041,0.08h0.141l0.121-0.039v-0.061l-0.121-0.041H15.871z M15.791,13.463
		l-0.021,0.041v0.281c0.014,0.174,0.047,0.262,0.101,0.262l0.12-0.08v-0.141C15.978,13.584,15.911,13.463,15.791,13.463z
		 M16.333,25.395l-0.443,0.02v0.041c0,0.092,0.315,0.154,0.946,0.18c0.415,0,0.757-0.039,1.026-0.121v-0.059
		c-0.563-0.041-1.066-0.061-1.509-0.061H16.333z M16.897,12.539l-0.081,0.059v0.041l0.141,0.041v0.02l-0.06,0.041l-0.402-0.021
		l-0.02,0.021v0.1l0.06,0.061h0.402c0.215,0,0.322-0.074,0.322-0.221c-0.094-0.094-0.195-0.141-0.302-0.141H16.897z M18.627,25.455
		l-0.121,0.039v0.082h0.121l0.241-0.063v-0.059H18.627z M20.539,24.248h-0.523v0.02c0.013,0.039,0.08,0.061,0.201,0.061h0.443
		v-0.061L20.539,24.248z M20.377,24.871l-0.04,0.041v0.039l0.181,0.041H20.8v-0.041c0-0.053-0.047-0.08-0.141-0.08H20.377z
		 M21.102,24.047H20.9v0.059c0,0.041,0.087,0.068,0.262,0.08c0,0.109,0.121,0.168,0.362,0.182l0.382-0.039v-0.08
		C21.651,24.248,21.383,24.18,21.102,24.047z M21.243,25.133v0.02h0.06c0.134,0,0.268-0.055,0.402-0.16
		c-0.013-0.055-0.067-0.08-0.161-0.08C21.491,24.912,21.39,24.984,21.243,25.133z M21.826,25.213l-0.302,0.02v0.021
		c0.107,0.107,0.241,0.16,0.402,0.16h0.061c0.067,0,0.127-0.027,0.181-0.08c0.067,0.053,0.141,0.08,0.222,0.08h0.16
		c0.147,0,0.229-0.027,0.242-0.08v-0.02c0-0.068-0.208-0.102-0.624-0.102H21.826z M23.033,23.281h-0.041
		c-0.107,0.281-0.161,0.443-0.161,0.482l-0.161,0.846v0.08l0.06,0.061h0.061c0.174-0.08,0.275-0.463,0.302-1.146
		C23.08,23.389,23.06,23.281,23.033,23.281z"/>
	<path fill="#545454" d="M29.189,16.16l0.564,0.16h0.181c0.765,0.377,1.475,0.826,2.133,1.348c0.684,0.59,1.025,1.033,1.025,1.328
		h-0.04c-0.107-0.188-0.214-0.281-0.322-0.281h-0.02c-0.041,0-0.061,0.025-0.061,0.08c0.054,0.148,0.175,0.402,0.362,0.766h0.04
		c0.027,0,0.061-0.068,0.101-0.203h0.02c0.04,0.014,0.087,0.209,0.141,0.584l0.181,0.402l-0.04,0.262l0.06,0.725
		c-0.094,0.336-0.181,0.777-0.261,1.328c-0.054,0.254-0.678,1.207-1.872,2.855c-0.536,0.512-1.059,0.766-1.569,0.766
		c-0.469,0.053-0.999,0.08-1.589,0.08h-0.382c-0.228,0-0.825-0.195-1.791-0.582c-1.221-1.088-1.831-1.92-1.831-2.496
		c-0.175-0.361-0.322-0.697-0.443-1.006c0-0.174,0.181-0.75,0.543-1.73c0-0.617,0.147-1.045,0.442-1.287
		c0.63-1.354,1.428-2.232,2.394-2.635C28.002,16.314,28.68,16.16,29.189,16.16z M24.1,22.094l-0.041,0.061
		c0.014,0.121,0.034,0.182,0.061,0.182l0.041-0.02v-0.102l-0.041-0.121H24.1z M24.602,23.039l-0.08,0.063v0.139
		c0.027,0.457,0.154,0.713,0.382,0.766l0.02-0.02v-0.02C24.83,23.35,24.723,23.039,24.602,23.039z M24.723,19.922
		c0.067,0,0.127-0.047,0.182-0.141V19.74C24.783,19.74,24.723,19.801,24.723,19.922z M25.125,19.238h0.02
		c0.054-0.014,0.081-0.066,0.081-0.162h-0.04C25.146,19.104,25.125,19.156,25.125,19.238z M25.246,21.652l-0.081,0.08v0.041h0.061
		l0.04-0.061v-0.061H25.246z M25.346,24.367l-0.08,0.041v0.041l0.161,0.16h0.081C25.508,24.516,25.454,24.436,25.346,24.367z
		 M25.568,22.477v0.121c0.188,0.361,0.396,0.752,0.624,1.166c0,0.135,0.255,0.322,0.765,0.564c0.241,0.281,0.69,0.502,1.348,0.664
		l0.362,0.039c0.59-0.119,1.033-0.248,1.328-0.381l0.724-0.604c0.751-0.807,1.113-1.482,1.086-2.033v-0.182
		c-0.08-0.213-0.12-0.563-0.12-1.045c0-0.375,0.027-0.67,0.08-0.885c0-0.094-0.261-0.33-0.784-0.705
		c-0.375-0.537-0.765-0.865-1.167-0.986h-0.242c-1.569,0.068-2.354,0.195-2.354,0.383c-0.349,0.35-0.59,0.691-0.725,1.025
		c-0.429,0.457-0.644,0.76-0.644,0.906C25.729,21.076,25.635,21.727,25.568,22.477z M25.769,25.072h-0.141v0.08
		c0.174,0.176,0.49,0.262,0.946,0.262h0.221C26.728,25.32,26.386,25.207,25.769,25.072z M25.93,19.098v0.141h0.061
		c0.174-0.162,0.261-0.289,0.261-0.383v-0.02h-0.101C26.071,18.889,25.997,18.977,25.93,19.098z M26.191,17.609l-0.06,0.1v0.08
		c0.08,0,0.49-0.281,1.227-0.844l0.161-0.063l0.121,0.021c0.898-0.094,1.348-0.182,1.348-0.262v-0.02l-0.322-0.061
		C27.754,16.563,26.929,16.912,26.191,17.609z M26.353,18.051c0.121,0,0.235-0.08,0.342-0.24v-0.063
		C26.466,17.816,26.353,17.916,26.353,18.051z M26.433,18.613h-0.08v0.082h0.04l0.04-0.041V18.613z M26.715,25.615v0.02h0.261
		l0.041-0.039l-0.041-0.061h-0.04C26.802,25.535,26.728,25.563,26.715,25.615z M27.137,25.334v0.061c0,0.08,0.188,0.119,0.563,0.119
		l0.02-0.02v-0.039C27.546,25.375,27.352,25.334,27.137,25.334z M27.72,17.346v0.102c1.046-0.121,1.569-0.201,1.569-0.242
		l-0.161-0.059h-0.02C28.465,17.146,28.002,17.213,27.72,17.346z M27.761,18.031v0.02l0.041,0.061h0.282l1.428-0.322v-0.041
		l-0.382-0.08C28.217,17.775,27.761,17.896,27.761,18.031z M29.089,25.816v0.041c0,0.039,0.1,0.072,0.301,0.1
		c0.229,0,0.342-0.033,0.342-0.1v-0.041c-0.013-0.055-0.061-0.107-0.141-0.16h-0.181C29.263,25.656,29.155,25.709,29.089,25.816z
		 M29.431,16.582c0.067,0.188,0.215,0.281,0.442,0.281l0.202,0.02l0.04-0.02v-0.1c0-0.148-0.141-0.234-0.422-0.262
		C29.518,16.516,29.431,16.543,29.431,16.582z M29.471,17.447v0.02l0.201-0.16l-0.04-0.02C29.498,17.367,29.444,17.42,29.471,17.447
		z M29.813,17.246l-0.041,0.02c0.255,0.201,0.456,0.303,0.604,0.303l0.021-0.041v-0.02C30.182,17.334,29.987,17.246,29.813,17.246z
		 M30.175,25.957h0.02c0.242-0.08,0.363-0.146,0.363-0.201l-0.041-0.041C30.329,25.783,30.215,25.863,30.175,25.957z M30.477,18.172
		c0.081,0.135,0.174,0.201,0.282,0.201l0.021-0.041v-0.041c0-0.119-0.054-0.18-0.162-0.18
		C30.524,18.125,30.477,18.145,30.477,18.172z M30.839,17.025l-0.06,0.059c0.147,0.189,0.294,0.283,0.442,0.283
		c0-0.148-0.114-0.262-0.342-0.342H30.839z M31.141,17.91v0.039c0.04,0.162,0.228,0.33,0.563,0.504h0.06l0.04-0.061v-0.02
		C31.737,18.279,31.516,18.125,31.141,17.91z M31.583,18.533h-0.081c0.081,0.174,0.275,0.322,0.583,0.443h0.081l0.06-0.061v-0.02
		C31.999,18.654,31.785,18.533,31.583,18.533z M32.428,23.463v0.02c0.107,0,0.201-0.107,0.282-0.322v-0.039h-0.061
		C32.569,23.121,32.495,23.234,32.428,23.463z M32.75,23.102h0.101l0.081,0.059c0.013-0.215-0.021-0.307-0.101-0.281h-0.04
		l-0.021-0.141L32.75,23.102z M32.911,21.994c0.013,0.402,0.047,0.617,0.101,0.645h0.04c0-0.148,0.061-0.311,0.181-0.484v-0.061
		l-0.221-0.301h-0.04C32.945,21.793,32.924,21.861,32.911,21.994z M33.233,20.566l-0.06,0.061v0.08l0.06,0.08l0.081-0.08v-0.08
		l-0.06-0.061H33.233z"/>
	<path fill="#545454" d="M35.848,15.596c0.993,0.121,1.489,0.303,1.489,0.543l0.101,0.121v0.262l0.221,0.242
		c-0.147,0.119-0.221,0.248-0.221,0.383c0.027,0.066,0.074,0.1,0.141,0.1v0.02l-0.121,0.143h-0.161
		c-0.134-0.109-0.241-0.162-0.322-0.162c-0.71,0.041-0.797,0.623-0.261,1.75c0.389,1.355,0.717,2.201,0.986,2.535
		c0.751,1.717,1.261,2.602,1.529,2.654h0.041c0.054,0,0.208-0.328,0.462-0.984c0.497-0.898,0.892-1.75,1.187-2.555
		c0.229-0.389,0.342-0.658,0.342-0.805l-0.06-0.201c0.885-1.637,0.918-2.436,0.1-2.395l-0.242,0.041h-0.08
		c-0.04-1.182,0.087-1.771,0.382-1.771c0.322-0.133,1.16-0.201,2.515-0.201c0.617,0,0.926,0.229,0.926,0.686
		c0.147,0.254,0.221,0.414,0.221,0.482c-0.214,0.174-0.322,0.375-0.322,0.602l-0.745,0.143c-0.027,0.053-0.248,0.521-0.664,1.408
		c-0.094,0.281-0.57,1.193-1.428,2.736l-0.543,1.668c-0.805,1.664-1.221,2.496-1.248,2.496s-0.04,0.041-0.04,0.121v0.16v0.02
		c0,0.201-0.168,0.322-0.503,0.363l-0.403,0.242c-0.161,0-0.396-0.102-0.704-0.303l-0.986-1.389
		c-0.161-0.59-0.309-0.885-0.443-0.885c-0.08-0.08-0.194-0.416-0.342-1.006c-0.268-0.469-0.523-0.879-0.764-1.229
		c0-0.053,0.033-0.113,0.101-0.18v-0.08l-0.342-0.826c-0.201-0.725-0.349-1.113-0.442-1.166c-0.442-1.273-0.745-1.912-0.905-1.912
		c0,0.068-0.087,0.107-0.262,0.121c-0.228,0-0.496-0.113-0.805-0.342v-0.041l0.061-0.1v-0.061c0-0.027-0.094-0.094-0.282-0.201
		l-0.021-0.041c0.309-0.066,0.463-0.133,0.463-0.201l-0.282-0.141l-0.02-0.02v-0.061l0.141-0.182c0-0.053-0.047-0.119-0.141-0.199
		v-0.063C34.708,15.711,35.607,15.596,35.848,15.596z M33.796,17.246l-0.06,0.061l0.06,0.039h0.262v-0.039l-0.221-0.061H33.796z
		 M34.299,16.521l-0.081,0.061v0.08l0.101,0.041c0.188-0.027,0.281-0.074,0.281-0.141l-0.06-0.041H34.299z M35.023,17.789h-0.06
		l-0.021,0.061c0.107,0.066,0.171,0.094,0.191,0.08S35.117,17.869,35.023,17.789z M35.265,15.938c0,0.041,0.107,0.063,0.322,0.063
		h0.744v-0.041c-0.228-0.094-0.429-0.141-0.603-0.141h-0.242C35.365,15.818,35.292,15.857,35.265,15.938z M35.889,19.379h-0.02
		c0.027,0.16,0.067,0.24,0.121,0.24V19.58C35.976,19.445,35.942,19.379,35.889,19.379z M37.277,21.531h-0.061v0.061
		c0.174,0.523,0.322,0.783,0.443,0.783v-0.039C37.512,21.826,37.384,21.559,37.277,21.531z M37.94,24.207H37.9v0.061
		c0,0.133,0.128,0.262,0.382,0.383h0.02l0.02-0.021v-0.02C38.27,24.475,38.142,24.342,37.94,24.207z M38.403,25.254h-0.04v0.02
		l0.061,0.121h0.06v-0.061L38.403,25.254z M38.484,24.186h-0.041v0.021c0.014,0.135,0.114,0.303,0.302,0.504h0.04l0.041-0.021
		C38.759,24.502,38.645,24.334,38.484,24.186z M38.584,24.871l-0.06,0.041c0.174,0.24,0.342,0.361,0.502,0.361v-0.061
		C38.92,24.984,38.772,24.871,38.584,24.871z M39.127,24.65v0.039c0.081,0.256,0.195,0.383,0.342,0.383
		c0.147-0.256,0.221-0.43,0.221-0.523V24.51h-0.02C39.631,24.535,39.449,24.584,39.127,24.65z M40.113,24.83h-0.08l-0.503,0.885
		v0.063c0.268,0,0.436-0.256,0.503-0.766C40.087,25.012,40.113,24.951,40.113,24.83z M40.577,22.537h-0.061
		c-0.497,0.939-0.745,1.449-0.745,1.529l0.06,0.061c0.376-0.604,0.604-1.053,0.685-1.348c0.04-0.055,0.061-0.121,0.061-0.201V22.537
		z M40.134,24.689h0.06c0.054,0,0.369-0.631,0.946-1.891l0.061-0.303v-0.02H41.16c-0.161,0.107-0.355,0.482-0.583,1.127
		C40.281,24.152,40.134,24.516,40.134,24.689z M41.1,16.24v0.121c0,0.201,0.074,0.301,0.221,0.301h0.02l0.06-0.061v-0.02
		C41.28,16.26,41.2,16.1,41.16,16.1C41.119,16.127,41.1,16.174,41.1,16.24z M41.28,15.736v0.102l0.061,0.1h0.02
		c0-0.08,0.778-0.152,2.334-0.221l0.04-0.02h0.02v-0.061c0-0.041-0.107-0.061-0.322-0.061C42.615,15.576,41.897,15.631,41.28,15.736
		z M41.361,21.008v0.021l0.061,0.039c0.067,0,0.101-0.047,0.101-0.141v-0.061l-0.061-0.08
		C41.395,20.814,41.361,20.887,41.361,21.008z M41.643,20.707l-0.081,0.08l0.04,0.08l0.061-0.102v-0.059H41.643z M41.703,16.281
		l-0.06,0.08l0.06,0.039c0.081-0.014,0.121-0.033,0.121-0.061v-0.059H41.703z M41.723,20.465h0.041
		c0.121-0.121,0.201-0.275,0.242-0.463v-0.02C41.857,19.982,41.763,20.143,41.723,20.465z M42.024,19.619v0.121h0.081
		c0.134-0.121,0.201-0.254,0.201-0.402v-0.08h-0.08C42.092,19.338,42.024,19.459,42.024,19.619z M42.407,18.756v0.08h0.081
		c0.067,0,0.134-0.141,0.201-0.424v-0.08h-0.02v-0.041C42.602,18.291,42.514,18.445,42.407,18.756z M42.729,18.836h-0.04v0.061h0.04
		V18.836z M42.769,18.191v0.141h0.041c0.08-0.025,0.174-0.18,0.282-0.463c0.04-0.039,0.134-0.059,0.282-0.059l0.02-0.041v-0.143
		l-0.04-0.08v-0.059l0.101-0.041c0-0.121-0.054-0.215-0.161-0.281C43.104,17.166,42.93,17.508,42.769,18.191z M43.855,16.521v0.021
		l0.282,0.059c0.201-0.014,0.302-0.033,0.302-0.059c0-0.055-0.087-0.088-0.262-0.102h-0.181
		C43.902,16.441,43.855,16.469,43.855,16.521z"/>
	<path fill="#545454" d="M49.69,15.576c0.563,0,1.247,0.242,2.052,0.725c0.684,0.51,1.026,0.857,1.026,1.045
		c0.536,1.129,0.805,1.805,0.805,2.033l0.02,0.16c-0.201,0.471-0.302,0.793-0.302,0.967l-0.121,0.02h-1.71
		c-0.161,0-0.355,0.02-0.583,0.061c-1.932-0.16-3.286-0.242-4.064-0.242H46.39c-0.161,0.242-0.241,0.416-0.241,0.523
		c0.094,0.146,0.141,0.383,0.141,0.705c0,0.508,0.081,0.811,0.242,0.904l0.02,0.102v0.02l-0.121-0.061v0.061l0.181,0.201
		c0,0.174,0.121,0.395,0.362,0.664c0.443,0.777,0.925,1.26,1.449,1.449c0.442,0.146,0.946,0.221,1.509,0.221
		c0.093,0,0.288-0.088,0.583-0.262c0.241-0.055,0.751-0.49,1.529-1.309v-0.059c0-0.027-0.094-0.055-0.281-0.082l-0.041-0.1
		c0.309-0.59,0.677-0.98,1.107-1.168c0.121,0.121,0.369,0.309,0.744,0.564c0.295,0.455,0.691,0.992,1.187,1.609v0.08
		c-0.429,0.563-0.738,0.846-0.926,0.846h-0.081c0-0.295-0.181-0.463-0.542-0.504c-0.067,0-0.363,0.221-0.886,0.664
		c-0.309,0.242-0.838,0.469-1.589,0.684c-0.872,0.176-1.489,0.262-1.851,0.262l-1.147-0.402c-0.644,0-1.234-0.348-1.771-1.045
		c-0.228-0.242-0.416-0.531-0.563-0.865c0-0.107-0.147-0.664-0.443-1.672c-0.094-0.387-0.141-0.764-0.141-1.125v-0.02
		c0-1.785,0.537-3.348,1.61-4.688c0.134-0.336,0.442-0.584,0.925-0.746c0.322-0.094,0.711-0.166,1.167-0.221
		C48.644,15.521,49.033,15.521,49.69,15.576z M45.163,20.707v0.059v0.021c-0.013,0.041-0.021,0.135-0.021,0.281v0.08
		c0,0.242,0.067,0.457,0.202,0.645h0.02C45.364,21.148,45.297,20.787,45.163,20.707z M45.445,18.875
		c-0.107,0.107-0.201,0.377-0.282,0.805h0.04c0.081,0,0.202-0.234,0.362-0.703C45.539,18.908,45.499,18.875,45.445,18.875z
		 M45.264,19.941h-0.101v0.121c0,0.08,0.021,0.121,0.061,0.121c0.067,0,0.107-0.066,0.121-0.201L45.264,19.941z M45.525,22.457
		h-0.06v0.039l0.06,0.041h0.04v-0.041L45.525,22.457z M45.666,22.799l-0.02,0.02v0.041c0.054,0.215,0.134,0.322,0.242,0.322V23.16
		v-0.039C45.888,23.014,45.814,22.906,45.666,22.799z M46.25,20.143v0.021h0.021l0.341-0.041v-0.039l-0.06-0.082h-0.06
		C46.371,20.002,46.29,20.049,46.25,20.143z M46.31,17.648l-0.04,0.061v0.02h0.04l0.08-0.061v-0.02H46.31z M46.27,18.996v0.08
		l0.04,0.041h0.04c0.094-0.041,0.174-0.113,0.242-0.221v-0.061h-0.101C46.411,18.836,46.337,18.889,46.27,18.996z M46.471,18.475
		v0.059c0,0.148,1.221,0.316,3.662,0.504l0.201,0.061l0.262-0.021c0.537,0.176,0.898,0.262,1.086,0.262
		c0,0.041,0.04,0.074,0.121,0.102c0.081-0.121,0.121-0.234,0.121-0.342v-0.383c0-0.174-0.335-0.563-1.006-1.168
		c-0.309-0.307-0.657-0.482-1.046-0.521l-0.685-0.121c-1.113,0.227-1.844,0.504-2.192,0.824
		C46.846,18.01,46.672,18.258,46.471,18.475z M46.491,18.172c0.08-0.014,0.12-0.066,0.12-0.162v-0.02
		C46.531,18.018,46.491,18.078,46.491,18.172z M46.611,25.051h-0.06v0.082c0.027,0.066,0.141,0.141,0.342,0.221l0.08,0.061
		C46.827,25.186,46.706,25.064,46.611,25.051z M46.692,17.266v0.041h0.04c0.174-0.041,0.262-0.088,0.262-0.141v-0.02h-0.101
		C46.827,17.146,46.759,17.186,46.692,17.266z M46.894,19.982l-0.101,0.02v0.121h0.101v-0.08v-0.041V19.982z M47.034,16.34v0.021
		l0.06,0.039h0.021c0.269-0.066,0.402-0.135,0.402-0.201V16.08L47.437,16h-0.04C47.155,16.08,47.034,16.193,47.034,16.34z
		 M47.295,19.801v0.041c0.269,0.066,0.979,0.133,2.133,0.201v0.02v0.021l-0.422,0.059c0,0.041,0.174,0.061,0.523,0.061
		c0.563,0,0.845-0.027,0.845-0.08C50.374,19.988,49.348,19.881,47.295,19.801z M47.497,19.117v0.061
		c0.254,0.174,0.717,0.262,1.388,0.262h0.181l0.261-0.02v-0.082C48.778,19.219,48.167,19.145,47.497,19.117z M47.537,17.146
		c0.134-0.107,0.402-0.223,0.805-0.344v-0.039l-0.02-0.041h-0.202C47.732,16.83,47.537,16.971,47.537,17.146z M47.839,16v0.018
		h0.041c0.214,0,0.617-0.072,1.207-0.221c0.121-0.012,0.182-0.045,0.182-0.1l-0.061-0.061h-0.021c-0.389,0-0.824,0.107-1.307,0.322
		L47.839,16z M48.02,25.133H48v0.02c0,0.055,0.141,0.113,0.422,0.182l0.02-0.02v-0.041C48.268,25.18,48.127,25.133,48.02,25.133z
		 M48.704,16.441v0.02c0,0.055,0.275,0.121,0.825,0.201l0.04-0.02v-0.08c-0.107-0.148-0.288-0.223-0.543-0.223h-0.06
		C48.791,16.354,48.704,16.387,48.704,16.441z M49.207,25.354h-0.061v0.061h0.061V25.354z M49.891,25.857l-0.422-0.041h-0.08
		c-0.121,0-0.188,0.027-0.202,0.08v0.041l0.081,0.061h0.362c0.416,0,0.905-0.074,1.469-0.221c-0.027-0.082-0.107-0.121-0.242-0.121
		h-0.101C50.434,25.656,50.146,25.723,49.891,25.857z M50.132,16.139h-0.604v0.041c0,0.053,0.275,0.094,0.825,0.121h0.02v-0.08
		C50.374,16.193,50.293,16.166,50.132,16.139z M49.932,16.563v0.02c0.764,0.443,1.173,0.664,1.227,0.664h0.02l0.202-0.08
		l0.121,0.039l0.02-0.039v-0.02c-0.053-0.041-0.168-0.082-0.342-0.121l-0.402-0.182c-0.107-0.229-0.322-0.342-0.644-0.342h-0.06
		C49.978,16.516,49.932,16.535,49.932,16.563z M51.178,19.641h-0.06v0.061h0.06V19.641z M51.138,20.184
		c0,0.053,0.121,0.08,0.362,0.08l0.181-0.02v-0.041c0-0.053-0.127-0.08-0.382-0.08C51.192,20.15,51.138,20.17,51.138,20.184z
		 M51.138,24.77h0.04c0.107-0.039,0.168-0.105,0.181-0.201l-0.02-0.02C51.205,24.629,51.138,24.703,51.138,24.77z M51.299,25.656
		c0.134,0,0.242-0.102,0.322-0.303h-0.061C51.386,25.447,51.299,25.547,51.299,25.656z M51.5,17.547
		c0.026,0.109,0.087,0.162,0.181,0.162h0.04l0.041-0.061v-0.121l-0.081-0.1C51.561,17.428,51.5,17.467,51.5,17.547z M51.762,24.146
		l0.04,0.021h0.02c0.147,0,0.242-0.088,0.282-0.264v-0.039C51.957,23.865,51.842,23.959,51.762,24.146z M52.003,17.811h-0.081
		c0.147,0.441,0.255,0.682,0.322,0.723h0.081l0.061-0.041c-0.107-0.428-0.221-0.643-0.342-0.643L52.003,17.811z M52.225,22.98
		l0.04,0.059h0.101c0.081,0,0.128-0.025,0.141-0.08l-0.081-0.08h-0.02C52.312,22.879,52.251,22.912,52.225,22.98z M52.325,24.871
		h0.081c0.133-0.121,0.201-0.207,0.201-0.262h-0.02C52.413,24.664,52.325,24.75,52.325,24.871z M52.688,18.715l-0.06,0.041v0.141
		l0.06,0.08c0.054-0.014,0.081-0.061,0.081-0.141v-0.08l-0.021-0.041H52.688z M52.708,24.328l0.061,0.039
		c0.201-0.066,0.301-0.152,0.301-0.262v-0.039h-0.02C52.862,24.066,52.748,24.152,52.708,24.328z M53.17,24.105l0.021,0.021h0.061
		c0.08-0.055,0.121-0.127,0.121-0.223h-0.061C53.217,23.959,53.17,24.025,53.17,24.105z M53.875,23.904h-0.02v0.041
		c0.04,0.16,0.101,0.24,0.181,0.24h0.021l0.04-0.039v-0.02C54.069,23.979,53.995,23.904,53.875,23.904z"/>
	<path fill="#545454" d="M64.859,12.115l0.201-0.02c0.066,0.027,0.1,0.053,0.1,0.08c-0.039,0.107-0.073,0.531-0.1,1.268
		c-0.014,0.094-0.175,0.141-0.483,0.141c0.241,0.51,0.718,1.201,1.429,2.072l0.442,0.926c0.161,0.295,0.409,0.576,0.745,0.846
		c0.188-0.162,0.488-0.545,0.904-1.146c0.309-0.471,0.738-1.047,1.288-1.73c0.228-0.336,0.343-0.576,0.343-0.725l-0.102-0.041
		h-0.402c-0.281,0-0.456-0.361-0.523-1.086c0-0.16,0.175-0.24,0.523-0.24c0-0.162,0.362-0.242,1.086-0.242h1.146
		c0.738,0,1.107,0.053,1.107,0.16c0.04,0.094,0.061,0.256,0.061,0.484v0.24c0,0.361-0.074,0.543-0.222,0.543
		c-0.094,0-0.167,0.102-0.222,0.303h-0.039l-0.182-0.141c-0.791,0.965-1.576,1.938-2.354,2.916
		c-1.007,1.168-1.543,1.871-1.609,2.113v0.1c0.094,0.148,0.141,0.939,0.141,2.375c0,1.918,0.094,2.875,0.281,2.875h0.021
		l0.563,0.102l0.382,0.041l0.04,0.141l-0.02,0.582v0.182l0.181,0.182v0.08c-0.228,0.322-0.845,0.484-1.851,0.484
		c-1.436-0.027-2.152-0.102-2.152-0.223l-0.061-0.523l0.039-0.684c0-0.174,0.201-0.262,0.604-0.262
		c0.362-0.014,0.543-0.047,0.543-0.102v-0.039c-0.147-0.563-0.222-2.059-0.222-4.486c-0.013-0.16-0.066-0.342-0.16-0.543
		c0-0.135-0.088-0.268-0.262-0.402c-0.47-0.898-1.107-2.039-1.912-3.42c0-0.027-0.295-0.457-0.884-1.287
		c-0.054-0.041-0.128-0.061-0.222-0.061l-0.925,0.039c-0.214-0.053-0.322-0.121-0.322-0.201l0.161-0.201
		c0-0.041-0.061-0.066-0.181-0.08l-0.08,0.039v0.121c0,0.096-0.054,0.162-0.161,0.201c-0.094,0-0.161-0.133-0.201-0.402
		c-0.161-0.186-0.268-0.281-0.322-0.281v-0.1c0.134-0.053,0.201-0.121,0.201-0.201l-0.141-0.141c0-0.201,0.168-0.309,0.503-0.322
		h0.403C62.585,12.418,63.545,12.316,64.859,12.115z M63.672,13.705h-0.061v0.061l0.021,0.061h0.04V13.705z M63.732,13.947
		l-0.021,0.039c0.054,0.215,0.107,0.33,0.161,0.342h0.061v-0.039C63.934,14.182,63.867,14.068,63.732,13.947z M63.793,13.041v0.021
		l0.16-0.021l0.463,0.08l0.081-0.08c0-0.053-0.095-0.08-0.282-0.08h-0.039C63.92,12.961,63.793,12.988,63.793,13.041z M65.16,15.979
		L65.121,16v0.18l0.12,0.102h0.141c0.04,0,0.061-0.033,0.061-0.102C65.442,16.113,65.349,16.047,65.16,15.979z M65.604,16.301
		h-0.041v0.02l0.061,0.08h0.041v-0.039L65.604,16.301z M66.167,25.213v0.02l0.08,0.061h0.161c0.188-0.027,0.281-0.053,0.281-0.08
		v-0.041l-0.08-0.039h-0.281C66.221,25.133,66.167,25.16,66.167,25.213z M66.891,22.256l-0.02,0.039v0.725l0.02,0.121h0.081v-0.443
		C66.972,22.402,66.945,22.256,66.891,22.256z M67.273,18.613l-0.041,0.041c0,0.094,0.041,0.16,0.121,0.201l0.121-0.02v-0.021
		c0-0.08-0.047-0.146-0.141-0.201H67.273z M67.414,17.729v0.02c0.054,0,0.201-0.174,0.442-0.521v-0.102h-0.06
		C67.541,17.379,67.414,17.582,67.414,17.729z M67.736,19.52l-0.081,0.08v0.121l0.04,0.061l0.081-0.08V19.52H67.736z M67.978,16.824
		v0.08h0.021c0.496-0.59,0.744-0.953,0.744-1.086h-0.041C68.581,15.951,68.34,16.287,67.978,16.824z M68.359,25.232l-0.04,0.061
		v0.041l0.362,0.041c0.174,0,0.262-0.027,0.262-0.082l-0.141-0.061H68.359z M69.305,13.404l0.081,0.059h0.04
		c0.121,0,0.188-0.025,0.201-0.08v-0.08h-0.141C69.393,13.303,69.332,13.336,69.305,13.404z M71.096,14.047l-0.061-0.221
		c-0.631,0.51-0.945,0.818-0.945,0.926c-0.054,0.053-0.08,0.107-0.08,0.16v0.041h0.02c0.066-0.027,0.148-0.115,0.242-0.262
		C70.606,14.449,70.881,14.234,71.096,14.047z M71.961,13.242l-0.04,0.041v0.041h0.02l0.081-0.021v-0.061H71.961z"/>
	<path fill="#545454" d="M73.992,14.771l2.495-0.061c0.215,0,0.664,0.094,1.349,0.281c0.777,0.738,1.24,1.314,1.388,1.73
		c0.295,0.309,0.53,0.92,0.704,1.832c0.215,0.215,0.322,0.689,0.322,1.428l0.02,0.502l-0.08,1.992c0,0.402,0.248,0.898,0.744,1.49
		c0.456,0.441,0.751,0.662,0.885,0.662v0.041c0,0.16-0.234,0.416-0.703,0.764c-0.35,0.35-0.57,0.523-0.664,0.523h-0.021
		c-0.215-0.027-0.758-0.422-1.63-1.188c-1.582,0.617-2.381,0.934-2.395,0.945c-0.522,0.162-1.105,0.242-1.75,0.242h-0.1
		c-0.725-0.121-1.342-0.402-1.852-0.844c-0.094-0.082-0.288-0.416-0.584-1.008c-0.24-0.295-0.361-0.656-0.361-1.086v-0.582
		c0-0.377,0.101-0.725,0.302-1.047c0.175-0.551,0.476-1.074,0.905-1.57c0.215-0.254,0.43-0.416,0.644-0.482
		c0.698-0.375,1.389-0.563,2.072-0.563l0.905-0.02h0.121c0.51,0,0.871,0.072,1.086,0.221h0.121c0.066,0,0.101-0.027,0.101-0.08
		c-0.147-0.631-0.39-1.234-0.725-1.813c-0.295-0.496-0.845-0.744-1.649-0.744l-0.825-0.119c-0.71,0.146-1.065,0.295-1.065,0.441
		c-0.282,0.363-0.45,0.813-0.504,1.348c-0.026,0.068-0.268,0.102-0.724,0.102l-0.121,0.041c-0.054,0-0.12,0.113-0.2,0.34
		c-0.377-0.053-0.564-0.133-0.564-0.24c0.027-0.08,0.074-0.563,0.141-1.449c0.215-0.617,0.725-1.186,1.529-1.709
		C73.684,14.879,73.912,14.771,73.992,14.771z M72.584,17.508l-0.06,0.039v0.303h0.02c0.054-0.014,0.081-0.061,0.081-0.141v-0.162
		L72.584,17.508z M72.746,16.018v0.041h0.02c0.121,0,0.302-0.127,0.543-0.381v-0.061h-0.02
		C73.154,15.617,72.974,15.752,72.746,16.018z M73.047,24.086l-0.039,0.041v0.02l0.039,0.039h0.102v-0.039l-0.061-0.061H73.047z
		 M73.107,25.133l-0.061,0.08c0.054,0.121,0.389,0.275,1.006,0.463c0.201,0.094,0.47,0.141,0.805,0.141v-0.02
		c0-0.041-0.254-0.115-0.764-0.221c-0.295-0.082-0.604-0.229-0.926-0.443H73.107z M73.53,19.941l-0.222,0.102v0.1h0.04
		c0.095,0,0.161-0.053,0.201-0.16v-0.041H73.53z M73.309,21.854c0.094,0.805,0.208,1.207,0.342,1.207l0.201,0.262v0.02l-0.181-0.02
		v0.061c0.255,0.348,0.778,0.67,1.569,0.965c0.094,0.053,0.229,0.094,0.402,0.121c0.241,0,1.167-0.396,2.776-1.188
		c0.107-0.066,0.161-0.141,0.161-0.221v-0.102c-0.121-0.549-0.222-1.193-0.302-1.93l-0.041-0.021c0-0.146-0.147-0.268-0.442-0.361
		c-0.992-0.281-1.67-0.424-2.031-0.424c-1.02,0.229-1.717,0.57-2.093,1.027C73.43,21.492,73.309,21.693,73.309,21.854z
		 M74.557,15.375v0.061c0.013,0.041,0.08,0.061,0.201,0.061c0.12,0,0.287-0.041,0.502-0.121v-0.08h-0.08
		C74.885,15.295,74.677,15.32,74.557,15.375z M75.301,24.85l-0.061,0.063c0.026,0.066,0.08,0.1,0.16,0.1
		c0.148-0.027,0.223-0.061,0.223-0.1v-0.021l-0.061-0.041H75.301z M75.542,15.879l-0.101,0.08l0.061,0.1h0.262L75.823,16
		l-0.12-0.121H75.542z M76.246,15.113l-0.041,0.061l0.061,0.08h0.121l0.02-0.039l-0.061-0.102H76.246z M76.91,24.629v0.041h0.08
		c0.188,0,0.436-0.08,0.744-0.242v-0.02h-0.08C77.198,24.463,76.95,24.535,76.91,24.629z M77.775,15.273h-0.041v0.041
		c0.107,0.107,0.201,0.162,0.282,0.162h0.021v-0.041C77.93,15.328,77.842,15.273,77.775,15.273z M78.74,22.135l-0.02,0.02v0.121
		l0.061,0.082h0.02l0.08-0.082v-0.121l-0.061-0.02H78.74z M78.801,21.43l-0.061,0.063l0.061,0.08l0.08-0.021v-0.059L78.82,21.43
		H78.801z M79.364,20.545l-0.06-0.039v0.061h0.06V20.545z M79.445,20.928h-0.121v0.08l0.061,0.061l0.061-0.061V20.928z
		 M79.425,19.82l-0.061,0.041v0.061c0.054,0.201,0.107,0.301,0.161,0.301h0.04c0-0.174-0.04-0.307-0.12-0.402H79.425z
		 M79.525,21.492h-0.061v0.02c0.027,0.51,0.08,0.764,0.161,0.764l0.04-0.039v-0.041C79.666,21.914,79.619,21.678,79.525,21.492z
		 M79.827,24.348l-0.061,0.061c0.04,0.094,0.094,0.154,0.161,0.182h0.021l0.08-0.08v-0.041l-0.101-0.121H79.827z M79.888,19.117
		h-0.021v0.039c0.027,0.109,0.054,0.162,0.081,0.162l0.02-0.1C79.941,19.15,79.914,19.117,79.888,19.117z M80.27,24.689l-0.04,0.08
		v0.041l0.081,0.08h0.08l0.061-0.041v-0.039l-0.102-0.121H80.27z M80.451,24.025h-0.061v0.121c0.054,0.174,0.113,0.262,0.181,0.262
		h0.061v-0.061C80.578,24.133,80.518,24.025,80.451,24.025z"/>
	<path fill="#545454" d="M89.242,11.895l0.222-0.061c1.073,0,1.998,0.121,2.776,0.363h0.342h0.262l0.04,0.1l-0.02,1.166
		c-0.015,0.08-0.061,0.121-0.142,0.121l-0.241-0.24l-0.543-0.121h-0.181l-0.121,0.039v0.082c0.188,0.08,0.309,0.119,0.362,0.119
		v0.041c0,0.055-0.155,0.094-0.463,0.121l-0.121,3.922v0.424l-0.021,5.391v0.322c0,0.121,0.376,0.182,1.127,0.182h3.863l0.644,0.039
		c0.081,0,0.147-0.367,0.201-1.105c0.04-0.188,0.101-0.281,0.181-0.281c0.791,0.025,1.188,0.1,1.188,0.221
		c-0.054,0.121-0.135,0.182-0.242,0.182v0.061c0.135,0.133,0.202,0.248,0.202,0.342c0,0.309-0.048,0.717-0.142,1.227v0.301
		l0.021,0.102c-0.081,0.146-0.12,0.281-0.12,0.402c-0.027,0-0.081,0.088-0.162,0.262c-0.295,0.107-0.583,0.162-0.865,0.162h-0.08
		l-1.73-0.162h-0.1l-3.964,0.162l-2.756-0.264c-0.107-0.08-0.161-0.166-0.161-0.26c0.107-0.791,0.275-1.188,0.503-1.188
		c0.067-0.066,0.329-0.121,0.784-0.162c0.175-0.428,0.182-2.373,0.021-5.834c0.081-0.939,0.147-2.334,0.202-4.184v-0.201
		c0-0.201-0.142-0.303-0.424-0.303l-0.181-0.039v-0.061c0.241-0.121,0.429-0.182,0.563-0.182v-0.08l-0.463-0.061h-0.281v0.08
		c0.054,0,0.08,0.021,0.08,0.061c-0.041,0.066-0.1,0.102-0.182,0.102h-0.08c-0.134-0.055-0.201-0.209-0.201-0.463V12.68
		c0-0.309,0.088-0.504,0.262-0.584C89.143,12.096,89.188,12.029,89.242,11.895z M88.921,24.689L88.8,24.711v0.059l0.061,0.061h0.061
		l0.06-0.061v-0.02L88.921,24.689z M88.881,24.549c0.106,0,0.16-0.047,0.16-0.141v-0.041h-0.04
		C88.921,24.381,88.881,24.441,88.881,24.549z M89.403,12.518l-0.06,0.041v0.039h0.1l0.061-0.059v-0.021H89.403z M90.752,23.361
		H90.65v0.061c-0.066,0.201-0.101,0.35-0.101,0.443c0,0.188,0.048,0.303,0.142,0.342h0.08c0.054,0,0.08-0.195,0.08-0.584v-0.08
		C90.852,23.449,90.818,23.389,90.752,23.361z M90.59,12.68c0.055,0.094,0.201,0.141,0.443,0.141h0.141l0.101-0.102
		c-0.121-0.08-0.241-0.121-0.362-0.121h-0.16C90.645,12.598,90.59,12.625,90.59,12.68z M90.671,25.455h-0.04v0.059h0.04V25.455z
		 M90.832,17.447h-0.061c-0.107,0.563-0.114,0.932-0.02,1.107c0.066,0.119,0.113,0.08,0.141-0.121l0.02-0.664
		C90.898,17.555,90.872,17.447,90.832,17.447z M90.872,24.51h-0.101v0.1c0.241,0.041,1.449,0.113,3.621,0.221l0.04-0.02V24.77
		L90.872,24.51z M91.053,13.041l-0.1,0.041v0.02l0.039,0.08h0.142l0.12-0.039v-0.061l-0.12-0.041H91.053z M90.973,13.463
		l-0.02,0.041v0.281c0.013,0.174,0.047,0.262,0.1,0.262l0.121-0.08v-0.141C91.16,13.584,91.094,13.463,90.973,13.463z
		 M91.516,25.395l-0.442,0.02v0.041c0,0.092,0.315,0.154,0.945,0.18c0.416,0,0.758-0.039,1.026-0.121v-0.059
		c-0.563-0.041-1.066-0.061-1.509-0.061H91.516z M92.079,12.539l-0.08,0.059v0.041l0.141,0.041v0.02l-0.061,0.041l-0.402-0.021
		l-0.021,0.021v0.1l0.061,0.061h0.402c0.215,0,0.322-0.074,0.322-0.221c-0.094-0.094-0.194-0.141-0.302-0.141H92.079z M93.81,25.455
		l-0.121,0.039v0.082h0.121l0.241-0.063v-0.059H93.81z M95.721,24.248h-0.523v0.02c0.014,0.039,0.081,0.061,0.201,0.061h0.443
		v-0.061L95.721,24.248z M95.56,24.871l-0.04,0.041v0.039l0.182,0.041h0.281v-0.041c0-0.053-0.047-0.08-0.141-0.08H95.56z
		 M96.284,24.047h-0.201v0.059c0,0.041,0.087,0.068,0.261,0.08c0,0.109,0.121,0.168,0.363,0.182l0.382-0.039v-0.08
		C96.834,24.248,96.565,24.18,96.284,24.047z M96.425,25.133v0.02h0.06c0.135,0,0.27-0.055,0.403-0.16
		c-0.014-0.055-0.067-0.08-0.161-0.08C96.673,24.912,96.572,24.984,96.425,25.133z M97.008,25.213l-0.301,0.02v0.021
		c0.107,0.107,0.241,0.16,0.402,0.16h0.061c0.066,0,0.127-0.027,0.18-0.08c0.068,0.053,0.142,0.08,0.222,0.08h0.161
		c0.147,0,0.229-0.027,0.241-0.08v-0.02c0-0.068-0.208-0.102-0.624-0.102H97.008z M98.215,23.281h-0.039
		c-0.107,0.281-0.162,0.443-0.162,0.482l-0.16,0.846v0.08l0.061,0.061h0.06c0.175-0.08,0.275-0.463,0.302-1.146
		C98.262,23.389,98.242,23.281,98.215,23.281z"/>
	<path fill="#545454" d="M99.764,15.314h0.061c0.107,0.094,0.242,0.141,0.402,0.141l0.262-0.119c1.824,0,2.736,0.053,2.736,0.16
		l0.02,0.141v0.342c0.121,0.27,0.182,0.523,0.182,0.766v0.32c-0.161,2.188-0.268,3.957-0.322,5.311
		c-0.026,0.082-0.053,0.223-0.08,0.424c0.014,0.055,0.074,0.08,0.182,0.08h0.06c0.725,0,1.087,0.088,1.087,0.262l-0.021,0.041v0.121
		c0.161,0.32,0.241,0.83,0.241,1.527l0.08,0.805l-0.06,0.041l-0.886,0.039h-2.012c-1.502,0-2.253-0.119-2.253-0.361
		c0-0.146-0.04-0.295-0.12-0.441c0.04-0.096,0.107-0.168,0.201-0.223h0.061c0.053,0.055,0.113,0.08,0.18,0.08h0.041
		c0.389,0,0.852-0.033,1.389-0.1v-0.041c-1.154-0.08-1.73-0.174-1.73-0.281l-0.021-0.162v-0.219l-0.04-0.525
		c0-0.133,0.503-0.201,1.509-0.201c0.134,0,0.201-0.301,0.201-0.904l0.241-5.291h-0.04c-0.376,0-0.563-0.027-0.563-0.08
		c0-0.014,0.02-0.035,0.061-0.061c-0.805,0-1.207-0.094-1.207-0.281c-0.054-0.014-0.08-0.068-0.08-0.162l0.1-0.24
		c0-0.055-0.039-0.129-0.12-0.221c0.107-0.109,0.181-0.322,0.222-0.645L99.764,15.314z M100.006,23.904l-0.141,0.041v0.021
		c0.107,0.105,0.523,0.166,1.247,0.18h0.142c0.106,0,0.174-0.033,0.201-0.1v-0.041C100.891,23.939,100.408,23.904,100.006,23.904z
		 M100.086,15.717v0.08h0.101c0.349,0,0.523-0.027,0.523-0.08l-0.04-0.08h-0.061C100.26,15.637,100.086,15.664,100.086,15.717z
		 M100.529,16h-0.362v0.059c0,0.055,0.093,0.08,0.281,0.08h0.222h0.061h0.664c0.201,0,0.301-0.033,0.301-0.1v-0.021
		C101.695,15.951,101.307,15.945,100.529,16z M101.856,11.473l0.685-0.102c0.469,0,0.838,0.242,1.105,0.725l0.142,0.645
		c-0.026,0.254-0.175,0.59-0.442,1.006c-0.174,0.174-0.443,0.262-0.805,0.262c-0.846,0-1.368-0.129-1.569-0.383
		c-0.202-0.268-0.296-0.645-0.282-1.127c-0.053,0-0.08-0.014-0.08-0.039v-0.041C101.012,11.787,101.428,11.473,101.856,11.473z
		 M101.455,11.975v0.021c0.455-0.055,0.684-0.115,0.684-0.182l-0.102-0.041C101.648,11.842,101.455,11.908,101.455,11.975z
		 M101.615,19.057l-0.061,2.596c0.014,0.094,0.033,0.141,0.061,0.141c0.04,0,0.066-0.061,0.08-0.182l-0.02-0.301
		c0.066-0.066,0.141-0.336,0.221-0.805v-0.121l-0.04-0.283c0.081-0.066,0.121-0.113,0.121-0.139
		c-0.054-0.148-0.081-0.295-0.081-0.443v-0.041c0.055,0,0.121-0.75,0.201-2.252c-0.039-0.107-0.08-0.162-0.12-0.162
		C101.776,17.064,101.655,17.729,101.615,19.057z M102.238,24.67l-0.261,0.02h-0.282v0.08l0.282,0.021l0.583-0.041v-0.061h-0.08
		L102.238,24.67z M101.797,12.559h0.02l0.121,0.02h0.04c0.147,0,0.241-0.053,0.282-0.16l-0.021-0.041h-0.24
		C101.891,12.377,101.823,12.438,101.797,12.559z M101.896,24.146l0.081,0.102c0.12,0,0.181-0.068,0.181-0.201h-0.1
		C101.978,24.047,101.924,24.08,101.896,24.146z M102.158,22.758l-0.061,0.082v0.1h0.061l0.08-0.061v-0.061l-0.061-0.061H102.158z
		 M102.119,22.457v0.141h0.039c0.067-0.027,0.102-0.107,0.102-0.24v-0.143h-0.061C102.172,22.215,102.145,22.295,102.119,22.457z
		 M102.319,16.018L102.139,16v0.039c0.094,0,0.207,0.066,0.342,0.201h0.04c0.026,0,0.04-0.02,0.04-0.061h0.04
		c0.054,0,0.088,0.061,0.101,0.182h0.041l0.281-0.201v-0.121l-0.423-0.021H102.319z M102.238,17.146l0.102,0.301l-0.141,0.363
		c0.053,0.119,0.1,0.18,0.141,0.18h0.02l0.041-0.121v-0.121c0-0.482,0.073-0.723,0.221-0.723l0.061-0.08v-0.082l-0.061-0.061H102.5
		C102.326,16.803,102.238,16.918,102.238,17.146z M102.5,20.566h-0.1c-0.107,0.496-0.162,0.863-0.162,1.105h0.021
		c0.066,0,0.153-0.275,0.261-0.824v-0.141L102.5,20.566z M102.319,13.404l-0.06,0.059v0.041h0.361l0.061-0.041l-0.061-0.059H102.319
		z M102.601,17.287l-0.08,0.02v0.121c0,0.08,0.034,0.141,0.101,0.182h0.061l0.061-0.082v-0.1
		C102.715,17.361,102.668,17.313,102.601,17.287z M102.762,13.041v0.061h0.08c0.095,0,0.168-0.047,0.223-0.141V12.9h-0.041
		C102.93,12.9,102.842,12.947,102.762,13.041z M102.822,15.576l-0.061,0.061l0.08,0.061h0.041v-0.061L102.822,15.576z
		 M103.244,12.377l-0.06,0.102v0.08h0.021l0.06-0.08v-0.102H103.244z M103.848,24.086l-0.24,0.061
		c0.026,0.16,0.147,0.242,0.361,0.242h0.061v-0.061l-0.04-0.061c0-0.014,0.054-0.053,0.161-0.121v-0.1
		c0-0.094-0.027-0.148-0.081-0.162h-0.08C103.949,23.898,103.902,23.967,103.848,24.086z M103.768,23.24l-0.061,0.021
		c0.081,0.066,0.229,0.107,0.443,0.121v-0.061c0-0.055-0.088-0.082-0.262-0.082H103.768z M103.788,24.549l-0.06,0.08v0.041h0.039
		l0.061-0.08v-0.041H103.788z M104.291,25.354l-0.08,0.061v0.061h0.12l0.021-0.061l-0.021-0.061H104.291z"/>
	<path fill="#545454" d="M105.096,10.506l0.121-0.02h0.16c1.181,0.135,1.879,0.301,2.093,0.502c0.095,0,0.181,0.264,0.261,0.785
		l-0.1,0.182v0.061c0.147,0.174,0.248,1.02,0.301,2.535c0,2.668,0.074,4.393,0.222,5.17h0.081c0.725-0.59,1.844-1.402,3.359-2.434
		c0.121,0,0.221-0.598,0.303-1.791c0-0.281,0.134-0.424,0.401-0.424l0.805-0.059c1.208,0,1.932,0.127,2.173,0.381v0.041
		l-0.061,0.061c-0.241-0.094-0.429-0.141-0.563-0.141l-0.061,0.08v0.02c0,0.08,0.194,0.141,0.584,0.182
		c0.107,0,0.16,0.314,0.16,0.945c0,0.256-0.101,0.383-0.302,0.383c-0.054,0-0.154,0.094-0.302,0.281l-0.061,0.02l-0.402-0.02h-0.08
		c0,0.148-0.154,0.295-0.463,0.443c-0.054,0-0.08,0.033-0.08,0.1l0.08,0.141l-1.932,1.328l-0.02,0.061
		c0.014,0.08,0.678,1.441,1.991,4.084c0.188,0.389,0.309,0.697,0.362,0.926h-0.121l-0.12-0.121h-0.061
		c0,0.16,0.255,0.242,0.765,0.242c0.898,0,1.348,0.08,1.348,0.24l-0.16,0.201c0.174,0.295,0.261,0.73,0.261,1.309
		c0,0.188-0.094,0.281-0.282,0.281l-0.181,0.02c-0.321-0.053-1.106-0.08-2.354-0.08h-0.121c-0.161,0-0.282-0.209-0.362-0.623
		c-0.08-0.699-0.214-1.334-0.402-1.912c-0.308-0.697-0.758-1.629-1.348-2.797c-0.229-0.67-0.402-1.004-0.523-1.004
		c-0.228,0.025-0.59,0.232-1.086,0.623c-0.174,0.146-0.302,0.221-0.382,0.221c-0.081-0.027-0.121-0.053-0.121-0.08v-0.02
		l0.061-0.102v-0.02h-0.121c-0.081,0-0.167,0.18-0.261,0.543l0.02,0.121c-0.107,0.066-0.161,0.18-0.161,0.342l0.04,2.152
		c0,0.174,0.289,0.287,0.865,0.342c0.094,0.08,0.303,0.174,0.624,0.281l0.08,0.201l-0.02,0.303v0.221l0.06,0.281v0.041
		c-0.053,0.107-0.154,0.193-0.301,0.262l-0.021-0.02h-0.12v0.08c0,0.094,0.094,0.174,0.281,0.24v0.041
		c0,0.039-0.081,0.072-0.242,0.1l-0.945-0.24c-1.301-0.068-2.146-0.141-2.535-0.221l-0.281,0.059
		c-0.174-0.08-0.262-0.295-0.262-0.643v-0.121l-0.02-0.021c0-0.227,0.1-0.414,0.302-0.563h0.08v0.303l0.081,0.08h0.262l-0.082-0.102
		v-0.059l0.162-0.021h0.201l-0.242-0.24l0.282-0.061v-0.061c-0.014-0.041-0.081-0.061-0.201-0.061h-0.081l-0.422,0.061v-0.041
		c0-0.094,0.301-0.188,0.905-0.281c0.147-0.039,0.376-0.08,0.684-0.121l0.061-0.08v-0.02c0-0.027-0.094-0.041-0.281-0.041
		c-0.107,0-0.161-0.576-0.161-1.73c-0.08-1.395-0.208-2.354-0.383-2.877c-0.08-3.34-0.188-5.33-0.321-5.975
		c0-0.041-0.235-0.08-0.704-0.121l-0.584,0.141c-0.146-0.146-0.228-0.268-0.241-0.361l-0.04-1.248l-0.02-0.08
		c0.025-0.201,0.053-0.303,0.08-0.303l0.221,0.041v-0.041c0-0.053-0.053-0.152-0.16-0.301v-0.102c0.107,0,0.16-0.02,0.16-0.059
		l-0.08-0.141V10.506z M105.699,11.975v0.041c0,0.053,0.101,0.1,0.302,0.141v0.041c-0.255,0.012-0.382,0.053-0.382,0.119v0.082
		l0.061,0.061h0.201c0.201,0,0.348-0.121,0.441-0.363l0.081-0.08c0-0.082-0.161-0.121-0.482-0.121h-0.081
		C105.746,11.908,105.699,11.934,105.699,11.975z M106.203,25.133v0.02l0.02,0.041v0.02l0.945,0.02h0.121
		c0.429,0,0.643-0.033,0.643-0.1v-0.041c0-0.027-0.146-0.047-0.441-0.061C106.738,25.059,106.31,25.092,106.203,25.133z
		 M106.846,25.455l-0.061,0.039l2.174,0.303v-0.061c0-0.189-0.41-0.281-1.229-0.281H106.846z M106.967,11.652v0.041
		c0.054,0.135,0.134,0.201,0.241,0.201c0.094-0.107,0.141-0.227,0.141-0.361l-0.08-0.021
		C107.121,11.512,107.021,11.559,106.967,11.652z M107.289,13.746l-0.041,0.08v0.402c0,0.322,0.034,0.482,0.101,0.482h0.021
		l0.061-0.061v-0.281C107.416,13.953,107.369,13.746,107.289,13.746z M107.289,16.662h-0.041v0.102l0.041,0.039l0.08-0.08
		L107.289,16.662z M107.711,24.891h-0.04v0.061h0.081L107.711,24.891z M107.791,20.021l-0.061,0.102v0.02h0.061l0.041-0.059v-0.063
		H107.791z M107.73,21.832v0.283l0.061,0.039c0.107,0,0.162-0.066,0.162-0.201v-0.322l-0.041-0.039h-0.061
		C107.771,21.605,107.73,21.686,107.73,21.832z M107.752,21.049v0.182l0.039,0.039h0.061c0.067-0.025,0.102-0.1,0.102-0.221v-0.041
		c0-0.146-0.027-0.295-0.081-0.441h-0.021C107.785,20.566,107.752,20.727,107.752,21.049z M107.752,23.805l0.1,0.1h0.021
		c0.067-0.025,0.101-0.08,0.101-0.16c0-0.094-0.02-0.141-0.061-0.141C107.805,23.67,107.752,23.736,107.752,23.805z M107.953,22.598
		h-0.081l-0.021,0.121v0.201h0.021c0.054-0.014,0.081-0.08,0.081-0.201V22.598z M108.335,20.002v0.061h0.08
		c0.175,0,0.321-0.08,0.442-0.242v-0.059C108.67,19.762,108.496,19.842,108.335,20.002z M108.375,24.891l-0.04,0.061h0.101
		L108.375,24.891z M108.557,25.293l-0.061,0.041v0.061l0.301,0.02h0.121v-0.02C108.918,25.328,108.797,25.293,108.557,25.293z
		 M109.019,24.891c0.095,0.174,0.235,0.262,0.423,0.262h0.02l0.061-0.061c-0.053-0.16-0.121-0.268-0.201-0.322h-0.08
		C109.133,24.77,109.059,24.811,109.019,24.891z M109.16,20.465v0.041h0.04c0.269-0.107,0.503-0.256,0.704-0.443v-0.041
		C109.408,20.236,109.16,20.385,109.16,20.465z M109.24,25.715l-0.08,0.021v0.041l0.04,0.059h0.161l0.039-0.059
		C109.388,25.736,109.334,25.715,109.24,25.715z M109.764,24.65h-0.061v0.039l0.08,0.061h0.021v-0.061L109.764,24.65z
		 M110.77,19.963c0.094,0.254,0.193,0.381,0.301,0.381h0.021v-0.02c-0.014-0.295-0.102-0.443-0.262-0.443
		C110.789,19.881,110.77,19.908,110.77,19.963z M111.533,21.029h-0.06v0.02c0.134,0.51,0.375,1.072,0.724,1.689h0.101v-0.061
		C112.298,22.396,112.043,21.846,111.533,21.029z M111.795,18.533v0.061h0.041c0.496-0.135,1.126-0.523,1.891-1.166l0.04-0.082
		h-0.04C113.057,17.588,112.412,17.984,111.795,18.533z M111.836,17.648v0.02h0.02c0.054,0,0.262-0.121,0.623-0.361
		c0.135-0.014,0.201-0.055,0.201-0.121v-0.08h-0.12C112.398,17.105,112.157,17.287,111.836,17.648z M112.037,16.723l0.08,0.08h0.02
		c0.107,0,0.168-0.025,0.182-0.08v-0.061h-0.081C112.131,16.662,112.063,16.682,112.037,16.723z M112.117,16.281
		c0.014,0.174,0.04,0.262,0.08,0.262h0.141c0.041,0,0.061-0.027,0.061-0.082l-0.101-0.24l0.101-0.363v-0.061h-0.04
		C112.197,15.879,112.117,16.039,112.117,16.281z M112.398,22.959h-0.04V23c0.107,0.336,0.222,0.543,0.343,0.623h0.08
		c0-0.107-0.121-0.328-0.362-0.664H112.398z M112.6,15.113l-0.121,0.021v0.059l0.021,0.061h0.101l0.041-0.061v-0.039L112.6,15.113z
		 M112.6,21.752h-0.061v0.041l0.081,0.08h0.021v-0.08L112.6,21.752z M113.184,24.287v0.041l0.061,0.08h0.16l0.08-0.08
		c-0.039-0.08-0.1-0.121-0.18-0.121C113.224,24.221,113.184,24.248,113.184,24.287z M113.948,16.441
		c0,0.041,0.214,0.074,0.644,0.102c0.147-0.027,0.221-0.061,0.221-0.102v-0.08h-0.141h-0.402
		C114.055,16.361,113.948,16.387,113.948,16.441z M114.229,26.139v0.02h0.081l0.422,0.041l0.482-0.041h0.061l0.061-0.039v-0.021
		l-0.121-0.02h-0.784C114.297,26.078,114.229,26.098,114.229,26.139z M114.391,25.092l-0.061,0.061l0.101,0.08h0.081l0.08-0.08
		l-0.061-0.061H114.391z M114.934,25.193h-0.201v0.02l0.101,0.061h0.101V25.193z M115.658,24.85h-0.061v0.102l0.061,0.041h0.061
		v-0.102L115.658,24.85z M115.658,25.494v0.342h0.02c0.055,0,0.08-0.141,0.08-0.422v-0.141
		C115.691,25.301,115.658,25.375,115.658,25.494z"/>
	<path fill="#545454" d="M121.452,15.576c0.563,0,1.247,0.242,2.052,0.725c0.684,0.51,1.026,0.857,1.026,1.045
		c0.536,1.129,0.805,1.805,0.805,2.033l0.021,0.16c-0.202,0.471-0.303,0.793-0.303,0.967l-0.121,0.02h-1.709
		c-0.161,0-0.355,0.02-0.584,0.061c-1.932-0.16-3.286-0.242-4.063-0.242h-0.423c-0.161,0.242-0.241,0.416-0.241,0.523
		c0.095,0.146,0.141,0.383,0.141,0.705c0,0.508,0.081,0.811,0.241,0.904l0.021,0.102v0.02l-0.12-0.061v0.061l0.18,0.201
		c0,0.174,0.121,0.395,0.363,0.664c0.441,0.777,0.925,1.26,1.448,1.449c0.442,0.146,0.945,0.221,1.509,0.221
		c0.094,0,0.289-0.088,0.584-0.262c0.24-0.055,0.751-0.49,1.528-1.309v-0.059c0-0.027-0.094-0.055-0.281-0.082l-0.04-0.1
		c0.308-0.59,0.677-0.98,1.105-1.168c0.121,0.121,0.369,0.309,0.745,0.564c0.295,0.455,0.69,0.992,1.187,1.609v0.08
		c-0.43,0.563-0.737,0.846-0.926,0.846h-0.08c0-0.295-0.181-0.463-0.543-0.504c-0.067,0-0.362,0.221-0.885,0.664
		c-0.309,0.242-0.839,0.469-1.59,0.684c-0.872,0.176-1.488,0.262-1.852,0.262l-1.146-0.402c-0.644,0-1.233-0.348-1.77-1.045
		c-0.229-0.242-0.416-0.531-0.563-0.865c0-0.107-0.147-0.664-0.442-1.672c-0.095-0.387-0.141-0.764-0.141-1.125v-0.02
		c0-1.785,0.535-3.348,1.609-4.688c0.134-0.336,0.441-0.584,0.926-0.746c0.321-0.094,0.71-0.166,1.166-0.221
		C120.406,15.521,120.795,15.521,121.452,15.576z M116.926,20.707v0.059v0.021c-0.014,0.041-0.021,0.135-0.021,0.281v0.08
		c0,0.242,0.067,0.457,0.201,0.645h0.021C117.127,21.148,117.06,20.787,116.926,20.707z M117.207,18.875
		c-0.107,0.107-0.201,0.377-0.281,0.805h0.04c0.08,0,0.201-0.234,0.362-0.703C117.301,18.908,117.26,18.875,117.207,18.875z
		 M117.025,19.941h-0.1v0.121c0,0.08,0.02,0.121,0.06,0.121c0.067,0,0.108-0.066,0.121-0.201L117.025,19.941z M117.287,22.457
		h-0.061v0.039l0.061,0.041h0.041v-0.041L117.287,22.457z M117.428,22.799l-0.02,0.02v0.041c0.054,0.215,0.134,0.322,0.241,0.322
		V23.16v-0.039C117.649,23.014,117.576,22.906,117.428,22.799z M118.012,20.143v0.021h0.021l0.341-0.041v-0.039l-0.06-0.082h-0.06
		C118.133,20.002,118.052,20.049,118.012,20.143z M118.072,17.648l-0.04,0.061v0.02h0.04l0.08-0.061v-0.02H118.072z M118.032,18.996
		v0.08l0.04,0.041h0.04c0.094-0.041,0.175-0.113,0.241-0.221v-0.061h-0.1C118.173,18.836,118.099,18.889,118.032,18.996z
		 M118.232,18.475v0.059c0,0.148,1.221,0.316,3.662,0.504l0.201,0.061l0.262-0.021c0.537,0.176,0.898,0.262,1.086,0.262
		c0,0.041,0.041,0.074,0.121,0.102c0.08-0.121,0.121-0.234,0.121-0.342v-0.383c0-0.174-0.336-0.563-1.006-1.168
		c-0.309-0.307-0.658-0.482-1.047-0.521l-0.684-0.121c-1.113,0.227-1.845,0.504-2.193,0.824
		C118.608,18.01,118.434,18.258,118.232,18.475z M118.254,18.172c0.08-0.014,0.119-0.066,0.119-0.162v-0.02
		C118.293,18.018,118.254,18.078,118.254,18.172z M118.373,25.051h-0.06v0.082c0.026,0.066,0.142,0.141,0.342,0.221l0.081,0.061
		C118.588,25.186,118.468,25.064,118.373,25.051z M118.455,17.266v0.041h0.039c0.175-0.041,0.262-0.088,0.262-0.141v-0.02h-0.101
		C118.588,17.146,118.521,17.186,118.455,17.266z M118.655,19.982l-0.101,0.02v0.121h0.101v-0.08v-0.041V19.982z M118.797,16.34
		v0.021l0.06,0.039h0.021c0.268-0.066,0.402-0.135,0.402-0.201V16.08l-0.08-0.08h-0.041C118.917,16.08,118.797,16.193,118.797,16.34
		z M119.059,19.801v0.041c0.268,0.066,0.979,0.133,2.132,0.201v0.02v0.021l-0.423,0.059c0,0.041,0.175,0.061,0.523,0.061
		c0.563,0,0.845-0.027,0.845-0.08C122.136,19.988,121.109,19.881,119.059,19.801z M119.26,19.117v0.061
		c0.254,0.174,0.717,0.262,1.387,0.262h0.182l0.262-0.02v-0.082C120.539,19.219,119.93,19.145,119.26,19.117z M119.299,17.146
		c0.135-0.107,0.402-0.223,0.805-0.344v-0.039l-0.02-0.041h-0.201C119.494,16.83,119.299,16.971,119.299,17.146z M119.601,16v0.018
		h0.041c0.214,0,0.616-0.072,1.206-0.221c0.121-0.012,0.182-0.045,0.182-0.1l-0.061-0.061h-0.02c-0.389,0-0.825,0.107-1.308,0.322
		L119.601,16z M119.782,25.133h-0.021v0.02c0,0.055,0.141,0.113,0.423,0.182l0.021-0.02v-0.041
		C120.03,25.18,119.89,25.133,119.782,25.133z M120.466,16.441v0.02c0,0.055,0.275,0.121,0.825,0.201l0.04-0.02v-0.08
		c-0.106-0.148-0.288-0.223-0.543-0.223h-0.06C120.554,16.354,120.466,16.387,120.466,16.441z M120.969,25.354h-0.061v0.061h0.061
		V25.354z M121.652,25.857l-0.422-0.041h-0.08c-0.121,0-0.188,0.027-0.201,0.08v0.041l0.08,0.061h0.362
		c0.416,0,0.905-0.074,1.469-0.221c-0.026-0.082-0.107-0.121-0.241-0.121h-0.102C122.196,25.656,121.908,25.723,121.652,25.857z
		 M121.895,16.139h-0.604v0.041c0,0.053,0.275,0.094,0.825,0.121h0.02v-0.08C122.136,16.193,122.056,16.166,121.895,16.139z
		 M121.693,16.563v0.02c0.764,0.443,1.174,0.664,1.228,0.664h0.02l0.202-0.08l0.119,0.039l0.021-0.039v-0.02
		c-0.055-0.041-0.168-0.082-0.343-0.121l-0.401-0.182c-0.108-0.229-0.322-0.342-0.645-0.342h-0.061
		C121.74,16.516,121.693,16.535,121.693,16.563z M122.94,19.641h-0.06v0.061h0.06V19.641z M122.9,20.184
		c0,0.053,0.121,0.08,0.361,0.08l0.182-0.02v-0.041c0-0.053-0.127-0.08-0.382-0.08C122.954,20.15,122.9,20.17,122.9,20.184z
		 M122.9,24.77h0.04c0.107-0.039,0.168-0.105,0.181-0.201l-0.02-0.02C122.968,24.629,122.9,24.703,122.9,24.77z M123.062,25.656
		c0.134,0,0.241-0.102,0.321-0.303h-0.061C123.148,25.447,123.062,25.547,123.062,25.656z M123.262,17.547
		c0.027,0.109,0.088,0.162,0.182,0.162h0.041l0.04-0.061v-0.121l-0.081-0.1C123.322,17.428,123.262,17.467,123.262,17.547z
		 M123.524,24.146l0.04,0.021h0.02c0.148,0,0.242-0.088,0.282-0.264v-0.039C123.719,23.865,123.604,23.959,123.524,24.146z
		 M123.766,17.811h-0.08c0.146,0.441,0.254,0.682,0.322,0.723h0.08l0.061-0.041c-0.107-0.428-0.223-0.643-0.343-0.643
		L123.766,17.811z M123.986,22.98l0.041,0.059h0.1c0.081,0,0.129-0.025,0.142-0.08l-0.081-0.08h-0.02
		C124.074,22.879,124.014,22.912,123.986,22.98z M124.088,24.871h0.08c0.134-0.121,0.201-0.207,0.201-0.262h-0.021
		C124.175,24.664,124.088,24.75,124.088,24.871z M124.449,18.715l-0.06,0.041v0.141l0.06,0.08c0.055-0.014,0.081-0.061,0.081-0.141
		v-0.08l-0.021-0.041H124.449z M124.47,24.328l0.061,0.039c0.2-0.066,0.302-0.152,0.302-0.262v-0.039h-0.02
		C124.623,24.066,124.51,24.152,124.47,24.328z M124.932,24.105l0.021,0.021h0.06c0.081-0.055,0.121-0.127,0.121-0.223h-0.061
		C124.979,23.959,124.932,24.025,124.932,24.105z M125.637,23.904h-0.02v0.041c0.039,0.16,0.1,0.24,0.18,0.24h0.021l0.04-0.039
		v-0.02C125.831,23.979,125.758,23.904,125.637,23.904z"/>
	<path fill="#545454" d="M139.357,12.297c0.791,0.107,1.187,0.254,1.187,0.443l0.966,2.877l0.644,2.293
		c0.296,1.367,0.678,2.844,1.147,4.426c0.026-0.014,0.053-0.02,0.08-0.02v0.201h-0.02c0.013,0.041,0.029,0.088,0.05,0.141
		s0.03,0.094,0.03,0.121l0.382,0.824l0.101,0.502l-0.04,0.223c0.147,0.107,0.315,0.168,0.503,0.182h0.402h0.021
		c0.147,0.025,0.234,0.059,0.261,0.1l-0.12,0.24l0.021,0.344c0,0.146-0.067,0.287-0.201,0.422h-0.081
		c-0.106-0.107-0.194-0.16-0.261-0.16h-0.041c-0.134,0-0.208,0.039-0.221,0.121c0,0.039,0.121,0.066,0.361,0.08v0.059
		c0,0.055-0.08,0.088-0.24,0.102l-0.263-0.08h-0.201l-1.247,0.121c-0.281,0-0.631-0.168-1.046-0.504l0.161-0.16v-0.08l-0.201-0.424
		c0-0.16,0.248-0.24,0.744-0.24l0.02-0.041v-0.08c0-0.604-0.274-1.281-0.824-2.033h-0.021c-1.396,0.107-3.024,0.248-4.889,0.424
		h-0.442c-0.054,0.053-0.234,0.59-0.543,1.609c0.053,0.053,0.127,0.08,0.221,0.08h0.402c0.47,0,0.872,0.188,1.207,0.563v0.021
		c0,0.094-0.174,0.273-0.523,0.543c0,0.146-1.019,0.221-3.057,0.221c-0.336-0.014-0.504-0.053-0.504-0.121l0.081-0.26v-0.021
		c0-0.053-0.054-0.174-0.161-0.361c0-0.08,0.121-0.182,0.361-0.303l0.021-0.061v-0.301c0-0.121,0.066-0.182,0.201-0.182l0.08,0.08
		l-0.08,0.242l0.02,0.02h0.02c0.161-0.229,0.242-0.389,0.242-0.482v-0.08c0-0.08-0.021-0.121-0.061-0.121
		c0.135-0.242,0.241-0.564,0.322-0.965l1.045-2.898l0.383-0.945c0-0.121,0.121-0.322,0.363-0.604v-0.039l-0.061-0.201
		c0.146-0.109,0.221-0.195,0.221-0.262l-0.061-0.061c0-0.135,0.08-0.275,0.241-0.422l-0.02-0.143l0.925-2.715
		c0.229-0.402,0.437-0.887,0.624-1.449c0.04,0,0.141-0.127,0.302-0.383C138.842,12.451,139.196,12.311,139.357,12.297z
		 M134.469,24.328l-0.08,0.02v0.061l0.06,0.061h0.021l0.04-0.061L134.469,24.328z M134.609,23.02l-0.141,0.121v0.061
		c0.107,0,0.168-0.047,0.181-0.141L134.609,23.02z M135.395,22.879h-0.041L135.334,23l0.02,0.102h0.041l0.061-0.063v-0.141
		L135.395,22.879z M136.46,21.25v0.1l0.061,0.041c1.757-0.281,3.139-0.424,4.145-0.424h0.825l0.06-0.08v-0.02
		c-0.067-0.482-0.188-0.725-0.362-0.725l-1.267-3.822c-0.147-0.551-0.296-0.992-0.442-1.328c-0.067-0.16-0.148-0.273-0.242-0.342
		c0,0.135-0.006,0.275-0.02,0.422c-0.939,1.879-1.617,3.152-2.032,3.824C136.97,19.311,136.729,20.096,136.46,21.25z
		 M136.661,18.412h-0.02v0.063h0.02V18.412z M136.863,18.191l-0.061-0.402l-0.021,0.121v0.061h0.021
		c0.039,0.229,0.061,0.314,0.061,0.262V18.191z M138.492,21.693h-0.061v0.059h0.061V21.693z M139.156,14.27h0.02
		c0.121,0,0.182-0.055,0.182-0.162v-0.08h-0.061C139.203,14.08,139.156,14.16,139.156,14.27z M139.236,13.283h-0.02v0.041
		l0.04,0.059h0.04v-0.059L139.236,13.283z M139.76,12.598h-0.101v0.102l0.06,0.061h0.162l0.04-0.041v-0.02
		C139.895,12.633,139.84,12.598,139.76,12.598z M140.001,21.289l-0.04,0.082l0.04,0.039h0.101c0.121,0,0.188-0.027,0.201-0.08
		v-0.041H140.001z M141.248,20.627l0.081-0.102l0.02,0.02v0.162l-0.06,0.059L141.248,20.627z M142.415,25.736v0.041h0.081
		c0.08,0,0.127-0.027,0.141-0.082l-0.041-0.061C142.503,25.635,142.442,25.668,142.415,25.736z M143.16,22.98h-0.584v0.08
		l0.584-0.041V22.98z M143.521,24.127h-0.02v0.141l0.061,0.061h0.02v-0.143L143.521,24.127z M144.105,25.113v0.039h0.02
		c0.269,0,0.402-0.039,0.402-0.121l-0.1-0.08C144.32,24.951,144.213,25.006,144.105,25.113z"/>
	<path fill="#545454" d="M156.016,11.834l1.328,0.262c0.227,0,0.616,0.195,1.166,0.584h0.08c0.014-0.523,0.061-0.785,0.141-0.785
		c0.403,0.148,0.645,0.221,0.725,0.221h0.402l0.322-0.02l0.041,0.061l-0.021,0.121v2.574c0,0.148-0.047,0.27-0.141,0.363
		c0.107,0.105,0.162,0.207,0.162,0.301s-0.041,0.207-0.121,0.342l0.061,0.342c0,0.162-0.041,0.242-0.121,0.242l-0.523-0.08h-0.02
		l-0.282,0.08h-0.04c-0.053,0-0.141-0.289-0.262-0.865c0-0.188-0.08-0.355-0.241-0.504c-0.175-0.254-0.262-0.428-0.262-0.521
		l0.121-0.041v-0.02c-0.201-0.162-0.322-0.342-0.362-0.543c-0.55-0.551-1.02-0.826-1.408-0.826h-0.141
		c-0.148,0-0.818,0.141-2.012,0.422c-0.107,0.082-0.282,0.336-0.523,0.766c-0.255,0.336-0.383,0.658-0.383,0.965
		c0.081,0.859,0.188,1.289,0.322,1.289c0.175,0.455,0.383,0.73,0.623,0.824c0.041,0.066,0.201,0.135,0.483,0.201
		c0.188,0.174,0.583,0.389,1.187,0.645c0,0.053,0.068,0.086,0.201,0.1l0.242-0.08c0.107,0.027,0.161,0.055,0.161,0.08v0.021
		l-0.081,0.08v0.059c0.188,0.23,0.416,0.344,0.685,0.344v-0.021l-0.382-0.322v-0.018c0.119,0,0.549,0.232,1.287,0.703
		c1.113,1.033,1.67,1.689,1.67,1.971c0.188,0.818,0.281,1.328,0.281,1.529c-0.121,1.02-0.234,1.529-0.342,1.529l-0.482,0.844
		c-0.926,0.564-1.469,0.846-1.631,0.846c-1.541-0.334-2.568-0.604-3.078-0.805c-1.045-0.979-1.568-1.555-1.568-1.73l-0.08-0.059
		l-0.041,0.02v0.1v1.127c0,0.094-0.241,0.141-0.725,0.141h-0.361l-0.303,0.102c-0.094,0-0.214-0.074-0.361-0.223v-0.02l0.101-0.16
		c0.094-2.254,0.208-3.381,0.342-3.381h0.04l0.363,0.061c0.066,0,0.133-0.02,0.201-0.061l0.261,0.061l0.141-0.039h0.081
		c0.053,0.025,0.174,0.221,0.361,0.582c0.51,0.645,0.966,1.262,1.369,1.852c0.053,0,0.221,0.182,0.502,0.543l1.248,0.543h0.361v0.08
		h0.041l0.101-0.061h0.04c0.107,0.082,0.208,0.121,0.301,0.121h0.121c0.363-0.014,0.543-0.061,0.543-0.141V24.51h-0.401
		l-0.241-0.021c0.013-0.053,0.489-0.154,1.428-0.303c0.215,0,0.423-0.375,0.624-1.125c0-0.242,0.06-0.416,0.181-0.523v-0.08
		c-0.229-0.711-0.482-1.174-0.764-1.389c-0.162-0.281-0.771-0.609-1.831-0.984c-0.698-0.27-1.261-0.584-1.69-0.947
		c-0.631-0.188-0.992-0.396-1.086-0.623c-0.08-0.174-0.389-0.463-0.926-0.865c-0.241-0.736-0.503-1.309-0.785-1.711
		c-0.146-0.59-0.221-1.213-0.221-1.869c0.107-0.443,0.59-1.055,1.448-1.832C154.158,11.969,154.942,11.834,156.016,11.834z
		 M152.072,22.295h-0.081c-0.067,0.201-0.101,0.457-0.101,0.766l0.041,0.262h0.02c0.121,0,0.182-0.055,0.182-0.162
		C152.092,22.854,152.072,22.564,152.072,22.295z M151.951,23.824l0.04,0.041h0.021c0.04,0,0.074-0.135,0.101-0.402l-0.04-0.041
		C152.019,23.422,151.979,23.557,151.951,23.824z M152.494,22.879c-0.066,0.229-0.141,0.377-0.221,0.443l0.08,0.221v0.523v0.119
		c0,0.096,0.027,0.143,0.08,0.143h0.121l0.061-0.061v-0.082C152.615,23.314,152.575,22.879,152.494,22.879z M152.756,13.746
		l-0.061,0.061v0.02h0.102v-0.08H152.756z M153.219,16.945v0.139l0.08,0.082h0.161v-0.082
		C153.367,16.992,153.285,16.945,153.219,16.945z M153.299,14.691v0.02h0.041c0.241-0.229,0.361-0.43,0.361-0.604l-0.06-0.061
		C153.48,14.047,153.367,14.262,153.299,14.691z M153.601,17.488h-0.02v0.1c0.282,0.201,0.47,0.303,0.563,0.303h0.08v-0.08
		C154.037,17.676,153.829,17.568,153.601,17.488z M153.601,23.383h-0.02v0.039c0.054,0.215,0.153,0.322,0.302,0.322v-0.041
		C153.789,23.488,153.695,23.383,153.601,23.383z M153.642,13.906l0.12,0.121h0.041c0.16-0.027,0.309-0.115,0.441-0.262l-0.06-0.039
		h-0.222C153.816,13.727,153.708,13.785,153.642,13.906z M153.661,12.539h0.241c0.107,0,0.604-0.115,1.489-0.342
		c0.321-0.055,0.483-0.107,0.483-0.162l-0.081-0.02C154.372,12.135,153.661,12.311,153.661,12.539z M153.762,13.021v0.02
		c0,0.041,0.027,0.061,0.08,0.061c0.068-0.027,0.115-0.072,0.141-0.141V12.92C153.863,12.92,153.789,12.955,153.762,13.021z
		 M154.265,13.283h0.04c0.135,0,0.45-0.121,0.946-0.363l0.543-0.201v0.021l-0.061,0.121h0.161l0.121-0.041v-0.08l-0.041-0.061
		v-0.121h-0.04c-0.536,0.16-0.979,0.328-1.327,0.504C154.379,13.102,154.265,13.176,154.265,13.283z M154.305,23.563h-0.04v0.021
		c0.107,0.201,0.216,0.301,0.322,0.301v-0.061C154.48,23.703,154.386,23.617,154.305,23.563z M154.526,24.408l-0.141-0.02v0.02
		c0.134,0.295,0.47,0.523,1.006,0.684c0.442,0.162,1.065,0.328,1.87,0.504c0.162,0.107,0.303,0.166,0.424,0.182h0.181
		c0.335-0.096,0.503-0.215,0.503-0.363l-1.811-0.141C155.499,24.938,154.821,24.65,154.526,24.408z M155.492,24.367v0.021
		c0.027,0.066,0.074,0.1,0.141,0.1C155.606,24.408,155.56,24.367,155.492,24.367z M156.116,18.172h-0.182
		c0.014,0.053,0.067,0.08,0.161,0.08h0.08v-0.02L156.116,18.172z M156.316,18.475l-0.06,0.039c0.054,0.08,0.274,0.209,0.664,0.383
		v-0.082C156.732,18.641,156.531,18.527,156.316,18.475z M156.779,19.68h-0.1v0.102c0.174,0.08,0.389,0.127,0.643,0.141
		c0,0.053,0.047,0.08,0.142,0.08h0.161v-0.02C157.625,19.861,157.344,19.762,156.779,19.68z M157.665,12.719h-0.343
		c0,0.027,0.202,0.094,0.604,0.201h0.102l0.04-0.02v-0.039C158.027,12.766,157.893,12.719,157.665,12.719z M157.464,25.494v-0.08
		h0.04c0.094,0,0.141,0.027,0.141,0.08h-0.061H157.464z M158.127,20.223h-0.06v0.061l0.06,0.061h0.041v-0.061L158.127,20.223z
		 M158.067,24.992v0.039l0.06,0.041h0.102c0.482,0,0.751-0.066,0.805-0.201l-0.08-0.041h-0.121
		C158.684,24.83,158.43,24.885,158.067,24.992z M158.329,13.121l0.101,0.102h0.101l0.06-0.061v-0.061c0-0.039-0.053-0.08-0.16-0.121
		C158.362,13.008,158.329,13.055,158.329,13.121z M158.973,12.277l-0.02,0.08v0.061c0,0.08,0.053,0.121,0.16,0.121h0.342v-0.021
		C159.321,12.357,159.16,12.277,158.973,12.277z M159.053,12.74l-0.04,0.08v0.041l0.021,0.119h0.061l0.061-0.061v-0.1l-0.061-0.08
		H159.053z M159.335,14.35l-0.081,0.059v0.021l0.081,0.08h0.08l0.081-0.08v-0.021l-0.081-0.059H159.335z M159.314,15.436v0.322
		l0.041,0.039h0.02c0.107,0,0.168-0.045,0.182-0.141c-0.068-0.16-0.102-0.295-0.102-0.402h-0.04
		C159.348,15.281,159.314,15.342,159.314,15.436z M159.355,13.404l0.06,0.039v0.02l-0.08,0.102v0.061
		c0,0.027,0.054,0.061,0.161,0.102c0.026,0.105,0.066,0.166,0.121,0.18h0.06v-0.08l-0.021-0.061v-0.08h0.061l0.102,0.08h0.039
		l0.021-0.121v-0.039c-0.094-0.377-0.161-0.564-0.201-0.564h-0.12C159.422,13.096,159.355,13.215,159.355,13.404z M159.375,14.893
		h-0.04v0.039l0.04,0.061h0.08v-0.061L159.375,14.893z M159.415,16.08l-0.06,0.059l0.1,0.061h0.061l0.02-0.061l-0.08-0.059H159.415z
		 M159.516,23.904l-0.101,0.102l0.081,0.08h0.1l0.081-0.08v-0.039l-0.06-0.063H159.516z M159.656,14.248l-0.061,0.061h0.061V14.248z
		 M159.797,14.551l-0.08,0.061v0.141l0.02,0.141h0.061l0.061-0.342H159.797z M159.857,14.107h-0.1v0.041
		c0.039,0.08,0.08,0.121,0.12,0.121v-0.082L159.857,14.107z"/>
	<path fill="#545454" d="M161.588,15.314h0.061c0.107,0.094,0.241,0.141,0.402,0.141l0.262-0.119c1.824,0,2.736,0.053,2.736,0.16
		l0.02,0.141v0.342c0.121,0.27,0.182,0.523,0.182,0.766v0.32c-0.161,2.188-0.27,3.957-0.322,5.311
		c-0.027,0.082-0.054,0.223-0.08,0.424c0.014,0.055,0.073,0.08,0.181,0.08h0.061c0.724,0,1.087,0.088,1.087,0.262l-0.021,0.041
		v0.121c0.162,0.32,0.242,0.83,0.242,1.527l0.08,0.805l-0.061,0.041l-0.885,0.039h-2.012c-1.502,0-2.254-0.119-2.254-0.361
		c0-0.146-0.039-0.295-0.12-0.441c0.04-0.096,0.107-0.168,0.201-0.223h0.06c0.055,0.055,0.115,0.08,0.182,0.08h0.04
		c0.39,0,0.853-0.033,1.388-0.1v-0.041c-1.152-0.08-1.729-0.174-1.729-0.281l-0.021-0.162v-0.219l-0.039-0.525
		c0-0.133,0.502-0.201,1.508-0.201c0.135,0,0.201-0.301,0.201-0.904l0.242-5.291h-0.041c-0.375,0-0.563-0.027-0.563-0.08
		c0-0.014,0.02-0.035,0.061-0.061c-0.805,0-1.207-0.094-1.207-0.281c-0.055-0.014-0.081-0.068-0.081-0.162l0.101-0.24
		c0-0.055-0.041-0.129-0.121-0.221c0.107-0.109,0.182-0.322,0.222-0.645L161.588,15.314z M161.83,23.904l-0.142,0.041v0.021
		c0.107,0.105,0.522,0.166,1.247,0.18h0.141c0.107,0,0.175-0.033,0.202-0.1v-0.041C162.715,23.939,162.232,23.904,161.83,23.904z
		 M161.91,15.717v0.08h0.1c0.35,0,0.523-0.027,0.523-0.08l-0.04-0.08h-0.061C162.084,15.637,161.91,15.664,161.91,15.717z
		 M162.353,16h-0.362v0.059c0,0.055,0.094,0.08,0.281,0.08h0.222h0.061h0.664c0.201,0,0.302-0.033,0.302-0.1v-0.021
		C163.52,15.951,163.131,15.945,162.353,16z M163.68,11.473l0.685-0.102c0.47,0,0.839,0.242,1.106,0.725l0.141,0.645
		c-0.026,0.254-0.174,0.59-0.442,1.006c-0.175,0.174-0.442,0.262-0.805,0.262c-0.845,0-1.368-0.129-1.569-0.383
		c-0.201-0.268-0.295-0.645-0.281-1.127c-0.054,0-0.081-0.014-0.081-0.039v-0.041C162.836,11.787,163.251,11.473,163.68,11.473z
		 M163.278,11.975v0.021c0.456-0.055,0.684-0.115,0.684-0.182l-0.101-0.041C163.473,11.842,163.278,11.908,163.278,11.975z
		 M163.439,19.057l-0.061,2.596c0.014,0.094,0.033,0.141,0.061,0.141c0.039,0,0.066-0.061,0.08-0.182l-0.02-0.301
		c0.066-0.066,0.141-0.336,0.221-0.805v-0.121l-0.041-0.283c0.081-0.066,0.121-0.113,0.121-0.139
		c-0.053-0.148-0.08-0.295-0.08-0.443v-0.041c0.054,0,0.121-0.75,0.201-2.252c-0.041-0.107-0.08-0.162-0.121-0.162
		C163.6,17.064,163.479,17.729,163.439,19.057z M164.063,24.67l-0.262,0.02h-0.281v0.08l0.281,0.021l0.584-0.041v-0.061h-0.08
		L164.063,24.67z M163.619,12.559h0.021l0.12,0.02h0.04c0.148,0,0.242-0.053,0.282-0.16l-0.021-0.041h-0.241
		C163.714,12.377,163.646,12.438,163.619,12.559z M163.721,24.146l0.08,0.102c0.121,0,0.182-0.068,0.182-0.201h-0.102
		C163.801,24.047,163.748,24.08,163.721,24.146z M163.982,22.758l-0.061,0.082v0.1h0.061l0.08-0.061v-0.061l-0.061-0.061H163.982z
		 M163.941,22.457v0.141h0.041c0.066-0.027,0.101-0.107,0.101-0.24v-0.143h-0.061C163.996,22.215,163.969,22.295,163.941,22.457z
		 M164.143,16.018L163.962,16v0.039c0.095,0,0.208,0.066,0.343,0.201h0.039c0.027,0,0.041-0.02,0.041-0.061h0.04
		c0.054,0,0.087,0.061,0.101,0.182h0.041l0.281-0.201v-0.121l-0.423-0.021H164.143z M164.063,17.146l0.101,0.301l-0.141,0.363
		c0.054,0.119,0.101,0.18,0.141,0.18h0.021l0.04-0.121v-0.121c0-0.482,0.073-0.723,0.222-0.723l0.061-0.08v-0.082l-0.061-0.061
		h-0.121C164.15,16.803,164.063,16.918,164.063,17.146z M164.324,20.566h-0.101c-0.107,0.496-0.161,0.863-0.161,1.105h0.021
		c0.067,0,0.153-0.275,0.261-0.824v-0.141L164.324,20.566z M164.143,13.404l-0.06,0.059v0.041h0.362l0.061-0.041l-0.061-0.059
		H164.143z M164.425,17.287l-0.081,0.02v0.121c0,0.08,0.034,0.141,0.102,0.182h0.061l0.061-0.082v-0.1
		C164.539,17.361,164.492,17.313,164.425,17.287z M164.586,13.041v0.061h0.08c0.094,0,0.168-0.047,0.222-0.141V12.9h-0.04
		C164.754,12.9,164.666,12.947,164.586,13.041z M164.646,15.576l-0.061,0.061l0.08,0.061h0.041v-0.061L164.646,15.576z
		 M165.068,12.377l-0.061,0.102v0.08h0.021l0.061-0.08v-0.102H165.068z M165.672,24.086l-0.241,0.061
		c0.026,0.16,0.147,0.242,0.362,0.242h0.061v-0.061l-0.041-0.061c0-0.014,0.055-0.053,0.162-0.121v-0.1
		c0-0.094-0.027-0.148-0.081-0.162h-0.081C165.772,23.898,165.726,23.967,165.672,24.086z M165.592,23.24l-0.061,0.021
		c0.08,0.066,0.229,0.107,0.443,0.121v-0.061c0-0.055-0.088-0.082-0.263-0.082H165.592z M165.611,24.549l-0.061,0.08v0.041h0.041
		l0.061-0.08v-0.041H165.611z M166.115,25.354l-0.081,0.061v0.061h0.12l0.021-0.061l-0.021-0.061H166.115z"/>
	<path fill="#545454" d="M170.963,13.625l0.302-0.082c0.349,0,1.349,0.203,2.997,0.605c0.779,0.361,1.229,0.543,1.349,0.543
		c0.107-0.148,0.161-0.336,0.161-0.564v-0.039v-0.141c0-0.174,0.121-0.262,0.362-0.262c0.161-0.121,0.389-0.182,0.685-0.182
		c0.401,0,0.604,0.047,0.604,0.141l0.18,1.891v0.584c0,0.482-0.066,0.771-0.201,0.865c-0.12,0.121-0.214,0.182-0.281,0.182
		c-0.75-0.068-1.127-0.168-1.127-0.303c-0.094-0.32-0.328-0.557-0.703-0.703c-1.288-0.645-2.214-0.967-2.777-0.967l-0.563-0.039
		c-0.671,0-1.066,0.127-1.188,0.381c-0.161,0.217-0.241,0.504-0.241,0.865v0.021c0,0.736,0.382,1.348,1.147,1.83
		c0.764,0.309,1.428,0.463,1.991,0.463c0,0.107,0.302,0.256,0.905,0.441c0.121,0.201,0.383,0.303,0.784,0.303
		c0.416,0.16,1.013,0.672,1.791,1.529l0.08,0.08v0.08c0,0.027-0.04,0.041-0.12,0.041v0.041c0.188,0.4,0.281,0.637,0.281,0.703
		c0,1.207-0.194,1.965-0.584,2.273c-0.174,0.361-0.543,0.717-1.105,1.066c-0.631,0.576-1.274,0.865-1.932,0.865h-0.704
		c-1.06-0.16-1.59-0.295-1.59-0.402c-0.616-0.43-0.972-0.645-1.065-0.645c-0.658-0.309-1.113-0.629-1.369-0.965h-0.08
		c-0.16,0.469-0.295,0.703-0.402,0.703c-0.846-0.133-1.268-0.281-1.268-0.441c-0.08-0.229-0.127-0.813-0.141-1.75l0.201-1.248
		c0-0.457,0.054-0.684,0.161-0.684l1.288-0.141c0.094,0,0.188,0.367,0.281,1.105l0.563,1.025c0,0.041,0.598,0.443,1.791,1.207
		c0.295,0.336,0.718,0.504,1.268,0.504h0.705c0.71,0,1.193-0.229,1.447-0.684c0.309-0.336,0.537-0.826,0.685-1.469v-0.061
		c0-0.389-0.343-0.879-1.026-1.469c-0.295-0.336-0.67-0.504-1.127-0.504c-0.268-0.121-0.871-0.248-1.811-0.381l-1.609-0.824
		l-0.784-0.664c-0.335-0.51-0.517-0.873-0.544-1.088l0.041-0.342l-0.08-0.764c0-0.188,0.113-0.408,0.342-0.664
		c0-0.16,0.322-0.529,0.965-1.105C170.5,14.068,170.855,13.813,170.963,13.625z M167.442,22.959l0.021,0.504h0.02
		c0.094-0.055,0.141-0.369,0.141-0.945v-0.16l-0.039-0.041h-0.041C167.503,22.316,167.469,22.531,167.442,22.959z M168.086,24.006
		h-0.1v0.08l0.1,0.061l0.081-0.02v-0.041L168.086,24.006z M168.227,21.35h-0.1v0.08l0.04,0.041l0.08-0.041L168.227,21.35z
		 M168.991,15.979L168.932,16c0.026,0.254,0.06,0.434,0.1,0.543h0.061v-0.021l-0.02-0.543H168.991z M169.012,23.322h-0.061v0.08
		c0.201,0.254,0.396,0.383,0.584,0.383h0.04v-0.061C169.28,23.455,169.092,23.322,169.012,23.322z M169.193,15.496h-0.102
		l-0.02,0.141v0.061l0.02,0.039l0.102-0.201V15.496z M169.455,17.869l-0.041,0.061v0.02l0.041,0.041h0.06V17.93L169.455,17.869z
		 M169.535,16.16l-0.08,0.061v0.061h0.06l0.101-0.082V16.16H169.535z M169.756,15.273l-0.061,0.021l0.021,0.041v0.02l0.08-0.02
		v-0.063H169.756z M169.816,17.99h-0.021v0.041c0.095,0.295,0.188,0.443,0.282,0.443h0.08l0.102-0.102v-0.02
		C170.085,18.111,169.938,17.99,169.816,17.99z M169.837,15.576v0.02l0.04,0.021h0.08c0.295-0.215,0.443-0.391,0.443-0.523h-0.021
		h-0.04C170.191,15.094,170.024,15.254,169.837,15.576z M170.38,17.811l-0.04,0.02v0.039l0.04,0.061h0.201v-0.061
		C170.567,17.83,170.5,17.811,170.38,17.811z M170.822,17.99l-0.04,0.041v0.121l0.12,0.121h0.061l0.061-0.041v-0.102
		C170.97,18.037,170.902,17.99,170.822,17.99z M170.842,19.057h-0.02c0,0.094,0.087,0.168,0.262,0.221l0.04-0.02
		C171.124,19.191,171.03,19.123,170.842,19.057z M171.547,25.133l-0.584-0.041v0.041c0,0.053,0.175,0.121,0.523,0.201l0.08,0.08
		h0.102C171.641,25.227,171.6,25.133,171.547,25.133z M171.164,13.826v0.08c0,0.053,0.088,0.102,0.262,0.141
		c0.361-0.025,0.543-0.072,0.543-0.141v-0.08c0-0.094-0.188-0.141-0.563-0.141C171.299,13.686,171.218,13.732,171.164,13.826z
		 M171.466,18.475l-0.04,0.039v0.02c0.174,0.162,0.436,0.303,0.785,0.422l0.04-0.059C172.251,18.814,171.989,18.674,171.466,18.475z
		 M171.729,14.711c0.053,0.055,0.119,0.08,0.2,0.08c0.134,0,0.274-0.072,0.423-0.221l-0.101-0.08h-0.222
		C171.828,14.49,171.729,14.564,171.729,14.711z M172.029,25.635h-0.04l0.081,0.102h0.16v-0.021
		C172.217,25.662,172.15,25.635,172.029,25.635z M172.211,25.414l-0.061-0.061v0.08h0.061V25.414z M172.432,25.756
		c0.188,0.107,0.443,0.16,0.765,0.16h0.04l0.865-0.039v-0.041c-0.04-0.107-0.503-0.16-1.389-0.16
		C172.525,25.676,172.432,25.703,172.432,25.756z M172.652,14.953l-0.08,0.08c0,0.094,0.242,0.154,0.725,0.182v-0.061
		c0-0.055-0.201-0.121-0.604-0.201H172.652z M172.572,18.977c0,0.053,0.477,0.195,1.429,0.422l0.261,0.021h0.061v-0.021
		c-0.401-0.309-0.891-0.49-1.468-0.543C172.666,18.922,172.572,18.963,172.572,18.977z M172.814,19.561v0.08l0.342,0.121h0.221
		v-0.061C173.136,19.605,172.948,19.561,172.814,19.561z M174.363,25.635l-0.041,0.041v0.061l0.041,0.041h0.08
		c0.256-0.016,0.383-0.049,0.383-0.102l-0.061-0.041H174.363z M174.464,14.691v0.02c0,0.041,0.08,0.066,0.241,0.08h0.061v-0.02
		C174.766,14.744,174.665,14.719,174.464,14.691z M174.705,15.436l-0.02,0.02v0.041c0.415,0.24,0.677,0.361,0.784,0.361v-0.02
		C175.47,15.758,175.215,15.623,174.705,15.436z M174.967,19.842h-0.182v0.061c0.081,0.08,0.437,0.281,1.066,0.604
		c0.27,0.24,0.477,0.361,0.624,0.361h0.021l0.039-0.061C176.228,20.404,175.705,20.084,174.967,19.842z M175.248,24.047v0.08h0.041
		c0.12-0.08,0.221-0.195,0.301-0.342l-0.039-0.061C175.443,23.791,175.342,23.898,175.248,24.047z M175.47,21.068h-0.021v0.102
		c0,0.133,0.115,0.293,0.342,0.482h0.121v-0.16C175.912,21.33,175.765,21.189,175.47,21.068z M176.335,24.227l-0.685,0.564v0.039
		c0,0.027,0.027,0.041,0.08,0.041c0.162,0,0.383-0.215,0.664-0.645H176.335z M175.73,15.234l-0.039,0.039
		c0.188,0.148,0.402,0.248,0.644,0.303l0.021-0.041v-0.039c0-0.066-0.195-0.154-0.584-0.262H175.73z M175.832,22.639h-0.102v0.1
		l0.061,0.02l0.061-0.061L175.832,22.639z M176.274,16.682l-0.08,0.041c0.106,0.068,0.302,0.102,0.583,0.102l0.402-0.021v-0.08
		c-0.241-0.025-0.489-0.041-0.744-0.041H176.274z M176.415,13.785v0.041c0.147,0.242,0.275,0.361,0.382,0.361
		c0.107,0,0.188-0.066,0.242-0.201v-0.08C177.039,13.826,176.831,13.785,176.415,13.785z M176.979,22.639l-0.16,0.16v0.1
		l0.039,0.061h0.061c0.081-0.014,0.121-0.119,0.121-0.32H176.979z M177.119,14.408l-0.061,0.082l0.061,0.039h0.101v-0.121H177.119z"
		/>
	<path fill="#545454" d="M182.611,9.5c0.295,0,0.537,0.08,0.725,0.242c-0.16,0.43-0.268,1.105-0.322,2.031l-0.181,1.852
		c0,0.094,0.269,0.141,0.805,0.141c1.583,0,2.374,0.074,2.374,0.221c0.066,0,0.147,0.041,0.242,0.121
		c-0.135,0.174-0.202,0.301-0.202,0.383v0.061l0.061,0.402l-0.262,0.885c0,0.094,0.101,0.229,0.302,0.402v0.041
		c-0.322,0.105-0.584,0.16-0.785,0.16c-0.214-0.014-0.321-0.047-0.321-0.102v-0.039l0.181-0.02h0.141l0.082-0.082V16.16
		l-0.082-0.021l-1.348,0.021l-1.105-0.021c-0.068,0-0.142,0.377-0.222,1.127h-0.021l-0.281-0.32l-0.061,0.221v0.121
		c0.014,0.375,0.061,0.576,0.141,0.604c0.054,0,0.101-0.121,0.141-0.363v-0.141h0.061l0.021,0.061l-0.142,1.932
		c0.161,2.775,0.303,4.164,0.424,4.164c0.066,0.43,0.234,0.643,0.502,0.643c0.148,0.096,0.329,0.143,0.543,0.143h0.362l1.208-0.061
		c0.026,0,0.073,0.355,0.141,1.066c0.026,0.213-0.018,0.373-0.131,0.473c-0.115,0.102-0.306,0.15-0.574,0.15l-1.549,0.041
		c-0.845,0-1.556-0.236-2.133-0.705c-0.375-0.133-0.563-0.535-0.563-1.207c-0.027-0.361-0.074-1.436-0.141-3.219l0.24-2.736
		l0.061-1.186v-0.162c-0.094-0.563-0.254-0.846-0.482-0.846h-0.604h-0.704c-0.201,0-0.402,0.047-0.604,0.143
		c-0.134-0.014-0.302-0.195-0.503-0.545l0.402-1.789c0-0.055,0.811-0.088,2.434-0.102c0-0.174,0.095-0.395,0.282-0.664
		c0.054-2.092,0.128-3.139,0.222-3.139V9.781c0-0.025-0.034-0.039-0.102-0.039V9.682C181.283,9.643,181.727,9.58,182.611,9.5z
		 M178.568,13.986c0,0.094,0.06,0.141,0.181,0.141h0.302c0.55,0,1.06-0.025,1.529-0.08v-0.039c0-0.068-0.329-0.102-0.986-0.102
		h-0.845C178.628,13.906,178.568,13.934,178.568,13.986z M178.89,14.369l-0.04,0.039v0.121c0,0.135,0.449,0.201,1.348,0.201
		c0.456,0,0.684-0.033,0.684-0.1c0-0.16-0.59-0.248-1.77-0.262H178.89z M179.07,15.072l-0.08,0.063c0,0.053,0.033,0.08,0.102,0.08
		l0.502,0.02l0.543-0.02l0.021-0.021v-0.039c-0.161-0.055-0.463-0.082-0.905-0.082H179.07z M180.641,15.455l-1.65-0.061v0.041
		c0,0.094,0.51,0.141,1.529,0.141l0.16-0.041v-0.02L180.641,15.455z M180.922,20.787l0.061,0.563l-0.021,0.705l0.021,0.201h0.061
		c0.08,0,0.12-0.314,0.12-0.945v-0.463c0-0.617-0.026-0.926-0.08-0.926C180.988,19.922,180.936,20.211,180.922,20.787z
		 M181.605,23.383h-0.061v0.301l0.041,0.121h0.02l0.041-0.041v-0.342L181.605,23.383z M181.686,24.77h-0.039v0.08
		c0.039,0.336,0.188,0.504,0.442,0.504h0.2l0.041-0.061v-0.02c0-0.027-0.121-0.074-0.362-0.141L181.686,24.77z M181.746,16.441v0.16
		l0.061,0.061c0.055-0.014,0.081-0.061,0.081-0.141v-0.08l-0.04-0.141h-0.021C181.773,16.314,181.746,16.361,181.746,16.441z
		 M181.848,16.844h-0.041l-0.02,0.102v0.1l0.02,0.121h0.081v-0.182v-0.102L181.848,16.844z M181.848,10.043h-0.021v0.121h0.061
		v-0.08L181.848,10.043z M181.888,18.232h-0.061v0.16l0.061,0.082h0.04v-0.082L181.888,18.232z M181.988,10.828l-0.061-0.061
		c-0.027,0.135-0.04,0.309-0.04,0.523v0.08h0.04l0.061-0.342V10.828z M182.049,11.674h-0.041l-0.08,1.99v0.021l0.061,0.061h0.04
		c0.094,0,0.141-0.168,0.141-0.504v-0.463l-0.04-0.984C182.102,11.713,182.075,11.674,182.049,11.674z M182.229,22.375h-0.04
		l-0.021,0.143v0.16c0,0.094,0.027,0.146,0.081,0.162h0.039c0.055-0.016,0.082-0.061,0.082-0.143
		C182.357,22.484,182.311,22.375,182.229,22.375z M182.189,24.65v0.02v0.121c0.014,0.053,0.061,0.107,0.141,0.16h0.141v-0.039
		C182.471,24.764,182.377,24.676,182.189,24.65z M182.391,23.24l-0.08,0.223c0,0.309,0.066,0.504,0.201,0.584l0.039-0.08v-0.182
		C182.537,23.449,182.484,23.268,182.391,23.24z M182.491,16.803l-0.101-0.08v0.061l0.08,0.08h0.021V16.803z M182.712,10.084
		l-0.08,0.08v0.041l0.061,0.463h0.04c0.161-0.162,0.242-0.303,0.242-0.424v-0.08l-0.061-0.08H182.712z M183.176,14.551l-0.061,0.061
		v0.02c0,0.066,0.24,0.107,0.724,0.121l0.342-0.021l0.464,0.082h0.08c0.094,0,0.141-0.041,0.141-0.121h-0.021l-1.528-0.141H183.176z
		 M183.517,15.516h-0.101v0.061c0.014,0.027,0.248,0.094,0.705,0.201h0.039v-0.041C183.946,15.59,183.732,15.516,183.517,15.516z
		 M184.845,13.906l-0.261,0.102h-0.242H184v0.061c0.295,0.08,0.55,0.119,0.764,0.119h0.463c0.027,0,0.041-0.02,0.041-0.061
		c-0.027-0.146-0.101-0.221-0.222-0.221H184.845z M184.422,25.051h0.081c0.496-0.08,0.744-0.166,0.744-0.26l-0.04-0.041
		C184.684,24.885,184.422,24.984,184.422,25.051z M184.543,15.717c0.362,0.121,0.684,0.182,0.966,0.182l0.081-0.08v-0.121
		l-0.061-0.061h-0.443C184.725,15.637,184.543,15.664,184.543,15.717z M185.348,14.992l-0.08,0.08v0.021l0.08,0.061h0.102
		c0.119,0,0.193-0.041,0.221-0.121l-0.061-0.041H185.348z M185.408,14.107l-0.061,0.041v0.039l0.061,0.02
		c0.134,0,0.208-0.025,0.221-0.08v-0.02H185.408z"/>
	<path fill="#545454" d="M192.067,15.576c0.563,0,1.247,0.242,2.052,0.725c0.685,0.51,1.026,0.857,1.026,1.045
		c0.536,1.129,0.805,1.805,0.805,2.033l0.021,0.16c-0.201,0.471-0.302,0.793-0.302,0.967l-0.121,0.02h-1.71
		c-0.161,0-0.355,0.02-0.584,0.061c-1.932-0.16-3.285-0.242-4.063-0.242h-0.423c-0.16,0.242-0.241,0.416-0.241,0.523
		c0.095,0.146,0.142,0.383,0.142,0.705c0,0.508,0.08,0.811,0.24,0.904l0.021,0.102v0.02l-0.12-0.061v0.061l0.181,0.201
		c0,0.174,0.12,0.395,0.362,0.664c0.442,0.777,0.926,1.26,1.448,1.449c0.442,0.146,0.945,0.221,1.509,0.221
		c0.094,0,0.289-0.088,0.584-0.262c0.241-0.055,0.751-0.49,1.529-1.309v-0.059c0-0.027-0.095-0.055-0.282-0.082l-0.04-0.1
		c0.309-0.59,0.677-0.98,1.105-1.168c0.121,0.121,0.369,0.309,0.745,0.564c0.295,0.455,0.69,0.992,1.187,1.609v0.08
		c-0.429,0.563-0.737,0.846-0.926,0.846h-0.08c0-0.295-0.181-0.463-0.543-0.504c-0.066,0-0.361,0.221-0.885,0.664
		c-0.309,0.242-0.838,0.469-1.59,0.684c-0.871,0.176-1.488,0.262-1.852,0.262l-1.146-0.402c-0.643,0-1.233-0.348-1.77-1.045
		c-0.229-0.242-0.416-0.531-0.563-0.865c0-0.107-0.147-0.664-0.442-1.672c-0.094-0.387-0.141-0.764-0.141-1.125v-0.02
		c0-1.785,0.535-3.348,1.609-4.688c0.134-0.336,0.442-0.584,0.926-0.746c0.321-0.094,0.71-0.166,1.166-0.221
		C191.021,15.521,191.41,15.521,192.067,15.576z M187.541,20.707v0.059v0.021c-0.014,0.041-0.021,0.135-0.021,0.281v0.08
		c0,0.242,0.067,0.457,0.201,0.645h0.021C187.742,21.148,187.675,20.787,187.541,20.707z M187.822,18.875
		c-0.107,0.107-0.201,0.377-0.281,0.805h0.04c0.08,0,0.201-0.234,0.362-0.703C187.916,18.908,187.876,18.875,187.822,18.875z
		 M187.642,19.941h-0.101v0.121c0,0.08,0.02,0.121,0.06,0.121c0.067,0,0.108-0.066,0.121-0.201L187.642,19.941z M187.902,22.457
		h-0.061v0.039l0.061,0.041h0.041v-0.041L187.902,22.457z M188.043,22.799l-0.02,0.02v0.041c0.054,0.215,0.135,0.322,0.241,0.322
		V23.16v-0.039C188.265,23.014,188.191,22.906,188.043,22.799z M188.627,20.143v0.021h0.02l0.343-0.041v-0.039l-0.061-0.082h-0.06
		C188.748,20.002,188.668,20.049,188.627,20.143z M188.688,17.648l-0.041,0.061v0.02h0.041l0.08-0.061v-0.02H188.688z
		 M188.646,18.996v0.08l0.041,0.041h0.041c0.093-0.041,0.174-0.113,0.24-0.221v-0.061h-0.1
		C188.787,18.836,188.714,18.889,188.646,18.996z M188.848,18.475v0.059c0,0.148,1.221,0.316,3.662,0.504l0.201,0.061l0.262-0.021
		c0.537,0.176,0.898,0.262,1.086,0.262c0,0.041,0.041,0.074,0.121,0.102c0.08-0.121,0.121-0.234,0.121-0.342v-0.383
		c0-0.174-0.336-0.563-1.006-1.168c-0.309-0.307-0.657-0.482-1.047-0.521l-0.684-0.121c-1.113,0.227-1.844,0.504-2.193,0.824
		C189.225,18.01,189.05,18.258,188.848,18.475z M188.869,18.172c0.08-0.014,0.12-0.066,0.12-0.162v-0.02
		C188.908,18.018,188.869,18.078,188.869,18.172z M188.989,25.051h-0.061v0.082c0.026,0.066,0.142,0.141,0.342,0.221l0.081,0.061
		C189.203,25.186,189.083,25.064,188.989,25.051z M189.07,17.266v0.041h0.039c0.176-0.041,0.262-0.088,0.262-0.141v-0.02h-0.101
		C189.203,17.146,189.137,17.186,189.07,17.266z M189.271,19.982l-0.101,0.02v0.121h0.101v-0.08v-0.041V19.982z M189.412,16.34
		v0.021l0.061,0.039h0.02c0.268-0.066,0.402-0.135,0.402-0.201V16.08l-0.08-0.08h-0.041C189.533,16.08,189.412,16.193,189.412,16.34
		z M189.674,19.801v0.041c0.268,0.066,0.979,0.133,2.132,0.201v0.02v0.021l-0.423,0.059c0,0.041,0.175,0.061,0.523,0.061
		c0.563,0,0.846-0.027,0.846-0.08C192.752,19.988,191.726,19.881,189.674,19.801z M189.875,19.117v0.061
		c0.254,0.174,0.717,0.262,1.387,0.262h0.182l0.262-0.02v-0.082C191.155,19.219,190.545,19.145,189.875,19.117z M189.915,17.146
		c0.134-0.107,0.401-0.223,0.805-0.344v-0.039l-0.021-0.041h-0.201C190.109,16.83,189.915,16.971,189.915,17.146z M190.217,16v0.018
		h0.04c0.214,0,0.616-0.072,1.207-0.221c0.12-0.012,0.181-0.045,0.181-0.1l-0.061-0.061h-0.02c-0.389,0-0.825,0.107-1.308,0.322
		L190.217,16z M190.398,25.133h-0.021v0.02c0,0.055,0.141,0.113,0.423,0.182l0.021-0.02v-0.041
		C190.646,25.18,190.505,25.133,190.398,25.133z M191.082,16.441v0.02c0,0.055,0.274,0.121,0.824,0.201l0.041-0.02v-0.08
		c-0.107-0.148-0.289-0.223-0.544-0.223h-0.06C191.169,16.354,191.082,16.387,191.082,16.441z M191.584,25.354h-0.06v0.061h0.06
		V25.354z M192.269,25.857l-0.423-0.041h-0.08c-0.121,0-0.188,0.027-0.201,0.08v0.041l0.08,0.061h0.363
		c0.415,0,0.904-0.074,1.468-0.221c-0.026-0.082-0.106-0.121-0.241-0.121h-0.101C192.813,25.656,192.523,25.723,192.269,25.857z
		 M192.51,16.139h-0.604v0.041c0,0.053,0.275,0.094,0.824,0.121h0.021v-0.08C192.752,16.193,192.671,16.166,192.51,16.139z
		 M192.309,16.563v0.02c0.765,0.443,1.174,0.664,1.227,0.664h0.021l0.201-0.08l0.12,0.039l0.021-0.039v-0.02
		c-0.055-0.041-0.168-0.082-0.342-0.121l-0.403-0.182c-0.106-0.229-0.321-0.342-0.644-0.342h-0.061
		C192.355,16.516,192.309,16.535,192.309,16.563z M193.557,19.641h-0.061v0.061h0.061V19.641z M193.516,20.184
		c0,0.053,0.121,0.08,0.362,0.08l0.181-0.02v-0.041c0-0.053-0.127-0.08-0.382-0.08C193.569,20.15,193.516,20.17,193.516,20.184z
		 M193.516,24.77h0.041c0.106-0.039,0.167-0.105,0.18-0.201l-0.02-0.02C193.583,24.629,193.516,24.703,193.516,24.77z
		 M193.677,25.656c0.134,0,0.241-0.102,0.322-0.303h-0.061C193.764,25.447,193.677,25.547,193.677,25.656z M193.878,17.547
		c0.026,0.109,0.087,0.162,0.181,0.162h0.041l0.04-0.061v-0.121l-0.081-0.1C193.938,17.428,193.878,17.467,193.878,17.547z
		 M194.14,24.146l0.04,0.021h0.02c0.148,0,0.242-0.088,0.282-0.264v-0.039C194.334,23.865,194.22,23.959,194.14,24.146z
		 M194.381,17.811h-0.08c0.147,0.441,0.255,0.682,0.322,0.723h0.08l0.061-0.041c-0.107-0.428-0.222-0.643-0.342-0.643
		L194.381,17.811z M194.602,22.98l0.041,0.059h0.101c0.08,0,0.128-0.025,0.141-0.08l-0.08-0.08h-0.021
		C194.689,22.879,194.629,22.912,194.602,22.98z M194.703,24.871h0.08c0.135-0.121,0.201-0.207,0.201-0.262h-0.02
		C194.79,24.664,194.703,24.75,194.703,24.871z M195.064,18.715l-0.06,0.041v0.141l0.06,0.08c0.055-0.014,0.081-0.061,0.081-0.141
		v-0.08l-0.021-0.041H195.064z M195.085,24.328l0.061,0.039c0.201-0.066,0.302-0.152,0.302-0.262v-0.039h-0.02
		C195.239,24.066,195.125,24.152,195.085,24.328z M195.548,24.105l0.021,0.021h0.06c0.081-0.055,0.121-0.127,0.121-0.223h-0.061
		C195.595,23.959,195.548,24.025,195.548,24.105z M196.252,23.904h-0.02v0.041c0.039,0.16,0.1,0.24,0.181,0.24h0.02l0.041-0.039
		v-0.02C196.446,23.979,196.373,23.904,196.252,23.904z"/>
	<path fill="#545454" d="M205.124,16.301c0.522,0,0.966,0.369,1.327,1.107c0.068,0,0.162,0.086,0.282,0.26l0.262,1.488
		c-0.095,0.162-0.449,0.242-1.066,0.242h-0.2c-0.497-0.08-0.746-0.248-0.746-0.502c0-0.189-0.153-0.451-0.462-0.785
		c-0.04-0.068-0.329-0.102-0.865-0.102c-0.509,0-1.126,0.135-1.851,0.402c-0.51,0.537-0.846,0.953-1.006,1.248
		c0.094,2.293,0.127,3.729,0.1,4.307c0,0.119,0.082,0.18,0.242,0.18h0.482c0.215,0.014,0.322,0.055,0.322,0.121v0.02l0.08,0.262
		l-0.04,1.127l-0.12,0.16l-0.945,0.102h-0.081l-0.402,0.121c-1.542-0.055-2.313-0.113-2.313-0.182c-0.269,0-0.402-0.121-0.402-0.363
		c-0.027-0.24-0.041-0.488-0.041-0.744c0-0.254,0.262-0.422,0.785-0.502c0-0.107,0.182-0.162,0.543-0.162l0.061-0.02v-0.039
		l-0.121-5.514c0-0.334-0.086-0.502-0.262-0.502h-0.12c-0.161,0-0.429,0.074-0.805,0.221l-0.04-0.041v-0.039
		c0-0.027,0.054-0.061,0.16-0.102v-0.039c-0.133,0-0.201-0.375-0.201-1.127c-0.026,0-0.047-0.121-0.061-0.361
		c0.537-0.416,1.101-0.625,1.691-0.625h0.502c0.201,0,0.543,0.066,1.026,0.201v0.061c-0.12,0.188-0.181,0.322-0.181,0.402v0.141
		C201.744,16.24,203.232,16.1,205.124,16.301z M198.022,25.213l-0.081-0.08l-0.04,0.08v0.08l0.04,0.061h0.081V25.213z
		 M198.143,16.703c0.107,0.107,0.222,0.16,0.342,0.16l0.021-0.039v-0.143l-0.081-0.1C198.236,16.609,198.143,16.648,198.143,16.703z
		 M198.646,25.414l-0.262,0.02v0.041c0,0.066,0.194,0.102,0.583,0.102h0.604l0.141-0.021
		C199.712,25.488,199.357,25.441,198.646,25.414z M198.465,17.488v0.039h0.061c0.147,0,0.229-0.027,0.241-0.08l-0.04-0.061h-0.041
		C198.565,17.387,198.492,17.42,198.465,17.488z M198.506,25.092l-0.041,0.041l0.02,0.039h1.107v-0.059l-0.685-0.021H198.506z
		 M199.068,16.301h-0.061v0.08l0.121,0.141h0.182v-0.039L199.068,16.301z M199.854,19.338v0.102c0.066,0.133,0.1,0.275,0.1,0.422
		c-0.013,0.055-0.033,0.328-0.06,0.824l0.04,0.807h0.02c0.041,0,0.094-0.625,0.162-1.873c0.026,0,0.039-0.133,0.039-0.4
		c-0.013-0.121-0.047-0.182-0.1-0.182h-0.041C199.906,19.104,199.854,19.205,199.854,19.338z M200.094,18.273h-0.08l-0.1,0.422
		c0,0.066,0.039,0.133,0.12,0.201h0.021c0.039,0,0.073-0.094,0.1-0.283L200.094,18.273z M200.176,25.232l0.06,0.061h0.302l0.08-0.08
		c0-0.027-0.033-0.053-0.101-0.08C200.289,25.16,200.176,25.193,200.176,25.232z M200.396,16.682l-0.08,0.063v0.039l0.039,0.041
		l0.102-0.08v-0.063H200.396z M200.457,16.32l-0.102,0.041v0.08h0.102l0.06-0.08L200.457,16.32z M200.437,23.02l-0.081,0.061v0.16
		h0.081l0.08-0.059v-0.121l-0.04-0.041H200.437z M200.437,23.463h-0.04v0.08h0.04V23.463z M200.839,17.609l-0.081,0.018v0.063
		l0.081,0.059h0.06l0.061-0.059v-0.063L200.839,17.609z M202.127,17.166v0.039c0.12,0,0.281-0.193,0.482-0.582v-0.102h-0.02
		C202.24,16.629,202.086,16.844,202.127,17.166z M202.891,16.723l0.101,0.402h0.161v-0.422l-0.061-0.061h-0.061
		C202.938,16.656,202.891,16.682,202.891,16.723z M203.615,16.543l-0.242,0.02v0.02l0.041,0.061h0.201
		c0.094,0,0.147-0.027,0.161-0.08l-0.04-0.02H203.615z M204.018,16.521v0.041h0.141l0.08-0.061l-0.061-0.061
		C204.071,16.469,204.018,16.496,204.018,16.521z M204.601,16.582l-0.08,0.061v0.02h0.101l0.04-0.039v-0.041H204.601z
		 M204.722,17.811h0.101c0.067-0.016,0.194-0.176,0.383-0.484v-0.02c0-0.027-0.027-0.041-0.081-0.041
		c-0.228,0.107-0.342,0.248-0.342,0.424C204.769,17.689,204.748,17.729,204.722,17.811z M205.285,18.354v0.039h0.04l0.081-0.061
		v-0.059h-0.021C205.318,18.313,205.285,18.34,205.285,18.354z M205.346,16.521l-0.041,0.041v0.02l0.041,0.061h0.08l0.04-0.061
		v-0.02l-0.04-0.041H205.346z M205.969,17.246h-0.061v0.041c0.107,0.107,0.201,0.16,0.282,0.16h0.061v-0.039
		C206.144,17.299,206.05,17.246,205.969,17.246z"/>
</g>
</svg>
