<?xml version="1.0" encoding="utf-8"?>
<!-- Generator: Adobe Illustrator 16.0.0, SVG Export Plug-In . SVG Version: 6.00 Build 0)  -->
<!DOCTYPE svg PUBLIC "-//W3C//DTD SVG 1.1//EN" "http://www.w3.org/Graphics/SVG/1.1/DTD/svg11.dtd">
<svg version="1.1" id="图层_1" xmlns="http://www.w3.org/2000/svg" xmlns:xlink="http://www.w3.org/1999/xlink" x="0px" y="0px"
	 width="258px" height="36px" viewBox="0 0 258 36" enable-background="new 0 0 258 36" xml:space="preserve">
<g>
	<path fill="#545454" d="M22.472,23.551l5.565-12.287c0.263-0.648,0.518-1.074,0.76-1.277c0.345-0.305,0.694-0.455,1.049-0.455
		s0.633,0.035,0.836,0.105c0.203,0.072,0.375,0.178,0.517,0.32c0.324,0.363,0.487,0.83,0.487,1.398v13.99
		c0,0.303-0.102,0.531-0.304,0.684c-0.203,0.152-0.426,0.229-0.669,0.229c-0.244,0-0.461-0.076-0.654-0.229
		s-0.289-0.381-0.289-0.684V11.566l-6.051,13.412c-0.244,0.59-0.669,0.883-1.278,0.883c-0.547,0-0.963-0.293-1.247-0.883
		l-6.021-13.32v13.688c0,0.303-0.102,0.531-0.305,0.684c-0.203,0.152-0.425,0.229-0.668,0.229c-0.244,0-0.461-0.076-0.654-0.229
		c-0.192-0.152-0.289-0.381-0.289-0.684v-13.99c0-0.912,0.334-1.48,1.004-1.703c0.202-0.08,0.42-0.121,0.653-0.121
		c0.233,0,0.446,0.025,0.639,0.076c0.193,0.049,0.37,0.146,0.532,0.289c0.263,0.201,0.568,0.668,0.912,1.398l5.414,12.256H22.472z"
		/>
	<path fill="#545454" d="M41.235,19.172l1.338,0.029v-1.004c0-1.582-0.893-2.371-2.676-2.371c-0.832,0-1.43,0.072-1.794,0.213
		c-0.425,0.162-0.832,0.35-1.216,0.563c-0.386,0.213-0.665,0.32-0.836,0.32c-0.173,0-0.325-0.068-0.457-0.199
		c-0.132-0.133-0.197-0.289-0.197-0.473c0-0.182,0.081-0.344,0.243-0.484c0.973-0.934,2.413-1.4,4.319-1.4
		c2.128,0,3.497,0.73,4.105,2.189c0.223,0.508,0.335,1.105,0.335,1.795l-0.03,7.086c0,0.285-0.092,0.492-0.274,0.623
		c-0.183,0.133-0.391,0.199-0.623,0.199c-0.234,0-0.441-0.066-0.624-0.199c-0.183-0.131-0.274-0.328-0.274-0.592v-1.096
		c-0.487,1.035-1.369,1.703-2.646,2.008c-0.406,0.08-0.847,0.121-1.323,0.121c-0.477,0-0.958-0.076-1.445-0.227
		c-0.486-0.152-0.912-0.381-1.277-0.686c-0.771-0.609-1.156-1.461-1.156-2.555C34.728,20.459,36.896,19.172,41.235,19.172z
		 M42.574,20.57c-0.345,0.02-0.735,0.029-1.171,0.029s-0.872,0.01-1.308,0.031c-0.436,0.02-0.862,0.07-1.277,0.152
		c-0.416,0.08-0.786,0.203-1.11,0.365c-0.73,0.404-1.095,1.012-1.095,1.824c0,0.648,0.253,1.176,0.76,1.582
		c0.406,0.303,0.993,0.475,1.764,0.516c0.932,0,1.723-0.293,2.372-0.881c0.669-0.588,1.023-1.449,1.064-2.584V20.57z"/>
	<path fill="#545454" d="M47.956,15.49c0-0.283,0.096-0.496,0.29-0.639c0.192-0.141,0.461-0.211,0.805-0.211
		c0.649,0,0.913,0.639,0.791,1.914c0.466-0.973,1.358-1.65,2.677-2.037c0.405-0.102,0.851-0.152,1.338-0.152
		c0.486,0,0.978,0.086,1.475,0.26c0.497,0.172,0.938,0.441,1.323,0.807c0.831,0.791,1.247,1.955,1.247,3.496v6.447
		c0,0.305-0.102,0.527-0.304,0.67c-0.203,0.141-0.421,0.213-0.653,0.213c-0.234,0-0.446-0.076-0.639-0.229s-0.289-0.371-0.289-0.654
		v-6.6c0-1.418-0.557-2.342-1.672-2.768c-0.325-0.121-0.695-0.182-1.11-0.182c-0.416,0-0.836,0.08-1.262,0.242
		s-0.791,0.375-1.095,0.639c-0.69,0.609-1.034,1.541-1.034,2.799v5.869c0,0.305-0.102,0.527-0.304,0.67
		c-0.203,0.141-0.426,0.213-0.669,0.213s-0.456-0.076-0.639-0.229c-0.182-0.152-0.274-0.371-0.274-0.654V15.49z"/>
	<path fill="#545454" d="M70.795,26.258c-0.568,0-0.893-0.285-0.973-0.852v-1.096c-0.547,0.791-1.167,1.354-1.855,1.688
		c-0.689,0.334-1.465,0.502-2.327,0.502c-0.862,0-1.602-0.172-2.22-0.518c-0.619-0.344-1.121-0.801-1.505-1.367
		c-0.771-1.176-1.156-2.586-1.156-4.229c0-1.682,0.396-3.07,1.187-4.164c0.851-1.238,2.098-1.857,3.74-1.857
		c1.297,0,2.422,0.395,3.376,1.186c0.304,0.264,0.557,0.58,0.76,0.943v-6.111c0-0.285,0.096-0.498,0.289-0.639
		c0.192-0.143,0.411-0.213,0.654-0.213c0.244,0,0.461,0.076,0.654,0.227c0.192,0.152,0.289,0.361,0.289,0.625v14.992
		c0,0.305-0.097,0.527-0.289,0.67C71.225,26.186,71.018,26.258,70.795,26.258z M67.906,16.191c-0.466-0.244-1.03-0.365-1.688-0.365
		c-0.659,0-1.212,0.133-1.658,0.396s-0.801,0.607-1.064,1.033c-0.507,0.811-0.76,1.824-0.76,3.041c0,2.412,0.709,3.934,2.129,4.561
		c0.324,0.143,0.78,0.213,1.369,0.213c0.587,0,1.125-0.131,1.611-0.395c0.487-0.264,0.872-0.609,1.156-1.035
		c0.527-0.809,0.791-1.945,0.791-3.406C69.791,18.209,69.163,16.859,67.906,16.191z"/>
	<path fill="#545454" d="M80.648,19.172l1.338,0.029v-1.004c0-1.582-0.893-2.371-2.676-2.371c-0.832,0-1.43,0.072-1.794,0.213
		c-0.426,0.162-0.832,0.35-1.217,0.563s-0.664,0.32-0.836,0.32c-0.173,0-0.325-0.068-0.457-0.199
		c-0.132-0.133-0.197-0.289-0.197-0.473c0-0.182,0.081-0.344,0.243-0.484c0.973-0.934,2.413-1.4,4.319-1.4
		c2.128,0,3.497,0.73,4.105,2.189c0.223,0.508,0.334,1.105,0.334,1.795l-0.03,7.086c0,0.285-0.092,0.492-0.274,0.623
		c-0.183,0.133-0.391,0.199-0.624,0.199c-0.233,0-0.441-0.066-0.623-0.199c-0.183-0.131-0.274-0.328-0.274-0.592v-1.096
		c-0.487,1.035-1.369,1.703-2.646,2.008c-0.406,0.08-0.847,0.121-1.323,0.121c-0.477,0-0.958-0.076-1.445-0.227
		c-0.487-0.152-0.912-0.381-1.277-0.686c-0.771-0.609-1.156-1.461-1.156-2.555C74.14,20.459,76.309,19.172,80.648,19.172z
		 M81.986,20.57c-0.345,0.02-0.735,0.029-1.171,0.029c-0.436,0-0.872,0.01-1.308,0.031c-0.437,0.02-0.862,0.07-1.278,0.152
		c-0.416,0.08-0.786,0.203-1.11,0.365c-0.73,0.404-1.095,1.012-1.095,1.824c0,0.648,0.253,1.176,0.76,1.582
		c0.405,0.303,0.993,0.475,1.764,0.516c0.932,0,1.723-0.293,2.372-0.881c0.669-0.588,1.023-1.449,1.065-2.584V20.57z"/>
	<path fill="#545454" d="M87.399,10.473c0-0.305,0.096-0.537,0.289-0.699c0.193-0.162,0.381-0.242,0.563-0.242
		c0.183,0,0.324,0.02,0.425,0.061c0.102,0.041,0.193,0.102,0.274,0.182c0.203,0.162,0.304,0.395,0.304,0.699v14.842
		c0,0.303-0.102,0.537-0.304,0.699s-0.421,0.244-0.654,0.244c-0.233,0-0.441-0.076-0.623-0.229
		c-0.183-0.152-0.274-0.391-0.274-0.715V10.473z"/>
	<path fill="#545454" d="M95.124,10.596c0,0.283-0.112,0.531-0.334,0.744c-0.224,0.213-0.538,0.318-0.943,0.318
		c-0.406,0-0.72-0.105-0.943-0.318c-0.223-0.213-0.334-0.461-0.334-0.744s0.111-0.537,0.334-0.762
		C93.126,9.611,93.441,9.5,93.847,9.5c0.405,0,0.719,0.111,0.943,0.334C95.012,10.059,95.124,10.313,95.124,10.596z M92.934,15.582
		c0-0.303,0.096-0.537,0.289-0.699s0.38-0.242,0.563-0.242c0.183,0,0.324,0.02,0.426,0.059c0.102,0.043,0.192,0.104,0.273,0.184
		c0.203,0.143,0.305,0.375,0.305,0.699v9.732c0,0.303-0.102,0.537-0.305,0.699s-0.42,0.244-0.653,0.244
		c-0.234,0-0.441-0.076-0.624-0.229c-0.183-0.152-0.274-0.391-0.274-0.715V15.582z"/>
</g>
</svg>
