<?xml version="1.0" encoding="utf-8"?>
<!-- Generator: Adobe Illustrator 16.0.0, SVG Export Plug-In . SVG Version: 6.00 Build 0)  -->
<!DOCTYPE svg PUBLIC "-//W3C//DTD SVG 1.1//EN" "http://www.w3.org/Graphics/SVG/1.1/DTD/svg11.dtd">
<svg version="1.1" id="图层_1" xmlns="http://www.w3.org/2000/svg" xmlns:xlink="http://www.w3.org/1999/xlink" x="0px" y="0px"
	 width="258px" height="36px" viewBox="0 0 258 36" enable-background="new 0 0 258 36" xml:space="preserve">
<g>
	<path fill="#545454" d="M13.315,25.624c0.079-0.114,0.168-0.284,0.268-0.51s0.179-0.511,0.236-0.854
		c0.079-0.501,0.166-1.063,0.263-1.689c0.096-0.626,0.196-1.282,0.3-1.97c0.103-0.687,0.207-1.39,0.311-2.108
		c0.104-0.719,0.205-1.427,0.301-2.124c0.097-0.698,0.189-1.37,0.279-2.018c0.089-0.648,0.17-1.239,0.242-1.776
		c0.072-0.536,0.13-1.003,0.177-1.4c0.046-0.397,0.08-0.695,0.102-0.896h1.363l6.75,12.619l6.696-12.619h1.02l1.76,12.748
		c0.05,0.4,0.104,0.744,0.161,1.03c0.057,0.286,0.114,0.531,0.171,0.734c0.057,0.204,0.113,0.372,0.166,0.505
		c0.054,0.133,0.106,0.241,0.156,0.327v0.043h-2.704v-0.043c0.036-0.079,0.07-0.208,0.102-0.387
		c0.033-0.179,0.048-0.394,0.048-0.644c0-0.093-0.003-0.188-0.011-0.284c-0.007-0.097-0.018-0.202-0.032-0.316l-1.363-10.28
		l-6.331,11.911l-0.74-0.086l-6.374-11.933c-0.25,1.695-0.469,3.262-0.655,4.7c-0.079,0.615-0.157,1.229-0.236,1.841
		c-0.079,0.61-0.149,1.181-0.209,1.711c-0.061,0.529-0.109,0.997-0.145,1.4c-0.036,0.404-0.054,0.702-0.054,0.896
		c0,0.243,0.007,0.458,0.021,0.644c0.015,0.187,0.029,0.344,0.043,0.473c0.021,0.149,0.043,0.282,0.064,0.396h-2.146V25.624z"/>
	<path fill="#545454" d="M43.329,22.04c-0.193,0-0.434,0-0.725,0c-0.289,0-0.606,0-0.949,0c-0.344,0-0.698,0-1.063,0
		s-0.712,0.002-1.041,0.005c-0.329,0.004-0.629,0.008-0.901,0.012c-0.271,0.003-0.483,0.005-0.633,0.005l-0.397,0.837
		c-0.172,0.344-0.318,0.643-0.44,0.896c-0.122,0.253-0.222,0.477-0.301,0.67s-0.136,0.359-0.171,0.499
		c-0.036,0.14-0.054,0.27-0.054,0.393c0,0.077,0.003,0.137,0.011,0.177c0.007,0.04,0.018,0.069,0.032,0.091v0.043h-1.889v-0.043
		c0.05-0.05,0.128-0.159,0.236-0.327s0.231-0.374,0.37-0.617c0.14-0.243,0.29-0.52,0.451-0.826c0.162-0.309,0.32-0.626,0.478-0.955
		l4.378-9.035h0.805l4.292,9.035c0.165,0.344,0.331,0.672,0.499,0.987c0.168,0.314,0.324,0.596,0.467,0.842
		c0.143,0.247,0.268,0.451,0.375,0.612c0.107,0.16,0.179,0.256,0.214,0.284v0.043h-2.747c0.015-0.058,0.021-0.108,0.021-0.155
		s0-0.099,0-0.155c0-0.157-0.034-0.348-0.102-0.569c-0.068-0.222-0.15-0.449-0.248-0.682c-0.096-0.232-0.196-0.456-0.3-0.671
		c-0.104-0.214-0.188-0.394-0.252-0.536L43.329,22.04z M38.436,21.203h0.654c0.301,0,0.621-0.002,0.96-0.006
		c0.34-0.003,0.682-0.005,1.025-0.005s0.676-0.002,0.998-0.006c0.322-0.003,0.612-0.005,0.869-0.005l-2.221-4.743L38.436,21.203z"/>
	<path fill="#545454" d="M52.493,20.764c-0.143,0.021-0.285,0.033-0.424,0.036c-0.14,0.005-0.281,0.007-0.424,0.007
		c-0.114,0-0.24-0.004-0.375-0.012c-0.136-0.007-0.275-0.018-0.418-0.031v0.525c0,0.637,0.007,1.193,0.021,1.669
		c0.014,0.475,0.034,0.885,0.059,1.228c0.024,0.344,0.055,0.632,0.091,0.864s0.079,0.424,0.129,0.574v0.043h-2.479v-0.043
		c0.05-0.15,0.095-0.344,0.135-0.579c0.039-0.236,0.071-0.527,0.096-0.875c0.025-0.347,0.045-0.76,0.06-1.24
		c0.014-0.478,0.021-1.04,0.021-1.684v-2.704c0-0.645-0.007-1.204-0.021-1.68c-0.015-0.475-0.034-0.887-0.06-1.234
		c-0.025-0.347-0.057-0.639-0.096-0.874c-0.04-0.236-0.084-0.429-0.135-0.58v-0.043c0.115,0.008,0.236,0.015,0.365,0.022
		c0.107,0.006,0.227,0.013,0.359,0.016c0.132,0.004,0.267,0.005,0.403,0.005c0.229,0,0.569-0.021,1.02-0.063s0.98-0.065,1.588-0.065
		c0.615,0,1.175,0.076,1.68,0.226c0.504,0.15,0.937,0.365,1.298,0.645c0.361,0.278,0.64,0.618,0.837,1.019s0.295,0.849,0.295,1.342
		c0,0.387-0.054,0.739-0.161,1.057c-0.107,0.319-0.258,0.605-0.451,0.858c-0.193,0.255-0.422,0.478-0.687,0.672
		c-0.265,0.191-0.558,0.36-0.88,0.504l2.243,3.165c0.193,0.257,0.388,0.505,0.584,0.74c0.197,0.236,0.385,0.447,0.564,0.633
		c0.179,0.187,0.347,0.343,0.504,0.467c0.158,0.126,0.29,0.21,0.397,0.253v0.043H55.82c0-0.064-0.045-0.177-0.134-0.339
		c-0.09-0.16-0.193-0.328-0.311-0.504c-0.119-0.176-0.236-0.345-0.354-0.51c-0.118-0.164-0.206-0.286-0.263-0.364L52.493,20.764z
		 M50.852,20.065c0.143,0.021,0.288,0.038,0.434,0.048c0.147,0.012,0.288,0.017,0.424,0.017c0.894,0,1.572-0.239,2.034-0.72
		c0.461-0.479,0.692-1.197,0.692-2.156c0-0.787-0.185-1.409-0.553-1.867c-0.368-0.458-0.91-0.687-1.625-0.687
		c-0.229,0-0.432,0.009-0.607,0.026c-0.175,0.019-0.323,0.038-0.445,0.06c-0.136,0.028-0.254,0.057-0.354,0.086V20.065z"/>
	<path fill="#545454" d="M69.33,23.273l-0.837,1.997c-0.208,0.092-0.442,0.177-0.703,0.251c-0.261,0.076-0.531,0.139-0.81,0.188
		c-0.279,0.05-0.563,0.088-0.853,0.112c-0.291,0.024-0.564,0.038-0.821,0.038c-0.901,0-1.737-0.132-2.505-0.397
		c-0.77-0.264-1.433-0.652-1.991-1.164s-0.995-1.14-1.309-1.884c-0.315-0.744-0.472-1.595-0.472-2.553
		c0-0.845,0.165-1.628,0.494-2.351s0.783-1.351,1.363-1.884c0.579-0.532,1.264-0.949,2.055-1.25c0.791-0.3,1.647-0.45,2.57-0.45
		c0.207,0,0.427,0.009,0.66,0.026c0.232,0.019,0.463,0.045,0.692,0.081c0.229,0.035,0.451,0.077,0.665,0.123
		c0.215,0.046,0.415,0.096,0.601,0.145l0.805,1.932l-0.129,0.075c-0.193-0.236-0.423-0.454-0.692-0.654
		c-0.268-0.2-0.562-0.371-0.88-0.51c-0.318-0.14-0.652-0.248-1.003-0.328c-0.351-0.077-0.708-0.117-1.073-0.117
		c-0.594,0-1.136,0.104-1.625,0.312c-0.49,0.206-0.909,0.509-1.256,0.906c-0.347,0.396-0.617,0.882-0.81,1.454
		c-0.193,0.573-0.29,1.22-0.29,1.942c0,0.815,0.093,1.576,0.279,2.279c0.186,0.706,0.465,1.317,0.837,1.836
		c0.372,0.519,0.837,0.927,1.395,1.224c0.558,0.296,1.209,0.445,1.953,0.445c0.358,0,0.71-0.045,1.057-0.135
		c0.347-0.089,0.677-0.217,0.987-0.38c0.312-0.166,0.596-0.364,0.854-0.597c0.257-0.231,0.479-0.491,0.665-0.777L69.33,23.273z"/>
	<path fill="#545454" d="M73.225,14.126c0.737-0.003,1.42-0.011,2.049-0.021s1.171-0.022,1.625-0.037s0.753-0.037,0.896-0.065
		l-0.418,1.159c-0.193-0.049-0.412-0.097-0.655-0.14c-0.215-0.035-0.474-0.069-0.778-0.102c-0.305-0.032-0.657-0.048-1.057-0.048
		c-0.143,0-0.308,0.005-0.494,0.016s-0.365,0.023-0.537,0.038c-0.2,0.015-0.404,0.028-0.611,0.043v4.238
		c0.579-0.007,1.102-0.021,1.566-0.043s0.862-0.05,1.191-0.086c0.387-0.028,0.727-0.068,1.02-0.117l-0.257,1.276
		c-0.394-0.05-0.791-0.093-1.191-0.129c-0.343-0.036-0.722-0.066-1.137-0.091s-0.812-0.038-1.191-0.038v4.872
		c0.665,0,1.277-0.027,1.835-0.081c0.558-0.053,1.044-0.112,1.459-0.177c0.487-0.079,0.927-0.168,1.32-0.268l-0.247,1.405
		c-0.107-0.008-0.281-0.017-0.521-0.026c-0.24-0.012-0.49-0.019-0.751-0.021c-0.261-0.005-0.506-0.009-0.735-0.012
		c-0.229-0.003-0.386-0.005-0.472-0.005h-4.067v-0.043c0.05-0.15,0.095-0.344,0.135-0.579c0.039-0.236,0.071-0.527,0.096-0.875
		c0.025-0.347,0.045-0.76,0.06-1.24c0.014-0.478,0.021-1.04,0.021-1.684v-2.704c0-0.645-0.007-1.204-0.021-1.68
		c-0.015-0.475-0.034-0.887-0.06-1.234c-0.025-0.347-0.057-0.639-0.096-0.874c-0.04-0.236-0.084-0.429-0.135-0.58v-0.043
		C71.769,14.131,72.488,14.13,73.225,14.126z"/>
	<path fill="#545454" d="M82.432,24.83c0.666,0,1.279-0.026,1.841-0.081c0.561-0.053,1.053-0.112,1.475-0.177
		c0.494-0.079,0.941-0.169,1.341-0.269l-0.247,1.428c-0.1-0.008-0.271-0.017-0.51-0.026c-0.24-0.012-0.492-0.019-0.756-0.021
		c-0.265-0.005-0.512-0.009-0.741-0.012s-0.386-0.005-0.472-0.005h-4.11v-0.043c0.05-0.15,0.095-0.344,0.134-0.579
		c0.039-0.236,0.071-0.527,0.096-0.875c0.025-0.347,0.045-0.76,0.06-1.24c0.014-0.478,0.021-1.04,0.021-1.684v-2.704
		c0-0.645-0.007-1.204-0.021-1.68c-0.015-0.475-0.035-0.887-0.06-1.234c-0.025-0.347-0.057-0.639-0.096-0.874
		c-0.04-0.236-0.084-0.429-0.134-0.58v-0.043h2.479v0.043c-0.05,0.151-0.093,0.344-0.129,0.58c-0.036,0.235-0.066,0.527-0.091,0.874
		c-0.025,0.348-0.045,0.76-0.06,1.234c-0.014,0.476-0.021,1.035-0.021,1.68V24.83z"/>
	<path fill="#545454" d="M91.113,24.83c0.666,0,1.279-0.026,1.841-0.081c0.561-0.053,1.053-0.112,1.475-0.177
		c0.494-0.079,0.941-0.169,1.341-0.269l-0.247,1.428c-0.1-0.008-0.271-0.017-0.51-0.026c-0.24-0.012-0.492-0.019-0.756-0.021
		c-0.265-0.005-0.512-0.009-0.741-0.012s-0.386-0.005-0.472-0.005h-4.11v-0.043c0.05-0.15,0.095-0.344,0.134-0.579
		c0.039-0.236,0.071-0.527,0.096-0.875c0.025-0.347,0.045-0.76,0.06-1.24c0.014-0.478,0.021-1.04,0.021-1.684v-2.704
		c0-0.645-0.007-1.204-0.021-1.68c-0.015-0.475-0.035-0.887-0.06-1.234c-0.025-0.347-0.057-0.639-0.096-0.874
		c-0.04-0.236-0.084-0.429-0.134-0.58v-0.043h2.479v0.043c-0.05,0.151-0.093,0.344-0.129,0.58c-0.036,0.235-0.066,0.527-0.091,0.874
		c-0.026,0.348-0.045,0.76-0.06,1.234c-0.014,0.476-0.021,1.035-0.021,1.68V24.83z"/>
	<path fill="#545454" d="M106.447,18.499c0-0.637-0.004-1.192-0.011-1.664c-0.007-0.472-0.021-0.879-0.043-1.223
		c-0.021-0.343-0.046-0.631-0.075-0.864c-0.028-0.232-0.064-0.423-0.107-0.574v-0.043h1.578v0.043
		c-0.043,0.151-0.079,0.344-0.107,0.58c-0.028,0.235-0.054,0.527-0.075,0.874c-0.021,0.348-0.036,0.76-0.043,1.234
		c-0.007,0.476-0.011,1.035-0.011,1.68v3.08c0,0.772-0.12,1.431-0.359,1.975c-0.24,0.543-0.571,0.989-0.993,1.335
		c-0.422,0.347-0.925,0.602-1.508,0.762c-0.583,0.161-1.221,0.241-1.915,0.241c-0.701,0-1.352-0.077-1.953-0.229
		c-0.601-0.154-1.121-0.4-1.562-0.735c-0.439-0.337-0.787-0.772-1.041-1.31c-0.254-0.536-0.381-1.188-0.381-1.952v-3.166
		c0-0.645-0.007-1.204-0.021-1.68c-0.015-0.475-0.036-0.887-0.064-1.234c-0.029-0.347-0.061-0.639-0.097-0.874
		c-0.036-0.236-0.079-0.429-0.129-0.58v-0.043h2.479v0.043c-0.05,0.151-0.093,0.342-0.129,0.574
		c-0.036,0.233-0.066,0.521-0.091,0.864c-0.025,0.344-0.045,0.751-0.059,1.223c-0.015,0.472-0.021,1.027-0.021,1.664v3.209
		c0,0.636,0.096,1.161,0.29,1.571c0.193,0.411,0.447,0.738,0.762,0.981c0.315,0.243,0.673,0.414,1.073,0.51
		c0.4,0.097,0.812,0.146,1.234,0.146c0.429,0,0.846-0.049,1.25-0.146c0.404-0.096,0.765-0.267,1.083-0.51s0.572-0.57,0.762-0.981
		c0.189-0.41,0.284-0.936,0.284-1.571V18.499z"/>
	<path fill="#545454" d="M115.804,16.374h-0.214c-0.043-0.122-0.112-0.274-0.209-0.461c-0.096-0.186-0.225-0.369-0.386-0.548
		c-0.161-0.179-0.359-0.331-0.596-0.456c-0.236-0.124-0.519-0.188-0.848-0.188c-0.25,0-0.474,0.041-0.67,0.123
		c-0.197,0.083-0.363,0.195-0.499,0.339c-0.136,0.143-0.24,0.313-0.311,0.509c-0.072,0.197-0.107,0.41-0.107,0.639
		c0,0.372,0.112,0.727,0.338,1.062c0.225,0.338,0.506,0.672,0.842,1.004c0.336,0.333,0.701,0.667,1.095,1.004
		c0.394,0.336,0.758,0.687,1.094,1.052c0.336,0.364,0.618,0.751,0.842,1.158c0.226,0.408,0.338,0.845,0.338,1.31
		c0,0.343-0.063,0.697-0.188,1.063c-0.125,0.364-0.327,0.693-0.606,0.987c-0.279,0.292-0.637,0.534-1.073,0.724
		c-0.437,0.19-0.966,0.284-1.588,0.284c-0.343,0-0.67-0.028-0.982-0.086c-0.311-0.058-0.597-0.127-0.858-0.208
		c-0.261-0.082-0.494-0.172-0.697-0.27c-0.204-0.096-0.374-0.187-0.51-0.272l0.193-2.028h0.225c0.072,0.25,0.177,0.5,0.316,0.751
		c0.14,0.25,0.312,0.478,0.515,0.682c0.204,0.203,0.443,0.369,0.719,0.493c0.275,0.125,0.592,0.188,0.95,0.188
		c0.25,0,0.486-0.041,0.708-0.124s0.413-0.199,0.574-0.349c0.161-0.151,0.288-0.335,0.381-0.553s0.14-0.463,0.14-0.734
		c0-0.323-0.064-0.622-0.193-0.896s-0.3-0.541-0.515-0.794c-0.214-0.254-0.456-0.499-0.725-0.736
		c-0.268-0.234-0.545-0.475-0.831-0.718s-0.564-0.492-0.832-0.746c-0.269-0.254-0.51-0.527-0.725-0.821
		c-0.214-0.293-0.386-0.605-0.515-0.938c-0.128-0.332-0.193-0.699-0.193-1.1c0-0.423,0.089-0.802,0.268-1.138
		s0.415-0.62,0.708-0.854c0.293-0.232,0.629-0.411,1.008-0.536c0.379-0.125,0.773-0.188,1.181-0.188c0.3,0,0.581,0.022,0.842,0.065
		c0.261,0.043,0.497,0.094,0.708,0.155c0.21,0.062,0.395,0.122,0.552,0.182c0.157,0.062,0.286,0.109,0.386,0.146L115.804,16.374z"/>
	<path fill="#545454" d="M131.89,12.726h-0.236c-0.057-0.165-0.148-0.351-0.273-0.558c-0.125-0.208-0.29-0.403-0.493-0.585
		c-0.204-0.183-0.45-0.334-0.741-0.457c-0.289-0.12-0.631-0.182-1.024-0.182c-0.351,0-0.661,0.053-0.934,0.161
		c-0.271,0.106-0.499,0.258-0.682,0.45c-0.182,0.194-0.319,0.423-0.413,0.687c-0.093,0.266-0.139,0.558-0.139,0.881
		c0,0.516,0.145,1.007,0.435,1.475c0.289,0.47,0.652,0.933,1.089,1.39c0.436,0.458,0.908,0.916,1.416,1.374s0.98,0.933,1.416,1.428
		c0.438,0.492,0.801,1.01,1.09,1.55c0.29,0.541,0.435,1.121,0.435,1.744c0,0.465-0.08,0.932-0.241,1.399
		c-0.161,0.47-0.41,0.89-0.746,1.262s-0.77,0.674-1.299,0.906c-0.529,0.233-1.158,0.35-1.889,0.35c-0.407,0-0.795-0.038-1.164-0.113
		c-0.368-0.075-0.707-0.169-1.02-0.279c-0.311-0.11-0.59-0.23-0.837-0.359c-0.246-0.129-0.448-0.246-0.606-0.354l0.248-2.371h0.268
		c0.078,0.335,0.207,0.656,0.387,0.959c0.178,0.305,0.398,0.574,0.66,0.806c0.26,0.232,0.559,0.418,0.896,0.558
		c0.336,0.14,0.704,0.21,1.104,0.21c0.365,0,0.692-0.056,0.982-0.167c0.289-0.111,0.539-0.265,0.746-0.462
		c0.207-0.196,0.366-0.43,0.478-0.702c0.11-0.271,0.166-0.568,0.166-0.891c0-0.451-0.082-0.867-0.247-1.25
		c-0.164-0.383-0.381-0.746-0.648-1.09c-0.27-0.343-0.573-0.675-0.912-0.998c-0.34-0.321-0.689-0.645-1.047-0.971
		c-0.357-0.325-0.707-0.66-1.046-1.004c-0.341-0.343-0.644-0.709-0.913-1.1c-0.268-0.389-0.484-0.808-0.648-1.255
		s-0.246-0.939-0.246-1.476c0-0.565,0.108-1.075,0.326-1.529c0.219-0.453,0.508-0.842,0.869-1.165
		c0.361-0.32,0.771-0.567,1.229-0.739C128.142,10.086,128.613,10,129.1,10c0.358,0,0.687,0.028,0.987,0.086
		c0.301,0.057,0.57,0.125,0.811,0.204c0.239,0.078,0.449,0.157,0.627,0.235c0.18,0.08,0.326,0.143,0.44,0.194L131.89,12.726z"/>
	<path fill="#545454" d="M147.921,12.64l-0.096,0.043c-0.559-0.515-1.229-0.927-2.013-1.233c-0.782-0.309-1.644-0.462-2.581-0.462
		c-0.9,0-1.727,0.141-2.479,0.424c-0.751,0.283-1.396,0.692-1.938,1.229c-0.539,0.536-0.959,1.194-1.26,1.975
		c-0.301,0.779-0.451,1.667-0.451,2.661c0,1.095,0.144,2.116,0.43,3.063c0.286,0.948,0.712,1.77,1.277,2.462
		c0.564,0.695,1.271,1.24,2.119,1.638c0.848,0.396,1.836,0.595,2.967,0.595c0.408,0,0.815-0.043,1.223-0.129
		c0.408-0.086,0.8-0.213,1.176-0.38c0.375-0.168,0.729-0.372,1.063-0.612c0.332-0.239,0.635-0.513,0.906-0.82l0.118,0.075
		l-0.858,2.189c-0.537,0.206-1.129,0.365-1.776,0.477c-0.647,0.11-1.3,0.167-1.958,0.167c-1.323,0-2.535-0.192-3.632-0.574
		c-1.099-0.383-2.043-0.925-2.833-1.626c-0.791-0.701-1.406-1.543-1.846-2.527c-0.44-0.983-0.66-2.077-0.66-3.278
		c0-0.679,0.088-1.349,0.263-2.007c0.175-0.657,0.431-1.284,0.767-1.877c0.337-0.595,0.752-1.14,1.246-1.638
		c0.493-0.496,1.057-0.928,1.689-1.292c0.633-0.365,1.331-0.649,2.092-0.854c0.763-0.203,1.587-0.306,2.475-0.306
		c1.381,0,2.66,0.212,3.842,0.633L147.921,12.64z"/>
</g>
</svg>
