<?xml version="1.0" encoding="utf-8"?>
<!-- Generator: Adobe Illustrator 16.0.0, SVG Export Plug-In . SVG Version: 6.00 Build 0)  -->
<!DOCTYPE svg PUBLIC "-//W3C//DTD SVG 1.1//EN" "http://www.w3.org/Graphics/SVG/1.1/DTD/svg11.dtd">
<svg version="1.1" id="图层_1" xmlns="http://www.w3.org/2000/svg" xmlns:xlink="http://www.w3.org/1999/xlink" x="0px" y="0px"
	 width="258px" height="36px" viewBox="0 0 258 36" enable-background="new 0 0 258 36" xml:space="preserve">
<g>
	<path fill="#545454" d="M15.166,22.895h8.747V9.598l-4.995,10.699L13.923,9.574v13.986l-0.667-0.023V8h0.667l4.994,10.721
		l4.995-10.699L24.578,8v15.561l-9.412-0.023V22.895z"/>
	<path fill="#545454" d="M37.497,22.252c-0.814,1.02-2.146,1.529-3.997,1.529c-1.85,0-3.174-0.525-3.973-1.576
		s-1.199-2.744-1.199-5.082c0-2.34,0.4-4.031,1.199-5.084c0.799-1.051,2.123-1.576,3.973-1.576c2.146,0,3.604,0.703,4.374,2.109
		l-5.438,4.551h-1.043l5.617-4.686c-0.652-0.871-1.821-1.309-3.508-1.309c-0.74,0-1.361,0.078-1.864,0.234
		c-0.503,0.154-0.965,0.443-1.387,0.863c-0.421,0.424-0.736,1.037-0.943,1.844s-0.311,1.824-0.311,3.053s0.104,2.246,0.311,3.051
		c0.207,0.809,0.522,1.422,0.943,1.844c0.422,0.42,0.884,0.711,1.387,0.865s1.125,0.232,1.864,0.232
		c1.688,0,2.856-0.436,3.508-1.309L37.497,22.252z"/>
	<path fill="#545454" d="M46.22,14.902l2.952-2.465c-0.651-0.871-1.82-1.309-3.507-1.309c-0.74,0-1.361,0.078-1.864,0.234
		c-0.503,0.154-0.966,0.443-1.387,0.863c-0.422,0.424-0.736,1.037-0.944,1.844s-0.311,1.824-0.311,3.053s0.103,2.246,0.311,3.051
		c0.208,0.809,0.522,1.422,0.944,1.844c0.421,0.42,0.884,0.711,1.387,0.865s1.124,0.232,1.864,0.232c1.672,0,2.834-0.43,3.485-1.287
		v-3.93h0.666v5.861c0,2.826-1.295,4.24-3.884,4.24h-2.597v-0.666h2.597c1.11,0,1.923-0.293,2.441-0.877
		c0.518-0.586,0.777-1.699,0.777-3.342v-0.332c-0.799,0.666-1.961,0.998-3.485,0.998c-1.85,0-3.174-0.525-3.973-1.576
		c-0.799-1.051-1.199-2.744-1.199-5.082c0-2.34,0.399-4.031,1.199-5.084c0.799-1.051,2.124-1.576,3.973-1.576
		c2.146,0,3.604,0.703,4.373,2.109l-2.774,2.33H46.22z"/>
	<path fill="#545454" d="M59.117,17.1l3.019,6.461h-0.732l-3.108-6.66c0.03-0.016,0.159-0.076,0.389-0.189
		c0.229-0.111,0.389-0.191,0.478-0.242c0.089-0.053,0.236-0.145,0.444-0.279c0.207-0.131,0.363-0.262,0.466-0.389
		c0.103-0.125,0.218-0.273,0.344-0.443s0.218-0.363,0.278-0.578c0.059-0.213,0.088-0.445,0.088-0.697
		c0-0.934-0.444-1.621-1.331-2.064c-0.888-0.445-1.991-0.666-3.308-0.666h-1.776v12.209h-0.666V10.686h2.442
		c1.746,0,3.066,0.303,3.962,0.91c0.895,0.607,1.343,1.436,1.343,2.486c0,0.68-0.229,1.283-0.688,1.809S59.753,16.82,59.117,17.1z"
		/>
	<path fill="#545454" d="M65.155,10.686h0.666v12.875h-0.666V10.686z"/>
	<path fill="#545454" d="M72.124,22.895h8.569V11.617l-4.995,4.994l-4.994-4.994v11.943l-0.666-0.023V10.686h0.666l4.994,4.994
		l4.995-4.994h0.666v12.875l-9.234-0.023V22.895z"/>
</g>
</svg>
