<?xml version="1.0" encoding="utf-8"?>
<!-- Generator: Adobe Illustrator 16.0.0, SVG Export Plug-In . SVG Version: 6.00 Build 0)  -->
<!DOCTYPE svg PUBLIC "-//W3C//DTD SVG 1.1//EN" "http://www.w3.org/Graphics/SVG/1.1/DTD/svg11.dtd">
<svg version="1.1" id="图层_1" xmlns="http://www.w3.org/2000/svg" xmlns:xlink="http://www.w3.org/1999/xlink" x="0px" y="0px"
	 width="258px" height="36px" viewBox="0 0 258 36" enable-background="new 0 0 258 36" xml:space="preserve">
<g>
	<path fill="#545454" d="M13.499,25.414c-0.161-0.16-0.242-0.41-0.242-0.748V10.99c0-0.338,0.081-0.588,0.242-0.748
		C13.66,10.08,13.933,10,14.316,10h1.703c0.276,0,0.492,0.035,0.645,0.104s0.276,0.203,0.369,0.402l3.983,9.395l4.006-9.395
		c0.092-0.199,0.215-0.334,0.369-0.402C25.544,10.035,25.759,10,26.035,10h1.704c0.384,0,0.656,0.08,0.817,0.242
		c0.161,0.16,0.242,0.41,0.242,0.748v13.676c0,0.338-0.081,0.588-0.242,0.748s-0.426,0.242-0.794,0.242h-1.404
		c-0.384,0-0.656-0.082-0.817-0.242s-0.241-0.41-0.241-0.748v-8.703l-3.085,6.883c-0.153,0.324-0.303,0.549-0.449,0.68
		s-0.396,0.197-0.748,0.197c-0.338,0-0.587-0.066-0.749-0.197s-0.311-0.355-0.449-0.68l-3.062-6.883v8.703
		c0,0.338-0.081,0.588-0.242,0.748s-0.434,0.242-0.818,0.242h-1.404C13.925,25.656,13.66,25.574,13.499,25.414z"/>
	<path fill="#545454" d="M31.515,12.693c-0.246-0.246-0.369-0.545-0.369-0.898v-0.529c0-0.354,0.123-0.652,0.369-0.896
		C31.76,10.123,32.098,10,32.528,10h1.335c0.445,0,0.791,0.123,1.037,0.369c0.245,0.244,0.368,0.543,0.368,0.896v0.529
		c0,0.354-0.123,0.652-0.368,0.898c-0.246,0.244-0.591,0.369-1.037,0.369h-1.335C32.098,13.063,31.76,12.938,31.515,12.693z
		 M31.538,25.414c-0.154-0.16-0.231-0.41-0.231-0.748v-9.049c0-0.354,0.077-0.609,0.231-0.771c0.153-0.16,0.422-0.242,0.806-0.242
		h1.703c0.384,0,0.656,0.086,0.817,0.254s0.242,0.422,0.242,0.76v9.049c0,0.338-0.081,0.588-0.242,0.748s-0.434,0.242-0.817,0.242
		h-1.703C31.96,25.656,31.691,25.574,31.538,25.414z"/>
	<path fill="#545454" d="M39.849,24.85c-0.722-0.768-1.082-1.826-1.082-3.178v-4.396h-1.128c-0.369,0-0.614-0.07-0.737-0.207
		c-0.123-0.139-0.184-0.383-0.184-0.736V15.57c0-0.352,0.061-0.602,0.184-0.748c0.123-0.145,0.368-0.219,0.737-0.219h1.128v-0.92
		c0-0.338,0.073-0.672,0.218-1.002c0.146-0.33,0.357-0.74,0.633-1.232c0.123-0.213,0.238-0.357,0.345-0.426s0.299-0.102,0.576-0.102
		h1.06c0.353,0,0.602,0.076,0.748,0.229c0.146,0.154,0.219,0.4,0.219,0.736v2.717h2.279c0.368,0,0.613,0.074,0.736,0.219
		c0.123,0.146,0.185,0.396,0.185,0.748v0.762c0,0.354-0.062,0.598-0.185,0.736c-0.123,0.137-0.368,0.207-0.736,0.207h-2.279v4.305
		c0,0.6,0.107,1.029,0.322,1.289c0.214,0.262,0.575,0.393,1.082,0.393c0.307,0,0.564-0.039,0.771-0.115
		c0.208-0.078,0.441-0.199,0.703-0.369c0.123-0.076,0.214-0.115,0.276-0.115c0.138,0,0.253,0.086,0.346,0.254l0.852,1.451
		c0.077,0.121,0.115,0.223,0.115,0.299c0,0.107-0.092,0.223-0.276,0.346C45.789,25.67,44.546,26,43.026,26
		C41.629,26,40.571,25.617,39.849,24.85z"/>
	<path fill="#545454" d="M48.724,25.414c-0.161-0.16-0.242-0.41-0.242-0.748v-9.395c0-0.26,0.046-0.438,0.138-0.529
		c0.092-0.092,0.277-0.139,0.553-0.139h1.842c0.184,0,0.318,0.031,0.403,0.094c0.084,0.061,0.134,0.168,0.149,0.322l0.093,0.736
		c0.92-0.998,2.072-1.496,3.453-1.496c0.445,0,0.81,0.033,1.094,0.104c0.284,0.068,0.533,0.18,0.748,0.334
		c0.138,0.105,0.207,0.215,0.207,0.322c0,0.045-0.015,0.113-0.046,0.205l-0.576,1.729c-0.062,0.184-0.161,0.277-0.299,0.277
		c-0.062,0-0.138-0.025-0.23-0.07c-0.399-0.199-0.86-0.299-1.381-0.299c-0.675,0-1.236,0.191-1.681,0.574
		c-0.446,0.385-0.667,0.898-0.667,1.543v5.688c0,0.338-0.077,0.588-0.23,0.748c-0.154,0.16-0.422,0.242-0.806,0.242h-1.704
		C49.158,25.656,48.885,25.574,48.724,25.414z"/>
</g>
</svg>
