<?xml version="1.0" encoding="utf-8"?>
<!-- Generator: Adobe Illustrator 16.0.0, SVG Export Plug-In . SVG Version: 6.00 Build 0)  -->
<!DOCTYPE svg PUBLIC "-//W3C//DTD SVG 1.1//EN" "http://www.w3.org/Graphics/SVG/1.1/DTD/svg11.dtd">
<svg version="1.1" id="图层_1" xmlns="http://www.w3.org/2000/svg" xmlns:xlink="http://www.w3.org/1999/xlink" x="0px" y="0px"
	 width="258px" height="36px" viewBox="0 0 258 36" enable-background="new 0 0 258 36" xml:space="preserve">
<g>
	<path fill="#545454" d="M25.979,11.725c-0.514-0.512-1.186-0.768-2.019-0.768c-1.179,0-2.22,0.328-3.122,0.986
		c-0.957,0.688-1.436,1.52-1.436,2.498c0,0.764,0.357,1.484,1.071,2.164c-0.263,0.361-0.676,0.666-1.238,0.916
		c-0.153,0.068-0.309,0.104-0.468,0.104s-0.342-0.049-0.546-0.146c-0.205-0.096-0.387-0.234-0.546-0.416
		c-0.361-0.408-0.542-0.896-0.542-1.467c0-0.568,0.101-1.096,0.302-1.582c0.201-0.484,0.476-0.938,0.822-1.357
		c0.347-0.418,0.75-0.799,1.212-1.139c0.461-0.34,0.952-0.635,1.472-0.885c1.089-0.506,2.152-0.758,3.189-0.758
		s1.902,0.186,2.596,0.561c1.609,0.867,2.414,2.824,2.414,5.867c0,0.924-0.073,1.951-0.218,3.08
		c1.179-1.338,3.465-3.402,6.856-6.189c0.465-0.375,0.898-0.736,1.301-1.082c0.375-0.951,0.683-1.576,0.926-1.873
		c0.396-0.492,0.735-0.738,1.02-0.738c0.284,0,0.479,0.07,0.583,0.213c0.104,0.141,0.156,0.277,0.156,0.404
		c0,0.129-0.036,0.264-0.109,0.4c-0.072,0.141-0.165,0.289-0.275,0.449c-0.229,0.318-0.479,0.627-0.749,0.926
		c-0.687,3.725-1.03,7.48-1.03,11.268c0,1.354-0.558,2.275-1.675,2.768c-0.506,0.223-1.055,0.334-1.644,0.334
		c-0.888,0-1.651-0.213-2.289-0.637c-0.25-0.166-0.444-0.355-0.583-0.57c0.756-0.633,1.862-2.762,3.319-6.389
		c0.583-1.457,1.12-2.941,1.613-4.453l-2.05,2.049c-2.601,2.602-4.484,4.697-5.649,6.283c-0.104,0.82-0.396,1.684-0.874,2.592
		c-0.298,0.549-0.543,0.912-0.733,1.094c-0.191,0.18-0.335,0.27-0.432,0.27c-0.652,0-1.342-0.195-2.07-0.584
		c-0.729-0.387-1.093-0.752-1.093-1.092c0-0.457,0.43-1.182,1.291-2.174c0.236-0.277,0.475-0.537,0.718-0.781
		c1.068-2.336,1.602-4.557,1.602-6.658c0-0.25-0.019-0.619-0.057-1.113c-0.039-0.492-0.186-1.01-0.442-1.551
		c-0.971,3.191-2.362,6.146-4.172,8.865c-1.276,1.908-2.584,3.256-3.922,4.047c-0.694,0.41-1.387,0.615-2.081,0.615
		s-1.259-0.107-1.696-0.324c-0.909-0.449-1.363-1.209-1.363-2.277c0-0.693,0.177-1.328,0.531-1.904
		c0.194-0.313,0.413-0.541,0.655-0.688c0.937,0.666,1.88,1,2.83,1c1.401,0,2.792-0.768,4.172-2.301
		c1.214-1.352,2.414-3.318,3.6-5.898C25.423,12.988,25.715,12.336,25.979,11.725z"/>
	<path fill="#545454" d="M42.958,26.125l-0.208,0.012c-1.096,0-1.932-0.271-2.507-0.813c-0.541-0.506-0.812-1.193-0.812-2.061
		c0-1.193,0.476-2.334,1.426-3.424c0.922-1.053,2.042-1.791,3.36-2.215c-0.042-0.313,0.073-0.568,0.344-0.77
		c0.194-0.146,0.515-0.219,0.962-0.219c0.447,0,0.879,0.041,1.295,0.125c0.416,0.082,0.835,0.268,1.259,0.551
		c0.916,0.604,1.374,1.416,1.374,2.436c0,1.102-0.274,2.15-0.822,3.143c1.193-0.258,2.237-1.055,3.132-2.395
		c0.312-0.02,0.468,0.109,0.468,0.385c0,0.111-0.035,0.246-0.104,0.406c-0.943,2.24-2.83,3.725-5.66,4.453
		c-1.013,0.264-2.164,0.396-3.454,0.396L42.958,26.125z M42.782,21.568c0,0.805,0.336,1.207,1.009,1.207
		c0.569,0,1.141-0.344,1.717-1.029c0.604-0.715,0.905-1.439,0.905-2.176c0-0.748-0.36-1.244-1.082-1.488
		c-1.241,0.348-2.036,1.125-2.382,2.332C42.837,20.781,42.782,21.166,42.782,21.568z"/>
	<path fill="#545454" d="M58.742,11.611c0.77,0,1.155,0.648,1.155,1.945c0,1.715-1.041,3.523-3.121,5.432
		c-0.791,0.727-1.623,1.355-2.497,1.883c0.09,1.068,0.482,1.68,1.176,1.832c0.222,0.047,0.483,0.072,0.786,0.072
		c0.301,0,0.627-0.041,0.978-0.119c0.35-0.08,0.699-0.211,1.045-0.391c0.77-0.396,1.412-0.984,1.925-1.77
		c0.312-0.02,0.468,0.109,0.468,0.385c0,0.111-0.075,0.344-0.224,0.697c-0.149,0.354-0.424,0.814-0.827,1.379
		c-0.402,0.566-0.885,1.078-1.446,1.535c-1.29,1.055-2.723,1.582-4.297,1.582c-1.817,0-2.917-0.777-3.298-2.332
		c-0.125-0.484-0.188-1.027-0.188-1.627c0-0.602,0.09-1.205,0.271-1.816c0.18-0.609,0.423-1.215,0.729-1.816
		c0.305-0.6,0.661-1.186,1.066-1.764c0.406-0.574,0.836-1.115,1.29-1.623c0.455-0.504,0.918-0.971,1.39-1.398
		c0.472-0.426,0.929-0.797,1.373-1.107C57.445,11.938,58.194,11.611,58.742,11.611z M54.279,19.613
		c1.165-0.73,2.146-1.604,2.944-2.623c0.812-1.033,1.217-1.945,1.217-2.736c0-0.395-0.083-0.68-0.25-0.854
		c-0.056-0.063-0.153-0.094-0.292-0.094s-0.333,0.09-0.583,0.266c-0.25,0.178-0.506,0.418-0.77,0.723
		c-0.264,0.307-0.522,0.664-0.775,1.078c-0.253,0.412-0.483,0.852-0.692,1.316C54.622,17.736,54.355,18.711,54.279,19.613z"/>
	<path fill="#545454" d="M67.17,11.611c0.77,0,1.154,0.648,1.154,1.945c0,1.715-1.04,3.523-3.121,5.432
		c-0.791,0.727-1.623,1.355-2.497,1.883c0.09,1.068,0.482,1.68,1.175,1.832c0.222,0.047,0.483,0.072,0.786,0.072
		c0.301,0,0.627-0.041,0.979-0.119c0.35-0.08,0.697-0.211,1.045-0.391c0.77-0.396,1.412-0.984,1.925-1.77
		c0.312-0.02,0.468,0.109,0.468,0.385c0,0.111-0.074,0.344-0.224,0.697s-0.425,0.814-0.827,1.379
		c-0.402,0.566-0.885,1.078-1.445,1.535c-1.291,1.055-2.723,1.582-4.298,1.582c-1.817,0-2.917-0.777-3.298-2.332
		c-0.125-0.484-0.187-1.027-0.187-1.627c0-0.602,0.09-1.205,0.271-1.816c0.18-0.609,0.423-1.215,0.728-1.816
		c0.306-0.6,0.661-1.186,1.066-1.764c0.406-0.574,0.836-1.115,1.29-1.623c0.455-0.504,0.918-0.971,1.389-1.398
		c0.473-0.426,0.93-0.797,1.373-1.107C65.873,11.938,66.622,11.611,67.17,11.611z M62.707,19.613
		c1.165-0.73,2.147-1.604,2.944-2.623c0.813-1.033,1.218-1.945,1.218-2.736c0-0.395-0.083-0.68-0.249-0.854
		c-0.057-0.063-0.153-0.094-0.292-0.094s-0.333,0.09-0.583,0.266c-0.25,0.178-0.506,0.418-0.77,0.723
		c-0.264,0.307-0.522,0.664-0.775,1.078c-0.254,0.412-0.484,0.852-0.692,1.316C63.05,17.736,62.783,18.711,62.707,19.613z"/>
	<path fill="#545454" d="M71.238,21.984c0.402,0.723,1.314,1.082,2.736,1.082c0.888,0,1.725-0.217,2.513-0.65
		c0.786-0.434,1.462-1.072,2.023-1.92c0.312-0.02,0.468,0.109,0.468,0.385c0,0.313-0.186,0.762-0.557,1.348
		s-0.718,1.061-1.039,1.422c-0.324,0.359-0.685,0.693-1.082,1.004c-0.4,0.307-0.828,0.572-1.285,0.795
		c-0.992,0.486-2.037,0.729-3.133,0.729c-2.205,0-3.638-0.611-4.297-1.832c-0.236-0.443-0.354-0.951-0.354-1.523
		s0.1-1.098,0.297-1.576s0.469-0.936,0.816-1.369c0.347-0.434,0.76-0.832,1.238-1.201c0.479-0.367,0.998-0.684,1.561-0.947
		c1.193-0.574,2.41-0.863,3.652-0.863c0.895,0,1.508,0.281,1.842,0.844c0.117,0.193,0.176,0.451,0.176,0.773
		c0,0.324-0.082,0.641-0.244,0.953c-0.163,0.313-0.383,0.594-0.66,0.848s-0.601,0.475-0.969,0.666
		c-0.367,0.191-0.759,0.355-1.176,0.494C73.031,21.693,72.188,21.873,71.238,21.984z M71.092,21.018
		c0.889-0.105,1.651-0.35,2.289-0.738c0.674-0.416,1.01-0.904,1.01-1.463s-0.257-0.838-0.77-0.838c-0.666,0-1.246,0.318-1.738,0.957
		C71.412,19.547,71.148,20.24,71.092,21.018z"/>
</g>
</svg>
