<?xml version="1.0" encoding="utf-8"?>
<!-- Generator: Adobe Illustrator 16.0.0, SVG Export Plug-In . SVG Version: 6.00 Build 0)  -->
<!DOCTYPE svg PUBLIC "-//W3C//DTD SVG 1.1//EN" "http://www.w3.org/Graphics/SVG/1.1/DTD/svg11.dtd">
<svg version="1.1" id="图层_1" xmlns="http://www.w3.org/2000/svg" xmlns:xlink="http://www.w3.org/1999/xlink" x="0px" y="0px"
	 width="258px" height="36px" viewBox="0 0 258 36" enable-background="new 0 0 258 36" xml:space="preserve">
<g>
	<path fill="#545454" d="M20.819,21.75h-0.844l-5.969-11.322V26.25h-0.75V9h0.844L20.819,21.75z M14.757,12.918l0.75,1.426V26.25
		h-0.75V12.918z M22.517,21.75h-0.854L14.955,9h0.854L22.517,21.75z M16.257,15.771l0.75,1.416v9.063h-0.75V15.771z M30.173,10.428
		L24.205,21.75h-0.854L16.652,9h0.844l6.292,11.959L30.069,9h0.854v17.25h-0.75V10.428z M17.757,18.625l0.75,1.418v6.207h-0.75
		V18.625z M22.777,17.969l-0.438-0.791L26.673,9h0.854L22.777,17.969z M23.642,19.605l-0.427-0.781L28.382,9h0.844L23.642,19.605z
		 M25.673,19.959l0.75-1.416v7.707h-0.75V19.959z M27.173,17.084l0.75-1.416V26.25h-0.75V17.084z M28.673,14.25l0.75-1.426V26.25
		h-0.75V14.25z"/>
	<path fill="#545454" d="M33.163,21.953c-0.438-1.016-0.656-2.084-0.656-3.203c0-1.117,0.219-2.186,0.656-3.203
		s1.024-1.895,1.76-2.629c0.736-0.736,1.613-1.324,2.63-1.762c1.017-0.438,2.085-0.656,3.203-0.656c1.118,0,2.186,0.219,3.203,0.656
		c1.018,0.438,1.895,1.025,2.63,1.762c0.736,0.734,1.323,1.611,1.761,2.629s0.656,2.086,0.656,3.203
		c0,1.119-0.219,2.188-0.656,3.203c-0.438,1.018-1.024,1.895-1.761,2.631c-0.736,0.736-1.613,1.322-2.63,1.76
		C42.942,26.781,41.875,27,40.757,27c-1.118,0-2.186-0.219-3.203-0.656c-1.018-0.438-1.894-1.023-2.63-1.76
		S33.601,22.971,33.163,21.953z M33.851,15.838c-0.396,0.928-0.594,1.898-0.594,2.912s0.198,1.984,0.594,2.912
		c0.396,0.926,0.928,1.725,1.599,2.396c0.669,0.67,1.468,1.201,2.396,1.598c0.927,0.396,1.897,0.594,2.912,0.594
		c1.014,0,1.984-0.197,2.911-0.594c0.927-0.396,1.726-0.928,2.396-1.598c0.67-0.672,1.204-1.471,1.6-2.396
		c0.396-0.928,0.594-1.898,0.594-2.912s-0.198-1.984-0.594-2.912c-0.396-0.926-0.929-1.725-1.6-2.395
		c-0.67-0.67-1.468-1.203-2.396-1.6c-0.927-0.395-1.897-0.594-2.911-0.594c-1.014,0-1.985,0.199-2.912,0.594
		c-0.927,0.396-1.726,0.93-2.396,1.6C34.779,14.113,34.246,14.912,33.851,15.838z M34.543,21.375
		c-0.358-0.832-0.536-1.707-0.536-2.625c0-0.916,0.178-1.791,0.536-2.625c0.357-0.832,0.837-1.549,1.438-2.15
		s1.318-1.08,2.151-1.438C38.965,12.18,39.84,12,40.757,12c0.917,0,1.792,0.18,2.625,0.537c0.833,0.357,1.55,0.836,2.151,1.438
		c0.601,0.602,1.08,1.318,1.438,2.15c0.357,0.834,0.537,1.709,0.537,2.625c0,0.918-0.179,1.793-0.537,2.625
		c-0.358,0.834-0.837,1.551-1.438,2.15c-0.601,0.602-1.318,1.082-2.151,1.438c-0.833,0.359-1.708,0.537-2.625,0.537
		c-0.917,0-1.792-0.178-2.625-0.537c-0.833-0.355-1.551-0.836-2.151-1.438C35.38,22.926,34.9,22.209,34.543,21.375z M35.23,16.422
		c-0.316,0.74-0.474,1.516-0.474,2.328s0.158,1.588,0.474,2.328s0.743,1.379,1.282,1.918c0.538,0.537,1.176,0.965,1.917,1.279
		c0.739,0.316,1.516,0.475,2.328,0.475s1.588-0.158,2.328-0.475c0.74-0.314,1.378-0.742,1.917-1.279
		c0.539-0.539,0.965-1.178,1.282-1.918c0.316-0.74,0.474-1.516,0.474-2.328s-0.158-1.588-0.474-2.328
		c-0.316-0.738-0.743-1.377-1.282-1.916c-0.538-0.539-1.176-0.965-1.917-1.281c-0.739-0.316-1.515-0.475-2.328-0.475
		s-1.589,0.158-2.328,0.475c-0.74,0.316-1.379,0.742-1.917,1.281C35.974,15.045,35.546,15.684,35.23,16.422z M36.209,21.385
		c-0.468-0.805-0.703-1.684-0.703-2.635s0.234-1.828,0.703-2.635c0.469-0.805,1.106-1.443,1.912-1.912
		c0.806-0.469,1.684-0.703,2.636-0.703c0.951,0,1.83,0.234,2.635,0.703s1.442,1.107,1.912,1.912
		c0.468,0.807,0.703,1.684,0.703,2.635s-0.235,1.83-0.703,2.635c-0.469,0.807-1.106,1.443-1.912,1.912S41.708,24,40.757,24
		c-0.952,0-1.83-0.234-2.636-0.703C37.316,22.828,36.679,22.191,36.209,21.385z M37.575,15.574
		c-0.879,0.881-1.318,1.939-1.318,3.176s0.439,2.297,1.318,3.178c0.878,0.883,1.939,1.322,3.182,1.322
		c1.243,0,2.303-0.439,3.182-1.322c0.879-0.881,1.318-1.941,1.318-3.178s-0.439-2.295-1.318-3.176
		C43.06,14.691,42,14.25,40.757,14.25C39.514,14.25,38.453,14.691,37.575,15.574z M38.105,21.4c-0.733-0.73-1.099-1.615-1.099-2.65
		s0.366-1.918,1.099-2.65c0.732-0.732,1.617-1.1,2.651-1.1s1.918,0.367,2.651,1.1c0.732,0.732,1.099,1.615,1.099,2.65
		s-0.367,1.92-1.099,2.65c-0.733,0.734-1.616,1.1-2.651,1.1S38.838,22.135,38.105,21.4z M38.637,16.631
		c-0.587,0.586-0.88,1.293-0.88,2.119s0.293,1.533,0.88,2.121c0.586,0.586,1.293,0.879,2.12,0.879c0.826,0,1.533-0.293,2.119-0.879
		c0.587-0.588,0.881-1.295,0.881-2.121s-0.294-1.533-0.881-2.119c-0.586-0.586-1.293-0.881-2.119-0.881
		C39.93,15.75,39.224,16.045,38.637,16.631z"/>
	<path fill="#545454" d="M51.434,12.543V26.25h-0.75v-15h0.896l8.656,15h-0.865L51.434,12.543z M52.184,14.605l0.75,1.375v10.27
		h-0.75V14.605z M52.444,11.25h0.875l8.688,15h-0.875L52.444,11.25z M53.684,17.303l0.75,1.365v7.582h-0.75V17.303z M54.215,11.25
		h0.886l8.677,15h-0.896L54.215,11.25z M55.976,11.25h0.875l7.917,13.699V11.25h0.75v15h-0.885L55.976,11.25z M62.517,20.199
		l-0.75-1.365V11.25h0.75V20.199z M64.017,22.793l-0.75-1.271V11.25h0.75V22.793z"/>
	<path fill="#545454" d="M67.736,21.953c-0.438-1.016-0.656-2.084-0.656-3.203c0-1.117,0.219-2.186,0.656-3.203
		s1.024-1.895,1.76-2.629c0.736-0.736,1.613-1.324,2.63-1.762c1.017-0.438,2.085-0.656,3.203-0.656s2.186,0.219,3.203,0.656
		c1.018,0.438,1.895,1.025,2.631,1.762c0.736,0.734,1.323,1.611,1.76,2.629s0.656,2.086,0.656,3.203
		c0,1.119-0.219,2.188-0.656,3.203c-0.438,1.018-1.024,1.895-1.76,2.631c-0.736,0.736-1.613,1.322-2.631,1.76
		C77.515,26.781,76.448,27,75.33,27s-2.186-0.219-3.203-0.656c-1.018-0.438-1.894-1.023-2.63-1.76
		C68.76,23.848,68.173,22.971,67.736,21.953z M68.423,15.838c-0.396,0.928-0.594,1.898-0.594,2.912s0.198,1.984,0.594,2.912
		c0.396,0.926,0.929,1.725,1.599,2.396c0.67,0.67,1.468,1.201,2.396,1.598c0.926,0.396,1.897,0.594,2.911,0.594
		s1.984-0.197,2.911-0.594c0.928-0.396,1.726-0.928,2.396-1.598c0.67-0.672,1.203-1.471,1.599-2.396
		c0.396-0.928,0.594-1.898,0.594-2.912s-0.198-1.984-0.594-2.912c-0.396-0.926-0.929-1.725-1.599-2.395
		c-0.67-0.67-1.468-1.203-2.396-1.6c-0.927-0.395-1.897-0.594-2.911-0.594s-1.985,0.199-2.911,0.594
		c-0.928,0.396-1.726,0.93-2.396,1.6C69.352,14.113,68.819,14.912,68.423,15.838z M69.116,21.375
		c-0.357-0.832-0.536-1.707-0.536-2.625c0-0.916,0.179-1.791,0.536-2.625c0.358-0.832,0.837-1.549,1.438-2.15
		s1.318-1.08,2.151-1.438S74.413,12,75.33,12s1.792,0.18,2.625,0.537s1.55,0.836,2.151,1.438c0.6,0.602,1.079,1.318,1.438,2.15
		c0.357,0.834,0.536,1.709,0.536,2.625c0,0.918-0.179,1.793-0.536,2.625c-0.358,0.834-0.837,1.551-1.438,2.15
		c-0.601,0.602-1.318,1.082-2.151,1.438c-0.833,0.359-1.708,0.537-2.625,0.537s-1.792-0.178-2.625-0.537
		c-0.833-0.355-1.551-0.836-2.151-1.438C69.953,22.926,69.474,22.209,69.116,21.375z M69.803,16.422
		c-0.316,0.74-0.474,1.516-0.474,2.328s0.158,1.588,0.474,2.328s0.743,1.379,1.282,1.918c0.538,0.537,1.177,0.965,1.917,1.279
		c0.739,0.316,1.516,0.475,2.328,0.475s1.589-0.158,2.328-0.475c0.74-0.314,1.379-0.742,1.917-1.279
		c0.538-0.539,0.965-1.178,1.282-1.918c0.315-0.74,0.474-1.516,0.474-2.328s-0.158-1.588-0.474-2.328
		c-0.316-0.738-0.744-1.377-1.282-1.916s-1.177-0.965-1.917-1.281c-0.739-0.316-1.515-0.475-2.328-0.475s-1.589,0.158-2.328,0.475
		c-0.74,0.316-1.379,0.742-1.917,1.281C70.546,15.045,70.119,15.684,69.803,16.422z M70.782,21.385
		c-0.468-0.805-0.703-1.684-0.703-2.635s0.234-1.828,0.703-2.635c0.469-0.805,1.106-1.443,1.912-1.912
		C73.5,13.734,74.378,13.5,75.33,13.5s1.83,0.234,2.635,0.703c0.806,0.469,1.442,1.107,1.912,1.912
		c0.468,0.807,0.703,1.684,0.703,2.635s-0.235,1.83-0.703,2.635c-0.469,0.807-1.106,1.443-1.912,1.912
		C77.16,23.766,76.281,24,75.33,24s-1.83-0.234-2.635-0.703C71.889,22.828,71.251,22.191,70.782,21.385z M72.147,15.574
		c-0.879,0.881-1.318,1.939-1.318,3.176s0.439,2.297,1.318,3.178c0.878,0.883,1.939,1.322,3.182,1.322s2.304-0.439,3.182-1.322
		c0.878-0.881,1.318-1.941,1.318-3.178s-0.439-2.295-1.318-3.176c-0.878-0.883-1.939-1.324-3.182-1.324S73.025,14.691,72.147,15.574
		z M72.678,21.4c-0.732-0.73-1.099-1.615-1.099-2.65s0.366-1.918,1.099-2.65c0.733-0.732,1.617-1.1,2.651-1.1s1.918,0.367,2.651,1.1
		c0.732,0.732,1.099,1.615,1.099,2.65s-0.367,1.92-1.099,2.65c-0.733,0.734-1.617,1.1-2.651,1.1S73.411,22.135,72.678,21.4z
		 M73.21,16.631c-0.587,0.586-0.88,1.293-0.88,2.119s0.293,1.533,0.88,2.121c0.586,0.586,1.293,0.879,2.12,0.879
		s1.533-0.293,2.12-0.879c0.587-0.588,0.88-1.295,0.88-2.121s-0.293-1.533-0.88-2.119s-1.293-0.881-2.12-0.881
		S73.796,16.045,73.21,16.631z"/>
	<path fill="#545454" d="M84.913,12v-0.75h11.25V12H84.913z M84.913,13.5v-0.75h11.25v0.75H84.913z M84.913,15v-0.75h11.25V15
		H84.913z M87.913,15.406h0.75V26.25h-0.75V15.406z M89.413,15.406h0.75V26.25h-0.75V15.406z M90.913,15.406h0.75V26.25h-0.75
		V15.406z M92.413,15.406h0.75V26.25h-0.75V15.406z"/>
	<path fill="#545454" d="M98.069,21.953c-0.438-1.016-0.656-2.084-0.656-3.203c0-1.117,0.219-2.186,0.656-3.203
		s1.024-1.895,1.76-2.629c0.736-0.736,1.613-1.324,2.63-1.762c1.017-0.438,2.085-0.656,3.203-0.656c1.118,0,2.186,0.219,3.203,0.656
		c1.018,0.438,1.895,1.025,2.63,1.762c0.736,0.734,1.323,1.611,1.761,2.629s0.656,2.086,0.656,3.203
		c0,1.119-0.219,2.188-0.656,3.203c-0.438,1.018-1.024,1.895-1.761,2.631c-0.736,0.736-1.613,1.322-2.63,1.76
		c-1.017,0.438-2.085,0.656-3.203,0.656c-1.118,0-2.186-0.219-3.203-0.656c-1.018-0.438-1.894-1.023-2.63-1.76
		S98.507,22.971,98.069,21.953z M98.757,15.838c-0.396,0.928-0.594,1.898-0.594,2.912s0.198,1.984,0.594,2.912
		c0.396,0.926,0.928,1.725,1.599,2.396c0.669,0.67,1.468,1.201,2.396,1.598c0.927,0.396,1.897,0.594,2.912,0.594
		c1.014,0,1.984-0.197,2.911-0.594c0.927-0.396,1.726-0.928,2.396-1.598c0.67-0.672,1.204-1.471,1.6-2.396
		c0.396-0.928,0.594-1.898,0.594-2.912s-0.198-1.984-0.594-2.912c-0.396-0.926-0.929-1.725-1.6-2.395
		c-0.67-0.67-1.468-1.203-2.396-1.6c-0.927-0.395-1.897-0.594-2.911-0.594c-1.014,0-1.985,0.199-2.912,0.594
		c-0.927,0.396-1.726,0.93-2.396,1.6C99.685,14.113,99.152,14.912,98.757,15.838z M99.449,21.375
		c-0.358-0.832-0.536-1.707-0.536-2.625c0-0.916,0.178-1.791,0.536-2.625c0.357-0.832,0.837-1.549,1.438-2.15
		s1.318-1.08,2.151-1.438c0.833-0.357,1.708-0.537,2.625-0.537c0.917,0,1.792,0.18,2.625,0.537c0.833,0.357,1.55,0.836,2.151,1.438
		c0.601,0.602,1.08,1.318,1.438,2.15c0.357,0.834,0.537,1.709,0.537,2.625c0,0.918-0.179,1.793-0.537,2.625
		c-0.358,0.834-0.837,1.551-1.438,2.15c-0.601,0.602-1.318,1.082-2.151,1.438c-0.833,0.359-1.708,0.537-2.625,0.537
		c-0.917,0-1.792-0.178-2.625-0.537c-0.833-0.355-1.551-0.836-2.151-1.438C100.286,22.926,99.807,22.209,99.449,21.375z
		 M100.137,16.422c-0.316,0.74-0.474,1.516-0.474,2.328s0.158,1.588,0.474,2.328s0.743,1.379,1.282,1.918
		c0.538,0.537,1.176,0.965,1.917,1.279c0.739,0.316,1.516,0.475,2.328,0.475s1.588-0.158,2.328-0.475
		c0.74-0.314,1.378-0.742,1.917-1.279c0.539-0.539,0.965-1.178,1.282-1.918c0.316-0.74,0.474-1.516,0.474-2.328
		s-0.158-1.588-0.474-2.328c-0.316-0.738-0.743-1.377-1.282-1.916c-0.538-0.539-1.176-0.965-1.917-1.281
		c-0.739-0.316-1.515-0.475-2.328-0.475s-1.589,0.158-2.328,0.475c-0.74,0.316-1.379,0.742-1.917,1.281
		C100.88,15.045,100.453,15.684,100.137,16.422z M101.116,21.385c-0.468-0.805-0.703-1.684-0.703-2.635s0.234-1.828,0.703-2.635
		c0.469-0.805,1.106-1.443,1.912-1.912c0.806-0.469,1.684-0.703,2.636-0.703c0.951,0,1.83,0.234,2.635,0.703
		s1.442,1.107,1.912,1.912c0.468,0.807,0.703,1.684,0.703,2.635s-0.235,1.83-0.703,2.635c-0.469,0.807-1.106,1.443-1.912,1.912
		S106.614,24,105.663,24c-0.952,0-1.83-0.234-2.636-0.703C102.222,22.828,101.585,22.191,101.116,21.385z M102.481,15.574
		c-0.879,0.881-1.318,1.939-1.318,3.176s0.439,2.297,1.318,3.178c0.878,0.883,1.939,1.322,3.182,1.322
		c1.243,0,2.303-0.439,3.182-1.322c0.879-0.881,1.318-1.941,1.318-3.178s-0.439-2.295-1.318-3.176
		c-0.878-0.883-1.939-1.324-3.182-1.324C104.42,14.25,103.359,14.691,102.481,15.574z M103.012,21.4
		c-0.733-0.73-1.099-1.615-1.099-2.65s0.366-1.918,1.099-2.65c0.732-0.732,1.617-1.1,2.651-1.1s1.918,0.367,2.651,1.1
		c0.732,0.732,1.099,1.615,1.099,2.65s-0.367,1.92-1.099,2.65c-0.733,0.734-1.616,1.1-2.651,1.1S103.744,22.135,103.012,21.4z
		 M103.543,16.631c-0.587,0.586-0.88,1.293-0.88,2.119s0.293,1.533,0.88,2.121c0.586,0.586,1.293,0.879,2.12,0.879
		c0.826,0,1.533-0.293,2.119-0.879c0.587-0.588,0.881-1.295,0.881-2.121s-0.294-1.533-0.881-2.119
		c-0.586-0.586-1.293-0.881-2.119-0.881C104.836,15.75,104.13,16.045,103.543,16.631z"/>
	<path fill="#545454" d="M116.34,12.543V26.25h-0.75v-15h0.896l8.656,15h-0.865L116.34,12.543z M117.09,14.605l0.75,1.375v10.27
		h-0.75V14.605z M117.351,11.25h0.875l8.688,15h-0.875L117.351,11.25z M118.59,17.303l0.75,1.365v7.582h-0.75V17.303z
		 M119.121,11.25h0.886l8.676,15h-0.895L119.121,11.25z M120.882,11.25h0.875l7.916,13.699V11.25h0.75v15h-0.885L120.882,11.25z
		 M127.423,20.199l-0.75-1.365V11.25h0.75V20.199z M128.923,22.793l-0.75-1.271V11.25h0.75V22.793z"/>
</g>
</svg>
