<?xml version="1.0" encoding="utf-8"?>
<!-- Generator: Adobe Illustrator 16.0.0, SVG Export Plug-In . SVG Version: 6.00 Build 0)  -->
<!DOCTYPE svg PUBLIC "-//W3C//DTD SVG 1.1//EN" "http://www.w3.org/Graphics/SVG/1.1/DTD/svg11.dtd">
<svg version="1.1" id="图层_1" xmlns="http://www.w3.org/2000/svg" xmlns:xlink="http://www.w3.org/1999/xlink" x="0px" y="0px"
	 width="258px" height="36px" viewBox="0 0 258 36" enable-background="new 0 0 258 36" xml:space="preserve">
<g>
	<path fill="#545454" d="M13.257,9.5h2.753l6.182,11.881L28.325,9.5h2.777v16.904h-2.173l-0.024-13.498l-6.013,11.709h-1.424
		l-6.061-11.709v13.498h-2.149V9.5z"/>
	<path fill="#545454" d="M44.419,14.379c0.99,0.547,1.763,1.309,2.318,2.281c0.555,0.975,0.833,2.088,0.833,3.346
		c0,1.256-0.278,2.373-0.833,3.355c-0.556,0.982-1.329,1.746-2.318,2.295c-0.99,0.547-2.121,0.82-3.393,0.82
		c-1.288,0-2.427-0.273-3.417-0.82c-0.99-0.549-1.763-1.309-2.318-2.283c-0.555-0.973-0.833-2.096-0.833-3.367
		c0-1.258,0.278-2.371,0.833-3.346c0.555-0.973,1.329-1.734,2.318-2.281s2.128-0.822,3.417-0.822
		C42.298,13.557,43.429,13.832,44.419,14.379z M38.792,16.094c-0.652,0.385-1.159,0.92-1.521,1.605
		c-0.362,0.686-0.543,1.461-0.543,2.33c0,0.885,0.181,1.674,0.543,2.365c0.362,0.693,0.869,1.229,1.521,1.605
		c0.652,0.381,1.396,0.568,2.233,0.568c0.821,0,1.558-0.188,2.21-0.568c0.652-0.377,1.159-0.912,1.521-1.605
		c0.362-0.691,0.543-1.48,0.543-2.365c0-0.869-0.181-1.645-0.543-2.33s-0.869-1.221-1.521-1.605c-0.652-0.387-1.389-0.58-2.21-0.58
		C40.189,15.514,39.444,15.707,38.792,16.094z"/>
	<path fill="#545454" d="M61.334,14.873c0.854,0.879,1.28,2.09,1.28,3.635v7.896h-2.246v-7.293c0-1.078-0.302-1.92-0.905-2.523
		c-0.604-0.604-1.437-0.906-2.5-0.906c-1.143,0.016-2.073,0.383-2.789,1.1c-0.716,0.715-1.123,1.645-1.22,2.789v6.834h-2.245V13.629
		h2.245v2.705c0.854-1.818,2.471-2.744,4.854-2.777C59.306,13.557,60.48,13.996,61.334,14.873z"/>
	<path fill="#545454" d="M73.48,25.559c-0.982,0.627-1.98,0.941-2.994,0.941s-1.835-0.301-2.463-0.904
		c-0.628-0.604-0.942-1.518-0.942-2.742v-7.074H65.27v-1.715h1.811v-3.428h2.27v3.428h3.912v1.715h-3.912v6.666
		c0,0.707,0.129,1.215,0.386,1.52s0.644,0.459,1.159,0.459c0.611,0,1.271-0.201,1.98-0.604L73.48,25.559z"/>
	<path fill="#545454" d="M81.437,15.682c-0.636-0.193-1.244-0.289-1.823-0.289c-0.676,0-1.22,0.125-1.63,0.375
		c-0.411,0.25-0.616,0.631-0.616,1.146s0.229,0.906,0.688,1.172c0.458,0.264,1.155,0.533,2.088,0.809
		c0.886,0.258,1.61,0.516,2.174,0.771c0.563,0.258,1.042,0.637,1.437,1.135c0.394,0.5,0.591,1.16,0.591,1.98
		c0,1.209-0.455,2.125-1.364,2.754c-0.91,0.627-2.041,0.941-3.393,0.941c-0.95,0-1.871-0.154-2.765-0.459
		c-0.893-0.305-1.646-0.74-2.258-1.305l0.845-1.643c0.532,0.484,1.188,0.869,1.968,1.16c0.781,0.289,1.542,0.436,2.282,0.436
		c0.74,0,1.335-0.137,1.786-0.412c0.451-0.273,0.677-0.691,0.677-1.254c0-0.58-0.238-1.016-0.712-1.305
		c-0.475-0.291-1.195-0.58-2.161-0.869c-0.854-0.242-1.55-0.486-2.089-0.738c-0.54-0.248-0.999-0.615-1.376-1.098
		c-0.378-0.482-0.568-1.111-0.568-1.883c0-1.191,0.436-2.086,1.305-2.68c0.869-0.596,1.956-0.895,3.26-0.895
		c0.772,0,1.533,0.109,2.282,0.326s1.396,0.512,1.944,0.881l-0.821,1.715C82.656,16.133,82.072,15.875,81.437,15.682z"/>
	<path fill="#545454" d="M96.927,15.309c1.014,1.166,1.521,2.787,1.521,4.865c0,0.322-0.008,0.564-0.024,0.725H88.33
		c0.177,1.143,0.656,2.053,1.437,2.729c0.78,0.676,1.742,1.014,2.885,1.014c0.757,0,1.461-0.137,2.113-0.41
		c0.652-0.273,1.22-0.66,1.703-1.16l1.231,1.281c-0.628,0.676-1.385,1.199-2.27,1.57c-0.886,0.369-1.868,0.555-2.946,0.555
		c-1.255,0-2.371-0.27-3.344-0.809c-0.975-0.539-1.731-1.301-2.27-2.283c-0.54-0.98-0.809-2.1-0.809-3.355s0.27-2.371,0.809-3.346
		c0.539-0.973,1.292-1.738,2.257-2.293c0.966-0.555,2.068-0.834,3.308-0.834C94.416,13.557,95.913,14.141,96.927,15.309z
		 M96.42,19.16c-0.064-1.16-0.451-2.072-1.159-2.742c-0.709-0.666-1.642-1-2.801-1c-1.127,0-2.064,0.336-2.813,1.014
		c-0.749,0.676-1.195,1.586-1.34,2.729H96.42z"/>
	<path fill="#545454" d="M105.547,14.295c0.773-0.477,1.691-0.721,2.753-0.738v2.174c-1.304-0.049-2.358,0.291-3.163,1.014
		c-0.805,0.727-1.264,1.699-1.377,2.922v6.738h-2.245V13.629h2.245v2.754C104.179,15.465,104.774,14.77,105.547,14.295z"/>
	<path fill="#545454" d="M114.771,14.295c0.772-0.477,1.69-0.721,2.753-0.738v2.174c-1.304-0.049-2.359,0.291-3.164,1.014
		c-0.805,0.727-1.264,1.699-1.376,2.922v6.738h-2.246V13.629h2.246v2.754C113.403,15.465,113.999,14.77,114.771,14.295z"/>
	<path fill="#545454" d="M127.207,26.404v-1.789c-0.949,1.258-2.438,1.885-4.467,1.885c-0.885,0-1.662-0.168-2.33-0.508
		c-0.668-0.336-1.183-0.803-1.545-1.4c-0.362-0.594-0.543-1.262-0.543-2.004c0-1.143,0.423-2.049,1.268-2.717
		s2.024-1.008,3.538-1.025h4.057v-0.604c0-0.902-0.277-1.598-0.832-2.088c-0.557-0.492-1.365-0.736-2.428-0.736
		c-1.288,0-2.6,0.457-3.936,1.375l-0.941-1.545c0.917-0.596,1.766-1.027,2.547-1.293c0.78-0.266,1.71-0.398,2.789-0.398
		c1.594,0,2.824,0.393,3.695,1.172c0.869,0.781,1.311,1.873,1.327,3.271l0.024,8.404H127.207z M125.867,23.881
		c0.732-0.508,1.172-1.18,1.316-2.018v-1.279h-3.742c-1.015,0-1.768,0.154-2.258,0.459c-0.492,0.305-0.736,0.789-0.736,1.449
		s0.248,1.184,0.748,1.568c0.499,0.387,1.167,0.58,2.004,0.58C124.246,24.641,125.134,24.387,125.867,23.881z"/>
	<path fill="#545454" d="M140.295,25.559c-0.982,0.627-1.98,0.941-2.994,0.941s-1.836-0.301-2.463-0.904s-0.941-1.518-0.941-2.742
		v-7.074h-1.813v-1.715h1.813v-3.428h2.27v3.428h3.912v1.715h-3.912v6.666c0,0.707,0.129,1.215,0.387,1.52s0.643,0.459,1.158,0.459
		c0.611,0,1.271-0.201,1.98-0.604L140.295,25.559z"/>
</g>
</svg>
