<?xml version="1.0" encoding="utf-8"?>
<!-- Generator: Adobe Illustrator 16.0.0, SVG Export Plug-In . SVG Version: 6.00 Build 0)  -->
<!DOCTYPE svg PUBLIC "-//W3C//DTD SVG 1.1//EN" "http://www.w3.org/Graphics/SVG/1.1/DTD/svg11.dtd">
<svg version="1.1" id="图层_1" xmlns="http://www.w3.org/2000/svg" xmlns:xlink="http://www.w3.org/1999/xlink" x="0px" y="0px"
	 width="258px" height="36px" viewBox="0 0 258 36" enable-background="new 0 0 258 36" xml:space="preserve">
<g>
	<path fill="#545454" d="M22.809,22.557c-0.014,0-0.049,0-0.105,0s-0.274,0.141-0.654,0.422l-4.852-12.699l-1.013,11.055
		c-0.028,0.225,0.077,0.414,0.316,0.568s0.57,0.232,0.992,0.232h0.886v0.633h-5.063v-0.633h0.675c0.816,0,1.252-0.309,1.309-0.93
		l1.055-11.645c0.028-0.268-0.067-0.488-0.285-0.664c-0.218-0.176-0.559-0.264-1.023-0.264h-0.675V8h3.966l4.515,11.898L27.408,8
		h3.797v0.592h-0.844c-0.675,0-1.013,0.26-1.013,0.779c0,0.043,0,0.092,0,0.148l0.971,11.686c0.028,0.324,0.108,0.561,0.242,0.707
		c0.133,0.148,0.376,0.223,0.728,0.223h0.844v0.633h-5.401v-0.633h0.718c0.394,0,0.661-0.064,0.802-0.189
		c0.14-0.127,0.21-0.266,0.21-0.412s0-0.258,0-0.328L27.535,10.15L22.809,22.557z"/>
	<path fill="#545454" d="M37.45,23.063c-1.238,0-2.271-0.463-3.101-1.393c-0.83-0.928-1.245-2.01-1.245-3.248
		c0-1.574,0.594-2.934,1.783-4.072c1.188-1.141,2.444-1.709,3.766-1.709c1.322,0,2.388,0.469,3.196,1.402
		c0.809,0.938,1.213,2.016,1.213,3.24c0,1.533-0.566,2.879-1.698,4.039C40.231,22.482,38.927,23.063,37.45,23.063z M35.773,20.543
		c0.794,0.863,1.688,1.297,2.679,1.297s1.769-0.373,2.331-1.119c0.563-0.746,0.844-1.512,0.844-2.299
		c0-1.195-0.369-2.24-1.107-3.133c-0.739-0.895-1.636-1.34-2.69-1.34c-1.054,0-1.86,0.355-2.415,1.066
		c-0.556,0.709-0.833,1.465-0.833,2.268C34.581,18.59,34.979,19.678,35.773,20.543z"/>
	<path fill="#545454" d="M55.255,22.768h-3.628v-0.59h0.084c0.154,0,0.285-0.078,0.391-0.232s0.158-0.346,0.158-0.57v-5.359
		c0-0.631-0.151-1.115-0.453-1.443c-0.303-0.332-0.728-0.496-1.276-0.496c-0.788,0-1.484,0.422-2.089,1.264
		c-0.604,0.846-0.907,1.479-0.907,1.9v4.008c0,0.225,0.011,0.387,0.032,0.486c0.021,0.098,0.102,0.195,0.243,0.295
		c0.141,0.098,0.359,0.148,0.654,0.148h0.38v0.59h-4.262v-0.59h0.337c0.38,0,0.623-0.064,0.728-0.191
		c0.105-0.125,0.158-0.33,0.158-0.611v-6.328c0-0.268-0.088-0.461-0.264-0.582c-0.176-0.119-0.496-0.178-0.96-0.178v-0.59
		c0.282,0,0.707-0.104,1.276-0.307c0.57-0.205,1.002-0.398,1.297-0.58l0.38-0.086v2.701c0.324-0.885,0.823-1.572,1.498-2.057
		c0.675-0.484,1.498-0.729,2.468-0.729c0.506,0,0.935,0.113,1.287,0.338s0.605,0.514,0.76,0.865
		c0.267,0.604,0.401,1.203,0.401,1.793v5.697c0,0.195,0.014,0.344,0.042,0.443c0.07,0.266,0.366,0.4,0.886,0.4h0.379V22.768z"/>
	<path fill="#545454" d="M62.788,21.459l0.169,0.508c-1.055,0.73-2.208,1.096-3.46,1.096c-0.45,0-0.837-0.162-1.16-0.486
		c-0.324-0.322-0.485-0.75-0.485-1.287v-7.467h-1.224v-0.887h0.464c0.464,0,0.896-0.281,1.297-0.844
		c0.401-0.561,0.601-1.082,0.601-1.561h0.549v2.404h2.869v0.887H60.34c-0.535,0-0.802,0.254-0.802,0.76v6.033
		c0,0.93,0.338,1.393,1.013,1.393C61.311,22.008,62.056,21.826,62.788,21.459z"/>
	<path fill="#545454" d="M73.188,22.768H70.15V21.08c-0.703,0.76-1.287,1.279-1.751,1.561c-0.464,0.281-1.094,0.422-1.888,0.422
		s-1.414-0.186-1.856-0.559c-0.443-0.373-0.665-0.896-0.665-1.572c0-0.674,0.292-1.332,0.876-1.973
		c0.583-0.641,1.266-1.125,2.046-1.455s1.466-0.584,2.057-0.76c0.591-0.176,0.985-0.264,1.182-0.264v-0.465
		c0-1.32-0.549-1.982-1.646-1.982c-0.759,0-1.466,0.162-2.12,0.486c-0.654,0.322-1.143,0.736-1.466,1.242l-0.422-0.377
		c0.942-1.83,2.573-2.744,4.894-2.744c0.591,0,1.079,0.16,1.466,0.475c0.387,0.316,0.647,0.686,0.781,1.107s0.2,0.895,0.2,1.414
		v5.697c0,0.182,0.014,0.322,0.042,0.422c0.028,0.098,0.116,0.193,0.264,0.283c0.147,0.092,0.37,0.139,0.665,0.139h0.38V22.768z
		 M70.15,19.898v-2.574c-1.097,0.211-2.117,0.633-3.059,1.266c-0.942,0.635-1.414,1.322-1.414,2.068c0,0.295,0.145,0.551,0.433,0.77
		s0.646,0.328,1.076,0.328c0.429,0,0.939-0.193,1.53-0.582C69.306,20.787,69.785,20.361,70.15,19.898z"/>
	<path fill="#545454" d="M77.724,21.67l2.109-0.084c1.604,0,2.715,0.174,3.334,0.516c0.618,0.346,0.928,0.896,0.928,1.656
		c0,0.762-0.218,1.422-0.654,1.984c-0.436,0.563-1.006,1.006-1.709,1.33C80.34,27.691,78.849,28,77.26,28
		c-0.928,0-1.681-0.223-2.257-0.664c-0.577-0.443-0.865-0.996-0.865-1.656c0-1.549,0.661-2.547,1.983-2.996
		c-0.324,0-0.587-0.07-0.791-0.211c-0.204-0.141-0.306-0.299-0.306-0.475s0.028-0.35,0.084-0.518s0.148-0.34,0.274-0.516
		c0.127-0.178,0.235-0.318,0.327-0.422c0.091-0.107,0.243-0.266,0.454-0.475l0.422-0.422c-0.759-0.676-1.139-1.594-1.139-2.754
		c0-1.162,0.436-2.166,1.308-3.018c0.873-0.85,1.829-1.275,2.869-1.275c0.647,0,1.224,0.182,1.73,0.547
		c0.59-0.674,1.575-1.012,2.953-1.012l-0.211,1.814c-0.084-0.127-0.232-0.25-0.443-0.369s-0.373-0.18-0.485-0.18
		c-0.38,0-0.774,0.127-1.182,0.381c0.534,0.617,0.801,1.363,0.801,2.234c0,1.098-0.422,2.076-1.266,2.934s-1.801,1.287-2.869,1.287
		c-0.548,0-0.999-0.098-1.35-0.297c-0.591,0.705-0.886,1.141-0.886,1.309C76.416,21.529,76.852,21.67,77.724,21.67z M78.779,22.725
		h-1.477c-0.437,0.268-0.725,0.471-0.865,0.611c-0.141,0.143-0.26,0.275-0.358,0.402c-0.099,0.127-0.183,0.252-0.253,0.379
		c-0.141,0.297-0.211,0.627-0.211,0.992s0.168,0.682,0.506,0.949c0.577,0.422,1.382,0.633,2.416,0.633
		c1.034,0,1.994-0.176,2.88-0.527c0.886-0.352,1.329-0.838,1.329-1.457c0-0.617-0.359-1.104-1.076-1.455
		C80.952,22.9,79.988,22.725,78.779,22.725z M76.796,16.152c0,0.754,0.264,1.418,0.791,1.994s1.122,0.865,1.783,0.865
		c0.661,0,1.171-0.207,1.529-0.621c0.359-0.416,0.538-0.973,0.538-1.668s-0.257-1.352-0.77-1.973
		c-0.514-0.617-1.115-0.928-1.804-0.928s-1.206,0.199-1.55,0.602C76.968,14.824,76.796,15.402,76.796,16.152z"/>
	<path fill="#545454" d="M94.159,22.768h-3.038V21.08c-0.703,0.76-1.287,1.279-1.751,1.561s-1.094,0.422-1.888,0.422
		s-1.414-0.186-1.856-0.559s-0.665-0.896-0.665-1.572c0-0.674,0.292-1.332,0.875-1.973c0.583-0.641,1.266-1.125,2.046-1.455
		s1.466-0.584,2.057-0.76c0.591-0.176,0.985-0.264,1.182-0.264v-0.465c0-1.32-0.549-1.982-1.646-1.982
		c-0.759,0-1.466,0.162-2.12,0.486c-0.654,0.322-1.143,0.736-1.466,1.242l-0.422-0.377c0.942-1.83,2.574-2.744,4.894-2.744
		c0.591,0,1.079,0.16,1.466,0.475c0.387,0.316,0.647,0.686,0.781,1.107s0.2,0.895,0.2,1.414v5.697c0,0.182,0.014,0.322,0.042,0.422
		c0.028,0.098,0.116,0.193,0.264,0.283c0.148,0.092,0.37,0.139,0.665,0.139h0.38V22.768z M91.121,19.898v-2.574
		c-1.097,0.211-2.117,0.633-3.059,1.266c-0.942,0.635-1.414,1.322-1.414,2.068c0,0.295,0.145,0.551,0.433,0.77
		s0.647,0.328,1.076,0.328c0.429,0,0.938-0.193,1.529-0.582C90.277,20.787,90.755,20.361,91.121,19.898z"/>
</g>
</svg>
