<?xml version="1.0" encoding="utf-8"?>
<!-- Generator: Adobe Illustrator 16.0.0, SVG Export Plug-In . SVG Version: 6.00 Build 0)  -->
<!DOCTYPE svg PUBLIC "-//W3C//DTD SVG 1.1//EN" "http://www.w3.org/Graphics/SVG/1.1/DTD/svg11.dtd">
<svg version="1.1" id="图层_1" xmlns="http://www.w3.org/2000/svg" xmlns:xlink="http://www.w3.org/1999/xlink" x="0px" y="0px"
	 width="258px" height="36px" viewBox="0 0 258 36" enable-background="new 0 0 258 36" xml:space="preserve">
<g>
	<path fill="#545454" d="M31.205,23.238l0.626,0.529c-0.401,1-0.93,1.789-1.585,2.365C29.591,26.711,28.94,27,28.293,27
		c-0.385,0-0.717-0.178-0.996-0.529c-0.278-0.352-0.417-0.844-0.417-1.475s0.172-1.57,0.516-2.82
		c0.344-1.248,0.721-2.471,1.13-3.666c1.097-3.203,1.646-5.467,1.646-6.793c0-0.967-0.249-1.453-0.743-1.453
		c-0.496,0-1.051,0.305-1.665,0.912c-0.614,0.605-1.215,1.391-1.8,2.357c-0.586,0.967-1.178,2.035-1.775,3.207
		c-0.598,1.172-1.149,2.34-1.653,3.508c-0.503,1.166-0.955,2.234-1.352,3.201c-0.397,0.965-0.717,1.752-0.958,2.357
		c-0.242,0.607-0.375,0.91-0.399,0.91h-2.285l1.278-3.6c1.54-4.357,2.312-7.652,2.315-9.885C21.14,11,20.294,9.885,18.599,9.885
		c-0.631,0-1.214,0.178-1.75,0.535c-0.538,0.355-0.978,0.805-1.321,1.352c-0.344,0.543-0.639,1.15-0.884,1.822
		c-0.451,1.262-0.676,2.482-0.676,3.662c0,2.236,0.512,4.199,1.535,5.885l-0.479,0.406c-0.557-0.893-0.981-1.891-1.271-2.992
		c-0.291-1.102-0.436-2.088-0.436-2.961s0.062-1.676,0.185-2.408c0.123-0.732,0.327-1.475,0.614-2.225
		c0.287-0.748,0.639-1.412,1.057-1.99c0.417-0.576,0.954-1.051,1.609-1.418C17.436,9.184,18.093,9,18.752,9
		c0.66,0,1.203,0.09,1.628,0.27c0.426,0.182,0.778,0.424,1.057,0.732c0.278,0.305,0.512,0.668,0.7,1.086
		c0.344,0.787,0.516,1.646,0.516,2.58s-0.098,2.012-0.295,3.23c-0.246,1.484-0.532,2.844-0.86,4.08
		c0.262-0.729,0.489-1.293,0.682-1.689c0.192-0.396,0.418-0.873,0.675-1.43c0.258-0.559,0.49-1.059,0.694-1.508
		c0.205-0.445,0.475-0.988,0.811-1.627c0.336-0.639,0.651-1.203,0.946-1.695c0.295-0.492,0.636-1.002,1.026-1.529
		c0.389-0.529,0.768-0.965,1.136-1.309C28.321,9.398,29.124,9,29.878,9c0.753,0,1.318,0.248,1.695,0.742
		c0.377,0.496,0.565,1.131,0.565,1.898c0,0.771-0.11,1.664-0.332,2.686c-0.221,1.02-0.491,2.018-0.811,2.992
		c-0.319,0.975-0.639,1.924-0.958,2.85c-0.762,2.203-1.143,3.652-1.143,4.35c0,0.695,0.119,1.043,0.357,1.043
		c0.237,0,0.587-0.305,1.05-0.914C30.764,24.035,31.065,23.568,31.205,23.238z"/>
	<path fill="#545454" d="M34.528,26.912c-0.348,0-0.621-0.105-0.817-0.318s-0.294-0.506-0.294-0.879
		c0-0.371,0.095-0.881,0.289-1.523c0.192-0.643,0.384-1.227,0.577-1.75c0.192-0.525,0.289-0.875,0.289-1.051
		s-0.058-0.266-0.172-0.266c-0.287,0-0.75,0.566-1.388,1.697l-0.823-0.48c1.204-2.029,2.31-3.047,3.317-3.047
		c0.688,0,1.032,0.434,1.032,1.303c0,0.254-0.082,0.66-0.246,1.217l-0.885,2.531c-0.09,0.238-0.135,0.451-0.135,0.645
		s0.074,0.289,0.221,0.289c0.279,0,0.791-0.518,1.536-1.549l0.516,0.479c-0.442,0.82-0.969,1.475-1.579,1.967
		C35.355,26.668,34.876,26.912,34.528,26.912z M38.023,15.664c0,0.332-0.11,0.633-0.332,0.904c-0.221,0.27-0.52,0.406-0.897,0.406
		s-0.659-0.115-0.848-0.34s-0.283-0.51-0.283-0.854s0.117-0.648,0.35-0.914c0.233-0.268,0.535-0.4,0.903-0.4s0.645,0.117,0.829,0.35
		C37.932,15.051,38.023,15.334,38.023,15.664z"/>
	<path fill="#545454" d="M44.67,24.172l0.503,0.357c-0.36,0.729-0.916,1.309-1.664,1.738c-0.75,0.43-1.534,0.645-2.354,0.645
		c-0.819,0-1.509-0.248-2.069-0.748c-0.562-0.5-0.842-1.207-0.842-2.119c0-0.914,0.28-1.74,0.842-2.477
		c0.561-0.738,1.25-1.301,2.069-1.689c0.819-0.389,1.647-0.584,2.482-0.584c1.023,0,1.711,0.246,2.063,0.738
		c0.147,0.195,0.222,0.443,0.222,0.742c0,0.301-0.103,0.551-0.307,0.756c-0.205,0.205-0.451,0.309-0.737,0.309
		c-0.287,0-0.528-0.094-0.725-0.277c-0.196-0.184-0.294-0.42-0.294-0.705c0-0.287,0.176-0.551,0.528-0.787
		c-0.312-0.1-0.598-0.148-0.86-0.148c-0.565,0-1.085,0.209-1.56,0.627c-0.476,0.418-0.836,0.924-1.082,1.518
		c-0.245,0.594-0.368,1.178-0.368,1.75c0,0.574,0.136,1.035,0.411,1.383c0.274,0.348,0.67,0.521,1.186,0.521
		c0.516,0,1.012-0.145,1.486-0.436C44.076,24.994,44.433,24.625,44.67,24.172z"/>
	<path fill="#545454" d="M46.514,23.793c0-0.615,0.149-1.207,0.449-1.775c0.298-0.57,0.686-1.051,1.161-1.445
		c1.048-0.852,2.117-1.277,3.207-1.277s1.982,0.291,2.678,0.873c0.697,0.582,1.044,1.309,1.044,2.18c0,0.873-0.24,1.658-0.718,2.354
		c-0.48,0.697-1.112,1.24-1.898,1.629c-0.787,0.389-1.645,0.582-2.574,0.582c-0.93,0-1.72-0.293-2.372-0.879
		C46.839,25.449,46.514,24.701,46.514,23.793z M50.531,26.152c0.376,0,0.731-0.123,1.063-0.369c0.332-0.246,0.583-0.564,0.756-0.959
		c0.335-0.754,0.503-1.531,0.503-2.334s-0.147-1.412-0.442-1.824c-0.295-0.414-0.713-0.621-1.253-0.621s-1.075,0.352-1.604,1.059
		c-0.528,0.703-0.792,1.6-0.792,2.689C48.762,25.365,49.352,26.152,50.531,26.152z"/>
	<path fill="#545454" d="M59.39,23.266c1.712-2.646,3.247-3.971,4.606-3.971c0.459,0,0.803,0.141,1.033,0.418
		c0.229,0.279,0.344,0.631,0.344,1.057s-0.19,1.164-0.572,2.211c-0.38,1.049-0.57,1.699-0.57,1.947c0,0.25,0.062,0.375,0.184,0.375
		c0.164,0,0.406-0.17,0.725-0.508c0.32-0.342,0.603-0.699,0.848-1.076l0.517,0.49c-0.491,0.895-1.03,1.568-1.615,2.021
		c-0.586,0.455-1.062,0.682-1.425,0.682c-0.365,0-0.649-0.119-0.854-0.361s-0.307-0.572-0.307-0.99s0.166-1.098,0.498-2.045
		c0.331-0.945,0.497-1.617,0.497-2.016c0-0.396-0.135-0.596-0.405-0.596c-0.311,0-0.68,0.199-1.106,0.596
		c-0.426,0.398-0.839,0.883-1.241,1.457c-0.639,0.918-1.291,1.973-1.954,3.17l-0.332,0.59h-1.732l0.38-1.156
		c0.713-2.129,1.069-3.393,1.069-3.789c0-0.398-0.065-0.596-0.196-0.596c-0.238,0-0.521,0.283-0.848,0.848
		c-0.074,0.131-0.135,0.234-0.185,0.313c-0.049,0.078-0.104,0.174-0.166,0.283c-0.062,0.111-0.1,0.178-0.117,0.203l-0.823-0.48
		c0.639-1.039,1.225-1.807,1.757-2.303c0.533-0.496,1.077-0.744,1.634-0.744c0.254,0,0.473,0.107,0.657,0.32
		c0.185,0.213,0.277,0.471,0.277,0.773s-0.024,0.6-0.074,0.893c-0.049,0.289-0.101,0.531-0.154,0.723
		c-0.054,0.193-0.123,0.441-0.208,0.744C59.444,23.051,59.398,23.223,59.39,23.266z"/>
	<path fill="#545454" d="M70.496,23.266c1.712-2.646,3.248-3.971,4.607-3.971c0.459,0,0.803,0.141,1.032,0.418
		c0.229,0.279,0.344,0.631,0.344,1.057s-0.19,1.164-0.571,2.211c-0.381,1.049-0.571,1.699-0.571,1.947
		c0,0.25,0.062,0.375,0.185,0.375c0.164,0,0.405-0.17,0.725-0.508c0.319-0.342,0.602-0.699,0.848-1.076l0.516,0.49
		c-0.49,0.895-1.029,1.568-1.615,2.021c-0.586,0.455-1.061,0.682-1.425,0.682c-0.365,0-0.649-0.119-0.854-0.361
		s-0.307-0.572-0.307-0.99s0.166-1.098,0.498-2.045c0.33-0.945,0.497-1.617,0.497-2.016c0-0.396-0.136-0.596-0.405-0.596
		c-0.312,0-0.68,0.199-1.105,0.596c-0.426,0.398-0.84,0.883-1.241,1.457c-0.64,0.918-1.29,1.973-1.954,3.17l-0.332,0.59h-1.731
		l0.38-1.156c0.713-2.129,1.07-3.393,1.07-3.789c0-0.398-0.066-0.596-0.197-0.596c-0.238,0-0.52,0.283-0.848,0.848
		c-0.074,0.131-0.136,0.234-0.185,0.313c-0.05,0.078-0.104,0.174-0.165,0.283c-0.063,0.111-0.102,0.178-0.117,0.203l-0.823-0.48
		c0.639-1.039,1.224-1.807,1.757-2.303s1.077-0.744,1.635-0.744c0.254,0,0.473,0.107,0.656,0.32
		c0.186,0.213,0.277,0.471,0.277,0.773s-0.025,0.6-0.074,0.893c-0.049,0.289-0.102,0.531-0.154,0.723
		c-0.053,0.193-0.123,0.441-0.207,0.744C70.551,23.051,70.504,23.223,70.496,23.266z"/>
	<path fill="#545454" d="M80.521,24.297c0.05,0.941,0.684,1.412,1.904,1.412c0.451,0,0.92-0.129,1.408-0.387
		c0.486-0.258,0.881-0.563,1.185-0.916l0.528,0.344c-0.68,1.139-1.766,1.836-3.256,2.09c-0.328,0.049-0.643,0.072-0.945,0.072
		c-0.885,0-1.623-0.293-2.213-0.879c-0.59-0.584-0.884-1.299-0.884-2.143s0.258-1.623,0.774-2.34
		c0.516-0.719,1.16-1.271,1.936-1.666c0.773-0.393,1.537-0.59,2.29-0.59c0.754,0,1.407,0.174,1.96,0.516
		c0.553,0.346,0.836,0.809,0.848,1.391c0.013,0.58-0.158,1.082-0.51,1.504s-0.799,0.744-1.339,0.965
		c-1.073,0.434-2.126,0.65-3.158,0.65L80.521,24.297z M80.448,23.621c0.909-0.033,1.64-0.178,2.192-0.438
		c0.554-0.258,0.938-0.551,1.155-0.885c0.217-0.33,0.326-0.68,0.326-1.043c0-0.365-0.095-0.637-0.282-0.811
		c-0.189-0.178-0.391-0.266-0.604-0.266c-0.523,0-1.005,0.182-1.442,0.547c-0.438,0.365-0.772,0.807-1.002,1.328
		C80.563,22.574,80.448,23.096,80.448,23.621z"/>
</g>
</svg>
