<?xml version="1.0" encoding="utf-8"?>
<!-- Generator: Adobe Illustrator 16.0.0, SVG Export Plug-In . SVG Version: 6.00 Build 0)  -->
<!DOCTYPE svg PUBLIC "-//W3C//DTD SVG 1.1//EN" "http://www.w3.org/Graphics/SVG/1.1/DTD/svg11.dtd">
<svg version="1.1" id="图层_1" xmlns="http://www.w3.org/2000/svg" xmlns:xlink="http://www.w3.org/1999/xlink" x="0px" y="0px"
	 width="258px" height="36px" viewBox="0 0 258 36" enable-background="new 0 0 258 36" xml:space="preserve">
<g>
	<path fill="#545454" d="M24.328,10.34c0.369,0.555,0.644,1.145,0.825,1.764s0.271,1.305,0.271,2.057c0,0.75-0.083,1.551-0.25,2.4
		c-0.167,0.848-0.445,1.697-0.835,2.547s-0.863,1.6-1.42,2.254c-0.557,0.654-1.259,1.188-2.108,1.598s-1.781,0.615-2.797,0.615
		c-1.489,0-2.645-0.531-3.465-1.598c-0.821-1.064-1.232-2.436-1.232-4.111c0-1.678,0.295-3.215,0.887-4.615
		c0.592-1.396,1.44-2.539,2.547-3.422c1.107-0.885,2.335-1.326,3.685-1.326c0.891,0,1.67,0.166,2.338,0.5S23.959,9.781,24.328,10.34
		z M18.649,22.154c0.647,0,1.197-0.285,1.649-0.855s0.796-1.316,1.033-2.234c0.473-1.809,0.71-3.666,0.71-5.572
		c0-2.381-0.64-3.572-1.921-3.572c-0.724,0-1.357,0.434-1.9,1.295c-1.016,1.629-1.523,3.883-1.523,6.766
		c0,1.572,0.09,2.545,0.271,2.922c0.083,0.209,0.195,0.424,0.334,0.646C17.553,21.953,18.002,22.154,18.649,22.154z"/>
	<path fill="#545454" d="M27.772,23.574c-0.479,0-0.877-0.16-1.19-0.48c-0.313-0.318-0.47-0.768-0.47-1.346s0.345-2.422,1.034-5.533
		c0.688-3.109,1.033-5.354,1.033-6.732l-0.125-0.918C29.14,8.189,30.156,8,31.102,8c0.14,0.195,0.209,0.537,0.209,1.023
		c0,1.113-0.352,3.268-1.054,6.461c-0.703,3.193-1.055,5.053-1.055,5.574s0.063,0.783,0.188,0.783l1.461-0.521l0.376,0.73
		c-0.474,0.375-1.048,0.725-1.722,1.043C28.83,23.414,28.253,23.574,27.772,23.574z"/>
	<path fill="#545454" d="M31.623,19.713c0-1.74,0.525-3.115,1.576-4.123c1.051-1.01,2.245-1.514,3.581-1.514
		c0.821,0,1.496,0.201,2.024,0.605c0.529,0.402,0.794,0.943,0.794,1.617c0,0.676-0.171,1.242-0.511,1.701
		c-0.342,0.461-0.756,0.814-1.242,1.064c-0.989,0.488-1.894,0.793-2.715,0.918l-0.501,0.064c0.098,1.309,0.634,1.961,1.607,1.961
		c0.334,0,0.688-0.082,1.064-0.25c0.376-0.166,0.669-0.334,0.878-0.5l0.313-0.252l0.501,0.668c-0.112,0.154-0.334,0.355-0.668,0.607
		c-0.334,0.25-0.647,0.459-0.94,0.625c-0.807,0.445-1.689,0.668-2.65,0.668s-1.719-0.34-2.275-1.023
		C31.902,21.869,31.623,20.924,31.623,19.713z M36.301,18.127c0.416-0.475,0.625-1.088,0.625-1.838c0-0.752-0.223-1.127-0.668-1.127
		c-0.529,0-0.936,0.447-1.221,1.346s-0.428,1.736-0.428,2.516C35.318,18.898,35.883,18.6,36.301,18.127z"/>
	<path fill="#545454" d="M42.959,23.574c-0.959,0-1.711-0.336-2.254-1.012s-0.814-1.617-0.814-2.83c0-1.545,0.414-2.873,1.242-3.986
		s1.973-1.67,3.434-1.67l0.752,0.041c0.236-0.125,0.501-0.188,0.794-0.188c1.099,0,1.649,1.037,1.649,3.109
		c0.57-0.027,1.148-0.104,1.732-0.229l0.334-0.084l0.125,0.814c-0.459,0.195-1.078,0.369-1.857,0.521l-0.418,0.084
		c-0.265,1.461-0.801,2.732-1.607,3.811C45.263,23.035,44.227,23.574,42.959,23.574z M44.087,21.779c0.585,0,1.11-0.375,1.576-1.129
		c0.466-0.75,0.79-1.543,0.972-2.379c-1.49,0-2.234-0.557-2.234-1.67c0-0.445,0.09-0.863,0.271-1.254l0.104-0.207
		c-0.055-0.027-0.125-0.043-0.209-0.043c-0.082,0-0.146,0.016-0.188,0.043c-0.348,0.223-0.675,0.744-0.98,1.564
		c-0.307,0.822-0.46,1.762-0.46,2.818C42.938,21.027,43.322,21.779,44.087,21.779z"/>
	<path fill="#545454" d="M61.143,19.232c0,1.336-0.508,2.395-1.523,3.174s-2.248,1.168-3.695,1.168c-0.975,0-1.778-0.248-2.412-0.74
		c-0.633-0.494-0.984-0.916-1.054-1.264c0.153-0.459,0.479-0.975,0.981-1.545c0.501-0.57,0.953-0.918,1.357-1.043
		c0.709,0.459,1.37,1.482,1.982,3.068c0.904-0.027,1.357-0.521,1.357-1.482c0-0.529-0.213-1.18-0.637-1.951
		c-0.425-0.773-0.887-1.496-1.389-2.172c-0.501-0.676-0.963-1.434-1.389-2.275c-0.424-0.842-0.637-1.59-0.637-2.244
		c0-1.057,0.428-1.893,1.285-2.506c0.855-0.611,1.818-0.918,2.891-0.918s1.903,0.23,2.495,0.689c0.591,0.459,0.888,0.98,0.888,1.564
		c0,0.586-0.223,1.184-0.669,1.795c-0.446,0.613-0.891,1.102-1.336,1.463l-0.668,0.541c0.167,0.225,0.368,0.51,0.605,0.857
		c0.236,0.348,0.556,0.939,0.96,1.773C60.94,18.021,61.143,18.703,61.143,19.232z M59.545,12.385c0.188-0.18,0.359-0.4,0.512-0.658
		c0.153-0.258,0.23-0.527,0.23-0.814c0-0.285-0.168-0.525-0.502-0.719C59.451,9.998,59.051,9.9,58.586,9.9
		c-0.467,0-0.856,0.107-1.17,0.322c-0.313,0.217-0.469,0.475-0.469,0.773s0.1,0.648,0.302,1.045s0.399,0.727,0.595,0.99l0.313,0.396
		c0.14-0.068,0.358-0.215,0.657-0.438S59.357,12.564,59.545,12.385z"/>
	<path fill="#545454" d="M67.218,15.119c-0.557,0-1.001,0.463-1.335,1.389c-0.335,0.926-0.502,1.918-0.502,2.975
		c0,1.67,0.515,2.506,1.545,2.506c0.334,0,0.689-0.08,1.064-0.24c0.377-0.16,0.676-0.316,0.898-0.469l0.313-0.252l0.48,0.646
		c-0.111,0.154-0.334,0.355-0.668,0.607c-0.334,0.25-0.646,0.459-0.939,0.625c-0.293,0.168-0.668,0.32-1.127,0.459
		c-0.46,0.139-0.912,0.209-1.357,0.209c-1.086,0-1.9-0.355-2.442-1.064c-0.544-0.711-0.814-1.664-0.814-2.861
		c0-1.656,0.456-2.998,1.367-4.027c0.911-1.031,2.085-1.545,3.518-1.545c0.933,0,1.673,0.211,2.224,0.637
		c0.55,0.424,0.824,0.947,0.824,1.564c0,0.619-0.195,1.152-0.584,1.598c-0.348,0-0.752-0.076-1.211-0.229
		c-0.459-0.154-0.808-0.342-1.044-0.564l0.313-1.838C67.615,15.162,67.44,15.119,67.218,15.119z"/>
	<path fill="#545454" d="M71.121,23.387h-0.146c-0.028-0.111-0.042-0.365-0.042-0.762s0.188-1.465,0.564-3.205
		c0.375-1.74,0.563-2.734,0.563-2.984c0-0.432-0.195-0.906-0.585-1.42l-0.188-0.252l0.021-0.27c0.752-0.209,1.955-0.314,3.612-0.314
		c0.166,0.361,0.25,0.869,0.25,1.523c0.152-0.25,0.473-0.584,0.961-1.002c0.486-0.416,0.988-0.625,1.502-0.625
		c0.752,0,1.128,0.654,1.128,1.961c-0.069,0.084-0.163,0.191-0.282,0.324c-0.117,0.133-0.354,0.316-0.709,0.553
		c-0.355,0.238-0.699,0.385-1.033,0.439c-0.015,0-0.133-0.189-0.355-0.564s-0.391-0.563-0.501-0.563
		c-0.349,0.125-0.655,0.334-0.919,0.625c-0.641,2.881-0.96,4.748-0.96,5.596c0,0.307,0.007,0.521,0.021,0.646
		C73.537,23.289,72.569,23.387,71.121,23.387z"/>
	<path fill="#545454" d="M82.625,15.369c0,0.586-0.188,1.592-0.563,3.018s-0.563,2.359-0.563,2.797c0,0.439,0.063,0.658,0.188,0.658
		c0.084,0,0.404-0.133,0.961-0.396l0.25-0.125l0.354,0.73c-0.125,0.111-0.292,0.25-0.501,0.416c-0.209,0.168-0.598,0.395-1.169,0.68
		s-1.1,0.428-1.587,0.428c-0.486,0-0.869-0.148-1.148-0.449c-0.277-0.299-0.417-0.701-0.417-1.211c0-0.508,0.174-1.412,0.521-2.713
		c0.349-1.301,0.522-2.146,0.522-2.537c0-0.584-0.182-1.135-0.543-1.648l-0.188-0.252l0.021-0.27
		c0.737-0.209,1.935-0.314,3.591-0.314C82.534,14.389,82.625,14.785,82.625,15.369z M80.245,11.895
		c-0.278-0.271-0.417-0.637-0.417-1.096s0.191-0.863,0.574-1.213c0.382-0.348,0.824-0.521,1.325-0.521s0.89,0.141,1.169,0.418
		c0.277,0.279,0.418,0.645,0.418,1.096c0,0.453-0.199,0.854-0.596,1.201s-0.838,0.521-1.326,0.521
		C80.906,12.301,80.523,12.166,80.245,11.895z"/>
	<path fill="#545454" d="M83.376,28c-0.069-0.166-0.104-0.535-0.104-1.105c0-0.572,0.271-2.105,0.814-4.604s0.814-4.424,0.814-5.773
		c0-0.264-0.063-0.545-0.188-0.844c-0.127-0.301-0.258-0.533-0.397-0.701l-0.188-0.229l0.021-0.271
		c0.654-0.209,1.809-0.313,3.466-0.313c0.153,0.291,0.251,0.701,0.292,1.23c1.071-0.877,1.965-1.314,2.683-1.314
		c0.717,0,1.294,0.299,1.733,0.896c0.438,0.6,0.657,1.477,0.657,2.631c0,2.02-0.369,3.518-1.106,4.5
		c-0.738,0.98-1.67,1.471-2.798,1.471c-0.585,0-1.071-0.084-1.461-0.25l-0.209-0.084l0.146-0.814
		c0.126,0.027,0.271,0.041,0.439,0.041c0.361,0,0.678-0.166,0.949-0.5s0.477-0.758,0.615-1.273c0.279-1.029,0.418-1.982,0.418-2.861
		c0-1.252-0.258-1.877-0.772-1.877c-0.403,0-0.835,0.16-1.294,0.48c-0.056,0.973-0.342,2.68-0.856,5.113
		c-0.515,2.436-0.772,4.398-0.772,5.887C85.526,27.742,84.559,27.93,83.376,28z"/>
	<path fill="#545454" d="M100.475,14.326c-0.029,0.348-0.146,0.752-0.355,1.211c-0.529-0.055-1.03-0.084-1.504-0.084H98.24
		c-0.641,3.104-0.96,5.039-0.96,5.805c0,0.402,0.087,0.605,0.261,0.605s0.637-0.174,1.389-0.523l0.375,0.689
		c-1.238,1.031-2.387,1.545-3.444,1.545c-0.487,0-0.888-0.152-1.2-0.459c-0.313-0.307-0.471-0.713-0.471-1.221
		s0.06-1.084,0.178-1.723c0.119-0.641,0.283-1.424,0.491-2.348c0.208-0.928,0.362-1.674,0.459-2.246
		c-0.515,0.043-0.897,0.084-1.148,0.125c-0.027-0.166-0.042-0.393-0.042-0.678s0.021-0.518,0.063-0.699h1.316
		c0.111-0.752,0.166-1.461,0.166-2.129l-0.021-0.648v-0.063c1.085-0.375,2.108-0.563,3.069-0.563
		c0.055,0.279,0.083,0.625,0.083,1.043s-0.118,1.205-0.354,2.359H100.475z"/>
</g>
</svg>
