<?xml version="1.0" encoding="utf-8"?>
<!-- Generator: Adobe Illustrator 16.0.0, SVG Export Plug-In . SVG Version: 6.00 Build 0)  -->
<!DOCTYPE svg PUBLIC "-//W3C//DTD SVG 1.1//EN" "http://www.w3.org/Graphics/SVG/1.1/DTD/svg11.dtd">
<svg version="1.1" id="图层_1" xmlns="http://www.w3.org/2000/svg" xmlns:xlink="http://www.w3.org/1999/xlink" x="0px" y="0px"
	 width="258px" height="36px" viewBox="0 0 258 36" enable-background="new 0 0 258 36" xml:space="preserve">
<g>
	<path fill="#545454" d="M26.864,15.607c0,2.367-0.599,4.229-1.796,5.586c-1.197,1.354-2.861,2.031-4.993,2.031
		c-2.178,0-3.859-0.664-5.043-1.998c-1.183-1.33-1.775-3.211-1.775-5.639c0-2.408,0.593-4.275,1.78-5.6
		C16.224,8.662,17.911,8,20.096,8c2.125,0,3.784,0.676,4.977,2.023C26.267,11.373,26.864,13.234,26.864,15.607z M15.078,15.607
		c0,2.002,0.427,3.523,1.28,4.559c0.853,1.033,2.092,1.553,3.717,1.553c1.639,0,2.876-0.518,3.713-1.549s1.254-2.553,1.254-4.563
		c0-1.99-0.417-3.498-1.25-4.527c-0.833-1.027-2.065-1.541-3.697-1.541c-1.639,0-2.885,0.516-3.738,1.551
		C15.504,12.127,15.078,13.631,15.078,15.607z"/>
	<path fill="#545454" d="M35.068,23.225c-0.722,0-1.381-0.133-1.978-0.398c-0.597-0.266-1.098-0.676-1.502-1.229h-0.121
		c0.081,0.646,0.121,1.26,0.121,1.84V28h-1.679V11.936h1.366l0.233,1.518h0.081c0.432-0.607,0.934-1.045,1.507-1.316
		c0.573-0.27,1.231-0.404,1.973-0.404c1.47,0,2.605,0.504,3.404,1.508c0.8,1.006,1.199,2.414,1.199,4.229
		c0,1.822-0.407,3.236-1.22,4.244C37.639,22.721,36.511,23.225,35.068,23.225z M34.825,13.158c-1.133,0-1.952,0.314-2.458,0.941
		s-0.766,1.627-0.779,2.996v0.373c0,1.559,0.26,2.674,0.779,3.344c0.519,0.672,1.352,1.006,2.499,1.006
		c0.958,0,1.708-0.387,2.251-1.162s0.814-1.846,0.814-3.207c0-1.383-0.271-2.443-0.814-3.182S35.81,13.158,34.825,13.158z"/>
	<path fill="#545454" d="M47.289,23.225c-1.639,0-2.933-0.498-3.879-1.496c-0.948-0.998-1.422-2.385-1.422-4.158
		c0-1.787,0.44-3.207,1.32-4.26c0.88-1.051,2.062-1.578,3.546-1.578c1.389,0,2.489,0.457,3.298,1.371
		c0.81,0.914,1.214,2.119,1.214,3.617v1.063h-7.638c0.034,1.301,0.362,2.289,0.986,2.965c0.624,0.674,1.503,1.012,2.636,1.012
		c1.194,0,2.374-0.252,3.541-0.75v1.496c-0.594,0.258-1.155,0.441-1.685,0.553C48.676,23.17,48.038,23.225,47.289,23.225z
		 M46.833,13.141c-0.89,0-1.6,0.289-2.129,0.867c-0.53,0.58-0.842,1.385-0.936,2.41h5.797c0-1.061-0.236-1.871-0.708-2.434
		S47.71,13.141,46.833,13.141z"/>
	<path fill="#545454" d="M61.816,23.023v-7.172c0-0.904-0.206-1.578-0.617-2.023c-0.411-0.445-1.055-0.67-1.932-0.67
		c-1.16,0-2.01,0.314-2.549,0.941s-0.81,1.662-0.81,3.105v5.818h-1.679V11.936h1.366l0.273,1.518h0.081
		c0.344-0.547,0.826-0.969,1.447-1.27s1.312-0.451,2.074-0.451c1.335,0,2.34,0.322,3.015,0.967c0.675,0.645,1.012,1.674,1.012,3.09
		v7.234H61.816z"/>
	<path fill="#545454" d="M80.927,19.088c0,1.301-0.472,2.316-1.417,3.045s-2.226,1.092-3.844,1.092
		c-1.753,0-3.103-0.225-4.046-0.678v-1.658c0.607,0.256,1.268,0.457,1.982,0.605s1.423,0.225,2.125,0.225
		c1.146,0,2.01-0.219,2.59-0.654c0.58-0.434,0.87-1.039,0.87-1.814c0-0.512-0.103-0.932-0.308-1.26
		c-0.207-0.326-0.55-0.629-1.032-0.906c-0.482-0.275-1.216-0.59-2.2-0.939c-1.376-0.492-2.359-1.076-2.949-1.75
		c-0.59-0.676-0.885-1.555-0.885-2.641c0-1.141,0.428-2.049,1.285-2.723c0.857-0.674,1.99-1.012,3.399-1.012
		c1.47,0,2.822,0.27,4.057,0.809l-0.536,1.498c-1.221-0.512-2.408-0.77-3.561-0.77c-0.911,0-1.622,0.197-2.135,0.588
		c-0.512,0.393-0.769,0.934-0.769,1.629c0,0.512,0.094,0.934,0.283,1.26s0.507,0.627,0.956,0.9c0.448,0.273,1.135,0.574,2.059,0.906
		c1.551,0.553,2.618,1.146,3.202,1.779C80.635,17.254,80.927,18.076,80.927,19.088z"/>
	<path fill="#545454" d="M90.517,23.023l-0.334-1.578h-0.081c-0.553,0.693-1.105,1.166-1.654,1.41
		c-0.55,0.246-1.236,0.369-2.059,0.369c-1.1,0-1.961-0.283-2.585-0.85c-0.624-0.566-0.936-1.371-0.936-2.418
		c0-2.238,1.791-3.412,5.372-3.52l1.882-0.061v-0.688c0-0.871-0.188-1.514-0.561-1.928c-0.375-0.414-0.973-0.621-1.796-0.621
		c-0.924,0-1.97,0.283-3.136,0.85l-0.516-1.285c0.546-0.297,1.145-0.531,1.795-0.699s1.304-0.252,1.958-0.252
		c1.322,0,2.302,0.293,2.938,0.879c0.638,0.588,0.956,1.527,0.956,2.822v7.568H90.517z M86.724,21.84
		c1.045,0,1.867-0.287,2.463-0.859c0.597-0.574,0.896-1.377,0.896-2.408V17.57l-1.679,0.07c-1.335,0.047-2.298,0.254-2.888,0.623
		c-0.59,0.367-0.885,0.938-0.885,1.715c0,0.607,0.184,1.068,0.551,1.385C85.548,21.682,86.063,21.84,86.724,21.84z"/>
	<path fill="#545454" d="M102.809,23.023v-7.172c0-0.904-0.206-1.578-0.617-2.023c-0.412-0.445-1.056-0.67-1.933-0.67
		c-1.16,0-2.01,0.314-2.549,0.941s-0.809,1.662-0.809,3.105v5.818h-1.68V11.936h1.366l0.273,1.518h0.081
		c0.344-0.547,0.826-0.969,1.446-1.27c0.621-0.301,1.312-0.451,2.074-0.451c1.335,0,2.34,0.322,3.015,0.967s1.012,1.674,1.012,3.09
		v7.234H102.809z"/>
	<path fill="#545454" d="M115.09,19.998c0,1.033-0.384,1.828-1.153,2.387c-0.769,0.561-1.848,0.84-3.237,0.84
		c-1.47,0-2.617-0.232-3.439-0.697v-1.559c0.533,0.27,1.104,0.482,1.714,0.639c0.61,0.154,1.199,0.232,1.766,0.232
		c0.877,0,1.551-0.141,2.023-0.42s0.708-0.707,0.708-1.279c0-0.432-0.188-0.803-0.561-1.107c-0.375-0.307-1.105-0.67-2.19-1.088
		c-1.032-0.385-1.766-0.721-2.2-1.008c-0.436-0.285-0.759-0.611-0.971-0.977c-0.213-0.363-0.319-0.799-0.319-1.305
		c0-0.904,0.367-1.617,1.103-2.139c0.735-0.523,1.743-0.785,3.025-0.785c1.194,0,2.36,0.244,3.5,0.729l-0.597,1.367
		c-1.113-0.459-2.121-0.688-3.025-0.688c-0.796,0-1.396,0.123-1.801,0.373s-0.607,0.594-0.607,1.031
		c0,0.297,0.076,0.551,0.228,0.758c0.152,0.211,0.396,0.41,0.733,0.598c0.337,0.189,0.985,0.463,1.942,0.82
		c1.315,0.479,2.204,0.961,2.666,1.447C114.859,18.652,115.09,19.264,115.09,19.998z"/>
</g>
</svg>
