<?xml version="1.0" encoding="utf-8"?>
<!-- Generator: Adobe Illustrator 16.0.0, SVG Export Plug-In . SVG Version: 6.00 Build 0)  -->
<!DOCTYPE svg PUBLIC "-//W3C//DTD SVG 1.1//EN" "http://www.w3.org/Graphics/SVG/1.1/DTD/svg11.dtd">
<svg version="1.1" id="图层_1" xmlns="http://www.w3.org/2000/svg" xmlns:xlink="http://www.w3.org/1999/xlink" x="0px" y="0px"
	 width="258px" height="36px" viewBox="0 0 258 36" enable-background="new 0 0 258 36" xml:space="preserve">
<g>
	<path fill="#545454" d="M24.261,18c0,1.43-0.159,2.674-0.478,3.738c-0.318,1.063-0.738,1.947-1.257,2.654
		c-0.521,0.707-1.106,1.234-1.758,1.584c-0.651,0.348-1.312,0.523-1.979,0.523c-0.668,0-1.328-0.176-1.979-0.523
		c-0.653-0.35-1.238-0.877-1.759-1.584c-0.52-0.707-0.939-1.592-1.257-2.654c-0.318-1.064-0.478-2.309-0.478-3.738
		c0-1.428,0.159-2.674,0.478-3.738c0.318-1.063,0.737-1.947,1.257-2.654c0.521-0.705,1.106-1.234,1.759-1.582
		C17.461,9.674,18.121,9.5,18.789,9.5c0.667,0,1.328,0.174,1.979,0.525c0.652,0.348,1.238,0.877,1.758,1.582
		c0.52,0.707,0.939,1.592,1.257,2.654C24.102,15.326,24.261,16.572,24.261,18z M22.048,18c0-1.6-0.097-2.922-0.291-3.971
		s-0.45-1.883-0.769-2.504c-0.319-0.619-0.671-1.055-1.059-1.305c-0.389-0.248-0.769-0.371-1.141-0.371
		c-0.373,0-0.753,0.123-1.142,0.371c-0.388,0.25-0.741,0.686-1.06,1.305c-0.318,0.621-0.574,1.455-0.768,2.504
		C15.625,15.078,15.528,16.4,15.528,18s0.097,2.924,0.292,3.971c0.194,1.047,0.45,1.883,0.768,2.502
		c0.318,0.621,0.671,1.059,1.06,1.305c0.388,0.248,0.769,0.373,1.142,0.373c0.372,0,0.752-0.125,1.141-0.373
		c0.388-0.246,0.74-0.684,1.059-1.305c0.318-0.619,0.574-1.455,0.769-2.502S22.048,19.6,22.048,18z"/>
	<path fill="#545454" d="M29.267,25.568l1.397,0.35v0.232h-4.658v-0.232l1.398-0.35v-9.547l-1.398-0.35v-0.232h3.26v2.793
		c0.202-0.574,0.443-1.094,0.722-1.561c0.249-0.402,0.551-0.768,0.908-1.094c0.357-0.326,0.784-0.488,1.281-0.488
		c0.171,0,0.334,0.012,0.49,0.035c0.154,0.021,0.294,0.051,0.418,0.08c0.14,0.047,0.264,0.086,0.373,0.117l-0.699,1.746
		c-0.093-0.045-0.194-0.1-0.303-0.162c-0.093-0.047-0.206-0.09-0.337-0.129c-0.132-0.039-0.269-0.059-0.408-0.059
		c-0.404,0-0.761,0.109-1.071,0.326c-0.311,0.219-0.567,0.459-0.769,0.723c-0.249,0.311-0.45,0.66-0.606,1.047V25.568z"/>
	<path fill="#545454" d="M38.815,15.439c-0.466,0-0.854,0.158-1.165,0.477s-0.466,0.742-0.466,1.27c0,0.123,0.003,0.232,0.012,0.324
		c0.008,0.094,0.02,0.18,0.035,0.258s0.039,0.154,0.07,0.232l-1.863,0.465c-0.031-0.045-0.054-0.109-0.069-0.186
		c-0.016-0.078-0.028-0.162-0.035-0.256c-0.008-0.094-0.012-0.217-0.012-0.373c0-0.326,0.078-0.641,0.233-0.943
		c0.155-0.301,0.384-0.572,0.687-0.814c0.304-0.242,0.668-0.434,1.095-0.582c0.427-0.146,0.92-0.221,1.479-0.221
		c1.118,0,1.999,0.316,2.643,0.953c0.644,0.637,0.966,1.484,0.966,2.539v6.986l1.397,0.35v0.232h-3.26v-1.396
		c-0.171,0.326-0.389,0.621-0.652,0.885c-0.217,0.217-0.493,0.416-0.827,0.594c-0.334,0.178-0.733,0.268-1.199,0.268
		c-1.118,0-1.96-0.264-2.526-0.793c-0.567-0.527-0.851-1.234-0.851-2.117c0-0.436,0.121-0.871,0.361-1.305
		c0.241-0.436,0.605-0.822,1.094-1.164s1.114-0.617,1.875-0.828c0.761-0.209,1.668-0.314,2.725-0.314v-1.396
		c0-1.164-0.174-1.979-0.524-2.445C39.688,15.672,39.28,15.439,38.815,15.439z M40.562,20.445c-1.351,0-2.349,0.299-2.993,0.896
		c-0.645,0.598-0.966,1.424-0.966,2.48c0,0.699,0.17,1.242,0.512,1.631c0.341,0.387,0.714,0.582,1.118,0.582
		c0.373,0,0.703-0.109,0.989-0.328c0.288-0.217,0.532-0.455,0.734-0.721c0.233-0.295,0.435-0.645,0.605-1.047V20.445z"/>
	<path fill="#545454" d="M46.616,25.568v-9.547l-1.397-0.35v-0.232h3.26v1.396c0.155-0.311,0.365-0.598,0.629-0.861
		c0.217-0.217,0.497-0.42,0.838-0.607c0.341-0.186,0.745-0.277,1.211-0.277s0.896,0.086,1.292,0.256
		c0.396,0.17,0.741,0.408,1.037,0.711c0.294,0.301,0.524,0.668,0.687,1.094c0.163,0.426,0.245,0.904,0.245,1.432v6.986l1.397,0.35
		v0.232h-4.542v-0.232l1.281-0.35v-6.986c0-1.102-0.175-1.881-0.524-2.34c-0.349-0.459-0.757-0.688-1.222-0.688
		c-0.389,0-0.722,0.109-1.001,0.326s-0.52,0.459-0.722,0.723c-0.233,0.311-0.435,0.66-0.606,1.047v7.918l1.281,0.35v0.232h-4.541
		v-0.232L46.616,25.568z"/>
	<path fill="#545454" d="M58.609,25.568v-9.547l-1.397-0.35v-0.232h3.26v10.129l1.397,0.35v0.232h-4.658v-0.232L58.609,25.568z
		 M60.588,12.76c0,0.295-0.12,0.563-0.36,0.805c-0.241,0.24-0.509,0.361-0.804,0.361c-0.295,0-0.563-0.121-0.804-0.361
		c-0.241-0.242-0.36-0.51-0.36-0.805c0-0.293,0.12-0.563,0.36-0.803c0.241-0.242,0.508-0.361,0.804-0.361
		c0.294,0,0.563,0.119,0.804,0.361C60.468,12.197,60.588,12.467,60.588,12.76z"/>
	<path fill="#545454" d="M65.595,20.795c0,0.992,0.074,1.824,0.222,2.49c0.147,0.668,0.341,1.209,0.582,1.619
		c0.24,0.412,0.512,0.703,0.815,0.873c0.303,0.172,0.618,0.258,0.943,0.258c0.403,0,0.783-0.078,1.141-0.234
		c0.358-0.152,0.676-0.363,0.956-0.629c0.279-0.264,0.508-0.582,0.686-0.955c0.179-0.371,0.299-0.773,0.362-1.209h0.349
		c-0.063,0.496-0.198,0.959-0.407,1.385c-0.21,0.428-0.478,0.795-0.804,1.107c-0.326,0.309-0.703,0.555-1.129,0.732
		c-0.428,0.178-0.889,0.268-1.386,0.268c-0.59,0-1.149-0.127-1.677-0.385c-0.528-0.256-0.998-0.629-1.409-1.119
		c-0.411-0.486-0.737-1.084-0.978-1.793c-0.241-0.705-0.361-1.51-0.361-2.408c0-0.932,0.116-1.754,0.349-2.469
		c0.233-0.715,0.54-1.309,0.92-1.783c0.381-0.471,0.823-0.832,1.328-1.082c0.504-0.246,1.036-0.371,1.595-0.371
		s1.09,0.125,1.595,0.371c0.504,0.25,0.946,0.611,1.327,1.082c0.381,0.475,0.688,1.068,0.92,1.783
		c0.233,0.715,0.35,1.537,0.35,2.469H65.595z M67.691,15.439c-0.232,0-0.465,0.074-0.698,0.221c-0.233,0.146-0.45,0.408-0.653,0.779
		c-0.202,0.373-0.368,0.873-0.5,1.502c-0.132,0.629-0.214,1.424-0.245,2.387h4.192c-0.031-0.963-0.113-1.758-0.244-2.387
		c-0.132-0.629-0.299-1.129-0.501-1.502c-0.202-0.371-0.419-0.633-0.652-0.779S67.924,15.439,67.691,15.439z"/>
	<path fill="#545454" d="M75.027,25.568v-9.547l-1.397-0.35v-0.232h3.26v1.396c0.155-0.311,0.365-0.598,0.629-0.861
		c0.217-0.217,0.497-0.42,0.838-0.607c0.341-0.186,0.745-0.277,1.211-0.277c0.465,0,0.896,0.086,1.292,0.256
		c0.396,0.17,0.742,0.408,1.037,0.711c0.294,0.301,0.524,0.668,0.687,1.094s0.244,0.904,0.244,1.432v6.986l1.398,0.35v0.232h-4.542
		v-0.232l1.281-0.35v-6.986c0-1.102-0.175-1.881-0.524-2.34s-0.757-0.688-1.222-0.688c-0.389,0-0.722,0.109-1.001,0.326
		c-0.28,0.217-0.521,0.459-0.722,0.723c-0.233,0.311-0.435,0.66-0.606,1.047v7.918l1.281,0.35v0.232h-4.541v-0.232L75.027,25.568z"
		/>
	<path fill="#545454" d="M91.211,15.09c0.559,0,1.095,0.127,1.607,0.385c0.513,0.254,0.97,0.627,1.374,1.117
		c0.403,0.488,0.726,1.086,0.966,1.793s0.361,1.51,0.361,2.41c0,0.898-0.12,1.703-0.361,2.408c-0.241,0.709-0.551,1.307-0.931,1.793
		c-0.381,0.49-0.815,0.863-1.304,1.119c-0.489,0.258-0.982,0.385-1.479,0.385c-0.465,0-0.869-0.09-1.21-0.268
		c-0.342-0.178-0.622-0.377-0.838-0.594c-0.264-0.264-0.474-0.559-0.629-0.885v1.396h-3.26v-0.232l1.397-0.35V10.432l-1.397-0.35
		V9.85h3.26v6.404c0.14-0.217,0.326-0.412,0.559-0.582c0.202-0.141,0.454-0.271,0.756-0.396C90.385,15.15,90.761,15.09,91.211,15.09
		z M90.862,15.555c-0.357,0-0.667,0.074-0.931,0.221c-0.264,0.148-0.481,0.307-0.651,0.479c-0.203,0.201-0.374,0.436-0.513,0.699
		v6.986c0.171,0.402,0.373,0.752,0.606,1.047c0.201,0.266,0.442,0.504,0.722,0.721c0.279,0.219,0.613,0.328,1.001,0.328
		c0.264,0,0.532-0.086,0.804-0.258c0.271-0.17,0.52-0.461,0.745-0.873c0.225-0.41,0.411-0.951,0.559-1.619
		c0.148-0.666,0.222-1.498,0.222-2.49c0-0.994-0.074-1.826-0.222-2.492c-0.147-0.668-0.341-1.201-0.582-1.607
		c-0.241-0.402-0.512-0.693-0.815-0.873C91.503,15.645,91.188,15.555,90.862,15.555z"/>
	<path fill="#545454" d="M101.808,15.439c-0.466,0-0.854,0.158-1.165,0.477s-0.466,0.742-0.466,1.27
		c0,0.123,0.004,0.232,0.012,0.324c0.008,0.094,0.019,0.18,0.035,0.258c0.015,0.078,0.039,0.154,0.07,0.232l-1.863,0.465
		c-0.031-0.045-0.054-0.109-0.07-0.186c-0.016-0.078-0.028-0.162-0.035-0.256c-0.009-0.094-0.012-0.217-0.012-0.373
		c0-0.326,0.077-0.641,0.233-0.943c0.155-0.301,0.384-0.572,0.687-0.814s0.667-0.434,1.095-0.582
		c0.427-0.146,0.92-0.221,1.479-0.221c1.118,0,1.999,0.316,2.643,0.953c0.645,0.637,0.967,1.484,0.967,2.539v6.986l1.397,0.35v0.232
		h-3.261v-1.396c-0.17,0.326-0.389,0.621-0.652,0.885c-0.218,0.217-0.493,0.416-0.827,0.594s-0.733,0.268-1.199,0.268
		c-1.118,0-1.96-0.264-2.526-0.793c-0.567-0.527-0.85-1.234-0.85-2.117c0-0.436,0.12-0.871,0.361-1.305
		c0.24-0.436,0.605-0.822,1.094-1.164c0.489-0.342,1.114-0.617,1.875-0.828c0.761-0.209,1.668-0.314,2.725-0.314v-1.396
		c0-1.164-0.174-1.979-0.524-2.445C102.681,15.672,102.273,15.439,101.808,15.439z M103.554,20.445c-1.35,0-2.349,0.299-2.992,0.896
		c-0.645,0.598-0.967,1.424-0.967,2.48c0,0.699,0.171,1.242,0.512,1.631c0.342,0.387,0.714,0.582,1.119,0.582
		c0.373,0,0.702-0.109,0.989-0.328c0.288-0.217,0.532-0.455,0.734-0.721c0.233-0.295,0.435-0.645,0.605-1.047V20.445z"/>
	<path fill="#545454" d="M116.943,16.021v9.547l1.398,0.35v0.232h-3.26v-1.396c-0.171,0.326-0.388,0.621-0.653,0.885
		c-0.217,0.217-0.492,0.416-0.826,0.594c-0.334,0.178-0.734,0.268-1.2,0.268c-0.466,0-0.897-0.086-1.292-0.256
		c-0.396-0.17-0.742-0.408-1.036-0.711c-0.295-0.301-0.524-0.666-0.688-1.094c-0.163-0.428-0.244-0.904-0.244-1.432v-6.986
		l-1.398-0.35v-0.232h4.541v0.232l-1.281,0.35v6.986c0,1.102,0.175,1.881,0.524,2.338c0.349,0.459,0.757,0.689,1.223,0.689
		c0.373,0,0.703-0.109,0.99-0.328c0.287-0.217,0.531-0.455,0.733-0.721c0.233-0.295,0.435-0.645,0.606-1.047v-7.918l-1.281-0.35
		v-0.232h4.541v0.232L116.943,16.021z"/>
	<path fill="#545454" d="M121.368,25.568v-9.547l-1.397-0.35v-0.232h3.26v1.396c0.155-0.311,0.365-0.598,0.629-0.861
		c0.217-0.217,0.497-0.42,0.838-0.607c0.341-0.186,0.745-0.277,1.21-0.277c0.59,0,1.075,0.107,1.455,0.326
		c0.381,0.215,0.688,0.457,0.921,0.721c0.278,0.311,0.496,0.66,0.651,1.049c0.202-0.389,0.443-0.738,0.723-1.049
		c0.248-0.264,0.551-0.506,0.908-0.721c0.357-0.219,0.783-0.326,1.28-0.326c0.466,0,0.896,0.086,1.292,0.256
		c0.396,0.17,0.742,0.408,1.037,0.711c0.295,0.301,0.523,0.668,0.687,1.094s0.245,0.904,0.245,1.432v6.986l1.396,0.35v0.232h-4.541
		v-0.232l1.281-0.35v-6.986c0-1.102-0.175-1.881-0.523-2.34c-0.35-0.459-0.758-0.688-1.223-0.688c-0.389,0-0.723,0.109-1.002,0.326
		s-0.521,0.459-0.722,0.723c-0.233,0.311-0.435,0.66-0.606,1.047v7.918l1.281,0.35v0.232h-4.425v-0.232l1.282-0.35v-6.986
		c0-1.102-0.176-1.881-0.525-2.34c-0.349-0.459-0.757-0.688-1.222-0.688c-0.388,0-0.722,0.109-1.001,0.326
		c-0.28,0.217-0.521,0.459-0.722,0.723c-0.233,0.311-0.436,0.66-0.606,1.047v7.918l1.281,0.35v0.232h-4.541v-0.232L121.368,25.568z"
		/>
</g>
</svg>
