<?xml version="1.0" encoding="utf-8"?>
<!-- Generator: Adobe Illustrator 16.0.0, SVG Export Plug-In . SVG Version: 6.00 Build 0)  -->
<!DOCTYPE svg PUBLIC "-//W3C//DTD SVG 1.1//EN" "http://www.w3.org/Graphics/SVG/1.1/DTD/svg11.dtd">
<svg version="1.1" id="图层_1" xmlns="http://www.w3.org/2000/svg" xmlns:xlink="http://www.w3.org/1999/xlink" x="0px" y="0px"
	 width="258px" height="36px" viewBox="0 0 258 36" enable-background="new 0 0 258 36" xml:space="preserve">
<g>
	<path fill="#545454" d="M18.121,27c-0.886,0-1.646-0.135-2.28-0.404c-0.633-0.27-1.137-0.662-1.511-1.182
		c-0.374-0.518-0.646-1.127-0.817-1.826c-0.171-0.699-0.256-1.512-0.256-2.438v-6.4c0-0.926,0.085-1.732,0.256-2.422
		c0.17-0.689,0.443-1.289,0.817-1.797c0.375-0.508,0.878-0.891,1.511-1.148C16.475,9.127,17.235,9,18.121,9
		c1.72,0,2.961,0.492,3.722,1.477c0.762,0.984,1.142,2.408,1.142,4.273v6.4c0,0.912-0.087,1.719-0.26,2.418
		c-0.175,0.699-0.448,1.309-0.823,1.832c-0.374,0.521-0.878,0.918-1.512,1.189C19.757,26.863,19.001,27,18.121,27z M16.285,24.135
		c0.337,0.531,0.95,0.797,1.836,0.797s1.498-0.266,1.836-0.797c0.338-0.533,0.507-1.316,0.507-2.354v-7.662
		c0-1.023-0.167-1.787-0.502-2.295c-0.334-0.504-0.948-0.758-1.841-0.758c-0.893,0-1.506,0.254-1.841,0.758
		c-0.334,0.508-0.502,1.271-0.502,2.295v7.662C15.778,22.818,15.946,23.602,16.285,24.135z"/>
	<path fill="#545454" d="M28.392,27c-1.037,0-1.87-0.309-2.496-0.926c-0.627-0.617-1.056-1.418-1.285-2.402l1.891-0.631
		c0.453,1.26,1.083,1.891,1.891,1.891c0.4,0,0.71-0.109,0.931-0.33c0.219-0.219,0.33-0.529,0.33-0.93c0-0.584-0.21-1.07-0.63-1.457
		l-2.521-1.891c-0.282-0.191-0.519-0.371-0.709-0.537c-0.19-0.168-0.384-0.373-0.581-0.615c-0.197-0.244-0.347-0.516-0.448-0.818
		c-0.102-0.301-0.152-0.629-0.152-0.984c0-1.076,0.343-1.9,1.029-2.473c0.686-0.57,1.603-0.855,2.752-0.855
		c0.545,0,1.037,0.088,1.477,0.26c0.44,0.176,0.809,0.42,1.108,0.734c0.298,0.316,0.544,0.664,0.738,1.049
		c0.194,0.385,0.347,0.813,0.458,1.285L30.282,18c-0.092-0.25-0.184-0.465-0.276-0.646c-0.092-0.18-0.215-0.375-0.369-0.584
		c-0.155-0.211-0.336-0.373-0.546-0.488c-0.21-0.115-0.443-0.172-0.699-0.172c-0.4,0-0.711,0.109-0.931,0.33
		c-0.22,0.219-0.33,0.529-0.33,0.93c0,0.395,0.21,0.748,0.63,1.064l2.521,1.891c0.282,0.223,0.523,0.438,0.724,0.645
		c0.2,0.205,0.396,0.445,0.586,0.719c0.19,0.271,0.335,0.574,0.433,0.91c0.099,0.334,0.148,0.693,0.148,1.074
		c0,1.076-0.343,1.898-1.029,2.471C30.458,26.713,29.541,27,28.392,27z"/>
	<path fill="#545454" d="M35.087,26.822l-2.333-12.604h2.235l1.398,9.57l1.319-9.57h2.304l1.339,9.473l1.378-9.473h2.245
		l-2.442,12.604h-2.324l-1.339-8.686l-1.359,8.686H35.087z"/>
	<path fill="#545454" d="M48.459,27c-0.703,0-1.298-0.303-1.788-0.912c-0.489-0.607-0.733-1.291-0.733-2.053
		c0-0.609,0.103-1.164,0.311-1.664c0.206-0.498,0.425-0.896,0.654-1.197c0.23-0.297,0.614-0.605,1.152-0.924
		s0.945-0.537,1.221-0.656c0.275-0.117,0.755-0.311,1.438-0.58c0.118-0.047,0.207-0.082,0.266-0.107V18
		c0-0.637-0.088-1.131-0.266-1.482s-0.509-0.527-0.995-0.527c-0.433,0-0.744,0.15-0.93,0.449c-0.188,0.297-0.294,0.711-0.32,1.236
		c-0.007,0.07-0.01,0.18-0.01,0.324h-2.521c0.013-1.209,0.351-2.17,1.014-2.885c0.663-0.717,1.585-1.074,2.767-1.074
		c1.175,0,2.099,0.363,2.772,1.088c0.672,0.727,1.009,1.682,1.009,2.871v5.672c0,1.313,0.108,2.363,0.325,3.15h-2.511l-0.335-1.891
		c-0.131,0.262-0.238,0.467-0.32,0.611c-0.083,0.143-0.202,0.322-0.359,0.535c-0.158,0.215-0.315,0.379-0.473,0.492
		c-0.158,0.115-0.354,0.217-0.591,0.301C49.001,26.957,48.742,27,48.459,27z M49.72,24.932c0.177,0,0.35-0.053,0.517-0.158
		c0.168-0.104,0.294-0.205,0.379-0.305c0.085-0.098,0.19-0.229,0.315-0.395c0.02-0.031,0.036-0.055,0.049-0.068V20.52
		c-0.105,0.072-0.279,0.184-0.522,0.336c-0.243,0.15-0.437,0.273-0.581,0.369c-0.145,0.094-0.318,0.227-0.522,0.395
		c-0.204,0.166-0.361,0.328-0.473,0.48c-0.112,0.156-0.21,0.344-0.295,0.566c-0.085,0.225-0.128,0.457-0.128,0.699
		C48.459,24.41,48.879,24.932,49.72,24.932z"/>
	<path fill="#545454" d="M55.677,26.822V9.176h2.521v17.646H55.677z"/>
	<path fill="#545454" d="M63.387,27c-0.558,0-1.046-0.158-1.462-0.473c-0.417-0.316-0.739-0.742-0.965-1.281
		c-0.227-0.537-0.396-1.098-0.507-1.678c-0.111-0.582-0.18-1.207-0.207-1.875c-0.013-0.311-0.013-1.064,0-2.268
		c0.013-0.432,0.033-0.824,0.059-1.176c0.026-0.35,0.07-0.717,0.133-1.098c0.062-0.381,0.141-0.717,0.236-1.01
		c0.095-0.291,0.222-0.574,0.379-0.846c0.158-0.271,0.342-0.498,0.552-0.676c0.21-0.176,0.463-0.318,0.758-0.422
		c0.295-0.105,0.624-0.158,0.984-0.158c0.282,0,0.547,0.039,0.792,0.113c0.247,0.076,0.481,0.193,0.704,0.355
		c0.224,0.16,0.402,0.303,0.537,0.428s0.311,0.301,0.527,0.531V9.186h2.521v17.637h-2.521V25.68
		c-0.38,0.395-0.768,0.713-1.162,0.955C64.352,26.879,63.899,27,63.387,27z M64.018,24.932c0.61,0,1.24-0.131,1.89-0.395v-7.926
		c-0.564-0.336-1.194-0.502-1.89-0.502c-0.25,0-0.46,0.061-0.63,0.182c-0.171,0.121-0.299,0.299-0.384,0.531
		c-0.085,0.234-0.147,0.473-0.187,0.719c-0.039,0.246-0.062,0.537-0.069,0.871c-0.026,1.471-0.026,2.637,0,3.496
		c0.007,0.42,0.03,0.795,0.069,1.123c0.04,0.328,0.103,0.645,0.192,0.951c0.088,0.305,0.218,0.539,0.389,0.703
		C63.568,24.85,63.774,24.932,64.018,24.932z"/>
</g>
</svg>
