<?xml version="1.0" encoding="utf-8"?>
<!-- Generator: Adobe Illustrator 16.0.0, SVG Export Plug-In . SVG Version: 6.00 Build 0)  -->
<!DOCTYPE svg PUBLIC "-//W3C//DTD SVG 1.1//EN" "http://www.w3.org/Graphics/SVG/1.1/DTD/svg11.dtd">
<svg version="1.1" id="图层_1" xmlns="http://www.w3.org/2000/svg" xmlns:xlink="http://www.w3.org/1999/xlink" x="0px" y="0px"
	 width="258px" height="36px" viewBox="0 0 258 36" enable-background="new 0 0 258 36" xml:space="preserve">
<g>
	<path fill="#545454" d="M13.499,19.547c0.013-0.055,0.044-0.078,0.091-0.072c0.047,0.008,0.091,0.004,0.131-0.01
		c-0.108-0.107-0.175-0.252-0.203-0.436c-0.027-0.182-0.094-0.334-0.203-0.455c0.027-0.068,0.051-0.137,0.071-0.203
		c0.021-0.068,0.078-0.096,0.172-0.082c-0.041-0.297-0.034-0.574,0.021-0.83c0.054-0.258,0.138-0.5,0.253-0.73
		c0.115-0.229,0.25-0.455,0.405-0.678c0.155-0.225,0.308-0.449,0.456-0.68c0.122-0.027,0.196-0.016,0.223,0.031
		c0.027,0.047,0.075,0.037,0.142-0.031c0.216-0.148,0.365-0.314,0.446-0.496c0.081-0.184,0.122-0.383,0.122-0.598
		c0.122-0.352,0.26-0.699,0.416-1.045c0.156-0.344,0.334-0.666,0.537-0.963c0.203-0.297,0.419-0.557,0.649-0.781
		c0.229-0.221,0.479-0.395,0.75-0.516c0.189-0.162,0.429-0.311,0.719-0.445s0.602-0.24,0.933-0.314s0.672-0.115,1.023-0.121
		c0.352-0.008,0.676,0.029,0.973,0.111c0.068,0.027,0.108,0.01,0.122-0.053c0.013-0.059,0.047-0.09,0.101-0.09
		c0.676,0.082,1.28,0.217,1.814,0.406c0.534,0.188,0.99,0.451,1.368,0.789c0.257,0.406,0.5,0.842,0.729,1.309
		c0.23,0.465,0.409,0.951,0.538,1.459c0.128,0.506,0.186,1.029,0.172,1.57c-0.013,0.541-0.128,1.082-0.344,1.621
		c-0.473,0.596-1.047,1.072-1.723,1.43c-0.675,0.359-1.402,0.656-2.179,0.893s-1.581,0.428-2.412,0.576s-1.638,0.311-2.422,0.486
		c0.013,0.365,0.013,0.754,0,1.166c-0.014,0.412-0.058,0.824-0.132,1.236s-0.183,0.814-0.324,1.207
		c-0.142,0.391-0.334,0.756-0.578,1.094c-0.271-0.014-0.551,0.014-0.841,0.08c-0.291,0.068-0.551,0.137-0.78,0.203
		c-0.108-0.066-0.213-0.131-0.314-0.193c-0.102-0.059-0.227-0.096-0.375-0.109c0.041-0.162,0.003-0.332-0.112-0.508
		s-0.229-0.348-0.344-0.518c-0.115-0.168-0.189-0.336-0.223-0.506c-0.034-0.168,0.044-0.32,0.233-0.455
		c-0.108-0.096-0.162-0.244-0.162-0.447c0.054,0.055,0.122,0.082,0.203,0.082c-0.027-0.244,0.003-0.533,0.091-0.871
		s0.162-0.672,0.223-1.004c0.061-0.33,0.071-0.635,0.03-0.912S13.782,19.668,13.499,19.547z M18.769,14.803
		c-0.054,0.148-0.098,0.281-0.132,0.396c-0.034,0.115-0.071,0.219-0.112,0.314c-0.041,0.094-0.084,0.188-0.131,0.283
		c-0.047,0.094-0.098,0.203-0.152,0.324c0.027,0.08,0.081,0.143,0.162,0.182c0.081,0.041,0.135,0.102,0.162,0.184
		c0.189-0.096,0.378-0.166,0.568-0.213c0.189-0.047,0.378-0.084,0.567-0.111s0.378-0.061,0.567-0.102
		c0.189-0.041,0.385-0.109,0.588-0.203s0.416-0.172,0.639-0.234c0.223-0.059,0.442-0.123,0.659-0.191
		c0.216-0.066,0.426-0.145,0.628-0.232c0.203-0.088,0.378-0.207,0.527-0.355c-0.189-0.176-0.473-0.33-0.852-0.467
		c-0.378-0.135-0.787-0.219-1.226-0.254c-0.439-0.031-0.878-0.002-1.317,0.092C19.475,14.311,19.093,14.506,18.769,14.803z"/>
	<path fill="#545454" d="M37.172,13.852c0.013,0.094,0.017,0.166,0.01,0.213s-0.014,0.09-0.021,0.131s-0.01,0.086-0.01,0.131
		c0,0.049,0.014,0.119,0.041,0.213c-0.284,0.461-0.611,0.775-0.983,0.943c-0.372,0.17-0.773,0.291-1.206,0.365
		c-0.432,0.074-0.875,0.152-1.328,0.232c-0.453,0.082-0.902,0.258-1.348,0.527c-0.176-0.068-0.334-0.068-0.477,0
		c-0.142,0.068-0.348,0.088-0.618,0.061c-0.081,0.082-0.182,0.139-0.304,0.172c-0.122,0.035-0.243,0.072-0.365,0.111
		c0.054,0.123,0.078,0.248,0.071,0.375c-0.007,0.129,0.01,0.234,0.051,0.314c0.473,0.041,0.996,0.035,1.571-0.02
		c0.574-0.055,1.138-0.088,1.692-0.102c0.013,0.068,0.006,0.111-0.021,0.131c-0.027,0.021-0.034,0.059-0.02,0.113
		c0.094,0.066,0.189,0.152,0.284,0.252c0.095,0.102,0.189,0.199,0.284,0.295c0.095,0.094,0.192,0.172,0.294,0.232
		s0.22,0.084,0.354,0.07c0.054,0.109,0.091,0.229,0.112,0.355c0.02,0.129,0.003,0.26-0.051,0.395
		c-0.216,0.148-0.433,0.303-0.649,0.457c-0.216,0.156-0.442,0.293-0.679,0.416c-0.236,0.121-0.486,0.219-0.75,0.293
		s-0.558,0.105-0.882,0.092c-0.067,0-0.118,0-0.152,0s-0.078-0.021-0.132-0.061c-0.108,0.066-0.26,0.088-0.456,0.061
		s-0.348-0.008-0.456,0.061c-0.148-0.068-0.328-0.098-0.537-0.092c-0.209,0.008-0.395-0.016-0.557-0.07
		c-0.216,0.283-0.412,0.588-0.588,0.912s-0.331,0.668-0.466,1.033c0.459,0.068,0.841,0.096,1.145,0.082
		c0.304-0.014,0.591-0.037,0.862-0.072c0.27-0.033,0.547-0.066,0.831-0.1c0.284-0.035,0.642-0.045,1.074-0.031
		c0.27-0.148,0.591-0.246,0.962-0.293c0.372-0.049,0.713-0.127,1.024-0.234c0.108,0.041,0.203,0.111,0.284,0.213
		s0.159,0.197,0.233,0.283c0.074,0.09,0.152,0.166,0.233,0.234c0.082,0.066,0.183,0.094,0.304,0.08
		c0.054,0.055,0.091,0.119,0.112,0.193c0.02,0.074,0.037,0.145,0.05,0.213c0.014,0.066,0.037,0.125,0.071,0.172
		c0.034,0.047,0.091,0.064,0.172,0.051c-0.203,0.445-0.436,0.787-0.699,1.023c-0.263,0.236-0.564,0.416-0.902,0.537
		s-0.713,0.217-1.125,0.283c-0.412,0.068-0.868,0.148-1.368,0.244c-0.122,0.027-0.223,0.023-0.304-0.01
		c-0.081-0.035-0.176-0.051-0.284-0.051c-0.311,0.066-0.682,0.127-1.114,0.182c-0.433,0.055-0.872,0.074-1.318,0.061
		s-0.872-0.07-1.277-0.172s-0.736-0.281-0.993-0.537c-0.108-0.096-0.179-0.205-0.213-0.334c-0.034-0.129-0.125-0.227-0.273-0.295
		c-0.014-0.176-0.041-0.371-0.081-0.588c-0.041-0.215-0.081-0.441-0.122-0.68c-0.041-0.234-0.071-0.469-0.091-0.697
		c-0.021-0.23-0.01-0.439,0.03-0.629c0.041-0.203,0.125-0.385,0.253-0.547s0.172-0.338,0.132-0.527
		c0.067-0.014,0.108-0.051,0.122-0.111s0.067-0.084,0.162-0.072c0.081-0.242,0.169-0.473,0.264-0.688
		c0.094-0.217,0.192-0.426,0.294-0.629c0.101-0.203,0.203-0.408,0.304-0.617c0.102-0.211,0.199-0.443,0.294-0.701
		c-0.189-0.176-0.328-0.367-0.416-0.578c-0.088-0.207-0.152-0.418-0.192-0.627s-0.074-0.426-0.102-0.648
		c-0.027-0.225-0.074-0.449-0.142-0.68c0.135-0.203,0.3-0.367,0.497-0.496c0.196-0.129,0.409-0.232,0.638-0.314
		c0.23-0.08,0.48-0.148,0.75-0.203c0.271-0.053,0.554-0.113,0.852-0.182c0.541-0.176,1.023-0.311,1.449-0.406
		c0.425-0.094,0.844-0.172,1.256-0.232s0.841-0.119,1.287-0.172c0.446-0.055,0.953-0.135,1.52-0.244
		c0.122,0.123,0.237,0.184,0.345,0.184c0.054-0.123,0.118-0.158,0.193-0.113c0.074,0.049,0.104,0.012,0.091-0.109
		c0.135,0.229,0.308,0.422,0.517,0.578C36.683,13.611,36.916,13.742,37.172,13.852z"/>
	<path fill="#545454" d="M39.747,23.154c-0.149,0.541-0.281,0.949-0.396,1.227s-0.287,0.564-0.517,0.861
		c-0.176-0.027-0.297-0.008-0.365,0.061c-0.068,0.068-0.142,0.129-0.223,0.182c-0.122,0.027-0.209,0.027-0.264,0
		c-0.054-0.025-0.101-0.057-0.142-0.092c-0.041-0.033-0.091-0.066-0.152-0.1c-0.061-0.033-0.152-0.051-0.273-0.051
		c-0.027-0.109-0.058-0.209-0.091-0.305c-0.034-0.094-0.125-0.129-0.273-0.102c0.027-0.107,0.034-0.199,0.02-0.273
		c-0.013-0.074-0.03-0.143-0.05-0.201c-0.021-0.063-0.038-0.123-0.051-0.184c-0.014-0.061-0.007-0.139,0.02-0.232
		c-0.067,0-0.122-0.049-0.162-0.143s-0.088-0.189-0.142-0.283c0.041-0.244,0.081-0.473,0.122-0.689s0.091-0.42,0.152-0.607
		c0.061-0.189,0.111-0.379,0.152-0.568s0.021-0.385-0.061-0.588c0.054,0.041,0.095,0.029,0.122-0.029
		c0.027-0.063,0.047-0.143,0.061-0.244c0.014-0.102,0.021-0.203,0.021-0.305c0-0.1-0.007-0.186-0.021-0.252
		c0.135-0.352,0.247-0.713,0.334-1.086c0.088-0.371,0.169-0.738,0.243-1.104c0.075-0.365,0.152-0.723,0.233-1.074
		s0.189-0.676,0.324-0.973c0.148-0.027,0.314-0.012,0.497,0.051c0.183,0.059,0.294,0.139,0.334,0.232
		c0.351-0.27,0.662-0.598,0.932-0.984c0.271-0.383,0.547-0.76,0.831-1.123c0.284-0.365,0.598-0.689,0.943-0.973
		c0.344-0.285,0.78-0.453,1.307-0.508c0.27,0.203,0.571,0.41,0.902,0.617c0.331,0.211,0.604,0.484,0.821,0.822
		c0.108,0.055,0.2,0.111,0.274,0.172s0.166,0.125,0.273,0.193v0.242c0.162,0.148,0.294,0.322,0.396,0.518
		c0.101,0.195,0.192,0.404,0.273,0.629c0.081,0.221,0.162,0.445,0.243,0.668s0.176,0.436,0.284,0.639
		c-0.027,0.068-0.041,0.125-0.041,0.172c0,0.049,0.01,0.098,0.03,0.152c0.021,0.055,0.037,0.107,0.051,0.162s0.014,0.129,0,0.223
		c-0.041,0.596-0.233,1.074-0.578,1.439c-0.344,0.365-0.76,0.666-1.247,0.902s-1.006,0.436-1.561,0.598s-1.054,0.338-1.5,0.527
		c0,0.053,0.024,0.08,0.071,0.08c0.047,0,0.064,0.035,0.05,0.102c0.325,0.203,0.581,0.365,0.771,0.486
		c0.189,0.121,0.368,0.223,0.537,0.305c0.169,0.08,0.351,0.152,0.547,0.213c0.196,0.061,0.469,0.131,0.821,0.213
		c0.351,0.08,0.625,0.145,0.821,0.191c0.196,0.049,0.375,0.09,0.537,0.121c0.162,0.035,0.328,0.063,0.497,0.082
		c0.169,0.021,0.409,0.045,0.719,0.07c0.122,0.123,0.227,0.268,0.314,0.438c0.088,0.168,0.145,0.338,0.172,0.506
		c0.027,0.17,0.034,0.332,0.02,0.486c-0.014,0.156-0.061,0.281-0.142,0.375c0.013,0.041,0.044,0.059,0.091,0.051
		c0.047-0.006,0.098-0.004,0.152,0.01c-0.081,0.055-0.149,0.121-0.203,0.203c-0.054,0.08-0.108,0.162-0.162,0.244
		c-0.054,0.08-0.115,0.152-0.183,0.211c-0.067,0.063-0.162,0.1-0.284,0.113c-0.419,0.162-0.946,0.172-1.581,0.029
		s-1.439-0.402-2.412-0.779c-0.486-0.189-0.881-0.355-1.186-0.498c-0.304-0.141-0.567-0.283-0.791-0.424
		c-0.223-0.143-0.426-0.295-0.608-0.457C40.223,23.58,40.003,23.385,39.747,23.154z M42.645,16.201
		c-0.149,0.217-0.314,0.412-0.497,0.588c-0.183,0.176-0.358,0.355-0.527,0.537c-0.169,0.184-0.321,0.387-0.456,0.607
		c-0.135,0.225-0.229,0.484-0.284,0.781c0.473-0.053,0.966-0.186,1.48-0.395c0.513-0.209,1-0.408,1.459-0.598
		c-0.054-0.42-0.199-0.758-0.436-1.014C43.148,16.451,42.901,16.283,42.645,16.201z"/>
	<path fill="#545454" d="M61.738,24.896c-0.135,0.068-0.26,0.129-0.375,0.184c-0.115,0.053-0.247,0.08-0.395,0.08
		c-0.527-0.391-0.801-1.074-0.821-2.047c-0.021-0.973,0.186-2.209,0.618-3.709c0.067-0.041,0.101-0.121,0.101-0.242l-0.182-0.203
		c-0.054,0-0.105,0.006-0.152,0.02c-0.047,0.014-0.085,0.061-0.112,0.143c-0.351,0.256-0.736,0.523-1.155,0.799
		c-0.419,0.279-0.854,0.535-1.307,0.771s-0.912,0.43-1.378,0.578s-0.922,0.223-1.368,0.223c-1.135,0-1.986-0.574-2.554-1.723
		l-0.162-0.305l-0.162,0.264c-0.041,0.055-0.102,0.166-0.183,0.336c-0.081,0.168-0.162,0.359-0.243,0.576s-0.152,0.438-0.213,0.658
		c-0.061,0.225-0.084,0.416-0.071,0.578c-0.122,0.121-0.25,0.264-0.385,0.426s-0.236,0.346-0.304,0.547
		c-0.027,0.109-0.013,0.211,0.041,0.305c-0.027,0.121-0.087,0.217-0.182,0.283c-0.054,0.068-0.111,0.131-0.172,0.193
		c-0.061,0.061-0.111,0.125-0.152,0.191c-0.027,0.068-0.044,0.137-0.051,0.203c-0.007,0.068-0.017,0.135-0.03,0.203
		c0,0.094-0.014,0.182-0.041,0.264c-0.23,0.473-0.413,0.779-0.547,0.922c-0.135,0.141-0.317,0.213-0.547,0.213
		c-0.108,0-0.284-0.02-0.527-0.061c-0.176-0.189-0.334-0.449-0.477-0.781c-0.142-0.33-0.25-0.686-0.324-1.063
		c-0.074-0.379-0.108-0.762-0.102-1.146c0.007-0.385,0.071-0.719,0.193-1.002c0-0.014,0.054-0.15,0.162-0.406
		s0.247-0.588,0.416-0.994c0.169-0.404,0.361-0.854,0.578-1.348c0.216-0.492,0.432-0.973,0.648-1.438
		c0.216-0.467,0.422-0.896,0.618-1.287c0.196-0.393,0.362-0.689,0.497-0.893c0.108-0.162,0.206-0.314,0.294-0.455
		c0.088-0.143,0.172-0.281,0.253-0.416c0.243-0.42,0.477-0.768,0.699-1.043c0.223-0.277,0.551-0.498,0.983-0.66
		c0.297,0.121,0.514,0.264,0.649,0.426l0.041,0.223c0.054,0.135,0.135,0.203,0.243,0.203c0.148,0.041,0.273,0.078,0.375,0.111
		s0.213,0.064,0.334,0.092c0.094,0.107,0.182,0.236,0.263,0.385c0.108,0.162,0.213,0.32,0.314,0.477
		c0.101,0.154,0.183,0.311,0.243,0.465c0.061,0.156,0.095,0.314,0.102,0.477c0.006,0.162-0.024,0.332-0.091,0.508l0.02,0.201
		c0.068,0.123,0.081,0.291,0.041,0.508c-0.013,0.094-0.02,0.193-0.02,0.293c0,0.102,0.014,0.213,0.041,0.336
		c0.243,0.188,0.459,0.283,0.648,0.283c0.216,0,0.416-0.051,0.598-0.152c0.182-0.102,0.354-0.205,0.517-0.314
		c0.108-0.08,0.216-0.152,0.324-0.213c0.108-0.061,0.216-0.098,0.324-0.111c0.244-0.229,0.463-0.432,0.659-0.607
		c0.196-0.176,0.402-0.352,0.618-0.527c0.405-0.324,0.797-0.676,1.175-1.055c0.378-0.377,0.683-0.85,0.912-1.418
		c0.135-0.082,0.277-0.121,0.426-0.121c0.148,0,0.304,0.033,0.466,0.102c0.162,0.066,0.317,0.135,0.466,0.201
		c0.041,0.027,0.078,0.049,0.112,0.061c0.034,0.014,0.064,0.027,0.091,0.041c0,0.135,0.054,0.25,0.162,0.346
		c0.054,0.039,0.088,0.066,0.101,0.08c0.014,0.014,0.034,0.027,0.061,0.041c0.202,0.107,0.331,0.217,0.385,0.324
		c0.095,0.311,0.264,0.547,0.507,0.709c-0.027,0.135-0.023,0.262,0.01,0.375c0.034,0.115,0.078,0.232,0.133,0.355
		c0.013,0.041,0.026,0.08,0.04,0.121c0.013,0.041,0.034,0.088,0.061,0.143l-0.385-0.041l0.061,0.385
		c0.027,0.189,0.011,0.398-0.051,0.629c-0.061,0.229-0.132,0.412-0.213,0.547c0.014,0.352,0.024,0.625,0.03,0.82
		c0.008,0.197-0.003,0.379-0.03,0.549c-0.026,0.168-0.063,0.326-0.111,0.475s-0.111,0.311-0.192,0.486
		c0.054,0.865-0.044,1.652-0.294,2.363c-0.25,0.707-0.51,1.373-0.78,1.996c-0.027,0.066-0.058,0.135-0.091,0.201
		c-0.034,0.068-0.064,0.137-0.091,0.203c-0.122,0.041-0.229,0.086-0.324,0.131C61.947,24.793,61.846,24.844,61.738,24.896z"/>
	<path fill="#545454" d="M75.338,23.561c-0.08,0.229-0.199,0.463-0.354,0.697c-0.155,0.238-0.338,0.447-0.547,0.629
		c-0.21,0.182-0.442,0.334-0.699,0.457c-0.257,0.121-0.527,0.189-0.812,0.203c-0.176-0.041-0.293-0.086-0.354-0.133
		c-0.062-0.047-0.125-0.092-0.193-0.131c-0.041-0.027-0.078-0.053-0.111-0.07c-0.033-0.021-0.064-0.039-0.092-0.053l-0.242-0.102
		l0.08-0.262c0.027-0.109,0.021-0.193-0.02-0.254s-0.122-0.146-0.243-0.254c-0.041-0.041-0.081-0.08-0.122-0.121
		s-0.074-0.082-0.102-0.121l-0.344-0.387l0.547-0.141c0.338-0.096,0.564-0.217,0.679-0.365c0.115-0.148,0.159-0.398,0.132-0.75
		c-0.27-0.055-0.496-0.061-0.679-0.02c-0.183,0.039-0.368,0.088-0.558,0.141c-0.243,0.068-0.49,0.125-0.74,0.174
		c-0.25,0.047-0.523,0.07-0.82,0.07c-0.108,0-0.209-0.004-0.305-0.012c-0.094-0.006-0.195-0.016-0.303-0.029l-0.203-0.041
		c-0.027-0.148-0.055-0.232-0.081-0.254c-0.027-0.02-0.054-0.043-0.081-0.07c-0.068-0.066-0.139-0.158-0.213-0.273
		c-0.074-0.113-0.092-0.26-0.051-0.436c-0.067-0.121-0.108-0.244-0.121-0.365c-0.082,0.162-0.143,0.332-0.184,0.508l-0.08,0.201
		l-0.203,0.041c-0.027,0.014-0.047,0.045-0.061,0.092s-0.021,0.084-0.021,0.111l-0.102,0.344c-0.026,0.027-0.054,0.051-0.081,0.072
		c-0.027,0.02-0.054,0.043-0.081,0.07c-0.026,0.121-0.061,0.244-0.101,0.365c-0.041,0.121-0.082,0.236-0.122,0.344
		c-0.067,0.176-0.125,0.35-0.173,0.518c-0.047,0.17-0.063,0.334-0.051,0.496l-0.08,0.223c-0.068,0.082-0.143,0.146-0.224,0.193
		s-0.162,0.092-0.243,0.131c-0.027,0.027-0.064,0.053-0.111,0.07c-0.047,0.021-0.084,0.039-0.111,0.053l-0.061,0.223l-0.244,0.039
		c-0.148,0.027-0.253,0.049-0.313,0.063c-0.062,0.014-0.132,0.02-0.213,0.02l-0.202-0.02c-0.149-0.123-0.264-0.221-0.346-0.295
		c-0.08-0.074-0.176-0.145-0.283-0.213c-0.121-0.162-0.189-0.283-0.203-0.365c-0.014-0.08-0.027-0.154-0.04-0.223
		c-0.027-0.08-0.044-0.148-0.051-0.203c-0.007-0.053-0.023-0.094-0.051-0.121l-0.263-0.242l0.223-0.184l0.02-0.344
		c0.271-0.689,0.558-1.352,0.861-1.986c0.305-0.635,0.619-1.283,0.943-1.945c0.107-0.217,0.213-0.434,0.313-0.648
		c0.102-0.217,0.206-0.434,0.314-0.65c-0.014-0.039-0.021-0.088-0.021-0.141c0-0.055,0.014-0.115,0.041-0.184
		c0.148-0.229,0.27-0.434,0.365-0.617c0.094-0.182,0.188-0.369,0.283-0.559c0.107-0.229,0.22-0.451,0.334-0.668
		c0.115-0.217,0.26-0.439,0.436-0.668l0.324-0.143c0.041-0.014,0.088-0.031,0.143-0.051c0.055-0.021,0.115-0.031,0.183-0.031
		l0.304,0.041c0.379-0.176,0.709-0.422,0.993-0.738c0.284-0.318,0.574-0.701,0.872-1.146l0.202-0.283L71.487,13
		c0.067,0.041,0.162,0.078,0.284,0.111c0.121,0.033,0.25,0.07,0.385,0.111c0.243,0.055,0.473,0.115,0.689,0.182
		c0.216,0.068,0.392,0.17,0.526,0.305c0.081,0.217,0.128,0.379,0.142,0.486s0.034,0.217,0.061,0.324
		c0.041,0.23,0.078,0.459,0.112,0.689s0.058,0.486,0.071,0.77c0.066,0.23,0.125,0.457,0.172,0.68s0.092,0.449,0.132,0.68
		c0.067,0.324,0.135,0.637,0.202,0.941c0.068,0.305,0.156,0.592,0.264,0.861c0.108,0,0.176,0.008,0.203,0.021
		c0.067-0.027,0.139-0.049,0.213-0.063c0.074-0.012,0.158-0.025,0.253-0.039l0.224-0.021l0.08,0.203
		c0.014,0.068,0.082,0.135,0.203,0.203c0.176,0.014,0.305,0.051,0.385,0.111c0.082,0.061,0.156,0.125,0.223,0.193
		c0.055,0.053,0.109,0.094,0.162,0.121l0.305,0.121l-0.162,0.305c-0.135,0.242-0.328,0.475-0.578,0.699
		c-0.25,0.223-0.529,0.408-0.841,0.557c0.014,0.082,0.024,0.16,0.03,0.232c0.007,0.076,0.023,0.152,0.051,0.234
		c0.041,0.229,0.074,0.465,0.102,0.709s0.027,0.494,0,0.75L75.338,23.561z M69.48,20.053c0.405-0.027,0.773-0.057,1.105-0.092
		c0.33-0.033,0.699-0.09,1.104-0.172c-0.094-0.404-0.195-0.826-0.304-1.266s-0.223-0.875-0.345-1.309l-0.121,0.203
		c-0.271,0.283-0.531,0.602-0.781,0.953s-0.462,0.682-0.638,0.992c-0.081,0.123-0.162,0.244-0.243,0.365s-0.155,0.244-0.223,0.365
		c0.08-0.014,0.158-0.02,0.232-0.02S69.413,20.066,69.48,20.053z"/>
	<path fill="#545454" d="M80.831,21.574c-0.122,0.025-0.21,0.098-0.264,0.211c-0.054,0.117-0.104,0.234-0.151,0.355
		c-0.048,0.121-0.096,0.234-0.143,0.334c-0.047,0.102-0.118,0.152-0.213,0.152c-0.014,0.107-0.051,0.203-0.111,0.283
		c-0.061,0.082-0.118,0.166-0.172,0.254c-0.055,0.088-0.095,0.184-0.122,0.283c-0.026,0.104-0.013,0.221,0.041,0.355
		c-0.108,0.082-0.176,0.195-0.203,0.344c-0.026,0.15-0.058,0.291-0.091,0.426c-0.034,0.137-0.092,0.25-0.172,0.346
		c-0.082,0.094-0.23,0.135-0.446,0.121c-0.041,0.055-0.048,0.088-0.021,0.102s0.047,0.061,0.061,0.143
		c-0.148-0.027-0.26-0.018-0.334,0.029s-0.166,0.078-0.273,0.092c-0.257-0.082-0.47-0.223-0.639-0.426s-0.318-0.428-0.446-0.68
		c-0.128-0.248-0.243-0.502-0.345-0.76c-0.102-0.256-0.199-0.479-0.293-0.668c0.04-0.148,0.047-0.295,0.02-0.438
		c-0.027-0.141-0.074-0.26-0.142-0.354c0.662-1.406,1.385-2.906,2.169-4.5c0.783-1.594,1.526-3.168,2.229-4.723
		c0.311,0.121,0.618,0.262,0.922,0.416c0.304,0.156,0.581,0.334,0.831,0.537s0.463,0.436,0.639,0.699s0.291,0.557,0.345,0.881
		c-0.027,0.082-0.058,0.111-0.091,0.092c-0.034-0.021-0.064-0.01-0.092,0.031c0.054,0.066,0.084,0.113,0.092,0.141
		c0.006,0.027,0.006,0.055,0,0.082c-0.008,0.027-0.011,0.064-0.011,0.111s0.021,0.111,0.061,0.191
		c-0.054-0.012-0.091-0.006-0.111,0.021s-0.063,0.027-0.132,0c0.055,0.148,0.071,0.27,0.051,0.365
		c-0.02,0.094-0.051,0.18-0.092,0.252c-0.04,0.076-0.074,0.156-0.101,0.244c-0.027,0.088-0.021,0.199,0.021,0.334
		c-0.041,0-0.071,0.012-0.092,0.029c-0.02,0.021-0.037,0.041-0.051,0.063c-0.014,0.02-0.03,0.041-0.051,0.061
		c-0.02,0.021-0.051,0.023-0.091,0.01c0.04,0.297,0.054,0.596,0.04,0.893c-0.013,0.297-0.023,0.598-0.029,0.902
		c-0.008,0.303-0.004,0.621,0.01,0.951c0.014,0.332,0.061,0.672,0.142,1.023c0.486-0.283,0.875-0.648,1.165-1.094
		c0.291-0.445,0.527-0.945,0.71-1.5s0.321-1.148,0.415-1.783c0.095-0.635,0.196-1.283,0.305-1.945
		c0.121-0.123,0.216-0.271,0.283-0.447c0.068-0.176,0.129-0.361,0.183-0.557s0.108-0.393,0.162-0.588s0.122-0.375,0.202-0.537
		c0.203,0.027,0.375,0.09,0.518,0.193c0.142,0.1,0.273,0.209,0.395,0.324c0.122,0.115,0.25,0.221,0.386,0.324
		c0.136,0.1,0.304,0.164,0.507,0.191c0.162,0.23,0.311,0.453,0.445,0.67c0.136,0.215,0.224,0.445,0.264,0.688
		c-0.067,0.109-0.118,0.23-0.152,0.365c-0.033,0.135-0.07,0.271-0.111,0.406c-0.04,0.135-0.094,0.26-0.162,0.375
		c-0.066,0.115-0.162,0.213-0.283,0.293c-0.041,0.352-0.092,0.674-0.152,0.963c-0.061,0.291-0.121,0.578-0.182,0.861
		c-0.062,0.285-0.111,0.578-0.152,0.881c-0.041,0.307-0.055,0.641-0.041,1.004c-0.107,0.311-0.223,0.643-0.344,0.994
		c-0.122,0.352-0.217,0.668-0.284,0.953c-0.216,0.176-0.386,0.385-0.507,0.627c-0.121,0.244-0.25,0.486-0.385,0.73
		c-0.055,0.055-0.088,0.066-0.102,0.041c-0.014-0.027-0.061-0.049-0.143-0.061c0.014,0.053,0.014,0.094,0,0.121
		c-0.013,0.027-0.029,0.049-0.051,0.07c-0.02,0.02-0.033,0.051-0.04,0.092s0.003,0.094,0.03,0.162
		c-0.189,0.08-0.357,0.195-0.506,0.344c-0.149,0.148-0.309,0.285-0.477,0.406c-0.169,0.121-0.372,0.203-0.608,0.242
		c-0.236,0.041-0.544-0.006-0.923-0.141c-0.553-0.406-1.043-0.873-1.469-1.398C81.449,22.932,81.102,22.303,80.831,21.574z"/>
	<path fill="#545454" d="M99.701,13.852c0.014,0.094,0.018,0.166,0.01,0.213c-0.006,0.047-0.014,0.09-0.02,0.131
		c-0.007,0.041-0.01,0.086-0.01,0.131c0,0.049,0.013,0.119,0.04,0.213c-0.284,0.461-0.611,0.775-0.983,0.943
		c-0.371,0.17-0.773,0.291-1.205,0.365C97.1,15.922,96.658,16,96.205,16.08c-0.453,0.082-0.902,0.258-1.348,0.527
		c-0.176-0.068-0.335-0.068-0.477,0c-0.143,0.068-0.348,0.088-0.618,0.061c-0.081,0.082-0.183,0.139-0.304,0.172
		c-0.122,0.035-0.244,0.072-0.365,0.111c0.054,0.123,0.078,0.248,0.07,0.375c-0.006,0.129,0.011,0.234,0.051,0.314
		c0.474,0.041,0.997,0.035,1.571-0.02s1.138-0.088,1.692-0.102c0.014,0.068,0.007,0.111-0.021,0.131
		c-0.026,0.021-0.034,0.059-0.021,0.113c0.096,0.066,0.189,0.152,0.284,0.252c0.095,0.102,0.189,0.199,0.284,0.295
		c0.094,0.094,0.192,0.172,0.293,0.232c0.102,0.061,0.221,0.084,0.355,0.07c0.054,0.109,0.091,0.229,0.111,0.355
		c0.021,0.129,0.004,0.26-0.051,0.395c-0.217,0.148-0.432,0.303-0.648,0.457c-0.217,0.156-0.442,0.293-0.68,0.416
		c-0.236,0.121-0.486,0.219-0.75,0.293c-0.263,0.074-0.557,0.105-0.881,0.092c-0.068,0-0.118,0-0.152,0
		c-0.033,0-0.078-0.021-0.132-0.061c-0.108,0.066-0.26,0.088-0.456,0.061c-0.195-0.027-0.348-0.008-0.455,0.061
		c-0.149-0.068-0.328-0.098-0.538-0.092c-0.209,0.008-0.396-0.016-0.558-0.07c-0.216,0.283-0.412,0.588-0.588,0.912
		c-0.175,0.324-0.33,0.668-0.466,1.033c0.46,0.068,0.841,0.096,1.146,0.082c0.304-0.014,0.591-0.037,0.861-0.072
		c0.271-0.033,0.547-0.066,0.831-0.1c0.284-0.035,0.642-0.045,1.074-0.031c0.271-0.148,0.591-0.246,0.963-0.293
		c0.372-0.049,0.713-0.127,1.023-0.234c0.108,0.041,0.202,0.111,0.284,0.213c0.08,0.102,0.158,0.197,0.232,0.283
		c0.074,0.09,0.152,0.166,0.233,0.234c0.081,0.066,0.183,0.094,0.304,0.08c0.055,0.055,0.092,0.119,0.111,0.193
		c0.021,0.074,0.037,0.145,0.051,0.213c0.014,0.066,0.037,0.125,0.071,0.172s0.091,0.064,0.173,0.051
		c-0.203,0.445-0.437,0.787-0.699,1.023c-0.264,0.236-0.564,0.416-0.902,0.537s-0.713,0.217-1.125,0.283
		c-0.412,0.068-0.868,0.148-1.368,0.244c-0.122,0.027-0.224,0.023-0.304-0.01c-0.082-0.035-0.176-0.051-0.284-0.051
		c-0.312,0.066-0.683,0.127-1.114,0.182c-0.434,0.055-0.872,0.074-1.318,0.061c-0.445-0.014-0.871-0.07-1.276-0.172
		s-0.737-0.281-0.993-0.537c-0.108-0.096-0.18-0.205-0.213-0.334c-0.034-0.129-0.125-0.227-0.273-0.295
		c-0.014-0.176-0.041-0.371-0.082-0.588c-0.04-0.215-0.08-0.441-0.121-0.68c-0.041-0.234-0.07-0.469-0.092-0.697
		c-0.02-0.23-0.01-0.439,0.031-0.629c0.041-0.203,0.125-0.385,0.253-0.547s0.173-0.338,0.132-0.527
		c0.068-0.014,0.108-0.051,0.121-0.111c0.014-0.061,0.068-0.084,0.162-0.072c0.082-0.242,0.17-0.473,0.264-0.688
		c0.096-0.217,0.193-0.426,0.295-0.629c0.101-0.203,0.202-0.408,0.304-0.617c0.101-0.211,0.199-0.443,0.294-0.701
		c-0.189-0.176-0.328-0.367-0.416-0.578c-0.088-0.207-0.152-0.418-0.192-0.627s-0.074-0.426-0.101-0.648
		c-0.027-0.225-0.075-0.449-0.143-0.68c0.135-0.203,0.301-0.367,0.496-0.496c0.196-0.129,0.409-0.232,0.639-0.314
		c0.23-0.08,0.48-0.148,0.75-0.203c0.271-0.053,0.555-0.113,0.852-0.182c0.541-0.176,1.023-0.311,1.449-0.406
		c0.426-0.094,0.845-0.172,1.257-0.232s0.841-0.119,1.287-0.172c0.446-0.055,0.952-0.135,1.521-0.244
		c0.121,0.123,0.236,0.184,0.344,0.184c0.055-0.123,0.119-0.158,0.193-0.113c0.074,0.049,0.104,0.012,0.091-0.109
		c0.135,0.229,0.308,0.422,0.517,0.578C99.211,13.611,99.444,13.742,99.701,13.852z"/>
	<path fill="#545454" d="M103.37,21.574c-0.122,0.025-0.21,0.098-0.264,0.211c-0.054,0.117-0.104,0.234-0.151,0.355
		c-0.048,0.121-0.096,0.234-0.143,0.334c-0.047,0.102-0.118,0.152-0.213,0.152c-0.014,0.107-0.051,0.203-0.111,0.283
		c-0.061,0.082-0.118,0.166-0.172,0.254c-0.055,0.088-0.096,0.184-0.122,0.283c-0.026,0.104-0.014,0.221,0.04,0.355
		c-0.107,0.082-0.176,0.195-0.202,0.344c-0.027,0.15-0.058,0.291-0.091,0.426c-0.034,0.137-0.092,0.25-0.173,0.346
		c-0.081,0.094-0.229,0.135-0.446,0.121c-0.04,0.055-0.047,0.088-0.02,0.102s0.047,0.061,0.061,0.143
		c-0.148-0.027-0.26-0.018-0.334,0.029s-0.166,0.078-0.273,0.092c-0.258-0.082-0.471-0.223-0.639-0.426
		c-0.17-0.203-0.318-0.428-0.446-0.68c-0.128-0.248-0.243-0.502-0.345-0.76c-0.102-0.256-0.199-0.479-0.294-0.668
		c0.04-0.148,0.048-0.295,0.021-0.438c-0.027-0.141-0.074-0.26-0.143-0.354c0.662-1.406,1.386-2.906,2.17-4.5
		c0.783-1.594,1.526-3.168,2.229-4.723c0.312,0.121,0.619,0.262,0.923,0.416c0.304,0.156,0.581,0.334,0.831,0.537
		s0.463,0.436,0.639,0.699s0.29,0.557,0.344,0.881c-0.026,0.082-0.057,0.111-0.091,0.092c-0.034-0.021-0.063-0.01-0.091,0.031
		c0.054,0.066,0.084,0.113,0.091,0.141s0.007,0.055,0,0.082s-0.011,0.064-0.011,0.111s0.021,0.111,0.062,0.191
		c-0.054-0.012-0.091-0.006-0.111,0.021s-0.064,0.027-0.132,0c0.054,0.148,0.07,0.27,0.051,0.365
		c-0.021,0.094-0.051,0.18-0.092,0.252c-0.04,0.076-0.074,0.156-0.102,0.244c-0.026,0.088-0.02,0.199,0.021,0.334
		c-0.041,0-0.072,0.012-0.092,0.029c-0.021,0.021-0.037,0.041-0.051,0.063c-0.014,0.02-0.03,0.041-0.051,0.061
		c-0.02,0.021-0.051,0.023-0.091,0.01c0.04,0.297,0.054,0.596,0.04,0.893s-0.023,0.598-0.03,0.902
		c-0.007,0.303-0.003,0.621,0.011,0.951c0.014,0.332,0.061,0.672,0.142,1.023c0.486-0.283,0.875-0.648,1.165-1.094
		c0.291-0.445,0.527-0.945,0.709-1.5c0.184-0.555,0.322-1.148,0.416-1.783c0.095-0.635,0.196-1.283,0.305-1.945
		c0.121-0.123,0.216-0.271,0.283-0.447s0.129-0.361,0.183-0.557s0.108-0.393,0.162-0.588s0.122-0.375,0.202-0.537
		c0.203,0.027,0.375,0.09,0.518,0.193c0.142,0.1,0.273,0.209,0.395,0.324c0.122,0.115,0.25,0.221,0.386,0.324
		c0.135,0.1,0.304,0.164,0.507,0.191c0.162,0.23,0.311,0.453,0.445,0.67c0.135,0.215,0.223,0.445,0.264,0.688
		c-0.067,0.109-0.118,0.23-0.152,0.365c-0.033,0.135-0.07,0.271-0.111,0.406c-0.04,0.135-0.094,0.26-0.162,0.375
		c-0.067,0.115-0.162,0.213-0.283,0.293c-0.041,0.352-0.092,0.674-0.152,0.963c-0.061,0.291-0.121,0.578-0.183,0.861
		c-0.061,0.285-0.111,0.578-0.151,0.881c-0.041,0.307-0.055,0.641-0.041,1.004c-0.107,0.311-0.223,0.643-0.345,0.994
		s-0.216,0.668-0.284,0.953c-0.216,0.176-0.385,0.385-0.506,0.627c-0.122,0.244-0.25,0.486-0.385,0.73
		c-0.055,0.055-0.088,0.066-0.102,0.041c-0.014-0.027-0.061-0.049-0.143-0.061c0.014,0.053,0.014,0.094,0,0.121
		s-0.03,0.049-0.051,0.07c-0.02,0.02-0.033,0.051-0.04,0.092s0.003,0.094,0.03,0.162c-0.189,0.08-0.357,0.195-0.507,0.344
		c-0.148,0.148-0.308,0.285-0.476,0.406c-0.17,0.121-0.372,0.203-0.608,0.242c-0.237,0.041-0.544-0.006-0.923-0.141
		c-0.554-0.406-1.043-0.873-1.469-1.398C103.988,22.932,103.641,22.303,103.37,21.574z"/>
	<path fill="#545454" d="M122.463,15.514c-0.338,0-0.703,0.023-1.094,0.07c-0.393,0.047-0.777,0.098-1.156,0.152
		c-0.27,0.041-0.53,0.074-0.78,0.102c-0.25,0.025-0.476,0.047-0.679,0.061c-0.095,0.297-0.189,0.561-0.283,0.791
		c-0.096,0.229-0.196,0.451-0.305,0.668c-0.107,0.23-0.206,0.463-0.294,0.699s-0.173,0.49-0.253,0.76
		c-0.135,0.217-0.247,0.416-0.335,0.6c-0.088,0.18-0.159,0.387-0.213,0.617c-0.162,0.203-0.284,0.414-0.364,0.639
		c-0.082,0.223-0.143,0.414-0.183,0.576l-0.081,0.244c-0.081,0.082-0.129,0.146-0.143,0.193c-0.013,0.047-0.047,0.09-0.101,0.131
		c-0.014,0.148-0.062,0.297-0.142,0.445c-0.027,0.068-0.048,0.133-0.062,0.193c-0.013,0.061-0.021,0.105-0.021,0.131
		c0,0.137-0.033,0.225-0.102,0.264c0.014,0.068,0.014,0.139,0,0.215c-0.013,0.074-0.026,0.145-0.04,0.211
		c-0.04,0.162-0.054,0.291-0.04,0.385c0.04,0.055,0.077,0.102,0.111,0.143c0.033,0.041,0.057,0.094,0.07,0.162
		c0.082,0.055,0.143,0.088,0.184,0.102c0.053,0.041,0.135,0.088,0.242,0.143l0.183,0.201c0.067,0.393,0.007,0.703-0.183,0.934
		c-0.202,0.256-0.547,0.385-1.033,0.385h-0.243c-0.067-0.068-0.108-0.121-0.122-0.162c-0.107-0.041-0.195-0.074-0.264-0.102
		c-0.067-0.027-0.128-0.082-0.182-0.162c-0.176-0.082-0.318-0.148-0.426-0.203l-0.183-0.102c0-0.148,0-0.229,0-0.242
		c-0.095-0.121-0.165-0.258-0.213-0.406s-0.085-0.297-0.111-0.445c-0.027-0.121-0.058-0.236-0.091-0.344
		c-0.034-0.109-0.078-0.203-0.133-0.285c-0.026-0.783,0.048-1.445,0.224-1.986s0.358-1.061,0.547-1.561
		c0.108-0.27,0.216-0.543,0.325-0.82c0.107-0.277,0.202-0.564,0.283-0.861l0.183-0.203c0.095-0.217,0.172-0.396,0.233-0.537
		c0.061-0.143,0.125-0.287,0.191-0.436c0.041-0.096,0.078-0.186,0.112-0.273s0.063-0.166,0.091-0.234
		c-0.081,0-0.155,0.004-0.223,0.012c-0.068,0.006-0.135,0.016-0.203,0.029c-0.081,0.014-0.155,0.025-0.223,0.031
		s-0.135,0.01-0.203,0.01c-0.094,0-0.162-0.006-0.202-0.02c-0.149,0.066-0.312,0.1-0.486,0.1h-0.203c-0.04,0-0.077-0.002-0.111-0.01
		c-0.034-0.006-0.063-0.01-0.091-0.01c-0.136,0-0.244,0.02-0.324,0.061c-0.162,0-0.318,0-0.467,0h-0.203
		c-0.026,0-0.061,0.004-0.101,0.012c-0.04,0.006-0.074,0.01-0.102,0.01c-0.095,0-0.196-0.01-0.304-0.031
		c-0.108-0.02-0.223-0.064-0.345-0.131c-0.162-0.217-0.271-0.332-0.324-0.346l-0.183-0.242c-0.014-0.082-0.033-0.158-0.061-0.232
		s-0.055-0.16-0.081-0.254c-0.054-0.137-0.104-0.281-0.152-0.436c-0.048-0.156-0.071-0.342-0.071-0.559
		c0.014-0.107,0.041-0.189,0.082-0.242c0.04-0.055,0.074-0.102,0.101-0.143l0.062-0.305l0.264,0.021h0.566
		c0.433,0,0.872-0.018,1.318-0.053c0.445-0.031,0.904-0.07,1.378-0.109c0.271-0.027,0.544-0.055,0.821-0.082
		c0.276-0.027,0.563-0.055,0.861-0.08c0.054-0.123,0.107-0.236,0.162-0.346l0.202-0.102c0.243-0.014,0.415,0.018,0.517,0.092
		s0.186,0.145,0.254,0.213c0.297-0.027,0.598-0.057,0.902-0.092c0.304-0.033,0.611-0.078,0.922-0.131
		c0.459-0.068,0.922-0.129,1.389-0.184c0.466-0.053,0.915-0.08,1.348-0.08c0.189,0,0.371,0.006,0.547,0.02s0.338,0.035,0.486,0.061
		l0.203,0.143c0.041,0.082,0.098,0.156,0.172,0.223c0.074,0.068,0.152,0.135,0.233,0.203c0.162,0.148,0.324,0.324,0.486,0.527
		s0.224,0.5,0.183,0.891c-0.108,0.162-0.189,0.258-0.243,0.285l-0.183,0.242l-0.203-0.02c-0.08,0-0.154,0.01-0.223,0.029
		c-0.067,0.021-0.135,0.045-0.203,0.072c-0.054,0.027-0.107,0.049-0.162,0.07c-0.054,0.02-0.114,0.037-0.182,0.051
		c-0.122,0-0.22-0.002-0.294-0.01C122.622,15.518,122.544,15.514,122.463,15.514z"/>
	<path fill="#545454" d="M130.389,25.547c-0.136,0-0.346-0.021-0.629-0.063c-0.217-0.229-0.408-0.543-0.578-0.941
		c-0.168-0.398-0.297-0.824-0.385-1.277c-0.088-0.451-0.129-0.904-0.121-1.359c0.006-0.451,0.084-0.854,0.232-1.205
		c0-0.014,0.064-0.176,0.193-0.486c0.128-0.311,0.293-0.705,0.496-1.186c0.203-0.479,0.433-1.014,0.689-1.6
		c0.256-0.59,0.514-1.166,0.77-1.734c0.257-0.568,0.504-1.084,0.74-1.551s0.442-0.828,0.618-1.084
		c0.122-0.189,0.233-0.371,0.335-0.547c0.101-0.176,0.199-0.338,0.293-0.486c0.148-0.244,0.287-0.471,0.416-0.68
		c0.128-0.209,0.27-0.398,0.426-0.566c0.155-0.17,0.327-0.318,0.517-0.447c0.188-0.127,0.419-0.24,0.688-0.334
		c0.162,0.066,0.305,0.139,0.426,0.213c0.122,0.074,0.23,0.166,0.324,0.273l0.062,0.283c0.026,0.096,0.071,0.16,0.132,0.193
		s0.111,0.051,0.152,0.051c0.175,0.041,0.327,0.084,0.455,0.131c0.129,0.049,0.268,0.078,0.416,0.092
		c0.054,0.08,0.104,0.162,0.152,0.242c0.047,0.082,0.098,0.156,0.151,0.225c0.271,0.391,0.493,0.77,0.669,1.135s0.176,0.764,0,1.195
		l0.021,0.223c0.067,0.096,0.101,0.184,0.101,0.264c0,0.082-0.013,0.195-0.04,0.346c-0.013,0.107-0.023,0.227-0.03,0.354
		c-0.007,0.129,0.01,0.268,0.051,0.416l0.142,0.162c0.216,0.107,0.426,0.162,0.628,0.162c0.271,0,0.514-0.061,0.73-0.182
		c0.216-0.123,0.418-0.244,0.607-0.365c0.148-0.109,0.287-0.197,0.416-0.264c0.129-0.068,0.254-0.115,0.375-0.143
		c0.283-0.27,0.544-0.51,0.78-0.719s0.483-0.422,0.739-0.639c0.486-0.393,0.96-0.814,1.42-1.268
		c0.459-0.451,0.824-1.016,1.094-1.691c0.148-0.096,0.318-0.143,0.507-0.143c0.189,0,0.378,0.037,0.567,0.111
		s0.379,0.158,0.568,0.254c0.04,0.027,0.077,0.047,0.111,0.061c0.033,0.014,0.07,0.033,0.111,0.061c0,0.148,0.061,0.283,0.182,0.406
		c0.068,0.053,0.115,0.088,0.143,0.102s0.054,0.025,0.08,0.039c0.109,0.068,0.2,0.129,0.274,0.184
		c0.074,0.053,0.132,0.127,0.173,0.223c0.121,0.365,0.324,0.648,0.607,0.852c-0.027,0.148-0.021,0.293,0.021,0.436
		c0.04,0.143,0.087,0.279,0.142,0.416c0.027,0.053,0.047,0.104,0.061,0.15c0.014,0.049,0.034,0.105,0.061,0.174l-0.445-0.041
		l0.061,0.445c0.041,0.23,0.023,0.486-0.051,0.771c-0.074,0.283-0.158,0.506-0.253,0.668c0.026,0.406,0.04,0.727,0.04,0.963
		s-0.014,0.455-0.04,0.658c-0.027,0.203-0.071,0.396-0.132,0.578c-0.061,0.184-0.139,0.375-0.232,0.578
		c0.053,1.027-0.064,1.965-0.355,2.816s-0.604,1.648-0.942,2.393c-0.04,0.094-0.081,0.182-0.122,0.264
		c-0.04,0.08-0.074,0.162-0.102,0.242c-0.148,0.041-0.283,0.088-0.404,0.143c-0.122,0.055-0.236,0.115-0.346,0.182
		c-0.148,0.096-0.297,0.174-0.445,0.232c-0.148,0.063-0.304,0.092-0.466,0.092c-0.649-0.473-0.983-1.289-1.003-2.451
		c-0.021-1.162,0.226-2.643,0.739-4.439c0.095-0.068,0.135-0.17,0.122-0.305V17.58l-0.203-0.02c-0.068,0-0.129,0.006-0.183,0.02
		s-0.095,0.074-0.122,0.184c-0.432,0.311-0.901,0.631-1.408,0.963c-0.507,0.33-1.03,0.635-1.57,0.91
		c-0.541,0.279-1.092,0.508-1.652,0.689c-0.561,0.184-1.104,0.273-1.632,0.273c-1.351,0-2.371-0.688-3.061-2.066l-0.183-0.365
		l-0.202,0.324c-0.04,0.068-0.112,0.199-0.213,0.396c-0.102,0.195-0.202,0.422-0.304,0.678c-0.102,0.258-0.189,0.52-0.264,0.791
		c-0.074,0.27-0.098,0.506-0.071,0.709c-0.162,0.148-0.321,0.318-0.476,0.508c-0.156,0.188-0.268,0.404-0.335,0.648
		c-0.027,0.066-0.034,0.131-0.021,0.191s0.034,0.125,0.061,0.193c-0.014,0.094-0.04,0.162-0.08,0.203
		c-0.041,0.039-0.088,0.08-0.143,0.121c-0.067,0.066-0.135,0.139-0.203,0.213c-0.066,0.074-0.128,0.158-0.182,0.252
		c-0.027,0.082-0.047,0.166-0.061,0.254s-0.027,0.166-0.041,0.234c0,0.148-0.021,0.25-0.061,0.303
		c-0.135,0.283-0.254,0.518-0.355,0.699c-0.101,0.182-0.199,0.322-0.293,0.416c-0.096,0.094-0.193,0.158-0.295,0.193
		C130.642,25.529,130.523,25.547,130.389,25.547z"/>
	<path fill="#545454" d="M159.494,23.561c-0.081,0.229-0.199,0.463-0.355,0.697c-0.154,0.238-0.338,0.447-0.547,0.629
		s-0.442,0.334-0.699,0.457c-0.257,0.121-0.527,0.189-0.811,0.203c-0.176-0.041-0.294-0.086-0.354-0.133
		c-0.062-0.047-0.125-0.092-0.192-0.131c-0.041-0.027-0.078-0.053-0.111-0.07c-0.034-0.021-0.064-0.039-0.092-0.053l-0.243-0.102
		l0.081-0.262c0.027-0.109,0.021-0.193-0.021-0.254c-0.04-0.061-0.122-0.146-0.243-0.254c-0.041-0.041-0.081-0.08-0.121-0.121
		c-0.041-0.041-0.074-0.082-0.102-0.121l-0.345-0.387l0.548-0.141c0.338-0.096,0.563-0.217,0.678-0.365
		c0.115-0.148,0.159-0.398,0.133-0.75c-0.271-0.055-0.497-0.061-0.68-0.02c-0.182,0.039-0.368,0.088-0.557,0.141
		c-0.244,0.068-0.49,0.125-0.74,0.174c-0.25,0.047-0.523,0.07-0.82,0.07c-0.109,0-0.21-0.004-0.305-0.012
		c-0.095-0.006-0.195-0.016-0.304-0.029l-0.203-0.041c-0.026-0.148-0.054-0.232-0.081-0.254c-0.027-0.02-0.054-0.043-0.081-0.07
		c-0.067-0.066-0.138-0.158-0.213-0.273c-0.074-0.113-0.091-0.26-0.05-0.436c-0.068-0.121-0.109-0.244-0.122-0.365
		c-0.081,0.162-0.142,0.332-0.183,0.508l-0.081,0.201l-0.202,0.041c-0.027,0.014-0.048,0.045-0.062,0.092
		c-0.013,0.047-0.021,0.084-0.021,0.111l-0.102,0.344c-0.026,0.027-0.054,0.051-0.08,0.072c-0.027,0.02-0.055,0.043-0.082,0.07
		c-0.026,0.121-0.061,0.244-0.101,0.365s-0.081,0.236-0.122,0.344c-0.067,0.176-0.125,0.35-0.172,0.518
		c-0.047,0.17-0.064,0.334-0.051,0.496l-0.081,0.223c-0.067,0.082-0.142,0.146-0.224,0.193c-0.08,0.047-0.162,0.092-0.242,0.131
		c-0.027,0.027-0.064,0.053-0.111,0.07c-0.048,0.021-0.085,0.039-0.112,0.053l-0.061,0.223l-0.243,0.039
		c-0.148,0.027-0.254,0.049-0.314,0.063s-0.131,0.02-0.213,0.02l-0.202-0.02c-0.149-0.123-0.264-0.221-0.345-0.295
		s-0.176-0.145-0.283-0.213c-0.122-0.162-0.189-0.283-0.203-0.365c-0.014-0.08-0.027-0.154-0.041-0.223
		c-0.027-0.08-0.043-0.148-0.051-0.203c-0.006-0.053-0.023-0.094-0.051-0.121l-0.264-0.242l0.224-0.184l0.021-0.344
		c0.27-0.689,0.557-1.352,0.861-1.986c0.304-0.635,0.618-1.283,0.942-1.945c0.108-0.217,0.213-0.434,0.313-0.648
		c0.102-0.217,0.207-0.434,0.314-0.65c-0.014-0.039-0.02-0.088-0.02-0.141c0-0.055,0.014-0.115,0.04-0.184
		c0.149-0.229,0.271-0.434,0.365-0.617c0.095-0.182,0.188-0.369,0.284-0.559c0.107-0.229,0.219-0.451,0.334-0.668
		s0.26-0.439,0.436-0.668l0.324-0.143c0.041-0.014,0.088-0.031,0.143-0.051c0.053-0.021,0.114-0.031,0.182-0.031l0.305,0.041
		c0.378-0.176,0.709-0.422,0.992-0.738c0.284-0.318,0.574-0.701,0.872-1.146l0.202-0.283L155.643,13
		c0.068,0.041,0.162,0.078,0.284,0.111s0.25,0.07,0.385,0.111c0.243,0.055,0.474,0.115,0.689,0.182
		c0.216,0.068,0.392,0.17,0.526,0.305c0.082,0.217,0.129,0.379,0.143,0.486s0.033,0.217,0.061,0.324
		c0.041,0.23,0.078,0.459,0.111,0.689c0.034,0.23,0.058,0.486,0.071,0.77c0.067,0.23,0.125,0.457,0.173,0.68
		c0.047,0.223,0.09,0.449,0.131,0.68c0.068,0.324,0.135,0.637,0.203,0.941c0.067,0.305,0.155,0.592,0.264,0.861
		c0.107,0,0.176,0.008,0.202,0.021c0.067-0.027,0.139-0.049,0.213-0.063c0.074-0.012,0.159-0.025,0.253-0.039l0.224-0.021
		l0.081,0.203c0.014,0.068,0.081,0.135,0.203,0.203c0.176,0.014,0.303,0.051,0.385,0.111c0.081,0.061,0.155,0.125,0.223,0.193
		c0.055,0.053,0.108,0.094,0.162,0.121l0.305,0.121l-0.162,0.305c-0.136,0.242-0.328,0.475-0.578,0.699
		c-0.25,0.223-0.53,0.408-0.842,0.557c0.014,0.082,0.023,0.16,0.031,0.232c0.006,0.076,0.023,0.152,0.051,0.234
		c0.04,0.229,0.074,0.465,0.102,0.709c0.026,0.244,0.026,0.494,0,0.75L159.494,23.561z M153.637,20.053
		c0.404-0.027,0.773-0.057,1.104-0.092c0.331-0.033,0.699-0.09,1.104-0.172c-0.095-0.404-0.196-0.826-0.305-1.266
		c-0.107-0.439-0.223-0.875-0.344-1.309l-0.122,0.203c-0.271,0.283-0.53,0.602-0.78,0.953s-0.463,0.682-0.639,0.992
		c-0.08,0.123-0.162,0.244-0.243,0.365s-0.155,0.244-0.223,0.365c0.081-0.014,0.159-0.02,0.233-0.02S153.568,20.066,153.637,20.053z
		"/>
	<path fill="#545454" d="M164.095,23.154c-0.148,0.541-0.28,0.949-0.396,1.227c-0.114,0.277-0.287,0.564-0.517,0.861
		c-0.175-0.027-0.297-0.008-0.364,0.061c-0.068,0.068-0.143,0.129-0.223,0.182c-0.122,0.027-0.21,0.027-0.264,0
		c-0.055-0.025-0.102-0.057-0.143-0.092c-0.041-0.033-0.091-0.066-0.152-0.1c-0.061-0.033-0.151-0.051-0.273-0.051
		c-0.027-0.109-0.057-0.209-0.091-0.305c-0.034-0.094-0.125-0.129-0.273-0.102c0.026-0.107,0.034-0.199,0.021-0.273
		s-0.031-0.143-0.051-0.201c-0.021-0.063-0.037-0.123-0.051-0.184s-0.007-0.139,0.02-0.232c-0.066,0-0.121-0.049-0.162-0.143
		c-0.04-0.094-0.088-0.189-0.142-0.283c0.04-0.244,0.081-0.473,0.122-0.689c0.04-0.217,0.091-0.42,0.152-0.607
		c0.061-0.189,0.111-0.379,0.151-0.568s0.021-0.385-0.061-0.588c0.054,0.041,0.095,0.029,0.122-0.029
		c0.026-0.063,0.047-0.143,0.061-0.244s0.02-0.203,0.02-0.305c0-0.1-0.006-0.186-0.02-0.252c0.135-0.352,0.246-0.713,0.334-1.086
		c0.088-0.371,0.169-0.738,0.243-1.104s0.152-0.723,0.233-1.074s0.189-0.676,0.324-0.973c0.148-0.027,0.314-0.012,0.496,0.051
		c0.183,0.059,0.295,0.139,0.335,0.232c0.351-0.27,0.662-0.598,0.933-0.984c0.27-0.383,0.547-0.76,0.83-1.123
		c0.284-0.365,0.599-0.689,0.943-0.973c0.344-0.285,0.779-0.453,1.307-0.508c0.271,0.203,0.571,0.41,0.902,0.617
		c0.331,0.211,0.604,0.484,0.82,0.822c0.108,0.055,0.199,0.111,0.274,0.172c0.074,0.061,0.165,0.125,0.273,0.193v0.242
		c0.162,0.148,0.294,0.322,0.396,0.518s0.192,0.404,0.273,0.629c0.081,0.221,0.162,0.445,0.243,0.668s0.176,0.436,0.284,0.639
		c-0.027,0.068-0.041,0.125-0.041,0.172c0,0.049,0.01,0.098,0.03,0.152s0.037,0.107,0.051,0.162s0.014,0.129,0,0.223
		c-0.04,0.596-0.233,1.074-0.577,1.439c-0.346,0.365-0.761,0.666-1.247,0.902s-1.007,0.436-1.561,0.598s-1.054,0.338-1.5,0.527
		c0,0.053,0.023,0.08,0.071,0.08c0.047,0,0.064,0.035,0.051,0.102c0.324,0.203,0.58,0.365,0.77,0.486s0.369,0.223,0.537,0.305
		c0.169,0.08,0.352,0.152,0.547,0.213c0.197,0.061,0.471,0.131,0.821,0.213c0.352,0.08,0.625,0.145,0.821,0.191
		c0.195,0.049,0.375,0.09,0.537,0.121c0.162,0.035,0.328,0.063,0.496,0.082c0.17,0.021,0.409,0.045,0.72,0.07
		c0.122,0.123,0.227,0.268,0.314,0.438c0.088,0.168,0.146,0.338,0.172,0.506c0.027,0.17,0.034,0.332,0.021,0.486
		c-0.014,0.156-0.061,0.281-0.143,0.375c0.014,0.041,0.045,0.059,0.092,0.051c0.047-0.006,0.098-0.004,0.152,0.01
		c-0.081,0.055-0.148,0.121-0.203,0.203c-0.054,0.08-0.107,0.162-0.162,0.244c-0.054,0.08-0.115,0.152-0.182,0.211
		c-0.068,0.063-0.162,0.1-0.284,0.113c-0.419,0.162-0.946,0.172-1.581,0.029s-1.439-0.402-2.412-0.779
		c-0.486-0.189-0.882-0.355-1.186-0.498c-0.305-0.141-0.568-0.283-0.791-0.424c-0.223-0.143-0.426-0.295-0.607-0.457
		C164.571,23.58,164.352,23.385,164.095,23.154z M166.993,16.201c-0.148,0.217-0.313,0.412-0.497,0.588
		c-0.182,0.176-0.357,0.355-0.526,0.537c-0.169,0.184-0.321,0.387-0.456,0.607c-0.135,0.225-0.229,0.484-0.283,0.781
		c0.473-0.053,0.966-0.186,1.479-0.395c0.514-0.209,1-0.408,1.46-0.598c-0.054-0.42-0.199-0.758-0.436-1.014
		C167.496,16.451,167.25,16.283,166.993,16.201z"/>
	<path fill="#545454" d="M184.283,24.533c-0.649,0.025-1.221,0.014-1.713-0.041c-0.494-0.055-0.977-0.184-1.449-0.385
		c-0.027-0.014-0.055-0.049-0.082-0.102c-0.026-0.055-0.054-0.096-0.08-0.121c-0.082-0.041-0.18-0.059-0.295-0.051
		c-0.114,0.006-0.213-0.004-0.293-0.031c-0.108-0.055-0.277-0.158-0.507-0.314c-0.229-0.154-0.439-0.301-0.628-0.436
		c-0.244-0.189-0.474-0.379-0.689-0.568c-0.217-0.188-0.406-0.391-0.568-0.607c-0.04-0.055-0.094-0.084-0.162-0.092
		c-0.066-0.006-0.128-0.023-0.182-0.049c-0.393,0.242-0.723,0.547-0.994,0.912c-0.27,0.363-0.526,0.736-0.77,1.113
		c-0.243,0.379-0.5,0.736-0.77,1.074c-0.271,0.338-0.615,0.596-1.034,0.771c-0.122,0-0.229-0.021-0.325-0.061
		c-0.094-0.041-0.182-0.092-0.263-0.154c-0.081-0.059-0.162-0.117-0.243-0.172c-0.081-0.053-0.169-0.094-0.264-0.121
		c0-0.162-0.03-0.311-0.092-0.445c-0.061-0.135-0.121-0.264-0.182-0.385c-0.061-0.123-0.105-0.24-0.132-0.355
		c-0.027-0.113,0-0.227,0.081-0.334c-0.081-0.082-0.203-0.17-0.365-0.264c0.082-0.082,0.119-0.156,0.111-0.223
		c-0.006-0.068-0.023-0.135-0.051-0.203c-0.026-0.068-0.051-0.143-0.07-0.223c-0.021-0.082-0.004-0.162,0.051-0.244
		c0.067,0,0.148-0.014,0.243-0.039c-0.081-0.109-0.118-0.172-0.112-0.193c0.008-0.02-0.01-0.051-0.05-0.092
		c-0.027-0.08-0.014-0.131,0.04-0.152c0.055-0.02,0.108-0.043,0.162-0.07c0.055-0.662,0.17-1.277,0.345-1.844
		c0.176-0.568,0.372-1.115,0.588-1.643s0.429-1.061,0.639-1.602c0.21-0.539,0.382-1.121,0.517-1.742
		c0.148-0.148,0.268-0.324,0.355-0.527s0.182-0.404,0.283-0.607s0.217-0.402,0.345-0.6c0.128-0.193,0.308-0.354,0.537-0.475
		c0.188,0.014,0.358,0.064,0.507,0.15c0.148,0.09,0.33,0.127,0.547,0.113c0.041,0.066,0.078,0.135,0.111,0.201
		c0.034,0.068,0.078,0.137,0.132,0.203l0.304-0.061c0.148,0.121,0.281,0.273,0.396,0.457c0.115,0.182,0.192,0.375,0.233,0.576
		c0.041,0.203,0.033,0.396-0.021,0.578c-0.054,0.184-0.183,0.328-0.385,0.436c0.013,0.068,0.017,0.119,0.01,0.152
		c-0.007,0.035-0.017,0.064-0.03,0.092s-0.02,0.053-0.02,0.08s0.02,0.068,0.061,0.123c-0.271,0.201-0.474,0.486-0.608,0.85
		c-0.136,0.365-0.21,0.689-0.224,0.975c0.162-0.164,0.342-0.322,0.537-0.479c0.196-0.154,0.399-0.307,0.608-0.455
		c0.21-0.148,0.413-0.291,0.608-0.426s0.375-0.27,0.537-0.404c0.445-0.406,0.875-0.732,1.287-0.984
		c0.412-0.248,0.848-0.529,1.307-0.84c0.109-0.027,0.193-0.031,0.254-0.012c0.061,0.021,0.125,0.045,0.192,0.072
		c0-0.082-0.023-0.129-0.071-0.143c-0.047-0.014-0.063-0.066-0.051-0.162c0.203-0.055,0.379-0.117,0.527-0.191
		s0.311-0.146,0.486-0.213c0.122,0.121,0.236,0.246,0.345,0.375s0.257,0.205,0.446,0.232c0.067,0.148,0.148,0.26,0.243,0.334
		s0.188,0.146,0.284,0.213c0.094,0.068,0.179,0.148,0.253,0.244c0.074,0.094,0.118,0.242,0.132,0.445
		c-0.055,0.094-0.111,0.195-0.172,0.305c-0.062,0.107-0.119,0.236-0.173,0.385c-0.271,0.242-0.544,0.459-0.821,0.648
		c-0.276,0.189-0.557,0.371-0.841,0.547s-0.574,0.352-0.872,0.527c-0.297,0.176-0.601,0.385-0.912,0.629
		c-0.066,0.094-0.151,0.18-0.253,0.252c-0.101,0.076-0.206,0.15-0.313,0.225c-0.108,0.074-0.21,0.15-0.305,0.232
		c-0.094,0.08-0.169,0.176-0.223,0.283c-0.041,0.014-0.081,0.02-0.121,0.02c-0.041,0-0.082,0.008-0.122,0.021
		c-0.04,0.094-0.104,0.168-0.192,0.223s-0.146,0.129-0.173,0.223c0.203,0.434,0.466,0.764,0.79,0.994
		c0.324,0.229,0.689,0.395,1.096,0.496c0.404,0.102,0.844,0.156,1.316,0.162c0.474,0.008,0.967,0.01,1.48,0.01
		c0.054-0.014,0.077-0.043,0.07-0.092c-0.006-0.047,0.023-0.063,0.092-0.051c0.324,0.109,0.574,0.262,0.75,0.457
		c0.176,0.197,0.385,0.389,0.628,0.578c-0.026,0.514-0.183,0.939-0.466,1.277C185.134,24.059,184.756,24.33,184.283,24.533z"/>
	<path fill="#545454" d="M196.768,13.852c0.014,0.094,0.018,0.166,0.011,0.213s-0.014,0.09-0.021,0.131s-0.01,0.086-0.01,0.131
		c0,0.049,0.014,0.119,0.041,0.213c-0.285,0.461-0.612,0.775-0.984,0.943c-0.371,0.17-0.773,0.291-1.205,0.365
		c-0.433,0.074-0.875,0.152-1.328,0.232c-0.452,0.082-0.902,0.258-1.348,0.527c-0.176-0.068-0.334-0.068-0.477,0
		c-0.142,0.068-0.348,0.088-0.617,0.061c-0.082,0.082-0.184,0.139-0.305,0.172c-0.121,0.035-0.243,0.072-0.365,0.111
		c0.055,0.123,0.078,0.248,0.071,0.375c-0.007,0.129,0.011,0.234,0.051,0.314c0.473,0.041,0.997,0.035,1.571-0.02
		s1.138-0.088,1.691-0.102c0.014,0.068,0.008,0.111-0.02,0.131c-0.027,0.021-0.034,0.059-0.021,0.113
		c0.095,0.066,0.188,0.152,0.284,0.252c0.094,0.102,0.188,0.199,0.283,0.295c0.095,0.094,0.193,0.172,0.294,0.232
		c0.102,0.061,0.22,0.084,0.354,0.07c0.055,0.109,0.092,0.229,0.111,0.355c0.021,0.129,0.004,0.26-0.051,0.395
		c-0.216,0.148-0.432,0.303-0.648,0.457c-0.216,0.156-0.442,0.293-0.679,0.416c-0.236,0.121-0.486,0.219-0.75,0.293
		c-0.263,0.074-0.558,0.105-0.882,0.092c-0.067,0-0.118,0-0.152,0c-0.033,0-0.077-0.021-0.131-0.061
		c-0.108,0.066-0.26,0.088-0.457,0.061c-0.195-0.027-0.348-0.008-0.455,0.061c-0.148-0.068-0.328-0.098-0.537-0.092
		c-0.21,0.008-0.396-0.016-0.558-0.07c-0.216,0.283-0.412,0.588-0.588,0.912s-0.331,0.668-0.466,1.033
		c0.459,0.068,0.841,0.096,1.145,0.082c0.305-0.014,0.592-0.037,0.861-0.072c0.271-0.033,0.548-0.066,0.832-0.1
		c0.283-0.035,0.641-0.045,1.074-0.031c0.27-0.148,0.591-0.246,0.963-0.293c0.371-0.049,0.712-0.127,1.023-0.234
		c0.107,0.041,0.202,0.111,0.283,0.213s0.158,0.197,0.232,0.283c0.075,0.09,0.152,0.166,0.234,0.234
		c0.08,0.066,0.182,0.094,0.303,0.08c0.055,0.055,0.092,0.119,0.112,0.193s0.037,0.145,0.051,0.213
		c0.013,0.066,0.037,0.125,0.071,0.172c0.033,0.047,0.091,0.064,0.172,0.051c-0.203,0.445-0.436,0.787-0.699,1.023
		s-0.564,0.416-0.902,0.537s-0.713,0.217-1.125,0.283c-0.412,0.068-0.868,0.148-1.367,0.244c-0.123,0.027-0.224,0.023-0.305-0.01
		c-0.081-0.035-0.176-0.051-0.283-0.051c-0.312,0.066-0.684,0.127-1.115,0.182c-0.433,0.055-0.871,0.074-1.317,0.061
		s-0.872-0.07-1.277-0.172s-0.736-0.281-0.993-0.537c-0.107-0.096-0.179-0.205-0.213-0.334c-0.033-0.129-0.125-0.227-0.273-0.295
		c-0.014-0.176-0.041-0.371-0.081-0.588c-0.04-0.215-0.081-0.441-0.122-0.68c-0.04-0.234-0.07-0.469-0.091-0.697
		c-0.021-0.23-0.011-0.439,0.03-0.629c0.041-0.203,0.125-0.385,0.254-0.547c0.128-0.162,0.172-0.338,0.131-0.527
		c0.068-0.014,0.109-0.051,0.122-0.111c0.014-0.061,0.067-0.084,0.162-0.072c0.081-0.242,0.169-0.473,0.264-0.688
		c0.095-0.217,0.192-0.426,0.294-0.629s0.203-0.408,0.304-0.617c0.102-0.211,0.2-0.443,0.294-0.701
		c-0.189-0.176-0.328-0.367-0.416-0.578c-0.087-0.207-0.151-0.418-0.191-0.627c-0.041-0.209-0.074-0.426-0.102-0.648
		c-0.027-0.225-0.074-0.449-0.143-0.68c0.136-0.203,0.301-0.367,0.497-0.496s0.409-0.232,0.639-0.314
		c0.229-0.08,0.479-0.148,0.749-0.203c0.271-0.053,0.555-0.113,0.852-0.182c0.541-0.176,1.023-0.311,1.449-0.406
		c0.426-0.094,0.845-0.172,1.257-0.232c0.413-0.061,0.841-0.119,1.287-0.172c0.446-0.055,0.952-0.135,1.521-0.244
		c0.121,0.123,0.236,0.184,0.344,0.184c0.055-0.123,0.119-0.158,0.193-0.113c0.074,0.049,0.104,0.012,0.091-0.109
		c0.136,0.229,0.308,0.422,0.517,0.578C196.278,13.611,196.512,13.742,196.768,13.852z"/>
	<path fill="#545454" d="M199.342,23.154c-0.148,0.541-0.279,0.949-0.395,1.227s-0.287,0.564-0.518,0.861
		c-0.176-0.027-0.297-0.008-0.364,0.061s-0.142,0.129-0.224,0.182c-0.121,0.027-0.209,0.027-0.263,0
		c-0.054-0.025-0.102-0.057-0.142-0.092c-0.041-0.033-0.092-0.066-0.152-0.1s-0.152-0.051-0.273-0.051
		c-0.027-0.109-0.058-0.209-0.092-0.305c-0.033-0.094-0.125-0.129-0.273-0.102c0.027-0.107,0.033-0.199,0.021-0.273
		c-0.014-0.074-0.03-0.143-0.051-0.201c-0.021-0.063-0.037-0.123-0.051-0.184s-0.007-0.139,0.021-0.232
		c-0.068,0-0.122-0.049-0.162-0.143c-0.041-0.094-0.088-0.189-0.143-0.283c0.041-0.244,0.082-0.473,0.122-0.689
		s0.091-0.42,0.151-0.607c0.062-0.189,0.112-0.379,0.152-0.568c0.041-0.189,0.021-0.385-0.061-0.588
		c0.055,0.041,0.095,0.029,0.121-0.029c0.027-0.063,0.048-0.143,0.062-0.244c0.013-0.102,0.021-0.203,0.021-0.305
		c0-0.1-0.008-0.186-0.021-0.252c0.135-0.352,0.247-0.713,0.335-1.086c0.087-0.371,0.168-0.738,0.242-1.104s0.152-0.723,0.233-1.074
		s0.188-0.676,0.324-0.973c0.149-0.027,0.314-0.012,0.497,0.051c0.182,0.059,0.293,0.139,0.334,0.232
		c0.352-0.27,0.662-0.598,0.933-0.984c0.271-0.383,0.547-0.76,0.831-1.123c0.283-0.365,0.598-0.689,0.942-0.973
		c0.345-0.285,0.78-0.453,1.308-0.508c0.27,0.203,0.57,0.41,0.901,0.617c0.331,0.211,0.604,0.484,0.821,0.822
		c0.107,0.055,0.199,0.111,0.273,0.172s0.166,0.125,0.273,0.193v0.242c0.162,0.148,0.294,0.322,0.396,0.518
		c0.101,0.195,0.192,0.404,0.273,0.629c0.081,0.221,0.162,0.445,0.243,0.668s0.176,0.436,0.283,0.639
		c-0.026,0.068-0.04,0.125-0.04,0.172c0,0.049,0.011,0.098,0.03,0.152c0.021,0.055,0.037,0.107,0.051,0.162s0.014,0.129,0,0.223
		c-0.041,0.596-0.232,1.074-0.578,1.439c-0.344,0.365-0.76,0.666-1.246,0.902s-1.006,0.436-1.561,0.598
		c-0.554,0.162-1.054,0.338-1.5,0.527c0,0.053,0.023,0.08,0.071,0.08s0.063,0.035,0.051,0.102c0.324,0.203,0.581,0.365,0.771,0.486
		c0.188,0.121,0.367,0.223,0.537,0.305c0.168,0.08,0.351,0.152,0.547,0.213c0.195,0.061,0.469,0.131,0.82,0.213
		c0.352,0.08,0.625,0.145,0.821,0.191c0.196,0.049,0.375,0.09,0.537,0.121c0.162,0.035,0.327,0.063,0.497,0.082
		c0.168,0.021,0.408,0.045,0.719,0.07c0.122,0.123,0.227,0.268,0.314,0.438c0.088,0.168,0.146,0.338,0.172,0.506
		c0.027,0.17,0.034,0.332,0.021,0.486c-0.013,0.156-0.061,0.281-0.142,0.375c0.014,0.041,0.044,0.059,0.092,0.051
		c0.047-0.006,0.098-0.004,0.151,0.01c-0.081,0.055-0.148,0.121-0.202,0.203c-0.055,0.08-0.108,0.162-0.162,0.244
		c-0.055,0.08-0.115,0.152-0.184,0.211c-0.066,0.063-0.162,0.1-0.283,0.113c-0.419,0.162-0.945,0.172-1.581,0.029
		c-0.635-0.143-1.438-0.402-2.411-0.779c-0.487-0.189-0.883-0.355-1.187-0.498c-0.304-0.141-0.567-0.283-0.79-0.424
		c-0.223-0.143-0.426-0.295-0.608-0.457S199.6,23.385,199.342,23.154z M202.24,16.201c-0.148,0.217-0.314,0.412-0.496,0.588
		c-0.183,0.176-0.357,0.355-0.527,0.537c-0.168,0.184-0.32,0.387-0.455,0.607c-0.136,0.225-0.23,0.484-0.285,0.781
		c0.474-0.053,0.967-0.186,1.48-0.395s1-0.408,1.459-0.598c-0.054-0.42-0.199-0.758-0.436-1.014
		C202.744,16.451,202.498,16.283,202.24,16.201z"/>
</g>
</svg>
