<?xml version="1.0" encoding="utf-8"?>
<!-- Generator: Adobe Illustrator 16.0.0, SVG Export Plug-In . SVG Version: 6.00 Build 0)  -->
<!DOCTYPE svg PUBLIC "-//W3C//DTD SVG 1.1//EN" "http://www.w3.org/Graphics/SVG/1.1/DTD/svg11.dtd">
<svg version="1.1" id="图层_1" xmlns="http://www.w3.org/2000/svg" xmlns:xlink="http://www.w3.org/1999/xlink" x="0px" y="0px"
	 width="258px" height="36px" viewBox="0 0 258 36" enable-background="new 0 0 258 36" xml:space="preserve">
<g>
	<path fill="#545454" d="M13.315,11.377h5.935v14.99h-5.935V11.377z M21.236,11.377h0.817c2.184,0,3.816,0.525,4.898,1.576
		c0.992,0.965,1.488,2.328,1.488,4.092c0,1.568-0.515,2.83-1.545,3.785c-1.095,1.016-2.606,1.521-4.533,1.521h-1.125V11.377z"/>
	<path fill="#545454" d="M31.055,9.5h5.935v16.891h-5.935V9.5z"/>
	<path fill="#545454" d="M40.133,20.896c0-0.809,0.106-1.563,0.32-2.256c0.213-0.695,0.544-1.303,0.992-1.826
		c0.971-1.117,2.361-1.676,4.17-1.676h0.85v11.252h-0.574c-1.853,0-3.287-0.508-4.302-1.523
		C40.618,23.896,40.133,22.572,40.133,20.896z M48.098,15.139h6.09v11.252h-0.695c-1.912,0-3.287-0.334-4.126-1.004
		c-0.846-0.676-1.269-1.795-1.269-3.354V15.139z"/>
	<path fill="#545454" d="M57.827,26.391c-0.22-0.338-0.331-0.803-0.331-1.391c0-1.082,0.404-1.891,1.214-2.428l4.435,3.818H57.827z
		 M58.147,19.375c-0.022-0.09-0.04-0.184-0.056-0.289l-0.044-0.307c-0.029-0.221-0.044-0.48-0.044-0.779
		c0-0.297,0.068-0.641,0.203-1.031c0.137-0.391,0.359-0.729,0.668-1.014c0.662-0.617,1.684-0.928,3.066-0.928l8.197,7.205
		c0.073,0.264,0.11,0.615,0.11,1.053s-0.073,0.854-0.221,1.246s-0.383,0.734-0.706,1.021C68.631,26.184,67.623,26.5,66.3,26.5
		l-8.075-7.125H58.147z M70.326,15.139c0.221,0.338,0.331,0.801,0.331,1.389c0,1.09-0.408,1.902-1.226,2.439l-4.423-3.828H70.326z"
		/>
	<path fill="#545454" d="M79.438,26.391c-3.641,0-5.46-1.662-5.46-4.986v-6.199l4.666-3.057h1.655v14.242H79.438z M81.898,15.139
		h5.283v3.695h-5.283V15.139z M81.908,21.68h6.123v0.971c0,1.25-0.383,2.174-1.146,2.77c-0.832,0.646-2.174,0.971-4.027,0.971
		h-0.949V21.68z"/>
	<path fill="#545454" d="M90.889,20.896c0-0.809,0.106-1.563,0.32-2.256c0.213-0.695,0.543-1.303,0.992-1.826
		c0.971-1.117,2.361-1.676,4.17-1.676h0.85v11.252h-0.574c-1.853,0-3.287-0.508-4.301-1.523
		C91.374,23.896,90.889,22.572,90.889,20.896z M98.854,15.139h0.728c2.78,0,4.476,0.941,5.086,2.824
		c0.198,0.625,0.298,1.35,0.298,2.172v1.215h-6.111V15.139z M98.854,23.512h5.516v0.309c0,0.684-0.246,1.26-0.739,1.732
		c-0.603,0.557-1.46,0.838-2.569,0.838h-2.207V23.512z"/>
	<path fill="#545454" d="M108.484,15.139h6.133v11.252h-6.133V15.139z M116.205,18.271c0-2.09,1.351-3.133,4.049-3.133h1.545v5.625
		h-5.594V18.271z"/>
</g>
</svg>
