<?xml version="1.0" encoding="utf-8"?>
<!-- Generator: Adobe Illustrator 16.0.0, SVG Export Plug-In . SVG Version: 6.00 Build 0)  -->
<!DOCTYPE svg PUBLIC "-//W3C//DTD SVG 1.1//EN" "http://www.w3.org/Graphics/SVG/1.1/DTD/svg11.dtd">
<svg version="1.1" id="图层_1" xmlns="http://www.w3.org/2000/svg" xmlns:xlink="http://www.w3.org/1999/xlink" x="0px" y="0px"
	 width="258px" height="36px" viewBox="0 0 258 36" enable-background="new 0 0 258 36" xml:space="preserve">
<g>
	<path fill="#545454" d="M22.97,11.941v2.975c0,1.221-0.473,2.082-1.42,2.588c-0.947,0.508-2.287,0.76-4.02,0.76h-2.137v5.154
		h-2.136V9.123h4.669c0.587,0,1.094,0.014,1.52,0.045c0.426,0.029,0.877,0.1,1.355,0.207c0.477,0.111,0.859,0.266,1.145,0.465
		c0.287,0.197,0.529,0.473,0.728,0.824S22.97,11.443,22.97,11.941z M20.877,14.805v-2.6c0-0.395-0.103-0.723-0.308-0.979
		c-0.206-0.256-0.5-0.438-0.881-0.539c-0.382-0.104-0.702-0.166-0.958-0.188c-0.257-0.023-0.576-0.033-0.958-0.033h-2.401v6.453
		h2.445c0.852,0,1.575-0.158,2.17-0.475C20.58,16.131,20.877,15.584,20.877,14.805z"/>
	<path fill="#545454" d="M27.661,23.418h-1.982V8h1.982V23.418z"/>
	<path fill="#545454" d="M39.511,23.418h-1.917v-1.012c-0.162,0.822-1.233,1.232-3.215,1.232c-1.469,0-2.486-0.225-3.051-0.672
		c-0.565-0.449-0.848-1.355-0.848-2.721c0-1.189,0.264-2.008,0.794-2.455c0.528-0.449,1.548-0.672,3.061-0.672h3.194v-1.697
		c0-0.586-0.18-0.982-0.54-1.189c-0.36-0.205-1.04-0.309-2.038-0.309c-1.086,0-2.306,0.09-3.656,0.266v-1.455
		c1.454-0.131,2.768-0.197,3.943-0.197c1.791,0,2.951,0.215,3.48,0.65c0.529,0.432,0.793,1.332,0.793,2.697V23.418z M37.529,21.26
		v-2.908h-3.062c-0.911,0-1.479,0.117-1.707,0.352c-0.228,0.236-0.341,0.773-0.341,1.609c0,0.748,0.121,1.273,0.363,1.574
		s0.752,0.451,1.531,0.451h0.396c0.381,0,0.701-0.006,0.958-0.021c0.256-0.016,0.547-0.055,0.87-0.121
		c0.323-0.066,0.568-0.176,0.737-0.33S37.529,21.51,37.529,21.26z"/>
	<path fill="#545454" d="M51.229,12.758L45.876,28h-2.07l1.674-4.428l-4.119-10.814h2.159l2.973,8.699h0.044l2.687-8.699H51.229z"/>
</g>
</svg>
