<?xml version="1.0" encoding="utf-8"?>
<!-- Generator: Adobe Illustrator 16.0.0, SVG Export Plug-In . SVG Version: 6.00 Build 0)  -->
<!DOCTYPE svg PUBLIC "-//W3C//DTD SVG 1.1//EN" "http://www.w3.org/Graphics/SVG/1.1/DTD/svg11.dtd">
<svg version="1.1" id="图层_1" xmlns="http://www.w3.org/2000/svg" xmlns:xlink="http://www.w3.org/1999/xlink" x="0px" y="0px"
	 width="258px" height="36px" viewBox="0 0 258 36" enable-background="new 0 0 258 36" xml:space="preserve">
<g>
	<path fill="#545454" d="M19.406,23.516h-3.779l-2.37-1.369V10.379l2.37-1.369h5.986l2.37,1.369v11.768l-2.37,1.369l2.309,3.984
		h-2.268L19.406,23.516z M15.3,10.85v10.826h6.64V10.85H15.3z"/>
	<path fill="#545454" d="M27.455,22.146v-8.947h1.981v8.539h4.719v-8.539h1.982v10.316h-1.492l-0.49-0.838l-1.45,0.838h-2.88
		L27.455,22.146z"/>
	<path fill="#545454" d="M41.367,23.516l-2.37-1.369v-3.33l2.37-1.369h3.719v-2.471h-5.067v-1.777h4.679l2.37,1.367v8.949h-0.531
		l-1.45-0.838l-1.451,0.838H41.367z M40.979,19.225v2.514h4.107v-2.514H40.979z"/>
	<path fill="#545454" d="M59.019,14.465v8.949h-1.982v-8.539h-4.719v8.539h-1.981V13.096h1.491l0.49,0.838l1.451-0.838h2.881
		L59.019,14.465z"/>
	<path fill="#545454" d="M61.47,14.977v-1.777h1.88v-1.717l1.981-1.145v2.861h2.452v1.777h-2.452v6.658h2.452v1.779h-2.063
		l-2.37-1.369v-7.068H61.47z"/>
	<path fill="#545454" d="M70.542,10.686V8.5h2.186v2.186H70.542z M72.625,13.199v10.215h-1.981V13.199H72.625z"/>
	<path fill="#545454" d="M77.875,14.977v6.658h5.68v1.779h-5.292l-2.37-1.369v-7.479l2.37-1.367h5.292v1.777H77.875z"/>
	<path fill="#545454" d="M95.097,22.146l-2.37,1.369h-3.942l-2.37-1.369v-7.682l2.37-1.369h3.942l2.37,1.369V22.146z M88.396,14.875
		v6.863h4.719v-6.863H88.396z"/>
</g>
</svg>
