<?xml version="1.0" encoding="utf-8"?>
<!-- Generator: Adobe Illustrator 16.0.0, SVG Export Plug-In . SVG Version: 6.00 Build 0)  -->
<!DOCTYPE svg PUBLIC "-//W3C//DTD SVG 1.1//EN" "http://www.w3.org/Graphics/SVG/1.1/DTD/svg11.dtd">
<svg version="1.1" id="图层_1" xmlns="http://www.w3.org/2000/svg" xmlns:xlink="http://www.w3.org/1999/xlink" x="0px" y="0px"
	 width="258px" height="36px" viewBox="0 0 258 36" enable-background="new 0 0 258 36" xml:space="preserve">
<g>
	<path fill="#545454" d="M18.162,16.98c0.502,0,0.817-0.107,0.948-0.316c0.129-0.209,0.194-0.566,0.194-1.068v-3.303
		c0-0.502-0.065-0.859-0.194-1.068c-0.13-0.211-0.446-0.316-0.948-0.316h-2.963v14.936c0,0.26-0.045,0.434-0.133,0.521
		c-0.089,0.09-0.264,0.135-0.522,0.135h-1.287V10.154c0-0.258,0.044-0.432,0.133-0.521C13.479,9.545,13.653,9.5,13.913,9.5h5.026
		c0.842,0,1.437,0.174,1.785,0.521s0.522,0.943,0.522,1.785v4.273c0,0.762-0.137,1.314-0.413,1.666
		c-0.276,0.348-0.745,0.553-1.408,0.617l2.452,8.137h-1.238c-0.259,0-0.449-0.045-0.571-0.135c-0.121-0.088-0.223-0.262-0.303-0.521
		l-2.258-7.457h-0.729c-0.259,0-0.425-0.041-0.498-0.133c-0.073-0.088-0.109-0.262-0.109-0.521V16.98H18.162z"/>
	<path fill="#545454" d="M26.273,26.5c-0.842,0-1.437-0.176-1.785-0.523c-0.349-0.348-0.522-0.941-0.522-1.785V21.52
		c0-0.84,0.174-1.436,0.522-1.785c0.348-0.348,0.942-0.52,1.785-0.52h2.064c0.469,0,0.805,0.117,1.008,0.352
		c0.202,0.234,0.352,0.588,0.449,1.057H27.05c-0.502,0-0.817,0.104-0.947,0.314c-0.13,0.211-0.194,0.566-0.194,1.068V23.9
		c0,0.502,0.093,0.826,0.279,0.973s0.53,0.219,1.032,0.219h1.603v0.752c0,0.26-0.037,0.434-0.11,0.521
		c-0.073,0.09-0.239,0.135-0.497,0.135H26.273z M29.794,16.955c0-0.5-0.065-0.857-0.194-1.068c-0.13-0.209-0.445-0.316-0.947-0.316
		h-4.201c0.097-0.469,0.247-0.82,0.449-1.055c0.203-0.236,0.539-0.354,1.008-0.354h3.521c0.842,0,1.437,0.174,1.785,0.523
		c0.349,0.348,0.522,0.941,0.522,1.785V26.5H30.45c-0.259,0-0.433-0.045-0.522-0.135c-0.089-0.088-0.134-0.262-0.134-0.521V16.955z"
		/>
	<path fill="#545454" d="M39.241,14.162c0.258,0,0.425,0.045,0.498,0.135c0.073,0.088,0.109,0.262,0.109,0.521v0.752h-2.987v8.137
		c0,0.502,0.064,0.857,0.195,1.068c0.129,0.209,0.444,0.316,0.947,0.316h2.112c-0.033,0.469-0.125,0.822-0.279,1.055
		c-0.154,0.236-0.466,0.354-0.935,0.354h-1.676c-0.841,0-1.437-0.176-1.785-0.523c-0.349-0.348-0.522-0.941-0.522-1.785V12.002
		c0-0.26,0.044-0.434,0.133-0.523c0.089-0.088,0.263-0.133,0.522-0.133h1.287v2.816H39.241z"/>
	<path fill="#545454" d="M42.179,11.564c0-0.26,0.044-0.434,0.134-0.521c0.089-0.09,0.263-0.135,0.522-0.135h1.481v1.287
		c0,0.258-0.044,0.434-0.133,0.523c-0.089,0.088-0.263,0.133-0.522,0.133h-1.481V11.564z M44.22,14.162v11.682
		c0,0.26-0.045,0.434-0.133,0.521c-0.089,0.09-0.264,0.135-0.522,0.135h-1.287V14.818c0-0.26,0.044-0.434,0.133-0.521
		c0.088-0.09,0.263-0.135,0.522-0.135H44.22z"/>
	<path fill="#545454" d="M47.328,16.471c0-0.844,0.173-1.438,0.522-1.785c0.348-0.35,0.943-0.523,1.785-0.523h3.4
		c0.842,0,1.437,0.174,1.785,0.523c0.349,0.348,0.522,0.941,0.522,1.785v7.721c0,0.844-0.174,1.438-0.522,1.785
		c-0.348,0.348-0.943,0.523-1.785,0.523h-3.4c-0.841,0-1.437-0.176-1.785-0.523c-0.349-0.348-0.522-0.941-0.522-1.785V16.471z
		 M50.412,15.57c-0.502,0-0.818,0.107-0.947,0.316c-0.13,0.211-0.195,0.568-0.195,1.068v6.752c0,0.502,0.065,0.857,0.195,1.068
		c0.129,0.209,0.445,0.316,0.947,0.316h1.845c0.502,0,0.818-0.107,0.947-0.316c0.13-0.211,0.195-0.566,0.195-1.068v-6.752
		c0-0.5-0.065-0.857-0.195-1.068c-0.129-0.209-0.444-0.316-0.947-0.316H50.412z"/>
	<path fill="#545454" d="M64.158,14.162c0.841,0,1.437,0.174,1.785,0.523c0.349,0.348,0.522,0.941,0.522,1.785v9.373
		c0,0.26-0.045,0.434-0.133,0.521c-0.089,0.09-0.264,0.135-0.522,0.135h-1.287v-9.545c0-0.5-0.065-0.857-0.195-1.068
		c-0.129-0.209-0.445-0.316-0.947-0.316h-2.987v10.273c0,0.26-0.044,0.434-0.133,0.521c-0.089,0.09-0.264,0.135-0.522,0.135h-1.287
		V14.818c0-0.26,0.044-0.434,0.133-0.521c0.089-0.09,0.263-0.135,0.522-0.135h1.287v1.408c0.097-0.469,0.247-0.82,0.45-1.055
		c0.202-0.236,0.538-0.354,1.008-0.354H64.158z"/>
	<path fill="#545454" d="M71.564,26.5c-0.841,0-1.437-0.176-1.785-0.523c-0.349-0.348-0.522-0.941-0.522-1.785V21.52
		c0-0.84,0.174-1.436,0.522-1.785c0.348-0.348,0.943-0.52,1.785-0.52h2.065c0.469,0,0.805,0.117,1.008,0.352
		c0.202,0.234,0.352,0.588,0.449,1.057h-2.744c-0.502,0-0.818,0.104-0.947,0.314c-0.13,0.211-0.194,0.566-0.194,1.068V23.9
		c0,0.502,0.093,0.826,0.28,0.973c0.186,0.146,0.53,0.219,1.032,0.219h1.603v0.752c0,0.26-0.037,0.434-0.109,0.521
		c-0.073,0.09-0.239,0.135-0.498,0.135H71.564z M75.085,16.955c0-0.5-0.065-0.857-0.194-1.068c-0.13-0.209-0.445-0.316-0.947-0.316
		h-4.201c0.097-0.469,0.246-0.82,0.449-1.055c0.202-0.236,0.538-0.354,1.008-0.354h3.521c0.842,0,1.437,0.174,1.785,0.523
		c0.349,0.348,0.522,0.941,0.522,1.785V26.5h-1.287c-0.259,0-0.434-0.045-0.522-0.135c-0.089-0.088-0.134-0.262-0.134-0.521V16.955z
		"/>
	<path fill="#545454" d="M82.273,9.5v16.344c0,0.26-0.044,0.434-0.133,0.521c-0.089,0.09-0.264,0.135-0.522,0.135h-1.287V10.154
		c0-0.258,0.044-0.432,0.133-0.521C80.553,9.545,80.728,9.5,80.987,9.5H82.273z"/>
	<path fill="#545454" d="M92.085,25.092v0.752c0,0.26-0.037,0.434-0.109,0.521c-0.073,0.09-0.239,0.135-0.498,0.135h-3.667
		c-0.841,0-1.437-0.176-1.785-0.523c-0.349-0.348-0.522-0.941-0.522-1.785v-7.721c0-0.844,0.173-1.438,0.522-1.785
		c0.348-0.35,0.943-0.523,1.785-0.523h2.672c0.842,0,1.437,0.174,1.785,0.523c0.348,0.348,0.522,0.941,0.522,1.785v2.719
		c0,0.842-0.174,1.436-0.522,1.785s-0.942,0.521-1.785,0.521h-1.457c-0.26,0-0.426-0.043-0.498-0.133
		c-0.073-0.09-0.11-0.264-0.11-0.523v-0.752h1.409c0.502,0,0.817-0.105,0.947-0.316c0.13-0.209,0.195-0.566,0.195-1.068v-1.869
		c0-0.502-0.082-0.838-0.243-1.008c-0.162-0.17-0.494-0.256-0.996-0.256h-1.044c-0.535,0-0.875,0.094-1.02,0.279
		c-0.146,0.188-0.219,0.555-0.219,1.105v6.752c0,0.502,0.064,0.857,0.195,1.068c0.129,0.209,0.445,0.316,0.947,0.316H92.085z"/>
</g>
</svg>
