<?xml version="1.0" encoding="utf-8"?>
<!-- Generator: Adobe Illustrator 16.0.0, SVG Export Plug-In . SVG Version: 6.00 Build 0)  -->
<!DOCTYPE svg PUBLIC "-//W3C//DTD SVG 1.1//EN" "http://www.w3.org/Graphics/SVG/1.1/DTD/svg11.dtd">
<svg version="1.1" id="图层_1" xmlns="http://www.w3.org/2000/svg" xmlns:xlink="http://www.w3.org/1999/xlink" x="0px" y="0px"
	 width="258px" height="36px" viewBox="0 0 258 36" enable-background="new 0 0 258 36" xml:space="preserve">
<g>
	<path fill="#545454" d="M26.203,18.92l-0.02-0.299c0-0.146,0.053-0.266,0.159-0.355c0.105-0.09,0.223-0.135,0.352-0.135
		s0.241,0.043,0.337,0.131c0.097,0.086,0.151,0.193,0.164,0.32l0.019,0.338c0,1.061-0.302,1.922-0.906,2.584
		c-0.617,0.682-1.427,1.021-2.429,1.021h-0.029c-1.671-0.045-2.763-0.926-3.277-2.641c-0.206-0.682-0.308-1.445-0.308-2.295
		l0.019-0.645c-0.495,0-1.041-0.045-1.639-0.137l-0.145,4.994c0,0.154-0.05,0.275-0.149,0.361c-0.1,0.088-0.22,0.131-0.361,0.131
		c-1.504,0-2.873,0.076-4.106,0.23h-0.058c-0.148,0-0.27-0.049-0.366-0.148s-0.145-0.213-0.145-0.342s0.04-0.242,0.12-0.338
		c0.081-0.098,0.212-0.158,0.396-0.184c0.183-0.025,0.398-0.049,0.646-0.068c0.248-0.018,0.49-0.037,0.728-0.057l0.222-11.885
		l-1.465,0.289c-0.045,0.033-0.115,0.049-0.212,0.049c-0.096,0-0.193-0.053-0.289-0.154c-0.096-0.104-0.145-0.219-0.145-0.348
		c0-0.258,0.119-0.42,0.356-0.49c1.292-0.432,3.265-0.646,5.918-0.646c1.491,0.076,2.575,0.191,3.253,0.346
		c0.678,0.154,1.232,0.33,1.663,0.525c0.431,0.197,0.8,0.449,1.108,0.756c0.656,0.645,0.983,1.527,0.983,2.652
		c0,0.918-0.273,1.734-0.819,2.447c-0.521,0.682-1.228,1.17-2.121,1.465c-0.026,0.297-0.039,0.559-0.039,0.787
		c0,0.227,0.003,0.465,0.01,0.707c0.006,0.246,0.022,0.512,0.048,0.801c0.025,0.289,0.065,0.584,0.121,0.887
		c0.054,0.303,0.126,0.578,0.216,0.828c0.212,0.561,0.501,0.84,0.868,0.84c0.45,0,0.797-0.299,1.041-0.896
		C26.11,19.904,26.203,19.428,26.203,18.92z M16.236,21.33c0.321-0.031,0.742-0.049,1.263-0.049l0.337-12.018
		c-0.54,0.025-1.009,0.057-1.407,0.096L16.236,21.33z M18.666,15.779c0.43,0.09,0.916,0.135,1.455,0.135
		c0.54,0,1.012-0.023,1.417-0.068s0.801-0.119,1.19-0.221c0.389-0.104,0.757-0.24,1.104-0.41c0.347-0.17,0.652-0.381,0.916-0.631
		c0.565-0.561,0.848-1.26,0.848-2.102c0-1.266-0.601-2.152-1.803-2.66c-0.726-0.303-1.475-0.48-2.246-0.535S20.22,9.205,19.88,9.205
		h-0.694c-0.122,0-0.238,0.006-0.347,0.02L18.666,15.779z M23.485,21.504c-0.585-0.811-0.877-2.191-0.877-4.145v-0.348
		c0-0.115,0.007-0.219,0.02-0.309c-0.649,0.117-1.089,0.184-1.32,0.203c-0.026,0.18-0.039,0.441-0.039,0.785
		s0.031,0.732,0.092,1.162c0.061,0.432,0.175,0.832,0.342,1.205C22.068,20.906,22.662,21.389,23.485,21.504z"/>
	<path fill="#545454" d="M35.013,22.592c-1.06-0.211-2.05-0.316-2.969-0.316s-1.908,0.105-2.969,0.316
		c-0.148,0-0.269-0.053-0.361-0.162c-0.094-0.109-0.14-0.225-0.14-0.348c0-0.121,0.037-0.23,0.11-0.328
		c0.074-0.096,0.196-0.162,0.366-0.197c0.17-0.035,0.37-0.066,0.598-0.096s0.452-0.061,0.67-0.092v-7.383l-1.484-0.125
		c-0.129-0.021-0.233-0.078-0.313-0.176c-0.081-0.094-0.121-0.215-0.121-0.359s0.058-0.26,0.174-0.344
		c0.115-0.082,0.228-0.123,0.337-0.123h0.058c0.006,0,0.08,0.006,0.222,0.023c0.141,0.016,0.325,0.033,0.549,0.053
		c0.61,0.051,1.169,0.076,1.677,0.076c0.707,0,1.279-0.051,1.716-0.152h0.106c0.148,0,0.27,0.049,0.366,0.148
		s0.145,0.213,0.145,0.342l-0.019,8.02c0.225,0.031,0.451,0.063,0.679,0.092s0.432,0.063,0.612,0.102
		c0.334,0.064,0.501,0.234,0.501,0.51c0,0.148-0.055,0.271-0.164,0.371C35.25,22.543,35.135,22.592,35.013,22.592z M33.615,9.918
		c0,0.482-0.167,0.887-0.501,1.215c-0.347,0.334-0.755,0.502-1.224,0.502c-0.476,0-0.88-0.168-1.214-0.502s-0.501-0.738-0.501-1.215
		c0-0.475,0.167-0.881,0.501-1.215s0.739-0.5,1.214-0.5c0.469,0,0.877,0.166,1.224,0.5C33.448,9.031,33.615,9.436,33.615,9.918z
		 M32.603,9.918c0-0.199-0.069-0.367-0.207-0.506c-0.139-0.139-0.307-0.207-0.506-0.207s-0.366,0.068-0.501,0.207
		c-0.135,0.139-0.203,0.307-0.203,0.506s0.067,0.367,0.203,0.502c0.135,0.135,0.302,0.203,0.501,0.203s0.368-0.068,0.506-0.203
		C32.534,10.285,32.603,10.117,32.603,9.918z M32.719,13.947c-0.328,0.051-0.768,0.076-1.32,0.076h-0.077v7.258
		c0.122-0.012,0.241-0.018,0.356-0.018c0.231,0,0.434,0,0.607,0c0.173,0,0.318,0.006,0.434,0.018V13.947z"/>
	<path fill="#545454" d="M36.95,18.631c-0.026-0.713-0.039-2.119-0.039-4.221s0.013-3.666,0.039-4.695
		c-0.533,0-0.967-0.021-1.301-0.066s-0.54-0.076-0.617-0.092c-0.077-0.016-0.154-0.072-0.231-0.168
		c-0.077-0.098-0.116-0.195-0.116-0.295s0.018-0.182,0.053-0.244c0.035-0.064,0.079-0.121,0.13-0.166
		c0.103-0.09,0.187-0.135,0.25-0.135h0.116c0.013,0,0.024,0.004,0.034,0.01c0.01,0.008,0.06,0.016,0.149,0.029
		s0.212,0.025,0.366,0.039c0.398,0.045,0.803,0.068,1.215,0.068c1.028,0,1.947-0.121,2.756-0.357
		c0.052-0.025,0.124-0.039,0.217-0.039s0.189,0.053,0.289,0.158c0.1,0.107,0.15,0.225,0.15,0.354v0.018
		c0,0.008-0.003,0.15-0.01,0.43s-0.012,0.652-0.014,1.119c-0.004,0.465-0.008,1.004-0.015,1.613c-0.007,0.611-0.01,1.248-0.01,1.91
		c0.456-0.643,1.099-1.064,1.928-1.264c0.27-0.064,0.634-0.098,1.094-0.098s0.917,0.121,1.374,0.363
		c0.457,0.24,0.833,0.568,1.128,0.986c0.572,0.822,0.858,1.918,0.858,3.287c0,1.697-0.466,3.092-1.397,4.184
		c-0.983,1.15-2.301,1.725-3.952,1.725c-1.234,0-2.268-0.408-3.104-1.225C37.442,21.039,36.995,19.961,36.95,18.631z M37.962,9.676
		l-0.048,5.572c0,1.639,0.014,2.742,0.043,3.311c0.028,0.57,0.124,1.057,0.284,1.461s0.382,0.758,0.665,1.061
		c0.598,0.637,1.353,0.967,2.265,0.992c-1.144-0.693-1.735-1.969-1.773-3.826c-0.026-0.732-0.039-1.602-0.039-2.607
		s0.003-2.041,0.01-3.109c0.006-1.064,0.009-2.088,0.009-3.064C38.98,9.561,38.508,9.633,37.962,9.676z M45.731,17.186
		c0-0.508-0.045-0.98-0.135-1.422c-0.09-0.439-0.238-0.822-0.443-1.152c-0.431-0.705-1.099-1.059-2.005-1.059
		c-0.72,0-1.375,0.326-1.966,0.982c-0.495,0.533-0.768,1.006-0.819,1.416c0,1.813,0.061,2.965,0.183,3.457
		c0.122,0.49,0.279,0.881,0.472,1.17c0.411,0.617,1.002,0.926,1.773,0.926c0.964,0,1.713-0.463,2.246-1.389
		C45.5,19.313,45.731,18.336,45.731,17.186z"/>
	<path fill="#545454" d="M57.915,17.08l-0.02,0.559c-0.064,0.533-0.912,0.914-2.544,1.137c-0.521,0.072-1.072,0.107-1.653,0.107
		c-0.582,0-1.236-0.1-1.962-0.301c0.142,1.461,0.63,2.447,1.465,2.961c0.309,0.186,0.612,0.279,0.911,0.279
		c0.299,0,0.551-0.021,0.757-0.063s0.408-0.102,0.607-0.178c0.45-0.188,0.765-0.412,0.945-0.676
		c0.109-0.129,0.236-0.193,0.381-0.193c0.144,0,0.268,0.055,0.371,0.16c0.103,0.105,0.154,0.225,0.154,0.357
		c0,0.131-0.042,0.234-0.125,0.313c-0.276,0.43-0.791,0.771-1.542,1.021c-1.395,0.455-2.734,0.418-4.02-0.115
		c-1.35-0.553-2.307-1.484-2.873-2.795c-0.283-0.643-0.424-1.355-0.424-2.137c0-0.779,0.122-1.49,0.366-2.129
		c0.244-0.641,0.591-1.178,1.041-1.615c0.919-0.898,2.188-1.35,3.807-1.35C56.462,12.547,57.915,14.1,57.915,17.08z M51.88,13.725
		c-1.69,0.611-2.535,1.893-2.535,3.848c0,1.227,0.424,2.254,1.272,3.084c0.264,0.256,0.566,0.471,0.906,0.646
		c-0.553-0.822-0.829-1.949-0.829-3.375c0-1.008,0.074-1.76,0.222-2.254C51.148,14.889,51.469,14.24,51.88,13.725z M51.717,17.514
		c0.72,0.225,1.545,0.336,2.477,0.336s1.838-0.195,2.718-0.586V17.1c0-1.555-0.498-2.629-1.494-3.221
		c-0.347-0.205-0.765-0.344-1.253-0.414C52.597,13.645,51.781,14.994,51.717,17.514z"/>
	<path fill="#545454" d="M65.153,12.125c0.694,0.092,1.491,0.135,2.39,0.135c0.9,0,1.703-0.043,2.41-0.135h0.059
		c0.146,0,0.27,0.053,0.365,0.16c0.097,0.105,0.145,0.223,0.145,0.352s-0.043,0.24-0.129,0.338
		c-0.088,0.096-0.193,0.152-0.318,0.168s-0.248,0.029-0.367,0.039s-0.242,0.02-0.371,0.033c-0.045,0.18-0.107,0.432-0.188,0.756
		c-0.08,0.326-0.176,0.695-0.284,1.113c-0.109,0.418-0.227,0.871-0.353,1.359c-0.125,0.488-0.255,0.986-0.39,1.494
		c-0.136,0.508-0.273,1.012-0.415,1.514c-0.141,0.502-0.279,0.973-0.414,1.416c-0.283,0.965-0.535,1.717-0.756,2.256
		c-0.223,0.539-0.516,1.109-0.878,1.711c-0.363,0.602-0.782,1.137-1.258,1.605C63.354,27.48,62.185,28,60.893,28
		c-0.938,0-1.715-0.236-2.333-0.713c-0.681-0.527-1.021-1.219-1.021-2.072c0-0.635,0.161-1.18,0.482-1.629
		c0.354-0.494,0.816-0.742,1.388-0.742c0.476,0,0.88,0.166,1.215,0.502c0.334,0.332,0.501,0.738,0.501,1.213
		c0,0.469-0.167,0.879-0.501,1.225c-0.328,0.334-0.732,0.502-1.215,0.502c-0.192,0-0.389-0.037-0.588-0.107
		c0.328,0.412,0.67,0.617,1.027,0.617c0.356,0,0.664-0.084,0.92-0.256c0.257-0.168,0.5-0.389,0.728-0.658
		c0.228-0.271,0.438-0.572,0.631-0.906s0.366-0.67,0.521-1.004c0.36-0.758,0.602-1.34,0.728-1.748
		c0.125-0.408,0.217-0.699,0.274-0.873c-1.214-1.658-2.107-3.313-2.68-4.965c-0.373-1.059-0.578-2.039-0.617-2.939
		c-1.054,0-1.651-0.076-1.793-0.23c-0.09-0.096-0.135-0.213-0.135-0.348s0.053-0.252,0.159-0.352c0.106-0.1,0.224-0.148,0.352-0.148
		h0.058c0.36,0.051,0.777,0.076,1.253,0.076c0.88,0,1.517-0.033,1.908-0.102c0.392-0.066,0.631-0.1,0.719-0.1
		c0.086,0,0.179,0.053,0.279,0.162s0.15,0.227,0.15,0.348c0,0.123-0.041,0.23-0.121,0.328c-0.081,0.096-0.22,0.16-0.419,0.193
		c-0.469,0.063-0.935,0.115-1.397,0.152c0.032,1.203,0.466,2.664,1.301,4.387c0.34,0.713,0.793,1.484,1.359,2.313
		c0.617-2.1,1.225-4.404,1.822-6.91c-0.129-0.014-0.263-0.023-0.4-0.033c-0.139-0.01-0.273-0.023-0.405-0.039
		s-0.24-0.072-0.327-0.168c-0.087-0.098-0.131-0.217-0.131-0.357s0.055-0.26,0.164-0.352c0.109-0.094,0.225-0.141,0.348-0.141
		H65.153z M60.122,24.559c0-0.199-0.069-0.365-0.208-0.5c-0.138-0.135-0.307-0.203-0.506-0.203c-0.199,0-0.368,0.068-0.505,0.203
		c-0.139,0.135-0.208,0.301-0.208,0.5s0.069,0.369,0.208,0.508c0.138,0.137,0.307,0.207,0.505,0.207c0.199,0,0.368-0.07,0.506-0.207
		C60.052,24.928,60.122,24.758,60.122,24.559z M68.295,13.254c-0.128,0.012-0.256,0.02-0.385,0.02h-1.041
		c-0.617,2.678-1.165,4.809-1.644,6.389c-0.479,1.582-0.792,2.578-0.94,2.99c-0.707,1.932-1.471,3.32-2.293,4.162
		c1.247-0.443,2.265-1.416,3.055-2.92c0.354-0.668,0.617-1.268,0.791-1.797c0.174-0.531,0.32-0.998,0.443-1.404
		c0.121-0.404,0.248-0.836,0.381-1.295c0.131-0.461,0.262-0.928,0.39-1.402c0.129-0.477,0.256-0.947,0.381-1.412
		c0.126-0.467,0.241-0.906,0.347-1.322c0.106-0.412,0.205-0.795,0.295-1.141C68.164,13.773,68.238,13.484,68.295,13.254z"/>
	<path fill="#545454" d="M80.739,17.08l-0.02,0.559c-0.064,0.533-0.913,0.914-2.544,1.137c-0.521,0.072-1.072,0.107-1.653,0.107
		c-0.582,0-1.235-0.1-1.962-0.301c0.142,1.461,0.63,2.447,1.465,2.961c0.309,0.186,0.613,0.279,0.911,0.279
		c0.299,0,0.552-0.021,0.757-0.063s0.408-0.102,0.607-0.178c0.449-0.188,0.764-0.412,0.944-0.676
		c0.109-0.129,0.235-0.193,0.381-0.193c0.144,0,0.269,0.055,0.371,0.16s0.153,0.225,0.153,0.357c0,0.131-0.041,0.234-0.125,0.313
		c-0.275,0.43-0.79,0.771-1.542,1.021c-1.394,0.455-2.733,0.418-4.019-0.115c-1.35-0.553-2.308-1.484-2.873-2.795
		c-0.283-0.643-0.424-1.355-0.424-2.137c0-0.779,0.122-1.49,0.366-2.129c0.244-0.641,0.591-1.178,1.041-1.615
		c0.919-0.898,2.188-1.35,3.808-1.35C79.287,12.547,80.739,14.1,80.739,17.08z M74.705,13.725c-1.689,0.611-2.535,1.893-2.535,3.848
		c0,1.227,0.424,2.254,1.272,3.084c0.264,0.256,0.565,0.471,0.906,0.646c-0.553-0.822-0.829-1.949-0.829-3.375
		c0-1.008,0.074-1.76,0.222-2.254C73.973,14.889,74.294,14.24,74.705,13.725z M74.541,17.514c0.721,0.225,1.546,0.336,2.478,0.336
		s1.838-0.195,2.718-0.586V17.1c0-1.555-0.498-2.629-1.494-3.221c-0.347-0.205-0.764-0.344-1.252-0.414
		C75.422,13.645,74.605,14.994,74.541,17.514z"/>
	<path fill="#545454" d="M105.588,8.453l0.087-0.02c0.147,0,0.27,0.053,0.366,0.158c0.096,0.107,0.145,0.225,0.145,0.352
		c0,0.131-0.041,0.24-0.12,0.334c-0.081,0.094-0.179,0.15-0.294,0.168c-0.244,0.039-0.686,0.098-1.321,0.174
		c0.039,0.271,0.099,0.648,0.179,1.133c0.08,0.486,0.166,1.041,0.26,1.668c0.094,0.625,0.191,1.305,0.295,2.037
		c0.102,0.732,0.201,1.479,0.299,2.236c0.205,1.641,0.346,3.092,0.424,4.357c0.365,0,0.686,0,0.959,0
		c0.272,0,0.486,0.004,0.641,0.01s0.277,0.057,0.371,0.15c0.093,0.092,0.14,0.211,0.14,0.355s-0.05,0.266-0.149,0.361
		c-0.1,0.098-0.227,0.143-0.381,0.135c-0.154-0.006-0.314-0.01-0.481-0.01s-0.335,0-0.501,0c-1.8,0-3.599,0.158-5.398,0.473h-0.096
		c-0.148,0-0.268-0.049-0.357-0.148s-0.135-0.211-0.135-0.334c0-0.121,0.037-0.23,0.111-0.326c0.073-0.098,0.203-0.162,0.391-0.193
		c0.424-0.084,0.89-0.156,1.396-0.221c-0.27-4.068-0.732-7.561-1.387-10.479c-0.951,2.32-2.153,5.662-3.605,10.023l-0.318,0.965
		c-0.084,0.244-0.125,0.373-0.125,0.385c-0.064,0.219-0.222,0.328-0.473,0.328c-0.219,0-0.369-0.084-0.453-0.25l-4.674-9.139
		c-0.502,3.773-0.785,6.449-0.849,8.029c1.169,0.053,1.837,0.184,2.005,0.396c0.07,0.09,0.105,0.207,0.105,0.352
		s-0.058,0.256-0.174,0.338c-0.115,0.08-0.221,0.119-0.317,0.119h-0.106c-0.745-0.141-1.449-0.211-2.11-0.211
		c-0.662,0-1.228,0.045-1.696,0.135h-0.077c-0.147,0-0.271-0.053-0.366-0.154c-0.097-0.104-0.145-0.219-0.145-0.348
		c0-0.283,0.138-0.453,0.414-0.512c0.354-0.057,0.832-0.102,1.436-0.133c0.109-2.705,0.498-5.881,1.167-9.523
		c0.142-0.791,0.299-1.566,0.472-2.324c-0.764-0.025-1.468-0.129-2.11-0.309c-0.251-0.07-0.376-0.205-0.376-0.404
		s0.053-0.348,0.159-0.443S89.01,8,89.086,8h0.145c0.02,0,0.125,0.025,0.318,0.078c0.54,0.146,1.163,0.221,1.87,0.221l0.694-0.02
		c0.186,0,0.337,0.084,0.453,0.25l4.915,9.043c1.594-4.672,2.687-7.514,3.277-8.521c0.097-0.16,0.241-0.24,0.434-0.24L105.588,8.453
		z M92.064,9.754c-0.096,0.303-0.166,0.627-0.207,0.975c-0.042,0.346-0.082,0.654-0.121,0.924l4.656,9.1
		c0.09-0.244,0.186-0.527,0.289-0.848l0.348-1.021L92.064,9.754z M103.419,21.186c0.488-0.037,0.983-0.07,1.484-0.096
		c-0.18-2.646-0.613-6.086-1.302-10.313c-0.076-0.477-0.138-0.836-0.183-1.08c-0.476,0.039-1.003,0.07-1.581,0.096
		C102.654,13.225,103.182,17.021,103.419,21.186z"/>
	<path fill="#545454" d="M119.43,21.264l0.693,0.018c0.142,0.014,0.256,0.068,0.342,0.164c0.088,0.098,0.131,0.215,0.131,0.352
		c0,0.139-0.047,0.26-0.14,0.363c-0.094,0.102-0.211,0.154-0.353,0.154h-0.038c-0.109-0.014-0.222-0.02-0.337-0.02h-0.338
		c-1.176,0-2.313,0.156-3.412,0.473l-0.135,0.018c-0.148,0-0.269-0.057-0.361-0.168c-0.094-0.113-0.141-0.227-0.141-0.342v-0.078
		c0-0.012,0.017-0.143,0.049-0.389c0.031-0.248,0.064-0.594,0.096-1.037c-1.304,1.459-2.66,2.188-4.066,2.188
		c-0.649,0-1.202-0.18-1.658-0.539c-0.488-0.379-0.732-0.838-0.732-1.379c0-0.539,0.104-0.992,0.313-1.357
		c0.209-0.367,0.484-0.688,0.824-0.961c0.341-0.273,0.729-0.5,1.162-0.684s0.875-0.332,1.324-0.449
		c0.836-0.205,1.648-0.309,2.439-0.309h0.231c0-0.814-0.261-1.529-0.781-2.139c-0.552-0.643-1.224-0.965-2.015-0.965
		c-0.591,0-1.144,0.303-1.657,0.906c-0.501,0.586-0.752,1.199-0.752,1.842c0,0.129-0.053,0.236-0.159,0.322
		c-0.105,0.088-0.227,0.131-0.361,0.131s-0.254-0.053-0.357-0.158c-0.102-0.107-0.153-0.27-0.153-0.488
		c0-0.217,0.054-0.496,0.163-0.834c0.109-0.336,0.269-0.668,0.478-0.992s0.462-0.631,0.762-0.92
		c0.298-0.289,0.641-0.547,1.026-0.771c0.822-0.477,1.659-0.713,2.511-0.713s1.533,0.113,2.044,0.336
		c0.511,0.227,0.938,0.531,1.281,0.916c0.344,0.387,0.615,0.834,0.814,1.34c0.199,0.508,0.351,1.045,0.453,1.609
		c0.161,0.887,0.241,2.021,0.241,3.404l-0.019,1.174L119.43,21.264z M115.486,18.979c-0.025-0.219-0.038-0.449-0.038-0.693h-0.356
		c-1.055,0-2.088,0.191-3.104,0.578c-1.299,0.488-1.947,1.186-1.947,2.092c0,0.334,0.15,0.594,0.453,0.779
		c0.25,0.148,0.578,0.223,0.982,0.223c0.405,0,0.812-0.088,1.22-0.266c0.408-0.176,0.786-0.406,1.133-0.689
		C114.445,20.488,114.998,19.814,115.486,18.979z M117.81,21.369c0.02-0.193,0.029-0.578,0.029-1.156s-0.012-1.129-0.034-1.654
		c-0.022-0.523-0.072-1.029-0.148-1.518c-0.078-0.488-0.193-0.947-0.348-1.379c-0.154-0.43-0.363-0.803-0.627-1.117
		c-0.584-0.693-1.397-1.041-2.438-1.041c-0.02,0-0.036,0.004-0.049,0.014s-0.029,0.016-0.049,0.016h0.039
		c1.035,0.559,1.706,1.486,2.015,2.785c0.173,0.713,0.269,1.391,0.284,2.029s0.024,1.143,0.024,1.508
		c0,0.578-0.026,1.16-0.077,1.744C116.895,21.504,117.354,21.428,117.81,21.369z"/>
	<path fill="#545454" d="M126.061,14.082c0.643-0.893,1.49-1.34,2.545-1.34c0.873,0.025,1.58,0.293,2.12,0.801
		c0.553,0.508,0.829,1.172,0.829,1.994c0,0.547-0.16,1.02-0.482,1.418c-0.334,0.41-0.768,0.617-1.301,0.617
		c-0.476,0-0.881-0.168-1.215-0.502s-0.501-0.738-0.501-1.215c0-0.469,0.167-0.873,0.501-1.215c0.334-0.346,0.739-0.52,1.215-0.52
		c0.032,0,0.063,0.004,0.092,0.01s0.059,0.01,0.092,0.01c-0.341-0.264-0.742-0.395-1.205-0.395s-0.829,0.074-1.1,0.225
		c-0.27,0.152-0.499,0.342-0.688,0.57c-0.19,0.227-0.343,0.475-0.458,0.74c-0.115,0.268-0.205,0.516-0.27,0.748
		c-0.116,0.393-0.174,0.691-0.174,0.896l-0.02,4.279c0.225,0.02,0.451,0.049,0.68,0.086c0.229,0.039,0.432,0.078,0.612,0.117
		c0.334,0.064,0.501,0.234,0.501,0.51c0,0.143-0.055,0.26-0.164,0.352c-0.109,0.094-0.225,0.141-0.347,0.141h-0.097
		c-1.072-0.199-2.033-0.299-2.882-0.299c-0.835,0-1.79,0.1-2.862,0.299h-0.097c-0.147,0-0.267-0.049-0.356-0.15
		c-0.09-0.098-0.135-0.209-0.135-0.332c0-0.275,0.131-0.449,0.395-0.52c0.225-0.039,0.45-0.078,0.675-0.117
		c0.226-0.037,0.446-0.066,0.665-0.086v-7.182c-0.848-0.037-1.343-0.086-1.484-0.145c-0.129-0.012-0.232-0.064-0.313-0.158
		c-0.081-0.094-0.121-0.213-0.121-0.355c0-0.146,0.057-0.262,0.168-0.354c0.113-0.09,0.228-0.135,0.343-0.135h0.067
		c0.045,0.045,0.387,0.082,1.027,0.111c0.639,0.029,1.109,0.043,1.412,0.043c0.713,0,1.182-0.025,1.406-0.078
		c0.226-0.049,0.387-0.076,0.486-0.076s0.199,0.053,0.295,0.16c0.096,0.105,0.145,0.223,0.145,0.352V14.082z M125.039,13.986
		c-0.244,0.037-0.688,0.057-1.33,0.057h-0.077v7.084c0.122-0.012,0.241-0.018,0.356-0.018h1.051V13.986z M130.427,16.125
		c0.038-0.082,0.058-0.199,0.058-0.346c0-0.148-0.068-0.291-0.207-0.43s-0.307-0.207-0.506-0.207s-0.368,0.068-0.506,0.207
		c-0.139,0.139-0.207,0.281-0.207,0.43c0,0.146,0.02,0.264,0.058,0.346c0.038,0.084,0.09,0.162,0.154,0.232
		c0.135,0.141,0.302,0.211,0.501,0.211C130.074,16.568,130.292,16.422,130.427,16.125z"/>
	<path fill="#545454" d="M137.762,14.082c0.643-0.893,1.491-1.34,2.545-1.34c0.874,0.025,1.581,0.293,2.121,0.801
		c0.553,0.508,0.828,1.172,0.828,1.994c0,0.547-0.16,1.02-0.481,1.418c-0.335,0.41-0.769,0.617-1.302,0.617
		c-0.475,0-0.88-0.168-1.215-0.502c-0.334-0.334-0.5-0.738-0.5-1.215c0-0.469,0.166-0.873,0.5-1.215
		c0.335-0.346,0.74-0.52,1.215-0.52c0.032,0,0.063,0.004,0.092,0.01s0.06,0.01,0.092,0.01c-0.341-0.264-0.742-0.395-1.205-0.395
		s-0.828,0.074-1.099,0.225c-0.271,0.152-0.5,0.342-0.688,0.57c-0.19,0.227-0.343,0.475-0.459,0.74
		c-0.115,0.268-0.205,0.516-0.27,0.748c-0.115,0.393-0.174,0.691-0.174,0.896l-0.02,4.279c0.226,0.02,0.451,0.049,0.68,0.086
		c0.229,0.039,0.433,0.078,0.612,0.117c0.335,0.064,0.501,0.234,0.501,0.51c0,0.143-0.055,0.26-0.164,0.352
		c-0.108,0.094-0.225,0.141-0.346,0.141h-0.098c-1.072-0.199-2.033-0.299-2.881-0.299c-0.836,0-1.79,0.1-2.863,0.299h-0.096
		c-0.148,0-0.268-0.049-0.357-0.15c-0.09-0.098-0.135-0.209-0.135-0.332c0-0.275,0.132-0.449,0.395-0.52
		c0.226-0.039,0.45-0.078,0.676-0.117c0.225-0.037,0.446-0.066,0.664-0.086v-7.182c-0.848-0.037-1.342-0.086-1.484-0.145
		c-0.128-0.012-0.232-0.064-0.313-0.158s-0.121-0.213-0.121-0.355c0-0.146,0.057-0.262,0.169-0.354
		c0.112-0.09,0.227-0.135,0.343-0.135h0.066c0.045,0.045,0.388,0.082,1.027,0.111c0.639,0.029,1.109,0.043,1.412,0.043
		c0.713,0,1.182-0.025,1.407-0.078c0.225-0.049,0.387-0.076,0.486-0.076s0.198,0.053,0.294,0.16
		c0.097,0.105,0.145,0.223,0.145,0.352V14.082z M136.74,13.986c-0.244,0.037-0.688,0.057-1.33,0.057h-0.077v7.084
		c0.122-0.012,0.241-0.018,0.356-0.018h1.051V13.986z M142.129,16.125c0.038-0.082,0.057-0.199,0.057-0.346
		c0-0.148-0.068-0.291-0.206-0.43c-0.139-0.139-0.308-0.207-0.507-0.207s-0.367,0.068-0.506,0.207s-0.207,0.281-0.207,0.43
		c0,0.146,0.02,0.264,0.058,0.346c0.038,0.084,0.091,0.162,0.154,0.232c0.135,0.141,0.302,0.211,0.501,0.211
		C141.775,16.568,141.994,16.422,142.129,16.125z"/>
	<path fill="#545454" d="M154.736,17.639c0,0.74-0.139,1.43-0.415,2.072s-0.649,1.195-1.118,1.658
		c-0.996,0.971-2.203,1.455-3.624,1.455c-1.562,0-2.812-0.475-3.749-1.426c-0.932-0.945-1.398-2.215-1.398-3.809
		c0-1.51,0.495-2.762,1.484-3.758c0.977-0.99,2.198-1.484,3.663-1.484c1.491,0,2.731,0.52,3.721,1.561
		C154.258,14.91,154.736,16.154,154.736,17.639z M147.902,13.668c-1.15,0.443-1.908,1.275-2.275,2.496
		c-0.128,0.424-0.192,0.904-0.192,1.438s0.062,1.012,0.183,1.436c0.123,0.424,0.287,0.797,0.492,1.117
		c0.398,0.598,0.951,1.041,1.658,1.33c-0.643-0.893-0.965-2.203-0.965-3.932S147.17,14.529,147.902,13.668z M152.809,20.434
		c0.302-0.385,0.531-0.826,0.688-1.32s0.236-0.951,0.236-1.369c0-0.416-0.035-0.785-0.106-1.107c-0.07-0.32-0.173-0.633-0.309-0.936
		c-0.135-0.301-0.299-0.584-0.49-0.848c-0.193-0.264-0.408-0.494-0.646-0.693c-0.521-0.418-1.09-0.627-1.706-0.627
		c-1.247,0-2.06,0.732-2.438,2.197c-0.142,0.539-0.212,1.039-0.212,1.498c0,0.461,0.013,0.85,0.038,1.168
		c0.025,0.316,0.07,0.631,0.135,0.943s0.151,0.613,0.261,0.9c0.109,0.291,0.251,0.545,0.424,0.762
		c0.38,0.477,0.866,0.715,1.46,0.715c0.595,0,1.111-0.119,1.553-0.352C152.135,21.129,152.506,20.818,152.809,20.434z"/>
	<path fill="#545454" d="M167.334,12.348c0.359,0.09,0.873,0.135,1.537,0.135c0.666,0,1.352-0.064,2.059-0.193
		c0.135,0,0.254,0.053,0.355,0.158c0.104,0.107,0.154,0.221,0.154,0.344c0,0.121-0.041,0.23-0.125,0.328
		c-0.16,0.191-0.745,0.307-1.754,0.346c-0.488,3.168-1.102,5.539-1.842,7.113c-0.282,0.598-0.688,1.32-1.214,2.168
		c-0.116,0.162-0.254,0.242-0.415,0.242c-0.154,0-0.292-0.066-0.414-0.203c-1.086-1.355-1.934-2.662-2.545-3.922
		c-0.726,1.594-1.378,2.85-1.956,3.768c-0.109,0.154-0.253,0.232-0.429,0.232c-0.178,0-0.316-0.072-0.42-0.211
		c-1.561-2.154-2.654-4.518-3.277-7.096c-0.199-0.809-0.324-1.5-0.375-2.072c-0.148-0.014-0.291-0.021-0.43-0.029
		c-0.139-0.006-0.274-0.018-0.409-0.033c-0.136-0.016-0.246-0.072-0.333-0.168c-0.087-0.098-0.13-0.215-0.13-0.352
		c0-0.139,0.057-0.254,0.169-0.344c0.111-0.09,0.227-0.135,0.342-0.135h0.039c0.803,0.053,1.582,0.078,2.338,0.078
		c0.754,0,1.646-0.064,2.674-0.193l0.087-0.02c0.147,0,0.267,0.053,0.356,0.158c0.09,0.107,0.135,0.225,0.135,0.352
		c0,0.131-0.04,0.24-0.121,0.334c-0.08,0.094-0.193,0.15-0.342,0.174c-0.147,0.021-0.314,0.043-0.5,0.063
		c-0.188,0.02-0.373,0.039-0.56,0.057c0.386,2.16,1.031,4.043,1.937,5.648c0.926-2.043,1.459-3.857,1.601-5.445
		c0.013-0.146,0.071-0.26,0.174-0.338c0.103-0.076,0.212-0.115,0.327-0.115c0.251,0,0.412,0.119,0.482,0.357
		c0.662,2.031,1.559,3.93,2.689,5.695c0.373-0.957,0.663-1.982,0.872-3.078c0.208-1.096,0.371-1.99,0.487-2.686
		c-0.438,0-0.795-0.021-1.07-0.066c-0.276-0.045-0.457-0.115-0.54-0.207c-0.083-0.094-0.126-0.209-0.126-0.344
		s0.054-0.252,0.16-0.352C167.088,12.396,167.205,12.348,167.334,12.348z M160.722,21.445c0.372-0.668,0.604-1.088,0.694-1.262
		c-0.721-1.125-1.314-2.432-1.783-3.924c-0.309-0.963-0.523-1.889-0.646-2.775c-0.186,0.014-0.375,0.02-0.568,0.02h-0.713
		c0.211,1.715,0.752,3.531,1.619,5.445C159.69,19.766,160.156,20.598,160.722,21.445z M166.033,21.582
		c0.372-0.67,0.6-1.084,0.684-1.244c-1.009-1.504-1.851-3.068-2.525-4.693c-0.141,0.604-0.33,1.232-0.568,1.889
		C164.099,18.729,164.902,20.078,166.033,21.582z"/>
</g>
</svg>
