<?xml version="1.0" encoding="utf-8"?>
<!-- Generator: Adobe Illustrator 16.0.0, SVG Export Plug-In . SVG Version: 6.00 Build 0)  -->
<!DOCTYPE svg PUBLIC "-//W3C//DTD SVG 1.1//EN" "http://www.w3.org/Graphics/SVG/1.1/DTD/svg11.dtd">
<svg version="1.1" id="图层_1" xmlns="http://www.w3.org/2000/svg" xmlns:xlink="http://www.w3.org/1999/xlink" x="0px" y="0px"
	 width="258px" height="36px" viewBox="0 0 258 36" enable-background="new 0 0 258 36" xml:space="preserve">
<g>
	<path fill="#545454" d="M33.22,14.227c-0.023,0.109-0.073,0.193-0.151,0.256c-0.078,0.061-0.163,0.092-0.255,0.092
		c-0.14,0-0.251-0.043-0.337-0.133c-0.085-0.088-0.128-0.191-0.128-0.309c0-0.115,0.012-0.229,0.035-0.342
		c0.023-0.111,0.035-0.223,0.035-0.33c0-0.566-0.174-1.072-0.522-1.523c-0.349-0.447-0.842-0.826-1.481-1.131
		c-0.638-0.307-1.415-0.541-2.328-0.703c-0.913-0.162-1.931-0.244-3.054-0.244c-0.859,0-1.725,0.057-2.595,0.17
		c-0.871,0.111-1.708,0.273-2.508,0.486c-0.802,0.213-1.55,0.48-2.247,0.803c-0.697,0.32-1.303,0.691-1.817,1.113
		c-0.516,0.422-0.92,0.891-1.214,1.404c-0.294,0.518-0.441,1.08-0.441,1.691c0,0.473,0.102,0.889,0.308,1.248
		c0.205,0.359,0.486,0.674,0.841,0.941c0.356,0.266,0.776,0.494,1.26,0.686c0.484,0.189,1.008,0.348,1.574,0.475
		c0.565,0.129,1.153,0.232,1.765,0.314c0.611,0.08,1.227,0.148,1.847,0.203l1.788,0.15c0.89,0.078,1.688,0.16,2.392,0.244
		c0.705,0.086,1.324,0.193,1.858,0.324c0.89,0.227,1.548,0.547,1.974,0.965c0.426,0.418,0.639,0.977,0.639,1.672
		c0,0.674-0.186,1.266-0.557,1.775c-0.372,0.512-0.879,0.941-1.522,1.291c-0.643,0.348-1.393,0.611-2.252,0.789
		c-0.86,0.178-1.781,0.268-2.764,0.268c-1.069,0-2.008-0.072-2.817-0.215s-1.486-0.303-2.032-0.475
		c-0.546-0.176-0.962-0.338-1.249-0.484s-0.441-0.227-0.464-0.244c-0.14-0.076-0.209-0.199-0.209-0.371
		c0-0.131,0.047-0.238,0.14-0.318c0.093-0.082,0.193-0.121,0.302-0.121c0.085,0,0.162,0.021,0.232,0.068
		c0.008,0,0.141,0.068,0.401,0.203c0.259,0.135,0.646,0.285,1.161,0.447c0.515,0.162,1.152,0.311,1.91,0.441
		c0.759,0.133,1.642,0.197,2.648,0.197c0.999,0,1.881-0.082,2.648-0.244c0.766-0.162,1.41-0.389,1.934-0.68
		c0.522-0.289,0.917-0.631,1.185-1.021c0.267-0.391,0.4-0.814,0.4-1.271c0-0.27-0.049-0.504-0.145-0.703
		c-0.098-0.197-0.23-0.367-0.401-0.512c-0.17-0.143-0.374-0.264-0.61-0.365c-0.235-0.1-0.493-0.184-0.771-0.256
		c-0.294-0.076-0.61-0.143-0.947-0.195c-0.336-0.055-0.683-0.102-1.039-0.141c-0.356-0.037-0.714-0.072-1.075-0.104
		c-0.359-0.031-0.714-0.063-1.062-0.092l-1.789-0.152c-1.409-0.117-2.638-0.297-3.687-0.541c-1.05-0.244-1.922-0.557-2.619-0.939
		s-1.219-0.842-1.568-1.377c-0.348-0.533-0.522-1.156-0.522-1.869c0-0.727,0.164-1.395,0.493-2.004
		c0.329-0.607,0.778-1.154,1.347-1.643c0.57-0.488,1.235-0.912,1.997-1.271c0.763-0.361,1.578-0.66,2.445-0.9
		c0.867-0.24,1.765-0.42,2.694-0.541C23.222,9.061,24.135,9,25.033,9c1.123,0,2.1,0.068,2.933,0.205
		c0.832,0.133,1.544,0.309,2.137,0.521c0.592,0.213,1.078,0.455,1.458,0.725c0.379,0.273,0.685,0.539,0.917,0.803
		c0.55,0.643,0.825,1.373,0.825,2.195C33.302,13.721,33.275,13.979,33.22,14.227z"/>
	<path fill="#545454" d="M41.094,23.18c-0.031,0.063-0.095,0.193-0.192,0.389c-0.097,0.199-0.22,0.426-0.372,0.68
		c-0.15,0.256-0.327,0.523-0.528,0.801c-0.202,0.279-0.426,0.535-0.674,0.768c-0.248,0.232-0.515,0.424-0.801,0.574
		c-0.286,0.15-0.588,0.227-0.906,0.227c-0.449,0-0.827-0.143-1.133-0.43c-0.305-0.285-0.528-0.646-0.667-1.08
		c-0.263,0.441-0.576,0.791-0.94,1.051c-0.364,0.26-0.728,0.391-1.092,0.391c-0.286,0-0.545-0.055-0.777-0.158
		c-0.233-0.105-0.43-0.252-0.593-0.441c-0.162-0.189-0.289-0.412-0.377-0.668c-0.089-0.254-0.133-0.533-0.133-0.836
		c0-0.604,0.103-1.135,0.307-1.596c0.205-0.461,0.467-0.846,0.784-1.156c0.317-0.309,0.668-0.541,1.051-0.697
		c0.384-0.154,0.753-0.232,1.109-0.232c0.24,0,0.461,0.033,0.662,0.1c0.202,0.066,0.374,0.137,0.517,0.215
		c0.143,0.078,0.253,0.15,0.331,0.215c0.078,0.066,0.12,0.102,0.127,0.111c0.085,0.1,0.128,0.205,0.128,0.314
		c0,0.113-0.042,0.217-0.128,0.307c-0.085,0.088-0.186,0.133-0.302,0.133c-0.124,0-0.229-0.043-0.313-0.129
		c-0.015-0.016-0.05-0.043-0.104-0.086c-0.055-0.043-0.128-0.088-0.221-0.133c-0.093-0.047-0.204-0.088-0.331-0.123
		c-0.128-0.033-0.273-0.053-0.436-0.053c-0.24,0-0.495,0.055-0.766,0.164c-0.271,0.107-0.519,0.275-0.744,0.504
		c-0.224,0.229-0.413,0.516-0.563,0.861c-0.151,0.342-0.226,0.752-0.226,1.223c0,0.148,0.015,0.297,0.046,0.449
		c0.03,0.148,0.085,0.287,0.162,0.412c0.078,0.123,0.182,0.225,0.314,0.301c0.131,0.078,0.294,0.117,0.488,0.117
		c0.139,0,0.3-0.047,0.481-0.141c0.182-0.092,0.356-0.236,0.523-0.43c0.166-0.193,0.317-0.436,0.452-0.73
		c0.136-0.295,0.231-0.643,0.285-1.047c0.015-0.107,0.066-0.199,0.151-0.271c0.085-0.074,0.186-0.111,0.302-0.111
		c0.109,0,0.204,0.043,0.285,0.129c0.082,0.086,0.126,0.182,0.134,0.289c0.008,0.148,0.023,0.355,0.046,0.623
		c0.023,0.266,0.075,0.531,0.157,0.795c0.081,0.262,0.203,0.492,0.366,0.684c0.162,0.195,0.387,0.291,0.673,0.291
		c0.186,0,0.37-0.049,0.552-0.15s0.36-0.234,0.534-0.402c0.175-0.164,0.34-0.355,0.5-0.566c0.158-0.215,0.303-0.428,0.435-0.646
		c0.131-0.217,0.248-0.426,0.349-0.627c0.1-0.201,0.186-0.375,0.255-0.521c0.039-0.086,0.095-0.152,0.168-0.197
		c0.073-0.047,0.152-0.07,0.238-0.07c0.131,0,0.238,0.049,0.319,0.145c0.081,0.098,0.122,0.199,0.122,0.309
		C41.128,23.072,41.117,23.127,41.094,23.18z"/>
	<path fill="#545454" d="M47.887,23.203c-0.046,0.086-0.126,0.24-0.238,0.465c-0.113,0.225-0.264,0.479-0.453,0.76
		c-0.19,0.283-0.416,0.574-0.679,0.877s-0.565,0.58-0.906,0.832c-0.34,0.25-0.722,0.457-1.144,0.619
		C44.045,26.92,43.587,27,43.091,27c-0.441,0-0.832-0.078-1.173-0.236c-0.341-0.16-0.631-0.385-0.871-0.674
		c-0.24-0.291-0.422-0.635-0.545-1.027c-0.124-0.396-0.186-0.834-0.186-1.314c0-0.463,0.065-0.898,0.197-1.305
		s0.312-0.762,0.541-1.064c0.228-0.301,0.493-0.539,0.795-0.713c0.302-0.174,0.624-0.262,0.964-0.262
		c0.256,0,0.488,0.045,0.697,0.133c0.209,0.09,0.385,0.207,0.528,0.355c0.144,0.146,0.255,0.309,0.337,0.486
		c0.081,0.18,0.121,0.357,0.121,0.535c0,0.17-0.021,0.33-0.064,0.477c-0.042,0.146-0.097,0.277-0.162,0.389
		c-0.066,0.111-0.141,0.201-0.227,0.268c-0.085,0.064-0.17,0.098-0.255,0.098c-0.131,0-0.238-0.041-0.319-0.127
		c-0.082-0.084-0.122-0.189-0.122-0.313c0-0.063,0.013-0.117,0.04-0.164c0.027-0.047,0.059-0.096,0.093-0.145
		c0.036-0.051,0.066-0.113,0.093-0.186c0.027-0.074,0.041-0.168,0.041-0.285c0-0.162-0.075-0.309-0.227-0.441
		c-0.15-0.131-0.342-0.197-0.575-0.197c-0.217,0-0.424,0.066-0.621,0.197c-0.198,0.133-0.37,0.309-0.517,0.527
		c-0.146,0.223-0.265,0.48-0.354,0.779c-0.089,0.299-0.133,0.615-0.133,0.945c0,0.32,0.039,0.621,0.116,0.908
		c0.078,0.285,0.194,0.539,0.349,0.758c0.155,0.223,0.35,0.398,0.586,0.529c0.236,0.133,0.517,0.199,0.842,0.199
		c0.418,0,0.805-0.076,1.161-0.227c0.356-0.152,0.682-0.344,0.976-0.576c0.294-0.232,0.554-0.486,0.778-0.76
		c0.224-0.275,0.416-0.535,0.574-0.779c0.159-0.242,0.283-0.457,0.372-0.639c0.089-0.182,0.142-0.297,0.157-0.342
		c0.031-0.078,0.083-0.137,0.157-0.18c0.073-0.043,0.153-0.064,0.238-0.064c0.131,0,0.238,0.047,0.32,0.141
		c0.081,0.092,0.122,0.195,0.122,0.313C47.934,23.064,47.918,23.127,47.887,23.203z"/>
	<path fill="#545454" d="M48.317,21.646c-0.031,0.209-0.069,0.404-0.116,0.588c-0.046,0.18-0.091,0.34-0.133,0.475
		c-0.043,0.137-0.08,0.248-0.111,0.332c-0.031,0.086-0.05,0.131-0.058,0.139c-0.078,0.18-0.213,0.268-0.407,0.268
		c-0.108,0-0.209-0.041-0.302-0.121c-0.093-0.082-0.14-0.184-0.14-0.309c0-0.047,0.008-0.082,0.023-0.104
		c0.016-0.025,0.039-0.07,0.07-0.141c0.031-0.068,0.069-0.186,0.116-0.348s0.104-0.414,0.174-0.756
		c-0.131,0-0.267-0.004-0.407-0.012c-0.139-0.008-0.269-0.033-0.389-0.08c-0.119-0.047-0.218-0.121-0.295-0.221
		c-0.078-0.102-0.117-0.24-0.117-0.42c0-0.131,0.038-0.309,0.11-0.533c0.074-0.225,0.172-0.443,0.296-0.662
		c0.124-0.215,0.264-0.404,0.418-0.563c0.155-0.158,0.31-0.238,0.464-0.238c0.178,0,0.323,0.066,0.436,0.197
		c0.111,0.133,0.199,0.293,0.261,0.482s0.106,0.389,0.134,0.598c0.026,0.209,0.041,0.393,0.041,0.545
		c0.132,0,0.262-0.002,0.389-0.006c0.128-0.002,0.25-0.004,0.366-0.004c0.441,0,0.778,0.096,1.01,0.289s0.349,0.51,0.349,0.953
		c0,0.178-0.012,0.363-0.035,0.557c-0.023,0.193-0.051,0.393-0.082,0.598c-0.031,0.207-0.058,0.41-0.082,0.611
		s-0.035,0.396-0.035,0.59c0,0.279,0.039,0.51,0.116,0.693c0.077,0.18,0.174,0.326,0.29,0.436c0.117,0.107,0.24,0.184,0.372,0.225
		c0.132,0.043,0.251,0.064,0.36,0.064c0.333,0,0.646-0.107,0.941-0.324c0.294-0.219,0.565-0.479,0.813-0.785
		c0.248-0.305,0.47-0.629,0.668-0.969c0.197-0.342,0.362-0.641,0.493-0.895c0.039-0.07,0.093-0.123,0.163-0.162
		c0.069-0.039,0.143-0.059,0.22-0.059c0.14,0,0.248,0.045,0.325,0.133c0.078,0.09,0.116,0.189,0.116,0.297
		c0,0.076-0.016,0.146-0.046,0.209c-0.178,0.318-0.385,0.676-0.621,1.074c-0.237,0.398-0.505,0.773-0.808,1.121
		c-0.302,0.348-0.641,0.643-1.016,0.881c-0.375,0.24-0.788,0.361-1.236,0.361c-0.279,0-0.542-0.053-0.79-0.158
		c-0.248-0.104-0.463-0.254-0.645-0.451c-0.182-0.199-0.327-0.441-0.436-0.732c-0.108-0.291-0.162-0.617-0.162-0.98
		c0-0.387,0.039-0.773,0.116-1.156c0.077-0.383,0.116-0.748,0.116-1.098c0-0.146-0.033-0.258-0.099-0.33
		c-0.066-0.074-0.211-0.111-0.436-0.111c-0.108,0-0.226,0-0.354,0C48.602,21.635,48.464,21.641,48.317,21.646z M47.539,20.789
		c0-0.055-0.002-0.127-0.005-0.217c-0.005-0.088-0.012-0.176-0.023-0.26c-0.012-0.086-0.028-0.158-0.046-0.221
		c-0.02-0.063-0.041-0.094-0.064-0.094c-0.023,0-0.052,0.029-0.087,0.088c-0.034,0.057-0.071,0.127-0.11,0.209
		c-0.039,0.08-0.073,0.168-0.104,0.26c-0.031,0.094-0.054,0.172-0.07,0.234H47.539z"/>
	<path fill="#545454" d="M63.286,23.18c-0.031,0.063-0.095,0.193-0.192,0.389c-0.097,0.199-0.22,0.426-0.372,0.68
		c-0.15,0.256-0.327,0.523-0.528,0.801c-0.201,0.279-0.425,0.535-0.673,0.768s-0.515,0.424-0.801,0.574
		c-0.286,0.15-0.588,0.227-0.906,0.227c-0.449,0-0.827-0.143-1.133-0.43c-0.305-0.285-0.528-0.646-0.667-1.08
		c-0.263,0.441-0.577,0.791-0.94,1.051s-0.728,0.391-1.092,0.391c-0.286,0-0.545-0.055-0.778-0.158
		c-0.232-0.105-0.43-0.252-0.592-0.441s-0.289-0.412-0.377-0.668c-0.089-0.254-0.134-0.533-0.134-0.836
		c0-0.604,0.103-1.135,0.308-1.596s0.467-0.846,0.784-1.156c0.317-0.309,0.668-0.541,1.051-0.697
		c0.384-0.154,0.753-0.232,1.109-0.232c0.24,0,0.461,0.033,0.662,0.1c0.201,0.066,0.374,0.137,0.517,0.215
		c0.143,0.078,0.253,0.15,0.331,0.215c0.078,0.066,0.12,0.102,0.127,0.111c0.085,0.1,0.128,0.205,0.128,0.314
		c0,0.113-0.042,0.217-0.128,0.307c-0.085,0.088-0.186,0.133-0.302,0.133c-0.124,0-0.229-0.043-0.314-0.129
		c-0.015-0.016-0.05-0.043-0.104-0.086c-0.054-0.043-0.127-0.088-0.22-0.133c-0.093-0.047-0.204-0.088-0.331-0.123
		c-0.128-0.033-0.273-0.053-0.436-0.053c-0.24,0-0.495,0.055-0.767,0.164c-0.271,0.107-0.519,0.275-0.743,0.504
		c-0.224,0.229-0.413,0.516-0.563,0.861c-0.151,0.342-0.226,0.752-0.226,1.223c0,0.148,0.015,0.297,0.046,0.449
		c0.031,0.148,0.085,0.287,0.163,0.412c0.078,0.123,0.182,0.225,0.313,0.301c0.132,0.078,0.294,0.117,0.488,0.117
		c0.139,0,0.299-0.047,0.481-0.141c0.182-0.092,0.356-0.236,0.523-0.43c0.166-0.193,0.317-0.436,0.452-0.73
		c0.136-0.295,0.231-0.643,0.285-1.047c0.015-0.107,0.065-0.199,0.151-0.271c0.085-0.074,0.186-0.111,0.302-0.111
		c0.109,0,0.204,0.043,0.285,0.129c0.082,0.086,0.126,0.182,0.134,0.289c0.008,0.148,0.023,0.355,0.046,0.623
		c0.023,0.266,0.075,0.531,0.157,0.795c0.081,0.262,0.203,0.492,0.366,0.684c0.163,0.195,0.387,0.291,0.673,0.291
		c0.186,0,0.37-0.049,0.552-0.15c0.182-0.102,0.36-0.234,0.534-0.402c0.175-0.164,0.34-0.355,0.5-0.566
		c0.158-0.215,0.303-0.428,0.435-0.646c0.132-0.217,0.248-0.426,0.349-0.627s0.186-0.375,0.256-0.521
		c0.038-0.086,0.094-0.152,0.168-0.197c0.073-0.047,0.152-0.07,0.238-0.07c0.131,0,0.238,0.049,0.319,0.145
		c0.081,0.098,0.122,0.199,0.122,0.309C63.321,23.072,63.31,23.127,63.286,23.18z"/>
	<path fill="#545454" d="M65.168,25.387c0.115-0.232,0.264-0.52,0.447-0.865c0.182-0.346,0.371-0.691,0.568-1.039
		c0.197-0.35,0.391-0.678,0.58-0.988c0.19-0.309,0.352-0.545,0.482-0.709c0.225-0.27,0.457-0.465,0.697-0.58
		c0.239-0.115,0.461-0.174,0.661-0.174c0.202,0,0.374,0.043,0.518,0.129c0.142,0.086,0.261,0.199,0.354,0.342
		c0.092,0.143,0.162,0.309,0.208,0.5c0.047,0.188,0.069,0.393,0.069,0.609c0,0.123-0.005,0.287-0.018,0.486
		c-0.01,0.203-0.022,0.42-0.033,0.65c-0.013,0.232-0.023,0.473-0.036,0.721c-0.011,0.248-0.021,0.48-0.028,0.697
		c0.115-0.232,0.248-0.49,0.395-0.771c0.147-0.283,0.297-0.564,0.447-0.844c0.151-0.279,0.297-0.539,0.436-0.783
		s0.268-0.443,0.383-0.598c0.333-0.457,0.645-0.762,0.936-0.918c0.289-0.154,0.547-0.23,0.771-0.23c0.264,0,0.48,0.047,0.65,0.145
		c0.171,0.096,0.305,0.221,0.4,0.371c0.098,0.15,0.166,0.318,0.203,0.506c0.039,0.186,0.059,0.363,0.059,0.533
		c0,0.264-0.02,0.537-0.059,0.824c-0.037,0.287-0.058,0.627-0.058,1.021c0,0.164,0.008,0.326,0.023,0.488s0.048,0.307,0.099,0.432
		c0.051,0.123,0.13,0.223,0.238,0.299c0.108,0.078,0.255,0.117,0.441,0.117c0.201,0,0.398-0.053,0.592-0.156
		c0.193-0.105,0.379-0.242,0.558-0.412c0.179-0.172,0.347-0.365,0.505-0.58c0.158-0.217,0.304-0.436,0.436-0.652
		c0.132-0.215,0.248-0.422,0.349-0.621c0.101-0.197,0.183-0.365,0.244-0.504c0.038-0.086,0.093-0.152,0.162-0.197
		c0.069-0.047,0.147-0.07,0.232-0.07c0.132,0,0.238,0.049,0.319,0.145c0.082,0.098,0.122,0.199,0.122,0.309
		c0,0.055-0.013,0.109-0.035,0.162c-0.03,0.063-0.093,0.193-0.186,0.389c-0.093,0.199-0.217,0.424-0.372,0.674
		c-0.154,0.252-0.335,0.518-0.539,0.795c-0.206,0.279-0.432,0.537-0.68,0.773s-0.516,0.43-0.801,0.58
		c-0.287,0.15-0.589,0.227-0.906,0.227c-0.341,0-0.618-0.061-0.831-0.18c-0.212-0.121-0.383-0.281-0.511-0.482
		c-0.127-0.201-0.215-0.434-0.262-0.697c-0.046-0.262-0.069-0.537-0.069-0.824c0-0.377,0.02-0.729,0.059-1.051
		c0.038-0.32,0.058-0.57,0.058-0.748c0-0.193-0.018-0.342-0.051-0.441c-0.037-0.102-0.078-0.174-0.129-0.215
		c-0.051-0.043-0.099-0.066-0.146-0.07c-0.046-0.004-0.081-0.006-0.104-0.006c-0.186,0-0.381,0.104-0.586,0.309
		c-0.206,0.203-0.416,0.479-0.633,0.818c-0.217,0.342-0.439,0.729-0.668,1.16c-0.229,0.434-0.459,0.875-0.691,1.326
		c-0.131,0.246-0.242,0.451-0.33,0.615c-0.09,0.16-0.174,0.289-0.256,0.381c-0.082,0.094-0.161,0.158-0.238,0.199
		c-0.077,0.037-0.162,0.057-0.256,0.057c-0.201,0-0.354-0.068-0.459-0.209c-0.104-0.139-0.156-0.32-0.156-0.545
		c0-0.115,0.004-0.27,0.012-0.465c0.008-0.193,0.016-0.406,0.023-0.639s0.02-0.473,0.035-0.721c0.016-0.246,0.026-0.484,0.034-0.713
		s0.016-0.432,0.023-0.609s0.011-0.314,0.011-0.406c0-0.201-0.034-0.348-0.104-0.436c-0.07-0.09-0.151-0.135-0.244-0.135
		c-0.085,0-0.18,0.031-0.285,0.094c-0.104,0.061-0.227,0.182-0.365,0.359c-0.108,0.139-0.246,0.342-0.412,0.609
		s-0.342,0.564-0.529,0.889c-0.186,0.326-0.369,0.658-0.551,0.998c-0.182,0.342-0.339,0.648-0.471,0.918
		c-0.162,0.326-0.324,0.549-0.487,0.668s-0.321,0.18-0.476,0.18c-0.225,0-0.392-0.066-0.5-0.203
		c-0.108-0.135-0.162-0.314-0.162-0.541c0-0.021,0.006-0.162,0.018-0.416c0.012-0.256,0.024-0.568,0.04-0.936
		c0.016-0.369,0.032-0.762,0.053-1.18c0.019-0.416,0.036-0.809,0.052-1.172c0.008-0.193,0-0.373-0.023-0.533
		c-0.023-0.164-0.054-0.262-0.092-0.291c-0.063,0.016-0.185,0.158-0.367,0.43c-0.182,0.271-0.412,0.742-0.69,1.416
		c-0.039,0.086-0.097,0.15-0.174,0.197c-0.077,0.047-0.159,0.07-0.244,0.07c-0.131,0-0.236-0.045-0.313-0.135
		c-0.078-0.088-0.116-0.191-0.116-0.307c0-0.055,0.012-0.111,0.035-0.174c0.348-0.828,0.681-1.439,0.998-1.83
		s0.628-0.584,0.929-0.584c0.179,0,0.327,0.039,0.448,0.119c0.119,0.082,0.214,0.188,0.284,0.314
		c0.069,0.129,0.119,0.273,0.15,0.436s0.047,0.322,0.047,0.477c0,0.689-0.018,1.318-0.053,1.893
		C65.243,24.229,65.207,24.805,65.168,25.387z"/>
	<path fill="#545454" d="M79.08,25.143c0.162,0.225,0.371,0.404,0.627,0.539c0.256,0.137,0.568,0.205,0.94,0.205
		c0.38,0,0.724-0.092,1.034-0.273c0.309-0.182,0.592-0.42,0.848-0.715c0.255-0.293,0.483-0.623,0.685-0.986
		c0.202-0.363,0.384-0.729,0.546-1.092c0.039-0.086,0.093-0.148,0.162-0.191c0.07-0.043,0.147-0.064,0.232-0.064
		c0.132,0,0.238,0.047,0.319,0.141c0.081,0.092,0.122,0.193,0.122,0.301c0,0.039-0.004,0.072-0.012,0.098
		c-0.008,0.029-0.02,0.057-0.034,0.088c-0.534,1.176-1.118,2.064-1.748,2.66c-0.632,0.596-1.345,0.9-2.143,0.916
		c-0.511,0-0.952-0.098-1.324-0.295s-0.677-0.453-0.917-0.768c-0.24-0.313-0.418-0.668-0.535-1.061
		c-0.115-0.396-0.174-0.791-0.174-1.186s0.049-0.76,0.146-1.092s0.235-0.623,0.417-0.871c0.183-0.248,0.4-0.441,0.65-0.58
		c0.252-0.141,0.529-0.209,0.832-0.209c0.178,0,0.354,0.035,0.527,0.109c0.174,0.072,0.332,0.178,0.471,0.314
		c0.139,0.135,0.252,0.299,0.337,0.494c0.085,0.193,0.128,0.414,0.128,0.66c0,0.318-0.055,0.615-0.162,0.895
		c-0.109,0.279-0.258,0.537-0.447,0.777c-0.191,0.242-0.416,0.461-0.68,0.662C79.664,24.822,79.382,24.996,79.08,25.143z
		 M78.731,24.387c0.239-0.1,0.459-0.229,0.655-0.381c0.199-0.156,0.367-0.326,0.506-0.512c0.14-0.186,0.248-0.383,0.325-0.588
		s0.116-0.412,0.116-0.621c0-0.23-0.059-0.406-0.174-0.527c-0.117-0.121-0.252-0.18-0.406-0.18c-0.209,0-0.388,0.057-0.535,0.174
		c-0.146,0.115-0.267,0.266-0.359,0.451c-0.093,0.188-0.161,0.395-0.203,0.623c-0.043,0.229-0.064,0.455-0.064,0.678
		c0,0.141,0.014,0.289,0.041,0.443C78.659,24.102,78.692,24.248,78.731,24.387z"/>
	<path fill="#545454" d="M86.338,25.375c0.123-0.256,0.267-0.537,0.43-0.842c0.162-0.307,0.336-0.615,0.522-0.93
		s0.382-0.625,0.586-0.936c0.205-0.309,0.421-0.604,0.646-0.883c0.225-0.27,0.45-0.465,0.679-0.586
		c0.229-0.119,0.443-0.178,0.645-0.178c0.403,0,0.701,0.146,0.895,0.439c0.193,0.295,0.29,0.658,0.29,1.092
		c0,0.102-0.006,0.223-0.018,0.365c-0.011,0.145-0.023,0.297-0.034,0.459c-0.013,0.162-0.023,0.328-0.036,0.494
		c-0.01,0.168-0.017,0.322-0.017,0.471c0,0.184,0.009,0.365,0.029,0.533c0.019,0.172,0.056,0.318,0.11,0.447
		c0.055,0.127,0.131,0.229,0.232,0.303c0.101,0.072,0.232,0.109,0.395,0.109c0.295,0,0.58-0.113,0.859-0.342s0.535-0.5,0.772-0.813
		c0.235-0.314,0.441-0.633,0.615-0.959c0.175-0.324,0.304-0.588,0.39-0.789c0.037-0.086,0.094-0.152,0.168-0.197
		c0.073-0.047,0.152-0.07,0.238-0.07c0.131,0,0.238,0.049,0.318,0.145c0.082,0.098,0.123,0.199,0.123,0.309
		c0,0.055-0.012,0.109-0.035,0.162c-0.031,0.063-0.094,0.191-0.186,0.385c-0.094,0.193-0.215,0.414-0.367,0.668
		c-0.15,0.25-0.326,0.518-0.527,0.799c-0.201,0.283-0.424,0.541-0.668,0.773s-0.508,0.426-0.789,0.58
		c-0.283,0.154-0.579,0.232-0.889,0.232c-0.349,0-0.631-0.068-0.848-0.203s-0.388-0.314-0.512-0.533
		c-0.123-0.221-0.207-0.465-0.25-0.732c-0.042-0.266-0.063-0.535-0.063-0.807c0-0.117,0.006-0.248,0.016-0.395
		c0.014-0.146,0.028-0.303,0.047-0.465c0.02-0.164,0.036-0.326,0.047-0.488c0.012-0.162,0.018-0.316,0.018-0.465
		c0-0.246-0.039-0.416-0.115-0.504c-0.078-0.09-0.148-0.135-0.21-0.135c-0.124,0-0.265,0.072-0.423,0.215
		c-0.16,0.145-0.326,0.33-0.5,0.563s-0.353,0.496-0.535,0.785c-0.182,0.291-0.352,0.578-0.511,0.865s-0.306,0.559-0.44,0.818
		c-0.137,0.26-0.242,0.475-0.319,0.645c-0.155,0.324-0.31,0.545-0.465,0.656s-0.313,0.168-0.476,0.168
		c-0.225,0-0.406-0.066-0.541-0.203c-0.135-0.135-0.203-0.326-0.203-0.576c0-0.053,0.008-0.16,0.023-0.318s0.035-0.348,0.059-0.568
		s0.047-0.459,0.069-0.715c0.023-0.256,0.046-0.51,0.069-0.76c0.023-0.252,0.043-0.486,0.059-0.703
		c0.016-0.215,0.023-0.398,0.023-0.545c0-0.193-0.008-0.381-0.023-0.559s-0.047-0.285-0.094-0.324
		c-0.069,0.023-0.193,0.168-0.371,0.436s-0.406,0.736-0.686,1.41c-0.039,0.086-0.096,0.15-0.174,0.197s-0.158,0.07-0.244,0.07
		c-0.131,0-0.236-0.045-0.313-0.135c-0.078-0.088-0.117-0.191-0.117-0.307c0-0.055,0.012-0.111,0.035-0.174
		c0.349-0.828,0.676-1.439,0.981-1.83s0.609-0.584,0.911-0.584c0.178,0,0.33,0.043,0.453,0.131c0.124,0.09,0.223,0.209,0.296,0.354
		c0.073,0.15,0.128,0.313,0.163,0.49s0.052,0.359,0.052,0.545c0,0.139-0.01,0.355-0.028,0.65c-0.02,0.295-0.045,0.609-0.076,0.947
		c-0.031,0.336-0.06,0.67-0.087,1.004C86.387,24.871,86.361,25.15,86.338,25.375z"/>
	<path fill="#545454" d="M103.746,14.797c0,0.123-0.043,0.221-0.129,0.295c-0.085,0.074-0.189,0.109-0.313,0.109h-5.889v0.127
		c0,0.475-0.034,0.977-0.104,1.512c-0.07,0.533-0.165,1.066-0.285,1.596c-0.12,0.531-0.256,1.047-0.406,1.551
		s-0.307,0.969-0.465,1.393c-0.158,0.428-0.315,0.797-0.47,1.109c-0.155,0.314-0.294,0.549-0.419,0.703
		c0.102,0.357,0.221,0.688,0.36,0.994c0.14,0.305,0.296,0.572,0.472,0.799c0.172,0.23,0.361,0.41,0.563,0.541
		c0.201,0.133,0.418,0.197,0.65,0.197c0.27,0,0.539-0.113,0.807-0.342c0.267-0.229,0.515-0.498,0.743-0.813
		c0.228-0.314,0.429-0.631,0.604-0.953c0.174-0.32,0.299-0.578,0.377-0.771c0.078-0.186,0.213-0.279,0.406-0.279
		c0.132,0,0.238,0.047,0.318,0.141c0.083,0.092,0.123,0.193,0.123,0.301c0,0.055-0.012,0.107-0.035,0.162s-0.08,0.178-0.168,0.371
		c-0.09,0.193-0.205,0.418-0.349,0.676c-0.144,0.254-0.31,0.523-0.499,0.805c-0.189,0.283-0.402,0.541-0.639,0.773
		s-0.49,0.426-0.762,0.58c-0.27,0.154-0.557,0.232-0.858,0.232c-0.534,0-1.015-0.174-1.44-0.521
		c-0.426-0.35-0.787-0.836-1.086-1.465c-0.298-0.625-0.523-1.369-0.679-2.229s-0.233-1.801-0.233-2.822
		c0-0.256,0.005-0.555,0.013-0.9c0.008-0.344,0.022-0.707,0.046-1.092c0.023-0.383,0.059-0.777,0.105-1.184
		c0.046-0.406,0.107-0.803,0.186-1.191h-4.17c-0.123,0-0.228-0.035-0.313-0.109c-0.086-0.074-0.128-0.172-0.128-0.295
		c0-0.125,0.042-0.225,0.128-0.297c0.085-0.074,0.189-0.111,0.313-0.111h4.367c0.077-0.277,0.168-0.533,0.272-0.766
		c0.105-0.232,0.225-0.434,0.36-0.604c0.135-0.172,0.286-0.305,0.453-0.4c0.166-0.098,0.35-0.145,0.551-0.145
		c0.194,0,0.362,0.047,0.506,0.145c0.143,0.096,0.266,0.229,0.365,0.4c0.102,0.17,0.18,0.371,0.238,0.604s0.104,0.488,0.134,0.766
		h5.935c0.123,0,0.228,0.037,0.313,0.111C103.703,14.572,103.746,14.672,103.746,14.797z M95.001,22.029
		c0.232-0.51,0.442-1.063,0.634-1.654c0.188-0.592,0.352-1.191,0.487-1.795c0.135-0.604,0.239-1.195,0.313-1.775
		c0.072-0.58,0.109-1.115,0.109-1.604h-1.369c-0.109,0.48-0.196,1.074-0.262,1.783c-0.066,0.709-0.099,1.57-0.099,2.584
		c0,0.564,0.015,1.039,0.046,1.422C94.893,21.375,94.939,21.721,95.001,22.029z M96.081,13.344c-0.069,0-0.171,0.074-0.302,0.227
		c-0.132,0.15-0.264,0.424-0.395,0.818h1.114c-0.038-0.324-0.095-0.58-0.168-0.766C96.257,13.436,96.174,13.344,96.081,13.344z"/>
	<path fill="#545454" d="M105.244,25.143c-0.194,0-0.364-0.016-0.512-0.047c-0.115,0.232-0.256,0.447-0.418,0.645
		s-0.35,0.369-0.563,0.518c-0.213,0.146-0.45,0.264-0.714,0.348c-0.264,0.086-0.549,0.129-0.859,0.129
		c-0.363,0-0.697-0.064-0.998-0.193c-0.303-0.127-0.566-0.305-0.79-0.533c-0.226-0.229-0.399-0.504-0.522-0.824
		c-0.125-0.322-0.186-0.676-0.186-1.063c0-0.496,0.088-0.928,0.267-1.295s0.383-0.674,0.616-0.918
		c0.231-0.244,0.463-0.426,0.695-0.547c0.232-0.117,0.406-0.18,0.523-0.18c0.131,0,0.23,0.035,0.295,0.105
		c0.066,0.07,0.1,0.162,0.1,0.279c0,0.131-0.04,0.229-0.123,0.297c-0.08,0.064-0.184,0.129-0.307,0.191
		c-0.124,0.061-0.256,0.148-0.395,0.26c-0.14,0.113-0.27,0.254-0.39,0.426c-0.12,0.168-0.218,0.371-0.296,0.604
		c-0.077,0.23-0.116,0.49-0.116,0.777c0,0.256,0.039,0.492,0.116,0.715c0.078,0.219,0.189,0.41,0.337,0.566
		c0.147,0.16,0.321,0.283,0.522,0.373c0.201,0.088,0.426,0.133,0.674,0.133c0.441,0,0.807-0.102,1.098-0.307
		c0.289-0.205,0.512-0.467,0.668-0.783c-0.457-0.24-0.833-0.582-1.127-1.023c-0.295-0.441-0.441-0.938-0.441-1.486
		c0-0.441,0.105-0.801,0.32-1.08c0.212-0.279,0.492-0.418,0.842-0.418c0.208,0,0.406,0.051,0.592,0.152
		c0.186,0.1,0.35,0.258,0.494,0.477c0.142,0.217,0.256,0.494,0.342,0.834c0.085,0.342,0.128,0.748,0.128,1.221
		c0,0.248-0.031,0.506-0.093,0.777c0.046,0.008,0.093,0.012,0.139,0.012c0.047,0,0.098,0,0.151,0c0.263,0,0.499-0.031,0.708-0.094
		c0.209-0.061,0.398-0.154,0.568-0.277c0.172-0.125,0.324-0.283,0.459-0.477c0.136-0.193,0.266-0.418,0.39-0.674
		c0.022-0.047,0.073-0.09,0.151-0.133c0.077-0.043,0.154-0.064,0.231-0.064c0.101,0,0.196,0.041,0.285,0.121
		c0.089,0.082,0.134,0.188,0.134,0.32c0,0.063-0.016,0.129-0.047,0.203s-0.063,0.141-0.094,0.203
		c-0.131,0.232-0.283,0.455-0.457,0.668c-0.176,0.213-0.381,0.398-0.617,0.557c-0.236,0.16-0.5,0.285-0.795,0.379
		C105.937,25.107,105.607,25.15,105.244,25.143z M103.258,22.217c0,0.146,0.02,0.301,0.059,0.463
		c0.038,0.164,0.099,0.324,0.18,0.484c0.082,0.156,0.182,0.309,0.302,0.451c0.12,0.145,0.261,0.266,0.424,0.365
		c0.022-0.162,0.035-0.32,0.035-0.477c0-0.207-0.016-0.422-0.046-0.637c-0.031-0.217-0.076-0.416-0.135-0.6
		c-0.057-0.18-0.129-0.328-0.215-0.441c-0.085-0.111-0.186-0.168-0.301-0.168c-0.047,0-0.109,0.035-0.188,0.105
		C103.297,21.832,103.258,21.984,103.258,22.217z"/>
</g>
</svg>
