<?xml version="1.0" encoding="utf-8"?>
<!-- Generator: Adobe Illustrator 16.0.0, SVG Export Plug-In . SVG Version: 6.00 Build 0)  -->
<!DOCTYPE svg PUBLIC "-//W3C//DTD SVG 1.1//EN" "http://www.w3.org/Graphics/SVG/1.1/DTD/svg11.dtd">
<svg version="1.1" id="图层_1" xmlns="http://www.w3.org/2000/svg" xmlns:xlink="http://www.w3.org/1999/xlink" x="0px" y="0px"
	 width="258px" height="36px" viewBox="0 0 258 36" enable-background="new 0 0 258 36" xml:space="preserve">
<g>
	<path fill="#545454" d="M26.091,22.02c0,0.783-0.123,1.506-0.367,2.168s-0.603,1.238-1.073,1.732
		c-0.472,0.492-1.056,0.879-1.753,1.158c-0.698,0.281-1.503,0.422-2.417,0.422c-0.676,0-1.291-0.115-1.845-0.346
		c-0.553-0.229-1.031-0.545-1.429-0.949c-0.4-0.402-0.709-0.889-0.928-1.457s-0.329-1.197-0.329-1.887
		c0-0.758,0.125-1.398,0.377-1.928c0.252-0.527,0.569-0.957,0.95-1.289c0.381-0.33,0.797-0.568,1.247-0.717
		c0.449-0.146,0.879-0.221,1.289-0.221c0.518,0,0.98,0.076,1.387,0.232c0.406,0.154,0.744,0.371,1.014,0.652
		c0.27,0.279,0.478,0.604,0.625,0.971c0.147,0.367,0.221,0.756,0.221,1.166c0,0.295-0.043,0.6-0.129,0.916
		c-0.086,0.318-0.225,0.605-0.416,0.863c-0.19,0.26-0.437,0.473-0.739,0.643c-0.302,0.17-0.662,0.252-1.079,0.252
		c-0.841,0-1.428-0.268-1.759-0.803s-0.497-1.203-0.497-2.002h0.712c0,0.281,0.021,0.551,0.064,0.811
		c0.043,0.258,0.124,0.486,0.242,0.684c0.119,0.199,0.276,0.357,0.473,0.475c0.197,0.121,0.45,0.18,0.759,0.18
		c0.43,0,0.813-0.158,1.15-0.477c0.336-0.314,0.505-0.83,0.505-1.541c0-0.734-0.238-1.313-0.715-1.732
		c-0.477-0.422-1.084-0.631-1.822-0.631c-0.395,0-0.778,0.063-1.15,0.188c-0.373,0.127-0.706,0.33-1,0.609
		c-0.293,0.283-0.534,0.643-0.719,1.086c-0.187,0.441-0.28,0.98-0.28,1.613c0,0.748,0.133,1.377,0.399,1.887
		c0.266,0.512,0.595,0.922,0.986,1.23c0.391,0.311,0.808,0.531,1.249,0.664c0.442,0.133,0.846,0.199,1.213,0.199
		c0.675,0,1.266-0.115,1.772-0.346c0.507-0.229,0.93-0.543,1.271-0.943c0.341-0.398,0.593-0.859,0.754-1.381
		c0.161-0.521,0.243-1.07,0.243-1.646c0-0.604-0.104-1.193-0.313-1.768c-0.209-0.576-0.471-1.143-0.788-1.701
		c-0.316-0.557-0.669-1.105-1.058-1.645c-0.388-0.541-0.77-1.072-1.144-1.598c-0.777,0.311-1.629,0.463-2.557,0.463
		c-0.647,0-1.291-0.08-1.931-0.242c-0.64-0.16-1.216-0.42-1.727-0.777c-0.511-0.355-0.924-0.805-1.241-1.346
		c-0.316-0.545-0.475-1.193-0.475-1.949c0-0.662,0.173-1.195,0.518-1.604c0.345-0.404,0.82-0.607,1.424-0.607
		c0.475,0,0.856,0.143,1.144,0.432c0.288,0.287,0.431,0.676,0.431,1.164c0,0.52-0.155,0.902-0.464,1.15s-0.702,0.371-1.176,0.371
		v-0.658c0.209,0,0.416-0.059,0.62-0.18c0.206-0.117,0.308-0.342,0.308-0.668c0-0.297-0.077-0.529-0.231-0.699
		c-0.155-0.17-0.38-0.256-0.674-0.256c-0.338,0-0.62,0.123-0.848,0.365c-0.226,0.24-0.339,0.621-0.339,1.143
		c0,0.621,0.131,1.164,0.394,1.631c0.262,0.465,0.614,0.85,1.057,1.152c0.442,0.305,0.94,0.533,1.494,0.688
		c0.554,0.158,1.119,0.234,1.694,0.234c0.395,0,0.773-0.031,1.133-0.088c0.36-0.061,0.712-0.152,1.058-0.279
		c-0.461-0.676-0.82-1.316-1.079-1.92c-0.259-0.605-0.388-1.23-0.388-1.879c0-0.395,0.062-0.77,0.188-1.121
		c0.126-0.352,0.312-0.666,0.556-0.939c0.244-0.271,0.543-0.49,0.896-0.652C21.382,8.58,21.789,8.5,22.25,8.5
		c0.82,0,1.44,0.238,1.862,0.717c0.42,0.479,0.631,1.07,0.631,1.775c0,0.871-0.19,1.654-0.569,2.352
		c-0.378,0.699-0.9,1.283-1.564,1.76c0.401,0.488,0.806,1.002,1.214,1.537c0.408,0.537,0.783,1.092,1.124,1.666
		c0.34,0.576,0.616,1.174,0.828,1.793C25.985,20.719,26.091,21.357,26.091,22.02z M24.03,11.1c0-0.244-0.029-0.484-0.085-0.723
		c-0.058-0.238-0.152-0.443-0.285-0.621c-0.132-0.176-0.304-0.318-0.514-0.432c-0.211-0.109-0.463-0.166-0.756-0.166
		c-0.472,0-0.869,0.172-1.19,0.516c-0.322,0.346-0.482,0.861-0.482,1.545c0,0.553,0.144,1.107,0.43,1.662
		c0.287,0.553,0.641,1.125,1.064,1.715c0.571-0.408,1.016-0.91,1.337-1.5S24.03,11.842,24.03,11.1z"/>
	<path fill="#545454" d="M27.234,22.635c0-0.678,0.077-1.313,0.231-1.91s0.383-1.113,0.686-1.547
		c0.302-0.438,0.678-0.777,1.127-1.027c0.449-0.248,0.969-0.371,1.56-0.371c0.884,0,1.587,0.264,2.109,0.791
		s0.782,1.205,0.782,2.029c0,0.561-0.099,1.059-0.296,1.492c-0.198,0.436-0.48,0.801-0.847,1.094
		c-0.367,0.293-0.802,0.516-1.306,0.662c-0.503,0.148-1.058,0.221-1.662,0.221h-0.885c0.05,0.326,0.119,0.65,0.205,0.977
		c0.086,0.324,0.21,0.619,0.373,0.881c0.162,0.266,0.376,0.482,0.642,0.656c0.266,0.174,0.597,0.26,0.993,0.26
		c0.46,0,0.834-0.098,1.122-0.291s0.516-0.443,0.685-0.744c0.169-0.303,0.286-0.641,0.351-1.016c0.064-0.373,0.097-0.736,0.097-1.09
		h0.712c0,0.498-0.056,0.975-0.167,1.43c-0.111,0.457-0.289,0.865-0.534,1.221c-0.244,0.355-0.561,0.637-0.949,0.842
		S31.399,27.5,30.838,27.5c-1.166,0-2.058-0.402-2.676-1.203C27.544,25.494,27.234,24.273,27.234,22.635z M28.669,23.412h0.82
		c0.813,0,1.484-0.23,2.012-0.686c0.529-0.457,0.793-1.129,0.793-2.014c0-0.266-0.022-0.533-0.065-0.803
		c-0.043-0.271-0.121-0.516-0.232-0.74c-0.112-0.223-0.267-0.4-0.464-0.533c-0.198-0.135-0.459-0.199-0.783-0.199
		c-0.446,0-0.804,0.133-1.073,0.398c-0.271,0.268-0.479,0.604-0.626,1.01c-0.148,0.404-0.249,0.859-0.302,1.359
		c-0.054,0.5-0.081,0.975-0.081,1.43V23.412z"/>
	<path fill="#545454" d="M38.952,19.512c0,0.275,0.065,0.475,0.194,0.602s0.284,0.189,0.464,0.189c0.252,0,0.417-0.092,0.497-0.277
		c0.079-0.188,0.118-0.393,0.118-0.617h0.712c0,0.461-0.104,0.834-0.313,1.121c-0.209,0.289-0.547,0.434-1.015,0.434
		c-0.438,0-0.777-0.135-1.014-0.4s-0.356-0.611-0.356-1.037c0-0.574,0.184-1.008,0.551-1.305c0.367-0.295,0.802-0.441,1.305-0.441
		c0.504,0,0.939,0.123,1.306,0.371c0.367,0.25,0.666,0.588,0.896,1.014c0.23,0.43,0.399,0.943,0.507,1.539
		c0.108,0.598,0.162,1.232,0.162,1.91c0,0.617-0.06,1.223-0.178,1.811c-0.12,0.592-0.317,1.111-0.594,1.561
		c-0.277,0.449-0.636,0.814-1.079,1.094c-0.441,0.281-0.994,0.422-1.656,0.422c-0.604,0-1.131-0.119-1.581-0.355
		c-0.45-0.238-0.822-0.572-1.117-1.004c-0.295-0.43-0.512-0.945-0.653-1.543c-0.14-0.596-0.21-1.258-0.21-1.984v-2.721h-0.227
		c-0.043,0.254-0.164,0.494-0.362,0.725s-0.444,0.346-0.739,0.346v-0.66c0.223-0.057,0.415-0.172,0.577-0.34
		c0.162-0.17,0.297-0.359,0.405-0.564c0.107-0.207,0.192-0.414,0.253-0.623c0.062-0.211,0.092-0.395,0.092-0.555h1.435v4.025
		c0,0.395,0.011,0.857,0.032,1.387c0.022,0.527,0.099,1.031,0.231,1.51c0.134,0.479,0.348,0.881,0.642,1.209
		c0.295,0.328,0.709,0.49,1.241,0.49c0.497,0,0.881-0.15,1.155-0.453c0.273-0.303,0.476-0.68,0.609-1.139
		c0.133-0.457,0.214-0.943,0.244-1.463c0.028-0.518,0.042-0.988,0.042-1.412c0-0.662-0.011-1.229-0.032-1.699
		c-0.022-0.471-0.083-0.861-0.184-1.172c-0.238-0.711-0.673-1.066-1.306-1.066c-0.31,0-0.563,0.088-0.761,0.266
		C39.05,18.881,38.952,19.15,38.952,19.512z"/>
	<path fill="#545454" d="M44.843,19.893h-0.226c-0.043,0.254-0.164,0.494-0.362,0.725s-0.444,0.346-0.739,0.346v-0.66
		c0.223-0.057,0.416-0.172,0.578-0.34c0.162-0.17,0.296-0.359,0.404-0.564c0.108-0.207,0.192-0.414,0.253-0.623
		c0.061-0.211,0.092-0.395,0.092-0.555h1.435v4.574c0,0.498,0.007,0.971,0.021,1.42c0.015,0.449,0.051,0.857,0.108,1.225
		c0.079,0.445,0.21,0.791,0.393,1.035c0.184,0.244,0.423,0.367,0.718,0.367c0.251,0,0.449-0.07,0.593-0.211
		c0.144-0.139,0.257-0.32,0.34-0.545c0.083-0.223,0.135-0.463,0.156-0.723c0.021-0.258,0.033-0.496,0.033-0.711v-0.951h0.712v0.906
		c0,0.412-0.034,0.793-0.103,1.145c-0.068,0.354-0.18,0.658-0.335,0.918c-0.154,0.258-0.36,0.461-0.614,0.609
		c-0.256,0.146-0.584,0.221-0.987,0.221c-0.41,0-0.788-0.084-1.133-0.254c-0.345-0.17-0.622-0.443-0.831-0.826
		c-0.209-0.371-0.345-0.828-0.41-1.363c-0.065-0.535-0.098-1.289-0.098-2.262V19.893z M45.539,14.576c0.279,0,0.522,0.1,0.729,0.307
		c0.208,0.203,0.312,0.445,0.312,0.727s-0.104,0.52-0.312,0.719c-0.207,0.197-0.451,0.295-0.729,0.295
		c-0.272,0-0.508-0.098-0.708-0.295c-0.201-0.199-0.301-0.438-0.301-0.719s0.1-0.523,0.301-0.727
		C45.031,14.676,45.267,14.576,45.539,14.576z"/>
	<path fill="#545454" d="M50.572,22.795v-2.523c-0.209,0.123-0.441,0.252-0.696,0.395c-0.255,0.139-0.465,0.238-0.631,0.297v-0.66
		c0.208-0.072,0.444-0.191,0.707-0.361c0.262-0.168,0.469-0.311,0.62-0.426c0-0.475,0-0.889,0-1.242
		c0-0.352,0.003-0.688,0.011-1.004s0.014-0.639,0.021-0.961c0.007-0.324,0.018-0.703,0.033-1.135
		c0.029-0.777,0.098-1.576,0.209-2.396c0.112-0.822,0.309-1.563,0.589-2.225c0.216-0.549,0.538-1.027,0.965-1.438
		S53.352,8.5,53.971,8.5c0.662,0,1.17,0.25,1.527,0.75c0.355,0.498,0.534,1.17,0.534,2.012c0,0.41-0.049,0.844-0.145,1.301
		c-0.098,0.457-0.224,0.91-0.378,1.359c-0.155,0.449-0.342,0.891-0.562,1.326c-0.219,0.436-0.447,0.83-0.684,1.184
		c-0.425,0.633-0.83,1.162-1.214,1.59c-0.385,0.428-0.731,0.791-1.042,1.086v3.688c0,0.498,0.007,0.967,0.022,1.408
		c0.014,0.443,0.05,0.848,0.108,1.215c0.079,0.432,0.203,0.777,0.372,1.035c0.169,0.26,0.416,0.389,0.74,0.389
		c0.251,0,0.45-0.07,0.593-0.211c0.144-0.139,0.257-0.32,0.34-0.545c0.083-0.223,0.134-0.463,0.156-0.723
		c0.021-0.258,0.032-0.496,0.032-0.711v-0.951h0.712v0.93c0,0.41-0.035,0.791-0.103,1.143c-0.068,0.354-0.184,0.654-0.345,0.906
		c-0.163,0.254-0.371,0.451-0.626,0.6c-0.255,0.146-0.577,0.221-0.966,0.221c-0.424,0-0.806-0.084-1.144-0.254
		c-0.338-0.17-0.611-0.443-0.82-0.826c-0.208-0.371-0.345-0.828-0.41-1.363C50.604,24.521,50.572,23.768,50.572,22.795z
		 M53.841,15.908c0.518-0.813,0.894-1.592,1.127-2.338c0.234-0.744,0.351-1.486,0.351-2.221c0-0.619-0.099-1.131-0.296-1.537
		c-0.199-0.408-0.509-0.611-0.934-0.611c-0.403,0-0.732,0.158-0.987,0.477c-0.256,0.316-0.458,0.73-0.605,1.24
		c-0.148,0.512-0.255,1.088-0.324,1.729s-0.109,1.293-0.124,1.955c-0.014,0.281-0.025,0.758-0.032,1.428
		c-0.007,0.668-0.011,1.404-0.011,2.203c0.324-0.34,0.644-0.705,0.96-1.096C53.284,16.742,53.576,16.334,53.841,15.908z"/>
	<path fill="#545454" d="M57.294,22.795v-2.523c-0.208,0.123-0.44,0.252-0.696,0.395c-0.255,0.139-0.465,0.238-0.631,0.297v-0.66
		c0.209-0.072,0.444-0.191,0.708-0.361c0.262-0.168,0.469-0.311,0.62-0.426c0-0.475,0-0.889,0-1.242
		c0-0.352,0.004-0.688,0.011-1.004c0.007-0.316,0.014-0.639,0.021-0.961c0.007-0.324,0.018-0.703,0.032-1.135
		c0.029-0.777,0.099-1.576,0.21-2.396c0.112-0.822,0.308-1.563,0.588-2.225c0.216-0.549,0.538-1.027,0.965-1.438
		c0.428-0.41,0.952-0.615,1.57-0.615c0.662,0,1.17,0.25,1.527,0.75c0.356,0.498,0.534,1.17,0.534,2.012
		c0,0.41-0.049,0.844-0.146,1.301c-0.098,0.457-0.224,0.91-0.378,1.359c-0.154,0.449-0.341,0.891-0.561,1.326
		c-0.219,0.436-0.447,0.83-0.685,1.184c-0.425,0.633-0.829,1.162-1.214,1.59c-0.385,0.428-0.732,0.791-1.041,1.086v3.688
		c0,0.498,0.007,0.967,0.021,1.408c0.015,0.443,0.051,0.848,0.108,1.215c0.079,0.432,0.203,0.777,0.372,1.035
		c0.169,0.26,0.416,0.389,0.74,0.389c0.251,0,0.449-0.07,0.593-0.211c0.144-0.139,0.257-0.32,0.34-0.545
		c0.083-0.223,0.135-0.463,0.156-0.723c0.022-0.258,0.033-0.496,0.033-0.711v-0.951h0.712v0.93c0,0.41-0.034,0.791-0.103,1.143
		c-0.068,0.354-0.184,0.654-0.345,0.906c-0.162,0.254-0.371,0.451-0.625,0.6c-0.256,0.146-0.577,0.221-0.966,0.221
		c-0.424,0-0.806-0.084-1.144-0.254c-0.338-0.17-0.611-0.443-0.82-0.826c-0.209-0.371-0.345-0.828-0.41-1.363
		C57.327,24.521,57.294,23.768,57.294,22.795z M60.563,15.908c0.518-0.813,0.894-1.592,1.127-2.338
		c0.234-0.744,0.351-1.486,0.351-2.221c0-0.619-0.099-1.131-0.296-1.537c-0.198-0.408-0.509-0.611-0.933-0.611
		c-0.403,0-0.732,0.158-0.987,0.477c-0.256,0.316-0.458,0.73-0.604,1.24c-0.148,0.512-0.256,1.088-0.324,1.729
		c-0.068,0.641-0.11,1.293-0.124,1.955c-0.015,0.281-0.025,0.758-0.033,1.428c-0.007,0.668-0.011,1.404-0.011,2.203
		c0.324-0.34,0.644-0.705,0.96-1.096C60.006,16.742,60.297,16.334,60.563,15.908z"/>
	<path fill="#545454" d="M65.894,17.779c1.122,0,1.992,0.422,2.611,1.268c0.618,0.844,0.928,2.229,0.928,4.148
		c0,0.467,0.007,0.918,0.021,1.354s0.058,0.822,0.13,1.162c0.072,0.338,0.195,0.611,0.372,0.818
		c0.176,0.209,0.419,0.313,0.728,0.313c0.252,0,0.451-0.078,0.6-0.232c0.146-0.154,0.258-0.342,0.334-0.564
		c0.075-0.225,0.125-0.461,0.146-0.713s0.031-0.479,0.031-0.68v-0.951h0.713v0.93c0,0.41-0.029,0.791-0.086,1.143
		c-0.059,0.354-0.164,0.654-0.318,0.906c-0.155,0.254-0.365,0.451-0.631,0.6c-0.268,0.146-0.605,0.221-1.016,0.221
		c-0.619,0-1.116-0.174-1.494-0.518c-0.378-0.346-0.623-0.826-0.739-1.445h-0.226c-0.131,0.512-0.392,0.965-0.783,1.365
		C66.82,27.301,66.293,27.5,65.63,27.5c-0.591,0-1.092-0.131-1.503-0.389c-0.41-0.26-0.749-0.609-1.016-1.053
		c-0.267-0.441-0.46-0.953-0.579-1.531c-0.119-0.578-0.178-1.203-0.178-1.871c0-1.561,0.313-2.766,0.938-3.609
		C63.919,18.201,64.785,17.779,65.894,17.779z M65.899,18.438c-1.407,0-2.11,1.391-2.11,4.176c0,1.389,0.175,2.439,0.525,3.154
		c0.35,0.717,0.878,1.074,1.585,1.074c0.691,0,1.215-0.354,1.567-1.063c0.354-0.709,0.531-1.75,0.531-3.123
		c0-1.381-0.178-2.43-0.531-3.146C67.114,18.795,66.591,18.438,65.899,18.438z"/>
	<path fill="#545454" d="M75.032,19.15c0.28-0.432,0.616-0.77,1.009-1.01c0.392-0.242,0.833-0.361,1.322-0.361
		c0.928,0,1.6,0.268,2.018,0.803c0.417,0.537,0.625,1.268,0.625,2.197v2.016c0,0.498,0.008,0.971,0.021,1.42
		c0.015,0.449,0.055,0.857,0.119,1.225c0.072,0.445,0.199,0.791,0.383,1.035s0.423,0.367,0.718,0.367
		c0.251,0,0.451-0.07,0.599-0.211c0.147-0.139,0.262-0.32,0.34-0.545c0.08-0.223,0.129-0.463,0.151-0.723
		c0.021-0.258,0.032-0.496,0.032-0.711v-0.951h0.713v0.906c0,0.412-0.033,0.793-0.098,1.145c-0.064,0.354-0.175,0.658-0.33,0.918
		c-0.154,0.258-0.36,0.461-0.619,0.609c-0.26,0.146-0.586,0.221-0.982,0.221c-0.417,0-0.799-0.084-1.144-0.254
		s-0.622-0.443-0.831-0.826c-0.201-0.371-0.336-0.828-0.404-1.363s-0.103-1.289-0.103-2.262v-2.016c0-0.311-0.025-0.609-0.075-0.896
		c-0.051-0.287-0.139-0.537-0.266-0.75c-0.125-0.213-0.295-0.381-0.506-0.508c-0.213-0.125-0.488-0.188-0.826-0.188
		c-0.373,0-0.691,0.115-0.955,0.344c-0.262,0.232-0.477,0.516-0.642,0.854c-0.114,0.252-0.204,0.518-0.265,0.799
		c-0.061,0.279-0.109,0.566-0.145,0.857c-0.037,0.291-0.059,0.578-0.065,0.857c-0.007,0.281-0.011,0.533-0.011,0.756
		c0,0.424,0,0.791,0,1.1c0,0.311,0.008,0.615,0.021,0.918c0.015,0.301,0.033,0.621,0.055,0.955s0.046,0.729,0.074,1.18h-1.434
		c-0.072-0.941-0.115-1.809-0.13-2.605c-0.015-0.793-0.022-1.494-0.022-2.098v-2.461h-0.227c-0.043,0.254-0.164,0.494-0.361,0.725
		s-0.443,0.346-0.738,0.346v-0.66c0.223-0.057,0.414-0.172,0.578-0.34c0.16-0.17,0.296-0.359,0.403-0.564
		c0.108-0.207,0.192-0.414,0.253-0.623c0.062-0.211,0.092-0.395,0.092-0.555h1.436v0.93H75.032z"/>
	<path fill="#545454" d="M87.063,17.779c1.123,0,1.992,0.422,2.611,1.268c0.619,0.844,0.928,2.229,0.928,4.148
		c0,0.467,0.008,0.918,0.021,1.354c0.015,0.436,0.058,0.822,0.13,1.162c0.071,0.338,0.196,0.611,0.372,0.818
		c0.176,0.209,0.419,0.313,0.729,0.313c0.252,0,0.451-0.078,0.598-0.232c0.148-0.154,0.26-0.342,0.336-0.564
		c0.074-0.225,0.123-0.461,0.145-0.713s0.033-0.479,0.033-0.68v-0.951h0.712v0.93c0,0.41-0.028,0.791-0.086,1.143
		c-0.058,0.354-0.164,0.654-0.319,0.906c-0.154,0.254-0.364,0.451-0.631,0.6c-0.266,0.146-0.604,0.221-1.014,0.221
		c-0.619,0-1.117-0.174-1.494-0.518c-0.379-0.346-0.625-0.826-0.74-1.445h-0.227c-0.129,0.512-0.391,0.965-0.783,1.365
		c-0.393,0.398-0.921,0.598-1.584,0.598c-0.59,0-1.092-0.131-1.502-0.389c-0.411-0.26-0.75-0.609-1.017-1.053
		c-0.267-0.441-0.46-0.953-0.578-1.531c-0.119-0.578-0.179-1.203-0.179-1.871c0-1.561,0.313-2.766,0.939-3.609
		C85.088,18.201,85.955,17.779,87.063,17.779z M87.068,18.438c-1.406,0-2.109,1.391-2.109,4.176c0,1.389,0.174,2.439,0.524,3.154
		c0.351,0.717,0.878,1.074,1.585,1.074c0.691,0,1.215-0.354,1.568-1.063s0.529-1.75,0.529-3.123c0-1.381-0.176-2.43-0.529-3.146
		C88.283,18.795,87.76,18.438,87.068,18.438z"/>
</g>
</svg>
