<?xml version="1.0" encoding="utf-8"?>
<!-- Generator: Adobe Illustrator 16.0.0, SVG Export Plug-In . SVG Version: 6.00 Build 0)  -->
<!DOCTYPE svg PUBLIC "-//W3C//DTD SVG 1.1//EN" "http://www.w3.org/Graphics/SVG/1.1/DTD/svg11.dtd">
<svg version="1.1" id="图层_1" xmlns="http://www.w3.org/2000/svg" xmlns:xlink="http://www.w3.org/1999/xlink" x="0px" y="0px"
	 width="258px" height="36px" viewBox="0 0 258 36" enable-background="new 0 0 258 36" xml:space="preserve">
<g>
	<path fill="#545454" d="M16.237,24.688c-0.922-0.221-1.682-0.518-2.278-0.895c-0.156-0.469-0.273-0.934-0.351-1.402
		c-0.078-0.469-0.175-1.137-0.292-2.006v-0.059c0.026-0.156,0.111-0.271,0.253-0.352c0.494,0.301,0.967,0.523,1.422,0.672
		c0.454,0.15,0.954,0.225,1.5,0.225h0.467l0.312,0.02c0.298,0,0.603-0.045,0.915-0.137c0.169-0.064,0.286-0.188,0.352-0.369
		l-1.032-0.506c-0.792-0.377-1.506-0.779-2.142-1.207c-0.662-0.48-1.136-1.09-1.421-1.83c-0.143-0.402-0.214-0.846-0.214-1.324
		c0-1.17,0.357-2.109,1.071-2.824c0.623-0.637,1.467-1.09,2.531-1.363c0.922-0.221,1.935-0.33,3.038-0.33
		c0.648,0,1.545,0.072,2.688,0.213c0.116,0.025,0.279,0.053,0.486,0.078l0.584,0.117c0.441,0.076,0.766,0.117,0.974,0.117
		c0.013,0,0.036,0.02,0.068,0.059c0.032,0.037,0.062,0.07,0.087,0.096c0.052,0.092,0.104,0.137,0.156,0.137h0.02h0.02l0.039,0.408
		c0,0.197,0.02,0.404,0.059,0.625c0.038,0.324,0.059,0.674,0.059,1.051c0,0.324-0.021,0.559-0.059,0.701
		c-0.064,0.26-0.182,0.449-0.351,0.564l-1.812-0.232h-0.194h-0.272c-0.441,0-0.948,0.045-1.519,0.135l-0.644,0.137
		c-0.155,0.025-0.233,0.053-0.233,0.078c0,0.313,0.201,0.604,0.604,0.877c0.194,0.104,0.389,0.191,0.584,0.262
		c0.194,0.072,0.317,0.121,0.369,0.146c0.961,0.273,1.792,0.746,2.493,1.422c0.323,0.311,0.577,0.643,0.759,0.992
		s0.273,0.688,0.273,1.014c0,0.195-0.026,0.402-0.078,0.623c-0.092,0.973-0.461,1.816-1.11,2.529
		c-0.636,0.639-1.435,1.105-2.395,1.404C21.189,24.85,20.189,25,19.021,25C18.099,25,17.171,24.896,16.237,24.688z"/>
	<path fill="#545454" d="M28.037,24.785c0,0-0.033-0.232-0.098-0.701c-0.039-0.195-0.059-0.369-0.059-0.525
		c0-0.207-0.007-0.338-0.02-0.389c-0.014-0.377-0.045-0.975-0.097-1.793l-0.06-0.738c-0.077-1.143-0.117-1.986-0.117-2.531v-4.732
		c0-0.104,0.117-0.182,0.352-0.234c0.129-0.039,0.312-0.057,0.545-0.057c0.156,0,0.324,0.008,0.506,0.027s0.318,0.029,0.409,0.029
		c0.194,0.025,0.5,0.039,0.915,0.039l0.078-0.057h0.857c0.039,0.037,0.084,0.057,0.136,0.057h0.077
		c0.014-0.014,0.047-0.02,0.098-0.02c0.025-0.012,0.065-0.02,0.117-0.02c0.013-0.012,0.032-0.018,0.059-0.018
		c0.039,0,0.084,0.008,0.136,0.029c0.052,0.018,0.091,0.027,0.117,0.027h1.441l0.058,3.35c0,0.014-0.01,0.055-0.029,0.127
		s-0.035,0.164-0.048,0.281c-0.039,0.469-0.059,0.838-0.059,1.109v3.799l-0.059,0.74c-0.039,0.324-0.052,0.59-0.039,0.797
		c0,0.273-0.009,0.49-0.029,0.652c-0.02,0.164-0.062,0.289-0.126,0.381c-0.078,0.09-0.201,0.137-0.37,0.137l-0.02-0.021l-0.059-0.02
		c-0.026,0-0.038,0.008-0.038,0.02h-0.099c-0.077,0.027-0.123,0.047-0.136,0.061c-0.064,0-0.215-0.021-0.447-0.061l-0.273-0.02
		c-0.065,0-0.104,0.027-0.117,0.08h-1.46h-0.272l-0.507,0.096l-0.467,0.059l-0.448,0.039C28.153,24.785,28.037,24.785,28.037,24.785
		z"/>
	<path fill="#545454" d="M38.142,24.377c-0.83-0.416-1.486-1.039-1.967-1.869c-0.545-0.961-0.817-2.129-0.817-3.506
		c0-0.947,0.172-1.805,0.517-2.57c0.344-0.766,0.827-1.414,1.45-1.947c0.61-0.518,1.331-0.916,2.161-1.188
		c0.831-0.273,1.733-0.408,2.707-0.408c1.389,0,2.875,0.369,4.459,1.109l-0.682,2.861c-0.234-0.051-0.447-0.109-0.643-0.174
		c-0.506-0.143-0.967-0.246-1.383-0.313c-0.285-0.051-0.506-0.076-0.662-0.076c-0.676,0-1.201,0.188-1.576,0.563
		c-0.442,0.469-0.662,1.215-0.662,2.24c0,0.869,0.136,1.539,0.408,2.006c0.26,0.363,0.604,0.545,1.031,0.545
		c0.352,0,0.688-0.07,1.014-0.213c-0.014-0.131-0.026-0.283-0.039-0.459c-0.014-0.176-0.02-0.379-0.02-0.613
		c-0.053-0.467-0.104-0.799-0.156-0.992v-0.76c0-0.09,0.039-0.137,0.117-0.137h0.098c0.039,0,0.078-0.006,0.117-0.02
		c0.038-0.014,0.077-0.02,0.116-0.02c0.13-0.025,0.207-0.039,0.233-0.039c0.091,0,0.215,0.014,0.37,0.039
		c0.052,0,0.11,0.006,0.175,0.02s0.13,0.02,0.195,0.02c0.051-0.051,0.214-0.078,0.486-0.078c0.208,0,0.371-0.006,0.487-0.02
		c0.078-0.025,0.175-0.039,0.292-0.039l0.234-0.059c0.116,0.014,0.285,0.02,0.506,0.02c0.09,0.014,0.214,0.02,0.369,0.02
		c0.039,0,0.071,0.004,0.098,0.01c0.025,0.006,0.045,0.01,0.059,0.01h0.428l0.078,0.039v0.545c0.014,0.066,0.02,0.162,0.02,0.293
		v0.271v0.508v1.713v0.078c-0.013,0.039-0.02,0.09-0.02,0.156c-0.012,0.051-0.02,0.109-0.02,0.176v0.096
		c0,0.688-0.012,1.176-0.039,1.461c-0.025,0.428-0.071,0.719-0.136,0.877c-0.272,0-0.487,0.012-0.643,0.039h-0.39h-0.039h-0.175
		l-0.02-0.039l-0.077,0.039h-1.695h-0.078h-0.174h-0.195c-0.026,0.012-0.072,0.018-0.137,0.018c-0.091,0-0.155-0.129-0.194-0.389
		c-0.065-0.285-0.097-0.623-0.097-1.012c-0.131,0.57-0.487,1.012-1.072,1.322c-0.571,0.299-1.271,0.449-2.104,0.449
		C39.628,24.98,38.857,24.779,38.142,24.377z"/>
	<path fill="#545454" d="M51.558,24.592c0,0-0.032-0.014-0.098-0.039h-0.35h-0.293h-0.136l-0.739-0.176l-0.059-0.137v-0.195
		l-0.021-0.525c-0.026-0.234-0.039-0.434-0.039-0.604l-0.019-1.479c-0.014-0.145-0.02-0.34-0.02-0.586
		c0-0.596,0.02-1.176,0.058-1.732c0.026-0.363,0.04-0.947,0.04-1.752c0-0.131-0.014-0.24-0.04-0.332v-0.193l-0.02-0.117
		c0-0.299,0.02-0.592,0.06-0.877l0.02-1.031l-0.02-0.469V13.9c-0.04-0.039-0.06-0.084-0.06-0.137c0-0.195,0.156-0.338,0.468-0.428
		c0.182-0.051,0.409-0.078,0.682-0.078h2.843l1.324,0.02c0.039,0.025,0.071,0.053,0.097,0.078c0.104,0.104,0.208,0.24,0.313,0.408
		c0.117,0.195,0.214,0.402,0.291,0.623c0.092,0.26,0.267,0.715,0.526,1.363c0.208,0.533,0.383,0.955,0.525,1.266
		c0.104,0.338,0.222,0.508,0.351,0.508c0.117,0,0.208-0.086,0.273-0.254c0.025-0.027,0.064-0.111,0.117-0.254l0.311-0.719
		c0.026-0.053,0.117-0.246,0.272-0.586c0.04-0.064,0.149-0.299,0.331-0.699l0.292-0.625c0.026-0.078,0.065-0.174,0.117-0.291
		s0.11-0.229,0.175-0.332c0.131-0.207,0.234-0.342,0.313-0.408c0.025-0.053,0.064-0.078,0.116-0.078l1.324-0.02h2.823h0.234h0.175
		h0.233c0.053,0.014,0.169,0.02,0.352,0.02c0.012,0,0.038,0.084,0.077,0.254c0.039,0.66,0.059,1.193,0.059,1.596
		c0.025,0.494,0.038,1.24,0.038,2.24v0.973c0,0.584-0.051,1.422-0.155,2.512v0.586c0.013,0.166,0.02,0.4,0.02,0.699l0.02,0.818
		c0.013,0.156,0.02,0.363,0.02,0.623c0,0.234,0.007,0.389,0.02,0.467v0.195l-0.059,0.137L64,24.553h-0.155h-0.273h-0.33
		c-0.078,0.025-0.176,0.039-0.293,0.039c-0.506,0-1.025-0.023-1.558-0.068c-0.532-0.047-0.863-0.076-0.992-0.09l-0.078,0.021h-0.098
		c-0.078,0-0.116-0.123-0.116-0.371c-0.065-0.336-0.098-1.084-0.098-2.238c-0.026-0.326-0.039-0.766-0.039-1.324
		c0-0.092-0.045-0.137-0.137-0.137c-0.039,0-0.077,0.053-0.116,0.156c-0.195,0.467-0.312,0.76-0.351,0.875l-0.137,0.41l-0.156,0.311
		c-0.233,0.52-0.486,0.922-0.759,1.207c-0.169,0.17-0.344,0.254-0.526,0.254h-0.252h-0.351c-0.169,0-0.293-0.006-0.37-0.02
		c-0.143,0-0.247-0.008-0.313-0.02c-0.453-0.699-0.875-1.473-1.266-2.316c-0.051-0.156-0.1-0.285-0.146-0.391
		c-0.046-0.104-0.081-0.193-0.106-0.271l-0.137-0.195c-0.091,0-0.137,0.045-0.137,0.137v0.779c0,0.791-0.006,1.363-0.02,1.713
		c0,0.557-0.039,0.973-0.117,1.246c-0.012,0.051-0.028,0.098-0.049,0.135c-0.019,0.039-0.041,0.061-0.068,0.061h-0.097l-0.077-0.021
		c-0.117,0.014-0.438,0.043-0.965,0.09c-0.525,0.045-1.055,0.068-1.586,0.068C51.617,24.592,51.558,24.592,51.558,24.592z"/>
	<path fill="#545454" d="M66.941,24.553c0,0,0.026-0.221,0.078-0.664c0-0.154,0.032-0.33,0.098-0.523
		c0-0.092,0.006-0.166,0.02-0.227c0.012-0.057,0.019-0.105,0.019-0.145c0.299-1.414,0.63-2.811,0.993-4.186l1.324-5.18
		c0-0.027,0.02-0.061,0.059-0.098c0.039-0.039,0.078-0.072,0.117-0.098h0.136c0.156,0,0.279-0.02,0.37-0.059
		c0.078-0.014,0.215-0.02,0.409-0.02c0.312,0,0.545,0.006,0.7,0.02c0.234,0.039,0.475,0.059,0.721,0.059l1.013-0.02
		c0.104-0.025,0.228-0.039,0.37-0.039l0.856-0.039h0.644c0.246,0,0.486,0.008,0.721,0.02h0.545c0.129,0.014,0.317,0.02,0.564,0.02
		h0.74c0.038,0,0.078,0.008,0.116,0.02c0.039,0.014,0.071,0.027,0.098,0.039c0.052,0.025,0.116,0.039,0.194,0.039h0.176
		c0.09,0.064,0.137,0.129,0.137,0.195l1.382,5.141c0.429,1.648,0.766,3.043,1.013,4.186c0,0.064,0.02,0.188,0.059,0.371
		c0.051,0.26,0.077,0.465,0.077,0.621c0,0.092-0.013,0.215-0.038,0.371c-0.065,0.129-0.156,0.195-0.273,0.195h-0.214
		c-0.169,0-0.299-0.008-0.39-0.021h-0.429h-0.409h-0.33c-0.092,0-0.144-0.006-0.156-0.02h-1.07l-0.02-0.039
		c-0.027-0.025-0.065-0.039-0.117-0.039l-0.059,0.039c0,0.027-0.013,0.039-0.039,0.039h-0.059H76.95
		c-0.065-0.025-0.182-0.039-0.351-0.039c-0.312-0.025-0.572-0.039-0.779-0.039c-0.143-0.297-0.311-0.953-0.506-1.965
		c-0.272,0.039-0.584,0.059-0.936,0.059h-0.506h-0.486c-0.053,0.195-0.084,0.357-0.098,0.486c-0.013,0.064-0.064,0.285-0.155,0.662
		s-0.175,0.629-0.253,0.758l-0.117,0.039c-0.039,0.014-0.084,0.027-0.137,0.039h-0.039c-0.077,0-0.129-0.012-0.155-0.039
		c-0.052-0.025-0.085-0.039-0.097-0.039l-0.74,0.039h-0.546c-0.065,0.014-0.116,0.025-0.155,0.031s-0.065,0.008-0.078,0.008h-1.558
		h-0.156c-0.116,0.014-0.357,0.02-0.72,0.02h-0.468c-0.078,0.014-0.201,0.021-0.37,0.021h-0.233
		C67.064,24.553,66.941,24.553,66.941,24.553z M75.022,19.723c0,0-0.007-0.039-0.02-0.117l-0.155-0.934
		c-0.026-0.182-0.053-0.348-0.078-0.498c-0.026-0.148-0.046-0.289-0.059-0.418c-0.039-0.156-0.068-0.303-0.088-0.438
		c-0.02-0.137-0.042-0.264-0.067-0.381c-0.014-0.078-0.026-0.176-0.04-0.301c-0.013-0.123-0.031-0.211-0.059-0.264l-0.038-0.232
		c0-0.053-0.013-0.098-0.04-0.137l-0.02-0.117l-0.038,0.117v0.076v0.061c0,0.012-0.007,0.035-0.02,0.066
		c-0.013,0.033-0.025,0.09-0.039,0.166c-0.013,0.066-0.026,0.146-0.039,0.244s-0.032,0.203-0.058,0.32l-0.137,0.799l-0.156,0.896
		l-0.059,0.428c-0.025,0.104-0.052,0.271-0.078,0.506c-0.116,0.586-0.168,0.852-0.154,0.799h0.855
		c0.014-0.014,0.033-0.029,0.059-0.049c0.026-0.02,0.046-0.029,0.06-0.029h0.058c0.065,0,0.12,0.008,0.166,0.02
		c0.045,0.014,0.088,0.027,0.126,0.039c0.078,0.025,0.156,0.039,0.233,0.039C75.061,19.943,75.022,19.723,75.022,19.723z"/>
	<path fill="#545454" d="M90.989,23.91c0,0-0.201-0.285-0.603-0.857c-0.286-0.377-0.729-1.045-1.325-2.006l-0.331-0.525
		c-0.013-0.014-0.025-0.025-0.038-0.039h-0.098l-0.078,0.039c-0.013,0.168-0.02,0.623-0.02,1.361c0,0.482-0.026,1.047-0.077,1.695
		l-0.02,0.584c-0.053,0.143-0.085,0.215-0.098,0.215h-0.137h-0.059c-1.428,0.104-2.466,0.154-3.115,0.154H84.7h-0.37
		c-0.143,0-0.246-0.006-0.312-0.02h-0.136l-0.604-0.193l-0.039-0.137c-0.026,0-0.043-0.025-0.049-0.078
		c-0.008-0.051-0.01-0.09-0.01-0.117c-0.039-0.545-0.072-0.939-0.098-1.188c-0.052-0.701-0.084-1.213-0.098-1.539
		c-0.025-0.311-0.039-0.512-0.039-0.602l-0.098-1.072l-0.02-0.584c-0.012-0.117-0.02-0.279-0.02-0.486V18.34
		c0.027-0.064,0.039-0.168,0.039-0.311v-0.332c0.014-0.051,0.02-0.111,0.02-0.174l-0.02-0.156v-0.195
		c0-0.092-0.012-0.162-0.039-0.215v-0.115l0.02-0.488c0.014-0.09,0.02-0.227,0.02-0.408c0.026-0.389,0.039-0.76,0.039-1.111v-0.193
		c-0.013-0.039-0.02-0.123-0.02-0.254v-0.273V13.92c-0.039-0.039-0.059-0.078-0.059-0.117c0-0.182,0.163-0.311,0.488-0.389
		c0.168-0.053,0.408-0.078,0.72-0.078c3.038,0,5.31,0.104,6.815,0.311c1.479,0.209,2.518,0.566,3.115,1.072
		c0.26,0.246,0.444,0.535,0.555,0.867c0.11,0.328,0.166,0.723,0.166,1.176c0,0.729-0.208,1.34-0.623,1.832
		c-0.273,0.271-0.591,0.5-0.954,0.682c0.078,0.193,0.305,0.584,0.681,1.168c0.078,0.092,0.153,0.188,0.225,0.293
		c0.071,0.104,0.158,0.213,0.263,0.33c0.247,0.338,0.532,0.707,0.857,1.109c0.013,0.053,0.064,0.162,0.155,0.332
		c0.064,0.025,0.1,0.055,0.107,0.086c0.006,0.033-0.004,0.076-0.029,0.129c-0.104,0.154-0.41,0.383-0.916,0.682
		c-0.064,0.064-0.143,0.129-0.233,0.193c-0.26,0.207-0.616,0.422-1.07,0.643c-0.415,0.221-0.772,0.377-1.071,0.467
		c-0.117,0.066-0.188,0.078-0.215,0.039C91.275,24.188,90.989,23.91,90.989,23.91z M88.984,17.795
		c0.271-0.076,0.467-0.156,0.584-0.232c0.194-0.117,0.363-0.248,0.506-0.391c0.144-0.168,0.215-0.363,0.215-0.584
		c0-0.363-0.111-0.656-0.332-0.877c-0.194-0.154-0.435-0.232-0.72-0.232H88.4c0,0.168-0.014,0.436-0.039,0.797l-0.02,0.41
		c-0.026,0.26-0.039,0.662-0.039,1.207C88.47,17.893,88.698,17.859,88.984,17.795z"/>
	<path fill="#545454" d="M106.216,24.631c-1.246-0.326-2.194-0.93-2.843-1.813c-0.753-1.053-1.13-2.512-1.13-4.381
		c0-1.336,0.149-2.473,0.448-3.408c0.298-0.934,0.76-1.699,1.382-2.297c0.623-0.598,1.425-1.035,2.405-1.314
		c0.979-0.279,2.177-0.418,3.593-0.418c1.104,0,2.142,0.168,3.115,0.506c1.194,0.428,2.123,1.084,2.785,1.967
		c0.816,1.051,1.227,2.434,1.227,4.146c0,2-0.299,3.559-0.896,4.674c-0.597,1.025-1.46,1.752-2.59,2.18
		c-0.922,0.352-2.2,0.527-3.835,0.527C108.332,25,107.112,24.877,106.216,24.631z M110.091,22.818
		c0.195-0.414,0.331-1.07,0.408-1.967c0.078-0.816,0.117-1.59,0.117-2.316v-0.779V17.27c0-0.572-0.039-1.266-0.117-2.084
		c-0.077-0.883-0.213-1.551-0.408-2.006c-0.104-0.219-0.228-0.33-0.371-0.33c-0.285,0-0.493,0.273-0.622,0.818
		c-0.13,0.752-0.194,1.434-0.194,2.043c-0.039,0.52-0.059,1.33-0.059,2.436c0,0.738,0.02,1.35,0.059,1.828
		c0,0.611,0.064,1.318,0.194,2.123c0.129,0.676,0.337,1.014,0.622,1.014C109.877,23.111,110,23.014,110.091,22.818z"/>
	<path fill="#545454" d="M120.976,24.592h-0.313h-0.292h-0.155l-0.76-0.215l-0.039-0.117c-0.013,0-0.019-0.064-0.019-0.195
		c0-0.168-0.007-0.305-0.02-0.408l-0.021-0.74c-0.013-0.156-0.02-0.402-0.02-0.74c0-0.324-0.006-0.564-0.019-0.721v-0.584
		c-0.078-0.816-0.118-1.662-0.118-2.531v-0.156v-0.291c0-0.156,0.008-0.268,0.02-0.33v-0.156V17.27
		c-0.012-0.039-0.02-0.104-0.02-0.195v-0.215v-0.115v-0.195v-0.313c0-0.156,0.008-0.266,0.02-0.33v-0.195l0.021-0.098v-0.252
		c0.013-0.131,0.019-0.305,0.019-0.527c0-0.168-0.006-0.316-0.019-0.447l-0.021-0.447l-0.02-0.078c-0.038-0.025-0.038-0.045,0-0.059
		c0.053-0.207,0.215-0.357,0.488-0.447c0.129-0.053,0.344-0.078,0.643-0.078c0.221,0,0.798-0.02,1.732-0.059
		c0.467-0.025,0.76-0.039,0.876-0.039c0.195-0.014,0.429-0.02,0.701-0.02c0.13,0.014,0.221,0.035,0.272,0.068
		c0.053,0.033,0.101,0.088,0.146,0.166c0.045,0.078,0.081,0.137,0.107,0.174l0.389,0.566c-0.014-0.014,0.148,0.221,0.486,0.699
		c0.313,0.508,0.688,1.08,1.129,1.715c0.066,0.104,0.143,0.221,0.234,0.35c0.092,0.131,0.189,0.279,0.293,0.449v-0.682
		c0.012-0.182,0.02-0.441,0.02-0.779c0-0.441,0.012-0.934,0.039-1.48c0-0.104,0.006-0.197,0.02-0.281
		c0.012-0.084,0.02-0.152,0.02-0.205c0-0.129,0.006-0.195,0.018-0.195c0.053-0.078,0.143-0.162,0.273-0.252
		c0.156-0.104,0.318-0.15,0.486-0.137h0.975h0.193c0.195,0,0.357,0.008,0.488,0.02h0.584c0.129,0.014,0.324,0.02,0.584,0.02h0.428
		h0.195c0.26,0,0.455,0.047,0.584,0.137c0.078,0.051,0.129,0.119,0.156,0.203c0.025,0.086,0.039,0.213,0.039,0.381
		s-0.008,0.311-0.02,0.428c-0.014,0.131-0.02,0.285-0.02,0.467v0.137c0.012,0.039,0.02,0.098,0.02,0.176v0.506l-0.02,2.238v2.201
		v0.527c0,1.4-0.014,2.289-0.039,2.666l-0.059,0.643c-0.064,0.299-0.156,0.455-0.273,0.469c-0.025,0-0.061,0.006-0.105,0.018
		c-0.047,0.014-0.096,0.021-0.146,0.021c-0.469,0-0.813-0.014-1.033-0.039h-1.012h-1.014h-0.252
		c-0.039,0.012-0.092,0.018-0.156,0.018c-0.156,0-0.318-0.031-0.486-0.098c-0.104-0.025-0.215-0.096-0.33-0.213l-1.715-2.414
		c-0.064-0.092-0.188-0.242-0.369-0.449l-0.254-0.232c-0.064-0.066-0.117-0.098-0.156-0.098s-0.071,0.016-0.098,0.049
		s-0.038,0.063-0.038,0.088v0.33c-0.014,0.104-0.02,0.266-0.02,0.486v0.566c-0.014,0.143-0.02,0.338-0.02,0.584v0.467v0.291
		c-0.014,0.025-0.02,0.066-0.02,0.117c0,0.014-0.02,0.117-0.06,0.313c-0.025,0.051-0.045,0.084-0.058,0.098
		c-0.014,0.012-0.059,0.018-0.137,0.018c-0.025-0.012-0.049-0.018-0.068-0.018c-0.019,0-0.035,0-0.049,0
		c-1.025,0.09-1.875,0.137-2.551,0.137H120.976z"/>
	<path fill="#545454" d="M134.742,24.377c-0.092-0.117-0.156-0.26-0.195-0.428c-0.039-0.066-0.07-0.15-0.096-0.256
		c-0.117-0.232-0.203-0.557-0.254-0.971c-0.053-0.598-0.078-1.072-0.078-1.422c-0.014-0.156-0.02-0.371-0.02-0.643v-0.467
		c0-0.391-0.006-0.695-0.02-0.916c-0.012-0.234-0.02-0.695-0.02-1.383c0-1.842,0.039-3.264,0.117-4.264
		c0-0.156,0.221-0.273,0.662-0.352h0.584h0.486c0.74,0,1.293,0.012,1.656,0.039c0.545,0.039,1.096,0.059,1.654,0.059
		c0.131,0,0.227-0.006,0.293-0.02h0.291l0.098,0.078c0.428-0.09,0.869-0.148,1.324-0.176c0.455-0.025,1.006-0.039,1.654-0.039
		c0.027,0,0.059,0.02,0.098,0.059h0.623c0.105,0,0.186,0.059,0.244,0.176c0.059,0.115,0.107,0.285,0.146,0.506
		c0.051,0.17,0.09,0.377,0.117,0.623c0.051,0.324,0.098,0.539,0.135,0.643c0,0.363-0.064,0.545-0.193,0.545
		c-0.014,0-0.033-0.02-0.059-0.059l-0.078-0.02c-0.064-0.012-0.137-0.006-0.215,0.02c-0.078,0.039-0.162,0.059-0.254,0.059
		c-0.076,0-0.143-0.02-0.193-0.059c-0.027-0.012-0.084-0.02-0.176-0.02c-0.117,0-0.252,0.02-0.408,0.059
		c-0.053,0.014-0.152,0.033-0.303,0.059c-0.148,0.025-0.32,0.039-0.516,0.039c-0.559,0-0.961,0.014-1.207,0.039
		c-0.143,0.014-0.279,0.053-0.408,0.117v-0.039c-0.053,0-0.098,0.064-0.137,0.195c-0.092,0.219-0.15,0.525-0.176,0.914
		c-0.014,0.117-0.02,0.246-0.02,0.389c0,0.145,0.023,0.242,0.068,0.293c0.045,0.053,0.119,0.078,0.223,0.078
		c0.078,0,0.145-0.025,0.195-0.078c0.025,0,0.059,0.006,0.098,0.02s0.07,0.033,0.098,0.059h1.654
		c0.014-0.025,0.033-0.045,0.059-0.059c0.027-0.014,0.053-0.02,0.078-0.02c0.129,0,0.227,0.02,0.293,0.059
		c0.078,0.039,0.232,0.078,0.467,0.117c0.129,0,0.221,0.039,0.271,0.115c0.066,0.092,0.098,0.178,0.098,0.254l0.41,1.285
		c0.039,0.209-0.156,0.346-0.584,0.41c-0.248,0.051-0.721,0.076-1.422,0.076h-0.838h-0.584c-0.182,0-0.318,0.01-0.408,0.029
		c-0.092,0.02-0.15,0.068-0.176,0.146c-0.053,0.066-0.078,0.17-0.078,0.313v0.078c0,0.064,0.008,0.109,0.02,0.137l-0.02,0.428
		c-0.014,0.09-0.02,0.227-0.02,0.408v0.195v0.176v0.115c0.584,0,1.182-0.02,1.791-0.059c0.598-0.039,1.189-0.057,1.773-0.057
		c0.037,0,0.07,0.029,0.096,0.086c0.027,0.059,0.039,0.127,0.039,0.205c0.025,0.078,0.039,0.162,0.039,0.254
		c0.027,0.195,0.064,0.375,0.117,0.545l0.137,0.564v0.389v0.059v0.156l-0.156,0.137h-0.137h-0.059c-0.143,0-0.232-0.008-0.271-0.02
		c-0.039-0.025-0.084-0.039-0.137-0.039c-0.025,0.014-0.064,0.031-0.117,0.059c-0.051,0.025-0.096,0.051-0.135,0.078v-0.098
		l-0.234,0.02h-0.293c-0.051,0-0.09-0.014-0.115-0.039l-0.156-0.02c-0.48,0-0.818,0.045-1.014,0.137h-6.172
		C134.775,24.455,134.756,24.428,134.742,24.377z"/>
</g>
</svg>
