<?xml version="1.0" encoding="utf-8"?>
<!-- Generator: Adobe Illustrator 16.0.0, SVG Export Plug-In . SVG Version: 6.00 Build 0)  -->
<!DOCTYPE svg PUBLIC "-//W3C//DTD SVG 1.1//EN" "http://www.w3.org/Graphics/SVG/1.1/DTD/svg11.dtd">
<svg version="1.1" id="图层_1" xmlns="http://www.w3.org/2000/svg" xmlns:xlink="http://www.w3.org/1999/xlink" x="0px" y="0px"
	 width="258px" height="36px" viewBox="0 0 258 36" enable-background="new 0 0 258 36" xml:space="preserve">
<g>
	<path fill="#545454" d="M21.042,12.628c0,0.367-0.166,0.48-0.5,0.344c-0.242-0.098-0.438-0.252-0.588-0.461
		c-0.217-0.287-0.487-0.604-0.814-0.951c-1.117-0.131-2.014,0.037-2.687,0.5c-0.634,0.451-0.951,1.127-0.951,2.029
		c0,0.732,0.389,1.494,1.167,2.285c0.477,0.484,0.902,0.861,1.274,1.133s0.698,0.514,0.976,0.727
		c0.277,0.211,0.549,0.443,0.814,0.691c0.264,0.248,0.498,0.521,0.701,0.822c0.457,0.654,0.686,1.373,0.686,2.158
		c0,1.516-0.846,2.607-2.539,3.275c-0.961,0.371-1.971,0.559-3.03,0.559c-0.359,0-0.843,0.35-1.451,1.049
		c-0.281,0.32-0.474,0.277-0.579-0.127l0.01-1.002c0-0.678-0.035-1.193-0.107-1.543s-0.107-0.553-0.107-0.613
		c0-0.229,0.088-0.344,0.265-0.344c0.117,0,0.238,0.063,0.362,0.188c0.125,0.123,0.262,0.271,0.412,0.441
		c0.425,0.477,0.814,0.791,1.167,0.941c0.078,0.006,0.153,0.01,0.226,0.01h0.226c1.438,0,2.517-0.311,3.235-0.932
		c0.621-0.543,0.932-1.26,0.932-2.148c0-0.811-0.555-1.666-1.667-2.568l-1.882-1.539c-1.334-1.08-2.001-2.232-2.001-3.463
		c0-1.195,0.401-2.08,1.206-2.656c0.674-0.49,1.602-0.734,2.785-0.734l0.49,0.008c0.255,0,0.604-0.186,1.049-0.559
		c0.164-0.137,0.318-0.264,0.466-0.383c0.147-0.117,0.283-0.176,0.407-0.176c0.262,0,0.356,0.18,0.284,0.539
		c-0.189,0.713-0.284,1.25-0.284,1.607L21.042,12.628z"/>
	<path fill="#545454" d="M27.917,25.778c0,0.184-0.102,0.273-0.304,0.273l-0.51-0.049l-1.766-0.068
		c-0.359-0.02-0.379-0.248-0.059-0.686l0.607-0.893c0.111-0.15,0.177-0.285,0.196-0.406s0.04-0.309,0.06-0.564
		c0.02-0.254,0.039-0.574,0.059-0.957c0.02-0.381,0.041-0.811,0.063-1.289c0.022-0.477,0.048-0.971,0.073-1.48
		c0.026-0.51,0.049-1.021,0.068-1.533c0.02-0.514,0.036-0.994,0.049-1.438c0.04-0.98,0.06-1.715,0.06-2.207
		c-0.046-0.195-0.177-0.432-0.392-0.711c-0.217-0.277-0.37-0.473-0.461-0.588c-0.092-0.113-0.138-0.201-0.138-0.26
		c0-0.145,0.101-0.215,0.304-0.215s0.417-0.002,0.643-0.006s0.449-0.008,0.672-0.014l1.284-0.119c0.372,0,0.411,0.229,0.118,0.688
		l-0.951,1.078c-0.099,0.125-0.15,0.215-0.157,0.27s-0.015,0.176-0.024,0.363c-0.01,0.186-0.021,0.406-0.035,0.662
		c-0.025,0.326-0.049,0.836-0.068,1.529c0.347-0.844,0.827-1.615,1.441-2.314c0.778-0.875,1.611-1.314,2.501-1.314
		c1.288,0,2.265,0.926,2.932,2.775c0.202,0.557,0.374,1.219,0.515,1.99s0.256,1.418,0.344,1.938s0.158,0.939,0.211,1.26
		c0.098,0.576,0.156,0.902,0.176,0.98s0.07,0.176,0.152,0.295c0.082,0.117,0.175,0.23,0.279,0.342
		c0.223,0.236,0.436,0.4,0.638,0.496C36.699,23.7,36.8,23.821,36.8,23.97c0,0.146-0.061,0.242-0.182,0.289
		c-0.121,0.045-0.285,0.084-0.495,0.117c-0.667,0.092-1.114,0.193-1.343,0.303c-0.281,0.139-0.484,0.207-0.608,0.207
		c-0.32,0-0.421-0.16-0.304-0.48l0.195-0.422c0.275-0.654,0.412-1.059,0.412-1.215c0-0.158-0.012-0.342-0.033-0.555
		c-0.023-0.213-0.051-0.455-0.084-0.73c-0.078-0.635-0.155-1.123-0.23-1.467c-0.075-0.342-0.143-0.697-0.201-1.064
		c-0.059-0.365-0.131-0.75-0.216-1.156c-0.085-0.404-0.192-0.805-0.323-1.201c-0.131-0.395-0.298-0.754-0.5-1.072
		c-0.438-0.713-1.017-1.07-1.736-1.07c-1.104,0-2.075,0.883-2.912,2.648c-0.614,1.287-0.951,2.373-1.01,3.256
		c-0.137,2.059-0.206,3.184-0.206,3.373s0.032,0.359,0.099,0.51c0.064,0.15,0.141,0.305,0.225,0.461l0.52,0.863
		C27.9,25.634,27.917,25.706,27.917,25.778z"/>
	<path fill="#545454" d="M44.724,24.376c-0.373,0.105-0.707,0.172-1.001,0.201s-0.51,0.045-0.647,0.045
		c-0.137,0-0.35-0.021-0.637-0.061c-0.288-0.039-0.602-0.115-0.941-0.23c-0.34-0.113-0.687-0.279-1.039-0.5
		c-0.354-0.219-0.674-0.508-0.961-0.867c-0.654-0.805-0.981-1.855-0.981-3.158c0-1.242,0.412-2.344,1.235-3.303
		c0.752-0.891,1.582-1.41,2.491-1.561c0.575-0.176,1.251-0.205,2.03-0.088c0.744,0.119,1.435,0.408,2.068,0.873
		c0.726,0.521,1.242,1.314,1.549,2.373c0.157,0.555,0.236,1.195,0.236,1.922c0,0.725-0.108,1.338-0.324,1.838
		c-0.215,0.5-0.49,0.918-0.823,1.256c-0.333,0.336-0.7,0.604-1.099,0.803C45.482,24.12,45.096,24.271,44.724,24.376z M41.752,23.421
		c0.269,0.107,0.522,0.182,0.765,0.225s0.428,0.064,0.559,0.064s0.316-0.014,0.555-0.039c0.238-0.027,0.506-0.082,0.804-0.168
		c0.298-0.084,0.608-0.207,0.932-0.367s0.619-0.379,0.888-0.652c0.614-0.627,0.922-1.451,0.922-2.471
		c0-2.086-0.749-3.422-2.246-4.012c-1.144-0.443-2.314-0.35-3.51,0.285c-0.164,0.084-0.309,0.156-0.432,0.217
		c-0.465,0.318-0.838,0.822-1.118,1.508c-0.241,0.59-0.362,1.174-0.362,1.752s0.066,1.068,0.2,1.471s0.308,0.746,0.521,1.035
		c0.212,0.287,0.452,0.523,0.721,0.709C41.216,23.165,41.484,23.312,41.752,23.421z"/>
	<path fill="#545454" d="M64.57,10.786c0.484-0.139,0.727-0.076,0.727,0.186c0,0.156-0.242,0.664-0.727,1.52
		c-0.17,0.295-0.254,0.5-0.254,0.617s0.006,0.277,0.02,0.477c0.013,0.199,0.027,0.449,0.044,0.75s0.036,0.641,0.059,1.02
		s0.04,0.771,0.054,1.178c0.072,1.732,0.078,2.916,0.02,3.555c-0.059,0.637-0.137,1.203-0.235,1.701
		c-0.098,0.496-0.228,0.979-0.387,1.445c-0.161,0.467-0.353,0.881-0.574,1.24c-0.497,0.791-1.104,1.186-1.823,1.186
		c-0.844,0-1.497-0.467-1.961-1.4c-0.32-0.66-0.545-1.242-0.672-1.746c-0.128-0.502-0.226-0.902-0.295-1.195
		c-0.068-0.295-0.132-0.563-0.191-0.805l-0.186-0.893L58,20.649c-0.359,1.811-0.741,3.092-1.147,3.844
		c-0.333,0.609-0.607,1.008-0.824,1.197c-0.359,0.32-0.699,0.48-1.02,0.48c-0.621,0-1.078-0.297-1.373-0.893
		c-0.385-0.752-0.797-2.301-1.234-4.648c-0.713-3.385-1.082-5.242-1.108-5.57c-0.046-0.307-0.461-0.639-1.245-1
		c-0.308-0.137-0.488-0.24-0.545-0.309c-0.055-0.068-0.083-0.143-0.083-0.221c0-0.209,0.241-0.344,0.726-0.4
		c0.607-0.08,1.061-0.186,1.357-0.32c0.298-0.133,0.516-0.232,0.652-0.299c0.693-0.326,1.04-0.32,1.04,0.02
		c0,0.145-0.065,0.332-0.196,0.564s-0.244,0.441-0.338,0.627c-0.096,0.188-0.172,0.352-0.23,0.496
		c-0.105,0.268-0.157,0.533-0.157,0.795c0,0.26,0.036,0.613,0.108,1.059c0.071,0.443,0.166,0.914,0.283,1.412
		c0.02,0.104,0.275,1.146,0.766,3.127l0.383,1.951c0.372,1.771,0.783,2.658,1.234,2.658c0.295,0,0.671-0.479,1.129-1.432
		c0.385-0.824,0.623-1.473,0.715-1.947s0.174-0.873,0.246-1.195c0.071-0.324,0.141-0.666,0.205-1.025
		c0.288-1.582,0.33-2.879,0.128-3.893c-0.065-0.334-0.347-0.693-0.844-1.078c-0.104-0.086-0.201-0.148-0.289-0.191
		c-0.089-0.043-0.18-0.113-0.274-0.211c-0.096-0.098-0.143-0.193-0.143-0.285c0-0.184,0.189-0.273,0.568-0.273
		c0.38,0,0.725-0.014,1.035-0.039c0.311-0.027,0.587-0.057,0.828-0.088c0.628-0.086,1.007-0.129,1.138-0.129
		c0.301,0,0.269,0.262-0.098,0.785c-0.171,0.248-0.339,0.463-0.505,0.646c-0.167,0.184-0.268,0.297-0.305,0.338
		c-0.035,0.043-0.061,0.094-0.073,0.152s-0.02,0.141-0.02,0.246v0.449c0,0.662,0.065,1.197,0.196,1.609
		c0.255,1.516,0.441,2.533,0.559,3.049c0.295,1.242,0.657,2.266,1.089,3.07c0.183,0.359,0.457,0.617,0.823,0.773
		c0.556,0.223,1.017-0.021,1.383-0.734c0.373-0.752,0.611-1.328,0.716-1.727c0.503-1.889,0.595-4.314,0.274-7.275
		c-0.098-0.896-0.173-1.406-0.226-1.529c-0.052-0.125-0.128-0.225-0.226-0.299c-0.098-0.076-0.209-0.146-0.333-0.211
		c-0.124-0.066-0.252-0.129-0.383-0.191s-0.251-0.125-0.362-0.191c-0.406-0.268-0.49-0.5-0.256-0.697
		c0.079-0.064,0.229-0.117,0.447-0.156s0.426-0.082,0.622-0.133c0.196-0.049,0.376-0.1,0.54-0.15L64.57,10.786z"/>
	<path fill="#545454" d="M67.826,26.142c-0.347,0-0.52-0.129-0.52-0.383c0.006-0.131,0.09-0.299,0.25-0.506
		c0.16-0.205,0.287-0.373,0.383-0.5c0.095-0.127,0.182-0.246,0.26-0.357c0.163-0.229,0.252-0.381,0.265-0.457
		c0.013-0.074,0.02-0.23,0.02-0.469c0-0.24-0.002-0.561-0.005-0.967c-0.004-0.406-0.007-0.877-0.01-1.416
		c-0.004-0.541-0.007-1.113-0.01-1.717c-0.004-0.605-0.007-1.225-0.01-1.863c-0.004-0.637-0.007-1.262-0.01-1.873
		c-0.004-0.611-0.009-1.189-0.016-1.736c-0.006-0.545-0.013-1.027-0.02-1.445c-0.013-0.914-0.031-1.434-0.054-1.555
		s-0.13-0.281-0.323-0.484s-0.387-0.402-0.584-0.6c-0.195-0.195-0.293-0.365-0.293-0.51c0-0.201,0.127-0.303,0.382-0.303
		l0.941,0.107c0.372,0,0.68-0.018,0.922-0.049c0.241-0.033,0.438-0.049,0.588-0.049c0.333,0,0.501,0.111,0.501,0.332
		c0,0.145-0.092,0.291-0.275,0.438c-0.183,0.146-0.332,0.273-0.446,0.383c-0.114,0.107-0.204,0.203-0.27,0.289
		c-0.118,0.15-0.177,0.301-0.177,0.451l0.059,5.383v1.834c0.497-0.668,1.178-1.098,2.04-1.295c0.759-0.17,1.523-0.107,2.295,0.188
		c0.993,0.379,1.653,1.107,1.98,2.186c0.124,0.406,0.187,0.869,0.187,1.387c0,0.521-0.065,0.959-0.196,1.314
		c-0.131,0.357-0.302,0.662-0.515,0.918c-0.213,0.254-0.453,0.461-0.721,0.617s-0.539,0.281-0.814,0.373
		c-1.229,0.412-2.386,0.293-3.471-0.354c-0.274-0.156-0.523-0.365-0.745-0.627c0.026,0.654,0.077,1.082,0.151,1.285
		c0.076,0.201,0.166,0.371,0.27,0.51c0.105,0.137,0.217,0.277,0.334,0.42c0.471,0.59,0.376,0.883-0.284,0.883H69.64
		c-0.746,0-1.207,0.037-1.383,0.109C68.081,26.104,67.937,26.142,67.826,26.142z M70.205,18.493
		c-0.232,0.268-0.411,0.574-0.535,0.922c-0.124,0.346-0.187,0.699-0.187,1.063s0.046,0.682,0.138,0.957
		c0.092,0.273,0.212,0.512,0.362,0.711c0.151,0.199,0.322,0.363,0.515,0.494c0.193,0.131,0.391,0.236,0.594,0.314
		c0.706,0.273,1.441,0.291,2.206,0.049c1.085-0.334,1.628-1.121,1.628-2.363c0-1.471-0.556-2.418-1.667-2.844
		c-0.347-0.131-0.722-0.195-1.128-0.195c-0.405,0-0.77,0.08-1.094,0.244C70.714,18.009,70.436,18.226,70.205,18.493z"/>
	<path fill="#545454" d="M86.232,23.298l0.01-0.227l-0.266-4.461l-0.49,1.393c-0.444,1.234-0.76,2.027-0.945,2.377
		c-0.188,0.35-0.365,0.645-0.535,0.883c-0.17,0.24-0.363,0.453-0.578,0.643c-0.49,0.418-1.017,0.627-1.579,0.627
		c-1.681,0-2.521-1.574-2.521-4.727l0.118-4.785c0-0.229-0.085-0.432-0.255-0.607s-0.311-0.324-0.422-0.441
		c-0.203-0.201-0.304-0.371-0.304-0.51c0-0.215,0.183-0.324,0.549-0.324l0.638,0.031c0.496,0,0.896-0.039,1.196-0.119
		c0.3-0.078,0.483-0.117,0.549-0.117c0.163,0,0.245,0.064,0.245,0.197c0,0.229-0.206,0.539-0.617,0.93
		c-0.157,0.145-0.305,0.289-0.441,0.432c-0.138,0.145-0.213,0.27-0.227,0.379c-0.013,0.107-0.027,0.314-0.044,0.621
		c-0.017,0.309-0.034,0.674-0.054,1.1c-0.078,2.098-0.09,3.439-0.033,4.025c0.055,0.584,0.117,1.025,0.186,1.322
		c0.068,0.299,0.162,0.563,0.279,0.791c0.274,0.521,0.66,0.783,1.157,0.783c1.104,0,2.134-1.451,3.089-4.354
		c0.837-2.549,1.065-4.131,0.687-4.746c-0.085-0.131-0.242-0.271-0.471-0.422c-0.327-0.215-0.49-0.408-0.49-0.578
		c0-0.256,0.183-0.383,0.549-0.383l0.48,0.01c0.478,0,0.843-0.025,1.099-0.078c0.281-0.066,0.441-0.098,0.48-0.098
		c0.202,0,0.304,0.092,0.304,0.273c0,0.184-0.106,0.4-0.319,0.648c-0.212,0.248-0.369,0.451-0.471,0.607
		c-0.101,0.156-0.153,0.305-0.156,0.441c-0.004,0.139,0.002,0.336,0.015,0.598s0.029,0.582,0.049,0.961
		c0.021,0.381,0.043,0.799,0.069,1.262c0.025,0.459,0.054,0.928,0.082,1.406c0.03,0.477,0.061,0.945,0.094,1.406
		s0.063,0.881,0.088,1.26c0.072,0.871,0.121,1.369,0.147,1.496s0.058,0.24,0.094,0.34c0.036,0.096,0.079,0.186,0.132,0.264
		l0.608,0.717c0.117,0.234,0.059,0.389-0.177,0.459c-0.177,0.047-0.492,0.068-0.946,0.068s-0.763,0.023-0.927,0.07
		c-0.457,0.143-0.687,0.078-0.687-0.197c0-0.156,0.034-0.275,0.103-0.357c0.069-0.082,0.146-0.176,0.23-0.279
		c0.086-0.105,0.174-0.219,0.266-0.344C86.097,23.649,86.218,23.429,86.232,23.298z"/>
	<path fill="#545454" d="M94.664,24.905l-1.686-0.098c-0.367,0-0.592,0.01-0.677,0.029c-0.373,0.078-0.56,0-0.56-0.236
		c0-0.137,0.109-0.313,0.328-0.527c0.22-0.217,0.414-0.424,0.584-0.625c0.17-0.199,0.266-0.359,0.285-0.484
		c0.025-0.137,0.055-1.111,0.088-2.922c0.059-3.342,0.072-5.137,0.039-5.389s-0.075-0.434-0.127-0.543
		c-0.066-0.145-0.201-0.287-0.407-0.428s-0.36-0.248-0.462-0.322c-0.101-0.076-0.151-0.152-0.151-0.227
		c0-0.076,0.007-0.133,0.02-0.172c0.014-0.039,0.04-0.078,0.079-0.117c0.092-0.092,0.222-0.137,0.392-0.137l0.774,0.078
		c0.373,0,0.659-0.031,0.858-0.094s0.349-0.094,0.446-0.094s0.194,0.029,0.289,0.09c0.095,0.059,0.143,0.139,0.143,0.24
		s-0.045,0.195-0.133,0.283s-0.188,0.186-0.299,0.289c-0.32,0.301-0.51,0.553-0.568,0.756l-0.049,2.127
		c0.418-1.072,0.99-1.869,1.715-2.393c0.543-0.385,1.096-0.588,1.658-0.607c0.156,0,0.588-0.293,1.294-0.883h0.01
		c0.052-0.039,0.108-0.082,0.167-0.133c0.059-0.049,0.131-0.072,0.215-0.072c0.197,0,0.295,0.133,0.295,0.402l-0.049,1.381
		l0.029,0.619c0,0.111-0.029,0.213-0.088,0.303c-0.131,0.209-0.334,0.207-0.608-0.01v0.01c-0.249-0.268-0.517-0.459-0.804-0.578
		c-0.288-0.117-0.514-0.176-0.678-0.176c-0.162,0-0.369,0.068-0.617,0.205s-0.482,0.318-0.701,0.545
		c-0.219,0.225-0.423,0.484-0.613,0.775c-0.189,0.289-0.355,0.592-0.5,0.906c-0.301,0.654-0.469,1.213-0.505,1.676
		c-0.036,0.465-0.065,0.879-0.088,1.242c-0.022,0.361-0.044,0.723-0.063,1.082c-0.078,1.498-0.085,2.314-0.02,2.453
		c0.064,0.135,0.137,0.26,0.215,0.371l0.717,0.971C95.013,24.761,94.953,24.905,94.664,24.905z"/>
	<path fill="#545454" d="M106.51,14.669c0,0.195-0.055,0.293-0.162,0.293s-0.219-0.045-0.332-0.137
		c-0.115-0.092-0.229-0.193-0.34-0.305c-0.307-0.293-0.514-0.445-0.617-0.455s-0.232-0.006-0.383,0.01s-0.311,0.047-0.48,0.092
		c-0.17,0.047-0.344,0.109-0.52,0.188s-0.334,0.184-0.471,0.314c-0.326,0.287-0.49,0.654-0.49,1.098c0,0.51,0.445,1.098,1.334,1.766
		c0.693,0.521,1.186,0.918,1.48,1.186s0.539,0.533,0.736,0.795c0.438,0.596,0.656,1.229,0.656,1.902
		c0,1.273-0.713,2.209-2.139,2.805c-0.457,0.195-0.811,0.293-1.059,0.293s-0.462,0.066-0.642,0.197s-0.345,0.271-0.495,0.426
		s-0.283,0.295-0.396,0.428c-0.115,0.131-0.203,0.195-0.266,0.195s-0.113-0.018-0.152-0.049c-0.039-0.033-0.072-0.072-0.098-0.117
		c-0.053-0.105-0.078-0.201-0.078-0.285l-0.049-1.736c0-0.797,0.133-1.09,0.401-0.883c0.065,0.047,0.151,0.139,0.261,0.275
		c0.107,0.137,0.195,0.242,0.264,0.314c0.069,0.07,0.152,0.131,0.25,0.176c0.398,0.189,0.932,0.188,1.598-0.01
		c0.779-0.229,1.309-0.645,1.59-1.246c0.443-0.947,0.033-1.961-1.236-3.039l-1.5-1.166c-0.915-0.727-1.373-1.469-1.373-2.227
		c0-1.137,0.628-1.916,1.883-2.334c0.398-0.137,0.766-0.207,1.098-0.207c0.08,0,0.252-0.123,0.516-0.371
		c0.266-0.248,0.445-0.416,0.545-0.5c0.234-0.203,0.375-0.305,0.422-0.305c0.117,0,0.176,0.207,0.176,0.617l-0.01,0.805
		L106.51,14.669z"/>
	<path fill="#545454" d="M111.59,21.866l0.01-0.305c0.031-0.771,0.082-1.537,0.15-2.299c0.07-0.762,0.133-1.551,0.191-2.367
		c-0.371-0.008-0.631-0.012-0.773-0.012h-0.275c-0.254,0-0.455,0.059-0.602,0.172c-0.148,0.115-0.271,0.229-0.369,0.338
		c-0.326,0.354-0.574,0.529-0.744,0.529c-0.211,0-0.314-0.107-0.314-0.322c0-0.139,0.047-0.391,0.143-0.76
		c0.094-0.369,0.143-0.711,0.143-1.025l-0.061-0.656c0-0.236,0.076-0.354,0.227-0.354c0.092,0,0.262,0.143,0.51,0.426
		c0.248,0.285,0.438,0.49,0.568,0.619c0.131,0.127,0.246,0.191,0.344,0.191c0.404,0,0.824,0.012,1.256,0.039
		c0.109-1.445,0.166-2.361,0.166-2.746c0-0.164-0.248-0.51-0.746-1.039c-0.162-0.164-0.244-0.314-0.244-0.451
		c0-0.236,0.186-0.354,0.559-0.354c0.098,0,0.23,0.02,0.396,0.059c0.168,0.039,0.365,0.059,0.594,0.059l1.207-0.088
		c0.287,0,0.43,0.111,0.43,0.334c0,0.137-0.061,0.271-0.18,0.402c-0.121,0.129-0.201,0.205-0.24,0.225
		c-0.158,0.078-0.313,0.232-0.467,0.461s-0.242,0.377-0.266,0.445c-0.021,0.07-0.043,0.191-0.063,0.363
		c-0.02,0.174-0.043,0.381-0.068,0.623l-0.139,1.756c1.975,0.092,3.109,0.121,3.404,0.094c0.293-0.031,0.527-0.111,0.701-0.242
		c0.172-0.129,0.307-0.238,0.4-0.322c0.096-0.086,0.17-0.156,0.221-0.211c0.053-0.057,0.111-0.105,0.178-0.152
		c0.143-0.117,0.273-0.176,0.393-0.176c0.221,0,0.332,0.211,0.332,0.637l-0.068,1.166c0,0.164,0.02,0.322,0.059,0.471
		c0.145,0.529,0.039,0.795-0.313,0.795c-0.131,0-0.266-0.053-0.402-0.156c-0.139-0.105-0.289-0.219-0.451-0.344
		c-0.484-0.379-0.795-0.576-0.932-0.588l-3.58-0.166l-0.195,2.666c-0.145,1.432-0.168,2.389-0.074,2.873
		c0.096,0.484,0.225,0.855,0.389,1.117c0.365,0.596,0.947,0.893,1.744,0.893c0.596,0,1.223-0.215,1.883-0.646
		c0.15-0.1,0.262-0.182,0.334-0.25s0.154-0.211,0.25-0.428c0.096-0.215,0.158-0.498,0.191-0.852s0.15-0.531,0.354-0.531
		c0.15,0,0.268,0.076,0.352,0.227l0.471,0.951c0.164,0.301,0.338,0.531,0.525,0.691c0.186,0.16,0.307,0.268,0.363,0.318
		c0.055,0.053,0.082,0.117,0.082,0.197c0,0.215-0.182,0.322-0.549,0.322l-1.049-0.068c-0.438,0-0.814,0.088-1.127,0.264
		c-1.4,0.785-2.604,0.926-3.609,0.424C112.129,24.56,111.59,23.481,111.59,21.866z"/>
	<path fill="#545454" d="M138.187,25.581c-0.729,0.367-1.426,0.549-2.094,0.549c-0.666,0-1.248-0.064-1.744-0.195
		c-0.498-0.131-0.971-0.332-1.422-0.607c-0.451-0.273-0.872-0.627-1.263-1.059c-0.389-0.432-0.727-0.951-1.014-1.559
		c-0.607-1.309-0.912-2.895-0.912-4.756c0-2.27,0.574-4.117,1.727-5.541c1.144-1.42,2.622-2.129,4.433-2.129
		c1.719,0,3.096,0.533,4.129,1.6c1.201,1.254,1.803,3.207,1.803,5.854c0,2.615-0.582,4.689-1.744,6.227
		C139.548,24.677,138.915,25.216,138.187,25.581z M135.79,25.188c0.404,0.008,0.793-0.037,1.166-0.131
		c0.373-0.096,0.742-0.254,1.107-0.475c0.367-0.223,0.715-0.518,1.045-0.885c0.33-0.365,0.623-0.826,0.877-1.381
		c0.551-1.209,0.824-2.73,0.824-4.561c0-3.621-1.156-5.742-3.471-6.363c-0.576-0.15-1.031-0.225-1.367-0.225
		c-0.338,0-0.693,0.039-1.07,0.121c-0.375,0.082-0.754,0.217-1.137,0.406c-0.383,0.191-0.756,0.443-1.123,0.762
		c-0.366,0.316-0.69,0.713-0.972,1.191c-0.627,1.051-0.941,2.355-0.941,3.912c0,3.504,0.893,5.818,2.679,6.941
		C134.106,24.948,134.901,25.177,135.79,25.188z"/>
	<path fill="#545454" d="M147.575,25.778c0,0.184-0.102,0.273-0.303,0.273l-0.51-0.049l-1.766-0.068
		c-0.359-0.02-0.379-0.248-0.059-0.686l0.607-0.893c0.111-0.15,0.176-0.285,0.197-0.406c0.02-0.121,0.039-0.309,0.059-0.564
		c0.02-0.254,0.039-0.574,0.059-0.957c0.02-0.381,0.041-0.811,0.064-1.289c0.021-0.477,0.047-0.971,0.072-1.48
		s0.049-1.021,0.068-1.533c0.02-0.514,0.037-0.994,0.049-1.438c0.039-0.98,0.059-1.715,0.059-2.207
		c-0.045-0.195-0.176-0.432-0.391-0.711c-0.217-0.277-0.369-0.473-0.461-0.588c-0.092-0.113-0.139-0.201-0.139-0.26
		c0-0.145,0.102-0.215,0.305-0.215s0.416-0.002,0.643-0.006c0.225-0.004,0.449-0.008,0.672-0.014l1.283-0.119
		c0.373,0,0.412,0.229,0.119,0.688l-0.951,1.078c-0.1,0.125-0.15,0.215-0.158,0.27c-0.006,0.055-0.014,0.176-0.023,0.363
		c-0.01,0.186-0.021,0.406-0.035,0.662c-0.025,0.326-0.049,0.836-0.068,1.529c0.348-0.844,0.828-1.615,1.441-2.314
		c0.777-0.875,1.611-1.314,2.5-1.314c1.289,0,2.266,0.926,2.934,2.775c0.201,0.557,0.373,1.219,0.514,1.99s0.256,1.418,0.344,1.938
		s0.158,0.939,0.211,1.26c0.098,0.576,0.156,0.902,0.176,0.98s0.07,0.176,0.152,0.295c0.082,0.117,0.176,0.23,0.279,0.342
		c0.223,0.236,0.436,0.4,0.637,0.496c0.203,0.094,0.305,0.215,0.305,0.363c0,0.146-0.061,0.242-0.182,0.289
		c-0.121,0.045-0.285,0.084-0.494,0.117c-0.668,0.092-1.115,0.193-1.344,0.303c-0.281,0.139-0.484,0.207-0.609,0.207
		c-0.318,0-0.42-0.16-0.303-0.48l0.195-0.422c0.275-0.654,0.412-1.059,0.412-1.215c0-0.158-0.012-0.342-0.033-0.555
		c-0.023-0.213-0.051-0.455-0.084-0.73c-0.078-0.635-0.156-1.123-0.23-1.467c-0.076-0.342-0.143-0.697-0.201-1.064
		c-0.059-0.365-0.131-0.75-0.215-1.156c-0.086-0.404-0.193-0.805-0.324-1.201c-0.131-0.395-0.299-0.754-0.5-1.072
		c-0.438-0.713-1.018-1.07-1.736-1.07c-1.104,0-2.074,0.883-2.912,2.648c-0.613,1.287-0.951,2.373-1.01,3.256
		c-0.137,2.059-0.205,3.184-0.205,3.373s0.031,0.359,0.098,0.51c0.064,0.15,0.141,0.305,0.225,0.461l0.52,0.863
		C147.56,25.634,147.575,25.706,147.575,25.778z"/>
	<path fill="#545454" d="M169.521,24.091c0,0.367-0.191,0.488-0.578,0.363c-0.627-0.189-1.006-0.264-1.137-0.221
		s-0.309,0.115-0.535,0.217c-0.225,0.102-0.492,0.203-0.799,0.309c-1.066,0.365-2.252,0.471-3.559,0.313
		c-0.941-0.111-1.814-0.4-2.619-0.871c-0.916-0.529-1.566-1.33-1.951-2.402c-0.203-0.563-0.305-1.219-0.305-1.967
		s0.1-1.416,0.301-2.006c0.197-0.588,0.465-1.113,0.799-1.578c0.332-0.465,0.717-0.863,1.15-1.195
		c0.436-0.334,0.889-0.611,1.359-0.834c1.334-0.635,2.771-0.797,4.314-0.49c1.137,0.234,1.965,0.754,2.48,1.559
		c0.268,0.418,0.402,0.891,0.402,1.416c0,0.527-0.055,0.953-0.166,1.281c-0.111,0.326-0.26,0.611-0.441,0.852
		c-0.184,0.242-0.391,0.443-0.623,0.604s-0.469,0.289-0.711,0.387c-0.445,0.184-0.824,0.275-1.137,0.275
		c-0.727,0-1.277-0.057-1.654-0.172c-0.375-0.113-0.697-0.184-0.965-0.205c-0.268-0.023-0.494-0.039-0.676-0.049
		c-0.184-0.01-0.322-0.037-0.418-0.078c-0.094-0.043-0.143-0.113-0.143-0.213c0-0.182,0.096-0.355,0.285-0.52
		c0.457-0.391,0.814-0.799,1.068-1.225c0.301-0.465,0.578-0.578,0.834-0.344c0.072,0.066,0.121,0.268,0.146,0.607
		c0.053,0.674,0.199,1.066,0.441,1.178c0.17,0.098,0.559,0.146,1.168,0.146c0.398,0,0.813-0.213,1.244-0.637
		c0.479-0.465,0.717-0.969,0.717-1.51c0-1.752-1.193-2.629-3.58-2.629c-1.373,0-2.582,0.537-3.627,1.609
		c-1.033,1.064-1.551,2.287-1.551,3.666c0,1.439,0.441,2.557,1.324,3.354c0.863,0.771,2.07,1.158,3.619,1.158
		c1.398,0,2.438-0.256,3.117-0.766c0.275-0.203,0.477-0.438,0.604-0.705s0.229-0.479,0.305-0.629
		c0.074-0.15,0.148-0.271,0.221-0.367c0.072-0.094,0.154-0.143,0.25-0.143c0.094,0,0.168,0.021,0.221,0.064s0.092,0.094,0.117,0.152
		c0.014,0.025,0.039,0.164,0.078,0.412c0.098,0.588,0.203,0.982,0.314,1.186C169.423,23.784,169.521,23.999,169.521,24.091z"/>
</g>
</svg>
