<?xml version="1.0" encoding="utf-8"?>
<!-- Generator: Adobe Illustrator 16.0.0, SVG Export Plug-In . SVG Version: 6.00 Build 0)  -->
<!DOCTYPE svg PUBLIC "-//W3C//DTD SVG 1.1//EN" "http://www.w3.org/Graphics/SVG/1.1/DTD/svg11.dtd">
<svg version="1.1" id="图层_1" xmlns="http://www.w3.org/2000/svg" xmlns:xlink="http://www.w3.org/1999/xlink" x="0px" y="0px"
	 width="258px" height="36px" viewBox="0 0 258 36" enable-background="new 0 0 258 36" xml:space="preserve">
<g>
	<path fill="#545454" d="M14.507,22.625c0.583,0.615,1.271,1.113,2.063,1.488c0.791,0.375,1.612,0.563,2.462,0.563
		c1.083,0,1.925-0.246,2.525-0.738c0.6-0.492,0.899-1.139,0.899-1.938c0-0.416-0.071-0.77-0.212-1.063
		c-0.142-0.291-0.333-0.543-0.575-0.75c-0.242-0.209-0.53-0.396-0.863-0.563c-0.334-0.168-0.692-0.342-1.075-0.525l-2.35-1.025
		c-0.384-0.166-0.775-0.367-1.176-0.6c-0.399-0.232-0.758-0.516-1.074-0.85c-0.317-0.334-0.575-0.729-0.775-1.188
		c-0.2-0.457-0.3-0.988-0.3-1.588c0-0.615,0.128-1.191,0.387-1.725s0.617-0.996,1.076-1.387c0.458-0.393,1-0.697,1.625-0.912
		C17.77,9.609,18.458,9.5,19.207,9.5c0.983,0,1.892,0.188,2.725,0.563c0.833,0.373,1.542,0.863,2.125,1.463l-1.125,1.35
		c-0.5-0.482-1.054-0.863-1.663-1.137c-0.608-0.277-1.295-0.414-2.062-0.414c-0.917,0-1.654,0.213-2.212,0.637
		c-0.559,0.426-0.838,1.014-0.838,1.764c0,0.4,0.079,0.738,0.238,1.014c0.158,0.273,0.371,0.516,0.638,0.725
		c0.267,0.207,0.558,0.391,0.875,0.549c0.316,0.158,0.641,0.305,0.975,0.438l2.325,1c0.466,0.199,0.908,0.43,1.325,0.688
		s0.775,0.559,1.075,0.9c0.3,0.342,0.538,0.742,0.712,1.199c0.175,0.459,0.263,0.988,0.263,1.588c0,0.65-0.129,1.258-0.388,1.826
		c-0.258,0.564-0.629,1.063-1.112,1.486c-0.483,0.424-1.067,0.76-1.75,1c-0.683,0.242-1.458,0.363-2.325,0.363
		c-1.15,0-2.217-0.217-3.2-0.65c-0.983-0.432-1.833-1.025-2.55-1.775L14.507,22.625z"/>
	<path fill="#545454" d="M26.707,20.148c0-1.016,0.154-1.92,0.462-2.711c0.308-0.793,0.721-1.463,1.238-2.012
		c0.516-0.551,1.112-0.967,1.788-1.25c0.675-0.283,1.388-0.426,2.137-0.426s1.462,0.143,2.138,0.426s1.271,0.699,1.787,1.25
		c0.517,0.549,0.929,1.219,1.238,2.012c0.308,0.791,0.462,1.695,0.462,2.711c0,1.002-0.154,1.898-0.462,2.688
		c-0.309,0.793-0.721,1.461-1.238,2.002s-1.112,0.953-1.787,1.236S33.081,26.5,32.332,26.5s-1.462-0.143-2.137-0.426
		c-0.675-0.283-1.271-0.695-1.788-1.236c-0.517-0.541-0.93-1.209-1.238-2.002C26.861,22.047,26.707,21.15,26.707,20.148z
		 M28.832,20.148c0,0.701,0.083,1.334,0.25,1.902c0.166,0.566,0.403,1.053,0.712,1.463c0.308,0.408,0.679,0.725,1.113,0.947
		c0.434,0.227,0.908,0.34,1.425,0.34s0.991-0.113,1.425-0.34c0.433-0.223,0.804-0.539,1.112-0.947
		c0.309-0.41,0.545-0.896,0.712-1.463c0.167-0.568,0.25-1.201,0.25-1.902c0-0.699-0.083-1.336-0.25-1.912
		c-0.167-0.572-0.404-1.07-0.712-1.486c-0.308-0.416-0.679-0.738-1.112-0.963c-0.434-0.225-0.909-0.338-1.425-0.338
		s-0.991,0.113-1.425,0.338s-0.805,0.547-1.113,0.963c-0.309,0.416-0.546,0.914-0.712,1.486
		C28.915,18.813,28.832,19.449,28.832,20.148z"/>
	<path fill="#545454" d="M40.981,14.049h2.075v7.424c0,1.152,0.179,1.982,0.538,2.488c0.358,0.51,0.938,0.764,1.737,0.764
		c0.633,0,1.192-0.164,1.675-0.486c0.483-0.326,1.016-0.846,1.6-1.563v-8.627h2.05v12.15h-1.7l-0.175-1.9h-0.075
		c-0.567,0.668-1.162,1.201-1.788,1.602c-0.625,0.398-1.362,0.6-2.212,0.6c-1.301,0-2.247-0.4-2.838-1.199
		c-0.592-0.803-0.887-1.984-0.887-3.551V14.049z"/>
	<path fill="#545454" d="M54.756,14.049h1.699l0.175,2.201h0.075c0.417-0.768,0.921-1.375,1.513-1.826
		c0.592-0.447,1.238-0.674,1.937-0.674c0.484,0,0.917,0.084,1.301,0.25l-0.4,1.801c-0.2-0.068-0.384-0.119-0.551-0.152
		C60.339,15.617,60.13,15.6,59.88,15.6c-0.517,0-1.054,0.207-1.612,0.625s-1.045,1.143-1.463,2.176v7.799h-2.049V14.049z"/>
	<path fill="#545454" d="M62.28,20.148c0-1.016,0.159-1.92,0.475-2.711c0.316-0.793,0.742-1.463,1.275-2.012
		c0.533-0.551,1.154-0.967,1.862-1.25s1.454-0.426,2.238-0.426c0.799,0,1.487,0.146,2.062,0.436
		c0.576,0.295,1.071,0.631,1.487,1.014l-1.024,1.326c-0.367-0.316-0.746-0.576-1.138-0.777c-0.392-0.199-0.829-0.299-1.313-0.299
		c-0.55,0-1.059,0.113-1.525,0.338s-0.866,0.547-1.2,0.963c-0.333,0.416-0.596,0.914-0.787,1.486
		c-0.192,0.576-0.288,1.213-0.288,1.912c0,0.701,0.091,1.334,0.275,1.902c0.183,0.566,0.438,1.053,0.763,1.463
		c0.325,0.408,0.721,0.725,1.188,0.947c0.466,0.227,0.975,0.34,1.525,0.34c0.583,0,1.112-0.123,1.587-0.363
		c0.475-0.242,0.896-0.529,1.262-0.863l0.925,1.35c-0.55,0.484-1.162,0.867-1.838,1.15c-0.675,0.283-1.379,0.426-2.112,0.426
		c-0.8,0-1.55-0.143-2.25-0.426c-0.7-0.283-1.304-0.695-1.813-1.236c-0.508-0.541-0.908-1.209-1.2-2.002
		C62.426,22.047,62.28,21.15,62.28,20.148z"/>
	<path fill="#545454" d="M73.155,20.148c0-0.998,0.154-1.895,0.463-2.686c0.308-0.793,0.716-1.463,1.224-2.014
		c0.509-0.551,1.088-0.969,1.738-1.264c0.65-0.289,1.325-0.436,2.025-0.436c0.767,0,1.454,0.133,2.062,0.4
		c0.608,0.266,1.117,0.648,1.525,1.15c0.408,0.5,0.721,1.1,0.938,1.799c0.216,0.701,0.325,1.484,0.325,2.35
		c0,0.449-0.025,0.824-0.075,1.125h-8.2c0.083,1.318,0.488,2.359,1.212,3.125c0.725,0.766,1.671,1.15,2.837,1.15
		c0.583,0,1.121-0.088,1.612-0.262c0.492-0.176,0.963-0.406,1.413-0.689l0.726,1.352c-0.534,0.334-1.125,0.625-1.775,0.873
		c-0.649,0.252-1.392,0.377-2.225,0.377c-0.817,0-1.58-0.146-2.288-0.438c-0.708-0.293-1.325-0.709-1.851-1.25
		c-0.524-0.541-0.937-1.205-1.237-1.988S73.155,21.15,73.155,20.148z M81.655,19.225c0-1.25-0.262-2.203-0.788-2.863
		c-0.525-0.656-1.263-0.986-2.212-0.986c-0.434,0-0.846,0.088-1.237,0.264c-0.392,0.174-0.746,0.424-1.063,0.748
		c-0.317,0.324-0.579,0.727-0.787,1.201c-0.209,0.475-0.347,1.021-0.413,1.637H81.655z"/>
	<path fill="#545454" d="M91.755,22.625c0.583,0.615,1.271,1.113,2.062,1.488s1.612,0.563,2.462,0.563
		c1.083,0,1.925-0.246,2.525-0.738c0.6-0.492,0.9-1.139,0.9-1.938c0-0.416-0.071-0.77-0.212-1.063
		c-0.142-0.291-0.333-0.543-0.575-0.75c-0.242-0.209-0.53-0.396-0.863-0.563c-0.333-0.168-0.692-0.342-1.075-0.525l-2.35-1.025
		c-0.384-0.166-0.775-0.367-1.175-0.6c-0.4-0.232-0.759-0.516-1.075-0.85c-0.317-0.334-0.575-0.729-0.775-1.188
		c-0.2-0.457-0.3-0.988-0.3-1.588c0-0.615,0.128-1.191,0.387-1.725s0.617-0.996,1.076-1.387c0.458-0.393,1-0.697,1.625-0.912
		C95.017,9.609,95.705,9.5,96.455,9.5c0.983,0,1.892,0.188,2.725,0.563c0.833,0.373,1.542,0.863,2.125,1.463l-1.125,1.35
		c-0.5-0.482-1.054-0.863-1.663-1.137c-0.608-0.277-1.295-0.414-2.062-0.414c-0.917,0-1.654,0.213-2.213,0.637
		c-0.558,0.426-0.837,1.014-0.837,1.764c0,0.4,0.079,0.738,0.237,1.014c0.158,0.273,0.371,0.516,0.638,0.725
		c0.266,0.207,0.558,0.391,0.875,0.549c0.317,0.158,0.642,0.305,0.975,0.438l2.325,1c0.466,0.199,0.908,0.43,1.325,0.688
		c0.417,0.258,0.775,0.559,1.075,0.9c0.3,0.342,0.538,0.742,0.712,1.199c0.175,0.459,0.263,0.988,0.263,1.588
		c0,0.65-0.129,1.258-0.388,1.826c-0.259,0.564-0.629,1.063-1.112,1.486s-1.067,0.76-1.75,1c-0.684,0.242-1.458,0.363-2.325,0.363
		c-1.15,0-2.216-0.217-3.2-0.65c-0.983-0.432-1.833-1.025-2.55-1.775L91.755,22.625z"/>
	<path fill="#545454" d="M104.254,23.051c0-1.336,0.595-2.355,1.788-3.063c1.191-0.709,3.087-1.205,5.687-1.488
		c0-0.383-0.037-0.758-0.112-1.125s-0.209-0.691-0.4-0.975c-0.192-0.283-0.445-0.514-0.763-0.689
		c-0.316-0.174-0.725-0.262-1.225-0.262c-0.716,0-1.379,0.133-1.987,0.4c-0.609,0.268-1.155,0.568-1.638,0.9l-0.825-1.426
		c0.566-0.365,1.258-0.721,2.075-1.063s1.717-0.512,2.7-0.512c1.483,0,2.558,0.453,3.225,1.361c0.667,0.91,1,2.121,1,3.639v7.449
		h-1.7l-0.175-1.449h-0.05c-0.583,0.484-1.212,0.896-1.887,1.236c-0.675,0.342-1.387,0.514-2.138,0.514
		c-1.034,0-1.887-0.301-2.563-0.9C104.592,25,104.254,24.15,104.254,23.051z M106.279,22.898c0,0.701,0.204,1.199,0.612,1.5
		s0.913,0.451,1.513,0.451c0.583,0,1.137-0.137,1.662-0.412s1.079-0.68,1.662-1.213V19.85c-1.016,0.133-1.875,0.291-2.575,0.475
		s-1.263,0.4-1.688,0.65c-0.425,0.25-0.729,0.537-0.913,0.861C106.371,22.162,106.279,22.516,106.279,22.898z"/>
	<path fill="#545454" d="M117.654,14.049h1.7l0.175,1.752h0.075c0.583-0.584,1.196-1.072,1.837-1.463
		c0.642-0.393,1.388-0.588,2.238-0.588c1.283,0,2.221,0.4,2.813,1.199c0.591,0.799,0.888,1.984,0.888,3.551v7.699h-2.051v-7.424
		c0-1.15-0.184-1.98-0.55-2.488c-0.367-0.508-0.949-0.762-1.75-0.762c-0.634,0-1.191,0.156-1.675,0.475
		c-0.483,0.316-1.034,0.785-1.65,1.4v8.799h-2.05V14.049z"/>
	<path fill="#545454" d="M131.004,23.449c0.533,0.434,1.078,0.783,1.637,1.049c0.559,0.268,1.205,0.402,1.938,0.402
		c0.801,0,1.4-0.184,1.801-0.551s0.6-0.816,0.6-1.352c0-0.314-0.084-0.59-0.25-0.824c-0.166-0.232-0.379-0.438-0.637-0.611
		c-0.26-0.176-0.555-0.33-0.889-0.463c-0.332-0.133-0.666-0.266-1-0.4c-0.434-0.148-0.867-0.32-1.299-0.512
		c-0.434-0.193-0.822-0.426-1.164-0.701s-0.619-0.594-0.836-0.961s-0.326-0.809-0.326-1.324c0-0.484,0.096-0.939,0.289-1.363
		c0.191-0.426,0.465-0.793,0.824-1.1c0.357-0.309,0.795-0.553,1.313-0.727c0.516-0.174,1.1-0.262,1.75-0.262
		c0.766,0,1.471,0.133,2.111,0.4c0.643,0.266,1.197,0.592,1.664,0.975l-0.975,1.299c-0.418-0.314-0.852-0.574-1.301-0.775
		c-0.451-0.199-0.941-0.299-1.475-0.299c-0.768,0-1.33,0.176-1.688,0.525c-0.359,0.35-0.537,0.758-0.537,1.225
		c0,0.285,0.074,0.529,0.225,0.738c0.148,0.209,0.35,0.391,0.6,0.549c0.25,0.16,0.537,0.301,0.861,0.426
		c0.326,0.125,0.664,0.254,1.014,0.387c0.434,0.168,0.871,0.342,1.313,0.525s0.838,0.412,1.188,0.688s0.637,0.613,0.861,1.012
		c0.227,0.4,0.338,0.885,0.338,1.451c0,0.5-0.096,0.965-0.287,1.398s-0.475,0.818-0.85,1.15c-0.375,0.334-0.842,0.596-1.4,0.789
		c-0.559,0.189-1.195,0.287-1.912,0.287c-0.867,0-1.691-0.16-2.475-0.477s-1.467-0.717-2.051-1.199L131.004,23.449z"/>
	<path fill="#545454" d="M147.053,9.799h5.025c0.9,0,1.725,0.084,2.475,0.252c0.75,0.166,1.387,0.436,1.912,0.811
		c0.525,0.377,0.934,0.873,1.225,1.488c0.293,0.617,0.438,1.375,0.438,2.275c0,0.867-0.145,1.617-0.438,2.25
		c-0.291,0.633-0.703,1.158-1.236,1.574c-0.533,0.418-1.172,0.73-1.912,0.938c-0.742,0.209-1.563,0.313-2.463,0.313h-2.951v6.5
		h-2.074V9.799z M151.828,18c1.434,0,2.496-0.271,3.188-0.813c0.691-0.543,1.037-1.396,1.037-2.563c0-1.184-0.35-2.004-1.051-2.463
		c-0.699-0.459-1.758-0.688-3.174-0.688h-2.701V18H151.828z"/>
	<path fill="#545454" d="M161.252,14.049h1.701l0.174,2.201h0.074c0.418-0.768,0.922-1.375,1.514-1.826
		c0.592-0.447,1.236-0.674,1.938-0.674c0.482,0,0.916,0.084,1.299,0.25l-0.398,1.801c-0.201-0.068-0.385-0.119-0.551-0.152
		c-0.166-0.031-0.375-0.049-0.625-0.049c-0.518,0-1.053,0.207-1.613,0.625c-0.559,0.418-1.045,1.143-1.461,2.176v7.799h-2.051
		V14.049z"/>
	<path fill="#545454" d="M168.777,20.148c0-1.016,0.154-1.92,0.463-2.711c0.309-0.793,0.721-1.463,1.236-2.012
		c0.518-0.551,1.113-0.967,1.789-1.25c0.674-0.283,1.387-0.426,2.137-0.426s1.463,0.143,2.137,0.426
		c0.676,0.283,1.271,0.699,1.787,1.25c0.518,0.549,0.93,1.219,1.238,2.012c0.309,0.791,0.463,1.695,0.463,2.711
		c0,1.002-0.154,1.898-0.463,2.688c-0.309,0.793-0.721,1.461-1.238,2.002c-0.516,0.541-1.111,0.953-1.787,1.236
		c-0.674,0.283-1.387,0.426-2.137,0.426s-1.463-0.143-2.137-0.426c-0.676-0.283-1.271-0.695-1.789-1.236
		c-0.516-0.541-0.928-1.209-1.236-2.002C168.932,22.047,168.777,21.15,168.777,20.148z M170.902,20.148
		c0,0.701,0.084,1.334,0.25,1.902c0.166,0.566,0.404,1.053,0.713,1.463c0.309,0.408,0.678,0.725,1.113,0.947
		c0.432,0.227,0.906,0.34,1.424,0.34s0.992-0.113,1.426-0.34c0.432-0.223,0.803-0.539,1.111-0.947
		c0.309-0.41,0.545-0.896,0.713-1.463c0.166-0.568,0.25-1.201,0.25-1.902c0-0.699-0.084-1.336-0.25-1.912
		c-0.168-0.572-0.404-1.07-0.713-1.486s-0.68-0.738-1.111-0.963c-0.434-0.225-0.908-0.338-1.426-0.338s-0.992,0.113-1.424,0.338
		c-0.436,0.225-0.805,0.547-1.113,0.963s-0.547,0.914-0.713,1.486C170.986,18.813,170.902,19.449,170.902,20.148z"/>
</g>
</svg>
