<?xml version="1.0" encoding="utf-8"?>
<!-- Generator: Adobe Illustrator 16.0.0, SVG Export Plug-In . SVG Version: 6.00 Build 0)  -->
<!DOCTYPE svg PUBLIC "-//W3C//DTD SVG 1.1//EN" "http://www.w3.org/Graphics/SVG/1.1/DTD/svg11.dtd">
<svg version="1.1" id="图层_1" xmlns="http://www.w3.org/2000/svg" xmlns:xlink="http://www.w3.org/1999/xlink" x="0px" y="0px"
	 width="258px" height="36px" viewBox="0 0 258 36" enable-background="new 0 0 258 36" xml:space="preserve">
<g>
	<path fill="#545454" d="M13.315,24.729c0.071-1.412,0.186-2.725,0.342-3.938l1.648-0.32l1.07,1.82
		c0.856,0.297,1.612,0.447,2.268,0.447c0.229,0,0.713-0.064,1.456-0.191c0.028-0.285,0.042-0.477,0.042-0.578
		c0-0.342-0.057-0.602-0.171-0.781c-0.115-0.178-0.364-0.377-0.75-0.6c-0.385-0.221-1.077-0.553-2.075-0.994
		c-1.228-0.6-2.111-1.244-2.653-1.938c-0.542-0.691-0.813-1.508-0.813-2.449c0-1.469,0.5-2.617,1.498-3.445s2.368-1.242,4.108-1.242
		c0.842,0,1.68,0.084,2.515,0.248c0.834,0.162,1.565,0.387,2.193,0.674c-0.029,0.799-0.093,1.789-0.192,2.975l-0.064,0.918
		l-1.562,0.236l-1.626-2.074c-0.514-0.158-1.156-0.236-1.926-0.236c-0.485,0-0.849,0.043-1.091,0.129
		c-0.072,0.283-0.107,0.506-0.107,0.662c0,0.314,0.078,0.59,0.235,0.824c0.157,0.236,0.435,0.479,0.834,0.729
		c0.399,0.248,0.991,0.559,1.776,0.93c1.141,0.543,2.004,1.02,2.589,1.434c0.584,0.414,0.995,0.846,1.23,1.295
		s0.353,0.994,0.353,1.637c0,1.412-0.563,2.525-1.69,3.338c-1.127,0.814-2.682,1.221-4.665,1.221
		C16.518,25.457,14.928,25.215,13.315,24.729z"/>
	<path fill="#545454" d="M27.224,24.484c-0.557-0.678-0.834-1.703-0.834-3.072v-3.83c0-0.313-0.025-0.518-0.075-0.609
		c-0.05-0.094-0.175-0.195-0.375-0.311l-0.962-0.514l0.107-1.605c0.2-0.027,0.342-0.057,0.428-0.086
		c0.157-0.027,0.717-0.127,1.68-0.299c0.963-0.172,1.765-0.27,2.408-0.299c0.157,0.357,0.278,0.77,0.364,1.24v5.393
		c0,0.627,0.017,1.07,0.053,1.326c0.035,0.258,0.15,0.453,0.342,0.59c0.192,0.135,0.524,0.203,0.995,0.203
		c0.685,0,1.348-0.121,1.99-0.365v-4.664c0-0.313-0.021-0.518-0.064-0.609c-0.042-0.094-0.157-0.195-0.342-0.311l-0.942-0.514
		l0.086-1.605c1.155-0.213,2.057-0.377,2.707-0.492c0.649-0.113,1.244-0.178,1.787-0.191c0.157,0.357,0.278,0.77,0.364,1.24v7.02
		c0,0.256,0.021,0.436,0.064,0.535c0.043,0.1,0.143,0.199,0.3,0.299l0.856,0.492l-0.064,1.326c-0.613,0.158-1.32,0.297-2.119,0.418
		s-1.541,0.195-2.226,0.225c-0.057-0.172-0.121-0.385-0.192-0.643c-0.015-0.113-0.05-0.248-0.107-0.406h-0.064
		c-0.585,0.344-1.202,0.617-1.851,0.824c-0.649,0.207-1.238,0.311-1.766,0.311C28.629,25.5,27.781,25.16,27.224,24.484z"/>
	<path fill="#545454" d="M40.245,23.938c-0.906-1.012-1.359-2.412-1.359-4.195c0-1.24,0.221-2.307,0.663-3.197
		c0.442-0.893,1.07-1.574,1.883-2.045s1.762-0.705,2.846-0.705c1.612,0,2.849,0.514,3.712,1.539c0.863,1.029,1.273,2.49,1.23,4.389
		l-6.505,1.197c0.2,0.6,0.481,1.037,0.845,1.316c0.364,0.277,0.846,0.418,1.444,0.418c0.414,0,0.906-0.061,1.477-0.184
		c0.57-0.121,1.148-0.287,1.733-0.502l0.492,2.119c-0.528,0.4-1.213,0.727-2.055,0.984c-0.842,0.256-1.69,0.385-2.546,0.385
		C42.438,25.457,41.151,24.951,40.245,23.938z M45.712,17.924c-0.029-0.541-0.182-0.938-0.46-1.188
		c-0.278-0.25-0.667-0.373-1.167-0.373c-0.414,0-0.806,0.057-1.176,0.17c-0.3,0.699-0.436,1.455-0.407,2.268L45.712,17.924z"/>
	<path fill="#545454" d="M50.099,22.996l5.542-6.527l-2.589,0.193l-1.091,1.455l-1.434-0.234c0.114-1.656,0.229-2.945,0.342-3.873
		h8.624l0.299,2.523l-5.135,6.205l2.696-0.191l1.262-1.498l1.477,0.301c-0.072,1.084-0.207,2.367-0.407,3.85h-9.394L50.099,22.996z"
		/>
	<path fill="#545454" d="M66.693,23.701c-1.163-1.197-1.744-3.018-1.744-5.455c0-1.584,0.292-2.957,0.877-4.119
		s1.419-2.059,2.503-2.686c1.084-0.629,2.375-0.941,3.874-0.941c4.764,0,7.147,2.432,7.147,7.297c0,1.598-0.292,2.973-0.877,4.129
		c-0.585,1.156-1.431,2.041-2.536,2.652c-1.105,0.615-2.421,0.922-3.948,0.922C69.622,25.5,67.856,24.9,66.693,23.701z
		 M74.772,21.926c0.157-0.441,0.278-0.994,0.363-1.658c0.086-0.664,0.128-1.316,0.128-1.957c0-1.584-0.296-2.783-0.888-3.596
		c-0.592-0.813-1.458-1.219-2.6-1.219c-0.813,0-1.598,0.148-2.354,0.449c-0.157,0.271-0.278,0.717-0.364,1.336
		c-0.086,0.621-0.128,1.332-0.128,2.129c0,1.656,0.299,2.926,0.898,3.809c0.599,0.887,1.469,1.328,2.611,1.328
		C73.252,22.547,74.03,22.34,74.772,21.926z"/>
	<path fill="#545454" d="M80.741,23.146l1.327-0.387v-5.178c0-0.313-0.021-0.518-0.064-0.609c-0.042-0.094-0.157-0.195-0.342-0.311
		l-0.942-0.514l0.064-1.605l0.471-0.086c1.869-0.371,3.217-0.568,4.044-0.598c0.114,0.299,0.207,0.627,0.278,0.984
		c0.87-0.4,1.58-0.676,2.129-0.824c0.549-0.15,1.066-0.225,1.551-0.225c2.268,0,3.403,1.355,3.403,4.064v4.195
		c0,0.299,0.021,0.5,0.064,0.6c0.043,0.1,0.164,0.207,0.364,0.32l1.027,0.6l-0.085,1.604h-5.906l-0.107-2.031l1.048-0.301v-4.045
		c0-0.641-0.021-1.09-0.064-1.346c-0.042-0.258-0.16-0.457-0.353-0.6c-0.193-0.145-0.532-0.215-1.017-0.215
		c-0.514,0-1.163,0.08-1.947,0.236v5.178c0,0.299,0.021,0.5,0.064,0.6c0.043,0.1,0.157,0.207,0.342,0.32l1.049,0.6l-0.085,1.604
		h-6.206L80.741,23.146z"/>
	<path fill="#545454" d="M95.988,23.938c-0.906-1.012-1.359-2.412-1.359-4.195c0-1.24,0.221-2.307,0.663-3.197
		c0.442-0.893,1.07-1.574,1.883-2.045s1.762-0.705,2.846-0.705c1.612,0,2.85,0.514,3.713,1.539c0.863,1.029,1.273,2.49,1.23,4.389
		l-6.505,1.197c0.199,0.6,0.481,1.037,0.845,1.316c0.364,0.277,0.845,0.418,1.444,0.418c0.414,0,0.906-0.061,1.477-0.184
		c0.57-0.121,1.148-0.287,1.734-0.502l0.492,2.119c-0.528,0.4-1.213,0.727-2.054,0.984c-0.842,0.256-1.69,0.385-2.546,0.385
		C98.181,25.457,96.894,24.951,95.988,23.938z M101.455,17.924c-0.029-0.541-0.182-0.938-0.46-1.188
		c-0.278-0.25-0.667-0.373-1.167-0.373c-0.414,0-0.806,0.057-1.177,0.17c-0.299,0.699-0.435,1.455-0.407,2.268L101.455,17.924z"/>
</g>
</svg>
