<?xml version="1.0" encoding="utf-8"?>
<!-- Generator: Adobe Illustrator 16.0.0, SVG Export Plug-In . SVG Version: 6.00 Build 0)  -->
<!DOCTYPE svg PUBLIC "-//W3C//DTD SVG 1.1//EN" "http://www.w3.org/Graphics/SVG/1.1/DTD/svg11.dtd">
<svg version="1.1" id="图层_1" xmlns:xml="http://www.w3.org/XML/1998/namespace"
	 xmlns="http://www.w3.org/2000/svg" xmlns:xlink="http://www.w3.org/1999/xlink" x="0px" y="0px" width="200px" height="97.059px"
	 viewBox="0 0 200 97.059" enable-background="new 0 0 200 97.059" xml:space="preserve">
<path fill="#404040" d="M153.139,53.347h12.596l-6.359-17.13L153.139,53.347z M39.303,43.649c1.596-0.188,2.85-0.74,3.764-1.652
	c0.913-0.913,1.369-2.114,1.369-3.605c0-1.427-0.394-2.587-1.181-3.479c-0.787-0.893-1.958-1.434-3.512-1.621
	c-0.923-0.104-3.579-0.157-7.967-0.157h-5.353V43.81h6.108C36.164,43.806,38.421,43.755,39.303,43.649z M42.216,52.15
	c-1.271-0.438-4.026-0.659-8.267-0.659h-7.525v12.344h8.628c3.358,0,5.49-0.097,6.393-0.283c1.386-0.252,2.514-0.867,3.385-1.842
	c0.871-0.978,1.308-2.283,1.308-3.922c0-1.388-0.336-2.562-1.008-3.525C44.458,53.299,43.485,52.592,42.216,52.15z M180,0H20
	C8.954,0,0,8.953,0,20v57.058c0,11.047,8.954,20,20,20h160c11.045,0,20-8.953,20-20V20C200,8.953,191.045,0,180,0z M54.309,64.353
	c-0.977,1.984-2.311,3.568-4,4.754c-1.689,1.188-3.773,1.916-6.251,2.189c-1.554,0.168-5.301,0.271-11.242,0.313H17.103V25.448
	h18.453c3.653,0,6.377,0.151,8.172,0.456c1.795,0.307,3.4,0.939,4.817,1.905c1.418,0.966,2.599,2.251,3.543,3.857
	c0.944,1.604,1.417,3.404,1.417,5.397c0,2.164-0.582,4.146-1.748,5.952c-1.164,1.808-2.744,3.159-4.739,4.063
	c2.813,0.817,4.976,2.215,6.487,4.188c1.512,1.976,2.268,4.295,2.268,6.961C55.772,60.328,55.284,62.369,54.309,64.353z
	 M98.756,71.611H63.645V25.448h34.229v7.811H72.966v10.234h23.177v7.775H72.966V63.83h25.79V71.611L98.756,71.611z M126.373,71.611
	h-9.321V33.257h-13.698v-7.812h36.688v7.812h-13.667L126.373,71.611L126.373,71.611z M172.757,71.611l-4.03-10.485h-18.453
	l-3.81,10.485h-9.889l17.979-46.165h9.854l18.483,46.165H172.757z" class="color c1"/>
</svg>
