<svg version="1.1" id="图层_1" x="0px" y="0px" width="200px" height="200px" viewBox="0 0 200 200" enable-background="new 0 0 200 200" xml:space="preserve" xmlns="http://www.w3.org/2000/svg" xmlns:xlink="http://www.w3.org/1999/xlink" xmlns:xml="http://www.w3.org/XML/1998/namespace">
  <g>
    <path fill="#404040" d="M100,10c49.626,0,90,40.374,90,90s-40.374,90-90,90s-90-40.374-90-90S50.374,10,100,10 M100,0
		C44.771,0,0,44.771,0,100s44.771,100,100,100s100-44.771,100-100S155.229,0,100,0L100,0z" class="color c1"/>
    <path fill="#404040" d="M34.588,114.717l13.207-1.285c0.794,4.434,2.407,7.689,4.837,9.768c2.431,2.08,5.709,3.119,9.836,3.119
		c4.371,0,7.665-0.926,9.882-2.775c2.216-1.85,3.324-4.012,3.324-6.488c0-1.59-0.466-2.941-1.398-4.059
		c-0.933-1.115-2.561-2.086-4.883-2.91c-1.59-0.551-5.212-1.529-10.868-2.936c-7.276-1.803-12.381-4.02-15.315-6.648
		c-4.127-3.699-6.19-8.209-6.19-13.527c0-3.424,0.97-6.627,2.912-9.607c1.941-2.98,4.738-5.25,8.392-6.809
		c3.652-1.559,8.063-2.34,13.229-2.34c8.437,0,14.788,1.852,19.053,5.549c4.264,3.699,6.503,8.637,6.718,14.811l-13.573,0.598
		c-0.581-3.455-1.827-5.939-3.737-7.451c-1.911-1.514-4.776-2.271-8.598-2.271c-3.943,0-7.031,0.811-9.263,2.432
		c-1.437,1.039-2.155,2.43-2.155,4.172c0,1.59,0.672,2.951,2.018,4.082c1.712,1.438,5.87,2.934,12.473,4.494
		c6.603,1.559,11.487,3.172,14.651,4.836c3.164,1.668,5.64,3.945,7.428,6.834c1.789,2.889,2.683,6.457,2.683,10.707
		c0,3.852-1.07,7.459-3.21,10.82c-2.14,3.363-5.167,5.863-9.079,7.498c-3.914,1.635-8.789,2.453-14.628,2.453
		c-8.499,0-15.025-1.963-19.58-5.893C38.195,127.961,35.475,122.236,34.588,114.717z" class="color c1"/>
    <path fill="#404040" d="M100.481,136.59V69.365h20.314l12.197,45.855l12.059-45.855h20.36v67.225h-12.61V83.672l-13.344,52.918
		H126.39l-13.299-52.918v52.918H100.481z" class="color c1"/>
  </g>
</svg>