<svg version="1.1" id="图层_1" x="0px" y="0px" width="200px" height="200px" viewBox="0 0 200 200" enable-background="new 0 0 200 200" xml:space="preserve" xmlns="http://www.w3.org/2000/svg" xmlns:xlink="http://www.w3.org/1999/xlink" xmlns:xml="http://www.w3.org/XML/1998/namespace">
  <g>
    <path fill="#404040" d="M100,10c49.626,0,90,40.374,90,90s-40.374,90-90,90s-90-40.374-90-90S50.374,10,100,10 M100,0
		C44.771,0,0,44.771,0,100s44.771,100,100,100s100-44.771,100-100S155.229,0,100,0L100,0z" class="color c1"/>
    <path fill="#404040" d="M56.483,136.611V80.76H36.537V69.389h53.421V80.76H70.057v55.852H56.483z" class="color c1"/>
    <path fill="#404040" d="M98.532,136.611V69.389h20.314l12.197,45.854l12.06-45.854h20.359v67.223h-12.61V83.695l-13.344,52.916
		H124.44l-13.298-52.916v52.916H98.532z" class="color c1"/>
  </g>
</svg>