<svg version="1.1" id="图层_1" x="0px" y="0px" width="200px" height="200px" viewBox="0 0 200 200" enable-background="new 0 0 200 200" xml:space="preserve" xmlns="http://www.w3.org/2000/svg" xmlns:xlink="http://www.w3.org/1999/xlink" xmlns:xml="http://www.w3.org/XML/1998/namespace">
  <g>
    <path fill="#404040" d="M100,10c49.626,0,90,40.374,90,90s-40.374,90-90,90s-90-40.374-90-90S50.374,10,100,10 M100,0
		C44.771,0,0,44.771,0,100s44.771,100,100,100s100-44.771,100-100S155.229,0,100,0L100,0z" class="color c1"/>
    <path fill="#404040" d="M82.262,110.369l13.861,4.396c-2.125,7.727-5.66,13.467-10.602,17.217
		c-4.943,3.752-11.213,5.627-18.813,5.627c-9.402,0-17.129-3.211-23.182-9.635c-6.055-6.424-9.08-15.205-9.08-26.346
		c0-11.785,3.043-20.938,9.127-27.457c6.086-6.521,14.088-9.781,24.004-9.781c8.662,0,15.697,2.561,21.105,7.68
		c3.221,3.027,5.635,7.373,7.246,13.041l-14.152,3.381c-0.838-3.672-2.584-6.568-5.24-8.693c-2.656-2.127-5.885-3.189-9.684-3.189
		c-5.248,0-9.506,1.885-12.773,5.652c-3.27,3.766-4.902,9.869-4.902,18.305c0,8.951,1.609,15.326,4.83,19.125
		c3.219,3.799,7.404,5.699,12.557,5.699c3.799,0,7.066-1.207,9.805-3.623C79.105,119.354,81.07,115.555,82.262,110.369z" class="color c1"/>
    <path fill="#404040" d="M153.691,110.369l13.861,4.396c-2.125,7.727-5.658,13.467-10.602,17.217
		c-4.943,3.752-11.213,5.627-18.811,5.627c-9.402,0-17.131-3.211-23.184-9.635s-9.08-15.205-9.08-26.346
		c0-11.785,3.043-20.938,9.129-27.457c6.086-6.521,14.086-9.781,24.004-9.781c8.66,0,15.695,2.561,21.105,7.68
		c3.219,3.027,5.635,7.373,7.244,13.041l-14.15,3.381c-0.838-3.672-2.584-6.568-5.24-8.693c-2.656-2.127-5.885-3.189-9.684-3.189
		c-5.248,0-9.508,1.885-12.775,5.652c-3.268,3.766-4.902,9.869-4.902,18.305c0,8.951,1.611,15.326,4.83,19.125
		s7.406,5.699,12.557,5.699c3.801,0,7.068-1.207,9.805-3.623C150.535,119.354,152.5,115.555,153.691,110.369z" class="color c1"/>
  </g>
</svg>