<svg version="1.1" id="图层_1" x="0px" y="0px" width="200px" height="200px" viewBox="0 0 200 200" enable-background="new 0 0 200 200" xml:space="preserve" xmlns="http://www.w3.org/2000/svg" xmlns:xlink="http://www.w3.org/1999/xlink" xmlns:xml="http://www.w3.org/XML/1998/namespace">
  <g>
    <path fill="#404040" d="M100,10c49.626,0,90,40.374,90,90s-40.374,90-90,90s-90-40.374-90-90S50.374,10,100,10 M100,0
		C44.771,0,0,44.771,0,100s44.771,100,100,100s100-44.771,100-100S155.229,0,100,0L100,0z" class="color c1"/>
    <g>
      <path fill="#404040" d="M125.745,114.209l21.021,6.665c-3.223,11.719-8.582,20.423-16.077,26.111
			c-7.496,5.689-17.005,8.533-28.528,8.533c-14.258,0-25.977-4.871-35.156-14.612c-9.181-9.741-13.77-23.059-13.77-39.954
			c0-17.871,4.614-31.75,13.843-41.638s21.361-14.832,36.401-14.832c13.134,0,23.804,3.882,32.007,11.646
			c4.882,4.59,8.544,11.182,10.986,19.775l-21.46,5.127c-1.271-5.566-3.918-9.961-7.947-13.184s-8.924-4.834-14.685-4.834
			c-7.959,0-14.417,2.856-19.373,8.569c-4.957,5.713-7.434,14.967-7.434,27.759c0,13.575,2.441,23.243,7.324,29.004
			c4.882,5.762,11.23,8.643,19.043,8.643c5.761,0,10.717-1.831,14.868-5.493C120.958,127.832,123.938,122.071,125.745,114.209z" class="color c1"/>
    </g>
  </g>
</svg>