<?xml version="1.0" encoding="utf-8"?>
<!-- Generator: Adobe Illustrator 16.0.0, SVG Export Plug-In . SVG Version: 6.00 Build 0)  -->
<!DOCTYPE svg PUBLIC "-//W3C//DTD SVG 1.1//EN" "http://www.w3.org/Graphics/SVG/1.1/DTD/svg11.dtd">
<svg version="1.1" id="图层_1" xmlns="http://www.w3.org/2000/svg" xmlns:xlink="http://www.w3.org/1999/xlink" x="0px" y="0px"
	 width="258px" height="36px" viewBox="0 0 258 36" enable-background="new 0 0 258 36" xml:space="preserve">
<g>
	<path fill="#545454" d="M15.999,22.477L13.257,9.867L15.999,9l2.109,10.242l2.742-3.211v3.984l-2.18,2.461H15.999z M24.084,22.477
		l-2.18-2.461v-3.984l2.648,3.211L26.756,9l2.648,0.867l-2.648,12.609H24.084z"/>
	<path fill="#545454" d="M31.091,15.422v-1.617l2.672-1.641h3.843v2.203h-3.539v1.055H31.091z M31.091,17.906l2.672-1.617h3.843
		v1.805h-3.539v1.922h3.539V22.5h-3.843l-2.672-1.617V17.906z M45.153,13.805l-2.671-1.641h-3.844v2.203h3.539v1.922h-3.539v1.805
		h3.539v1.922h-3.445V22.5h6.421V13.805z"/>
	<path fill="#545454" d="M49.606,9h3v13.5h-3V9z"/>
	<path fill="#545454" d="M57.292,9h3v13.5h-3V9z"/>
	<path fill="#545454" d="M64.979,12.164h6.492v2.203h-3.516v4.828h3.398v1.875h-3.398V27h-2.976V12.164z M78.971,19.477
		l-2.625,1.594h-3.704v-1.875h3.399v-4.828h-3.54v-2.203h3.844l2.625,1.617V19.477z"/>
	<path fill="#545454" d="M81.268,13.781l2.742-1.617h3.703v2.203h-3.515v5.578h3.515v2.508H84.01l-2.742-1.617V13.781z
		 M95.024,13.781l-2.742-1.617h-3.726v2.203h3.539v5.578h-3.539v2.508h3.726l2.742-1.617V13.781z"/>
	<path fill="#545454" d="M98.774,13.781l2.766-1.641h3.726v2.203h-3.539v1.922h3.539v1.805h-3.539v1.922h3.539v2.484h-3.726
		l-2.766-1.617V13.781z M112.929,13.781l-2.765-1.641h-3.75v2.203h3.539v1.922h-3.539v1.805h3.75l2.765-1.617V13.781z
		 M109.859,19.219v0.773h-3.445v2.484h3.75l2.765-1.617v-1.641H109.859z"/>
	<path fill="#545454" d="M120.078,10.617v9.398v2.461l-2.93-1.617v-6.445l-2.109,0.023v-1.031L120.078,10.617z M121.132,12.234
		h3.515v2.18h-3.515V12.234z M127.6,18.961v1.898l-2.672,1.617h-3.796v-2.461h3.515v-1.055H127.6z"/>
</g>
</svg>
