<?xml version="1.0" encoding="utf-8"?>
<!-- Generator: Adobe Illustrator 16.0.0, SVG Export Plug-In . SVG Version: 6.00 Build 0)  -->
<!DOCTYPE svg PUBLIC "-//W3C//DTD SVG 1.1//EN" "http://www.w3.org/Graphics/SVG/1.1/DTD/svg11.dtd">
<svg version="1.1" id="图层_1" xmlns="http://www.w3.org/2000/svg" xmlns:xlink="http://www.w3.org/1999/xlink" x="0px" y="0px"
	 width="258px" height="36px" viewBox="0 0 258 36" enable-background="new 0 0 258 36" xml:space="preserve">
<g>
	<path fill="#545454" d="M28.329,8.613l0.377-0.021c0.112,0,0.24,0.051,0.382,0.15C29.23,8.84,29.302,8.926,29.302,9
		c-0.033,0.145-0.814,1.475-2.343,3.99c-4.773,7.846-7.401,12.27-7.884,13.275c0.245-0.258,0.515-0.51,0.809-0.76
		c0.295-0.246,0.46-0.371,0.497-0.371s0.075,0.021,0.114,0.064c0.04,0.043,0.06,0.086,0.06,0.129s-0.03,0.098-0.089,0.164
		s-0.267,0.33-0.621,0.789c-0.354,0.461-0.617,0.787-0.789,0.982c-0.172,0.195-0.326,0.404-0.462,0.627
		c-0.136,0.221-0.251,0.379-0.347,0.471c-0.097,0.094-0.214,0.139-0.353,0.139c-0.404,0-0.744-0.174-1.018-0.52
		c-0.275-0.35-0.413-0.643-0.413-0.881c0-0.463,0.984-2.27,2.954-5.42c1.969-3.15,3.705-5.797,5.208-7.934
		c-3.475,4.104-6.242,6.797-8.301,8.082c-0.715,0.449-1.298,0.676-1.748,0.676c-0.219,0-0.436-0.064-0.651-0.189
		s-0.371-0.283-0.466-0.477c-0.096-0.191-0.144-0.535-0.144-1.027c0-0.494,0.212-1.201,0.635-2.125
		c0.424-0.924,0.97-1.912,1.639-2.963c1.185-1.881,2.277-3.488,3.276-4.828c-0.887,0.803-1.612,1.203-2.174,1.203
		c-0.258,0-0.429-0.039-0.511-0.115c-0.083-0.074-0.196-0.193-0.337-0.357c-0.143-0.162-0.214-0.34-0.214-0.535
		s0.035-0.35,0.104-0.463c0.07-0.111,0.134-0.197,0.194-0.258c0.225-0.225,0.371-0.357,0.437-0.396
		c0.066-0.039,0.147-0.061,0.243-0.061c0.096,0,0.144,0.016,0.144,0.045c0,0.031-0.035,0.074-0.104,0.135
		c-0.069,0.059-0.104,0.105-0.104,0.139s0.036,0.051,0.109,0.051c0.073,0,0.166-0.02,0.278-0.055
		c0.113-0.037,0.26-0.104,0.442-0.199c0.182-0.096,0.347-0.186,0.497-0.27c0.148-0.082,0.372-0.211,0.67-0.387
		s0.524-0.305,0.681-0.391c0.155-0.088,0.383-0.24,0.685-0.463s0.525-0.373,0.67-0.451c0.245-0.146,0.445-0.189,0.601-0.129
		c0.155,0.059,0.278,0.098,0.368,0.119c0.089,0.02,0.168,0.047,0.238,0.084c0.069,0.035,0.134,0.078,0.193,0.123
		c0.206,0.146,0.308,0.316,0.308,0.512S22.188,9.197,22,9.457c-0.189,0.258-0.611,0.867-1.267,1.83
		c-0.655,0.965-1.395,2.07-2.219,3.316c-0.824,1.248-1.549,2.418-2.174,3.512c-0.626,1.092-0.939,1.779-0.939,2.064
		c0,0.1,0.027,0.15,0.08,0.15s0.248-0.131,0.586-0.389c1.774-1.371,4.035-3.518,6.782-6.443c2.257-2.404,3.588-3.891,3.992-4.459
		c0.125-0.172,0.25-0.289,0.372-0.348c0.122-0.061,0.31-0.09,0.561-0.09L28.329,8.613z"/>
	<path fill="#545454" d="M32.589,14.977c0,0.438-0.178,0.82-0.532,1.152c-0.354,0.33-0.756,0.496-1.206,0.496
		c-0.146,0-0.242-0.035-0.288-0.104c-0.046-0.07-0.069-0.162-0.069-0.273c0-0.113,0.013-0.221,0.04-0.328
		c-0.238,0.08-0.503,0.201-0.794,0.367c-0.291,0.166-0.648,0.41-1.072,0.734c-0.423,0.324-0.635,0.566-0.635,0.727
		c0,0.053,0.078,0.078,0.233,0.078c0.156,0,0.396-0.055,0.72-0.164c0.324-0.107,0.551-0.164,0.68-0.164
		c0.129,0,0.213,0.008,0.253,0.021c0.086,0.045,0.179,0.146,0.278,0.303c0.099,0.154,0.149,0.277,0.149,0.367
		c0,0.088-0.086,0.207-0.258,0.352c-0.172,0.146-0.367,0.258-0.586,0.332c-0.218,0.078-0.364,0.135-0.437,0.174
		c-1.397,0.781-2.095,1.318-2.095,1.609c0,0.516,0.44,0.775,1.32,0.775c0.563,0,1.129-0.18,1.698-0.537
		c0.483-0.305,0.918-0.613,1.306-0.928c0.387-0.314,0.632-0.508,0.735-0.582c0.102-0.072,0.18-0.109,0.233-0.109
		c0.172,0,0.258,0.193,0.258,0.578c0,0.383-0.023,0.635-0.069,0.758s-0.179,0.273-0.397,0.451c-1.417,1.152-2.757,1.729-4.021,1.729
		c-0.675,0-1.215-0.094-1.619-0.277c-0.741-0.338-1.112-0.855-1.112-1.549c0-0.914,0.632-1.605,1.896-2.076
		c-0.252-0.111-0.414-0.256-0.487-0.432S26.602,18,26.602,17.613c0-0.389,0.18-0.799,0.541-1.23c0.36-0.436,0.803-0.791,1.325-1.068
		c1.165-0.629,2.205-0.943,3.118-0.943c0.218,0,0.44,0.053,0.665,0.16C32.476,14.637,32.589,14.785,32.589,14.977z"/>
	<path fill="#545454" d="M41.282,7.783c0.241,0.188,0.362,0.469,0.362,0.84c0,0.369-0.205,0.951-0.615,1.742
		c-0.411,0.791-0.904,1.598-1.479,2.422c-0.576,0.824-1.228,1.699-1.956,2.627c-1.152,1.469-2.257,2.789-3.316,3.963
		c-0.007,0.078-0.035,0.225-0.084,0.441c-0.05,0.215-0.075,0.432-0.075,0.648c0,0.221,0.101,0.416,0.303,0.592
		s0.452,0.264,0.75,0.264s0.617-0.105,0.958-0.318c0.341-0.211,0.637-0.447,0.889-0.705c0.662-0.682,1.072-1.023,1.231-1.023
		c0.159,0,0.238,0.242,0.238,0.727v0.197c0,0.258-0.046,0.447-0.139,0.566c-0.556,0.682-1.182,1.189-1.876,1.523
		c-0.695,0.336-1.354,0.502-1.976,0.502s-1.096-0.189-1.42-0.57s-0.486-0.902-0.486-1.564c0-1.291,0.346-2.809,1.037-4.553
		c0.692-1.744,1.472-3.229,2.339-4.453c1.953-2.766,3.445-4.15,4.478-4.15C40.761,7.5,41.04,7.594,41.282,7.783z M39.996,9.148
		c0-0.1-0.033-0.148-0.1-0.148c-0.231,0-0.84,0.662-1.827,1.984c-0.986,1.324-1.7,2.381-2.14,3.168
		c-0.44,0.789-0.855,1.777-1.246,2.969c0.781-0.926,1.862-2.371,3.242-4.334C39.306,10.824,39.996,9.611,39.996,9.148z"/>
	<path fill="#545454" d="M46.525,7.783c0.241,0.188,0.362,0.469,0.362,0.84c0,0.369-0.205,0.951-0.615,1.742
		c-0.411,0.791-0.904,1.598-1.479,2.422c-0.576,0.824-1.228,1.699-1.956,2.627c-1.152,1.469-2.257,2.789-3.316,3.963
		c-0.007,0.078-0.035,0.225-0.084,0.441c-0.05,0.215-0.075,0.432-0.075,0.648c0,0.221,0.101,0.416,0.303,0.592
		c0.202,0.176,0.452,0.264,0.75,0.264s0.617-0.105,0.958-0.318c0.341-0.211,0.637-0.447,0.889-0.705
		c0.662-0.682,1.072-1.023,1.231-1.023c0.159,0,0.238,0.242,0.238,0.727v0.197c0,0.258-0.046,0.447-0.139,0.566
		c-0.556,0.682-1.182,1.189-1.876,1.523c-0.695,0.336-1.354,0.502-1.976,0.502s-1.096-0.189-1.42-0.57s-0.486-0.902-0.486-1.564
		c0-1.291,0.345-2.809,1.037-4.553s1.472-3.229,2.339-4.453c1.953-2.766,3.445-4.15,4.478-4.15
		C46.003,7.5,46.283,7.594,46.525,7.783z M45.239,9.148c0-0.1-0.033-0.148-0.1-0.148c-0.231,0-0.84,0.662-1.827,1.984
		c-0.986,1.324-1.7,2.381-2.14,3.168c-0.44,0.789-0.855,1.777-1.246,2.969c0.781-0.926,1.862-2.371,3.242-4.334
		C44.548,10.824,45.239,9.611,45.239,9.148z"/>
	<path fill="#545454" d="M49.438,14.838c0.199,0,0.403,0.09,0.611,0.268c0.209,0.18,0.313,0.451,0.313,0.82
		c0,0.367-0.129,0.844-0.387,1.43c-0.258,0.586-0.612,1.182-1.063,1.787s-0.945,1.174-1.485,1.707s-1.122,0.971-1.748,1.311
		c-0.625,0.342-1.193,0.512-1.703,0.512s-0.918-0.16-1.226-0.482c-0.308-0.32-0.462-0.768-0.462-1.34s0.141-1.205,0.422-1.9
		c0.281-0.695,0.644-1.309,1.087-1.844c0.443-0.531,0.923-1.01,1.44-1.434c1.079-0.867,2.025-1.301,2.84-1.301
		c0.364,0,0.639,0.09,0.824,0.268c0.066,0.061,0.1,0.113,0.1,0.16v0.059C49.095,14.844,49.24,14.838,49.438,14.838z M48.436,16.158
		h-0.07c-0.231,0-0.347-0.168-0.347-0.506c-0.483,0.158-0.99,0.438-1.52,0.834c-0.529,0.396-1.003,0.867-1.42,1.41
		c-0.847,1.086-1.277,2.002-1.291,2.75c0,0.371,0.136,0.557,0.407,0.557c0.271,0,0.675-0.18,1.211-0.537s1.067-0.867,1.594-1.529
		c0.525-0.66,0.919-1.236,1.181-1.723c0.261-0.486,0.392-0.816,0.392-0.992S48.528,16.158,48.436,16.158z"/>
	<path fill="#545454" d="M60.46,15.025l-0.119-0.477c0-0.27,0.094-0.484,0.283-0.639c0.188-0.156,0.425-0.234,0.709-0.234
		c0.556,0,0.834,0.354,0.834,1.063c0,0.51-0.251,1.213-0.754,2.109c-0.503,0.898-1.098,1.766-1.782,2.602
		c-0.686,0.838-1.412,1.566-2.18,2.186s-1.359,0.928-1.772,0.928c-0.415,0-0.707-0.111-0.879-0.338
		c-0.172-0.225-0.258-0.441-0.258-0.65c0-0.207,0.01-0.404,0.03-0.59c0.073-0.648,0.251-1.268,0.536-1.857
		c-0.708,0.928-1.47,1.76-2.284,2.498c-0.814,0.738-1.496,1.105-2.045,1.105c-0.265,0-0.477-0.078-0.636-0.238
		c-0.159-0.158-0.238-0.428-0.238-0.809s0.229-1.096,0.685-2.145c0.457-1.049,0.894-1.893,1.311-2.527
		c-0.152,0.094-0.287,0.141-0.402,0.141c-0.116,0-0.242-0.066-0.377-0.195s-0.204-0.229-0.204-0.303c0-0.072,0.05-0.178,0.149-0.318
		c0.1-0.137,0.48-0.48,1.142-1.025c0.662-0.547,1.115-0.82,1.36-0.82s0.478,0.047,0.7,0.139c0.221,0.094,0.333,0.221,0.333,0.383
		s-0.46,1.107-1.38,2.834c-0.92,1.729-1.38,2.666-1.38,2.811c0,0.02,0.006,0.031,0.02,0.031c0.139,0,0.833-0.709,2.08-2.127
		c1.248-1.416,2.229-2.582,2.944-3.494c0.099-0.166,0.248-0.248,0.447-0.248l0.089,0.01l0.546-0.109c0.086,0,0.17,0.033,0.253,0.1
		c0.083,0.066,0.124,0.125,0.124,0.178s-0.118,0.291-0.353,0.715s-0.617,1.225-1.146,2.404c-0.53,1.178-0.794,2.006-0.794,2.482
		c0,0.119,0.043,0.178,0.129,0.178c0.251,0,0.776-0.455,1.574-1.365c0.797-0.91,1.448-1.781,1.951-2.615S60.46,15.371,60.46,15.025z
		"/>
	<path fill="#545454" d="M68.234,9.615l0.408,0.1c0.059,0,0.111,0.029,0.158,0.09c0.047,0.059,0.069,0.115,0.069,0.168
		s-0.069,0.195-0.208,0.428c-0.139,0.23-0.303,0.494-0.492,0.789c-0.188,0.295-0.289,0.455-0.303,0.48
		c0.517-0.039,0.883-0.061,1.098-0.061s0.362,0.016,0.441,0.047c0.08,0.029,0.17,0.111,0.273,0.248
		c0.102,0.135,0.197,0.238,0.283,0.307c0.086,0.07,0.129,0.176,0.129,0.313c0,0.141-0.085,0.258-0.253,0.354
		c-0.169,0.096-0.35,0.154-0.542,0.174c-1.535,0.152-2.383,0.232-2.541,0.238c-0.537,0.82-1.286,2.1-2.25,3.838
		c-0.962,1.738-1.474,2.824-1.534,3.262c-0.026,0.197-0.04,0.361-0.04,0.486c0,0.258,0.136,0.387,0.407,0.387
		s0.572-0.104,0.903-0.313s0.636-0.436,0.913-0.68c0.742-0.662,1.139-0.994,1.191-0.994c0.173,0,0.259,0.299,0.259,0.895
		c0,0.324-0.149,0.615-0.446,0.875c-0.669,0.574-1.232,1.008-1.688,1.299s-0.913,0.438-1.37,0.438c-0.1,0-0.192-0.01-0.278-0.029
		c-0.529-0.1-0.918-0.293-1.167-0.582c-0.249-0.287-0.371-0.676-0.368-1.166s0.149-1.084,0.437-1.781
		c0.289-0.699,0.65-1.441,1.087-2.23c0.715-1.283,1.43-2.488,2.145-3.613l-0.377,0.049c-0.769,0.086-1.215,0.129-1.341,0.129h-0.089
		c-0.192,0-0.377-0.037-0.556-0.113s-0.268-0.17-0.268-0.283s0.047-0.223,0.144-0.328c0.095-0.105,0.154-0.189,0.173-0.248
		c0.046-0.145,0.22-0.309,0.521-0.486c0.301-0.18,0.527-0.273,0.68-0.283s0.3-0.018,0.441-0.025c0.143-0.006,0.302-0.012,0.477-0.02
		c0.176-0.006,0.311-0.012,0.402-0.02l0.895-0.039c0.556-0.834,0.938-1.371,1.146-1.609c0.209-0.238,0.33-0.369,0.363-0.393
		c0.032-0.023,0.099-0.035,0.197-0.035L68.234,9.615z"/>
	<path fill="#545454" d="M73.349,14.857c0.503,0,0.755,0.172,0.755,0.516c0,0.186-0.043,0.322-0.129,0.408s-0.271,0.371-0.552,0.859
		c-0.281,0.486-0.593,1.107-0.934,1.867c-0.341,0.756-0.561,1.404-0.66,1.941c-0.02,0.064-0.03,0.158-0.03,0.277
		c0,0.363,0.1,0.545,0.299,0.545c0.198,0,0.434-0.094,0.705-0.281c0.271-0.189,0.513-0.391,0.725-0.607
		c0.212-0.215,0.418-0.436,0.621-0.66c0.201-0.225,0.322-0.354,0.361-0.387c0.04-0.033,0.1-0.049,0.18-0.049
		c0.125,0,0.201,0.096,0.229,0.287c0.025,0.191,0.039,0.391,0.039,0.596s-0.02,0.348-0.06,0.428
		c-0.192,0.377-0.614,0.83-1.266,1.359c-0.653,0.529-1.245,0.795-1.778,0.795s-0.924-0.162-1.176-0.486s-0.377-0.684-0.377-1.078
		s0.065-0.738,0.197-1.037c-0.549,0.715-1.18,1.32-1.891,1.816c-0.712,0.496-1.293,0.746-1.742,0.746
		c-0.451,0-0.818-0.137-1.103-0.408c-0.364-0.338-0.546-0.807-0.546-1.404c0-0.6,0.134-1.201,0.401-1.809
		c0.269-0.605,0.621-1.158,1.058-1.656c0.438-0.502,0.917-0.957,1.439-1.367c1.1-0.859,2.112-1.291,3.039-1.291
		c0.357,0,0.648,0.061,0.873,0.18c0.226,0.119,0.368,0.268,0.428,0.447c0.158-0.238,0.293-0.389,0.402-0.451
		C72.966,14.889,73.13,14.857,73.349,14.857z M72.027,15.961c-1.131,0-2.303,0.629-3.515,1.885c-0.431,0.451-0.825,0.99-1.187,1.619
		s-0.541,1.059-0.541,1.291s0.066,0.348,0.199,0.348c0.185,0,0.701-0.365,1.549-1.098c0.847-0.73,1.41-1.27,1.688-1.613
		C70.525,18.008,71.127,17.197,72.027,15.961z"/>
	<path fill="#545454" d="M78.908,20.17c0,0.199-0.02,0.342-0.059,0.428c-0.324,0.66-0.841,1.195-1.549,1.604
		c-0.709,0.406-1.324,0.609-1.848,0.609c-0.522,0-0.973-0.176-1.35-0.525c-0.378-0.352-0.566-0.709-0.566-1.072
		c0-0.365,0.182-0.895,0.546-1.59s0.729-1.336,1.093-1.926c0.363-0.59,0.546-0.908,0.546-0.957c0-0.051-0.068-0.148-0.204-0.293
		c-0.136-0.146-0.203-0.254-0.203-0.324c0-0.068,0.137-0.25,0.412-0.545c0.274-0.295,0.609-0.586,1.003-0.875
		c0.394-0.287,0.695-0.432,0.903-0.432c0.209,0,0.396,0.094,0.561,0.277c0.166,0.188,0.249,0.355,0.249,0.508
		s-0.788,1.586-2.363,4.299c-0.021,0.039-0.075,0.127-0.163,0.264c-0.09,0.135-0.16,0.248-0.209,0.338
		c-0.05,0.088-0.107,0.195-0.174,0.322c-0.133,0.264-0.199,0.486-0.199,0.664c0,0.227,0.152,0.34,0.457,0.34
		s0.621-0.105,0.948-0.314c0.328-0.209,0.61-0.438,0.849-0.689c0.623-0.668,0.977-1.004,1.063-1.004
		C78.822,19.275,78.908,19.574,78.908,20.17z M80.518,11.502c0,0.377-0.176,0.756-0.526,1.137s-0.717,0.57-1.097,0.57
		c-0.381,0-0.571-0.197-0.571-0.596c0-0.396,0.167-0.775,0.501-1.137s0.703-0.541,1.107-0.541c0.179,0,0.32,0.049,0.427,0.148
		S80.518,11.322,80.518,11.502z"/>
	<path fill="#545454" d="M87.244,7.783c0.242,0.188,0.363,0.469,0.363,0.84c0,0.369-0.205,0.951-0.616,1.742
		c-0.41,0.791-0.903,1.598-1.479,2.422s-1.228,1.699-1.956,2.627c-1.151,1.469-2.257,2.789-3.316,3.963
		c-0.007,0.078-0.034,0.225-0.084,0.441c-0.05,0.215-0.075,0.432-0.075,0.648c0,0.221,0.102,0.416,0.303,0.592
		c0.202,0.176,0.452,0.264,0.75,0.264s0.617-0.105,0.958-0.318c0.341-0.211,0.638-0.447,0.89-0.705
		c0.661-0.682,1.072-1.023,1.23-1.023c0.159,0,0.238,0.242,0.238,0.727v0.197c0,0.258-0.046,0.447-0.139,0.566
		c-0.557,0.682-1.182,1.189-1.877,1.523c-0.695,0.336-1.354,0.502-1.976,0.502s-1.096-0.189-1.42-0.57
		c-0.325-0.381-0.487-0.902-0.487-1.564c0-1.291,0.346-2.809,1.038-4.553s1.472-3.229,2.339-4.453
		c1.953-2.766,3.445-4.15,4.478-4.15C86.723,7.5,87.003,7.594,87.244,7.783z M85.959,9.148c0-0.1-0.033-0.148-0.1-0.148
		c-0.231,0-0.841,0.662-1.827,1.984c-0.986,1.324-1.7,2.381-2.14,3.168c-0.44,0.789-0.855,1.777-1.246,2.969
		c0.781-0.926,1.861-2.371,3.242-4.334C85.269,10.824,85.959,9.611,85.959,9.148z"/>
</g>
</svg>
