<?xml version="1.0" encoding="utf-8"?>
<!-- Generator: Adobe Illustrator 15.0.0, SVG Export Plug-In . SVG Version: 6.00 Build 0)  -->
<!DOCTYPE svg PUBLIC "-//W3C//DTD SVG 1.1//EN" "http://www.w3.org/Graphics/SVG/1.1/DTD/svg11.dtd">
<svg version="1.1" xmlns="http://www.w3.org/2000/svg" xmlns:xlink="http://www.w3.org/1999/xlink" x="0px" y="0px"
	 width="100px" height="95.103px" viewBox="0 0.597 100 95.103" enable-background="new 0 0.597 100 95.103" xml:space="preserve">
	 <linearGradient class="linearGradient" x1="0%" y1="0%" x2="0%" y2="100%" gradientTransform="translate(0.5,0.5) rotate(0) translate(-0.5,-0.5)">
		<stop id="stop1" offset="0%" class="linearGradientColor1" stop-color="#05a" />
		<stop id="stop2" offset="100%" class="linearGradientColor2" stop-color="#0a5"/>
	</linearGradient>

	<radialGradient class="radialGradient" cx="50%" cy="50%" r="50%" fx="50%" fy="50%">
		<stop offset="0%" class="radialGradientColor1" stop-color="#05a"/>
		<stop offset="100%" class="radialGradientColor2" stop-color="#0a5"/>
	</radialGradient>
	<clipPath id="f_five_point" class="clipPath">
		<polygon fill="none" stroke="#dddddd" stroke-width="1" stroke-miterlimit="10" points="50,0 65.452,31.305 100,36.325 75,60.694
	80.9,95.102 50,78.858 19.099,95.102 25,60.694 0,36.325 34.549,31.305 "/>
	</clipPath>
	<polygon class="fill-color" fill="#404040" opacity="1" points="50,0.951 65.144,31.63 99,36.551 74.5,60.431 80.282,94.152 50,78.232 19.717,94.152 25.5,60.431
	1,36.551 34.858,31.63 "/>
	<polygon class="stroke-color" fill="none" stroke="#dddddd" stroke-width="0" stroke-miterlimit="10" points="50,0 65.452,31.305 100,36.325 75,60.694
	80.9,95.102 50,78.858 19.099,95.102 25,60.694 0,36.325 34.549,31.305 " clip-path="url(#f_five_point)"/>
</svg>
