<?xml version="1.0" encoding="utf-8"?>
<!-- Generator: Adobe Illustrator 15.0.0, SVG Export Plug-In . SVG Version: 6.00 Build 0)  -->
<!DOCTYPE svg PUBLIC "-//W3C//DTD SVG 1.1//EN" "http://www.w3.org/Graphics/SVG/1.1/DTD/svg11.dtd">
<svg version="1.1" id="图层_1" xmlns="http://www.w3.org/2000/svg" xmlns:xlink="http://www.w3.org/1999/xlink" x="0px" y="0px"
	 width="100px" height="100px" viewBox="0 0 100 100" enable-background="new 0 0 100 100" xml:space="preserve">
<linearGradient class="linearGradient" x1="0%" y1="0%" x2="0%" y2="100%" gradientTransform="translate(0.5,0.5) rotate(0) translate(-0.5,-0.5)">
		<stop id="stop1" offset="0%" class="linearGradientColor1" stop-color="#05a" />
		<stop id="stop2" offset="100%" class="linearGradientColor2" stop-color="#0a5"/>
	</linearGradient>

	<radialGradient class="radialGradient" cx="50%" cy="50%" r="50%" fx="50%" fy="50%">
		<stop offset="0%" class="radialGradientColor1" stop-color="#05a"/>
		<stop offset="100%" class="radialGradientColor2" stop-color="#0a5"/>
	</radialGradient>
	<clipPath id="f_smooth" class="clipPath">
		<path fill="none" stroke="#dddddd" stroke-width="1" stroke-miterlimit="10" d="M98.381,44.758L87.168,34.076V19.393
		c0-3.618-2.585-6.556-5.764-6.556H64.865L52.896,1.439c-2.303-2.189-6.201-1.845-8.688,0.783l-10.13,10.614H18.596
		c-3.18,0-5.763,2.939-5.763,6.556v15.743L1.989,46.532c-2.502,2.615-2.665,6.525-0.371,8.712l11.213,10.681v14.673
		c0,3.616,2.584,6.557,5.762,6.557h16.541L47.1,98.552c2.301,2.2,6.2,1.855,8.687-0.772L65.92,87.154H81.4
		c3.18,0,5.763-2.939,5.763-6.559v-15.74l10.845-11.387C100.514,50.855,100.676,46.945,98.381,44.758z"/>
	</clipPath>

	<path class="fill-color" fill="#404040" opacity="1" d="M97.413,44.863L86.425,34.394V20.005c0-3.546-2.533-6.425-5.648-6.425H64.568L52.839,2.411
	c-2.258-2.145-6.078-1.808-8.515,0.768L34.397,13.58H19.225c-3.116,0-5.647,2.88-5.647,6.425v15.428L2.95,46.601
	c-2.453,2.563-2.612,6.394-0.364,8.538l10.989,10.467v14.38c0,3.543,2.532,6.425,5.646,6.425h16.21l11.727,11.17
	c2.255,2.156,6.076,1.818,8.514-0.757l9.93-10.413h15.171c3.116,0,5.647-2.881,5.647-6.427V64.558l10.628-11.16
	C99.503,50.838,99.662,47.006,97.413,44.863z"/>

	<path class="stroke-color" fill="none" stroke="#dddddd" stroke-width="0" stroke-miterlimit="10" d="M98.381,44.758L87.168,34.076V19.393
		c0-3.618-2.585-6.556-5.764-6.556H64.865L52.896,1.439c-2.303-2.189-6.201-1.845-8.688,0.783l-10.13,10.614H18.596
		c-3.18,0-5.763,2.939-5.763,6.556v15.743L1.989,46.532c-2.502,2.615-2.665,6.525-0.371,8.712l11.213,10.681v14.673
		c0,3.616,2.584,6.557,5.762,6.557h16.541L47.1,98.552c2.301,2.2,6.2,1.855,8.687-0.772L65.92,87.154H81.4
		c3.18,0,5.763-2.939,5.763-6.559v-15.74l10.845-11.387C100.514,50.855,100.676,46.945,98.381,44.758z" clip-path="url(#f_smooth)"/>

</svg>
