<svg version="1.1" id="图层_1" x="0px" y="0px" width="100px" height="100px" viewBox="0 0 100 100" enable-background="new 0 0 100 100" xml:space="preserve" xmlns="http://www.w3.org/2000/svg" xmlns:xlink="http://www.w3.org/1999/xlink" xmlns:xml="http://www.w3.org/XML/1998/namespace">
  <path fill="#404040" d="M87.168,34.076V19.393c0-3.618-2.585-6.556-5.764-6.556H64.865L52.896,1.439
	c-2.304-2.189-6.202-1.845-8.688,0.783l-10.13,10.614H18.596c-3.18,0-5.763,2.939-5.763,6.556v15.743L1.989,46.532
	c-2.502,2.615-2.665,6.524-0.371,8.712l11.213,10.681v14.673c0,3.616,2.584,6.557,5.762,6.557h16.541L47.1,98.552
	c2.301,2.2,6.2,1.855,8.687-0.772L65.92,87.154H81.4c3.18,0,5.763-2.939,5.763-6.559v-15.74l10.845-11.388
	c2.506-2.612,2.668-6.523,0.373-8.71L87.168,34.076z M94.387,50.02L82.163,62.855v17.74c0,1.006-0.573,1.559-0.763,1.559H63.779
	L52.155,94.342c-0.632,0.669-1.437,0.75-1.606,0.59L37.134,82.154H18.593c-0.189,0-0.762-0.552-0.762-1.557V63.782L5.069,51.626
	c-0.032-0.03-0.065-0.14-0.069-0.289c-0.004-0.165,0.028-0.749,0.612-1.358l12.221-12.845V19.392c0-1.004,0.573-1.556,0.763-1.556
	h17.622L47.84,5.659c0.636-0.672,1.475-0.726,1.608-0.599l13.417,12.777h18.539c0.19,0,0.764,0.552,0.764,1.556v16.826
	l12.764,12.159c0.031,0.03,0.065,0.138,0.068,0.288C95.004,48.829,94.972,49.411,94.387,50.02z" class="color c1"/>
</svg>