<svg version="1.1" id="图层_1" x="0px" y="0px" width="100px" height="86.729px" viewBox="0 0 100 86.729" enable-background="new 0 0 100 86.729" xml:space="preserve" xmlns="http://www.w3.org/2000/svg" xmlns:xlink="http://www.w3.org/1999/xlink" xmlns:xml="http://www.w3.org/XML/1998/namespace">
  <path fill="#404040" d="M97.543,22.571L52.506,0.501C51.854,0.182,50.943,0,50,0c-0.943,0-1.856,0.183-2.505,0.5L2.457,22.571
	C1.127,23.224,0,25.026,0,26.509v33.729c0,1.487,1.127,3.292,2.457,3.943l45.04,22.068c1.301,0.64,3.708,0.64,5.011,0L97.543,64.18
	c1.332-0.651,2.457-2.455,2.457-3.943V26.509C100,25.028,98.873,23.225,97.543,22.571z M95,59.858L50.441,81.695
	c-0.164,0.029-0.713,0.029-0.876,0L5,59.859V26.892L49.597,5.038c0.142-0.03,0.666-0.03,0.804,0L95,26.892V59.858z" class="color c1"/>
</svg>