<?xml version="1.0" encoding="utf-8"?>
<!-- Generator: Adobe Illustrator 16.0.0, SVG Export Plug-In . SVG Version: 6.00 Build 0)  -->
<!DOCTYPE svg PUBLIC "-//W3C//DTD SVG 1.1//EN" "http://www.w3.org/Graphics/SVG/1.1/DTD/svg11.dtd">
<svg version="1.1" id="图层_1" xmlns="http://www.w3.org/2000/svg" xmlns:xlink="http://www.w3.org/1999/xlink" x="0px" y="0px"
	 width="258px" height="36px" viewBox="0 0 258 36" enable-background="new 0 0 258 36" xml:space="preserve">
<g>
	<path fill="#545454" d="M20.573,22.187h1.116l-0.316-1.47h-2.512l-0.298,1.47h1.117v3.053h-6.365v-3.053h0.744l3.146-11.427h6.774
		l3.145,11.427h0.745v3.053h-7.295V22.187z M19.271,18.744h1.712l-0.763-3.722h-0.187L19.271,18.744z"/>
	<path fill="#545454" d="M28.315,10.76h5.098v11.427h0.82v3.053h-5.918v-3.053h0.818v-8.374h-0.818V10.76z"/>
	<path fill="#545454" d="M34.753,14.892h0.857c0-1.501,0.372-2.609,1.116-3.322c0.745-0.714,1.817-1.07,3.22-1.07
		c0.533,0,1.029,0.046,1.488,0.139s0.844,0.208,1.154,0.345v2.922c-0.311-0.038-0.568-0.062-0.772-0.075
		c-0.204-0.012-0.431-0.018-0.679-0.018c-0.484,0-0.818,0.081-1.006,0.242c-0.186,0.162-0.279,0.44-0.279,0.837h1.452v3.052h-1.452
		v4.243h1.452v3.053h-6.552v-3.053h0.82v-4.243h-0.82V14.892z"/>
	<path fill="#545454" d="M48.341,23.974c-0.113,0.149-0.262,0.314-0.447,0.494c-0.187,0.179-0.413,0.344-0.68,0.494
		c-0.268,0.148-0.577,0.275-0.931,0.381c-0.354,0.104-0.754,0.158-1.2,0.158c-1.079,0-1.924-0.249-2.531-0.744
		c-0.607-0.497-0.912-1.216-0.912-2.159c0-1.179,0.549-2.068,1.646-2.67c1.1-0.602,2.783-0.903,5.055-0.903
		c0-0.346-0.113-0.614-0.336-0.799c-0.223-0.187-0.684-0.279-1.378-0.279c-0.743,0-1.491,0.056-2.241,0.167
		c-0.752,0.112-1.443,0.236-2.076,0.372v-3.201c0.633-0.173,1.408-0.326,2.326-0.456c0.918-0.13,1.861-0.195,2.83-0.195
		c0.992,0,1.819,0.093,2.484,0.28c0.662,0.186,1.193,0.468,1.59,0.846c0.397,0.379,0.677,0.851,0.838,1.415s0.242,1.219,0.242,1.963
		v3.052h0.818v3.053h-5.098V23.974z M48.341,20.884c-0.77,0-1.322,0.053-1.657,0.159s-0.503,0.288-0.503,0.549
		c0,0.396,0.342,0.595,1.023,0.595c0.757,0,1.137-0.397,1.137-1.191V20.884z"/>
	<path fill="#545454" d="M65.033,21.908c0.41,0,0.701-0.062,0.875-0.186s0.26-0.31,0.26-0.559c0-0.173-0.07-0.326-0.213-0.456
		s-0.432-0.281-0.865-0.456c-0.919-0.348-1.722-0.68-2.41-0.996c-0.688-0.315-1.26-0.666-1.713-1.051
		c-0.453-0.384-0.791-0.834-1.014-1.35c-0.223-0.514-0.335-1.137-0.335-1.87c0-0.695,0.108-1.318,0.325-1.871
		c0.217-0.552,0.57-1.023,1.061-1.414c0.491-0.391,1.143-0.689,1.955-0.894s1.814-0.307,3.005-0.307
		c1.079,0,2.097,0.108,3.053,0.326c0.955,0.217,1.749,0.505,2.382,0.865v3.332H67.49c0-0.36-0.1-0.605-0.297-0.735
		c-0.199-0.13-0.441-0.195-0.727-0.195c-0.409,0-0.704,0.053-0.885,0.158c-0.18,0.106-0.27,0.289-0.27,0.549
		c0,0.21,0.096,0.366,0.289,0.465c0.191,0.099,0.48,0.211,0.865,0.335c0.719,0.236,1.398,0.484,2.037,0.744
		c0.639,0.261,1.201,0.583,1.686,0.968c0.482,0.385,0.865,0.85,1.145,1.396c0.278,0.546,0.418,1.216,0.418,2.01
		c0,1.613-0.521,2.813-1.563,3.601c-1.043,0.789-2.568,1.182-4.578,1.182c-1.143,0-2.24-0.099-3.295-0.297s-1.898-0.434-2.531-0.708
		V20.81h4.095c0,0.373,0.075,0.649,0.224,0.829C64.251,21.819,64.562,21.908,65.033,21.908z"/>
	<path fill="#545454" d="M72.31,10.76h5.1v11.427h0.818v3.053H72.31v-3.053h0.818v-8.374H72.31V10.76z"/>
	<path fill="#545454" d="M85.263,23.974c-0.111,0.149-0.261,0.314-0.447,0.494c-0.186,0.179-0.412,0.344-0.68,0.494
		c-0.266,0.148-0.576,0.275-0.93,0.381c-0.354,0.104-0.754,0.158-1.2,0.158c-1.08,0-1.923-0.249-2.531-0.744
		c-0.608-0.497-0.912-1.216-0.912-2.159c0-1.179,0.549-2.068,1.646-2.67c1.099-0.602,2.782-0.903,5.054-0.903
		c0-0.346-0.111-0.614-0.336-0.799c-0.223-0.187-0.682-0.279-1.377-0.279c-0.744,0-1.492,0.056-2.242,0.167
		s-1.442,0.236-2.074,0.372v-3.201c0.632-0.173,1.406-0.326,2.325-0.456c0.919-0.13,1.861-0.195,2.829-0.195
		c0.992,0,1.82,0.093,2.484,0.28c0.664,0.186,1.194,0.468,1.591,0.846c0.397,0.379,0.677,0.851,0.839,1.415
		c0.16,0.564,0.241,1.219,0.241,1.963v3.052h0.818v3.053h-5.099V23.974z M85.263,20.884c-0.77,0-1.322,0.053-1.656,0.159
		c-0.336,0.105-0.503,0.288-0.503,0.549c0,0.396,0.341,0.595,1.022,0.595c0.758,0,1.137-0.397,1.137-1.191V20.884z"/>
	<path fill="#545454" d="M95.982,16.158c0.112-0.149,0.258-0.314,0.438-0.494s0.395-0.344,0.643-0.493
		c0.248-0.148,0.521-0.275,0.818-0.382c0.299-0.104,0.627-0.158,0.986-0.158c1.291,0,2.249,0.475,2.875,1.424
		c0.627,0.949,0.94,2.285,0.94,4.01c0,1.724-0.313,3.062-0.94,4.01c-0.626,0.949-1.584,1.424-2.875,1.424
		c-0.359,0-0.688-0.053-0.986-0.158c-0.297-0.106-0.57-0.233-0.818-0.381c-0.248-0.149-0.463-0.314-0.643-0.494
		s-0.325-0.344-0.438-0.494v1.266h-5.099v-3.053h0.818v-8.374h-0.818V10.76h5.099V16.158z M98.141,19.135
		c0-0.421-0.091-0.726-0.27-0.911c-0.181-0.187-0.45-0.279-0.81-0.279s-0.631,0.093-0.81,0.279c-0.181,0.186-0.271,0.49-0.271,0.911
		v1.861c0,0.422,0.09,0.726,0.271,0.912c0.179,0.186,0.45,0.279,0.81,0.279s0.629-0.093,0.81-0.279
		c0.179-0.186,0.27-0.49,0.27-0.912V19.135z"/>
	<path fill="#545454" d="M123.079,18c0,1.365-0.167,2.522-0.502,3.471c-0.335,0.949-0.81,1.722-1.425,2.317
		c-0.613,0.595-1.361,1.03-2.242,1.303s-1.861,0.409-2.939,0.409c-1.08,0-2.061-0.136-2.941-0.409s-1.627-0.708-2.242-1.303
		c-0.615-0.596-1.089-1.368-1.424-2.317c-0.335-0.949-0.502-2.105-0.502-3.471c0-1.352,0.167-2.506,0.502-3.461
		s0.809-1.731,1.424-2.327c0.615-0.595,1.361-1.029,2.242-1.302c0.881-0.273,1.861-0.409,2.941-0.409
		c1.078,0,2.059,0.136,2.939,0.409c0.881,0.273,1.629,0.708,2.242,1.302c0.615,0.596,1.09,1.372,1.425,2.327
		S123.079,16.648,123.079,18z M115.97,22.187c0.421,0,0.737-0.108,0.948-0.325c0.212-0.217,0.317-0.568,0.317-1.052V15.19
		c0-0.484-0.105-0.834-0.317-1.052c-0.211-0.217-0.527-0.325-0.948-0.325c-0.422,0-0.738,0.108-0.949,0.325
		c-0.212,0.218-0.316,0.568-0.316,1.052v5.619c0,0.484,0.104,0.835,0.316,1.052C115.232,22.079,115.548,22.187,115.97,22.187z"/>
	<path fill="#545454" d="M130.076,22.187h0.818v-3.052c0-0.421-0.09-0.726-0.27-0.911c-0.18-0.187-0.449-0.279-0.809-0.279
		s-0.631,0.093-0.811,0.279c-0.18,0.186-0.27,0.49-0.27,0.911v3.052h0.82v3.053h-5.92v-3.053h0.819v-4.243h-0.819v-3.052h5.1v1.266
		c0.148-0.149,0.316-0.314,0.502-0.494c0.188-0.18,0.406-0.344,0.662-0.493c0.254-0.148,0.541-0.275,0.865-0.382
		c0.322-0.104,0.695-0.158,1.115-0.158c1.018,0,1.822,0.363,2.41,1.088c0.59,0.726,0.885,1.865,0.885,3.415v3.052h0.818v3.053
		h-5.918V22.187z"/>
	<path fill="#545454" d="M141.633,14.631c0.957,0,1.75,0.14,2.383,0.419s1.143,0.642,1.525,1.088
		c0.387,0.447,0.654,0.956,0.811,1.527c0.154,0.57,0.232,1.147,0.232,1.73v1.34h-6.029v0.112c0,0.446,0.127,0.782,0.381,1.005
		s0.717,0.334,1.387,0.334c0.818,0,1.57-0.061,2.252-0.185c0.682-0.125,1.246-0.262,1.693-0.41v2.978
		c-0.223,0.112-0.48,0.22-0.771,0.326c-0.293,0.105-0.623,0.205-0.996,0.297c-0.373,0.093-0.795,0.168-1.266,0.223
		c-0.473,0.057-1.004,0.084-1.602,0.084c-0.855,0-1.631-0.112-2.326-0.334c-0.695-0.224-1.287-0.562-1.777-1.015
		c-0.49-0.452-0.865-1.017-1.125-1.693c-0.26-0.676-0.391-1.473-0.391-2.391c0-0.905,0.131-1.7,0.391-2.382s0.635-1.25,1.125-1.702
		c0.49-0.453,1.082-0.791,1.777-1.015C140.002,14.743,140.777,14.631,141.633,14.631z M141.633,17.944
		c-0.359,0-0.629,0.093-0.809,0.279c-0.18,0.186-0.27,0.49-0.27,0.911v0.112h2.158v-0.112c0-0.421-0.09-0.726-0.27-0.911
		C142.264,18.037,141.994,17.944,141.633,17.944z"/>
</g>
</svg>
