<?xml version="1.0" encoding="utf-8"?>
<!-- Generator: Adobe Illustrator 16.0.0, SVG Export Plug-In . SVG Version: 6.00 Build 0)  -->
<!DOCTYPE svg PUBLIC "-//W3C//DTD SVG 1.1//EN" "http://www.w3.org/Graphics/SVG/1.1/DTD/svg11.dtd">
<svg version="1.1" id="图层_1" xmlns="http://www.w3.org/2000/svg" xmlns:xlink="http://www.w3.org/1999/xlink" x="0px" y="0px"
	 width="258px" height="36px" viewBox="0 0 258 36" enable-background="new 0 0 258 36" xml:space="preserve">
<g>
	<path fill="#545454" d="M29.77,25.735h-5.068l-0.635-2.105h-5.217l-0.635,2.105h-4.899l5.449-14.91h5.566L29.77,25.735z
		 M21.421,14.984l-1.577,5.312h3.228l-1.556-5.312H21.421z"/>
	<path fill="#545454" d="M38.754,14.053c0.155,0.029,0.289,0.061,0.402,0.095c0.127,0.036,0.239,0.078,0.339,0.127v3.619h-1.387
		c-0.466,0-0.86,0.062-1.185,0.185c-0.325,0.124-0.588,0.303-0.789,0.54s-0.346,0.525-0.434,0.867
		c-0.089,0.342-0.133,0.729-0.133,1.159v5.09h-4.307V14.296h3.535l0.275,1.725c0.133-0.338,0.31-0.635,0.528-0.889
		c0.218-0.254,0.464-0.464,0.735-0.629s0.568-0.289,0.889-0.371c0.321-0.081,0.651-0.122,0.99-0.122
		C38.419,14.011,38.599,14.025,38.754,14.053z"/>
	<path fill="#545454" d="M49.627,14.301c0.766,0.18,1.434,0.466,2.006,0.857c0.571,0.392,1.021,0.896,1.349,1.513
		c0.328,0.618,0.492,1.363,0.492,2.238h-4.181c0-0.677-0.185-1.171-0.555-1.481s-0.895-0.466-1.571-0.466
		c-0.382,0-0.706,0.057-0.974,0.169c-0.269,0.113-0.486,0.275-0.656,0.487c-0.169,0.212-0.295,0.467-0.375,0.767
		c-0.082,0.3-0.122,0.641-0.122,1.021v1.238c0,0.755,0.171,1.348,0.513,1.778c0.342,0.429,0.908,0.646,1.699,0.646
		c0.705,0,1.25-0.155,1.635-0.467c0.384-0.31,0.576-0.816,0.576-1.523h4.011c0,0.867-0.164,1.615-0.492,2.238
		c-0.328,0.625-0.777,1.135-1.349,1.529c-0.572,0.396-1.24,0.687-2.006,0.873S48.041,26,47.167,26c-0.974,0-1.857-0.124-2.651-0.37
		c-0.793-0.247-1.471-0.62-2.031-1.116c-0.561-0.498-0.993-1.121-1.297-1.874c-0.303-0.75-0.455-1.628-0.455-2.63
		c0-1,0.152-1.875,0.455-2.624c0.304-0.748,0.736-1.37,1.297-1.868s1.238-0.869,2.031-1.116c0.794-0.247,1.678-0.371,2.651-0.371
		C48.041,14.032,48.861,14.122,49.627,14.301z"/>
	<path fill="#545454" d="M59.643,15.481c0.459-0.458,0.998-0.814,1.619-1.069c0.621-0.254,1.273-0.381,1.958-0.381
		c0.677,0,1.267,0.097,1.768,0.291c0.5,0.194,0.915,0.475,1.243,0.841c0.328,0.367,0.572,0.816,0.735,1.349
		c0.162,0.533,0.243,1.138,0.243,1.815v7.407h-4.307v-6.889c0-0.479-0.121-0.871-0.365-1.175c-0.244-0.303-0.608-0.455-1.096-0.455
		c-0.268,0-0.513,0.048-0.734,0.143c-0.223,0.095-0.414,0.226-0.572,0.392c-0.158,0.166-0.28,0.358-0.365,0.577
		c-0.084,0.219-0.127,0.448-0.127,0.688v6.719h-4.307V10.021h4.307V15.481z"/>
	<path fill="#545454" d="M74.257,12.952h-4.317v-2.931h4.317V12.952z M74.257,25.735h-4.317V14.296h4.317V25.735z"/>
	<path fill="#545454" d="M84.574,25.735h-4.529l-4.338-11.439h4.635l2.105,7.122h0.148l2.105-7.122h4.244L84.574,25.735z"/>
	<path fill="#545454" d="M98.257,14.402c0.797,0.247,1.476,0.619,2.037,1.116c0.561,0.498,0.995,1.12,1.302,1.868
		c0.307,0.748,0.46,1.623,0.46,2.624c0,1.002-0.153,1.88-0.46,2.63c-0.307,0.753-0.741,1.376-1.302,1.874
		c-0.562,0.496-1.24,0.869-2.037,1.116C97.459,25.876,96.574,26,95.601,26s-1.856-0.124-2.651-0.37
		c-0.793-0.247-1.471-0.62-2.031-1.116c-0.561-0.498-0.993-1.121-1.297-1.874c-0.303-0.75-0.454-1.628-0.454-2.63
		c0-1,0.151-1.875,0.454-2.624c0.304-0.748,0.736-1.37,1.297-1.868s1.238-0.869,2.031-1.116c0.795-0.247,1.678-0.371,2.651-0.371
		S97.459,14.155,98.257,14.402z M94.627,17.132c-0.268,0.113-0.486,0.275-0.656,0.487c-0.169,0.212-0.295,0.467-0.375,0.767
		c-0.082,0.3-0.122,0.641-0.122,1.021v1.238c0,0.381,0.04,0.722,0.122,1.021c0.08,0.3,0.206,0.555,0.375,0.763
		c0.17,0.208,0.389,0.367,0.656,0.477s0.593,0.164,0.974,0.164c0.755,0,1.302-0.217,1.64-0.646c0.34-0.431,0.509-1.023,0.509-1.778
		v-1.238c0-0.38-0.041-0.721-0.122-1.021c-0.081-0.3-0.21-0.555-0.387-0.767c-0.176-0.212-0.398-0.374-0.666-0.487
		c-0.268-0.113-0.593-0.169-0.974-0.169S94.895,17.02,94.627,17.132z"/>
	<path fill="#545454" d="M121.601,10.825c0.564,0,1.095,0.09,1.593,0.27c0.497,0.18,0.933,0.432,1.307,0.757
		c0.374,0.324,0.67,0.711,0.889,1.159s0.328,0.94,0.328,1.476c0,0.543-0.066,1.01-0.201,1.402c-0.134,0.392-0.316,0.725-0.545,1
		c-0.229,0.275-0.494,0.498-0.793,0.667c-0.301,0.169-0.619,0.303-0.958,0.402v0.085c0.388,0.084,0.753,0.215,1.096,0.391
		c0.342,0.177,0.642,0.413,0.899,0.709c0.257,0.296,0.461,0.66,0.613,1.089c0.151,0.432,0.228,0.942,0.228,1.535
		c0,0.592-0.113,1.134-0.339,1.625c-0.226,0.49-0.534,0.908-0.926,1.253c-0.391,0.346-0.851,0.613-1.375,0.804
		c-0.526,0.191-1.089,0.286-1.688,0.286h-10.054v-14.91H121.601z M116.457,14.095v2.54h3.292c0.155,0,0.302-0.03,0.438-0.09
		c0.139-0.06,0.256-0.143,0.355-0.249c0.098-0.106,0.176-0.231,0.232-0.376c0.057-0.144,0.084-0.298,0.084-0.46v-0.212
		c0-0.155-0.029-0.303-0.09-0.444c-0.06-0.141-0.139-0.265-0.237-0.371c-0.1-0.105-0.216-0.188-0.35-0.249
		c-0.134-0.06-0.278-0.09-0.434-0.09H116.457z M116.457,19.714v2.551h3.641c0.155,0,0.303-0.03,0.439-0.091
		c0.138-0.059,0.256-0.14,0.354-0.242c0.099-0.102,0.177-0.224,0.233-0.365c0.057-0.141,0.084-0.296,0.084-0.466v-0.222
		c0-0.163-0.027-0.314-0.084-0.455s-0.135-0.265-0.233-0.37c-0.099-0.107-0.217-0.189-0.354-0.25c-0.137-0.06-0.284-0.09-0.439-0.09
		H116.457z"/>
	<path fill="#545454" d="M132.69,25.735h-4.317V10.021h4.317V25.735z"/>
	<path fill="#545454" d="M143.342,14.217c0.715,0.124,1.348,0.33,1.895,0.619c0.546,0.29,0.979,0.672,1.301,1.148
		c0.32,0.477,0.481,1.067,0.481,1.772v4.466c0,0.239,0.055,0.44,0.164,0.603c0.109,0.163,0.284,0.244,0.524,0.244h0.782v2.497
		c-0.162,0.084-0.356,0.159-0.581,0.223c-0.191,0.056-0.428,0.105-0.71,0.147S146.596,26,146.236,26
		c-0.875,0-1.576-0.131-2.102-0.392s-0.887-0.61-1.084-1.048c-0.24,0.19-0.502,0.372-0.783,0.546
		c-0.282,0.173-0.597,0.325-0.941,0.46c-0.347,0.134-0.726,0.239-1.139,0.316c-0.412,0.078-0.869,0.117-1.37,0.117
		c-0.593,0-1.138-0.055-1.635-0.164s-0.923-0.291-1.274-0.545c-0.354-0.254-0.629-0.585-0.826-0.995
		c-0.197-0.408-0.297-0.913-0.297-1.513c0-0.854,0.179-1.546,0.535-2.079c0.355-0.533,0.873-0.947,1.55-1.244
		c0.678-0.296,1.507-0.496,2.487-0.598s2.096-0.154,3.344-0.154v-0.561c0-0.232-0.044-0.435-0.133-0.608
		c-0.088-0.172-0.206-0.313-0.354-0.423c-0.148-0.109-0.325-0.191-0.529-0.249c-0.205-0.056-0.424-0.084-0.656-0.084
		c-0.19,0-0.383,0.016-0.576,0.048c-0.195,0.032-0.371,0.086-0.529,0.164c-0.159,0.078-0.288,0.18-0.387,0.307
		c-0.099,0.127-0.148,0.286-0.148,0.476v0.096h-4.254c-0.014-0.057-0.021-0.107-0.021-0.153s0-0.097,0-0.153
		c0-0.529,0.127-1.011,0.382-1.445c0.254-0.434,0.633-0.805,1.138-1.116c0.504-0.311,1.128-0.55,1.873-0.72
		c0.744-0.169,1.606-0.254,2.587-0.254C141.876,14.032,142.625,14.094,143.342,14.217z M142.701,20.751
		c-0.643,0-1.19,0.038-1.646,0.111c-0.455,0.074-0.827,0.177-1.116,0.308s-0.501,0.285-0.635,0.465
		c-0.135,0.18-0.201,0.375-0.201,0.588c0,0.226,0.042,0.41,0.127,0.55c0.085,0.142,0.195,0.251,0.334,0.328
		c0.137,0.078,0.293,0.132,0.47,0.164c0.177,0.031,0.356,0.048,0.54,0.048c0.275,0,0.541-0.039,0.799-0.117
		c0.258-0.077,0.484-0.187,0.683-0.328c0.197-0.141,0.354-0.309,0.471-0.502c0.116-0.194,0.175-0.407,0.175-0.64V20.751z"/>
	<path fill="#545454" d="M158.273,14.301c0.764,0.18,1.434,0.466,2.005,0.857s1.021,0.896,1.35,1.513
		c0.327,0.618,0.491,1.363,0.491,2.238h-4.18c0-0.677-0.186-1.171-0.557-1.481c-0.369-0.311-0.893-0.466-1.57-0.466
		c-0.381,0-0.706,0.057-0.974,0.169c-0.269,0.113-0.487,0.275-0.656,0.487s-0.295,0.467-0.376,0.767
		c-0.081,0.3-0.121,0.641-0.121,1.021v1.238c0,0.755,0.17,1.348,0.513,1.778c0.343,0.429,0.908,0.646,1.698,0.646
		c0.705,0,1.25-0.155,1.636-0.467c0.384-0.31,0.576-0.816,0.576-1.523h4.011c0,0.867-0.164,1.615-0.491,2.238
		c-0.329,0.625-0.778,1.135-1.35,1.529c-0.571,0.396-1.241,0.687-2.005,0.873c-0.768,0.187-1.587,0.28-2.461,0.28
		c-0.974,0-1.857-0.124-2.65-0.37c-0.794-0.247-1.472-0.62-2.032-1.116c-0.562-0.498-0.993-1.121-1.296-1.874
		c-0.305-0.75-0.455-1.628-0.455-2.63c0-1,0.15-1.875,0.455-2.624c0.303-0.748,0.734-1.37,1.296-1.868
		c0.561-0.498,1.238-0.869,2.032-1.116c0.793-0.247,1.677-0.371,2.65-0.371C156.687,14.032,157.506,14.122,158.273,14.301z"/>
	<path fill="#545454" d="M168.289,18.667l3.672-4.371h5.026l-4.233,4.614l4.339,6.825h-4.899l-2.402-3.926l-1.502,1.461v2.465
		h-4.308V10h4.308V18.667z"/>
</g>
</svg>
