<?xml version="1.0" encoding="utf-8"?>
<!-- Generator: Adobe Illustrator 16.0.0, SVG Export Plug-In . SVG Version: 6.00 Build 0)  -->
<!DOCTYPE svg PUBLIC "-//W3C//DTD SVG 1.1//EN" "http://www.w3.org/Graphics/SVG/1.1/DTD/svg11.dtd">
<svg version="1.1" id="图层_1" xmlns="http://www.w3.org/2000/svg" xmlns:xlink="http://www.w3.org/1999/xlink" x="0px" y="0px"
	 width="258px" height="36px" viewBox="0 0 258 36" enable-background="new 0 0 258 36" xml:space="preserve">
<g>
	<path fill="#545454" d="M19.216,26.5c-0.285,0-0.62-0.01-1.004-0.024c-0.385-0.018-0.783-0.051-1.192-0.102
		c-0.411-0.05-0.816-0.113-1.218-0.188c-0.402-0.074-0.77-0.179-1.105-0.313c-0.92-0.352-1.381-0.962-1.381-1.834V12.313
		c0-0.352,0.096-0.624,0.289-0.816s0.457-0.347,0.791-0.464c0.569-0.201,1.281-0.348,2.135-0.44
		c0.854-0.092,1.732-0.138,2.636-0.138c2.143,0,3.792,0.36,4.947,1.08c1.155,0.72,1.733,1.833,1.733,3.339
		c0,0.754-0.218,1.403-0.653,1.947c-0.436,0.544-1.021,0.94-1.758,1.192c0.837,0.234,1.535,0.66,2.097,1.281
		c0.561,0.618,0.841,1.396,0.841,2.335c0,1.656-0.615,2.883-1.846,3.678C23.297,26.103,21.527,26.5,19.216,26.5z M17.584,16.833
		h1.833c0.719,0,1.243-0.134,1.569-0.403c0.326-0.267,0.49-0.66,0.49-1.179c0-0.452-0.189-0.813-0.565-1.08
		c-0.377-0.268-0.942-0.402-1.695-0.402c-0.251,0-0.54,0.009-0.866,0.026c-0.326,0.017-0.582,0.041-0.766,0.074V16.833z
		 M17.584,22.959c0.234,0.067,0.536,0.113,0.904,0.139c0.368,0.024,0.719,0.037,1.055,0.037c0.669,0,1.226-0.137,1.67-0.414
		c0.443-0.276,0.665-0.707,0.665-1.292c0-0.554-0.185-0.947-0.552-1.182c-0.368-0.234-0.929-0.352-1.683-0.352h-2.059V22.959z"/>
	<path fill="#545454" d="M33.555,13.518c0.903,0,1.728,0.093,2.473,0.277c0.745,0.183,1.381,0.464,1.908,0.84
		c0.527,0.377,0.934,0.854,1.219,1.432c0.283,0.577,0.426,1.259,0.426,2.046v5.625c0,0.436-0.121,0.791-0.363,1.067
		s-0.531,0.515-0.867,0.716c-1.088,0.652-2.619,0.979-4.595,0.979c-0.888,0-1.687-0.084-2.397-0.251
		c-0.712-0.168-1.322-0.419-1.834-0.753c-0.51-0.335-0.904-0.763-1.18-1.281c-0.276-0.519-0.414-1.121-0.414-1.808
		c0-1.156,0.343-2.043,1.029-2.661c0.686-0.621,1.749-1.005,3.189-1.156l3.289-0.352v-0.175c0-0.486-0.213-0.834-0.641-1.043
		c-0.427-0.209-1.042-0.313-1.846-0.313c-0.637,0-1.255,0.066-1.857,0.2c-0.603,0.135-1.146,0.301-1.633,0.503
		c-0.217-0.15-0.401-0.381-0.553-0.69c-0.15-0.31-0.226-0.632-0.226-0.968c0-0.435,0.104-0.781,0.313-1.042
		c0.209-0.259,0.531-0.48,0.967-0.665c0.486-0.185,1.059-0.317,1.721-0.401C32.345,13.56,32.969,13.518,33.555,13.518z
		 M33.755,23.386c0.284,0,0.599-0.028,0.941-0.088c0.343-0.059,0.599-0.138,0.767-0.238v-2.009l-1.809,0.151
		c-0.469,0.033-0.854,0.134-1.154,0.301c-0.302,0.167-0.453,0.418-0.453,0.753c0,0.336,0.131,0.607,0.39,0.816
		C32.696,23.281,33.136,23.386,33.755,23.386z"/>
	<path fill="#545454" d="M46.535,26.072c-0.184,0.034-0.455,0.08-0.814,0.139c-0.361,0.059-0.725,0.088-1.094,0.088
		c-0.368,0-0.699-0.024-0.991-0.075c-0.294-0.051-0.54-0.151-0.741-0.302s-0.355-0.354-0.465-0.615
		c-0.108-0.259-0.162-0.598-0.162-1.017V9.726c0.184-0.032,0.455-0.078,0.816-0.138C43.443,9.53,43.807,9.5,44.176,9.5
		c0.367,0,0.698,0.025,0.992,0.076c0.292,0.05,0.539,0.149,0.74,0.302c0.201,0.148,0.355,0.354,0.465,0.613
		c0.108,0.261,0.162,0.6,0.162,1.018V26.072z"/>
	<path fill="#545454" d="M61.854,19.996c0,1.038-0.16,1.963-0.478,2.775c-0.317,0.812-0.766,1.493-1.343,2.046
		c-0.578,0.553-1.269,0.972-2.072,1.255c-0.804,0.285-1.699,0.428-2.688,0.428c-0.987,0-1.883-0.15-2.686-0.452
		c-0.805-0.302-1.494-0.732-2.072-1.293c-0.577-0.561-1.025-1.243-1.344-2.047c-0.318-0.803-0.477-1.707-0.477-2.712
		c0-0.988,0.158-1.884,0.477-2.687c0.318-0.804,0.767-1.485,1.344-2.046c0.578-0.561,1.268-0.992,2.072-1.294
		c0.803-0.301,1.698-0.452,2.686-0.452c0.988,0,1.884,0.155,2.688,0.465s1.494,0.745,2.072,1.306
		c0.577,0.561,1.025,1.242,1.343,2.046S61.854,19.025,61.854,19.996z M53.064,19.996c0,1.021,0.197,1.805,0.59,2.348
		c0.394,0.545,0.941,0.816,1.646,0.816c0.702,0,1.242-0.275,1.619-0.829c0.376-0.552,0.565-1.33,0.565-2.335
		c0-1.004-0.193-1.779-0.578-2.323c-0.385-0.543-0.93-0.815-1.633-0.815c-0.702,0-1.246,0.272-1.631,0.815
		C53.257,18.217,53.064,18.992,53.064,19.996z"/>
	<path fill="#545454" d="M76.568,19.996c0,1.038-0.16,1.963-0.478,2.775c-0.318,0.812-0.767,1.493-1.343,2.046
		c-0.578,0.553-1.269,0.972-2.072,1.255c-0.804,0.285-1.699,0.428-2.688,0.428c-0.987,0-1.883-0.15-2.687-0.452
		s-1.493-0.732-2.071-1.293s-1.025-1.243-1.344-2.047c-0.318-0.803-0.477-1.707-0.477-2.712c0-0.988,0.158-1.884,0.477-2.687
		c0.318-0.804,0.766-1.485,1.344-2.046s1.268-0.992,2.071-1.294c0.804-0.301,1.699-0.452,2.687-0.452
		c0.988,0,1.884,0.155,2.688,0.465s1.494,0.745,2.072,1.306c0.576,0.561,1.024,1.242,1.343,2.046
		C76.408,18.138,76.568,19.025,76.568,19.996z M67.779,19.996c0,1.021,0.196,1.805,0.59,2.348c0.394,0.545,0.941,0.816,1.645,0.816
		s1.243-0.275,1.62-0.829c0.376-0.552,0.565-1.33,0.565-2.335c0-1.004-0.193-1.779-0.578-2.323c-0.386-0.543-0.93-0.815-1.633-0.815
		c-0.702,0-1.246,0.272-1.631,0.815C67.972,18.217,67.779,18.992,67.779,19.996z"/>
	<path fill="#545454" d="M83.297,14.396c-0.117-0.184-0.227-0.436-0.326-0.753c-0.101-0.318-0.15-0.653-0.15-1.005
		c0-0.652,0.146-1.121,0.439-1.406c0.292-0.284,0.674-0.427,1.143-0.427H95.35c0.117,0.185,0.227,0.437,0.326,0.754
		c0.102,0.318,0.151,0.652,0.151,1.005c0,0.652-0.147,1.121-0.44,1.405c-0.292,0.285-0.674,0.427-1.142,0.427h-2.787v11.602
		c-0.185,0.05-0.474,0.1-0.866,0.15c-0.395,0.05-0.783,0.075-1.168,0.075s-0.725-0.029-1.017-0.087
		c-0.294-0.06-0.54-0.164-0.741-0.314s-0.352-0.359-0.451-0.628c-0.102-0.268-0.151-0.619-0.151-1.055v-9.743H83.297z"/>
	<path fill="#545454" d="M101.904,13.518c0.904,0,1.728,0.093,2.473,0.277c0.745,0.183,1.381,0.464,1.908,0.84
		c0.527,0.377,0.934,0.854,1.219,1.432c0.284,0.577,0.426,1.259,0.426,2.046v5.625c0,0.436-0.121,0.791-0.363,1.067
		s-0.531,0.515-0.867,0.716c-1.088,0.652-2.619,0.979-4.594,0.979c-0.889,0-1.688-0.084-2.398-0.251
		c-0.712-0.168-1.322-0.419-1.834-0.753c-0.51-0.335-0.903-0.763-1.18-1.281c-0.275-0.519-0.414-1.121-0.414-1.808
		c0-1.156,0.343-2.043,1.029-2.661c0.686-0.621,1.749-1.005,3.189-1.156l3.289-0.352v-0.175c0-0.486-0.213-0.834-0.641-1.043
		c-0.427-0.209-1.041-0.313-1.846-0.313c-0.636,0-1.255,0.066-1.857,0.2c-0.603,0.135-1.146,0.301-1.633,0.503
		c-0.217-0.15-0.401-0.381-0.553-0.69c-0.15-0.31-0.225-0.632-0.225-0.968c0-0.435,0.104-0.781,0.313-1.042
		c0.208-0.259,0.53-0.48,0.966-0.665c0.486-0.185,1.059-0.317,1.721-0.401C100.694,13.56,101.318,13.518,101.904,13.518z
		 M102.105,23.386c0.283,0,0.598-0.028,0.941-0.088c0.343-0.059,0.598-0.138,0.766-0.238v-2.009l-1.809,0.151
		c-0.469,0.033-0.854,0.134-1.154,0.301s-0.452,0.418-0.452,0.753c0,0.336,0.13,0.607,0.39,0.816
		C101.046,23.281,101.485,23.386,102.105,23.386z"/>
	<path fill="#545454" d="M116.393,13.518c0.686,0,1.359,0.097,2.021,0.29c0.66,0.191,1.234,0.48,1.72,0.865
		c0.502-0.335,1.067-0.61,1.694-0.829c0.628-0.217,1.386-0.326,2.273-0.326c0.636,0,1.259,0.084,1.871,0.251
		c0.61,0.168,1.154,0.431,1.631,0.791c0.479,0.36,0.857,0.838,1.143,1.432c0.285,0.595,0.428,1.318,0.428,2.173v7.908
		c-0.168,0.052-0.432,0.101-0.791,0.151c-0.361,0.051-0.732,0.075-1.117,0.075c-0.369,0-0.699-0.024-0.992-0.075
		s-0.541-0.151-0.741-0.302s-0.355-0.354-0.464-0.615c-0.109-0.259-0.164-0.598-0.164-1.017v-6.001c0-0.503-0.143-0.866-0.427-1.093
		c-0.284-0.226-0.669-0.339-1.155-0.339c-0.234,0-0.485,0.055-0.753,0.163c-0.268,0.109-0.469,0.222-0.603,0.339
		c0.017,0.067,0.025,0.131,0.025,0.188c0,0.06,0,0.112,0,0.164v8.36c-0.185,0.052-0.457,0.101-0.816,0.151
		c-0.36,0.051-0.725,0.075-1.092,0.075c-0.369,0-0.699-0.024-0.992-0.075s-0.54-0.151-0.74-0.302
		c-0.201-0.15-0.357-0.354-0.465-0.615c-0.109-0.259-0.164-0.598-0.164-1.017v-6.001c0-0.503-0.154-0.866-0.464-1.093
		c-0.311-0.226-0.683-0.339-1.118-0.339c-0.301,0-0.561,0.046-0.778,0.138c-0.218,0.093-0.401,0.182-0.552,0.265v8.813
		c-0.168,0.052-0.432,0.101-0.791,0.151c-0.36,0.051-0.732,0.075-1.117,0.075c-0.369,0-0.699-0.024-0.992-0.075
		s-0.54-0.151-0.74-0.302c-0.201-0.15-0.357-0.354-0.465-0.615c-0.109-0.259-0.164-0.598-0.164-1.017v-7.583
		c0-0.452,0.097-0.813,0.289-1.08s0.456-0.519,0.791-0.754c0.568-0.4,1.276-0.728,2.122-0.979
		C114.588,13.644,115.471,13.518,116.393,13.518z"/>
	<path fill="#545454" d="M137.636,13.518c0.687,0,1.36,0.097,2.021,0.29c0.661,0.191,1.233,0.48,1.72,0.865
		c0.502-0.335,1.067-0.61,1.695-0.829c0.627-0.217,1.385-0.326,2.272-0.326c0.636,0,1.259,0.084,1.87,0.251
		c0.611,0.168,1.156,0.431,1.633,0.791s0.857,0.838,1.143,1.432c0.283,0.595,0.427,1.318,0.427,2.173v7.908
		c-0.168,0.052-0.431,0.101-0.791,0.151s-0.732,0.075-1.118,0.075c-0.367,0-0.699-0.024-0.991-0.075
		c-0.294-0.051-0.54-0.151-0.741-0.302c-0.2-0.15-0.355-0.354-0.465-0.615c-0.109-0.259-0.162-0.598-0.162-1.017v-6.001
		c0-0.503-0.143-0.866-0.428-1.093c-0.284-0.226-0.67-0.339-1.154-0.339c-0.235,0-0.486,0.055-0.754,0.163
		c-0.268,0.109-0.469,0.222-0.602,0.339c0.016,0.067,0.024,0.131,0.024,0.188c0,0.06,0,0.112,0,0.164v8.36
		c-0.185,0.052-0.456,0.101-0.816,0.151s-0.724,0.075-1.093,0.075c-0.367,0-0.699-0.024-0.991-0.075
		c-0.293-0.051-0.54-0.151-0.741-0.302c-0.2-0.15-0.355-0.354-0.465-0.615c-0.108-0.259-0.162-0.598-0.162-1.017v-6.001
		c0-0.503-0.156-0.866-0.465-1.093c-0.311-0.226-0.682-0.339-1.117-0.339c-0.302,0-0.562,0.046-0.779,0.138
		c-0.217,0.093-0.4,0.182-0.552,0.265v8.813c-0.167,0.052-0.431,0.101-0.791,0.151s-0.733,0.075-1.118,0.075
		c-0.367,0-0.698-0.024-0.99-0.075c-0.294-0.051-0.541-0.151-0.742-0.302s-0.355-0.354-0.464-0.615
		c-0.109-0.259-0.163-0.598-0.163-1.017v-7.583c0-0.452,0.096-0.813,0.289-1.08c0.191-0.268,0.455-0.519,0.791-0.754
		c0.568-0.4,1.275-0.728,2.121-0.979S136.715,13.518,137.636,13.518z"/>
	<path fill="#545454" d="M158.051,13.518c0.903,0,1.728,0.093,2.473,0.277c0.745,0.183,1.381,0.464,1.908,0.84
		c0.527,0.377,0.933,0.854,1.218,1.432s0.428,1.259,0.428,2.046v5.625c0,0.436-0.122,0.791-0.365,1.067
		c-0.242,0.276-0.53,0.515-0.866,0.716c-1.088,0.652-2.619,0.979-4.595,0.979c-0.888,0-1.687-0.084-2.397-0.251
		c-0.712-0.168-1.322-0.419-1.834-0.753c-0.51-0.335-0.904-0.763-1.18-1.281c-0.276-0.519-0.414-1.121-0.414-1.808
		c0-1.156,0.343-2.043,1.029-2.661c0.686-0.621,1.749-1.005,3.189-1.156l3.289-0.352v-0.175c0-0.486-0.213-0.834-0.641-1.043
		c-0.427-0.209-1.042-0.313-1.846-0.313c-0.637,0-1.255,0.066-1.857,0.2c-0.604,0.135-1.146,0.301-1.633,0.503
		c-0.217-0.15-0.401-0.381-0.553-0.69c-0.15-0.31-0.226-0.632-0.226-0.968c0-0.435,0.104-0.781,0.313-1.042
		c0.209-0.259,0.531-0.48,0.967-0.665c0.486-0.185,1.059-0.317,1.721-0.401C156.841,13.56,157.465,13.518,158.051,13.518z
		 M158.251,23.386c0.284,0,0.599-0.028,0.941-0.088c0.343-0.059,0.599-0.138,0.767-0.238v-2.009l-1.809,0.151
		c-0.469,0.033-0.854,0.134-1.154,0.301c-0.302,0.167-0.453,0.418-0.453,0.753c0,0.336,0.131,0.607,0.39,0.816
		C157.192,23.281,157.632,23.386,158.251,23.386z"/>
</g>
</svg>
