<svg version="1.1" id="图层_1" x="0px" y="0px" width="200px" height="77.411px" viewBox="0 61.294 200 77.411" enable-background="new 0 61.294 200 77.411" xml:space="preserve" xmlns="http://www.w3.org/2000/svg" xmlns:xlink="http://www.w3.org/1999/xlink" xmlns:xml="http://www.w3.org/XML/1998/namespace">
  <g>
    <path fill="#404040" d="M3.651,128.563c19.076-14.942,52.7-1.975,73.257,2.842c26.814,5.81,55.441,9.26,82.404,6.105
		c0,0,26.457-4.439,35.793-26.716c18.547-44.265-21.592-49.5-21.592-49.5c26.486,9.883,21.758,41.601-14.201,46.407
		c-26.963,3.154-55.59-1.793-82.404-7.604c-20.557-4.81-54.333-13.202-75.209,0.583L0,102.121
		c8.132-0.031,12.921,3.636,16.438,7.477C4.136,117.327,6.15,122.193,3.75,127.268L3.651,128.563z" class="color c1"/>
  </g>
</svg>