<svg version="1.1" id="图层_1" x="0px" y="0px" width="200.002px" height="70.628px" viewBox="-0.002 64.686 200.002 70.628" enable-background="new -0.002 64.686 200.002 70.628" xml:space="preserve" xmlns="http://www.w3.org/2000/svg" xmlns:xlink="http://www.w3.org/1999/xlink" xmlns:xml="http://www.w3.org/XML/1998/namespace">
  <path fill="#404040" d="M199.932,134.109c-0.043-0.066-0.092-0.131-0.136-0.198c-0.037-0.07-0.077-0.138-0.133-0.197
	c-1.957-3.032-4.312-5.784-6.623-8.55c-2.657-3.18-5.258-6.555-8.281-9.389c-0.003-0.002-0.007-0.004-0.011-0.006
	c0.886-2.437,2.589-4.813,3.855-7.061c1.389-2.458,2.853-4.861,4.364-7.245c0.04-0.063,0.05-0.126,0.072-0.188
	c0.37-0.418,0.228-1.179-0.508-1.206c-8.925-0.32-17.261-1.034-26.05-2.659c-0.334-1.344-0.765-2.671-1.276-3.97
	c0.019-0.057,0.024-0.119,0.003-0.19c-1.874-6.088,0.71-11.135,1.615-17.061c0.292-1.909,0.66-4.051-1.063-4.968
	c-0.066-0.111-0.156-0.212-0.313-0.283c-12.366-5.627-27.019-4.988-40.308-5.492c-15.85-0.602-31.711-0.847-47.571-0.734
	c-7.904,0.056-15.814,0.175-23.716,0.44c-6.671,0.227-13.809,0.372-20.233,2.408c-4.013,1.271-7.845,3.619-8.834,7.997
	c-1.234,5.458,1.551,12.369,3.153,17.631c-0.613,1.628-1.228,3.253-1.741,4.885c-0.021,0.001-0.038-0.006-0.06-0.004
	c-3.823,0.518-7.518,0.689-11.354,0.191c-2.762-0.357-5.416-1.304-8.167-1.601c-0.579-0.567-1.795-0.103-1.475,0.821
	c0.95,2.739,1.902,5.479,2.85,8.219c0.854,2.464,3.108,6.452,2.712,9.001c-0.374,2.408-3.368,5.173-4.803,7.132
	c-1.852,2.53-3.67,5.065-5.324,7.729c-0.678,0.236-0.862,1.33-0.004,1.506c11.059,2.266,22.945,3.576,34.234,2.813
	c5.456-0.37,12.831-3.381,12.801-9.669c0.074-0.024,0.139-0.071,0.154-0.166c0.976-6.089-0.021-12.366,0.019-18.546
	c0.182-0.161,0.26-0.448,0.035-0.645c-0.007-0.006-0.016-0.012-0.022-0.02c0.013-0.656,0.039-1.311,0.08-1.964
	c0.503,0.165,0.849-0.46,0.398-0.797c-0.103-0.076-0.208-0.134-0.313-0.198c0.138-1.522,0.362-3.036,0.748-4.533
	c1.523-0.147,3.039-0.272,4.532-0.396c24.697-2.037,49.734-1.651,74.419,0.352c5.745,0.466,11.481,1.035,17.208,1.704
	c0.104,2.238-0.034,4.491-0.251,6.751c-0.025,0.031-0.054,0.062-0.078,0.095c-0.077,0.103-0.037,0.205,0.045,0.267
	c-0.535,5.343-1.49,10.707-0.842,15.938c-1.298,7.424,7.646,11.778,14.048,12.385c13.563,1.289,27.611,0.729,41.234,0.869
	c0.504,0.004,0.783-0.322,0.865-0.699C200.004,134.479,200.048,134.296,199.932,134.109z M44.359,127.809
	c-4.065,6.002-14.297,4.474-20.478,4.225c-7.394-0.301-14.729-1.104-22.019-2.369c1.923-2.257,3.708-4.607,5.479-6.987
	c1.54-2.069,4.745-4.983,5.322-7.603c0.429-1.945-1.26-4.697-1.89-6.536c-1.251-3.656-2.496-7.315-3.744-10.972
	c5.143,3.167,12.91,3.11,18.707,2.109c-0.87,3.286-1.183,6.615-0.067,10.078c0.051,1.147,0.345,2.323,0.935,3.5
	c1.543,3.076,4.735,4.142,7.914,4.636c2.026,0.314,4.11,0.318,6.107,0.811C45.034,119.782,46.966,123.958,44.359,127.809z
	 M31.708,102.411c3.495,3.909,9.882,0.879,14.439,2.606c-0.014,0.621-0.021,1.241-0.019,1.865c-1.245-0.813-2.767-0.963-4.35-0.949
	c-1.511,0.012-3.01,0.24-4.524,0.109c-1.473-0.127-2.868-0.531-4.219-1.109c-0.36-0.154-2.159-1.345-2.577-1.302
	c0.143-0.015,0.187-0.216,0.035-0.262c-0.15-0.044-0.218-0.065-0.277-0.079c0.429-0.447,0.899-0.855,1.4-1.229
	C31.592,102.177,31.607,102.3,31.708,102.411z M32.06,101.76c0.999-0.681,2.098-1.229,3.215-1.679
	c0.323,1.346,2.458,1.515,3.618,1.737c2.387,0.461,5.011,0.065,7.384,0.567c-0.037,0.485-0.069,0.974-0.09,1.46
	c-4.355-1.805-10.221,1.637-13.93-1.984C32.194,101.8,32.127,101.771,32.06,101.76z M37.121,107.032
	c3.205,0.325,6.092-0.53,9.017,0.929c0.008,0.643,0.018,1.283,0.029,1.928c0.003,0.133,0.003,0.271,0.005,0.406
	c-1.983-1.262-4.245-1.008-6.556-0.975c-1.715,0.023-3.397-0.131-5.054-0.609c-0.479-0.138-5.467-1.881-5.479-2.962
	c-0.002-0.173-0.166-0.295-0.331-0.253c-0.036,0.009-0.07,0.018-0.106,0.025c0.067-0.137,0.126-0.274,0.202-0.41
	c0.234-0.418,0.509-0.801,0.802-1.168C31.854,105.667,34.311,106.748,37.121,107.032z M34.816,109.786
	c3.75,1.012,7.728-0.234,11.304,1.438c0.021,0.012,0.044,0.012,0.065,0.02c0.01,0.719,0.02,1.434,0.029,2.16
	c-5.561-2.287-14.656,0.162-18.476-4.616c0.059-0.931,0.282-1.875,0.669-2.782c0.005,0.014,0.004,0.03,0.012,0.044
	C29.466,108.066,32.771,109.232,34.816,109.786z M33.051,112.098c4.464,0.924,8.891,0.438,13.18,2.111
	c0.012,0.583,0.019,1.165,0.036,1.747c-2.104-1.063-4.434-1.331-6.797-1.522c-1.962-0.162-3.938-0.244-5.867-0.668
	c-0.976-0.214-1.837-0.533-2.752-0.938c-0.585-0.258-2.065-1.316-2.871-1.628c-0.143-0.501-0.223-1.024-0.249-1.556
	C28.975,111.1,31.315,111.739,33.051,112.098z M31.808,115.329c-1.464-0.581-2.51-1.515-3.182-2.634
	c1.731,1.171,4.339,1.791,5.939,2.057c4.017,0.668,7.881,0.594,11.731,1.988c0.05,1.148,0.119,2.297,0.251,3.432
	C43.751,115.628,36.241,117.089,31.808,115.329z M46.742,98.966c-0.999,0.052-1.996,0.235-3.001,0.259
	c-1.193,0.025-2.344-0.096-3.515-0.257c0.09-0.113-0.035-0.316-0.182-0.26c-0.187,0.089-0.384,0.146-0.589,0.177
	c-0.317,0.069-0.281,0.519,0,0.606c2.059,0.638,4.854,1.093,7.098,0.593c-0.059,0.403-0.123,0.807-0.167,1.211
	c-0.869-0.154-1.784-0.121-2.709-0.098c-1.523,0.039-7.09,0.421-7.952-1.288c0.283-0.107,0.566-0.215,0.852-0.308
	c3.349-1.107,6.91-1.69,10.472-2.086C46.926,97.997,46.833,98.481,46.742,98.966z M137.695,96.327
	c-24.301-2.468-48.784-3.12-73.182-1.945c-9.749,0.47-21.165,0.264-30.325,4.106c-3.259,1.368-6.4,4.106-7.783,7.407
	c-0.018-0.623-0.02-1.123-0.012-1.348c0.111-2.786,0.703-5.395,1.686-7.991c1.429-3.77,3.561-7.26,3.22-11.42
	c-0.036-0.437-0.729-0.608-0.821-0.112c-0.42,2.259-1.17,4.475-1.982,6.677c-1.436-6.266-4.665-15.468,0.162-19.885
	c4.668-4.272,13.163-4.488,19.039-4.853c12.964-0.805,26.042-0.726,39.025-0.701c12.811,0.025,25.62,0.283,38.42,0.772
	c13.125,0.503,27.229,0.017,39.519,5.255c0.075,0.032,0.149,0.038,0.224,0.048c1.944,2.687-1.226,9.702-1.646,12.577
	c-0.206,1.41-0.271,2.764-0.139,4.075c-0.688-1.238-1.423-2.435-2.199-3.56c-0.225-0.325-0.866-0.132-0.691,0.292
	c2.836,6.879,5.882,12.895,5.46,19.938c-0.346-1.117-0.909-2.192-1.729-3.153c-2.317-2.716-5.823-3.594-9.209-4.142
	C149.094,97.456,143.372,96.903,137.695,96.327z M160.594,110.7c-1.431,0.383-3.037,0.271-4.511,0.228
	c-1.753-0.053-3.521-0.23-5.271-0.042c-2.123,0.23-3.918,0.884-5.369,2.218c0.068-0.545,0.138-1.09,0.205-1.635
	c1.313-0.752,3.934-1.986,4.6-2.127c2.076-0.438,4.137-0.418,6.238-0.259c2.871,0.22,5.328,0.235,7.723-1.237
	c0.027,0.379,0.033,0.754,0.002,1.12C163.355,109.771,161.453,110.471,160.594,110.7z M163.775,110.836
	c-0.012,0.03-0.021,0.063-0.033,0.094c-4.916,5.59-14.278-0.447-18.708,5.354c0.091-0.72,0.185-1.438,0.276-2.158
	c4.15-3.56,9.355-1.565,14.359-2.136C160.8,111.861,162.468,111.533,163.775,110.836z M151.838,100.792
	c-1.088-0.179-2.162-0.214-3.248-0.021c-0.576,0.103-1.539,0.313-2.236,0.719c-0.002-0.778-0.02-1.559-0.063-2.341
	c3.787,0.33,9.039,0.513,12.896,2.253C157.21,103.318,153.966,101.143,151.838,100.792z M160.145,101.889
	c0.435,0.245,0.853,0.508,1.232,0.807c-2.719,3.375-8.408-0.254-12.186,0.361c-1.111,0.18-2.062,0.549-2.896,1.11
	c0.028-0.633,0.038-1.269,0.046-1.903c1.118-1.095,5.355-0.507,6.182-0.307c1.547,0.372,3.129,1.429,4.732,1.466
	C158.547,103.453,159.512,102.861,160.145,101.889z M154.225,104.475c1.457,0.353,2.906,1.006,4.442,0.914
	c1.547-0.092,2.853-0.75,3.452-2.043c0.214,0.213,0.42,0.434,0.605,0.674c-3.002,3.133-8.892,1.412-12.806,2.078
	c-1.075,0.182-2.646,0.465-3.819,1.119c0.061-0.703,0.111-1.408,0.154-2.113C148.654,103.659,151.316,103.771,154.225,104.475z
	 M158.041,106.98c2.169-0.047,3.918-0.496,5.309-2.015c0.202,0.369,0.381,0.759,0.521,1.181c0.068,0.205,0.121,0.408,0.17,0.611
	c-4.484,2.141-8.753,0.579-13.484,1.535c-1.201,0.242-3.3,0.813-4.744,1.781c0.082-0.729,0.155-1.459,0.226-2.189
	C148.788,105.966,155.534,107.036,158.041,106.98z M144.887,117.503c0.073-0.003,0.148-0.032,0.211-0.104
	c3.688-4.131,10.178-1.617,14.986-2.601c-0.904,0.452-1.911,0.755-2.982,0.849c-2.523,0.218-5.02-0.578-7.543-0.021
	c-2.186,0.48-3.867,1.732-4.881,3.65C144.741,118.684,144.814,118.093,144.887,117.503z M162.982,132.786
	c-6.058-0.144-16.832-0.792-17.387-9.063c-0.58-8.643,9.604-4.99,14.463-6.73c3.039-1.09,5.047-3.612,5.74-6.453
	c1.66-3.887,1.764-8.053,0.915-12.114c7.413,2.67,16.079,3.953,23.99,3.298c-1.588,2.461-3.05,5.002-4.46,7.568
	c-1.016,1.848-2.954,4.245-3.055,6.396c-0.012,0.256,0.088,0.439,0.236,0.563c-0.017,0.146,0.012,0.299,0.125,0.454
	c2.239,3.027,4.908,5.764,7.369,8.613c2.34,2.709,4.588,5.519,7.075,8.097C186.327,133.13,174.652,133.063,162.982,132.786z" class="color c1"/>
</svg>