<svg version="1.1" id="图层_1" x="0px" y="0px" width="200px" height="69.6px" viewBox="0 65.2 200 69.6" enable-background="new 0 65.2 200 69.6" xml:space="preserve" xmlns="http://www.w3.org/2000/svg" xmlns:xlink="http://www.w3.org/1999/xlink" xmlns:xml="http://www.w3.org/XML/1998/namespace">
  <g>
    <path fill="#404040" d="M199.658,131.752l-11.67-17.021l11.449-11.563c0.498-0.505,0.684-1.238,0.481-1.918
		s-0.756-1.196-1.448-1.352l-16.041-3.597V67.15c0-1.077-0.878-1.95-1.962-1.95H19.393c-1.082,0-1.961,0.873-1.961,1.95v29.181
		L1.529,99.896c-0.693,0.155-1.25,0.672-1.449,1.353c-0.201,0.679-0.016,1.413,0.484,1.918l11.447,11.563L0.34,131.752
		c-0.453,0.661-0.453,1.532,0,2.193c0.369,0.541,0.98,0.854,1.621,0.854c0.143,0,0.287-0.016,0.432-0.047l41.703-9.349
		c0.008-0.002,0.014-0.006,0.023-0.008c0.096-0.022,0.191-0.053,0.285-0.09c0.021-0.01,0.041-0.021,0.061-0.029
		c0.051-0.022,0.104-0.045,0.152-0.071c0.018-0.011,0.033-0.022,0.053-0.034c0.031-0.02,0.061-0.039,0.092-0.061
		c0.055-0.035,0.109-0.076,0.16-0.118c0.025-0.021,0.051-0.043,0.076-0.065c0.059-0.056,0.115-0.113,0.166-0.175
		c0.012-0.015,0.025-0.026,0.037-0.041c0.061-0.077,0.115-0.157,0.164-0.244c0.014-0.022,0.025-0.048,0.037-0.073
		c0.033-0.063,0.063-0.127,0.09-0.195c0.012-0.031,0.023-0.064,0.033-0.098c0.021-0.066,0.039-0.134,0.053-0.201
		c0.008-0.031,0.016-0.063,0.02-0.094c0.016-0.101,0.027-0.201,0.027-0.305v-14.6h108.748v14.6c0,0.104,0.01,0.204,0.027,0.305
		c0.004,0.031,0.012,0.063,0.02,0.094c0.014,0.067,0.031,0.135,0.053,0.201c0.01,0.032,0.021,0.065,0.035,0.099
		c0.023,0.067,0.055,0.131,0.088,0.194c0.014,0.023,0.025,0.051,0.039,0.073c0.047,0.087,0.102,0.167,0.162,0.243
		c0.014,0.016,0.027,0.027,0.041,0.043c0.051,0.061,0.104,0.117,0.162,0.172c0.025,0.024,0.053,0.045,0.078,0.067
		c0.051,0.041,0.104,0.081,0.158,0.118c0.031,0.021,0.061,0.041,0.094,0.061c0.018,0.01,0.033,0.023,0.053,0.033
		c0.047,0.027,0.098,0.048,0.148,0.07c0.023,0.01,0.043,0.021,0.063,0.029c0.094,0.038,0.191,0.068,0.287,0.092
		c0.008,0,0.014,0.004,0.023,0.008l41.703,9.349c0.145,0.031,0.289,0.047,0.432,0.047c0.641,0,1.252-0.313,1.621-0.854
		C200.113,133.284,200.113,132.413,199.658,131.752z M21.354,69.1h157.154v35.903H21.354V69.1z M41.703,119.994l-16.285-10.068
		h16.285V119.994z M16.158,115.604c0.527-0.771,0.436-1.804-0.223-2.468L5.832,102.93l10.758-2.412v7.459
		c0,0.016,0.004,0.027,0.004,0.043c0.002,0.099,0.012,0.194,0.029,0.291c0.004,0.022,0.004,0.045,0.01,0.067
		c0.023,0.112,0.059,0.222,0.102,0.326c0.016,0.039,0.035,0.075,0.055,0.11c0.031,0.069,0.066,0.138,0.107,0.201
		c0.025,0.037,0.049,0.071,0.076,0.106c0.043,0.062,0.092,0.118,0.145,0.175c0.027,0.03,0.057,0.061,0.086,0.09
		c0.059,0.055,0.119,0.104,0.184,0.149c0.031,0.024,0.063,0.049,0.096,0.071c0.012,0.008,0.021,0.018,0.033,0.022l21.051,13.017
		l-32.185,7.213L16.158,115.604z M174.58,109.926l-16.285,10.068v-10.068H174.58z M161.434,122.646l21.049-13.016
		c0.011-0.006,0.019-0.014,0.027-0.02c0.043-0.027,0.08-0.06,0.121-0.09c0.055-0.041,0.107-0.082,0.158-0.129
		c0.035-0.035,0.07-0.07,0.104-0.107c0.045-0.049,0.088-0.1,0.127-0.153c0.031-0.041,0.06-0.081,0.088-0.125
		c0.035-0.058,0.066-0.116,0.097-0.177c0.021-0.043,0.045-0.086,0.063-0.133c0.039-0.096,0.068-0.193,0.092-0.295
		c0.009-0.038,0.013-0.078,0.021-0.118c0.015-0.086,0.024-0.173,0.027-0.261c0-0.018,0.004-0.032,0.004-0.049v-7.459l10.758,2.411
		l-10.104,10.207c-0.656,0.664-0.75,1.697-0.224,2.468l9.775,14.258L161.434,122.646z" class="color c1"/>
  </g>
</svg>