<svg version="1.1" id="图层_1" x="0px" y="0px" width="200px" height="56.356px" viewBox="0 71.822 200 56.356" enable-background="new 0 71.822 200 56.356" xml:space="preserve" xmlns="http://www.w3.org/2000/svg" xmlns:xlink="http://www.w3.org/1999/xlink" xmlns:xml="http://www.w3.org/XML/1998/namespace">
  <g>
    <polygon fill="#404040" points="6.768,99.186 1.764,78.873 13.684,78.873 15.447,78.873 17.216,78.873 23.544,78.873
		25.598,78.873 182.727,78.873 184.493,78.873 186.259,78.873 198.551,78.873 194.141,100.34 198.311,120.186 186.402,120.186 
		184.643,120.186 182.889,120.186 25.435,120.186 23.377,120.186 17.053,120.186 15.301,120.186 13.539,120.186 1.865,120.186 	" class="color c1"/>
    <polygon fill="#404040" points="18.664,71.822 25.132,71.822 27.229,71.822 181.277,71.822 183.055,71.822 184.855,71.822
		200,71.822 198.968,76.848 185.918,76.848 184.145,76.848 182.375,76.848 17.566,76.848 15.797,76.848 14.023,76.848 1.266,76.848 
		0.028,71.822 15.084,71.822 16.887,71.822 	" class="color c1"/>
    <polygon fill="#404040" points="181.277,128.178 174.816,128.178 172.707,128.178 27.234,128.178 25.134,128.178 18.664,128.178
		16.887,128.178 15.084,128.178 0,128.178 1.393,122.213 13.856,122.213 15.628,122.213 17.403,122.213 23.734,122.213 
		25.791,122.213 174.135,122.213 176.198,122.213 182.538,122.213 184.314,122.213 186.084,122.213 198.736,122.213 199.99,128.178 
		184.855,128.178 183.055,128.178 	" class="color c1"/>
  </g>
</svg>