<svg version="1.1" id="图层_1" x="0px" y="0px" width="164.248px" height="200px" viewBox="17.876 0 164.248 200" enable-background="new 17.876 0 164.248 200" xml:space="preserve" xmlns="http://www.w3.org/2000/svg" xmlns:xlink="http://www.w3.org/1999/xlink" xmlns:xml="http://www.w3.org/XML/1998/namespace">
  <path fill="#404040" d="M17.876,0v200l82.12-49.086L182.124,200V0H17.876z M25.712,2.417h2.238v8.868h-2.238V2.417z M25.712,20.151
	h2.238v8.862h-2.238V20.151z M25.712,37.877h2.238v8.868h-2.238V37.877z M25.712,55.613h2.238v8.866h-2.238V55.613z M25.712,73.348
	h2.238v8.866h-2.238V73.348z M25.712,91.076h2.238v8.868h-2.238V91.076z M25.712,108.809h2.238v8.867h-2.238V108.809z
	 M25.712,126.542h2.238v8.868h-2.238V126.542z M25.712,144.277h2.238v8.863h-2.238V144.277z M25.712,162.007h2.238v8.863h-2.238
	V162.007z M25.712,186.191v-6.453h2.238v2.501l2.151-1.281l1.146,1.92L25.712,186.191z M38.523,178.529l-1.146-1.918l7.275-4.352
	l1.146,1.924L38.523,178.529z M53.075,169.83l-1.146-1.915l7.271-4.351l1.146,1.92L53.075,169.83z M67.622,161.137l-1.146-1.924
	l7.275-4.346l1.146,1.919L67.622,161.137z M82.173,152.438l-1.146-1.916l7.276-4.351l1.146,1.92L82.173,152.438z M103.268,143.743
	l-3.271-1.953l-3.271,1.953l-1.145-1.925l4.416-2.639l4.415,2.639L103.268,143.743z M117.816,152.438l-7.274-4.347l1.146-1.92
	l7.276,4.351L117.816,152.438z M132.374,161.137l-7.28-4.346l1.146-1.924l7.279,4.346L132.374,161.137z M146.925,169.83
	l-7.274-4.346l1.146-1.92l7.274,4.351L146.925,169.83z M161.477,178.529l-7.274-4.348l1.146-1.922l7.275,4.346L161.477,178.529z
	 M174.288,186.191l-5.535-3.313l1.146-1.92l2.151,1.281v-2.501h2.238V186.191z M174.288,170.87h-2.238v-8.866h2.238V170.87z
	 M174.288,153.136h-2.238v-8.862h2.238V153.136z M174.288,135.406h-2.238v-8.864h2.238V135.406z M174.288,117.676h-2.238v-8.867
	h2.238V117.676z M174.288,99.941h-2.238v-8.868h2.238V99.941z M174.288,82.21h-2.238v-8.868h2.238V82.21z M174.288,64.479h-2.238
	v-8.866h2.238V64.479z M174.288,46.745h-2.238v-8.868h2.238V46.745z M174.288,29.011h-2.238v-8.863h2.238V29.011z M174.288,11.279
	h-2.238V2.417h2.238V11.279z" class="color c1"/>
</svg>