<svg version="1.1" id="图层_1" x="0px" y="0px" width="200px" height="56.801px" viewBox="0 71.601 200 56.801" enable-background="new 0 71.601 200 56.801" xml:space="preserve" xmlns="http://www.w3.org/2000/svg" xmlns:xlink="http://www.w3.org/1999/xlink" xmlns:xml="http://www.w3.org/XML/1998/namespace">
  <g>
    <path fill="#404040" d="M194.68,99.996c1.688-2.8,3.43-5.568,5.202-8.316c0.341-0.542-0.114-1.042-0.608-1.076
		c-0.096-0.08-0.215-0.142-0.369-0.147c-5.951-0.189-11.903-0.193-17.85-0.147c-5.877,0.04-11.897-0.149-17.74,0.482
		c0.078-2.868,0.156-5.732,0.23-8.602c0.059-2.276,0.258-4.959-1.26-6.86c-1.262-1.582-3.256-1.917-5.162-2.049
		c-3.736-0.251-7.52-0.215-11.268-0.318c-7.16-0.199-14.328-0.403-21.489-0.599c-14.558-0.391-29.117-0.705-43.684-0.757
		c-7.36-0.022-14.72,0.012-22.08,0.153c-3.271,0.063-6.542,0.149-9.813,0.251c-3.448,0.107-7.305-0.177-10.701,0.5
		c-5.95,1.181-4.321,10.123-4.309,14.38c0,0.764,0,1.532,0.006,2.302c-5.703,0.165-11.382,0.437-17.089,0.448
		c-2.766,0-5.531-0.027-8.303-0.096c-2.3-0.058-4.748-0.404-7.048-0.098c-0.453-0.598-1.583-0.227-1.3,0.599
		c2.226,6.495,4.583,13.048,8.326,18.835c-0.097,0.064-0.188,0.148-0.256,0.275c-2.168,3.836-4.276,7.719-6.264,11.652
		c-0.324,0.639-2.431,3.75-1.141,4.459c-0.182,0.271-0.075,0.698,0.357,0.715c10.444,0.377,21.031-0.5,31.474-0.871
		c2.578-0.092,5.162-0.188,7.746-0.278c1.597-0.056,3.488,0.086,4.857-0.905c1.062-0.773,1.482-2.441,0.754-3.416
		c0.432-4.309,0.313-8.721,0.336-13.042c8.45-0.51,16.917-0.728,25.385-0.788c19.082-0.156,38.163,0.301,57.24,0.559
		c5.265,0.066,10.523,0.135,15.787,0.209c0.137,0,0.278,0,0.42,0c-0.822,5.67-0.209,12,0.693,17.584
		c0.006,0.027,0.018,0.046,0.027,0.068c0.092,0.399,0.296,0.773,0.631,1.09c0.55,0.516,1.227,0.552,1.953,0.629
		c1.931,0.224,3.941,0.145,5.883,0.212c14.846,0.534,29.793,1.543,44.645,1.343c0.164,0,0.334-0.006,0.5-0.006
		c0.211-0.006,0.313-0.143,0.328-0.297c0.133-0.107,0.205-0.295,0.113-0.512c-2.771-6.443-6.686-12.586-10.164-18.672
		c-0.041-0.078-0.092-0.137-0.146-0.183c0.492-1.497,1.73-2.954,2.516-4.291C192.913,102.934,193.794,101.465,194.68,99.996z
		 M43.082,123.268c-0.442,0.092-0.892,0.137-1.34,0.131c-0.966,0.067-1.941,0.067-2.908,0.104c-1.613,0.058-3.226,0.113-4.844,0.165
		c-3.709,0.13-7.423,0.255-11.137,0.387c-7.173,0.245-14.448,0.239-21.592,0.984c-0.006-0.018-0.006-0.034-0.017-0.053
		c-0.301-0.519,1.539-2.891,1.846-3.449c0.705-1.291,1.391-2.589,2.089-3.883c1.392-2.588,2.823-5.157,4.231-7.733
		c0.182-0.351,0.085-0.674-0.125-0.886c0.113-0.141,0.152-0.346,0.051-0.567c-2.759-5.919-5.254-11.841-7.542-17.949
		c1.988,0.359,4.128,0.249,6.11,0.307c2.93,0.08,5.86,0.126,8.791,0.132c5.691,0.006,11.415-0.046,17.089-0.454
		c0.017,6.939,0.057,13.877,0.215,20.816c0,0.021,0.012,0.046,0.017,0.07c0.012,0.533,0.125,1.106,0.386,1.711
		c1.829,4.299,7.274,4.435,10.075,7.736C44.724,122.441,44.262,123.264,43.082,123.268z M37.522,114.74
		c-0.37-0.318-0.721-0.672-1.028-1.055c0.33-1.668,0.602-3.369,0.818-5.055c0.16-0.079,0.318-0.146,0.482-0.217
		C37.431,110.447,37.402,112.686,37.522,114.74z M36.119,113.174c-0.887-1.331-1.108-2.867,0.438-4.063
		C36.374,110.453,36.227,111.818,36.119,113.174z M39.486,116.01c-0.238-0.125-0.482-0.244-0.716-0.383
		c-0.261-0.152-0.528-0.328-0.795-0.527c0.216-2.277,0.495-4.634,0.551-6.924c0.359-0.102,0.727-0.182,1.107-0.238
		C39.396,110.591,39.424,113.346,39.486,116.01z M40.31,107.857c0.375-0.041,0.75-0.068,1.113-0.092
		c-0.21,3.021-0.233,6.073-0.239,9.104c-0.415-0.205-0.835-0.411-1.25-0.62C40.175,113.486,40.395,110.625,40.31,107.857z
		 M41.65,117.107c0.228-3.112,0.437-6.258,0.442-9.375c0.313-0.019,0.625-0.035,0.921-0.051c0.113,3.381,0.085,6.762-0.07,10.149
		C42.53,117.568,42.093,117.335,41.65,117.107z M44.842,119.454c-0.397-0.49-0.858-0.905-1.363-1.271
		c0.397-3.512,0.455-7.02,0.182-10.543c0,0,0,0,0-0.006c0.471-0.027,0.942-0.058,1.414-0.092
		C44.939,111.484,44.683,115.498,44.842,119.454z M137.74,106.035c-11.182-0.153-22.363-0.301-33.54-0.454
		c-11.188-0.147-22.375-0.325-33.57-0.224c-5.752,0.052-11.511,0.178-17.264,0.422c-4.782,0.199-9.967-0.006-14.664,1
		c-1.402,0.304-2.731,0.976-3.617,1.938c0.074-5.647,0.08-11.294,0.085-16.942c0-2.932-0.017-5.863-0.023-8.795
		c-0.006-2.585-0.715-7.065,1.868-8.716c1.494-0.956,4.146-0.649,5.89-0.711c1.636-0.058,3.271-0.114,4.907-0.159
		c3.271-0.096,6.537-0.172,9.807-0.228c6.379-0.116,12.761-0.166,19.14-0.166c25.591,0.022,51.168,0.888,76.746,1.685
		c1.455,0.046,2.938,0,4.38,0.171c2.924,0.348,4.049,2.107,4.18,4.925c0.152,3.263-0.144,6.599-0.229,9.859
		c-0.09,3.644-0.174,7.286-0.271,10.929c-0.074,2.853,0.261,6.309-0.291,9.285c-1.525-2.379-4.28-3.323-7.207-3.554
		C148.667,105.889,143.159,106.104,137.74,106.035z M160.786,111.354c-0.295,0.592-0.556,1.168-0.892,1.707
		c0.033-0.393,0.073-0.791,0.103-1.184c0.034-0.536,0.119-1.093,0.108-1.641C160.365,110.573,160.6,110.943,160.786,111.354z
		 M159.384,111.877c-0.012,0.643-0.012,1.291-0.018,1.936c-0.163,0.205-0.341,0.404-0.55,0.598
		c-0.172,0.166-0.349,0.313-0.528,0.461c0.119-1.991,0.276-4.088,0.147-6.057c0.401,0.232,0.771,0.506,1.102,0.813
		C159.332,110.34,159.4,111.143,159.384,111.877z M156.624,108.027c0.414,0.132,0.808,0.285,1.181,0.457
		c-0.352,2.146-0.197,4.57,0.018,6.75c-0.357,0.264-0.723,0.509-1.096,0.742C156.846,113.393,156.971,110.585,156.624,108.027z
		 M155.107,107.652c0.295,0.057,0.586,0.119,0.875,0.188c-0.269,2.704,0.052,5.692,0.317,8.402c-0.522,0.313-1.051,0.62-1.567,0.927
		c-0.125,0.08-0.256,0.155-0.381,0.232c0.086-2.207,0.232-4.397,0.426-6.603C154.857,109.867,155.188,108.646,155.107,107.652z
		 M153.902,117.678c-0.555,0.336-1.107,0.672-1.664,1.008c0.164-3.77,0.193-7.571,0.099-11.334c0.675,0.033,1.351,0.092,2.004,0.178
		C153.977,110.88,153.693,114.309,153.902,117.678z M151.705,119.01c-0.539,0.324-1.077,0.655-1.618,0.979
		c-0.209,0.131-0.438,0.257-0.657,0.389c0.307-4.333,0.59-8.728,0.631-13.062c0.51-0.006,1.021-0.006,1.539,0.007
		C151.496,111.205,151.529,115.127,151.705,119.01z M148.996,120.62c-0.357,0.198-0.715,0.409-1.061,0.638
		c0.025-4.57,0.373-9.244,0.129-13.798c0-0.036-0.012-0.069-0.021-0.099c0.413-0.01,0.846-0.026,1.275-0.033
		C148.859,111.688,148.814,116.227,148.996,120.62z M146.577,122.393c-0.093,0.096-0.173,0.205-0.244,0.317
		c-0.067-2.274-0.142-4.548-0.183-6.825c-0.045-2.801,0.199-5.658,0.047-8.459c0.408-0.012,0.834-0.023,1.271-0.039
		c-0.778,4.529-0.487,9.461-0.032,14.016c0.004,0.068,0.032,0.113,0.073,0.152C147.162,121.811,146.844,122.076,146.577,122.393z
		 M188.699,108.706v0.006c-0.238,0.188-0.369,0.513-0.188,0.858c3.23,6.041,6.389,12.469,10.381,18.057
		c-12.852-1.092-25.856-1.199-38.748-1.666c-3.271-0.119-6.543-0.232-9.813-0.354c-0.442-0.018-1.591,0.148-1.959-0.068
		c-0.808-1.604-0.677-2.674,0.375-3.216c0.381-0.237,0.762-0.472,1.147-0.7c1.267-0.775,2.532-1.536,3.799-2.307
		c1.959-1.192,6.91-3.563,7.928-6.5c0.164-0.041,0.3-0.147,0.386-0.336c1.113-2.643,0.87-5.613,0.943-8.431
		c0.106-3.974,0.216-7.954,0.329-11.928c0-0.123,0.006-0.255,0.01-0.381c5.891,0.273,11.863-0.147,17.766-0.175
		c5.696-0.03,11.391,0.05,17.09,0.096c-1.894,2.886-3.738,5.801-5.516,8.761C191.23,102.757,188.643,105.838,188.699,108.706z" class="color c1"/>
  </g>
</svg>