<?xml version="1.0" encoding="utf-8"?>
<!-- Generator: Adobe Illustrator 16.0.0, SVG Export Plug-In . SVG Version: 6.00 Build 0)  -->
<!DOCTYPE svg PUBLIC "-//W3C//DTD SVG 1.1//EN" "http://www.w3.org/Graphics/SVG/1.1/DTD/svg11.dtd">
<svg version="1.1" id="图层_1" xmlns="http://www.w3.org/2000/svg" xmlns:xlink="http://www.w3.org/1999/xlink" x="0px" y="0px"
	 width="258px" height="36px" viewBox="0 0 258 36" enable-background="new 0 0 258 36" xml:space="preserve">
<g>
	<path fill="#545454" d="M13.315,10.384h4.369v13.117h-4.369V10.384z M21.619,13.004h-3.242v-2.62h5.071l2.629,2.62v2.669
		l-1.315,1.313l1.315,1.315v2.58l-2.629,2.619h-5.071v-2.619h3.242v-2.798h-3.242v-2.283h3.242V13.004z"/>
	<path fill="#545454" d="M34.29,23.501h-3.874l-2.451-2.452V9h4.369v11.882h1.956V23.501z"/>
	<path fill="#545454" d="M41.635,17.392v1.819h-2.254v1.838h2.254v1.156l-1.305,1.296h-3.342l-1.759-1.729v-2.629l1.759-1.751
		H41.635z M42.326,23.501v-7.877h-6.217v-1.305l1.314-1.315h6.554l2.619,2.62v7.877H42.326z"/>
	<path fill="#545454" d="M52.844,23.501h-1.75l-2.619-2.619v-5.258l2.619-2.62h1.75V23.501z M53.535,15.624v-2.62h3.688l2.619,2.62
		v1.57h-4.369v-1.57H53.535z M53.535,23.501v-2.452h1.938v-1.313h4.369v1.146l-2.619,2.619H53.535z"/>
	<path fill="#545454" d="M66.01,23.501h-4.369V9h4.369V23.501z M66.691,22.019v-5.99l2.017-3.024h4.517L66.691,22.019z
		 M73.452,23.501h-4.744l-0.722-2.115l2.58-3.479L73.452,23.501z"/>
	<path fill="#545454" d="M84.049,20.832h1.641v2.669h-3.361l-2.658-2.619v-7.878l2.658-2.62h3.361v2.659h-1.641V20.832z
		 M88.052,13.043h-1.671v-2.659h3.391l2.648,2.62v7.878l-2.648,2.619h-3.391v-2.669h1.671V13.043z"/>
	<path fill="#545454" d="M94.309,27V13.004h4.369V27H94.309z M101.297,15.624h-1.928v-1.326l1.285-1.294h2.393l2.629,2.62v5.258
		l-2.629,2.619h-3.678v-2.452h1.928V15.624z"/>
	<path fill="#545454" d="M111.932,21.572h1.938v1.929h-4.497l-1.819-2.165v-0.84h4.378V21.572z M109.926,13.004h1.75v3.706h4.981
		l2.273,2.293v2.046l-2.441,2.452h-1.927v-3.964h-4.726l-2.273-2.185v-1.996L109.926,13.004z M114.563,14.931h-2.195v-1.927h4.646
		l1.562,1.562v1.186h-4.012V14.931z"/>
	<path fill="#545454" d="M130.08,20.832h1.641v2.669h-3.359l-2.66-2.619v-7.878l2.66-2.62h3.359v2.659h-1.641V20.832z
		 M134.084,13.043h-1.671v-2.659h3.39l2.65,2.62v7.878l-2.65,2.619h-3.39v-2.669h1.671V13.043z"/>
	<path fill="#545454" d="M140.34,23.501V13.004h4.408v10.497H140.34z M147.338,15.624h-1.877v-1.146l1.463-1.474h2.432l2.361,2.361
		v8.136h-4.379V15.624z"/>
	<path fill="#545454" d="M158.023,23.501h-1.75l-2.619-2.619v-5.258l2.619-2.62h1.75V23.501z M158.715,19.29v-1.829h2.305v-1.837
		h-2.305v-2.62h3.707l2.619,2.62v3.666H158.715z M158.715,23.501v-2.452h5.872v1.138l-1.305,1.314H158.715z"/>
</g>
</svg>
