<?xml version="1.0" encoding="utf-8"?>
<!-- Generator: Adobe Illustrator 16.0.0, SVG Export Plug-In . SVG Version: 6.00 Build 0)  -->
<!DOCTYPE svg PUBLIC "-//W3C//DTD SVG 1.1//EN" "http://www.w3.org/Graphics/SVG/1.1/DTD/svg11.dtd">
<svg version="1.1" id="图层_1" xmlns="http://www.w3.org/2000/svg" xmlns:xlink="http://www.w3.org/1999/xlink" x="0px" y="0px"
	 width="258px" height="36px" viewBox="0 0 258 36" enable-background="new 0 0 258 36" xml:space="preserve">
<g>
	<path fill="#545454" d="M29.355,16.396c0.855,0.346,1.518,0.867,1.986,1.567c0.469,0.699,0.703,1.501,0.703,2.406
		c0,0.904-0.145,1.784-0.432,2.64c-0.289,0.855-0.695,1.616-1.222,2.281c-0.526,0.667-1.155,1.202-1.888,1.604
		c-0.732,0.403-1.542,0.604-2.431,0.604c-0.444,0-0.859-0.054-1.246-0.16s-0.728-0.264-1.024-0.469
		c-0.295-0.205-0.529-0.465-0.703-0.777c-0.172-0.313-0.259-0.683-0.259-1.11c0-0.69,0.173-1.283,0.519-1.776
		c0.346-0.494,0.839-0.74,1.48-0.74c0.411,0,0.736,0.132,0.975,0.396c0.238,0.263,0.357,0.559,0.357,0.887
		c0,0.626-0.313,0.938-0.938,0.938c-0.51,0-0.912-0.212-1.209-0.641c-0.099,0.182-0.147,0.403-0.147,0.666
		c0,0.51,0.196,0.93,0.592,1.259c0.395,0.328,0.871,0.493,1.431,0.493c0.74,0,1.415-0.173,2.023-0.518
		c0.608-0.346,1.131-0.807,1.567-1.382c0.436-0.576,0.777-1.234,1.024-1.975c0.246-0.739,0.369-1.505,0.369-2.295
		c0-0.624-0.156-1.2-0.469-1.727c-0.313-0.527-0.757-0.88-1.332-1.062c-0.1,0.411-0.297,0.835-0.592,1.271
		c-0.297,0.435-0.639,0.831-1.024,1.184c-0.387,0.354-0.798,0.646-1.233,0.876s-0.852,0.346-1.247,0.346
		c-0.872,0-1.308-0.37-1.308-1.11c0-0.544,0.133-1.05,0.395-1.518c0.264-0.469,0.605-0.876,1.024-1.222
		c0.42-0.345,0.901-0.617,1.444-0.814c0.542-0.197,1.102-0.296,1.678-0.296c0.098-0.31,0.148-0.645,0.148-1.005
		c0-0.393-0.059-0.757-0.174-1.091c-0.115-0.335-0.283-0.63-0.506-0.883c-0.222-0.253-0.498-0.453-0.826-0.601
		c-0.329-0.148-0.699-0.222-1.11-0.222c-0.182,0-0.296,0.009-0.346,0.026c-1.761,4.959-3.438,8.691-5.034,11.195
		c-1.596,2.505-3.166,3.757-4.713,3.757c-0.69,0-1.254-0.255-1.689-0.764c-0.437-0.51-0.654-1.235-0.654-2.173
		c0-1.019,0.197-2.056,0.592-3.108s0.922-2.068,1.579-3.048c0.658-0.979,1.411-1.899,2.259-2.764
		c0.846-0.863,1.73-1.611,2.652-2.245c0.921-0.633,1.838-1.135,2.751-1.504c0.913-0.371,1.756-0.556,2.529-0.556
		c0.543,0,1.049,0.105,1.517,0.32c0.47,0.213,0.873,0.506,1.21,0.876c0.337,0.369,0.604,0.798,0.802,1.283
		c0.197,0.484,0.296,0.998,0.296,1.542C29.502,15.656,29.454,16.035,29.355,16.396z M24,12.744
		c-1.102,0.297-2.389,1.058-3.861,2.283c-1.472,1.226-2.783,2.724-3.936,4.49c-1.151,1.769-1.727,3.401-1.727,4.898
		c0,0.56,0.11,0.999,0.332,1.319c0.223,0.321,0.521,0.482,0.9,0.482c0.51,0,1.053-0.239,1.629-0.716
		c0.576-0.478,1.086-1.037,1.531-1.678c0.443-0.643,0.916-1.447,1.418-2.418s0.893-1.773,1.172-2.406
		C21.738,18.366,22.585,16.281,24,12.744z M25.135,20.171c0.164,0,0.383-0.09,0.653-0.271c0.271-0.18,0.552-0.414,0.84-0.703
		c0.287-0.286,0.551-0.6,0.789-0.937s0.398-0.663,0.481-0.976h-0.246c-0.347,0-0.691,0.087-1.037,0.259
		c-0.345,0.174-0.653,0.387-0.925,0.643c-0.271,0.255-0.49,0.531-0.654,0.825c-0.164,0.297-0.247,0.568-0.247,0.815
		C24.79,20.058,24.905,20.171,25.135,20.171z"/>
	<path fill="#545454" d="M38.707,27.303c-1.678,0-2.965-0.472-3.861-1.418S33.5,23.709,33.5,22.195c0-0.542,0.07-1.118,0.21-1.728
		c0.139-0.608,0.374-1.241,0.703-1.899c0.328-0.658,0.74-1.247,1.234-1.764c0.493-0.519,1.126-0.946,1.899-1.284
		c0.772-0.338,1.629-0.506,2.565-0.506c1.68,0,2.97,0.474,3.875,1.419c0.904,0.946,1.357,2.176,1.357,3.688
		c0,0.543-0.07,1.123-0.211,1.74c-0.139,0.617-0.382,1.25-0.727,1.9c-0.346,0.65-0.762,1.233-1.247,1.751
		c-0.485,0.519-1.114,0.947-1.888,1.283C40.5,27.134,39.644,27.303,38.707,27.303z M38.707,26.268c1.103,0,2.073-0.317,2.912-0.951
		c0.838-0.633,1.456-1.395,1.852-2.283c0.394-0.888,0.592-1.792,0.592-2.713c0-0.707-0.107-1.36-0.32-1.963
		c-0.215-0.6-0.627-1.135-1.234-1.604c-0.609-0.468-1.391-0.703-2.344-0.703c-1.104,0-2.078,0.317-2.925,0.95
		c-0.847,0.634-1.468,1.395-1.862,2.283c-0.395,0.887-0.594,1.793-0.594,2.713c0,0.709,0.107,1.362,0.322,1.963
		c0.213,0.601,0.629,1.134,1.245,1.604C36.968,26.032,37.752,26.268,38.707,26.268z M38.559,20.518
		c-0.329-0.296-0.493-0.51-0.493-0.642c0-0.147,0.098-0.284,0.295-0.408c0.198-0.123,0.387-0.184,0.568-0.184
		c0.082,0,0.148,0.053,0.197,0.16c0.05,0.107,0.082,0.259,0.099,0.455c0.017,0.198,0.024,0.306,0.024,0.322
		c0.148,0,0.288,0.016,0.42,0.049c0.017-0.016,0.053-0.123,0.111-0.321c0.057-0.197,0.119-0.34,0.186-0.432
		c0.064-0.09,0.139-0.136,0.222-0.136c0.197,0,0.394,0.083,0.592,0.247c0.197,0.165,0.296,0.337,0.296,0.519
		c0,0.099-0.256,0.263-0.766,0.493c0.083,0.083,0.132,0.164,0.148,0.247c0.396-0.197,0.643-0.296,0.74-0.296
		c0.313,0,0.469,0.181,0.469,0.543c0,0.509-0.205,0.764-0.617,0.764c-0.049,0-0.254-0.074-0.616-0.222
		c-0.017,0.05-0.099,0.147-0.246,0.297c0.378,0.379,0.567,0.633,0.567,0.765c0,0.164-0.087,0.301-0.26,0.406
		c-0.172,0.108-0.357,0.161-0.555,0.161c-0.182,0-0.313-0.354-0.395-1.061c-0.115,0.031-0.23,0.031-0.346,0
		c-0.017,0.017-0.066,0.143-0.148,0.382c-0.083,0.239-0.164,0.416-0.246,0.53c-0.083,0.115-0.165,0.173-0.247,0.173
		c-0.181,0-0.37-0.081-0.567-0.246s-0.297-0.337-0.297-0.519c0-0.066,0.256-0.289,0.766-0.667c-0.066-0.064-0.133-0.164-0.197-0.296
		c-0.083,0.083-0.313,0.124-0.691,0.124c-0.264,0-0.395-0.181-0.395-0.543c0-0.313,0.14-0.469,0.419-0.469
		c0.378,0,0.608,0.032,0.691,0.099C38.353,20.681,38.444,20.583,38.559,20.518z M38.831,20.788c-0.132,0.132-0.198,0.289-0.198,0.47
		s0.07,0.342,0.211,0.481c0.139,0.14,0.299,0.209,0.48,0.209c0.181,0,0.342-0.069,0.482-0.209c0.139-0.14,0.209-0.301,0.209-0.481
		s-0.07-0.342-0.209-0.481c-0.141-0.14-0.302-0.21-0.482-0.21C39.142,20.566,38.979,20.641,38.831,20.788z"/>
	<path fill="#545454" d="M49.588,25.107c0,0.427-0.271,0.79-0.813,1.086c0.197,0.082,0.386,0.122,0.567,0.122
		c0.51,0,1.036-0.403,1.579-1.208c0.543-0.806,0.999-1.752,1.369-2.839c0.37-1.085,0.675-2.142,0.913-3.17
		c0.238-1.027,0.358-1.806,0.358-2.332c0-0.773-0.412-1.16-1.234-1.16c-0.855,0-1.744,0.341-2.664,1.024
		c-0.922,0.683-1.383,1.444-1.383,2.282c0,0.395,0.1,0.593,0.297,0.593c0.016,0,0.04-0.095,0.074-0.283
		c0.032-0.189,0.123-0.374,0.271-0.556c0.146-0.182,0.369-0.271,0.665-0.271c0.28,0,0.519,0.094,0.716,0.284
		c0.197,0.188,0.297,0.423,0.297,0.702c0,0.396-0.182,0.699-0.543,0.913c-0.362,0.214-0.773,0.32-1.234,0.32
		c-0.493,0-0.908-0.147-1.246-0.444c-0.338-0.295-0.506-0.756-0.506-1.38c0-1.137,0.576-2.147,1.728-3.036
		c1.151-0.888,2.377-1.332,3.677-1.332c1.546,0,2.318,0.798,2.318,2.393c0,0.05-0.016,0.222-0.049,0.519
		c0.576-0.592,1.287-1.114,2.135-1.566s1.592-0.679,2.233-0.679c1.479,0,2.221,0.814,2.221,2.442c0,0.807-0.269,2.045-0.802,3.714
		c-0.535,1.67-0.803,2.768-0.803,3.294c0,0.511,0.182,0.901,0.543,1.173c0.362,0.271,0.807,0.406,1.332,0.406
		c0.594,0,1.123-0.186,1.592-0.559c0.469-0.374,0.704-0.875,0.704-1.506c0-0.347-0.103-0.616-0.309-0.808
		c-0.206-0.19-0.448-0.286-0.729-0.286c-0.196,0-0.366,0.047-0.505,0.138c-0.141,0.092-0.211,0.203-0.211,0.336
		c0.28,0.232,0.42,0.533,0.42,0.898c0,0.284-0.095,0.503-0.283,0.662c-0.189,0.157-0.407,0.237-0.654,0.237
		c-0.263,0-0.49-0.084-0.678-0.248c-0.189-0.164-0.285-0.396-0.285-0.69c0-0.609,0.165-1.132,0.494-1.567s0.863-0.654,1.604-0.654
		c0.592,0,1.115,0.201,1.566,0.605c0.453,0.403,0.68,0.909,0.68,1.517c0,0.954-0.346,1.704-1.037,2.246
		c-0.691,0.543-1.497,0.814-2.418,0.814c-0.855,0-1.588-0.239-2.195-0.716c-0.609-0.477-0.914-1.143-0.914-1.999
		c0-0.69,0.279-1.85,0.84-3.479c0.559-1.628,0.839-2.82,0.839-3.578c0-0.756-0.338-1.134-1.012-1.134
		c-0.69,0-1.501,0.304-2.431,0.912s-1.69,1.259-2.282,1.949c-0.197,0.906-0.437,1.789-0.716,2.653
		c-0.28,0.863-0.621,1.735-1.024,2.615c-0.403,0.879-0.884,1.592-1.443,2.135s-1.151,0.814-1.776,0.814
		c-0.543,0-1.032-0.161-1.469-0.482c-0.436-0.32-0.654-0.776-0.654-1.369c0-0.428,0.128-0.756,0.383-0.987
		c0.255-0.229,0.547-0.345,0.877-0.345c0.295,0,0.538,0.073,0.729,0.222C49.494,24.613,49.588,24.827,49.588,25.107z"/>
	<path fill="#545454" d="M66.22,10.746c0-0.74,0.222-1.3,0.666-1.678c0.444-0.379,0.953-0.568,1.53-0.568
		c0.542,0,1.04,0.193,1.493,0.58c0.451,0.387,0.678,0.966,0.678,1.739c0,0.363-0.021,0.712-0.062,1.05
		c-0.041,0.337-0.106,0.699-0.197,1.085c-0.091,0.388-0.197,0.802-0.321,1.246c-0.123,0.444-0.268,0.946-0.432,1.506
		c-0.164,0.526-0.313,1.036-0.443,1.53c-0.133,0.492-0.247,0.97-0.346,1.431c0.477-1.234,1.151-2.172,2.023-2.813
		c0.871-0.642,1.826-0.963,2.861-0.963c0.593,0,1.132,0.128,1.617,0.383c0.484,0.256,0.9,0.597,1.246,1.024s0.607,0.935,0.789,1.518
		c0.182,0.585,0.271,1.205,0.271,1.862c0,0.905-0.152,1.813-0.456,2.727c-0.305,0.914-0.737,1.736-1.296,2.468
		c-0.559,0.732-1.237,1.329-2.035,1.79c-0.799,0.46-1.69,0.69-2.678,0.69c-1.185,0-2.143-0.436-2.875-1.308
		c-0.732-0.871-1.098-2.155-1.098-3.85c0-1.515,0.37-3.553,1.11-6.12c0.74-2.566,1.11-4.285,1.11-5.157
		c0-0.378-0.082-0.694-0.246-0.949c-0.165-0.256-0.379-0.382-0.643-0.382c-0.23,0-0.477,0.115-0.74,0.344
		c0.215,0.216,0.32,0.486,0.32,0.815c0,0.296-0.09,0.548-0.271,0.753c-0.182,0.205-0.403,0.308-0.667,0.308
		c-0.262,0-0.48-0.103-0.653-0.308S66.22,11.042,66.22,10.746z M71.796,22.813c-0.379-0.328-0.566-0.749-0.566-1.259
		c0-0.345,0.102-0.617,0.308-0.814s0.439-0.295,0.704-0.295c0.295,0,0.542,0.105,0.74,0.32c0.197,0.213,0.295,0.525,0.295,0.938
		c0,0.608-0.164,1.099-0.493,1.468c-0.329,0.37-0.807,0.556-1.431,0.556c-0.889,0-1.559-0.342-2.012-1.024
		c-0.452-0.683-0.678-1.624-0.678-2.825c-0.197,0.889-0.297,1.72-0.297,2.492c0,1.136,0.242,2.052,0.729,2.752
		c0.484,0.698,1.229,1.048,2.232,1.048c0.691,0,1.345-0.182,1.962-0.543c0.616-0.362,1.16-0.838,1.628-1.432
		c0.47-0.592,0.84-1.271,1.111-2.036c0.271-0.764,0.407-1.549,0.407-2.355c0-1.233-0.276-2.162-0.827-2.788
		s-1.205-0.938-1.961-0.938c-0.494,0-0.971,0.107-1.432,0.321s-0.876,0.506-1.246,0.876c-0.371,0.37-0.666,0.807-0.889,1.308
		s-0.333,1.049-0.333,1.642c0,0.296,0.046,0.597,0.136,0.899c0.091,0.306,0.223,0.581,0.395,0.827
		c0.174,0.247,0.387,0.448,0.642,0.604C71.175,22.71,71.466,22.795,71.796,22.813z"/>
	<path fill="#545454" d="M84.431,27.303c-1.679,0-2.966-0.472-3.862-1.418s-1.345-2.176-1.345-3.689c0-0.542,0.07-1.118,0.209-1.728
		c0.141-0.608,0.375-1.241,0.703-1.899c0.33-0.658,0.742-1.247,1.234-1.764c0.494-0.519,1.127-0.946,1.9-1.284
		s1.629-0.506,2.566-0.506c1.678,0,2.969,0.474,3.874,1.419c0.903,0.946,1.356,2.176,1.356,3.688c0,0.543-0.069,1.123-0.209,1.74
		c-0.141,0.617-0.383,1.25-0.729,1.9s-0.761,1.233-1.246,1.751c-0.485,0.519-1.114,0.947-1.888,1.283
		C86.224,27.134,85.369,27.303,84.431,27.303z M84.431,26.268c1.102,0,2.072-0.317,2.912-0.951c0.838-0.633,1.455-1.395,1.85-2.283
		c0.395-0.888,0.592-1.792,0.592-2.713c0-0.707-0.106-1.36-0.32-1.963c-0.215-0.6-0.625-1.135-1.234-1.604
		c-0.608-0.468-1.39-0.703-2.344-0.703c-1.102,0-2.076,0.317-2.924,0.95c-0.848,0.634-1.469,1.395-1.862,2.283
		c-0.396,0.887-0.593,1.793-0.593,2.713c0,0.709,0.106,1.362,0.32,1.963s0.63,1.134,1.246,1.604
		C82.691,26.032,83.476,26.268,84.431,26.268z M84.283,20.518c-0.33-0.296-0.493-0.51-0.493-0.642c0-0.147,0.099-0.284,0.296-0.408
		c0.197-0.123,0.387-0.184,0.567-0.184c0.082,0,0.147,0.053,0.197,0.16s0.082,0.259,0.099,0.455
		c0.016,0.198,0.025,0.306,0.025,0.322c0.146,0,0.287,0.016,0.419,0.049c0.017-0.016,0.053-0.123,0.11-0.321
		c0.059-0.197,0.119-0.34,0.186-0.432c0.065-0.09,0.139-0.136,0.223-0.136c0.197,0,0.395,0.083,0.592,0.247
		c0.197,0.165,0.297,0.337,0.297,0.519c0,0.099-0.256,0.263-0.766,0.493c0.082,0.083,0.131,0.164,0.148,0.247
		c0.395-0.197,0.641-0.296,0.74-0.296c0.312,0,0.469,0.181,0.469,0.543c0,0.509-0.206,0.764-0.617,0.764
		c-0.05,0-0.256-0.074-0.617-0.222c-0.017,0.05-0.099,0.147-0.246,0.297c0.378,0.379,0.567,0.633,0.567,0.765
		c0,0.164-0.087,0.301-0.259,0.406c-0.174,0.108-0.358,0.161-0.556,0.161c-0.181,0-0.313-0.354-0.396-1.061
		c-0.115,0.031-0.23,0.031-0.345,0c-0.017,0.017-0.065,0.143-0.148,0.382s-0.165,0.416-0.247,0.53
		c-0.082,0.115-0.164,0.173-0.246,0.173c-0.182,0-0.371-0.081-0.567-0.246c-0.198-0.165-0.296-0.337-0.296-0.519
		c0-0.066,0.254-0.289,0.765-0.667c-0.065-0.064-0.132-0.164-0.197-0.296c-0.083,0.083-0.313,0.124-0.691,0.124
		c-0.263,0-0.395-0.181-0.395-0.543c0-0.313,0.14-0.469,0.419-0.469c0.379,0,0.609,0.032,0.691,0.099
		C84.078,20.681,84.167,20.583,84.283,20.518z M84.554,20.788c-0.133,0.132-0.197,0.289-0.197,0.47s0.069,0.342,0.209,0.481
		s0.301,0.209,0.481,0.209s0.342-0.069,0.481-0.209c0.139-0.14,0.21-0.301,0.21-0.481s-0.071-0.342-0.21-0.481
		c-0.14-0.14-0.301-0.21-0.481-0.21S84.703,20.641,84.554,20.788z"/>
	<path fill="#545454" d="M95.312,25.107c0,0.427-0.271,0.79-0.814,1.086c0.198,0.082,0.387,0.122,0.568,0.122
		c0.51,0,1.037-0.403,1.578-1.208c0.544-0.806,1-1.752,1.37-2.839c0.37-1.085,0.675-2.142,0.913-3.17
		c0.238-1.027,0.357-1.806,0.357-2.332c0-0.773-0.41-1.16-1.232-1.16c-0.855,0-1.744,0.341-2.666,1.024
		c-0.922,0.683-1.381,1.444-1.381,2.282c0,0.395,0.098,0.593,0.295,0.593c0.017,0,0.041-0.095,0.075-0.283
		c0.032-0.189,0.122-0.374,0.271-0.556s0.371-0.271,0.666-0.271c0.28,0,0.52,0.094,0.716,0.284c0.197,0.188,0.296,0.423,0.296,0.702
		c0,0.396-0.181,0.699-0.543,0.913c-0.361,0.214-0.773,0.32-1.233,0.32c-0.493,0-0.909-0.147-1.246-0.444
		c-0.338-0.295-0.506-0.756-0.506-1.38c0-1.137,0.575-2.147,1.728-3.036c1.151-0.888,2.377-1.332,3.677-1.332
		c1.546,0,2.319,0.798,2.319,2.393c0,0.05-0.017,0.222-0.049,0.519c0.575-0.592,1.286-1.114,2.135-1.566
		c0.846-0.452,1.59-0.679,2.233-0.679c1.48,0,2.221,0.814,2.221,2.442c0,0.807-0.268,2.045-0.803,3.714
		c-0.535,1.67-0.801,2.768-0.801,3.294c0,0.511,0.18,0.901,0.541,1.173c0.363,0.271,0.807,0.406,1.334,0.406
		c0.592,0,1.123-0.186,1.59-0.559c0.471-0.374,0.705-0.875,0.705-1.506c0-0.347-0.104-0.616-0.309-0.808
		c-0.207-0.19-0.449-0.286-0.729-0.286c-0.197,0-0.367,0.047-0.506,0.138c-0.139,0.092-0.209,0.203-0.209,0.336
		c0.279,0.232,0.42,0.533,0.42,0.898c0,0.284-0.096,0.503-0.285,0.662c-0.189,0.157-0.406,0.237-0.654,0.237
		c-0.262,0-0.488-0.084-0.678-0.248s-0.283-0.396-0.283-0.69c0-0.609,0.164-1.132,0.492-1.567c0.33-0.436,0.865-0.654,1.605-0.654
		c0.592,0,1.113,0.201,1.566,0.605c0.451,0.403,0.678,0.909,0.678,1.517c0,0.954-0.346,1.704-1.035,2.246
		c-0.691,0.543-1.498,0.814-2.418,0.814c-0.857,0-1.59-0.239-2.197-0.716c-0.609-0.477-0.912-1.143-0.912-1.999
		c0-0.69,0.279-1.85,0.838-3.479c0.561-1.628,0.84-2.82,0.84-3.578c0-0.756-0.338-1.134-1.012-1.134
		c-0.691,0-1.502,0.304-2.431,0.912c-0.93,0.608-1.69,1.259-2.282,1.949c-0.197,0.906-0.437,1.789-0.716,2.653
		c-0.28,0.863-0.621,1.735-1.024,2.615c-0.403,0.879-0.884,1.592-1.443,2.135s-1.151,0.814-1.776,0.814
		c-0.543,0-1.032-0.161-1.469-0.482c-0.436-0.32-0.653-0.776-0.653-1.369c0-0.428,0.127-0.756,0.383-0.987
		c0.254-0.229,0.547-0.345,0.875-0.345c0.296,0,0.539,0.073,0.729,0.222C95.217,24.613,95.312,24.827,95.312,25.107z"/>
</g>
</svg>
