<?xml version="1.0" encoding="utf-8"?>
<!-- Generator: Adobe Illustrator 16.0.0, SVG Export Plug-In . SVG Version: 6.00 Build 0)  -->
<!DOCTYPE svg PUBLIC "-//W3C//DTD SVG 1.1//EN" "http://www.w3.org/Graphics/SVG/1.1/DTD/svg11.dtd">
<svg version="1.1" id="图层_1" xmlns="http://www.w3.org/2000/svg" xmlns:xlink="http://www.w3.org/1999/xlink" x="0px" y="0px"
	 width="258px" height="36px" viewBox="0 0 258 36" enable-background="new 0 0 258 36" xml:space="preserve">
<g>
	<path fill="#545454" d="M21.887,25.193H14.05c-0.259,0-0.446-0.058-0.562-0.174c-0.116-0.114-0.173-0.303-0.173-0.561V11.234
		c0-0.258,0.058-0.445,0.173-0.561c0.115-0.116,0.303-0.174,0.562-0.174h6.51c1.333,0,2.32,0.255,2.959,0.766
		c0.639,0.51,0.958,1.296,0.958,2.356v0.979c0,0.572-0.099,1.038-0.296,1.397c-0.197,0.361-0.5,0.631-0.908,0.808
		c0.871,0.081,1.517,0.38,1.939,0.897c0.422,0.517,0.632,1.272,0.632,2.265v1.878c0,1.144-0.323,1.987-0.969,2.53
		C24.229,24.921,23.233,25.193,21.887,25.193z M15.581,23.357h5.49c0.571,0,1.034-0.052,1.388-0.154
		c0.354-0.102,0.623-0.241,0.806-0.417c0.184-0.178,0.309-0.392,0.377-0.644c0.068-0.252,0.102-0.527,0.102-0.827V20.01
		c0-0.34-0.031-0.652-0.092-0.938c-0.062-0.285-0.187-0.534-0.378-0.745c-0.19-0.21-0.462-0.374-0.816-0.489
		c-0.354-0.116-0.81-0.174-1.367-0.174c0.584-0.15,0.949-0.395,1.092-0.734s0.214-0.715,0.214-1.123V14.5
		c0-0.299-0.034-0.578-0.102-0.837c-0.068-0.258-0.197-0.486-0.388-0.684s-0.462-0.354-0.816-0.47
		c-0.354-0.114-0.81-0.174-1.368-0.174h-4.143V23.357z M19.723,12.541c1.021,0,1.687,0.19,2,0.571s0.47,0.844,0.47,1.388v1.306
		c0,0.245-0.024,0.48-0.071,0.704c-0.048,0.226-0.157,0.423-0.327,0.593c-0.17,0.17-0.418,0.306-0.745,0.408
		c-0.327,0.102-0.769,0.152-1.327,0.152h-3.938v-5.122H19.723z M21.091,17.867c1.02,0,1.684,0.204,1.99,0.612
		c0.306,0.408,0.459,0.918,0.459,1.53v1.306c0,0.559-0.156,1.005-0.47,1.338c-0.313,0.333-0.979,0.5-2,0.5h-5.286v-5.286H21.091z
		 M17.907,13.97v2.203h1.735c0.258,0,0.452-0.067,0.582-0.204c0.129-0.136,0.193-0.34,0.193-0.611v-0.571
		c0-0.272-0.064-0.477-0.193-0.612c-0.13-0.136-0.324-0.204-0.582-0.204H17.907z M17.907,19.316v2.407h2.653
		c0.258,0,0.452-0.067,0.582-0.204c0.129-0.136,0.194-0.34,0.194-0.611v-0.796c0-0.272-0.065-0.473-0.194-0.603
		c-0.129-0.129-0.323-0.193-0.582-0.193H17.907z"/>
	<path fill="#545454" d="M40.62,21.337c0,0.625-0.092,1.193-0.275,1.703c-0.184,0.511-0.511,0.946-0.979,1.307
		c-0.47,0.361-1.112,0.643-1.929,0.847c-0.815,0.204-1.857,0.307-3.122,0.307c-1.266,0-2.307-0.103-3.123-0.307
		s-1.459-0.485-1.928-0.847c-0.47-0.36-0.797-0.796-0.98-1.307c-0.184-0.51-0.274-1.078-0.274-1.703V11.234
		c0-0.258,0.058-0.445,0.173-0.561c0.115-0.116,0.303-0.174,0.562-0.174h3.204c0.258,0,0.445,0.058,0.561,0.174
		c0.115,0.115,0.174,0.303,0.174,0.561v9.306c0,0.272,0.102,0.501,0.307,0.684c0.203,0.185,0.659,0.276,1.367,0.276
		c0.721,0,1.184-0.092,1.388-0.276c0.204-0.183,0.306-0.411,0.306-0.684v-9.306c0-0.258,0.058-0.445,0.174-0.561
		c0.115-0.116,0.303-0.174,0.561-0.174h3.102c0.259,0,0.446,0.058,0.563,0.174c0.115,0.115,0.173,0.303,0.173,0.561V21.337z
		 M30.253,12.336v8.511c0,0.816,0.282,1.479,0.847,1.989c0.564,0.511,1.643,0.766,3.234,0.766c1.593,0,2.674-0.255,3.246-0.766
		c0.57-0.51,0.857-1.173,0.857-1.989v-8.511h-0.205v8.511c0,0.763-0.271,1.377-0.816,1.847c-0.545,0.469-1.57,0.705-3.082,0.705
		c-1.51,0-2.533-0.236-3.07-0.705c-0.538-0.47-0.807-1.084-0.807-1.847v-8.511H30.253z"/>
	<path fill="#545454" d="M47.131,25.193h-3.063c-0.258,0-0.445-0.058-0.561-0.174c-0.115-0.114-0.174-0.303-0.174-0.561V11.234
		c0-0.258,0.059-0.445,0.174-0.561c0.115-0.116,0.303-0.174,0.561-0.174h2.123c0.258,0,0.479,0.041,0.663,0.122
		c0.185,0.082,0.364,0.226,0.541,0.43l3.959,4.53v-4.348c0-0.258,0.058-0.445,0.173-0.561c0.116-0.116,0.303-0.174,0.563-0.174
		h3.061c0.258,0,0.445,0.058,0.561,0.174c0.115,0.115,0.174,0.303,0.174,0.561v13.225c0,0.258-0.059,0.446-0.174,0.561
		c-0.115,0.116-0.303,0.174-0.561,0.174H52.09c-0.26,0-0.446-0.058-0.563-0.174c-0.115-0.114-0.173-0.303-0.173-0.561v-2.51
		l-3.489-4.225v6.734c0,0.258-0.059,0.446-0.174,0.561C47.576,25.136,47.389,25.193,47.131,25.193z M46.028,12.5
		c-0.068-0.067-0.122-0.115-0.163-0.143s-0.089-0.041-0.144-0.041c-0.054,0-0.108,0.02-0.163,0.061s-0.082,0.103-0.082,0.185v10.796
		h0.205V12.602c0-0.013,0.002-0.027,0.01-0.04c0.007-0.014,0.018-0.021,0.03-0.021c0.015,0,0.03,0.007,0.052,0.021
		c0.02,0.013,0.037,0.027,0.051,0.04l7.715,8.653v2.103h0.203V12.336h-0.203v8.612L46.028,12.5z"/>
	<path fill="#545454" d="M69.925,25.193h-6.429c-1.701,0-2.963-0.34-3.785-1.021c-0.824-0.68-1.234-1.728-1.234-3.143v-6.367
		c0-1.415,0.41-2.463,1.234-3.143c0.822-0.68,2.084-1.021,3.785-1.021h5.102c0.26,0,0.445,0.058,0.563,0.174
		c0.115,0.115,0.173,0.303,0.173,0.561v2.47c0,0.259-0.058,0.445-0.173,0.562c-0.117,0.116-0.303,0.173-0.563,0.173h-4.244
		c-0.422,0-0.734,0.085-0.939,0.255c-0.203,0.171-0.306,0.426-0.306,0.767v4.877c0,0.34,0.079,0.592,0.235,0.755
		s0.391,0.245,0.703,0.245h1.98v-3.185c0-0.258,0.057-0.444,0.174-0.561c0.115-0.115,0.303-0.174,0.561-0.174h3.163
		c0.259,0,0.446,0.059,0.562,0.174c0.115,0.116,0.173,0.303,0.173,0.561v6.307c0,0.258-0.058,0.446-0.173,0.561
		C70.371,25.136,70.184,25.193,69.925,25.193z M64.374,23.357h4.062v-4.103H68.23v3.898h-3.856c-1.374,0-2.296-0.185-2.765-0.552
		c-0.471-0.367-0.705-0.992-0.705-1.877v-5.714c0-0.898,0.211-1.534,0.633-1.908s1.231-0.562,2.429-0.562h3.53v-0.205h-3.53
		c-1.306,0-2.177,0.205-2.612,0.613s-0.652,1.096-0.652,2.062v5.714c0,0.477,0.051,0.881,0.152,1.214
		c0.102,0.334,0.289,0.605,0.562,0.816s0.646,0.364,1.122,0.459C63.014,23.31,63.626,23.357,64.374,23.357z"/>
	<path fill="#545454" d="M83.354,25.193h-9.469c-0.26,0-0.447-0.058-0.563-0.174c-0.115-0.114-0.173-0.303-0.173-0.561V11.234
		c0-0.258,0.058-0.445,0.173-0.561c0.115-0.116,0.303-0.174,0.563-0.174h9.469c0.258,0,0.445,0.058,0.561,0.174
		c0.115,0.115,0.174,0.303,0.174,0.561v2.388c0,0.259-0.059,0.446-0.174,0.562c-0.115,0.116-0.303,0.173-0.561,0.173h-5.633v1.572
		H81.7c0.258,0,0.445,0.058,0.562,0.173c0.115,0.116,0.173,0.303,0.173,0.562v2.184c0,0.259-0.058,0.446-0.173,0.562
		c-0.116,0.116-0.304,0.173-0.562,0.173h-3.979v1.756h5.633c0.258,0,0.445,0.058,0.561,0.174c0.115,0.114,0.174,0.303,0.174,0.561
		v2.388c0,0.258-0.059,0.446-0.174,0.561C83.799,25.136,83.611,25.193,83.354,25.193z M82.251,23.153h-6.673v-5.286h5.02v-0.204
		h-5.02v-5.122h6.673v-0.205h-6.878v11.021h6.878V23.153z"/>
	<path fill="#545454" d="M96.699,25.193H87.23c-0.259,0-0.446-0.058-0.562-0.174c-0.116-0.114-0.173-0.303-0.173-0.561V11.234
		c0-0.258,0.057-0.445,0.173-0.561c0.115-0.116,0.303-0.174,0.562-0.174h9.469c0.258,0,0.445,0.058,0.561,0.174
		c0.117,0.115,0.174,0.303,0.174,0.561v2.388c0,0.259-0.057,0.446-0.174,0.562c-0.115,0.116-0.303,0.173-0.561,0.173h-5.633v1.572
		h3.98c0.258,0,0.445,0.058,0.561,0.173c0.115,0.116,0.174,0.303,0.174,0.562v2.184c0,0.259-0.059,0.446-0.174,0.562
		c-0.115,0.116-0.303,0.173-0.561,0.173h-3.98v1.756h5.633c0.258,0,0.445,0.058,0.561,0.174c0.117,0.114,0.174,0.303,0.174,0.561
		v2.388c0,0.258-0.057,0.446-0.174,0.561C97.145,25.136,96.957,25.193,96.699,25.193z M95.598,23.153h-6.674v-5.286h5.021v-0.204
		h-5.021v-5.122h6.674v-0.205H88.72v11.021h6.878V23.153z"/>
	<path fill="#545454" d="M104.842,25.193c-0.259,0-0.446-0.058-0.562-0.174c-0.116-0.114-0.174-0.303-0.174-0.561V22.03
		c0-0.258,0.058-0.446,0.174-0.561c0.115-0.116,0.303-0.174,0.562-0.174h2.02v-6.857h-2.02c-0.259,0-0.446-0.057-0.562-0.173
		c-0.116-0.116-0.174-0.303-0.174-0.562v-2.47c0-0.258,0.058-0.445,0.174-0.561c0.115-0.116,0.303-0.174,0.562-0.174h8.693
		c0.258,0,0.445,0.058,0.561,0.174c0.115,0.115,0.174,0.303,0.174,0.561v2.47c0,0.259-0.059,0.445-0.174,0.562
		s-0.303,0.173-0.561,0.173h-1.98v6.857h1.98c0.258,0,0.445,0.058,0.561,0.174c0.115,0.114,0.174,0.303,0.174,0.561v2.429
		c0,0.258-0.059,0.446-0.174,0.561c-0.115,0.116-0.303,0.174-0.561,0.174H104.842z M112.434,23.357v-0.204h-3.123V12.541h3.123
		v-0.205h-6.49v0.205h3.163v10.612h-3.163v0.204H112.434z"/>
	<path fill="#545454" d="M120.576,25.193h-3.062c-0.259,0-0.446-0.058-0.562-0.174c-0.115-0.114-0.173-0.303-0.173-0.561V11.234
		c0-0.258,0.058-0.445,0.173-0.561c0.115-0.116,0.303-0.174,0.562-0.174h2.122c0.258,0,0.479,0.041,0.663,0.122
		c0.185,0.082,0.364,0.226,0.541,0.43l3.96,4.53v-4.348c0-0.258,0.057-0.445,0.172-0.561c0.117-0.116,0.303-0.174,0.563-0.174h3.061
		c0.259,0,0.445,0.058,0.562,0.174c0.115,0.115,0.173,0.303,0.173,0.561v13.225c0,0.258-0.058,0.446-0.173,0.561
		c-0.116,0.116-0.303,0.174-0.562,0.174h-3.061c-0.26,0-0.445-0.058-0.563-0.174c-0.115-0.114-0.172-0.303-0.172-0.561v-2.51
		l-3.49-4.225v6.734c0,0.258-0.059,0.446-0.174,0.561C121.021,25.136,120.834,25.193,120.576,25.193z M119.475,12.5
		c-0.068-0.067-0.123-0.115-0.164-0.143s-0.088-0.041-0.143-0.041s-0.109,0.02-0.164,0.061c-0.054,0.041-0.082,0.103-0.082,0.185
		v10.796h0.205V12.602c0-0.013,0.003-0.027,0.01-0.04c0.007-0.014,0.018-0.021,0.031-0.021s0.03,0.007,0.051,0.021
		c0.02,0.013,0.037,0.027,0.051,0.04l7.715,8.653v2.103h0.203V12.336h-0.203v8.612L119.475,12.5z"/>
	<path fill="#545454" d="M143.268,25.193h-10.387c-0.258,0-0.445-0.058-0.561-0.174c-0.117-0.114-0.174-0.303-0.174-0.561V11.234
		c0-0.258,0.057-0.445,0.174-0.561c0.115-0.116,0.303-0.174,0.561-0.174h3.163c0.259,0,0.446,0.058,0.562,0.174
		c0.115,0.115,0.173,0.303,0.173,0.561v10.103h2.796V18.03c0-0.258,0.059-0.445,0.174-0.561c0.115-0.116,0.303-0.174,0.561-0.174
		h2.959c0.259,0,0.446,0.058,0.563,0.174c0.115,0.115,0.173,0.303,0.173,0.561v6.429c0,0.258-0.058,0.446-0.173,0.561
		C143.714,25.136,143.526,25.193,143.268,25.193z M134.371,23.357h7.51v-4.226h-0.205v4.021h-7.102V12.336h-0.203V23.357z"/>
	<path fill="#545454" d="M146.737,25.193c-0.259,0-0.446-0.058-0.562-0.174c-0.115-0.114-0.174-0.303-0.174-0.561V22.03
		c0-0.258,0.059-0.446,0.174-0.561c0.115-0.116,0.303-0.174,0.562-0.174h2.021v-6.857h-2.021c-0.259,0-0.446-0.057-0.562-0.173
		s-0.174-0.303-0.174-0.562v-2.47c0-0.258,0.059-0.445,0.174-0.561c0.115-0.116,0.303-0.174,0.562-0.174h8.693
		c0.259,0,0.446,0.058,0.562,0.174c0.115,0.115,0.174,0.303,0.174,0.561v2.47c0,0.259-0.059,0.445-0.174,0.562
		s-0.303,0.173-0.562,0.173h-1.979v6.857h1.979c0.259,0,0.446,0.058,0.562,0.174c0.115,0.114,0.174,0.303,0.174,0.561v2.429
		c0,0.258-0.059,0.446-0.174,0.561c-0.115,0.116-0.303,0.174-0.562,0.174H146.737z M154.329,23.357v-0.204h-3.122V12.541h3.122
		v-0.205h-6.489v0.205h3.162v10.612h-3.162v0.204H154.329z"/>
	<path fill="#545454" d="M162.472,25.193h-3.062c-0.258,0-0.445-0.058-0.561-0.174c-0.116-0.114-0.174-0.303-0.174-0.561V11.234
		c0-0.258,0.058-0.445,0.174-0.561c0.115-0.116,0.303-0.174,0.561-0.174h2.123c0.258,0,0.479,0.041,0.662,0.122
		c0.185,0.082,0.364,0.226,0.541,0.43l3.959,4.53v-4.348c0-0.258,0.059-0.445,0.174-0.561c0.115-0.116,0.303-0.174,0.562-0.174
		h3.062c0.258,0,0.445,0.058,0.561,0.174c0.115,0.115,0.174,0.303,0.174,0.561v13.225c0,0.258-0.059,0.446-0.174,0.561
		c-0.115,0.116-0.303,0.174-0.561,0.174h-3.062c-0.259,0-0.446-0.058-0.562-0.174c-0.115-0.114-0.174-0.303-0.174-0.561v-2.51
		l-3.489-4.225v6.734c0,0.258-0.058,0.446-0.173,0.561C162.917,25.136,162.729,25.193,162.472,25.193z M161.369,12.5
		c-0.068-0.067-0.122-0.115-0.162-0.143c-0.041-0.027-0.09-0.041-0.145-0.041c-0.053,0-0.107,0.02-0.162,0.061
		s-0.082,0.103-0.082,0.185v10.796h0.204V12.602c0-0.013,0.003-0.027,0.011-0.04c0.006-0.014,0.017-0.021,0.029-0.021
		c0.014,0,0.031,0.007,0.052,0.021c0.021,0.013,0.038,0.027,0.052,0.04l7.713,8.653v2.103h0.205V12.336h-0.205v8.612L161.369,12.5z"
		/>
	<path fill="#545454" d="M184.246,25.193h-9.469c-0.259,0-0.446-0.058-0.562-0.174c-0.116-0.114-0.173-0.303-0.173-0.561V11.234
		c0-0.258,0.057-0.445,0.173-0.561c0.115-0.116,0.303-0.174,0.562-0.174h9.469c0.258,0,0.445,0.058,0.561,0.174
		c0.116,0.115,0.174,0.303,0.174,0.561v2.388c0,0.259-0.058,0.446-0.174,0.562c-0.115,0.116-0.303,0.173-0.561,0.173h-5.633v1.572
		h3.98c0.258,0,0.445,0.058,0.561,0.173c0.115,0.116,0.174,0.303,0.174,0.562v2.184c0,0.259-0.059,0.446-0.174,0.562
		c-0.115,0.116-0.303,0.173-0.561,0.173h-3.98v1.756h5.633c0.258,0,0.445,0.058,0.561,0.174c0.116,0.114,0.174,0.303,0.174,0.561
		v2.388c0,0.258-0.058,0.446-0.174,0.561C184.691,25.136,184.504,25.193,184.246,25.193z M183.145,23.153h-6.674v-5.286h5.021
		v-0.204h-5.021v-5.122h6.674v-0.205h-6.878v11.021h6.878V23.153z"/>
</g>
</svg>
