<?xml version="1.0" encoding="utf-8"?>
<!-- Generator: Adobe Illustrator 16.0.0, SVG Export Plug-In . SVG Version: 6.00 Build 0)  -->
<!DOCTYPE svg PUBLIC "-//W3C//DTD SVG 1.1//EN" "http://www.w3.org/Graphics/SVG/1.1/DTD/svg11.dtd">
<svg version="1.1" id="图层_1" xmlns="http://www.w3.org/2000/svg" xmlns:xlink="http://www.w3.org/1999/xlink" x="0px" y="0px"
	 width="258px" height="36px" viewBox="0 0 258 36" enable-background="new 0 0 258 36" xml:space="preserve">
<g>
	<path fill="#545454" d="M14.221,26.204c-0.314,0-0.544-0.072-0.689-0.217c-0.144-0.144-0.216-0.373-0.216-0.688V12.55
		c0-0.17,0.023-0.315,0.069-0.433c0.045-0.118,0.115-0.217,0.206-0.295l2.539-2.145c0.065-0.054,0.154-0.096,0.265-0.128
		c0.111-0.033,0.233-0.05,0.364-0.05h6.276c1.364,0,2.367,0.266,3.011,0.797c0.642,0.531,0.964,1.335,0.964,2.41v0.944
		c0,0.459-0.063,0.853-0.188,1.181c-0.124,0.328-0.311,0.591-0.56,0.787l-0.059,0.039c0.708,0.158,1.239,0.495,1.594,1.014
		c0.354,0.519,0.531,1.236,0.531,2.154v1.81c0,0.591-0.086,1.1-0.256,1.525c-0.171,0.427-0.427,0.784-0.768,1.072l-2.538,2.145
		c-0.328,0.275-0.741,0.482-1.239,0.62c-0.499,0.138-1.083,0.206-1.751,0.206H14.221z M24.314,23.863
		c1.298,0,2.259-0.263,2.883-0.787c0.622-0.524,0.934-1.338,0.934-2.44v-1.81c0-0.957-0.203-1.686-0.609-2.184
		c-0.407-0.499-1.03-0.787-1.87-0.866c0.394-0.17,0.686-0.43,0.875-0.777c0.19-0.347,0.285-0.796,0.285-1.348v-0.944
		c0-1.023-0.308-1.78-0.924-2.271c-0.617-0.493-1.567-0.739-2.853-0.739h-6.276c-0.249,0-0.43,0.057-0.541,0.168
		c-0.112,0.111-0.167,0.292-0.167,0.541v12.75c0,0.248,0.056,0.43,0.167,0.54c0.111,0.112,0.292,0.168,0.541,0.168H24.314z
		 M23.527,22.093h-5.293V11.467h3.994c0.538,0,0.977,0.057,1.318,0.168c0.341,0.111,0.603,0.263,0.787,0.453
		c0.184,0.19,0.308,0.409,0.374,0.658c0.065,0.25,0.099,0.519,0.099,0.808v1.259c0,0.394-0.069,0.755-0.207,1.082
		c-0.138,0.328-0.488,0.563-1.052,0.708c0.538,0,0.977,0.056,1.318,0.168c0.341,0.111,0.603,0.269,0.787,0.472
		c0.184,0.203,0.305,0.443,0.364,0.719s0.089,0.577,0.089,0.904v1.26c0,0.289-0.033,0.554-0.099,0.797
		c-0.066,0.243-0.187,0.449-0.364,0.62c-0.177,0.17-0.436,0.305-0.777,0.402C24.524,22.043,24.078,22.093,23.527,22.093z
		 M22.229,11.665h-3.797v4.938h3.797c0.538,0,0.964-0.049,1.279-0.147c0.314-0.099,0.553-0.229,0.718-0.393
		c0.164-0.164,0.269-0.354,0.314-0.571c0.046-0.216,0.069-0.443,0.069-0.679v-1.259c0-0.524-0.151-0.971-0.453-1.338
		C23.855,11.848,23.212,11.665,22.229,11.665z M23.547,16.8h-5.116v5.096h5.096c0.983,0,1.626-0.16,1.928-0.481
		c0.302-0.321,0.453-0.752,0.453-1.289v-1.26c0-0.59-0.147-1.082-0.442-1.476C25.17,16.996,24.531,16.8,23.547,16.8z M20.478,13.042
		h1.672c0.249,0,0.436,0.065,0.561,0.196c0.124,0.131,0.187,0.328,0.187,0.591v0.551c0,0.262-0.063,0.459-0.187,0.59
		c-0.125,0.132-0.312,0.196-0.561,0.196h-1.672V13.042z M20.478,18.196h2.558c0.249,0,0.436,0.063,0.561,0.188
		c0.124,0.125,0.187,0.318,0.187,0.581v0.767c0,0.263-0.063,0.459-0.187,0.59c-0.125,0.132-0.312,0.196-0.561,0.196h-2.558V18.196z"
		/>
	<path fill="#545454" d="M35.726,26.5c-1.272,0-2.318-0.136-3.138-0.403c-0.82-0.27-1.46-0.627-1.919-1.072
		c-0.459-0.446-0.777-0.958-0.954-1.535c-0.178-0.577-0.266-1.174-0.266-1.79V12.55c0-0.17,0.022-0.315,0.068-0.433
		c0.047-0.118,0.115-0.217,0.207-0.295l2.538-2.145c0.065-0.054,0.153-0.096,0.266-0.128c0.111-0.033,0.233-0.05,0.364-0.05h3.089
		c0.314,0,0.544,0.072,0.688,0.217s0.217,0.373,0.217,0.688v8.972c0,0.118,0.02,0.226,0.059,0.325
		c0.039,0.098,0.125,0.174,0.256,0.226V12.55c0-0.17,0.02-0.315,0.059-0.433c0.04-0.118,0.1-0.21,0.178-0.275l0.02-0.02l2.559-2.145
		c0.064-0.054,0.15-0.096,0.255-0.128C40.375,9.517,40.5,9.5,40.645,9.5h2.99c0.314,0,0.545,0.072,0.689,0.217
		s0.216,0.373,0.216,0.688v9.739c0,0.604-0.085,1.16-0.256,1.673c-0.171,0.512-0.479,0.95-0.925,1.317l-2.558,2.125
		c-0.459,0.394-1.095,0.698-1.909,0.915C38.08,26.392,37.023,26.5,35.726,26.5z M44.344,20.145v-9.739
		c0-0.249-0.057-0.43-0.168-0.541s-0.292-0.168-0.541-0.168h-2.99c-0.25,0-0.43,0.057-0.541,0.168s-0.167,0.292-0.167,0.541v8.972
		c0,0.263-0.099,0.482-0.296,0.659s-0.643,0.266-1.338,0.266c-0.682,0-1.121-0.089-1.318-0.266
		c-0.196-0.177-0.295-0.396-0.295-0.659v-8.972c0-0.249-0.056-0.43-0.167-0.541s-0.292-0.168-0.541-0.168h-3.089
		c-0.25,0-0.43,0.057-0.541,0.168s-0.168,0.292-0.168,0.541v9.739c0,0.604,0.089,1.151,0.266,1.643
		c0.178,0.492,0.492,0.912,0.945,1.26c0.452,0.348,1.072,0.619,1.859,0.816c0.787,0.196,1.789,0.295,3.01,0.295
		c1.22,0,2.224-0.099,3.01-0.295c0.787-0.197,1.407-0.469,1.859-0.816c0.453-0.348,0.768-0.768,0.945-1.26
		C44.255,21.296,44.344,20.748,44.344,20.145z M34.348,11.467h0.197v8.206c0,0.734,0.259,1.327,0.777,1.78
		c0.518,0.452,1.505,0.679,2.961,0.679c1.457,0,2.446-0.227,2.971-0.679c0.525-0.453,0.787-1.046,0.787-1.78v-8.206h0.197v8.206
		c0,0.786-0.275,1.426-0.826,1.917c-0.551,0.493-1.594,0.739-3.129,0.739s-2.574-0.246-3.119-0.739
		c-0.544-0.491-0.816-1.131-0.816-1.917V11.467z"/>
	<path fill="#545454" d="M53.217,23.883l-2.558,2.125c-0.053,0.052-0.134,0.098-0.245,0.137c-0.112,0.04-0.234,0.06-0.365,0.06
		h-2.951c-0.314,0-0.544-0.072-0.688-0.217c-0.144-0.144-0.216-0.373-0.216-0.688V12.55c0-0.17,0.022-0.315,0.068-0.433
		c0.046-0.118,0.115-0.217,0.207-0.295l2.538-2.145c0.065-0.054,0.153-0.096,0.265-0.128c0.111-0.033,0.233-0.05,0.365-0.05h2.046
		c0.288,0,0.531,0.046,0.728,0.138c0.197,0.092,0.394,0.243,0.59,0.452l1.358,1.575l2.381-1.987
		c0.065-0.054,0.153-0.096,0.265-0.128c0.112-0.033,0.233-0.05,0.365-0.05h2.951c0.314,0,0.544,0.072,0.688,0.217
		c0.145,0.145,0.217,0.373,0.217,0.688v12.75c0,0.17-0.023,0.314-0.068,0.433c-0.047,0.118-0.115,0.216-0.207,0.295l-2.558,2.125
		c-0.053,0.052-0.135,0.098-0.245,0.137c-0.112,0.04-0.234,0.06-0.365,0.06H54.83c-0.314,0-0.544-0.072-0.688-0.217
		c-0.145-0.144-0.217-0.373-0.217-0.688v-2.342l-0.434-0.531v0.729c0,0.17-0.022,0.314-0.068,0.433
		C53.377,23.706,53.309,23.804,53.217,23.883z M52.588,23.863c0.248,0,0.43-0.056,0.541-0.168c0.111-0.11,0.167-0.292,0.167-0.54
		v-6.493l3.364,4.072v2.421c0,0.248,0.056,0.43,0.167,0.54c0.111,0.112,0.292,0.168,0.542,0.168h2.951
		c0.248,0,0.43-0.056,0.541-0.168c0.111-0.11,0.166-0.292,0.166-0.54v-12.75c0-0.249-0.055-0.43-0.166-0.541
		s-0.293-0.168-0.541-0.168h-2.951c-0.25,0-0.431,0.057-0.542,0.168s-0.167,0.292-0.167,0.541v4.191l-3.816-4.368
		c-0.172-0.197-0.346-0.335-0.521-0.414c-0.178-0.078-0.391-0.118-0.64-0.118h-2.046c-0.25,0-0.431,0.057-0.541,0.168
		c-0.112,0.111-0.168,0.292-0.168,0.541v12.75c0,0.248,0.056,0.43,0.168,0.54c0.11,0.112,0.291,0.168,0.541,0.168H52.588z
		 M51.525,11.625l7.24,8.146v-8.304h0.197v10.626h-0.197v-2.026l-7.438-8.343c-0.013-0.013-0.029-0.026-0.049-0.04
		c-0.02-0.013-0.036-0.019-0.05-0.019c-0.013,0-0.022,0.006-0.029,0.019c-0.007,0.014-0.01,0.027-0.01,0.04v10.369h-0.196V11.684
		c0-0.078,0.025-0.138,0.078-0.177c0.053-0.04,0.105-0.059,0.157-0.059c0.053,0,0.099,0.013,0.138,0.039S51.459,11.56,51.525,11.625
		z"/>
	<path fill="#545454" d="M73.994,26.204h-6.197c-1.719,0-2.988-0.446-3.808-1.337c-0.819-0.893-1.229-2.047-1.229-3.464v-5.548
		c0-0.721,0.104-1.344,0.314-1.869c0.21-0.524,0.519-0.965,0.926-1.318l2.537-2.146c0.406-0.34,0.928-0.596,1.564-0.767
		C68.737,9.585,69.482,9.5,70.334,9.5h4.92c0.314,0,0.544,0.072,0.688,0.217c0.144,0.145,0.216,0.373,0.216,0.688v2.381
		c0,0.171-0.023,0.314-0.068,0.433c-0.047,0.118-0.115,0.217-0.207,0.295l-2.557,2.125c-0.053,0.053-0.136,0.099-0.246,0.138
		c-0.112,0.04-0.233,0.059-0.365,0.059h-2.557v2.834c0.013-0.026,0.035-0.056,0.068-0.089c0.033-0.032,0.063-0.063,0.088-0.089
		l2.539-2.145c0.065-0.052,0.154-0.095,0.266-0.127c0.111-0.033,0.232-0.05,0.363-0.05h3.051c0.314,0,0.543,0.072,0.688,0.216
		c0.145,0.145,0.217,0.374,0.217,0.689v6.08c0,0.17-0.023,0.314-0.068,0.433c-0.047,0.118-0.115,0.216-0.207,0.295l-2.559,2.125
		c-0.052,0.052-0.134,0.098-0.246,0.137C74.247,26.185,74.125,26.204,73.994,26.204z M76.533,23.863
		c0.248,0,0.429-0.056,0.541-0.168c0.111-0.11,0.166-0.292,0.166-0.54v-6.08c0-0.249-0.055-0.43-0.166-0.541
		c-0.112-0.111-0.293-0.167-0.541-0.167h-3.051c-0.249,0-0.43,0.056-0.541,0.167s-0.167,0.292-0.167,0.541v3.069h-1.908
		c-0.302,0-0.528-0.078-0.679-0.236c-0.151-0.157-0.227-0.399-0.227-0.728v-4.702c0-0.329,0.098-0.574,0.295-0.738
		s0.498-0.246,0.905-0.246h4.093c0.249,0,0.43-0.056,0.541-0.167s0.167-0.292,0.167-0.541v-2.381c0-0.249-0.056-0.43-0.167-0.541
		s-0.292-0.168-0.541-0.168h-4.92c-1.639,0-2.855,0.329-3.649,0.984s-1.19,1.666-1.19,3.03v6.139c0,1.363,0.396,2.374,1.19,3.03
		c0.794,0.655,2.011,0.983,3.649,0.983H76.533z M71.181,22.093c-0.722,0-1.312-0.046-1.771-0.139
		c-0.459-0.091-0.82-0.238-1.082-0.442c-0.263-0.203-0.443-0.465-0.541-0.787c-0.099-0.321-0.148-0.711-0.148-1.17v-5.509
		c0-0.932,0.211-1.594,0.631-1.987c0.419-0.394,1.258-0.592,2.518-0.592h3.404v0.198h-3.404c-1.154,0-1.935,0.18-2.341,0.54
		c-0.407,0.361-0.61,0.974-0.61,1.841v5.509c0,0.853,0.227,1.455,0.679,1.81s1.341,0.531,2.666,0.531h3.719v-3.758h0.196v3.955
		H71.181z"/>
	<path fill="#545454" d="M88.908,26.204h-9.129c-0.315,0-0.545-0.072-0.689-0.217c-0.145-0.144-0.217-0.373-0.217-0.688V12.55
		c0-0.17,0.023-0.315,0.069-0.433c0.046-0.118,0.114-0.217,0.206-0.295l2.539-2.145c0.065-0.054,0.154-0.096,0.266-0.128
		c0.111-0.033,0.232-0.05,0.363-0.05h9.129c0.316,0,0.545,0.072,0.689,0.217s0.217,0.373,0.217,0.688v2.302
		c0,0.171-0.023,0.314-0.069,0.433s-0.114,0.217-0.206,0.296l-1.692,1.396c0.131,0.066,0.227,0.164,0.285,0.295
		c0.06,0.132,0.089,0.302,0.089,0.512v2.105c0,0.171-0.023,0.314-0.068,0.433c-0.047,0.118-0.115,0.217-0.207,0.295l-1.752,1.477
		h2.715c0.316,0,0.545,0.072,0.689,0.216c0.145,0.145,0.217,0.374,0.217,0.688v2.303c0,0.17-0.023,0.314-0.069,0.433
		s-0.114,0.216-0.206,0.295l-2.559,2.125c-0.053,0.052-0.135,0.098-0.246,0.137C89.16,26.185,89.039,26.204,88.908,26.204z
		 M91.445,23.863c0.25,0,0.43-0.056,0.542-0.168c0.11-0.11,0.167-0.292,0.167-0.54v-2.303c0-0.249-0.057-0.43-0.167-0.54
		c-0.112-0.112-0.292-0.168-0.542-0.168h-5.43v-1.692h3.837c0.249,0,0.43-0.055,0.541-0.167c0.111-0.111,0.167-0.292,0.167-0.541
		v-2.105c0-0.249-0.056-0.43-0.167-0.541s-0.292-0.167-0.541-0.167h-3.837v-1.516h5.43c0.25,0,0.43-0.055,0.542-0.166
		c0.11-0.112,0.167-0.292,0.167-0.542v-2.302c0-0.249-0.057-0.43-0.167-0.541c-0.112-0.111-0.292-0.168-0.542-0.168h-9.129
		c-0.249,0-0.43,0.057-0.541,0.168s-0.167,0.292-0.167,0.541v12.75c0,0.248,0.056,0.43,0.167,0.54
		c0.111,0.112,0.292,0.168,0.541,0.168H91.445z M90.384,21.896v0.197h-6.631V11.467h6.631v0.198h-6.435v4.938h4.841V16.8h-4.841
		v5.096H90.384z"/>
	<path fill="#545454" d="M103.743,26.204h-9.13c-0.314,0-0.544-0.072-0.688-0.217c-0.144-0.144-0.216-0.373-0.216-0.688V12.55
		c0-0.17,0.022-0.315,0.068-0.433c0.046-0.118,0.115-0.217,0.207-0.295l2.538-2.145c0.065-0.054,0.153-0.096,0.266-0.128
		c0.11-0.033,0.233-0.05,0.364-0.05h9.129c0.314,0,0.545,0.072,0.689,0.217c0.144,0.145,0.216,0.373,0.216,0.688v2.302
		c0,0.171-0.023,0.314-0.069,0.433c-0.045,0.118-0.115,0.217-0.206,0.296l-1.692,1.396c0.131,0.066,0.227,0.164,0.285,0.295
		c0.06,0.132,0.089,0.302,0.089,0.512v2.105c0,0.171-0.022,0.314-0.069,0.433c-0.046,0.118-0.115,0.217-0.206,0.295l-1.751,1.477
		h2.715c0.314,0,0.545,0.072,0.689,0.216c0.144,0.145,0.216,0.374,0.216,0.688v2.303c0,0.17-0.023,0.314-0.069,0.433
		c-0.045,0.118-0.115,0.216-0.206,0.295l-2.558,2.125c-0.053,0.052-0.135,0.098-0.246,0.137
		C103.996,26.185,103.875,26.204,103.743,26.204z M106.281,23.863c0.249,0,0.43-0.056,0.541-0.168
		c0.111-0.11,0.168-0.292,0.168-0.54v-2.303c0-0.249-0.057-0.43-0.168-0.54c-0.111-0.112-0.292-0.168-0.541-0.168h-5.431v-1.692
		h3.837c0.249,0,0.43-0.055,0.541-0.167c0.111-0.111,0.168-0.292,0.168-0.541v-2.105c0-0.249-0.057-0.43-0.168-0.541
		s-0.292-0.167-0.541-0.167h-3.837v-1.516h5.431c0.249,0,0.43-0.055,0.541-0.166c0.111-0.112,0.168-0.292,0.168-0.542v-2.302
		c0-0.249-0.057-0.43-0.168-0.541s-0.292-0.168-0.541-0.168h-9.129c-0.25,0-0.43,0.057-0.541,0.168
		c-0.112,0.111-0.168,0.292-0.168,0.541v12.75c0,0.248,0.056,0.43,0.168,0.54c0.111,0.112,0.291,0.168,0.541,0.168H106.281z
		 M105.219,21.896v0.197h-6.631V11.467h6.631v0.198h-6.434v4.938h4.84V16.8h-4.84v5.096H105.219z"/>
	<path fill="#545454" d="M115.489,26.204c-0.315,0-0.545-0.072-0.688-0.217c-0.145-0.144-0.217-0.373-0.217-0.688v-2.303
		c0-0.17,0.023-0.314,0.068-0.433c0.047-0.118,0.115-0.217,0.207-0.295l1.968-1.652c-0.695-0.21-1.243-0.567-1.644-1.072
		c-0.4-0.506-0.6-1.23-0.6-2.175v-2.065c0-0.59,0.098-1.115,0.295-1.575c0.197-0.458,0.479-0.845,0.847-1.16l2.558-2.145
		c0.354-0.288,0.793-0.515,1.318-0.679c0.524-0.164,1.121-0.246,1.79-0.246h5.509c0.314,0,0.545,0.072,0.689,0.217
		s0.217,0.373,0.217,0.688v2.341c0,0.171-0.023,0.315-0.07,0.433c-0.045,0.118-0.114,0.217-0.206,0.296l-1.771,1.476
		c0.826,0.185,1.492,0.528,1.997,1.033s0.757,1.288,0.757,2.351V20.4c0,0.59-0.098,1.115-0.295,1.574
		c-0.196,0.459-0.484,0.846-0.865,1.16l-2.539,2.125c-0.367,0.302-0.813,0.535-1.337,0.698c-0.524,0.164-1.116,0.246-1.771,0.246
		H115.489z M124.244,23.863c1.26,0,2.254-0.299,2.981-0.896s1.092-1.452,1.092-2.567v-2.066c0-1.102-0.282-1.889-0.847-2.36
		c-0.563-0.473-1.305-0.774-2.223-0.905l-2.932-0.394c-0.171-0.013-0.303-0.078-0.394-0.196c-0.092-0.118-0.138-0.263-0.138-0.433
		c0-0.172,0.046-0.313,0.138-0.424c0.091-0.111,0.223-0.168,0.394-0.168h4.584c0.25,0,0.43-0.055,0.541-0.166
		s0.168-0.292,0.168-0.542v-2.341c0-0.249-0.057-0.43-0.168-0.541s-0.291-0.168-0.541-0.168h-5.509c-1.272,0-2.27,0.299-2.99,0.896
		c-0.722,0.597-1.083,1.452-1.083,2.567v2.065c0,1.102,0.279,1.889,0.837,2.361c0.558,0.472,1.295,0.773,2.214,0.904l2.951,0.414
		c0.17,0.013,0.298,0.072,0.383,0.177c0.086,0.104,0.129,0.27,0.129,0.491c0,0.158-0.043,0.292-0.129,0.404
		c-0.085,0.111-0.213,0.167-0.383,0.167h-5.293c-0.249,0-0.43,0.056-0.541,0.168c-0.111,0.11-0.168,0.291-0.168,0.54v2.303
		c0,0.248,0.057,0.43,0.168,0.54c0.111,0.112,0.292,0.168,0.541,0.168H124.244z M125.838,11.467v0.198h-4.367
		c-0.551,0-0.99,0.149-1.318,0.452c-0.328,0.302-0.492,0.683-0.492,1.141v1.614c0,0.459,0.092,0.78,0.275,0.963
		c0.184,0.185,0.426,0.302,0.729,0.354l4.15,0.847c0.395,0.078,0.719,0.249,0.975,0.511c0.256,0.263,0.384,0.735,0.384,1.418v1.141
		c0,0.577-0.196,1.052-0.591,1.427c-0.393,0.373-0.924,0.561-1.594,0.561h-4.898v-0.197h4.898c0.604,0,1.086-0.167,1.447-0.502
		c0.359-0.334,0.541-0.764,0.541-1.288v-1.141c0-0.617-0.109-1.041-0.325-1.271c-0.216-0.229-0.509-0.383-0.876-0.462l-4.15-0.847
		c-0.342-0.064-0.62-0.199-0.837-0.402c-0.216-0.203-0.325-0.573-0.325-1.111v-1.614c0-0.524,0.184-0.954,0.551-1.288
		c0.368-0.335,0.854-0.503,1.457-0.503H125.838z"/>
	<path fill="#545454" d="M136.816,23.883l-2.557,2.125c-0.053,0.052-0.135,0.098-0.246,0.137c-0.111,0.04-0.233,0.06-0.364,0.06
		h-3.05c-0.314,0-0.544-0.072-0.688-0.217c-0.145-0.144-0.217-0.373-0.217-0.688V12.55c0-0.17,0.022-0.315,0.069-0.433
		c0.046-0.118,0.115-0.217,0.206-0.295l2.538-2.145c0.066-0.054,0.154-0.096,0.266-0.128c0.111-0.033,0.233-0.05,0.365-0.05h3.049
		c0.314,0,0.544,0.072,0.688,0.217c0.144,0.145,0.216,0.373,0.216,0.688v4.073h0.355V12.55c0-0.17,0.021-0.315,0.068-0.433
		c0.046-0.118,0.115-0.217,0.207-0.295l2.538-2.145c0.065-0.054,0.153-0.096,0.265-0.128c0.112-0.033,0.233-0.05,0.365-0.05h3.049
		c0.314,0,0.545,0.072,0.688,0.217c0.145,0.145,0.217,0.373,0.217,0.688v12.75c0,0.17-0.022,0.314-0.069,0.433
		c-0.046,0.118-0.114,0.216-0.206,0.295l-2.558,2.125c-0.053,0.052-0.135,0.098-0.246,0.137c-0.111,0.04-0.233,0.06-0.364,0.06
		h-3.05c-0.314,0-0.544-0.072-0.688-0.217c-0.145-0.144-0.217-0.373-0.217-0.688v-4.172h-0.355v2.027
		c0,0.17-0.021,0.314-0.068,0.433C136.978,23.706,136.909,23.804,136.816,23.883z M136.188,23.863c0.249,0,0.43-0.056,0.541-0.168
		c0.111-0.11,0.167-0.292,0.167-0.54v-4.368h3.286v4.368c0,0.248,0.056,0.43,0.167,0.54c0.111,0.112,0.292,0.168,0.542,0.168h3.049
		c0.249,0,0.43-0.056,0.541-0.168c0.111-0.11,0.168-0.292,0.168-0.54v-12.75c0-0.249-0.057-0.43-0.168-0.541
		s-0.292-0.168-0.541-0.168h-3.049c-0.25,0-0.431,0.057-0.542,0.168s-0.167,0.292-0.167,0.541v4.27h-3.286v-4.27
		c0-0.249-0.056-0.43-0.167-0.541s-0.292-0.168-0.541-0.168h-3.049c-0.25,0-0.431,0.057-0.542,0.168s-0.167,0.292-0.167,0.541v12.75
		c0,0.248,0.056,0.43,0.167,0.54c0.111,0.112,0.292,0.168,0.542,0.168H136.188z M134.555,22.093V11.467h0.196v5.215h7.556v-5.215
		h0.197v10.626h-0.197v-5.215h-7.556v5.215H134.555z"/>
	<path fill="#545454" d="M150.708,26.008c-0.053,0.052-0.134,0.098-0.246,0.137c-0.112,0.04-0.233,0.06-0.364,0.06h-2.892
		c-0.315,0-0.545-0.072-0.688-0.217c-0.145-0.144-0.217-0.373-0.217-0.688v-5.194c0-0.406,0.063-0.869,0.188-1.388
		c0.124-0.518,0.324-1.131,0.6-1.84l1.691-4.446c0.04-0.118,0.09-0.22,0.148-0.305s0.121-0.161,0.187-0.227l0.02-0.02l2.519-2.105
		c0.105-0.092,0.229-0.16,0.374-0.207c0.144-0.046,0.308-0.068,0.491-0.068h5.293c0.302,0,0.548,0.063,0.738,0.187
		c0.189,0.125,0.33,0.318,0.423,0.581l1.712,4.466c0.275,0.708,0.475,1.322,0.6,1.84c0.125,0.519,0.188,0.981,0.188,1.388v5.194
		c0,0.17-0.023,0.314-0.068,0.433c-0.047,0.118-0.115,0.216-0.207,0.295l-2.559,2.125c-0.053,0.052-0.135,0.098-0.245,0.137
		c-0.112,0.04-0.233,0.06-0.364,0.06h-2.971c-0.328,0-0.57-0.075-0.729-0.226c-0.157-0.151-0.236-0.378-0.236-0.679v-2.559h-0.551
		v0.414c0,0.17-0.022,0.314-0.068,0.433c-0.047,0.118-0.115,0.216-0.207,0.295L150.708,26.008z M153.345,23.155V20.4h3.482v2.755
		c0,0.248,0.062,0.43,0.187,0.54c0.125,0.112,0.318,0.168,0.581,0.168h2.971c0.249,0,0.43-0.056,0.541-0.168
		c0.111-0.11,0.167-0.292,0.167-0.54v-5.194c0-0.394-0.063-0.847-0.187-1.358c-0.125-0.511-0.318-1.107-0.581-1.79l-1.711-4.466
		c-0.079-0.224-0.2-0.388-0.364-0.492s-0.371-0.158-0.62-0.158h-5.293c-0.262,0-0.475,0.054-0.639,0.158s-0.285,0.269-0.364,0.492
		l-1.712,4.466c-0.262,0.683-0.455,1.279-0.58,1.79c-0.125,0.512-0.188,0.965-0.188,1.358v5.194c0,0.248,0.057,0.43,0.168,0.54
		c0.111,0.112,0.291,0.168,0.541,0.168h2.893c0.248,0,0.43-0.056,0.541-0.168C153.289,23.585,153.345,23.403,153.345,23.155z
		 M158.991,22.093v-3.385h-7.673v3.385h-0.197v-4.191c0-0.367,0.029-0.705,0.089-1.013c0.06-0.309,0.141-0.607,0.245-0.896
		l1.26-3.226c0.145-0.367,0.309-0.676,0.492-0.925s0.498-0.375,0.943-0.375h1.929c0.433,0,0.738,0.126,0.915,0.375
		c0.178,0.249,0.345,0.564,0.502,0.944l1.357,3.206c0.104,0.289,0.188,0.588,0.246,0.896c0.059,0.308,0.088,0.646,0.088,1.013v4.191
		H158.991z M151.318,17.901v0.61h7.673v-0.61c0-0.354-0.029-0.682-0.089-0.983c-0.059-0.303-0.134-0.584-0.227-0.847l-1.356-3.207
		c-0.146-0.34-0.296-0.626-0.452-0.855c-0.158-0.229-0.42-0.344-0.788-0.344h-1.929c-0.393,0-0.668,0.114-0.826,0.344
		c-0.156,0.229-0.301,0.509-0.432,0.836l-1.26,3.227c-0.092,0.263-0.167,0.544-0.227,0.847
		C151.348,17.22,151.318,17.547,151.318,17.901z M154.467,13.829c0.052-0.118,0.107-0.203,0.166-0.257
		c0.06-0.052,0.129-0.078,0.207-0.078h0.492c0.078,0,0.146,0.026,0.206,0.078c0.06,0.054,0.114,0.139,0.167,0.257l0.925,2.99h-3.089
		L154.467,13.829z"/>
	<path fill="#545454" d="M174.239,25.161c-0.406,0.342-0.924,0.601-1.555,0.778c-0.629,0.177-1.37,0.265-2.223,0.265h-6.631
		c-0.314,0-0.544-0.072-0.688-0.217c-0.145-0.144-0.217-0.373-0.217-0.688V12.55c0-0.17,0.023-0.315,0.069-0.433
		c0.046-0.118,0.114-0.217,0.206-0.295l2.538-2.145c0.066-0.054,0.154-0.096,0.266-0.128c0.111-0.033,0.233-0.05,0.365-0.05h6.629
		c1.719,0,2.988,0.348,3.809,1.043c0.818,0.695,1.229,1.751,1.229,3.168v6.139c0,0.708-0.105,1.328-0.315,1.858
		c-0.21,0.532-0.518,0.975-0.924,1.329L174.239,25.161z M172.999,23.863c1.641,0,2.857-0.328,3.65-0.983
		c0.794-0.656,1.19-1.667,1.19-3.03v-6.139c0-1.364-0.396-2.375-1.19-3.03c-0.793-0.655-2.01-0.984-3.65-0.984h-6.629
		c-0.25,0-0.431,0.057-0.542,0.168s-0.167,0.292-0.167,0.541v12.75c0,0.248,0.056,0.43,0.167,0.54
		c0.111,0.112,0.292,0.168,0.542,0.168H172.999z M167.806,22.093V11.467h4.762c0.669,0,1.209,0.072,1.623,0.217
		c0.413,0.145,0.73,0.338,0.954,0.58c0.224,0.244,0.374,0.532,0.452,0.867c0.079,0.334,0.119,0.691,0.119,1.072v5.213
		c0,0.381-0.037,0.735-0.109,1.063c-0.072,0.328-0.219,0.61-0.442,0.847s-0.544,0.423-0.964,0.561s-0.964,0.207-1.633,0.207H167.806
		z M172.567,11.665h-4.565v10.23h4.565c0.629,0,1.137-0.062,1.524-0.188c0.387-0.124,0.685-0.294,0.896-0.511
		c0.209-0.216,0.351-0.479,0.423-0.787c0.071-0.309,0.108-0.64,0.108-0.994v-5.213c0-0.355-0.039-0.689-0.119-1.004
		c-0.078-0.314-0.223-0.584-0.432-0.807c-0.211-0.223-0.509-0.4-0.896-0.531C173.685,11.729,173.184,11.665,172.567,11.665z
		 M170.127,13.454h2.342c0.314,0,0.548,0.076,0.698,0.228c0.15,0.15,0.227,0.39,0.227,0.718v4.781c0,0.328-0.076,0.57-0.227,0.728
		c-0.15,0.158-0.384,0.236-0.698,0.236h-2.342V13.454z M170.659,16.544c0-0.171-0.027-0.315-0.08-0.434
		c-0.052-0.118-0.137-0.203-0.256-0.255v4.093h0.336V16.544z"/>
	<path fill="#545454" d="M189.605,26.204h-9.129c-0.315,0-0.544-0.072-0.688-0.217c-0.145-0.144-0.217-0.373-0.217-0.688V12.55
		c0-0.17,0.022-0.315,0.068-0.433c0.047-0.118,0.115-0.217,0.207-0.295l2.538-2.145c0.065-0.054,0.153-0.096,0.266-0.128
		c0.11-0.033,0.233-0.05,0.364-0.05h9.129c0.314,0,0.545,0.072,0.689,0.217c0.144,0.145,0.216,0.373,0.216,0.688v2.302
		c0,0.171-0.023,0.314-0.069,0.433c-0.045,0.118-0.115,0.217-0.206,0.296l-1.692,1.396c0.131,0.066,0.227,0.164,0.285,0.295
		c0.06,0.132,0.089,0.302,0.089,0.512v2.105c0,0.171-0.022,0.314-0.069,0.433c-0.045,0.118-0.115,0.217-0.206,0.295l-1.751,1.477
		h2.715c0.314,0,0.545,0.072,0.689,0.216c0.144,0.145,0.216,0.374,0.216,0.688v2.303c0,0.17-0.023,0.314-0.069,0.433
		c-0.045,0.118-0.115,0.216-0.206,0.295l-2.558,2.125c-0.053,0.052-0.135,0.098-0.246,0.137
		C189.858,26.185,189.737,26.204,189.605,26.204z M192.144,23.863c0.249,0,0.43-0.056,0.541-0.168
		c0.111-0.11,0.168-0.292,0.168-0.54v-2.303c0-0.249-0.057-0.43-0.168-0.54c-0.111-0.112-0.292-0.168-0.541-0.168h-5.43v-1.692
		h3.836c0.249,0,0.43-0.055,0.541-0.167c0.111-0.111,0.168-0.292,0.168-0.541v-2.105c0-0.249-0.057-0.43-0.168-0.541
		s-0.292-0.167-0.541-0.167h-3.836v-1.516h5.43c0.249,0,0.43-0.055,0.541-0.166c0.111-0.112,0.168-0.292,0.168-0.542v-2.302
		c0-0.249-0.057-0.43-0.168-0.541s-0.292-0.168-0.541-0.168h-9.129c-0.25,0-0.43,0.057-0.541,0.168s-0.168,0.292-0.168,0.541v12.75
		c0,0.248,0.057,0.43,0.168,0.54c0.111,0.112,0.291,0.168,0.541,0.168H192.144z M191.081,21.896v0.197h-6.631V11.467h6.631v0.198
		h-6.434v4.938h4.84V16.8h-4.84v5.096H191.081z"/>
</g>
</svg>
