<?xml version="1.0" encoding="utf-8"?>
<!-- Generator: Adobe Illustrator 16.0.0, SVG Export Plug-In . SVG Version: 6.00 Build 0)  -->
<!DOCTYPE svg PUBLIC "-//W3C//DTD SVG 1.1//EN" "http://www.w3.org/Graphics/SVG/1.1/DTD/svg11.dtd">
<svg version="1.1" id="图层_1" xmlns="http://www.w3.org/2000/svg" xmlns:xlink="http://www.w3.org/1999/xlink" x="0px" y="0px"
	 width="258px" height="36px" viewBox="0 0 258 36" enable-background="new 0 0 258 36" xml:space="preserve">
<g>
	<path fill="#545454" d="M17.886,26.5c-2.249-0.892-3.772-2.024-4.571-3.399c0-2.044,0.604-4.273,1.812-6.689
		c1.207-2.415,2.564-4.013,4.069-4.793c0.631,0,1.337,0.037,2.118,0.11c2.063-0.11,3.827-0.334,5.295-0.668l0.752-0.167
		c-0.743,2.452-1.337,5.063-1.783,7.832c-1.635-0.727-3.047-1.719-4.236-2.982c-1.432,2.1-2.295,4.402-2.592,6.911l7.413-1.979
		c0,0.372-0.181,0.877-0.543,1.52c-0.362,0.64-0.804,1.197-1.324,1.671c-0.52,0.475-1.342,0.968-2.466,1.478
		C20.705,25.854,19.391,26.239,17.886,26.5z"/>
	<path fill="#545454" d="M30.901,23.212c0.204,0.019,0.521,0.027,0.947,0.027s1.077-0.106,1.95-0.32
		c0.875-0.214,1.599-0.451,2.175-0.711l0.836-0.418c0.036,0.185,0.056,0.363,0.056,0.53c0,0.725-0.316,1.448-0.947,2.173
		c-0.818,0.91-2.184,1.561-4.097,1.951c-0.279-0.038-0.638-0.102-1.073-0.194c-0.438-0.094-1.134-0.378-2.09-0.85
		c-0.957-0.476-1.678-1.046-2.161-1.716c0.093-1.188,0.348-2.41,0.766-3.664s0.813-2.206,1.186-2.856l0.557-0.976
		c1.04-0.055,2.072-0.223,3.094-0.501s1.774-0.54,2.258-0.781l0.752-0.391c0.688,0.391,1.23,0.921,1.631,1.589
		c0.399,0.669,0.627,1.236,0.682,1.7l0.111,0.725c-0.52,1.17-1.393,2.072-2.618,2.704c-1.228,0.631-2.509,0.994-3.847,1.087
		C31.014,22.562,30.957,22.859,30.901,23.212z M33.438,19.673c0.242-0.373,0.361-0.678,0.361-0.921c0-0.24-0.078-0.432-0.236-0.571
		c-0.158-0.138-0.348-0.209-0.571-0.209c-0.223,0-0.437,0.019-0.641,0.057c-0.13,0.464-0.465,1.478-1.003,3.038
		C32.221,20.937,32.917,20.471,33.438,19.673z"/>
	<path fill="#545454" d="M44.307,14.015c-0.911,1.506-1.365,3.204-1.365,5.101c0,0.241,0.014,0.673,0.041,1.296
		c0.027,0.622,0.191,1.453,0.488,2.493c0.668-0.965,1.226-2.044,1.672-3.231c0.446-1.19,0.725-2.138,0.836-2.845l0.168-1.058
		c0.52,0.056,1.143,0.26,1.867,0.613c0.724,0.354,1.271,0.743,1.645,1.17c0,0.278-0.07,0.697-0.209,1.255
		c-0.141,0.557-0.307,1.063-0.502,1.519s-0.508,0.976-0.934,1.561c-0.428,0.585-0.925,1.11-1.492,1.574
		c-0.566,0.466-1.309,0.897-2.229,1.296c-0.92,0.4-1.947,0.683-3.08,0.851c-0.725-0.725-1.297-1.543-1.715-2.452
		c-0.417-0.911-0.672-1.747-0.766-2.51c-0.094-0.76-0.139-1.317-0.139-1.671c0-1.06,0.056-1.821,0.167-2.285l0.111-0.586
		c0.148-0.13,0.356-0.302,0.626-0.516c0.27-0.213,0.874-0.511,1.813-0.892C42.248,14.317,43.248,14.089,44.307,14.015z"/>
	<path fill="#545454" d="M55.537,18.139c-0.371,0.78-0.668,1.52-0.891,2.217c-0.223,0.696-0.424,1.561-0.6,2.591
		c-0.178,1.031-0.265,1.822-0.265,2.369c0,0.549,0,0.868,0,0.962c-0.854-0.391-1.599-0.789-2.229-1.199
		c-0.632-0.408-1.06-0.724-1.281-0.947l-0.308-0.335c0-1.689,0.103-3.26,0.308-4.71c0.203-1.448,0.408-2.469,0.611-3.064
		l0.307-0.921c1.673,0.299,3.168,0.726,4.488,1.283l0.668,0.277C56.178,16.867,55.909,17.358,55.537,18.139z M55.398,15.297
		c-0.223-0.093-0.507-0.233-0.85-0.418c-0.344-0.186-0.864-0.596-1.561-1.227c-0.697-0.631-1.176-1.3-1.436-2.007
		c0.464-0.204,0.906-0.487,1.324-0.85c0.418-0.363,0.719-0.665,0.905-0.906l0.278-0.39c1.133,0.186,2.1,0.483,2.898,0.892
		l0.418,0.223c-0.037,0.242-0.088,0.549-0.153,0.921c-0.065,0.37-0.269,0.979-0.612,1.825C56.267,14.205,55.862,14.85,55.398,15.297
		z"/>
	<path fill="#545454" d="M65.877,14.906l0.975-0.585c0.02,0.335,0.029,0.826,0.029,1.477c0,1.487-0.465,2.964-1.395,4.432
		c-1.467-0.407-2.722-1.013-3.762-1.812c-0.707,1.208-1.078,2.731-1.115,4.571c0.482,0,1.885-0.391,4.209-1.172l1.143-0.391
		c0,0.335-0.107,0.75-0.32,1.241c-0.215,0.492-0.498,0.934-0.851,1.324c-0.353,0.39-0.929,0.803-1.728,1.24
		c-0.8,0.436-1.747,0.774-2.843,1.018c-0.743-0.112-1.58-0.415-2.509-0.906c-0.93-0.492-1.588-1.035-1.979-1.63
		c0.13-1.209,0.357-2.328,0.683-3.358c0.325-1.031,0.673-1.863,1.046-2.494c0.798-1.283,1.467-2.118,2.006-2.508l0.334-0.279
		c1.097,0.426,2.174,0.64,3.232,0.64C64.094,15.714,65.041,15.444,65.877,14.906z"/>
	<path fill="#545454" d="M76.021,14.879c1.096,0,2.174,1.235,3.232,3.706c-0.891,1.19-1.561,2.815-2.006,4.877
		c-0.187,0.8-0.289,1.598-0.307,2.397h-0.168c-1.467,0-2.425-0.659-2.87-1.979c-0.167-0.483-0.251-0.977-0.251-1.478
		c0-1.097,0.26-2.434,0.779-4.015c-1.244,1.079-2.434,2.798-3.566,5.157c-0.074,0.429-0.148,1.106-0.223,2.035
		c-1.059-0.225-1.85-0.529-2.369-0.92c-0.482-0.353-0.771-0.642-0.864-0.865c0.038-1.709,0.21-3.631,0.516-5.768
		c0.307-2.137,0.601-3.851,0.878-5.143c0.279-1.291,0.437-1.945,0.475-1.965c0.892-0.279,1.797-0.496,2.717-0.655
		c0.92-0.157,1.611-0.246,2.076-0.265h0.697c-1.189,2.657-2.193,5.648-3.01,8.975c0.705-1.264,1.436-2.262,2.188-2.997
		C74.697,15.245,75.39,14.879,76.021,14.879z"/>
	<path fill="#545454" d="M83.603,23.212c0.204,0.019,0.521,0.027,0.947,0.027s1.077-0.106,1.95-0.32
		c0.875-0.214,1.599-0.451,2.174-0.711l0.837-0.418c0.036,0.185,0.056,0.363,0.056,0.53c0,0.725-0.316,1.448-0.947,2.173
		c-0.818,0.91-2.184,1.561-4.098,1.951c-0.278-0.038-0.637-0.102-1.072-0.194c-0.438-0.094-1.134-0.378-2.091-0.85
		c-0.956-0.476-1.677-1.046-2.159-1.716c0.092-1.188,0.348-2.41,0.766-3.664s0.813-2.206,1.186-2.856l0.557-0.976
		c1.04-0.055,2.072-0.223,3.094-0.501s1.773-0.54,2.258-0.781l0.752-0.391c0.688,0.391,1.23,0.921,1.631,1.589
		c0.398,0.669,0.627,1.236,0.682,1.7l0.111,0.725c-0.52,1.17-1.393,2.072-2.619,2.704c-1.227,0.631-2.508,0.994-3.846,1.087
		C83.715,22.562,83.658,22.859,83.603,23.212z M86.139,19.673C86.38,19.3,86.5,18.995,86.5,18.752c0-0.24-0.078-0.432-0.236-0.571
		c-0.158-0.138-0.348-0.209-0.571-0.209s-0.437,0.019-0.641,0.057c-0.13,0.464-0.465,1.478-1.003,3.038
		C84.922,20.937,85.618,20.471,86.139,19.673z"/>
	<path fill="#545454" d="M107.875,14.544c0.188,0.669,0.279,1.473,0.279,2.411s-0.144,1.876-0.432,2.815
		c-0.288,0.938-0.664,1.728-1.129,2.368s-0.975,1.227-1.533,1.756c-0.557,0.529-1.114,0.951-1.672,1.268
		c-1.207,0.631-2.1,1.041-2.676,1.227l-0.445,0.111c-1.598-0.446-2.881-1.114-3.846-2.007c-0.874-0.798-1.412-1.431-1.617-1.895
		l-0.168-0.307c0-1.672,0.182-3.164,0.545-4.473c0.361-1.311,0.803-2.295,1.324-2.955c0.52-0.659,1.039-1.197,1.561-1.616
		c0.52-0.418,0.957-0.683,1.309-0.794l0.559-0.139c0.594,0.668,1.514,1.104,2.759,1.309l2.871-2.229
		C106.678,11.952,107.448,13.002,107.875,14.544z M100.239,23.071c0.521,0,1.087-0.292,1.7-0.876
		c0.613-0.587,1.096-1.418,1.449-2.496c0.186-0.501,0.279-1.077,0.279-1.728s-0.111-1.375-0.334-2.174
		C101.271,18.046,100.239,20.471,100.239,23.071z"/>
	<path fill="#545454" d="M114.982,24.438c0.633-2.305,0.948-4.069,0.948-5.296c0-0.093,0-0.177,0-0.25l-0.056-0.504
		c-1.06,0.911-2.109,2.343-3.148,4.293c-0.094,0.669-0.188,1.598-0.279,2.788c-0.725-0.168-1.385-0.392-1.979-0.67
		c-0.596-0.278-1.014-0.511-1.254-0.695l-0.363-0.309c0.111-2.656,0.324-5.07,0.641-7.245l0.14-1.087l4.849-1.061
		c-0.371,1.006-0.733,2.417-1.086,4.238c0.669-1.171,1.365-2.091,2.09-2.761c0.725-0.668,1.385-1.002,1.979-1.002
		c1.096,0,2.174,1.235,3.233,3.706c-0.13,0.261-0.298,0.628-0.502,1.1c-0.204,0.476-0.483,1.395-0.836,2.761
		c-0.354,1.365-0.548,2.68-0.585,3.943C117.045,25.85,115.781,25.2,114.982,24.438z"/>
	<path fill="#545454" d="M125.155,23.212c0.204,0.019,0.521,0.027,0.947,0.027s1.077-0.106,1.95-0.32s1.599-0.451,2.174-0.711
		l0.837-0.418c0.036,0.185,0.056,0.363,0.056,0.53c0,0.725-0.316,1.448-0.947,2.173c-0.818,0.91-2.184,1.561-4.098,1.951
		c-0.278-0.038-0.637-0.102-1.072-0.194c-0.438-0.094-1.134-0.378-2.091-0.85c-0.958-0.476-1.677-1.046-2.16-1.716
		c0.093-1.188,0.349-2.41,0.767-3.664s0.813-2.206,1.186-2.856l0.557-0.976c1.04-0.055,2.072-0.223,3.094-0.501
		s1.773-0.54,2.258-0.781l0.752-0.391c0.688,0.391,1.23,0.921,1.631,1.589c0.398,0.669,0.627,1.236,0.682,1.7l0.111,0.725
		c-0.52,1.17-1.393,2.072-2.619,2.704c-1.227,0.631-2.508,0.994-3.846,1.087C125.267,22.562,125.211,22.859,125.155,23.212z
		 M127.69,19.673c0.242-0.373,0.362-0.678,0.362-0.921c0-0.24-0.078-0.432-0.236-0.571c-0.158-0.138-0.348-0.209-0.571-0.209
		s-0.437,0.019-0.641,0.057c-0.13,0.464-0.465,1.478-1.003,3.038C126.475,20.937,127.17,20.471,127.69,19.673z"/>
</g>
</svg>
