<?xml version="1.0" encoding="utf-8"?>
<!-- Generator: Adobe Illustrator 16.0.0, SVG Export Plug-In . SVG Version: 6.00 Build 0)  -->
<!DOCTYPE svg PUBLIC "-//W3C//DTD SVG 1.1//EN" "http://www.w3.org/Graphics/SVG/1.1/DTD/svg11.dtd">
<svg version="1.1" id="图层_1" xmlns="http://www.w3.org/2000/svg" xmlns:xlink="http://www.w3.org/1999/xlink" x="0px" y="0px"
	 width="258px" height="36px" viewBox="0 0 258 36" enable-background="new 0 0 258 36" xml:space="preserve">
<g>
	<path fill="#545454" d="M23.009,12.396c0,0.261-0.031,0.539-0.094,0.831c-0.062,0.289-0.163,0.56-0.301,0.807
		c-0.139,0.251-0.318,0.456-0.539,0.623c-0.223,0.167-0.492,0.251-0.81,0.251c-0.485,0-0.845-0.087-1.08-0.26
		s-0.401-0.391-0.497-0.656c-0.098-0.261-0.149-0.541-0.157-0.84c-0.006-0.298-0.017-0.578-0.031-0.839
		c-0.013-0.263-0.058-0.48-0.134-0.653s-0.238-0.261-0.488-0.261c-0.276,0-0.519,0.1-0.726,0.301
		c-0.209,0.201-0.388,0.461-0.541,0.779c-0.152,0.319-0.28,0.676-0.383,1.079c-0.104,0.402-0.188,0.797-0.25,1.194
		c-0.062,0.393-0.107,0.765-0.134,1.12c-0.029,0.352-0.042,0.641-0.042,0.861c0,0.288,0.01,0.636,0.031,1.037
		c0.021,0.402,0.086,0.786,0.196,1.152c0.111,0.366,0.277,0.676,0.499,0.933c0.22,0.257,0.54,0.385,0.955,0.385
		c0.276,0,0.546-0.033,0.81-0.105c0.262-0.067,0.525-0.148,0.787-0.236c0.264-0.09,0.53-0.171,0.801-0.239
		c0.27-0.069,0.541-0.104,0.818-0.104c0.318,0,0.581,0.129,0.789,0.385s0.313,0.541,0.313,0.861c0,0.443-0.139,0.854-0.416,1.235
		c-0.277,0.378-0.62,0.716-1.027,1.007c-0.409,0.29-0.852,0.519-1.328,0.686c-0.478,0.164-0.91,0.248-1.297,0.248
		c-0.996,0-1.842-0.225-2.533-0.674c-0.691-0.45-1.252-1.031-1.68-1.743c-0.43-0.715-0.737-1.511-0.924-2.391
		c-0.188-0.876-0.281-1.751-0.281-2.623c0-0.581,0.057-1.216,0.167-1.911c0.109-0.69,0.276-1.385,0.497-2.085
		c0.222-0.697,0.502-1.373,0.842-2.022c0.338-0.65,0.736-1.225,1.193-1.723c0.455-0.497,0.971-0.899,1.546-1.203
		c0.573-0.304,1.206-0.459,1.898-0.459c0.679,0,1.245,0.17,1.702,0.51s0.824,0.769,1.1,1.287c0.277,0.518,0.471,1.087,0.581,1.701
		C22.954,11.259,23.009,11.842,23.009,12.396z"/>
	<path fill="#545454" d="M33.263,17.585c0,0.233-0.006,0.585-0.012,1.047c-0.008,0.465-0.028,0.947-0.063,1.454
		c-0.033,0.503-0.08,0.982-0.135,1.433c-0.056,0.45-0.124,0.778-0.207,0.986c-0.111,0.262-0.257,0.488-0.436,0.682
		c-0.181,0.194-0.424,0.293-0.727,0.293c-0.471,0-0.811-0.188-1.018-0.561c-0.207-0.376-0.346-0.837-0.414-1.391
		c-0.07-0.555-0.098-1.156-0.084-1.806c0.014-0.65,0.006-1.252-0.021-1.806c-0.028-0.554-0.104-1.017-0.228-1.391
		c-0.125-0.373-0.354-0.561-0.686-0.561c-0.457,0-0.807,0.071-1.049,0.217c-0.242,0.146-0.414,0.337-0.519,0.572
		s-0.167,0.503-0.188,0.811c-0.02,0.304-0.045,0.621-0.071,0.953c-0.029,0.319-0.05,0.748-0.063,1.287
		c-0.014,0.539-0.076,1.072-0.188,1.598c-0.111,0.527-0.294,0.979-0.55,1.361c-0.257,0.378-0.634,0.569-1.131,0.569
		c-0.304,0-0.55-0.117-0.737-0.353c-0.187-0.235-0.336-0.539-0.445-0.914c-0.111-0.373-0.191-0.79-0.238-1.245
		c-0.05-0.456-0.077-0.903-0.084-1.338c-0.008-0.436-0.008-0.834,0-1.195c0.007-0.357,0.011-0.629,0.011-0.808
		c0-0.277,0.011-0.736,0.031-1.37c0.021-0.638,0.065-1.347,0.134-2.128c0.07-0.783,0.159-1.587,0.27-2.419
		c0.111-0.828,0.256-1.588,0.437-2.273c0.181-0.682,0.397-1.239,0.654-1.668c0.256-0.429,0.557-0.638,0.902-0.622
		c0.222,0.011,0.411,0.11,0.571,0.288c0.158,0.182,0.29,0.411,0.395,0.698c0.103,0.282,0.189,0.589,0.259,0.923
		c0.069,0.331,0.12,0.658,0.155,0.983c0.035,0.328,0.057,0.628,0.063,0.903c0.008,0.276,0.01,0.49,0.01,0.643
		c0,0.36-0.006,0.722-0.02,1.082c-0.014,0.357-0.035,0.717-0.062,1.078c0.317-0.429,0.743-0.78,1.274-1.058
		c0.533-0.277,1.07-0.417,1.609-0.417c0.693,0,1.214,0.19,1.566,0.572c0.354,0.381,0.605,0.853,0.76,1.411
		c0.151,0.562,0.232,1.153,0.248,1.785C33.254,16.522,33.263,17.085,33.263,17.585z"/>
	<path fill="#545454" d="M43.433,19.267c0,0.47-0.15,0.93-0.447,1.38c-0.299,0.449-0.671,0.851-1.121,1.204
		c-0.449,0.35-0.931,0.637-1.441,0.851c-0.513,0.215-0.983,0.322-1.412,0.322c-0.733,0-1.387-0.185-1.961-0.551
		c-0.575-0.367-1.057-0.834-1.443-1.4c-0.387-0.57-0.681-1.195-0.882-1.88c-0.201-0.687-0.301-1.354-0.301-2.002
		c0-0.691,0.097-1.434,0.29-2.22c0.193-0.79,0.488-1.518,0.883-2.182s0.892-1.215,1.494-1.659c0.602-0.444,1.318-0.664,2.147-0.664
		c0.471,0,0.921,0.08,1.351,0.237c0.428,0.161,0.802,0.386,1.119,0.677c0.319,0.289,0.575,0.634,0.77,1.037
		c0.193,0.402,0.29,0.852,0.29,1.35c0,0.65-0.139,1.257-0.416,1.826c-0.276,0.566-0.644,1.058-1.099,1.472
		c-0.458,0.417-0.984,0.751-1.578,1.008c-0.594,0.256-1.203,0.398-1.826,0.426c0.055,0.402,0.217,0.691,0.486,0.872
		c0.271,0.18,0.592,0.27,0.966,0.27c0.277,0,0.547-0.069,0.811-0.21c0.263-0.136,0.519-0.291,0.768-0.465
		c0.249-0.172,0.495-0.33,0.737-0.467c0.241-0.138,0.487-0.209,0.735-0.209c0.277,0,0.526,0.093,0.748,0.271
		C43.32,18.739,43.433,18.975,43.433,19.267z M40.07,14.181c0-0.179-0.049-0.366-0.146-0.56c-0.097-0.194-0.249-0.293-0.456-0.293
		c-0.306,0-0.562,0.081-0.769,0.241c-0.207,0.159-0.38,0.357-0.519,0.603c-0.139,0.241-0.246,0.5-0.321,0.777
		c-0.076,0.277-0.121,0.533-0.136,0.769c0.193-0.042,0.426-0.098,0.695-0.166c0.27-0.069,0.526-0.164,0.77-0.281
		c0.24-0.119,0.447-0.269,0.621-0.446C39.984,14.646,40.07,14.431,40.07,14.181z"/>
	<path fill="#545454" d="M54.599,23.229c-0.444,0-0.842-0.236-1.195-0.706c-0.351-0.469-0.66-1.034-0.923-1.69
		c-0.263-0.657-0.48-1.331-0.652-2.023c-0.175-0.693-0.303-1.266-0.385-1.725c-0.112,0.278-0.259,0.617-0.446,1.02
		c-0.188,0.399-0.402,0.822-0.645,1.266c-0.241,0.442-0.5,0.889-0.777,1.338c-0.277,0.45-0.564,0.855-0.861,1.214
		c-0.298,0.36-0.596,0.651-0.893,0.872s-0.585,0.331-0.861,0.331c-0.373,0-0.702-0.179-0.985-0.54
		c-0.284-0.357-0.522-0.828-0.716-1.409c-0.194-0.581-0.357-1.225-0.489-1.931c-0.131-0.705-0.231-1.411-0.301-2.117
		c-0.069-0.707-0.118-1.362-0.145-1.974c-0.028-0.607-0.042-1.1-0.042-1.471c0-0.346,0.018-0.68,0.053-0.999
		c0.033-0.315,0.104-0.602,0.207-0.849c0.104-0.251,0.256-0.446,0.457-0.594c0.199-0.142,0.467-0.217,0.799-0.217
		c0.318,0,0.592,0.119,0.819,0.354c0.229,0.234,0.419,0.543,0.571,0.924c0.152,0.378,0.275,0.807,0.373,1.284
		c0.097,0.479,0.174,0.962,0.229,1.455c0.056,0.491,0.094,0.968,0.114,1.432c0.021,0.462,0.038,0.861,0.052,1.191
		c0.084-0.288,0.201-0.646,0.354-1.066c0.151-0.423,0.318-0.873,0.498-1.349c0.18-0.478,0.376-0.951,0.591-1.422
		c0.214-0.471,0.429-0.894,0.644-1.267c0.215-0.375,0.426-0.679,0.633-0.915c0.209-0.235,0.408-0.351,0.602-0.351h0.021
		c0.248,0,0.49,0.115,0.727,0.351c0.234,0.236,0.463,0.54,0.686,0.915c0.221,0.373,0.429,0.799,0.623,1.276
		c0.193,0.476,0.373,0.962,0.539,1.453c0.165,0.491,0.311,0.969,0.436,1.43c0.124,0.465,0.229,0.863,0.311,1.195
		c0.015-0.402,0.035-0.855,0.063-1.359c0.027-0.505,0.08-1.016,0.156-1.525c0.076-0.512,0.18-1.009,0.312-1.495
		c0.131-0.483,0.293-0.918,0.487-1.296c0.193-0.381,0.432-0.685,0.716-0.916c0.283-0.225,0.612-0.342,0.987-0.342
		c0.387,0,0.674,0.134,0.86,0.406c0.187,0.271,0.28,0.599,0.28,0.986c0,0.413-0.053,0.968-0.156,1.658
		c-0.104,0.691-0.245,1.441-0.425,2.254c-0.181,0.809-0.392,1.626-0.633,2.449c-0.243,0.821-0.509,1.566-0.799,2.23
		c-0.292,0.664-0.597,1.207-0.915,1.63C55.235,23.017,54.916,23.229,54.599,23.229z"/>
	<path fill="#545454" d="M64.125,29c-0.332,0-0.709-0.051-1.132-0.155c-0.422-0.104-0.819-0.253-1.193-0.446
		c-0.374-0.194-0.688-0.429-0.945-0.706c-0.256-0.277-0.383-0.596-0.383-0.954c0-0.139,0.035-0.277,0.104-0.416
		c0.07-0.138,0.162-0.26,0.279-0.363c0.118-0.103,0.246-0.187,0.385-0.248c0.139-0.063,0.283-0.095,0.438-0.095
		c0.165,0,0.327,0.025,0.486,0.073s0.322,0.107,0.487,0.177c0.181,0.068,0.356,0.131,0.53,0.188c0.173,0.054,0.355,0.083,0.55,0.083
		c0.345,0,0.646-0.118,0.903-0.354c0.256-0.235,0.473-0.542,0.653-0.924c0.18-0.379,0.325-0.802,0.437-1.266
		c0.109-0.462,0.197-0.924,0.259-1.38s0.107-0.885,0.135-1.287c0.028-0.402,0.049-0.727,0.063-0.975
		c-0.485,0.733-0.966,1.296-1.442,1.689c-0.479,0.396-1.063,0.594-1.755,0.594c-0.526,0-0.984-0.111-1.38-0.335
		c-0.395-0.219-0.729-0.509-1.007-0.869c-0.276-0.36-0.505-0.771-0.685-1.237c-0.18-0.461-0.314-0.944-0.404-1.44
		c-0.091-0.498-0.148-0.987-0.178-1.464c-0.026-0.476-0.026-0.917,0-1.316c0.014-0.304,0.053-0.703,0.115-1.195
		c0.063-0.491,0.162-0.971,0.301-1.441s0.332-0.867,0.582-1.195c0.248-0.325,0.572-0.474,0.975-0.443
		c0.262,0.011,0.477,0.128,0.645,0.343c0.165,0.214,0.301,0.479,0.402,0.798c0.105,0.319,0.182,0.668,0.23,1.049
		c0.047,0.378,0.078,0.757,0.092,1.129c0.015,0.376,0.018,0.719,0.011,1.028c-0.007,0.313-0.011,0.551-0.011,0.715
		c0,0.235,0.008,0.471,0.021,0.706s0.063,0.447,0.146,0.636c0.083,0.186,0.21,0.332,0.384,0.446c0.174,0.11,0.419,0.163,0.736,0.163
		c0.36,0,0.646-0.089,0.861-0.268c0.215-0.182,0.374-0.405,0.479-0.677c0.104-0.269,0.169-0.56,0.196-0.869
		c0.028-0.313,0.042-0.605,0.042-0.883c0-0.193,0-0.429,0-0.705c0-0.277,0.002-0.57,0.01-0.874c0.008-0.303,0.035-0.604,0.084-0.902
		c0.047-0.298,0.123-0.565,0.229-0.811c0.104-0.241,0.242-0.438,0.414-0.589c0.174-0.152,0.398-0.23,0.675-0.23
		c0.347,0,0.644,0.138,0.894,0.404c0.248,0.272,0.459,0.623,0.633,1.062c0.172,0.435,0.311,0.915,0.414,1.442
		c0.104,0.525,0.184,1.046,0.238,1.566c0.057,0.52,0.094,0.995,0.115,1.431c0.021,0.438,0.031,0.779,0.031,1.028
		c0,0.581-0.021,1.242-0.063,1.98c-0.042,0.742-0.121,1.502-0.238,2.285c-0.119,0.781-0.295,1.55-0.529,2.304
		c-0.236,0.754-0.544,1.428-0.924,2.023c-0.381,0.595-0.848,1.072-1.401,1.433S64.9,29,64.125,29z"/>
</g>
</svg>
