<?xml version="1.0" encoding="utf-8"?>
<!-- Generator: Adobe Illustrator 16.0.0, SVG Export Plug-In . SVG Version: 6.00 Build 0)  -->
<!DOCTYPE svg PUBLIC "-//W3C//DTD SVG 1.1//EN" "http://www.w3.org/Graphics/SVG/1.1/DTD/svg11.dtd">
<svg version="1.1" id="图层_1" xmlns="http://www.w3.org/2000/svg" xmlns:xlink="http://www.w3.org/1999/xlink" x="0px" y="0px"
	 width="258px" height="36px" viewBox="0 0 258 36" enable-background="new 0 0 258 36" xml:space="preserve">
<g>
	<path fill="#545454" d="M27.678,18.029c0,2.19-0.589,3.899-1.767,5.128C24.733,24.386,23.069,25,20.917,25
		c-1.452,0-2.761-0.305-3.925-0.917c-1.165-0.611-2.069-1.445-2.712-2.502c-0.643-1.057-0.964-2.238-0.964-3.543
		s0.318-2.486,0.955-3.542c0.636-1.057,1.515-1.888,2.636-2.493c1.12-0.604,2.368-0.907,3.743-0.907
		c0.866,0,1.748,0.118,2.646,0.353c0.897,0.236,1.645,0.551,2.244,0.946l0.382,2.693H25.75c-0.268-1.069-0.886-1.906-1.853-2.512
		c-0.968-0.604-2.043-0.907-3.228-0.907c-1.693,0-3.103,0.601-4.23,1.805c-1.126,1.203-1.69,2.715-1.69,4.536
		s0.583,3.346,1.747,4.574c1.166,1.229,2.69,1.843,4.575,1.843s3.422-0.611,4.613-1.834c1.19-1.222,1.785-2.896,1.785-5.023h0.191
		C27.672,17.723,27.678,17.876,27.678,18.029z"/>
	<path fill="#545454" d="M29.531,24.542c0.331,0,0.614-0.118,0.85-0.353c0.236-0.236,0.36-0.519,0.373-0.85v-10.6
		c-0.013-0.331-0.137-0.611-0.373-0.84c-0.235-0.229-0.519-0.344-0.85-0.344h-0.249v-0.191h4.183v0.191h-0.248
		c-0.331,0-0.615,0.115-0.85,0.344c-0.236,0.229-0.36,0.509-0.373,0.84v10.6c0,0.331,0.121,0.614,0.363,0.85
		c0.242,0.235,0.528,0.353,0.859,0.353h0.248v0.191h-4.183v-0.191H29.531z"/>
	<path fill="#545454" d="M49.451,11.554c-0.318,0-0.592,0.112-0.821,0.334c-0.229,0.223-0.351,0.494-0.363,0.812v9.856
		c0,0.738,0.044,1.438,0.133,2.101L48.439,25h-0.172l-10.41-11.116v9.512c0,0.318,0.115,0.589,0.344,0.812s0.503,0.334,0.821,0.334
		h0.363v0.191h-3.935v-0.191h0.363c0.318,0,0.592-0.111,0.821-0.334c0.229-0.223,0.344-0.5,0.344-0.831v-9.913
		c0-0.776-0.045-1.47-0.134-2.082l-0.038-0.305h0.191l10.409,11.116v-9.473c-0.013-0.331-0.134-0.608-0.363-0.831
		c-0.229-0.222-0.503-0.334-0.821-0.334h-0.363v-0.191h3.934v0.191H49.451z"/>
	<path fill="#545454" d="M52.259,13.063v0.344h-0.191V11c0.191,0.077,0.527,0.153,1.012,0.229c0.483,0.076,0.817,0.115,1.002,0.115
		c0.184,0,0.283,0,0.296,0h5.328c0.624,0,1.101-0.035,1.433-0.105c0.331-0.07,0.528-0.118,0.592-0.143v0.172L53.558,24.16h6.074
		c0.675,0,1.232-0.216,1.671-0.649c0.439-0.433,0.754-1.006,0.945-1.719h0.191l-0.63,2.941H51.8v-0.172l8.022-12.644h-6.437
		c-0.318,0.013-0.585,0.127-0.802,0.344C52.367,12.478,52.259,12.745,52.259,13.063z"/>
	<path fill="#545454" d="M64.483,24.542c0.331,0,0.614-0.118,0.849-0.353c0.236-0.236,0.36-0.519,0.373-0.85V12.643
		c0-0.306-0.121-0.564-0.363-0.774s-0.528-0.315-0.859-0.315h-0.23l-0.019-0.191h5.596c0.395,0,0.825-0.038,1.29-0.114
		c0.464-0.077,0.793-0.153,0.984-0.229v2.407h-0.191v-0.344c0-0.305-0.105-0.566-0.315-0.783c-0.21-0.216-0.462-0.331-0.755-0.344
		h-3.896v5.902h3.228c0.254-0.013,0.471-0.108,0.649-0.287c0.178-0.178,0.268-0.401,0.268-0.668v-0.268h0.191v3.017h-0.191v-0.286
		c0-0.254-0.086-0.471-0.257-0.65c-0.172-0.178-0.386-0.273-0.641-0.286h-3.247v5.711h2.731c0.942,0,1.662-0.21,2.158-0.63
		c0.496-0.42,0.91-1.043,1.241-1.872h0.191l-1.108,3.094h-7.926v-0.191H64.483z"/>
	<path fill="#545454" d="M75.312,24.542c0.331,0,0.615-0.118,0.85-0.353c0.236-0.236,0.36-0.519,0.373-0.85V12.757
		c-0.013-0.331-0.137-0.614-0.373-0.85c-0.235-0.235-0.519-0.354-0.85-0.354h-0.249v-0.191h4.183v0.191h-0.249
		c-0.458,0-0.809,0.198-1.05,0.592c-0.115,0.191-0.172,0.395-0.172,0.611v11.383h2.73c0.942,0,1.662-0.21,2.159-0.63
		c0.497-0.42,0.91-1.043,1.241-1.872h0.191l-1.107,3.094h-7.927v-0.191H75.312z"/>
	<path fill="#545454" d="M87.516,14.152c0.37-1.083,0.988-1.827,1.853-2.235s2.4-0.612,4.603-0.612c0.458,0,1.617,0.02,3.476,0.058
		c1.35,0.038,2.541,0.331,3.572,0.879c1.031,0.547,1.836,1.321,2.416,2.32c0.58,1,0.869,2.162,0.869,3.486
		c0,2-0.633,3.613-1.9,4.842c-1.267,1.229-2.92,1.843-4.957,1.843h-6.474l0.019-0.191h0.229c0.318,0,0.592-0.105,0.821-0.315
		c0.229-0.209,0.363-0.467,0.401-0.773V11.936c-1.591,0.038-2.719,0.287-3.38,0.745c-0.344,0.242-0.605,0.475-0.783,0.697
		c-0.179,0.223-0.364,0.506-0.555,0.85L87.516,14.152z M93.686,11.936V24.16h3.762c1.617,0,2.925-0.56,3.925-1.681
		s1.5-2.598,1.5-4.431c0-1.209-0.227-2.275-0.679-3.199c-0.452-0.923-1.089-1.639-1.91-2.149c-0.821-0.508-1.767-0.764-2.836-0.764
		H93.686z"/>
	<path fill="#545454" d="M106.444,24.542c0.331,0,0.614-0.118,0.85-0.353c0.235-0.236,0.36-0.519,0.372-0.85V12.643
		c0-0.306-0.121-0.564-0.362-0.774c-0.242-0.21-0.528-0.315-0.859-0.315h-0.229l-0.02-0.191h5.597c0.395,0,0.824-0.038,1.289-0.114
		c0.465-0.077,0.793-0.153,0.983-0.229v2.407h-0.19v-0.344c0-0.305-0.104-0.566-0.315-0.783c-0.21-0.216-0.461-0.331-0.754-0.344
		h-3.896v5.902h3.229c0.254-0.013,0.471-0.108,0.648-0.287c0.178-0.178,0.268-0.401,0.268-0.668v-0.268h0.191v3.017h-0.191v-0.286
		c0-0.254-0.086-0.471-0.258-0.65c-0.172-0.178-0.385-0.273-0.64-0.286h-3.247v5.711h2.73c0.942,0,1.662-0.21,2.159-0.63
		c0.497-0.42,0.909-1.043,1.241-1.872h0.191l-1.107,3.094h-7.928v-0.191H106.444z"/>
	<path fill="#545454" d="M118.734,23.071c-1.267-1.273-1.9-2.95-1.9-5.033c0-2.082,0.634-3.759,1.9-5.032
		c1.268-1.273,2.945-1.91,5.033-1.91c1.706,0,3.215,0.433,4.527,1.299l0.381,2.693h-0.172c-0.279-1.095-0.847-1.938-1.699-2.531
		c-0.854-0.592-1.865-0.888-3.037-0.888c-1.668,0-3.002,0.579-4.002,1.738c-0.999,1.159-1.498,2.693-1.498,4.603
		c0,1.91,0.493,3.447,1.479,4.613c0.987,1.165,2.288,1.766,3.905,1.805c1.427,0,2.617-0.388,3.572-1.166
		c1.031-0.84,1.655-2.209,1.872-4.106h0.153l-0.229,2.999c-1.159,1.897-2.948,2.846-5.368,2.846
		C121.641,24.987,120.002,24.345,118.734,23.071z"/>
	<path fill="#545454" d="M133.012,13.015c1.362-1.28,3.129-1.919,5.3-1.919s3.938,0.64,5.3,1.919
		c1.363,1.28,2.043,2.958,2.043,5.033s-0.68,3.753-2.043,5.033c-1.362,1.28-3.129,1.919-5.3,1.919s-3.938-0.64-5.3-1.919
		c-1.363-1.28-2.044-2.958-2.044-5.033S131.648,14.295,133.012,13.015z M134.053,22.67c1.076,1.171,2.492,1.757,4.249,1.757
		s3.174-0.586,4.25-1.757c1.075-1.171,1.614-2.712,1.614-4.622s-0.539-3.45-1.614-4.622c-1.076-1.171-2.493-1.757-4.25-1.757
		s-3.173,0.585-4.249,1.757c-1.076,1.172-1.614,2.712-1.614,4.622S132.977,21.499,134.053,22.67z"/>
	<path fill="#545454" d="M151.099,11.955h-1.222v11.383c0,0.331,0.117,0.614,0.353,0.85c0.235,0.235,0.525,0.353,0.869,0.353h0.229
		l0.02,0.191h-4.184v-0.191h0.248c0.332,0,0.615-0.114,0.85-0.344c0.236-0.229,0.36-0.509,0.373-0.841v-10.6
		c-0.013-0.331-0.137-0.614-0.373-0.85c-0.234-0.235-0.518-0.354-0.85-0.354h-0.248v-0.191h5.157c1.158,0,2.069,0.322,2.731,0.965
		c0.662,0.643,0.992,1.478,0.992,2.502c0,1.025-0.314,1.91-0.945,2.654c-0.629,0.745-1.396,1.118-2.301,1.118
		c0.191,0.089,0.417,0.265,0.678,0.525c0.262,0.261,0.493,0.532,0.697,0.812c1.096,1.566,1.809,2.531,2.139,2.894
		c0.332,0.363,0.566,0.611,0.707,0.745s0.293,0.264,0.459,0.392c0.165,0.127,0.33,0.229,0.496,0.306
		c0.369,0.178,0.764,0.267,1.185,0.267v0.191h-1.051c-0.548,0-1.058-0.098-1.528-0.296c-0.471-0.197-0.824-0.401-1.061-0.61
		c-0.234-0.21-0.439-0.414-0.61-0.611c-0.172-0.197-0.646-0.856-1.423-1.977c-0.777-1.12-1.229-1.76-1.355-1.919
		c-0.128-0.159-0.262-0.315-0.402-0.467c-0.407-0.433-0.814-0.65-1.222-0.65V18.01c0.103,0.013,0.235,0.019,0.401,0.019
		c0.165,0,0.369-0.006,0.611-0.019c1.578-0.039,2.571-0.7,2.979-1.987c0.075-0.254,0.114-0.493,0.114-0.716c0-0.223,0-0.366,0-0.43
		c-0.025-0.853-0.248-1.541-0.668-2.063c-0.421-0.522-0.987-0.802-1.7-0.841C151.939,11.961,151.557,11.955,151.099,11.955z"/>
	<path fill="#545454" d="M172.051,24.542h0.153v0.191h-4.298v-0.191h0.172c0.268,0,0.469-0.086,0.602-0.258
		c0.135-0.172,0.201-0.334,0.201-0.487s-0.025-0.306-0.077-0.458l-1.222-3.247h-5.157l-1.28,3.266
		c-0.051,0.153-0.076,0.303-0.076,0.45c0,0.146,0.067,0.305,0.201,0.477s0.334,0.258,0.602,0.258h0.172v0.191h-3.839v-0.191h0.171
		c0.318,0,0.631-0.102,0.937-0.305s0.554-0.503,0.745-0.898l4.316-10.276c0.471-1.031,0.707-1.687,0.707-1.967h0.172l5.118,12.243
		c0.179,0.395,0.42,0.694,0.726,0.898S171.72,24.542,172.051,24.542z M162.654,19.519h4.698l-2.292-6.131L162.654,19.519z"/>
	<path fill="#545454" d="M181.887,13.063c0-0.305-0.107-0.569-0.324-0.792c-0.217-0.222-0.471-0.34-0.764-0.353h-3.629v11.44
		c0.012,0.332,0.137,0.612,0.372,0.841c0.235,0.229,0.519,0.344,0.85,0.344h0.249v0.191h-4.184v-0.191h0.249
		c0.331,0,0.614-0.114,0.85-0.344c0.235-0.229,0.359-0.503,0.372-0.821V11.917h-3.629c-0.305,0.013-0.563,0.131-0.773,0.353
		c-0.209,0.223-0.314,0.487-0.314,0.792v0.325l-0.191,0.019V11c0.191,0.077,0.521,0.153,0.994,0.229
		c0.471,0.076,0.902,0.115,1.298,0.115h6.456c0.623,0,1.143-0.047,1.557-0.143c0.413-0.095,0.664-0.163,0.754-0.201v2.407
		l-0.191-0.019V13.063z"/>
	<path fill="#545454" d="M183.836,24.542c0.33,0,0.613-0.118,0.85-0.353c0.235-0.236,0.359-0.519,0.372-0.85v-10.6
		c-0.013-0.331-0.137-0.611-0.372-0.84c-0.236-0.229-0.52-0.344-0.85-0.344h-0.25v-0.191h4.184v0.191h-0.248
		c-0.332,0-0.615,0.115-0.85,0.344c-0.236,0.229-0.359,0.509-0.373,0.84v10.6c0,0.331,0.121,0.614,0.363,0.85
		c0.242,0.235,0.527,0.353,0.859,0.353h0.248v0.191h-4.184v-0.191H183.836z"/>
	<path fill="#545454" d="M199.4,11.363h3.84v0.191h-0.172c-0.318,0-0.631,0.099-0.936,0.296c-0.307,0.198-0.549,0.494-0.727,0.888
		l-4.604,10.294c-0.471,1.032-0.706,1.688-0.706,1.967h-0.171l-5.367-12.243c-0.179-0.407-0.424-0.709-0.736-0.907
		c-0.312-0.197-0.627-0.296-0.945-0.296h-0.152v-0.191h4.297v0.191h-0.172c-0.268,0-0.467,0.086-0.602,0.258
		c-0.133,0.172-0.2,0.332-0.2,0.478c0,0.146,0.032,0.296,0.095,0.449l3.992,10.008l4.164-10.008
		c0.051-0.153,0.076-0.303,0.076-0.449c0-0.146-0.066-0.306-0.2-0.478s-0.334-0.258-0.603-0.258H199.4V11.363z"/>
	<path fill="#545454" d="M204.424,24.542c0.332,0,0.615-0.118,0.85-0.353c0.236-0.236,0.36-0.519,0.373-0.85V12.643
		c0-0.306-0.121-0.564-0.363-0.774c-0.241-0.21-0.527-0.315-0.859-0.315h-0.229l-0.02-0.191h5.597c0.394,0,0.823-0.038,1.289-0.114
		c0.464-0.077,0.792-0.153,0.983-0.229v2.407h-0.191v-0.344c0-0.305-0.104-0.566-0.314-0.783c-0.211-0.216-0.462-0.331-0.755-0.344
		h-3.896v5.902h3.228c0.254-0.013,0.471-0.108,0.649-0.287c0.178-0.178,0.268-0.401,0.268-0.668v-0.268h0.19v3.017h-0.19v-0.286
		c0-0.254-0.086-0.471-0.258-0.65c-0.172-0.178-0.386-0.273-0.641-0.286h-3.246v5.711h2.73c0.941,0,1.662-0.21,2.158-0.63
		c0.497-0.42,0.91-1.043,1.242-1.872h0.19l-1.107,3.094h-7.927v-0.191H204.424z"/>
</g>
</svg>
