<?xml version="1.0" encoding="utf-8"?>
<!-- Generator: Adobe Illustrator 16.0.0, SVG Export Plug-In . SVG Version: 6.00 Build 0)  -->
<!DOCTYPE svg PUBLIC "-//W3C//DTD SVG 1.1//EN" "http://www.w3.org/Graphics/SVG/1.1/DTD/svg11.dtd">
<svg version="1.1" id="图层_1" xmlns="http://www.w3.org/2000/svg" xmlns:xlink="http://www.w3.org/1999/xlink" x="0px" y="0px"
	 width="258px" height="36px" viewBox="0 0 258 36" enable-background="new 0 0 258 36" xml:space="preserve">
<g>
	<path fill="#545454" d="M23.179,21.201l1.898,0.283c-0.037,0.697-0.099,1.292-0.186,1.782c-0.087,0.491-0.216,0.929-0.386,1.313
		c-0.172,0.387-0.38,0.696-0.627,0.934c-0.248,0.236-0.565,0.43-0.955,0.584c-0.389,0.151-0.825,0.257-1.308,0.315
		c-0.484,0.058-1.067,0.087-1.75,0.087c-0.654,0-1.239-0.017-1.756-0.049c-0.516-0.033-0.987-0.105-1.412-0.218
		c-0.426-0.113-0.797-0.221-1.112-0.327c-0.317-0.106-0.597-0.283-0.84-0.53c-0.244-0.247-0.447-0.468-0.611-0.664
		c-0.163-0.197-0.302-0.497-0.414-0.899c-0.113-0.404-0.198-0.759-0.256-1.063c-0.058-0.305-0.104-0.749-0.137-1.33
		c-0.032-0.582-0.052-1.091-0.06-1.526c-0.007-0.437-0.011-1.04-0.011-1.811c0-0.814,0.003-1.469,0.011-1.963
		s0.029-1.031,0.065-1.613s0.082-1.033,0.136-1.353s0.142-0.671,0.262-1.052c0.119-0.382,0.256-0.665,0.409-0.852
		c0.153-0.186,0.353-0.387,0.6-0.604s0.518-0.368,0.812-0.452c0.295-0.083,0.653-0.17,1.075-0.258
		c0.421-0.087,0.874-0.141,1.357-0.163c0.483-0.021,1.045-0.032,1.685-0.032c0.662,0,1.225,0.023,1.69,0.071
		c0.465,0.048,0.901,0.138,1.309,0.271c0.407,0.136,0.742,0.314,1.003,0.535c0.262,0.222,0.493,0.51,0.692,0.868
		c0.2,0.354,0.354,0.774,0.463,1.258c0.109,0.484,0.189,1.064,0.24,1.739l-1.908,0.37c-0.037-0.37-0.069-0.678-0.098-0.925
		c-0.029-0.248-0.071-0.492-0.125-0.731c-0.055-0.24-0.099-0.434-0.131-0.583c-0.033-0.149-0.1-0.295-0.203-0.438
		c-0.102-0.141-0.184-0.249-0.245-0.321s-0.176-0.142-0.343-0.207c-0.168-0.064-0.308-0.11-0.42-0.136
		c-0.113-0.024-0.298-0.05-0.556-0.07c-0.259-0.022-0.482-0.033-0.671-0.033s-0.465,0-0.829,0c-0.508,0-0.925,0.005-1.248,0.017
		c-0.324,0.011-0.647,0.036-0.971,0.076c-0.324,0.04-0.578,0.098-0.763,0.174c-0.185,0.077-0.358,0.179-0.518,0.305
		c-0.161,0.128-0.275,0.283-0.344,0.47c-0.069,0.186-0.111,0.408-0.125,0.67c-0.065,1.92-0.098,3.879-0.098,5.878
		c0,1.396,0.033,2.758,0.098,4.089c0.037,0.414,0.154,0.738,0.354,0.971c0.2,0.232,0.589,0.417,1.167,0.556s1.398,0.208,2.459,0.208
		c0.566,0,1.042-0.017,1.428-0.049c0.385-0.033,0.708-0.109,0.97-0.23c0.262-0.119,0.461-0.229,0.6-0.327
		c0.139-0.098,0.249-0.288,0.333-0.571c0.083-0.284,0.138-0.522,0.164-0.715c0.025-0.192,0.052-0.521,0.082-0.987
		c0.007-0.102,0.012-0.182,0.016-0.239c0.003-0.058,0.009-0.136,0.017-0.234C23.165,21.37,23.172,21.281,23.179,21.201z"/>
	<path fill="#545454" d="M32.623,26.402c-0.807,0-1.479-0.033-2.017-0.099s-1.002-0.208-1.391-0.431
		c-0.389-0.222-0.685-0.458-0.888-0.708c-0.203-0.252-0.364-0.647-0.48-1.189c-0.116-0.541-0.187-1.077-0.212-1.608
		c-0.026-0.53-0.039-1.268-0.039-2.213c0-0.706,0.009-1.294,0.027-1.768c0.019-0.472,0.061-0.935,0.126-1.39
		c0.065-0.454,0.147-0.821,0.245-1.102c0.099-0.279,0.24-0.545,0.426-0.796c0.185-0.251,0.395-0.441,0.627-0.572
		s0.529-0.245,0.889-0.344c0.36-0.098,0.753-0.163,1.177-0.196c0.426-0.032,0.933-0.049,1.521-0.049s1.096,0.017,1.521,0.049
		c0.425,0.033,0.817,0.099,1.178,0.196c0.359,0.099,0.656,0.213,0.888,0.344s0.442,0.321,0.627,0.572
		c0.186,0.251,0.327,0.517,0.426,0.796c0.098,0.28,0.18,0.647,0.245,1.102c0.065,0.455,0.106,0.918,0.125,1.39
		c0.018,0.474,0.027,1.062,0.027,1.768c0,0.945-0.013,1.683-0.039,2.213c-0.025,0.531-0.096,1.067-0.212,1.608
		c-0.116,0.542-0.278,0.94-0.486,1.194c-0.207,0.254-0.505,0.49-0.894,0.71c-0.389,0.218-0.853,0.358-1.391,0.424
		S33.437,26.402,32.623,26.402z M32.644,24.896c1.033-0.021,1.75-0.097,2.154-0.229c0.403-0.131,0.605-0.389,0.605-0.774
		c0.08-1.039,0.12-2.242,0.12-3.608c0-0.451-0.018-1.096-0.054-1.937c-0.037-0.839-0.055-1.463-0.055-1.87
		c0-0.122-0.02-0.235-0.06-0.338c-0.041-0.102-0.106-0.187-0.197-0.256c-0.091-0.069-0.182-0.129-0.273-0.18
		s-0.218-0.091-0.381-0.119c-0.164-0.029-0.302-0.056-0.415-0.077s-0.272-0.036-0.479-0.044c-0.208-0.007-0.368-0.01-0.48-0.01
		c-0.113,0-0.279,0-0.497,0s-0.384,0-0.497,0c-0.112,0-0.272,0.003-0.48,0.01c-0.206,0.008-0.367,0.022-0.479,0.044
		c-0.113,0.021-0.25,0.048-0.415,0.077c-0.163,0.028-0.291,0.068-0.381,0.119c-0.091,0.051-0.182,0.11-0.273,0.18
		s-0.156,0.154-0.196,0.256c-0.04,0.103-0.06,0.216-0.06,0.338c0,0.407-0.018,1.031-0.054,1.87
		c-0.037,0.841-0.055,1.485-0.055,1.937c0,1.366,0.04,2.569,0.12,3.608c0,0.386,0.213,0.648,0.638,0.791
		C30.927,24.826,31.641,24.896,32.644,24.896z"/>
	<path fill="#545454" d="M50.2,26.238h-1.962l-0.208-1.504c-0.443,1.111-1.603,1.668-3.478,1.668c-0.502,0-0.951-0.033-1.347-0.099
		c-0.396-0.065-0.738-0.177-1.025-0.337c-0.288-0.161-0.533-0.327-0.736-0.497s-0.373-0.417-0.507-0.741
		c-0.135-0.324-0.24-0.618-0.317-0.884c-0.076-0.265-0.132-0.635-0.168-1.106c-0.036-0.473-0.058-0.885-0.065-1.237
		s-0.011-0.831-0.011-1.435c0-0.589,0.009-1.098,0.027-1.527c0.018-0.428,0.055-0.854,0.109-1.275
		c0.055-0.422,0.127-0.774,0.218-1.062c0.091-0.289,0.213-0.566,0.366-0.835c0.153-0.27,0.336-0.486,0.551-0.649
		c0.214-0.164,0.471-0.308,0.769-0.436c0.298-0.128,0.64-0.217,1.025-0.267c0.385-0.052,0.821-0.077,1.308-0.077
		c0.938,0,1.667,0.126,2.187,0.376c0.519,0.251,0.892,0.649,1.117,1.194V9.674L50.2,9.5V26.238z M48.051,23.458v-6.357
		c0-0.632-0.196-1.066-0.588-1.304c-0.393-0.235-1.13-0.354-2.213-0.354c-0.844,0-1.469,0.062-1.875,0.186
		c-0.334,0.102-0.56,0.4-0.676,0.899c-0.117,0.498-0.175,1.169-0.175,2.011c0,1.229,0.022,2.949,0.065,5.159
		c0.037,0.479,0.231,0.8,0.583,0.965c0.353,0.163,1.045,0.245,2.078,0.245c1.018,0,1.729-0.102,2.131-0.306
		C47.785,24.398,48.008,24.018,48.051,23.458z"/>
	<path fill="#545454" d="M62.358,26.238h-1.701l-0.349-1.712c-0.218,0.748-0.613,1.248-1.183,1.499
		c-0.571,0.252-1.406,0.377-2.503,0.377c-0.728,0-1.323-0.071-1.788-0.213c-0.465-0.142-0.836-0.381-1.112-0.715
		c-0.277-0.334-0.468-0.741-0.572-1.227c-0.106-0.483-0.158-1.106-0.158-1.869c0-0.343,0.06-0.647,0.18-0.916
		c0.12-0.27,0.283-0.498,0.49-0.688c0.208-0.188,0.483-0.353,0.829-0.49c0.346-0.139,0.704-0.247,1.075-0.327
		c0.37-0.08,0.819-0.145,1.346-0.192c0.527-0.046,1.042-0.077,1.543-0.092c0.501-0.015,1.086-0.021,1.755-0.021v-3.238
		c0-0.372-0.174-0.627-0.523-0.77c-0.349-0.141-0.971-0.213-1.865-0.213c-0.625,0-1.094,0.015-1.407,0.044
		c-0.313,0.029-0.551,0.115-0.714,0.256c-0.164,0.143-0.258,0.281-0.283,0.422c-0.026,0.137-0.042,0.396-0.049,0.772
		c-0.007,0.139-0.011,0.247-0.011,0.327l-1.668-0.065c-0.015-0.116-0.022-0.287-0.022-0.512c0-0.487,0.071-0.9,0.212-1.237
		c0.142-0.339,0.326-0.604,0.551-0.797s0.534-0.344,0.927-0.452c0.393-0.109,0.782-0.178,1.167-0.207
		c0.386-0.029,0.865-0.044,1.44-0.044c0.872,0,1.581,0.067,2.126,0.202c0.545,0.135,0.992,0.375,1.341,0.724
		c0.349,0.35,0.59,0.796,0.726,1.338c0.134,0.54,0.201,1.248,0.201,2.119V26.238z M60.209,22.814V20.95
		c-1.432,0-2.533,0.054-3.304,0.164c-0.771,0.108-1.285,0.26-1.543,0.452c-0.258,0.191-0.386,0.463-0.386,0.813
		c0,0.015,0,0.036,0,0.065c0,1.104,0.091,1.792,0.272,2.06c0.182,0.271,0.737,0.404,1.668,0.404c0.792,0,1.436-0.095,1.93-0.284
		c0.495-0.188,0.838-0.431,1.03-0.725S60.181,23.243,60.209,22.814z"/>
</g>
</svg>
