<?xml version="1.0" encoding="utf-8"?>
<!-- Generator: Adobe Illustrator 16.0.0, SVG Export Plug-In . SVG Version: 6.00 Build 0)  -->
<!DOCTYPE svg PUBLIC "-//W3C//DTD SVG 1.1//EN" "http://www.w3.org/Graphics/SVG/1.1/DTD/svg11.dtd">
<svg version="1.1" id="图层_1" xmlns="http://www.w3.org/2000/svg" xmlns:xlink="http://www.w3.org/1999/xlink" x="0px" y="0px"
	 width="258px" height="36px" viewBox="0 0 258 36" enable-background="new 0 0 258 36" xml:space="preserve">
<g>
	<path fill="#545454" d="M22.672,12.324c0-0.312-0.13-0.577-0.388-0.798c-0.26-0.222-0.565-0.334-0.921-0.334
		c-0.709,0-1.294,0.402-1.751,1.209c-0.459,0.806-0.688,1.719-0.688,2.738c0,0.783,0.147,1.49,0.443,2.117
		c0.295,0.629,0.725,1.127,1.286,1.497c0.562,0.368,1.212,0.555,1.95,0.555c0.547,0,1.072-0.108,1.575-0.321
		c0.502-0.215,0.909-0.451,1.22-0.711c0.31-0.258,0.631-0.495,0.964-0.708c0.333-0.215,0.624-0.322,0.876-0.322
		c0.325,0,0.606,0.13,0.843,0.389s0.354,0.528,0.354,0.809c0,0.311-0.092,0.674-0.277,1.087c-0.186,0.414-0.477,0.854-0.875,1.318
		c-0.399,0.466-0.865,0.896-1.397,1.286c-0.532,0.392-1.194,0.718-1.984,0.976c-0.791,0.259-1.622,0.389-2.495,0.389
		c-1.152,0-2.221-0.175-3.203-0.522c-0.983-0.346-1.837-0.842-2.562-1.485c-0.724-0.643-1.293-1.451-1.707-2.428
		c-0.413-0.975-0.62-2.068-0.62-3.279c0-2.396,0.716-4.288,2.15-5.678c1.434-1.39,3.311-2.083,5.632-2.083
		c1.183,0,2.276,0.199,3.282,0.597c1.004,0.4,1.803,0.954,2.394,1.664s0.888,1.485,0.888,2.328c0,0.975-0.326,1.859-0.977,2.648
		c-0.65,0.792-1.492,1.188-2.527,1.188c-0.592,0-1.123-0.162-1.596-0.488c-0.475-0.324-0.711-0.791-0.711-1.397
		c0-0.28,0.137-0.672,0.411-1.175C22.535,12.886,22.672,12.531,22.672,12.324z"/>
	<path fill="#545454" d="M36.353,23.499c-1.152,0-2.191-0.207-3.115-0.622c-0.924-0.413-1.664-1.033-2.218-1.861
		s-0.831-1.796-0.831-2.905c0-1.685,0.576-3.022,1.729-4.012c1.153-0.992,2.63-1.486,4.435-1.486c1.803,0,3.273,0.494,4.412,1.486
		c1.138,0.989,1.707,2.327,1.707,4.012c0,1.672-0.58,2.987-1.74,3.946C39.572,23.019,38.112,23.499,36.353,23.499z M37.505,18.089
		c0-0.768-0.096-1.444-0.288-2.029c-0.192-0.584-0.474-0.875-0.843-0.875c-0.251,0-0.473,0.147-0.665,0.443
		c-0.192,0.295-0.333,0.658-0.421,1.086c-0.088,0.429-0.134,0.887-0.134,1.375c0,0.755,0.104,1.416,0.312,1.984
		c0.206,0.569,0.502,0.854,0.887,0.854c0.384,0,0.672-0.28,0.864-0.843C37.41,19.522,37.505,18.857,37.505,18.089z"/>
	<path fill="#545454" d="M44.9,8.466C45.322,8.155,45.916,8,46.685,8c1.611,0,2.417,0.562,2.417,1.686
		c0,0.62-0.208,1.057-0.621,1.309c-0.413,0.251-1.013,0.376-1.796,0.376c-0.695,0-1.271-0.133-1.729-0.399
		c-0.459-0.265-0.688-0.694-0.688-1.285C44.268,9.183,44.479,8.775,44.9,8.466z M49.08,15.206c0-0.931-0.222-1.57-0.665-1.919
		c-0.442-0.347-1.064-0.52-1.862-0.52c-0.681,0-1.224,0.229-1.63,0.688c-0.407,0.458-0.61,1.063-0.61,1.818v5.453
		c0,0.933,0.159,1.602,0.477,2.007c0.318,0.407,0.913,0.61,1.785,0.61c0.932,0,1.582-0.174,1.951-0.521s0.555-0.965,0.555-1.853
		V15.206z"/>
	<path fill="#545454" d="M57.904,17.38c0-0.828-0.324-1.242-0.975-1.242c-0.311,0-0.566,0.13-0.766,0.389
		c-0.199,0.258-0.314,0.603-0.344,1.03v3.414c0,0.902-0.185,1.522-0.555,1.862c-0.369,0.342-1.02,0.511-1.951,0.511
		c-0.872,0-1.467-0.203-1.785-0.61c-0.317-0.405-0.477-1.074-0.477-2.007v-5.453c0-0.756,0.203-1.36,0.611-1.818
		c0.404-0.458,0.949-0.688,1.629-0.688c0.561,0,1.034,0.081,1.419,0.243c0.384,0.164,0.672,0.444,0.864,0.843
		c1.153-0.754,2.557-1.13,4.213-1.13c1.049,0,1.808,0.413,2.273,1.241c0.465,0.827,0.697,2.188,0.697,4.08
		c0,0.931-0.021,1.688-0.066,2.271c-0.044,0.585-0.113,1.088-0.209,1.509c-0.098,0.421-0.249,0.735-0.455,0.942
		c-0.207,0.207-0.448,0.354-0.722,0.442c-0.273,0.09-0.624,0.134-1.053,0.134c-0.828,0-1.423-0.156-1.785-0.467
		c-0.362-0.309-0.543-0.768-0.543-1.374L57.904,17.38z"/>
	<path fill="#545454" d="M76.242,17.091c0,2.526-0.074,4.295-0.223,5.299c-0.117,0.902-0.303,1.681-0.555,2.34
		c-0.251,0.656-0.605,1.241-1.063,1.753c-0.458,0.509-1.042,0.888-1.752,1.141C71.939,27.874,71.097,28,70.122,28
		c-0.784,0-1.512-0.115-2.185-0.344c-0.673-0.229-1.205-0.51-1.596-0.842c-0.393-0.332-0.699-0.662-0.92-0.988
		c-0.223-0.325-0.334-0.605-0.334-0.842s0.078-0.454,0.233-0.654c0.155-0.199,0.366-0.3,0.632-0.3c0.191,0,0.418,0.061,0.676,0.179
		c0.259,0.118,0.507,0.25,0.743,0.398c0.237,0.147,0.518,0.281,0.843,0.398c0.325,0.118,0.643,0.179,0.953,0.179
		c0.799,0,1.364-0.2,1.697-0.599c0.332-0.4,0.498-0.97,0.498-1.709c-0.252,0.104-0.496,0.193-0.731,0.268
		c-0.236,0.074-0.466,0.132-0.687,0.177c-0.223,0.044-0.434,0.074-0.633,0.089c-0.199,0.014-0.396,0.021-0.588,0.021
		c-0.872,0-1.618-0.244-2.239-0.731c-0.62-0.487-1.067-1.091-1.341-1.807c-0.273-0.717-0.41-1.488-0.41-2.318
		c0-0.827,0.01-1.528,0.033-2.105c0.021-0.576,0.069-1.09,0.144-1.541c0.073-0.451,0.159-0.809,0.255-1.075s0.232-0.483,0.41-0.653
		s0.377-0.285,0.6-0.345c0.221-0.059,0.488-0.088,0.797-0.088c0.932,0,1.586,0.159,1.963,0.478c0.377,0.316,0.564,0.816,0.564,1.495
		l0.023,3.57c0,0.236,0,0.41,0,0.521c0,0.112,0.012,0.248,0.033,0.41c0.021,0.164,0.051,0.281,0.088,0.354
		c0.037,0.074,0.09,0.152,0.156,0.233c0.066,0.08,0.155,0.137,0.266,0.166c0.111,0.029,0.248,0.045,0.41,0.045
		c0.443,0,0.721-0.123,0.831-0.366c0.111-0.243,0.167-0.69,0.167-1.342l0.021-3.592c0-0.458,0.078-0.827,0.233-1.108
		c0.155-0.28,0.417-0.495,0.787-0.643c0.37-0.148,0.872-0.222,1.508-0.222c0.384,0,0.713,0.063,0.986,0.188
		c0.273,0.126,0.491,0.29,0.654,0.488c0.163,0.2,0.284,0.495,0.366,0.887c0.08,0.392,0.137,0.787,0.166,1.186
		C76.226,15.916,76.242,16.44,76.242,17.091z"/>
</g>
</svg>
