<?xml version="1.0" encoding="utf-8"?>
<!-- Generator: Adobe Illustrator 16.0.0, SVG Export Plug-In . SVG Version: 6.00 Build 0)  -->
<!DOCTYPE svg PUBLIC "-//W3C//DTD SVG 1.1//EN" "http://www.w3.org/Graphics/SVG/1.1/DTD/svg11.dtd">
<svg version="1.1" id="图层_1" xmlns="http://www.w3.org/2000/svg" xmlns:xlink="http://www.w3.org/1999/xlink" x="0px" y="0px"
	 width="258px" height="36px" viewBox="0 0 258 36" enable-background="new 0 0 258 36" xml:space="preserve">
<g>
	<path fill="#545454" d="M17.374,25.354c-1.259-0.765-2.26-1.797-3.003-3.1c-0.743-1.301-1.114-2.724-1.114-4.266
		c0-1.527,0.368-2.942,1.104-4.244s1.733-2.334,2.993-3.099c1.259-0.764,2.646-1.146,4.16-1.146c1.019,0,1.945,0.149,2.78,0.446
		c0.834,0.297,1.641,0.771,2.419,1.421c0.156,0.114,0.233,0.276,0.233,0.489c0,0.113-0.028,0.216-0.084,0.308
		c-0.057,0.092-0.135,0.158-0.233,0.202c-0.029,0.099-0.092,0.177-0.192,0.232c-0.099,0.058-0.205,0.085-0.318,0.085
		c-0.212,0-0.39-0.063-0.531-0.191c-0.552-0.494-1.153-0.855-1.804-1.081c-0.651-0.228-1.408-0.34-2.271-0.34
		c-1.188,0-2.292,0.314-3.311,0.943c-1.019,0.63-1.829,1.476-2.43,2.536c-0.602,1.063-0.902,2.207-0.902,3.438
		c0,1.26,0.297,2.42,0.892,3.48c0.594,1.062,1.401,1.903,2.419,2.526c1.019,0.622,2.129,0.934,3.332,0.934
		c1.542,0,2.936-0.495,4.181-1.486c0.156-0.112,0.312-0.17,0.467-0.17c0.212,0,0.396,0.075,0.552,0.224s0.233,0.343,0.233,0.584
		c0,0.226-0.078,0.425-0.233,0.594c-1.33,1.217-3.063,1.825-5.2,1.825C20.013,26.5,18.633,26.118,17.374,25.354z"/>
	<path fill="#545454" d="M31.625,25.631c-0.898-0.51-1.602-1.214-2.111-2.112s-0.765-1.907-0.765-3.024
		c0-1.118,0.255-2.13,0.765-3.035s1.213-1.613,2.111-2.122c0.899-0.51,1.906-0.764,3.024-0.764c1.117,0,2.123,0.254,3.014,0.764
		c0.891,0.509,1.595,1.217,2.112,2.122c0.516,0.905,0.774,1.917,0.774,3.035c0,1.117-0.254,2.126-0.764,3.024
		c-0.51,0.898-1.213,1.603-2.112,2.112c-0.898,0.509-1.907,0.764-3.024,0.764C33.532,26.395,32.524,26.14,31.625,25.631z
		 M36.857,24.336c0.65-0.383,1.16-0.91,1.528-1.581c0.368-0.673,0.552-1.426,0.552-2.261c0-0.85-0.184-1.609-0.552-2.281
		c-0.368-0.672-0.877-1.199-1.528-1.581c-0.651-0.383-1.387-0.573-2.208-0.573c-0.807,0-1.539,0.19-2.197,0.573
		c-0.658,0.382-1.174,0.909-1.549,1.581c-0.375,0.672-0.563,1.432-0.563,2.281c0,0.835,0.188,1.588,0.563,2.261
		c0.375,0.671,0.891,1.198,1.549,1.581c0.658,0.381,1.39,0.572,2.197,0.572C35.47,24.908,36.206,24.717,36.857,24.336z"/>
	<path fill="#545454" d="M58.176,15.146c0.644,0.396,1.146,0.959,1.506,1.688s0.542,1.574,0.542,2.536v6.112
		c0,0.241-0.075,0.436-0.223,0.583c-0.148,0.148-0.343,0.224-0.583,0.224s-0.438-0.075-0.594-0.224
		c-0.156-0.147-0.233-0.342-0.233-0.583v-6.112c0-1.005-0.258-1.8-0.774-2.388c-0.517-0.587-1.192-0.881-2.027-0.881
		c-0.891,0-1.612,0.297-2.165,0.892c-0.552,0.595-0.821,1.372-0.807,2.334v0.043v6.112c0,0.241-0.074,0.436-0.222,0.583
		c-0.149,0.148-0.344,0.224-0.584,0.224c-0.241,0-0.438-0.075-0.594-0.224c-0.156-0.147-0.233-0.342-0.233-0.583v-6.112
		c0-1.005-0.258-1.8-0.774-2.388c-0.517-0.587-1.192-0.881-2.027-0.881c-0.877,0-1.599,0.29-2.165,0.87
		c-0.566,0.581-0.849,1.323-0.849,2.229v6.282c0,0.241-0.074,0.436-0.223,0.583c-0.148,0.148-0.343,0.224-0.583,0.224
		c-0.241,0-0.439-0.075-0.594-0.224c-0.156-0.147-0.233-0.342-0.233-0.583v-9.975c0-0.241,0.077-0.438,0.233-0.595
		c0.155-0.155,0.353-0.232,0.594-0.232c0.24,0,0.435,0.077,0.583,0.232c0.148,0.156,0.223,0.354,0.223,0.595v0.467
		c0.396-0.453,0.867-0.803,1.411-1.052c0.545-0.246,1.136-0.371,1.773-0.371c0.777,0,1.478,0.178,2.101,0.531
		c0.623,0.354,1.118,0.849,1.486,1.485c0.41-0.637,0.944-1.132,1.602-1.485s1.397-0.531,2.218-0.531
		C56.792,14.551,57.532,14.749,58.176,15.146z"/>
	<path fill="#545454" d="M66.834,12.132c-0.474,0.623-0.71,1.45-0.71,2.483v0.488h2.547c0.226,0,0.406,0.067,0.541,0.202
		c0.134,0.134,0.202,0.308,0.202,0.519c0,0.199-0.068,0.365-0.202,0.499c-0.135,0.135-0.314,0.202-0.541,0.202h-2.547v8.936
		c0,0.255-0.075,0.456-0.223,0.604c-0.148,0.148-0.357,0.224-0.626,0.224c-0.227,0-0.414-0.075-0.563-0.224
		c-0.149-0.147-0.223-0.349-0.223-0.604v-8.936H63.13c-0.226,0-0.406-0.067-0.541-0.202c-0.135-0.134-0.202-0.3-0.202-0.499
		c0-0.211,0.067-0.385,0.202-0.519c0.134-0.135,0.314-0.202,0.541-0.202h1.359V14.7c0-1.514,0.389-2.724,1.167-3.629
		c0.778-0.906,1.875-1.358,3.29-1.358c0.24,0,0.438,0.071,0.594,0.212c0.156,0.142,0.233,0.318,0.233,0.53
		c0,0.213-0.078,0.389-0.233,0.531c-0.156,0.142-0.354,0.211-0.594,0.211C68.012,11.197,67.308,11.51,66.834,12.132z"/>
	<path fill="#545454" d="M73.435,25.631c-0.898-0.51-1.602-1.214-2.111-2.112s-0.765-1.907-0.765-3.024
		c0-1.118,0.255-2.13,0.765-3.035s1.213-1.613,2.111-2.122c0.899-0.51,1.906-0.764,3.024-0.764c1.117,0,2.123,0.254,3.014,0.764
		c0.891,0.509,1.595,1.217,2.112,2.122c0.516,0.905,0.774,1.917,0.774,3.035c0,1.117-0.254,2.126-0.764,3.024
		c-0.51,0.898-1.213,1.603-2.112,2.112c-0.899,0.509-1.907,0.764-3.024,0.764C75.341,26.395,74.333,26.14,73.435,25.631z
		 M78.667,24.336c0.65-0.383,1.16-0.91,1.528-1.581c0.368-0.673,0.552-1.426,0.552-2.261c0-0.85-0.184-1.609-0.552-2.281
		c-0.368-0.672-0.877-1.199-1.528-1.581c-0.651-0.383-1.387-0.573-2.208-0.573c-0.807,0-1.539,0.19-2.197,0.573
		c-0.658,0.382-1.174,0.909-1.549,1.581c-0.375,0.672-0.563,1.432-0.563,2.281c0,0.835,0.188,1.588,0.563,2.261
		c0.375,0.671,0.891,1.198,1.549,1.581c0.658,0.381,1.39,0.572,2.197,0.572C77.279,24.908,78.015,24.717,78.667,24.336z"/>
	<path fill="#545454" d="M92.196,14.785c0.347,0.156,0.52,0.375,0.52,0.658c0,0.085-0.007,0.148-0.021,0.19
		c-0.056,0.198-0.145,0.333-0.265,0.403c-0.12,0.071-0.287,0.106-0.499,0.106c-0.127,0-0.347-0.015-0.658-0.043
		c-0.113-0.014-0.283-0.021-0.509-0.021c-1.061,0-1.928,0.284-2.6,0.849c-0.672,0.566-1.008,1.303-1.008,2.208v6.346
		c0,0.255-0.071,0.453-0.212,0.594c-0.142,0.142-0.339,0.213-0.594,0.213c-0.254,0-0.453-0.071-0.594-0.213
		c-0.142-0.141-0.212-0.339-0.212-0.594v-9.997c0-0.254,0.071-0.451,0.212-0.594c0.141-0.142,0.339-0.211,0.594-0.211
		c0.255,0,0.453,0.069,0.594,0.211c0.142,0.143,0.212,0.34,0.212,0.594v0.934c0.41-0.594,0.934-1.053,1.57-1.378
		c0.637-0.325,1.323-0.489,2.059-0.489C91.379,14.551,91.849,14.629,92.196,14.785z"/>
	<path fill="#545454" d="M100.929,24.887c0.141,0.155,0.212,0.354,0.212,0.595c0,0.226-0.085,0.418-0.255,0.573
		c-0.169,0.156-0.382,0.233-0.636,0.233h-0.446c-0.75,0-1.422-0.181-2.016-0.541c-0.595-0.361-1.058-0.849-1.39-1.465
		c-0.333-0.615-0.499-1.313-0.499-2.09v-5.667h-1.38c-0.227,0-0.407-0.067-0.541-0.202c-0.135-0.134-0.202-0.3-0.202-0.499
		c0-0.211,0.067-0.385,0.202-0.519c0.134-0.135,0.314-0.202,0.541-0.202h1.38v-3.29c0-0.241,0.074-0.438,0.223-0.594
		c0.148-0.156,0.342-0.233,0.583-0.233c0.24,0,0.439,0.077,0.594,0.233c0.156,0.155,0.234,0.353,0.234,0.594v3.29h2.398
		c0.227,0,0.407,0.067,0.541,0.202c0.134,0.134,0.202,0.308,0.202,0.519c0,0.199-0.068,0.365-0.202,0.499
		c-0.134,0.135-0.314,0.202-0.541,0.202h-2.398v5.667c0,0.721,0.212,1.313,0.637,1.772s0.969,0.688,1.634,0.688h0.573
		C100.603,24.653,100.787,24.731,100.929,24.887z"/>
	<path fill="#545454" d="M112.081,15.347c0.899,0.518,1.606,1.228,2.123,2.134c0.516,0.906,0.775,1.909,0.775,3.014v4.987
		c0,0.226-0.078,0.418-0.233,0.573c-0.156,0.156-0.354,0.233-0.594,0.233c-0.241,0-0.439-0.075-0.595-0.224
		c-0.155-0.147-0.233-0.342-0.233-0.583v-1.274c-0.496,0.68-1.125,1.214-1.889,1.604c-0.764,0.389-1.606,0.584-2.525,0.584
		c-1.076,0-2.048-0.259-2.918-0.776c-0.87-0.515-1.556-1.223-2.059-2.121s-0.753-1.899-0.753-3.003c0-1.104,0.258-2.107,0.774-3.014
		s1.224-1.616,2.123-2.134c0.898-0.516,1.899-0.773,3.003-0.773C110.182,14.573,111.183,14.831,112.081,15.347z M111.265,24.336
		c0.65-0.383,1.164-0.91,1.539-1.581c0.375-0.673,0.562-1.426,0.562-2.261s-0.188-1.589-0.562-2.261
		c-0.375-0.672-0.888-1.202-1.539-1.592c-0.651-0.389-1.38-0.583-2.186-0.583c-0.807,0-1.539,0.194-2.197,0.583
		c-0.658,0.39-1.174,0.92-1.549,1.592c-0.375,0.672-0.563,1.426-0.563,2.261s0.188,1.588,0.563,2.261
		c0.375,0.671,0.891,1.198,1.549,1.581c0.659,0.381,1.39,0.572,2.197,0.572C109.885,24.908,110.613,24.717,111.265,24.336z"/>
	<path fill="#545454" d="M126.449,15.347c0.898,0.518,1.605,1.228,2.123,2.134c0.516,0.906,0.774,1.909,0.774,3.014v4.987
		c0,0.226-0.078,0.418-0.233,0.573c-0.156,0.156-0.354,0.233-0.594,0.233c-0.241,0-0.439-0.075-0.596-0.224
		c-0.154-0.147-0.232-0.342-0.232-0.583v-1.274c-0.496,0.68-1.125,1.214-1.889,1.604c-0.765,0.389-1.606,0.584-2.525,0.584
		c-1.076,0-2.049-0.259-2.918-0.776c-0.871-0.515-1.557-1.223-2.06-2.121s-0.753-1.899-0.753-3.003c0-1.104,0.258-2.107,0.775-3.014
		c0.517-0.906,1.224-1.616,2.122-2.134c0.898-0.516,1.899-0.773,3.004-0.773C124.55,14.573,125.55,14.831,126.449,15.347z
		 M125.632,24.336c0.65-0.383,1.164-0.91,1.539-1.581c0.374-0.673,0.562-1.426,0.562-2.261s-0.188-1.589-0.562-2.261
		c-0.375-0.672-0.889-1.202-1.539-1.592c-0.651-0.389-1.38-0.583-2.186-0.583c-0.807,0-1.539,0.194-2.197,0.583
		c-0.658,0.39-1.175,0.92-1.549,1.592c-0.375,0.672-0.563,1.426-0.563,2.261s0.188,1.588,0.563,2.261
		c0.375,0.671,0.891,1.198,1.549,1.581c0.658,0.381,1.391,0.572,2.197,0.572C124.252,24.908,124.981,24.717,125.632,24.336z"/>
</g>
</svg>
