<?xml version="1.0" encoding="utf-8"?>
<!-- Generator: Adobe Illustrator 16.0.0, SVG Export Plug-In . SVG Version: 6.00 Build 0)  -->
<!DOCTYPE svg PUBLIC "-//W3C//DTD SVG 1.1//EN" "http://www.w3.org/Graphics/SVG/1.1/DTD/svg11.dtd">
<svg version="1.1" id="图层_1" xmlns="http://www.w3.org/2000/svg" xmlns:xlink="http://www.w3.org/1999/xlink" x="0px" y="0px"
	 width="258px" height="36px" viewBox="0 0 258 36" enable-background="new 0 0 258 36" xml:space="preserve">
<g>
	<path fill="#545454" d="M18.852,9.5c0.88,0,1.639,0.1,2.275,0.301c0.636,0.199,1.172,0.46,1.609,0.779
		c0.436,0.32,0.786,0.683,1.05,1.087s0.466,0.814,0.606,1.23c0.14,0.416,0.232,0.816,0.275,1.2c0.044,0.384,0.066,0.717,0.066,0.997
		c0,0.12-0.01,0.267-0.03,0.438c-0.021,0.173-0.09,0.339-0.21,0.498c-0.12,0.161-0.31,0.297-0.57,0.409s-0.63,0.168-1.11,0.168
		c-0.161,0-0.361-0.011-0.601-0.03c-0.24-0.02-0.472-0.071-0.696-0.156c-0.224-0.083-0.416-0.203-0.576-0.36
		c-0.16-0.155-0.24-0.373-0.24-0.653c0-0.433-0.026-0.82-0.078-1.165c-0.053-0.344-0.146-0.637-0.283-0.876
		c-0.136-0.241-0.324-0.425-0.564-0.553s-0.548-0.192-0.925-0.192c-0.392,0-0.694,0.083-0.907,0.246
		c-0.212,0.165-0.366,0.343-0.462,0.535c-0.112,0.231-0.176,0.492-0.192,0.78v7.611c0.016,0.353,0.08,0.659,0.192,0.925
		c0.096,0.23,0.25,0.443,0.462,0.637c0.212,0.191,0.515,0.287,0.907,0.287c0.376,0,0.685-0.078,0.925-0.234s0.428-0.365,0.564-0.63
		c0.136-0.264,0.229-0.568,0.283-0.912c0.051-0.345,0.078-0.705,0.078-1.081c0-0.119,0.02-0.243,0.06-0.372
		c0.041-0.127,0.132-0.246,0.276-0.354c0.144-0.109,0.356-0.199,0.636-0.27c0.28-0.074,0.661-0.109,1.141-0.109
		c0.479,0,0.85,0.055,1.11,0.162s0.451,0.232,0.57,0.372c0.121,0.141,0.19,0.276,0.21,0.408c0.02,0.133,0.03,0.218,0.03,0.259
		c0,0.88-0.148,1.667-0.444,2.358c-0.296,0.692-0.714,1.278-1.255,1.759c-0.54,0.48-1.184,0.848-1.933,1.099
		c-0.749,0.253-1.571,0.379-2.467,0.379c-0.144,0-0.378-0.012-0.702-0.037c-0.325-0.022-0.687-0.087-1.087-0.192
		c-0.4-0.103-0.813-0.26-1.236-0.467c-0.424-0.209-0.811-0.499-1.159-0.871c-0.349-0.372-0.634-0.836-0.858-1.393
		c-0.224-0.556-0.336-1.234-0.336-2.035v-6.699c0-0.655,0.08-1.235,0.24-1.741c0.16-0.503,0.37-0.941,0.63-1.313
		c0.26-0.373,0.559-0.685,0.895-0.937c0.336-0.252,0.68-0.462,1.032-0.631C16.871,9.776,17.803,9.556,18.852,9.5z"/>
	<path fill="#545454" d="M26.439,18.912c0-0.735,0.1-1.36,0.301-1.873c0.2-0.512,0.458-0.941,0.774-1.283
		c0.315-0.346,0.667-0.613,1.056-0.806c0.388-0.191,0.771-0.336,1.146-0.432c0.376-0.096,0.727-0.155,1.05-0.182
		c0.325-0.022,0.578-0.035,0.763-0.035c0.184,0,0.436,0.013,0.756,0.035c0.32,0.026,0.662,0.086,1.026,0.182s0.733,0.24,1.104,0.432
		c0.373,0.192,0.709,0.46,1.009,0.806c0.3,0.342,0.546,0.771,0.739,1.283c0.192,0.513,0.288,1.138,0.288,1.873v2.978
		c0,0.737-0.096,1.36-0.288,1.873c-0.192,0.513-0.438,0.941-0.739,1.283c-0.3,0.346-0.636,0.613-1.009,0.806
		c-0.371,0.192-0.74,0.336-1.104,0.433c-0.364,0.096-0.706,0.155-1.026,0.181c-0.32,0.022-0.572,0.035-0.756,0.035
		c-0.185,0-0.438-0.013-0.763-0.035c-0.324-0.025-0.674-0.085-1.05-0.181c-0.376-0.097-0.758-0.24-1.146-0.433
		c-0.389-0.192-0.741-0.46-1.056-0.806c-0.317-0.342-0.575-0.771-0.774-1.283c-0.201-0.513-0.301-1.136-0.301-1.873V18.912z
		 M30.137,22.73c0.008,0.232,0.063,0.437,0.168,0.612c0.088,0.16,0.226,0.302,0.414,0.425c0.188,0.125,0.458,0.188,0.811,0.188
		c0.336,0,0.594-0.063,0.774-0.188c0.181-0.123,0.314-0.265,0.402-0.425c0.096-0.176,0.152-0.38,0.168-0.612v-4.347
		c-0.016-0.239-0.072-0.461-0.168-0.66c-0.088-0.159-0.222-0.31-0.402-0.45c-0.18-0.139-0.438-0.21-0.774-0.21
		c-0.353,0-0.623,0.071-0.811,0.21c-0.188,0.141-0.326,0.291-0.414,0.45c-0.104,0.199-0.16,0.421-0.168,0.66V22.73z"/>
	<path fill="#545454" d="M48.986,23.666c0,0.345-0.021,0.681-0.061,1.009c-0.04,0.329-0.126,0.621-0.258,0.877
		c-0.133,0.256-0.32,0.463-0.565,0.618c-0.244,0.157-0.574,0.233-0.99,0.233c-0.408,0-0.732-0.076-0.972-0.233
		c-0.24-0.155-0.424-0.362-0.553-0.618c-0.127-0.256-0.209-0.548-0.246-0.877c-0.036-0.328-0.054-0.664-0.054-1.009v-4.682
		c0-0.224-0.01-0.443-0.03-0.661c-0.021-0.214-0.066-0.404-0.138-0.569c-0.072-0.165-0.179-0.296-0.318-0.396
		c-0.141-0.1-0.331-0.15-0.57-0.15c-0.329,0-0.593,0.108-0.793,0.325c-0.2,0.215-0.358,0.513-0.474,0.887
		c-0.116,0.378-0.194,0.819-0.234,1.328s-0.06,1.055-0.06,1.639v2.28c0,0.345-0.02,0.681-0.06,1.009
		c-0.041,0.329-0.127,0.621-0.259,0.877c-0.132,0.256-0.32,0.463-0.564,0.618c-0.244,0.157-0.574,0.233-0.99,0.233
		c-0.408,0-0.732-0.076-0.972-0.233c-0.24-0.155-0.424-0.362-0.553-0.618c-0.128-0.256-0.209-0.548-0.246-0.877
		c-0.035-0.328-0.054-0.664-0.054-1.009v-6.554c0-0.345,0.012-0.679,0.036-1.004c0.023-0.323,0.096-0.611,0.216-0.864
		c0.12-0.251,0.302-0.455,0.545-0.611c0.245-0.156,0.587-0.234,1.027-0.234c0.44,0,0.785,0.073,1.033,0.222s0.434,0.326,0.558,0.534
		s0.202,0.428,0.234,0.66c0.032,0.232,0.048,0.433,0.048,0.602c0.064-0.232,0.164-0.469,0.3-0.708
		c0.136-0.241,0.31-0.458,0.522-0.649c0.212-0.193,0.466-0.351,0.763-0.475c0.296-0.123,0.64-0.186,1.032-0.186
		c0.44,0,0.88,0.071,1.321,0.216c0.44,0.145,0.836,0.384,1.188,0.72c0.353,0.337,0.638,0.777,0.859,1.321
		c0.22,0.545,0.331,1.217,0.331,2.018V23.666z"/>
	<path fill="#545454" d="M55.037,22.25c0,0.128,0.012,0.29,0.036,0.485c0.024,0.197,0.08,0.39,0.168,0.577
		c0.088,0.188,0.218,0.351,0.391,0.485c0.171,0.137,0.406,0.205,0.702,0.205c0.352,0,0.628-0.04,0.828-0.12
		c0.2-0.081,0.348-0.189,0.444-0.331c0.096-0.139,0.156-0.303,0.18-0.491c0.024-0.189,0.036-0.386,0.036-0.595
		c0-0.104,0.019-0.222,0.054-0.354c0.037-0.132,0.123-0.256,0.259-0.372c0.136-0.117,0.337-0.212,0.606-0.288
		c0.268-0.076,0.634-0.114,1.099-0.114c0.424,0,0.752,0.048,0.985,0.144c0.232,0.096,0.402,0.21,0.51,0.342
		c0.108,0.133,0.17,0.27,0.187,0.408c0.016,0.141,0.023,0.251,0.023,0.331c0,0.513-0.078,0.963-0.234,1.35
		c-0.155,0.39-0.366,0.726-0.63,1.009c-0.264,0.285-0.568,0.522-0.913,0.715c-0.344,0.191-0.71,0.345-1.099,0.456
		c-0.388,0.112-0.782,0.192-1.182,0.24c-0.401,0.048-0.785,0.071-1.153,0.071c-0.633,0-1.245-0.083-1.837-0.252
		c-0.592-0.167-1.118-0.433-1.578-0.792c-0.46-0.36-0.831-0.822-1.111-1.386c-0.28-0.565-0.42-1.243-0.42-2.036v-2.809
		c0-0.761,0.09-1.405,0.27-1.933c0.181-0.528,0.415-0.97,0.703-1.322c0.289-0.352,0.612-0.625,0.973-0.822
		c0.36-0.194,0.724-0.341,1.092-0.438c0.368-0.096,0.718-0.155,1.05-0.181c0.332-0.022,0.619-0.035,0.859-0.035
		c0.712,0,1.334,0.061,1.867,0.18c0.532,0.121,0.99,0.281,1.374,0.48c0.385,0.201,0.702,0.431,0.955,0.689
		c0.251,0.261,0.45,0.536,0.594,0.824c0.144,0.287,0.246,0.576,0.306,0.864c0.061,0.287,0.09,0.555,0.09,0.803
		c0,0.129-0.008,0.278-0.024,0.452c-0.016,0.172-0.078,0.336-0.187,0.49c-0.107,0.157-0.277,0.291-0.51,0.402
		c-0.232,0.112-0.56,0.169-0.984,0.169c-0.152,0-0.342-0.006-0.571-0.018c-0.227-0.012-0.45-0.055-0.666-0.127
		c-0.216-0.071-0.4-0.184-0.552-0.336c-0.152-0.152-0.229-0.367-0.229-0.647c0-0.192-0.01-0.379-0.029-0.559
		c-0.021-0.181-0.079-0.338-0.174-0.475c-0.096-0.137-0.243-0.245-0.438-0.331c-0.196-0.082-0.47-0.125-0.822-0.125
		c-0.296,0-0.531,0.048-0.702,0.145c-0.173,0.095-0.302,0.216-0.391,0.359c-0.088,0.145-0.144,0.296-0.168,0.457
		c-0.024,0.159-0.036,0.304-0.036,0.432V22.25z"/>
	<path fill="#545454" d="M73.621,19.561c0,0.129-0.008,0.279-0.024,0.45c-0.016,0.172-0.078,0.336-0.186,0.492
		c-0.107,0.156-0.278,0.29-0.51,0.402c-0.232,0.112-0.561,0.168-0.985,0.168h-4.778v1.153c0,0.191,0.024,0.392,0.072,0.6
		c0.048,0.208,0.13,0.4,0.246,0.576c0.116,0.176,0.27,0.32,0.462,0.432c0.193,0.112,0.429,0.169,0.709,0.169
		c0.32,0,0.566-0.038,0.738-0.114c0.171-0.076,0.308-0.171,0.408-0.282c0.1-0.112,0.19-0.231,0.27-0.359
		c0.081-0.129,0.187-0.249,0.318-0.361c0.133-0.111,0.316-0.206,0.552-0.281c0.237-0.075,0.563-0.115,0.979-0.115
		c0.2,0,0.394,0.017,0.582,0.049s0.354,0.092,0.499,0.181c0.144,0.087,0.26,0.209,0.348,0.365s0.132,0.358,0.132,0.606
		c0,0.521-0.164,0.955-0.492,1.303c-0.329,0.349-0.74,0.626-1.237,0.834c-0.497,0.209-1.035,0.356-1.615,0.445
		c-0.581,0.086-1.123,0.131-1.627,0.131c-0.665-0.007-1.296-0.092-1.896-0.252s-1.131-0.416-1.591-0.769
		c-0.46-0.353-0.827-0.812-1.099-1.38c-0.272-0.568-0.408-1.265-0.408-2.089v-2.809c0-0.761,0.09-1.406,0.27-1.935
		c0.181-0.528,0.415-0.967,0.703-1.319c0.288-0.353,0.612-0.626,0.972-0.823c0.36-0.195,0.724-0.342,1.093-0.438
		c0.368-0.097,0.718-0.157,1.05-0.18c0.332-0.025,0.619-0.036,0.859-0.036c0.808,0,1.499,0.071,2.071,0.216
		c0.572,0.144,1.051,0.333,1.435,0.563c0.384,0.233,0.688,0.501,0.912,0.805s0.392,0.618,0.504,0.942
		c0.112,0.324,0.184,0.652,0.216,0.984c0.031,0.332,0.047,0.643,0.047,0.931V19.561z M67.138,19.272h3.001
		c0-0.376-0.01-0.71-0.03-1.003c-0.021-0.291-0.08-0.538-0.18-0.737c-0.1-0.201-0.256-0.352-0.468-0.457
		c-0.212-0.104-0.514-0.155-0.906-0.155c-0.328,0-0.587,0.052-0.774,0.155c-0.189,0.105-0.331,0.233-0.427,0.391
		c-0.096,0.155-0.156,0.322-0.18,0.499c-0.024,0.177-0.036,0.331-0.036,0.468V19.272z"/>
	<path fill="#545454" d="M83.875,16.198c0,0.625-0.155,1.082-0.462,1.369C83.104,17.855,82.666,18,82.097,18
		c-0.08,0-0.194,0.005-0.342,0.019c-0.148,0.012-0.307,0.045-0.475,0.096c-0.168,0.052-0.338,0.129-0.51,0.228
		c-0.172,0.101-0.33,0.237-0.474,0.408c-0.145,0.173-0.261,0.391-0.348,0.655c-0.088,0.264-0.132,0.58-0.132,0.948v3.434
		c0,0.327-0.018,0.648-0.054,0.96c-0.037,0.312-0.119,0.59-0.246,0.835c-0.128,0.244-0.313,0.44-0.553,0.595
		c-0.24,0.151-0.564,0.227-0.972,0.227c-0.4,0-0.716-0.075-0.948-0.227c-0.232-0.154-0.411-0.351-0.535-0.595
		c-0.124-0.245-0.203-0.523-0.24-0.835c-0.035-0.312-0.053-0.633-0.053-0.96v-6.724c0-0.337,0.018-0.662,0.053-0.979
		c0.037-0.315,0.116-0.598,0.24-0.846s0.303-0.446,0.535-0.595c0.232-0.147,0.548-0.222,0.948-0.222c0.408,0,0.722,0.09,0.942,0.27
		c0.22,0.181,0.382,0.413,0.487,0.696c0.104,0.284,0.164,0.601,0.18,0.949c0.016,0.348,0.024,0.686,0.024,1.014h0.192
		c0.112-0.448,0.26-0.854,0.444-1.22c0.184-0.362,0.389-0.671,0.613-0.923s0.464-0.446,0.72-0.583
		c0.256-0.135,0.512-0.203,0.768-0.203c0.313,0,0.566,0.034,0.763,0.102c0.196,0.068,0.35,0.175,0.462,0.318
		c0.112,0.145,0.188,0.328,0.228,0.552C83.854,15.619,83.875,15.888,83.875,16.198z"/>
	<path fill="#545454" d="M87.236,14.398v-2.113c0-0.337,0.018-0.664,0.053-0.983c0.037-0.321,0.118-0.606,0.247-0.859
		c0.128-0.251,0.312-0.457,0.552-0.612c0.24-0.157,0.564-0.233,0.973-0.233c0.4,0,0.72,0.076,0.96,0.233
		c0.24,0.155,0.422,0.361,0.547,0.612c0.124,0.253,0.203,0.538,0.24,0.859c0.035,0.319,0.053,0.646,0.053,0.983v2.113h0.985
		c0.208,0,0.416,0.011,0.624,0.029c0.208,0.021,0.394,0.079,0.558,0.175c0.164,0.097,0.296,0.24,0.396,0.433
		c0.1,0.192,0.15,0.46,0.15,0.804c0,0.329-0.05,0.589-0.15,0.781c-0.101,0.191-0.232,0.336-0.396,0.432
		c-0.164,0.097-0.35,0.158-0.558,0.186c-0.208,0.029-0.416,0.043-0.624,0.043h-0.985v4.201c0,0.16,0.006,0.331,0.018,0.51
		c0.012,0.181,0.054,0.347,0.126,0.498c0.072,0.153,0.18,0.279,0.324,0.379c0.144,0.1,0.348,0.15,0.612,0.15
		c0.288,0,0.534,0.023,0.739,0.065c0.203,0.044,0.371,0.122,0.503,0.233c0.132,0.112,0.23,0.27,0.294,0.47
		c0.063,0.2,0.096,0.456,0.096,0.769c0,0.319-0.074,0.597-0.222,0.827c-0.148,0.233-0.346,0.425-0.594,0.576
		c-0.248,0.153-0.536,0.265-0.864,0.337s-0.672,0.107-1.033,0.107c-0.568,0-1.055-0.06-1.458-0.18
		c-0.404-0.12-0.741-0.289-1.009-0.51s-0.48-0.484-0.636-0.793c-0.156-0.308-0.272-0.654-0.349-1.038
		c-0.076-0.385-0.124-0.799-0.144-1.243c-0.02-0.443-0.029-0.909-0.029-1.398V17.28h-0.672c-0.209,0-0.414-0.014-0.619-0.043
		c-0.203-0.027-0.386-0.089-0.546-0.186c-0.16-0.096-0.291-0.24-0.391-0.432c-0.1-0.192-0.149-0.452-0.149-0.781
		c0-0.344,0.049-0.611,0.149-0.804s0.23-0.336,0.391-0.433c0.16-0.096,0.343-0.154,0.546-0.175c0.205-0.019,0.41-0.029,0.619-0.029
		H87.236z"/>
	<path fill="#545454" d="M105.412,14.351c0-0.769,0.112-1.422,0.336-1.964c0.224-0.54,0.51-0.99,0.858-1.35
		c0.348-0.36,0.732-0.643,1.153-0.846c0.42-0.206,0.828-0.358,1.225-0.464c0.396-0.104,0.754-0.167,1.074-0.192
		c0.32-0.022,0.556-0.035,0.708-0.035h0.409c0.152,0,0.388,0.013,0.708,0.035c0.32,0.025,0.676,0.089,1.069,0.192
		c0.392,0.105,0.798,0.258,1.218,0.464c0.42,0.203,0.8,0.485,1.141,0.846c0.34,0.359,0.62,0.81,0.84,1.35
		c0.22,0.542,0.331,1.195,0.331,1.964v7.18c0,0.791-0.11,1.464-0.331,2.017c-0.221,0.552-0.5,1.013-0.84,1.381
		c-0.34,0.368-0.721,0.659-1.141,0.87c-0.42,0.211-0.826,0.369-1.218,0.475c-0.393,0.104-0.749,0.167-1.069,0.192
		c-0.32,0.022-0.556,0.035-0.708,0.035h-0.409c-0.152,0-0.388-0.013-0.708-0.035c-0.32-0.025-0.679-0.089-1.074-0.192
		c-0.396-0.105-0.805-0.264-1.225-0.475c-0.421-0.211-0.805-0.502-1.153-0.87c-0.349-0.368-0.634-0.829-0.858-1.381
		c-0.224-0.553-0.336-1.226-0.336-2.017V14.351z M109.398,21.985c0.016,0.297,0.084,0.558,0.205,0.781
		c0.104,0.199,0.262,0.38,0.474,0.54c0.212,0.159,0.515,0.24,0.907,0.24c0.384,0,0.68-0.081,0.888-0.24
		c0.208-0.16,0.364-0.341,0.469-0.54c0.112-0.224,0.18-0.484,0.204-0.781v-7.827c-0.023-0.288-0.092-0.547-0.204-0.78
		c-0.104-0.192-0.261-0.37-0.469-0.535c-0.208-0.162-0.504-0.245-0.888-0.245c-0.392,0-0.694,0.083-0.907,0.245
		c-0.212,0.165-0.37,0.343-0.474,0.535c-0.12,0.233-0.188,0.492-0.205,0.78V21.985z"/>
	<path fill="#545454" d="M129.303,23.666c0,0.345-0.02,0.681-0.06,1.009c-0.04,0.329-0.127,0.621-0.258,0.877
		c-0.133,0.256-0.32,0.463-0.564,0.618c-0.244,0.157-0.574,0.233-0.99,0.233c-0.408,0-0.732-0.076-0.973-0.233
		c-0.24-0.155-0.424-0.362-0.553-0.618c-0.127-0.256-0.209-0.548-0.246-0.877c-0.035-0.328-0.054-0.664-0.054-1.009v-4.682
		c0-0.224-0.011-0.443-0.03-0.661c-0.02-0.214-0.066-0.404-0.138-0.569c-0.072-0.165-0.179-0.296-0.318-0.396
		c-0.141-0.1-0.33-0.15-0.57-0.15c-0.328,0-0.593,0.108-0.792,0.325c-0.201,0.215-0.359,0.513-0.475,0.887
		c-0.116,0.378-0.193,0.819-0.234,1.328c-0.039,0.509-0.06,1.055-0.06,1.639v2.28c0,0.345-0.021,0.681-0.061,1.009
		c-0.04,0.329-0.126,0.621-0.258,0.877s-0.32,0.463-0.564,0.618c-0.244,0.157-0.574,0.233-0.99,0.233
		c-0.408,0-0.732-0.076-0.972-0.233c-0.241-0.155-0.425-0.362-0.553-0.618c-0.128-0.256-0.209-0.548-0.246-0.877
		c-0.036-0.328-0.054-0.664-0.054-1.009v-6.554c0-0.345,0.012-0.679,0.036-1.004c0.023-0.323,0.096-0.611,0.216-0.864
		c0.12-0.251,0.301-0.455,0.546-0.611c0.244-0.156,0.586-0.234,1.026-0.234s0.784,0.073,1.032,0.222s0.435,0.326,0.559,0.534
		s0.202,0.428,0.234,0.66c0.031,0.232,0.048,0.433,0.048,0.602c0.063-0.232,0.163-0.469,0.3-0.708
		c0.137-0.241,0.311-0.458,0.522-0.649c0.212-0.193,0.466-0.351,0.763-0.475c0.296-0.123,0.641-0.186,1.032-0.186
		c0.44,0,0.88,0.071,1.32,0.216s0.837,0.384,1.188,0.72c0.353,0.337,0.639,0.777,0.859,1.321c0.219,0.545,0.329,1.217,0.329,2.018
		V23.666z"/>
	<path fill="#545454" d="M141.934,19.561c0,0.129-0.008,0.279-0.023,0.45c-0.016,0.172-0.078,0.336-0.186,0.492
		c-0.109,0.156-0.279,0.29-0.512,0.402s-0.559,0.168-0.984,0.168h-4.777v1.153c0,0.191,0.023,0.392,0.072,0.6
		c0.047,0.208,0.129,0.4,0.244,0.576c0.117,0.176,0.271,0.32,0.463,0.432c0.193,0.112,0.43,0.169,0.709,0.169
		c0.32,0,0.566-0.038,0.738-0.114s0.309-0.171,0.408-0.282c0.1-0.112,0.189-0.231,0.27-0.359c0.08-0.129,0.188-0.249,0.318-0.361
		c0.133-0.111,0.316-0.206,0.553-0.281s0.563-0.115,0.979-0.115c0.199,0,0.395,0.017,0.582,0.049s0.355,0.092,0.498,0.181
		c0.145,0.087,0.26,0.209,0.348,0.365s0.133,0.358,0.133,0.606c0,0.521-0.164,0.955-0.492,1.303
		c-0.328,0.349-0.74,0.626-1.236,0.834c-0.496,0.209-1.035,0.356-1.615,0.445c-0.58,0.086-1.123,0.131-1.627,0.131
		c-0.664-0.007-1.297-0.092-1.896-0.252s-1.131-0.416-1.59-0.769c-0.461-0.353-0.828-0.812-1.1-1.38s-0.408-1.265-0.408-2.089
		v-2.809c0-0.761,0.09-1.406,0.27-1.935c0.182-0.528,0.416-0.967,0.703-1.319c0.289-0.353,0.611-0.626,0.973-0.823
		c0.359-0.195,0.725-0.342,1.092-0.438c0.369-0.097,0.719-0.157,1.051-0.18c0.332-0.025,0.619-0.036,0.859-0.036
		c0.809,0,1.498,0.071,2.07,0.216c0.572,0.144,1.051,0.333,1.434,0.563c0.385,0.233,0.689,0.501,0.914,0.805
		c0.223,0.304,0.393,0.618,0.504,0.942s0.184,0.652,0.215,0.984c0.033,0.332,0.049,0.643,0.049,0.931V19.561z M135.451,19.272h3.002
		c0-0.376-0.012-0.71-0.031-1.003c-0.02-0.291-0.08-0.538-0.18-0.737c-0.1-0.201-0.256-0.352-0.469-0.457
		c-0.213-0.104-0.514-0.155-0.906-0.155c-0.328,0-0.586,0.052-0.773,0.155c-0.189,0.105-0.33,0.233-0.428,0.391
		c-0.096,0.155-0.156,0.322-0.18,0.499s-0.035,0.331-0.035,0.468V19.272z"/>
</g>
</svg>
