<?xml version="1.0" encoding="utf-8"?>
<!-- Generator: Adobe Illustrator 16.0.0, SVG Export Plug-In . SVG Version: 6.00 Build 0)  -->
<!DOCTYPE svg PUBLIC "-//W3C//DTD SVG 1.1//EN" "http://www.w3.org/Graphics/SVG/1.1/DTD/svg11.dtd">
<svg version="1.1" id="图层_1" xmlns="http://www.w3.org/2000/svg" xmlns:xlink="http://www.w3.org/1999/xlink" x="0px" y="0px"
	 width="258px" height="36px" viewBox="0 0 258 36" enable-background="new 0 0 258 36" xml:space="preserve">
<g>
	<path fill="#545454" d="M24.364,20.722c0.126-0.179,0.305-0.493,0.539-0.943c0.576-1.023,0.921-1.536,1.038-1.536
		s0.176,0.072,0.176,0.217c0,0.879-0.458,1.994-1.375,3.341c-1.653,2.425-3.854,3.638-6.602,3.638c-0.773,0-1.482-0.18-2.129-0.539
		s-1.159-0.817-1.536-1.375c-0.772-1.131-1.159-2.317-1.159-3.556c0-3.127,0.813-5.646,2.438-7.56
		c1.626-1.913,3.553-2.869,5.78-2.869c0.845,0,1.537,0.247,2.075,0.74c0.539,0.495,0.808,1.117,0.808,1.873
		c0,0.755-0.188,1.455-0.565,2.103c-0.377,0.646-0.831,0.97-1.361,0.97c-0.531,0-0.795-0.145-0.795-0.431
		c0-0.324,0.175-0.692,0.526-1.105c0.35-0.413,0.525-0.826,0.525-1.24c0-1.275-0.678-1.913-2.035-1.913s-2.582,0.907-3.678,2.722
		s-1.644,3.684-1.644,5.605c0,1.33,0.377,2.511,1.132,3.544c0.754,1.032,1.814,1.549,3.179,1.549
		C21.319,23.955,22.873,22.877,24.364,20.722z"/>
	<path fill="#545454" d="M32.853,19.32c0.718-0.233,1.217-0.436,1.495-0.605c0.278-0.171,0.489-0.301,0.633-0.392l0.323-0.188
		c0.09-0.054,0.162-0.081,0.215-0.081c0.144,0,0.216,0.081,0.216,0.242c0,0.163-0.279,0.444-0.835,0.85
		c-0.558,0.403-1.25,0.769-2.076,1.091c-0.125,1.509-0.602,2.731-1.428,3.665c-0.827,0.935-2.003,1.401-3.53,1.401
		c-1.114,0-1.967-0.444-2.56-1.334c-0.592-0.89-0.889-1.931-0.889-3.125c0-1.195,0.354-2.322,1.064-3.383
		c0.709-1.06,1.621-1.59,2.735-1.59c0.502-0.359,1.101-0.539,1.792-0.539c0.692,0,1.334,0.368,1.927,1.105
		C32.529,17.174,32.835,18.135,32.853,19.32z M31.101,20.694l-0.97,0.054c-0.827,0-1.528-0.247-2.102-0.74
		c-0.576-0.494-0.862-1.038-0.862-1.631c0-0.592,0.098-1.104,0.296-1.536c-0.772,0.611-1.158,1.814-1.158,3.612
		c0,0.862,0.179,1.684,0.539,2.465c0.359,0.781,0.924,1.172,1.697,1.172c0.772,0,1.375-0.328,1.805-0.982
		C30.777,22.451,31.029,21.646,31.101,20.694z M29.43,16.222c-0.287,0-0.512,0.13-0.673,0.39c-0.162,0.261-0.243,0.544-0.243,0.85
		c0,0.664,0.229,1.203,0.687,1.616c0.458,0.414,0.993,0.621,1.604,0.621h0.323c-0.036-0.882-0.185-1.681-0.445-2.398
		C30.422,16.581,30.005,16.222,29.43,16.222z"/>
	<path fill="#545454" d="M42.662,19.32c0.718-0.233,1.216-0.436,1.495-0.605c0.279-0.171,0.489-0.301,0.634-0.392l0.323-0.188
		c0.089-0.054,0.162-0.081,0.215-0.081c0.143,0,0.216,0.081,0.216,0.242c0,0.163-0.279,0.444-0.835,0.85
		c-0.557,0.403-1.249,0.769-2.076,1.091c-0.125,1.509-0.601,2.731-1.427,3.665c-0.827,0.935-2.003,1.401-3.53,1.401
		c-1.114,0-1.967-0.444-2.56-1.334s-0.889-1.931-0.889-3.125c0-1.195,0.354-2.322,1.064-3.383c0.709-1.06,1.621-1.59,2.735-1.59
		c0.502-0.359,1.1-0.539,1.792-0.539s1.334,0.368,1.927,1.105C42.338,17.174,42.644,18.135,42.662,19.32z M40.91,20.694l-0.97,0.054
		c-0.826,0-1.527-0.247-2.102-0.74c-0.575-0.494-0.862-1.038-0.862-1.631c0-0.592,0.098-1.104,0.296-1.536
		c-0.772,0.611-1.158,1.814-1.158,3.612c0,0.862,0.179,1.684,0.539,2.465s0.925,1.172,1.697,1.172c0.773,0,1.375-0.328,1.806-0.982
		C40.587,22.451,40.838,21.646,40.91,20.694z M39.239,16.222c-0.287,0-0.512,0.13-0.673,0.39c-0.162,0.261-0.243,0.544-0.243,0.85
		c0,0.664,0.229,1.203,0.688,1.616c0.458,0.414,0.992,0.621,1.604,0.621h0.323c-0.036-0.882-0.184-1.681-0.444-2.398
		C40.231,16.581,39.814,16.222,39.239,16.222z"/>
	<path fill="#545454" d="M52.712,26.111l0.728-0.081c0.144,0,0.215,0.071,0.215,0.215c0,0.252-0.171,0.44-0.512,0.566
		C52.802,26.937,52.416,27,51.984,27c-0.808,0-1.486-0.323-2.034-0.97c-0.549-0.646-1.307-1.841-2.277-3.584
		c-0.234-0.378-0.351-0.664-0.351-0.862c0-0.269,0.377-0.584,1.132-0.943c1.222-0.629,1.833-1.418,1.833-2.371
		c0-0.27-0.095-0.499-0.283-0.688c-0.188-0.189-0.436-0.282-0.74-0.282c-0.432,0-0.944,0.507-1.537,1.522
		c-0.593,1.016-0.993,1.968-1.2,2.855c-0.207,0.89-0.309,1.846-0.309,2.869c0,0.504-0.144,0.756-0.431,0.756
		c-0.414,0-0.809-0.059-1.186-0.176c-0.377-0.115-0.566-0.269-0.566-0.458c0-0.188,0.071-1.041,0.215-2.56s0.225-2.609,0.243-3.273
		c0.071-3.665,0.287-6.467,0.647-8.409c0.054-0.161,0.301-0.439,0.741-0.834C46.321,9.198,46.676,9,46.946,9s0.4,0.336,0.39,1.01
		c-0.009,0.675-0.157,2.116-0.444,4.324c-0.288,2.211-0.467,4.232-0.539,6.064c0.323-1.149,0.839-2.237,1.549-3.261
		c0.709-1.023,1.424-1.536,2.143-1.536c1.221,0,1.832,0.593,1.832,1.778c0,0.791-0.234,1.505-0.7,2.143
		c-0.468,0.638-1.096,1.154-1.886,1.549c-0.162,0.073-0.244,0.152-0.244,0.244c0,0.09,0.027,0.179,0.082,0.269
		c1.132,1.993,2.092,3.395,2.883,4.204C52.227,26.004,52.461,26.111,52.712,26.111z"/>
	<path fill="#545454" d="M55.057,25.303c-0.701,0-1.231-0.144-1.59-0.432c-0.125-0.125-0.188-0.574-0.188-1.348
		c0-0.771,0.058-2.061,0.175-3.867c0.116-1.804,0.219-2.779,0.31-2.923c0.089-0.143,0.368-0.413,0.835-0.809
		s0.831-0.593,1.091-0.593s0.391,0.343,0.391,1.023c0,0.181-0.049,0.531-0.148,1.052c-0.099,0.521-0.211,0.898-0.337,1.132
		c-0.233,0.592-0.35,2.146-0.35,4.661c0,0.484,0.054,0.729,0.162,0.729c0.305-0.018,0.728-0.399,1.266-1.146
		c0.539-0.745,1.073-1.702,1.603-2.869c0.53-1.169,0.853-1.753,0.97-1.753c0.117,0,0.176,0.071,0.176,0.216
		c0,0.504-0.261,1.304-0.782,2.398C57.221,23.794,56.027,25.303,55.057,25.303z M54.275,11.991c0-0.324,0.17-0.603,0.512-0.836
		c0.341-0.233,0.647-0.351,0.917-0.351c0.485,0,0.727,0.279,0.727,0.836c0,0.558-0.144,1.037-0.431,1.44
		c-0.287,0.405-0.691,0.607-1.213,0.607C54.445,13.688,54.275,13.123,54.275,11.991z"/>
	<path fill="#545454" d="M61.281,25.303c-1.006,0-1.805-0.382-2.398-1.146c-0.592-0.764-0.889-1.629-0.889-2.602
		c0-1.957,0.413-3.438,1.24-4.445c0.826-1.005,1.896-1.509,3.207-1.509c0.611,0,1.115,0.167,1.509,0.499s0.593,0.786,0.593,1.36
		c0,1.078-0.453,1.98-1.361,2.708c-0.907,0.729-2.017,1.108-3.328,1.146c0.072,0.699,0.31,1.307,0.714,1.817
		c0.404,0.513,0.876,0.769,1.415,0.769s1.024-0.125,1.456-0.378c0.431-0.25,0.826-0.609,1.186-1.077
		c0.754-0.987,1.4-2.11,1.94-3.369c0.144-0.322,0.255-0.556,0.337-0.7c0.08-0.145,0.17-0.216,0.27-0.216
		c0.098,0,0.148,0.071,0.148,0.216c0,0.899-0.549,2.246-1.645,4.042C64.488,24.343,63.024,25.303,61.281,25.303z M59.854,20.668
		c1.06-0.179,1.837-0.521,2.331-1.023c0.494-0.504,0.74-1.159,0.74-1.968c0-0.808-0.261-1.213-0.781-1.213
		c-0.629,0-1.159,0.436-1.59,1.307C60.123,18.644,59.889,19.607,59.854,20.668z"/>
</g>
</svg>
