<?xml version="1.0" encoding="utf-8"?>
<!-- Generator: Adobe Illustrator 16.0.0, SVG Export Plug-In . SVG Version: 6.00 Build 0)  -->
<!DOCTYPE svg PUBLIC "-//W3C//DTD SVG 1.1//EN" "http://www.w3.org/Graphics/SVG/1.1/DTD/svg11.dtd">
<svg version="1.1" id="图层_1" xmlns="http://www.w3.org/2000/svg" xmlns:xlink="http://www.w3.org/1999/xlink" x="0px" y="0px"
	 width="258px" height="36px" viewBox="0 0 258 36" enable-background="new 0 0 258 36" xml:space="preserve">
<g>
	<path fill="#545454" d="M15.267,18c0,1.077,0.086,2.029,0.259,2.855c0.173,0.827,0.417,1.521,0.735,2.082
		c0.317,0.561,0.699,0.985,1.145,1.273c0.445,0.287,0.94,0.432,1.486,0.432c0.33,0,0.621-0.041,0.875-0.124
		c0.254-0.082,0.484-0.185,0.69-0.308s0.398-0.262,0.577-0.415c0.18-0.153,0.355-0.302,0.527-0.444v2.256
		c-0.418,0.104-0.839,0.189-1.262,0.253s-0.893,0.095-1.408,0.095c-0.801,0-1.541-0.16-2.222-0.482
		c-0.681-0.321-1.271-0.81-1.768-1.464c-0.497-0.655-0.886-1.481-1.167-2.479c-0.279-0.999-0.42-2.175-0.42-3.529
		s0.147-2.53,0.442-3.529c0.296-0.998,0.696-1.824,1.201-2.479c0.505-0.654,1.096-1.143,1.772-1.464
		c0.678-0.322,1.396-0.482,2.16-0.482c0.516,0,0.985,0.031,1.408,0.095s0.844,0.148,1.262,0.253v2.256
		c-0.172-0.143-0.348-0.291-0.527-0.444c-0.179-0.153-0.371-0.292-0.577-0.415s-0.437-0.226-0.69-0.308
		c-0.254-0.083-0.545-0.124-0.875-0.124c-0.546,0-1.041,0.145-1.486,0.432c-0.445,0.288-0.827,0.713-1.145,1.273
		c-0.318,0.562-0.563,1.255-0.735,2.082C15.353,15.971,15.267,16.923,15.267,18z"/>
	<path fill="#545454" d="M29.361,12.064c-0.987,0-1.848,0.138-2.58,0.415c-0.733,0.277-1.271,0.695-1.616,1.257
		c-0.045,1.45-0.067,2.913-0.067,4.388c0,0.694,0.004,1.357,0.012,1.985c0.007,0.629,0.018,1.246,0.033,1.852
		c0.016,0.606,0.037,1.213,0.067,1.823c0.03,0.609,0.063,1.248,0.101,1.913h-2.075c0.037-0.665,0.069-1.304,0.095-1.913
		c0.026-0.61,0.049-1.217,0.068-1.823c0.018-0.605,0.031-1.223,0.039-1.852c0.007-0.628,0.011-1.291,0.011-1.985
		c0-0.696-0.004-1.371-0.011-2.025c-0.008-0.655-0.021-1.302-0.039-1.942c-0.02-0.639-0.042-1.279-0.068-1.918
		c-0.025-0.64-0.058-1.293-0.095-1.958h2.087c-0.022,0.351-0.043,0.665-0.062,0.942s-0.036,0.587-0.051,0.932
		c0.239-0.277,0.532-0.546,0.881-0.808c0.348-0.263,0.712-0.493,1.095-0.691c0.381-0.197,0.762-0.356,1.145-0.476
		C28.71,10.06,29.054,10,29.361,10V12.064z"/>
	<path fill="#545454" d="M32.312,17.663c0.008,0.547,0.016,1.067,0.023,1.565c0.007,0.498,0.018,0.965,0.033,1.403
		c0.015,0.437,0.033,0.835,0.056,1.194c0.022,0.358,0.052,0.67,0.09,0.932c0.097,0.65,0.284,1.12,0.562,1.408
		c0.276,0.287,0.632,0.432,1.065,0.432c0.247,0,0.501-0.063,0.763-0.19c0.263-0.128,0.515-0.295,0.758-0.505
		s0.475-0.449,0.695-0.719c0.221-0.269,0.418-0.546,0.59-0.83c0.045-1.48,0.066-2.98,0.066-4.499c0-0.696-0.004-1.358-0.011-1.986
		c-0.007-0.629-0.021-1.245-0.039-1.853c-0.019-0.604-0.041-1.212-0.067-1.822c-0.025-0.609-0.058-1.248-0.096-1.913h2.076
		c-0.037,0.665-0.069,1.304-0.096,1.913c-0.025,0.61-0.049,1.218-0.067,1.822c-0.019,0.607-0.031,1.224-0.039,1.853
		c-0.007,0.628-0.011,1.29-0.011,1.986c0,0.694,0.004,1.37,0.011,2.024c0.008,0.655,0.021,1.302,0.039,1.942
		c0.019,0.639,0.042,1.279,0.067,1.918c0.026,0.64,0.059,1.293,0.096,1.958H36.79c0.015-0.291,0.03-0.581,0.045-0.869
		s0.03-0.574,0.045-0.858c-0.218,0.27-0.447,0.525-0.69,0.769s-0.506,0.456-0.791,0.64c-0.284,0.183-0.59,0.329-0.914,0.438
		c-0.326,0.108-0.68,0.163-1.061,0.163c-0.891,0-1.58-0.354-2.07-1.061c-0.49-0.707-0.734-1.76-0.734-3.158
		c0-0.345,0.002-0.714,0.006-1.105c0.003-0.394,0.009-0.779,0.016-1.156c0.008-0.378,0.014-0.728,0.018-1.049
		c0.003-0.322,0.005-0.584,0.005-0.786c0-0.695-0.004-1.347-0.011-1.952c-0.008-0.605-0.019-1.201-0.033-1.784
		c-0.016-0.584-0.036-1.17-0.063-1.762c-0.025-0.591-0.058-1.22-0.096-1.885h2.064c-0.037,0.665-0.07,1.294-0.101,1.885
		c-0.029,0.592-0.054,1.178-0.072,1.762c-0.019,0.583-0.032,1.179-0.04,1.784C32.305,16.316,32.305,16.968,32.312,17.663z"/>
	<path fill="#545454" d="M43.724,24.732c0.299,0,0.593-0.047,0.881-0.141s0.544-0.245,0.769-0.453
		c0.224-0.21,0.403-0.478,0.538-0.804c0.135-0.324,0.202-0.723,0.202-1.195c0-0.403-0.08-0.777-0.241-1.122
		c-0.16-0.343-0.371-0.673-0.634-0.987c-0.262-0.313-0.562-0.618-0.897-0.914c-0.337-0.296-0.681-0.592-1.033-0.892
		c-0.352-0.3-0.695-0.608-1.031-0.926c-0.337-0.318-0.637-0.655-0.898-1.01c-0.262-0.355-0.473-0.739-0.633-1.15
		c-0.162-0.411-0.242-0.86-0.242-1.347c0-0.711,0.131-1.309,0.393-1.796c0.262-0.485,0.596-0.876,0.999-1.172
		c0.403-0.295,0.851-0.507,1.341-0.634S44.203,10,44.667,10c0.486,0,0.956,0.039,1.408,0.117c0.452,0.079,0.888,0.163,1.308,0.253
		v2.233c-0.24-0.203-0.466-0.386-0.68-0.551c-0.213-0.165-0.426-0.305-0.639-0.42c-0.214-0.116-0.433-0.206-0.656-0.27
		c-0.225-0.063-0.465-0.096-0.719-0.096c-0.314,0-0.611,0.043-0.892,0.129c-0.281,0.086-0.524,0.22-0.729,0.398
		c-0.206,0.18-0.371,0.407-0.494,0.685s-0.186,0.605-0.186,0.987c0,0.531,0.139,1.016,0.416,1.453
		c0.276,0.438,0.624,0.854,1.043,1.251c0.42,0.396,0.871,0.793,1.357,1.19c0.486,0.396,0.939,0.822,1.358,1.277
		c0.419,0.457,0.767,0.957,1.044,1.499c0.275,0.543,0.414,1.161,0.414,1.856c0,0.524-0.06,0.986-0.18,1.386
		c-0.119,0.4-0.281,0.749-0.488,1.044c-0.205,0.296-0.442,0.544-0.711,0.747c-0.27,0.201-0.558,0.363-0.865,0.487
		c-0.307,0.123-0.623,0.211-0.947,0.264C44.503,25.975,44.188,26,43.88,26c-0.365,0-0.702-0.013-1.01-0.039
		c-0.307-0.026-0.592-0.063-0.857-0.112s-0.513-0.104-0.741-0.168c-0.228-0.063-0.45-0.133-0.667-0.208v-2.301
		c0.231,0.218,0.463,0.422,0.695,0.612c0.231,0.191,0.473,0.357,0.725,0.499c0.25,0.143,0.514,0.253,0.79,0.331
		C43.091,24.693,43.394,24.732,43.724,24.732z"/>
	<path fill="#545454" d="M58.142,10.28c-0.037,0.636-0.068,1.287-0.095,1.952s-0.046,1.328-0.062,1.986s-0.026,1.305-0.033,1.941
		c-0.008,0.636-0.012,1.242-0.012,1.817s0.004,1.182,0.012,1.817c0.007,0.637,0.017,1.285,0.027,1.947
		c0.012,0.662,0.028,1.328,0.051,1.997s0.053,1.322,0.09,1.958h-2.088c0.038-0.636,0.07-1.289,0.096-1.958
		c0.026-0.669,0.047-1.335,0.063-1.997c0.015-0.662,0.025-1.311,0.033-1.947c0.008-0.636,0.012-1.242,0.012-1.817h-4.623
		c0,0.575,0.004,1.182,0.011,1.817c0.007,0.637,0.019,1.285,0.034,1.947c0.015,0.662,0.033,1.328,0.056,1.997
		s0.052,1.322,0.09,1.958h-2.099c0.045-0.636,0.08-1.289,0.106-1.958s0.047-1.335,0.062-1.997c0.016-0.662,0.027-1.311,0.034-1.947
		c0.007-0.636,0.011-1.242,0.011-1.817s-0.004-1.182-0.011-1.817c-0.007-0.637-0.019-1.283-0.034-1.941
		c-0.015-0.658-0.035-1.321-0.062-1.986s-0.062-1.316-0.106-1.952h2.121c-0.074,1.047-0.125,2.119-0.152,3.215
		c-0.025,1.096-0.046,2.152-0.061,3.169h4.611c-0.008-1.017-0.026-2.073-0.057-3.169c-0.029-1.096-0.074-2.168-0.135-3.215H58.142z"
		/>
	<path fill="#545454" d="M65.414,24.688c0.33,0,0.627-0.041,0.893-0.124c0.266-0.082,0.51-0.185,0.734-0.308
		s0.431-0.262,0.617-0.415c0.188-0.153,0.367-0.302,0.539-0.444v2.211c-0.195,0.037-0.391,0.078-0.589,0.123
		s-0.419,0.087-0.663,0.124c-0.242,0.037-0.514,0.071-0.813,0.101C65.833,25.985,65.489,26,65.099,26
		c-0.785,0-1.49-0.181-2.114-0.543c-0.625-0.363-1.156-0.888-1.593-1.571c-0.438-0.686-0.773-1.52-1.005-2.503
		s-0.349-2.096-0.349-3.338c0-1.197,0.098-2.291,0.293-3.282c0.193-0.991,0.48-1.839,0.857-2.542
		c0.378-0.702,0.846-1.249,1.402-1.637C63.15,10.194,63.794,10,64.527,10c0.756,0,1.405,0.174,1.947,0.521
		c0.543,0.348,0.987,0.853,1.336,1.515c0.348,0.662,0.602,1.476,0.763,2.44s0.241,2.068,0.241,3.31v0.416h-6.777
		c0.045,1.189,0.141,2.195,0.285,3.019c0.146,0.822,0.354,1.492,0.623,2.008c0.27,0.517,0.608,0.889,1.016,1.116
		C64.369,24.573,64.853,24.688,65.414,24.688z M66.884,16.9c-0.016-0.435-0.038-0.875-0.068-1.324
		c-0.029-0.449-0.076-0.883-0.14-1.302c-0.063-0.418-0.149-0.812-0.258-1.178s-0.249-0.685-0.421-0.954s-0.382-0.481-0.629-0.64
		c-0.246-0.156-0.538-0.235-0.875-0.235c-0.449,0-0.82,0.165-1.117,0.493c-0.295,0.329-0.534,0.76-0.717,1.291
		c-0.184,0.531-0.32,1.133-0.41,1.807c-0.09,0.673-0.153,1.354-0.19,2.042H66.884z"/>
	<path fill="#545454" d="M74.122,10.28c0.8,0,1.533,0.124,2.199,0.369c0.665,0.248,1.235,0.669,1.711,1.263
		c0.476,0.596,0.845,1.386,1.111,2.373c0.265,0.987,0.397,2.219,0.397,3.692c0,1.481-0.133,2.718-0.397,3.709
		c-0.267,0.991-0.638,1.783-1.116,2.379c-0.479,0.594-1.052,1.016-1.717,1.262c-0.666,0.247-1.403,0.37-2.211,0.37h-3.49
		c0.045-0.636,0.081-1.289,0.106-1.958c0.026-0.669,0.047-1.335,0.062-1.997c0.016-0.662,0.027-1.311,0.034-1.947
		c0.007-0.636,0.011-1.242,0.011-1.817s-0.004-1.182-0.011-1.817c-0.007-0.637-0.019-1.283-0.034-1.941
		c-0.015-0.658-0.035-1.321-0.062-1.986c-0.025-0.665-0.062-1.316-0.106-1.952H74.122z M72.652,11.56
		c-0.053,1.107-0.088,2.212-0.107,3.315c-0.019,1.104-0.027,2.138-0.027,3.103s0.007,2.003,0.021,3.113
		c0.016,1.111,0.049,2.216,0.102,3.316h1.504c0.321,0,0.63-0.036,0.926-0.106c0.295-0.071,0.568-0.196,0.818-0.376
		c0.251-0.18,0.481-0.425,0.69-0.735c0.21-0.31,0.388-0.703,0.532-1.178c0.146-0.476,0.26-1.044,0.338-1.706
		c0.078-0.661,0.117-1.438,0.117-2.328s-0.039-1.667-0.117-2.328c-0.078-0.662-0.191-1.23-0.338-1.705
		c-0.145-0.476-0.322-0.867-0.532-1.173c-0.209-0.307-0.439-0.551-0.69-0.73c-0.25-0.18-0.523-0.305-0.818-0.375
		c-0.296-0.071-0.604-0.106-0.926-0.106H72.652z"/>
</g>
</svg>
