<?xml version="1.0" encoding="utf-8"?>
<!-- Generator: Adobe Illustrator 16.0.0, SVG Export Plug-In . SVG Version: 6.00 Build 0)  -->
<!DOCTYPE svg PUBLIC "-//W3C//DTD SVG 1.1//EN" "http://www.w3.org/Graphics/SVG/1.1/DTD/svg11.dtd">
<svg version="1.1" id="图层_1" xmlns="http://www.w3.org/2000/svg" xmlns:xlink="http://www.w3.org/1999/xlink" x="0px" y="0px"
	 width="258px" height="36px" viewBox="0 0 258 36" enable-background="new 0 0 258 36" xml:space="preserve">
<g>
	<path fill="#545454" d="M22.444,15.589c-0.138,0.251-0.319,0.583-0.541,0.994c-0.223,0.415-0.479,0.876-0.766,1.387
		c-0.288,0.51-0.6,1.061-0.936,1.646c-0.336,0.588-0.685,1.178-1.045,1.77c-0.361,0.591-0.729,1.172-1.106,1.744
		c-0.376,0.57-0.743,1.099-1.1,1.585c0.875-0.089,1.718-0.312,2.528-0.668c0.81-0.355,1.57-0.8,2.279-1.331
		c0.708-0.531,1.357-1.126,1.945-1.786c0.586-0.66,1.089-1.346,1.507-2.054c0.417-0.709,0.741-1.421,0.973-2.133
		c0.23-0.714,0.346-1.386,0.346-2.018c0-0.536-0.067-1.03-0.2-1.483c-0.134-0.453-0.336-0.847-0.607-1.18
		c-0.272-0.331-0.618-0.59-1.04-0.777c-0.421-0.185-0.916-0.279-1.483-0.279c-0.527,0-1.056,0.051-1.585,0.152
		c-0.532,0.102-1.039,0.236-1.526,0.407c-0.486,0.17-0.934,0.37-1.343,0.602c-0.409,0.229-0.76,0.479-1.051,0.748
		c-0.324,0.356-0.61,0.712-0.857,1.069c-0.247,0.356-0.49,0.676-0.729,0.959c-0.239,0.283-0.496,0.515-0.771,0.694
		c-0.276,0.178-0.6,0.266-0.973,0.266c-0.697,0-1.045-0.307-1.045-0.924c0-0.389,0.125-0.808,0.377-1.257
		c0.251-0.45,0.602-0.896,1.051-1.337c0.451-0.441,0.985-0.867,1.604-1.276c0.621-0.409,1.303-0.771,2.048-1.081
		c0.745-0.313,1.539-0.562,2.382-0.748S22.488,9,23.379,9c1.037,0,1.94,0.155,2.71,0.463c0.77,0.309,1.407,0.73,1.915,1.271
		c0.506,0.537,0.883,1.172,1.13,1.901c0.247,0.729,0.371,1.515,0.371,2.357s-0.144,1.726-0.431,2.65
		c-0.289,0.923-0.71,1.83-1.264,2.722c-0.556,0.891-1.24,1.738-2.055,2.539c-0.813,0.804-1.75,1.508-2.807,2.116
		c-1.058,0.606-2.229,1.089-3.513,1.446C18.151,26.822,16.764,27,15.273,27c-0.324,0-0.579-0.104-0.766-0.311
		c-0.187-0.205-0.28-0.459-0.28-0.759c0-0.235,0.041-0.462,0.122-0.682c0.081-0.218,0.186-0.42,0.316-0.606l4.995-9.93
		c0.235-0.365,0.468-0.656,0.699-0.875c0.231-0.22,0.446-0.389,0.645-0.512c0.197-0.12,0.374-0.199,0.528-0.235
		c0.153-0.037,0.271-0.056,0.352-0.056c0.365,0,0.624,0.106,0.778,0.317c0.154,0.211,0.231,0.461,0.231,0.752
		c0,0.236-0.041,0.482-0.122,0.742C22.691,15.105,22.581,15.353,22.444,15.589z"/>
	<path fill="#545454" d="M42.643,23.038c-0.146,0.137-0.341,0.328-0.584,0.571c-0.243,0.243-0.521,0.506-0.833,0.79
		c-0.312,0.283-0.644,0.568-0.997,0.856c-0.352,0.288-0.713,0.55-1.081,0.784c-0.37,0.235-0.731,0.428-1.088,0.576
		c-0.356,0.151-0.692,0.226-1.008,0.226c-0.284,0-0.527-0.061-0.729-0.182c-0.203-0.122-0.372-0.279-0.505-0.474
		c-0.134-0.194-0.233-0.416-0.298-0.663c-0.064-0.247-0.097-0.5-0.097-0.76c0-0.17,0.012-0.338,0.036-0.505
		c0.024-0.165,0.065-0.321,0.122-0.467c-0.251,0.34-0.537,0.69-0.856,1.05c-0.321,0.362-0.665,0.688-1.034,0.985
		c-0.369,0.295-0.753,0.539-1.154,0.729c-0.401,0.19-0.808,0.285-1.222,0.285c-0.21,0-0.456-0.042-0.735-0.127
		c-0.279-0.085-0.545-0.226-0.796-0.42s-0.462-0.445-0.632-0.753c-0.17-0.308-0.255-0.685-0.255-1.131
		c0-0.331,0.051-0.729,0.152-1.19c0.102-0.463,0.255-0.942,0.462-1.441c0.207-0.497,0.47-0.989,0.791-1.476
		c0.319-0.486,0.698-0.922,1.136-1.307c0.438-0.385,0.936-0.696,1.495-0.936c0.559-0.239,1.183-0.359,1.872-0.359
		c0.356,0,0.668,0.045,0.936,0.135c0.268,0.089,0.495,0.186,0.681,0.291c0.21,0.13,0.397,0.272,0.559,0.427
		c0.138-0.075,0.28-0.144,0.426-0.208c0.122-0.057,0.249-0.107,0.383-0.151c0.133-0.045,0.249-0.067,0.346-0.067
		c0.308,0,0.559,0.086,0.753,0.255c0.195,0.172,0.292,0.357,0.292,0.561c0,0.057-0.004,0.1-0.013,0.133
		c-0.04,0.153-0.104,0.348-0.188,0.583c-0.085,0.235-0.181,0.497-0.286,0.784c-0.105,0.287-0.213,0.587-0.322,0.898
		c-0.11,0.313-0.209,0.618-0.298,0.918c-0.089,0.3-0.163,0.581-0.219,0.845c-0.057,0.263-0.085,0.489-0.085,0.675
		c0,0.243,0.041,0.444,0.122,0.602c0.081,0.158,0.219,0.237,0.413,0.237c0.122,0,0.265-0.039,0.432-0.116
		c0.166-0.076,0.347-0.179,0.541-0.31c0.194-0.129,0.395-0.276,0.602-0.443c0.207-0.166,0.407-0.334,0.602-0.506
		c0.454-0.403,0.936-0.865,1.446-1.383c0.129-0.105,0.255-0.159,0.376-0.159c0.162,0,0.298,0.078,0.407,0.237
		c0.11,0.157,0.165,0.333,0.165,0.527C42.874,22.694,42.796,22.884,42.643,23.038z M34.22,19.902c-0.381,0-0.75,0.098-1.106,0.292
		s-0.672,0.449-0.948,0.765c-0.276,0.317-0.494,0.672-0.657,1.064c-0.162,0.393-0.243,0.788-0.243,1.185
		c0,0.163,0.01,0.33,0.031,0.505c0.02,0.174,0.066,0.334,0.139,0.479c0.073,0.146,0.177,0.268,0.31,0.364
		c0.134,0.098,0.314,0.146,0.542,0.146c0.178,0,0.387-0.078,0.625-0.235c0.239-0.159,0.486-0.362,0.742-0.608
		c0.255-0.248,0.504-0.519,0.747-0.814c0.243-0.296,0.462-0.584,0.657-0.869c0.194-0.283,0.352-0.538,0.474-0.766
		c0.122-0.227,0.182-0.392,0.182-0.498c0-0.153-0.053-0.293-0.158-0.419c-0.105-0.125-0.235-0.232-0.389-0.323
		c-0.154-0.089-0.318-0.155-0.492-0.199C34.501,19.925,34.35,19.902,34.22,19.902z"/>
	<path fill="#545454" d="M45.231,26.125c0-0.389,0.087-0.785,0.262-1.19c0.173-0.406,0.395-0.822,0.662-1.253
		c0.268-0.429,0.56-0.865,0.875-1.306c0.316-0.442,0.616-0.894,0.899-1.355c0.081-0.129,0.146-0.254,0.194-0.37
		c0.049-0.118,0.073-0.238,0.073-0.359c0-0.129-0.036-0.237-0.109-0.321c-0.073-0.086-0.178-0.129-0.316-0.129
		c-0.333,0-0.652,0.072-0.96,0.213c-0.308,0.143-0.604,0.329-0.887,0.56c-0.284,0.231-0.553,0.496-0.809,0.796
		c-0.255,0.3-0.494,0.61-0.716,0.93c-0.224,0.32-0.432,0.639-0.626,0.954c-0.194,0.316-0.373,0.604-0.535,0.863
		c-0.146,0.267-0.279,0.559-0.4,0.875c-0.122,0.315-0.254,0.608-0.396,0.875c-0.142,0.268-0.301,0.492-0.48,0.675
		c-0.178,0.183-0.401,0.273-0.668,0.273c-0.292,0-0.522-0.095-0.693-0.279c-0.17-0.187-0.255-0.409-0.255-0.669
		c0-0.146,0.052-0.372,0.158-0.681c0.105-0.308,0.241-0.667,0.407-1.075c0.166-0.409,0.354-0.845,0.565-1.307
		c0.21-0.462,0.419-0.92,0.625-1.372c0.208-0.454,0.402-0.883,0.583-1.283c0.183-0.401,0.334-0.743,0.456-1.028
		c0.146-0.348,0.338-0.605,0.578-0.777c0.239-0.169,0.476-0.255,0.711-0.255c0.203,0,0.383,0.075,0.541,0.225
		c0.158,0.15,0.237,0.367,0.237,0.65c0,0.211-0.049,0.442-0.146,0.691c0.219-0.2,0.454-0.419,0.705-0.654
		c0.251-0.234,0.524-0.453,0.82-0.65c0.295-0.199,0.626-0.362,0.991-0.493c0.365-0.128,0.773-0.194,1.228-0.194
		c0.227,0,0.441,0.029,0.644,0.086c0.203,0.056,0.383,0.146,0.541,0.267c0.158,0.122,0.287,0.279,0.389,0.474
		c0.1,0.194,0.16,0.431,0.176,0.706c0.186-0.186,0.389-0.371,0.607-0.553c0.219-0.184,0.456-0.348,0.711-0.493
		c0.256-0.146,0.533-0.263,0.833-0.352c0.3-0.09,0.632-0.135,0.997-0.135c0.268,0,0.522,0.029,0.765,0.086
		c0.244,0.056,0.459,0.151,0.651,0.285c0.19,0.134,0.34,0.307,0.449,0.517c0.11,0.211,0.165,0.47,0.165,0.778
		c0,0.486-0.112,0.947-0.334,1.386c-0.223,0.438-0.484,0.837-0.783,1.203c-0.098,0.12-0.227,0.275-0.389,0.46
		c-0.162,0.188-0.32,0.386-0.474,0.597c-0.154,0.21-0.288,0.428-0.401,0.65c-0.114,0.223-0.17,0.432-0.17,0.626
		c0,0.179,0.054,0.293,0.164,0.341c0.109,0.049,0.253,0.071,0.431,0.071c0.341,0,0.709-0.1,1.106-0.303
		c0.397-0.202,0.783-0.448,1.161-0.735c0.376-0.288,0.729-0.588,1.057-0.899c0.329-0.313,0.59-0.572,0.784-0.785
		c0.048-0.056,0.105-0.097,0.17-0.119c0.065-0.026,0.13-0.037,0.194-0.037c0.146,0,0.278,0.064,0.396,0.194
		c0.117,0.129,0.176,0.3,0.176,0.511c0,0.161-0.048,0.34-0.146,0.534s-0.263,0.386-0.499,0.571
		c-0.438,0.422-0.885,0.824-1.343,1.208c-0.458,0.386-0.92,0.727-1.386,1.021c-0.466,0.296-0.932,0.534-1.396,0.712
		c-0.467,0.177-0.93,0.267-1.392,0.267c-0.6,0-1.084-0.142-1.452-0.425c-0.369-0.283-0.553-0.733-0.553-1.349
		c0-0.405,0.077-0.786,0.231-1.144c0.154-0.355,0.344-0.698,0.571-1.026c0.227-0.328,0.466-0.646,0.717-0.955
		c0.25-0.307,0.469-0.615,0.656-0.923c0.081-0.129,0.146-0.254,0.194-0.37c0.048-0.118,0.073-0.238,0.073-0.359
		c0-0.129-0.036-0.237-0.11-0.321c-0.072-0.086-0.178-0.129-0.315-0.129c-0.332,0-0.652,0.072-0.96,0.213
		c-0.308,0.143-0.603,0.329-0.887,0.56c-0.283,0.231-0.553,0.496-0.808,0.796c-0.255,0.3-0.495,0.61-0.717,0.93
		c-0.223,0.32-0.431,0.639-0.625,0.954c-0.195,0.316-0.373,0.604-0.535,0.863c-0.146,0.267-0.28,0.559-0.401,0.875
		c-0.122,0.315-0.253,0.608-0.395,0.875c-0.143,0.268-0.302,0.492-0.48,0.675c-0.179,0.183-0.401,0.273-0.668,0.273
		c-0.098,0-0.203-0.019-0.316-0.055c-0.114-0.036-0.217-0.088-0.31-0.152c-0.094-0.065-0.17-0.142-0.231-0.23
		C45.274,26.328,45.239,26.23,45.231,26.125z"/>
	<path fill="#545454" d="M58.916,18.76c0.138-0.228,0.296-0.389,0.474-0.485c0.179-0.098,0.36-0.146,0.547-0.146
		c0.308,0,0.573,0.1,0.796,0.297c0.222,0.2,0.334,0.453,0.334,0.762c-0.008,0.071-0.018,0.146-0.03,0.217
		c-0.012,0.074-0.039,0.146-0.079,0.22c-0.114,0.211-0.207,0.39-0.28,0.535s-0.14,0.281-0.201,0.406
		c-0.06,0.126-0.119,0.249-0.176,0.371c-0.057,0.121-0.125,0.267-0.207,0.438c-0.097,0.201-0.206,0.422-0.328,0.662
		c-0.122,0.237-0.237,0.483-0.346,0.734c-0.11,0.252-0.203,0.499-0.28,0.742c-0.077,0.242-0.115,0.465-0.115,0.668
		c0,0.219,0.055,0.361,0.164,0.432c0.11,0.068,0.266,0.103,0.468,0.103c0.227,0,0.463-0.049,0.711-0.146
		c0.247-0.098,0.496-0.223,0.747-0.377c0.251-0.152,0.498-0.33,0.741-0.528c0.243-0.199,0.472-0.398,0.687-0.602
		c0.214-0.202,0.413-0.397,0.596-0.583c0.182-0.188,0.334-0.354,0.456-0.5c0.162-0.152,0.324-0.23,0.486-0.23
		c0.146,0,0.265,0.065,0.357,0.194c0.094,0.131,0.141,0.297,0.141,0.5c0,0.186-0.047,0.385-0.141,0.595
		c-0.093,0.211-0.244,0.41-0.455,0.596c-0.413,0.422-0.834,0.824-1.264,1.208c-0.429,0.386-0.869,0.727-1.319,1.021
		c-0.449,0.296-0.901,0.534-1.355,0.712c-0.454,0.177-0.912,0.267-1.373,0.267c-0.656,0-1.173-0.169-1.55-0.504
		c-0.375-0.337-0.564-0.861-0.564-1.574c0-0.372,0.053-0.737,0.158-1.094c0.105-0.356,0.231-0.702,0.377-1.04
		c0.146-0.335,0.3-0.659,0.461-0.972c0.163-0.312,0.3-0.608,0.414-0.894c0.041-0.104,0.111-0.267,0.213-0.485
		c0.1-0.219,0.208-0.441,0.321-0.668C58.633,19.343,58.771,19.06,58.916,18.76z M60.253,16.026c0-0.187,0.034-0.38,0.103-0.578
		c0.069-0.198,0.173-0.379,0.31-0.541c0.138-0.161,0.311-0.296,0.517-0.401c0.208-0.105,0.452-0.158,0.736-0.158
		c0.47,0,0.798,0.091,0.984,0.274c0.186,0.182,0.28,0.41,0.28,0.687c0,0.154-0.031,0.323-0.091,0.51
		c-0.062,0.188-0.152,0.358-0.274,0.517s-0.279,0.291-0.474,0.395c-0.194,0.106-0.425,0.159-0.692,0.159
		c-0.502,0-0.855-0.079-1.058-0.238C60.391,16.493,60.277,16.286,60.253,16.026z"/>
	<path fill="#545454" d="M68.444,17.702c0.308,0,0.638,0.041,0.991,0.122c0.352,0.082,0.678,0.218,0.979,0.413
		c0.299,0.194,0.549,0.452,0.748,0.771c0.197,0.321,0.297,0.715,0.297,1.186c0,0.243-0.032,0.521-0.098,0.832
		c-0.064,0.313-0.162,0.64-0.291,0.979c0.08,0.097,0.174,0.165,0.279,0.206c0.105,0.04,0.219,0.06,0.34,0.06
		c0.17,0,0.358-0.049,0.565-0.146c0.206-0.098,0.419-0.223,0.638-0.377c0.219-0.153,0.438-0.326,0.656-0.521
		c0.219-0.194,0.426-0.389,0.62-0.584c0.194-0.194,0.371-0.379,0.528-0.553c0.158-0.175,0.29-0.321,0.396-0.444
		c0.057-0.055,0.126-0.084,0.206-0.084c0.113,0,0.215,0.059,0.305,0.176c0.089,0.118,0.133,0.282,0.133,0.492
		c0,0.211-0.063,0.455-0.188,0.729c-0.127,0.276-0.359,0.563-0.699,0.864c-0.194,0.211-0.417,0.453-0.668,0.729
		c-0.252,0.276-0.52,0.534-0.803,0.777s-0.579,0.45-0.887,0.621c-0.309,0.169-0.616,0.255-0.924,0.255
		c-0.211,0-0.416-0.033-0.614-0.097c-0.198-0.065-0.398-0.171-0.601-0.316c-0.293,0.453-0.625,0.866-0.998,1.239
		c-0.372,0.372-0.787,0.691-1.246,0.961c-0.457,0.266-0.951,0.476-1.482,0.624c-0.53,0.151-1.096,0.226-1.694,0.226
		c-0.228,0-0.491-0.044-0.79-0.134c-0.3-0.089-0.586-0.237-0.857-0.443c-0.271-0.207-0.5-0.476-0.687-0.808
		c-0.186-0.332-0.28-0.737-0.28-1.216c0-0.323,0.053-0.712,0.158-1.166s0.266-0.923,0.48-1.404c0.214-0.483,0.486-0.961,0.814-1.435
		c0.328-0.475,0.719-0.899,1.173-1.275c0.454-0.377,0.973-0.682,1.556-0.911C67.084,17.818,67.731,17.702,68.444,17.702z
		 M67.813,19.841c-0.381,0-0.748,0.096-1.1,0.286c-0.354,0.191-0.664,0.442-0.936,0.754c-0.271,0.313-0.488,0.664-0.65,1.058
		c-0.162,0.392-0.243,0.796-0.243,1.208c0,0.155,0.013,0.323,0.036,0.506c0.024,0.182,0.075,0.353,0.152,0.51
		c0.076,0.159,0.188,0.29,0.334,0.395c0.146,0.106,0.34,0.158,0.584,0.158c0.373,0,0.734-0.1,1.088-0.297
		c0.352-0.199,0.666-0.459,0.941-0.778c0.275-0.32,0.494-0.683,0.656-1.088s0.242-0.814,0.242-1.227c0-0.162-0.01-0.332-0.029-0.506
		c-0.021-0.174-0.069-0.334-0.146-0.479c-0.076-0.146-0.188-0.265-0.334-0.358C68.263,19.888,68.064,19.841,67.813,19.841z"/>
	<path fill="#545454" d="M75.408,19.16c0.162-0.348,0.365-0.605,0.608-0.777c0.243-0.169,0.481-0.255,0.718-0.255
		c0.193,0,0.367,0.07,0.521,0.213c0.154,0.141,0.23,0.351,0.23,0.625c0,0.106-0.012,0.221-0.035,0.34
		c-0.025,0.123-0.07,0.253-0.135,0.389c0.179-0.225,0.434-0.459,0.766-0.697c0.332-0.239,0.699-0.453,1.101-0.645
		c0.401-0.19,0.813-0.347,1.239-0.467c0.426-0.122,0.828-0.184,1.209-0.184c0.43,0,0.788,0.104,1.076,0.311
		c0.287,0.207,0.432,0.557,0.432,1.051c0,0.291-0.045,0.596-0.135,0.911c-0.088,0.316-0.204,0.632-0.346,0.948
		c-0.143,0.316-0.301,0.627-0.475,0.93c-0.174,0.305-0.346,0.591-0.516,0.856c-0.17,0.269-0.326,0.513-0.468,0.736
		c-0.142,0.222-0.253,0.407-0.335,0.553c-0.105,0.131-0.157,0.279-0.157,0.45c0,0.064,0.021,0.121,0.061,0.17
		c0.04,0.048,0.105,0.073,0.194,0.073c0.057,0,0.121-0.007,0.194-0.019s0.162-0.055,0.267-0.128
		c0.438-0.162,0.886-0.364,1.344-0.607c0.457-0.243,0.897-0.501,1.318-0.772c0.422-0.271,0.809-0.543,1.16-0.813
		c0.354-0.272,0.647-0.518,0.882-0.734c0.065-0.057,0.13-0.098,0.194-0.123c0.065-0.022,0.126-0.036,0.183-0.036
		c0.138,0,0.245,0.054,0.321,0.159c0.078,0.104,0.116,0.237,0.116,0.4c0,0.251-0.079,0.531-0.237,0.837
		c-0.157,0.31-0.406,0.597-0.747,0.863c-0.462,0.333-0.886,0.638-1.271,0.913s-0.777,0.532-1.178,0.771
		c-0.402,0.24-0.832,0.462-1.289,0.669c-0.458,0.206-0.994,0.399-1.609,0.577c-0.211,0.064-0.404,0.112-0.578,0.146
		c-0.175,0.032-0.334,0.049-0.48,0.049c-0.43,0-0.743-0.12-0.941-0.357c-0.199-0.24-0.298-0.573-0.298-1.004
		c0-0.056,0.001-0.111,0.006-0.164c0.004-0.053,0.011-0.11,0.019-0.177c0.016-0.25,0.082-0.525,0.2-0.826
		c0.117-0.299,0.259-0.606,0.426-0.923c0.165-0.315,0.342-0.63,0.528-0.942s0.358-0.606,0.517-0.887
		c0.157-0.279,0.29-0.528,0.396-0.748c0.105-0.218,0.157-0.396,0.157-0.534c0-0.121-0.034-0.226-0.104-0.31
		c-0.069-0.086-0.171-0.129-0.31-0.129c-0.519,0-1.011,0.155-1.477,0.463c-0.467,0.309-0.902,0.687-1.307,1.136
		c-0.405,0.45-0.777,0.926-1.118,1.429s-0.64,0.952-0.899,1.349c-0.162,0.269-0.31,0.553-0.443,0.856
		c-0.134,0.305-0.273,0.588-0.419,0.852c-0.146,0.263-0.31,0.481-0.493,0.656c-0.182,0.174-0.41,0.261-0.686,0.261
		c-0.284,0-0.507-0.09-0.67-0.267c-0.161-0.178-0.242-0.397-0.242-0.658c0-0.136,0.057-0.359,0.17-0.668
		c0.113-0.307,0.26-0.663,0.438-1.068s0.379-0.841,0.602-1.308c0.223-0.465,0.445-0.926,0.67-1.386
		c0.222-0.457,0.435-0.888,0.637-1.293C75.113,19.789,75.279,19.445,75.408,19.16z"/>
</g>
</svg>
