<svg version="1.1" id="图层_1" x="0px" y="0px" width="500.002px" height="346.572px" viewBox="-0.002 76.714 500.002 346.572" enable-background="new -0.002 76.714 500.002 346.572" xml:space="preserve" xmlns="http://www.w3.org/2000/svg" xmlns:xlink="http://www.w3.org/1999/xlink" xmlns:xml="http://www.w3.org/XML/1998/namespace">
  <path fill="#404040" d="M500,250c0,0-2.852,76.693-139.207,85.234c-136.352,8.521-159.096,88.052-159.096,88.052
	S147.724,309.673,343.718,286.93c0,0,2.853-25.558-42.604-19.889c-45.446,5.684-130.684,34.098-133.498,79.546
	c0,0-48.306-14.204-31.265-59.657c0,0-88.052,5.668-136.353-36.93c48.301-42.617,136.353-36.934,136.353-36.934
	c-17.041-45.449,31.265-59.673,31.265-59.673c2.814,45.469,88.052,73.862,133.498,79.565c45.455,5.669,42.604-19.893,42.604-19.893
	C147.725,190.342,201.697,76.714,201.697,76.714s22.744,79.531,159.096,88.052C497.148,173.281,500,250,500,250z" class="color c1"/>
</svg>