<svg version="1.1" id="图层_1" x="0px" y="0px" width="199.999px" height="59.203px" viewBox="0.001 70.397 199.999 59.203" enable-background="new 0.001 70.397 199.999 59.203" xml:space="preserve" xmlns="http://www.w3.org/2000/svg" xmlns:xlink="http://www.w3.org/1999/xlink" xmlns:xml="http://www.w3.org/XML/1998/namespace">
  <path fill="#404040" d="M197.313,91.024c-5.604-8.382-17.629-11.37-27.016-11.37c-8.863,0-18.175,1.818-26.928,5.253
	c-8.038,3.308-16.203,7.301-24.962,12.208c-3.503-1.359-7.118-2.762-10.591-4.145l-0.069-0.025
	c-0.651-0.247-1.267-0.479-1.876-0.786l-0.031-0.016l-0.031-0.014c-3.308-1.394-6.831-2.806-10.506-4.207
	c4.609-2.173,8.729-4.042,12.542-5.682c9.122-3.931,17.364-7.184,25.885-7.184c2.815,0,5.551,0.378,8.136,1.115
	c2.876,0.91,4.845,2.028,6.169,3.504l0.07,0.081l0.086,0.062c0.324,0.244,0.768,0.578,1.354,0.578c0.104,0,0.207-0.009,0.31-0.032
	c0.41-0.046,0.684-0.251,0.836-0.392c0.563-0.387,0.703-0.88,0.733-1.15c0.058-0.435-0.086-0.873-0.391-1.223
	c-0.087-0.122-0.171-0.23-0.255-0.336c-0.064-0.083-0.131-0.161-0.195-0.262l-0.021-0.035l-0.025-0.035
	c-1.564-2.032-3.799-3.607-6.646-4.679c-3.306-1.23-6.889-1.855-10.656-1.855c-9.061,0-17.928,3.442-26.231,6.965
	c-6.677,2.831-12.598,5.578-18.076,8.388c-3.61-1.329-7.27-2.529-10.809-3.69l-0.445-0.147c-13.42-4.403-25.717-6.635-36.551-6.635
	c-7.748,0-14.96,1.134-21.434,3.373c-7.653,2.645-17.211,7.568-19.278,15.994c-0.929,3.792-0.264,7.171,1.98,10.048
	c4.299,5.507,13.824,8.018,20.858,8.018h1.629c1.294,4.205,4.574,7.482,9.773,9.755c5.547,2.425,11.709,3.654,18.32,3.654
	c15.123,0,30.39-6.396,40.554-11.206c0.873-0.41,1.744-0.83,2.609-1.25c3.413,1.393,7.086,2.79,10.93,4.163
	c1.492,0.534,3.004,1.083,4.527,1.633c13.123,4.752,27.994,10.14,42.496,10.14c4.406,0,8.657-0.498,12.639-1.483
	c1.629-0.404,3.192-0.898,4.646-1.476c2.421-0.955,4.604-2.166,6.672-3.699c1.966-1.551,3.35-3.301,4.333-5.488
	c5.015-0.766,9.243-2.711,12.571-5.792C200.639,106.393,201.657,97.521,197.313,91.024z M26.589,101.507
	c-1.335,2.004-2.074,4.296-2.203,6.836h-1.143c-1.835,0-3.959-0.224-6.309-0.661c-2.6-0.58-4.455-1.168-6.176-1.959
	c-1.757-0.734-3.273-1.77-4.671-3.175c-1.147-1.221-1.713-2.562-1.713-4.073c0-2.451,0.929-4.653,2.84-6.736
	c1.966-1.97,4.366-3.682,7.307-5.202c3.012-1.426,6.253-2.483,9.6-3.124c3.513-0.673,6.624-0.998,9.516-0.998
	c4.003,0,7.586,0.191,10.945,0.585c4.693,0.436,9.016,1.122,13.237,2.104c5.905,1.322,12.168,3.087,19.144,5.391
	c0.489,0.198,0.993,0.383,1.494,0.56c-0.087,0.042-0.175,0.085-0.261,0.127c-0.447,0.212-0.888,0.423-1.319,0.626l-0.039,0.018
	L76.8,91.849c-0.287,0.164-0.572,0.307-0.858,0.451c-0.293,0.147-0.59,0.295-0.883,0.461c-1.858,0.894-3.82,1.797-5.588,2.612
	c-4.033-1.143-8.037-2.057-11.902-2.718c-3.368-0.574-6.983-1.106-10.631-1.106c-3.175,0-5.919,0.403-8.396,1.23
	c-2.252,0.756-4.439,1.852-6.685,3.354C29.796,97.599,28.08,99.35,26.589,101.507z M30.353,104.143
	c0.957-1.287,2.205-2.351,3.618-3.098c1.544-0.898,3.23-1.542,5.052-1.935c1.904-0.438,3.672-0.659,5.267-0.659h0.417
	c2.457,0,5.036,0.254,7.665,0.747c1.725,0.307,3.565,0.682,5.648,1.152c-4.709,1.835-9.197,3.419-13.634,4.815
	c-4.953,1.511-10.002,2.444-15.395,2.849C29.094,106.459,29.534,105.216,30.353,104.143z M76.964,117.489
	c-0.834,0.319-1.658,0.592-2.452,0.852l-0.734,0.242c-6.616,2.159-13.468,3.253-20.362,3.253c-2.801,0-5.364-0.186-7.828-0.563
	c-0.133-0.047-0.25-0.074-0.344-0.094c-0.055-0.012-0.115-0.025-0.186-0.049l-0.083-0.027l-0.085-0.014
	c-2.299-0.398-4.621-1.051-6.712-1.89c-2.335-1.043-4.205-2.208-5.68-3.537c-1.175-1.002-2.056-2.113-2.647-3.315
	c4.877-0.406,9.966-1.352,15.15-2.816c0.347-0.115,0.633-0.201,0.911-0.283c0.41-0.125,0.833-0.254,1.255-0.41
	c5.487-1.663,11.457-3.875,18.238-6.759c3.951,1.114,7.873,2.469,11.535,3.769c0.624,0.268,1.312,0.527,1.963,0.771
	c3.666,1.382,7.639,2.94,12.356,4.852C86.699,113.667,81.899,115.688,76.964,117.489z M105.809,103.973l-0.026,0.019
	c-0.789,0.457-1.62,0.905-2.423,1.341c-0.664,0.357-1.344,0.727-2.018,1.107c-4.054-1.666-8.79-3.58-13.585-5.33l-1.98-0.699
	c-2.643-0.935-5.377-1.902-8.109-2.792l-1.305-0.411c0.032-0.014,0.064-0.029,0.094-0.043c0.434-0.196,0.867-0.39,1.31-0.583
	c0.301-0.129,0.633-0.286,0.963-0.442c0.303-0.141,0.606-0.281,0.886-0.405l0.032-0.012l0.027-0.014
	c1.195-0.601,2.373-1.154,3.62-1.744c0.53-0.251,1.067-0.504,1.61-0.763c3.528,1.348,8.058,3.092,12.56,4.919
	c0.792,0.313,1.567,0.622,2.342,0.93c2.359,0.94,4.798,1.913,7.238,2.818c0.5,0.2,1.023,0.394,1.542,0.588
	c0.007,0.005,0.015,0.007,0.022,0.009c-0.555,0.303-1.121,0.604-1.697,0.912c-0.158,0.078-0.364,0.193-0.568,0.309
	c-0.176,0.098-0.352,0.194-0.508,0.273L105.809,103.973z M170.212,121.297c-3.256,1.09-6.864,1.643-10.731,1.643
	c-3.408,0-6.658-0.195-9.664-0.582c-5.463-0.738-11.063-2.11-17.113-4.193c-8.624-3.036-16.77-6.059-24.895-9.239
	c-0.55-0.184-1.099-0.383-1.641-0.59c0.574-0.317,1.157-0.649,1.734-0.998c0.43-0.183,0.879-0.44,1.281-0.735
	c1.48-0.817,3.006-1.66,4.476-2.441c9.603,3.686,19.747,6.921,30.172,9.622c0.658,0.151,1.285,0.304,1.91,0.457
	c1.221,0.294,2.485,0.603,3.743,0.833c8.604,1.76,17.59,2.682,26.699,2.732C174.65,119.32,172.682,120.473,170.212,121.297z
	 M192.063,106.938c-2.336,1.778-5.109,2.869-8.273,3.252c-0.188-5.596-2.438-10.294-6.703-13.977
	c-4.219-3.645-9.789-5.651-15.688-5.651c-2.688,0-5.305,0.426-7.773,1.265c-1.838,0.623-3.227,1.346-4.376,2.276
	c-1.907,1.541-3.013,3.617-3.028,5.695c-0.01,1.226,0.396,2.347,1.111,3.069c0.6,0.609,1.389,0.931,2.279,0.931
	c0.121,0,0.242-0.005,0.369-0.019c1.252-0.119,2.397-0.98,2.918-2.195c0.51-1.191,0.191-2.108-0.06-2.845
	c-0.06-0.171-0.118-0.346-0.175-0.537c-0.178-0.625,0.781-1.233,1.617-1.636c1.957-0.942,4.132-1.421,6.465-1.421
	c1.904,0,3.923,0.353,6.001,1.048c2.336,0.783,4.312,1.786,6.041,3.067c1.876,1.373,3.396,3.063,4.522,5.018
	c1.205,1.896,1.815,3.939,1.877,6.271c-10.127-0.051-19.701-1.262-29.244-3.699l-0.131-0.033h-0.051l-0.039-0.018l-0.119-0.031
	c-8.754-2.238-17.494-4.938-26.016-8.042c7.332-3.822,14.664-7.16,21.826-9.934c1.658-0.613,3.152-1.101,4.553-1.496
	c6.488-2.06,13.315-3.099,20.328-3.099c2.758,0,5.696,0.334,8.734,0.995c3.211,0.677,5.93,1.666,8.318,3.023
	c2.485,1.29,4.469,2.939,6.098,5.063c1.615,2.032,2.394,4.255,2.394,6.81C195.842,102.799,194.57,105.104,192.063,106.938z" class="color c1"/>
</svg>