<svg version="1.1" id="图层_1" x="0px" y="0px" width="199.999px" height="53.763px" viewBox="-0.002 73.119 199.999 53.763" enable-background="new -0.002 73.119 199.999 53.763" xml:space="preserve" xmlns="http://www.w3.org/2000/svg" xmlns:xlink="http://www.w3.org/1999/xlink" xmlns:xml="http://www.w3.org/XML/1998/namespace">
  <path fill="#404040" d="M113.029,126.88c-6.12,0-10.381-2.896-13.028-6.084c-3.071,3.695-8.309,7.003-16.093,5.854
	c-5.115-0.746-8.934-3.52-10.751-7.808c-2.298-5.422-1.073-12.473,3.194-18.4c2.276-3.163,8.977-9.297,17.426-14.953
	c-6.59-3.439-13.488-5.926-19.395-5.978c-0.063,0.005-0.123,0.006-0.186,0.006c-15.371,0-29.147,14.18-37.379,22.653l-1.885,1.933
	c-5.375,5.465-12.038,8.323-18.727,8.043c-5.955-0.248-11.448-3.039-15.466-7.862c-1.131-1.357-0.946-3.374,0.41-4.504
	c1.355-1.128,3.372-0.946,4.502,0.411c2.891,3.469,6.631,5.394,10.817,5.567c4.882,0.184,9.811-1.977,13.904-6.137l1.857-1.904
	c8.902-9.163,23.778-24.475,41.759-24.592c0.07-0.005,0.141-0.006,0.209-0.006c8.175,0,17.456,3.712,25.801,8.504
	c8.343-4.792,17.625-8.504,25.8-8.504c0.07,0,0.142,0.001,0.209,0.006c17.986,0.119,32.866,15.435,41.771,24.603l1.847,1.895
	c4.089,4.158,9.036,6.326,13.897,6.136c4.189-0.173,7.933-2.098,10.821-5.567c1.13-1.356,3.147-1.539,4.503-0.409
	c1.357,1.128,1.541,3.146,0.41,4.502c-4.021,4.824-9.514,7.617-15.472,7.861c-6.687,0.281-13.351-2.578-18.722-8.041l-1.875-1.922
	c-8.231-8.478-22.014-22.665-37.388-22.665c-0.063,0-0.125-0.001-0.188-0.005c-5.906,0.05-12.805,2.537-19.395,5.978
	c8.449,5.654,15.149,11.789,17.428,14.953c4.268,5.926,5.49,12.977,3.194,18.397c-1.819,4.289-5.64,7.063-10.757,7.811
	C115.021,126.809,114.001,126.88,113.029,126.88z M99.994,111.264c1.384,0,2.623,0.891,3.051,2.209
	c0.281,0.82,3.078,8.168,12.118,6.854c2.903-0.426,4.853-1.764,5.792-3.979c1.411-3.326,0.432-8.103-2.495-12.166
	c-2.342-3.252-9.688-9.656-18.459-15.124c-8.774,5.467-16.12,11.872-18.46,15.122c-2.882,4.004-3.884,8.894-2.496,12.17
	c0.938,2.213,2.887,3.551,5.787,3.977c9.347,1.355,12.012-6.518,12.121-6.852C97.381,112.154,98.608,111.264,99.994,111.264z" class="color c1"/>
</svg>