<svg version="1.1" id="图层_1" x="0px" y="0px" width="190.092px" height="200px" viewBox="4.954 0 190.092 200" enable-background="new 4.954 0 190.092 200" xml:space="preserve" xmlns="http://www.w3.org/2000/svg" xmlns:xlink="http://www.w3.org/1999/xlink" xmlns:xml="http://www.w3.org/XML/1998/namespace">
  <g>
    <path fill="#040000" d="M158.764,9.602v2.535c0.114-0.399,0.135-0.776,0.135-1.123C158.896,10.538,158.854,10.065,158.764,9.602
		L158.764,9.602z" class="color c1"/>
    <path fill="#040000" d="M41.194,9.602v2.535c0.105-0.399,0.134-0.776,0.134-1.123C41.319,10.538,41.284,10.065,41.194,9.602
		L41.194,9.602z" class="color c1"/>
    <path fill="#040000" d="M58.805,6.016c-0.163-0.207-0.345-0.42-0.532-0.614c-1.902-1.971-4.625-2.998-7.305-2.981
		c-2.67-0.017-5.387,1.011-7.286,2.981c-0.2,0.194-0.378,0.407-0.541,0.614c-0.119,0.301-0.31,0.566-0.554,0.77
		c-0.426,0.67-0.762,1.396-0.968,2.166c-0.19,0.67-0.291,1.358-0.291,2.063c0,0.366,0.028,0.761,0.153,1.18
		c0.129,0.414,0.354,0.876,0.779,1.228c0.244,0.207,0.551,0.351,0.842,0.419c0.298,0.068,0.579,0.078,0.852,0.038
		c0.532-0.073,0.986-0.288,1.358-0.664c0.188-0.19,0.369-0.438,0.45-0.758c0.057-0.162,0.063-0.344,0.057-0.514
		c-0.019-0.168-0.081-0.359-0.119-0.418c-0.091-0.22-0.225-0.42-0.426-0.592c-0.19-0.182-0.463-0.304-0.732-0.329
		c-0.271-0.019-0.544,0.066-0.731,0.207c-0.191,0.145-0.319,0.328-0.372,0.5c-0.082,0.27-0.055,0.482,0.009,0.632
		c-0.047-0.043-0.109-0.134-0.153-0.293c-0.057-0.166-0.072-0.389-0.072-0.633c0-0.532,0.072-1.052,0.217-1.559
		c0.281-1.021,0.841-1.972,1.592-2.741c1.512-1.568,3.729-2.423,5.938-2.416c2.219-0.007,4.444,0.848,5.946,2.416
		c0.751,0.77,1.321,1.721,1.603,2.741c0.135,0.507,0.207,1.026,0.216,1.559c0,0.244-0.024,0.467-0.081,0.633
		c-0.044,0.159-0.109,0.25-0.153,0.293c0.063-0.149,0.091-0.362,0.009-0.632c-0.056-0.172-0.182-0.355-0.372-0.5
		c-0.188-0.141-0.44-0.226-0.731-0.207c-0.273,0.025-0.535,0.147-0.733,0.329c-0.2,0.172-0.335,0.378-0.425,0.582L56.211,11.6v0.013
		v0.013l-0.01,0.006l-0.006,0.034l-0.009,0.032c0,0-0.01,0.003-0.01,0.027L56.148,11.8c-0.01,0.063-0.01,0.101-0.019,0.144
		c-0.01,0.17,0.009,0.352,0.047,0.514c0.09,0.319,0.269,0.567,0.459,0.758c0.373,0.376,0.834,0.591,1.369,0.664
		c0.262,0.04,0.56,0.03,0.851-0.038c0.288-0.068,0.589-0.212,0.823-0.419c0.436-0.352,0.68-0.813,0.785-1.228
		c0.129-0.419,0.157-0.813,0.157-1.18c0-0.704-0.101-1.393-0.292-2.063c-0.205-0.771-0.541-1.496-0.957-2.166
		C59.114,6.582,58.923,6.316,58.805,6.016L58.805,6.016z" class="color c1"/>
    <path fill="#040000" d="M78.653,6.785c-0.244-0.203-0.443-0.469-0.551-0.77c-0.172-0.207-0.354-0.42-0.535-0.614
		c-1.909-1.971-4.632-2.998-7.305-2.981c-2.68-0.017-5.393,1.011-7.302,2.981c-0.19,0.194-0.372,0.407-0.535,0.614
		c-0.118,0.301-0.306,0.566-0.544,0.77c-0.433,0.67-0.768,1.396-0.977,2.166c-0.188,0.67-0.282,1.358-0.288,2.063
		c0,0.366,0.034,0.761,0.153,1.18c0.125,0.414,0.354,0.876,0.785,1.228c0.238,0.207,0.535,0.351,0.832,0.419
		c0.301,0.068,0.583,0.078,0.852,0.038c0.525-0.073,0.989-0.288,1.378-0.664c0.19-0.19,0.354-0.438,0.45-0.758
		c0.037-0.162,0.047-0.344,0.037-0.514c-0.019-0.168-0.081-0.359-0.119-0.418c-0.087-0.22-0.225-0.42-0.425-0.592
		c-0.188-0.182-0.46-0.304-0.733-0.329c-0.269-0.019-0.541,0.066-0.731,0.207c-0.19,0.145-0.315,0.328-0.369,0.5
		c-0.085,0.27-0.047,0.482,0.016,0.632c-0.054-0.043-0.116-0.134-0.163-0.293c-0.053-0.166-0.081-0.389-0.072-0.633
		c0-0.532,0.072-1.052,0.22-1.559c0.269-1.021,0.839-1.972,1.59-2.741c1.511-1.568,3.73-2.423,5.946-2.416
		c2.21-0.007,4.426,0.848,5.938,2.416c0.751,0.77,1.324,1.721,1.602,2.741c0.139,0.507,0.21,1.026,0.21,1.559
		c0.019,0.244-0.019,0.467-0.071,0.633c-0.038,0.159-0.101,0.25-0.154,0.293c0.063-0.149,0.088-0.362,0.007-0.632
		c-0.054-0.172-0.163-0.355-0.36-0.5c-0.19-0.141-0.453-0.226-0.741-0.207c-0.272,0.025-0.544,0.147-0.735,0.329
		c-0.197,0.172-0.336,0.378-0.426,0.582l-0.016,0.084l-0.01,0.013l-0.019,0.013v0.006l-0.01,0.034l-0.009,0.032
		c0,0,0,0.003-0.01,0.027l-0.01,0.075c-0.024,0.063-0.024,0.101-0.034,0.144c-0.009,0.17,0,0.352,0.054,0.514
		c0.081,0.319,0.262,0.567,0.453,0.758c0.37,0.376,0.824,0.591,1.359,0.664c0.269,0.04,0.56,0.03,0.848-0.038
		c0.31-0.068,0.598-0.212,0.852-0.419c0.416-0.352,0.65-0.813,0.779-1.228c0.009-0.021,0.009-0.043,0.009-0.057V9.602
		c-0.047-0.222-0.091-0.435-0.147-0.65C79.405,8.181,79.069,7.455,78.653,6.785L78.653,6.785z" class="color c1"/>
    <path fill="#040000" d="M62.426,6.016c0.081-0.22,0.135-0.461,0.135-0.704c0-1.077-0.867-1.947-1.943-1.947
		c-1.077,0-1.947,0.87-1.947,1.947c0,0.243,0.054,0.484,0.135,0.704c0.118,0.301,0.31,0.566,0.563,0.77
		c0.335,0.292,0.767,0.467,1.249,0.467c0.479,0,0.913-0.175,1.265-0.467C62.12,6.582,62.308,6.316,62.426,6.016L62.426,6.016z" class="color c1"/>
    <path fill="#040000" d="M120.241,9.602v2.535c0.101-0.399,0.135-0.776,0.135-1.123C120.376,10.538,120.323,10.065,120.241,9.602
		L120.241,9.602z" class="color c1"/>
    <path fill="#040000" d="M137.855,6.016c-0.172-0.207-0.354-0.42-0.535-0.614c-1.909-1.971-4.627-2.998-7.305-2.981
		c-2.67-0.017-5.384,1.011-7.297,2.981c-0.188,0.194-0.359,0.407-0.531,0.614c-0.129,0.301-0.315,0.566-0.554,0.77
		c-0.426,0.67-0.767,1.396-0.978,2.166c-0.19,0.67-0.281,1.358-0.281,2.063c0,0.366,0.027,0.761,0.156,1.18
		c0.115,0.414,0.351,0.876,0.775,1.228c0.254,0.207,0.545,0.351,0.834,0.419c0.301,0.068,0.588,0.078,0.852,0.038
		c0.535-0.073,0.984-0.288,1.377-0.664c0.188-0.19,0.35-0.438,0.449-0.758c0.039-0.162,0.058-0.344,0.039-0.514
		c-0.01-0.168-0.082-0.359-0.102-0.418c-0.109-0.22-0.234-0.42-0.436-0.592c-0.196-0.182-0.461-0.304-0.741-0.329
		c-0.272-0.019-0.532,0.066-0.724,0.207c-0.201,0.145-0.315,0.328-0.383,0.5c-0.07,0.27-0.033,0.482,0.021,0.632
		c-0.044-0.043-0.109-0.134-0.153-0.293c-0.063-0.166-0.081-0.389-0.081-0.633c0-0.532,0.072-1.052,0.216-1.559
		c0.291-1.021,0.842-1.972,1.594-2.741c1.512-1.568,3.74-2.423,5.945-2.416c2.221-0.007,4.444,0.848,5.938,2.416
		c0.771,0.77,1.323,1.721,1.603,2.741c0.146,0.507,0.209,1.026,0.225,1.559c0,0.244-0.033,0.467-0.09,0.633
		c-0.035,0.159-0.088,0.25-0.145,0.293c0.057-0.149,0.081-0.362,0-0.632c-0.053-0.172-0.163-0.355-0.359-0.5
		c-0.19-0.141-0.453-0.226-0.727-0.207c-0.287,0.025-0.542,0.147-0.742,0.329c-0.199,0.172-0.344,0.378-0.426,0.582l-0.023,0.084
		l-0.011,0.013v0.013v0.006l-0.028,0.034l-0.01,0.032c0,0,0,0.003,0,0.027l-0.018,0.075c-0.01,0.063-0.025,0.101-0.025,0.144
		c-0.02,0.17,0,0.352,0.043,0.514c0.102,0.319,0.264,0.567,0.455,0.758c0.379,0.376,0.842,0.591,1.373,0.664
		c0.254,0.04,0.555,0.03,0.842-0.038c0.301-0.068,0.59-0.212,0.844-0.419c0.416-0.352,0.66-0.813,0.779-1.228
		c0.114-0.419,0.152-0.813,0.152-1.18c0-0.704-0.091-1.393-0.282-2.063c-0.206-0.771-0.55-1.496-0.976-2.166
		C138.162,6.582,137.98,6.316,137.855,6.016L137.855,6.016z" class="color c1"/>
    <path fill="#040000" d="M157.695,6.785c-0.237-0.203-0.437-0.469-0.555-0.77c-0.173-0.207-0.345-0.42-0.535-0.614
		c-1.908-1.971-4.633-2.998-7.293-2.981c-2.679-0.017-5.403,1.011-7.305,2.981c-0.199,0.194-0.371,0.407-0.545,0.614
		c-0.115,0.301-0.297,0.566-0.541,0.77c-0.436,0.67-0.751,1.396-0.977,2.166c-0.191,0.67-0.281,1.358-0.281,2.063
		c0,0.366,0.027,0.761,0.145,1.18c0.127,0.414,0.362,0.876,0.787,1.228c0.256,0.207,0.543,0.351,0.844,0.419
		c0.287,0.068,0.578,0.078,0.842,0.038c0.531-0.073,0.994-0.288,1.373-0.664c0.191-0.19,0.354-0.438,0.455-0.758
		c0.033-0.162,0.063-0.344,0.033-0.514c-0.006-0.168-0.082-0.359-0.105-0.418c-0.102-0.22-0.229-0.42-0.426-0.592
		c-0.2-0.182-0.473-0.304-0.741-0.329c-0.272-0.019-0.535,0.066-0.736,0.207c-0.188,0.145-0.297,0.328-0.358,0.5
		c-0.072,0.27-0.047,0.482,0.01,0.632c-0.057-0.043-0.119-0.134-0.163-0.293c-0.047-0.166-0.075-0.389-0.075-0.633
		c0-0.532,0.075-1.052,0.229-1.559c0.272-1.021,0.832-1.972,1.595-2.741c1.502-1.568,3.728-2.423,5.944-2.416
		c2.207-0.007,4.437,0.848,5.947,2.416c0.741,0.77,1.301,1.721,1.584,2.741c0.152,0.507,0.215,1.026,0.215,1.559
		c0.01,0.244-0.027,0.467-0.063,0.633c-0.053,0.159-0.119,0.25-0.162,0.293c0.053-0.149,0.09-0.362,0.01-0.632
		c-0.058-0.172-0.173-0.355-0.373-0.5c-0.19-0.141-0.453-0.226-0.731-0.207c-0.272,0.025-0.535,0.147-0.732,0.329
		c-0.2,0.172-0.335,0.378-0.426,0.582l-0.028,0.084l-0.009,0.013l-0.01,0.013v0.006l-0.019,0.034v0.032
		c-0.008,0.003-0.008,0.003-0.018,0.027l-0.009,0.075c-0.019,0.063-0.019,0.101-0.019,0.144c-0.029,0.17,0,0.352,0.036,0.514
		c0.099,0.319,0.261,0.567,0.451,0.758c0.381,0.376,0.843,0.591,1.377,0.664c0.263,0.04,0.552,0.03,0.853-0.038
		c0.287-0.068,0.578-0.212,0.832-0.419c0.416-0.352,0.66-0.813,0.775-1.228c0.01-0.021,0.01-0.043,0.02-0.057V9.602
		c-0.037-0.222-0.092-0.435-0.145-0.65C158.452,8.181,158.118,7.455,157.695,6.785L157.695,6.785z" class="color c1"/>
    <path fill="#040000" d="M141.464,6.016c0.082-0.22,0.14-0.461,0.14-0.704c0-1.077-0.871-1.947-1.938-1.947
		c-1.076,0-1.938,0.87-1.938,1.947c0,0.243,0.037,0.484,0.129,0.704c0.125,0.301,0.307,0.566,0.552,0.77
		c0.334,0.292,0.778,0.467,1.258,0.467s0.913-0.175,1.258-0.467C141.167,6.582,141.35,6.316,141.464,6.016L141.464,6.016z" class="color c1"/>
    <path fill="#040000" d="M101.904,9.908c0.08-0.212,0.138-0.456,0.138-0.71c0-1.073-0.87-1.943-1.937-1.943
		c-1.087,0-1.956,0.87-1.956,1.943c0,0.254,0.057,0.488,0.137,0.71c0.125,0.305,0.316,0.563,0.561,0.771
		c0.335,0.288,0.77,0.46,1.259,0.46c0.469,0,0.903-0.172,1.257-0.46C101.598,10.472,101.788,10.213,101.904,9.908L101.904,9.908z" class="color c1"/>
    <path fill="#040000" d="M111.271,2.645c0.08-0.216,0.138-0.453,0.138-0.704c0-1.074-0.869-1.94-1.955-1.94
		c-1.067,0-1.938,0.866-1.938,1.94c0,0.251,0.053,0.488,0.135,0.704c0.129,0.311,0.318,0.566,0.563,0.779
		c0.335,0.282,0.771,0.457,1.24,0.457c0.487,0,0.923-0.175,1.258-0.457C110.956,3.211,111.154,2.955,111.271,2.645L111.271,2.645z" class="color c1"/>
    <path fill="#040000" d="M120.677,6.764c-0.172-0.686-0.524-1.336-0.985-1.862c-0.904-1.079-2.162-1.671-3.367-2.024
		c-1.225-0.367-2.588-0.455-3.885-0.153c-1.283,0.294-2.435,0.913-3.431,1.646c-2,1.48-3.512,3.309-5.114,4.933
		c-0.938,0.964-1.754,1.825-2.354,2.447c-0.575,0.639-0.948,1.074-0.832,1.287c0.102,0.21-1.374,0.941-0.432,0.941
		c1.79,0,3.89-2.466,4.851-3.461c1.646-1.679,3.147-3.456,4.904-4.739c0.87-0.645,1.8-1.145,2.799-1.364
		c0.976-0.219,2-0.162,3.004,0.132c1.015,0.291,1.942,0.77,2.541,1.477c0.606,0.701,0.833,1.624,0.681,2.558
		c-0.146,0.936-0.66,1.843-1.375,2.501c-0.535,0.503-1.195,0.857-1.875,1.011c0.02-0.101,0.028-0.213,0.028-0.323
		c0-0.532-0.254-0.994-0.67-1.261c-0.128-0.097-0.291-0.185-0.517-0.231c-0.254-0.054-0.561-0.041-0.89,0.097
		c-0.325,0.125-0.632,0.379-0.848,0.745c-0.21,0.366-0.315,0.873-0.153,1.398c0.072,0.257,0.234,0.508,0.432,0.704
		c0.183,0.191,0.406,0.342,0.636,0.444c0.45,0.201,0.905,0.238,1.321,0.235c1.401-0.01,2.73-0.63,3.722-1.543
		c0.978-0.921,1.67-2.135,1.907-3.502C120.883,8.176,120.868,7.455,120.677,6.764L120.677,6.764z" class="color c1"/>
    <path fill="#040000" d="M88.7,2.645c-0.081-0.216-0.135-0.453-0.135-0.704C88.565,0.866,89.433,0,90.5,0
		c1.089,0,1.956,0.866,1.956,1.94c0,0.251-0.054,0.488-0.135,0.704c-0.129,0.311-0.319,0.566-0.563,0.779
		C91.427,3.705,90.991,3.88,90.5,3.88c-0.47,0-0.905-0.175-1.259-0.457C89.007,3.211,88.819,2.955,88.7,2.645L88.7,2.645z" class="color c1"/>
    <path fill="#040000" d="M79.295,6.764c0.173-0.686,0.517-1.336,0.97-1.862c0.924-1.079,2.182-1.671,3.385-2.024
		c1.213-0.367,2.588-0.455,3.883-0.153c1.287,0.294,2.436,0.913,3.431,1.646c1.991,1.48,3.511,3.309,5.114,4.933
		c0.932,0.964,1.746,1.825,2.334,2.447c0.598,0.639,0.967,1.074,0.852,1.287c-0.109,0.21,1.375,0.941,0.436,0.941
		c-1.813,0-3.894-2.466-4.87-3.461c-1.64-1.679-3.143-3.456-4.889-4.739c-0.866-0.645-1.809-1.145-2.795-1.364
		c-0.989-0.219-2.003-0.162-3.014,0.132c-1.015,0.291-1.938,0.77-2.544,1.477c-0.598,0.701-0.843,1.624-0.671,2.558
		c0.145,0.936,0.651,1.843,1.378,2.501c0.531,0.503,1.183,0.857,1.871,1.011c-0.019-0.101-0.034-0.213-0.034-0.323
		c0-0.532,0.259-0.994,0.679-1.261c0.115-0.097,0.288-0.185,0.514-0.231c0.244-0.054,0.563-0.041,0.889,0.097
		c0.326,0.125,0.633,0.379,0.842,0.745c0.216,0.366,0.316,0.873,0.163,1.398c-0.081,0.257-0.235,0.508-0.435,0.704
		c-0.191,0.191-0.407,0.342-0.633,0.444c-0.453,0.201-0.908,0.238-1.324,0.235c-1.401-0.01-2.732-0.63-3.719-1.543
		c-0.984-0.921-1.683-2.135-1.908-3.502C79.079,8.176,79.107,7.455,79.295,6.764L79.295,6.764z" class="color c1"/>
    <path fill="#040000" d="M14.557,159.363h2.534c-0.391-0.104-0.77-0.135-1.113-0.135C15.499,159.229,15.029,159.279,14.557,159.363
		L14.557,159.363z" class="color c1"/>
    <path fill="#040000" d="M10.982,141.747c-0.21,0.168-0.426,0.347-0.626,0.53c-1.963,1.91-2.995,4.627-2.977,7.303
		c-0.019,2.676,1.014,5.393,2.977,7.302c0.2,0.194,0.416,0.369,0.626,0.538c0.298,0.113,0.56,0.307,0.761,0.553
		c0.67,0.424,1.393,0.754,2.172,0.969c0.66,0.188,1.358,0.281,2.063,0.289c0.363,0,0.751-0.032,1.177-0.15
		c0.416-0.129,0.88-0.357,1.224-0.789c0.207-0.238,0.351-0.538,0.432-0.832c0.057-0.301,0.072-0.589,0.037-0.854
		c-0.08-0.529-0.291-0.986-0.679-1.375c-0.182-0.182-0.435-0.356-0.751-0.44c-0.162-0.051-0.335-0.063-0.517-0.051
		c-0.172,0.02-0.345,0.081-0.407,0.116c-0.234,0.094-0.425,0.226-0.598,0.422c-0.182,0.197-0.307,0.461-0.325,0.742
		c-0.028,0.272,0.063,0.537,0.21,0.729c0.135,0.189,0.325,0.313,0.507,0.366c0.251,0.081,0.47,0.057,0.622,0
		c-0.046,0.044-0.134,0.108-0.29,0.149c-0.169,0.053-0.388,0.082-0.642,0.071c-0.526,0-1.049-0.071-1.564-0.212
		c-1.015-0.285-1.957-0.842-2.742-1.6c-1.559-1.502-2.42-3.729-2.41-5.943c-0.01-2.206,0.852-4.441,2.41-5.943
		c0.785-0.755,1.728-1.312,2.742-1.59c0.516-0.146,1.038-0.213,1.564-0.22c0.254,0,0.473,0.021,0.642,0.073
		c0.156,0.045,0.244,0.107,0.29,0.158c-0.152-0.06-0.371-0.095-0.622-0.013c-0.182,0.063-0.372,0.179-0.507,0.369
		c-0.147,0.188-0.238,0.457-0.21,0.728c0.019,0.28,0.144,0.551,0.325,0.744c0.163,0.2,0.373,0.334,0.589,0.42l0.071,0.037h0.02
		l0.01,0.006v0.006l0.043,0.011l0.02,0.002c0.019,0.007,0.019,0.007,0.037,0.021l0.082,0.012c0.053,0.014,0.097,0.02,0.134,0.024
		c0.182,0.013,0.354,0,0.517-0.05c0.316-0.087,0.569-0.264,0.751-0.443c0.388-0.383,0.599-0.836,0.679-1.371
		c0.035-0.267,0.02-0.558-0.037-0.852c-0.081-0.294-0.225-0.592-0.432-0.836c-0.344-0.426-0.808-0.66-1.224-0.785
		c-0.426-0.119-0.813-0.146-1.177-0.146c-0.704,0-1.402,0.101-2.063,0.279c-0.779,0.219-1.502,0.553-2.172,0.979
		C11.542,141.434,11.28,141.627,10.982,141.747L10.982,141.747z" class="color c1"/>
    <path fill="#040000" d="M11.743,121.907c-0.201,0.239-0.463,0.429-0.761,0.547c-0.21,0.176-0.426,0.351-0.626,0.539
		c-1.963,1.901-2.995,4.629-2.977,7.305c-0.019,2.669,1.014,5.394,2.977,7.298c0.2,0.186,0.416,0.363,0.626,0.533
		c0.298,0.125,0.56,0.313,0.761,0.555c0.67,0.424,1.393,0.76,2.172,0.967c0.66,0.189,1.358,0.287,2.063,0.291
		c0.363,0,0.751-0.031,1.177-0.159c0.416-0.12,0.88-0.349,1.224-0.773c0.207-0.254,0.351-0.554,0.432-0.849
		c0.057-0.287,0.072-0.575,0.037-0.846c-0.08-0.53-0.291-0.985-0.679-1.363c-0.182-0.19-0.435-0.363-0.751-0.454
		c-0.162-0.04-0.335-0.063-0.517-0.04c-0.172,0.009-0.345,0.075-0.407,0.107c-0.234,0.099-0.425,0.227-0.598,0.424
		c-0.182,0.199-0.307,0.47-0.325,0.738c-0.028,0.281,0.063,0.537,0.21,0.731c0.135,0.194,0.325,0.313,0.507,0.369
		c0.251,0.082,0.47,0.051,0.622-0.009c-0.046,0.054-0.134,0.109-0.29,0.16c-0.169,0.049-0.388,0.067-0.642,0.067
		c-0.526,0-1.049-0.065-1.564-0.216c-1.015-0.278-1.957-0.842-2.742-1.6c-1.559-1.502-2.42-3.722-2.41-5.935
		c-0.01-2.22,0.852-4.44,2.41-5.944c0.785-0.754,1.728-1.316,2.742-1.599c0.516-0.146,1.038-0.213,1.564-0.213
		c0.254-0.006,0.473,0.019,0.642,0.075c0.156,0.044,0.244,0.104,0.29,0.15c-0.152-0.061-0.371-0.082-0.622-0.007
		c-0.182,0.05-0.372,0.173-0.507,0.372c-0.147,0.186-0.238,0.454-0.21,0.729c0.019,0.27,0.144,0.539,0.325,0.738
		c0.163,0.194,0.373,0.325,0.589,0.42l0.071,0.031l0.02,0.01l0.01,0.004l0,0l0.043,0.012l0.02,0.013
		c0.019,0.004,0.019,0.004,0.037,0.006l0.082,0.021c0.053,0.012,0.097,0.012,0.134,0.019c0.182,0.021,0.354,0,0.517-0.04
		c0.316-0.092,0.569-0.264,0.751-0.447c0.388-0.386,0.599-0.84,0.679-1.371c0.035-0.271,0.02-0.555-0.037-0.853
		c-0.081-0.294-0.225-0.588-0.432-0.842c-0.344-0.422-0.808-0.657-1.224-0.772c-0.019-0.013-0.044-0.017-0.063-0.024h-2.534
		c-0.216,0.047-0.436,0.094-0.642,0.149C13.136,121.146,12.413,121.48,11.743,121.907L11.743,121.907z" class="color c1"/>
    <path fill="#040000" d="M10.982,138.129c-0.229-0.082-0.464-0.135-0.717-0.135c-1.067,0-1.935,0.879-1.935,1.945
		c0,1.074,0.867,1.938,1.935,1.938c0.253,0,0.487-0.044,0.717-0.131c0.298-0.12,0.56-0.313,0.761-0.549
		c0.297-0.345,0.46-0.782,0.46-1.259c0-0.483-0.163-0.916-0.46-1.258C11.542,138.441,11.28,138.254,10.982,138.129L10.982,138.129z" class="color c1"/>
    <path fill="#040000" d="M14.557,80.319h2.534c-0.391-0.113-0.77-0.135-1.113-0.135C15.499,80.185,15.029,80.234,14.557,80.319
		L14.557,80.319z" class="color c1"/>
    <path fill="#040000" d="M10.982,62.701c-0.21,0.173-0.426,0.351-0.626,0.532c-1.963,1.913-2.995,4.633-2.977,7.302
		c-0.019,2.676,1.014,5.398,2.977,7.302c0.2,0.193,0.416,0.369,0.626,0.535c0.298,0.122,0.56,0.313,0.761,0.554
		c0.67,0.426,1.393,0.751,2.172,0.967c0.66,0.194,1.358,0.292,2.063,0.292c0.363,0,0.751-0.031,1.177-0.157
		c0.416-0.118,0.88-0.356,1.224-0.785c0.207-0.241,0.351-0.538,0.432-0.832c0.057-0.295,0.072-0.58,0.037-0.849
		c-0.08-0.532-0.291-0.989-0.679-1.374c-0.182-0.185-0.435-0.359-0.751-0.448c-0.162-0.043-0.335-0.059-0.517-0.043
		c-0.172,0.013-0.345,0.081-0.407,0.112c-0.234,0.098-0.425,0.226-0.598,0.429c-0.182,0.194-0.307,0.46-0.325,0.736
		c-0.028,0.271,0.063,0.535,0.21,0.729c0.135,0.191,0.325,0.31,0.507,0.366c0.251,0.078,0.47,0.057,0.622-0.003
		c-0.046,0.047-0.134,0.109-0.29,0.146c-0.169,0.057-0.388,0.082-0.642,0.082c-0.526-0.003-1.049-0.082-1.564-0.219
		c-1.015-0.275-1.957-0.839-2.742-1.597c-1.559-1.503-2.42-3.725-2.41-5.943c-0.01-2.207,0.852-4.435,2.41-5.946
		c0.785-0.748,1.728-1.309,2.742-1.587c0.516-0.15,1.038-0.22,1.564-0.22c0.254-0.005,0.473,0.025,0.642,0.072
		c0.156,0.048,0.244,0.104,0.29,0.153c-0.152-0.053-0.371-0.084-0.622-0.002c-0.182,0.052-0.372,0.172-0.507,0.372
		c-0.147,0.187-0.238,0.443-0.21,0.726c0.019,0.275,0.144,0.545,0.325,0.738c0.163,0.194,0.373,0.332,0.589,0.426l0.071,0.025
		l0.02,0.013l0.01,0.003l0,0l0.043,0.016l0.02,0.006c0.019,0.007,0.019,0.007,0.037,0.01l0.082,0.016
		c0.053,0.016,0.097,0.02,0.134,0.025c0.182,0.018,0.354,0,0.517-0.044c0.316-0.094,0.569-0.27,0.751-0.454
		c0.388-0.379,0.599-0.835,0.679-1.368c0.035-0.266,0.02-0.557-0.037-0.854c-0.081-0.291-0.225-0.588-0.432-0.835
		c-0.344-0.42-0.808-0.657-1.224-0.779c-0.426-0.122-0.813-0.153-1.177-0.153c-0.704,0.003-1.402,0.101-2.063,0.284
		c-0.779,0.21-1.502,0.548-2.172,0.968C11.542,62.389,11.28,62.583,10.982,62.701L10.982,62.701z" class="color c1"/>
    <path fill="#040000" d="M11.743,42.861c-0.201,0.245-0.463,0.436-0.761,0.548c-0.21,0.173-0.426,0.354-0.626,0.539
		c-1.963,1.905-2.995,4.632-2.977,7.298c-0.019,2.673,1.014,5.402,2.977,7.305c0.2,0.188,0.416,0.367,0.626,0.535
		c0.298,0.116,0.56,0.308,0.761,0.552c0.67,0.422,1.393,0.754,2.172,0.974c0.66,0.181,1.358,0.281,2.063,0.281
		c0.363,0,0.751-0.031,1.177-0.15c0.416-0.122,0.88-0.357,1.224-0.782c0.207-0.244,0.351-0.544,0.432-0.839
		c0.057-0.297,0.072-0.582,0.037-0.851c-0.08-0.533-0.291-0.986-0.679-1.365c-0.182-0.188-0.435-0.363-0.751-0.457
		c-0.162-0.04-0.335-0.06-0.517-0.04c-0.172,0.012-0.345,0.08-0.407,0.115c-0.234,0.094-0.425,0.222-0.598,0.422
		c-0.182,0.194-0.307,0.46-0.325,0.736c-0.028,0.275,0.063,0.544,0.21,0.735c0.135,0.19,0.325,0.31,0.507,0.372
		c0.251,0.075,0.47,0.044,0.622-0.016c-0.046,0.051-0.134,0.112-0.29,0.159c-0.169,0.051-0.388,0.069-0.642,0.069
		c-0.526-0.003-1.049-0.069-1.564-0.21c-1.015-0.284-1.957-0.852-2.742-1.599c-1.559-1.509-2.42-3.728-2.41-5.947
		c-0.01-2.209,0.852-4.428,2.41-5.94c0.785-0.757,1.728-1.313,2.742-1.596c0.516-0.144,1.038-0.212,1.564-0.212
		c0.254,0,0.473,0.021,0.642,0.068c0.156,0.047,0.244,0.106,0.29,0.162c-0.152-0.063-0.371-0.094-0.622-0.012
		c-0.182,0.056-0.372,0.178-0.507,0.368c-0.147,0.188-0.238,0.457-0.21,0.727c0.019,0.282,0.144,0.545,0.325,0.745
		c0.163,0.197,0.373,0.325,0.589,0.414l0.071,0.036l0.02,0.013h0.01v0.007l0.043,0.006l0.02,0.007
		c0.019,0.006,0.019,0.012,0.037,0.019l0.082,0.012c0.053,0.01,0.097,0.02,0.134,0.026c0.182,0.012,0.354,0,0.517-0.045
		c0.316-0.094,0.569-0.269,0.751-0.457c0.388-0.378,0.599-0.832,0.679-1.364c0.035-0.27,0.02-0.557-0.037-0.852
		c-0.081-0.294-0.225-0.594-0.432-0.838c-0.344-0.43-0.808-0.664-1.224-0.783c-0.019-0.003-0.044-0.006-0.063-0.013h-2.534
		c-0.216,0.041-0.436,0.092-0.642,0.145C13.136,42.107,12.413,42.437,11.743,42.861L11.743,42.861z" class="color c1"/>
    <path fill="#040000" d="M10.982,59.086c-0.229-0.087-0.464-0.134-0.717-0.134c-1.067,0-1.935,0.869-1.935,1.94
		c0,1.07,0.867,1.946,1.935,1.946c0.253,0,0.487-0.05,0.717-0.138c0.298-0.118,0.56-0.313,0.761-0.557
		c0.297-0.335,0.46-0.77,0.46-1.252s-0.163-0.914-0.46-1.255C11.542,59.394,11.28,59.202,10.982,59.086L10.982,59.086z" class="color c1"/>
    <path fill="#040000" d="M14.866,98.649c-0.219-0.084-0.453-0.135-0.697-0.135c-1.086,0-1.957,0.874-1.957,1.944
		c0,1.069,0.871,1.94,1.957,1.94c0.244,0,0.479-0.049,0.697-0.133c0.307-0.119,0.57-0.313,0.776-0.55
		c0.291-0.342,0.463-0.782,0.463-1.259c0-0.482-0.172-0.921-0.463-1.255C15.437,98.962,15.173,98.774,14.866,98.649L14.866,98.649z" class="color c1"/>
    <path fill="#040000" d="M7.605,89.288c-0.207-0.084-0.45-0.141-0.704-0.141c-1.08,0-1.947,0.874-1.947,1.946
		c0,1.07,0.867,1.941,1.947,1.941c0.254,0,0.497-0.051,0.704-0.138c0.307-0.116,0.569-0.307,0.779-0.545
		c0.278-0.342,0.46-0.782,0.46-1.259c0-0.475-0.182-0.919-0.46-1.258C8.175,89.595,7.912,89.404,7.605,89.288L7.605,89.288z" class="color c1"/>
    <path fill="#040000" d="M11.724,79.877c-0.679,0.179-1.33,0.526-1.865,0.979c-1.076,0.924-1.665,2.182-2.027,3.381
		c-0.36,1.217-0.441,2.595-0.154,3.875c0.301,1.289,0.924,2.444,1.656,3.439c1.477,1.996,3.305,3.512,4.926,5.114
		c0.967,0.936,1.828,1.746,2.46,2.337c0.636,0.592,1.062,0.965,1.277,0.852c0.216-0.112,0.933,1.371,0.933,0.416
		c0-1.789-2.463-3.88-3.459-4.851c-1.674-1.644-3.439-3.143-4.741-4.892c-0.645-0.873-1.133-1.815-1.349-2.796
		c-0.234-0.988-0.172-2.015,0.129-3.017c0.287-1.001,0.766-1.934,1.482-2.534c0.689-0.604,1.609-0.846,2.551-0.687
		c0.924,0.153,1.838,0.66,2.508,1.381c0.488,0.538,0.851,1.187,0.995,1.877c-0.106-0.019-0.207-0.037-0.326-0.037
		c-0.525,0-0.995,0.27-1.258,0.67c-0.091,0.129-0.173,0.294-0.226,0.532c-0.043,0.235-0.037,0.557,0.091,0.883
		c0.135,0.316,0.388,0.632,0.761,0.839c0.363,0.209,0.87,0.321,1.393,0.159c0.254-0.085,0.507-0.234,0.697-0.422
		c0.201-0.194,0.345-0.414,0.445-0.639c0.207-0.46,0.244-0.908,0.244-1.325c-0.02-1.404-0.636-2.737-1.549-3.72
		c-0.924-0.98-2.135-1.688-3.502-1.909C13.136,79.671,12.413,79.689,11.724,79.877L11.724,79.877z" class="color c1"/>
    <path fill="#040000" d="M7.605,111.859c-0.207,0.082-0.45,0.133-0.704,0.133c-1.08,0-1.947-0.864-1.947-1.947
		c0-1.066,0.867-1.938,1.947-1.938c0.254,0,0.497,0.047,0.704,0.138c0.307,0.122,0.569,0.301,0.779,0.551
		c0.278,0.335,0.46,0.776,0.46,1.249c0,0.484-0.182,0.917-0.46,1.258C8.175,111.545,7.912,111.738,7.605,111.859L7.605,111.859z" class="color c1"/>
    <path fill="#040000" d="M11.724,121.27c-0.679-0.18-1.33-0.528-1.865-0.986c-1.076-0.92-1.665-2.172-2.027-3.374
		c-0.36-1.224-0.441-2.591-0.154-3.882c0.301-1.281,0.924-2.435,1.656-3.43c1.477-1.996,3.305-3.518,4.926-5.119
		c0.967-0.934,1.828-1.746,2.46-2.343c0.636-0.585,1.062-0.96,1.277-0.841c0.216,0.109,0.933-1.381,0.933-0.426
		c0,1.793-2.463,3.884-3.459,4.848c-1.674,1.648-3.439,3.148-4.741,4.904c-0.645,0.867-1.133,1.806-1.349,2.795
		c-0.234,0.979-0.172,2.006,0.129,3.005c0.287,1.015,0.766,1.945,1.482,2.534c0.689,0.613,1.609,0.852,2.551,0.688
		c0.924-0.144,1.838-0.66,2.508-1.369c0.488-0.539,0.851-1.196,0.995-1.885c-0.106,0.024-0.207,0.031-0.326,0.031
		c-0.525,0-0.995-0.264-1.258-0.671c-0.091-0.125-0.173-0.294-0.226-0.522c-0.043-0.246-0.037-0.56,0.091-0.879
		c0.135-0.318,0.388-0.639,0.761-0.852c0.363-0.2,0.87-0.313,1.393-0.15c0.254,0.075,0.507,0.227,0.697,0.42
		c0.201,0.188,0.345,0.42,0.445,0.646c0.207,0.454,0.244,0.901,0.244,1.319c-0.02,1.405-0.636,2.742-1.549,3.72
		c-0.924,0.981-2.135,1.684-3.502,1.915C13.136,121.473,12.413,121.453,11.724,121.27L11.724,121.27z" class="color c1"/>
    <path fill="#040000" d="M185.443,159.363h-2.535c0.396-0.104,0.771-0.135,1.113-0.135
		C184.512,159.229,184.98,159.279,185.443,159.363L185.443,159.363z" class="color c1"/>
    <path fill="#040000" d="M189.027,141.747c0.216,0.168,0.416,0.347,0.615,0.53c1.981,1.91,2.996,4.627,2.986,7.303
		c0.01,2.676-1.005,5.393-2.986,7.302c-0.199,0.194-0.399,0.369-0.615,0.538c-0.299,0.113-0.562,0.307-0.771,0.553
		c-0.67,0.424-1.393,0.754-2.172,0.969c-0.67,0.188-1.357,0.281-2.063,0.289c-0.354,0-0.752-0.032-1.168-0.15
		c-0.406-0.129-0.89-0.357-1.229-0.789c-0.21-0.238-0.354-0.538-0.42-0.832c-0.072-0.301-0.081-0.589-0.045-0.854
		c0.072-0.529,0.299-0.986,0.662-1.375c0.199-0.182,0.443-0.356,0.77-0.44c0.152-0.051,0.334-0.063,0.516-0.051
		c0.164,0.02,0.353,0.081,0.416,0.116c0.218,0.094,0.418,0.226,0.6,0.422c0.163,0.197,0.288,0.461,0.314,0.742
		c0.021,0.272-0.063,0.537-0.198,0.729c-0.154,0.189-0.337,0.313-0.509,0.366c-0.263,0.081-0.479,0.057-0.642,0
		c0.054,0.044,0.153,0.108,0.298,0.149c0.166,0.053,0.4,0.082,0.635,0.071c0.533,0,1.06-0.071,1.564-0.212
		c1.023-0.285,1.973-0.842,2.742-1.6c1.568-1.502,2.426-3.729,2.41-5.943c0.016-2.206-0.842-4.441-2.41-5.943
		c-0.77-0.755-1.719-1.312-2.742-1.59c-0.506-0.146-1.031-0.213-1.564-0.22c-0.233,0-0.469,0.021-0.635,0.073
		c-0.145,0.045-0.244,0.107-0.298,0.158c0.163-0.06,0.379-0.095,0.642-0.013c0.172,0.063,0.354,0.179,0.509,0.369
		c0.137,0.188,0.219,0.457,0.198,0.728c-0.026,0.28-0.151,0.551-0.314,0.744c-0.182,0.2-0.393,0.334-0.589,0.42l-0.081,0.037h-0.028
		l-0.01,0.006v0.006l-0.037,0.011l-0.024,0.002c-0.01,0.007-0.01,0.007-0.027,0.021l-0.082,0.012c-0.053,0.014-0.1,0.02-0.135,0.024
		c-0.182,0.013-0.363,0-0.516-0.05c-0.326-0.087-0.57-0.264-0.771-0.443c-0.363-0.383-0.589-0.836-0.662-1.371
		c-0.036-0.267-0.027-0.558,0.045-0.852c0.065-0.294,0.21-0.592,0.42-0.836c0.34-0.426,0.822-0.66,1.229-0.785
		c0.416-0.119,0.813-0.146,1.166-0.146c0.705,0,1.394,0.101,2.063,0.279c0.779,0.219,1.502,0.553,2.172,0.979
		C188.467,141.434,188.729,141.627,189.027,141.747L189.027,141.747z" class="color c1"/>
    <path fill="#040000" d="M188.257,121.907c0.21,0.239,0.474,0.429,0.771,0.547c0.217,0.176,0.416,0.351,0.617,0.539
		c1.98,1.901,2.994,4.629,2.985,7.305c0.009,2.669-1.005,5.394-2.985,7.298c-0.201,0.186-0.4,0.363-0.617,0.533
		c-0.297,0.125-0.561,0.313-0.771,0.555c-0.67,0.424-1.393,0.76-2.172,0.967c-0.67,0.189-1.358,0.287-2.063,0.291
		c-0.354,0-0.75-0.031-1.166-0.159c-0.407-0.12-0.891-0.349-1.229-0.773c-0.21-0.254-0.354-0.554-0.42-0.849
		c-0.072-0.287-0.081-0.575-0.045-0.846c0.073-0.53,0.299-0.985,0.662-1.363c0.198-0.19,0.442-0.363,0.77-0.454
		c0.152-0.04,0.335-0.063,0.517-0.04c0.162,0.009,0.352,0.075,0.416,0.107c0.217,0.099,0.416,0.227,0.599,0.424
		c0.163,0.199,0.288,0.47,0.315,0.738c0.02,0.281-0.063,0.537-0.199,0.731c-0.154,0.194-0.336,0.313-0.508,0.369
		c-0.264,0.082-0.479,0.051-0.643-0.009c0.055,0.054,0.153,0.109,0.299,0.16c0.164,0.049,0.399,0.067,0.635,0.067
		c0.531,0,1.059-0.065,1.563-0.216c1.024-0.278,1.974-0.842,2.742-1.6c1.567-1.502,2.426-3.722,2.41-5.935
		c0.016-2.22-0.843-4.44-2.41-5.944c-0.771-0.754-1.718-1.316-2.742-1.599c-0.506-0.146-1.032-0.213-1.563-0.213
		c-0.234-0.006-0.471,0.019-0.635,0.075c-0.146,0.044-0.244,0.104-0.299,0.15c0.163-0.061,0.379-0.082,0.643-0.007
		c0.172,0.05,0.354,0.173,0.508,0.372c0.137,0.186,0.219,0.454,0.199,0.729c-0.027,0.27-0.152,0.539-0.315,0.738
		c-0.183,0.194-0.392,0.325-0.589,0.42l-0.081,0.031l-0.028,0.01l-0.01,0.004l0,0l-0.037,0.012l-0.025,0.013
		c-0.01,0.004-0.01,0.004-0.026,0.006l-0.082,0.021c-0.054,0.012-0.101,0.012-0.136,0.019c-0.182,0.021-0.362,0-0.516-0.04
		c-0.326-0.092-0.57-0.264-0.77-0.447c-0.363-0.386-0.59-0.84-0.662-1.371c-0.036-0.271-0.027-0.555,0.045-0.853
		c0.066-0.294,0.21-0.588,0.42-0.842c0.34-0.422,0.822-0.657,1.229-0.772c0.016-0.013,0.035-0.017,0.054-0.024h2.534
		c0.227,0.047,0.436,0.094,0.643,0.149C186.863,121.146,187.587,121.48,188.257,121.907L188.257,121.907z" class="color c1"/>
    <path fill="#040000" d="M189.027,138.129c0.216-0.082,0.459-0.135,0.707-0.135c1.066,0,1.953,0.879,1.953,1.945
		c0,1.074-0.887,1.938-1.953,1.938c-0.248,0-0.491-0.044-0.707-0.131c-0.299-0.12-0.562-0.313-0.771-0.549
		c-0.277-0.345-0.46-0.782-0.46-1.259c0-0.483,0.183-0.916,0.46-1.258C188.467,138.441,188.729,138.254,189.027,138.129
		L189.027,138.129z" class="color c1"/>
    <path fill="#040000" d="M185.443,80.319h-2.535c0.396-0.113,0.771-0.135,1.113-0.135C184.512,80.185,184.98,80.234,185.443,80.319
		L185.443,80.319z" class="color c1"/>
    <path fill="#040000" d="M189.027,62.701c0.216,0.173,0.416,0.351,0.615,0.532c1.981,1.913,2.996,4.633,2.986,7.302
		c0.01,2.676-1.005,5.398-2.986,7.302c-0.199,0.193-0.399,0.369-0.615,0.535c-0.299,0.122-0.562,0.313-0.771,0.554
		c-0.67,0.426-1.393,0.751-2.172,0.967c-0.67,0.194-1.357,0.292-2.063,0.292c-0.354,0-0.752-0.031-1.168-0.157
		c-0.406-0.118-0.89-0.356-1.229-0.785c-0.21-0.241-0.354-0.538-0.42-0.832c-0.072-0.295-0.081-0.58-0.045-0.849
		c0.072-0.532,0.299-0.989,0.662-1.374c0.199-0.185,0.443-0.359,0.77-0.448c0.152-0.043,0.334-0.059,0.516-0.043
		c0.164,0.013,0.353,0.081,0.416,0.112c0.218,0.098,0.418,0.226,0.6,0.429c0.163,0.194,0.288,0.46,0.314,0.736
		c0.021,0.271-0.063,0.535-0.198,0.729c-0.154,0.191-0.337,0.31-0.509,0.366c-0.263,0.078-0.479,0.057-0.642-0.003
		c0.054,0.047,0.153,0.109,0.298,0.146c0.166,0.057,0.4,0.082,0.635,0.082c0.533-0.003,1.06-0.082,1.564-0.219
		c1.023-0.275,1.973-0.839,2.742-1.597c1.568-1.503,2.426-3.725,2.41-5.943c0.016-2.207-0.842-4.435-2.41-5.946
		c-0.77-0.748-1.719-1.309-2.742-1.587c-0.506-0.15-1.031-0.22-1.564-0.22c-0.233-0.005-0.469,0.025-0.635,0.072
		c-0.145,0.048-0.244,0.104-0.298,0.153c0.163-0.053,0.379-0.084,0.642-0.002c0.172,0.052,0.354,0.172,0.509,0.372
		c0.137,0.187,0.219,0.443,0.198,0.726c-0.026,0.275-0.151,0.545-0.314,0.738c-0.182,0.194-0.393,0.332-0.589,0.426l-0.081,0.025
		l-0.028,0.013l-0.01,0.003l0,0l-0.037,0.016l-0.024,0.006c-0.01,0.007-0.01,0.007-0.027,0.01l-0.082,0.016
		c-0.053,0.016-0.1,0.02-0.135,0.025c-0.182,0.018-0.363,0-0.516-0.044c-0.326-0.094-0.57-0.27-0.771-0.454
		c-0.363-0.379-0.589-0.835-0.662-1.368c-0.036-0.266-0.027-0.557,0.045-0.854c0.065-0.291,0.21-0.588,0.42-0.835
		c0.34-0.42,0.822-0.657,1.229-0.779c0.416-0.122,0.813-0.153,1.166-0.153c0.705,0.003,1.394,0.101,2.063,0.284
		c0.779,0.21,1.502,0.548,2.172,0.968C188.467,62.389,188.729,62.583,189.027,62.701L189.027,62.701z" class="color c1"/>
    <path fill="#040000" d="M188.257,42.861c0.21,0.245,0.474,0.436,0.771,0.548c0.217,0.173,0.416,0.354,0.617,0.539
		c1.98,1.905,2.994,4.632,2.985,7.298c0.009,2.673-1.005,5.402-2.985,7.305c-0.201,0.188-0.4,0.367-0.617,0.535
		c-0.297,0.116-0.561,0.308-0.771,0.552c-0.67,0.422-1.393,0.754-2.172,0.974c-0.67,0.181-1.358,0.281-2.063,0.281
		c-0.354,0-0.75-0.031-1.166-0.15c-0.407-0.122-0.891-0.357-1.229-0.782c-0.21-0.244-0.354-0.544-0.42-0.839
		c-0.072-0.297-0.081-0.582-0.045-0.851c0.073-0.533,0.299-0.986,0.662-1.365c0.198-0.188,0.442-0.363,0.77-0.457
		c0.152-0.04,0.335-0.06,0.517-0.04c0.162,0.012,0.352,0.08,0.416,0.115c0.217,0.094,0.416,0.222,0.599,0.422
		c0.163,0.194,0.288,0.46,0.315,0.736c0.02,0.275-0.063,0.544-0.199,0.735c-0.154,0.19-0.336,0.31-0.508,0.372
		c-0.264,0.075-0.479,0.044-0.643-0.016c0.055,0.051,0.153,0.112,0.299,0.159c0.164,0.051,0.399,0.069,0.635,0.069
		c0.531-0.003,1.059-0.069,1.563-0.21c1.024-0.284,1.974-0.852,2.742-1.599c1.567-1.509,2.426-3.728,2.41-5.947
		c0.016-2.209-0.843-4.428-2.41-5.94c-0.771-0.757-1.718-1.313-2.742-1.596c-0.506-0.144-1.032-0.212-1.563-0.212
		c-0.234,0-0.471,0.021-0.635,0.068c-0.146,0.047-0.244,0.106-0.299,0.162c0.163-0.063,0.379-0.094,0.643-0.012
		c0.172,0.056,0.354,0.178,0.508,0.368c0.137,0.188,0.219,0.457,0.199,0.727c-0.027,0.282-0.152,0.545-0.315,0.745
		c-0.183,0.197-0.392,0.325-0.589,0.414l-0.081,0.036l-0.028,0.013h-0.01v0.007l-0.037,0.006l-0.025,0.007
		c-0.01,0.006-0.01,0.012-0.026,0.019l-0.082,0.012c-0.054,0.01-0.101,0.02-0.136,0.026c-0.182,0.012-0.362,0-0.516-0.045
		c-0.326-0.094-0.57-0.269-0.77-0.457c-0.363-0.378-0.59-0.832-0.662-1.364c-0.036-0.27-0.027-0.557,0.045-0.852
		c0.066-0.294,0.21-0.594,0.42-0.838c0.34-0.43,0.822-0.664,1.229-0.783c0.016-0.003,0.035-0.006,0.054-0.013h2.534
		c0.227,0.041,0.436,0.092,0.643,0.145C186.863,42.107,187.587,42.437,188.257,42.861L188.257,42.861z" class="color c1"/>
    <path fill="#040000" d="M189.027,59.086c0.216-0.087,0.459-0.134,0.707-0.134c1.066,0,1.953,0.869,1.953,1.94
		c0,1.07-0.887,1.946-1.953,1.946c-0.248,0-0.491-0.05-0.707-0.138c-0.299-0.118-0.562-0.313-0.771-0.557
		c-0.277-0.335-0.46-0.77-0.46-1.252s0.183-0.914,0.46-1.255C188.467,59.394,188.729,59.202,189.027,59.086L189.027,59.086z" class="color c1"/>
    <path fill="#040000" d="M185.137,98.649c0.217-0.084,0.45-0.135,0.715-0.135c1.066,0,1.938,0.874,1.938,1.944
		c0,1.069-0.87,1.94-1.938,1.94c-0.265,0-0.498-0.049-0.715-0.133c-0.3-0.119-0.563-0.313-0.779-0.55
		c-0.28-0.342-0.453-0.782-0.453-1.259c0-0.482,0.173-0.921,0.453-1.255C184.573,98.962,184.837,98.774,185.137,98.649
		L185.137,98.649z" class="color c1"/>
    <path fill="#040000" d="M192.395,89.288c0.227-0.084,0.461-0.141,0.705-0.141c1.075,0,1.946,0.874,1.946,1.946
		c0,1.07-0.871,1.941-1.946,1.941c-0.244,0-0.479-0.051-0.705-0.138c-0.299-0.116-0.56-0.307-0.77-0.545
		c-0.291-0.342-0.46-0.782-0.46-1.259c0-0.475,0.169-0.919,0.46-1.258C191.835,89.595,192.096,89.404,192.395,89.288L192.395,89.288
		z" class="color c1"/>
    <path fill="#040000" d="M188.275,79.877c0.697,0.179,1.33,0.526,1.865,0.979c1.086,0.924,1.674,2.182,2.024,3.381
		c0.362,1.217,0.454,2.595,0.157,3.875c-0.291,1.289-0.924,2.444-1.649,3.439c-1.483,1.996-3.302,3.512-4.933,5.114
		c-0.958,0.936-1.818,1.746-2.451,2.337c-0.635,0.592-1.07,0.965-1.286,0.852c-0.21-0.112-0.94,1.371-0.94,0.416
		c0-1.789,2.472-3.88,3.467-4.851c1.675-1.644,3.449-3.143,4.742-4.892c0.642-0.873,1.129-1.815,1.357-2.796
		c0.225-0.988,0.162-2.015-0.129-3.017c-0.297-1.001-0.775-1.934-1.475-2.534c-0.703-0.604-1.631-0.846-2.56-0.687
		c-0.942,0.153-1.848,0.66-2.508,1.381c-0.5,0.538-0.853,1.187-1.005,1.877c0.097-0.019,0.206-0.037,0.316-0.037
		c0.531,0,1.004,0.27,1.268,0.67c0.097,0.129,0.179,0.294,0.234,0.532c0.043,0.235,0.033,0.557-0.101,0.883
		c-0.125,0.316-0.388,0.632-0.751,0.839c-0.37,0.209-0.871,0.321-1.393,0.159c-0.264-0.085-0.508-0.234-0.707-0.422
		c-0.197-0.194-0.346-0.414-0.437-0.639c-0.207-0.46-0.254-0.908-0.243-1.325c0.008-1.404,0.625-2.737,1.539-3.72
		c0.924-0.98,2.135-1.688,3.502-1.909C186.863,79.671,187.587,79.689,188.275,79.877L188.275,79.877z" class="color c1"/>
    <path fill="#040000" d="M192.395,111.859c0.227,0.082,0.461,0.133,0.705,0.133c1.075,0,1.946-0.864,1.946-1.947
		c0-1.066-0.871-1.938-1.946-1.938c-0.244,0-0.479,0.047-0.705,0.138c-0.299,0.122-0.56,0.301-0.77,0.551
		c-0.291,0.335-0.46,0.776-0.46,1.249c0,0.484,0.169,0.917,0.46,1.258C191.835,111.545,192.096,111.738,192.395,111.859
		L192.395,111.859z" class="color c1"/>
    <path fill="#040000" d="M188.275,121.27c0.697-0.18,1.33-0.528,1.865-0.986c1.086-0.92,1.674-2.172,2.024-3.374
		c0.362-1.224,0.454-2.591,0.157-3.882c-0.291-1.281-0.924-2.435-1.649-3.43c-1.483-1.996-3.302-3.518-4.933-5.119
		c-0.958-0.934-1.818-1.746-2.451-2.343c-0.635-0.585-1.07-0.96-1.286-0.841c-0.21,0.109-0.94-1.381-0.94-0.426
		c0,1.793,2.472,3.884,3.467,4.848c1.675,1.648,3.449,3.148,4.742,4.904c0.642,0.867,1.129,1.806,1.357,2.795
		c0.225,0.979,0.162,2.006-0.129,3.005c-0.297,1.015-0.775,1.945-1.475,2.534c-0.703,0.613-1.631,0.852-2.56,0.688
		c-0.942-0.144-1.848-0.66-2.508-1.369c-0.5-0.539-0.853-1.196-1.005-1.885c0.097,0.024,0.206,0.031,0.316,0.031
		c0.531,0,1.004-0.264,1.268-0.671c0.097-0.125,0.179-0.294,0.234-0.522c0.043-0.246,0.033-0.56-0.101-0.879
		c-0.125-0.318-0.388-0.639-0.751-0.852c-0.37-0.2-0.871-0.313-1.393-0.15c-0.264,0.075-0.508,0.227-0.707,0.42
		c-0.197,0.188-0.346,0.42-0.437,0.646c-0.207,0.454-0.254,0.901-0.243,1.319c0.008,1.405,0.625,2.742,1.539,3.72
		c0.924,0.981,2.135,1.684,3.502,1.915C186.863,121.473,187.587,121.453,188.275,121.27L188.275,121.27z" class="color c1"/>
    <path fill="#040000" d="M158.348,7.299c0.08-0.219,0.215-0.422,0.396-0.599c0.771-0.754,1.991-0.754,2.741,0
		c0.771,0.755,0.771,1.991,0,2.746c-0.162,0.178-0.368,0.309-0.598,0.406c-0.287,0.131-0.607,0.181-0.933,0.159
		c-0.433-0.04-0.876-0.225-1.212-0.565c-0.334-0.339-0.525-0.771-0.555-1.212C158.154,7.919,158.208,7.596,158.348,7.299
		L158.348,7.299z" class="color c1"/>
    <path fill="#040000" d="M41.663,7.299C41.572,7.08,41.438,6.877,41.257,6.7c-0.762-0.754-1.991-0.754-2.742,0
		c-0.761,0.755-0.761,1.991,0,2.746c0.182,0.178,0.379,0.309,0.598,0.406c0.288,0.131,0.613,0.181,0.93,0.159
		c0.444-0.04,0.879-0.225,1.215-0.565c0.334-0.339,0.525-0.771,0.56-1.212C41.845,7.919,41.792,7.596,41.663,7.299L41.663,7.299z" class="color c1"/>
    <path fill="#040000" d="M9.724,43.472c-0.215-0.094-0.416-0.225-0.598-0.4c-0.751-0.764-0.751-1.987,0-2.753
		c0.752-0.755,1.981-0.755,2.742,0c0.182,0.178,0.318,0.387,0.406,0.604c0.129,0.294,0.182,0.619,0.163,0.929
		c-0.044,0.451-0.234,0.88-0.569,1.221c-0.335,0.332-0.776,0.526-1.211,0.561C10.341,43.653,10.013,43.604,9.724,43.472
		L9.724,43.472z" class="color c1"/>
    <path fill="#040000" d="M9.289,156.98c-0.216,0.102-0.417,0.232-0.599,0.404c-0.75,0.762-0.75,1.99,0,2.752
		c0.771,0.758,1.991,0.758,2.752,0c0.172-0.183,0.311-0.387,0.407-0.599c0.138-0.297,0.181-0.62,0.156-0.931
		c-0.028-0.449-0.22-0.883-0.563-1.224c-0.335-0.336-0.77-0.526-1.221-0.56C9.915,156.8,9.596,156.852,9.289,156.98L9.289,156.98z" class="color c1"/>
    <path fill="#040000" d="M188.988,43.472c-0.215-0.094-0.415-0.225-0.594-0.4c-0.754-0.764-0.754-1.987,0-2.753
		c0.76-0.755,1.99-0.755,2.742,0c0.182,0.178,0.314,0.387,0.415,0.604c0.116,0.294,0.173,0.619,0.153,0.929
		c-0.047,0.451-0.234,0.88-0.568,1.221c-0.336,0.332-0.762,0.526-1.216,0.561C189.605,43.653,189.3,43.604,188.988,43.472
		L188.988,43.472z" class="color c1"/>
    <path fill="#040000" d="M188.611,157.908c-0.217,0.094-0.426,0.229-0.607,0.41c-0.751,0.761-0.751,1.99,0,2.74
		c0.771,0.762,1.99,0.762,2.762,0c0.172-0.178,0.299-0.377,0.399-0.598c0.135-0.288,0.188-0.613,0.153-0.936
		c-0.028-0.441-0.221-0.871-0.555-1.209c-0.345-0.342-0.777-0.527-1.212-0.561C189.236,157.727,188.908,157.783,188.611,157.908
		L188.611,157.908z" class="color c1"/>
    <path fill="#040000" d="M170.255,29.563c-0.216-0.016-0.368-0.81-0.341-2.24c0.054-1.428,0.25-3.49,0.977-5.987
		c0.362-1.249,0.857-2.614,1.627-4.003c0.393-0.689,0.842-1.396,1.402-2.075c0.156-0.166,0.301-0.329,0.443-0.498
		c0.154-0.163,0.308-0.316,0.464-0.466c0.307-0.304,0.623-0.604,0.978-0.895c1.377-1.162,3.076-2.207,5.15-2.695
		c1.029-0.235,2.152-0.325,3.313-0.135c1.139,0.185,2.373,0.666,3.349,1.637c0.968,0.989,1.44,2.2,1.638,3.349
		c0.189,1.165,0.109,2.285-0.135,3.314c-0.479,2.068-1.531,3.771-2.697,5.146c-0.281,0.348-0.58,0.673-0.896,0.979
		c-0.144,0.16-0.291,0.307-0.463,0.457c-0.162,0.156-0.324,0.307-0.506,0.444c-0.677,0.563-1.375,1.021-2.072,1.402
		c-1.393,0.776-2.752,1.271-3.99,1.64c-2.497,0.714-4.572,0.924-5.993,0.971C171.077,29.939,170.283,29.779,170.255,29.563
		c-0.017-0.219,0.728-0.481,2.047-0.879c1.32-0.407,3.239-0.942,5.439-1.862c1.096-0.47,2.272-1.033,3.384-1.771
		c0.555-0.366,1.096-0.789,1.593-1.249c0.128-0.122,0.247-0.241,0.363-0.363c0.118-0.125,0.244-0.267,0.372-0.403
		c0.234-0.269,0.47-0.558,0.693-0.851c0.908-1.174,1.642-2.548,1.93-3.988c0.145-0.707,0.182-1.439,0.063-2.109
		c-0.105-0.666-0.396-1.268-0.767-1.634c-0.373-0.375-0.972-0.657-1.642-0.775c-0.66-0.116-1.393-0.085-2.114,0.063
		c-1.431,0.293-2.798,1.032-3.984,1.927c-0.288,0.229-0.569,0.464-0.853,0.708c-0.135,0.119-0.278,0.25-0.405,0.372
		c-0.106,0.112-0.235,0.235-0.354,0.36c-0.461,0.488-0.877,1.032-1.25,1.59c-0.74,1.117-1.311,2.285-1.765,3.38
		c-0.92,2.21-1.455,4.119-1.862,5.439C170.729,28.844,170.482,29.582,170.255,29.563L170.255,29.563z" class="color c1"/>
    <path fill="#040000" d="M189.859,39.075c0.363-0.617,0.578-1.317,0.636-2.02c0.098-1.414-0.363-2.716-0.972-3.814
		c-0.605-1.126-1.512-2.156-2.625-2.857c-1.11-0.704-2.379-1.071-3.594-1.258c-2.469-0.37-4.822-0.147-7.104-0.132
		c-1.35,0.019-2.527,0.057-3.385,0.085c-0.869,0.03-1.439,0.065-1.512,0.303c-0.072,0.226-1.64-0.303-0.961,0.369
		c1.268,1.266,4.481,1.002,5.875,0.974c2.344-0.016,4.66-0.213,6.807,0.119c1.088,0.159,2.092,0.47,2.949,1.008
		c0.842,0.542,1.529,1.308,2.027,2.223c0.507,0.923,0.833,1.918,0.762,2.842c-0.072,0.916-0.562,1.742-1.33,2.294
		c-0.771,0.547-1.775,0.832-2.752,0.797c-0.731-0.027-1.439-0.246-2.037-0.622c0.09-0.057,0.172-0.125,0.263-0.2
		c0.372-0.373,0.507-0.896,0.417-1.367c-0.035-0.151-0.082-0.335-0.207-0.529c-0.139-0.206-0.373-0.426-0.697-0.563
		c-0.307-0.135-0.725-0.176-1.133-0.065c-0.407,0.109-0.834,0.391-1.084,0.873c-0.139,0.237-0.2,0.525-0.209,0.794
		c0,0.283,0.063,0.54,0.145,0.771c0.182,0.464,0.463,0.813,0.76,1.102c1.015,0.982,2.381,1.503,3.722,1.54
		c1.354,0.047,2.704-0.319,3.828-1.127C189.009,40.215,189.506,39.691,189.859,39.075L189.859,39.075z" class="color c1"/>
    <path fill="#040000" d="M170.164,13.553c0.091-0.223,0.22-0.427,0.4-0.599c0.761-0.761,1.99-0.761,2.75,0
		c0.762,0.751,0.762,1.981,0,2.745c-0.172,0.168-0.391,0.307-0.606,0.406c-0.291,0.125-0.606,0.179-0.933,0.147
		c-0.436-0.032-0.866-0.223-1.211-0.554c-0.336-0.341-0.525-0.771-0.563-1.215C169.977,14.163,170.029,13.84,170.164,13.553
		L170.164,13.553z" class="color c1"/>
    <path fill="#040000" d="M183.507,27.054c0.091-0.216,0.226-0.419,0.406-0.595c0.751-0.76,1.976-0.76,2.741,0
		c0.75,0.758,0.75,1.99,0,2.748c-0.178,0.175-0.389,0.311-0.598,0.407c-0.289,0.125-0.613,0.175-0.938,0.146
		c-0.444-0.034-0.87-0.216-1.205-0.554c-0.354-0.341-0.524-0.776-0.57-1.215C183.325,27.673,183.378,27.348,183.507,27.054
		L183.507,27.054z" class="color c1"/>
    <path fill="#040000" d="M160.6,9.803c0.607-0.356,1.313-0.57,2.01-0.623c1.412-0.109,2.714,0.359,3.817,0.955
		c1.134,0.613,2.153,1.511,2.861,2.635c0.696,1.117,1.065,2.372,1.258,3.6c0.363,2.45,0.146,4.816,0.119,7.098
		c-0.011,1.346-0.047,2.525-0.075,3.39c-0.023,0.867-0.072,1.437-0.298,1.506c-0.233,0.068,0.298,1.64-0.378,0.96
		c-1.26-1.261-0.998-4.484-0.979-5.874c0.026-2.354,0.225-4.663-0.11-6.817c-0.163-1.07-0.47-2.077-1.005-2.935
		c-0.551-0.855-1.312-1.534-2.226-2.034c-0.923-0.514-1.928-0.827-2.852-0.752c-0.904,0.066-1.736,0.552-2.281,1.321
		c-0.562,0.764-0.842,1.771-0.795,2.751c0.019,0.723,0.226,1.443,0.612,2.037c0.058-0.094,0.13-0.175,0.201-0.259
		c0.381-0.373,0.896-0.508,1.367-0.417c0.153,0.031,0.346,0.082,0.535,0.213c0.207,0.138,0.422,0.366,0.561,0.688
		c0.136,0.315,0.183,0.713,0.063,1.133c-0.101,0.4-0.389,0.839-0.88,1.093c-0.243,0.131-0.514,0.2-0.786,0.2
		c-0.28,0.003-0.544-0.054-0.778-0.147c-0.459-0.175-0.813-0.463-1.097-0.754c-0.983-1.012-1.502-2.385-1.534-3.728
		c-0.058-1.346,0.324-2.704,1.129-3.825C159.457,10.653,159.982,10.165,160.6,9.803L160.6,9.803z" class="color c1"/>
    <path fill="#040000" d="M29.745,29.563c0.216-0.016,0.379-0.81,0.335-2.24c-0.028-1.428-0.238-3.49-0.961-5.987
		c-0.369-1.249-0.86-2.614-1.637-4.003c-0.392-0.689-0.843-1.396-1.405-2.075c-0.145-0.166-0.288-0.329-0.441-0.498
		c-0.153-0.163-0.301-0.316-0.463-0.466c-0.298-0.304-0.623-0.604-0.968-0.895c-1.386-1.162-3.085-2.207-5.157-2.695
		c-1.023-0.235-2.147-0.325-3.314-0.135c-1.14,0.185-2.363,0.666-3.34,1.637c-0.977,0.989-1.449,2.2-1.641,3.349
		c-0.196,1.165-0.096,2.285,0.129,3.314c0.488,2.068,1.549,3.771,2.697,5.146c0.289,0.348,0.59,0.673,0.896,0.979
		c0.162,0.16,0.307,0.307,0.463,0.457c0.172,0.156,0.335,0.307,0.504,0.444c0.679,0.563,1.387,1.021,2.074,1.402
		c1.393,0.776,2.742,1.271,4,1.64c2.498,0.714,4.561,0.924,5.98,0.971C28.929,29.939,29.727,29.779,29.745,29.563
		c0.016-0.219-0.727-0.481-2.047-0.879c-1.312-0.407-3.229-0.942-5.43-1.862c-1.105-0.47-2.282-1.033-3.387-1.771
		c-0.561-0.366-1.102-0.789-1.594-1.249c-0.125-0.122-0.243-0.241-0.359-0.363c-0.128-0.125-0.244-0.267-0.373-0.403
		c-0.244-0.269-0.469-0.558-0.703-0.851c-0.889-1.174-1.641-2.548-1.929-3.988c-0.146-0.707-0.181-1.439-0.065-2.109
		c0.119-0.666,0.4-1.268,0.779-1.634c0.363-0.375,0.961-0.657,1.631-0.775c0.66-0.116,1.393-0.085,2.115,0.063
		c1.439,0.293,2.808,1.032,3.984,1.927c0.297,0.229,0.579,0.464,0.861,0.708c0.125,0.119,0.269,0.25,0.396,0.372
		c0.116,0.112,0.244,0.235,0.354,0.36c0.461,0.488,0.887,1.032,1.25,1.59c0.741,1.117,1.311,2.285,1.771,3.38
		c0.924,2.21,1.468,4.119,1.866,5.439C29.263,28.844,29.526,29.582,29.745,29.563L29.745,29.563z" class="color c1"/>
    <path fill="#040000" d="M10.141,39.075c-0.354-0.617-0.561-1.317-0.617-2.02c-0.115-1.414,0.345-2.716,0.952-3.814
		c0.607-1.126,1.512-2.156,2.632-2.857c1.124-0.704,2.382-1.071,3.593-1.258c2.463-0.37,4.816-0.147,7.107-0.132
		c1.34,0.019,2.523,0.057,3.393,0.085c0.861,0.03,1.431,0.065,1.493,0.303c0.072,0.226,1.646-0.303,0.97,0.369
		c-1.258,1.266-4.49,1.002-5.883,0.974c-2.354-0.016-4.66-0.213-6.808,0.119c-1.067,0.159-2.081,0.47-2.942,1.008
		c-0.848,0.542-1.545,1.308-2.034,2.223c-0.507,0.923-0.823,1.918-0.741,2.842c0.063,0.916,0.541,1.742,1.32,2.294
		c0.761,0.547,1.766,0.832,2.742,0.797c0.732-0.027,1.449-0.246,2.037-0.622c-0.091-0.057-0.172-0.125-0.254-0.2
		c-0.382-0.373-0.516-0.896-0.416-1.367c0.025-0.151,0.082-0.335,0.216-0.529c0.128-0.206,0.354-0.426,0.679-0.563
		c0.326-0.135,0.724-0.176,1.131-0.065c0.4,0.109,0.842,0.391,1.104,0.873c0.128,0.237,0.182,0.525,0.2,0.794
		c0,0.283-0.053,0.54-0.153,0.771c-0.172,0.464-0.463,0.813-0.751,1.102c-1.005,0.982-2.392,1.503-3.73,1.54
		c-1.34,0.047-2.704-0.319-3.828-1.127C10.991,40.215,10.494,39.691,10.141,39.075L10.141,39.075z" class="color c1"/>
    <path fill="#040000" d="M29.852,13.553c-0.101-0.223-0.235-0.427-0.407-0.599c-0.77-0.761-1.99-0.761-2.75,0
		c-0.762,0.751-0.762,1.981,0,2.745c0.181,0.168,0.378,0.307,0.598,0.406c0.297,0.125,0.606,0.179,0.932,0.147
		c0.445-0.032,0.877-0.223,1.221-0.554c0.335-0.341,0.517-0.771,0.555-1.215C30.023,14.163,29.979,13.84,29.852,13.553
		L29.852,13.553z" class="color c1"/>
    <path fill="#040000" d="M16.503,27.054c-0.1-0.216-0.216-0.419-0.397-0.595c-0.77-0.76-1.993-0.76-2.761,0
		c-0.75,0.758-0.75,1.99,0,2.748c0.182,0.175,0.389,0.311,0.613,0.407c0.291,0.125,0.617,0.175,0.934,0.146
		c0.435-0.034,0.869-0.216,1.214-0.554c0.335-0.341,0.522-0.776,0.551-1.215C16.694,27.673,16.638,27.348,16.503,27.054
		L16.503,27.054z" class="color c1"/>
    <path fill="#040000" d="M39.4,9.803c-0.604-0.356-1.302-0.57-2.009-0.623c-1.412-0.109-2.714,0.359-3.81,0.955
		c-1.124,0.613-2.163,1.511-2.851,2.635c-0.717,1.117-1.077,2.372-1.268,3.6c-0.373,2.45-0.145,4.816-0.126,7.098
		c0.007,1.346,0.054,2.525,0.072,3.39c0.034,0.867,0.072,1.437,0.316,1.506c0.216,0.068-0.316,1.64,0.354,0.96
		c1.268-1.261,1.005-4.484,0.985-5.874c-0.019-2.354-0.219-4.663,0.107-6.817c0.165-1.07,0.481-2.077,1.022-2.935
		c0.535-0.855,1.306-1.534,2.21-2.034c0.933-0.514,1.928-0.827,2.852-0.752c0.914,0.066,1.736,0.552,2.297,1.321
		c0.545,0.764,0.826,1.771,0.798,2.751c-0.038,0.723-0.244,1.443-0.626,2.037c-0.063-0.094-0.125-0.175-0.207-0.259
		c-0.371-0.373-0.889-0.508-1.357-0.417c-0.163,0.031-0.335,0.082-0.535,0.213c-0.217,0.138-0.432,0.366-0.57,0.688
		c-0.125,0.315-0.182,0.713-0.063,1.133c0.119,0.4,0.389,0.839,0.877,1.093c0.244,0.131,0.525,0.2,0.798,0.2
		c0.282,0.003,0.535-0.054,0.771-0.147c0.459-0.175,0.813-0.463,1.095-0.754c0.985-1.012,1.503-2.385,1.546-3.728
		c0.037-1.346-0.316-2.704-1.12-3.825C40.55,10.653,40.026,10.165,39.4,9.803L39.4,9.803z" class="color c1"/>
    <path fill="#040000" d="M41.237,190.4v-2.537c-0.106,0.396-0.135,0.771-0.135,1.126C41.103,189.462,41.156,189.938,41.237,190.4
		L41.237,190.4z" class="color c1"/>
    <path fill="#040000" d="M158.814,190.4v-2.537c-0.119,0.396-0.144,0.771-0.144,1.126
		C158.682,189.462,158.725,189.938,158.814,190.4L158.814,190.4z" class="color c1"/>
    <path fill="#040000" d="M141.195,193.98c0.162,0.221,0.345,0.42,0.531,0.613c1.91,1.977,4.635,2.999,7.306,2.992
		c2.67,0.007,5.396-1.018,7.305-2.992c0.188-0.193,0.358-0.394,0.531-0.613c0.118-0.304,0.301-0.563,0.555-0.771
		c0.416-0.662,0.761-1.392,0.968-2.161c0.19-0.667,0.281-1.367,0.281-2.061c0-0.372-0.038-0.764-0.145-1.187
		c-0.129-0.409-0.362-0.87-0.789-1.227c-0.243-0.2-0.534-0.345-0.842-0.414c-0.291-0.075-0.588-0.081-0.852-0.047
		c-0.535,0.081-0.977,0.295-1.367,0.674c-0.18,0.187-0.352,0.438-0.451,0.75c-0.043,0.163-0.063,0.339-0.043,0.521
		c0.016,0.166,0.086,0.356,0.115,0.41c0.109,0.225,0.234,0.426,0.436,0.598c0.182,0.173,0.459,0.302,0.731,0.319
		c0.272,0.028,0.545-0.063,0.731-0.2c0.191-0.139,0.311-0.332,0.363-0.504c0.071-0.264,0.045-0.477-0.01-0.63
		c0.055,0.046,0.119,0.138,0.153,0.288c0.057,0.176,0.081,0.391,0.081,0.639c0,0.525-0.081,1.051-0.217,1.564
		c-0.28,1.014-0.842,1.959-1.603,2.742c-1.502,1.564-3.728,2.419-5.937,2.41c-2.227,0.009-4.437-0.846-5.946-2.41
		c-0.751-0.783-1.312-1.729-1.603-2.742c-0.136-0.514-0.207-1.039-0.207-1.564c0-0.248,0.024-0.463,0.071-0.639
		c0.044-0.15,0.109-0.242,0.163-0.288c-0.063,0.153-0.102,0.366-0.01,0.63c0.044,0.172,0.173,0.365,0.363,0.504
		c0.188,0.138,0.459,0.229,0.73,0.2c0.273-0.019,0.543-0.146,0.733-0.319c0.2-0.172,0.335-0.383,0.416-0.582l0.047-0.082v-0.019
		l0.007-0.013v-0.003l0.01-0.034l0.018-0.027c0-0.01,0-0.017,0.011-0.033l0.019-0.078c0.01-0.055,0.01-0.104,0.02-0.137
		c0.006-0.182,0-0.356-0.047-0.521c-0.09-0.313-0.264-0.563-0.451-0.75c-0.381-0.379-0.834-0.593-1.367-0.674
		c-0.271-0.034-0.551-0.028-0.842,0.047c-0.297,0.069-0.598,0.214-0.842,0.414c-0.437,0.356-0.66,0.815-0.789,1.227
		c-0.125,0.423-0.145,0.813-0.145,1.187c0,0.691,0.092,1.394,0.282,2.061c0.205,0.77,0.541,1.499,0.968,2.161
		C140.876,193.419,141.077,193.678,141.195,193.98L141.195,193.98z" class="color c1"/>
    <path fill="#040000" d="M121.365,193.211c0.234,0.208,0.426,0.467,0.542,0.771c0.161,0.22,0.344,0.42,0.534,0.613
		c1.899,1.975,4.625,2.998,7.306,2.991c2.67,0.007,5.394-1.017,7.301-2.991c0.183-0.193,0.363-0.395,0.535-0.613
		c0.106-0.305,0.308-0.563,0.551-0.771c0.417-0.662,0.752-1.393,0.978-2.161c0.176-0.667,0.271-1.368,0.281-2.061
		c0-0.372-0.033-0.765-0.162-1.187c-0.119-0.41-0.354-0.869-0.771-1.227c-0.254-0.2-0.562-0.346-0.853-0.414
		c-0.287-0.075-0.578-0.081-0.848-0.047c-0.535,0.082-0.986,0.295-1.359,0.674c-0.189,0.188-0.371,0.438-0.453,0.75
		c-0.053,0.163-0.063,0.339-0.053,0.521c0.027,0.164,0.082,0.355,0.115,0.409c0.094,0.226,0.229,0.425,0.426,0.597
		c0.191,0.174,0.463,0.303,0.736,0.32c0.287,0.028,0.551-0.063,0.73-0.199c0.197-0.14,0.315-0.332,0.373-0.504
		c0.082-0.265,0.054-0.478-0.01-0.631c0.053,0.045,0.115,0.139,0.153,0.288c0.054,0.175,0.072,0.392,0.072,0.64
		c0,0.524-0.072,1.051-0.212,1.563c-0.276,1.015-0.85,1.959-1.592,2.742c-1.512,1.563-3.729,2.419-5.942,2.409
		c-2.22,0.01-4.438-0.846-5.947-2.409c-0.751-0.783-1.323-1.729-1.592-2.742c-0.147-0.515-0.22-1.039-0.22-1.563
		c0-0.248,0.019-0.465,0.07-0.64c0.049-0.149,0.11-0.243,0.157-0.288c-0.057,0.153-0.081,0.366-0.009,0.631
		c0.053,0.172,0.178,0.364,0.367,0.504c0.191,0.137,0.465,0.229,0.732,0.199c0.272-0.019,0.545-0.146,0.736-0.32
		c0.195-0.172,0.335-0.381,0.425-0.582l0.035-0.08l0.009-0.02v-0.013v-0.003l0.01-0.034l0.01-0.028
		c0.01-0.009,0.01-0.016,0.01-0.031l0.025-0.078c0.009-0.057,0.009-0.104,0.019-0.137c0.019-0.183,0-0.357-0.044-0.521
		c-0.091-0.313-0.254-0.563-0.443-0.75c-0.39-0.379-0.844-0.592-1.379-0.674c-0.269-0.034-0.55-0.028-0.848,0.047
		c-0.301,0.068-0.598,0.214-0.832,0.414c-0.436,0.355-0.664,0.816-0.789,1.227c0,0.024-0.01,0.047-0.01,0.061v2.537
		c0.037,0.22,0.082,0.438,0.145,0.648C120.596,191.818,120.932,192.549,121.365,193.211L121.365,193.211z" class="color c1"/>
    <path fill="#040000" d="M137.583,193.98c-0.09,0.224-0.138,0.465-0.138,0.715c0,1.07,0.871,1.939,1.947,1.939
		c1.066,0,1.938-0.869,1.938-1.939c0-0.25-0.055-0.491-0.135-0.715c-0.118-0.304-0.319-0.563-0.555-0.771
		c-0.334-0.287-0.779-0.459-1.248-0.459c-0.479,0-0.924,0.172-1.26,0.459C137.891,193.419,137.689,193.678,137.583,193.98
		L137.583,193.98z" class="color c1"/>
    <path fill="#040000" d="M79.768,190.4v-2.537c-0.109,0.396-0.138,0.771-0.138,1.126C79.63,189.462,79.677,189.938,79.768,190.4
		L79.768,190.4z" class="color c1"/>
    <path fill="#040000" d="M62.153,193.98c0.163,0.221,0.345,0.42,0.535,0.613c1.9,1.977,4.627,2.999,7.305,2.992
		c2.67,0.007,5.393-1.018,7.293-2.992c0.19-0.193,0.363-0.394,0.544-0.613c0.11-0.304,0.298-0.563,0.545-0.771
		c0.423-0.662,0.751-1.392,0.968-2.161c0.19-0.667,0.287-1.367,0.287-2.061c0-0.372-0.034-0.764-0.162-1.187
		c-0.106-0.409-0.342-0.87-0.768-1.227c-0.254-0.2-0.554-0.345-0.842-0.414c-0.291-0.075-0.588-0.081-0.852-0.047
		c-0.535,0.081-0.985,0.295-1.367,0.674c-0.191,0.187-0.363,0.438-0.451,0.75c-0.047,0.163-0.065,0.339-0.047,0.521
		c0.01,0.166,0.072,0.356,0.119,0.41c0.091,0.225,0.216,0.426,0.416,0.598c0.197,0.173,0.471,0.302,0.742,0.319
		c0.272,0.028,0.532-0.063,0.732-0.2c0.191-0.139,0.307-0.332,0.373-0.504c0.071-0.264,0.043-0.477-0.01-0.63
		c0.053,0.046,0.115,0.138,0.152,0.288c0.054,0.176,0.072,0.391,0.072,0.639c0,0.525-0.072,1.051-0.215,1.564
		c-0.282,1.014-0.842,1.959-1.594,2.742c-1.512,1.564-3.73,2.419-5.938,2.41c-2.229,0.009-4.443-0.846-5.955-2.41
		c-0.742-0.783-1.312-1.729-1.594-2.742c-0.144-0.514-0.209-1.039-0.209-1.564c-0.01-0.248,0.019-0.463,0.065-0.639
		c0.054-0.15,0.116-0.242,0.153-0.288c-0.057,0.153-0.081,0.366,0,0.63c0.053,0.172,0.172,0.365,0.369,0.504
		c0.191,0.138,0.454,0.229,0.735,0.2c0.269-0.019,0.532-0.146,0.732-0.319c0.197-0.172,0.326-0.383,0.417-0.582l0.034-0.082
		l0.009-0.019l0.01-0.013v-0.003v-0.034l0.02-0.027c0-0.01,0-0.017,0.009-0.033l0.019-0.078c0.016-0.055,0.016-0.104,0.016-0.137
		c0.02-0.182,0-0.356-0.043-0.521c-0.082-0.313-0.264-0.563-0.455-0.75c-0.369-0.379-0.822-0.593-1.354-0.674
		c-0.272-0.034-0.554-0.028-0.86,0.047c-0.291,0.069-0.59,0.214-0.843,0.414c-0.416,0.356-0.65,0.815-0.77,1.227
		c-0.125,0.423-0.163,0.813-0.163,1.187c0.02,0.691,0.109,1.394,0.301,2.061c0.207,0.77,0.541,1.499,0.957,2.161
		C61.837,193.419,62.038,193.678,62.153,193.98L62.153,193.98z" class="color c1"/>
    <path fill="#040000" d="M42.308,193.211c0.25,0.208,0.441,0.467,0.551,0.771c0.172,0.22,0.354,0.42,0.542,0.613
		c1.903,1.975,4.626,2.998,7.296,2.991c2.678,0.007,5.404-1.017,7.305-2.991c0.19-0.193,0.369-0.395,0.531-0.613
		c0.119-0.305,0.311-0.563,0.545-0.771c0.436-0.662,0.77-1.393,0.977-2.161c0.191-0.667,0.281-1.368,0.281-2.061
		c0-0.372-0.019-0.765-0.144-1.187c-0.128-0.41-0.354-0.869-0.789-1.227c-0.235-0.2-0.542-0.346-0.833-0.414
		c-0.297-0.075-0.578-0.081-0.851-0.047c-0.532,0.082-0.986,0.295-1.358,0.674c-0.188,0.188-0.369,0.438-0.451,0.75
		c-0.056,0.163-0.071,0.339-0.056,0.521c0.019,0.164,0.085,0.355,0.118,0.409c0.092,0.226,0.226,0.425,0.416,0.597
		c0.201,0.174,0.464,0.303,0.742,0.32c0.273,0.028,0.545-0.063,0.732-0.199c0.191-0.14,0.32-0.332,0.373-0.504
		c0.081-0.265,0.053-0.478-0.01-0.631c0.047,0.045,0.109,0.139,0.153,0.288c0.057,0.175,0.072,0.392,0.072,0.64
		c0,0.524-0.072,1.051-0.216,1.563c-0.288,1.015-0.842,1.959-1.594,2.742c-1.512,1.563-3.727,2.419-5.945,2.409
		c-2.207,0.01-4.436-0.846-5.938-2.409c-0.752-0.783-1.32-1.729-1.603-2.742c-0.135-0.515-0.207-1.039-0.216-1.563
		c0-0.248,0.027-0.465,0.081-0.64c0.038-0.149,0.101-0.243,0.153-0.288c-0.063,0.153-0.091,0.366-0.01,0.631
		c0.057,0.172,0.182,0.364,0.373,0.504c0.182,0.137,0.46,0.229,0.732,0.199c0.271-0.019,0.535-0.146,0.732-0.32
		c0.2-0.172,0.334-0.381,0.416-0.582l0.047-0.08v-0.02l0.01-0.013v-0.003l0.006-0.034l0.01-0.028c0-0.009,0-0.016,0.01-0.031
		l0.018-0.078c0.02-0.057,0.02-0.104,0.02-0.137c0.019-0.183,0-0.357-0.047-0.521c-0.082-0.313-0.26-0.563-0.451-0.75
		c-0.372-0.379-0.832-0.592-1.358-0.674c-0.272-0.034-0.569-0.028-0.86,0.047c-0.297,0.068-0.588,0.214-0.833,0.414
		c-0.425,0.355-0.669,0.816-0.775,1.227c0,0.024-0.019,0.047-0.019,0.061v2.537c0.033,0.22,0.09,0.438,0.152,0.648
		C41.557,191.818,41.888,192.549,42.308,193.211L42.308,193.211z" class="color c1"/>
    <path fill="#040000" d="M58.532,193.98c-0.088,0.224-0.135,0.465-0.135,0.715c0,1.07,0.87,1.939,1.938,1.939
		c1.076,0,1.957-0.869,1.957-1.939c0-0.25-0.057-0.491-0.139-0.715c-0.115-0.304-0.316-0.563-0.561-0.771
		c-0.334-0.287-0.77-0.459-1.258-0.459c-0.479,0-0.904,0.172-1.258,0.459C58.843,193.419,58.651,193.678,58.532,193.98
		L58.532,193.98z" class="color c1"/>
    <path fill="#040000" d="M98.105,190.088c-0.091,0.227-0.138,0.464-0.138,0.707c0,1.077,0.869,1.947,1.938,1.947
		c1.076,0,1.945-0.87,1.945-1.947c0-0.243-0.053-0.48-0.134-0.707c-0.118-0.297-0.319-0.563-0.554-0.768
		c-0.335-0.293-0.779-0.465-1.258-0.465c-0.489,0-0.914,0.172-1.25,0.465C98.411,189.523,98.212,189.791,98.105,190.088
		L98.105,190.088z" class="color c1"/>
    <path fill="#040000" d="M88.737,197.35c-0.09,0.219-0.137,0.457-0.137,0.711c0,1.072,0.869,1.939,1.938,1.939
		c1.076,0,1.945-0.867,1.945-1.939c0-0.254-0.056-0.492-0.138-0.711c-0.115-0.304-0.315-0.566-0.541-0.771
		c-0.345-0.284-0.788-0.463-1.267-0.463c-0.471,0-0.915,0.179-1.25,0.463C89.035,196.782,88.862,197.046,88.737,197.35
		L88.737,197.35z" class="color c1"/>
    <path fill="#040000" d="M79.323,193.236c0.182,0.683,0.535,1.334,0.986,1.863c0.923,1.078,2.172,1.668,3.377,2.023
		c1.221,0.363,2.588,0.45,3.874,0.15c1.284-0.282,2.444-0.918,3.439-1.646c2-1.479,3.503-3.307,5.12-4.934
		c0.934-0.963,1.741-1.82,2.336-2.457c0.588-0.629,0.96-1.062,0.851-1.272c-0.116-0.21,1.368-0.938,0.407-0.938
		c-1.781,0-3.871,2.464-4.842,3.459c-1.646,1.681-3.139,3.451-4.896,4.748c-0.879,0.639-1.812,1.129-2.798,1.353
		c-0.985,0.224-2.01,0.162-3.014-0.132c-1.005-0.288-1.938-0.773-2.535-1.48c-0.595-0.697-0.839-1.617-0.686-2.551
		c0.153-0.934,0.66-1.844,1.374-2.504c0.535-0.501,1.196-0.857,1.894-1.008c-0.027,0.105-0.047,0.212-0.047,0.324
		c0,0.529,0.272,0.996,0.67,1.262c0.128,0.092,0.291,0.182,0.525,0.229c0.234,0.045,0.551,0.039,0.877-0.094
		c0.325-0.135,0.645-0.382,0.86-0.75c0.2-0.359,0.315-0.871,0.144-1.393c-0.081-0.262-0.225-0.518-0.416-0.705
		c-0.188-0.2-0.416-0.344-0.641-0.444c-0.461-0.204-0.905-0.251-1.331-0.243c-1.401,0.019-2.731,0.631-3.712,1.545
		c-0.986,0.92-1.684,2.139-1.909,3.506C79.126,191.822,79.142,192.542,79.323,193.236L79.323,193.236z" class="color c1"/>
    <path fill="#040000" d="M111.3,197.35c0.101,0.219,0.136,0.457,0.136,0.711c0,1.072-0.867,1.939-1.938,1.939
		c-1.076,0-1.935-0.867-1.935-1.939c0-0.254,0.043-0.492,0.125-0.711c0.129-0.304,0.316-0.566,0.551-0.771
		c0.339-0.284,0.779-0.463,1.259-0.463c0.481,0,0.924,0.179,1.258,0.463C110.999,196.782,111.182,197.046,111.3,197.35L111.3,197.35
		z" class="color c1"/>
    <path fill="#040000" d="M120.721,193.236c-0.183,0.683-0.531,1.334-0.984,1.863c-0.924,1.078-2.182,1.668-3.377,2.023
		c-1.23,0.363-2.6,0.45-3.881,0.15c-1.297-0.282-2.445-0.918-3.44-1.646c-1.991-1.479-3.511-3.307-5.114-4.934
		c-0.932-0.963-1.736-1.82-2.334-2.457c-0.589-0.629-0.961-1.062-0.852-1.272c0.119-0.21-1.368-0.938-0.417-0.938
		c1.784,0,3.874,2.464,4.842,3.459c1.654,1.681,3.143,3.451,4.906,4.748c0.867,0.639,1.811,1.129,2.795,1.353
		c0.986,0.224,2,0.162,3.005-0.132c1.015-0.288,1.938-0.773,2.534-1.48c0.607-0.697,0.843-1.617,0.699-2.551
		c-0.154-0.934-0.681-1.844-1.388-2.504c-0.53-0.501-1.187-0.857-1.881-1.008c0.024,0.105,0.034,0.212,0.034,0.324
		c0,0.529-0.264,0.996-0.669,1.262c-0.125,0.092-0.298,0.182-0.523,0.229c-0.247,0.045-0.554,0.039-0.879-0.094
		c-0.315-0.135-0.644-0.382-0.853-0.75c-0.196-0.359-0.315-0.871-0.152-1.393c0.081-0.262,0.227-0.518,0.425-0.705
		c0.191-0.2,0.407-0.344,0.644-0.444c0.443-0.204,0.896-0.251,1.32-0.243c1.404,0.019,2.744,0.631,3.721,1.545
		c0.977,0.92,1.685,2.139,1.9,3.506C120.921,191.822,120.9,192.542,120.721,193.236L120.721,193.236z" class="color c1"/>
    <path fill="#040000" d="M41.663,192.698c-0.091,0.216-0.225,0.42-0.406,0.595c-0.762,0.762-1.991,0.762-2.742,0
		c-0.761-0.754-0.761-1.98,0-2.741c0.182-0.182,0.379-0.315,0.598-0.399c0.288-0.133,0.613-0.188,0.93-0.16
		c0.444,0.033,0.879,0.222,1.215,0.561c0.334,0.336,0.525,0.771,0.56,1.215C41.845,192.082,41.792,192.407,41.663,192.698
		L41.663,192.698z" class="color c1"/>
    <path fill="#040000" d="M158.348,192.698c0.08,0.216,0.215,0.42,0.396,0.595c0.771,0.762,1.991,0.762,2.741,0
		c0.771-0.754,0.771-1.98,0-2.741c-0.162-0.182-0.368-0.315-0.598-0.399c-0.287-0.133-0.607-0.188-0.933-0.16
		c-0.433,0.033-0.876,0.222-1.212,0.561c-0.334,0.336-0.525,0.771-0.555,1.215C158.154,192.082,158.208,192.407,158.348,192.698
		L158.348,192.698z" class="color c1"/>
    <path fill="#040000" d="M29.745,170.434c0.216,0.02,0.379,0.817,0.335,2.241c-0.028,1.433-0.238,3.495-0.961,5.993
		c-0.369,1.242-0.86,2.605-1.637,4.002c-0.392,0.688-0.843,1.385-1.405,2.066c-0.145,0.173-0.288,0.338-0.441,0.5
		c-0.153,0.162-0.301,0.313-0.463,0.47c-0.298,0.308-0.623,0.604-0.968,0.897c-1.386,1.162-3.085,2.207-5.157,2.688
		c-1.023,0.237-2.147,0.326-3.314,0.138c-1.14-0.193-2.363-0.666-3.34-1.634c-0.977-0.991-1.449-2.203-1.641-3.354
		c-0.196-1.157-0.096-2.278,0.129-3.312c0.488-2.067,1.549-3.771,2.697-5.151c0.289-0.345,0.59-0.67,0.896-0.981
		c0.162-0.149,0.307-0.295,0.463-0.451c0.172-0.149,0.335-0.303,0.504-0.438c0.679-0.565,1.387-1.022,2.074-1.407
		c1.393-0.775,2.742-1.265,4-1.64c2.498-0.713,4.561-0.918,5.98-0.969C28.929,170.063,29.727,170.221,29.745,170.434
		c0.016,0.221-0.727,0.479-2.047,0.887c-1.312,0.402-3.229,0.936-5.43,1.857c-1.105,0.467-2.282,1.03-3.387,1.77
		c-0.561,0.369-1.102,0.783-1.594,1.256c-0.125,0.115-0.243,0.234-0.359,0.359c-0.128,0.125-0.244,0.263-0.373,0.399
		c-0.244,0.272-0.469,0.563-0.703,0.854c-0.889,1.177-1.641,2.539-1.929,3.978c-0.146,0.722-0.181,1.449-0.065,2.116
		c0.119,0.67,0.4,1.265,0.779,1.637c0.363,0.373,0.961,0.654,1.631,0.768c0.66,0.125,1.393,0.095,2.115-0.051
		c1.439-0.294,2.808-1.039,3.984-1.935c0.297-0.226,0.579-0.463,0.861-0.707c0.125-0.115,0.269-0.244,0.396-0.365
		c0.116-0.112,0.244-0.235,0.354-0.358c0.461-0.489,0.887-1.041,1.25-1.592c0.741-1.121,1.311-2.285,1.771-3.387
		c0.924-2.206,1.468-4.119,1.866-5.439C29.263,171.16,29.526,170.418,29.745,170.434L29.745,170.434z" class="color c1"/>
    <path fill="#040000" d="M10.141,160.925c-0.354,0.62-0.561,1.321-0.617,2.017c-0.115,1.408,0.345,2.723,0.952,3.817
		c0.607,1.127,1.512,2.157,2.632,2.854c1.124,0.707,2.382,1.076,3.593,1.265c2.463,0.363,4.816,0.147,7.107,0.129
		c1.34-0.017,2.523-0.054,3.393-0.082c0.861-0.03,1.431-0.077,1.493-0.307c0.072-0.229,1.646,0.307,0.97-0.366
		c-1.258-1.266-4.49-1.001-5.883-0.982c-2.354,0.021-4.66,0.22-6.808-0.108c-1.067-0.166-2.081-0.474-2.942-1.024
		c-0.848-0.525-1.545-1.295-2.034-2.209c-0.507-0.93-0.823-1.921-0.741-2.849c0.063-0.913,0.541-1.733,1.32-2.29
		c0.761-0.553,1.766-0.833,2.742-0.795c0.732,0.023,1.449,0.234,2.037,0.619c-0.091,0.056-0.172,0.121-0.254,0.203
		c-0.382,0.375-0.516,0.893-0.416,1.367c0.025,0.153,0.082,0.332,0.216,0.528c0.128,0.21,0.354,0.429,0.679,0.562
		c0.326,0.132,0.724,0.188,1.131,0.068c0.4-0.113,0.842-0.389,1.104-0.877c0.128-0.242,0.182-0.525,0.2-0.795
		c0-0.281-0.053-0.538-0.153-0.77c-0.172-0.463-0.463-0.82-0.751-1.108c-1.005-0.978-2.392-1.483-3.73-1.533
		c-1.34-0.044-2.704,0.319-3.828,1.12C10.991,159.786,10.494,160.313,10.141,160.925L10.141,160.925z" class="color c1"/>
    <path fill="#040000" d="M29.852,186.445c-0.101,0.225-0.235,0.426-0.407,0.605c-0.77,0.752-1.99,0.752-2.75,0
		c-0.762-0.757-0.762-1.988,0-2.751c0.181-0.178,0.378-0.309,0.598-0.403c0.297-0.131,0.606-0.181,0.932-0.155
		c0.445,0.038,0.877,0.226,1.221,0.56c0.335,0.342,0.517,0.773,0.555,1.215C30.023,185.832,29.979,186.157,29.852,186.445
		L29.852,186.445z" class="color c1"/>
    <path fill="#040000" d="M16.503,172.943c-0.1,0.223-0.216,0.42-0.397,0.598c-0.77,0.761-1.993,0.761-2.761,0
		c-0.75-0.76-0.75-1.986,0-2.751c0.182-0.172,0.389-0.308,0.613-0.403c0.291-0.129,0.617-0.182,0.934-0.16
		c0.435,0.047,0.869,0.229,1.214,0.563c0.335,0.349,0.522,0.776,0.551,1.214C16.694,172.324,16.638,172.643,16.503,172.943
		L16.503,172.943z" class="color c1"/>
    <path fill="#040000" d="M39.4,190.193c-0.604,0.363-1.302,0.57-2.009,0.627c-1.412,0.105-2.714-0.359-3.81-0.961
		c-1.124-0.604-2.163-1.506-2.851-2.627c-0.717-1.119-1.077-2.383-1.268-3.599c-0.373-2.46-0.145-4.815-0.126-7.106
		c0.007-1.344,0.054-2.521,0.072-3.383c0.034-0.865,0.072-1.436,0.316-1.504c0.216-0.074-0.316-1.646,0.354-0.97
		c1.268,1.267,1.005,4.494,0.985,5.884c-0.019,2.348-0.219,4.657,0.107,6.816c0.165,1.063,0.481,2.078,1.022,2.929
		c0.535,0.861,1.306,1.541,2.21,2.038c0.933,0.51,1.928,0.829,2.852,0.751c0.914-0.063,1.736-0.554,2.297-1.323
		c0.545-0.767,0.826-1.766,0.798-2.742c-0.038-0.734-0.244-1.451-0.626-2.043c-0.063,0.09-0.125,0.179-0.207,0.252
		c-0.371,0.383-0.889,0.519-1.357,0.418c-0.163-0.017-0.335-0.078-0.535-0.211c-0.217-0.133-0.432-0.359-0.57-0.682
		c-0.125-0.316-0.182-0.723-0.063-1.133c0.119-0.408,0.389-0.839,0.877-1.096c0.244-0.129,0.525-0.201,0.798-0.201
		c0.282-0.006,0.535,0.054,0.771,0.135c0.459,0.186,0.813,0.477,1.095,0.768c0.985,1.008,1.503,2.385,1.546,3.725
		c0.037,1.343-0.316,2.705-1.12,3.832C40.55,189.337,40.026,189.838,39.4,190.193L39.4,190.193z" class="color c1"/>
    <path fill="#040000" d="M170.255,170.434c-0.216,0.02-0.368,0.817-0.341,2.241c0.054,1.433,0.25,3.495,0.977,5.993
		c0.362,1.242,0.857,2.605,1.627,4.002c0.393,0.688,0.842,1.385,1.402,2.066c0.156,0.173,0.301,0.338,0.443,0.5
		c0.154,0.162,0.308,0.313,0.464,0.47c0.307,0.308,0.623,0.604,0.978,0.897c1.377,1.162,3.076,2.207,5.15,2.688
		c1.029,0.237,2.152,0.326,3.313,0.138c1.139-0.193,2.373-0.666,3.349-1.634c0.968-0.991,1.44-2.203,1.638-3.354
		c0.189-1.157,0.109-2.278-0.135-3.312c-0.479-2.067-1.531-3.771-2.697-5.151c-0.281-0.345-0.58-0.67-0.896-0.981
		c-0.144-0.149-0.291-0.295-0.463-0.451c-0.162-0.149-0.324-0.303-0.506-0.438c-0.677-0.565-1.375-1.022-2.072-1.407
		c-1.393-0.775-2.752-1.265-3.99-1.64c-2.497-0.713-4.572-0.918-5.993-0.969C171.077,170.063,170.283,170.221,170.255,170.434
		c-0.017,0.221,0.728,0.479,2.047,0.887c1.32,0.402,3.239,0.936,5.439,1.857c1.096,0.467,2.272,1.03,3.384,1.77
		c0.555,0.369,1.096,0.783,1.593,1.256c0.128,0.115,0.247,0.234,0.363,0.359c0.118,0.125,0.244,0.263,0.372,0.399
		c0.234,0.272,0.47,0.563,0.693,0.854c0.908,1.177,1.642,2.539,1.93,3.978c0.145,0.722,0.182,1.449,0.063,2.116
		c-0.105,0.67-0.396,1.265-0.767,1.637c-0.373,0.373-0.972,0.654-1.642,0.768c-0.66,0.125-1.393,0.095-2.114-0.051
		c-1.431-0.294-2.798-1.039-3.984-1.935c-0.288-0.226-0.569-0.463-0.853-0.707c-0.135-0.115-0.278-0.244-0.405-0.365
		c-0.106-0.112-0.235-0.235-0.354-0.358c-0.461-0.489-0.877-1.041-1.25-1.592c-0.74-1.121-1.311-2.285-1.765-3.387
		c-0.92-2.206-1.455-4.119-1.862-5.439C170.729,171.16,170.482,170.418,170.255,170.434L170.255,170.434z" class="color c1"/>
    <path fill="#040000" d="M189.859,160.925c0.363,0.62,0.578,1.321,0.636,2.017c0.098,1.408-0.363,2.723-0.972,3.817
		c-0.605,1.127-1.512,2.157-2.625,2.854c-1.11,0.707-2.379,1.076-3.594,1.265c-2.469,0.363-4.822,0.147-7.104,0.129
		c-1.35-0.017-2.527-0.054-3.385-0.082c-0.869-0.03-1.439-0.077-1.512-0.307s-1.64,0.307-0.961-0.366
		c1.268-1.266,4.481-1.001,5.875-0.982c2.344,0.021,4.66,0.22,6.807-0.108c1.088-0.166,2.092-0.474,2.949-1.024
		c0.842-0.525,1.529-1.295,2.027-2.209c0.507-0.93,0.833-1.921,0.762-2.849c-0.072-0.913-0.562-1.733-1.33-2.29
		c-0.771-0.553-1.775-0.833-2.752-0.795c-0.731,0.023-1.439,0.234-2.037,0.619c0.09,0.056,0.172,0.121,0.263,0.203
		c0.372,0.375,0.507,0.893,0.417,1.367c-0.035,0.153-0.082,0.332-0.207,0.528c-0.139,0.21-0.373,0.429-0.697,0.562
		c-0.307,0.132-0.725,0.188-1.133,0.068c-0.407-0.113-0.834-0.389-1.084-0.877c-0.139-0.242-0.2-0.525-0.209-0.795
		c0-0.281,0.063-0.538,0.145-0.77c0.182-0.463,0.463-0.82,0.76-1.108c1.015-0.978,2.381-1.483,3.722-1.533
		c1.354-0.044,2.704,0.319,3.828,1.12C189.009,159.786,189.506,160.313,189.859,160.925L189.859,160.925z" class="color c1"/>
    <path fill="#040000" d="M170.164,186.445c0.091,0.225,0.22,0.426,0.4,0.605c0.761,0.752,1.99,0.752,2.75,0
		c0.762-0.757,0.762-1.988,0-2.751c-0.172-0.178-0.391-0.309-0.606-0.403c-0.291-0.131-0.606-0.181-0.933-0.155
		c-0.436,0.038-0.866,0.226-1.211,0.56c-0.336,0.342-0.525,0.773-0.563,1.215C169.977,185.832,170.029,186.157,170.164,186.445
		L170.164,186.445z" class="color c1"/>
    <path fill="#040000" d="M183.507,172.943c0.091,0.223,0.226,0.42,0.406,0.598c0.751,0.761,1.976,0.761,2.741,0
		c0.75-0.76,0.75-1.986,0-2.751c-0.178-0.172-0.389-0.308-0.598-0.403c-0.289-0.129-0.613-0.182-0.938-0.16
		c-0.444,0.047-0.87,0.229-1.205,0.563c-0.354,0.349-0.524,0.776-0.57,1.214C183.325,172.324,183.378,172.643,183.507,172.943
		L183.507,172.943z" class="color c1"/>
    <path fill="#040000" d="M160.6,190.193c0.607,0.363,1.313,0.57,2.01,0.627c1.412,0.105,2.714-0.359,3.817-0.961
		c1.134-0.604,2.153-1.506,2.861-2.627c0.696-1.119,1.065-2.383,1.258-3.599c0.363-2.46,0.146-4.815,0.119-7.106
		c-0.011-1.344-0.047-2.521-0.075-3.383c-0.023-0.865-0.072-1.436-0.298-1.504c-0.233-0.074,0.298-1.646-0.378-0.97
		c-1.26,1.267-0.998,4.494-0.979,5.884c0.026,2.348,0.225,4.657-0.11,6.816c-0.163,1.063-0.47,2.078-1.005,2.929
		c-0.551,0.861-1.312,1.541-2.226,2.038c-0.923,0.51-1.928,0.829-2.852,0.751c-0.904-0.063-1.736-0.554-2.281-1.323
		c-0.562-0.767-0.842-1.766-0.795-2.742c0.019-0.734,0.226-1.451,0.612-2.043c0.058,0.09,0.13,0.179,0.201,0.252
		c0.381,0.383,0.896,0.519,1.367,0.418c0.153-0.017,0.346-0.078,0.535-0.211c0.207-0.133,0.422-0.359,0.561-0.682
		c0.136-0.316,0.183-0.723,0.063-1.133c-0.101-0.408-0.389-0.839-0.88-1.096c-0.243-0.129-0.514-0.201-0.786-0.201
		c-0.28-0.006-0.544,0.054-0.778,0.135c-0.459,0.186-0.813,0.477-1.097,0.768c-0.983,1.008-1.502,2.385-1.534,3.725
		c-0.058,1.343,0.324,2.705,1.129,3.832C159.457,189.337,159.982,189.838,160.6,190.193L160.6,190.193z" class="color c1"/>
    <path fill="#040000" d="M39.825,21.245c-10.242,0-18.58,8.337-18.58,18.578V160.18c0,10.24,8.338,18.571,18.58,18.571h120.368
		c10.232,0,18.562-8.331,18.562-18.571V39.823c0-10.241-8.328-18.578-18.562-18.578H39.825L39.825,21.245z M160.193,179.794H39.825
		c-10.825,0-19.629-8.8-19.629-19.612V39.823c0-10.826,8.804-19.624,19.629-19.624h120.368c10.804,0,19.609,8.798,19.609,19.624
		V160.18C179.805,170.994,170.997,179.794,160.193,179.794L160.193,179.794z" class="color c1"/>
    <path fill="#040000" d="M177.605,73.245h-2.961l0.953,0.937c0.75,0.771,1.736,1.793,2.162,1.357
		C178.102,75.204,178.014,74.087,177.605,73.245L177.605,73.245z" class="color c1"/>
    <path fill="#040000" d="M177.605,102.221h-2.961l0.953,0.942c0.75,0.771,1.736,1.79,2.162,1.356
		C178.102,104.186,178.014,103.068,177.605,102.221L177.605,102.221z" class="color c1"/>
  </g>
</svg>