<svg version="1.1" id="图层_1" x="0px" y="0px" width="481.192px" height="500px" viewBox="9.404 0 481.192 500" enable-background="new 9.404 0 481.192 500" xml:space="preserve" xmlns="http://www.w3.org/2000/svg" xmlns:xlink="http://www.w3.org/1999/xlink" xmlns:xml="http://www.w3.org/XML/1998/namespace">
  <g>
    <path fill="#404040" d="M255.436,500c0,0,102.134-3.124,167.095-68.051c64.927-64.942,68.065-167.096,68.065-167.096
		s-102.168,3.125-167.095,68.068C258.579,397.867,255.436,500,255.436,500z" class="color c1"/>
    <path fill="#404040" d="M323.501,167.093c64.946,64.925,167.095,68.049,167.095,68.049s-3.14-102.15-68.065-167.077
		C357.568,3.123,255.436,0,255.436,0S258.579,102.165,323.501,167.093z" class="color c1"/>
    <path fill="#404040" d="M9.404,245.024c0,0,74.434,69.996,166.274,69.996c91.821,0,166.254-69.996,166.254-69.996
		S267.5,175.01,175.679,175.01C83.838,175.01,9.404,245.024,9.404,245.024z" class="color c1"/>
  </g>
</svg>