<svg version="1.1" id="图层_1" x="0px" y="0px" width="500.001px" height="118.45px" viewBox="0 190.773 500.001 118.45" enable-background="new 0 190.773 500.001 118.45" xml:space="preserve" xmlns="http://www.w3.org/2000/svg" xmlns:xlink="http://www.w3.org/1999/xlink" xmlns:xml="http://www.w3.org/XML/1998/namespace">
  <path fill="#404040" d="M0,239.78c0,0,2.09,0.879,5.82,2.698c0.923,0.496,1.997,0.889,3.143,1.316
	c1.101,0.432,2.307,0.901,3.607,1.411c1.229,0.515,2.791,0.903,4.268,1.401c1.502,0.493,3.021,1.064,4.754,1.438
	c6.711,1.799,14.663,3.188,23.604,3.489c8.94,0.334,18.833-0.309,29.59-1.807c10.737-1.45,22.461-3.967,34.924-6.951
	c12.464-2.981,25.789-6.714,39.727-10.613c13.951-3.938,28.582-8.213,43.709-12.354c15.132-4.18,30.773-8.357,46.727-12.192
	c15.986-3.789,32.275-7.278,48.697-10.095c16.441-2.815,32.994-4.89,49.42-5.964c16.442-1.03,32.676-1.14,48.397,0.251
	c15.701,1.389,30.768,4.026,44.504,8.394c13.718,4.292,25.966,10.139,35.771,16.848c9.836,6.689,17.137,14.138,21.987,20.837
	c4.95,6.624,7.66,12.378,9.242,16.313c1.51,4.009,2.109,6.13,2.109,6.13s-2.144-0.928-5.786-2.639
	c-0.884-0.449-1.963-0.848-3.12-1.285c-1.121-0.446-2.344-0.932-3.667-1.457c-1.27-0.553-2.808-0.906-4.29-1.416
	c-1.501-0.488-3.021-1.055-4.758-1.426c-6.714-1.788-14.67-3.16-23.607-3.445c-8.937-0.32-18.818,0.337-29.57,1.843
	c-10.729,1.458-22.446,3.981-34.902,6.965c-12.458,2.981-25.781,6.707-39.717,10.597c-13.955,3.906-28.579,8.205-43.708,12.322
	c-15.141,4.162-30.791,8.288-46.746,12.113c-15.988,3.784-32.29,7.225-48.716,10.021c-16.445,2.791-32.993,4.886-49.424,5.931
	c-16.44,1.019-32.669,1.121-48.384-0.272c-15.698-1.39-30.757-4.023-44.487-8.385c-13.708-4.287-25.947-10.122-35.747-16.818
	c-9.834-6.676-17.134-14.109-21.992-20.799c-1.281-1.584-2.314-3.271-3.311-4.779c-0.493-0.76-0.939-1.52-1.382-2.236
	c-0.439-0.706-0.854-1.409-1.221-2.146c-1.475-2.855-2.725-5.217-3.389-7.167C0.656,241.951,0,239.78,0,239.78z" class="color c1"/>
</svg>