<svg version="1.1" id="图层_1" x="0px" y="0px" width="200px" height="36.142px" viewBox="0 81.929 200 36.142" enable-background="new 0 81.929 200 36.142" xml:space="preserve" xmlns="http://www.w3.org/2000/svg" xmlns:xlink="http://www.w3.org/1999/xlink" xmlns:xml="http://www.w3.org/XML/1998/namespace">
  <g>
    <g>
      <path fill="#404040" d="M81.256,99.361c-5.998,10.462,7.555,15.073,15.174,9.878c5.03-3.433,5.069-9.67,3.166-14.861
			c-2.648-7.213-10.584-11.444-17.833-12.218c-8.343-0.89-16.768,0.919-24.115,4.939c-10.002,5.47-16.507,15.469-25.915,21.717
			c-5.515,3.658-12.096,4.254-18.404,2.713c-4.433-1.084-7.587-4.047-7.815-8.729c-0.163-1.426,0.163-2.646,0.985-3.662
			c0.228-0.329,3.241-3.469,3.573-2.684C9.419,94.9,4.6,102.48,4.285,103.172c-1.604,3.49-1.453,7.014,0.854,10.07
			c2.138,2.826,6.979,0.057,4.809-2.813c-4.575-6.063,6.346-9.285,5.492-15.456c-0.72-5.198-8.17-4.442-10.96-1.807
			c-5.053,4.773-5.961,11.722-2.062,17.644c4.704,7.146,15.479,7.799,22.994,6.562c9.307-1.532,16.479-9.373,22.87-15.604
			c7.821-7.625,15.875-13.239,26.976-14.229c7.439-0.662,24.19,4.365,19.611,15.204c-1.659,3.938-11.943,4.902-8.806-0.569
			C87.854,99.052,83.042,96.247,81.256,99.361L81.256,99.361z" class="color c1"/>
      <path fill="#404040" d="M113.84,102.172c3.1,5.404-6.189,4.23-8.354,1.352c-2.785-3.705,0.762-9.085,3.334-11.686
			c3.604-3.643,9.354-4.358,14.188-4.372c22.151-0.063,30.505,23.271,49.654,29.433c8.147,2.621,18.497,0.879,24.387-5.523
			c4.558-4.954,3.442-12.632-0.674-17.31c-3.11-3.533-9.567-4.655-11.731,0.48c-2.86,6.807,10.557,8.946,5.31,15.885
			c-2.165,2.868,2.669,5.639,4.808,2.813c2.24-2.964,2.301-5.941,1.143-9.403c-0.25-0.761-5.891-8.648-6.064-7.384
			c0.088-0.646,3.645,2.788,3.965,3.248c2.764,3.985-1.087,8.696-4.23,10.635c-6.467,3.981-15.314,2.033-21.395-1.521
			c-9.73-5.687-16.229-15.761-25.916-21.718c-6.979-4.291-16.076-5.799-24.115-4.939c-7.25,0.773-15.185,5.005-17.833,12.218
			c-1.909,5.191-1.871,11.43,3.165,14.861c7.615,5.195,21.174,0.584,15.17-9.878C116.861,96.247,112.05,99.052,113.84,102.172
			L113.84,102.172z" class="color c1"/>
    </g>
  </g>
</svg>