<svg version="1.1" id="图层_1" x="0px" y="0px" width="500px" height="110.582px" viewBox="0 194.709 500 110.582" enable-background="new 0 194.709 500 110.582" xml:space="preserve" xmlns="http://www.w3.org/2000/svg" xmlns:xlink="http://www.w3.org/1999/xlink" xmlns:xml="http://www.w3.org/XML/1998/namespace">
  <g>
    <g>
      <g>
        <path fill="#404040" d="M9.373,214.251c160.459,0,320.762,0,481.118,0c12.678,0,12.678-19.542,0-19.542
				c-160.356,0-320.659,0-481.118,0C-3.125,194.709-3.125,214.251,9.373,214.251L9.373,214.251z" class="color c1"/>
      </g>
    </g>
    <g>
      <g>
        <path fill="#404040" d="M87.42,259.742c160.459,0,164.766,0,325.187,0c12.497,0,12.497-19.481,0-19.481
				c-160.421,0-164.728,0-325.187,0C74.903,240.261,74.903,259.742,87.42,259.742L87.42,259.742z" class="color c1"/>
      </g>
    </g>
    <g>
      <g>
        <path fill="#404040" d="M146.006,305.291c160.459,0,47.732,0,208.074,0c12.498,0,12.498-19.6,0-19.6
				c-160.342,0-47.615,0-208.074,0C133.389,285.691,133.389,305.291,146.006,305.291L146.006,305.291z" class="color c1"/>
      </g>
    </g>
  </g>
</svg>