<svg version="1.1" id="图层_1" x="0px" y="0px" width="200px" height="93.35px" viewBox="0 53.325 200 93.35" enable-background="new 0 53.325 200 93.35" xml:space="preserve" xmlns="http://www.w3.org/2000/svg" xmlns:xlink="http://www.w3.org/1999/xlink" xmlns:xml="http://www.w3.org/XML/1998/namespace">
  <g>
    <g>
      <path fill="#404040" d="M76.155,146.675c-0.081,0-0.163-0.012-0.244-0.034c-0.471-0.137-0.745-0.627-0.61-1.099
			c0.177-0.617,0.343-1.248,0.511-1.892c2.647-10.107,5.942-22.687,58.397-32.103c55.221-9.911,57.416-31.654,56.773-38.082
			c-0.049-0.487,0.307-0.923,0.795-0.971c0.498-0.048,0.922,0.308,0.971,0.795c0.68,6.81-1.508,29.823-58.227,40.004
			C83.183,122.51,80.047,134.48,77.527,144.1c-0.171,0.655-0.34,1.301-0.521,1.93C76.896,146.42,76.542,146.675,76.155,146.675z" class="color c1"/>
    </g>
    <g>
      <path fill="#404040" d="M187.605,54.212c0,0-5.051,15.551,4.178,19.102C198.172,64.795,187.605,54.212,187.605,54.212z" class="color c1"/>
      <path fill="#404040" d="M191.783,74.201c-0.107,0-0.215-0.019-0.318-0.059c-9.9-3.809-4.918-19.536-4.703-20.204
			c0.094-0.293,0.336-0.517,0.637-0.589c0.304-0.072,0.617,0.019,0.836,0.236c0.111,0.111,11.029,11.231,4.259,20.261
			C192.322,74.074,192.057,74.201,191.783,74.201z M188.031,56.025c-0.912,3.744-2.533,13.232,3.441,16.186
			C195.424,66.093,190.357,58.83,188.031,56.025z" class="color c1"/>
    </g>
    <g>
      <path fill="#404040" d="M150.91,108.833c-0.287-6.202,3.379-14.659,8.734-16.914C158.906,98.441,158.234,105.452,150.91,108.833z" class="color c1"/>
      <path fill="#404040" d="M150.91,109.721c-0.161,0-0.321-0.045-0.462-0.131c-0.253-0.152-0.411-0.422-0.427-0.717
			c-0.295-6.434,3.44-15.314,9.28-17.771c0.288-0.123,0.623-0.081,0.875,0.107c0.253,0.188,0.384,0.497,0.349,0.81l-0.037,0.337
			c-0.727,6.444-1.553,13.75-9.207,17.283C151.163,109.693,151.035,109.721,150.91,109.721z M158.568,93.518
			c-3.859,2.636-6.517,8.789-6.769,13.847C156.949,104.311,157.93,98.93,158.568,93.518z" class="color c1"/>
    </g>
    <g>
      <path fill="#404040" d="M173.178,109.115c-6.203,6.201-17.479,8.176-22.271-0.281
			C155.697,107.706,164.156,107.706,173.178,109.115z" class="color c1"/>
      <path fill="#404040" d="M160.797,115.376c-4.645,0-8.432-2.168-10.663-6.106c-0.138-0.242-0.153-0.537-0.042-0.793
			c0.113-0.256,0.34-0.442,0.611-0.508c2.326-0.548,5.479-0.837,9.115-0.837c4.199,0,8.865,0.384,13.496,1.106
			c0.33,0.052,0.602,0.283,0.705,0.602c0.104,0.317,0.02,0.666-0.215,0.902C170.329,113.217,165.346,115.376,160.797,115.376z
			 M152.348,109.445c2.436,3.404,5.881,4.158,8.449,4.158c3.532,0,7.367-1.459,10.379-3.885c-3.919-0.533-7.812-0.813-11.357-0.813
			C156.934,108.907,154.383,109.092,152.348,109.445z" class="color c1"/>
    </g>
    <g>
      <path fill="#404040" d="M114.824,117.008c4.508,4.793,10.43,10.713,22.832,5.92C131.455,118.7,122.152,114.188,114.824,117.008z" class="color c1"/>
      <path fill="#404040" d="M129.166,125.589L129.166,125.589c-7.488,0-11.822-4.608-14.988-7.973
			c-0.203-0.216-0.285-0.517-0.219-0.806c0.064-0.289,0.271-0.523,0.546-0.631c1.616-0.623,3.403-0.938,5.312-0.938
			c7.088,0,14.533,4.356,18.341,6.952c0.272,0.187,0.42,0.509,0.381,0.834c-0.037,0.328-0.252,0.607-0.562,0.728
			C134.828,124.973,131.863,125.589,129.166,125.589z M116.439,117.424c2.854,2.963,6.715,6.391,12.727,6.391
			c2.008,0,4.191-0.377,6.514-1.125c-3.883-2.463-10.059-5.672-15.863-5.672C118.627,117.018,117.496,117.154,116.439,117.424z" class="color c1"/>
    </g>
    <g>
      <path fill="#404040" d="M123.563,99.812c-9.021,5.355-10.431,12.686-8.737,17.196C121.025,112.779,122.998,107.988,123.563,99.812
			z" class="color c1"/>
      <path fill="#404040" d="M114.824,117.896c-0.092,0-0.182-0.015-0.268-0.043c-0.261-0.082-0.469-0.278-0.564-0.535
			c-1.963-5.232,0.094-12.912,9.117-18.27c0.283-0.168,0.637-0.166,0.918,0.007c0.281,0.174,0.44,0.487,0.42,0.816
			c-0.623,9.024-3.01,13.7-9.124,17.869C115.174,117.842,115,117.896,114.824,117.896z M122.523,101.527
			c-6.293,4.332-8.154,9.871-7.207,14.039C119.796,112.202,121.811,108.291,122.523,101.527z" class="color c1"/>
    </g>
    <g>
      <path fill="#404040" d="M180.225,95.02c-4.791-9.304-2.539-13.532,0.849-16.632C182.762,81.489,183.891,90.509,180.225,95.02z" class="color c1"/>
      <path fill="#404040" d="M180.225,95.907c-0.029,0-0.061-0.002-0.092-0.004c-0.297-0.031-0.559-0.21-0.695-0.477
			c-5.166-10.026-2.375-14.57,1.035-17.693c0.201-0.184,0.478-0.267,0.744-0.221c0.27,0.045,0.504,0.211,0.633,0.45
			c1.896,3.475,2.978,12.802-0.936,17.617C180.744,95.789,180.49,95.907,180.225,95.907z M180.771,79.931
			c-2.392,2.583-3.732,6.196-0.431,13.313C182.477,89.279,181.857,83.058,180.771,79.931z" class="color c1"/>
    </g>
    <g>
      <path fill="#404040" d="M199.111,87.972c-4.228,7.894-14.094,8.738-18.887,7.048C185.297,91.074,192.064,87.409,199.111,87.972z" class="color c1"/>
      <path fill="#404040" d="M184.986,96.633c-1.867,0-3.615-0.269-5.057-0.777c-0.308-0.107-0.529-0.373-0.58-0.693
			c-0.054-0.321,0.073-0.644,0.33-0.843c4.276-3.328,10.866-7.293,17.979-7.293c0.51,0,1.021,0.021,1.522,0.061
			c0.297,0.024,0.564,0.196,0.707,0.46c0.146,0.262,0.146,0.579,0.004,0.843C195.799,96.039,187.447,96.633,184.986,96.633z
			 M182.238,94.625c0.854,0.152,1.793,0.233,2.748,0.233c2.065,0,8.758-0.461,12.588-6.058
			C191.748,88.832,186.229,91.77,182.238,94.625z" class="color c1"/>
    </g>
    <g>
      <path fill="#404040" d="M123.844,146.675c-0.385,0-0.74-0.255-0.853-0.646c-0.179-0.629-0.349-1.272-0.519-1.93
			c-2.521-9.619-5.656-21.59-56.997-30.806C8.758,103.115,6.57,80.101,7.251,73.292c0.049-0.487,0.482-0.843,0.97-0.795
			c0.488,0.048,0.844,0.483,0.795,0.971c-0.644,6.428,1.552,28.171,56.773,38.082c52.455,9.416,55.75,21.994,58.396,32.103
			c0.17,0.644,0.334,1.273,0.51,1.892c0.136,0.472-0.137,0.962-0.608,1.099C124.006,146.664,123.924,146.675,123.844,146.675z" class="color c1"/>
    </g>
    <g>
      <path fill="#404040" d="M12.392,54.212c0,0,5.052,15.551-4.174,19.102C1.829,64.795,12.392,54.212,12.392,54.212z" class="color c1"/>
      <path fill="#404040" d="M8.218,74.201c-0.273,0-0.538-0.127-0.709-0.354c-6.772-9.029,4.146-20.149,4.256-20.261
			c0.219-0.218,0.534-0.309,0.835-0.236c0.3,0.072,0.542,0.296,0.637,0.589c0.217,0.668,5.197,16.396-4.7,20.204
			C8.433,74.182,8.324,74.201,8.218,74.201z M11.968,56.027c-2.324,2.81-7.383,10.077-3.439,16.184
			C14.501,69.257,12.878,59.772,11.968,56.027z" class="color c1"/>
    </g>
    <g>
      <path fill="#404040" d="M49.09,108.833c0.285-6.202-3.381-14.659-8.737-16.914C41.093,98.441,41.762,105.452,49.09,108.833z" class="color c1"/>
      <path fill="#404040" d="M49.09,109.721c-0.127,0-0.254-0.027-0.372-0.082c-7.654-3.533-8.479-10.835-9.208-17.279l-0.039-0.341
			c-0.035-0.313,0.097-0.621,0.349-0.81c0.252-0.188,0.588-0.23,0.877-0.107c5.835,2.457,9.575,11.337,9.279,17.771
			c-0.014,0.295-0.173,0.563-0.426,0.717C49.41,109.676,49.25,109.721,49.09,109.721z M41.429,93.518
			c0.641,5.413,1.62,10.792,6.77,13.847C47.946,102.307,45.29,96.154,41.429,93.518z" class="color c1"/>
    </g>
    <g>
      <path fill="#404040" d="M26.821,109.115c6.203,6.201,17.48,8.176,22.273-0.281C44.301,107.706,35.844,107.706,26.821,109.115z" class="color c1"/>
      <path fill="#404040" d="M39.203,115.376c-0.001,0-0.001,0-0.002,0c-4.548,0-9.531-2.159-13.007-5.634
			c-0.236-0.236-0.32-0.585-0.216-0.902c0.104-0.318,0.376-0.55,0.707-0.602c4.631-0.725,9.298-1.106,13.497-1.106
			c3.636,0,6.788,0.289,9.114,0.837c0.272,0.064,0.499,0.252,0.611,0.508c0.111,0.256,0.096,0.551-0.041,0.793
			C47.635,113.208,43.846,115.376,39.203,115.376z M28.822,109.719c3.012,2.426,6.848,3.883,10.379,3.885c0,0,0,0,0.001,0
			c2.567,0,6.013-0.754,8.45-4.158c-2.037-0.354-4.588-0.538-7.471-0.538C36.635,108.907,32.742,109.186,28.822,109.719z" class="color c1"/>
    </g>
    <g>
      <path fill="#404040" d="M85.176,117.008c-4.51,4.793-10.432,10.713-22.833,5.92C68.544,118.7,77.847,114.188,85.176,117.008z" class="color c1"/>
      <path fill="#404040" d="M70.832,125.589c-2.697,0-5.662-0.616-8.809-1.833c-0.308-0.119-0.524-0.398-0.561-0.727
			c-0.039-0.326,0.109-0.648,0.381-0.834c3.807-2.598,11.254-6.953,18.341-6.953c1.907,0,3.693,0.314,5.311,0.938
			c0.276,0.107,0.48,0.344,0.546,0.631c0.065,0.289-0.016,0.59-0.218,0.807C82.656,120.98,78.321,125.589,70.832,125.589z
			 M64.321,122.689c2.321,0.748,4.505,1.125,6.511,1.125c6.013,0,9.873-3.428,12.727-6.391c-1.056-0.271-2.187-0.406-3.375-0.406
			C74.378,117.018,68.205,120.227,64.321,122.689z" class="color c1"/>
    </g>
    <g>
      <path fill="#404040" d="M76.437,99.812c9.022,5.355,10.431,12.686,8.739,17.196C78.974,112.779,77,107.988,76.437,99.812z" class="color c1"/>
      <path fill="#404040" d="M85.176,117.896c-0.177,0-0.351-0.055-0.501-0.154c-6.113-4.169-8.501-8.846-9.124-17.869
			c-0.022-0.329,0.139-0.643,0.419-0.816c0.283-0.172,0.637-0.175,0.918-0.007c9.024,5.356,11.08,13.036,9.117,18.271
			c-0.097,0.256-0.303,0.453-0.563,0.535C85.356,117.882,85.266,117.896,85.176,117.896z M77.476,101.527
			c0.713,6.764,2.728,10.675,7.207,14.039C85.63,111.398,83.767,105.859,77.476,101.527z" class="color c1"/>
    </g>
    <g>
      <path fill="#404040" d="M19.775,95.02c4.792-9.304,2.537-13.532-0.847-16.632C17.237,81.489,16.109,90.509,19.775,95.02z" class="color c1"/>
      <path fill="#404040" d="M19.775,95.907c-0.266,0-0.519-0.118-0.689-0.327c-3.914-4.815-2.831-14.143-0.938-17.617
			c0.131-0.239,0.364-0.405,0.634-0.45c0.267-0.046,0.542,0.037,0.744,0.221c3.41,3.124,6.201,7.668,1.037,17.693
			c-0.138,0.267-0.4,0.445-0.696,0.477C19.836,95.905,19.805,95.907,19.775,95.907z M19.227,79.931
			c-1.086,3.127-1.704,9.348,0.432,13.313C22.961,86.127,21.618,82.515,19.227,79.931z" class="color c1"/>
    </g>
    <g>
      <path fill="#404040" d="M0.887,87.972c4.229,7.894,14.093,8.738,18.888,7.048C14.701,91.074,7.935,87.409,0.887,87.972z" class="color c1"/>
      <path fill="#404040" d="M15.015,96.633L15.015,96.633c-2.462,0-10.814-0.596-14.91-8.243c-0.142-0.264-0.14-0.581,0.002-0.843
			c0.144-0.264,0.41-0.436,0.708-0.46c0.501-0.04,1.014-0.061,1.521-0.061c7.115,0,13.706,3.965,17.982,7.293
			c0.255,0.199,0.383,0.521,0.331,0.843c-0.052,0.32-0.274,0.586-0.581,0.693C18.629,96.365,16.882,96.633,15.015,96.633z
			 M2.427,88.801c3.83,5.597,10.519,6.058,12.587,6.058h0.001c0.955,0,1.889-0.081,2.747-0.233
			C13.77,91.77,8.252,88.832,2.427,88.801z" class="color c1"/>
    </g>
  </g>
</svg>