<svg version="1.1" id="图层_1" x="0px" y="0px" width="200px" height="200px" viewBox="0 0 200 200" enable-background="new 0 0 200 200" xml:space="preserve" xmlns="http://www.w3.org/2000/svg" xmlns:xlink="http://www.w3.org/1999/xlink" xmlns:xml="http://www.w3.org/XML/1998/namespace">
  <g>
    <path fill-rule="evenodd" clip-rule="evenodd" fill="#404040" d="M10.771,10.772c-3.575-0.413-6.779,0.358-9.182,2.764
		c-2.026,2.027-1.644,4.672-0.328,5.897c1.084,1.01,2.65,1.05,3.51,0.191c0.514-0.515,0.646-1.26,0.05-2.083
		c-1.559,2.38-4.803-0.115-1.961-3.062c1.509-1.564,3.854-2.896,8.033-2.372c0.957,5.357,7.322,11.143,12.242,11.028l0,0l0,0
		c0.115-4.921-5.67-11.287-11.027-12.243c-0.524-4.178,0.808-6.523,2.372-8.032c2.946-2.843,5.441,0.4,3.063,1.959
		c0.821,0.598,1.566,0.466,2.082-0.049c0.858-0.859,0.819-2.425-0.191-3.509c-1.226-1.316-3.872-1.699-5.898,0.326
		C11.132,3.995,10.359,7.199,10.771,10.772L10.771,10.772L10.771,10.772L10.771,10.772z" class="color c1"/>
    <path fill-rule="evenodd" clip-rule="evenodd" fill="#404040" d="M10.771,189.229c-3.575,0.411-6.779-0.36-9.182-2.764
		c-2.026-2.028-1.644-4.673-0.328-5.899c1.084-1.01,2.65-1.048,3.51-0.191c0.514,0.517,0.646,1.262,0.05,2.082
		c-1.559-2.377-4.803,0.116-1.961,3.063c1.509,1.563,3.854,2.897,8.033,2.373c0.957-5.357,7.322-11.143,12.242-11.027l0,0l0,0
		c0.115,4.92-5.67,11.284-11.027,12.24c-0.524,4.18,0.808,6.523,2.372,8.034c2.946,2.844,5.441-0.402,3.063-1.961
		c0.821-0.595,1.566-0.464,2.082,0.052c0.858,0.858,0.819,2.423-0.191,3.509c-1.226,1.314-3.872,1.698-5.898-0.328
		C11.132,196.007,10.359,192.803,10.771,189.229L10.771,189.229L10.771,189.229L10.771,189.229z" class="color c1"/>
    <path fill-rule="evenodd" clip-rule="evenodd" fill="#404040" d="M189.228,189.229c3.574,0.411,6.779-0.36,9.183-2.765
		c2.025-2.027,1.644-4.672,0.325-5.898c-1.083-1.009-2.648-1.048-3.507-0.191c-0.516,0.516-0.646,1.262-0.051,2.082
		c1.56-2.377,4.804,0.116,1.961,3.063c-1.509,1.563-3.855,2.897-8.033,2.373c-0.956-5.357-7.322-11.143-12.242-11.027l0,0l0,0
		c-0.114,4.92,5.672,11.284,11.028,12.24c0.524,4.18-0.809,6.523-2.372,8.034c-2.945,2.844-5.44-0.402-3.063-1.961
		c-0.82-0.596-1.566-0.464-2.082,0.052c-0.858,0.858-0.818,2.423,0.191,3.508c1.226,1.315,3.871,1.699,5.896-0.327
		C188.867,196.007,189.641,192.803,189.228,189.229L189.228,189.229L189.228,189.229L189.228,189.229z" class="color c1"/>
    <path fill-rule="evenodd" clip-rule="evenodd" fill="#404040" d="M178.847,178.847L178.847,178.847
		c3.209,0.908,7.786,5.014,8.801,8.802l0,0l0,0C183.86,186.633,179.754,182.059,178.847,178.847L178.847,178.847L178.847,178.847z" class="color c1"/>
    <path fill-rule="evenodd" clip-rule="evenodd" fill="#404040" d="M199.341,199.341c-1.235,1.236-3.944,1.001-5.779-3.054
		c-0.029,1.762-1.249,3.596-3.036,3.104c-1.398-0.383-2.441-2.684-1.002-3.76c0.035,0.841,0.961,1.732,1.754,1.436
		c1.344-0.501,1.576-3.091,0.344-4.257c-0.605-0.573-0.961-1.135-0.859-2.049l0,0l0,0c0.912-0.099,1.475,0.254,2.047,0.858
		c1.168,1.232,3.757,1.003,4.26-0.343c0.295-0.791-0.597-1.718-1.438-1.753c1.076-1.441,3.377-0.396,3.76,1.002
		c0.491,1.786-1.342,3.004-3.104,3.036C200.342,195.397,200.578,198.105,199.341,199.341L199.341,199.341z" class="color c1"/>
    <path fill-rule="evenodd" clip-rule="evenodd" fill="#404040" d="M193.813,193.813L193.813,193.813c2.09,0,3.111,1.856,2.484,2.482
		v0.002l0,0C195.67,196.924,193.813,195.903,193.813,193.813L193.813,193.813L193.813,193.813z" class="color c1"/>
    <path fill-rule="evenodd" clip-rule="evenodd" fill="#404040" d="M21.151,178.847L21.151,178.847
		c-3.209,0.908-7.786,5.014-8.8,8.802l0,0l0,0C16.139,186.633,20.245,182.059,21.151,178.847L21.151,178.847L21.151,178.847z" class="color c1"/>
    <path fill-rule="evenodd" clip-rule="evenodd" fill="#404040" d="M0.658,199.341c1.236,1.236,3.944,1.001,5.779-3.054
		c0.03,1.762,1.249,3.597,3.037,3.104c1.398-0.383,2.442-2.684,1.001-3.76c-0.035,0.841-0.961,1.732-1.753,1.436
		c-1.345-0.501-1.577-3.091-0.343-4.257c0.605-0.573,0.959-1.135,0.859-2.049l0,0l0,0c-0.913-0.099-1.476,0.254-2.047,0.858
		c-1.166,1.232-3.756,1.003-4.259-0.343c-0.296-0.791,0.596-1.718,1.438-1.753c-1.077-1.441-3.377-0.396-3.761,1.002
		c-0.491,1.786,1.343,3.008,3.105,3.036C-0.342,195.397-0.577,198.105,0.658,199.341L0.658,199.341z" class="color c1"/>
    <path fill-rule="evenodd" clip-rule="evenodd" fill="#404040" d="M6.186,193.813L6.186,193.813c-2.088,0-3.111,1.856-2.483,2.482
		v0.002l0,0C4.33,196.924,6.186,195.903,6.186,193.813L6.186,193.813L6.186,193.813z" class="color c1"/>
    <path fill-rule="evenodd" clip-rule="evenodd" fill="#404040" d="M189.228,10.772L189.228,10.772L189.228,10.772
		c0.413-3.575-0.36-6.777-2.766-9.184c-2.024-2.025-4.67-1.643-5.896-0.326c-1.01,1.084-1.05,2.649-0.191,3.509
		c0.516,0.515,1.262,0.646,2.082,0.049c-2.378-1.558,0.117-4.802,3.063-1.959c1.563,1.509,2.896,3.854,2.372,8.032
		c-5.356,0.956-11.143,7.322-11.028,12.242l0,0l0,0c4.92,0.115,11.286-5.67,12.242-11.028c4.178-0.522,6.524,0.809,8.033,2.373
		c2.843,2.946-0.401,5.441-1.961,3.062c-0.596,0.823-0.465,1.568,0.051,2.083c0.858,0.858,2.424,0.818,3.507-0.191
		c1.318-1.226,1.7-3.87-0.325-5.897C196.007,11.131,192.802,10.359,189.228,10.772L189.228,10.772z" class="color c1"/>
    <g>
      <path fill="#404040" d="M175.37,196.376c-0.003,0.002-0.005,0.005-0.007,0.007H24.635c0-0.001-0.001-0.001-0.001-0.001
			c-0.748-0.751-2.053-0.75-2.797-0.002c-0.771,0.771-0.771,2.023,0,2.794c0.747,0.746,2.046,0.749,2.798-0.003
			c0.045-0.045,0.087-0.093,0.127-0.142h150.474c0.041,0.05,0.084,0.099,0.131,0.146c0.373,0.373,0.869,0.578,1.396,0.578
			c0.528,0,1.025-0.205,1.398-0.578c0.373-0.374,0.579-0.87,0.579-1.397c0-0.528-0.206-1.024-0.578-1.396
			C177.416,195.632,176.109,195.635,175.37,196.376z" class="color c1"/>
      <path fill="#404040" d="M199.028,175.238V24.764c0.05-0.041,0.098-0.085,0.143-0.131c0.374-0.372,0.581-0.869,0.581-1.397
			s-0.207-1.025-0.58-1.397c-0.748-0.747-2.051-0.744-2.793,0c-0.374,0.372-0.58,0.869-0.58,1.397s0.206,1.025,0.577,1.395
			c0.002,0.002,0.004,0.004,0.006,0.006v150.729c-0.001,0.001-0.003,0.002-0.003,0.002c-0.374,0.375-0.58,0.871-0.58,1.398
			s0.206,1.023,0.578,1.396c0.374,0.373,0.87,0.579,1.398,0.579c0.527,0,1.023-0.205,1.396-0.578c0.373-0.374,0.58-0.87,0.58-1.397
			s-0.207-1.023-0.576-1.394C199.129,175.325,199.08,175.28,199.028,175.238z" class="color c1"/>
      <path fill="#404040" d="M3.621,24.634c0.374-0.374,0.58-0.871,0.58-1.399c0-0.528-0.207-1.024-0.579-1.396
			c-0.746-0.745-2.046-0.748-2.796-0.001c-0.771,0.771-0.771,2.023,0.001,2.797c0.046,0.045,0.094,0.089,0.144,0.13v150.473
			c-0.051,0.041-0.1,0.085-0.147,0.132c-0.768,0.771-0.767,2.023,0.002,2.794c0.374,0.373,0.87,0.578,1.397,0.578
			c0.528,0,1.024-0.206,1.397-0.578c0.771-0.77,0.771-2.023-0.003-2.799V24.637C3.619,24.636,3.62,24.635,3.621,24.634z" class="color c1"/>
      <path fill="#404040" d="M175.361,0.832c-0.043,0.045-0.085,0.091-0.124,0.139H24.761c-0.041-0.05-0.083-0.097-0.129-0.143
			c-0.747-0.746-2.049-0.746-2.795,0c-0.771,0.771-0.771,2.023,0,2.795c0.746,0.744,2.045,0.747,2.796-0.003
			c0.001-0.001,0.002-0.002,0.003-0.003h150.725c0.002,0.002,0.004,0.004,0.006,0.006c0.374,0.373,0.87,0.577,1.396,0.577
			c0.527,0,1.023-0.205,1.398-0.577c0.373-0.374,0.579-0.87,0.579-1.397c0-0.528-0.206-1.024-0.579-1.397
			C177.416,0.08,176.119,0.076,175.361,0.832z" class="color c1"/>
    </g>
    <path fill-rule="evenodd" clip-rule="evenodd" fill="#404040" d="M178.847,21.153L178.847,21.153
		c3.209-0.907,7.786-5.015,8.801-8.801l0,0l0,0C183.86,13.367,179.754,17.943,178.847,21.153L178.847,21.153L178.847,21.153z" class="color c1"/>
    <path fill-rule="evenodd" clip-rule="evenodd" fill="#404040" d="M199.341,0.658c-1.235-1.235-3.944-0.999-5.779,3.056
		c-0.029-1.764-1.249-3.595-3.036-3.104c-1.398,0.384-2.441,2.684-1.002,3.76c0.035-0.84,0.961-1.732,1.754-1.438
		c1.344,0.505,1.576,3.094,0.344,4.261c-0.605,0.572-0.961,1.135-0.859,2.047l0,0l0,0c0.912,0.101,1.475-0.254,2.047-0.858
		c1.168-1.233,3.757-1.001,4.26,0.344c0.295,0.791-0.597,1.717-1.438,1.753c1.076,1.44,3.377,0.396,3.76-1.002
		c0.491-1.788-1.342-3.007-3.104-3.036C200.342,4.604,200.578,1.896,199.341,0.658L199.341,0.658z" class="color c1"/>
    <path fill-rule="evenodd" clip-rule="evenodd" fill="#404040" d="M193.813,6.188L193.813,6.188c2.09,0,3.111-1.857,2.484-2.484l0,0
		l0,0C195.67,3.076,193.813,4.098,193.813,6.188L193.813,6.188L193.813,6.188z" class="color c1"/>
    <path fill-rule="evenodd" clip-rule="evenodd" fill="#404040" d="M21.151,21.153L21.151,21.153c-3.209-0.907-7.786-5.013-8.8-8.8
		l0,0l0,0C16.139,13.367,20.245,17.943,21.151,21.153L21.151,21.153L21.151,21.153z" class="color c1"/>
    <path fill-rule="evenodd" clip-rule="evenodd" fill="#404040" d="M0.658,0.658c1.236-1.235,3.944-0.999,5.779,3.056
		c0.03-1.764,1.249-3.597,3.037-3.104c1.398,0.384,2.442,2.685,1.001,3.76c-0.035-0.84-0.961-1.732-1.753-1.438
		C7.377,3.436,7.145,6.024,8.378,7.191c0.605,0.572,0.959,1.135,0.859,2.047l0,0l0,0C8.325,9.339,7.762,8.984,7.19,8.38
		C6.024,7.146,3.434,7.379,2.931,8.724c-0.296,0.791,0.596,1.718,1.438,1.753c-1.077,1.44-3.377,0.396-3.761-1.002
		C0.117,7.687,1.951,6.468,3.713,6.438C-0.342,4.604-0.577,1.896,0.658,0.658L0.658,0.658z" class="color c1"/>
    <path fill-rule="evenodd" clip-rule="evenodd" fill="#404040" d="M6.186,6.188L6.186,6.188c-2.088,0-3.111-1.857-2.483-2.484l0,0
		l0,0C4.33,3.076,6.186,4.098,6.186,6.188L6.186,6.188z" class="color c1"/>
  </g>
</svg>