<?xml version="1.0" encoding="utf-8"?>
<!-- Generator: Adobe Illustrator 16.0.0, SVG Export Plug-In . SVG Version: 6.00 Build 0)  -->
<!DOCTYPE svg PUBLIC "-//W3C//DTD SVG 1.1//EN" "http://www.w3.org/Graphics/SVG/1.1/DTD/svg11.dtd">
<svg version="1.1" id="图层_1" xmlns="http://www.w3.org/2000/svg" xmlns:xlink="http://www.w3.org/1999/xlink" x="0px" y="0px"
	 width="258px" height="36px" viewBox="0 0 258 36" enable-background="new 0 0 258 36" xml:space="preserve">
<g>
	<path fill="#545454" d="M13.317,10.714c-0.006-0.181,0.01-0.326,0.052-0.437c0.042-0.11,0.13-0.196,0.264-0.259
		c0.135-0.062,0.327-0.105,0.576-0.129s0.581-0.036,0.996-0.036h0.229h2.799c0.926,0,1.721,0.08,2.384,0.239
		c0.663,0.159,1.205,0.393,1.623,0.705c0.418,0.311,0.723,0.696,0.912,1.156c0.191,0.46,0.275,0.99,0.255,1.591l-0.301,10.472
		c-0.014,0.519-0.12,0.985-0.316,1.4c-0.197,0.415-0.492,0.768-0.886,1.059c-0.395,0.291-0.892,0.512-1.494,0.668
		c-0.601,0.156-1.316,0.233-2.146,0.233h-3.328c-0.256,0-0.459-0.01-0.612-0.03c-0.152-0.021-0.269-0.056-0.353-0.104
		c-0.083-0.047-0.136-0.119-0.16-0.212c-0.025-0.094-0.041-0.213-0.047-0.358L13.317,10.714z M18.367,25.686
		c0.326,0,0.598-0.026,0.82-0.079c0.221-0.051,0.398-0.136,0.534-0.252c0.134-0.118,0.229-0.276,0.279-0.473
		c0.053-0.197,0.075-0.44,0.067-0.73l-0.3-11.105c-0.007-0.298-0.04-0.54-0.099-0.727c-0.058-0.186-0.143-0.328-0.253-0.425
		c-0.11-0.096-0.249-0.162-0.415-0.196s-0.36-0.053-0.581-0.053h-1.358l-0.404,14.04H18.367z"/>
	<path fill="#545454" d="M25.843,17.94c-0.021-0.553,0.095-1.028,0.347-1.426c0.252-0.398,0.591-0.725,1.017-0.98
		c0.425-0.256,0.912-0.445,1.461-0.565c0.55-0.122,1.112-0.182,1.686-0.182c0.546,0,1.082,0.06,1.607,0.182
		c0.525,0.12,0.992,0.309,1.4,0.565c0.408,0.255,0.731,0.582,0.97,0.98s0.347,0.873,0.327,1.426l-0.156,3.825
		c-0.006,0.131-0.029,0.235-0.067,0.312c-0.038,0.076-0.109,0.134-0.213,0.176s-0.25,0.069-0.44,0.083
		c-0.189,0.013-0.44,0.021-0.752,0.021h-4.043l-0.063,2.24c-0.006,0.262,0.02,0.484,0.078,0.664
		c0.059,0.179,0.147,0.325,0.265,0.436c0.118,0.111,0.263,0.19,0.436,0.239c0.172,0.048,0.369,0.072,0.591,0.072
		c0.442,0,0.767-0.096,0.974-0.291c0.208-0.193,0.311-0.536,0.311-1.026v-0.322c0-0.131,0.018-0.239,0.052-0.326
		c0.035-0.087,0.103-0.156,0.203-0.208s0.243-0.088,0.43-0.108c0.187-0.021,0.436-0.031,0.747-0.031c0.304,0,0.55,0.01,0.736,0.031
		c0.186,0.021,0.33,0.057,0.43,0.108c0.1,0.052,0.166,0.119,0.197,0.203c0.031,0.083,0.046,0.189,0.046,0.322v0.456
		c0,0.545-0.118,0.992-0.353,1.337c-0.235,0.345-0.544,0.619-0.928,0.82c-0.384,0.2-0.822,0.338-1.316,0.415
		c-0.495,0.076-1.001,0.114-1.519,0.114c-0.525,0-1.037-0.051-1.535-0.151c-0.498-0.1-0.942-0.266-1.333-0.498
		c-0.39-0.231-0.708-0.538-0.954-0.917c-0.245-0.38-0.378-0.854-0.4-1.421L25.843,17.94z M31.577,20.802l-0.104-3.037
		c-0.007-0.291-0.04-0.526-0.098-0.705c-0.059-0.181-0.138-0.318-0.239-0.416c-0.1-0.097-0.217-0.161-0.353-0.191
		c-0.134-0.031-0.278-0.047-0.43-0.047c-0.173,0-0.332,0.016-0.478,0.047c-0.145,0.03-0.271,0.094-0.378,0.191
		c-0.106,0.097-0.193,0.235-0.259,0.416c-0.066,0.179-0.102,0.415-0.109,0.705l-0.092,3.037H31.577z"/>
	<path fill="#545454" d="M36.958,15.669c0-0.144,0.016-0.268,0.046-0.368c0.032-0.1,0.101-0.178,0.208-0.232
		c0.107-0.056,0.266-0.096,0.477-0.12s0.492-0.036,0.846-0.036c0.353,0,0.634,0.012,0.845,0.036s0.37,0.064,0.478,0.12
		c0.106,0.055,0.176,0.132,0.207,0.232c0.031,0.1,0.046,0.224,0.046,0.368l-0.021,0.633c0.193-0.221,0.393-0.424,0.596-0.607
		c0.204-0.183,0.422-0.341,0.653-0.477c0.231-0.135,0.479-0.24,0.741-0.316c0.264-0.076,0.549-0.114,0.861-0.114
		c0.421,0,0.814,0.076,1.176,0.228c0.364,0.153,0.674,0.374,0.934,0.665c0.26,0.29,0.46,0.642,0.601,1.058
		c0.143,0.414,0.207,0.884,0.193,1.41l-0.249,8.636c0,0.132-0.018,0.236-0.052,0.312c-0.035,0.076-0.1,0.135-0.197,0.176
		c-0.097,0.042-0.234,0.069-0.41,0.083c-0.177,0.014-0.41,0.02-0.7,0.02c-0.291,0-0.523-0.006-0.7-0.02
		c-0.176-0.014-0.311-0.042-0.404-0.083c-0.093-0.041-0.157-0.1-0.191-0.176c-0.035-0.076-0.052-0.18-0.052-0.312l-0.239-8.336
		c-0.006-0.268-0.042-0.494-0.104-0.673c-0.062-0.18-0.146-0.321-0.249-0.425c-0.104-0.104-0.227-0.177-0.368-0.217
		c-0.142-0.042-0.295-0.063-0.462-0.063c-0.263,0-0.494,0.073-0.694,0.217c-0.2,0.146-0.373,0.318-0.519,0.52l-0.259,8.978
		c0,0.132-0.018,0.236-0.052,0.312c-0.035,0.076-0.1,0.135-0.197,0.176c-0.097,0.042-0.234,0.069-0.41,0.083
		c-0.177,0.014-0.41,0.02-0.7,0.02s-0.523-0.006-0.7-0.02c-0.176-0.014-0.311-0.042-0.404-0.083c-0.093-0.041-0.157-0.1-0.191-0.176
		c-0.035-0.076-0.052-0.18-0.052-0.312L36.958,15.669z"/>
	<path fill="#545454" d="M48.25,10.258c0-0.146,0.016-0.27,0.046-0.369c0.031-0.1,0.105-0.178,0.223-0.233
		c0.118-0.055,0.289-0.095,0.514-0.119C49.257,9.512,49.556,9.5,49.929,9.5c0.374,0,0.672,0.012,0.897,0.036
		C51.051,9.56,51.222,9.6,51.34,9.655c0.118,0.056,0.192,0.133,0.223,0.233c0.03,0.1,0.046,0.223,0.046,0.369l-0.321,16.526
		c0,0.132-0.018,0.236-0.052,0.312c-0.035,0.076-0.101,0.135-0.197,0.176c-0.097,0.042-0.234,0.069-0.41,0.083
		c-0.177,0.014-0.41,0.02-0.7,0.02c-0.29,0-0.523-0.006-0.7-0.02c-0.176-0.014-0.312-0.042-0.404-0.083
		c-0.093-0.041-0.157-0.1-0.191-0.176c-0.035-0.076-0.053-0.18-0.053-0.312L48.25,10.258z M52.065,21.756l1.555-6.17
		c0.035-0.145,0.083-0.26,0.145-0.347s0.157-0.153,0.286-0.202c0.127-0.049,0.303-0.082,0.528-0.098
		c0.225-0.018,0.513-0.027,0.866-0.027c0.317,0,0.574,0.006,0.767,0.016c0.193,0.011,0.34,0.034,0.44,0.068
		c0.101,0.034,0.167,0.086,0.198,0.156c0.031,0.068,0.046,0.158,0.046,0.268c0,0.077-0.014,0.165-0.042,0.265
		c-0.028,0.101-0.062,0.216-0.104,0.348l-1.908,5.723l1.742,4.718c0.118,0.317,0.176,0.508,0.176,0.57
		c0,0.069-0.015,0.126-0.047,0.171c-0.031,0.045-0.09,0.08-0.176,0.104c-0.086,0.024-0.213,0.04-0.378,0.046
		c-0.166,0.008-0.384,0.01-0.653,0.01s-0.486-0.006-0.647-0.02c-0.163-0.014-0.292-0.042-0.39-0.083
		c-0.096-0.041-0.17-0.1-0.223-0.176c-0.051-0.076-0.102-0.18-0.149-0.312L52.065,21.756z"/>
	<path fill="#545454" d="M63.741,13.222c-0.014-0.518,0.072-0.992,0.259-1.42s0.482-0.795,0.886-1.099
		c0.404-0.303,0.926-0.541,1.565-0.71c0.64-0.169,1.409-0.254,2.307-0.254c0.892,0,1.657,0.085,2.296,0.254
		c0.64,0.169,1.163,0.407,1.571,0.71c0.408,0.304,0.705,0.671,0.892,1.099s0.274,0.903,0.259,1.42l-0.301,10.991
		c-0.014,0.45-0.11,0.875-0.29,1.276c-0.181,0.4-0.458,0.75-0.834,1.046c-0.377,0.298-0.861,0.533-1.452,0.705
		c-0.592,0.173-1.306,0.26-2.142,0.26c-0.836,0-1.551-0.087-2.146-0.26c-0.595-0.172-1.08-0.407-1.457-0.705
		c-0.377-0.296-0.655-0.646-0.835-1.046c-0.179-0.401-0.275-0.826-0.291-1.276L63.741,13.222z M67.09,24.306
		c-0.007,0.291,0.019,0.532,0.078,0.727c0.058,0.193,0.155,0.347,0.29,0.461c0.134,0.113,0.309,0.194,0.523,0.244
		c0.215,0.048,0.474,0.073,0.778,0.073c0.305,0,0.563-0.025,0.778-0.073c0.214-0.049,0.389-0.131,0.522-0.244
		c0.136-0.115,0.232-0.268,0.291-0.461c0.06-0.194,0.085-0.436,0.078-0.727l-0.301-11.405c-0.006-0.303-0.041-0.547-0.104-0.726
		c-0.062-0.179-0.15-0.318-0.264-0.415c-0.115-0.096-0.254-0.16-0.42-0.191c-0.167-0.031-0.36-0.047-0.581-0.047
		c-0.221,0-0.414,0.017-0.581,0.047c-0.166,0.031-0.306,0.095-0.42,0.191c-0.114,0.096-0.202,0.236-0.264,0.415
		c-0.063,0.179-0.097,0.423-0.104,0.726L67.09,24.306z"/>
	<path fill="#545454" d="M76.276,15.669c0-0.144,0.016-0.268,0.047-0.368c0.031-0.1,0.1-0.178,0.207-0.232
		c0.107-0.056,0.267-0.096,0.477-0.12c0.211-0.024,0.493-0.036,0.846-0.036s0.635,0.012,0.846,0.036
		c0.21,0.024,0.369,0.064,0.476,0.12c0.107,0.055,0.176,0.132,0.208,0.232c0.03,0.1,0.046,0.224,0.046,0.368l-0.021,0.633
		c0.193-0.221,0.392-0.424,0.597-0.607c0.204-0.183,0.421-0.341,0.652-0.477c0.232-0.135,0.479-0.24,0.742-0.316
		c0.263-0.076,0.55-0.114,0.86-0.114c0.422,0,0.814,0.076,1.177,0.228c0.363,0.153,0.674,0.374,0.932,0.665
		c0.26,0.29,0.461,0.642,0.603,1.058c0.142,0.414,0.206,0.884,0.191,1.41l-0.249,8.636c0,0.132-0.017,0.236-0.052,0.312
		c-0.034,0.076-0.1,0.135-0.197,0.176c-0.097,0.042-0.233,0.069-0.409,0.083c-0.177,0.014-0.41,0.02-0.7,0.02s-0.523-0.006-0.7-0.02
		c-0.176-0.014-0.311-0.042-0.403-0.083c-0.095-0.041-0.158-0.1-0.193-0.176c-0.034-0.076-0.052-0.18-0.052-0.312l-0.238-8.336
		c-0.007-0.268-0.042-0.494-0.104-0.673c-0.062-0.18-0.145-0.321-0.249-0.425c-0.104-0.104-0.226-0.177-0.368-0.217
		c-0.142-0.042-0.296-0.063-0.461-0.063c-0.263,0-0.494,0.073-0.695,0.217c-0.201,0.146-0.374,0.318-0.519,0.52l-0.259,8.978
		c0,0.132-0.017,0.236-0.052,0.312c-0.034,0.076-0.1,0.135-0.197,0.176c-0.097,0.042-0.233,0.069-0.409,0.083
		c-0.177,0.014-0.41,0.02-0.7,0.02s-0.523-0.006-0.7-0.02c-0.176-0.014-0.311-0.042-0.403-0.083c-0.095-0.041-0.157-0.1-0.192-0.176
		c-0.035-0.076-0.052-0.18-0.052-0.312L76.276,15.669z"/>
	<path fill="#545454" d="M87.36,17.94c-0.021-0.553,0.095-1.028,0.348-1.426c0.252-0.398,0.59-0.725,1.016-0.98
		c0.425-0.256,0.912-0.445,1.462-0.565c0.549-0.122,1.111-0.182,1.685-0.182c0.546,0,1.083,0.06,1.607,0.182
		c0.525,0.12,0.992,0.309,1.4,0.565c0.408,0.255,0.732,0.582,0.969,0.98c0.239,0.398,0.348,0.873,0.327,1.426l-0.155,3.825
		c-0.006,0.131-0.029,0.235-0.067,0.312c-0.038,0.076-0.108,0.134-0.212,0.176s-0.251,0.069-0.44,0.083
		c-0.19,0.013-0.441,0.021-0.752,0.021h-4.043l-0.062,2.24c-0.008,0.262,0.019,0.484,0.077,0.664
		c0.059,0.179,0.147,0.325,0.266,0.436c0.117,0.111,0.263,0.19,0.435,0.239c0.173,0.048,0.37,0.072,0.591,0.072
		c0.442,0,0.767-0.096,0.975-0.291c0.207-0.193,0.311-0.536,0.311-1.026v-0.322c0-0.131,0.017-0.239,0.052-0.326
		c0.034-0.087,0.102-0.156,0.203-0.208c0.1-0.052,0.243-0.088,0.429-0.108c0.187-0.021,0.436-0.031,0.747-0.031
		c0.304,0,0.549,0.01,0.736,0.031c0.187,0.021,0.331,0.057,0.43,0.108c0.101,0.052,0.167,0.119,0.197,0.203
		c0.031,0.083,0.047,0.189,0.047,0.322v0.456c0,0.545-0.118,0.992-0.353,1.337c-0.235,0.345-0.545,0.619-0.928,0.82
		c-0.384,0.2-0.823,0.338-1.317,0.415c-0.494,0.076-1,0.114-1.519,0.114c-0.525,0-1.036-0.051-1.534-0.151
		c-0.498-0.1-0.942-0.266-1.332-0.498c-0.392-0.231-0.708-0.538-0.954-0.917c-0.246-0.38-0.379-0.854-0.399-1.421L87.36,17.94z
		 M93.095,20.802l-0.104-3.037c-0.007-0.291-0.04-0.526-0.099-0.705c-0.059-0.181-0.138-0.318-0.239-0.416
		c-0.1-0.097-0.217-0.161-0.353-0.191c-0.134-0.031-0.278-0.047-0.43-0.047c-0.172,0-0.331,0.016-0.477,0.047
		c-0.145,0.03-0.272,0.094-0.379,0.191c-0.106,0.097-0.193,0.235-0.258,0.416c-0.066,0.179-0.103,0.415-0.109,0.705l-0.093,3.037
		H93.095z"/>
</g>
</svg>
