<?xml version="1.0" encoding="utf-8"?>
<!-- Generator: Adobe Illustrator 16.0.0, SVG Export Plug-In . SVG Version: 6.00 Build 0)  -->
<!DOCTYPE svg PUBLIC "-//W3C//DTD SVG 1.1//EN" "http://www.w3.org/Graphics/SVG/1.1/DTD/svg11.dtd">
<svg version="1.1" id="图层_1" xmlns="http://www.w3.org/2000/svg" xmlns:xlink="http://www.w3.org/1999/xlink" x="0px" y="0px"
	 width="258px" height="36px" viewBox="0 0 258 36" enable-background="new 0 0 258 36" xml:space="preserve">
<g>
	<path fill="#545454" d="M13.315,24.929h2.265V10.969h-2.265v-0.286h3.796c0.19,0,0.38-0.003,0.571-0.01
		c0.19-0.007,0.38-0.017,0.571-0.031c0.19,0,0.381-0.003,0.571-0.01c0.19-0.007,0.381-0.01,0.572-0.01
		c0.408,0,0.772,0.007,1.092,0.021c0.319,0.014,0.619,0.038,0.898,0.071c0.278,0.034,0.543,0.082,0.795,0.143
		c0.251,0.061,0.521,0.14,0.806,0.234c0.83,0.272,1.547,0.636,2.153,1.092c0.605,0.456,1.102,0.983,1.49,1.582
		s0.673,1.252,0.857,1.959s0.276,1.448,0.276,2.225c0,0.898-0.109,1.704-0.327,2.418c-0.218,0.714-0.517,1.347-0.898,1.898
		c-0.381,0.551-0.826,1.027-1.337,1.429c-0.51,0.401-1.058,0.724-1.643,0.969c-0.327,0.149-0.636,0.266-0.929,0.348
		c-0.293,0.081-0.592,0.142-0.898,0.184c-0.306,0.04-0.643,0.067-1.01,0.082c-0.367,0.013-0.789,0.02-1.265,0.02
		c-0.204,0-0.422-0.003-0.653-0.011c-0.231-0.006-0.463-0.017-0.694-0.03c-0.231-0.013-0.459-0.023-0.684-0.03
		c-0.225-0.008-0.438-0.011-0.643-0.011h-3.47V24.929z M17.622,24.929c0.231,0.027,0.5,0.048,0.806,0.061
		c0.306,0.015,0.643,0.021,1.01,0.021c0.462,0,0.922-0.024,1.377-0.072s0.891-0.149,1.306-0.306
		c0.415-0.156,0.803-0.381,1.164-0.674c0.36-0.293,0.683-0.676,0.969-1.152c0.435-0.734,0.738-1.486,0.908-2.255
		c0.17-0.769,0.255-1.609,0.255-2.521c0-1.074-0.102-2.052-0.306-2.929c-0.204-0.878-0.541-1.626-1.01-2.245
		s-1.092-1.099-1.867-1.439c-0.776-0.34-1.735-0.51-2.877-0.51c-0.34,0-0.65,0.007-0.929,0.021s-0.548,0.027-0.806,0.041V24.929z"/>
	<path fill="#545454" d="M29.907,24.929h1.571v-8.184h-1.571v-0.286h3.327v8.47h1.571v0.285h-4.898V24.929z M31.234,11.704
		c0-0.299,0.105-0.554,0.316-0.765s0.466-0.316,0.765-0.316c0.3,0,0.554,0.105,0.766,0.316c0.21,0.211,0.316,0.466,0.316,0.765
		c0,0.3-0.106,0.555-0.316,0.766c-0.211,0.211-0.466,0.316-0.766,0.316c-0.299,0-0.554-0.105-0.765-0.316
		S31.234,12.004,31.234,11.704z"/>
	<path fill="#545454" d="M42.009,10.5h3.326v14.429h1.572v0.285h-3.286v-1.775H43.58c-0.054,0.163-0.136,0.361-0.245,0.593
		c-0.109,0.231-0.269,0.455-0.48,0.674c-0.21,0.217-0.476,0.404-0.795,0.561c-0.32,0.156-0.711,0.234-1.174,0.234
		c-0.599,0-1.167-0.129-1.704-0.387c-0.538-0.259-1.01-0.606-1.418-1.042s-0.732-0.935-0.97-1.5
		c-0.238-0.563-0.357-1.16-0.357-1.786c0-0.611,0.116-1.195,0.347-1.754c0.231-0.558,0.544-1.045,0.938-1.46s0.85-0.747,1.367-1
		c0.517-0.251,1.068-0.378,1.653-0.378c0.748,0,1.354,0.185,1.816,0.552c0.462,0.367,0.789,0.816,0.979,1.347h0.041v-7.306h-1.571
		V10.5z M38.478,20.54c0,0.708,0.021,1.352,0.062,1.929c0.041,0.579,0.143,1.072,0.306,1.48c0.163,0.408,0.408,0.722,0.735,0.938
		c0.327,0.218,0.768,0.326,1.326,0.326c0.571,0,1.031-0.122,1.377-0.367c0.347-0.244,0.616-0.562,0.806-0.948
		c0.19-0.388,0.319-0.82,0.388-1.297c0.068-0.476,0.102-0.938,0.102-1.388c0-0.53-0.01-0.988-0.03-1.378
		c-0.021-0.387-0.058-0.73-0.112-1.03c-0.055-0.298-0.13-0.558-0.225-0.774c-0.095-0.219-0.211-0.422-0.347-0.613
		c-0.204-0.271-0.469-0.495-0.796-0.673c-0.327-0.178-0.742-0.265-1.245-0.265c-0.477,0-0.867,0.095-1.173,0.284
		c-0.306,0.192-0.544,0.464-0.714,0.816c-0.17,0.355-0.29,0.78-0.357,1.275C38.512,19.354,38.478,19.916,38.478,20.54z"/>
	<path fill="#545454" d="M48.396,20.847c0-0.666,0.146-1.286,0.439-1.857s0.667-1.064,1.122-1.479
		c0.456-0.414,0.966-0.737,1.531-0.969c0.564-0.231,1.119-0.348,1.663-0.348c0.544,0,1.099,0.116,1.663,0.348
		s1.075,0.555,1.531,0.969c0.456,0.415,0.83,0.908,1.122,1.479c0.293,0.571,0.439,1.191,0.439,1.857c0,0.64-0.136,1.242-0.408,1.807
		c-0.272,0.565-0.63,1.058-1.072,1.48c-0.442,0.421-0.949,0.754-1.521,0.999c-0.571,0.245-1.156,0.367-1.755,0.367
		c-0.599,0-1.184-0.122-1.755-0.367c-0.572-0.245-1.079-0.578-1.521-0.999c-0.442-0.423-0.799-0.915-1.071-1.48
		C48.532,22.089,48.396,21.486,48.396,20.847z M50.437,20.847c0,0.967,0.075,1.735,0.225,2.307c0.149,0.571,0.347,1.011,0.591,1.316
		c0.246,0.306,0.531,0.507,0.858,0.602c0.326,0.096,0.673,0.143,1.041,0.143s0.714-0.047,1.041-0.143
		c0.327-0.095,0.612-0.296,0.857-0.602s0.442-0.745,0.592-1.316c0.149-0.571,0.225-1.34,0.225-2.307c0-0.816-0.055-1.5-0.164-2.051
		s-0.275-1-0.5-1.348c-0.225-0.347-0.507-0.594-0.847-0.744c-0.34-0.149-0.742-0.224-1.204-0.224c-0.463,0-0.864,0.074-1.204,0.224
		c-0.34,0.15-0.623,0.397-0.847,0.744c-0.225,0.348-0.392,0.797-0.5,1.348S50.437,20.03,50.437,20.847z"/>
	<path fill="#545454" d="M59.172,16.459h1.572v-2.632c0.108,0.041,0.21,0.075,0.306,0.102c0.095,0.027,0.258,0.041,0.489,0.041
		c0.204,0,0.381-0.024,0.531-0.072c0.149-0.047,0.292-0.125,0.429-0.235v2.796h2.898v0.286h-2.898v6.673
		c0,0.382,0.037,0.69,0.112,0.929c0.074,0.238,0.174,0.423,0.296,0.552c0.123,0.129,0.255,0.215,0.398,0.254
		c0.143,0.042,0.282,0.062,0.418,0.062c0.476,0,0.86-0.173,1.153-0.521c0.292-0.347,0.48-0.744,0.562-1.194l0.286,0.103
		c-0.041,0.177-0.102,0.374-0.184,0.593c-0.082,0.218-0.208,0.425-0.378,0.622c-0.17,0.197-0.391,0.361-0.663,0.49
		c-0.272,0.129-0.612,0.193-1.021,0.193c-1.021,0-1.731-0.197-2.133-0.592s-0.602-0.952-0.602-1.674v-6.489h-1.572V16.459z"/>
</g>
</svg>
