<?xml version="1.0" encoding="utf-8"?>
<!-- Generator: Adobe Illustrator 16.0.0, SVG Export Plug-In . SVG Version: 6.00 Build 0)  -->
<!DOCTYPE svg PUBLIC "-//W3C//DTD SVG 1.1//EN" "http://www.w3.org/Graphics/SVG/1.1/DTD/svg11.dtd">
<svg version="1.1" id="图层_1" xmlns="http://www.w3.org/2000/svg" xmlns:xlink="http://www.w3.org/1999/xlink" x="0px" y="0px"
	 width="258px" height="36px" viewBox="0 0 258 36" enable-background="new 0 0 258 36" xml:space="preserve">
<g>
	<path fill="#545454" d="M13.257,25.763v-15.71c0-0.154,0.065-0.285,0.196-0.392c0.13-0.107,0.295-0.161,0.496-0.161h4.077
		c1.459,0,2.626,0.396,3.501,1.186c0.875,0.792,1.313,2.031,1.313,3.721v7.002c0,1.705-0.438,2.954-1.313,3.744
		c-0.875,0.791-2.042,1.186-3.501,1.186h-4.077c-0.2,0-0.366-0.058-0.496-0.172C13.322,26.05,13.257,25.916,13.257,25.763z
		 M14.777,24.934h3.248c1.044,0,1.854-0.295,2.431-0.887c0.576-0.591,0.863-1.471,0.863-2.639v-7.002
		c0-1.168-0.288-2.042-0.863-2.627c-0.576-0.582-1.386-0.874-2.431-0.874h-3.248V24.934z"/>
	<path fill="#545454" d="M25.419,22.123v-2.511c0-1.168,0.43-2.177,1.291-3.029c0.859-0.853,1.881-1.279,3.063-1.279
		c1.182,0,2.211,0.423,3.086,1.269c0.875,0.844,1.313,1.857,1.313,3.04v2.511c0,1.151-0.441,2.169-1.325,3.052
		c-0.883,0.884-1.908,1.325-3.075,1.325c-1.152,0-2.166-0.441-3.041-1.325C25.857,24.292,25.419,23.274,25.419,22.123z
		 M26.917,22.116c0,0.779,0.28,1.47,0.841,2.073s1.232,0.905,2.016,0.905c0.798,0,1.481-0.302,2.05-0.905
		c0.568-0.604,0.852-1.294,0.852-2.073v-2.498c0-0.747-0.288-1.42-0.864-2.016s-1.255-0.894-2.039-0.894s-1.455,0.298-2.016,0.894
		s-0.841,1.269-0.841,2.016V22.116z"/>
	<path fill="#545454" d="M35.946,24.841c0-0.153,0.053-0.308,0.161-0.461c0.107-0.153,0.23-0.23,0.369-0.23
		c0.107,0,0.277,0.089,0.507,0.266c0.23,0.176,0.561,0.356,0.991,0.541c0.429,0.185,0.944,0.276,1.543,0.276
		c0.813,0,1.412-0.152,1.796-0.461c0.383-0.307,0.576-0.699,0.576-1.175c0-0.553-0.195-0.994-0.587-1.325
		c-0.392-0.329-0.864-0.579-1.417-0.746s-1.11-0.336-1.67-0.507c-0.56-0.17-1.036-0.466-1.428-0.888s-0.587-0.988-0.587-1.693
		c0-0.845,0.303-1.578,0.91-2.199c0.606-0.623,1.517-0.935,2.73-0.935c0.752,0,1.455,0.12,2.108,0.357
		c0.652,0.238,0.979,0.495,0.979,0.771c0,0.154-0.062,0.323-0.185,0.508s-0.269,0.276-0.438,0.276c-0.046,0-0.33-0.107-0.852-0.323
		c-0.522-0.214-1.052-0.321-1.589-0.321c-0.768,0-1.344,0.18-1.728,0.541c-0.384,0.36-0.576,0.767-0.576,1.218
		c0,0.467,0.199,0.836,0.597,1.106c0.398,0.271,0.874,0.487,1.428,0.652c0.554,0.164,1.115,0.33,1.684,0.498
		s1.045,0.503,1.428,1.002c0.384,0.499,0.575,1.146,0.575,1.938c0,0.922-0.327,1.646-0.979,2.177
		c-0.653,0.529-1.563,0.795-2.729,0.795c-1.014,0-1.87-0.181-2.569-0.542C36.295,25.598,35.946,25.226,35.946,24.841z"/>
	<path fill="#545454" d="M45.506,11.93c-0.2-0.191-0.3-0.418-0.3-0.68c0-0.261,0.1-0.483,0.3-0.668
		c0.199-0.185,0.445-0.276,0.737-0.276c0.276,0,0.51,0.092,0.703,0.276c0.192,0.185,0.288,0.407,0.288,0.668
		c0,0.262-0.096,0.488-0.288,0.68c-0.192,0.192-0.426,0.288-0.703,0.288C45.951,12.218,45.705,12.122,45.506,11.93z M45.506,25.739
		v-9.743c0-0.154,0.069-0.285,0.207-0.393c0.138-0.106,0.314-0.16,0.53-0.16c0.215,0,0.395,0.054,0.541,0.16
		c0.146,0.107,0.219,0.238,0.219,0.393v9.743c0,0.154-0.077,0.292-0.23,0.415c-0.154,0.123-0.331,0.184-0.53,0.184
		c-0.2,0-0.373-0.061-0.519-0.184S45.506,25.894,45.506,25.739z"/>
	<path fill="#545454" d="M49.214,24.841c0-0.153,0.053-0.308,0.161-0.461c0.107-0.153,0.23-0.23,0.368-0.23
		c0.108,0,0.277,0.089,0.507,0.266c0.23,0.176,0.56,0.356,0.99,0.541c0.43,0.185,0.944,0.276,1.544,0.276
		c0.813,0,1.412-0.152,1.796-0.461c0.383-0.307,0.576-0.699,0.576-1.175c0-0.553-0.196-0.994-0.587-1.325
		c-0.392-0.329-0.865-0.579-1.417-0.746s-1.11-0.336-1.67-0.507c-0.56-0.17-1.036-0.466-1.428-0.888s-0.588-0.988-0.588-1.693
		c0-0.845,0.303-1.578,0.91-2.199c0.606-0.623,1.516-0.935,2.73-0.935c0.752,0,1.455,0.12,2.107,0.357
		c0.652,0.238,0.979,0.495,0.979,0.771c0,0.154-0.062,0.323-0.184,0.508c-0.123,0.185-0.269,0.276-0.438,0.276
		c-0.046,0-0.33-0.107-0.852-0.323c-0.522-0.214-1.052-0.321-1.589-0.321c-0.768,0-1.344,0.18-1.728,0.541
		c-0.384,0.36-0.576,0.767-0.576,1.218c0,0.467,0.199,0.836,0.597,1.106c0.398,0.271,0.875,0.487,1.428,0.652
		c0.554,0.164,1.115,0.33,1.684,0.498c0.569,0.168,1.045,0.503,1.429,1.002c0.383,0.499,0.575,1.146,0.575,1.938
		c0,0.922-0.327,1.646-0.979,2.177c-0.653,0.529-1.563,0.795-2.729,0.795c-1.014,0-1.87-0.181-2.569-0.542
		C49.563,25.598,49.214,25.226,49.214,24.841z"/>
</g>
</svg>
