<?xml version="1.0" encoding="utf-8"?>
<!-- Generator: Adobe Illustrator 16.0.0, SVG Export Plug-In . SVG Version: 6.00 Build 0)  -->
<!DOCTYPE svg PUBLIC "-//W3C//DTD SVG 1.1//EN" "http://www.w3.org/Graphics/SVG/1.1/DTD/svg11.dtd">
<svg version="1.1" id="图层_1" xmlns="http://www.w3.org/2000/svg" xmlns:xlink="http://www.w3.org/1999/xlink" x="0px" y="0px"
	 width="258px" height="36px" viewBox="0 0 258 36" enable-background="new 0 0 258 36" xml:space="preserve">
<g>
	<path fill="#545454" d="M19.761,10.026c0.142,0,0.248,0.093,0.319,0.279c0.071,0.188,0.106,0.372,0.106,0.552
		c0,0.181,0.142,2.162,0.426,5.942c0.426-0.129,0.829-0.193,1.21-0.193c0.38,0,0.777,0.081,1.19,0.242
		c0.413,0.161,0.729,0.313,0.948,0.454c0.219,0.143,0.564,0.395,1.035,0.755c0.471,0.361,0.765,0.581,0.881,0.658
		c0.335-0.606,0.503-1.242,0.503-1.906s-0.313-1.522-0.938-2.574c-0.626-1.051-1.387-2.055-2.284-3.01s-1.9-1.773-3.009-2.458
		c-1.11-0.684-2.097-1.026-2.961-1.026c-0.658,0-1.335,0.33-2.032,0.988c-0.542,0.58-0.929,1.109-1.161,1.586
		c-0.064,0.116-0.152,0.175-0.261,0.175c-0.11,0-0.207-0.036-0.291-0.106s-0.125-0.151-0.125-0.242l0.019-0.136
		c0.323-0.593,0.98-1.36,1.975-2.303c0.49-0.478,1.048-0.881,1.674-1.21C17.609,6.165,18.222,6,18.822,6c0.6,0,1.3,0.155,2.1,0.465
		s1.6,0.758,2.4,1.345c0.799,0.587,1.539,1.252,2.216,1.993c0.678,0.742,1.226,1.594,1.645,2.556
		c0.419,0.961,0.629,1.974,0.629,3.038s-0.419,2.313-1.258,3.745c0.478,0.271,0.942,0.407,1.394,0.407
		c0.142,0,0.329-0.081,0.562-0.242c0.232-0.161,0.393-0.242,0.483-0.242c0.181,0,0.271,0.091,0.271,0.271
		c0,0.362-0.357,0.855-1.074,1.48c-0.716,0.626-1.423,0.939-2.12,0.939c-0.361,0-0.787-0.129-1.277-0.388
		c-1.704,1.703-3.542,2.556-5.517,2.556c-0.723,0-1.274-0.193-1.655-0.581s-0.571-0.948-0.571-1.684
		c0-0.736,0.258-1.556,0.774-2.458c0.516-0.903,1.187-1.588,2.013-2.052c-0.349-3.833-0.526-5.788-0.532-5.865
		c-0.007-0.077-0.052-0.151-0.136-0.222s-0.126-0.174-0.126-0.311c0-0.135,0.084-0.289,0.251-0.464
		C19.464,10.112,19.619,10.026,19.761,10.026z M20.748,18.6c0.077,0.852,0.116,1.362,0.116,1.529c0,0.284-0.116,0.426-0.349,0.426
		c-0.232,0-0.361-0.104-0.387-0.31c0-0.039-0.01-0.136-0.029-0.291c-0.02-0.154-0.042-0.387-0.068-0.696s-0.052-0.601-0.077-0.871
		l-0.058-0.019c-0.671,0-1.007,0.393-1.007,1.181c0,0.58,0.31,1.087,0.929,1.519c0.62,0.433,1.251,0.648,1.896,0.648
		c0.646,0,1.387-0.297,2.226-0.89c-0.245-0.168-0.594-0.426-1.045-0.774C21.941,19.303,21.225,18.819,20.748,18.6z"/>
	<path fill="#545454" d="M29.67,18.755l-0.523,0.038c-0.232,0-0.348-0.058-0.348-0.174c0-0.181,0.229-0.526,0.687-1.035
		c0.458-0.51,0.868-0.765,1.229-0.765c0.155,0,0.293,0.045,0.416,0.135c0.123,0.092,0.19,0.201,0.204,0.33l0.097,0.87
		c0.039,0.052,0.077,0.077,0.116,0.077c0.039,0,0.142-0.103,0.31-0.31c0.542-0.632,1.025-0.947,1.452-0.947
		c0.167,0,0.303,0.026,0.406,0.077c0.103,0.052,0.223,0.151,0.358,0.3s0.21,0.229,0.223,0.242c0.09-0.039,0.181-0.059,0.271-0.059
		c0.142,0,0.213,0.087,0.213,0.262c0,0.174-0.251,0.497-0.755,0.968c-0.503,0.471-0.877,0.707-1.123,0.707s-0.452-0.11-0.619-0.33
		c-0.168-0.22-0.291-0.329-0.368-0.329c-0.297,0-0.445,0.155-0.445,0.465c0,0.232,0.106,0.626,0.319,1.181
		c0.213,0.555,0.319,0.884,0.319,0.987c0,0.258-0.132,0.46-0.397,0.609c-0.265,0.148-0.555,0.223-0.871,0.223
		c-0.316,0-0.571-0.052-0.765-0.154c-0.194-0.104-0.291-0.246-0.291-0.426l0.542-2.342C30.328,18.954,30.108,18.755,29.67,18.755z"
		/>
	<path fill="#545454" d="M49.683,9.426c-0.091,0-0.165-0.029-0.223-0.088c-0.058-0.058-0.086-0.118-0.086-0.184
		c0-0.064,0.032-0.154,0.097-0.271c0.064-0.116,0.097-0.226,0.097-0.329c0-0.297-0.152-0.513-0.455-0.648
		c-0.303-0.136-0.617-0.203-0.939-0.203c-0.955,0-1.952,0.323-2.99,0.968s-1.648,1.42-1.829,2.322
		c0.064,0.542,0.333,1.049,0.804,1.52c0.471,0.471,1.016,0.878,1.635,1.22s1.232,0.687,1.839,1.035
		c0.606,0.349,1.116,0.762,1.529,1.238c0.413,0.478,0.619,0.965,0.619,1.462s-0.181,0.98-0.542,1.451
		c-0.361,0.471-0.72,0.868-1.074,1.19c-0.355,0.323-0.532,0.494-0.532,0.513c0,0.02,0.019,0.029,0.058,0.029
		c0.787,0,1.864-0.433,3.232-1.296l0.193-0.137c0.091-0.051,0.158-0.077,0.204-0.077c0.045,0,0.094,0.039,0.145,0.116
		c0.052,0.077,0.078,0.162,0.078,0.252s-0.084,0.181-0.252,0.271c-0.749,0.71-2.146,1.388-4.19,2.033
		c-2.045,0.645-3.894,0.967-5.545,0.967c-2.258,0-3.387-0.657-3.387-1.975c0-0.193,0.194-0.471,0.581-0.831
		c0.594-0.542,0.955-0.813,1.084-0.813c0.128,0,0.458,0.161,0.987,0.483c0.529,0.323,1.193,0.646,1.994,0.968
		c0.8,0.323,1.593,0.484,2.38,0.484c0.787,0,1.39-0.245,1.81-0.735s0.629-0.993,0.629-1.511c0-0.516-0.22-0.979-0.658-1.393
		c-0.438-0.412-0.971-0.777-1.597-1.094s-1.254-0.642-1.887-0.978c-0.632-0.335-1.168-0.741-1.606-1.219
		c-0.439-0.478-0.658-1-0.658-1.567c0-0.917,0.51-1.878,1.529-2.885c1.019-1.007,2.187-1.819,3.503-2.438
		c1.316-0.619,2.439-0.929,3.368-0.929c1.161,0,1.742,0.387,1.742,1.161c0,0.464-0.21,0.899-0.629,1.307
		C50.318,9.222,49.966,9.426,49.683,9.426z"/>
	<path fill="#545454" d="M60.057,19.413c-0.258,0.464-0.746,0.997-1.461,1.597c-0.716,0.6-1.345,0.899-1.887,0.899
		c-1.02,0-1.555-0.625-1.606-1.877c0-0.116-0.026-0.174-0.077-0.174c-0.026,0-0.159,0.154-0.397,0.464
		c-0.239,0.31-0.568,0.623-0.987,0.939c-0.419,0.315-0.852,0.474-1.297,0.474c-0.445,0-0.8-0.136-1.064-0.406
		c-0.265-0.271-0.397-0.636-0.397-1.094s0.135-1.062,0.406-1.811c0.271-0.747,0.536-1.122,0.794-1.122
		c0.128,0.014,0.235,0.077,0.319,0.193s0.129,0.246,0.136,0.388c0.006,0.142,0.036,0.316,0.087,0.522
		c0.051,0.206,0.193,0.436,0.425,0.687c0.232,0.252,0.535,0.379,0.91,0.379c0.646,0,1.174-0.556,1.587-1.666
		c0-0.012,0.013-0.047,0.039-0.105s0.045-0.104,0.058-0.137c0.013-0.031,0.032-0.077,0.058-0.135c0.025-0.059,0.051-0.1,0.077-0.126
		c0.181-0.142,0.329-0.142,0.445,0c0.077,0.104,0.123,0.291,0.135,0.562c0,0.413,0.177,0.816,0.533,1.21
		c0.354,0.394,0.816,0.591,1.384,0.591c0.567,0,1.019-0.168,1.355-0.504c0.128-0.154,0.258-0.231,0.387-0.231
		c0.09,0,0.136,0.051,0.136,0.154C60.154,19.187,60.121,19.297,60.057,19.413z"/>
	<path fill="#545454" d="M63.057,22.49c-0.026-0.413-0.039-1.045-0.039-1.896c-0.026,0-0.12,0.081-0.281,0.242
		c-0.162,0.161-0.342,0.335-0.542,0.521c-0.2,0.188-0.452,0.361-0.754,0.523c-0.303,0.161-0.655,0.242-1.055,0.242
		s-0.726-0.124-0.977-0.368c-0.252-0.245-0.378-0.574-0.378-0.987c0-0.891,0.436-1.81,1.307-2.758
		c0.871-0.949,1.823-1.423,2.855-1.423c0.322,0,0.583,0.074,0.784,0.223c0.199,0.148,0.299,0.339,0.299,0.57
		c0,0.207-0.076,0.401-0.231,0.581c-0.271,0.31-0.613,0.464-1.026,0.464c-0.155,0-0.232-0.045-0.232-0.135
		c0-0.051,0.016-0.109,0.048-0.175c0.032-0.063,0.049-0.147,0.049-0.251c0-0.258-0.123-0.387-0.368-0.387
		c-0.401,0-0.736,0.174-1.007,0.521c-0.271,0.349-0.406,0.691-0.406,1.026c0,0.336,0.081,0.584,0.242,0.745
		c0.161,0.161,0.345,0.242,0.551,0.242s0.445-0.097,0.716-0.29c0.271-0.194,0.445-0.413,0.522-0.658
		c0.09-0.336,0.291-0.503,0.6-0.503c0.115,0,0.174,0.087,0.174,0.261c0,0.175-0.041,0.413-0.125,0.717
		c-0.084,0.303-0.143,0.574-0.175,0.813s-0.048,0.745-0.048,1.52c0.786-0.93,1.502-1.69,2.148-2.284
		c0.141-0.142,0.283-0.213,0.426-0.213c0.141,0,0.213,0.049,0.213,0.145c0,0.098-0.072,0.211-0.213,0.34
		c-1.123,1.019-1.975,1.89-2.556,2.612c0.026,0.929,0.039,1.685,0.039,2.265c0,1.587-0.119,2.861-0.358,3.822
		C63.021,29.52,62.566,30,61.896,30c-0.426,0-0.755-0.203-0.987-0.61c-0.232-0.406-0.348-0.957-0.348-1.654
		C60.56,26.329,61.392,24.581,63.057,22.49z M62.282,24.755c-0.116,0.464-0.174,1.02-0.174,1.665c0,0.645,0.174,0.986,0.523,1.024
		c0.296,0,0.445-0.916,0.445-2.747c0-0.633-0.007-1.143-0.02-1.529C62.657,23.761,62.398,24.29,62.282,24.755z"/>
	<path fill="#545454" d="M69.617,19.49c0.129-0.103,0.246-0.155,0.35-0.155c0.18,0,0.271,0.116,0.271,0.349
		c0,0.323-0.4,0.804-1.2,1.442s-1.49,0.958-2.07,0.958c-0.581,0-1.033-0.207-1.355-0.619c-0.322-0.413-0.484-0.945-0.484-1.598
		c0-0.65,0.109-1.28,0.33-1.887c0.219-0.606,0.438-0.91,0.657-0.91c0.104,0.014,0.155,0.171,0.155,0.475s0.045,0.636,0.136,0.996
		c0.09,0.362,0.286,0.707,0.59,1.036s0.697,0.493,1.181,0.493C68.66,20.07,69.141,19.877,69.617,19.49z M65.602,15.271
		c-0.2-0.219-0.3-0.489-0.3-0.813c0-0.322,0.1-0.594,0.3-0.813c0.2-0.22,0.448-0.33,0.746-0.33c0.296,0,0.544,0.11,0.744,0.33
		c0.2,0.219,0.301,0.49,0.301,0.813c0,0.323-0.101,0.594-0.301,0.813c-0.2,0.22-0.448,0.329-0.744,0.329
		C66.05,15.6,65.802,15.49,65.602,15.271z"/>
	<path fill="#545454" d="M71.012,17.052l-0.078,0.774c0,0.554,0.184,1.022,0.552,1.403c0.368,0.38,0.815,0.577,1.345,0.59
		c0.323-0.013,0.623-0.107,0.9-0.28c0.277-0.175,0.475-0.339,0.591-0.493l0.155-0.253c0.012-0.438,0.076-0.806,0.193-1.103
		c0.18-0.504,0.393-0.755,0.639-0.755h0.058c0.142,0.052,0.213,0.259,0.213,0.619c0,0.155-0.148,0.458-0.445,0.909l-0.155,0.252
		c0,0.994,0.007,1.729,0.02,2.206c0.748-0.709,1.304-1.29,1.665-1.741c0.167-0.129,0.3-0.193,0.397-0.193
		c0.096,0,0.145,0.048,0.145,0.145c0,0.098-0.084,0.217-0.252,0.358c-0.387,0.31-1.032,0.961-1.936,1.955l0.059,2.961
		c0,1.601-0.11,2.813-0.33,3.639c-0.219,0.825-0.632,1.238-1.238,1.238c-0.49,0-0.896-0.251-1.219-0.755
		c-0.322-0.503-0.484-1.051-0.484-1.645c0-1.136,0.236-2.119,0.707-2.952c0.471-0.831,1.139-1.674,2.003-2.525
		c-0.026-0.929-0.038-1.438-0.038-1.529c0-0.09-0.036-0.135-0.107-0.135c-0.07,0-0.151,0.064-0.242,0.193
		c-0.451,0.478-0.78,0.813-0.986,1.006c-0.555,0.542-1.113,0.813-1.674,0.813c-0.563,0-1.007-0.188-1.336-0.562
		s-0.494-0.907-0.494-1.597s0.133-1.322,0.397-1.896s0.513-0.861,0.745-0.861C70.934,16.839,71.012,16.909,71.012,17.052z
		 M74.069,27.097c0.31,0,0.465-1.277,0.465-3.833c0-0.542-0.007-0.941-0.02-1.199c-0.813,1.096-1.22,2.083-1.22,2.961
		c0,0.503,0.062,0.975,0.184,1.413C73.602,26.877,73.799,27.097,74.069,27.097z"/>
	<path fill="#545454" d="M81.115,18.813l-0.078,0.543c0,0.231,0.1,0.473,0.301,0.725c0.199,0.253,0.435,0.378,0.705,0.378
		c0.207,0,0.375-0.045,0.504-0.136c0.283-0.193,0.461-0.325,0.532-0.396s0.187-0.106,0.349-0.106c0.161,0,0.242,0.058,0.242,0.174
		c0,0.13-0.304,0.535-0.91,1.22c-0.193,0.22-0.477,0.452-0.852,0.696c-0.375,0.245-0.706,0.368-0.997,0.368
		c-0.29,0-0.51-0.049-0.657-0.146c-0.148-0.097-0.256-0.248-0.32-0.455c-0.076-0.283-0.115-0.632-0.115-1.045
		c0-0.051-0.033-0.077-0.098-0.077s-0.213,0.129-0.445,0.387c-0.723,0.748-1.307,1.123-1.751,1.123
		c-0.445,0-0.787-0.116-1.025-0.349c-0.239-0.232-0.358-0.529-0.358-0.89c0-0.632,0.168-1.236,0.503-1.811
		c0.335-0.573,0.735-1.035,1.2-1.384c1.032-0.761,1.832-1.142,2.4-1.142c0.852,0.026,1.277,0.329,1.277,0.91
		c0,0.206-0.091,0.409-0.271,0.609s-0.348,0.3-0.503,0.3s-0.368-0.136-0.639-0.406c-0.271-0.271-0.567-0.407-0.891-0.407
		s-0.587,0.133-0.794,0.397c-0.206,0.265-0.309,0.603-0.309,1.016c0,0.672,0.354,1.007,1.064,1.007c0.283,0,0.519-0.07,0.706-0.213
		c0.187-0.142,0.319-0.297,0.397-0.464c0.219-0.439,0.418-0.659,0.6-0.659C81.037,18.58,81.115,18.657,81.115,18.813z"/>
	<path fill="#545454" d="M87.521,20.71c0-0.555-0.063-0.833-0.185-0.833c-0.123,0-0.29,0.162-0.503,0.484s-0.442,0.648-0.688,0.978
		c-0.245,0.328-0.471,0.493-0.678,0.493c-0.115,0-0.293-0.206-0.531-0.619c-0.24-0.413-0.5-0.823-0.785-1.229
		c-0.283-0.406-0.535-0.609-0.754-0.609c-0.064,0-0.098-0.032-0.098-0.097c0-0.207,0.246-0.581,0.736-1.123s0.842-0.813,1.055-0.813
		s0.529,0.336,0.948,1.006c0.419,0.672,0.7,1.008,0.843,1.008c0.141,0,0.428-0.265,0.86-0.794s0.774-0.794,1.026-0.794
		s0.438,0.1,0.561,0.301c0.123,0.199,0.193,0.415,0.213,0.647s0.042,0.448,0.068,0.648c0.025,0.2,0.077,0.301,0.154,0.301
		c0.129,0,0.462-0.32,0.997-0.959c0.535-0.638,0.926-0.958,1.171-0.958c0.271,0,0.723,0.406,1.355,1.22
		c0.231,0.31,0.525,0.59,0.88,0.842c0.354,0.251,0.648,0.377,0.881,0.377s0.458-0.039,0.677-0.116
		c0.22-0.077,0.406-0.116,0.562-0.116s0.233,0.053,0.233,0.155c0,0.052-0.023,0.097-0.068,0.136s-0.154,0.139-0.329,0.3
		c-0.175,0.162-0.316,0.287-0.426,0.377c-0.11,0.091-0.265,0.217-0.464,0.378c-0.201,0.161-0.371,0.287-0.514,0.377
		c-0.387,0.232-0.752,0.349-1.094,0.349s-0.723-0.19-1.142-0.57c-0.42-0.381-0.781-0.762-1.084-1.143
		c-0.304-0.381-0.526-0.57-0.668-0.57s-0.37,0.193-0.687,0.58c-0.316,0.388-0.639,0.774-0.968,1.161
		c-0.329,0.388-0.613,0.581-0.852,0.581c-0.239,0-0.419-0.11-0.542-0.329s-0.184-0.458-0.184-0.716L87.521,20.71z"/>
	<path fill="#545454" d="M100.779,18.813l-0.078,0.543c0,0.231,0.1,0.473,0.301,0.725c0.199,0.253,0.435,0.378,0.705,0.378
		c0.207,0,0.375-0.045,0.504-0.136c0.283-0.193,0.461-0.325,0.532-0.396s0.187-0.106,0.349-0.106c0.161,0,0.242,0.058,0.242,0.174
		c0,0.13-0.304,0.535-0.91,1.22c-0.193,0.22-0.478,0.452-0.852,0.696c-0.375,0.245-0.706,0.368-0.997,0.368
		c-0.29,0-0.51-0.049-0.657-0.146c-0.148-0.097-0.256-0.248-0.32-0.455c-0.076-0.283-0.115-0.632-0.115-1.045
		c0-0.051-0.033-0.077-0.098-0.077s-0.213,0.129-0.445,0.387c-0.723,0.748-1.307,1.123-1.751,1.123
		c-0.445,0-0.787-0.116-1.026-0.349c-0.238-0.232-0.357-0.529-0.357-0.89c0-0.632,0.167-1.236,0.503-1.811
		c0.335-0.573,0.735-1.035,1.2-1.384c1.032-0.761,1.832-1.142,2.4-1.142c0.852,0.026,1.277,0.329,1.277,0.91
		c0,0.206-0.091,0.409-0.271,0.609s-0.348,0.3-0.503,0.3s-0.368-0.136-0.639-0.406c-0.271-0.271-0.567-0.407-0.891-0.407
		s-0.587,0.133-0.794,0.397c-0.206,0.265-0.309,0.603-0.309,1.016c0,0.672,0.354,1.007,1.064,1.007c0.283,0,0.519-0.07,0.706-0.213
		c0.187-0.142,0.319-0.297,0.397-0.464c0.219-0.439,0.418-0.659,0.6-0.659C100.701,18.58,100.779,18.657,100.779,18.813z"/>
</g>
</svg>
