<?xml version="1.0" encoding="utf-8"?>
<!-- Generator: Adobe Illustrator 16.0.0, SVG Export Plug-In . SVG Version: 6.00 Build 0)  -->
<!DOCTYPE svg PUBLIC "-//W3C//DTD SVG 1.1//EN" "http://www.w3.org/Graphics/SVG/1.1/DTD/svg11.dtd">
<svg version="1.1" id="图层_1" xmlns="http://www.w3.org/2000/svg" xmlns:xlink="http://www.w3.org/1999/xlink" x="0px" y="0px"
	 width="258px" height="36px" viewBox="0 0 258 36" enable-background="new 0 0 258 36" xml:space="preserve">
<g>
	<path fill="#545454" d="M24.009,9.783l0.932,0.647c-0.273,1.145-0.765,1.693-1.477,1.648l-5.046,0.228l-0.022,0.386l0.954,0.068
		l1.171-0.113l0.182,0.217l0.193,0.01l1.364-0.113l0.386,0.033l-0.011,0.194l-4.489,0.466l-0.352,2.501l0.193,0.01l5.25-0.42
		l0.17,0.203l-0.011,0.194l-0.387-0.033v0.192l1.33,0.295l-0.011,0.194c-0.28,0.72-2.129,1.304-5.545,1.749l-1.943,0.069
		l0.182,0.192l-0.932,2.455h-0.193l0.114-1.739l-0.193-0.011l-0.375,2.682c3.856-0.516,6.58-0.72,8.17-0.614l0.943,0.263
		l-0.011,0.385L24.157,22l0.17,0.203l-0.034,0.58c-0.372,0.485-1.16,0.69-2.364,0.614l-0.011,0.193l1.545,0.102l-0.034,0.387
		l-8.989,1.318l-0.193-0.012c-0.622-0.137-0.932-0.337-0.932-0.602v-0.036l0.034-0.578l0.535-2.091l-0.182-0.205l0.387,0.011
		l-0.068,0.967l0.193,0.023c0.076-0.645,0.227-0.955,0.454-0.932l-0.182-0.217l0.136-1.92l-0.386-0.034l-0.261,0.954l0.216-0.182
		l0.193,0.012l-0.08,1.159l-0.193-0.023l0.034-0.568l-0.193-0.011L13.929,21.5l-0.193-0.012l0.023-0.387l0.614-3.262l-0.194-0.011
		l0.443-0.932l-0.182-0.205l0.011-0.192l0.42-3.262l0.182,0.205l0.193,0.011l0.023-0.387l-0.125-0.977l0.307-1.728l0.034-0.58
		l0.193,0.022l0.182,0.205l0.205-0.182l0.193,0.022l0.182,0.194l0.205-0.183l0.579,0.046L24.009,9.783z M14.339,18.228l-0.091,1.352
		l0.193,0.012l0.091-1.342L14.339,18.228z M20.714,18.477h0.193l-0.023,0.193l-3.5,0.353l-0.181-0.216l0.011-0.182l1.75-0.079
		l-0.012,0.191L20.714,18.477z"/>
	<path fill="#545454" d="M27.85,9.728h0.773l0.58,0.385l1.352-0.192c2.235,0,4.296,1.288,6.182,3.863l0.966,1.932l-0.193,0.194
		l0.193,0.965v0.966c0,3.312-2.705,5.822-8.113,7.534l-1.932,0.193c0-0.326-0.257-0.519-0.772-0.579v0.773h-0.58v-1.16l-0.193-0.192
		l0.193-0.194v-0.193c-0.772-0.529-1.159-0.98-1.159-1.352c0.386-5.833,1.03-10.083,1.932-12.75h0.193l0.193,0.192L27.85,9.728z
		 M25.918,24.602h0.193v0.192l-0.387,0.389h-0.193v-0.194L25.918,24.602z M27.077,11.658l-0.966,5.604v0.192h0.193l0.966-5.409
		v-0.387H27.077z M28.043,23.442l0.193,0.579h0.386l0.387-0.385v-0.194h-0.193l-0.58,0.194L28.043,23.442z M30.168,13.012
		c0,0.257-0.258,0.386-0.773,0.386c-0.516,2.348-0.901,5.053-1.159,8.114c0.75,0,2.682-0.645,5.795-1.933v-0.194h-0.386
		c1.03-1.052,1.545-2.146,1.545-3.283v-0.58c0-1.416-0.966-2.253-2.897-2.51H30.168z M29.589,23.249v0.193h0.772l0.966-0.386v-0.193
		h-0.193L29.589,23.249z M34.032,13.012v0.191l0.772,0.388v-0.193l-0.58-0.386H34.032z M34.032,22.091
		c0.303-0.045,0.754-0.434,1.353-1.161v-0.191L34.032,22.091z M35.191,18.612l-0.387,0.772h0.193l0.387-0.772H35.191z
		 M35.771,15.715l-0.193,2.318h0.387v-0.579l0.193-0.771l-0.193-0.968H35.771z M37.123,17.262l-0.966,3.09v0.193h0.193l0.966-2.897
		v-0.386H37.123z"/>
	<path fill="#545454" d="M46.623,9.728c1.515,0,2.932,0.45,4.25,1.352l-0.193,0.193v0.192l0.773,1.159h-0.387l-0.193-0.194H50.68
		l0.579,4.253h0.194c0-0.645,0.128-0.968,0.386-0.968v0.773c0,0.728-0.644,2.401-1.931,5.023H50.1
		c-0.909,1.249-2.262,2.408-4.057,3.477l-0.965,0.194h-0.194c-3.06,0-4.992-1.225-5.795-3.671l-0.772-1.16l0.193-0.193l-0.193-1.352
		V18.42c0-1.068,1.03-2.936,3.091-5.602v0.193c-0.948,1.271-1.72,2.689-2.319,4.25v0.192h0.194c0.469-1.888,2.208-4.269,5.215-7.147
		l-1.352,0.772h-0.193C42.953,10.488,44.176,10.037,46.623,9.728z M38.896,18.42v1.545h0.193V18.42H38.896z M41.407,15.715
		l-0.58,1.159h0.193l0.58-1.159H41.407z M45.657,13.012l-0.194-0.193v0.193l0.194,0.191l-1.353,1.16
		c-1.068,0-2.099,1.804-3.091,5.409c0,1.03,0.58,1.931,1.739,2.704h0.193c1.409,0,3.019-1.481,4.83-4.443
		c0.644-1.409,0.966-2.439,0.966-3.091v-1.545c0-0.356-0.644-0.613-1.932-0.773h-0.193l-0.193,0.194H46.43v-0.194L45.657,13.012z
		 M41.793,23.249v0.193l0.966,0.579v-0.192L41.793,23.249z M47.975,19l-0.772,0.965h0.193L48.168,19H47.975z M48.941,16.874
		l-0.773,1.933h0.58l0.58-1.353l-0.194-0.58H48.941z M50.293,17.647l-0.193,0.58v0.385h0.193l0.193-0.772v-0.192H50.293z
		 M51.259,13.591h0.387v0.966h-0.387V13.591z"/>
	<path fill="#545454" d="M64.838,9.5c0.342,0.258,1.425,0.385,3.251,0.385l-0.011,0.194h-1.354l-0.012,0.194
		c1.615,0,2.622,0.385,3.023,1.157l-0.022,0.388h-0.966l-0.012,0.192l1.341,0.193l-0.011,0.192h-1.159l-0.012,0.194
		c0.386,0,0.571,0.129,0.557,0.385c-2.296,0-4.345,0.839-6.147,2.513l-0.012,0.193c2.492,0.666,4.466,2.147,5.92,4.442l-0.011,0.194
		c-0.47,1.666-1.784,3.212-3.942,4.636l-1.182,0.192l-0.012,0.193h0.386c-0.015,0.349-1.197,0.734-3.545,1.16l0.022-0.387h0.966
		l0.023-0.193c-0.826,0-1.572-0.451-2.239-1.353c-0.576-0.295-0.864-0.859-0.864-1.692c0-0.076,0.003-0.155,0.011-0.239l0.603-0.387
		l0.557,0.387h0.386c3.636-0.568,5.511-1.727,5.625-3.478C64.475,18.385,63.467,18,62.975,18l-0.011,0.193l-1.898-0.773l0.182,0.193
		L61.236,18c-1.606-1.182-2.39-2.084-2.352-2.706l1.511-2.703l1.011-0.772l-0.023,0.386L64.838,9.5z M62.134,25.534l-0.012,0.192
		h0.773l0.978-0.192V25.34H63.68L62.134,25.534z M62.202,14.715l-0.011,0.194l3.409-2.125l1.568-0.388l0.023-0.386h-0.387
		C64.767,12.769,63.232,13.67,62.202,14.715z M63.27,22.636h0.194l0.409-0.387H63.68L63.27,22.636z M64.327,24.182v0.192h0.193
		l0.807-0.58L64.327,24.182z M66.748,22.636l-0.83,0.966h0.193l0.83-0.966H66.748z"/>
	<path fill="#545454" d="M70.952,10.021l1.171,0.193l3.875-0.193l4.841,1.421v0.409l0.192,0.205l-0.192,0.204h-0.193v0.205h0.386
		l0.387-0.409h0.193v0.808l-7.557,9.169h1.158l1.171-0.215c1.599,0.416,2.629,1.03,3.091,1.84h0.205v0.807l-0.398,0.421h-0.193
		l-0.965-0.421l0.193,0.217v0.386l-1.546-0.386h-0.579c-1.25,0-2.932,0.405-5.046,1.216l-1.159-1.012l0.58-1.637L70.18,22.84v-0.807
		c0.955-1.628,1.537-2.442,1.75-2.442l0.193,0.203l0.193-0.203v-0.206h-0.193c0-0.408,0.258-0.611,0.772-0.611l0.772-1.024
		l-0.193-0.193l0.58-0.408l0.193,0.204c1.151-1.811,1.928-2.761,2.33-2.852v0.203l-2.137,2.853h0.192l3.296-4.079h-0.193
		l-0.773,0.615l-0.192-0.207v-0.203l0.192-0.205l-1.942,0.205h-2.317c-0.614-0.303-1.068-0.777-1.365-1.421v-0.204l0.387-0.614
		c-0.212-0.682-0.533-1.022-0.965-1.022l0.192-0.205V10.021z M73.668,18.363l-0.965,1.228h0.192l0.966-1.228H73.668z M74.634,19.385
		l-0.966,1.217h0.193l0.967-1.217H74.634z M75.998,17.749l-1.17,1.421h0.192l1.171-1.421H75.998z"/>
</g>
</svg>
