<?xml version="1.0" encoding="utf-8"?>
<!-- Generator: Adobe Illustrator 16.0.0, SVG Export Plug-In . SVG Version: 6.00 Build 0)  -->
<!DOCTYPE svg PUBLIC "-//W3C//DTD SVG 1.1//EN" "http://www.w3.org/Graphics/SVG/1.1/DTD/svg11.dtd">
<svg version="1.1" id="图层_1" xmlns="http://www.w3.org/2000/svg" xmlns:xlink="http://www.w3.org/1999/xlink" x="0px" y="0px"
	 width="258px" height="36px" viewBox="0 0 258 36" enable-background="new 0 0 258 36" xml:space="preserve">
<g>
	<path fill="#545454" d="M23.778,10.407c0.331,0,0.579,0.01,0.745,0.031c0.165,0.021,0.352,0.091,0.561,0.205
		c0.208,0.115,0.356,0.311,0.442,0.583c0.086,0.272,0.129,0.64,0.129,1.1s-0.043,0.827-0.129,1.101
		c-0.086,0.273-0.237,0.463-0.453,0.571c-0.216,0.108-0.407,0.173-0.572,0.194c-0.166,0.021-0.421,0.032-0.766,0.032h-6.601v2.18
		h4.25c0.345,0,0.601,0.01,0.766,0.032c0.165,0.021,0.356,0.09,0.572,0.204c0.374,0.216,0.561,0.784,0.561,1.704
		c0,1.008-0.273,1.604-0.819,1.791c-0.23,0.072-0.597,0.107-1.101,0.107h-4.228v4.078c0,0.345-0.011,0.597-0.033,0.754
		c-0.021,0.159-0.089,0.346-0.205,0.561c-0.202,0.389-0.762,0.583-1.683,0.583c-1.007,0-1.597-0.272-1.769-0.819
		c-0.086-0.229-0.129-0.597-0.129-1.101V12.305c0-0.733,0.136-1.232,0.41-1.5c0.273-0.266,0.791-0.397,1.553-0.397H23.778z"/>
	<path fill="#545454" d="M33.485,14.979c0.273,0.086,0.499,0.234,0.68,0.442c0.18,0.209,0.271,0.544,0.271,1.003
		c0,0.461-0.138,0.964-0.411,1.51c-0.273,0.547-0.669,0.82-1.187,0.82c-0.258,0-0.507-0.058-0.744-0.172
		c-0.237-0.115-0.551-0.173-0.938-0.173s-0.751,0.137-1.089,0.409c-0.338,0.274-0.507,0.604-0.507,0.992v4.53
		c0,0.331-0.011,0.579-0.032,0.745c-0.021,0.165-0.09,0.355-0.205,0.571c-0.216,0.374-0.777,0.561-1.684,0.561
		c-0.689,0-1.186-0.122-1.488-0.367c-0.23-0.2-0.359-0.509-0.388-0.927c0-0.144,0-0.352,0-0.626v-7.572
		c0-0.33,0.011-0.578,0.033-0.744c0.021-0.164,0.082-0.348,0.183-0.55c0.202-0.388,0.762-0.583,1.682-0.583
		c0.863,0,1.403,0.166,1.619,0.497c0.158,0.229,0.236,0.468,0.236,0.712c0.072-0.101,0.176-0.223,0.313-0.367
		c0.137-0.144,0.428-0.338,0.875-0.583c0.445-0.243,0.837-0.366,1.176-0.366c0.337,0,0.621,0.019,0.852,0.055
		C32.96,14.833,33.212,14.894,33.485,14.979z"/>
	<path fill="#545454" d="M45.932,19.176c0,0.885-0.219,1.539-0.656,1.963c-0.439,0.425-0.925,0.637-1.457,0.637h-5.112
		c0,0.403,0.237,0.741,0.712,1.014c0.475,0.273,0.949,0.409,1.424,0.409c0.834,0,1.488-0.086,1.963-0.259l0.236-0.086
		c0.346-0.157,0.634-0.237,0.863-0.237c0.461,0,0.855,0.323,1.188,0.972c0.186,0.388,0.279,0.719,0.279,0.992
		c0,1.28-1.531,1.92-4.595,1.92c-1.064,0-2.01-0.184-2.837-0.551c-0.826-0.366-1.471-0.852-1.93-1.456
		c-0.906-1.165-1.359-2.467-1.359-3.905c0-1.812,0.586-3.26,1.758-4.347c1.172-1.085,2.635-1.628,4.39-1.628
		c1.999,0,3.466,0.704,4.401,2.113C45.688,17.476,45.932,18.291,45.932,19.176z M41.381,19.812c0.547,0,0.82-0.229,0.82-0.69
		c0-0.329-0.127-0.597-0.379-0.797c-0.252-0.202-0.611-0.303-1.078-0.303s-0.932,0.191-1.391,0.571
		c-0.461,0.381-0.691,0.787-0.691,1.219H41.381z"/>
	<path fill="#545454" d="M54.961,10.115c0.107-0.208,0.298-0.356,0.571-0.442c0.273-0.087,0.637-0.13,1.09-0.13
		c0.452,0,0.815,0.043,1.089,0.13c0.273,0.086,0.465,0.237,0.572,0.453s0.172,0.406,0.193,0.572
		c0.022,0.165,0.033,0.413,0.033,0.744v12.879c0,0.331-0.011,0.578-0.033,0.744c-0.021,0.166-0.09,0.348-0.205,0.55
		c-0.215,0.388-0.822,0.582-1.822,0.582s-1.557-0.353-1.672-1.057c-0.604,0.69-1.445,1.035-2.523,1.035
		c-1.295,0-2.475-0.563-3.538-1.693c-1.064-1.128-1.597-2.444-1.597-3.947s0.535-2.823,1.607-3.959
		c1.071-1.137,2.246-1.704,3.527-1.704c1.064,0,1.891,0.359,2.48,1.078v-4.53c0-0.33,0.011-0.579,0.033-0.744
		C54.789,10.511,54.854,10.323,54.961,10.115z M51.455,21.84c0.374,0.389,0.827,0.582,1.359,0.582c0.531,0,0.974-0.193,1.326-0.582
		c0.354-0.388,0.529-0.816,0.529-1.284c0-0.466-0.17-0.901-0.508-1.305c-0.338-0.402-0.794-0.604-1.369-0.604
		c-0.576,0-1.035,0.197-1.381,0.593c-0.345,0.396-0.518,0.83-0.518,1.305C50.895,21.021,51.081,21.452,51.455,21.84z"/>
	<path fill="#545454" d="M61.724,16.274c1.208-1.122,2.589-1.684,4.142-1.684s2.927,0.559,4.121,1.673
		c1.193,1.114,1.79,2.535,1.79,4.261c0,1.193-0.31,2.254-0.928,3.182c-0.618,0.927-1.37,1.611-2.255,2.05
		c-0.884,0.438-1.801,0.658-2.75,0.658s-1.869-0.234-2.762-0.701c-0.892-0.468-1.643-1.158-2.254-2.072
		c-0.611-0.913-0.917-1.944-0.917-3.096C59.911,18.819,60.516,17.396,61.724,16.274z M64.42,22.088
		c0.46,0.353,0.928,0.528,1.402,0.528s0.949-0.179,1.424-0.539c0.475-0.359,0.712-0.891,0.712-1.597
		c0-0.704-0.224-1.229-0.669-1.574c-0.445-0.346-0.928-0.518-1.445-0.518s-1,0.179-1.445,0.539
		c-0.445,0.359-0.668,0.888-0.668,1.585C63.73,21.211,63.959,21.735,64.42,22.088z"/>
	<path fill="#545454" d="M79.866,20.524l2.869,2.372c0.358,0.302,0.586,0.533,0.68,0.691c0.093,0.157,0.14,0.309,0.14,0.452
		c0,0.346-0.223,0.813-0.668,1.402c-0.49,0.604-0.921,0.906-1.295,0.906c-0.316,0-0.755-0.209-1.316-0.626l-0.215-0.15
		c-0.332-0.273-0.842-0.752-1.532-1.435c-0.69-0.684-1.216-1.169-1.574-1.457v1.661c0,0.331-0.011,0.579-0.032,0.745
		c-0.021,0.165-0.09,0.355-0.205,0.571c-0.188,0.374-0.741,0.561-1.662,0.561c-0.905,0-1.459-0.194-1.66-0.583
		c-0.102-0.215-0.162-0.404-0.184-0.57s-0.033-0.413-0.033-0.744V11.399c0-0.331,0.012-0.579,0.033-0.745
		c0.021-0.165,0.082-0.355,0.184-0.571C73.596,9.694,74.156,9.5,75.077,9.5c0.69,0,1.179,0.122,1.467,0.367
		c0.245,0.201,0.374,0.518,0.388,0.949c0.015,0.129,0.022,0.331,0.022,0.604v6.839c0.259-0.216,0.65-0.583,1.176-1.101
		c0.524-0.518,0.916-0.884,1.175-1.1l0.26-0.172c0.503-0.389,0.934-0.583,1.294-0.583c0.359,0,0.772,0.291,1.24,0.873
		s0.701,1.04,0.701,1.37c0,0.331-0.267,0.719-0.798,1.165L79.866,20.524z"/>
	<path fill="#545454" d="M91.473,16.059c0.086-0.806,0.653-1.209,1.703-1.209c0.562,0,0.979,0.044,1.252,0.13
		c0.272,0.086,0.464,0.237,0.571,0.453c0.108,0.216,0.173,0.406,0.194,0.572c0.021,0.165,0.032,0.413,0.032,0.744v7.55
		c0,0.331-0.011,0.579-0.032,0.744c-0.021,0.166-0.083,0.356-0.184,0.572c-0.201,0.374-0.693,0.561-1.478,0.561
		s-1.309-0.097-1.575-0.291c-0.266-0.194-0.42-0.479-0.463-0.853c-0.533,0.763-1.421,1.144-2.664,1.144
		c-1.245,0-2.398-0.567-3.463-1.704c-1.064-1.136-1.597-2.456-1.597-3.959s0.536-2.817,1.606-3.947
		c1.072-1.129,2.248-1.693,3.527-1.693c0.49,0,0.936,0.086,1.338,0.259s0.684,0.334,0.842,0.485
		C91.242,15.767,91.371,15.914,91.473,16.059z M87.546,20.545c0,0.476,0.187,0.903,0.562,1.284c0.373,0.381,0.826,0.572,1.358,0.572
		s0.974-0.195,1.327-0.583c0.352-0.389,0.528-0.815,0.528-1.283s-0.169-0.903-0.507-1.306s-0.791-0.604-1.359-0.604
		s-1.028,0.201-1.381,0.604S87.546,20.07,87.546,20.545z"/>
	<path fill="#545454" d="M109.83,10.212c2.128,0,3.977,0.77,5.544,2.309s2.352,3.448,2.352,5.728c0,2.28-0.748,4.221-2.243,5.824
		c-1.496,1.604-3.338,2.405-5.523,2.405s-4.045-0.79-5.576-2.372s-2.297-3.466-2.297-5.652c0-1.193,0.215-2.313,0.646-3.354
		c0.432-1.043,1.006-1.916,1.726-2.621c0.72-0.704,1.546-1.258,2.481-1.661C107.873,10.414,108.838,10.212,109.83,10.212z
		 M105.904,18.345c0,1.28,0.412,2.319,1.24,3.117c0.826,0.799,1.75,1.198,2.771,1.198s1.941-0.389,2.762-1.165
		c0.819-0.777,1.229-1.82,1.229-3.128c0-1.31-0.413-2.358-1.24-3.15c-0.827-0.79-1.751-1.187-2.772-1.187s-1.941,0.399-2.762,1.198
		C106.313,16.025,105.904,17.065,105.904,18.345z"/>
	<path fill="#545454" d="M125.448,14.85c1.438,0,2.636,0.551,3.592,1.65c0.956,1.101,1.435,2.442,1.435,4.024v3.797
		c0,0.331-0.011,0.578-0.032,0.744s-0.083,0.348-0.184,0.55c-0.201,0.388-0.763,0.582-1.683,0.582c-1.021,0-1.611-0.267-1.77-0.798
		c-0.086-0.245-0.129-0.611-0.129-1.101v-3.797c0-0.589-0.169-1.05-0.507-1.381c-0.339-0.329-0.791-0.495-1.358-0.495
		c-0.568,0-1.029,0.173-1.381,0.518c-0.353,0.345-0.529,0.798-0.529,1.358v3.819c0,0.331-0.011,0.578-0.032,0.744
		s-0.09,0.348-0.204,0.55c-0.188,0.388-0.741,0.582-1.662,0.582c-0.905,0-1.459-0.194-1.66-0.582
		c-0.102-0.216-0.162-0.406-0.184-0.572c-0.021-0.165-0.033-0.413-0.033-0.744v-7.636c0-0.316,0.012-0.559,0.033-0.724
		s0.09-0.349,0.205-0.55c0.201-0.359,0.755-0.54,1.66-0.54c0.878,0,1.417,0.166,1.619,0.497c0.143,0.244,0.215,0.54,0.215,0.885
		c0.058-0.101,0.188-0.245,0.389-0.432c0.201-0.188,0.395-0.338,0.582-0.453C124.318,15.016,124.858,14.85,125.448,14.85z"/>
	<path fill="#545454" d="M143.158,19.176c0,0.885-0.219,1.539-0.657,1.963c-0.438,0.425-0.925,0.637-1.456,0.637h-5.113
		c0,0.403,0.238,0.741,0.713,1.014c0.475,0.273,0.948,0.409,1.423,0.409c0.835,0,1.489-0.086,1.964-0.259l0.236-0.086
		c0.346-0.157,0.633-0.237,0.863-0.237c0.461,0,0.855,0.323,1.187,0.972c0.187,0.388,0.28,0.719,0.28,0.992
		c0,1.28-1.531,1.92-4.595,1.92c-1.064,0-2.01-0.184-2.837-0.551c-0.826-0.366-1.471-0.852-1.93-1.456
		c-0.907-1.165-1.359-2.467-1.359-3.905c0-1.812,0.586-3.26,1.758-4.347c1.172-1.085,2.635-1.628,4.39-1.628
		c1.999,0,3.466,0.704,4.401,2.113C142.914,17.476,143.158,18.291,143.158,19.176z M138.607,19.812c0.546,0,0.819-0.229,0.819-0.69
		c0-0.329-0.126-0.597-0.378-0.797c-0.252-0.202-0.611-0.303-1.078-0.303s-0.932,0.191-1.392,0.571
		c-0.46,0.381-0.69,0.787-0.69,1.219H138.607z"/>
</g>
</svg>
