<?xml version="1.0" encoding="utf-8"?>
<!-- Generator: Adobe Illustrator 16.0.0, SVG Export Plug-In . SVG Version: 6.00 Build 0)  -->
<!DOCTYPE svg PUBLIC "-//W3C//DTD SVG 1.1//EN" "http://www.w3.org/Graphics/SVG/1.1/DTD/svg11.dtd">
<svg version="1.1" id="图层_1" xmlns="http://www.w3.org/2000/svg" xmlns:xlink="http://www.w3.org/1999/xlink" x="0px" y="0px"
	 width="258px" height="36px" viewBox="0 0 258 36" enable-background="new 0 0 258 36" xml:space="preserve">
<g>
	<path fill="#545454" d="M14.812,10.132c0.014,0.146-0.004,0.272-0.05,0.379c-0.046,0.107-0.103,0.2-0.169,0.279
		c-0.067,0.08-0.144,0.156-0.23,0.23c-0.086,0.072-0.162,0.149-0.229,0.229c-0.133,0.147-0.197,0.307-0.189,0.479
		c0.006,0.173-0.004,0.354-0.03,0.54c0,0.039-0.007,0.079-0.021,0.119s-0.026,0.073-0.039,0.1v0.3
		c-0.014,0.093-0.03,0.176-0.051,0.249c-0.02,0.073-0.017,0.144,0.011,0.21c0.013,0.053,0.032,0.104,0.06,0.149
		c0.026,0.047,0.047,0.103,0.06,0.17c0.014,0.106,0.003,0.224-0.03,0.349c-0.033,0.127-0.043,0.243-0.029,0.35
		c-0.066,0.053-0.146,0.073-0.239,0.06c-0.094-0.013-0.127-0.086-0.101-0.22c-0.026-0.039-0.066-0.069-0.119-0.089
		c-0.054-0.021-0.086-0.057-0.1-0.11l0.039-0.239c0-0.04,0.011-0.083,0.03-0.129c0.021-0.047,0.03-0.084,0.03-0.11
		c0-0.067-0.007-0.13-0.02-0.19c-0.014-0.059-0.02-0.116-0.02-0.169c0-0.026,0.009-0.063,0.029-0.11
		c0.02-0.046,0.029-0.097,0.029-0.149s0-0.093,0-0.119c0-0.027,0.007-0.073,0.021-0.14c0.013-0.08,0.021-0.163,0.021-0.249
		c0-0.087,0-0.183,0-0.29c0.012-0.172,0.025-0.34,0.039-0.499s0.02-0.326,0.02-0.499c0.014-0.027,0.021-0.063,0.021-0.109
		c0-0.047,0.013-0.083,0.04-0.11c0.014-0.066,0.047-0.119,0.1-0.159s0.073-0.093,0.061-0.159c0.105-0.041,0.179-0.113,0.219-0.22
		c0.066-0.013,0.137-0.043,0.209-0.09c0.074-0.046,0.15-0.087,0.23-0.121c0.08-0.032,0.152-0.046,0.219-0.039
		S14.759,10.053,14.812,10.132z M27.445,19.751c-0.188,0.013-0.373-0.004-0.56-0.051c-0.187-0.046-0.372-0.069-0.559-0.069
		c-0.133-0.013-0.267-0.013-0.399,0s-0.266,0.02-0.398,0.02c-0.146,0-0.283-0.007-0.41-0.02c-0.125-0.013-0.249-0.013-0.368,0
		c-0.413,0.04-0.835,0.05-1.267,0.029c-0.434-0.019-0.842-0.022-1.229-0.01c-0.266,0-0.516,0.004-0.748,0.01
		c-0.232,0.007-0.476-0.003-0.729-0.029c0.08,0.187,0.113,0.409,0.1,0.668c-0.014,0.26-0.026,0.522-0.039,0.788
		c0,0.067,0.002,0.137,0.01,0.21c0.006,0.073,0.01,0.143,0.01,0.21c-0.066,0.319-0.09,0.605-0.07,0.858
		c0.021,0.252,0.03,0.499,0.03,0.737c0,0.267,0,0.522,0,0.769c0,0.247-0.033,0.481-0.1,0.709c-0.014,0.066-0.021,0.13-0.021,0.189
		c0,0.061-0.013,0.103-0.039,0.13c-0.027,0.026-0.09,0.06-0.189,0.1c-0.101,0.04-0.184,0.066-0.25,0.079
		c-0.187,0-0.313,0.014-0.379,0.04c-0.066,0.027-0.133,0.04-0.199,0.04c-0.04,0-0.08-0.007-0.12-0.02s-0.087-0.021-0.14-0.021
		c-0.12-0.013-0.24-0.013-0.359,0c-0.119,0.014-0.253,0.027-0.398,0.04c-0.134,0-0.27-0.013-0.41-0.04
		c-0.139-0.026-0.282-0.047-0.429-0.06c-0.093,0-0.18-0.003-0.259-0.01c-0.08-0.007-0.174-0.01-0.279-0.01
		c-0.146-0.027-0.293-0.04-0.439-0.04s-0.287-0.013-0.42-0.04c-0.199-0.04-0.348-0.053-0.448-0.04s-0.203,0.021-0.31,0.021
		c-0.146,0-0.299-0.011-0.459-0.03c-0.16-0.021-0.293-0.07-0.398-0.15c-0.027-0.026-0.054-0.056-0.08-0.089
		c-0.027-0.034-0.066-0.051-0.12-0.051c-0.026-0.093-0.1-0.17-0.22-0.229c-0.119-0.061-0.187-0.144-0.199-0.25
		c-0.027-0.067-0.029-0.144-0.01-0.229c0.02-0.088,0.029-0.17,0.029-0.25v-0.539c0-0.106,0-0.203,0-0.289
		c0-0.087-0.007-0.17-0.02-0.249c-0.027-0.32,0.02-0.54,0.14-0.659c0.026-0.026,0.06-0.047,0.1-0.06
		c0.04-0.014,0.067-0.04,0.08-0.08c0.053-0.093,0.066-0.177,0.04-0.25c-0.027-0.073-0.066-0.139-0.12-0.199
		c-0.054-0.06-0.109-0.116-0.169-0.17c-0.061-0.053-0.098-0.106-0.11-0.159c0-0.04,0.007-0.083,0.021-0.129
		c0.013-0.047,0.02-0.084,0.02-0.11c0.013-0.106,0.017-0.21,0.01-0.31c-0.006-0.1-0.01-0.197-0.01-0.29
		c0.053-0.226,0.07-0.426,0.051-0.598c-0.021-0.173,0.002-0.353,0.069-0.539c0.026-0.093,0.112-0.199,0.259-0.32
		c0.04-0.039,0.083-0.09,0.13-0.148c0.046-0.061,0.076-0.11,0.09-0.149c0.013-0.041,0.01-0.117-0.01-0.23
		c-0.021-0.112-0.044-0.202-0.069-0.269c-0.014-0.054-0.037-0.1-0.07-0.141c-0.033-0.039-0.07-0.086-0.109-0.14
		c-0.094-0.106-0.154-0.199-0.18-0.279c-0.014-0.212-0.018-0.441-0.01-0.688c0.006-0.246,0.022-0.488,0.049-0.728
		c0-0.267,0.004-0.566,0.01-0.898c0.007-0.332,0.011-0.665,0.011-0.998c0-0.066,0.007-0.132,0.02-0.199s0.021-0.14,0.021-0.22
		c0.026-0.146,0.02-0.287-0.021-0.419c-0.04-0.133-0.047-0.272-0.02-0.419c0.013-0.067,0.022-0.144,0.03-0.23
		c0.006-0.086,0.022-0.162,0.049-0.229c0-0.08-0.006-0.163-0.02-0.25c-0.014-0.086-0.007-0.162,0.02-0.229
		c0.014-0.041,0.033-0.08,0.061-0.121c0.026-0.039,0.053-0.078,0.08-0.119c0.066-0.106,0.129-0.187,0.189-0.239
		c0.06-0.053,0.143-0.112,0.25-0.18c0.053-0.133,0.096-0.272,0.129-0.419s0.09-0.272,0.17-0.379
		c0.053-0.027,0.103-0.057,0.149-0.089c0.046-0.034,0.083-0.084,0.11-0.151c0.092-0.026,0.195-0.03,0.309-0.009
		c0.113,0.02,0.217,0.042,0.31,0.069c0.173-0.014,0.372-0.023,0.599-0.03c0.226-0.006,0.459-0.003,0.698,0.011
		c0.239,0.013,0.479,0.033,0.718,0.06c0.24,0.026,0.459,0.06,0.659,0.1c0.412-0.08,0.828-0.087,1.247-0.02
		c0.419,0.066,0.868,0.093,1.348,0.079c0.079,0,0.159-0.011,0.238-0.029c0.08-0.021,0.16-0.03,0.24-0.03
		c0.066,0,0.14,0.007,0.219,0.02c0.08,0.013,0.167,0.021,0.26,0.021c0.106,0.013,0.223,0.013,0.35,0
		c0.126-0.013,0.256-0.008,0.389,0.02c0.066,0.027,0.12,0.066,0.16,0.12c0.04,0.053,0.093,0.093,0.16,0.119
		c0.105,0.054,0.242,0.091,0.408,0.109c0.166,0.021,0.322,0.018,0.469-0.009c0.107-0.014,0.196-0.054,0.27-0.12
		s0.156-0.106,0.25-0.12c0.08-0.013,0.162-0.017,0.25-0.009c0.086,0.006,0.169-0.004,0.248-0.03c0.107-0.014,0.203-0.017,0.29-0.01
		c0.087,0.006,0.183,0.01,0.29,0.01c0.332,0.013,0.682,0.02,1.047,0.02s0.715,0.013,1.048,0.04c0.066,0.013,0.126,0.026,0.18,0.04
		c0.053,0.013,0.112,0.032,0.18,0.06c0.106,0.08,0.229,0.163,0.368,0.249c0.141,0.087,0.23,0.217,0.27,0.39
		c0.027,0.093,0.023,0.183-0.01,0.271c-0.033,0.085-0.049,0.182-0.049,0.288c-0.014,0.133-0.023,0.267-0.031,0.399
		c-0.006,0.133-0.01,0.259-0.01,0.379c0,0.093,0.01,0.187,0.03,0.279s0.022,0.18,0.011,0.26c0,0.106-0.031,0.195-0.09,0.27
		c-0.061,0.073-0.117,0.123-0.17,0.149c-0.067,0-0.131,0.013-0.189,0.039c-0.061,0.028-0.123,0.047-0.19,0.061
		c-0.119,0.014-0.243,0.014-0.368,0c-0.127-0.014-0.25-0.027-0.369-0.04c-0.027,0-0.061,0.004-0.1,0.01
		c-0.041,0.007-0.08,0.011-0.121,0.011c-0.186-0.013-0.369-0.021-0.549-0.021s-0.375-0.007-0.588-0.021
		c-0.08-0.013-0.16-0.026-0.24-0.039s-0.158-0.021-0.238-0.021c-0.067,0-0.134,0.008-0.2,0.021c-0.067,0.013-0.134,0.013-0.2,0
		c-0.105,0-0.206-0.013-0.299-0.04c-0.094-0.027-0.193-0.02-0.299,0.02c-0.227-0.039-0.449-0.063-0.669-0.069
		c-0.22-0.007-0.442,0.003-0.669,0.03c-0.066,0.013-0.137,0.022-0.209,0.03c-0.073,0.005-0.143-0.011-0.21-0.051
		c-0.066-0.013-0.119-0.047-0.159-0.1s-0.08-0.107-0.12-0.159c-0.04-0.054-0.083-0.097-0.13-0.13
		c-0.047-0.034-0.103-0.043-0.17-0.03c-0.053,0.013-0.086,0.037-0.1,0.07c-0.013,0.032-0.033,0.069-0.059,0.109
		c-0.08,0.133-0.233,0.2-0.459,0.2c-0.107,0-0.211,0-0.311,0s-0.182,0.032-0.249,0.099c-0.054,0.12-0.069,0.24-0.05,0.359
		c0.02,0.12,0.016,0.232-0.01,0.34c0,0.079-0.01,0.159-0.029,0.239c-0.021,0.079-0.031,0.159-0.031,0.239
		c-0.014,0.067-0.014,0.133,0,0.199c0.014,0.067,0.021,0.134,0.021,0.199c-0.013,0.107-0.03,0.214-0.05,0.32s-0.03,0.212-0.03,0.318
		c-0.013,0.134-0.02,0.273-0.02,0.42s0,0.286,0,0.419c0.306,0.053,0.618,0.067,0.938,0.039c0.318-0.026,0.631-0.006,0.938,0.061
		c0.105,0.107,0.232,0.192,0.379,0.26s0.313,0.08,0.498,0.039c0.067-0.026,0.131-0.056,0.19-0.09
		c0.06-0.033,0.122-0.063,0.189-0.089c0.106-0.027,0.232-0.041,0.38-0.041c0.132-0.013,0.248-0.013,0.348,0
		c0.101,0.014,0.203,0.021,0.311,0.021c0.199,0,0.332-0.004,0.398-0.01c0.066-0.007,0.133-0.011,0.199-0.011
		c0.146,0,0.3,0.004,0.459,0.011c0.16,0.006,0.313,0.018,0.46,0.03c0.065,0,0.133,0.004,0.199,0.009
		c0.066,0.008,0.133,0.018,0.2,0.03c0.172,0.014,0.336,0.017,0.488,0.011c0.152-0.007,0.296,0.017,0.43,0.069
		c0.053,0.026,0.115,0.084,0.189,0.169c0.072,0.088,0.122,0.164,0.149,0.23c0.026,0.066,0.03,0.14,0.009,0.22
		c-0.02,0.079-0.029,0.172-0.029,0.279c0,0.026,0.007,0.069,0.021,0.13c0.013,0.06,0.02,0.109,0.02,0.149
		c-0.026,0.093-0.089,0.16-0.189,0.199c-0.1,0.04-0.149,0.12-0.149,0.24c0,0.052,0.016,0.106,0.05,0.158
		c0.032,0.054,0.063,0.113,0.09,0.181c0.04,0.199,0.02,0.359-0.06,0.479c-0.08,0.12-0.188,0.22-0.32,0.3
		c-0.066,0-0.136,0.013-0.209,0.04C27.58,19.737,27.51,19.751,27.445,19.751z M15.55,20.788c0.066-0.066,0.097-0.153,0.09-0.26
		c-0.006-0.106-0.003-0.199,0.011-0.279c0.026-0.159,0.04-0.326,0.04-0.498c0-0.173-0.04-0.326-0.12-0.46
		c-0.093,0-0.163,0.024-0.21,0.071c-0.047,0.046-0.083,0.105-0.109,0.178c-0.027,0.074-0.043,0.157-0.05,0.25
		c-0.007,0.094-0.011,0.18-0.011,0.26c-0.025,0.146-0.036,0.289-0.029,0.429c0.006,0.14,0.063,0.236,0.17,0.29
		c0.093-0.067,0.143-0.08,0.149-0.041C15.488,20.769,15.511,20.788,15.55,20.788z M16.409,12.646
		c0.013-0.253,0.043-0.442,0.09-0.569c0.046-0.126,0.057-0.241,0.03-0.35c-0.014-0.065-0.043-0.166-0.09-0.298
		c-0.047-0.134-0.104-0.193-0.17-0.181c-0.094,0.027-0.146,0.084-0.159,0.17c-0.014,0.087-0.034,0.163-0.061,0.23
		c-0.026,0.052-0.06,0.109-0.1,0.17c-0.04,0.059-0.073,0.115-0.1,0.169c-0.026,0.052-0.06,0.093-0.1,0.119s-0.073,0.06-0.1,0.1
		c-0.054,0.12-0.094,0.192-0.12,0.22c-0.027,0.027-0.053,0.053-0.08,0.08c-0.039,0.08-0.063,0.203-0.069,0.368
		c-0.007,0.167,0.003,0.29,0.03,0.37c0.013,0.066,0.046,0.116,0.1,0.149c0.053,0.034,0.116,0.051,0.189,0.051
		c0.072,0,0.143-0.012,0.209-0.03c0.066-0.021,0.127-0.044,0.18-0.07c0.053-0.093,0.116-0.19,0.189-0.289
		C16.352,12.955,16.396,12.819,16.409,12.646z M17.287,11.849c0.066-0.013,0.117-0.051,0.15-0.109
		c0.033-0.061,0.046-0.123,0.039-0.19c-0.006-0.067-0.023-0.13-0.05-0.19c-0.026-0.059-0.066-0.102-0.119-0.129
		c-0.04,0.079-0.08,0.187-0.12,0.319C17.148,11.681,17.18,11.781,17.287,11.849z M19.262,23.343c0.106,0.066,0.202,0.069,0.29,0.01
		c0.086-0.061,0.162-0.116,0.229-0.17c0.133-0.252,0.193-0.466,0.18-0.639s-0.006-0.352,0.021-0.538
		c0.026-0.106,0.046-0.203,0.06-0.289c0.014-0.087,0.014-0.163,0-0.23c-0.187-0.013-0.316,0.014-0.389,0.08
		c-0.073,0.067-0.143,0.152-0.21,0.26c-0.066,0.106-0.089,0.231-0.069,0.379s0.016,0.279-0.01,0.398
		c-0.014,0.08-0.037,0.156-0.07,0.23c-0.033,0.073-0.063,0.143-0.09,0.209c0.026,0.067,0.036,0.127,0.029,0.18
		C19.226,23.275,19.236,23.315,19.262,23.343z M21.138,24.44c0.066-0.067,0.137-0.071,0.209-0.01c0.074,0.06,0.11,0.116,0.11,0.169
		c0.013,0.146,0,0.336-0.04,0.568c-0.04,0.233-0.072,0.423-0.1,0.569c-0.16,0.08-0.329,0.146-0.509,0.199
		c-0.18,0.054-0.376,0.072-0.589,0.06c-0.08-0.013-0.156-0.026-0.229-0.039s-0.149-0.026-0.229-0.041c-0.053,0-0.109,0-0.17,0
		c-0.059,0-0.104-0.019-0.129-0.06c0.013-0.052,0.023-0.097,0.029-0.129c0.007-0.033-0.004-0.083-0.029-0.15
		c0.105-0.053,0.209-0.063,0.309-0.029c0.1,0.033,0.203,0.05,0.31,0.05c0.133,0,0.286-0.047,0.46-0.14
		c0.172-0.093,0.299-0.18,0.379-0.26c0.119-0.173,0.172-0.315,0.159-0.429C21.065,24.656,21.085,24.547,21.138,24.44z M19.881,24.42
		c0.065-0.039,0.097-0.097,0.089-0.17c-0.006-0.072-0.043-0.136-0.109-0.189c-0.133-0.066-0.229-0.039-0.289,0.08
		s-0.043,0.232,0.05,0.339c0.053,0,0.097-0.009,0.13-0.03C19.785,24.431,19.828,24.42,19.881,24.42z M21.199,23.482
		c0.066-0.08,0.139-0.104,0.219-0.07c0.08,0.034,0.133,0.083,0.16,0.149c0,0.12-0.008,0.23-0.021,0.329
		c-0.013,0.102-0.047,0.183-0.1,0.25c-0.093-0.013-0.153-0.043-0.18-0.09c-0.026-0.046-0.043-0.104-0.05-0.169
		c-0.007-0.067-0.01-0.134-0.01-0.2S21.211,23.549,21.199,23.482z M21.578,15.2c-0.067-0.106-0.084-0.229-0.051-0.369
		c0.033-0.139,0.051-0.282,0.051-0.429c0-0.093,0.013-0.187,0.039-0.279c0.027-0.093,0.08-0.16,0.16-0.199
		c0.04,0.013,0.076,0,0.109-0.04s0.07-0.061,0.109-0.061c0.041-0.013,0.087-0.009,0.141,0.011c0.053,0.02,0.106,0.022,0.16,0.01
		c0.133-0.013,0.262-0.033,0.389-0.06c0.126-0.027,0.262-0.041,0.409-0.041c0.026,0.028,0.056,0.063,0.089,0.11
		c0.033,0.046,0.051,0.097,0.051,0.15c-0.014,0.106-0.07,0.172-0.17,0.199c-0.1,0.026-0.203,0.033-0.31,0.02
		c-0.054-0.013-0.097-0.03-0.13-0.049c-0.033-0.021-0.069-0.024-0.109-0.011c-0.066,0.013-0.146,0.04-0.24,0.08
		c-0.093,0.039-0.166,0.079-0.219,0.119c-0.039,0.053-0.066,0.116-0.08,0.189s-0.027,0.149-0.039,0.229
		c-0.014,0.08-0.033,0.147-0.061,0.199c-0.027,0.054-0.073,0.088-0.14,0.101L21.578,15.2z M23.533,14.143
		c-0.014-0.092,0.023-0.163,0.109-0.209c0.087-0.047,0.177-0.077,0.27-0.09c0.094,0.067,0.117,0.163,0.07,0.29
		c-0.047,0.125-0.123,0.182-0.229,0.169c-0.04,0-0.083-0.021-0.13-0.06C23.576,14.203,23.546,14.17,23.533,14.143z M26.506,18.254
		c0.187,0.026,0.362,0,0.528-0.08s0.264-0.232,0.289-0.459c-0.079-0.08-0.195-0.116-0.348-0.109c-0.154,0.007-0.287,0.04-0.4,0.1
		c-0.113,0.061-0.189,0.14-0.229,0.239C26.306,18.045,26.36,18.147,26.506,18.254z M28.622,19.431
		c0.173,0.094,0.253,0.229,0.239,0.41c-0.014,0.179-0.033,0.342-0.06,0.488c-0.04,0.133-0.12,0.212-0.239,0.24
		c-0.12,0.026-0.24,0.052-0.359,0.08c-0.253-0.015-0.456-0.041-0.608-0.08c-0.153-0.041-0.304-0.047-0.449-0.021
		c-0.106,0.013-0.237,0.022-0.39,0.029c-0.152,0.008-0.283-0.042-0.389-0.148c-0.027-0.134,0-0.224,0.08-0.27
		c0.08-0.047,0.159-0.084,0.239-0.11c0.106,0.04,0.216,0.08,0.329,0.119c0.113,0.041,0.242,0.054,0.389,0.041
		c0.041-0.014,0.08-0.027,0.121-0.041c0.039-0.013,0.086-0.02,0.139-0.02c0.094,0,0.196,0.004,0.31,0.011
		c0.112,0.006,0.202-0.011,0.27-0.051c0.079-0.053,0.146-0.163,0.199-0.329C28.495,19.614,28.555,19.498,28.622,19.431z
		 M27.384,11.249c-0.16,0.054-0.196,0.134-0.109,0.24c0.086,0.106,0.189,0.166,0.309,0.179c0.121,0.013,0.232-0.022,0.34-0.11
		c0.105-0.085,0.126-0.175,0.06-0.268c-0.04-0.014-0.077-0.033-0.109-0.061c-0.034-0.027-0.069-0.053-0.11-0.08
		c-0.053,0.053-0.113,0.077-0.18,0.07S27.451,11.223,27.384,11.249z M29.958,11.728c0,0.054,0.004,0.104,0.01,0.15
		c0.007,0.047,0.004,0.103-0.01,0.17c-0.027,0.253-0.086,0.485-0.18,0.698c-0.039,0.093-0.109,0.14-0.209,0.14
		s-0.156-0.053-0.17-0.159c-0.014-0.08-0.004-0.167,0.03-0.26c0.032-0.093,0.05-0.18,0.05-0.26c0.013-0.213,0.029-0.37,0.05-0.468
		c0.02-0.102,0.022-0.217,0.01-0.351c0-0.039-0.003-0.093-0.01-0.159s-0.023-0.112-0.05-0.14c-0.014-0.027-0.037-0.057-0.07-0.091
		c-0.033-0.032-0.063-0.063-0.09-0.089c-0.014,0-0.033-0.013-0.06-0.04c-0.026-0.026-0.047-0.053-0.06-0.08
		c-0.014-0.026-0.02-0.049-0.02-0.07c0-0.019,0.025-0.036,0.079-0.049c0.054,0,0.103,0.02,0.149,0.06s0.104,0.073,0.17,0.1
		c0.066,0.027,0.137,0.04,0.209,0.04c0.073,0,0.123,0.027,0.15,0.08c0.053,0.08,0.07,0.203,0.05,0.369S29.958,11.621,29.958,11.728z
		"/>
	<path fill="#545454" d="M30.917,20.947c0.146-0.079,0.246-0.072,0.3,0.021c0.053,0.093,0.076,0.209,0.069,0.35
		c-0.007,0.139-0.047,0.276-0.12,0.409c-0.072,0.132-0.162,0.199-0.27,0.199c-0.105-0.12-0.137-0.279-0.09-0.479
		C30.853,21.247,30.89,21.081,30.917,20.947z M33.65,23.603c0.054,0.026,0.113,0.036,0.18,0.03c0.066-0.008,0.131-0.015,0.189-0.021
		c0.061-0.006,0.117-0.006,0.17,0c0.053,0.007,0.094,0.038,0.12,0.09c-0.134,0.054-0.243,0.091-0.329,0.109
		c-0.088,0.021-0.184,0.03-0.289,0.03c-0.08,0-0.16-0.006-0.24-0.02c-0.08-0.013-0.16-0.02-0.239-0.02
		c-0.067,0-0.126,0.009-0.179,0.03c-0.055,0.02-0.107,0.036-0.16,0.05c-0.146,0.026-0.3,0.039-0.459,0.039
		c-0.16,0-0.319,0.013-0.479,0.041c-0.106,0.013-0.227,0.016-0.358,0.009c-0.134-0.007-0.233-0.023-0.301-0.05
		c-0.146-0.053-0.232-0.156-0.258-0.31c-0.027-0.152-0.027-0.302,0-0.448c0.025-0.027,0.059-0.047,0.1-0.061
		c0.039-0.013,0.072-0.039,0.1-0.079c0.105,0,0.169,0.053,0.189,0.159c0.02,0.107,0.07,0.18,0.149,0.22
		c0.133,0.066,0.282,0.083,0.448,0.05c0.167-0.033,0.343-0.057,0.529-0.069c0.04,0,0.083,0.007,0.13,0.02
		c0.046,0.013,0.097,0.02,0.149,0.02c0.094,0,0.17-0.003,0.229-0.01c0.061-0.007,0.116-0.003,0.17,0.01
		c0.146,0.08,0.246,0.117,0.3,0.109C33.564,23.525,33.611,23.549,33.65,23.603z M45.424,12.626c0.093,0.16,0.163,0.31,0.209,0.448
		c0.047,0.141,0.083,0.324,0.11,0.55c0.066,0.386,0.09,0.806,0.069,1.258c-0.02,0.452-0.05,0.904-0.089,1.356
		c-0.014,0.267-0.074,0.52-0.18,0.758c-0.027,0.067-0.047,0.138-0.061,0.211c-0.014,0.072-0.033,0.136-0.06,0.189
		c-0.026,0.052-0.067,0.09-0.12,0.108c-0.053,0.021-0.119,0.018-0.199-0.01c-0.066,0.067-0.133,0.133-0.199,0.2
		c-0.067,0.066-0.113,0.152-0.141,0.259c-0.014,0.16-0.039,0.267-0.079,0.32c-0.04,0.052-0.073,0.093-0.1,0.119
		c-0.106,0.053-0.16,0.087-0.16,0.1c0,0.014-0.013,0.027-0.04,0.04c-0.094,0.026-0.17,0.06-0.229,0.101
		c-0.06,0.039-0.116,0.072-0.169,0.099c-0.134-0.026-0.268-0.013-0.399,0.041c-0.134,0.052-0.253,0.065-0.359,0.039
		c-0.04,0-0.073-0.009-0.1-0.03c-0.027-0.02-0.067-0.022-0.12-0.009c-0.066,0.173-0.072,0.302-0.02,0.39
		c0.053,0.085,0.112,0.175,0.18,0.268c0.105,0.173,0.199,0.34,0.279,0.5c0.08,0.159,0.186,0.306,0.318,0.438
		c-0.013,0.04,0,0.077,0.041,0.109c0.039,0.033,0.066,0.083,0.08,0.15c-0.014,0.159-0.014,0.246,0,0.259
		c0.012,0.013,0.02,0.033,0.02,0.06c0.039,0.093,0.069,0.189,0.09,0.291c0.02,0.099,0.063,0.176,0.129,0.229
		c0.146,0.053,0.236,0.097,0.27,0.13s0.076,0.037,0.13,0.01c0.12,0.159,0.256,0.315,0.409,0.469
		c0.152,0.153,0.229,0.362,0.229,0.629c-0.106,0.026-0.233,0.039-0.379,0.039c-0.146,0-0.293,0-0.438,0
		c-0.107,0-0.217,0.012-0.33,0.03c-0.113,0.021-0.223,0.017-0.329-0.01c-0.146,0.026-0.289,0.047-0.429,0.06
		c-0.141,0.014-0.303,0.008-0.489-0.02c-0.146,0.04-0.303,0.04-0.469,0c-0.167-0.04-0.29-0.112-0.37-0.219
		c-0.025-0.134-0.096-0.261-0.209-0.38s-0.156-0.259-0.129-0.419c-0.054-0.093-0.077-0.192-0.07-0.3
		c0.006-0.106-0.023-0.192-0.09-0.259c-0.08-0.066-0.163-0.109-0.25-0.13c-0.086-0.02-0.162-0.063-0.229-0.13
		c-0.054-0.04-0.094-0.086-0.12-0.14s-0.054-0.106-0.08-0.16c-0.066-0.106-0.14-0.199-0.22-0.279s-0.133-0.173-0.159-0.279
		c-0.12-0.119-0.227-0.252-0.319-0.398c-0.094-0.146-0.18-0.293-0.26-0.439c-0.106-0.079-0.18-0.133-0.219-0.159
		c-0.067,0.026-0.124,0.036-0.17,0.029c-0.047-0.007-0.104-0.017-0.17-0.029c-0.187-0.026-0.396-0.026-0.629,0
		s-0.462,0.039-0.688,0.039c-0.147,0-0.307,0.008-0.479,0.021s-0.339,0.04-0.499,0.08c0.014,0.306,0.014,0.658,0,1.057
		c-0.014,0.4,0,0.739,0.04,1.019c-0.026,0.133-0.036,0.282-0.03,0.448c0.007,0.167,0.007,0.323,0,0.47
		c-0.006,0.146-0.037,0.282-0.09,0.408c-0.053,0.127-0.146,0.217-0.279,0.271c-0.119,0-0.246,0.013-0.379,0.039
		c-0.133,0.027-0.266,0.04-0.398,0.04c-0.067,0-0.137-0.007-0.21-0.02s-0.149-0.021-0.229-0.021
		c-0.094,0.014-0.199,0.024-0.319,0.03c-0.12,0.007-0.233,0.003-0.339-0.01c-0.066,0-0.13-0.01-0.189-0.029
		c-0.061-0.021-0.124-0.03-0.189-0.03c-0.188,0-0.359,0-0.52,0s-0.313-0.033-0.459-0.101c-0.066-0.026-0.127-0.056-0.18-0.09
		c-0.053-0.033-0.127-0.037-0.219-0.009c-0.107,0.026-0.197,0.069-0.27,0.128c-0.074,0.062-0.144,0.091-0.21,0.091
		c-0.067,0.014-0.169-0.011-0.31-0.069c-0.139-0.061-0.236-0.11-0.289-0.149c-0.053-0.041-0.109-0.113-0.17-0.22
		c-0.06-0.106-0.097-0.199-0.109-0.279c-0.054-0.2-0.014-0.354,0.119-0.46c0-0.119,0.023-0.219,0.07-0.299s0.063-0.18,0.05-0.3
		c-0.013-0.146-0.067-0.259-0.159-0.339c-0.094-0.08-0.174-0.173-0.24-0.279c-0.027-0.306-0.029-0.632-0.01-0.978
		c0.02-0.347,0.023-0.679,0.01-0.999c0-0.065-0.01-0.132-0.029-0.199c-0.021-0.066-0.023-0.132-0.01-0.199
		c0.012-0.04,0.029-0.076,0.049-0.11c0.021-0.033,0.043-0.076,0.07-0.129c0.026-0.066,0.043-0.14,0.05-0.22s0.043-0.14,0.11-0.179
		c-0.014-0.08-0.01-0.156,0.01-0.23c0.02-0.073,0.022-0.149,0.01-0.229c-0.066-0.119-0.097-0.203-0.09-0.25
		c0.006-0.046,0.003-0.082-0.01-0.109c-0.027-0.08-0.063-0.148-0.109-0.209c-0.047-0.06-0.078-0.123-0.09-0.189
		c-0.027-0.12-0.027-0.232,0-0.34v-1.456v-0.658c0.012-0.134,0.025-0.253,0.039-0.359s0.02-0.214,0.02-0.32
		c-0.013-0.039-0.025-0.079-0.039-0.119s-0.02-0.08-0.02-0.119c0-0.054,0.002-0.104,0.01-0.151c0.006-0.046,0.01-0.089,0.01-0.129
		c0-0.053-0.004-0.103-0.01-0.149c-0.008-0.047-0.01-0.097-0.01-0.149c0.025-0.479,0.238-0.771,0.638-0.878
		c0.146-0.027,0.26-0.037,0.34-0.029c0.079,0.005,0.166,0.002,0.259-0.012c0.041-0.013,0.08-0.026,0.12-0.039
		s0.079-0.021,0.12-0.021c0.16,0,0.285,0.047,0.379,0.14c0.093,0.093,0.227,0.14,0.398,0.14c0.08,0.013,0.153,0.013,0.22,0
		c0.067-0.013,0.133-0.026,0.2-0.039c0.093-0.026,0.182-0.06,0.27-0.101c0.086-0.039,0.182-0.08,0.289-0.119
		c0.279-0.04,0.572-0.06,0.878-0.06c0.065,0,0.136,0.006,0.21,0.02c0.072,0.014,0.143,0.02,0.209,0.02
		c0.106,0,0.217-0.009,0.329-0.03c0.113-0.02,0.224-0.036,0.329-0.05c0.094,0,0.18,0.008,0.26,0.021s0.166,0.021,0.26,0.021
		c0.227,0.026,0.461,0.036,0.708,0.03c0.246-0.008,0.481-0.011,0.708-0.011c0.174,0.014,0.29,0.014,0.35,0
		c0.061-0.014,0.123-0.02,0.189-0.02c0.08-0.013,0.156-0.013,0.23,0c0.072,0.013,0.142,0.02,0.209,0.02
		c0.133,0,0.26-0.014,0.379-0.04s0.24-0.039,0.359-0.039c0.16,0.013,0.252,0.013,0.279,0c0.026-0.014,0.053-0.021,0.08-0.021
		c0.172-0.026,0.342-0.026,0.508,0c0.167,0.026,0.336,0.033,0.51,0.021c0.172,0.146,0.332,0.219,0.479,0.219
		c0.187,0,0.366-0.04,0.539-0.12s0.353-0.127,0.539-0.14c0.04,0,0.076,0.008,0.109,0.021s0.07,0.021,0.109,0.021
		c0.146,0.013,0.293,0.026,0.439,0.039s0.272,0.04,0.379,0.08c0.08,0.067,0.163,0.132,0.25,0.199
		c0.086,0.067,0.183,0.119,0.289,0.16c0.133,0.119,0.252,0.256,0.359,0.409C45.211,12.331,45.318,12.479,45.424,12.626z
		 M33.072,12.786c0.026-0.093,0.016-0.169-0.03-0.23c-0.047-0.059-0.089-0.122-0.13-0.188c-0.133-0.027-0.232-0.077-0.299-0.149
		c-0.066-0.073-0.153-0.098-0.26-0.07c-0.133,0.027-0.195,0.129-0.189,0.31c0.007,0.179,0.01,0.322,0.01,0.429
		c-0.014,0.159-0.01,0.264,0.01,0.31c0.021,0.047,0.03,0.096,0.03,0.149c0.014,0.08,0.014,0.195,0,0.35
		c-0.013,0.153,0.007,0.256,0.061,0.31c0.053,0.052,0.116,0.06,0.188,0.02c0.074-0.04,0.123-0.08,0.15-0.12
		c0.026-0.066,0.023-0.127-0.01-0.179c-0.033-0.054-0.051-0.113-0.051-0.181c-0.013-0.066-0.013-0.129,0-0.19
		c0.014-0.059,0.027-0.122,0.041-0.188c0.013-0.066,0.025-0.126,0.039-0.18c0.014-0.053,0.033-0.106,0.061-0.159
		c0.053-0.027,0.113-0.033,0.18-0.021C32.939,12.819,33.005,12.813,33.072,12.786z M33.091,21.866c0.066-0.04,0.106-0.123,0.12-0.25
		c0.013-0.126-0.007-0.229-0.06-0.31c-0.041-0.053-0.1-0.083-0.18-0.09c-0.08-0.006-0.153,0.004-0.22,0.03
		c-0.067,0.054-0.144,0.144-0.229,0.27s-0.104,0.249-0.05,0.369c0.093,0.014,0.196,0.027,0.31,0.04
		C32.895,21.938,32.999,21.919,33.091,21.866z M33.65,11.13c-0.133,0.013-0.266,0.004-0.398-0.029
		c-0.133-0.034-0.199-0.104-0.199-0.21c-0.014-0.107,0.026-0.153,0.119-0.14c0.094,0.013,0.173,0.007,0.24-0.021
		c0.092,0.066,0.215,0.087,0.369,0.06c0.152-0.026,0.262-0.007,0.328,0.061c0.014,0.066-0.037,0.127-0.148,0.18
		C33.846,11.083,33.744,11.117,33.65,11.13z M36.863,12.926c0.027-0.054,0.033-0.106,0.021-0.16
		c-0.014-0.053-0.033-0.093-0.06-0.119c-0.094-0.053-0.18-0.069-0.26-0.051c-0.08,0.021-0.153,0.038-0.219,0.051
		c-0.08,0.013-0.15,0.017-0.211,0.011c-0.059-0.008-0.123,0.002-0.189,0.029c-0.106,0.066-0.17,0.163-0.189,0.29
		c-0.02,0.126-0.043,0.262-0.069,0.408c-0.013,0.079-0.027,0.159-0.04,0.239c-0.014,0.08-0.014,0.152,0,0.22
		c0,0.053,0.027,0.133,0.08,0.239c0.053,0.187,0.133,0.303,0.239,0.349c0.106,0.047,0.18,0.018,0.22-0.089
		c0.013-0.106,0.01-0.227-0.01-0.359c-0.021-0.133-0.018-0.272,0.01-0.419c0.013-0.08,0.039-0.177,0.08-0.29
		c0.039-0.112,0.092-0.183,0.159-0.209L36.863,12.926z M40.535,15.5c0-0.067-0.006-0.123-0.02-0.169
		c-0.014-0.047-0.02-0.098-0.02-0.15c0-0.133,0.01-0.266,0.029-0.399c0.02-0.132,0.023-0.266,0.01-0.398
		c0-0.133-0.033-0.23-0.1-0.289c-0.066-0.061-0.133-0.123-0.199-0.19c-0.04-0.026-0.077-0.056-0.109-0.089
		c-0.033-0.034-0.063-0.058-0.09-0.071c-0.08-0.039-0.157-0.06-0.23-0.06c-0.072,0-0.162-0.006-0.269-0.02
		c-0.08-0.027-0.147-0.066-0.2-0.12c-0.053-0.052-0.113-0.093-0.18-0.119c-0.239,0.093-0.422,0.14-0.549,0.14
		c-0.126,0-0.249,0-0.369,0c-0.08,0-0.159,0.01-0.239,0.029c-0.079,0.021-0.159,0.03-0.239,0.03c-0.146,0.013-0.289,0.01-0.43-0.009
		c-0.139-0.021-0.282-0.004-0.428,0.049c-0.027,0.12-0.027,0.232,0,0.34c0.025,0.106,0.039,0.219,0.039,0.339
		c0,0.332-0.004,0.599-0.01,0.798c-0.007,0.199-0.004,0.393,0.01,0.579c0.014,0.066,0.03,0.127,0.051,0.18
		c0.02,0.053,0.035,0.112,0.049,0.18c0,0.133-0.01,0.272-0.029,0.418c-0.02,0.147-0.01,0.279,0.029,0.4
		c0.146-0.014,0.272-0.011,0.38,0.009c0.106,0.021,0.212,0.043,0.319,0.071c0.105-0.028,0.239-0.045,0.398-0.05
		c0.16-0.008,0.306-0.012,0.439-0.012c0.16,0.067,0.27,0.109,0.329,0.131c0.06,0.02,0.116,0.023,0.17,0.009
		c0.065-0.026,0.133-0.069,0.199-0.128c0.066-0.061,0.133-0.104,0.199-0.131c0.12-0.026,0.239-0.047,0.359-0.06
		s0.22-0.047,0.3-0.101c0.026-0.013,0.057-0.039,0.09-0.079c0.032-0.04,0.063-0.073,0.09-0.1l0.119-0.22
		c0.014-0.026,0.026-0.073,0.04-0.14c0.013-0.066,0.021-0.12,0.021-0.159c0-0.08,0-0.156,0-0.23
		C40.496,15.636,40.508,15.567,40.535,15.5z M37.422,22.324c-0.054-0.052-0.073-0.127-0.061-0.219
		c0.014-0.094,0.044-0.173,0.091-0.239c0.046-0.067,0.103-0.113,0.169-0.14c0.066-0.027,0.126-0.008,0.18,0.06
		c0.013,0.16-0.007,0.296-0.06,0.41C37.688,22.308,37.582,22.353,37.422,22.324z M38.24,13.983c0.106,0.013,0.21,0.004,0.31-0.03
		c0.1-0.033,0.183-0.017,0.249,0.051c0.041,0.146,0.004,0.232-0.109,0.259c-0.113,0.027-0.223,0.053-0.329,0.08
		c-0.106,0.04-0.18,0.096-0.22,0.169c-0.039,0.074-0.093,0.138-0.159,0.189c-0.027,0.054-0.054,0.097-0.08,0.13
		c-0.026,0.034-0.047,0.07-0.06,0.11c-0.067,0.067-0.137,0.103-0.209,0.11c-0.074,0.006-0.123-0.063-0.15-0.211
		c-0.014-0.066-0.02-0.143-0.02-0.229c0-0.087,0-0.17,0-0.25c-0.014-0.172,0.02-0.286,0.1-0.339c0.079-0.053,0.199-0.08,0.359-0.08
		h0.238L38.24,13.983z M37.622,19.73c0.187-0.106,0.39-0.15,0.608-0.129c0.22,0.019,0.436,0.036,0.648,0.049
		c-0.253,0.133-0.463,0.236-0.628,0.311c-0.167,0.072-0.29,0.195-0.37,0.368c-0.013,0.212-0.057,0.393-0.129,0.539
		c-0.073,0.146-0.13,0.307-0.17,0.479c-0.08-0.227-0.119-0.495-0.119-0.808S37.515,19.957,37.622,19.73z M37.921,12.666
		c-0.067-0.04-0.144-0.043-0.23-0.009c-0.086,0.032-0.143,0.082-0.169,0.148c0.026,0.094,0.087,0.173,0.18,0.239
		c0.04-0.013,0.089-0.026,0.149-0.039s0.123-0.023,0.189-0.029c0.066-0.008,0.123-0.024,0.17-0.051s0.07-0.067,0.07-0.12
		c0-0.04-0.023-0.079-0.07-0.119s-0.104-0.061-0.17-0.061L37.921,12.666z M39.517,14.043c0.027,0.027,0.063,0.073,0.109,0.14
		c0.047,0.067,0.07,0.113,0.07,0.14c0,0.027-0.023,0.067-0.07,0.12s-0.082,0.087-0.109,0.1c-0.133,0.066-0.256,0.047-0.369-0.06
		s-0.143-0.239-0.09-0.399c0.066-0.027,0.143-0.05,0.23-0.069C39.375,13.993,39.451,14.004,39.517,14.043z M42.032,23.303
		c0.212,0,0.409,0.007,0.589,0.02c0.18,0.014,0.349,0.014,0.509,0c0.04,0.054,0.046,0.104,0.02,0.15
		c-0.026,0.046-0.069,0.086-0.13,0.12c-0.059,0.032-0.129,0.062-0.209,0.089s-0.153,0.047-0.22,0.061
		c-0.106,0.013-0.229,0.017-0.369,0.01s-0.263-0.018-0.369-0.03c-0.2-0.013-0.366-0.1-0.499-0.26
		c-0.026-0.093-0.057-0.18-0.09-0.259c-0.033-0.08-0.05-0.187-0.05-0.319c0.026-0.027,0.053-0.05,0.08-0.07
		c0.026-0.02,0.066-0.029,0.12-0.029c0.105,0.066,0.209,0.148,0.309,0.25C41.822,23.133,41.925,23.223,42.032,23.303z
		 M46.422,11.608c0.026,0.228,0.04,0.443,0.04,0.649c0,0.205-0.04,0.422-0.12,0.647c-0.146,0.014-0.22-0.009-0.22-0.069
		c0-0.06-0.007-0.117-0.02-0.17c-0.067-0.187-0.144-0.365-0.23-0.538c-0.086-0.173-0.183-0.339-0.289-0.499
		c-0.133-0.093-0.263-0.181-0.389-0.26c-0.127-0.079-0.257-0.173-0.39-0.279c-0.173-0.027-0.346-0.069-0.519-0.13
		c-0.173-0.06-0.365-0.097-0.578-0.109c-0.16,0-0.26-0.011-0.3-0.029c-0.04-0.021-0.087-0.031-0.14-0.031
		c-0.066,0-0.144,0.004-0.229,0.01c-0.087,0.007-0.17,0.007-0.249,0c-0.08-0.006-0.144-0.025-0.189-0.059
		c-0.047-0.034-0.058-0.104-0.03-0.21c0.04-0.08,0.103-0.133,0.188-0.16c0.087-0.026,0.18-0.039,0.28-0.039s0.202,0.003,0.31,0.01
		c0.105,0.007,0.192,0.01,0.26,0.01c0.252,0.027,0.484,0.096,0.697,0.209s0.433,0.21,0.659,0.29c0.106,0.026,0.176,0.05,0.21,0.069
		c0.032,0.021,0.063,0.037,0.09,0.05c0.105,0.027,0.212,0.04,0.318,0.04s0.193,0.047,0.26,0.14c0.133,0.04,0.239,0.107,0.319,0.2
		S46.329,11.528,46.422,11.608z M44.047,13.464c0.026,0.054,0.069,0.088,0.13,0.101c0.06,0.013,0.123,0.026,0.189,0.039
		c0.066-0.039,0.126-0.106,0.18-0.199c0.053-0.093,0.08-0.192,0.08-0.299c-0.014-0.08-0.047-0.159-0.101-0.239
		s-0.079-0.16-0.079-0.24c-0.08-0.066-0.197-0.143-0.35-0.229c-0.152-0.086-0.309-0.129-0.469-0.129c-0.04,0-0.084,0.03-0.13,0.089
		c-0.047,0.061-0.063,0.123-0.05,0.19c0.026,0.066,0.09,0.116,0.189,0.149s0.183,0.069,0.25,0.109
		c0.119,0.094,0.182,0.189,0.189,0.29C44.083,13.195,44.074,13.318,44.047,13.464z M45.125,18.712
		c0.094,0.028,0.146,0.113,0.16,0.261c0.013,0.146,0,0.252-0.04,0.318c-0.026,0.027-0.073,0.073-0.14,0.14
		c-0.066,0.067-0.12,0.113-0.16,0.141c-0.066,0.026-0.14,0.032-0.219,0.02c-0.08-0.013-0.154-0.02-0.22-0.02
		c-0.026,0.199,0.013,0.362,0.12,0.488c0.105,0.126,0.172,0.27,0.199,0.43c0.013,0.052,0.013,0.103,0,0.149
		c-0.014,0.046-0.021,0.097-0.021,0.149c-0.199-0.027-0.343-0.104-0.429-0.229c-0.087-0.126-0.163-0.242-0.229-0.349
		c-0.067-0.134-0.1-0.264-0.1-0.39s0.032-0.263,0.1-0.409c0.146-0.093,0.249-0.146,0.31-0.159c0.06-0.013,0.123-0.054,0.189-0.12
		c0.04-0.027,0.076-0.07,0.109-0.129c0.033-0.061,0.066-0.114,0.1-0.16c0.033-0.047,0.07-0.086,0.11-0.119
		C45.005,18.689,45.058,18.686,45.125,18.712z M44.885,14.642c0-0.093,0.007-0.18,0.021-0.259c0.013-0.08-0.014-0.14-0.08-0.18
		c-0.053,0.04-0.104,0.047-0.15,0.02c-0.047-0.026-0.089-0.032-0.129-0.02c-0.066,0.013-0.123,0.053-0.17,0.119
		c-0.047,0.067-0.063,0.127-0.05,0.18c0.013,0.106,0.087,0.169,0.22,0.19C44.679,14.712,44.792,14.695,44.885,14.642z
		 M45.185,18.294c0.026-0.107,0.096-0.184,0.209-0.23c0.113-0.046,0.203,0.004,0.27,0.15c0,0.213-0.066,0.358-0.199,0.438
		C45.265,18.56,45.171,18.44,45.185,18.294z"/>
	<path fill="#545454" d="M48.777,11.43c-0.133-0.041-0.26-0.044-0.379-0.011c-0.12,0.033-0.24,0.076-0.359,0.13
		c-0.027,0.026-0.051,0.067-0.07,0.119c-0.02,0.054-0.043,0.106-0.069,0.16c-0.014,0.067-0.03,0.13-0.05,0.19
		c-0.021,0.059-0.03,0.115-0.03,0.169c-0.014,0.066-0.017,0.133-0.01,0.199c0.007,0.067-0.023,0.113-0.09,0.14
		c-0.267-0.119-0.366-0.313-0.3-0.579c0-0.039,0.011-0.082,0.03-0.128c0.02-0.047,0.03-0.098,0.03-0.151
		c0.013-0.106,0.022-0.199,0.029-0.279s0.043-0.146,0.109-0.199c0.066-0.067,0.144-0.097,0.23-0.089
		c0.086,0.006,0.176,0.009,0.27,0.009c0.212-0.053,0.355-0.053,0.429,0c0.073,0.054,0.156,0.08,0.249,0.08
		C48.81,11.322,48.803,11.401,48.777,11.43z M48.578,23.861c0.079-0.026,0.205-0.029,0.379-0.01c0.172,0.02,0.286,0.082,0.34,0.189
		c-0.294,0.146-0.566,0.232-0.819,0.26c-0.253,0.026-0.479-0.008-0.679-0.101c-0.186-0.08-0.275-0.199-0.269-0.359
		c0.007-0.159,0.017-0.306,0.03-0.438c0.012-0.093,0.02-0.196,0.02-0.31s0.006-0.216,0.02-0.309s0.041-0.17,0.08-0.229
		c0.04-0.062,0.106-0.091,0.199-0.091c0.066,0.054,0.104,0.123,0.109,0.211c0.008,0.085,0.018,0.176,0.03,0.269
		c0,0.093-0.01,0.18-0.03,0.26c-0.02,0.079-0.029,0.152-0.029,0.219c0.014,0.173,0.073,0.287,0.18,0.34
		C48.244,23.814,48.39,23.849,48.578,23.861z M56.121,22.585c-0.014,0.079-0.008,0.152,0.02,0.219
		c0.026,0.066,0.04,0.133,0.04,0.199c0,0.12-0.021,0.23-0.06,0.329c-0.04,0.101-0.073,0.19-0.1,0.271
		c-0.041,0.026-0.08,0.047-0.12,0.06s-0.067,0.047-0.08,0.1c-0.12,0.013-0.233,0.04-0.339,0.079c-0.16-0.026-0.307-0.035-0.439-0.03
		c-0.133,0.008-0.272,0.004-0.418-0.009c-0.054,0-0.127-0.004-0.221-0.01c-0.093-0.007-0.173-0.023-0.239-0.05
		c-0.213-0.093-0.419-0.193-0.618-0.3s-0.433-0.146-0.699-0.12c-0.053,0-0.1,0.01-0.139,0.03c-0.041,0.02-0.088,0.017-0.141-0.01
		c-0.106,0.053-0.213,0.079-0.318,0.079c-0.107,0-0.2,0.027-0.28,0.08c-0.173,0.027-0.339,0.057-0.499,0.091
		c-0.159,0.032-0.332,0.042-0.518,0.029c-0.08-0.014-0.16-0.017-0.24-0.011c-0.08,0.007-0.153,0.011-0.22,0.011
		c-0.093,0-0.187-0.007-0.279-0.02c-0.093-0.014-0.192-0.027-0.299-0.041c-0.147,0-0.253-0.006-0.319-0.02
		c-0.146-0.013-0.297-0.02-0.449-0.02c-0.153,0-0.299-0.017-0.439-0.05c-0.139-0.034-0.256-0.087-0.349-0.159
		c-0.093-0.074-0.14-0.203-0.14-0.39c0-0.04,0.01-0.08,0.029-0.12s0.03-0.079,0.03-0.12c-0.027-0.146-0.06-0.296-0.1-0.448
		c-0.04-0.153-0.04-0.283,0-0.39c0.093-0.173,0.146-0.289,0.159-0.35c0.014-0.059,0.053-0.116,0.12-0.169
		c0.146-0.053,0.296-0.093,0.449-0.12c0.152-0.026,0.321-0.04,0.509-0.04c0.026-0.053,0.036-0.11,0.029-0.169
		c-0.007-0.061-0.003-0.123,0.01-0.19c0.041-0.026,0.07-0.063,0.09-0.11c0.021-0.046,0.063-0.076,0.131-0.089
		c0.053-0.106,0.096-0.203,0.129-0.288c0.033-0.088,0.037-0.184,0.01-0.29c-0.026-0.08-0.072-0.153-0.139-0.22
		c-0.067-0.067-0.1-0.153-0.1-0.26c0-0.079,0.012-0.17,0.039-0.269c0.026-0.102,0.047-0.203,0.061-0.31c0-0.16,0.02-0.263,0.06-0.31
		c0.04-0.046,0.073-0.091,0.1-0.13c0.026-0.146,0.053-0.239,0.08-0.279c0.026-0.04,0.053-0.093,0.079-0.16
		c0.027-0.119,0.051-0.229,0.07-0.328c0.02-0.101,0.03-0.224,0.03-0.369c-0.015-0.054-0.017-0.109-0.011-0.171
		c0.007-0.06-0.004-0.116-0.029-0.17c-0.027-0.078-0.067-0.149-0.12-0.208c-0.054-0.061-0.093-0.123-0.12-0.19
		c-0.026-0.106-0.049-0.212-0.069-0.319c-0.021-0.106-0.023-0.212-0.01-0.319c0-0.119,0.003-0.249,0.01-0.389
		c0.007-0.139,0.01-0.282,0.01-0.43c0.026-0.199,0.026-0.372,0-0.519c-0.054-0.187-0.079-0.306-0.079-0.359
		c0-0.053-0.027-0.093-0.08-0.119c-0.134,0.026-0.273,0.05-0.42,0.069c-0.146,0.021-0.285,0.01-0.418-0.029
		c-0.094-0.067-0.193-0.133-0.3-0.2c-0.106-0.066-0.18-0.187-0.22-0.359c-0.026-0.106-0.023-0.222,0.01-0.348
		c0.033-0.127,0.057-0.258,0.07-0.39c0.013-0.16,0.013-0.307,0-0.439c-0.014-0.133-0.007-0.26,0.02-0.379
		c0.027-0.093,0.073-0.16,0.14-0.2c0.067-0.04,0.12-0.079,0.16-0.12c0.212-0.026,0.429-0.043,0.648-0.049
		c0.22-0.007,0.436,0.022,0.648,0.09c0.04,0.119,0.126,0.206,0.26,0.259c0.132,0.054,0.252,0.06,0.358,0.021
		c0.041-0.013,0.07-0.037,0.09-0.07c0.021-0.033,0.043-0.063,0.07-0.09c0.133-0.053,0.263-0.067,0.389-0.04
		c0.127,0.027,0.264,0.027,0.41,0c0.186,0.027,0.372,0.044,0.559,0.05c0.186,0.007,0.371,0.017,0.559,0.03
		c0.066,0,0.126,0.003,0.18,0.011c0.053,0.006,0.113,0.036,0.18,0.089c0.039,0.253,0.213,0.379,0.519,0.379
		c0.053,0,0.097-0.01,0.13-0.029c0.033-0.021,0.076-0.043,0.129-0.07h0.24c0.186-0.026,0.315-0.023,0.389,0.01
		c0.073,0.034,0.143,0.05,0.209,0.05c0.121,0,0.233-0.026,0.34-0.079c0.093-0.027,0.17-0.063,0.229-0.109
		c0.06-0.047,0.123-0.083,0.189-0.11c0.093,0.014,0.196,0.017,0.31,0.01s0.209-0.003,0.289,0.01c0.227,0.027,0.393,0.073,0.5,0.14
		c0.158,0.093,0.212,0.213,0.158,0.359c0.027,0.133,0.047,0.286,0.061,0.459s0.01,0.339-0.01,0.499
		c-0.021,0.16-0.057,0.307-0.109,0.439c-0.054,0.133-0.134,0.227-0.24,0.279c-0.066-0.027-0.13-0.023-0.189,0.01
		s-0.117,0.057-0.17,0.069c-0.119,0.027-0.242,0.033-0.369,0.021s-0.256-0.013-0.389,0c-0.014,0.093-0.03,0.173-0.051,0.239
		c-0.02,0.066-0.003,0.127,0.051,0.18c-0.04,0.212-0.061,0.402-0.061,0.568c0,0.167-0.01,0.326-0.029,0.479s-0.054,0.296-0.1,0.429
		c-0.047,0.133-0.123,0.239-0.23,0.319c-0.053,0.147-0.079,0.289-0.079,0.43c0,0.139,0.013,0.276,0.04,0.408
		c0.026,0.133,0.053,0.271,0.08,0.409c0.026,0.141,0.046,0.282,0.06,0.43c0.013,0.066,0.01,0.132-0.011,0.199
		c-0.02,0.067-0.036,0.133-0.049,0.199c-0.027,0.386-0.021,0.792,0.02,1.218s0.014,0.871-0.08,1.337
		c0.146,0.04,0.283,0.057,0.409,0.05s0.263,0.017,0.409,0.07c0.04,0.026,0.076,0.049,0.109,0.07c0.033,0.019,0.07,0.036,0.11,0.049
		c0.093,0.04,0.169,0.07,0.229,0.09c0.06,0.021,0.103,0.083,0.129,0.189c0.014,0.027,0.021,0.066,0.021,0.12c0,0.053,0,0.106,0,0.16
		c0.013,0.106,0.01,0.195-0.01,0.269C56.15,22.429,56.133,22.505,56.121,22.585z M49.455,22.823c0.066-0.013,0.131-0.043,0.19-0.09
		c0.06-0.046,0.09-0.097,0.09-0.148c-0.014-0.041-0.06-0.088-0.14-0.14c-0.08-0.054-0.153-0.093-0.22-0.121
		c-0.067-0.026-0.113-0.026-0.14,0c-0.027,0.028-0.073,0.047-0.141,0.06c-0.025,0.067-0.049,0.125-0.069,0.171
		c-0.02,0.046-0.03,0.116-0.03,0.209c0.146,0.026,0.247,0.047,0.301,0.06C49.349,22.837,49.402,22.837,49.455,22.823z
		 M49.974,11.448c-0.066-0.013-0.137-0.016-0.209-0.01c-0.074,0.008-0.141,0.008-0.2,0c-0.06-0.006-0.11-0.029-0.149-0.069
		c-0.04-0.04-0.054-0.112-0.04-0.22c0.093-0.079,0.18-0.119,0.259-0.119c0.08,0,0.153-0.007,0.221-0.021
		c0.146,0.04,0.239,0.127,0.278,0.26C50.094,11.362,50.041,11.422,49.974,11.448z M50.373,14.821c0.146,0.014,0.246,0.003,0.3-0.03
		c0.054-0.032,0.106-0.069,0.159-0.109c0.014-0.146,0.053-0.292,0.121-0.438c0.065-0.146,0.092-0.293,0.079-0.439
		c-0.014-0.107-0.047-0.188-0.101-0.249c-0.053-0.061-0.1-0.124-0.139-0.189c-0.174-0.041-0.333-0.088-0.479-0.14
		c-0.146-0.054-0.279-0.008-0.398,0.14c0.026,0.052,0.063,0.08,0.109,0.08s0.097,0.013,0.149,0.039
		c0.08,0.04,0.146,0.133,0.199,0.279c0.041,0.093,0.057,0.18,0.051,0.26c-0.008,0.079-0.018,0.159-0.03,0.239
		c-0.013,0.093-0.013,0.19,0,0.289C50.406,14.652,50.4,14.742,50.373,14.821z M50.972,16.019c0.013-0.093,0.026-0.187,0.039-0.279
		c0.014-0.093-0.013-0.167-0.08-0.219c-0.039-0.041-0.103-0.063-0.188-0.07c-0.087-0.006-0.149,0.003-0.19,0.029
		c-0.039,0.067-0.053,0.134-0.039,0.2c0.013,0.066,0.02,0.14,0.02,0.22C50.652,15.992,50.798,16.032,50.972,16.019z M55.222,20.629
		c0-0.187,0.004-0.363,0.01-0.529c0.007-0.166,0.023-0.349,0.051-0.549c0.013-0.12,0.02-0.232,0.02-0.339
		c0-0.107,0.006-0.2,0.02-0.28c0-0.079,0.027-0.166,0.08-0.259s0.127-0.106,0.22-0.039c0.013,0.026,0.02,0.063,0.02,0.109
		s0.007,0.082,0.021,0.109c-0.027,0.227-0.029,0.479-0.01,0.759s0.063,0.525,0.129,0.738c0.053,0.052,0.107,0.103,0.16,0.148
		c0.053,0.047,0.133,0.077,0.239,0.09c0.066,0.054,0.09,0.127,0.07,0.22c-0.021,0.093-0.063,0.153-0.13,0.181
		c-0.146-0.041-0.293-0.073-0.439-0.101c-0.146-0.026-0.273-0.072-0.379-0.14L55.222,20.629z M57.358,14.063
		c0.053,0.066,0.079,0.143,0.079,0.229c0,0.086-0.014,0.176-0.039,0.269c-0.027,0.094-0.054,0.184-0.08,0.27
		c-0.027,0.087-0.047,0.163-0.06,0.229c-0.027,0.013-0.058,0.03-0.091,0.05c-0.033,0.021-0.076,0.038-0.129,0.051
		c-0.054,0-0.109-0.012-0.17-0.029c-0.061-0.021-0.123-0.03-0.189-0.03c-0.146-0.041-0.223-0.088-0.229-0.14
		c-0.007-0.054-0.011-0.107-0.011-0.16c0.227-0.04,0.4-0.14,0.52-0.3c0.04-0.066,0.063-0.149,0.07-0.249
		c0.006-0.101,0.022-0.183,0.05-0.249c0.053-0.041,0.106-0.051,0.159-0.03C57.291,13.993,57.331,14.023,57.358,14.063z
		 M57.377,13.624c-0.093,0.08-0.157,0.076-0.189-0.009c-0.033-0.088-0.044-0.178-0.03-0.271c0.04-0.054,0.09-0.076,0.15-0.07
		c0.06,0.007,0.096,0.044,0.109,0.11c0.013,0.04,0.006,0.073-0.02,0.1C57.371,13.511,57.365,13.557,57.377,13.624z"/>
	<path fill="#545454" d="M68.373,23.183c-0.213,0.093-0.382,0.156-0.508,0.189c-0.127,0.033-0.244,0.058-0.35,0.07
		c-0.16,0.026-0.326,0.04-0.499,0.04s-0.313-0.053-0.419-0.16c-0.133-0.053-0.256-0.066-0.369-0.04
		c-0.113,0.027-0.223,0.07-0.33,0.13c-0.105,0.061-0.209,0.123-0.309,0.19c-0.1,0.066-0.209,0.106-0.33,0.119
		c-0.133,0.026-0.271,0.043-0.418,0.05s-0.293,0.018-0.439,0.03h-0.479c-0.066,0-0.123-0.008-0.17-0.021s-0.098-0.007-0.15,0.021
		c-0.105-0.027-0.203-0.033-0.289-0.021s-0.176,0.013-0.27,0c-0.066,0-0.137-0.003-0.209-0.01c-0.073-0.007-0.143-0.01-0.21-0.01
		c-0.04,0-0.079,0.007-0.119,0.02s-0.08,0.021-0.12,0.021c-0.16-0.027-0.272-0.03-0.34-0.01c-0.066,0.019-0.133,0.029-0.199,0.029
		c-0.066,0.014-0.123,0.014-0.169,0c-0.047-0.013-0.097-0.02-0.149-0.02c-0.134,0.013-0.267,0.026-0.399,0.039
		c-0.134,0.014-0.272,0.021-0.419,0.021c-0.107-0.013-0.217-0.037-0.33-0.069c-0.113-0.033-0.223-0.058-0.328-0.07
		c-0.027-0.013-0.058-0.033-0.091-0.06c-0.032-0.027-0.063-0.054-0.089-0.08c-0.054-0.026-0.104-0.057-0.15-0.09
		s-0.109-0.057-0.189-0.07c-0.066-0.079-0.133-0.14-0.199-0.179c-0.04-0.107-0.08-0.167-0.12-0.18s-0.073-0.033-0.1-0.061
		c-0.027-0.092-0.067-0.176-0.12-0.248c-0.053-0.074-0.094-0.157-0.119-0.25c-0.027-0.08-0.037-0.16-0.03-0.24
		s-0.003-0.152-0.03-0.22c-0.026-0.079-0.072-0.149-0.139-0.208c-0.067-0.062-0.121-0.124-0.16-0.19
		c-0.054-0.067-0.104-0.137-0.149-0.209c-0.047-0.074-0.084-0.163-0.11-0.271c-0.014-0.093-0.014-0.183,0-0.27
		c0.014-0.086,0.014-0.176,0-0.269c0-0.093,0.003-0.181,0.01-0.26c0.008-0.079,0.017-0.153,0.031-0.22
		c0-0.066,0.012-0.14,0.039-0.219c0.066-0.2,0.1-0.329,0.1-0.391c0-0.059,0.026-0.109,0.08-0.148
		c0.172-0.054,0.285-0.101,0.339-0.14c0.054-0.04,0.126-0.067,0.22-0.08c0.04-0.013,0.082-0.013,0.129,0s0.091,0.021,0.131,0.021
		c0.172-0.014,0.342-0.033,0.509-0.061c0.165-0.027,0.321-0.007,0.469,0.061c0.04,0.026,0.083,0.063,0.13,0.108
		c0.047,0.048,0.076,0.091,0.09,0.13c0.039,0.08,0.057,0.164,0.05,0.25s-0.017,0.183-0.03,0.289c-0.014,0.054-0.014,0.104,0,0.15
		c0.014,0.046,0.02,0.096,0.02,0.149c-0.013,0.067-0.039,0.14-0.079,0.22s-0.047,0.173-0.021,0.279
		c0.014,0.053,0.041,0.089,0.08,0.11c0.04,0.019,0.08,0.042,0.12,0.068c0.04,0.041,0.079,0.088,0.12,0.14
		c0.039,0.054,0.079,0.101,0.119,0.141c0.066,0.053,0.143,0.112,0.229,0.18c0.087,0.066,0.177,0.106,0.27,0.119
		c0.053,0.014,0.112,0.017,0.179,0.01c0.067-0.006,0.141-0.01,0.221-0.01c0.066,0,0.126,0.007,0.18,0.021
		c0.053,0.013,0.105,0.02,0.159,0.02c0.212,0.013,0.438,0.007,0.679-0.02c0.239-0.027,0.451-0.054,0.639-0.08
		c0.146-0.027,0.275-0.069,0.389-0.13c0.113-0.06,0.209-0.123,0.289-0.189c0.014-0.107,0.037-0.2,0.07-0.279
		c0.033-0.08,0.07-0.159,0.109-0.239c0.053-0.187,0.066-0.37,0.04-0.549c-0.026-0.181-0.026-0.362,0-0.549
		c0.026-0.253,0.022-0.432-0.01-0.539c-0.033-0.107-0.017-0.213,0.05-0.319c0.013-0.039,0.033-0.076,0.06-0.109
		c0.026-0.034,0.054-0.07,0.08-0.11c0.053-0.159,0.093-0.279,0.12-0.359c0.025-0.079,0.033-0.172,0.02-0.278
		c-0.014-0.107-0.047-0.217-0.1-0.329c-0.053-0.114-0.113-0.19-0.18-0.229c-0.106-0.067-0.163-0.138-0.17-0.21
		c-0.006-0.073-0.017-0.137-0.029-0.19c0-0.066,0.003-0.146,0.01-0.238c0.006-0.094,0.01-0.181,0.01-0.261
		c-0.014-0.172-0.02-0.325-0.02-0.458s0.013-0.272,0.039-0.42c0.027-0.132,0.051-0.25,0.07-0.348c0.02-0.102,0.01-0.23-0.029-0.39
		c-0.055-0.187-0.094-0.304-0.12-0.351c-0.026-0.046-0.047-0.089-0.06-0.129c-0.027-0.066-0.041-0.173-0.041-0.319
		s-0.006-0.272-0.02-0.379c-0.014-0.187-0.029-0.369-0.05-0.549c-0.02-0.18-0.023-0.343-0.01-0.489
		c0.013-0.119,0.046-0.239,0.1-0.359c0.054-0.119,0.133-0.191,0.239-0.22c0.16,0.028,0.279,0.033,0.359,0.021s0.133-0.026,0.16-0.04
		c0.08,0,0.152,0.011,0.219,0.03s0.146,0.03,0.24,0.03c0.066,0.013,0.146,0.009,0.238-0.011c0.094-0.02,0.188-0.036,0.28-0.05
		c0.053,0,0.106,0.003,0.159,0.011c0.053,0.006,0.113,0.009,0.18,0.009c0.08-0.013,0.162-0.032,0.25-0.06
		c0.086-0.026,0.17-0.039,0.249-0.039c0.08-0.013,0.159-0.017,0.239-0.012c0.08,0.008,0.16,0.012,0.24,0.012
		c0.226-0.027,0.402-0.044,0.528-0.051s0.229,0.01,0.31,0.051c0.053,0.026,0.093,0.066,0.119,0.119
		c0.027,0.054,0.073,0.08,0.141,0.08c0.066,0.133,0.172,0.227,0.318,0.279s0.299,0.1,0.459,0.14c0.053,0.053,0.106,0.11,0.16,0.169
		c0.053,0.061,0.1,0.123,0.14,0.19c0.026,0.04,0.06,0.087,0.1,0.14s0.06,0.1,0.06,0.14c0.027,0.066,0.033,0.14,0.021,0.219
		c-0.014,0.08-0.021,0.153-0.021,0.22c0,0.106,0.014,0.21,0.041,0.31c0.025,0.1,0.039,0.202,0.039,0.31
		c-0.027,0.146-0.037,0.246-0.029,0.299c0.006,0.054,0.016,0.113,0.029,0.18c0.027,0.427,0.063,0.858,0.109,1.298
		c0.047,0.438,0.084,0.891,0.11,1.356c-0.026,0.146-0.067,0.286-0.12,0.419s-0.086,0.279-0.1,0.439c0,0.106,0.014,0.21,0.04,0.309
		c0.026,0.101,0.053,0.203,0.08,0.311c0.026,0.079,0.053,0.156,0.079,0.229c0.027,0.072,0.04,0.143,0.04,0.209
		c0.014,0.106,0.026,0.216,0.04,0.328c0.014,0.114,0.021,0.243,0.021,0.391c0.013,0.052,0.017,0.109,0.009,0.169
		c-0.006,0.061-0.009,0.123-0.009,0.19c0.013,0.065,0.026,0.128,0.04,0.188c0.013,0.061,0.013,0.124,0,0.189
		c-0.04,0.24-0.063,0.439-0.07,0.6c-0.008,0.159-0.037,0.306-0.09,0.438c-0.014,0.04-0.029,0.08-0.05,0.12s-0.044,0.079-0.069,0.12
		c-0.014,0.039-0.023,0.082-0.03,0.129c-0.007,0.046-0.024,0.083-0.05,0.109c-0.066,0.106-0.141,0.203-0.22,0.291
		c-0.079,0.085-0.14,0.188-0.18,0.309c-0.067-0.013-0.113-0.004-0.14,0.029c-0.027,0.034-0.054,0.063-0.08,0.09
		c-0.133,0.04-0.219,0.087-0.26,0.14c-0.039,0.054-0.093,0.093-0.159,0.12L68.373,23.183z M59.573,21.188
		c0.106-0.026,0.179-0.12,0.22-0.279c0.039-0.16,0-0.246-0.12-0.259c-0.134,0.026-0.22,0.069-0.259,0.128
		c-0.041,0.061-0.064,0.123-0.07,0.19c-0.008,0.067,0.006,0.123,0.039,0.169C59.416,21.184,59.48,21.2,59.573,21.188z
		 M59.972,18.652c0,0.054-0.02,0.091-0.061,0.11c-0.039,0.02-0.08,0.027-0.119,0.02c-0.041-0.007-0.077-0.029-0.109-0.07
		c-0.034-0.039-0.051-0.086-0.051-0.14c0.04-0.065,0.106-0.086,0.199-0.06C59.925,18.54,59.972,18.587,59.972,18.652z
		 M61.149,22.524c0.054-0.053,0.11-0.096,0.17-0.129c0.06-0.034,0.09-0.104,0.09-0.211c-0.146-0.039-0.3-0.072-0.459-0.099
		c-0.159-0.028-0.286-0.093-0.38-0.2c-0.039-0.066-0.079-0.123-0.119-0.169c-0.04-0.047-0.08-0.098-0.119-0.15
		c-0.107,0.027-0.2,0.053-0.279,0.08c-0.068,0.08-0.058,0.163,0.029,0.249c0.086,0.086,0.15,0.157,0.189,0.21
		c0.133,0.146,0.232,0.266,0.299,0.358c0.094,0.041,0.177,0.063,0.25,0.07C60.892,22.54,61.002,22.538,61.149,22.524z M60.95,18.893
		c-0.12,0.026-0.224,0.017-0.31-0.03c-0.086-0.046-0.117-0.13-0.09-0.249c0.16-0.054,0.289-0.08,0.389-0.08s0.19,0.013,0.27,0.039
		c0.107,0.041,0.197,0.13,0.27,0.271c0.073,0.139,0.123,0.282,0.15,0.429c0.013,0.066,0.016,0.159,0.01,0.279
		c-0.007,0.12-0.023,0.213-0.051,0.279c-0.025,0.04-0.069,0.067-0.129,0.08c-0.061,0.013-0.117,0.033-0.17,0.06
		c-0.066-0.026-0.106-0.066-0.119-0.119c-0.014-0.054-0.014-0.116,0-0.19c0.013-0.073,0.029-0.143,0.049-0.209
		c0.021-0.067,0.023-0.133,0.011-0.199c-0.013-0.093-0.047-0.164-0.1-0.21C61.076,18.995,61.015,18.946,60.95,18.893z
		 M63.423,12.985c-0.093-0.026-0.166-0.093-0.219-0.199s-0.08-0.213-0.08-0.319c0-0.146,0.014-0.313,0.04-0.499
		s0.087-0.313,0.18-0.38c0.106,0.041,0.196,0.024,0.27-0.048c0.073-0.075,0.143-0.071,0.21,0.009
		c-0.027,0.106-0.014,0.212,0.039,0.319s0.033,0.206-0.06,0.299c-0.173,0.054-0.243,0.156-0.21,0.31s0.017,0.303-0.049,0.449
		L63.423,12.985z M64.023,18.294c-0.066,0.133-0.097,0.209-0.09,0.23c0.006,0.019,0.01,0.042,0.01,0.068
		c-0.027,0.08-0.084,0.144-0.17,0.189c-0.086,0.047-0.163,0.018-0.229-0.089c-0.067-0.16-0.088-0.316-0.061-0.47
		c0.026-0.152,0.039-0.316,0.039-0.488c0-0.054-0.002-0.101-0.009-0.14c-0.007-0.04-0.004-0.087,0.009-0.14
		c0.027-0.267,0.033-0.477,0.021-0.63c-0.014-0.152-0.008-0.302,0.02-0.448c0.146,0.16,0.219,0.326,0.219,0.499
		s0.014,0.347,0.041,0.52c0.025,0.093,0.063,0.175,0.109,0.249c0.047,0.073,0.082,0.162,0.109,0.27
		C64.07,18.034,64.062,18.161,64.023,18.294z M65.779,13.165c0.066-0.133,0.047-0.232-0.061-0.299
		c-0.105-0.067-0.212-0.113-0.318-0.14c-0.146,0.026-0.257,0.022-0.33-0.011c-0.072-0.033-0.148-0.022-0.229,0.03
		c-0.014,0.013-0.04,0.053-0.08,0.12c-0.04,0.066-0.061,0.132-0.061,0.199c-0.014,0.067-0.014,0.149,0,0.249
		c0.014,0.101,0.021,0.196,0.021,0.289c0,0.147,0.021,0.273,0.06,0.38c0.04,0.106,0.133,0.14,0.279,0.1
		c0.106-0.12,0.156-0.229,0.15-0.329c-0.008-0.1,0.016-0.183,0.07-0.249c0.065-0.067,0.146-0.123,0.238-0.169
		C65.613,13.289,65.699,13.231,65.779,13.165z M66.138,23.98c0.08-0.039,0.14-0.035,0.18,0.012c0.04,0.046,0.093,0.076,0.159,0.089
		c0.026,0.039,0.036,0.086,0.03,0.14c-0.008,0.053-0.018,0.101-0.03,0.14c-0.066,0.067-0.18,0.072-0.339,0.021
		c-0.16-0.054-0.253-0.107-0.279-0.16c-0.04-0.08-0.03-0.166,0.029-0.259C65.949,23.868,66.031,23.874,66.138,23.98z M67.016,12.905
		c0.026-0.159-0.037-0.239-0.189-0.239c-0.153,0-0.257,0.04-0.31,0.12c-0.027,0.106-0.018,0.18,0.029,0.22
		c0.047,0.039,0.104,0.06,0.17,0.06s0.133-0.017,0.199-0.05C66.983,12.982,67.016,12.946,67.016,12.905z M70.369,21.646
		c0.093,0,0.146,0.036,0.16,0.11c0.012,0.072,0.059,0.115,0.139,0.129c0.053,0.307,0.057,0.606,0.011,0.898
		c-0.047,0.292-0.184,0.491-0.409,0.599c-0.254,0.239-0.52,0.398-0.799,0.479c-0.08,0.013-0.162,0.037-0.249,0.069
		c-0.087,0.033-0.163,0.058-0.229,0.07c-0.039,0-0.08-0.004-0.119-0.009c-0.041-0.008-0.08-0.012-0.121-0.012
		c-0.186,0.054-0.309,0.08-0.369,0.08c-0.059,0-0.116,0.013-0.169,0.041c-0.066,0.026-0.123,0.079-0.169,0.158
		c-0.047,0.08-0.123,0.107-0.23,0.08c-0.066-0.013-0.119-0.082-0.159-0.209c-0.04-0.126-0.021-0.216,0.06-0.27
		c0.066-0.026,0.16-0.053,0.279-0.08c0.12-0.026,0.207-0.026,0.26,0c0.053-0.026,0.116-0.053,0.189-0.08
		c0.072-0.026,0.15-0.026,0.229,0c0.04-0.013,0.079-0.036,0.12-0.068c0.039-0.034,0.086-0.044,0.139-0.03
		c0.121-0.067,0.243-0.13,0.37-0.19c0.126-0.06,0.245-0.13,0.358-0.209c0.113-0.08,0.21-0.173,0.29-0.279
		c0.079-0.106,0.133-0.24,0.159-0.399c0.066-0.107,0.109-0.243,0.13-0.408C70.259,21.949,70.302,21.793,70.369,21.646z
		 M68.293,21.746c0.013,0.066,0.013,0.137,0,0.21c-0.014,0.072,0,0.136,0.04,0.189c0.066,0,0.123,0.01,0.17,0.029
		c0.046,0.021,0.102,0.022,0.169,0.01c0.066-0.026,0.112-0.068,0.14-0.129c0.026-0.06,0.072-0.097,0.141-0.109
		c0.012-0.107,0.049-0.214,0.109-0.32c0.06-0.106,0.076-0.232,0.049-0.379c-0.026-0.226-0.02-0.411,0.021-0.559
		s-0.007-0.253-0.14-0.319c-0.08,0.093-0.141,0.206-0.18,0.34c-0.039,0.132-0.08,0.269-0.119,0.409
		c-0.041,0.139-0.088,0.266-0.141,0.378C68.5,21.609,68.414,21.693,68.293,21.746z M68.573,19.511
		c-0.014,0.12-0.003,0.229,0.03,0.33c0.033,0.099,0.096,0.149,0.189,0.149c0.133-0.013,0.202-0.104,0.209-0.27
		c0.006-0.166-0.029-0.303-0.109-0.409c-0.16,0.067-0.246,0.109-0.26,0.13C68.619,19.461,68.599,19.484,68.573,19.511z
		 M68.792,11.928c-0.134-0.146-0.146-0.249-0.041-0.31c0.107-0.061,0.207-0.057,0.301,0.011c0.079-0.026,0.146-0.033,0.199-0.021
		c0.053,0.013,0.126,0.026,0.219,0.041c0.094,0.065,0.131,0.17,0.11,0.309c-0.021,0.141-0.083,0.229-0.19,0.27
		c-0.039-0.027-0.089-0.044-0.148-0.05c-0.061-0.007-0.124-0.023-0.189-0.05c-0.054-0.027-0.1-0.061-0.141-0.101
		C68.873,11.988,68.832,11.955,68.792,11.928z M70.349,20.149c0.08,0.014,0.146,0.05,0.199,0.109
		c0.053,0.062,0.093,0.138,0.119,0.23c0.027,0.093,0.041,0.187,0.041,0.279s-0.014,0.179-0.041,0.259
		c-0.039,0.12-0.105,0.17-0.199,0.149c-0.094-0.019-0.16-0.082-0.199-0.188c-0.04-0.106-0.057-0.22-0.051-0.339
		c0.008-0.121-0.002-0.233-0.029-0.341c0.027-0.026,0.047-0.063,0.061-0.109C70.261,20.153,70.295,20.137,70.349,20.149z"/>
	<path fill="#545454" d="M72.205,14.98c-0.014,0.041-0.01,0.088,0.01,0.14c0.02,0.054,0.023,0.113,0.01,0.181
		c-0.026,0.093-0.047,0.206-0.06,0.339s-0.047,0.232-0.1,0.3c-0.026,0.026-0.083,0.056-0.169,0.089
		c-0.088,0.034-0.164,0.037-0.23,0.011c-0.026-0.027-0.057-0.069-0.09-0.13c-0.033-0.06-0.05-0.104-0.05-0.13
		c0-0.08,0.021-0.177,0.06-0.288c0.04-0.114,0.08-0.211,0.12-0.291c0.08-0.173,0.163-0.343,0.249-0.508
		c0.087-0.167,0.177-0.316,0.27-0.449c0.066-0.08,0.133-0.146,0.199-0.2c0.067-0.053,0.133-0.112,0.201-0.179
		c0.105,0,0.169,0.052,0.188,0.159c0.021,0.106-0.003,0.199-0.069,0.279c-0.146,0.093-0.27,0.213-0.369,0.359
		S72.218,14.915,72.205,14.98z M86.851,22.025c-0.133,0.093-0.232,0.192-0.299,0.299c-0.319,0.228-0.642,0.452-0.968,0.679
		s-0.675,0.427-1.048,0.6c-0.146,0.093-0.27,0.156-0.369,0.189c-0.1,0.032-0.203,0.069-0.309,0.109
		c-0.054,0.014-0.094,0.032-0.12,0.061c-0.026,0.026-0.054,0.047-0.079,0.06c-0.174,0.039-0.293,0.072-0.359,0.099
		c-0.067,0.028-0.134,0.054-0.2,0.08c-0.054,0.013-0.133,0.047-0.239,0.101c-0.16,0.052-0.343,0.068-0.549,0.05
		c-0.207-0.021-0.416-0.017-0.629,0.01c-0.08,0.013-0.173,0.026-0.279,0.039c-0.106,0.014-0.213,0.033-0.319,0.061
		c-0.106-0.027-0.235-0.04-0.39-0.04c-0.152,0-0.303-0.007-0.448-0.021c-0.093-0.013-0.187-0.032-0.279-0.06
		c-0.094-0.026-0.193-0.047-0.3-0.06c-0.133-0.013-0.266-0.022-0.398-0.03c-0.133-0.007-0.273-0.029-0.419-0.069
		c-0.173,0.027-0.323,0.014-0.449-0.04c-0.127-0.054-0.263-0.072-0.409-0.06c-0.08-0.026-0.17-0.05-0.27-0.071
		c-0.1-0.018-0.193-0.042-0.279-0.068s-0.16-0.067-0.219-0.12c-0.061-0.053-0.084-0.133-0.07-0.239
		c-0.067-0.093-0.163-0.167-0.289-0.22c-0.127-0.053-0.25-0.106-0.369-0.159c-0.094-0.013-0.174,0-0.24,0.04
		c-0.066,0.039-0.139,0.06-0.219,0.06c-0.041,0.013-0.09,0.013-0.15,0c-0.06-0.013-0.117-0.027-0.17-0.04
		c-0.106-0.026-0.195-0.06-0.27-0.1c-0.072-0.04-0.162-0.093-0.269-0.16c-0.04-0.026-0.08-0.04-0.12-0.04s-0.08-0.013-0.119-0.039
		c-0.107-0.067-0.207-0.137-0.3-0.21s-0.193-0.123-0.3-0.149c-0.199-0.267-0.398-0.52-0.598-0.759
		c-0.2-0.239-0.359-0.519-0.479-0.838c-0.067-0.08-0.116-0.163-0.149-0.249s-0.07-0.183-0.109-0.289
		c-0.027-0.028-0.058-0.054-0.09-0.08c-0.034-0.027-0.078-0.054-0.131-0.08c-0.119-0.147-0.216-0.313-0.289-0.499
		c-0.072-0.187-0.163-0.353-0.27-0.499c-0.053-0.387-0.109-0.781-0.17-1.187c-0.059-0.406-0.01-0.81,0.15-1.208
		c0.053-0.16,0.119-0.27,0.199-0.33c0.08-0.059,0.133-0.156,0.16-0.288c0.014-0.04,0.014-0.087,0-0.141
		c-0.014-0.053-0.014-0.106,0-0.159c0.026-0.08,0.046-0.17,0.061-0.269c0.012-0.102,0.031-0.197,0.059-0.291
		c0.094-0.187,0.176-0.372,0.25-0.559c0.072-0.186,0.162-0.352,0.27-0.498c0.039-0.146,0.119-0.279,0.239-0.399
		c0.093-0.093,0.192-0.18,0.3-0.26c0.066-0.026,0.125-0.039,0.18-0.039c0.053,0,0.112-0.013,0.18-0.041
		c0.065-0.026,0.133-0.063,0.199-0.109c0.066-0.047,0.133-0.082,0.199-0.109c0.133-0.188,0.236-0.353,0.309-0.499
		c0.074-0.146,0.163-0.267,0.27-0.359c0.107-0.08,0.207-0.143,0.3-0.189s0.192-0.097,0.3-0.149c0.186-0.026,0.318-0.106,0.398-0.24
		c0.133-0.052,0.256-0.082,0.369-0.089s0.236-0.03,0.369-0.069c0.107-0.028,0.196-0.05,0.27-0.071
		c0.072-0.02,0.149-0.037,0.229-0.05c0.066-0.013,0.13-0.033,0.19-0.06c0.059-0.026,0.122-0.039,0.189-0.039
		c0.105,0,0.202,0.013,0.289,0.039c0.086,0.026,0.17,0.008,0.25-0.06c0.146-0.04,0.278-0.054,0.398-0.04
		c0.119,0.014,0.252,0.02,0.398,0.02c0.08,0,0.156-0.004,0.23-0.01c0.072-0.007,0.143-0.01,0.209-0.01c0.053,0,0.1,0.007,0.14,0.02
		s0.079,0.027,0.12,0.041c0.053,0,0.106-0.004,0.16-0.012c0.053-0.005,0.111-0.009,0.179-0.009c0.173,0,0.376,0.017,0.608,0.05
		c0.232,0.034,0.456,0.063,0.669,0.09c0.093,0,0.192,0.013,0.3,0.039c0.105,0.028,0.212,0.033,0.318,0.021
		c0.266,0.054,0.476,0.106,0.629,0.16c0.152,0.053,0.322,0.1,0.509,0.14c0.066,0.013,0.133,0.02,0.2,0.02
		c0.066,0,0.112,0.02,0.139,0.061c0.267,0.106,0.532,0.203,0.799,0.289c0.266,0.086,0.512,0.202,0.738,0.349
		c0.066,0.04,0.133,0.087,0.199,0.14c0.066,0.054,0.133,0.093,0.199,0.12c0.107,0.066,0.213,0.126,0.32,0.18
		c0.105,0.054,0.18,0.127,0.219,0.22c0.107,0.026,0.196,0.072,0.27,0.14s0.156,0.113,0.25,0.14c0.105,0.119,0.223,0.229,0.349,0.329
		c0.126,0.101,0.224,0.223,0.29,0.369c0.105,0.066,0.186,0.14,0.239,0.22c0.053,0.079,0.112,0.152,0.18,0.219
		c0.106,0.267,0.212,0.503,0.319,0.709c0.105,0.206,0.166,0.442,0.18,0.709c0.066,0.146,0.136,0.318,0.209,0.518
		c0.073,0.201,0.037,0.373-0.109,0.52c-0.04,0.106-0.09,0.209-0.15,0.31c-0.059,0.1-0.109,0.202-0.149,0.31
		c-0.013,0.066-0.026,0.156-0.04,0.269c-0.014,0.113-0.007,0.197,0.021,0.25c0.04,0.079,0.106,0.159,0.199,0.239
		s0.167,0.166,0.22,0.259c0.013,0.041,0.02,0.08,0.02,0.121c0,0.039,0.014,0.072,0.04,0.099c-0.054,0.093-0.097,0.211-0.13,0.35
		c-0.033,0.141-0.076,0.276-0.129,0.409c-0.014,0.133-0.018,0.203-0.01,0.21c0.006,0.006,0.01,0.022,0.01,0.049
		c-0.16,0.293-0.279,0.528-0.359,0.71c-0.08,0.178-0.187,0.355-0.319,0.528c-0.026,0.053-0.057,0.109-0.09,0.169
		c-0.034,0.061-0.077,0.117-0.13,0.17c-0.039,0.053-0.09,0.096-0.149,0.13C86.882,21.909,86.851,21.959,86.851,22.025z
		 M74.359,12.587c-0.066,0.172-0.169,0.306-0.309,0.398s-0.309,0.127-0.509,0.101c-0.026-0.2,0.036-0.356,0.19-0.469
		c0.152-0.114,0.309-0.19,0.469-0.23c0.065-0.053,0.129-0.1,0.189-0.14c0.06-0.04,0.129-0.06,0.209-0.06
		c0,0.08-0.033,0.136-0.1,0.169c-0.066,0.034-0.127,0.077-0.18,0.13L74.359,12.587z M74.021,15.221
		c0.039-0.067,0.059-0.18,0.059-0.339c0-0.16-0.025-0.253-0.079-0.279c-0.067,0.026-0.137,0.063-0.21,0.109
		c-0.072,0.047-0.123,0.109-0.149,0.189c-0.04,0.133-0.033,0.239,0.021,0.319c0.039,0.039,0.103,0.063,0.189,0.069
		C73.937,15.297,73.994,15.274,74.021,15.221z M75.976,13.105c0.08-0.08,0.119-0.167,0.119-0.26
		c-0.238-0.026-0.393,0.021-0.459,0.14c-0.146,0.067-0.252,0.169-0.318,0.31c-0.067,0.139-0.16,0.249-0.279,0.329
		c-0.054,0.026-0.12,0.06-0.199,0.101c-0.08,0.039-0.154,0.093-0.221,0.159c-0.026,0.027-0.049,0.063-0.069,0.109
		s-0.03,0.09-0.03,0.13c0.014,0.026,0.043,0.051,0.09,0.069c0.047,0.021,0.083,0.03,0.109,0.03c0.094,0,0.167-0.036,0.221-0.109
		c0.053-0.073,0.112-0.143,0.179-0.21c0.08-0.039,0.147-0.093,0.2-0.16c0.053-0.065,0.105-0.126,0.159-0.179
		c0.067-0.08,0.146-0.156,0.239-0.229C75.81,13.261,75.896,13.185,75.976,13.105z M75.337,11.928
		c-0.053,0.014-0.096,0.033-0.129,0.061c-0.034,0.026-0.084,0.026-0.15,0c-0.08-0.08-0.073-0.193,0.02-0.339
		c0.054-0.028,0.104-0.054,0.15-0.08c0.046-0.028,0.096-0.047,0.149-0.061c0.066-0.04,0.126-0.079,0.18-0.12
		c0.053-0.039,0.12-0.066,0.2-0.08c0.133-0.079,0.266-0.162,0.398-0.248c0.133-0.087,0.293-0.11,0.479-0.07
		c0.16,0.026,0.253,0.056,0.279,0.089c0.027,0.034,0.027,0.084,0,0.15c-0.053,0.027-0.109,0.044-0.17,0.049
		c-0.059,0.008-0.123,0.024-0.189,0.051c-0.053,0.013-0.1,0.029-0.139,0.051c-0.041,0.02-0.08,0.042-0.12,0.068
		c-0.067,0.028-0.14,0.041-0.22,0.041s-0.139,0.033-0.18,0.099C75.669,11.655,75.484,11.769,75.337,11.928z M77.552,24.321
		c-0.08,0.119-0.176,0.162-0.289,0.128c-0.113-0.033-0.223-0.063-0.329-0.089c-0.04-0.013-0.083-0.017-0.13-0.01
		c-0.047,0.006-0.09,0.002-0.13-0.011c-0.106-0.026-0.206-0.068-0.3-0.129c-0.093-0.061-0.192-0.104-0.299-0.13
		c-0.039-0.013-0.086-0.03-0.139-0.05c-0.055-0.021-0.101-0.047-0.141-0.08c-0.039-0.033-0.063-0.069-0.07-0.11
		c-0.006-0.039,0.018-0.086,0.07-0.14c0.04-0.052,0.127-0.09,0.26-0.108c0.133-0.021,0.226-0.018,0.279,0.01
		c0.106,0.093,0.166,0.136,0.18,0.128c0.013-0.005,0.033-0.002,0.06,0.012c0.093,0.119,0.149,0.187,0.169,0.199
		c0.021,0.013,0.037,0.033,0.051,0.06c0.08,0.106,0.143,0.16,0.189,0.16s0.09,0.006,0.13,0.02c0.065,0.027,0.136,0.05,0.21,0.069
		C77.396,24.271,77.472,24.293,77.552,24.321z M76.255,22.065c0.066,0,0.123-0.026,0.17-0.08c0.047-0.053,0.07-0.106,0.07-0.159
		c0.012-0.04,0.006-0.077-0.021-0.109c-0.026-0.034-0.054-0.063-0.079-0.091c-0.055-0.066-0.104-0.148-0.15-0.249
		c-0.047-0.1-0.083-0.183-0.109-0.249c-0.027-0.08-0.041-0.16-0.041-0.24s0-0.156,0-0.229c0-0.072-0.006-0.139-0.02-0.199
		c-0.014-0.06-0.053-0.117-0.119-0.169c-0.08,0.093-0.113,0.195-0.1,0.31c0.012,0.112,0.006,0.241-0.021,0.389
		c-0.026,0.173-0.033,0.342-0.021,0.508c0.014,0.167,0.053,0.29,0.121,0.37c0.025,0.026,0.082,0.063,0.169,0.109
		C76.193,22.022,76.242,22.053,76.255,22.065z M83.179,19.172c0.027-0.199,0.044-0.396,0.051-0.589
		c0.006-0.193,0.023-0.382,0.05-0.568c0.026-0.107,0.066-0.209,0.12-0.31c0.053-0.1,0.086-0.202,0.1-0.309
		c0.026-0.173,0.016-0.347-0.03-0.52c-0.047-0.173-0.077-0.353-0.089-0.539c0-0.187,0.009-0.366,0.029-0.538
		c0.02-0.173,0.036-0.354,0.05-0.54c0-0.065-0.01-0.111-0.03-0.14c-0.02-0.026-0.029-0.065-0.029-0.119
		c-0.027-0.067-0.037-0.127-0.03-0.18s-0.003-0.093-0.03-0.12c-0.013-0.026-0.043-0.063-0.09-0.109
		c-0.047-0.046-0.083-0.083-0.109-0.109c-0.066-0.067-0.153-0.12-0.26-0.16s-0.199-0.072-0.279-0.1c-0.04-0.053-0.09-0.1-0.149-0.14
		s-0.103-0.1-0.13-0.18c-0.026-0.013-0.057-0.036-0.09-0.069s-0.076-0.05-0.129-0.05c-0.08-0.013-0.15,0-0.21,0.039
		c-0.06,0.041-0.123,0.067-0.19,0.08c-0.119,0-0.186,0.004-0.199,0.01c-0.013,0.007-0.033,0.011-0.06,0.011
		c-0.187-0.013-0.3-0.027-0.339-0.04c-0.04-0.014-0.094-0.027-0.16-0.04c-0.146-0.026-0.282-0.04-0.408-0.04
		c-0.127,0-0.237-0.04-0.33-0.12c-0.039-0.026-0.073-0.063-0.1-0.109c-0.027-0.047-0.054-0.082-0.08-0.11
		c-0.039-0.013-0.113-0.033-0.219-0.06c-0.146,0.013-0.27,0.08-0.369,0.199c-0.1,0.121-0.203,0.193-0.31,0.22
		c-0.16-0.013-0.263-0.017-0.31-0.009c-0.047,0.006-0.104,0.017-0.17,0.029c-0.173,0.026-0.318,0.063-0.439,0.109
		c-0.119,0.047-0.246,0.103-0.379,0.17c-0.093,0.106-0.166,0.22-0.219,0.339c-0.054,0.12-0.113,0.26-0.18,0.42
		c-0.027,0.106-0.033,0.203-0.021,0.289c0.014,0.087,0.021,0.163,0.021,0.229c-0.027,0.147-0.047,0.304-0.061,0.469
		c-0.014,0.167-0.033,0.323-0.06,0.47c-0.026,0.107-0.047,0.217-0.06,0.329c-0.014,0.113-0.033,0.223-0.06,0.329
		c-0.015,0.054-0.024,0.106-0.03,0.16c-0.008,0.054-0.017,0.106-0.03,0.16c0,0.226-0.01,0.375-0.03,0.449
		c-0.02,0.072-0.043,0.149-0.069,0.229c-0.093,0.093-0.159,0.196-0.199,0.31s-0.073,0.223-0.101,0.33
		c-0.026,0.199-0.02,0.402,0.021,0.608c0.04,0.205,0.066,0.401,0.08,0.588c0.013,0.2,0.013,0.383,0,0.549
		c-0.014,0.166-0.014,0.336,0,0.509c0.026,0.054,0.063,0.09,0.11,0.11c0.046,0.02,0.076,0.057,0.089,0.109
		c0.093,0.067,0.176,0.127,0.249,0.18c0.074,0.053,0.163,0.106,0.27,0.159c0.04,0.027,0.076,0.047,0.11,0.061
		c0.032,0.013,0.069,0.033,0.109,0.06c0.079,0.027,0.156,0.04,0.229,0.04s0.143,0.013,0.209,0.04c0.041,0,0.077,0.007,0.11,0.02
		c0.033,0.014,0.069,0.027,0.11,0.04c0.146,0.026,0.289,0.047,0.428,0.06c0.141,0.014,0.257,0.047,0.35,0.101
		c0.293,0.026,0.556,0.047,0.789,0.06c0.232,0.013,0.481,0.033,0.748,0.06c0.173,0,0.35-0.013,0.529-0.039
		c0.179-0.027,0.349-0.061,0.508-0.101c0.106-0.026,0.217-0.053,0.33-0.08c0.112-0.026,0.209-0.066,0.289-0.119
		c0.066-0.027,0.146-0.09,0.239-0.19c0.093-0.099,0.167-0.182,0.22-0.249c0.053-0.066,0.086-0.15,0.1-0.248
		c0.014-0.102,0.033-0.203,0.061-0.31c0.012-0.08,0.025-0.156,0.039-0.231c0.014-0.072,0.027-0.142,0.04-0.208
		c0.026-0.16,0.04-0.329,0.04-0.51C83.14,19.521,83.154,19.345,83.179,19.172z M80.706,14.383c0.106-0.027,0.223-0.017,0.349,0.03
		c0.127,0.046,0.177,0.122,0.15,0.229c-0.014,0.067-0.077,0.117-0.189,0.149c-0.113,0.033-0.203,0.037-0.27,0.011
		c-0.08-0.027-0.14-0.097-0.18-0.21S80.572,14.409,80.706,14.383z M82.501,14.662c0.04,0,0.073,0.017,0.1,0.05
		c0.027,0.033,0.053,0.063,0.08,0.09c0.04,0.053,0.086,0.13,0.14,0.229c0.053,0.102,0.093,0.203,0.12,0.31
		c0.026,0.106,0.039,0.216,0.039,0.329c0,0.114-0.026,0.217-0.079,0.31c-0.134,0.04-0.253,0.027-0.359-0.039
		c-0.08-0.107-0.113-0.243-0.1-0.409c0.013-0.166-0.014-0.303-0.08-0.41c-0.066-0.119-0.169-0.179-0.31-0.179
		c-0.14,0-0.263-0.04-0.369-0.12c0.014-0.053,0.01-0.109-0.01-0.169c-0.02-0.061-0.004-0.104,0.051-0.13
		c0.146,0.026,0.285,0.05,0.418,0.069C82.275,14.612,82.395,14.635,82.501,14.662z M84.697,24.161c0.066-0.054,0.18-0.093,0.34-0.12
		c0.158-0.027,0.266,0.014,0.318,0.12c0.026,0.026,0.04,0.069,0.04,0.129c0,0.061-0.021,0.123-0.06,0.189
		c-0.04,0.067-0.137,0.11-0.289,0.13c-0.154,0.021-0.277,0.03-0.369,0.03c-0.107-0.026-0.15-0.1-0.131-0.22
		C84.567,24.301,84.617,24.213,84.697,24.161z M88.249,21.067c0.066,0.253,0.03,0.469-0.109,0.649
		c-0.14,0.179-0.263,0.322-0.369,0.429c0.026,0.187,0,0.33-0.08,0.428c-0.08,0.102-0.167,0.198-0.259,0.291
		c-0.067,0.013-0.157,0.047-0.27,0.099c-0.113,0.054-0.197,0.113-0.25,0.18c-0.119,0.133-0.227,0.283-0.319,0.45
		c-0.093,0.166-0.213,0.302-0.359,0.408c-0.079,0.013-0.173,0.033-0.279,0.06s-0.206,0.026-0.299,0
		c-0.027-0.013-0.073-0.056-0.14-0.13c-0.066-0.073-0.094-0.122-0.08-0.149c0-0.053,0.026-0.093,0.08-0.119
		c0.053-0.027,0.086-0.073,0.1-0.14c0.066-0.027,0.133-0.044,0.199-0.05c0.066-0.007,0.133-0.03,0.2-0.07
		c0.172-0.159,0.31-0.256,0.409-0.289s0.189-0.09,0.27-0.17c0.065-0.079,0.133-0.156,0.199-0.229s0.133-0.143,0.199-0.209
		c0.106-0.106,0.203-0.203,0.289-0.291c0.087-0.085,0.176-0.182,0.27-0.288c0.066-0.093,0.127-0.19,0.18-0.289
		c0.053-0.101,0.113-0.203,0.18-0.31c0.027-0.053,0.043-0.104,0.051-0.15c0.006-0.046,0.022-0.082,0.049-0.109H88.249z
		 M86.652,15.161c0.027-0.147-0.017-0.26-0.129-0.34c-0.113-0.079-0.217-0.166-0.31-0.26c-0.093,0.041-0.14,0.097-0.14,0.171
		c0,0.073,0.029,0.142,0.09,0.209s0.133,0.123,0.219,0.169C86.469,15.157,86.559,15.174,86.652,15.161z M86.972,16.937
		c0.039,0.054,0.053,0.119,0.039,0.199c-0.013,0.08,0.007,0.134,0.061,0.16c0.026-0.106,0.076-0.193,0.149-0.259
		c0.073-0.067,0.122-0.153,0.149-0.261c0.026-0.065,0.026-0.14,0-0.219c-0.027-0.08-0.047-0.159-0.06-0.239
		c-0.067-0.253-0.147-0.419-0.239-0.499c-0.066,0.199-0.097,0.39-0.09,0.568C86.988,16.568,86.984,16.75,86.972,16.937z
		 M88.947,15.399c0.027,0.094,0.061,0.197,0.1,0.31c0.041,0.113,0.041,0.223,0,0.33c-0.026,0.079-0.059,0.156-0.1,0.229
		c-0.039,0.074-0.1,0.123-0.18,0.15c-0.119-0.452-0.259-0.834-0.418-1.147c-0.16-0.313-0.32-0.629-0.479-0.948
		c0.066-0.079,0.136-0.103,0.21-0.069c0.072,0.033,0.143,0.083,0.209,0.149c0.08,0.08,0.143,0.156,0.189,0.229
		s0.104,0.157,0.17,0.25c0.026,0.052,0.057,0.096,0.09,0.129s0.063,0.076,0.09,0.13c0.026,0.026,0.046,0.067,0.061,0.119
		C88.9,15.313,88.92,15.36,88.947,15.399z"/>
	<path fill="#545454" d="M90.503,16.497c-0.146,0-0.246-0.026-0.299-0.079c0-0.187-0.018-0.359-0.05-0.519
		c-0.034-0.16-0.044-0.313-0.03-0.459c0.026-0.16,0.033-0.263,0.02-0.309c-0.013-0.047-0.02-0.104-0.02-0.17
		c0-0.067,0.007-0.121,0.02-0.16c0.014-0.04,0.014-0.087,0-0.14c0-0.054-0.006-0.097-0.02-0.13s-0.02-0.07-0.02-0.11
		c-0.014-0.066-0.008-0.14,0.02-0.219c0.026-0.08,0.04-0.152,0.04-0.22c0.026-0.053,0.069-0.1,0.13-0.14
		c0.06-0.04,0.116-0.026,0.17,0.04c0,0.12,0.003,0.239,0.01,0.359c0.006,0.119,0.017,0.252,0.029,0.398c0,0.12,0,0.232,0,0.339
		s0.02,0.2,0.061,0.279c0.133,0.201,0.192,0.373,0.18,0.52c-0.014,0.146-0.034,0.272-0.061,0.379
		c-0.027,0.08-0.047,0.147-0.06,0.199C90.61,16.411,90.57,16.458,90.503,16.497z M90.943,23.442c0,0.199,0.04,0.359,0.119,0.479
		c0.08,0.12,0.177,0.22,0.289,0.3c0.113,0.08,0.236,0.148,0.37,0.21c0.133,0.06,0.253,0.129,0.358,0.209
		c0,0.053,0.008,0.1,0.021,0.14s0.007,0.073-0.021,0.1c-0.159,0.067-0.318,0.08-0.479,0.04c-0.187-0.106-0.359-0.216-0.519-0.329
		s-0.286-0.263-0.38-0.449c-0.079-0.146-0.123-0.335-0.129-0.569c-0.007-0.232,0.003-0.441,0.029-0.628
		c0.16,0.014,0.24,0.083,0.24,0.21C90.843,23.279,90.876,23.376,90.943,23.442z M102.697,23.742
		c-0.066,0.026-0.123,0.063-0.17,0.109c-0.047,0.047-0.104,0.082-0.17,0.11c-0.094,0.026-0.195,0.032-0.309,0.019
		c-0.113-0.013-0.23-0.013-0.35,0c-0.119,0-0.229,0.014-0.329,0.041c-0.1,0.026-0.203,0.02-0.31-0.021
		c-0.039-0.013-0.073-0.037-0.1-0.07c-0.027-0.032-0.061-0.057-0.1-0.069c-0.187-0.067-0.319-0.106-0.399-0.119
		c-0.08-0.014-0.173-0.008-0.279,0.02c-0.04,0.013-0.077,0.032-0.11,0.06s-0.082,0.053-0.148,0.08c-0.08,0.027-0.157,0.04-0.23,0.04
		c-0.072,0-0.146-0.008-0.219-0.021c-0.074-0.013-0.15-0.02-0.23-0.02c-0.079,0-0.159,0.02-0.238,0.061
		c-0.174-0.067-0.38-0.107-0.619-0.121c-0.24-0.013-0.412,0.061-0.52,0.22c-0.105,0.026-0.223,0.033-0.349,0.021
		s-0.249-0.021-0.369-0.021c-0.04,0-0.08,0.008-0.12,0.021c-0.039,0.013-0.072,0.021-0.1,0.021c-0.119-0.028-0.206-0.037-0.259-0.03
		c-0.054,0.006-0.107,0.01-0.16,0.01c-0.213-0.026-0.372-0.033-0.479-0.021c-0.105,0.013-0.199,0.008-0.279-0.02
		c-0.066-0.014-0.119-0.044-0.159-0.09c-0.04-0.047-0.087-0.094-0.14-0.141c-0.053-0.046-0.109-0.082-0.17-0.109
		c-0.06-0.026-0.129-0.026-0.209,0c-0.04,0.014-0.09,0.044-0.15,0.091c-0.059,0.046-0.109,0.082-0.148,0.109
		c-0.027,0.053-0.047,0.096-0.061,0.13c-0.014,0.033-0.047,0.063-0.1,0.089c-0.066,0.028-0.137,0.037-0.21,0.03
		c-0.073-0.006-0.143-0.002-0.21,0.011c-0.172,0.013-0.326,0.033-0.458,0.06c-0.134,0.026-0.272,0.021-0.419-0.021
		c-0.08,0.041-0.163,0.043-0.25,0.011c-0.086-0.033-0.163-0.017-0.229,0.049c-0.079-0.013-0.169-0.026-0.27-0.039
		c-0.1-0.013-0.188,0-0.269,0.039c-0.067-0.026-0.121-0.06-0.16-0.099c-0.04-0.041-0.08-0.088-0.119-0.14
		c-0.027-0.027-0.061-0.051-0.101-0.07c-0.04-0.021-0.073-0.043-0.1-0.069c-0.026-0.027-0.047-0.063-0.06-0.11
		c-0.014-0.046-0.047-0.076-0.1-0.09c0.013-0.093-0.018-0.169-0.09-0.229c-0.074-0.06-0.123-0.137-0.15-0.229
		c-0.053-0.12-0.083-0.303-0.09-0.548c-0.006-0.246-0.01-0.463-0.01-0.649c-0.014-0.252-0.02-0.522-0.02-0.809s0-0.562,0-0.828
		c0-0.106-0.01-0.216-0.03-0.329s-0.03-0.223-0.03-0.329c0-0.08,0.007-0.15,0.021-0.209c0.013-0.061,0.013-0.117,0-0.17
		c0-0.04-0.007-0.08-0.021-0.12c-0.014-0.039-0.02-0.072-0.02-0.1c0-0.12,0.043-0.23,0.129-0.328c0.087-0.102,0.11-0.25,0.07-0.45
		c-0.014-0.093-0.06-0.167-0.14-0.22c-0.079-0.053-0.133-0.126-0.159-0.219c-0.027-0.094-0.03-0.213-0.01-0.359
		c0.02-0.146,0.029-0.272,0.029-0.379c-0.014-0.067-0.023-0.121-0.029-0.16c-0.008-0.039-0.01-0.08-0.01-0.119
		c0-0.147,0.025-0.261,0.079-0.34c0.053-0.08,0.12-0.187,0.2-0.319c0.013-0.267-0.033-0.531-0.141-0.798
		c-0.026-0.054-0.053-0.101-0.079-0.14c-0.027-0.041-0.047-0.08-0.06-0.12c-0.027-0.094-0.041-0.192-0.041-0.299
		c0-0.107,0-0.22,0-0.34c0-0.227-0.013-0.472-0.039-0.738c-0.027-0.266,0.013-0.498,0.119-0.698c0.106-0.107,0.24-0.192,0.399-0.26
		c0.159-0.066,0.319-0.127,0.479-0.18c0.066,0.04,0.158,0.053,0.279,0.04c0.119-0.013,0.232-0.02,0.339-0.02
		c0.292,0.013,0.528,0.007,0.708-0.021c0.18-0.026,0.355-0.032,0.529-0.02c0.106,0.013,0.206,0.011,0.299-0.011
		c0.094-0.019,0.187-0.029,0.279-0.029c0.066,0,0.133,0.003,0.2,0.011c0.065,0.006,0.14,0.009,0.22,0.009
		c0.199-0.026,0.396-0.039,0.588-0.039c0.193,0,0.389-0.008,0.59-0.021c0.079,0.027,0.155,0.063,0.229,0.109
		c0.073,0.047,0.123,0.137,0.15,0.271c0.013,0.065,0.013,0.128,0,0.189c-0.014,0.06-0.021,0.116-0.021,0.17
		c0.013,0.065,0.022,0.14,0.03,0.219c0.006,0.079,0.01,0.172,0.01,0.279c0,0.04-0.004,0.08-0.01,0.12
		c-0.008,0.039-0.01,0.086-0.01,0.14c-0.014,0.106-0.014,0.223,0,0.35c0.013,0.126,0.025,0.249,0.039,0.368
		c0.014,0.16,0.017,0.32,0.01,0.479c-0.006,0.16,0.011,0.313,0.051,0.46c0.039,0.159,0.056,0.259,0.049,0.299
		c-0.006,0.04-0.01,0.08-0.01,0.12c0,0.187,0,0.366,0,0.539s0.007,0.347,0.021,0.519c0.013,0.146,0.02,0.256,0.02,0.329
		s0.003,0.15,0.011,0.229c0.006,0.08,0.01,0.16,0.01,0.239c0,0.08-0.021,0.153-0.061,0.22c-0.026,0.066-0.06,0.116-0.1,0.15
		c-0.039,0.033-0.073,0.076-0.1,0.129c-0.04,0.079-0.07,0.189-0.09,0.328c-0.02,0.141-0.017,0.265,0.01,0.371
		c0.027,0.066,0.061,0.132,0.1,0.199c0.041,0.066,0.073,0.133,0.101,0.199c0.026,0.106,0.04,0.203,0.04,0.29
		c0,0.086,0.006,0.176,0.02,0.269c0.026,0.2,0.063,0.399,0.109,0.599s0.07,0.433,0.07,0.698c0.066,0.054,0.152,0.101,0.26,0.141
		c0.093-0.027,0.186-0.047,0.279-0.061c0.092-0.013,0.192-0.026,0.299-0.04c0.04,0,0.08,0.007,0.119,0.021
		c0.041,0.013,0.074,0.013,0.1,0c0.121-0.04,0.193-0.053,0.221-0.04c0.026,0.013,0.053,0.02,0.08,0.02
		c0.146,0,0.285-0.009,0.418-0.03c0.133-0.019,0.26-0.029,0.38-0.029s0.199,0.011,0.239,0.029c0.04,0.021,0.086,0.037,0.14,0.051
		c0.026,0.026,0.063,0.043,0.11,0.05c0.046,0.007,0.082,0.017,0.109,0.03c0.026,0.026,0.057,0.056,0.09,0.09
		c0.033,0.033,0.07,0.056,0.109,0.069c0.066,0.027,0.133,0.053,0.199,0.08c0.066,0.026,0.146,0.026,0.24,0
		c0.066-0.014,0.136-0.044,0.209-0.091c0.073-0.046,0.15-0.082,0.229-0.109c0.067-0.026,0.12-0.036,0.16-0.029
		c0.04,0.006,0.073-0.018,0.1-0.07c0.2-0.013,0.405-0.03,0.618-0.049c0.213-0.021,0.412-0.018,0.6,0.009
		c0.172,0.04,0.285,0.05,0.339,0.03c0.053-0.021,0.1-0.03,0.14-0.03c0.093,0.027,0.166,0.087,0.219,0.18
		c0.054,0.093,0.101,0.173,0.141,0.239c-0.027,0.134-0.033,0.257-0.02,0.369c0.012,0.113,0.032,0.23,0.059,0.35
		c0.027,0.119,0.051,0.24,0.07,0.359s0.017,0.246-0.01,0.379c-0.04,0.067-0.09,0.123-0.15,0.169
		C102.767,23.578,102.723,23.649,102.697,23.742z M91.941,13.544c-0.067,0.134-0.077,0.263-0.03,0.39
		c0.046,0.126,0.069,0.263,0.069,0.409c0.08,0.079,0.11,0.136,0.09,0.169c-0.02,0.034-0.029,0.083-0.029,0.15
		c0.013,0.066,0.047,0.127,0.1,0.179c0.053,0.054,0.113,0.088,0.18,0.101c0.066-0.054,0.086-0.117,0.061-0.19
		c-0.027-0.072-0.047-0.143-0.061-0.209s-0.01-0.173,0.01-0.319c0.021-0.146,0.051-0.232,0.09-0.26
		c0.026-0.026,0.061-0.039,0.1-0.039c0.041,0,0.08-0.013,0.12-0.04c0.106-0.053,0.166-0.137,0.18-0.25
		c0.013-0.112-0.026-0.217-0.12-0.31c-0.253,0.028-0.426,0.044-0.52,0.051C92.087,13.382,92.007,13.438,91.941,13.544z
		 M93.198,23.322c0.106-0.04,0.18-0.106,0.22-0.199s0.026-0.18-0.04-0.259c-0.04-0.054-0.097-0.088-0.169-0.101
		c-0.074-0.013-0.15-0.023-0.23-0.03c-0.08-0.006-0.152-0.02-0.219-0.039c-0.067-0.02-0.107-0.063-0.12-0.13
		c-0.014-0.04-0.01-0.08,0.01-0.119c0.021-0.041,0.036-0.08,0.05-0.121c0-0.106-0.02-0.208-0.06-0.31
		c-0.04-0.099-0.113-0.136-0.22-0.109c-0.08,0.014-0.137,0.073-0.17,0.181c-0.033,0.106-0.057,0.191-0.07,0.259
		c-0.025,0.106-0.039,0.187-0.039,0.24c-0.014,0.026-0.027,0.065-0.04,0.119c-0.013,0.053-0.021,0.093-0.021,0.119
		c0.014,0.08,0.063,0.173,0.15,0.279c0.086,0.107,0.162,0.173,0.229,0.2c0.106,0.026,0.226,0.04,0.359,0.04
		C92.952,23.343,93.078,23.336,93.198,23.322z M92.779,21.207c0.014-0.066-0.007-0.133-0.061-0.199
		c-0.053-0.066-0.093-0.133-0.119-0.2c-0.066,0-0.119,0.008-0.16,0.021c-0.039,0.013-0.093,0.026-0.159,0.04
		c-0.054,0.066-0.077,0.149-0.069,0.25c0.006,0.099,0.043,0.176,0.109,0.229c0.093,0.027,0.186,0.03,0.279,0.011
		C92.692,21.337,92.751,21.287,92.779,21.207z M94.275,13.963c0.106,0,0.16-0.068,0.16-0.209c0-0.139-0.04-0.243-0.119-0.309
		c-0.08-0.028-0.16-0.047-0.24-0.061s-0.173-0.007-0.279,0.02c-0.04,0.013-0.094,0.041-0.16,0.08
		c-0.066,0.04-0.106,0.072-0.119,0.101c-0.053,0.132-0.029,0.235,0.07,0.31c0.1,0.072,0.202,0.109,0.309,0.109
		c0.066-0.014,0.137-0.024,0.21-0.03C94.178,13.967,94.236,13.963,94.275,13.963z M96.71,12.327c0-0.026-0.027-0.051-0.08-0.069
		c-0.054-0.021-0.107-0.04-0.16-0.062c-0.053-0.019-0.104-0.046-0.149-0.079c-0.047-0.033-0.069-0.069-0.069-0.109
		s0.025-0.066,0.079-0.08c0.054-0.013,0.093-0.02,0.12-0.02c0.105-0.013,0.209,0.004,0.309,0.05c0.1,0.047,0.19,0.082,0.27,0.109
		c0.107,0.066,0.189,0.203,0.25,0.409c0.06,0.206,0.082,0.396,0.07,0.568c0,0.054-0.011,0.113-0.03,0.181
		c-0.021,0.065-0.03,0.14-0.03,0.22c0,0.065,0,0.136,0,0.209s0.014,0.13,0.04,0.169c0.053,0.107,0.112,0.21,0.179,0.311
		c0.067,0.099,0.061,0.209-0.02,0.328c-0.093,0.054-0.196,0.063-0.309,0.031c-0.113-0.034-0.177-0.104-0.189-0.211
		c-0.014-0.053-0.014-0.108,0-0.169c0.013-0.06,0.02-0.123,0.02-0.189c0-0.147-0.02-0.307-0.06-0.479
		c-0.04-0.173-0.061-0.333-0.061-0.479s-0.017-0.27-0.05-0.37C96.806,12.497,96.763,12.407,96.71,12.327z M97.408,19.99
		c0.054,0.106,0.11,0.192,0.17,0.259c0.061,0.067,0.123,0.134,0.189,0.199c0.053-0.013,0.104-0.009,0.15,0.011s0.103,0.03,0.17,0.03
		c0.066,0.013,0.133,0.017,0.199,0.009c0.066-0.005,0.112,0.024,0.14,0.09c-0.014,0.067-0.017,0.108-0.011,0.121
		c0.007,0.013-0.01,0.052-0.049,0.119c-0.041,0.026-0.077,0.054-0.11,0.08s-0.069,0.047-0.11,0.06
		c-0.158-0.026-0.275-0.023-0.349,0.01s-0.149,0.044-0.229,0.03c-0.094-0.014-0.187-0.036-0.279-0.07
		c-0.094-0.033-0.16-0.083-0.199-0.149c-0.04-0.066-0.057-0.13-0.051-0.188c0.007-0.061,0.011-0.144,0.011-0.25
		c0.013-0.173-0.011-0.33-0.069-0.469c-0.061-0.141-0.077-0.303-0.051-0.489c0.066-0.08,0.143-0.104,0.23-0.07
		c0.086,0.033,0.143,0.083,0.169,0.15c0.026,0.066,0.04,0.148,0.04,0.249C97.369,19.82,97.381,19.91,97.408,19.99z M103.773,23.742
		c0.055,0.345-0.02,0.602-0.219,0.768s-0.44,0.249-0.718,0.249c-0.093,0-0.177-0.013-0.249-0.039
		c-0.074-0.027-0.157-0.033-0.25-0.021c0-0.146,0.051-0.22,0.15-0.22s0.162-0.033,0.189-0.099c0.199,0.013,0.342-0.044,0.429-0.17
		s0.169-0.249,0.25-0.37c0.025-0.106,0.025-0.223,0-0.349c-0.027-0.126-0.014-0.229,0.039-0.31c0.055-0.08,0.107-0.106,0.16-0.08
		c0.053,0.027,0.1,0.077,0.141,0.149c0.039,0.074,0.066,0.16,0.078,0.261C103.787,23.611,103.787,23.688,103.773,23.742z"/>
	<path fill="#545454" d="M103.895,13.265c0.066-0.013,0.119-0.02,0.158-0.02c0.041,0,0.074,0.032,0.102,0.1
		c0.012,0.212,0.02,0.423,0.02,0.629s-0.047,0.389-0.141,0.549c-0.213-0.027-0.305-0.104-0.279-0.229
		c0.027-0.127,0.033-0.242,0.02-0.35c-0.092-0.079-0.115-0.192-0.068-0.34C103.75,13.458,103.814,13.345,103.895,13.265z
		 M105.291,11.409c-0.039,0.013-0.08,0.017-0.119,0.01c-0.041-0.006-0.074-0.003-0.1,0.011c-0.107,0.026-0.221,0.089-0.34,0.188
		s-0.199,0.21-0.24,0.329c-0.053,0.173-0.086,0.347-0.1,0.52s-0.092,0.313-0.238,0.419c-0.094-0.133-0.16-0.279-0.201-0.439
		c-0.039-0.159-0.02-0.292,0.061-0.398c0.027-0.054,0.063-0.087,0.109-0.101c0.047-0.013,0.09-0.032,0.131-0.06
		c0.053-0.16,0.066-0.326,0.039-0.499c-0.039-0.026-0.086-0.039-0.139-0.039c-0.055,0-0.094-0.021-0.121-0.06
		c0.027-0.147,0.117-0.229,0.27-0.25c0.152-0.02,0.303-0.017,0.449,0.01c0.186-0.067,0.4-0.09,0.639-0.069
		c0.24,0.019,0.445,0.063,0.619,0.129c0.133-0.026,0.26-0.02,0.379,0.021s0.252,0.047,0.398,0.02c0.041,0,0.076-0.01,0.109-0.03
		c0.033-0.019,0.078-0.036,0.131-0.049c0.16-0.054,0.318-0.014,0.479,0.119c-0.039,0.08-0.119,0.133-0.24,0.16
		c-0.092,0.026-0.195,0.043-0.309,0.05c-0.113,0.006-0.217,0.017-0.309,0.03c-0.146,0.039-0.24,0.052-0.279,0.039
		c-0.041-0.013-0.074-0.026-0.1-0.039c-0.041-0.014-0.078-0.014-0.111,0c-0.033,0.013-0.068,0.013-0.109,0
		c-0.08-0.014-0.166-0.03-0.26-0.05c-0.092-0.021-0.191-0.024-0.299-0.011L105.291,11.409z M116.566,22.146
		c0.025,0.146,0.006,0.263-0.061,0.348c-0.066,0.088-0.1,0.185-0.1,0.291c0,0.093,0.037,0.187,0.109,0.279
		c0.074,0.093,0.104,0.192,0.09,0.299c-0.027,0.08-0.104,0.167-0.229,0.26c-0.127,0.093-0.223,0.159-0.289,0.199
		c-0.027,0.027-0.059,0.057-0.09,0.091c-0.033,0.033-0.064,0.05-0.09,0.05c-0.066,0.013-0.135,0.009-0.199-0.011
		c-0.068-0.021-0.135-0.036-0.201-0.05c-0.227,0-0.465-0.007-0.719-0.02c-0.252-0.014-0.498-0.021-0.738-0.021
		c-0.053,0-0.1,0.004-0.139,0.01c-0.039,0.007-0.086,0.011-0.141,0.011c-0.053,0-0.105-0.004-0.158-0.011
		c-0.055-0.006-0.113-0.01-0.18-0.01c-0.146,0-0.297,0.007-0.449,0.021c-0.154,0.013-0.303,0.006-0.449-0.021
		c-0.066-0.04-0.143-0.097-0.23-0.17c-0.086-0.073-0.182-0.097-0.289-0.069c-0.053,0.013-0.1,0.036-0.139,0.069
		c-0.041,0.034-0.088,0.057-0.141,0.07c-0.066,0.013-0.148,0.003-0.248-0.031c-0.102-0.032-0.203-0.049-0.311-0.049h-0.219
		c-0.068-0.013-0.133-0.036-0.199-0.07c-0.068-0.033-0.141-0.05-0.221-0.05c-0.146-0.026-0.285-0.02-0.418,0.021
		c-0.041,0-0.084,0.013-0.131,0.04s-0.09,0.04-0.129,0.04c-0.027,0.013-0.066,0.01-0.121-0.011
		c-0.053-0.019-0.105-0.036-0.158-0.049c-0.107-0.027-0.207-0.037-0.301-0.031c-0.092,0.007-0.178,0.004-0.258-0.01
		c-0.107-0.026-0.197-0.072-0.27-0.14c-0.074-0.066-0.15-0.126-0.23-0.179c-0.186-0.12-0.369-0.13-0.549-0.031
		c-0.18,0.102-0.322,0.203-0.43,0.311c-0.225-0.04-0.484-0.04-0.777,0c-0.293,0.039-0.566,0.013-0.818-0.08
		c-0.119-0.013-0.236-0.021-0.35-0.021s-0.223-0.013-0.328-0.039c-0.107-0.027-0.221-0.107-0.34-0.24s-0.193-0.252-0.219-0.358
		c-0.014-0.041-0.014-0.088,0-0.14c0.012-0.054,0.012-0.106,0-0.16c-0.014-0.067-0.027-0.123-0.041-0.169
		c-0.014-0.047-0.02-0.098-0.02-0.15l0.119-0.239c0.041-0.08,0.074-0.152,0.102-0.22c0.025-0.066,0.064-0.133,0.119-0.199
		c-0.055-0.107-0.098-0.192-0.131-0.26c-0.033-0.066-0.076-0.146-0.129-0.239c-0.053-0.066-0.094-0.112-0.119-0.14
		c-0.027-0.027-0.041-0.087-0.041-0.18c0-0.106,0.014-0.212,0.041-0.319c0.025-0.107,0.053-0.213,0.08-0.319
		c0.025-0.106,0.041-0.223,0.049-0.35c0.006-0.126,0.016-0.242,0.029-0.349c0.014-0.12,0.023-0.239,0.031-0.359
		c0.006-0.12,0.023-0.232,0.049-0.34c0.027-0.065,0.057-0.123,0.09-0.169c0.033-0.047,0.051-0.103,0.051-0.17
		c0-0.08-0.023-0.152-0.07-0.22c-0.047-0.066-0.07-0.146-0.07-0.239c-0.014-0.093-0.01-0.195,0.01-0.31
		c0.02-0.113,0.031-0.223,0.031-0.329c0-0.052-0.004-0.099-0.012-0.14c-0.006-0.039-0.008-0.072-0.008-0.099
		c0.025-0.08,0.064-0.151,0.119-0.21c0.053-0.061,0.1-0.137,0.139-0.229c0.094-0.187,0.143-0.383,0.15-0.59
		c0.006-0.205-0.037-0.396-0.129-0.567c-0.027-0.054-0.068-0.101-0.121-0.14c-0.053-0.041-0.094-0.093-0.119-0.16
		c-0.027-0.067-0.031-0.144-0.01-0.229c0.02-0.088,0.035-0.184,0.049-0.291c0.014-0.132,0.018-0.269,0.01-0.409
		c-0.006-0.139-0.002-0.262,0.012-0.368c0.039-0.279,0.053-0.507,0.039-0.679c-0.014-0.173,0.006-0.332,0.061-0.479
		c0.025-0.119,0.072-0.219,0.139-0.299s0.141-0.166,0.221-0.26c0.199-0.106,0.414-0.163,0.648-0.169
		c0.232-0.007,0.469,0.002,0.707,0.029c0.121,0.014,0.273,0.03,0.459,0.05c0.188,0.02,0.346,0.03,0.479,0.03c0.068,0,0.146,0,0.24,0
		s0.193,0.014,0.299,0.04c0.066,0.026,0.121,0.067,0.16,0.119c0.041,0.054,0.094,0.093,0.16,0.12
		c0.039,0.027,0.086,0.05,0.139,0.069c0.055,0.021,0.094,0.037,0.121,0.051c0.225,0.039,0.412,0.003,0.559-0.109
		c0.146-0.114,0.313-0.183,0.498-0.211c0.107,0.041,0.217,0.058,0.33,0.051c0.111-0.007,0.223-0.004,0.328,0.01
		c0.133,0.014,0.256,0.033,0.369,0.06c0.113,0.027,0.23,0.04,0.35,0.04h0.52c0.119,0,0.213,0.007,0.279,0.021
		c0.039,0,0.086-0.008,0.141-0.021c0.053-0.013,0.1-0.013,0.139,0c0.16,0.093,0.271,0.133,0.34,0.12
		c0.066-0.014,0.139-0.007,0.219,0.02c0.039-0.026,0.072-0.06,0.1-0.1s0.061-0.066,0.1-0.08c0.066-0.026,0.143-0.032,0.23-0.02
		c0.086,0.013,0.162,0.02,0.229,0.02c0.359,0,0.732,0.014,1.117,0.04c0.387,0.027,0.752,0.04,1.098,0.04
		c0.066,0.04,0.133,0.073,0.201,0.1c0.064,0.027,0.111,0.08,0.139,0.16c0.027,0.119,0.027,0.246,0,0.379s-0.074,0.232-0.139,0.3
		c-0.055,0.173-0.031,0.313,0.068,0.419s0.17,0.212,0.209,0.318c0.027,0.228,0.051,0.38,0.07,0.459c0.021,0.08-0.002,0.16-0.07,0.24
		c-0.066,0-0.129,0.017-0.189,0.05c-0.059,0.033-0.123,0.05-0.189,0.05c-0.078,0.013-0.162,0.011-0.248-0.011
		c-0.088-0.019-0.178-0.029-0.27-0.029c-0.268-0.013-0.566-0.029-0.898-0.051c-0.332-0.019-0.633-0.029-0.898-0.029
		c-0.199-0.013-0.402-0.013-0.607,0c-0.207,0.014-0.383,0.008-0.529-0.02c-0.041-0.014-0.084-0.036-0.131-0.07
		c-0.047-0.033-0.088-0.057-0.129-0.069c-0.094-0.027-0.18-0.014-0.26,0.04c-0.08,0.053-0.16,0.047-0.238-0.021
		c-0.188,0.027-0.387,0.03-0.6,0.01c-0.213-0.019-0.406-0.003-0.578,0.05c-0.066,0.08-0.104,0.189-0.111,0.33
		c-0.006,0.139-0.023,0.275-0.049,0.409c-0.053,0.16-0.076,0.255-0.07,0.288c0.008,0.034-0.004,0.063-0.029,0.091
		c-0.027,0.066-0.063,0.116-0.109,0.149c-0.047,0.034-0.078,0.083-0.09,0.149c0,0.093,0.035,0.153,0.109,0.18
		c0.072,0.027,0.129,0.073,0.17,0.14c-0.027,0.107-0.033,0.224-0.02,0.351c0.012,0.126,0.059,0.202,0.139,0.229
		c0.199,0,0.342,0.004,0.43,0.01c0.086,0.007,0.162,0.011,0.229,0.011c0.094,0,0.207-0.004,0.34-0.011
		c0.133-0.006,0.232,0.017,0.299,0.07c0.027,0.026,0.051,0.063,0.07,0.109c0.02,0.047,0.057,0.09,0.109,0.13
		c0.027,0.014,0.074,0.032,0.141,0.061c0.066,0.026,0.125,0.032,0.18,0.019c0.066-0.013,0.125-0.043,0.18-0.09
		c0.053-0.046,0.111-0.083,0.18-0.109c0.066-0.026,0.143-0.036,0.229-0.029s0.176,0.003,0.27-0.01
		c0.186-0.013,0.318-0.012,0.398,0.01c0.08,0.02,0.16,0.037,0.24,0.05c0.066,0,0.137,0,0.209,0s0.143,0.006,0.211,0.021
		c0.172,0.039,0.365,0.063,0.578,0.068c0.213,0.008,0.406-0.003,0.578-0.029c0.119,0.026,0.23,0.063,0.33,0.109
		c0.1,0.047,0.17,0.117,0.209,0.21c0.025,0.053,0.053,0.149,0.08,0.29c0.025,0.139,0.025,0.256,0,0.349
		c-0.014,0.066-0.041,0.13-0.08,0.189c-0.039,0.061-0.061,0.123-0.061,0.189c-0.014,0.094-0.002,0.189,0.031,0.289
		c0.031,0.102,0.035,0.196,0.01,0.289c-0.014,0.054-0.041,0.094-0.08,0.121c-0.039,0.026-0.074,0.06-0.1,0.099
		c-0.119,0.054-0.287,0.063-0.5,0.03s-0.406-0.05-0.578-0.05h-0.26c-0.133,0-0.27,0.007-0.408,0.02
		c-0.141,0.014-0.277,0.027-0.41,0.041c-0.08,0-0.162-0.008-0.248-0.021c-0.088-0.013-0.17-0.021-0.25-0.021s-0.164,0.01-0.25,0.03
		c-0.086,0.02-0.162,0.023-0.229,0.011c-0.066-0.014-0.131-0.047-0.189-0.101c-0.061-0.053-0.125-0.08-0.189-0.08
		c-0.055,0-0.1,0.014-0.141,0.041c-0.039,0.026-0.08,0.047-0.119,0.06c-0.254,0.066-0.523,0.083-0.809,0.049
		c-0.287-0.032-0.549-0.016-0.789,0.051c-0.119,0.292-0.189,0.592-0.209,0.897c-0.02,0.307-0.037,0.626-0.049,0.958
		c0.092,0.094,0.201,0.15,0.328,0.17c0.127,0.021,0.256,0.022,0.389,0.01s0.27-0.026,0.41-0.04c0.139-0.013,0.281-0.013,0.428,0
		c0.066,0,0.133,0.014,0.201,0.04c0.066,0.027,0.133,0.04,0.199,0.04c0.08,0.013,0.156,0.017,0.229,0.011
		c0.074-0.007,0.156-0.004,0.25,0.009c0.066,0,0.133,0.004,0.199,0.01c0.066,0.007,0.133,0.011,0.199,0.011
		c0.066,0.013,0.141,0.017,0.221,0.011c0.08-0.008,0.152-0.004,0.219,0.009c0.08,0.014,0.143,0.044,0.189,0.09
		c0.047,0.047,0.104,0.083,0.17,0.11c0.133,0.053,0.266,0.079,0.398,0.079c0.107,0,0.211-0.03,0.311-0.089
		c0.1-0.061,0.201-0.104,0.309-0.13c0.066,0,0.15,0.003,0.25,0.01s0.195,0.017,0.289,0.03c0.146,0.013,0.297,0.016,0.449,0.01
		c0.152-0.007,0.293,0.003,0.418,0.029c0.127,0.027,0.234,0.08,0.32,0.16S116.539,21.985,116.566,22.146z M105.91,22.604
		c0.08,0.014,0.182,0.03,0.309,0.05c0.127,0.021,0.246,0.03,0.359,0.03s0.213-0.017,0.299-0.05c0.088-0.033,0.131-0.103,0.131-0.209
		c-0.066-0.08-0.164-0.136-0.291-0.17c-0.125-0.033-0.248-0.043-0.367-0.029c-0.094-0.093-0.17-0.203-0.23-0.33
		c-0.061-0.126-0.084-0.27-0.07-0.429c-0.066-0.067-0.127-0.076-0.18-0.029c-0.053,0.046-0.092,0.089-0.119,0.129
		c-0.053,0.067-0.09,0.16-0.109,0.279c-0.02,0.12-0.043,0.232-0.07,0.339c-0.039,0.199-0.018,0.316,0.07,0.35
		C105.727,22.568,105.816,22.591,105.91,22.604z M105.969,20.668c0.027-0.106,0.037-0.216,0.031-0.329
		c-0.008-0.112-0.037-0.222-0.09-0.329c-0.107-0.013-0.184,0.027-0.23,0.12s-0.07,0.192-0.07,0.3c0,0.106,0.031,0.191,0.092,0.259
		C105.76,20.756,105.85,20.748,105.969,20.668z M105.99,13.025c0,0.133-0.01,0.223-0.031,0.27c-0.02,0.046-0.029,0.09-0.029,0.13
		c0,0.08-0.004,0.16-0.01,0.239c-0.008,0.079,0.002,0.146,0.029,0.2c0.146-0.041,0.217-0.084,0.209-0.13
		c-0.006-0.047-0.01-0.09-0.01-0.131c0.041-0.187,0.131-0.322,0.27-0.408c0.141-0.087,0.244-0.217,0.311-0.39
		c-0.107-0.133-0.246-0.172-0.42-0.119C106.137,12.739,106.029,12.853,105.99,13.025z M109.381,20.309
		c0.08,0,0.127-0.043,0.141-0.129c0.014-0.087,0.008-0.17-0.02-0.249c-0.053,0.013-0.107,0.032-0.16,0.06
		c-0.053,0.026-0.086,0.066-0.1,0.119c-0.014,0.054-0.004,0.101,0.029,0.14C109.305,20.29,109.342,20.309,109.381,20.309z
		 M110.041,18.732c0.025-0.039,0.053-0.072,0.08-0.099c0.025-0.028,0.02-0.074-0.021-0.141c-0.078-0.027-0.176-0.053-0.289-0.079
		c-0.113-0.027-0.195-0.008-0.25,0.06c-0.053,0.132-0.1,0.271-0.139,0.419c-0.041,0.146-0.072,0.292-0.1,0.439
		c0.186-0.067,0.332-0.164,0.439-0.29C109.867,18.915,109.961,18.813,110.041,18.732z M109.621,13.943
		c-0.027,0.04-0.047,0.093-0.061,0.159c-0.012,0.067-0.02,0.134-0.02,0.2s0.01,0.129,0.031,0.19c0.02,0.059,0.057,0.096,0.109,0.109
		c0.066,0.013,0.109-0.008,0.129-0.061s0.057-0.093,0.109-0.12c0.041-0.079,0.08-0.155,0.121-0.229
		c0.039-0.073,0.092-0.142,0.16-0.209c0.039-0.04,0.088-0.072,0.148-0.1s0.104-0.066,0.131-0.12c-0.174-0.013-0.316-0.039-0.43-0.08
		c-0.113-0.039-0.23,0-0.35,0.12L109.621,13.943z M111.059,14.962c0.105-0.028,0.252-0.044,0.439-0.051
		c0.186-0.007,0.313,0.037,0.379,0.13c-0.16,0.146-0.311,0.239-0.449,0.28c-0.141,0.039-0.242,0.111-0.311,0.219
		c-0.012,0.106-0.053,0.199-0.119,0.279c-0.119-0.053-0.186-0.123-0.199-0.209c-0.014-0.087-0.014-0.178,0-0.271
		s0.039-0.175,0.08-0.249C110.918,15.018,110.979,14.975,111.059,14.962z M112.016,15.221c-0.014-0.093,0.004-0.16,0.051-0.199
		c0.047-0.041,0.105-0.063,0.18-0.071c0.072-0.005,0.146,0.008,0.219,0.041s0.123,0.069,0.15,0.11
		c-0.027,0.106-0.113,0.169-0.26,0.188S112.096,15.288,112.016,15.221z M117.205,21.587c0.08,0.053,0.168,0.109,0.27,0.17
		c0.1,0.059,0.115,0.162,0.049,0.309c-0.16,0.119-0.27,0.119-0.328,0c-0.061-0.119-0.104-0.246-0.131-0.379
		c-0.027-0.146-0.109-0.253-0.248-0.319c-0.141-0.066-0.297-0.113-0.471-0.14c-0.092,0-0.182,0.011-0.27,0.029
		c-0.086,0.021-0.168,0.023-0.248,0.011c-0.188-0.054-0.316-0.08-0.391-0.08c-0.072,0-0.143-0.007-0.209-0.021
		c-0.039,0-0.1,0.004-0.18,0.01c-0.08,0.007-0.152,0.011-0.219,0.011s-0.123-0.013-0.17-0.04s-0.057-0.073-0.029-0.14
		c0.186-0.066,0.389-0.09,0.607-0.07c0.221,0.021,0.443,0.043,0.67,0.07c0.053,0.014,0.125,0.02,0.219,0.02
		c0.08-0.013,0.156-0.036,0.23-0.068c0.072-0.034,0.156-0.031,0.248,0.009c0.041-0.04,0.096-0.053,0.17-0.04
		c0.072,0.014,0.143,0.014,0.209,0c0.107,0.053,0.156,0.094,0.15,0.12c-0.008,0.026-0.004,0.06,0.01,0.1
		c0.053,0.173,0.072,0.279,0.061,0.319C117.191,21.507,117.191,21.547,117.205,21.587z M114.93,23.243
		c0.146,0.066,0.289,0.079,0.43,0.039c0.139-0.039,0.223-0.14,0.248-0.299c-0.199-0.133-0.361-0.163-0.488-0.09
		S114.93,23.083,114.93,23.243z M116.885,13.684c-0.027,0.054-0.068,0.084-0.129,0.091c-0.061,0.006-0.123,0.016-0.189,0.029
		c-0.053-0.079-0.094-0.155-0.121-0.229c-0.025-0.073-0.025-0.162,0-0.269c0.014-0.067,0.051-0.124,0.111-0.17
		c0.059-0.047,0.09-0.104,0.09-0.17c0.012-0.094-0.004-0.171-0.051-0.229c-0.047-0.061-0.07-0.137-0.07-0.229
		c0.227-0.08,0.363-0.053,0.41,0.08c0.045,0.132,0.063,0.252,0.049,0.359c0,0.039-0.006,0.082-0.02,0.128
		c-0.014,0.047-0.02,0.098-0.02,0.151c-0.014,0.093-0.02,0.179-0.02,0.259S116.912,13.632,116.885,13.684z M117.164,22.484
		c0.133,0.173,0.199,0.333,0.199,0.479c0,0.147-0.025,0.267-0.078,0.359c-0.227,0.067-0.32-0.066-0.281-0.398
		c0-0.054,0.021-0.137,0.061-0.249C117.105,22.561,117.137,22.497,117.164,22.484z"/>
</g>
</svg>
