<?xml version="1.0" encoding="utf-8"?>
<!-- Generator: Adobe Illustrator 16.0.0, SVG Export Plug-In . SVG Version: 6.00 Build 0)  -->
<!DOCTYPE svg PUBLIC "-//W3C//DTD SVG 1.1//EN" "http://www.w3.org/Graphics/SVG/1.1/DTD/svg11.dtd">
<svg version="1.1" id="图层_1" xmlns="http://www.w3.org/2000/svg" xmlns:xlink="http://www.w3.org/1999/xlink" x="0px" y="0px"
	 width="258px" height="36px" viewBox="0 0 258 36" enable-background="new 0 0 258 36" xml:space="preserve">
<g>
	<path fill="#545454" d="M21.635,19.493h-2.944v-1.706h4.65v5.866L21.124,26h-5.59l-2.218-2.347V12.347L15.534,10h5.59l2.218,2.347
		v2.688h-1.707v-1.813l-1.344-1.388h-3.904l-1.109,1.131v10.07l1.088,1.131h3.904l1.366-1.388V19.493z"/>
	<path fill="#545454" d="M26.542,12.134h8.533l2.219,2.347v4.267l-2.155,2.261l1.984,3.285h1.13V26h-3.797v-1.707h0.597l-1.92-3.2
		h-3.136v3.2h1.28V26h-4.736v-1.707h1.493V13.84h-1.493V12.134z M29.998,13.967v5.292h4.224L35.459,18v-2.772l-1.216-1.261H29.998z"
		/>
	<path fill="#545454" d="M48.92,26v-1.707h1.408l-0.917-2.646h-5.333l-0.917,2.646h1.429V26h-4.522v-1.707h1.131l3.605-10.453
		h-0.896v-1.706h5.696v1.706h-0.917l3.605,10.453h1.152V26H48.92z M46.745,13.903l-2.091,6.038h4.181L46.745,13.903z"/>
	<path fill="#545454" d="M55.47,12.134h9.087l2.219,2.347v9.173L64.557,26H55.47v-1.707h1.493V13.84H55.47V12.134z M58.925,24.166
		h4.779l1.109-1.131v-7.937l-1.088-1.132h-4.8V24.166z"/>
	<path fill="#545454" d="M78.04,12.134h4.736v1.706h-1.28v9.813L79.277,26h-5.803l-2.219-2.347V13.84h-1.28v-1.706h4.735v1.706
		h-1.493v9.195l1.087,1.131h4.118l1.109-1.131V13.84H78.04V12.134z"/>
	<path fill="#545454" d="M93.442,26v-1.707h1.408l-0.917-2.646H88.6l-0.918,2.646h1.43V26h-4.522v-1.707h1.131l3.605-10.453h-0.896
		v-1.706h5.696v1.706h-0.918l3.606,10.453h1.152V26H93.442z M91.267,13.903l-2.091,6.038h4.181L91.267,13.903z"/>
	<path fill="#545454" d="M106.733,26h-6.229v-1.707h2.133V13.84h-2.944v2.475h-1.622v-4.181h11.093v4.181h-1.621V13.84H104.6v10.453
		h2.133V26z"/>
	<path fill="#545454" d="M111.512,12.134h10.155v4.181h-1.707V13.84h-4.992v4.373h4.992v1.707h-4.992v4.373h4.992v-2.475h1.707V26
		h-10.155v-1.707h1.493V13.84h-1.493V12.134z"/>
</g>
</svg>
