<?xml version="1.0" encoding="utf-8"?>
<!-- Generator: Adobe Illustrator 16.0.0, SVG Export Plug-In . SVG Version: 6.00 Build 0)  -->
<!DOCTYPE svg PUBLIC "-//W3C//DTD SVG 1.1//EN" "http://www.w3.org/Graphics/SVG/1.1/DTD/svg11.dtd">
<svg version="1.1" id="图层_1" xmlns="http://www.w3.org/2000/svg" xmlns:xlink="http://www.w3.org/1999/xlink" x="0px" y="0px"
	 width="258px" height="36px" viewBox="0 0 258 36" enable-background="new 0 0 258 36" xml:space="preserve">
<g>
	<path fill="#545454" d="M20.263,20.787c-0.421,0.623-0.889,1.105-1.401,1.446c-0.512,0.34-1.073,0.51-1.683,0.51
		c-0.616,0-1.165-0.146-1.645-0.442c-0.48-0.295-0.884-0.714-1.211-1.255c-0.328-0.542-0.578-1.193-0.75-1.956
		c-0.172-0.762-0.258-1.611-0.258-2.545c0-0.662,0.068-1.339,0.205-2.033c0.136-0.693,0.336-1.367,0.598-2.02
		c0.264-0.65,0.583-1.268,0.959-1.849c0.376-0.58,0.804-1.086,1.285-1.518c0.48-0.432,1.009-0.773,1.586-1.026
		c0.577-0.252,1.197-0.38,1.858-0.38c0.357,0,0.691,0.057,1.002,0.171c0.312,0.112,0.579,0.277,0.802,0.491
		c0.224,0.214,0.401,0.474,0.531,0.778c0.129,0.305,0.194,0.648,0.194,1.031c0,0.363-0.062,0.714-0.185,1.051
		c-0.124,0.338-0.291,0.655-0.501,0.954c-0.211,0.298-0.456,0.571-0.734,0.817c-0.279,0.247-0.571,0.459-0.876,0.637
		c-0.305,0.179-0.616,0.316-0.934,0.414c-0.317,0.098-0.623,0.145-0.915,0.145c-0.24,0-0.446-0.075-0.618-0.228
		c-0.172-0.152-0.258-0.395-0.258-0.724c0-0.072,0.005-0.149,0.014-0.233c0.01-0.085,0.024-0.163,0.044-0.235
		c0.02-0.07,0.042-0.13,0.068-0.18c0.026-0.048,0.058-0.073,0.097-0.073c0.032,0,0.063,0.013,0.092,0.034
		c0.029,0.023,0.068,0.046,0.117,0.068c0.048,0.022,0.115,0.045,0.199,0.067c0.084,0.023,0.201,0.035,0.35,0.035
		c0.253,0,0.524-0.067,0.813-0.205c0.288-0.135,0.556-0.317,0.802-0.545c0.247-0.227,0.451-0.487,0.613-0.783
		c0.162-0.294,0.243-0.602,0.243-0.919c0-0.117-0.021-0.24-0.063-0.37c-0.043-0.13-0.111-0.249-0.205-0.359
		c-0.094-0.11-0.218-0.203-0.374-0.278C19.972,9.207,19.78,9.17,19.553,9.17c-0.415,0-0.817,0.101-1.207,0.302
		s-0.752,0.479-1.09,0.832s-0.647,0.767-0.929,1.24c-0.283,0.474-0.524,0.983-0.726,1.527c-0.201,0.545-0.357,1.114-0.467,1.704
		c-0.11,0.591-0.166,1.174-0.166,1.752c0,0.718,0.057,1.366,0.17,1.939c0.113,0.574,0.271,1.063,0.472,1.465
		c0.201,0.402,0.439,0.712,0.716,0.93c0.275,0.218,0.572,0.326,0.89,0.326c0.337,0,0.649-0.07,0.934-0.21
		c0.286-0.139,0.542-0.325,0.769-0.56c0.227-0.233,0.425-0.502,0.594-0.808c0.168-0.305,0.31-0.618,0.423-0.943
		c0.113-0.324,0.199-0.647,0.258-0.968c0.058-0.322,0.088-0.618,0.088-0.892c0-0.104-0.007-0.222-0.02-0.354
		c-0.012-0.134-0.019-0.235-0.019-0.307c0-0.097,0.018-0.172,0.054-0.224c0.035-0.052,0.083-0.09,0.141-0.117
		c0.059-0.025,0.126-0.042,0.205-0.049c0.078-0.006,0.159-0.009,0.243-0.009c0.091,0,0.194,0.019,0.311,0.058
		c0.117,0.038,0.229,0.093,0.336,0.161c0.107,0.067,0.198,0.147,0.272,0.238s0.112,0.192,0.112,0.301
		c-0.052,0.539-0.084,1.051-0.097,1.533c-0.013,0.484-0.02,0.975-0.02,1.475c0,0.467,0.003,0.953,0.01,1.46
		c0.007,0.505,0.01,1.063,0.01,1.673c0.188-0.032,0.371-0.056,0.549-0.068c0.179-0.014,0.349-0.026,0.512-0.039
		c0.233-0.014,0.384,0.061,0.453,0.219c0.067,0.159,0.078,0.339,0.028,0.541c-0.048,0.2-0.141,0.385-0.277,0.555
		c-0.137,0.169-0.292,0.256-0.467,0.263c-0.149,0-0.291,0.003-0.423,0.01s-0.271,0.015-0.414,0.028
		c-0.019,0.376-0.048,0.756-0.087,1.139s-0.102,0.754-0.189,1.114c-0.088,0.36-0.201,0.697-0.341,1.013
		c-0.14,0.314-0.313,0.588-0.521,0.821c-0.208,0.233-0.457,0.419-0.749,0.555C19.602,28.933,19.261,29,18.872,29
		c-0.337,0-0.644-0.06-0.919-0.18c-0.276-0.119-0.511-0.285-0.706-0.496s-0.344-0.459-0.448-0.744
		c-0.104-0.286-0.156-0.598-0.156-0.934c0-0.507,0.104-0.956,0.312-1.349c0.208-0.392,0.482-0.737,0.822-1.036
		c0.341-0.299,0.731-0.552,1.173-0.759c0.441-0.208,0.892-0.383,1.353-0.526v-0.194c0-0.428-0.007-0.807-0.02-1.139
		C20.27,21.314,20.263,21.028,20.263,20.787z M18.911,27.463c0.221,0,0.41-0.081,0.57-0.243c0.159-0.162,0.29-0.383,0.394-0.661
		c0.104-0.279,0.185-0.6,0.243-0.959c0.059-0.36,0.101-0.741,0.126-1.144c-0.662,0.208-1.169,0.493-1.522,0.856
		c-0.354,0.363-0.531,0.795-0.531,1.294c0,0.305,0.069,0.524,0.209,0.657C18.54,27.397,18.71,27.463,18.911,27.463z"/>
	<path fill="#545454" d="M27.804,22.5c-0.233,0-0.471-0.035-0.715-0.107c-0.243-0.07-0.464-0.193-0.662-0.368
		c-0.198-0.176-0.36-0.407-0.487-0.696c-0.126-0.289-0.189-0.654-0.189-1.095c0-0.643,0.086-1.321,0.258-2.039
		c0.172-0.717,0.42-1.506,0.744-2.368h-1.518h-0.224c-0.006,0.194-0.018,0.441-0.034,0.739c-0.017,0.299-0.043,0.616-0.083,0.952
		c-0.039,0.339-0.089,0.679-0.15,1.022c-0.062,0.344-0.138,0.662-0.229,0.953c-0.065,0.209-0.167,0.328-0.307,0.36
		c-0.14,0.033-0.277,0.008-0.413-0.072c-0.137-0.081-0.247-0.201-0.331-0.355c-0.084-0.156-0.104-0.317-0.058-0.486
		c0.052-0.2,0.097-0.446,0.136-0.735c0.039-0.288,0.07-0.594,0.093-0.914c0.022-0.321,0.041-0.642,0.054-0.964
		c0.013-0.32,0.022-0.607,0.029-0.86c-0.246-0.137-0.451-0.311-0.613-0.521c-0.162-0.21-0.243-0.462-0.243-0.753
		c0-0.137,0.027-0.262,0.082-0.375c0.056-0.113,0.128-0.211,0.219-0.293c0.091-0.08,0.198-0.142,0.321-0.184
		c0.123-0.043,0.25-0.064,0.379-0.064c0.117,0,0.239,0.017,0.365,0.05c0.126,0.032,0.246,0.09,0.36,0.174
		c0.113,0.085,0.216,0.195,0.306,0.332c0.091,0.136,0.166,0.305,0.224,0.505c0.163,0.021,0.3,0.035,0.414,0.044
		c0.113,0.011,0.209,0.02,0.287,0.024c0.078,0.008,0.143,0.011,0.195,0.011s0.104,0,0.156,0h1.042c0.058,0,0.144,0.035,0.258,0.106
		c0.113,0.072,0.225,0.163,0.335,0.277c0.111,0.113,0.203,0.235,0.278,0.365c0.074,0.13,0.102,0.252,0.083,0.369
		c0,0.039-0.022,0.134-0.068,0.283c-0.045,0.148-0.1,0.337-0.165,0.563c-0.065,0.228-0.136,0.489-0.214,0.783
		c-0.078,0.296-0.15,0.605-0.214,0.93c-0.065,0.324-0.12,0.66-0.166,1.008c-0.045,0.347-0.068,0.686-0.068,1.016
		c0,0.137,0.016,0.271,0.049,0.398c0.032,0.131,0.081,0.245,0.146,0.347c0.065,0.101,0.147,0.18,0.248,0.238
		s0.219,0.088,0.355,0.088c0.227,0,0.422-0.072,0.584-0.214c0.162-0.144,0.298-0.321,0.409-0.536c0.11-0.214,0.2-0.446,0.267-0.695
		c0.068-0.25,0.125-0.485,0.17-0.706c0.039-0.207,0.104-0.358,0.195-0.452s0.185-0.142,0.282-0.142c0.078,0,0.16,0.024,0.244,0.074
		c0.084,0.048,0.16,0.112,0.229,0.189c0.068,0.077,0.123,0.165,0.165,0.263c0.042,0.097,0.063,0.194,0.063,0.291
		c0,0.033-0.003,0.06-0.01,0.079c-0.006,0.019-0.009,0.038-0.009,0.058c-0.091,0.331-0.209,0.678-0.355,1.041
		c-0.146,0.364-0.333,0.697-0.56,1.003c-0.227,0.305-0.499,0.558-0.817,0.759C28.606,22.399,28.233,22.5,27.804,22.5z"/>
	<path fill="#545454" d="M35.219,21.188c0.201,0,0.375-0.072,0.521-0.214c0.146-0.144,0.272-0.321,0.379-0.536
		c0.106-0.214,0.195-0.446,0.263-0.695c0.069-0.25,0.125-0.485,0.17-0.706c0.045-0.207,0.112-0.358,0.199-0.452
		c0.088-0.094,0.183-0.142,0.288-0.142c0.078,0,0.157,0.024,0.238,0.074c0.081,0.048,0.156,0.112,0.225,0.189
		c0.067,0.077,0.123,0.165,0.165,0.263c0.042,0.097,0.063,0.194,0.063,0.291c0,0.014,0,0.03,0,0.049c0,0.021-0.006,0.049-0.02,0.088
		c-0.084,0.331-0.2,0.678-0.345,1.041c-0.146,0.364-0.333,0.697-0.56,1.003c-0.227,0.305-0.501,0.558-0.822,0.759
		c-0.322,0.2-0.696,0.301-1.124,0.301c-0.351,0-0.655-0.074-0.915-0.224c-0.26-0.148-0.464-0.347-0.613-0.593
		c-0.201,0.228-0.442,0.42-0.726,0.579c-0.281,0.158-0.611,0.237-0.987,0.237c-0.389,0-0.731-0.078-1.026-0.233
		c-0.296-0.155-0.544-0.368-0.745-0.637c-0.201-0.27-0.352-0.588-0.453-0.954c-0.1-0.367-0.15-0.76-0.15-1.183
		c0-0.83,0.133-1.575,0.399-2.237s0.62-1.224,1.061-1.688c0.441-0.463,0.945-0.818,1.513-1.064c0.567-0.247,1.156-0.371,1.766-0.371
		c0.272,0,0.493,0.075,0.662,0.225c0.168,0.149,0.252,0.354,0.252,0.613c0,0.168-0.018,0.286-0.054,0.354
		c-0.036,0.067-0.102,0.103-0.199,0.103c-0.091,0-0.185-0.007-0.283-0.02c-0.097-0.014-0.198-0.02-0.301-0.02
		c-0.376,0-0.759,0.083-1.148,0.248s-0.741,0.419-1.056,0.76c-0.315,0.34-0.573,0.771-0.774,1.293
		c-0.201,0.522-0.302,1.144-0.302,1.864c0,0.524,0.101,0.929,0.302,1.21c0.201,0.283,0.477,0.425,0.827,0.425
		c0.273,0,0.5-0.103,0.682-0.308c0.181-0.204,0.327-0.445,0.438-0.724v-3.075c0-0.098-0.005-0.179-0.015-0.243
		c-0.009-0.065-0.019-0.12-0.028-0.166c-0.01-0.045-0.018-0.086-0.025-0.122c-0.006-0.035-0.01-0.068-0.01-0.102
		c0-0.104,0.051-0.187,0.151-0.248c0.1-0.062,0.222-0.093,0.365-0.093c0.331,0,0.594,0.086,0.788,0.258
		c0.195,0.172,0.292,0.378,0.292,0.618v3.289c0,0.11,0.013,0.219,0.039,0.326c0.026,0.106,0.065,0.204,0.117,0.291
		c0.052,0.088,0.122,0.159,0.21,0.215C35,21.159,35.103,21.188,35.219,21.188z"/>
	<path fill="#545454" d="M36.64,15.31c0-0.188-0.015-0.324-0.043-0.409c-0.029-0.084-0.044-0.161-0.044-0.233
		c0-0.097,0.052-0.177,0.156-0.237c0.104-0.063,0.227-0.094,0.37-0.094c0.331,0,0.592,0.087,0.784,0.258
		c0.19,0.173,0.287,0.379,0.287,0.619v0.895c0.136-0.278,0.284-0.538,0.442-0.778c0.159-0.24,0.331-0.449,0.516-0.628
		c0.185-0.178,0.383-0.317,0.593-0.418c0.211-0.1,0.44-0.151,0.686-0.151c0.331,0,0.604,0.063,0.817,0.186
		c0.214,0.123,0.383,0.281,0.506,0.476c0.123,0.195,0.209,0.413,0.258,0.653c0.048,0.24,0.073,0.474,0.073,0.7v4.126
		c0,0.045,0.003,0.119,0.01,0.219c0.007,0.101,0.026,0.203,0.059,0.307s0.083,0.194,0.151,0.272
		c0.067,0.077,0.167,0.117,0.296,0.117c0.201,0,0.375-0.072,0.521-0.214c0.146-0.144,0.272-0.321,0.379-0.536
		c0.107-0.214,0.195-0.446,0.263-0.695c0.068-0.25,0.125-0.485,0.17-0.706c0.039-0.207,0.104-0.358,0.194-0.452
		s0.185-0.142,0.282-0.142c0.078,0,0.159,0.024,0.243,0.074c0.084,0.048,0.161,0.112,0.229,0.189
		c0.068,0.077,0.123,0.165,0.166,0.263c0.042,0.097,0.063,0.194,0.063,0.291c0,0.014,0,0.03,0,0.049
		c0,0.021-0.006,0.049-0.019,0.088c-0.084,0.331-0.199,0.678-0.346,1.041c-0.146,0.364-0.334,0.697-0.564,1.003
		c-0.23,0.305-0.504,0.558-0.822,0.759c-0.318,0.2-0.691,0.301-1.119,0.301c-0.266,0-0.501-0.05-0.706-0.15
		c-0.204-0.101-0.379-0.235-0.526-0.404c-0.145-0.168-0.256-0.366-0.331-0.593c-0.075-0.228-0.112-0.467-0.112-0.721v-4.048
		c0-0.156-0.003-0.301-0.01-0.438c-0.006-0.136-0.023-0.256-0.054-0.359c-0.028-0.104-0.071-0.188-0.126-0.248
		c-0.056-0.063-0.131-0.093-0.229-0.093c-0.142,0-0.317,0.097-0.525,0.291c-0.207,0.195-0.412,0.448-0.613,0.76
		c-0.201,0.311-0.378,0.663-0.53,1.056c-0.153,0.393-0.248,0.786-0.287,1.183v2.908c0,0.099-0.001,0.196-0.005,0.298
		c-0.003,0.1-0.023,0.191-0.059,0.272c-0.036,0.08-0.091,0.149-0.165,0.203c-0.075,0.057-0.184,0.083-0.327,0.083
		c-0.097,0-0.203-0.011-0.315-0.033c-0.115-0.023-0.218-0.065-0.312-0.127c-0.095-0.062-0.172-0.149-0.234-0.263
		c-0.062-0.114-0.093-0.265-0.093-0.452V15.31z"/>
	<path fill="#545454" d="M46.059,22.5c-0.389,0-0.743-0.067-1.06-0.204c-0.318-0.137-0.588-0.339-0.813-0.608
		c-0.223-0.269-0.396-0.603-0.515-1.002c-0.12-0.398-0.18-0.861-0.18-1.387c0-0.766,0.107-1.448,0.321-2.048
		c0.214-0.6,0.506-1.115,0.876-1.547c0.37-0.432,0.798-0.775,1.284-1.032c0.487-0.255,1.002-0.423,1.547-0.501V9.666
		c0-0.143-0.011-0.256-0.034-0.34c-0.023-0.084-0.045-0.151-0.068-0.2c-0.022-0.049-0.045-0.087-0.068-0.117
		c-0.023-0.028-0.034-0.06-0.034-0.092c0-0.039,0.02-0.071,0.059-0.098c0.039-0.025,0.09-0.048,0.155-0.068
		c0.065-0.02,0.135-0.034,0.21-0.044c0.074-0.009,0.147-0.014,0.218-0.014c0.331,0,0.592,0.086,0.784,0.257
		c0.191,0.173,0.287,0.379,0.287,0.618v10.704c0,0.11,0.013,0.219,0.039,0.326c0.026,0.106,0.066,0.204,0.122,0.291
		c0.055,0.088,0.127,0.159,0.214,0.215c0.088,0.055,0.19,0.083,0.307,0.083c0.202,0,0.375-0.072,0.521-0.214
		c0.146-0.144,0.272-0.321,0.379-0.536c0.107-0.214,0.194-0.446,0.263-0.695c0.068-0.25,0.125-0.485,0.17-0.706
		c0.04-0.207,0.104-0.358,0.195-0.452s0.185-0.142,0.282-0.142c0.078,0,0.159,0.024,0.243,0.074
		c0.084,0.048,0.161,0.112,0.229,0.189c0.069,0.077,0.124,0.165,0.166,0.263c0.042,0.097,0.063,0.194,0.063,0.291
		c0,0.014,0,0.03,0,0.049c0,0.021-0.007,0.049-0.02,0.088c-0.084,0.331-0.199,0.678-0.346,1.041
		c-0.146,0.364-0.334,0.697-0.564,1.003c-0.23,0.305-0.504,0.558-0.822,0.759c-0.318,0.2-0.691,0.301-1.119,0.301
		c-0.344,0-0.646-0.071-0.905-0.214c-0.26-0.143-0.464-0.331-0.613-0.564c-0.22,0.227-0.476,0.414-0.764,0.56
		C46.777,22.428,46.441,22.5,46.059,22.5z M46.36,21.188c0.26,0,0.485-0.075,0.677-0.224c0.19-0.149,0.352-0.334,0.481-0.556v-4.923
		c-0.324,0.058-0.637,0.166-0.938,0.326c-0.301,0.157-0.568,0.38-0.798,0.666c-0.23,0.286-0.414,0.646-0.549,1.085
		c-0.136,0.438-0.205,0.968-0.205,1.59c0,0.364,0.037,0.674,0.112,0.93c0.075,0.257,0.172,0.466,0.292,0.628
		c0.12,0.162,0.261,0.282,0.423,0.36C46.017,21.147,46.185,21.188,46.36,21.188z"/>
	<path fill="#545454" d="M62.533,15.933h3.104V9.132c0-0.707,0.102-1.24,0.307-1.597C66.146,7.18,66.393,7,66.678,7
		c0.143,0,0.277,0.043,0.403,0.126c0.127,0.085,0.239,0.184,0.336,0.297c0.098,0.113,0.173,0.23,0.229,0.351
		c0.056,0.119,0.083,0.217,0.083,0.287c0,0.071-0.027,0.111-0.083,0.122c-0.056,0.009-0.117,0.045-0.185,0.106
		c-0.068,0.062-0.13,0.183-0.186,0.365c-0.055,0.182-0.082,0.48-0.082,0.895v12.494c0,0.169-0.057,0.287-0.17,0.354
		c-0.114,0.069-0.246,0.103-0.395,0.103c-0.117,0-0.233-0.016-0.35-0.048c-0.117-0.033-0.223-0.075-0.316-0.126
		c-0.095-0.054-0.173-0.112-0.234-0.181s-0.092-0.141-0.092-0.22v-4.603h-3.104v4.72c0,0.169-0.057,0.287-0.17,0.354
		c-0.114,0.069-0.245,0.103-0.395,0.103c-0.117,0-0.233-0.016-0.35-0.048c-0.117-0.033-0.223-0.075-0.316-0.126
		c-0.094-0.054-0.172-0.112-0.233-0.181s-0.092-0.141-0.092-0.22v-4.603h-1.42c-0.104,0-0.2-0.031-0.287-0.096
		c-0.088-0.065-0.163-0.148-0.224-0.249s-0.11-0.21-0.146-0.325c-0.036-0.118-0.054-0.229-0.054-0.332
		c0-0.11,0.024-0.202,0.073-0.276c0.048-0.076,0.122-0.112,0.219-0.112h1.839V9.491c-0.616,0-1.182,0.102-1.698,0.307
		c-0.516,0.203-0.96,0.496-1.333,0.876c-0.374,0.378-0.665,0.838-0.876,1.377c-0.211,0.538-0.316,1.142-0.316,1.809
		c0,0.423,0.042,0.802,0.126,1.14c0.084,0.337,0.185,0.624,0.302,0.86c0.117,0.237,0.233,0.421,0.35,0.551
		c0.117,0.129,0.208,0.194,0.273,0.194c0.058,0,0.1-0.017,0.126-0.05c0.026-0.031,0.064-0.049,0.117-0.049
		c0.052,0,0.084,0.036,0.097,0.107s0.02,0.144,0.02,0.215c0,0.207-0.042,0.404-0.126,0.588c-0.084,0.186-0.189,0.335-0.317,0.447
		c-0.126,0.114-0.267,0.185-0.423,0.21s-0.305-0.014-0.447-0.117c-0.175-0.123-0.362-0.3-0.559-0.529
		c-0.199-0.231-0.38-0.515-0.545-0.853c-0.166-0.337-0.302-0.729-0.409-1.172c-0.107-0.444-0.161-0.938-0.161-1.483
		c0-0.707,0.092-1.345,0.277-1.913c0.185-0.567,0.434-1.07,0.749-1.508c0.314-0.438,0.686-0.814,1.114-1.128
		c0.428-0.316,0.884-0.575,1.368-0.779c0.482-0.205,0.985-0.355,1.507-0.453c0.522-0.097,1.037-0.146,1.542-0.146
		c0.104,0,0.205,0.021,0.302,0.063c0.098,0.043,0.182,0.101,0.253,0.176c0.072,0.074,0.13,0.163,0.175,0.267
		s0.068,0.214,0.068,0.331V15.933z"/>
	<path fill="#545454" d="M76.32,18.656c0.014-0.077,0.057-0.142,0.131-0.194c0.075-0.051,0.161-0.087,0.259-0.106
		c0.097-0.021,0.199-0.021,0.306,0c0.107,0.02,0.201,0.063,0.283,0.131c0.08,0.068,0.139,0.162,0.176,0.282
		c0.034,0.12,0.029,0.274-0.016,0.463c-0.059,0.271-0.154,0.526-0.287,0.764c-0.133,0.236-0.3,0.445-0.502,0.628
		c-0.2,0.181-0.438,0.324-0.709,0.428c-0.273,0.104-0.578,0.156-0.915,0.156c-0.182,0-0.353-0.01-0.511-0.03
		c-0.16-0.019-0.313-0.055-0.463-0.106c-0.246,0.428-0.564,0.773-0.953,1.036C72.73,22.37,72.25,22.5,71.68,22.5
		c-0.507,0-0.941-0.099-1.305-0.297c-0.363-0.197-0.665-0.467-0.904-0.807c-0.24-0.341-0.418-0.735-0.531-1.183
		s-0.17-0.921-0.17-1.421c0-0.733,0.086-1.39,0.258-1.97c0.172-0.581,0.371-1.074,0.599-1.479c0.228-0.407,0.452-0.716,0.676-0.93
		c0.224-0.215,0.392-0.322,0.502-0.322c0.13,0,0.247,0.058,0.354,0.171c0.107,0.114,0.186,0.246,0.233,0.399
		c0.05,0.151,0.062,0.307,0.039,0.463c-0.022,0.155-0.099,0.274-0.229,0.359c-0.077,0.122-0.17,0.266-0.278,0.428
		c-0.105,0.162-0.207,0.365-0.301,0.608s-0.174,0.54-0.238,0.89c-0.064,0.351-0.098,0.771-0.098,1.265
		c0,0.423,0.037,0.789,0.111,1.1c0.075,0.312,0.18,0.573,0.313,0.784c0.133,0.21,0.285,0.368,0.457,0.472s0.355,0.156,0.55,0.156
		c0.286,0,0.521-0.07,0.706-0.21c0.186-0.139,0.342-0.323,0.472-0.55c-0.468-0.401-0.823-0.913-1.065-1.533
		c-0.244-0.618-0.365-1.289-0.365-2.008c0-0.313,0.035-0.608,0.102-0.892c0.068-0.281,0.17-0.529,0.303-0.743
		c0.133-0.215,0.299-0.385,0.501-0.511c0.2-0.127,0.435-0.19,0.7-0.19c0.234,0,0.454,0.085,0.662,0.253
		c0.207,0.169,0.389,0.402,0.545,0.7c0.155,0.299,0.277,0.652,0.364,1.062c0.088,0.408,0.132,0.853,0.132,1.333
		c0,0.369-0.023,0.736-0.068,1.1s-0.117,0.713-0.214,1.05c0.071,0.026,0.138,0.041,0.2,0.045c0.061,0.002,0.127,0.004,0.199,0.004
		c0.213,0,0.404-0.039,0.568-0.116c0.166-0.078,0.307-0.182,0.424-0.312s0.211-0.283,0.281-0.456
		C76.236,19.036,76.288,18.852,76.32,18.656z M72.516,16.808c0,0.448,0.07,0.874,0.21,1.275c0.139,0.402,0.322,0.753,0.55,1.051
		c0.039-0.317,0.058-0.622,0.058-0.915c0-0.337-0.005-0.649-0.015-0.939c-0.01-0.287-0.033-0.536-0.067-0.744
		c-0.036-0.207-0.085-0.371-0.147-0.49c-0.061-0.12-0.143-0.181-0.248-0.181C72.629,15.864,72.516,16.18,72.516,16.808z"/>
	<path fill="#545454" d="M74.53,12.574c0.149,0.015,0.313,0.023,0.495,0.03c0.156,0.013,0.345,0.021,0.565,0.024
		c0.22,0.004,0.467,0.009,0.739,0.015V9.267c0-0.142-0.012-0.256-0.034-0.34c-0.022-0.085-0.046-0.151-0.067-0.199
		C76.205,8.679,76.183,8.64,76.16,8.61c-0.023-0.03-0.034-0.06-0.034-0.093c0-0.039,0.019-0.07,0.059-0.097
		c0.038-0.026,0.091-0.05,0.155-0.068c0.064-0.02,0.135-0.033,0.209-0.044c0.074-0.01,0.148-0.015,0.219-0.015
		c0.332,0,0.592,0.086,0.783,0.259c0.191,0.171,0.287,0.377,0.287,0.617v3.493c0.61,0,1.254-0.006,1.932-0.02
		c0.678-0.013,1.357-0.035,2.039-0.069c0.091-0.096,0.164-0.132,0.219-0.106c0.055,0.026,0.09,0.088,0.107,0.186
		c0.016,0.098,0.018,0.218,0.004,0.36c-0.012,0.142-0.039,0.28-0.077,0.413c-0.039,0.134-0.093,0.248-0.161,0.346
		c-0.067,0.097-0.145,0.146-0.229,0.146c-0.798,0.019-1.504,0.03-2.115,0.033c-0.614,0.004-1.187,0.006-1.719,0.006v6.314
		c0,0.324,0.063,0.558,0.186,0.701c0.123,0.142,0.289,0.214,0.496,0.214c0.201,0,0.375-0.072,0.521-0.214
		c0.146-0.144,0.272-0.321,0.38-0.536c0.106-0.214,0.194-0.446,0.262-0.695c0.069-0.25,0.125-0.485,0.171-0.706
		c0.039-0.207,0.104-0.358,0.194-0.452c0.092-0.094,0.186-0.142,0.283-0.142c0.077,0,0.158,0.024,0.242,0.074
		c0.084,0.048,0.16,0.112,0.229,0.189c0.067,0.077,0.122,0.165,0.165,0.263c0.042,0.097,0.063,0.194,0.063,0.291
		c0,0.014,0,0.03,0,0.049c0,0.021-0.007,0.049-0.021,0.088c-0.084,0.331-0.199,0.678-0.344,1.041
		c-0.146,0.364-0.335,0.697-0.564,1.003c-0.23,0.305-0.506,0.558-0.822,0.759c-0.318,0.2-0.691,0.301-1.119,0.301
		c-0.267,0-0.512-0.04-0.736-0.121c-0.223-0.081-0.416-0.211-0.578-0.39c-0.162-0.178-0.289-0.407-0.379-0.686
		c-0.092-0.279-0.137-0.616-0.137-1.013v-6.333c-0.221,0-0.417-0.002-0.588-0.006c-0.172-0.003-0.316-0.007-0.434-0.015
		c-0.137-0.006-0.256-0.012-0.359-0.019c-0.156,0-0.294-0.07-0.414-0.209c-0.12-0.141-0.205-0.295-0.253-0.463
		c-0.05-0.169-0.056-0.323-0.02-0.462C74.299,12.646,74.387,12.574,74.53,12.574z"/>
	<path fill="#545454" d="M84.523,16.146c0,0.37-0.064,0.748-0.189,1.138c-0.127,0.39-0.315,0.759-0.564,1.105
		c-0.25,0.348-0.559,0.658-0.925,0.934c-0.366,0.276-0.79,0.486-1.271,0.628c0.065,0.169,0.152,0.33,0.258,0.481
		c0.107,0.153,0.236,0.284,0.385,0.394c0.149,0.111,0.322,0.198,0.521,0.264c0.197,0.064,0.426,0.098,0.686,0.098
		c0.389,0,0.723-0.074,1.002-0.219c0.279-0.146,0.514-0.339,0.706-0.579c0.19-0.24,0.345-0.51,0.462-0.81
		c0.117-0.297,0.204-0.599,0.262-0.904c0.046-0.22,0.139-0.367,0.277-0.442c0.141-0.073,0.283-0.093,0.429-0.054
		c0.146,0.039,0.272,0.122,0.38,0.248c0.106,0.127,0.15,0.278,0.131,0.452c-0.025,0.203-0.069,0.433-0.131,0.692
		c-0.063,0.259-0.154,0.521-0.277,0.787c-0.123,0.268-0.281,0.527-0.473,0.784c-0.191,0.256-0.426,0.484-0.705,0.686
		s-0.606,0.363-0.982,0.486c-0.377,0.123-0.809,0.185-1.295,0.185c-0.453,0-0.893-0.089-1.318-0.267
		c-0.425-0.18-0.801-0.435-1.129-0.77c-0.327-0.334-0.59-0.746-0.787-1.235c-0.199-0.49-0.297-1.046-0.297-1.669
		c0-0.629,0.087-1.215,0.262-1.756c0.176-0.542,0.406-1.01,0.691-1.406c0.285-0.396,0.609-0.706,0.973-0.93s0.736-0.336,1.119-0.336
		c0.279,0,0.531,0.05,0.755,0.146c0.224,0.098,0.413,0.235,0.569,0.413c0.155,0.18,0.273,0.392,0.354,0.638
		C84.482,15.576,84.523,15.848,84.523,16.146z M81.313,18.502c0,0.058,0.003,0.116,0.01,0.174c0.006,0.06,0.01,0.121,0.01,0.187
		c0.246-0.117,0.471-0.267,0.671-0.449c0.201-0.181,0.373-0.389,0.516-0.622c0.144-0.233,0.253-0.488,0.331-0.765
		c0.078-0.274,0.117-0.563,0.117-0.86c0-0.22-0.038-0.392-0.111-0.517c-0.076-0.122-0.178-0.184-0.308-0.184
		c-0.162,0-0.307,0.055-0.433,0.165c-0.127,0.11-0.237,0.254-0.331,0.434c-0.095,0.178-0.173,0.378-0.233,0.603
		c-0.063,0.224-0.111,0.45-0.151,0.677c-0.038,0.228-0.065,0.442-0.077,0.646C81.309,18.194,81.306,18.365,81.313,18.502z"/>
	<path fill="#545454" d="M90.195,19.057c0.039-0.194,0.1-0.337,0.181-0.424c0.081-0.088,0.169-0.136,0.263-0.146
		c0.094-0.009,0.189,0.014,0.287,0.068c0.098,0.056,0.182,0.128,0.253,0.219c0.071,0.092,0.124,0.193,0.161,0.308
		c0.035,0.112,0.04,0.225,0.014,0.335c-0.09,0.267-0.221,0.577-0.389,0.935c-0.169,0.356-0.383,0.693-0.643,1.011
		c-0.26,0.319-0.564,0.587-0.914,0.809c-0.351,0.221-0.753,0.33-1.207,0.33c-0.383,0-0.721-0.063-1.012-0.189
		c-0.293-0.127-0.537-0.305-0.734-0.535c-0.199-0.229-0.348-0.506-0.447-0.826c-0.102-0.321-0.152-0.68-0.152-1.075v-9.068
		c0-0.371,0.047-0.713,0.142-1.027c0.094-0.315,0.224-0.584,0.39-0.809c0.166-0.223,0.358-0.397,0.578-0.524
		c0.221-0.126,0.455-0.19,0.701-0.19c0.292,0,0.539,0.054,0.74,0.161c0.2,0.106,0.365,0.248,0.496,0.422
		c0.129,0.177,0.23,0.378,0.306,0.604c0.075,0.228,0.128,0.459,0.161,0.695c0.032,0.237,0.051,0.471,0.059,0.7
		c0.006,0.231,0.01,0.44,0.01,0.629c0,0.485-0.046,0.997-0.137,1.532s-0.206,1.063-0.346,1.581c-0.139,0.52-0.292,1.018-0.457,1.494
		c-0.166,0.476-0.324,0.899-0.477,1.27c-0.152,0.368-0.289,0.671-0.409,0.904c-0.12,0.234-0.202,0.37-0.248,0.408v1.158
		c0,0.403,0.085,0.731,0.253,0.988c0.169,0.257,0.438,0.385,0.808,0.385c0.228,0,0.439-0.07,0.638-0.21
		c0.197-0.139,0.373-0.314,0.525-0.525c0.152-0.21,0.281-0.441,0.385-0.69C90.076,19.512,90.15,19.277,90.195,19.057z M87.364,16.05
		c0.071-0.137,0.142-0.32,0.209-0.551c0.069-0.23,0.134-0.484,0.194-0.763c0.063-0.279,0.119-0.571,0.171-0.877
		c0.052-0.304,0.097-0.602,0.136-0.896c0.039-0.29,0.07-0.564,0.094-0.821c0.021-0.256,0.033-0.475,0.033-0.657
		c0-0.662-0.049-1.146-0.146-1.454c-0.098-0.309-0.228-0.463-0.39-0.463c-0.052,0-0.098,0.026-0.137,0.078s-0.07,0.118-0.097,0.199
		c-0.026,0.082-0.044,0.169-0.054,0.263c-0.01,0.095-0.015,0.181-0.015,0.258V16.05z"/>
</g>
</svg>
