<?xml version="1.0" encoding="utf-8"?>
<!-- Generator: Adobe Illustrator 16.0.0, SVG Export Plug-In . SVG Version: 6.00 Build 0)  -->
<!DOCTYPE svg PUBLIC "-//W3C//DTD SVG 1.1//EN" "http://www.w3.org/Graphics/SVG/1.1/DTD/svg11.dtd">
<svg version="1.1" id="图层_1" xmlns="http://www.w3.org/2000/svg" xmlns:xlink="http://www.w3.org/1999/xlink" x="0px" y="0px"
	 width="258px" height="36px" viewBox="0 0 258 36" enable-background="new 0 0 258 36" xml:space="preserve">
<g>
	<path fill="#545454" d="M27.278,6.5c0.064,0.09,0.093,0.154,0.087,0.193c-0.007,0.038-0.004,0.077,0.01,0.116
		c0.025,0.18,0.035,0.293,0.029,0.337c-0.007,0.046-0.01,0.094-0.01,0.146c0,0.143,0.012,0.293,0.038,0.455
		c0.026,0.16,0.026,0.324,0,0.49c0,0.039-0.007,0.078-0.019,0.117c-0.014,0.038-0.02,0.077-0.02,0.115
		c-0.014,0.104-0.017,0.197-0.01,0.28c0.006,0.083-0.004,0.183-0.029,0.3c-0.039,0.142-0.055,0.229-0.048,0.26
		c0.006,0.033,0.009,0.067,0.009,0.106c0,0.103-0.009,0.209-0.028,0.318c-0.02,0.11-0.029,0.216-0.029,0.318
		c0,0.065,0.003,0.129,0.01,0.194c0.007,0.064,0.017,0.135,0.029,0.212c0.013,0.115,0.032,0.238,0.058,0.367
		c0,0.038-0.003,0.077-0.01,0.116c-0.007,0.037-0.016,0.084-0.029,0.135c0,0.142-0.006,0.22-0.019,0.231
		c-0.013,0.013-0.02,0.032-0.02,0.059c-0.013,0.076-0.02,0.154-0.02,0.231c0,0.076,0,0.154,0,0.231
		c-0.013,0.052-0.019,0.128-0.019,0.232c0,0.025,0.002,0.057,0.009,0.096s0.01,0.077,0.01,0.116
		c-0.013,0.064-0.026,0.123-0.038,0.174c-0.014,0.051-0.027,0.109-0.039,0.174c0,0.051-0.004,0.108-0.01,0.173
		c-0.006,0.065-0.01,0.116-0.01,0.155l-0.02,0.213c-0.012,0.012-0.01,0.045,0.01,0.096c0.02,0.052,0.023,0.097,0.01,0.136
		c-0.014,0.104-0.025,0.161-0.039,0.174c-0.012,0.012-0.031,0.031-0.057,0.058c0.012,0.064,0.028,0.123,0.047,0.174
		c0.02,0.051-0.002,0.097-0.066,0.135c-0.129-0.038-0.203-0.076-0.223-0.115s-0.041-0.078-0.068-0.116
		c-0.051-0.052-0.083-0.104-0.096-0.154s-0.032-0.104-0.058-0.154c-0.104-0.129-0.2-0.277-0.29-0.444
		c-0.038-0.116-0.064-0.178-0.077-0.184s-0.026-0.022-0.038-0.048c-0.027-0.039-0.043-0.081-0.049-0.127
		c-0.006-0.044-0.023-0.079-0.049-0.104c-0.076-0.078-0.115-0.123-0.115-0.137c0-0.012-0.007-0.031-0.02-0.057
		c-0.025-0.065-0.058-0.133-0.097-0.203c-0.038-0.07-0.077-0.138-0.116-0.203c-0.051-0.115-0.103-0.225-0.154-0.328
		c-0.038-0.077-0.086-0.145-0.145-0.203c-0.059-0.057-0.113-0.125-0.164-0.202c-0.104-0.116-0.16-0.184-0.174-0.203
		s-0.031-0.042-0.059-0.067c-0.037-0.051-0.076-0.107-0.115-0.164c-0.039-0.059-0.084-0.118-0.135-0.184l-0.193-0.154l-0.154-0.193
		c-0.078-0.039-0.148-0.09-0.213-0.155c-0.038-0.037-0.077-0.079-0.115-0.124c-0.039-0.045-0.078-0.088-0.117-0.126
		c-0.037-0.038-0.08-0.07-0.125-0.097c-0.045-0.025-0.08-0.064-0.105-0.115c-0.31-0.143-0.561-0.304-0.754-0.483
		c-0.09-0.013-0.177-0.049-0.261-0.106c-0.083-0.059-0.171-0.105-0.261-0.145c-0.038-0.026-0.08-0.042-0.125-0.048
		c-0.045-0.007-0.094-0.022-0.145-0.049c-0.052-0.013-0.097-0.032-0.136-0.059c-0.038-0.025-0.091-0.045-0.154-0.057
		c-0.038-0.014-0.087-0.017-0.146-0.011c-0.058,0.006-0.119,0.003-0.183-0.009c-0.052-0.014-0.104-0.026-0.155-0.039
		c-0.051-0.013-0.109-0.026-0.174-0.039c-0.142-0.012-0.289-0.02-0.443-0.02s-0.309,0-0.464,0c-0.128,0.014-0.2,0.017-0.212,0.011
		c-0.014-0.006-0.033-0.011-0.059-0.011c-0.064,0.014-0.135,0.022-0.212,0.029s-0.148,0.022-0.213,0.049
		c-0.154,0.025-0.296,0.058-0.425,0.096c-0.064,0.026-0.129,0.056-0.193,0.087c-0.064,0.033-0.129,0.055-0.192,0.068
		c-0.142,0.115-0.284,0.234-0.425,0.356c-0.143,0.122-0.277,0.254-0.406,0.396c-0.051,0.052-0.086,0.09-0.105,0.116
		c-0.02,0.025-0.042,0.058-0.068,0.097c-0.076,0.115-0.145,0.244-0.203,0.386c-0.057,0.143-0.125,0.277-0.202,0.405
		c-0.103,0.143-0.157,0.235-0.164,0.281c-0.007,0.044-0.022,0.093-0.048,0.144c-0.039,0.051-0.062,0.093-0.068,0.127
		c-0.006,0.031-0.022,0.066-0.048,0.105c-0.052,0.103-0.097,0.181-0.136,0.231l-0.096,0.251c-0.039,0.154-0.042,0.313-0.01,0.473
		c0.031,0.161,0.035,0.326,0.01,0.493c0,0.076-0.014,0.154-0.039,0.231s-0.051,0.167-0.077,0.271
		c-0.026,0.077-0.042,0.154-0.048,0.232c-0.008,0.076-0.023,0.154-0.049,0.231c0,0.142-0.006,0.216-0.02,0.222
		c-0.013,0.006-0.02,0.022-0.02,0.048c-0.064,0.321-0.112,0.667-0.145,1.034c-0.032,0.365-0.041,0.736-0.028,1.11
		c0.013,0.038,0.019,0.077,0.019,0.115s0.007,0.071,0.02,0.097c0,0.154,0,0.251,0,0.29c-0.013,0.051-0.022,0.096-0.028,0.135
		c-0.007,0.039-0.01,0.084-0.01,0.136c0.013,0.064,0.028,0.132,0.048,0.203c0.02,0.07,0.035,0.151,0.049,0.241
		c0.025,0.076,0.038,0.154,0.038,0.231c0,0.076,0.013,0.147,0.038,0.212s0.049,0.129,0.068,0.193s0.041,0.129,0.067,0.193
		c0.026,0.103,0.052,0.199,0.077,0.289s0.059,0.18,0.097,0.27c0.038,0.078,0.073,0.159,0.106,0.242
		c0.031,0.084,0.061,0.171,0.087,0.261c0.025,0.051,0.045,0.104,0.058,0.155s0.032,0.109,0.059,0.174
		c0.025,0.051,0.055,0.1,0.086,0.144c0.032,0.046,0.049,0.1,0.049,0.164c0.039,0.026,0.074,0.056,0.106,0.088
		s0.073,0.061,0.125,0.087c0.064,0.051,0.147,0.096,0.251,0.135c0.104,0.078,0.164,0.116,0.184,0.116s0.041,0.013,0.068,0.038
		c0.038,0.026,0.073,0.052,0.105,0.077c0.032,0.026,0.067,0.052,0.105,0.078c0.026,0.025,0.059,0.038,0.098,0.038
		s0.077,0.013,0.115,0.038c0.104,0.039,0.203,0.085,0.3,0.136s0.196,0.096,0.3,0.135c0.063,0.026,0.131,0.049,0.202,0.067
		c0.07,0.021,0.146,0.036,0.222,0.049c0.399,0.09,0.795,0.123,1.188,0.097c0.393-0.025,0.783-0.097,1.169-0.213
		c0.09-0.025,0.171-0.048,0.241-0.067s0.139-0.042,0.203-0.067c0.064-0.026,0.135-0.048,0.213-0.068
		c0.076-0.019,0.154-0.054,0.23-0.105c0.064-0.026,0.129-0.055,0.193-0.087s0.129-0.061,0.193-0.087
		c0.064-0.025,0.125-0.051,0.184-0.077c0.058-0.026,0.119-0.058,0.184-0.097c0.077-0.012,0.148-0.045,0.212-0.096
		c0.116-0.078,0.226-0.155,0.329-0.232c0.103-0.077,0.205-0.161,0.309-0.251c0.103-0.09,0.199-0.181,0.289-0.271
		c0.078-0.077,0.136-0.142,0.174-0.192c0.026-0.155,0.052-0.232,0.078-0.232c0.025,0,0.045-0.007,0.059-0.02
		c0.076-0.116,0.127-0.2,0.153-0.251c0.129-0.181,0.2-0.29,0.212-0.328c0.025-0.052,0.035-0.108,0.029-0.174
		c-0.006-0.064,0.004-0.129,0.029-0.193c0.025-0.142,0.058-0.293,0.097-0.453c0.038-0.161,0.064-0.325,0.077-0.493
		c0.039-0.398,0.02-0.766-0.058-1.101c-0.142-0.039-0.284-0.067-0.425-0.088c-0.143-0.019-0.283-0.041-0.426-0.066
		c-0.103-0.013-0.215-0.026-0.338-0.038c-0.122-0.014-0.248-0.02-0.377-0.02c-0.076,0-0.153,0.006-0.23,0.02
		c-0.078,0.012-0.168,0.019-0.271,0.019c-0.065,0.013-0.122,0.016-0.175,0.01c-0.051-0.006-0.109-0.01-0.173-0.01l-0.348,0.058
		c-0.181,0.014-0.36,0.032-0.54,0.059c-0.182,0.026-0.367,0.058-0.561,0.097c-0.116,0.025-0.229,0.054-0.338,0.087
		c-0.109,0.032-0.223,0.067-0.338,0.106c-0.168,0.063-0.271,0.103-0.31,0.115c-0.167,0.077-0.286,0.145-0.357,0.204
		c-0.071,0.056-0.145,0.112-0.222,0.163c-0.116,0.064-0.174,0.115-0.174,0.154c-0.104,0.051-0.164,0.087-0.184,0.107
		c-0.02,0.018-0.042,0.04-0.067,0.066c-0.039,0.064-0.091,0.128-0.154,0.193c-0.065,0.064-0.13,0.135-0.193,0.213
		c-0.038,0.037-0.077,0.086-0.116,0.145c-0.038,0.058-0.084,0.105-0.135,0.145c-0.026,0.026-0.059,0.058-0.097,0.097
		s-0.091,0.039-0.154,0c-0.065,0-0.087-0.026-0.067-0.078c0.02-0.051,0.029-0.096,0.029-0.135c0.012-0.116,0.019-0.229,0.019-0.338
		c0-0.11,0.013-0.234,0.038-0.376c0-0.039,0.004-0.074,0.01-0.106c0.007-0.033,0.01-0.067,0.01-0.106v-0.231
		c0-0.064,0.007-0.132,0.02-0.203c0.013-0.07,0.013-0.145,0-0.222c0-0.104-0.006-0.206-0.02-0.31c-0.013-0.103-0.02-0.205-0.02-0.31
		c0.014-0.18,0.017-0.302,0.01-0.366c-0.006-0.064,0.004-0.129,0.029-0.193c0.115-0.038,0.232-0.038,0.348,0
		c0.115,0.039,0.244,0.078,0.387,0.117c0.063,0.012,0.128,0.015,0.193,0.008c0.063-0.005,0.128-0.002,0.192,0.01
		c0.064,0,0.132,0.008,0.202,0.02c0.071,0.014,0.139,0.02,0.203,0.02c0.116,0.014,0.225,0.02,0.328,0.02s0.207,0.014,0.31,0.039
		c0.192-0.039,0.389-0.048,0.589-0.03c0.199,0.021,0.363,0.018,0.492-0.009c0.258-0.025,0.502-0.025,0.734,0
		c0.077,0.014,0.15,0.022,0.222,0.029c0.07,0.007,0.146,0.021,0.222,0.048c0.09,0.026,0.2,0.039,0.328,0.039
		c0.129,0,0.258,0,0.387,0c0.064,0.013,0.122,0.016,0.174,0.01c0.052-0.007,0.123-0.01,0.213-0.01c0.038,0,0.07,0.006,0.096,0.02
		c0.026,0.013,0.064,0.006,0.117-0.02c0.166-0.052,0.393-0.09,0.676-0.116c0.154-0.013,0.244-0.013,0.27,0
		c0.025,0.014,0.052,0.014,0.078,0c0.064,0,0.125-0.006,0.183-0.02c0.058-0.012,0.119-0.02,0.184-0.02
		c0.103,0,0.199,0.005,0.29,0.01c0.09,0.007,0.186,0.017,0.289,0.029c0.064,0.167,0.098,0.315,0.098,0.444
		c0,0.039-0.004,0.074-0.01,0.105c-0.008,0.033-0.01,0.068-0.01,0.106v0.908c0,0.206-0.008,0.367-0.02,0.482
		c-0.014,0.116-0.02,0.231-0.02,0.349c-0.014,0.037-0.014,0.076,0,0.115c0.013,0.039,0.02,0.077,0.02,0.116
		c-0.014,0.09-0.02,0.147-0.02,0.174c0,0.025,0.006,0.07,0.02,0.135c-0.014,0.051-0.017,0.106-0.01,0.164
		c0.006,0.059,0.016,0.118,0.029,0.184c0.025,0.129,0.037,0.225,0.037,0.289c0.014,0.104,0.014,0.209,0,0.319
		c-0.012,0.109-0.018,0.222-0.018,0.338c0.012,0.18,0.025,0.367,0.037,0.56c0.014,0.193,0.02,0.38,0.02,0.561
		c-0.012,0.167-0.016,0.306-0.01,0.415c0.008,0.11-0.002,0.19-0.029,0.241c0.027,0.143,0.033,0.216,0.02,0.222
		c-0.012,0.007-0.02,0.017-0.02,0.03c0.027,0.18,0.037,0.378,0.029,0.598c-0.006,0.22-0.016,0.425-0.029,0.618v0.29
		c0,0.192-0.002,0.383-0.008,0.569c-0.008,0.187-0.018,0.369-0.029,0.551c-0.014,0.103-0.023,0.201-0.029,0.3
		c-0.007,0.096-0.01,0.195-0.01,0.298c-0.014,0.168-0.022,0.313-0.029,0.436c-0.007,0.122-0.029,0.254-0.067,0.396
		c-0.026,0.064-0.056,0.132-0.087,0.202c-0.033,0.071-0.068,0.146-0.105,0.223c-0.026,0.039-0.053,0.07-0.078,0.097
		s-0.032,0.058-0.02,0.097c-0.064,0.064-0.129,0.122-0.193,0.173c-0.064,0.053-0.128,0.109-0.192,0.175
		c-0.13,0.154-0.231,0.296-0.31,0.425c-0.115,0.039-0.225,0.093-0.328,0.163c-0.104,0.072-0.213,0.133-0.328,0.184
		c-0.104,0.065-0.16,0.095-0.174,0.087c-0.014-0.006-0.031-0.003-0.059,0.011c-0.115,0.076-0.186,0.122-0.212,0.135
		s-0.058,0.02-0.097,0.02c-0.039,0.026-0.076,0.038-0.115,0.038s-0.077,0.008-0.116,0.02c-0.077,0.039-0.126,0.059-0.146,0.059
		c-0.018,0-0.041,0.006-0.066,0.019c-0.078,0.026-0.155,0.065-0.232,0.116c-0.076,0.051-0.161,0.097-0.251,0.135
		c-0.064,0.026-0.128,0.052-0.192,0.077c-0.065,0.027-0.136,0.052-0.213,0.078c-0.09,0.039-0.196,0.08-0.318,0.125
		c-0.123,0.045-0.242,0.094-0.357,0.146c-0.09,0.025-0.184,0.051-0.28,0.076c-0.097,0.026-0.196,0.052-0.3,0.078
		c-0.103,0.025-0.205,0.038-0.309,0.038s-0.213,0.007-0.328,0.02c-0.219,0.013-0.435,0.025-0.646,0.038
		c-0.213,0.014-0.454,0.007-0.725-0.019c-0.104-0.013-0.219-0.02-0.348-0.02s-0.244,0-0.348,0c-0.077-0.013-0.154-0.029-0.231-0.048
		c-0.077-0.021-0.155-0.036-0.231-0.049c-0.078-0.025-0.158-0.042-0.242-0.049c-0.084-0.005-0.164-0.016-0.241-0.028
		c-0.142-0.013-0.296-0.052-0.464-0.116c-0.064-0.012-0.135-0.026-0.212-0.038c-0.077-0.013-0.155-0.013-0.231,0
		c-0.091-0.052-0.184-0.098-0.28-0.135c-0.097-0.039-0.196-0.09-0.3-0.155c-0.064-0.038-0.132-0.07-0.202-0.097
		c-0.071-0.026-0.126-0.058-0.165-0.097c-0.012-0.012-0.045-0.025-0.096-0.039c-0.052-0.012-0.09-0.025-0.116-0.038
		c-0.064-0.052-0.132-0.106-0.202-0.164c-0.071-0.058-0.146-0.113-0.223-0.164c-0.129-0.064-0.199-0.106-0.212-0.125
		c-0.014-0.019-0.032-0.042-0.059-0.068c-0.116-0.051-0.181-0.083-0.192-0.097c-0.116-0.076-0.182-0.124-0.193-0.145
		c-0.014-0.019-0.033-0.041-0.059-0.067c-0.129-0.09-0.202-0.154-0.222-0.193s-0.042-0.07-0.067-0.097
		c-0.025-0.025-0.055-0.055-0.088-0.086c-0.031-0.032-0.061-0.062-0.086-0.088c-0.09-0.129-0.154-0.209-0.193-0.242
		c-0.039-0.031-0.064-0.073-0.078-0.124c-0.063-0.013-0.128-0.065-0.192-0.155c-0.091-0.128-0.163-0.261-0.222-0.396
		c-0.059-0.136-0.119-0.273-0.184-0.415c-0.025-0.064-0.045-0.12-0.059-0.163c-0.012-0.047-0.031-0.101-0.057-0.166
		c-0.026-0.037-0.043-0.084-0.049-0.135c-0.007-0.051-0.022-0.103-0.049-0.154c-0.051-0.181-0.08-0.3-0.086-0.357
		c-0.008-0.058-0.01-0.113-0.01-0.164c0.012-0.09,0.016-0.144,0.01-0.164c-0.008-0.019-0.01-0.041-0.01-0.067
		c0-0.039,0.006-0.078,0.019-0.115c0.013-0.039,0.02-0.09,0.02-0.155c0.013-0.052,0.02-0.104,0.02-0.154s0.006-0.098,0.02-0.135
		c0.051-0.181,0.083-0.31,0.097-0.387c0.012-0.077,0.051-0.147,0.115-0.213c0.025-0.039,0.061-0.073,0.106-0.105
		c0.045-0.033,0.087-0.068,0.126-0.106c0.025-0.025,0.045-0.059,0.057-0.097c0.014-0.038,0.039-0.071,0.078-0.097
		c0.077-0.077,0.145-0.135,0.203-0.174c0.057-0.038,0.111-0.09,0.164-0.155c0.025-0.037,0.073-0.051,0.145-0.037
		c0.07,0.012,0.119,0,0.145-0.039c0.064-0.051,0.154-0.077,0.271-0.077c0.115,0,0.218,0,0.309,0c0.129-0.026,0.219-0.026,0.27,0
		c0.116,0,0.252,0.045,0.406,0.135c0.09,0.038,0.15,0.065,0.184,0.077c0.031,0.013,0.067,0.026,0.105,0.039
		c0.142,0.064,0.234,0.124,0.28,0.184c0.045,0.057,0.087,0.112,0.126,0.163c0.064,0.065,0.131,0.116,0.202,0.155
		s0.119,0.084,0.146,0.135c0.025,0.026,0.045,0.065,0.057,0.116c0.014,0.052,0.033,0.104,0.059,0.154
		c0.064,0.104,0.097,0.187,0.097,0.251c0.039,0.129,0.052,0.202,0.039,0.223c-0.014,0.019-0.02,0.041-0.02,0.067
		c0.013,0.052,0.028,0.1,0.048,0.145s0.022,0.105,0.01,0.184c-0.013,0.09-0.052,0.187-0.115,0.29
		c-0.064,0.103-0.136,0.205-0.213,0.31c-0.039,0.051-0.109,0.127-0.213,0.231c-0.039,0.051-0.074,0.096-0.105,0.135
		c-0.032,0.039-0.068,0.07-0.106,0.096c-0.038,0.026-0.094,0.056-0.165,0.088c-0.07,0.031-0.138,0.061-0.202,0.087
		c-0.064,0.025-0.106,0.039-0.126,0.039s-0.061-0.008-0.125-0.02c-0.064,0-0.129,0.003-0.193,0.01
		c-0.064,0.005-0.129,0.002-0.192-0.01c-0.052-0.014-0.101-0.028-0.146-0.049c-0.045-0.019-0.086-0.041-0.125-0.067
		c-0.052-0.025-0.097-0.045-0.136-0.059c-0.038-0.012-0.083-0.031-0.136-0.057c-0.063-0.039-0.108-0.062-0.135-0.068
		c-0.025-0.007-0.058-0.041-0.096-0.106c-0.154-0.219-0.252-0.405-0.29-0.56c0.013-0.026,0.007-0.064-0.02-0.116
		s-0.038-0.097-0.038-0.135c0-0.064,0.016-0.126,0.048-0.185c0.032-0.057,0.067-0.118,0.106-0.183
		c0.064-0.116,0.121-0.193,0.174-0.231c0.051-0.039,0.097-0.07,0.135-0.097c0.039-0.039,0.078-0.078,0.115-0.116
		c0.039-0.038,0.09-0.064,0.155-0.077c0.025-0.013,0.064-0.017,0.116-0.009c0.051,0.006,0.096,0.015,0.135,0.028
		c0.064,0.013,0.119,0.028,0.164,0.048s0.1,0.042,0.164,0.067c0.155,0.065,0.258,0.136,0.309,0.212
		c0.053,0.078,0.084,0.162,0.098,0.252c0,0.051-0.004,0.105-0.01,0.164c-0.008,0.058-0.049,0.106-0.125,0.145
		c-0.116,0-0.182-0.038-0.193-0.116c-0.039-0.025-0.059-0.064-0.059-0.115s-0.025-0.084-0.077-0.097
		c-0.064-0.025-0.139-0.048-0.222-0.067c-0.084-0.019-0.164-0.042-0.242-0.067c-0.038,0.039-0.08,0.073-0.125,0.106
		c-0.045,0.032-0.08,0.074-0.105,0.125c0.063,0.154,0.096,0.255,0.096,0.3s0.025,0.061,0.077,0.048
		c0.013,0.077,0.035,0.142,0.067,0.193s0.068,0.097,0.107,0.135c0.025,0.039,0.041,0.084,0.047,0.135
		c0.006,0.053,0.043,0.085,0.106,0.098c0.193,0.038,0.367,0.031,0.522-0.02c0.09-0.025,0.186-0.059,0.289-0.098
		c0.064-0.025,0.115-0.063,0.154-0.115c0.039-0.051,0.09-0.09,0.154-0.116c0.025-0.128,0.074-0.241,0.145-0.338
		c0.07-0.096,0.074-0.222,0.01-0.376c-0.025-0.065-0.061-0.128-0.105-0.193c-0.046-0.064-0.081-0.135-0.106-0.213
		c-0.065-0.051-0.12-0.112-0.165-0.184c-0.045-0.07-0.105-0.124-0.183-0.163c-0.038-0.129-0.11-0.232-0.212-0.31
		c-0.065-0.039-0.104-0.062-0.116-0.067s-0.052-0.009-0.116-0.009c-0.104-0.014-0.181-0.033-0.231-0.059
		c-0.13-0.013-0.245-0.013-0.348,0c-0.181,0.039-0.354,0.106-0.522,0.203c-0.166,0.096-0.303,0.215-0.404,0.356
		c-0.104,0.129-0.154,0.187-0.154,0.175c-0.014,0.051-0.023,0.09-0.029,0.115c-0.008,0.026-0.016,0.07-0.029,0.136
		c-0.064,0.296-0.059,0.566,0.02,0.811c0.012,0.064,0.025,0.122,0.039,0.174c0.012,0.051,0.031,0.109,0.058,0.173
		c0.025,0.065,0.051,0.124,0.077,0.175c0.025,0.051,0.051,0.104,0.076,0.154c0.027,0.104,0.045,0.2,0.059,0.29
		s0.031,0.186,0.059,0.289c0.051,0.142,0.128,0.283,0.23,0.426l0.137,0.192c0.063,0.143,0.096,0.219,0.096,0.232
		c0.039,0.051,0.088,0.096,0.145,0.135c0.059,0.038,0.113,0.09,0.165,0.154c0.181,0.167,0.309,0.286,0.386,0.356
		c0.078,0.072,0.168,0.133,0.271,0.185c0.09,0.051,0.192,0.103,0.31,0.154c0.141,0.052,0.247,0.094,0.318,0.125
		c0.07,0.033,0.138,0.062,0.203,0.088c0.141,0.038,0.237,0.064,0.289,0.076c0.051,0.014,0.115,0.032,0.193,0.059
		c0.115,0.025,0.177,0.042,0.184,0.048c0.006,0.006,0.021,0.017,0.048,0.029c0.052,0.013,0.103,0.019,0.154,0.019
		s0.109,0.014,0.174,0.039c0.103,0.014,0.174,0.026,0.213,0.039c0.038,0.012,0.077,0.026,0.116,0.038
		c0.038,0,0.086-0.003,0.145-0.01c0.058-0.006,0.119-0.017,0.184-0.028c0.051,0,0.1-0.003,0.145-0.011
		c0.045-0.006,0.094-0.009,0.145-0.009c0.115,0.013,0.234,0.029,0.357,0.048c0.122,0.021,0.254,0.036,0.396,0.049
		c0.063,0.013,0.135,0.02,0.212,0.02s0.154,0,0.231,0c0.129,0.013,0.248,0.02,0.357,0.02s0.229-0.014,0.357-0.039
		c0.167-0.051,0.303-0.08,0.406-0.088c0.102-0.006,0.192-0.028,0.27-0.067c0.154-0.025,0.241-0.045,0.261-0.057
		c0.019-0.014,0.042-0.027,0.067-0.039c0.064-0.026,0.133-0.051,0.203-0.078c0.07-0.025,0.138-0.063,0.203-0.115
		c0.076,0.025,0.145,0.03,0.202,0.01c0.058-0.019,0.119-0.036,0.184-0.048c0.077-0.013,0.151-0.017,0.222-0.01
		s0.139,0.002,0.203-0.01c0.064-0.013,0.119-0.028,0.164-0.049c0.045-0.019,0.094-0.035,0.145-0.048
		c0.052-0.026,0.1-0.038,0.146-0.038c0.045,0,0.087-0.014,0.126-0.039c0.076-0.026,0.145-0.055,0.202-0.087s0.138-0.068,0.241-0.105
		c0.154-0.065,0.262-0.124,0.318-0.175c0.059-0.052,0.113-0.097,0.164-0.135c0.117-0.104,0.174-0.161,0.174-0.174
		c0.116-0.116,0.184-0.187,0.203-0.212c0.02-0.027,0.041-0.052,0.068-0.078c0.025-0.026,0.055-0.062,0.086-0.106
		s0.061-0.08,0.087-0.105c0.052-0.064,0.077-0.106,0.077-0.126s0.007-0.042,0.02-0.067c0.064-0.104,0.109-0.178,0.135-0.222
		c0.025-0.046,0.053-0.1,0.078-0.165c0.064-0.167,0.096-0.244,0.096-0.231c0.064-0.193,0.117-0.328,0.154-0.406
		c0.039-0.076,0.064-0.173,0.078-0.288c0-0.09-0.008-0.171-0.02-0.242c-0.014-0.07-0.014-0.151,0-0.241l0.02-0.444
		c-0.014-0.09-0.016-0.142-0.01-0.155c0.006-0.012,0.01-0.031,0.01-0.057c-0.014-0.065-0.025-0.129-0.039-0.194
		c-0.014-0.064-0.025-0.128-0.039-0.192v-0.271c0-0.077-0.002-0.146-0.01-0.202c-0.006-0.059-0.002-0.133,0.01-0.223l0.059-0.213
		c0.051-0.154,0.074-0.237,0.067-0.251c-0.007-0.013-0.01-0.025-0.01-0.038c0.026-0.038,0.055-0.08,0.087-0.125
		s0.062-0.094,0.088-0.146c0.025-0.038,0.037-0.074,0.037-0.106s-0.006-0.08-0.018-0.145c-0.014-0.155-0.027-0.248-0.039-0.28
		c-0.014-0.032-0.014-0.067,0-0.106c0-0.154,0.016-0.309,0.047-0.464c0.033-0.154,0.037-0.315,0.01-0.481
		c-0.115,0.154-0.192,0.264-0.23,0.327c-0.039,0.064-0.084,0.129-0.135,0.193c-0.065,0.077-0.136,0.136-0.213,0.175
		c-0.053,0.051-0.09,0.09-0.115,0.115c-0.027,0.026-0.053,0.051-0.078,0.077c-0.026,0.026-0.055,0.048-0.087,0.067
		c-0.032,0.019-0.062,0.042-0.087,0.067c-0.025,0.026-0.051,0.056-0.078,0.088c-0.025,0.032-0.051,0.061-0.076,0.086
		c-0.143,0.116-0.258,0.2-0.348,0.251c-0.091,0.051-0.145,0.09-0.164,0.116s-0.043,0.052-0.068,0.077
		c-0.09,0.026-0.139,0.046-0.145,0.058c-0.007,0.013-0.022,0.027-0.048,0.039c-0.142,0.09-0.297,0.174-0.464,0.251
		c-0.039,0.025-0.074,0.049-0.105,0.067c-0.033,0.02-0.081,0.042-0.146,0.067c-0.026,0.014-0.062,0.02-0.106,0.02
		s-0.086,0.014-0.125,0.039c-0.129,0.051-0.232,0.077-0.309,0.077c-0.193,0.064-0.396,0.123-0.609,0.174
		c-0.212,0.051-0.434,0.09-0.666,0.115c-0.258,0.026-0.502,0.026-0.734,0c-0.064-0.012-0.135-0.025-0.212-0.037
		c-0.077-0.014-0.154-0.027-0.231-0.039c-0.077-0.014-0.151-0.02-0.223-0.02c-0.07,0-0.145-0.007-0.222-0.02
		c-0.103-0.012-0.238-0.045-0.405-0.097c-0.039-0.013-0.077-0.016-0.116-0.011c-0.038,0.008-0.071,0.005-0.097-0.009
		c-0.154-0.038-0.238-0.064-0.25-0.076c-0.014-0.014-0.033-0.027-0.059-0.039c-0.09-0.039-0.168-0.062-0.232-0.068
		c-0.064-0.006-0.129-0.021-0.193-0.048c-0.103-0.077-0.163-0.112-0.183-0.106c-0.02,0.007-0.042,0.003-0.067-0.01
		c-0.064-0.051-0.113-0.077-0.145-0.077c-0.033,0-0.062-0.006-0.088-0.02c-0.129-0.038-0.199-0.064-0.212-0.076
		c-0.038-0.014-0.074-0.028-0.106-0.049c-0.032-0.019-0.067-0.041-0.105-0.067l-0.232-0.116c-0.064-0.026-0.125-0.051-0.184-0.077
		c-0.058-0.025-0.119-0.051-0.184-0.078c-0.115-0.063-0.244-0.135-0.386-0.212c-0.142-0.076-0.271-0.154-0.386-0.231
		c-0.039-0.025-0.074-0.051-0.107-0.077c-0.031-0.026-0.066-0.051-0.105-0.077c-0.09-0.064-0.152-0.112-0.184-0.146
		c-0.033-0.031-0.068-0.06-0.105-0.086c-0.053-0.039-0.107-0.09-0.165-0.154c-0.058-0.065-0.112-0.129-0.163-0.193
		c-0.104-0.129-0.158-0.212-0.165-0.251s-0.022-0.07-0.048-0.097c-0.104-0.104-0.152-0.157-0.145-0.164
		c0.006-0.007,0.002-0.017-0.01-0.029c-0.039-0.039-0.075-0.106-0.106-0.202c-0.032-0.098-0.067-0.178-0.106-0.242
		s-0.088-0.125-0.145-0.183c-0.059-0.06-0.101-0.119-0.126-0.184c-0.052-0.129-0.091-0.255-0.116-0.378
		c-0.025-0.121-0.051-0.233-0.076-0.337c-0.027-0.103-0.043-0.206-0.049-0.31c-0.007-0.103-0.029-0.205-0.068-0.309
		c-0.051-0.09-0.074-0.157-0.067-0.203c0.007-0.044,0.003-0.094-0.009-0.145c0-0.039-0.004-0.077-0.01-0.116
		c-0.008-0.038-0.018-0.09-0.029-0.154c-0.064-0.489-0.084-1.022-0.059-1.603c0.014-0.052,0.02-0.097,0.02-0.135
		c0-0.039,0.006-0.084,0.02-0.136c0.014-0.167,0.029-0.309,0.049-0.425c0.019-0.115,0.041-0.225,0.067-0.328
		c0.013-0.065,0.028-0.136,0.048-0.212c0.02-0.078,0.042-0.148,0.068-0.213c0.012-0.052,0.02-0.097,0.02-0.136
		s0.006-0.084,0.018-0.135c0.014-0.039,0.023-0.08,0.029-0.126c0.008-0.044,0.016-0.08,0.029-0.105
		c0.039-0.104,0.064-0.158,0.078-0.164c0.012-0.007,0.025-0.022,0.038-0.049c0.025-0.104,0.045-0.187,0.058-0.251
		c0.052-0.065,0.078-0.112,0.078-0.145c0-0.033,0.012-0.062,0.037-0.087c0.064-0.09,0.094-0.142,0.088-0.155
		c-0.007-0.012-0.004-0.031,0.01-0.057c0.025-0.078,0.058-0.159,0.097-0.241c0.038-0.085,0.07-0.158,0.097-0.223
		c0.064-0.09,0.093-0.155,0.086-0.193c-0.006-0.038,0.004-0.071,0.029-0.097c0.025-0.039,0.051-0.093,0.077-0.164
		c0.026-0.07,0.052-0.139,0.077-0.202c0.026-0.053,0.049-0.095,0.068-0.126c0.02-0.032,0.035-0.062,0.049-0.087
		c0.051-0.104,0.102-0.175,0.153-0.212c0.013-0.027,0.029-0.059,0.049-0.098c0.019-0.038,0.041-0.07,0.067-0.097
		c0.025-0.025,0.045-0.058,0.059-0.096c0.012-0.039,0.031-0.078,0.057-0.116c0.064-0.115,0.113-0.196,0.146-0.242
		c0.032-0.044,0.061-0.093,0.087-0.145c0.064-0.103,0.105-0.167,0.125-0.192c0.02-0.026,0.049-0.051,0.088-0.078
		c0.128-0.063,0.211-0.128,0.25-0.192c0.025-0.026,0.051-0.051,0.078-0.078c0.025-0.025,0.051-0.051,0.077-0.076
		c0.116-0.104,0.177-0.151,0.183-0.145c0.007,0.006,0.016,0.003,0.029-0.011c0.051-0.064,0.09-0.104,0.116-0.115
		c0.025-0.013,0.052-0.032,0.077-0.059c0.077-0.038,0.167-0.096,0.271-0.173c0.064-0.013,0.106-0.029,0.126-0.05
		c0.019-0.018,0.041-0.034,0.066-0.048c0.104-0.076,0.22-0.129,0.348-0.154c0.129-0.025,0.264-0.051,0.406-0.077
		c0.167-0.051,0.286-0.081,0.357-0.086c0.07-0.007,0.145-0.018,0.222-0.029c0.155-0.039,0.238-0.065,0.251-0.078
		c0.154-0.038,0.238-0.054,0.251-0.048s0.032,0.01,0.058,0.01c0.064-0.013,0.136-0.022,0.213-0.029
		c0.077-0.006,0.148-0.016,0.213-0.028c0.141-0.013,0.283-0.026,0.424-0.039c0.143-0.013,0.29-0.019,0.445-0.019
		c0.141,0,0.289,0.006,0.443,0.019s0.283,0.045,0.387,0.097c0.025,0,0.058-0.007,0.096-0.02c0.039-0.013,0.078-0.006,0.117,0.02
		c0.051,0.038,0.102,0.058,0.153,0.058s0.104,0.013,0.155,0.039c0.129,0.025,0.219,0.045,0.27,0.058
		c0.039,0.013,0.084,0.023,0.136,0.029S22.392,8,22.43,8.025c0.026,0.013,0.058,0.029,0.097,0.048
		c0.039,0.021,0.07,0.042,0.098,0.068c0.076,0.039,0.156,0.073,0.24,0.106c0.084,0.031,0.171,0.067,0.261,0.106
		c0.026,0.012,0.055,0.031,0.087,0.058c0.032,0.025,0.074,0.038,0.125,0.038c0.026,0.065,0.074,0.109,0.146,0.136
		c0.07,0.025,0.138,0.064,0.202,0.115c0.104,0.104,0.175,0.155,0.213,0.155c0.09,0.09,0.152,0.157,0.184,0.203
		c0.031,0.044,0.061,0.08,0.087,0.105L24.4,9.281c0.051,0.025,0.094,0.048,0.126,0.067s0.067,0.035,0.106,0.048
		c0.076,0.09,0.156,0.167,0.241,0.231c0.083,0.065,0.171,0.143,0.261,0.232c0.025,0.026,0.048,0.055,0.067,0.088
		c0.02,0.031,0.055,0.054,0.106,0.066c0.076-0.038,0.145-0.077,0.203-0.116c0.058-0.038,0.118-0.096,0.184-0.173
		c0.025-0.064,0.047-0.107,0.066-0.126c0.02-0.02,0.043-0.042,0.068-0.067c0.077-0.09,0.132-0.161,0.164-0.212
		c0.031-0.053,0.067-0.104,0.105-0.155l0.213-0.425c0.104-0.154,0.16-0.247,0.174-0.281c0.013-0.031,0.031-0.066,0.059-0.104
		c0.025-0.039,0.048-0.075,0.067-0.106c0.019-0.033,0.041-0.067,0.067-0.106c0.013-0.026,0.025-0.062,0.039-0.107
		c0.012-0.044,0.025-0.079,0.037-0.104c0.027-0.026,0.049-0.059,0.068-0.098c0.02-0.038,0.041-0.07,0.068-0.096
		c0.025-0.052,0.038-0.1,0.038-0.145s0.013-0.101,0.038-0.165c0.039-0.128,0.068-0.2,0.088-0.212
		c0.02-0.013,0.029-0.032,0.029-0.059c0.025-0.051,0.037-0.1,0.037-0.144c0-0.046,0.014-0.101,0.039-0.164
		c0.014-0.053,0.029-0.106,0.049-0.166C27.23,6.626,27.251,6.564,27.278,6.5z"/>
	<path fill="#545454" d="M34.365,15.074c-0.09-0.064-0.105-0.118-0.048-0.165c0.058-0.043,0.1-0.104,0.126-0.183
		c0.038-0.154,0.02-0.296-0.059-0.425c-0.116,0-0.215,0.029-0.299,0.087s-0.158,0.126-0.223,0.202
		c-0.129,0.194-0.219,0.355-0.271,0.483c-0.063,0.258-0.081,0.406-0.048,0.444c0.031,0.038,0.1,0.09,0.203,0.154
		c0.18,0.09,0.354,0.162,0.521,0.213s0.303,0.059,0.406,0.02c0.051-0.014,0.108-0.059,0.173-0.136s0.116-0.147,0.155-0.213
		c0.038-0.051,0.083-0.112,0.136-0.184c0.051-0.07,0.096-0.138,0.135-0.202c0.025-0.064,0.045-0.106,0.058-0.125
		c0.013-0.02,0.025-0.042,0.038-0.068c0.039-0.219,0.078-0.379,0.117-0.482c0.037-0.104,0.045-0.225,0.02-0.366
		c0-0.065-0.014-0.148-0.039-0.251c-0.014-0.039-0.02-0.078-0.02-0.117c0-0.038-0.007-0.07-0.02-0.096
		c-0.09-0.116-0.139-0.185-0.145-0.203c-0.008-0.02-0.018-0.036-0.029-0.048c-0.078-0.104-0.125-0.184-0.145-0.242
		c-0.02-0.058-0.043-0.106-0.068-0.145c-0.038-0.052-0.067-0.101-0.087-0.145c-0.019-0.046-0.042-0.08-0.067-0.107
		c-0.051-0.037-0.129-0.076-0.231-0.115c-0.103-0.038-0.206-0.045-0.31-0.02c-0.18,0.039-0.296,0.071-0.348,0.098
		c-0.051,0.025-0.109,0.051-0.174,0.076c-0.051,0.026-0.109,0.039-0.174,0.039s-0.129,0.012-0.192,0.039
		c-0.065,0.025-0.123,0.058-0.174,0.097c-0.052,0.038-0.11,0.07-0.174,0.096c-0.077,0.051-0.148,0.09-0.213,0.116
		c-0.063,0.026-0.115,0.052-0.153,0.077c-0.091,0.051-0.175,0.122-0.252,0.212s-0.161,0.188-0.251,0.29
		c-0.103,0.129-0.157,0.206-0.164,0.232s-0.022,0.051-0.048,0.077c-0.026,0.025-0.049,0.058-0.068,0.096
		c-0.02,0.039-0.042,0.07-0.067,0.097c-0.052,0.052-0.084,0.094-0.097,0.125c-0.013,0.033-0.025,0.062-0.039,0.088
		c-0.025,0.051-0.055,0.115-0.086,0.193c-0.033,0.077-0.068,0.147-0.106,0.212c-0.077,0.154-0.132,0.287-0.164,0.396
		c-0.032,0.109-0.067,0.229-0.106,0.358c-0.025,0.076-0.059,0.147-0.097,0.212s-0.064,0.129-0.077,0.193
		c-0.025,0.142-0.029,0.289-0.01,0.443s0.029,0.303,0.029,0.444c0,0.129-0.004,0.2-0.01,0.213c-0.007,0.013-0.01,0.032-0.01,0.058
		c0.025,0.322,0.029,0.692,0.01,1.111c-0.02,0.418-0.016,0.774,0.01,1.07c0.013,0.065,0.022,0.133,0.029,0.203
		c0.006,0.07,0.016,0.146,0.028,0.222c0,0.078,0,0.155,0,0.233c0,0.076,0.013,0.135,0.038,0.173
		c0.039,0.104,0.129,0.209,0.271,0.317c0.141,0.11,0.264,0.197,0.366,0.262l0.213,0.154c0.103,0.052,0.171,0.087,0.202,0.107
		c0.032,0.019,0.068,0.041,0.107,0.067c0.063,0.038,0.135,0.076,0.212,0.115s0.128,0.109,0.154,0.212
		c-0.154,0.065-0.312,0.109-0.474,0.136c-0.16,0.026-0.344,0.052-0.55,0.077c-0.104,0.013-0.203,0.026-0.3,0.039
		c-0.096,0.013-0.203,0.026-0.318,0.038c-0.039,0-0.084,0.003-0.135,0.011c-0.053,0.006-0.098,0.009-0.136,0.009
		c-0.064,0-0.122-0.007-0.173-0.02c-0.053-0.012-0.104-0.025-0.155-0.038c-0.091,0-0.181,0.007-0.271,0.019
		c-0.09,0.013-0.174,0.008-0.251-0.019c-0.038,0-0.077-0.007-0.116-0.02c-0.038-0.013-0.076-0.025-0.115-0.039
		c-0.064-0.025-0.125-0.038-0.184-0.038s-0.113-0.013-0.164-0.038c-0.104-0.027-0.219-0.052-0.348-0.078
		c-0.129-0.025-0.244-0.051-0.348-0.077c-0.052,0.038-0.094,0.035-0.125-0.01c-0.033-0.045-0.063-0.08-0.088-0.106
		c0.116-0.077,0.196-0.122,0.242-0.135c0.045-0.013,0.08-0.032,0.105-0.058c0.129-0.09,0.21-0.151,0.242-0.184
		c0.031-0.033,0.066-0.067,0.105-0.106c0.116-0.064,0.19-0.119,0.223-0.164c0.031-0.045,0.074-0.094,0.125-0.146
		c0.09-0.064,0.146-0.103,0.164-0.115c0.02-0.013,0.042-0.031,0.068-0.058c0.103-0.077,0.166-0.143,0.193-0.193
		c0.025-0.051,0.058-0.096,0.096-0.135c-0.025-0.051-0.029-0.106-0.01-0.166c0.02-0.056,0.029-0.118,0.029-0.183
		c0-0.025-0.007-0.058-0.02-0.096c-0.013-0.039-0.013-0.077,0-0.116c0-0.039,0.01-0.081,0.029-0.125
		c0.02-0.046,0.035-0.095,0.049-0.146c0-0.051-0.008-0.096-0.02-0.135c-0.014-0.039-0.02-0.09-0.02-0.154
		c0-0.077,0.003-0.161,0.01-0.251c0.006-0.09,0.003-0.188-0.01-0.29c0-0.039-0.004-0.081-0.01-0.126
		c-0.007-0.045-0.01-0.086-0.01-0.125c0-0.064,0.01-0.126,0.029-0.184s0.035-0.119,0.048-0.184c0.013-0.116,0.02-0.235,0.02-0.357
		s0.013-0.215,0.038-0.279c0.014-0.026,0.016-0.063,0.01-0.107s-0.01-0.093-0.01-0.144c0.014-0.181,0.01-0.316-0.01-0.406
		s-0.035-0.174-0.048-0.251s-0.022-0.157-0.028-0.241c-0.008-0.084-0.017-0.171-0.029-0.261c0-0.065-0.007-0.126-0.02-0.184
		c-0.013-0.059-0.025-0.118-0.039-0.184c-0.038-0.142-0.074-0.303-0.105-0.483c-0.033-0.18-0.062-0.354-0.088-0.521
		c-0.012-0.039-0.031-0.109-0.057-0.212c-0.026-0.129-0.049-0.242-0.068-0.338c-0.02-0.098-0.048-0.203-0.087-0.319
		c-0.026-0.064-0.048-0.132-0.067-0.203s-0.042-0.132-0.068-0.184c-0.025-0.025-0.055-0.051-0.086-0.076
		c-0.032-0.026-0.074-0.059-0.125-0.097c-0.027-0.027-0.056-0.052-0.088-0.078c-0.032-0.025-0.061-0.051-0.086-0.076
		c-0.168-0.065-0.291-0.123-0.367-0.175c-0.064-0.025-0.129-0.048-0.193-0.066c-0.064-0.021-0.129-0.042-0.193-0.068
		c-0.193-0.116-0.303-0.187-0.328-0.213c-0.129-0.103-0.209-0.153-0.242-0.153c-0.031,0-0.047-0.026-0.047-0.078
		c0.025-0.051,0.07-0.077,0.135-0.077s0.123,0.007,0.174,0.02c0.051,0.038,0.103,0.058,0.154,0.058c0.051,0,0.09,0,0.115,0
		c0.052,0.013,0.1,0.025,0.145,0.039c0.045,0.013,0.1,0.02,0.165,0.02c0.052,0,0.103-0.007,0.154-0.02
		c0.052-0.014,0.108-0.014,0.174,0c0.129,0,0.257,0.006,0.387,0.02c0.128,0.012,0.257,0.02,0.386,0.02
		c0.039,0,0.08-0.005,0.125-0.011s0.088-0.009,0.126-0.009c0.052,0,0.106,0.006,0.165,0.02c0.057,0.012,0.111,0.019,0.164,0.019
		c0.051,0,0.1-0.007,0.145-0.019c0.045-0.014,0.093-0.02,0.145-0.02c0.025,0,0.059,0.003,0.097,0.009s0.077,0.011,0.116,0.011
		c0.063,0,0.146,0,0.25,0s0.188,0.025,0.252,0.076c0.012,0.104,0.006,0.193-0.02,0.271c-0.026,0.078-0.045,0.161-0.059,0.251
		c-0.013,0.143-0.016,0.283-0.01,0.425c0.007,0.143,0.01,0.277,0.01,0.405c0.014,0.104,0.017,0.203,0.01,0.3
		c-0.006,0.097-0.022,0.196-0.048,0.3c-0.013,0.039-0.02,0.106-0.02,0.202c0,0.097-0.007,0.184-0.019,0.262
		c0.076-0.104,0.121-0.158,0.135-0.165c0.012-0.006,0.025-0.022,0.039-0.048l0.23-0.482c0.026-0.027,0.049-0.056,0.068-0.087
		c0.02-0.033,0.035-0.068,0.049-0.106c0.063-0.116,0.096-0.2,0.096-0.251c0.116-0.142,0.187-0.236,0.213-0.281
		c0.025-0.045,0.058-0.093,0.096-0.144c0.026-0.039,0.059-0.085,0.098-0.136c0.038-0.051,0.076-0.104,0.115-0.154
		c0.09-0.104,0.158-0.184,0.203-0.241c0.045-0.059,0.087-0.113,0.125-0.164c0.116-0.09,0.232-0.155,0.348-0.194
		c0.051-0.063,0.119-0.115,0.203-0.153c0.083-0.039,0.17-0.078,0.261-0.116c0.116-0.065,0.187-0.094,0.212-0.088
		c0.025,0.008,0.059,0.004,0.098-0.009c0.076-0.025,0.166-0.054,0.27-0.087c0.104-0.032,0.231-0.035,0.387-0.01
		c0.064,0.013,0.135,0.046,0.212,0.097s0.155,0.097,0.231,0.135c0.039,0.026,0.109,0.065,0.213,0.116
		c0.051,0.025,0.1,0.042,0.145,0.049c0.045,0.006,0.08,0.021,0.106,0.048c0.142,0.128,0.247,0.219,0.318,0.27
		c0.071,0.052,0.132,0.104,0.185,0.155c0.102,0.064,0.202,0.129,0.299,0.193c0.096,0.064,0.17,0.129,0.222,0.193
		c0.025,0.025,0.042,0.058,0.048,0.097c0.007,0.038,0.022,0.07,0.049,0.096c0.09,0.129,0.145,0.248,0.164,0.357
		s0.035,0.216,0.049,0.318c0.025,0.181,0.035,0.342,0.028,0.483s-0.022,0.282-0.048,0.425c-0.039,0.142-0.055,0.229-0.049,0.261
		s0.004,0.061-0.01,0.087c-0.012,0.038-0.029,0.074-0.047,0.106c-0.02,0.031-0.037,0.067-0.049,0.106
		c-0.014,0.051-0.02,0.096-0.02,0.135c0,0.038-0.007,0.077-0.02,0.116c-0.026,0.051-0.058,0.099-0.097,0.145
		c-0.038,0.044-0.071,0.093-0.097,0.145c-0.039,0.09-0.074,0.147-0.105,0.175c-0.033,0.025-0.049,0.063-0.049,0.115
		c-0.104,0.051-0.184,0.105-0.242,0.163c-0.057,0.06-0.125,0.119-0.202,0.184c-0.063,0.065-0.122,0.109-0.173,0.136
		c-0.039,0.025-0.068,0.036-0.088,0.028c-0.02-0.006-0.067-0.003-0.145,0.011c-0.064,0.012-0.1,0.025-0.105,0.039
		c-0.008,0.012-0.056,0.012-0.146,0c-0.052-0.014-0.11-0.027-0.174-0.039c-0.064-0.014-0.129-0.026-0.193-0.039
		c-0.038-0.012-0.077-0.017-0.116-0.01c-0.038,0.007-0.07,0.003-0.096-0.01c-0.182-0.077-0.303-0.119-0.367-0.124
		c-0.064-0.008-0.129-0.023-0.193-0.05c-0.064-0.013-0.113-0.028-0.145-0.049c-0.032-0.018-0.081-0.041-0.145-0.067
		c-0.09-0.025-0.197-0.063-0.319-0.115c-0.122-0.051-0.196-0.103-0.222-0.154c-0.026-0.038-0.036-0.081-0.029-0.126
		c0.006-0.045,0.003-0.1-0.01-0.164c-0.025-0.206-0.025-0.398,0-0.579c0.013-0.052,0.02-0.106,0.02-0.164
		c0-0.059,0.006-0.119,0.02-0.184c0.012-0.039,0.031-0.077,0.059-0.116c0.025-0.039,0.045-0.076,0.057-0.115
		c0.039-0.104,0.064-0.158,0.078-0.164c0.012-0.007,0.019-0.017,0.019-0.029c0.026-0.077,0.09-0.155,0.194-0.231
		c0.102-0.077,0.176-0.126,0.221-0.146c0.045-0.018,0.139-0.04,0.28-0.065c0.155-0.014,0.29-0.014,0.405,0
		c0.052,0.012,0.1,0.037,0.146,0.076c0.045,0.039,0.093,0.07,0.145,0.097c0.025,0.025,0.064,0.048,0.116,0.068
		c0.051,0.019,0.09,0.055,0.115,0.105c0.025,0.116,0.016,0.212-0.029,0.29c-0.045,0.076-0.093,0.147-0.145,0.212
		c-0.025,0.039-0.048,0.078-0.067,0.115c-0.019,0.039-0.042,0.072-0.067,0.098s-0.049,0.062-0.067,0.106
		S34.429,15.101,34.365,15.074z"/>
	<path fill="#545454" d="M40.139,12.525c0.013,0.064,0.01,0.115-0.01,0.154c-0.019,0.039-0.028,0.09-0.028,0.154
		c0,0.09,0.01,0.181,0.028,0.271c0.02,0.09,0.022,0.181,0.01,0.271c0,0.064-0.003,0.126-0.01,0.183
		c-0.007,0.06-0.017,0.12-0.028,0.184c-0.027,0.245-0.043,0.52-0.049,0.821c-0.006,0.304-0.023,0.597-0.049,0.879
		c-0.012,0.142-0.031,0.28-0.057,0.416c-0.026,0.134-0.046,0.272-0.059,0.414c0,0.142,0.006,0.271,0.02,0.386
		c0.013,0.116,0.02,0.239,0.02,0.368c-0.014,0.09-0.023,0.184-0.029,0.279c-0.007,0.097-0.022,0.196-0.049,0.299
		c-0.025,0.143-0.031,0.303-0.019,0.483s0.025,0.348,0.038,0.502s0.025,0.31,0.039,0.464c0.013,0.154,0.031,0.302,0.058,0.444
		c0.026,0.09,0.062,0.181,0.106,0.271s0.087,0.173,0.125,0.251c0.052,0.142,0.084,0.215,0.098,0.222
		c0.012,0.006,0.025,0.017,0.037,0.029c0.053,0.104,0.104,0.18,0.155,0.231c0.025,0.038,0.055,0.077,0.087,0.115
		c0.032,0.039,0.061,0.071,0.087,0.098c0.038,0.064,0.09,0.115,0.154,0.154c0.064,0.038,0.129,0.09,0.193,0.154
		c0.103,0.116,0.171,0.184,0.202,0.203c0.032,0.018,0.042,0.048,0.029,0.086c-0.064,0.013-0.123,0.023-0.174,0.03
		c-0.051,0.006-0.109,0.015-0.174,0.028c-0.115,0.025-0.199,0.051-0.251,0.076c-0.09,0.014-0.181,0.02-0.271,0.02
		s-0.187,0.008-0.289,0.02c-0.116,0.039-0.178,0.051-0.184,0.039c-0.007-0.013-0.022-0.02-0.049-0.02
		c-0.18,0.039-0.341,0.07-0.482,0.097s-0.277,0.052-0.406,0.077c-0.115,0.026-0.221,0.046-0.318,0.058
		c-0.096,0.013-0.196,0.032-0.299,0.059c-0.025,0.013-0.059,0.028-0.096,0.049c-0.039,0.019-0.072,0.035-0.098,0.047
		c-0.09,0.026-0.178,0.033-0.26,0.02c-0.085-0.012-0.172-0.006-0.262,0.02c0.078-0.154,0.129-0.244,0.154-0.271
		c0.026-0.025,0.052-0.051,0.078-0.076c0.076-0.129,0.138-0.22,0.184-0.271c0.045-0.051,0.093-0.09,0.145-0.115
		c0.013-0.104,0.064-0.2,0.154-0.29c0.051-0.065,0.1-0.142,0.145-0.231s0.088-0.181,0.125-0.271
		c0.078-0.142,0.127-0.257,0.146-0.347c0.02-0.09,0.029-0.181,0.029-0.271c0.013-0.104,0.013-0.204,0-0.3
		c-0.013-0.098-0.02-0.195-0.02-0.3c0.013-0.077,0.025-0.157,0.039-0.241c0.013-0.084,0.025-0.164,0.038-0.242
		c0.013-0.103,0.02-0.205,0.02-0.308c0-0.104,0-0.2,0-0.29c0-0.064-0.007-0.12-0.02-0.164c-0.013-0.046-0.02-0.1-0.02-0.164
		c0-0.143-0.013-0.245-0.038-0.31c-0.026-0.063-0.077-0.108-0.155-0.136c-0.064-0.154-0.096-0.25-0.096-0.289
		c0-0.038,0.02-0.09,0.058-0.154c0.103-0.167,0.174-0.27,0.213-0.309c0.038-0.039,0.07-0.09,0.097-0.155
		c0-0.09,0.006-0.174,0.02-0.25c0.012-0.078,0.031-0.155,0.057-0.231L39,15.712c0-0.065,0.004-0.125,0.01-0.184
		c0.006-0.058,0.01-0.118,0.01-0.184c0-0.064,0.003-0.132,0.01-0.203c0.006-0.07,0.003-0.145-0.01-0.222
		c-0.014-0.039-0.029-0.084-0.049-0.135s-0.041-0.104-0.066-0.155c-0.039-0.193-0.11-0.341-0.213-0.444
		c-0.115-0.142-0.258-0.276-0.426-0.405c-0.037-0.025-0.08-0.051-0.125-0.077c-0.045-0.025-0.087-0.052-0.125-0.077
		c-0.064-0.026-0.115-0.055-0.154-0.087s-0.071-0.055-0.097-0.068c-0.052-0.025-0.101-0.034-0.146-0.028s-0.094-0.003-0.145-0.028
		c-0.154-0.065-0.252-0.101-0.289-0.106c-0.039-0.007-0.065-0.029-0.078-0.068c-0.064,0-0.123-0.016-0.174-0.047
		c-0.051-0.033-0.103-0.068-0.154-0.107c-0.154-0.09-0.219-0.174-0.193-0.251c0.026-0.076,0.123-0.109,0.291-0.096
		c0.166,0.012,0.309,0.006,0.424-0.02c0.116-0.026,0.177-0.036,0.184-0.028c0.006,0.006,0.016,0.009,0.029,0.009
		c0.076,0,0.125-0.003,0.145-0.009c0.02-0.008,0.041-0.011,0.067-0.011c0.039,0,0.08-0.007,0.126-0.02
		c0.045-0.012,0.1-0.02,0.164-0.02c0.064-0.012,0.119-0.022,0.164-0.028s0.086-0.017,0.125-0.029c0.129,0.013,0.203,0.013,0.223,0
		s0.041-0.02,0.067-0.02c0.142,0.014,0.251,0.017,0.329,0.01c0.076-0.006,0.146-0.01,0.212-0.01c0.142,0,0.299-0.009,0.474-0.028
		C39.782,12.516,39.958,12.513,40.139,12.525z M38.904,9.552c0.038-0.026,0.102-0.028,0.192-0.011
		c0.09,0.021,0.167,0.036,0.231,0.049c0.078,0.026,0.158,0.042,0.242,0.049c0.084,0.006,0.156,0.022,0.222,0.048
		c0.052,0.026,0.109,0.084,0.174,0.174c0.026,0.026,0.055,0.051,0.087,0.077c0.031,0.025,0.055,0.051,0.067,0.077
		c0.052,0.128,0.094,0.225,0.126,0.289c0.031,0.065,0.055,0.129,0.067,0.193c-0.077,0.231-0.154,0.374-0.231,0.426
		c-0.129,0.115-0.216,0.212-0.261,0.289c-0.046,0.077-0.12,0.129-0.222,0.155c-0.039,0.012-0.11,0.02-0.213,0.02
		c-0.143,0.037-0.232,0.054-0.271,0.047c-0.038-0.006-0.077-0.002-0.116,0.01c-0.192,0.014-0.324-0.003-0.396-0.048
		c-0.07-0.045-0.138-0.08-0.202-0.106c-0.038-0.077-0.073-0.158-0.106-0.241c-0.031-0.083-0.061-0.177-0.086-0.28
		c-0.014-0.076-0.02-0.135-0.02-0.174c0-0.038,0-0.103,0-0.192c0.025-0.168,0.074-0.283,0.145-0.349
		c0.07-0.064,0.126-0.128,0.164-0.192c0.078-0.09,0.119-0.143,0.125-0.154c0.008-0.013,0.023-0.026,0.049-0.039
		c0.025-0.025,0.064-0.045,0.116-0.059C38.838,9.597,38.877,9.577,38.904,9.552z"/>
	<path fill="#545454" d="M43.229,15.576c-0.052,0-0.119-0.003-0.203-0.01c-0.083-0.006-0.157-0.016-0.222-0.029
		c-0.231-0.037-0.416-0.063-0.551-0.076c-0.135-0.014-0.248-0.02-0.338-0.02c-0.142,0-0.254-0.007-0.338-0.02
		c-0.084-0.012-0.133-0.058-0.145-0.136c-0.013-0.103,0.029-0.166,0.125-0.192c0.098-0.026,0.196-0.052,0.3-0.077
		c0.064-0.013,0.112-0.026,0.146-0.039c0.031-0.013,0.066-0.007,0.105,0.02c0.193,0.013,0.313,0.007,0.357-0.02
		s0.119-0.031,0.222-0.019c0.103-0.013,0.171-0.027,0.203-0.039c0.032-0.013,0.073-0.02,0.126-0.02
		c0.09,0.014,0.141,0.017,0.154,0.009c0.012-0.006,0.045-0.015,0.096-0.028c0.026-0.192,0.039-0.363,0.039-0.512
		c0-0.147,0.006-0.299,0.02-0.454c0-0.115,0.003-0.222,0.01-0.318c0.006-0.096,0.021-0.209,0.048-0.338
		c0.026-0.104,0.045-0.174,0.058-0.213c0-0.128,0-0.198,0-0.212c-0.013-0.051-0.02-0.129-0.02-0.231c0-0.104,0.007-0.193,0.02-0.271
		c0-0.143,0.025-0.296,0.078-0.464c0.025-0.076,0.041-0.151,0.048-0.222c0.007-0.071,0.022-0.157,0.048-0.26
		c0.025-0.104,0.059-0.204,0.098-0.301c0.038-0.096,0.063-0.202,0.076-0.318c0.025-0.025,0.052-0.064,0.078-0.115
		c0.025-0.051,0.051-0.104,0.076-0.155c0.053-0.076,0.09-0.141,0.116-0.193c0.026-0.037,0.062-0.076,0.106-0.115
		s0.087-0.084,0.125-0.136c0.052-0.076,0.09-0.125,0.116-0.144c0.026-0.021,0.052-0.049,0.077-0.088
		c0.09-0.076,0.136-0.135,0.136-0.174c0.115-0.115,0.183-0.174,0.202-0.174s0.042-0.007,0.068-0.019
		c0.141-0.104,0.247-0.181,0.318-0.232c0.07-0.051,0.145-0.109,0.222-0.173c0.09-0.065,0.196-0.123,0.319-0.174
		c0.122-0.053,0.229-0.116,0.318-0.194c0.09-0.025,0.154-0.057,0.193-0.096c0.064-0.026,0.125-0.049,0.184-0.067
		c0.058-0.021,0.118-0.042,0.184-0.068c0.025-0.025,0.055-0.045,0.086-0.058c0.033-0.013,0.068-0.038,0.106-0.077
		c0.052-0.013,0.103-0.02,0.155-0.02c0.051,0,0.102-0.006,0.154-0.02c0.051-0.051,0.096-0.073,0.135-0.067s0.07-0.017,0.096-0.067
		c0.09,0.013,0.175,0.01,0.252-0.009c0.078-0.021,0.148-0.042,0.213-0.068c0.103-0.026,0.23-0.016,0.386,0.029
		s0.296,0.106,0.425,0.183c0.141,0.104,0.219,0.168,0.231,0.193c0.129,0.128,0.21,0.212,0.241,0.251
		c0.033,0.039,0.061,0.077,0.088,0.116c0.025,0.025,0.048,0.055,0.067,0.086c0.019,0.033,0.041,0.062,0.067,0.088
		c0.09,0.181,0.145,0.31,0.164,0.386c0.02,0.077,0.041,0.148,0.067,0.212c0.026,0.065,0.055,0.137,0.087,0.213
		c0.032,0.077,0.055,0.148,0.068,0.212l0.02,0.349c-0.027,0.025-0.033,0.097-0.02,0.212c0.012,0.116,0.02,0.2,0.02,0.251
		c-0.014,0.064-0.027,0.132-0.039,0.203c-0.014,0.071-0.033,0.145-0.059,0.222c-0.013,0.064-0.02,0.14-0.02,0.223
		s-0.006,0.157-0.019,0.222c-0.077,0.206-0.136,0.36-0.175,0.464c-0.037,0.103-0.076,0.206-0.115,0.31l-0.115,0.231
		c-0.053,0.09-0.084,0.138-0.098,0.144c-0.012,0.008-0.025,0.022-0.038,0.049c-0.09,0.154-0.139,0.232-0.145,0.232
		c-0.007,0-0.022,0.02-0.049,0.058c-0.077,0.104-0.167,0.187-0.271,0.251c-0.051,0.026-0.105,0.058-0.164,0.097
		c-0.057,0.039-0.119,0.07-0.184,0.097c-0.141,0.077-0.276,0.147-0.405,0.213c-0.128,0.064-0.303,0.064-0.521,0
		c-0.104-0.027-0.203-0.059-0.301-0.098c-0.096-0.038-0.195-0.083-0.299-0.135c-0.051-0.038-0.096-0.061-0.135-0.068
		c-0.039-0.006-0.071-0.021-0.097-0.048c-0.091-0.09-0.138-0.132-0.146-0.124c-0.006,0.005-0.016,0.002-0.028-0.011
		c-0.026-0.039-0.067-0.081-0.126-0.126c-0.058-0.045-0.1-0.1-0.125-0.164c-0.039-0.051-0.077-0.109-0.115-0.174
		c-0.039-0.063-0.072-0.122-0.098-0.173c-0.025-0.053-0.048-0.126-0.067-0.223c-0.02-0.096-0.028-0.196-0.028-0.3
		c0.012-0.051,0.035-0.116,0.067-0.192c0.031-0.077,0.061-0.161,0.087-0.251c0.09-0.154,0.148-0.251,0.174-0.29
		c0.115-0.154,0.186-0.251,0.213-0.29c0.025-0.038,0.082-0.084,0.173-0.135l0.231-0.115c0.064-0.053,0.106-0.085,0.126-0.098
		c0.02-0.012,0.055-0.026,0.106-0.038c0.064-0.025,0.121-0.032,0.174-0.02c0.051,0.013,0.122,0.026,0.213,0.039
		c0.037,0.038,0.09,0.077,0.154,0.116c0.063,0.037,0.128,0.09,0.193,0.154c0.064,0.051,0.125,0.104,0.183,0.164
		c0.058,0.057,0.093,0.112,0.106,0.163c0.013,0.053,0.013,0.098,0,0.136c-0.014,0.039-0.026,0.084-0.039,0.135
		c-0.013,0.039-0.02,0.081-0.02,0.126s-0.013,0.081-0.038,0.106c-0.065,0.064-0.12,0.106-0.164,0.125
		c-0.046,0.02-0.081,0.048-0.106,0.087c-0.154-0.025-0.268-0.064-0.338-0.115s-0.067-0.155,0.01-0.31
		c0.064-0.09,0.104-0.183,0.115-0.28c0.014-0.096-0.012-0.189-0.076-0.279c-0.143-0.026-0.246-0.007-0.309,0.058
		c-0.065,0.065-0.149,0.116-0.252,0.155c-0.051,0.115-0.104,0.212-0.154,0.289c-0.026,0.052-0.055,0.1-0.087,0.146
		c-0.032,0.044-0.056,0.093-0.067,0.145c0,0.063,0.012,0.15,0.038,0.26c0.025,0.11,0.045,0.203,0.058,0.281
		c0.013,0.115,0.026,0.181,0.039,0.192c0.013,0.013,0.025,0.032,0.039,0.059c0.09,0.09,0.166,0.161,0.231,0.212
		c0.064,0.051,0.128,0.09,0.192,0.115c0.025,0.014,0.098,0.02,0.213,0.02c0.129,0.051,0.215,0.07,0.261,0.059
		c0.045-0.013,0.093-0.008,0.146,0.02c0.205,0,0.344-0.027,0.414-0.078s0.133-0.103,0.184-0.154
		c0.078-0.128,0.135-0.234,0.174-0.318s0.064-0.152,0.078-0.203c0.012-0.039,0.021-0.08,0.028-0.125s0.017-0.087,0.029-0.126
		c0.051-0.181,0.087-0.293,0.106-0.338s0.035-0.099,0.049-0.164c0.012-0.104,0.016-0.199,0.008-0.289
		c-0.006-0.09-0.002-0.188,0.01-0.29c0-0.064,0.008-0.126,0.02-0.184c0.014-0.058,0.02-0.119,0.02-0.184s0-0.126,0-0.184
		s-0.006-0.119-0.02-0.184c0-0.051,0-0.104,0-0.154s-0.006-0.097-0.02-0.136c-0.025-0.115-0.061-0.218-0.105-0.308
		s-0.074-0.188-0.087-0.29c-0.103-0.078-0.187-0.129-0.251-0.154c-0.052-0.026-0.104-0.039-0.154-0.039s-0.104-0.007-0.154-0.02
		c-0.064-0.025-0.123-0.058-0.174-0.097c-0.053-0.038-0.109-0.064-0.174-0.077c-0.116,0-0.199,0.007-0.252,0.02
		c-0.115,0.039-0.195,0.064-0.24,0.077s-0.1,0.026-0.164,0.038c-0.22,0.09-0.361,0.168-0.426,0.232s-0.129,0.122-0.193,0.173
		c-0.115,0.09-0.205,0.158-0.27,0.203s-0.123,0.1-0.174,0.165c-0.116,0.154-0.168,0.231-0.154,0.231
		c-0.039,0.076-0.09,0.148-0.154,0.213c-0.053,0.076-0.098,0.166-0.136,0.271c-0.065,0.103-0.106,0.157-0.126,0.163
		c-0.02,0.007-0.035,0.017-0.048,0.029c-0.064,0.154-0.104,0.258-0.116,0.309c-0.013,0.052-0.032,0.09-0.058,0.116
		c-0.039,0.09-0.071,0.2-0.097,0.328c-0.025,0.116-0.055,0.231-0.086,0.348c-0.033,0.115-0.068,0.244-0.107,0.386
		c-0.025,0.065-0.042,0.12-0.048,0.165c-0.007,0.045-0.022,0.1-0.049,0.164c0.013,0.025,0.007,0.087-0.019,0.184
		c-0.026,0.097-0.052,0.163-0.078,0.202c-0.025,0.129-0.045,0.213-0.057,0.251c-0.039,0.104-0.078,0.2-0.117,0.29
		c-0.038,0.09-0.07,0.193-0.096,0.309c-0.052,0.181-0.094,0.339-0.125,0.473c-0.033,0.137-0.063,0.281-0.088,0.435
		c0.025,0.039,0.068,0.056,0.126,0.05c0.058-0.007,0.106-0.011,0.145-0.011c0.064,0.014,0.147,0.033,0.251,0.059
		c0.18,0.012,0.37,0.012,0.57,0c0.199-0.013,0.402-0.008,0.607,0.02c0.143,0.012,0.216,0.025,0.223,0.038
		c0.006,0.013,0.016,0.02,0.029,0.02l0.424,0.038c0.052,0.013,0.119,0.017,0.203,0.01c0.084-0.006,0.145-0.01,0.184-0.01
		c0.064,0,0.129-0.006,0.193-0.019c0.064-0.014,0.128-0.02,0.193-0.02c0.039,0.013,0.076,0.025,0.115,0.038s0.077,0.02,0.116,0.02
		c0.063,0,0.118-0.007,0.164-0.02c0.044-0.013,0.093-0.013,0.145,0c0.077,0,0.139,0.01,0.185,0.029
		c0.045,0.019,0.117,0.022,0.221,0.01c0.039,0,0.098-0.007,0.174-0.02c0.078-0.013,0.116,0.026,0.116,0.116
		c0,0.064-0.032,0.096-0.097,0.096s-0.142,0.014-0.231,0.039c-0.065,0.026-0.128,0.042-0.192,0.048
		c-0.065,0.007-0.123,0.018-0.175,0.029c-0.271,0.026-0.476,0.052-0.618,0.078c-0.141,0.025-0.341,0.045-0.598,0.057
		c-0.168,0.014-0.291,0.02-0.367,0.02c-0.078,0-0.168,0-0.271,0c-0.116,0.014-0.181,0.017-0.193,0.01
		c-0.013-0.006-0.032-0.01-0.058-0.01c-0.271,0.026-0.538,0.039-0.801,0.039c-0.266,0-0.525,0.031-0.783,0.097
		c-0.025,0.064-0.029,0.128-0.01,0.193c0.02,0.064,0.022,0.135,0.01,0.212c0,0.064-0.003,0.116-0.01,0.154
		c-0.006,0.039,0.003,0.09,0.029,0.154c0.064,0.245,0.106,0.429,0.125,0.551c0.02,0.122,0.042,0.254,0.068,0.396
		c0,0.065,0.006,0.123,0.02,0.175c0.012,0.051,0.019,0.104,0.019,0.154c0.026,0.129,0.039,0.261,0.039,0.395
		c0,0.138,0.013,0.262,0.038,0.378c0.052,0.205,0.09,0.386,0.116,0.54c0.013,0.168,0.038,0.251,0.077,0.251
		c0,0.104,0.006,0.168,0.02,0.193c0.013,0.026,0.025,0.051,0.038,0.078c0.026,0.051,0.042,0.105,0.049,0.164
		c0.006,0.057,0.022,0.118,0.048,0.183c0.025,0.104,0.064,0.206,0.116,0.31c0.052,0.103,0.09,0.205,0.116,0.309
		c0.051,0.18,0.115,0.354,0.193,0.521c0.025,0.065,0.051,0.139,0.076,0.223c0.025,0.083,0.052,0.17,0.078,0.26
		c0.038,0.143,0.045,0.226,0.019,0.251c-0.026,0.027-0.032,0.052-0.019,0.078c-0.129-0.026-0.271-0.026-0.426,0
		c-0.154,0.025-0.309,0.039-0.463,0.039c-0.064-0.014-0.126-0.027-0.184-0.039c-0.058-0.014-0.119-0.02-0.184-0.02
		s-0.125,0.006-0.184,0.02c-0.058,0.012-0.119,0.025-0.184,0.039c-0.129,0-0.273-0.01-0.434-0.03
		c-0.162-0.019-0.313-0.022-0.454-0.009c-0.206,0.064-0.338,0.1-0.396,0.106c-0.059,0.006-0.113,0.041-0.164,0.105
		c-0.026,0.039-0.065,0.052-0.116,0.039c-0.052-0.014-0.091-0.032-0.116-0.059l0.039-0.251c0.064-0.038,0.103-0.073,0.115-0.106
		c0.013-0.032,0.032-0.061,0.059-0.086c0.09-0.154,0.18-0.297,0.27-0.425c0.064-0.065,0.133-0.127,0.203-0.184
		c0.07-0.059,0.119-0.119,0.145-0.185c0.078-0.166,0.136-0.285,0.174-0.355c0.039-0.072,0.078-0.158,0.116-0.262
		c0.09-0.22,0.142-0.454,0.154-0.705c0.013-0.252,0.032-0.466,0.058-0.646c0.025-0.207,0.035-0.354,0.029-0.444
		c-0.007-0.09-0.016-0.187-0.029-0.29c-0.013-0.064-0.022-0.129-0.028-0.193c-0.007-0.063-0.017-0.128-0.029-0.192
		s-0.032-0.126-0.058-0.184s-0.045-0.119-0.059-0.183c-0.025-0.104-0.031-0.207-0.019-0.31c0.013-0.104,0.019-0.206,0.019-0.31
		c0-0.09-0.01-0.181-0.028-0.271c-0.02-0.09-0.022-0.18-0.01-0.27c0-0.09,0.007-0.171,0.02-0.242c0.013-0.07,0.007-0.151-0.02-0.241
		V15.576z"/>
	<path fill="#545454" d="M50.355,15.576c-0.052,0-0.119-0.003-0.203-0.01c-0.084-0.006-0.157-0.016-0.222-0.029
		c-0.231-0.037-0.415-0.063-0.55-0.076c-0.136-0.014-0.248-0.02-0.338-0.02c-0.143,0-0.256-0.007-0.338-0.02
		c-0.085-0.012-0.133-0.058-0.146-0.136c-0.013-0.103,0.028-0.166,0.126-0.192c0.096-0.026,0.195-0.052,0.299-0.077
		c0.064-0.013,0.113-0.026,0.145-0.039s0.068-0.007,0.106,0.02c0.192,0.013,0.312,0.007,0.357-0.02
		c0.045-0.026,0.118-0.031,0.222-0.019c0.104-0.013,0.171-0.027,0.203-0.039c0.032-0.013,0.074-0.02,0.125-0.02
		c0.09,0.014,0.143,0.017,0.155,0.009c0.013-0.006,0.045-0.015,0.097-0.028c0.025-0.192,0.038-0.363,0.038-0.512
		c0-0.147,0.007-0.299,0.019-0.454c0-0.115,0.004-0.222,0.01-0.318c0.008-0.096,0.023-0.209,0.049-0.338
		c0.025-0.104,0.045-0.174,0.059-0.213c0-0.128,0-0.198,0-0.212c-0.014-0.051-0.02-0.129-0.02-0.231c0-0.104,0.006-0.193,0.02-0.271
		c0-0.143,0.025-0.296,0.077-0.464c0.025-0.076,0.041-0.151,0.048-0.222c0.006-0.071,0.022-0.157,0.049-0.26
		c0.025-0.104,0.057-0.204,0.096-0.301c0.039-0.096,0.064-0.202,0.078-0.318c0.025-0.025,0.051-0.064,0.077-0.115
		c0.025-0.051,0.051-0.104,0.077-0.155c0.051-0.076,0.09-0.141,0.115-0.193c0.025-0.037,0.061-0.076,0.106-0.115
		c0.045-0.039,0.087-0.084,0.126-0.136c0.051-0.076,0.09-0.125,0.115-0.144c0.025-0.021,0.051-0.049,0.078-0.088
		c0.09-0.076,0.135-0.135,0.135-0.174c0.115-0.115,0.184-0.174,0.203-0.174c0.019,0,0.041-0.007,0.067-0.019
		c0.142-0.104,0.247-0.181,0.318-0.232c0.07-0.051,0.145-0.109,0.222-0.173c0.09-0.065,0.196-0.123,0.318-0.174
		c0.123-0.053,0.229-0.116,0.319-0.194c0.09-0.025,0.154-0.057,0.192-0.096c0.064-0.026,0.126-0.049,0.184-0.067
		c0.059-0.021,0.119-0.042,0.184-0.068c0.025-0.025,0.055-0.045,0.088-0.058c0.031-0.013,0.066-0.038,0.105-0.077
		c0.051-0.013,0.104-0.02,0.154-0.02c0.052,0,0.104-0.006,0.154-0.02c0.052-0.051,0.098-0.073,0.136-0.067s0.071-0.017,0.097-0.067
		c0.09,0.013,0.174,0.01,0.251-0.009c0.077-0.021,0.147-0.042,0.212-0.068c0.104-0.026,0.232-0.016,0.387,0.029
		s0.296,0.106,0.425,0.183c0.142,0.104,0.219,0.168,0.231,0.193c0.129,0.128,0.209,0.212,0.241,0.251s0.062,0.077,0.087,0.116
		c0.025,0.025,0.049,0.055,0.068,0.086c0.02,0.033,0.041,0.062,0.067,0.088c0.09,0.181,0.145,0.31,0.164,0.386
		c0.02,0.077,0.042,0.148,0.067,0.212c0.025,0.065,0.055,0.137,0.088,0.213c0.031,0.077,0.054,0.148,0.066,0.212l0.02,0.349
		c-0.025,0.025-0.032,0.097-0.02,0.212c0.014,0.116,0.02,0.2,0.02,0.251c-0.014,0.064-0.025,0.132-0.039,0.203
		c-0.012,0.071-0.031,0.145-0.057,0.222c-0.014,0.064-0.02,0.14-0.02,0.223s-0.008,0.157-0.02,0.222
		c-0.078,0.206-0.136,0.36-0.174,0.464c-0.039,0.103-0.078,0.206-0.115,0.31l-0.117,0.231c-0.051,0.09-0.084,0.138-0.096,0.144
		c-0.014,0.008-0.026,0.022-0.039,0.049c-0.09,0.154-0.139,0.232-0.145,0.232c-0.007,0-0.023,0.02-0.049,0.058
		c-0.077,0.104-0.167,0.187-0.27,0.251c-0.053,0.026-0.107,0.058-0.165,0.097s-0.118,0.07-0.183,0.097
		c-0.143,0.077-0.277,0.147-0.406,0.213c-0.129,0.064-0.303,0.064-0.521,0c-0.104-0.027-0.203-0.059-0.299-0.098
		c-0.097-0.038-0.197-0.083-0.3-0.135c-0.052-0.038-0.097-0.061-0.135-0.068c-0.038-0.006-0.071-0.021-0.097-0.048
		c-0.09-0.09-0.139-0.132-0.145-0.124c-0.007,0.005-0.017,0.002-0.029-0.011c-0.025-0.039-0.067-0.081-0.125-0.126
		c-0.059-0.045-0.101-0.1-0.126-0.164c-0.038-0.051-0.077-0.109-0.116-0.174c-0.038-0.063-0.07-0.122-0.096-0.173
		c-0.027-0.053-0.049-0.126-0.068-0.223c-0.02-0.096-0.029-0.196-0.029-0.3c0.014-0.051,0.035-0.116,0.068-0.192
		c0.031-0.077,0.061-0.161,0.087-0.251c0.09-0.154,0.147-0.251,0.173-0.29c0.117-0.154,0.188-0.251,0.213-0.29
		c0.025-0.038,0.084-0.084,0.174-0.135l0.232-0.115c0.063-0.053,0.105-0.085,0.125-0.098c0.02-0.012,0.055-0.026,0.106-0.038
		c0.063-0.025,0.122-0.032,0.173-0.02c0.052,0.013,0.123,0.026,0.213,0.039c0.039,0.038,0.09,0.077,0.154,0.116
		c0.064,0.037,0.129,0.09,0.193,0.154c0.064,0.051,0.125,0.104,0.184,0.164c0.059,0.057,0.094,0.112,0.106,0.163
		c0.013,0.053,0.013,0.098,0,0.136c-0.013,0.039-0.026,0.084-0.038,0.135c-0.014,0.039-0.02,0.081-0.02,0.126
		s-0.014,0.081-0.039,0.106c-0.064,0.064-0.119,0.106-0.164,0.125c-0.045,0.02-0.08,0.048-0.106,0.087
		c-0.154-0.025-0.267-0.064-0.338-0.115s-0.067-0.155,0.01-0.31c0.064-0.09,0.103-0.183,0.116-0.28
		c0.012-0.096-0.014-0.189-0.078-0.279c-0.142-0.026-0.244-0.007-0.309,0.058c-0.064,0.065-0.148,0.116-0.251,0.155
		c-0.052,0.115-0.103,0.212-0.154,0.289c-0.026,0.052-0.056,0.1-0.087,0.146c-0.033,0.044-0.055,0.093-0.068,0.145
		c0,0.063,0.014,0.15,0.039,0.26c0.025,0.11,0.045,0.203,0.059,0.281c0.012,0.115,0.025,0.181,0.038,0.192
		c0.013,0.013,0.026,0.032,0.039,0.059c0.089,0.09,0.167,0.161,0.231,0.212s0.129,0.09,0.193,0.115
		c0.025,0.014,0.096,0.02,0.213,0.02c0.128,0.051,0.215,0.07,0.26,0.059c0.045-0.013,0.094-0.008,0.145,0.02
		c0.206,0,0.345-0.027,0.416-0.078c0.07-0.051,0.131-0.103,0.184-0.154c0.076-0.128,0.135-0.234,0.174-0.318
		c0.038-0.084,0.063-0.152,0.076-0.203c0.014-0.039,0.022-0.08,0.029-0.125c0.006-0.045,0.016-0.087,0.029-0.126
		c0.051-0.181,0.087-0.293,0.105-0.338c0.02-0.045,0.036-0.099,0.049-0.164c0.013-0.104,0.016-0.199,0.01-0.289
		c-0.007-0.09-0.004-0.188,0.01-0.29c0-0.064,0.006-0.126,0.02-0.184c0.012-0.058,0.019-0.119,0.019-0.184s0-0.126,0-0.184
		s-0.007-0.119-0.019-0.184c0-0.051,0-0.104,0-0.154s-0.007-0.097-0.02-0.136c-0.025-0.115-0.062-0.218-0.106-0.308
		c-0.046-0.09-0.074-0.188-0.087-0.29c-0.104-0.078-0.187-0.129-0.251-0.154c-0.052-0.026-0.104-0.039-0.154-0.039
		c-0.052,0-0.104-0.007-0.155-0.02c-0.064-0.025-0.122-0.058-0.174-0.097c-0.051-0.038-0.109-0.064-0.174-0.077
		c-0.115,0-0.199,0.007-0.25,0.02c-0.116,0.039-0.197,0.064-0.242,0.077s-0.1,0.026-0.164,0.038c-0.219,0.09-0.36,0.168-0.424,0.232
		c-0.065,0.064-0.129,0.122-0.193,0.173c-0.116,0.09-0.207,0.158-0.271,0.203s-0.122,0.1-0.173,0.165
		c-0.116,0.154-0.168,0.231-0.155,0.231c-0.038,0.076-0.09,0.148-0.154,0.213c-0.051,0.076-0.096,0.166-0.135,0.271
		c-0.064,0.103-0.106,0.157-0.125,0.163c-0.02,0.007-0.036,0.017-0.049,0.029c-0.064,0.154-0.104,0.258-0.115,0.309
		c-0.014,0.052-0.033,0.09-0.059,0.116c-0.039,0.09-0.07,0.2-0.097,0.328c-0.026,0.116-0.055,0.231-0.087,0.348
		c-0.032,0.115-0.067,0.244-0.105,0.386c-0.027,0.065-0.043,0.12-0.049,0.165c-0.007,0.045-0.023,0.1-0.049,0.164
		c0.014,0.025,0.006,0.087-0.02,0.184s-0.051,0.163-0.076,0.202c-0.026,0.129-0.046,0.213-0.059,0.251
		c-0.038,0.104-0.077,0.2-0.115,0.29c-0.039,0.09-0.071,0.193-0.098,0.309c-0.051,0.181-0.093,0.339-0.125,0.473
		c-0.032,0.137-0.061,0.281-0.087,0.435c0.026,0.039,0.067,0.056,0.126,0.05c0.058-0.007,0.105-0.011,0.145-0.011
		c0.064,0.014,0.148,0.033,0.251,0.059c0.181,0.012,0.37,0.012,0.569,0c0.199-0.013,0.402-0.008,0.609,0.02
		c0.141,0.012,0.215,0.025,0.221,0.038c0.008,0.013,0.017,0.02,0.029,0.02l0.426,0.038c0.051,0.013,0.118,0.017,0.202,0.01
		c0.083-0.006,0.146-0.01,0.184-0.01c0.064,0,0.128-0.006,0.192-0.019c0.064-0.014,0.129-0.02,0.193-0.02
		c0.039,0.013,0.078,0.025,0.116,0.038s0.077,0.02,0.116,0.02c0.064,0,0.119-0.007,0.164-0.02s0.093-0.013,0.145,0
		c0.078,0,0.139,0.01,0.184,0.029c0.045,0.019,0.119,0.022,0.223,0.01c0.038,0,0.096-0.007,0.174-0.02
		c0.076-0.013,0.115,0.026,0.115,0.116c0,0.064-0.032,0.096-0.097,0.096s-0.142,0.014-0.231,0.039
		c-0.064,0.026-0.129,0.042-0.193,0.048c-0.064,0.007-0.123,0.018-0.174,0.029c-0.27,0.026-0.477,0.052-0.617,0.078
		c-0.143,0.025-0.342,0.045-0.6,0.057c-0.167,0.014-0.289,0.02-0.367,0.02c-0.076,0-0.167,0-0.27,0
		c-0.116,0.014-0.181,0.017-0.193,0.01c-0.014-0.006-0.032-0.01-0.059-0.01c-0.27,0.026-0.537,0.039-0.801,0.039
		s-0.525,0.031-0.782,0.097c-0.026,0.064-0.028,0.128-0.009,0.193c0.019,0.064,0.021,0.135,0.009,0.212
		c0,0.064-0.003,0.116-0.009,0.154c-0.008,0.039,0.002,0.09,0.028,0.154c0.064,0.245,0.106,0.429,0.126,0.551
		s0.041,0.254,0.066,0.396c0,0.065,0.008,0.123,0.02,0.175c0.014,0.051,0.02,0.104,0.02,0.154c0.025,0.129,0.039,0.261,0.039,0.395
		c0,0.138,0.012,0.262,0.039,0.378c0.051,0.205,0.09,0.386,0.115,0.54c0.013,0.168,0.039,0.251,0.077,0.251
		c0,0.104,0.007,0.168,0.019,0.193c0.014,0.026,0.026,0.051,0.039,0.078c0.025,0.051,0.042,0.105,0.049,0.164
		c0.006,0.057,0.021,0.118,0.049,0.183c0.025,0.104,0.063,0.206,0.115,0.31c0.051,0.103,0.09,0.205,0.115,0.309
		c0.052,0.18,0.117,0.354,0.193,0.521c0.026,0.065,0.052,0.139,0.078,0.223c0.025,0.083,0.051,0.17,0.076,0.26
		c0.039,0.143,0.045,0.226,0.02,0.251c-0.025,0.027-0.032,0.052-0.02,0.078c-0.128-0.026-0.27-0.026-0.424,0
		c-0.154,0.025-0.31,0.039-0.464,0.039c-0.065-0.014-0.126-0.027-0.184-0.039c-0.058-0.014-0.119-0.02-0.184-0.02
		s-0.126,0.006-0.183,0.02c-0.059,0.012-0.12,0.025-0.184,0.039c-0.129,0-0.274-0.01-0.436-0.03
		c-0.16-0.019-0.313-0.022-0.453-0.009c-0.207,0.064-0.338,0.1-0.396,0.106c-0.058,0.006-0.113,0.041-0.164,0.105
		c-0.025,0.039-0.064,0.052-0.115,0.039c-0.052-0.014-0.091-0.032-0.116-0.059l0.039-0.251c0.063-0.038,0.103-0.073,0.116-0.106
		c0.012-0.032,0.031-0.061,0.057-0.086c0.09-0.154,0.181-0.297,0.271-0.425c0.064-0.065,0.131-0.127,0.202-0.184
		c0.07-0.059,0.119-0.119,0.146-0.185c0.076-0.166,0.135-0.285,0.174-0.355c0.038-0.072,0.076-0.158,0.115-0.262
		c0.09-0.22,0.141-0.454,0.154-0.705c0.013-0.252,0.031-0.466,0.059-0.646c0.025-0.207,0.035-0.354,0.028-0.444
		s-0.017-0.187-0.028-0.29c-0.014-0.064-0.023-0.129-0.029-0.193c-0.007-0.063-0.017-0.128-0.029-0.192
		c-0.014-0.064-0.032-0.126-0.059-0.184c-0.025-0.058-0.045-0.119-0.057-0.183c-0.026-0.104-0.033-0.207-0.02-0.31
		c0.013-0.104,0.02-0.206,0.02-0.31c0-0.09-0.01-0.181-0.029-0.271s-0.022-0.18-0.01-0.27c0-0.09,0.006-0.171,0.02-0.242
		c0.013-0.07,0.006-0.151-0.02-0.241V15.576z"/>
	<path fill="#545454" d="M65.63,12.139c-0.064,0.065-0.135,0.127-0.213,0.184c-0.076,0.059-0.147,0.118-0.212,0.184
		c-0.116,0.104-0.193,0.154-0.231,0.154c-0.078,0.078-0.126,0.115-0.145,0.115c-0.02,0-0.043,0.014-0.068,0.039l-0.193,0.213
		c-0.142,0.181-0.27,0.354-0.386,0.521c-0.077,0.142-0.142,0.239-0.193,0.29c-0.013,0.012-0.026,0.051-0.038,0.115
		c-0.014,0.065-0.033,0.109-0.059,0.136c-0.115,0.386-0.193,0.76-0.231,1.12c-0.013,0.09-0.017,0.174-0.01,0.251
		c0.007,0.076,0.003,0.166-0.01,0.27c-0.013,0.104-0.028,0.2-0.048,0.29s-0.042,0.187-0.067,0.29
		c-0.052,0.22-0.075,0.432-0.067,0.637c0.006,0.206-0.004,0.438-0.029,0.695c0,0.129-0.01,0.259-0.029,0.386
		c-0.02,0.129-0.023,0.259-0.01,0.387c-0.014,0.09-0.016,0.151-0.01,0.185c0.006,0.031,0.01,0.073,0.01,0.124
		c0,0.065-0.006,0.139-0.02,0.223c-0.013,0.084-0.025,0.164-0.039,0.241c-0.012,0.142-0.025,0.287-0.037,0.435
		c-0.014,0.148-0.02,0.3-0.02,0.453c-0.014,0.104-0.02,0.241-0.02,0.417c0,0.173,0,0.306,0,0.396c-0.014,0.09-0.014,0.166,0,0.231
		c0.012,0.064,0.025,0.129,0.039,0.192c0.012,0.064,0.019,0.123,0.019,0.174s0,0.109,0,0.174c-0.013,0.039-0.013,0.09,0,0.155
		c0.013,0.064,0.019,0.115,0.019,0.154c0.014,0.051,0.026,0.1,0.039,0.145c0.014,0.045,0.02,0.1,0.02,0.165
		c0,0.063-0.006,0.138-0.02,0.222c-0.013,0.083-0.013,0.156,0,0.222c0,0.077,0.006,0.148,0.02,0.213
		c0.013,0.064,0.02,0.128,0.02,0.192c-0.039,0.193-0.059,0.322-0.059,0.386c0,0.065-0.012,0.137-0.038,0.213
		c0,0.039-0.007,0.077-0.019,0.116c-0.014,0.039-0.02,0.07-0.02,0.096c-0.026,0.129-0.036,0.259-0.029,0.388
		c0.006,0.128,0.01,0.263,0.01,0.405c-0.014,0.103-0.029,0.195-0.049,0.28c-0.02,0.083-0.028,0.176-0.028,0.28
		c0.013,0.166,0.013,0.273,0,0.317c-0.014,0.046-0.02,0.088-0.02,0.126c-0.026,0.104-0.046,0.189-0.058,0.261
		c-0.014,0.07-0.033,0.151-0.059,0.241c-0.025,0.038-0.035,0.085-0.029,0.136c0.007,0.051-0.003,0.09-0.029,0.115
		c-0.076,0.142-0.118,0.226-0.125,0.251c-0.006,0.026-0.016,0.051-0.028,0.077c-0.077,0.143-0.12,0.229-0.126,0.261
		c-0.007,0.033-0.023,0.067-0.049,0.106c-0.025,0.051-0.055,0.097-0.086,0.136c-0.032,0.038-0.062,0.09-0.087,0.154
		c-0.065,0.103-0.097,0.161-0.097,0.173c0,0.014-0.008,0.032-0.02,0.059c-0.168,0.193-0.277,0.335-0.328,0.425
		c-0.142,0.129-0.219,0.2-0.231,0.212c-0.104,0.052-0.159,0.087-0.165,0.107c-0.006,0.019-0.016,0.035-0.029,0.047
		c-0.115,0.053-0.18,0.085-0.192,0.098c-0.128,0.103-0.216,0.173-0.261,0.212s-0.094,0.077-0.145,0.116
		c-0.09,0.051-0.151,0.093-0.184,0.125s-0.08,0.068-0.145,0.107c-0.064,0.025-0.123,0.057-0.174,0.096
		c-0.052,0.039-0.104,0.07-0.154,0.097c-0.064,0.025-0.129,0.039-0.193,0.039s-0.129,0.006-0.193,0.019
		c-0.064,0.026-0.123,0.049-0.174,0.067c-0.052,0.021-0.104,0.029-0.154,0.029c-0.025,0-0.059-0.003-0.098-0.009
		c-0.037-0.008-0.076-0.011-0.115-0.011c-0.129-0.012-0.26-0.017-0.396-0.01s-0.268,0.004-0.396-0.01
		c-0.064-0.012-0.127-0.025-0.184-0.038c-0.059-0.013-0.119-0.026-0.184-0.038c-0.09-0.014-0.162-0.011-0.213,0.009
		c-0.052,0.02-0.115,0.017-0.193-0.009c-0.09-0.026-0.164-0.056-0.222-0.087c-0.058-0.032-0.126-0.074-0.202-0.126
		c-0.143-0.065-0.22-0.104-0.232-0.116c-0.014-0.012-0.032-0.026-0.059-0.039c-0.064-0.038-0.128-0.073-0.192-0.105
		c-0.065-0.033-0.129-0.062-0.192-0.087c-0.143-0.09-0.277-0.181-0.406-0.271c-0.064-0.051-0.119-0.096-0.164-0.135
		s-0.1-0.09-0.164-0.155c-0.154-0.18-0.268-0.338-0.338-0.473c-0.07-0.136-0.139-0.261-0.203-0.377
		c-0.064-0.09-0.105-0.151-0.125-0.184c-0.02-0.031-0.042-0.073-0.068-0.125c-0.064-0.09-0.096-0.142-0.096-0.155
		c0-0.012-0.014-0.031-0.039-0.057l-0.097-0.194c-0.038-0.103-0.054-0.166-0.048-0.192c0.006-0.025,0.003-0.059-0.01-0.096
		c-0.064-0.168-0.113-0.294-0.145-0.378c-0.033-0.083-0.062-0.171-0.088-0.261c-0.025-0.064-0.045-0.115-0.058-0.154
		s-0.019-0.07-0.019-0.097c0-0.051,0.003-0.099,0.01-0.146c0.006-0.043,0.009-0.093,0.009-0.144v-0.29c0-0.09,0-0.181,0-0.271
		s0.007-0.166,0.02-0.231c0.026-0.064,0.052-0.132,0.077-0.202c0.025-0.071,0.052-0.146,0.077-0.223
		c0.116-0.129,0.251-0.264,0.405-0.405l0.193-0.174c0.116-0.077,0.181-0.113,0.193-0.107c0.013,0.008,0.025,0.003,0.039-0.009
		c0.154-0.104,0.257-0.168,0.309-0.193c0.154-0.025,0.267-0.051,0.338-0.077c0.07-0.025,0.139-0.045,0.203-0.058
		c0.103-0.013,0.219-0.02,0.348-0.02c0.128,0,0.23,0.013,0.309,0.039c0.18,0.064,0.334,0.115,0.463,0.154s0.252,0.07,0.367,0.096
		c0.039,0.014,0.078,0.02,0.115,0.02c0.039,0,0.072,0.014,0.098,0.039c0.038,0.012,0.08,0.031,0.125,0.058s0.088,0.052,0.125,0.078
		c0.155,0.038,0.283,0.104,0.387,0.193c0.051,0.063,0.094,0.1,0.126,0.104c0.032,0.007,0.061,0.023,0.087,0.049
		c0.115,0.104,0.176,0.158,0.184,0.165c0.006,0.006,0.021,0.016,0.048,0.028c0.103,0.051,0.161,0.084,0.175,0.097
		c0.012,0.013,0.031,0.032,0.057,0.059c0.051,0.051,0.1,0.093,0.146,0.125c0.045,0.032,0.08,0.08,0.106,0.145
		c0.025,0.014,0.057,0.035,0.096,0.067s0.07,0.062,0.097,0.088c0.064,0.064,0.122,0.128,0.175,0.192
		c0.051,0.064,0.102,0.143,0.154,0.232c0.025,0.025,0.048,0.058,0.067,0.096c0.019,0.039,0.035,0.077,0.048,0.116
		c0,0.025-0.003,0.062-0.01,0.106s-0.003,0.094,0.01,0.145c0,0.052,0.003,0.094,0.01,0.126c0.006,0.031,0.01,0.067,0.01,0.106
		c-0.014,0.051-0.029,0.093-0.049,0.125c-0.019,0.032-0.041,0.074-0.067,0.126L60.3,26.159c-0.051,0.064-0.086,0.12-0.105,0.165
		s-0.043,0.093-0.068,0.144c-0.064,0.104-0.097,0.161-0.097,0.175c0,0.012-0.007,0.031-0.019,0.057
		c-0.039,0.052-0.094,0.098-0.164,0.136c-0.071,0.039-0.139,0.077-0.203,0.115c-0.025,0.027-0.053,0.052-0.078,0.078
		c-0.025,0.025-0.051,0.051-0.076,0.077c-0.182,0.104-0.387,0.151-0.619,0.146c-0.23-0.007-0.412-0.037-0.54-0.088
		c-0.142-0.09-0.216-0.132-0.222-0.126c-0.007,0.008-0.023,0.003-0.049-0.009c-0.115-0.09-0.18-0.132-0.193-0.126
		c-0.012,0.007-0.025,0.003-0.038-0.009c-0.091-0.065-0.132-0.106-0.126-0.127c0.007-0.018,0.003-0.034-0.01-0.048
		c-0.154-0.181-0.27-0.366-0.348-0.56c-0.025-0.038-0.035-0.07-0.028-0.097c0.006-0.025-0.004-0.064-0.029-0.115
		c-0.064-0.283-0.038-0.503,0.077-0.656c0.129-0.155,0.216-0.268,0.261-0.339s0.106-0.119,0.185-0.145
		c0.127-0.026,0.205-0.042,0.23-0.049c0.025-0.006,0.052-0.017,0.078-0.028c0.141-0.013,0.219-0.02,0.231-0.02
		c0.128,0.077,0.2,0.116,0.212,0.116c0.064,0.104,0.104,0.157,0.116,0.163c0.013,0.007,0.025,0.022,0.038,0.049
		c0.064,0.143,0.119,0.241,0.164,0.299c0.045,0.059,0.035,0.1-0.029,0.126c-0.051,0.129-0.096,0.203-0.135,0.222
		c-0.038,0.021-0.07,0.017-0.096-0.009c-0.039-0.026-0.055-0.065-0.049-0.116c0.006-0.052-0.01-0.109-0.049-0.174
		c-0.025-0.039-0.057-0.087-0.096-0.144c-0.039-0.06-0.097-0.081-0.174-0.069c-0.115,0.039-0.188,0.071-0.213,0.098
		c-0.09,0.076-0.167,0.186-0.23,0.327c-0.065,0.104-0.091,0.239-0.078,0.405c0.013,0.168,0.051,0.317,0.115,0.444
		c0.026,0.065,0.059,0.107,0.098,0.126c0.038,0.021,0.076,0.062,0.115,0.125c0.143,0.026,0.283,0.062,0.426,0.106
		c0.141,0.045,0.282,0.062,0.424,0.049c0.104,0,0.199-0.023,0.29-0.067c0.089-0.046,0.187-0.1,0.29-0.164
		c0.012-0.039,0.041-0.067,0.086-0.088c0.045-0.019,0.08-0.048,0.106-0.087c0.013-0.025,0.02-0.064,0.02-0.115
		s0.013-0.104,0.039-0.154c0.116-0.206,0.171-0.332,0.163-0.378c-0.006-0.044-0.021-0.118-0.047-0.222
		c-0.014-0.063-0.02-0.125-0.02-0.183c0-0.059-0.007-0.105-0.02-0.145c-0.064-0.168-0.143-0.283-0.232-0.349
		c-0.103-0.076-0.161-0.122-0.174-0.135c-0.104-0.051-0.174-0.103-0.212-0.154c-0.026-0.026-0.064-0.058-0.116-0.097
		c-0.052-0.038-0.09-0.083-0.115-0.136c-0.104-0.051-0.203-0.099-0.3-0.144s-0.202-0.094-0.318-0.146
		c-0.052-0.026-0.103-0.051-0.155-0.077c-0.051-0.025-0.103-0.051-0.154-0.078c-0.064-0.025-0.122-0.063-0.174-0.115
		c-0.051-0.051-0.115-0.083-0.192-0.097c-0.052,0-0.11,0-0.175,0s-0.128-0.006-0.192-0.02c-0.065,0-0.122-0.006-0.174-0.019
		s-0.104-0.02-0.154-0.02c-0.039,0-0.094,0-0.165,0c-0.07,0-0.119,0.007-0.145,0.02c-0.051,0.025-0.104,0.073-0.154,0.145
		s-0.104,0.139-0.154,0.203c-0.09,0.116-0.164,0.234-0.223,0.357c-0.057,0.122-0.066,0.293-0.028,0.511
		c0.013,0.104,0.045,0.213,0.097,0.329c0.051,0.115,0.083,0.225,0.096,0.328c0.026,0.104,0.059,0.206,0.098,0.309
		c0.039,0.104,0.076,0.22,0.115,0.348c0.025,0.039,0.039,0.085,0.039,0.136s0.012,0.104,0.038,0.154
		c0.064,0.192,0.136,0.367,0.212,0.521c0.064,0.115,0.094,0.184,0.088,0.202c-0.007,0.021-0.004,0.042,0.01,0.068
		c0.064,0.064,0.103,0.122,0.115,0.174c0.013,0.051,0.032,0.097,0.059,0.135c0.076,0.09,0.111,0.142,0.105,0.155
		c-0.006,0.012-0.003,0.025,0.01,0.037c0.116,0.104,0.242,0.186,0.377,0.241c0.135,0.06,0.268,0.114,0.396,0.165
		c0.052,0.026,0.1,0.052,0.146,0.077c0.045,0.026,0.094,0.052,0.145,0.077c0.051,0.039,0.112,0.074,0.184,0.106
		c0.07,0.032,0.131,0.062,0.184,0.087c0.038,0.026,0.103,0.049,0.193,0.067c0.09,0.021,0.166,0.042,0.231,0.068
		c0.103,0.025,0.198,0.054,0.289,0.086c0.09,0.032,0.187,0.017,0.29-0.048c0.025-0.013,0.064-0.029,0.116-0.047
		c0.051-0.021,0.103-0.043,0.153-0.068c0.027-0.027,0.055-0.049,0.088-0.069c0.031-0.018,0.061-0.04,0.087-0.067
		c0.038-0.025,0.08-0.041,0.126-0.048c0.045-0.006,0.08-0.022,0.105-0.048c0.051-0.026,0.097-0.062,0.135-0.106
		c0.039-0.045,0.09-0.08,0.154-0.105c0.064-0.039,0.143-0.09,0.232-0.154c0.09-0.065,0.168-0.124,0.231-0.175
		c0.026-0.025,0.055-0.057,0.087-0.096s0.068-0.078,0.107-0.116c0.037-0.052,0.08-0.105,0.125-0.165
		c0.045-0.057,0.093-0.118,0.145-0.183c0.039-0.22,0.104-0.399,0.193-0.541c0.012-0.025,0.012-0.062,0-0.105
		c-0.014-0.046-0.008-0.08,0.02-0.106c0.025-0.078,0.051-0.164,0.077-0.262c0.025-0.095,0.051-0.202,0.077-0.317
		c0.013-0.039,0.025-0.085,0.039-0.136c0.012-0.051,0.025-0.109,0.037-0.174c0.014-0.051,0.026-0.104,0.039-0.154
		c0.014-0.052,0.025-0.103,0.039-0.155c-0.014-0.09-0.017-0.161-0.01-0.212c0.006-0.051,0.016-0.104,0.029-0.154
		c0.012-0.116,0.02-0.251,0.02-0.405c0-0.155,0-0.283,0-0.387c0-0.205,0.009-0.398,0.028-0.579s0.035-0.36,0.048-0.541
		c0-0.077,0-0.147,0-0.213c0-0.064,0.007-0.128,0.02-0.192c0.013-0.104,0.02-0.203,0.02-0.3s0.006-0.215,0.02-0.356
		c0.013-0.026,0.02-0.062,0.02-0.106s0.006-0.081,0.02-0.106c0.025-0.154,0.031-0.276,0.019-0.366s-0.013-0.155,0-0.194l0.019-0.327
		c0.014-0.078,0.01-0.154-0.009-0.232c-0.019-0.077-0.017-0.161,0.009-0.251c-0.063-0.026-0.105-0.007-0.125,0.059
		c-0.019,0.063-0.041,0.128-0.067,0.192c-0.077,0.115-0.122,0.181-0.136,0.193c-0.012,0.012-0.025,0.031-0.037,0.058l-0.348,0.348
		c-0.039,0.039-0.078,0.081-0.116,0.126c-0.039,0.045-0.085,0.08-0.136,0.105c-0.115,0.065-0.181,0.109-0.193,0.136
		c-0.013,0.025-0.032,0.045-0.058,0.058c-0.103,0.039-0.212,0.077-0.328,0.116c-0.103,0.039-0.229,0.059-0.377,0.059
		c-0.147,0-0.28-0.014-0.396-0.039c-0.051-0.014-0.105-0.03-0.164-0.048c-0.059-0.021-0.126-0.042-0.203-0.068
		c-0.064-0.013-0.115-0.02-0.154-0.02s-0.09-0.013-0.154-0.038c-0.025-0.026-0.064-0.043-0.115-0.049
		c-0.053-0.006-0.098-0.022-0.136-0.048c-0.13-0.09-0.206-0.154-0.231-0.193c-0.104-0.103-0.174-0.154-0.213-0.154
		c-0.039-0.026-0.078-0.062-0.115-0.106c-0.039-0.045-0.072-0.08-0.098-0.106c-0.025-0.038-0.058-0.073-0.096-0.105
		c-0.039-0.032-0.072-0.062-0.098-0.088c-0.064-0.142-0.096-0.219-0.096-0.231s-0.007-0.025-0.02-0.039l-0.154-0.212
		c-0.025-0.038-0.035-0.077-0.029-0.115c0.006-0.039-0.004-0.078-0.029-0.117c-0.012-0.076-0.057-0.18-0.135-0.308
		c-0.064-0.181-0.104-0.332-0.116-0.454s-0.032-0.249-0.058-0.377c-0.025-0.09-0.045-0.177-0.059-0.26
		c-0.012-0.085-0.019-0.165-0.019-0.242c0-0.052,0.007-0.097,0.019-0.136c0.014-0.038,0.02-0.09,0.02-0.153
		c0-0.039,0.007-0.078,0.02-0.117c0.014-0.037,0.02-0.083,0.02-0.135c-0.014-0.09-0.051-0.177-0.115-0.26
		c-0.065-0.084-0.11-0.158-0.136-0.223c-0.013-0.051-0.02-0.119-0.02-0.202c0-0.084,0-0.158,0-0.223
		c0.013-0.09,0.025-0.174,0.039-0.251c0.013-0.078,0.019-0.181,0.019-0.31c-0.013-0.18-0.035-0.359-0.067-0.54
		s-0.042-0.38-0.028-0.6c0-0.051,0-0.103,0-0.154c0-0.051-0.008-0.115-0.02-0.192c-0.025-0.181-0.07-0.36-0.135-0.541
		c-0.065-0.181-0.129-0.359-0.193-0.54c-0.026-0.065-0.055-0.132-0.088-0.202c-0.031-0.072-0.066-0.12-0.105-0.146
		c-0.026-0.025-0.062-0.039-0.106-0.039c-0.046,0-0.087-0.012-0.126-0.037c-0.076-0.026-0.151-0.048-0.222-0.068
		c-0.071-0.019-0.157-0.041-0.261-0.067c-0.039-0.013-0.08-0.02-0.125-0.02s-0.08-0.006-0.106-0.02
		c-0.128-0.09-0.199-0.128-0.212-0.115c-0.014,0.012-0.026,0.02-0.039,0.02c-0.077-0.078-0.16-0.129-0.251-0.155
		c-0.09-0.025-0.167-0.052-0.231-0.077c0.142-0.038,0.229-0.061,0.26-0.068c0.033-0.006,0.063-0.009,0.088-0.009
		c0.064-0.013,0.125-0.017,0.183-0.009c0.058,0.006,0.113,0.003,0.165-0.011c0.154-0.025,0.24-0.048,0.26-0.067
		s0.042-0.028,0.068-0.028c0.064-0.014,0.121-0.02,0.174-0.02c0.051,0,0.103,0,0.154,0c0.104-0.014,0.199-0.022,0.289-0.028
		c0.09-0.008,0.188-0.018,0.29-0.03c0.128-0.012,0.226-0.016,0.29-0.009c0.063,0.006,0.128,0.009,0.193,0.009h0.348
		c0.076,0.013,0.154,0.032,0.23,0.059c0.078,0.025,0.154,0.039,0.232,0.039c0.09,0.012,0.184,0.015,0.279,0.009
		c0.098-0.006,0.19-0.017,0.281-0.028c0.115,0,0.195,0.009,0.24,0.028s0.088,0.036,0.127,0.048c0.063,0,0.131,0,0.202,0
		c0.07,0,0.138-0.012,0.202-0.039c0.051,0.027,0.106,0.039,0.164,0.039c0.059,0,0.113,0.007,0.164,0.02
		c0.025,0.039,0.023,0.077-0.01,0.116c-0.031,0.039-0.061,0.07-0.086,0.096c-0.104,0.129-0.174,0.213-0.213,0.252
		c-0.039,0.038-0.07,0.077-0.096,0.116l-0.136,0.174c-0.039,0.038-0.058,0.073-0.058,0.105c0,0.033-0.014,0.062-0.039,0.087
		c-0.025,0.078-0.068,0.163-0.125,0.262c-0.059,0.096-0.101,0.189-0.126,0.279c-0.026,0.064-0.036,0.146-0.029,0.241
		c0.007,0.097-0.003,0.196-0.028,0.299c0,0.053-0.01,0.101-0.029,0.146c-0.02,0.044-0.029,0.093-0.029,0.144
		c-0.025,0.143-0.031,0.287-0.02,0.436c0.014,0.147,0.006,0.292-0.02,0.434c-0.012,0.142-0.031,0.277-0.057,0.405
		c-0.026,0.129-0.046,0.265-0.059,0.406c0,0.09,0.003,0.184,0.01,0.278c0.006,0.099,0.016,0.197,0.029,0.301
		c0,0.051,0.006,0.1,0.02,0.145c0.012,0.045,0.02,0.1,0.02,0.165c0.012,0.153,0.021,0.296,0.027,0.425
		c0.008,0.128,0.043,0.251,0.107,0.366c0.077,0.155,0.115,0.31,0.115,0.463c0.025,0.09,0.045,0.178,0.059,0.261
		c0.012,0.084,0.031,0.178,0.058,0.281c0.052,0.051,0.077,0.096,0.077,0.135c0,0.038,0.006,0.077,0.02,0.116
		c0.038,0.076,0.09,0.146,0.154,0.212c0.064,0.064,0.129,0.143,0.193,0.232c0.051,0.051,0.097,0.103,0.135,0.153
		c0.039,0.052,0.078,0.09,0.115,0.116c0.014,0.026,0.059,0.058,0.136,0.097c0.077,0.038,0.129,0.065,0.155,0.077
		c0.064,0.013,0.146,0.022,0.25,0.03c0.104,0.005,0.188,0.002,0.252-0.011c0.09-0.026,0.193-0.093,0.309-0.203
		c0.116-0.109,0.213-0.215,0.289-0.318c0.039-0.051,0.074-0.09,0.107-0.115c0.031-0.026,0.061-0.07,0.086-0.136
		c0.064-0.104,0.107-0.181,0.125-0.232c0.02-0.051,0.036-0.096,0.049-0.135c0.039-0.065,0.07-0.15,0.097-0.261
		c0.026-0.109,0.052-0.21,0.077-0.3c0.013-0.063,0.029-0.119,0.049-0.164c0.02-0.044,0.035-0.087,0.049-0.126
		c0-0.037-0.004-0.079-0.01-0.124c-0.008-0.045-0.004-0.081,0.01-0.106c0-0.065,0.009-0.129,0.027-0.193
		c0.02-0.064,0.036-0.135,0.049-0.213c0.025-0.129,0.049-0.251,0.068-0.366c0.019-0.116,0.041-0.231,0.067-0.349
		c0-0.064,0.01-0.141,0.028-0.23c0.02-0.09,0.029-0.161,0.029-0.213c0.025-0.143,0.045-0.286,0.059-0.436
		c0.012-0.146,0.025-0.298,0.037-0.453c0.014-0.142,0.02-0.289,0.02-0.444c0-0.154,0.007-0.308,0.02-0.463
		c0.014-0.064,0.025-0.135,0.039-0.213c0.012-0.076,0.02-0.166,0.02-0.271c-0.014-0.104-0.017-0.16-0.01-0.174
		c0.006-0.012,0.01-0.031,0.01-0.058c0-0.052-0.004-0.097-0.01-0.135c-0.007-0.039-0.01-0.084-0.01-0.135
		c0-0.181,0.006-0.358,0.02-0.531c0.012-0.175-0.008-0.332-0.059-0.474c-0.051-0.077-0.1-0.132-0.145-0.164s-0.08-0.067-0.105-0.106
		c-0.064-0.154-0.129-0.254-0.193-0.299s-0.123-0.1-0.174-0.165c0.025-0.154,0.08-0.225,0.164-0.212s0.17,0.02,0.261,0.02
		c0.063,0.012,0.132,0.017,0.202,0.01s0.139-0.003,0.203,0.01c0.09,0.012,0.177,0.031,0.261,0.058
		c0.083,0.025,0.177,0.039,0.28,0.039c0.09,0,0.174-0.01,0.25-0.028c0.078-0.021,0.168-0.043,0.271-0.068
		c0.064-0.013,0.119-0.017,0.164-0.01s0.119,0.002,0.222-0.01c0.077-0.025,0.147-0.032,0.213-0.02
		c0.063,0.013,0.128,0.02,0.192,0.02c0.129-0.013,0.196-0.017,0.203-0.011c0.006,0.008,0.016,0.011,0.029,0.011
		c0.205-0.052,0.389-0.07,0.551-0.059C65.337,12.133,65.488,12.139,65.63,12.139z"/>
</g>
</svg>
