<?xml version="1.0" encoding="utf-8"?>
<!-- Generator: Adobe Illustrator 16.0.0, SVG Export Plug-In . SVG Version: 6.00 Build 0)  -->
<!DOCTYPE svg PUBLIC "-//W3C//DTD SVG 1.1//EN" "http://www.w3.org/Graphics/SVG/1.1/DTD/svg11.dtd">
<svg version="1.1" id="图层_1" xmlns="http://www.w3.org/2000/svg" xmlns:xlink="http://www.w3.org/1999/xlink" x="0px" y="0px"
	 width="258px" height="36px" viewBox="0 0 258 36" enable-background="new 0 0 258 36" xml:space="preserve">
<g>
	<path fill="#545454" d="M13.315,11.689h7.386v3.595l-1.055,0.206v1.558h4.221V15.49l-1.056-0.206v-3.595h7.386v3.595l-1.055,0.206
		v5.078l1.055,0.205v3.579h-7.386v-3.579l1.056-0.205V18.91h-4.221v1.658l1.055,0.205v3.579h-7.386v-3.579l1.055-0.205V15.49
		l-1.055-0.206V11.689z"/>
	<path fill="#545454" d="M38.276,24.5c-0.968,0-1.873-0.104-2.716-0.311c-0.844-0.204-1.578-0.56-2.202-1.062
		c-0.623-0.503-1.115-1.146-1.475-1.925c-0.36-0.781-0.54-1.718-0.54-2.813c0-1.07,0.18-1.984,0.54-2.74
		c0.359-0.755,0.853-1.37,1.479-1.847c0.627-0.475,1.359-0.823,2.201-1.041c0.841-0.221,1.744-0.33,2.712-0.33
		c0.962,0,1.864,0.109,2.708,0.33c0.843,0.218,1.579,0.566,2.209,1.041c0.629,0.477,1.125,1.092,1.488,1.847
		c0.362,0.756,0.543,1.67,0.543,2.74c0,0.727-0.082,1.385-0.246,1.976c-0.166,0.591-0.397,1.115-0.697,1.575
		c-0.3,0.457-0.659,0.853-1.08,1.187c-0.42,0.332-0.889,0.606-1.405,0.824c-0.517,0.217-1.071,0.363-1.665,0.437
		C39.537,24.463,38.919,24.5,38.276,24.5z M38.276,15.943c-0.324,0-0.599,0.041-0.82,0.124c-0.224,0.082-0.407,0.188-0.553,0.321
		c-0.146,0.132-0.259,0.284-0.342,0.452c-0.083,0.173-0.142,0.347-0.177,0.524c-0.037,0.18-0.059,0.354-0.066,0.527
		c-0.009,0.174-0.013,0.326-0.013,0.457c0,0.127,0.003,0.278,0.009,0.45c0.006,0.173,0.024,0.354,0.058,0.544
		s0.088,0.378,0.165,0.564c0.076,0.188,0.188,0.355,0.333,0.503s0.333,0.268,0.562,0.359c0.228,0.091,0.51,0.136,0.845,0.136
		c0.329,0,0.608-0.044,0.837-0.133c0.227-0.088,0.414-0.203,0.561-0.35c0.145-0.146,0.26-0.311,0.342-0.49
		c0.082-0.182,0.141-0.365,0.178-0.548c0.035-0.186,0.057-0.364,0.064-0.541c0.009-0.176,0.013-0.326,0.013-0.454
		c0-0.131-0.004-0.283-0.013-0.456c-0.008-0.173-0.029-0.35-0.064-0.532c-0.037-0.182-0.096-0.358-0.178-0.531
		s-0.197-0.328-0.342-0.465c-0.146-0.139-0.334-0.25-0.561-0.335C38.885,15.986,38.605,15.943,38.276,15.943z"/>
	<path fill="#545454" d="M52.339,21.187c0.231,0,0.45-0.032,0.659-0.096s0.402-0.145,0.582-0.247
		c0.178-0.101,0.34-0.214,0.486-0.337c0.145-0.125,0.273-0.25,0.383-0.376h1.377v4.222h-9.43v-3.29l0.988-0.189v-4.691l-0.988-0.188
		v-3.248h6.939v3.248l-0.997,0.188V21.187z"/>
	<path fill="#545454" d="M58.926,15.811c-0.285,0-0.539,0.039-0.759,0.116s-0.403,0.175-0.552,0.289s-0.262,0.241-0.339,0.374
		c-0.076,0.135-0.114,0.261-0.114,0.375h-1.378v-4.22h11.244v4.22h-1.376c0-0.114-0.039-0.24-0.116-0.375
		c-0.077-0.133-0.189-0.26-0.338-0.374c-0.147-0.114-0.332-0.212-0.552-0.289c-0.221-0.077-0.473-0.116-0.758-0.116v5.063
		l0.988,0.189v3.29h-6.94v-3.29l0.989-0.189V15.811z"/>
	<path fill="#545454" d="M71.843,24.359l-3.166-8.185l-1.179-0.182v-3.248h7.526v3.248l-0.857,0.182l1.345,4.319l1.343-4.319
		l-0.857-0.182v-3.248h7.526v3.248l-0.85,0.182l1.336,4.319l1.344-4.319l-0.857-0.182v-3.289h5.705v3.289l-1.172,0.182l-3.164,8.185
		H80.35l-1.5-4.46l-1.484,4.46H71.843z"/>
	<path fill="#545454" d="M97.652,24.5c-0.967,0-1.873-0.104-2.716-0.311c-0.844-0.204-1.578-0.56-2.202-1.062
		c-0.623-0.503-1.115-1.146-1.475-1.925c-0.36-0.781-0.54-1.718-0.54-2.813c0-1.07,0.18-1.984,0.54-2.74
		c0.359-0.755,0.853-1.37,1.48-1.847c0.625-0.475,1.359-0.823,2.199-1.041c0.842-0.221,1.746-0.33,2.713-0.33
		c0.961,0,1.863,0.109,2.708,0.33c0.843,0.218,1.579,0.566,2.209,1.041c0.629,0.477,1.126,1.092,1.488,1.847
		c0.362,0.756,0.544,1.67,0.544,2.74c0,0.727-0.082,1.385-0.248,1.976c-0.164,0.591-0.396,1.115-0.695,1.575
		c-0.301,0.457-0.66,0.853-1.08,1.187c-0.421,0.332-0.889,0.606-1.406,0.824c-0.516,0.217-1.071,0.363-1.665,0.437
		C98.914,24.463,98.295,24.5,97.652,24.5z M97.652,15.943c-0.324,0-0.598,0.041-0.82,0.124c-0.223,0.082-0.406,0.188-0.553,0.321
		c-0.146,0.132-0.26,0.284-0.342,0.452c-0.082,0.173-0.142,0.347-0.177,0.524c-0.036,0.18-0.058,0.354-0.066,0.527
		c-0.009,0.174-0.013,0.326-0.013,0.457c0,0.127,0.004,0.278,0.009,0.45c0.005,0.173,0.024,0.354,0.058,0.544
		s0.088,0.378,0.165,0.564c0.077,0.188,0.188,0.355,0.333,0.503c0.146,0.147,0.333,0.268,0.561,0.359
		c0.229,0.091,0.511,0.136,0.846,0.136c0.33,0,0.608-0.044,0.836-0.133c0.229-0.088,0.416-0.203,0.561-0.35
		c0.146-0.146,0.261-0.311,0.343-0.49c0.083-0.182,0.141-0.365,0.178-0.548c0.034-0.186,0.058-0.364,0.065-0.541
		c0.008-0.176,0.012-0.326,0.012-0.454c0-0.131-0.004-0.283-0.012-0.456s-0.031-0.35-0.065-0.532
		c-0.037-0.182-0.095-0.358-0.178-0.531c-0.082-0.173-0.196-0.328-0.343-0.465c-0.145-0.139-0.332-0.25-0.561-0.335
		C98.261,15.986,97.982,15.943,97.652,15.943z"/>
	<path fill="#545454" d="M112.515,24.5c-0.967,0-1.873-0.104-2.716-0.311c-0.844-0.204-1.577-0.56-2.201-1.062
		c-0.624-0.503-1.115-1.146-1.476-1.925c-0.36-0.781-0.54-1.718-0.54-2.813c0-1.07,0.18-1.984,0.54-2.74
		c0.36-0.755,0.853-1.37,1.479-1.847c0.627-0.475,1.36-0.823,2.201-1.041c0.841-0.221,1.745-0.33,2.712-0.33
		c0.962,0,1.864,0.109,2.708,0.33c0.844,0.218,1.58,0.566,2.21,1.041c0.629,0.477,1.124,1.092,1.487,1.847
		c0.362,0.756,0.544,1.67,0.544,2.74c0,0.727-0.082,1.385-0.247,1.976s-0.397,1.115-0.697,1.575c-0.3,0.457-0.658,0.853-1.08,1.187
		c-0.419,0.332-0.889,0.606-1.404,0.824c-0.518,0.217-1.072,0.363-1.666,0.437C113.776,24.463,113.158,24.5,112.515,24.5z
		 M112.515,15.943c-0.325,0-0.598,0.041-0.82,0.124c-0.222,0.082-0.406,0.188-0.552,0.321c-0.146,0.132-0.26,0.284-0.343,0.452
		c-0.083,0.173-0.142,0.347-0.177,0.524c-0.036,0.18-0.059,0.354-0.065,0.527c-0.009,0.174-0.013,0.326-0.013,0.457
		c0,0.127,0.002,0.278,0.008,0.45c0.006,0.173,0.024,0.354,0.058,0.544s0.088,0.378,0.165,0.564
		c0.076,0.188,0.188,0.355,0.334,0.503s0.332,0.268,0.561,0.359c0.228,0.091,0.51,0.136,0.845,0.136
		c0.329,0,0.608-0.044,0.837-0.133c0.229-0.088,0.414-0.203,0.561-0.35c0.145-0.146,0.26-0.311,0.342-0.49
		c0.082-0.182,0.142-0.365,0.178-0.548c0.035-0.186,0.057-0.364,0.066-0.541c0.008-0.176,0.012-0.326,0.012-0.454
		c0-0.131-0.004-0.283-0.012-0.456c-0.01-0.173-0.031-0.35-0.066-0.532c-0.036-0.182-0.096-0.358-0.178-0.531
		s-0.197-0.328-0.342-0.465c-0.146-0.139-0.332-0.25-0.561-0.335S112.844,15.943,112.515,15.943z"/>
	<path fill="#545454" d="M129.611,12.745c0.747,0.158,1.42,0.386,2.02,0.677c0.599,0.291,1.108,0.662,1.529,1.117
		c0.42,0.452,0.743,0.996,0.969,1.631c0.225,0.635,0.338,1.376,0.338,2.221c0,0.744-0.086,1.406-0.26,1.991
		c-0.174,0.586-0.42,1.1-0.742,1.543c-0.321,0.441-0.715,0.816-1.184,1.124c-0.467,0.308-0.992,0.558-1.578,0.75
		c-0.586,0.193-1.229,0.333-1.928,0.421c-0.701,0.088-1.447,0.133-2.239,0.133h-5.951v-3.29l0.989-0.189v-4.971l-0.989-0.19v-2.967
		H129.611z M127.295,20.873c0.368,0,0.679-0.027,0.932-0.083c0.252-0.055,0.461-0.131,0.622-0.231
		c0.162-0.098,0.289-0.222,0.379-0.369c0.091-0.15,0.157-0.314,0.198-0.495c0.042-0.182,0.064-0.382,0.07-0.602
		c0.005-0.221,0.008-0.452,0.008-0.702c0-0.245-0.003-0.479-0.008-0.7c-0.006-0.219-0.028-0.421-0.07-0.605
		c-0.041-0.184-0.107-0.349-0.198-0.495c-0.09-0.145-0.217-0.27-0.379-0.37c-0.161-0.103-0.37-0.181-0.622-0.235
		c-0.253-0.055-0.563-0.082-0.932-0.082h-0.759v4.971H127.295z"/>
	<path fill="#545454" d="M148.043,24.5c-0.67,0-1.317-0.042-1.941-0.123c-0.624-0.084-1.209-0.237-1.756-0.462
		s-1.045-0.515-1.496-0.869c-0.451-0.355-0.838-0.781-1.162-1.279c-0.324-0.497-0.576-1.068-0.754-1.715
		c-0.18-0.645-0.269-1.372-0.269-2.18c0-0.758,0.089-1.441,0.265-2.052c0.176-0.609,0.422-1.152,0.741-1.624
		c0.319-0.473,0.702-0.88,1.15-1.22c0.447-0.341,0.944-0.62,1.491-0.837s1.135-0.379,1.765-0.481
		c0.63-0.105,1.285-0.158,1.966-0.158c0.682,0,1.338,0.053,1.971,0.158c0.631,0.103,1.223,0.267,1.772,0.485
		c0.549,0.22,1.048,0.501,1.495,0.84c0.447,0.342,0.832,0.748,1.15,1.221c0.319,0.474,0.566,1.012,0.742,1.619
		c0.176,0.608,0.264,1.291,0.264,2.049c0,1.188-0.193,2.205-0.581,3.054c-0.388,0.851-0.917,1.544-1.587,2.082
		c-0.671,0.539-1.453,0.923-2.35,1.15C150.024,24.387,149.064,24.5,148.043,24.5z M148.043,15.268c-0.352,0-0.647,0.046-0.886,0.136
		c-0.239,0.091-0.437,0.211-0.594,0.358c-0.157,0.149-0.276,0.316-0.358,0.504c-0.082,0.187-0.145,0.376-0.186,0.568
		s-0.064,0.379-0.07,0.561c-0.006,0.181-0.008,0.341-0.008,0.478c0,0.138,0.002,0.298,0.008,0.478
		c0.006,0.182,0.029,0.37,0.07,0.565s0.104,0.389,0.186,0.581c0.082,0.193,0.201,0.363,0.358,0.516
		c0.157,0.151,0.354,0.273,0.594,0.367c0.238,0.092,0.534,0.141,0.886,0.141s0.647-0.049,0.887-0.141
		c0.238-0.094,0.438-0.216,0.597-0.367c0.159-0.152,0.282-0.322,0.368-0.516c0.084-0.192,0.146-0.386,0.185-0.581
		s0.063-0.384,0.069-0.565c0.01-0.18,0.013-0.34,0.013-0.478c0-0.137-0.003-0.297-0.013-0.478c-0.007-0.182-0.031-0.368-0.069-0.561
		s-0.101-0.382-0.185-0.568c-0.086-0.188-0.209-0.354-0.368-0.504c-0.158-0.147-0.358-0.268-0.597-0.358
		C148.69,15.313,148.395,15.268,148.043,15.268z"/>
	<path fill="#545454" d="M160.598,18.26v2.613l0.997,0.181v3.299h-4.962v-3.29l0.988-0.189v-4.691l-0.988-0.188v-3.248h5.951
		l3.965,6.257V16.2l-0.988-0.207v-3.248h4.953v3.248l-0.988,0.188v4.691l0.988,0.189v3.29h-5.951L160.598,18.26z"/>
	<path fill="#545454" d="M178.057,17.848l2.283-0.487v2.35l-2.283-0.495v1.823c0.33,0,0.648-0.023,0.956-0.07
		s0.595-0.111,0.857-0.194c0.265-0.082,0.506-0.178,0.726-0.288c0.22-0.109,0.409-0.229,0.568-0.354h1.129v4.222h-10.188v-3.29
		l0.989-0.189V16.2l-0.989-0.19v-3.265h10.188v4.22h-1.129c-0.159-0.12-0.349-0.235-0.568-0.345c-0.22-0.111-0.461-0.207-0.726-0.29
		c-0.263-0.082-0.55-0.148-0.857-0.196c-0.308-0.051-0.626-0.075-0.956-0.075V17.848z"/>
	<path fill="#545454" d="M199.654,20.379c-0.006,0.544-0.084,1.025-0.235,1.447c-0.151,0.42-0.361,0.781-0.63,1.087
		c-0.27,0.305-0.586,0.563-0.949,0.775c-0.362,0.21-0.752,0.382-1.17,0.512c-0.418,0.128-0.856,0.21-1.314,0.246
		c-0.459,0.036-0.919,0.054-1.381,0.054c-0.835,0-1.569-0.031-2.201-0.099c-0.363-0.045-0.904-0.165-1.623-0.363
		c-0.589-0.159-1.051-0.326-1.386-0.503v-3.256h2.481c0.285,0.396,0.608,0.687,0.969,0.875c0.359,0.186,0.729,0.279,1.109,0.279
		c0.098,0,0.208-0.009,0.329-0.025c0.12-0.016,0.234-0.063,0.343-0.14c0.105-0.076,0.197-0.198,0.271-0.362
		c0.074-0.165,0.111-0.396,0.111-0.692c-0.473-0.045-0.941-0.108-1.406-0.189c-0.465-0.084-0.908-0.195-1.33-0.339
		c-0.424-0.143-0.818-0.321-1.184-0.539c-0.365-0.217-0.682-0.48-0.948-0.788c-0.267-0.307-0.476-0.669-0.626-1.084
		c-0.152-0.414-0.227-0.894-0.227-1.438c0-0.582,0.076-1.094,0.23-1.537c0.153-0.442,0.363-0.824,0.63-1.145
		c0.267-0.323,0.58-0.589,0.94-0.801c0.359-0.212,0.746-0.38,1.162-0.506c0.415-0.126,0.846-0.207,1.294-0.24s0.895-0.05,1.34-0.05
		c0.648,0,1.231,0.024,1.752,0.07c0.519,0.047,0.987,0.12,1.405,0.22c0.418,0.099,0.787,0.209,1.108,0.332
		c0.321,0.125,0.608,0.243,0.861,0.359v3.215H196.9c-0.28-0.396-0.592-0.687-0.936-0.873c-0.343-0.188-0.696-0.281-1.059-0.281
		c-0.1,0-0.211,0.013-0.338,0.038c-0.127,0.023-0.245,0.081-0.354,0.172c-0.11,0.091-0.203,0.224-0.28,0.396
		c-0.077,0.174-0.115,0.409-0.115,0.706c0.961,0.032,1.808,0.138,2.539,0.313c0.73,0.176,1.339,0.441,1.825,0.795
		c0.487,0.354,0.854,0.809,1.101,1.36C199.531,18.933,199.654,19.598,199.654,20.379z"/>
	<path fill="#545454" d="M206.109,17.872c0,0.474,0.06,0.88,0.181,1.221c0.12,0.34,0.298,0.62,0.531,0.841
		c0.234,0.219,0.52,0.383,0.857,0.485c0.339,0.105,0.724,0.157,1.159,0.157c0.516,0,1.125-0.063,1.829-0.189
		c0.704-0.126,1.481-0.322,2.333-0.586v3.858c-0.885,0.297-1.746,0.511-2.584,0.644c-0.839,0.131-1.664,0.197-2.478,0.197
		c-0.995,0-1.925-0.123-2.79-0.372c-0.866-0.245-1.619-0.646-2.258-1.197c-0.641-0.554-1.146-1.25-1.514-2.091
		s-0.553-1.83-0.553-2.968c0-1.11,0.17-2.065,0.507-2.868c0.339-0.803,0.817-1.464,1.435-1.982c0.619-0.52,1.361-0.903,2.227-1.149
		c0.865-0.248,1.825-0.372,2.881-0.372c0.648,0,1.232,0.032,1.752,0.099s0.986,0.149,1.404,0.249
		c0.418,0.099,0.787,0.209,1.109,0.332c0.321,0.125,0.609,0.243,0.861,0.359v3.791h-2.48c-0.281-0.394-0.594-0.686-0.937-0.874
		c-0.344-0.186-0.696-0.279-1.06-0.279c-0.307,0-0.605,0.062-0.895,0.181c-0.288,0.122-0.545,0.298-0.771,0.528
		c-0.226,0.229-0.406,0.512-0.544,0.846C206.178,17.063,206.109,17.444,206.109,17.872z"/>
</g>
</svg>
