<?xml version="1.0" encoding="utf-8"?>
<!-- Generator: Adobe Illustrator 16.0.0, SVG Export Plug-In . SVG Version: 6.00 Build 0)  -->
<!DOCTYPE svg PUBLIC "-//W3C//DTD SVG 1.1//EN" "http://www.w3.org/Graphics/SVG/1.1/DTD/svg11.dtd">
<svg version="1.1" id="图层_1" xmlns="http://www.w3.org/2000/svg" xmlns:xlink="http://www.w3.org/1999/xlink" x="0px" y="0px"
	 width="258px" height="36px" viewBox="0 0 258 36" enable-background="new 0 0 258 36" xml:space="preserve">
<g>
	<path fill="#545454" d="M16.588,24.997c-0.362,0-0.72,0.016-1.072,0.047c-0.352,0.03-0.706,0.046-1.062,0.046h-0.072
		c-0.082-0.014-0.185-0.028-0.308-0.046c-0.123-0.018-0.241-0.048-0.354-0.093c-0.113-0.044-0.209-0.104-0.288-0.179
		c-0.079-0.076-0.118-0.179-0.118-0.31c0-0.027,0.003-0.064,0.01-0.112s0.028-0.085,0.062-0.112
		c0.014-0.021,0.048-0.038,0.103-0.052s0.092-0.021,0.113-0.021c0.191-0.021,0.383-0.034,0.574-0.041
		c0.192-0.007,0.38-0.027,0.564-0.062s0.361-0.093,0.528-0.175s0.32-0.205,0.457-0.369c-0.007-0.301,0.003-0.597,0.031-0.888
		c0.027-0.29,0.041-0.579,0.041-0.866c0-0.116-0.012-0.222-0.036-0.317s-0.036-0.196-0.036-0.299v-0.185
		c0-0.021,0.003-0.055,0.01-0.103s0.016-0.101,0.025-0.159c0.011-0.058,0.019-0.111,0.026-0.158c0.007-0.049,0.01-0.079,0.01-0.093
		v-1.539c0-0.014,0.003-0.039,0.01-0.077c0.007-0.037,0.015-0.077,0.026-0.118c0.01-0.041,0.019-0.076,0.026-0.107
		c0.007-0.03,0.01-0.049,0.01-0.057c0-0.014,0.002-0.049,0.006-0.107c0.003-0.058,0.005-0.125,0.005-0.199
		c0-0.076,0.001-0.15,0.005-0.227c0.003-0.075,0.005-0.134,0.005-0.175c0-0.027-0.002-0.077-0.005-0.148
		c-0.004-0.072-0.005-0.146-0.005-0.221s-0.002-0.145-0.005-0.21c-0.004-0.065-0.006-0.108-0.006-0.128
		c0-0.027-0.009-0.079-0.026-0.154s-0.032-0.127-0.046-0.154v-0.082c0-0.109,0.027-0.211,0.083-0.307
		c0.055-0.097,0.082-0.21,0.082-0.34v-0.123c0-0.062-0.007-0.121-0.021-0.18c-0.014-0.058-0.038-0.114-0.072-0.169v-0.718
		c0-0.247,0.016-0.486,0.047-0.719c0.03-0.232,0.046-0.465,0.046-0.697v-0.144c-0.007-0.007-0.016-0.025-0.025-0.057
		c-0.011-0.03-0.021-0.062-0.031-0.092c-0.01-0.031-0.022-0.073-0.036-0.128c0-0.035,0.012-0.089,0.036-0.16
		c0.023-0.072,0.043-0.114,0.057-0.128v-0.072c0-0.123-0.048-0.242-0.144-0.359c-0.096-0.115-0.195-0.191-0.297-0.225
		c-0.062-0.008-0.171-0.024-0.328-0.052s-0.322-0.057-0.493-0.087c-0.171-0.031-0.333-0.061-0.487-0.088
		c-0.155-0.027-0.262-0.047-0.324-0.061c-0.164-0.035-0.289-0.1-0.374-0.195c-0.086-0.096-0.128-0.232-0.128-0.411
		c0-0.144,0.06-0.254,0.179-0.333s0.258-0.137,0.416-0.175c0.157-0.037,0.318-0.06,0.482-0.066s0.291-0.01,0.379-0.01h0.103
		c0.027,0,0.094,0.006,0.2,0.02s0.219,0.027,0.339,0.041c0.119,0.014,0.23,0.027,0.333,0.041c0.103,0.014,0.168,0.021,0.195,0.021
		c0.034,0.014,0.099,0.02,0.195,0.02s0.198,0,0.308,0c0.103,0,0.202,0,0.298,0s0.167-0.006,0.215-0.02
		c0.075,0.047,0.159,0.074,0.251,0.082c0.093,0.006,0.163,0.01,0.21,0.01c0.281,0,0.551-0.027,0.811-0.082
		c0.26-0.055,0.544-0.082,0.852-0.082h0.575c0.082,0.055,0.167,0.102,0.256,0.139s0.173,0.078,0.251,0.123s0.144,0.101,0.195,0.169
		c0.051,0.068,0.077,0.164,0.077,0.288c0,0.055-0.01,0.114-0.031,0.18s-0.05,0.128-0.087,0.189
		c-0.038,0.062-0.084,0.112-0.139,0.153s-0.113,0.063-0.174,0.063c-0.151,0.027-0.301,0.047-0.452,0.061s-0.308,0.021-0.472,0.021
		c-0.171,0-0.338-0.008-0.502-0.021s-0.332-0.033-0.503-0.061c-0.014,0-0.026,0.015-0.036,0.046
		c-0.011,0.03-0.016,0.056-0.016,0.077c0,0.014,0.003,0.039,0.01,0.076c0.007,0.038,0.012,0.076,0.015,0.113s0.012,0.09,0.026,0.158
		v0.164c0,0.076-0.012,0.145-0.036,0.205c-0.024,0.063-0.048,0.123-0.072,0.186c-0.024,0.062-0.048,0.122-0.071,0.18
		c-0.024,0.059-0.036,0.122-0.036,0.19v0.143c0.014,0.021,0.029,0.063,0.046,0.123c0.017,0.063,0.033,0.1,0.046,0.113v0.41v0.154
		c0.007,0.033,0.017,0.064,0.031,0.092c0.027,0.068,0.041,0.109,0.041,0.123c0.014,0.186,0.025,0.36,0.036,0.524
		c0.01,0.164,0.015,0.345,0.015,0.543c0,0.219-0.036,0.436-0.108,0.651c-0.071,0.216-0.107,0.439-0.107,0.672v0.021
		c0.007,0.014,0.019,0.039,0.036,0.076c0.017,0.038,0.036,0.08,0.056,0.129c0.021,0.047,0.038,0.094,0.051,0.138
		c0.014,0.045,0.021,0.073,0.021,0.087v0.369c0,0.261-0.027,0.517-0.082,0.766s-0.082,0.504-0.082,0.764
		c0,0.335,0.016,0.666,0.046,0.99c0.031,0.325,0.046,0.651,0.046,0.979v0.883c-0.014,0.034-0.029,0.098-0.046,0.189
		c-0.017,0.093-0.032,0.148-0.046,0.17c0,0.006-0.003,0.025-0.01,0.056c-0.007,0.031-0.015,0.062-0.026,0.093
		c-0.01,0.03-0.019,0.062-0.025,0.092c-0.007,0.031-0.01,0.05-0.01,0.057c0,0.014,0.003,0.05,0.01,0.107
		c0.007,0.059,0.014,0.124,0.021,0.196c0.007,0.071,0.014,0.141,0.021,0.205s0.014,0.111,0.021,0.139
		c0.021,0.096,0.055,0.17,0.103,0.225s0.103,0.098,0.164,0.129c0.062,0.03,0.13,0.053,0.205,0.066
		c0.076,0.014,0.154,0.031,0.236,0.051c0.007,0.014,0.032,0.027,0.077,0.041s0.091,0.029,0.139,0.047s0.094,0.032,0.139,0.046
		c0.044,0.014,0.073,0.024,0.087,0.03c0.034,0.008,0.098,0.014,0.19,0.021c0.093,0.006,0.191,0.014,0.298,0.02
		c0.105,0.008,0.207,0.014,0.302,0.021c0.096,0.006,0.165,0.01,0.206,0.01c0.062,0.041,0.101,0.082,0.118,0.123
		s0.026,0.092,0.026,0.154v0.092c0,0.157-0.029,0.274-0.087,0.35s-0.146,0.167-0.262,0.276c-0.021,0-0.048,0.012-0.082,0.036
		s-0.055,0.036-0.062,0.036h-0.041h-0.051c-0.513-0.034-1.021-0.082-1.523-0.144C17.609,25.028,17.102,24.997,16.588,24.997z"/>
	<path fill="#545454" d="M24.068,24.997h-1.939c-0.027,0-0.056-0.021-0.087-0.066c-0.03-0.044-0.06-0.096-0.087-0.153
		s-0.051-0.112-0.072-0.16s-0.031-0.075-0.031-0.082c0-0.137,0.049-0.26,0.148-0.369s0.207-0.164,0.323-0.164
		c0.034,0,0.103-0.004,0.206-0.01c0.103-0.008,0.208-0.011,0.318-0.011c0.103,0,0.202,0.003,0.297,0.011
		c0.096,0.006,0.161,0.01,0.195,0.01c0.021-0.014,0.046-0.029,0.077-0.046c0.031-0.017,0.054-0.029,0.067-0.036
		c0.021-0.007,0.049-0.031,0.087-0.072c0.037-0.041,0.078-0.085,0.123-0.133c0.044-0.048,0.087-0.092,0.128-0.133
		s0.068-0.072,0.082-0.093c0-0.034,0.003-0.098,0.01-0.189c0.007-0.093,0.015-0.191,0.026-0.299c0.01-0.105,0.019-0.207,0.025-0.303
		s0.01-0.164,0.01-0.205c0.014-0.014,0.029-0.068,0.046-0.164c0.017-0.096,0.032-0.156,0.046-0.184v-0.462v-0.185
		c0-0.014,0.007-0.045,0.021-0.092c0.014-0.049,0.027-0.101,0.041-0.155s0.027-0.105,0.041-0.154
		c0.014-0.047,0.021-0.078,0.021-0.092c0.048-0.232,0.099-0.482,0.154-0.748c0.055-0.268,0.082-0.52,0.082-0.761
		c0-0.014-0.015-0.058-0.046-0.133c-0.03-0.075-0.046-0.127-0.046-0.154v-0.656c0-0.307,0.01-0.616,0.031-0.923
		c0.021-0.309,0.065-0.609,0.133-0.902c0-0.008,0.007-0.031,0.021-0.072s0.027-0.086,0.041-0.133
		c0.014-0.049,0.027-0.094,0.041-0.139c0.014-0.046,0.021-0.075,0.021-0.089c0-0.033,0.008-0.119,0.025-0.256
		s0.034-0.285,0.052-0.446c0.017-0.16,0.034-0.313,0.051-0.456s0.026-0.236,0.026-0.277c0-0.006,0.003-0.033,0.01-0.082
		c0.007-0.047,0.016-0.1,0.025-0.154c0.011-0.055,0.019-0.106,0.026-0.153c0.007-0.049,0.01-0.076,0.01-0.082
		c0-0.014-0.007-0.039-0.021-0.077s-0.031-0.075-0.051-0.113c-0.021-0.037-0.04-0.073-0.056-0.107
		c-0.018-0.034-0.026-0.055-0.026-0.062c0-0.021,0.012-0.062,0.036-0.123s0.04-0.1,0.046-0.113c0.007-0.02,0.014-0.053,0.021-0.097
		s0.014-0.089,0.021-0.134c0.007-0.044,0.014-0.085,0.021-0.123c0.007-0.037,0.01-0.06,0.01-0.066c0-0.027-0.003-0.073-0.01-0.139
		c-0.007-0.064-0.014-0.135-0.021-0.21c-0.007-0.076-0.014-0.146-0.021-0.211s-0.014-0.115-0.021-0.148
		c-0.096-0.117-0.22-0.178-0.375-0.186c-0.153-0.006-0.296-0.017-0.426-0.03c-0.014,0-0.041-0.007-0.082-0.021
		s-0.084-0.031-0.128-0.051c-0.044-0.021-0.087-0.038-0.128-0.052s-0.068-0.021-0.082-0.021c-0.151-0.041-0.284-0.072-0.4-0.092
		c-0.116-0.021-0.22-0.049-0.313-0.082c-0.092-0.035-0.172-0.091-0.241-0.17c-0.068-0.078-0.13-0.199-0.185-0.363
		c0-0.021,0.021-0.047,0.062-0.077c0.041-0.031,0.068-0.054,0.082-0.067h0.216c0.021,0,0.062-0.006,0.123-0.02
		s0.13-0.031,0.205-0.052s0.144-0.038,0.205-0.052c0.062-0.015,0.103-0.021,0.123-0.021h0.544h0.646
		c0.014,0,0.039,0.003,0.077,0.011c0.037,0.006,0.075,0.016,0.112,0.025s0.091,0.021,0.159,0.036h1.508
		c0.233,0.096,0.422,0.224,0.569,0.385s0.289,0.34,0.426,0.538c0.007,0.014,0.022,0.034,0.046,0.062
		c0.023,0.027,0.05,0.057,0.077,0.087c0.027,0.031,0.049,0.062,0.066,0.093c0.017,0.03,0.026,0.053,0.026,0.066
		c0.014,0.007,0.027,0.048,0.041,0.123s0.031,0.126,0.051,0.153c0.055,0.145,0.128,0.28,0.221,0.406
		c0.092,0.127,0.152,0.272,0.179,0.437c0,0.014,0.003,0.053,0.01,0.117c0.007,0.065,0.016,0.134,0.025,0.205
		c0.011,0.072,0.019,0.141,0.026,0.205c0.007,0.065,0.01,0.107,0.01,0.129c0.034,0.096,0.083,0.205,0.148,0.329
		c0.065,0.123,0.112,0.225,0.139,0.307c0,0.014,0.012,0.063,0.036,0.145c0.023,0.082,0.036,0.129,0.036,0.143
		c0.007,0.014,0.024,0.038,0.051,0.072s0.058,0.07,0.092,0.107c0.034,0.038,0.065,0.074,0.092,0.107
		c0.027,0.035,0.044,0.055,0.051,0.063c0.007,0.014,0.015,0.044,0.026,0.092c0.01,0.048,0.019,0.1,0.025,0.154
		s0.012,0.107,0.016,0.158c0.003,0.052,0.005,0.084,0.005,0.098c0.068,0.233,0.159,0.434,0.272,0.601
		c0.113,0.168,0.217,0.367,0.313,0.6c0,0.014,0.003,0.045,0.01,0.093s0.014,0.099,0.021,0.153s0.012,0.108,0.016,0.159
		c0.003,0.052,0.005,0.084,0.005,0.098s0.012,0.06,0.036,0.139c0.023,0.08,0.036,0.125,0.036,0.139
		c0.027,0.082,0.072,0.143,0.133,0.18c0.062,0.038,0.126,0.076,0.195,0.113c0.069,0.037,0.129,0.08,0.18,0.128
		c0.052,0.048,0.077,0.116,0.077,0.205v0.175c0,0.014-0.012,0.058-0.036,0.133s-0.036,0.119-0.036,0.133
		c0,0.008,0.005,0.029,0.015,0.067c0.011,0.038,0.022,0.079,0.036,0.123s0.027,0.091,0.041,0.138
		c0.014,0.049,0.024,0.086,0.031,0.113c0.021,0.049,0.048,0.105,0.082,0.17c0.034,0.065,0.073,0.128,0.118,0.19
		c0.044,0.061,0.094,0.114,0.149,0.158c0.055,0.045,0.109,0.066,0.164,0.066c0.041,0,0.075-0.014,0.103-0.041
		c0.028-0.027,0.05-0.061,0.067-0.102c0.017-0.041,0.034-0.084,0.051-0.129c0.017-0.044,0.04-0.084,0.067-0.117
		c0.075-0.09,0.172-0.185,0.292-0.283c0.119-0.099,0.21-0.218,0.271-0.354c0.007-0.033,0.014-0.068,0.021-0.102
		c0.007-0.035,0.014-0.065,0.021-0.093s0.011-0.052,0.011-0.071c0.034-0.131,0.072-0.241,0.113-0.334
		c0.041-0.092,0.085-0.181,0.133-0.267c0.048-0.085,0.101-0.171,0.159-0.256s0.118-0.184,0.18-0.293
		c0.082-0.131,0.144-0.262,0.185-0.396c0.042-0.133,0.099-0.261,0.175-0.384c0.007-0.008,0.024-0.029,0.051-0.067
		c0.027-0.037,0.058-0.077,0.092-0.118s0.065-0.078,0.092-0.112s0.044-0.055,0.051-0.062c0.021-0.027,0.038-0.068,0.051-0.123
		s0.025-0.109,0.036-0.165c0.01-0.055,0.019-0.107,0.025-0.159c0.007-0.051,0.017-0.091,0.031-0.118
		c0.103-0.293,0.229-0.568,0.38-0.825c0.15-0.256,0.287-0.531,0.41-0.826c0.055-0.116,0.09-0.244,0.107-0.385
		c0.017-0.14,0.046-0.268,0.087-0.385c0.021-0.027,0.056-0.097,0.108-0.21c0.051-0.112,0.104-0.233,0.159-0.364
		c0.055-0.13,0.108-0.25,0.159-0.359c0.052-0.109,0.084-0.181,0.098-0.216c0.007-0.02,0.017-0.056,0.031-0.107
		c0.014-0.051,0.021-0.087,0.021-0.107v-0.031v-0.02c0-0.021-0.009-0.05-0.026-0.088c-0.017-0.037-0.025-0.063-0.025-0.076V12.08
		v-0.062c0.048-0.096,0.099-0.191,0.154-0.287s0.116-0.183,0.185-0.262c0.069-0.078,0.151-0.145,0.247-0.2
		c0.096-0.055,0.208-0.093,0.338-0.113c0.027,0,0.111,0.002,0.251,0.005c0.14,0.004,0.276,0.005,0.406,0.005
		c0.137,0,0.219-0.003,0.246-0.01c0.014,0,0.042-0.005,0.087-0.016c0.044-0.01,0.093-0.023,0.144-0.041
		c0.052-0.017,0.098-0.032,0.139-0.046c0.041-0.014,0.065-0.021,0.072-0.021c0.219-0.055,0.427-0.096,0.625-0.123
		c0.199-0.027,0.421-0.041,0.667-0.041c0.041,0,0.096,0.002,0.164,0.005c0.069,0.004,0.135,0.005,0.2,0.005s0.123,0.002,0.175,0.006
		c0.051,0.004,0.08,0.005,0.087,0.005c0.075,0,0.159,0.017,0.251,0.052c0.093,0.033,0.18,0.082,0.262,0.143
		c0.082,0.063,0.15,0.133,0.205,0.211c0.055,0.079,0.082,0.163,0.082,0.252c0,0.055-0.022,0.112-0.066,0.175
		c-0.045,0.061-0.098,0.119-0.159,0.174s-0.123,0.102-0.185,0.139c-0.062,0.037-0.11,0.057-0.144,0.057
		c-0.116,0-0.226-0.012-0.328-0.036s-0.212-0.036-0.329-0.036c-0.116,0-0.232,0.009-0.349,0.025
		c-0.116,0.018-0.243,0.057-0.379,0.118c-0.083,0.041-0.147,0.103-0.195,0.185s-0.084,0.173-0.107,0.271
		c-0.024,0.1-0.038,0.203-0.041,0.313c-0.004,0.11-0.005,0.21-0.005,0.299v0.175c0,0.082,0.003,0.148,0.01,0.199
		c0.007,0.052,0.017,0.102,0.031,0.148c0.014,0.049,0.029,0.096,0.046,0.145c0.017,0.047,0.032,0.109,0.046,0.184
		c0,0.035,0.001,0.093,0.005,0.175s0.005,0.166,0.005,0.251c0,0.086,0.001,0.169,0.005,0.247c0.003,0.079,0.005,0.132,0.005,0.159
		c0,0.629-0.017,1.253-0.051,1.872s-0.044,1.244-0.031,1.873c0,0.014-0.012,0.047-0.036,0.102s-0.036,0.09-0.036,0.104v0.051v0.031
		c0.034,0.178,0.068,0.365,0.103,0.563c0.034,0.199,0.051,0.391,0.051,0.575c0,0.178-0.025,0.344-0.077,0.497
		c-0.051,0.154-0.077,0.32-0.077,0.498v0.123c0,0.055,0.003,0.104,0.01,0.149c0.007,0.045,0.027,0.094,0.062,0.148
		c0,0.021,0,0.061,0,0.118s0.001,0.12,0.005,0.185s0.005,0.127,0.005,0.185s0,0.097,0,0.118c0,0.041,0,0.096,0,0.164
		s-0.002,0.135-0.005,0.199c-0.003,0.065-0.005,0.123-0.005,0.175c0,0.051,0,0.08,0,0.087s-0.012,0.048-0.036,0.123
		s-0.036,0.127-0.036,0.154v0.165v0.102c0,0.021,0.019,0.068,0.056,0.145c0.038,0.074,0.063,0.123,0.077,0.143
		c0.007,0.014,0.025,0.04,0.057,0.077c0.031,0.038,0.062,0.077,0.092,0.118c0.031,0.041,0.06,0.077,0.087,0.107
		c0.027,0.031,0.044,0.05,0.051,0.057c0.014,0.007,0.029,0.031,0.046,0.072s0.026,0.068,0.026,0.082
		c0.014,0.014,0.027,0.029,0.041,0.046s0.031,0.025,0.051,0.025h0.277c0.007,0,0.032,0.007,0.077,0.021s0.091,0.027,0.139,0.041
		s0.093,0.027,0.134,0.041s0.068,0.021,0.082,0.021c0.007,0.007,0.031,0.014,0.072,0.021s0.083,0.016,0.128,0.025
		c0.044,0.011,0.087,0.02,0.128,0.025c0.041,0.008,0.068,0.014,0.082,0.021c0.021,0.006,0.051,0.019,0.092,0.035
		c0.041,0.018,0.085,0.036,0.133,0.057s0.091,0.041,0.129,0.062c0.037,0.021,0.06,0.034,0.066,0.041c0,0.014,0.003,0.041,0.01,0.082
		s0.01,0.066,0.01,0.072c0,0.096-0.044,0.18-0.133,0.252c-0.089,0.071-0.192,0.107-0.308,0.107H35.61
		c-0.034,0-0.087,0.012-0.159,0.036c-0.072,0.023-0.115,0.036-0.128,0.036h-0.072H35.18c-0.007,0-0.029,0.006-0.067,0.02
		c-0.037,0.014-0.076,0.027-0.118,0.041c-0.041,0.014-0.079,0.027-0.113,0.041s-0.055,0.021-0.062,0.021h-0.564h-0.164
		c-0.089,0-0.181-0.045-0.277-0.134s-0.144-0.181-0.144-0.276v-0.072c0.048,0,0.133-0.012,0.256-0.036
		c0.123-0.023,0.208-0.036,0.256-0.036c0.014,0,0.046-0.012,0.098-0.035c0.051-0.024,0.083-0.037,0.097-0.037
		s0.039-0.003,0.077-0.011c0.038-0.006,0.077-0.014,0.118-0.02c0.041-0.008,0.077-0.016,0.107-0.026
		c0.031-0.01,0.05-0.019,0.057-0.025c0.082-0.027,0.145-0.083,0.189-0.169s0.079-0.178,0.103-0.277
		c0.024-0.099,0.04-0.197,0.047-0.297s0.01-0.184,0.01-0.252c0.076-0.438,0.128-0.876,0.16-1.313
		c0.03-0.438,0.073-0.881,0.128-1.333c0-0.068,0.001-0.193,0.005-0.375c0.003-0.181,0.009-0.372,0.016-0.574
		c0.007-0.201,0.012-0.392,0.016-0.569c0.003-0.178,0.005-0.305,0.005-0.38c0-0.13-0.002-0.299-0.005-0.508
		c-0.004-0.208-0.009-0.415-0.016-0.621c-0.007-0.205-0.012-0.387-0.016-0.543c-0.003-0.158-0.005-0.243-0.005-0.257
		c0-0.048-0.002-0.139-0.005-0.271c-0.004-0.134-0.009-0.275-0.016-0.426c-0.007-0.151-0.012-0.295-0.016-0.432
		s-0.008-0.236-0.015-0.297c0-0.021-0.007-0.063-0.021-0.123c-0.014-0.063-0.033-0.125-0.056-0.19
		c-0.024-0.064-0.052-0.123-0.082-0.174c-0.031-0.052-0.06-0.077-0.087-0.077c-0.062,0-0.112,0.016-0.149,0.046
		c-0.038,0.031-0.07,0.067-0.097,0.108s-0.053,0.085-0.077,0.133c-0.024,0.048-0.053,0.089-0.087,0.123
		c-0.007,0.014-0.026,0.037-0.056,0.072c-0.031,0.033-0.067,0.071-0.108,0.112s-0.081,0.077-0.118,0.107
		c-0.038,0.031-0.063,0.05-0.077,0.057c0,0.021-0.009,0.048-0.025,0.082c-0.018,0.034-0.026,0.062-0.026,0.082
		c-0.082,0.185-0.179,0.361-0.292,0.529c-0.112,0.168-0.21,0.347-0.292,0.538c-0.062,0.178-0.111,0.364-0.148,0.559
		c-0.038,0.195-0.084,0.385-0.139,0.57c-0.007,0.082-0.036,0.144-0.087,0.185c-0.052,0.041-0.087,0.099-0.108,0.175
		c-0.007,0.006-0.015,0.029-0.026,0.066c-0.01,0.037-0.019,0.076-0.025,0.117s-0.014,0.081-0.021,0.118
		c-0.007,0.038-0.01,0.06-0.01,0.067c-0.014,0.014-0.041,0.041-0.082,0.082s-0.085,0.084-0.133,0.128s-0.094,0.089-0.139,0.133
		c-0.044,0.045-0.07,0.073-0.077,0.087c-0.048,0.041-0.079,0.111-0.092,0.211s-0.031,0.17-0.052,0.211
		c-0.007,0.021-0.017,0.058-0.031,0.112s-0.021,0.09-0.021,0.104c-0.014,0.014-0.041,0.046-0.082,0.097
		c-0.041,0.052-0.068,0.084-0.082,0.098c-0.068,0.178-0.116,0.36-0.144,0.549s-0.072,0.37-0.133,0.548
		c-0.021,0.036-0.046,0.089-0.077,0.16c-0.031,0.072-0.062,0.147-0.093,0.226c-0.03,0.079-0.06,0.148-0.087,0.211
		c-0.027,0.061-0.044,0.099-0.051,0.112c0,0.014-0.018,0.055-0.052,0.123s-0.07,0.144-0.107,0.226
		c-0.038,0.082-0.076,0.159-0.113,0.23c-0.038,0.072-0.063,0.118-0.077,0.139c0,0.007-0.002,0.034-0.005,0.082
		s-0.008,0.1-0.015,0.154s-0.014,0.106-0.021,0.154s-0.01,0.075-0.01,0.082c0,0.034-0.012,0.087-0.036,0.159
		c-0.024,0.071-0.036,0.114-0.036,0.128c-0.021,0.034-0.05,0.095-0.087,0.18s-0.08,0.174-0.128,0.267
		c-0.048,0.092-0.091,0.18-0.128,0.262c-0.038,0.082-0.067,0.137-0.088,0.164c-0.075,0.041-0.15,0.088-0.226,0.143
		s-0.161,0.082-0.256,0.082c-0.089,0-0.178-0.042-0.267-0.128c-0.089-0.085-0.169-0.187-0.241-0.302
		c-0.071-0.117-0.133-0.236-0.185-0.359c-0.051-0.123-0.083-0.226-0.097-0.308c-0.034-0.123-0.063-0.235-0.087-0.339
		c-0.024-0.102-0.046-0.204-0.066-0.303s-0.046-0.2-0.077-0.303c-0.03-0.103-0.073-0.216-0.128-0.339
		c-0.007-0.014-0.03-0.053-0.067-0.117c-0.038-0.064-0.077-0.134-0.118-0.205c-0.041-0.072-0.079-0.139-0.113-0.2
		s-0.055-0.099-0.062-0.112c-0.123-0.219-0.215-0.44-0.277-0.663c-0.062-0.222-0.14-0.456-0.236-0.702
		c-0.123-0.342-0.267-0.682-0.431-1.016c-0.164-0.336-0.304-0.684-0.421-1.047c-0.007-0.006-0.014-0.03-0.021-0.071
		c-0.007-0.042-0.012-0.086-0.016-0.135c-0.003-0.047-0.007-0.092-0.01-0.133c-0.004-0.041-0.005-0.068-0.005-0.082
		c-0.014-0.014-0.041-0.049-0.082-0.107s-0.068-0.094-0.082-0.107c0-0.014-0.01-0.047-0.031-0.098
		c-0.021-0.052-0.031-0.084-0.031-0.098c-0.007-0.014-0.017-0.039-0.031-0.077c-0.014-0.037-0.029-0.077-0.046-0.118
		c-0.018-0.041-0.035-0.076-0.052-0.107c-0.017-0.03-0.029-0.049-0.036-0.057c0-0.02-0.002-0.056-0.005-0.107
		c-0.003-0.051-0.008-0.104-0.015-0.158s-0.014-0.106-0.021-0.154s-0.01-0.078-0.01-0.092c-0.014-0.021-0.029-0.05-0.046-0.089
		c-0.018-0.037-0.036-0.078-0.057-0.123c-0.021-0.044-0.041-0.085-0.062-0.123c-0.021-0.037-0.038-0.066-0.051-0.087l-0.216-0.216
		c-0.062-0.082-0.113-0.179-0.154-0.292c-0.041-0.112-0.087-0.224-0.138-0.333c-0.052-0.109-0.117-0.201-0.195-0.277
		c-0.079-0.074-0.187-0.112-0.323-0.112h-0.062c-0.034,0.123-0.056,0.235-0.067,0.339c-0.01,0.102-0.019,0.203-0.025,0.302
		c-0.007,0.1-0.012,0.202-0.016,0.308c-0.003,0.106-0.008,0.225-0.015,0.354c-0.014,0.063-0.026,0.108-0.036,0.139
		c-0.011,0.031-0.022,0.077-0.036,0.139v0.114c0,0.074,0.012,0.15,0.036,0.225c0.023,0.076,0.036,0.158,0.036,0.246v0.063
		c-0.034,0.164-0.068,0.328-0.103,0.492s-0.051,0.334-0.051,0.513c0,0.232,0.025,0.459,0.077,0.678
		c0.051,0.219,0.077,0.443,0.077,0.676c-0.014,0.055-0.026,0.098-0.036,0.129c-0.011,0.03-0.019,0.062-0.026,0.092
		c-0.007,0.031-0.01,0.05-0.01,0.057v1.067c0,0.014-0.007,0.045-0.021,0.092c-0.014,0.049-0.029,0.1-0.046,0.154
		c-0.018,0.055-0.035,0.107-0.052,0.159c-0.017,0.051-0.029,0.083-0.036,0.097v0.104c0,0.061,0.007,0.114,0.021,0.158
		c0.014,0.045,0.038,0.104,0.072,0.18v1.539c0.034,0.062,0.062,0.13,0.082,0.205s0.041,0.15,0.062,0.226s0.046,0.146,0.077,0.21
		c0.03,0.065,0.073,0.118,0.128,0.159c0.144,0.014,0.32,0.034,0.529,0.062c0.208,0.027,0.388,0.071,0.539,0.134
		c0.014,0.02,0.046,0.049,0.098,0.087c0.051,0.038,0.083,0.063,0.097,0.077c0.055,0.027,0.109,0.047,0.164,0.061
		s0.103,0.031,0.144,0.052s0.073,0.052,0.097,0.093s0.036,0.097,0.036,0.165c0,0.096-0.021,0.17-0.062,0.225
		s-0.092,0.096-0.154,0.123s-0.13,0.045-0.205,0.052s-0.147,0.011-0.215,0.011c-0.288,0-0.575-0.013-0.862-0.036
		c-0.288-0.024-0.575-0.036-0.862-0.036h-0.267c-0.007,0-0.025,0.004-0.057,0.01c-0.03,0.008-0.062,0.016-0.092,0.026
		c-0.031,0.01-0.062,0.019-0.093,0.025c-0.03,0.007-0.049,0.011-0.056,0.011c-0.014,0-0.043-0.006-0.087-0.016
		c-0.044-0.011-0.092-0.024-0.144-0.041c-0.051-0.018-0.101-0.033-0.149-0.047C24.123,25.024,24.088,25.011,24.068,24.997z"/>
	<path fill="#545454" d="M45.932,24.32c0-0.076,0.018-0.149,0.052-0.221c0.034-0.072,0.08-0.137,0.138-0.195
		c0.058-0.058,0.125-0.105,0.2-0.144c0.075-0.037,0.154-0.056,0.236-0.056c0.109,0,0.212,0.014,0.308,0.041
		c0.096,0.027,0.205,0.041,0.328,0.041c0.041,0,0.092-0.004,0.154-0.011s0.123-0.017,0.185-0.03s0.119-0.036,0.169-0.067
		c0.052-0.03,0.091-0.069,0.118-0.118c0-0.02,0.007-0.053,0.021-0.097s0.029-0.091,0.046-0.139s0.031-0.091,0.041-0.128
		c0.011-0.037,0.016-0.063,0.016-0.077v-0.195v-0.236c0-0.007-0.003-0.034-0.01-0.082s-0.012-0.1-0.015-0.154
		c-0.004-0.055-0.009-0.105-0.016-0.153s-0.01-0.079-0.01-0.093c0-0.033,0.005-0.097,0.015-0.189
		c0.011-0.092,0.022-0.152,0.036-0.18v-4.771c-0.027-0.137-0.043-0.244-0.046-0.323c-0.004-0.078-0.005-0.179-0.005-0.302v-0.155
		c0-0.034,0.001-0.07,0.005-0.107c0.003-0.037,0.019-0.074,0.046-0.107v-1.724c0.075-0.186,0.12-0.387,0.133-0.605
		s0.021-0.431,0.021-0.636V12.87c0-0.055-0.017-0.141-0.051-0.257s-0.079-0.233-0.133-0.354s-0.115-0.228-0.179-0.323
		c-0.065-0.096-0.132-0.15-0.201-0.164c-0.048,0.014-0.116,0.023-0.205,0.031c-0.089,0.006-0.181,0.01-0.277,0.01
		s-0.188-0.004-0.277-0.01c-0.089-0.008-0.151-0.018-0.185-0.031c-0.123,0-0.239-0.048-0.349-0.144s-0.164-0.205-0.164-0.329
		c0-0.055,0.008-0.093,0.025-0.112c0.017-0.021,0.04-0.063,0.067-0.123c0.075-0.137,0.161-0.246,0.256-0.328s0.229-0.134,0.4-0.154
		c0.021,0,0.079-0.005,0.174-0.016c0.096-0.01,0.203-0.019,0.323-0.025c0.119-0.007,0.237-0.016,0.354-0.025
		c0.116-0.011,0.205-0.016,0.267-0.016h0.708c0.472,0,0.937,0.025,1.395,0.077c0.458,0.051,0.924,0.077,1.396,0.077
		c0.198,0,0.38-0.004,0.544-0.011s0.366-0.027,0.605-0.062c0.014-0.007,0.048-0.021,0.103-0.041s0.092-0.034,0.113-0.041h2.483
		c0.096,0.041,0.219,0.074,0.369,0.098s0.264,0.043,0.339,0.057c0.027,0,0.103-0.002,0.226-0.006
		c0.123-0.003,0.236-0.005,0.338-0.005c0.055,0,0.104,0,0.149,0c0.044,0,0.073,0.003,0.087,0.011c0.007,0,0.029,0.01,0.067,0.03
		c0.037,0.021,0.078,0.046,0.123,0.077c0.044,0.03,0.09,0.063,0.138,0.098c0.048,0.033,0.082,0.061,0.103,0.082
		c0.007,0.014,0.017,0.03,0.031,0.051c0.007,0.014,0.014,0.027,0.021,0.041s0.01,0.023,0.01,0.031
		c0.007,0.033,0.019,0.082,0.036,0.143c0.017,0.063,0.033,0.124,0.046,0.187c0.014,0.061,0.027,0.115,0.041,0.164
		c0.014,0.047,0.021,0.078,0.021,0.092v0.461v0.175c0,0.021,0.003,0.062,0.01,0.123s0.016,0.128,0.025,0.2
		c0.011,0.071,0.019,0.141,0.026,0.205s0.01,0.104,0.01,0.117v0.124v0.082c-0.007,0.068-0.017,0.154-0.031,0.257
		s-0.029,0.204-0.046,0.303s-0.032,0.185-0.046,0.256c-0.014,0.072-0.024,0.108-0.031,0.108l-0.359,0.358h-0.123
		c-0.062-0.048-0.127-0.093-0.195-0.134c-0.055-0.033-0.113-0.071-0.174-0.112s-0.109-0.079-0.144-0.112
		c-0.034-0.035-0.072-0.08-0.113-0.139s-0.068-0.104-0.082-0.139c-0.014-0.014-0.036-0.045-0.067-0.092
		c-0.03-0.049-0.062-0.102-0.092-0.159c-0.031-0.058-0.059-0.111-0.083-0.159c-0.024-0.048-0.039-0.078-0.046-0.092
		c-0.117-0.186-0.235-0.378-0.354-0.575c-0.12-0.199-0.268-0.366-0.446-0.503c-0.007,0-0.023-0.005-0.051-0.016
		c-0.028-0.01-0.057-0.023-0.087-0.041c-0.031-0.017-0.059-0.032-0.082-0.046c-0.024-0.014-0.04-0.021-0.046-0.021
		c-0.034-0.034-0.089-0.087-0.164-0.159c-0.075-0.071-0.12-0.121-0.133-0.148c-0.027,0-0.075-0.004-0.144-0.01
		c-0.068-0.008-0.142-0.014-0.221-0.021c-0.079-0.006-0.15-0.012-0.215-0.015c-0.065-0.003-0.108-0.005-0.128-0.005h-1.918
		c-0.021,0-0.07-0.004-0.148-0.011c-0.08-0.007-0.163-0.016-0.252-0.025c-0.089-0.011-0.173-0.019-0.251-0.026
		c-0.079-0.006-0.128-0.01-0.148-0.01h-0.072c-0.171,0-0.307,0.043-0.405,0.128c-0.1,0.086-0.175,0.193-0.226,0.323
		c-0.052,0.13-0.086,0.27-0.103,0.42c-0.018,0.15-0.033,0.287-0.046,0.41c-0.034,0.405-0.07,0.813-0.108,1.227
		c-0.038,0.414-0.057,0.82-0.057,1.217c0,0.26,0.004,0.484,0.011,0.676s0.034,0.411,0.082,0.657c0.027,0.145,0.104,0.24,0.23,0.287
		c0.126,0.049,0.251,0.072,0.375,0.072c0.178,0,0.344-0.027,0.498-0.082c0.153-0.055,0.319-0.082,0.498-0.082
		c0.123,0,0.243,0.016,0.359,0.046c0.116,0.031,0.232,0.046,0.349,0.046c0.083,0,0.178-0.018,0.288-0.056s0.215-0.091,0.318-0.159
		s0.189-0.144,0.262-0.226c0.072-0.082,0.108-0.171,0.108-0.268c0-0.007-0.005-0.029-0.016-0.066
		c-0.01-0.037-0.021-0.077-0.03-0.118c-0.011-0.041-0.021-0.079-0.031-0.112c-0.01-0.035-0.016-0.055-0.016-0.063
		c0-0.307,0.06-0.592,0.18-0.855c0.12-0.264,0.279-0.505,0.477-0.724c0.048-0.049,0.089-0.08,0.123-0.098s0.089-0.025,0.165-0.025
		c0.089,0,0.164,0.041,0.226,0.123s0.113,0.179,0.154,0.292s0.072,0.225,0.092,0.334s0.034,0.191,0.041,0.246
		c0,0.027-0.003,0.118-0.01,0.271c-0.007,0.154-0.01,0.299-0.01,0.436c0,0.076,0,0.137,0,0.186c0,0.047,0.007,0.082,0.021,0.102
		c0,0.008,0.007,0.027,0.021,0.063c0.014,0.033,0.027,0.072,0.041,0.113s0.027,0.079,0.041,0.112
		c0.014,0.035,0.021,0.055,0.021,0.063v0.143v0.123c0,0.027-0.012,0.081-0.036,0.159c-0.024,0.079-0.036,0.128-0.036,0.149v1.2
		c0,0.021-0.007,0.07-0.021,0.148c-0.014,0.079-0.027,0.162-0.041,0.252c-0.014,0.088-0.029,0.17-0.046,0.246
		c-0.018,0.074-0.026,0.119-0.026,0.133v0.215v0.072c-0.021,0.157-0.04,0.275-0.056,0.354c-0.018,0.079-0.046,0.18-0.087,0.303
		c-0.014,0.034-0.031,0.084-0.051,0.148c-0.021,0.065-0.043,0.129-0.066,0.189c-0.024,0.063-0.045,0.115-0.062,0.159
		c-0.018,0.045-0.029,0.07-0.036,0.077c-0.027,0.068-0.084,0.107-0.169,0.118c-0.086,0.01-0.159,0.015-0.221,0.015
		c-0.116,0-0.208-0.025-0.277-0.076c-0.068-0.052-0.123-0.116-0.164-0.195c-0.041-0.078-0.075-0.164-0.103-0.256
		c-0.027-0.093-0.055-0.176-0.082-0.252c0-0.014-0.005-0.039-0.015-0.076c-0.011-0.037-0.022-0.075-0.036-0.113
		c-0.014-0.037-0.027-0.073-0.041-0.108c-0.014-0.033-0.024-0.051-0.031-0.051c-0.048-0.131-0.081-0.257-0.097-0.38
		c-0.018-0.123-0.041-0.237-0.072-0.344c-0.03-0.105-0.08-0.201-0.148-0.287c-0.068-0.085-0.174-0.159-0.318-0.22h-0.247
		c-0.164,0-0.314-0.009-0.451-0.026c-0.137-0.017-0.272-0.034-0.405-0.051c-0.134-0.017-0.269-0.034-0.405-0.052
		c-0.137-0.017-0.284-0.025-0.441-0.025c-0.021,0-0.055,0.002-0.103,0.005c-0.048,0.004-0.097,0.007-0.149,0.011
		c-0.051,0.004-0.097,0.007-0.138,0.01c-0.041,0.004-0.072,0.006-0.092,0.006c-0.034,0.055-0.068,0.125-0.103,0.21
		s-0.065,0.176-0.093,0.271s-0.05,0.191-0.067,0.287s-0.025,0.178-0.025,0.246c0,0.171,0.005,0.333,0.016,0.488
		c0.01,0.153,0.029,0.316,0.056,0.486c0,0.014,0.012,0.061,0.036,0.139c0.024,0.079,0.036,0.129,0.036,0.148
		c0,0.021-0.003,0.072-0.01,0.154s-0.015,0.171-0.026,0.267c-0.01,0.096-0.019,0.187-0.025,0.271c-0.007,0.086-0.01,0.14-0.01,0.16
		v0.39v0.399c0,0.041,0.003,0.113,0.01,0.216s0.016,0.21,0.025,0.323c0.011,0.112,0.019,0.219,0.026,0.318s0.01,0.169,0.01,0.21
		c0.028,0.096,0.094,0.186,0.201,0.268c0.105,0.082,0.207,0.137,0.302,0.164h0.154h0.411c0.014,0,0.048,0.005,0.103,0.015
		c0.055,0.011,0.092,0.022,0.113,0.036c0.007,0.014,0.032,0.029,0.077,0.046c0.044,0.018,0.07,0.026,0.077,0.026
		c0.027,0.006,0.079,0.015,0.154,0.025c0.075,0.01,0.154,0.021,0.236,0.03c0.082,0.011,0.159,0.019,0.23,0.026
		c0.072,0.006,0.125,0.01,0.159,0.01c0.096,0.034,0.155,0.111,0.18,0.23c0.023,0.12,0.036,0.238,0.036,0.354v0.104
		c0,0.048-0.003,0.1-0.01,0.154s-0.034,0.103-0.082,0.144c-0.007,0.021-0.046,0.048-0.118,0.082
		c-0.071,0.034-0.125,0.055-0.159,0.062c-0.007,0.007-0.027,0.014-0.062,0.021s-0.072,0.014-0.113,0.021s-0.081,0.014-0.118,0.021
		c-0.038,0.007-0.06,0.01-0.066,0.01c-0.137,0.049-0.272,0.096-0.406,0.145c-0.133,0.047-0.268,0.071-0.405,0.071
		c-0.178,0-0.363-0.032-0.554-0.098s-0.376-0.104-0.554-0.118c-0.055,0-0.161-0.003-0.318-0.01s-0.332-0.014-0.523-0.021
		s-0.376-0.014-0.554-0.021c-0.178-0.007-0.308-0.014-0.39-0.021h-1.067c-0.116,0-0.235-0.014-0.354-0.041s-0.229-0.069-0.328-0.128
		s-0.179-0.132-0.241-0.221C45.963,24.569,45.932,24.457,45.932,24.32z"/>
	<path fill="#545454" d="M58.521,24.576c0-0.096,0.044-0.2,0.133-0.313c0.089-0.113,0.202-0.17,0.338-0.17
		c0.048,0,0.113-0.003,0.195-0.01s0.161-0.01,0.236-0.01c0.205,0,0.347,0.003,0.426,0.01c0.078,0.007,0.125,0.01,0.138,0.01h0.113
		c0.089,0,0.183-0.003,0.283-0.01c0.099-0.007,0.194-0.021,0.287-0.041c0.092-0.021,0.174-0.051,0.247-0.092
		c0.071-0.041,0.118-0.1,0.138-0.175v-0.513c0-0.302,0.005-0.593,0.015-0.872c0.011-0.281,0.029-0.561,0.057-0.842
		c0.014-0.068,0.027-0.135,0.041-0.199c0.014-0.065,0.034-0.146,0.062-0.242c-0.007-0.021-0.01-0.071-0.01-0.153
		c0-0.15,0.001-0.279,0.005-0.385c0.003-0.105,0.012-0.252,0.025-0.436c0-0.027,0.003-0.052,0.01-0.072s0.014-0.037,0.021-0.051
		c0-0.137,0.003-0.273,0.01-0.411c0.007-0.137,0.017-0.273,0.031-0.41c-0.014-0.035-0.026-0.094-0.036-0.18
		c-0.011-0.086-0.022-0.156-0.036-0.211c-0.007-0.027-0.014-0.074-0.021-0.143s-0.014-0.137-0.021-0.205s-0.014-0.131-0.021-0.186
		s-0.01-0.088-0.01-0.102v-1.14c-0.014-0.014-0.026-0.057-0.036-0.128c-0.011-0.072-0.016-0.146-0.016-0.221
		c0.007-0.068,0.012-0.164,0.016-0.287c0.003-0.124,0.008-0.245,0.015-0.365c0.007-0.119,0.012-0.226,0.015-0.317
		c0.003-0.093,0.005-0.142,0.005-0.149c0-0.014,0.003-0.037,0.01-0.071s0.017-0.065,0.031-0.093
		c0.007-0.033,0.014-0.068,0.021-0.102c0.007-0.035,0.01-0.059,0.01-0.072c0-0.055-0.007-0.113-0.021-0.174
		c-0.014-0.063-0.031-0.123-0.051-0.186c-0.034-0.115-0.051-0.233-0.051-0.349c0-0.096,0-0.197,0-0.303s0.007-0.207,0.021-0.303
		c0.007-0.096,0.014-0.196,0.021-0.303c0.007-0.105,0.01-0.207,0.01-0.303c0-0.074-0.003-0.165-0.01-0.272
		c-0.007-0.105-0.014-0.217-0.021-0.333c-0.014-0.109-0.021-0.208-0.021-0.298c0-0.088,0-0.16,0-0.215
		c-0.034-0.082-0.096-0.146-0.185-0.195c-0.089-0.047-0.19-0.087-0.303-0.117c-0.112-0.031-0.226-0.052-0.338-0.062
		c-0.113-0.011-0.204-0.016-0.272-0.016c-0.035,0-0.074,0.005-0.118,0.016c-0.045,0.01-0.084,0.022-0.118,0.036
		c-0.048,0.014-0.091,0.023-0.128,0.03c-0.038,0.007-0.084,0.011-0.139,0.011c-0.082,0-0.181-0.009-0.298-0.026
		c-0.116-0.017-0.228-0.046-0.333-0.087s-0.194-0.096-0.267-0.164c-0.071-0.068-0.107-0.154-0.107-0.256
		c0-0.083,0.003-0.148,0.01-0.196s0.038-0.078,0.092-0.092c0.048-0.014,0.126-0.033,0.236-0.057s0.208-0.039,0.297-0.047
		c0.062,0.008,0.178,0.014,0.349,0.021c0.171,0.006,0.355,0.017,0.554,0.03c0.185,0.014,0.366,0.022,0.544,0.025
		c0.178,0.004,0.305,0.005,0.38,0.005c0.096,0.035,0.188,0.055,0.277,0.063c0.089,0.006,0.222,0.01,0.4,0.01
		c0.034-0.007,0.065-0.014,0.093-0.021l0.154-0.03c0.027-0.014,0.046-0.021,0.057-0.021c0.01,0,0.032,0,0.066,0h1.21
		c0.007,0,0.029-0.001,0.066-0.005c0.038-0.003,0.081-0.012,0.129-0.025c0.034-0.014,0.068-0.024,0.103-0.03
		c0.034-0.008,0.065-0.014,0.092-0.021h3.119c0.034,0,0.127,0.004,0.277,0.011s0.301,0.021,0.451,0.041
		c0.123,0.021,0.226,0.03,0.308,0.03c0.185,0,0.366-0.01,0.543-0.03c0.096-0.014,0.187-0.025,0.272-0.036
		c0.085-0.01,0.173-0.016,0.262-0.016c0.185,0,0.349,0.013,0.493,0.036c0.144,0.024,0.215,0.04,0.215,0.046
		c0.021,0,0.063,0.004,0.128,0.011c0.064,0.007,0.135,0.014,0.21,0.021s0.144,0.014,0.205,0.021c0.062,0.007,0.1,0.014,0.113,0.021
		c0.116,0.027,0.207,0.102,0.272,0.222c0.064,0.119,0.104,0.224,0.118,0.313c0.034,0.157,0.055,0.291,0.062,0.4
		s0.01,0.232,0.01,0.369c0,0.211,0,0.388,0,0.527c0,0.142-0.003,0.258-0.01,0.35c-0.007,0.093-0.014,0.168-0.021,0.226
		c-0.007,0.059-0.014,0.115-0.021,0.17c-0.014,0.115-0.029,0.227-0.046,0.333s-0.025,0.165-0.025,0.179v0.287
		c0,0.063-0.007,0.123-0.021,0.187c-0.014,0.061-0.041,0.119-0.082,0.174c-0.021,0.007-0.057,0.01-0.107,0.01
		c-0.052,0-0.087,0-0.108,0c-0.123,0-0.255-0.064-0.396-0.195c-0.14-0.13-0.275-0.282-0.405-0.456
		c-0.13-0.175-0.249-0.349-0.354-0.523c-0.106-0.174-0.183-0.309-0.23-0.404c-0.014-0.035-0.038-0.093-0.072-0.175
		s-0.075-0.172-0.123-0.268c-0.034-0.082-0.074-0.172-0.118-0.271c-0.045-0.1-0.077-0.156-0.098-0.17
		c-0.034-0.055-0.094-0.121-0.18-0.199c-0.085-0.078-0.172-0.118-0.261-0.118h-1.775c-0.205-0.075-0.424-0.118-0.657-0.128
		c-0.232-0.011-0.468-0.022-0.708-0.036c-0.123,0-0.246-0.003-0.369-0.011c-0.123-0.006-0.243-0.014-0.359-0.02
		c-0.062,0-0.12-0.009-0.174-0.026c-0.055-0.017-0.109-0.032-0.164-0.046c-0.055-0.021-0.115-0.041-0.179-0.062
		c-0.065-0.021-0.128-0.03-0.19-0.03c-0.055,0-0.112,0.033-0.17,0.102s-0.104,0.131-0.138,0.186
		c-0.034,0.033-0.051,0.061-0.051,0.082c0.014,0.074,0.021,0.197,0.021,0.369c0,0.17,0,0.345,0,0.522c0,0.186,0,0.363,0,0.534
		s-0.007,0.287-0.021,0.349c0,0.137-0.017,0.25-0.051,0.338c-0.014,0.063-0.029,0.125-0.046,0.19s-0.025,0.146-0.025,0.241
		c0.014,0.056,0.027,0.118,0.041,0.19c0.014,0.071,0.031,0.139,0.051,0.199c0.034,0.123,0.063,0.25,0.087,0.38
		c0.023,0.13,0.036,0.273,0.036,0.431c0,0.082-0.003,0.166-0.01,0.251c-0.007,0.086-0.017,0.177-0.031,0.272l-0.051,0.523v0.358
		l0.051,0.093c0,0.007,0.053,0.014,0.159,0.021c0.106,0.007,0.19,0.01,0.252,0.01c0.034,0.014,0.101,0.021,0.2,0.021s0.21,0,0.333,0
		c0.116,0,0.226,0,0.329,0s0.178-0.008,0.226-0.021c0.007,0,0.014,0.004,0.021,0.011s0.017,0.011,0.031,0.011
		c0.055,0.033,0.106,0.055,0.154,0.061c0.048,0.008,0.103,0.011,0.164,0.011c0.055,0,0.108-0.003,0.159-0.011
		c0.052-0.006,0.104-0.017,0.159-0.03c0.055-0.007,0.104-0.017,0.148-0.03s0.115-0.021,0.21-0.021
		c0.034,0.008,0.068,0.014,0.103,0.021c0.034,0.006,0.067,0.014,0.098,0.02c0.031,0.008,0.057,0.011,0.077,0.011
		c0.048,0.014,0.094,0.024,0.139,0.03c0.044,0.008,0.087,0.011,0.128,0.011c0.082,0,0.155-0.024,0.221-0.071
		c0.064-0.049,0.119-0.108,0.164-0.18c0.044-0.072,0.08-0.15,0.107-0.236c0.027-0.085,0.048-0.166,0.062-0.24
		c0-0.027,0.002-0.08,0.005-0.159c0.004-0.079,0.009-0.163,0.016-0.252c0.007-0.09,0.014-0.17,0.021-0.241
		c0.007-0.072,0.017-0.114,0.031-0.128c0.034-0.096,0.063-0.17,0.087-0.221c0.023-0.052,0.036-0.066,0.036-0.047v-0.092
		c0.014-0.062,0.029-0.135,0.046-0.221c0.017-0.085,0.066-0.142,0.148-0.169c0.007-0.007,0.025-0.017,0.057-0.03
		c0.03-0.014,0.066-0.027,0.107-0.041s0.08-0.026,0.118-0.036c0.037-0.011,0.066-0.016,0.087-0.016c0.137,0,0.248,0.044,0.333,0.134
		c0.085,0.088,0.142,0.167,0.169,0.235v2.432c0,0.02,0,0.064,0,0.134c0,0.068,0.007,0.144,0.021,0.226
		c0.007,0.082,0.014,0.157,0.021,0.226s0.01,0.113,0.01,0.133c0,0.041-0.01,0.131-0.031,0.268s-0.044,0.283-0.072,0.44
		c-0.034,0.15-0.058,0.287-0.072,0.411c-0.014,0.123-0.021,0.198-0.021,0.226c-0.021,0.075-0.031,0.157-0.031,0.246
		c-0.014,0.096-0.027,0.195-0.041,0.297c-0.014,0.104-0.038,0.195-0.072,0.277s-0.085,0.148-0.154,0.2
		c-0.068,0.051-0.165,0.077-0.288,0.077c-0.109,0-0.198-0.029-0.267-0.088c-0.068-0.058-0.12-0.129-0.154-0.215
		s-0.058-0.18-0.072-0.282s-0.021-0.202-0.021-0.298c0-0.02-0.003-0.046-0.01-0.076c-0.007-0.031-0.011-0.053-0.011-0.066
		c-0.027-0.131-0.058-0.273-0.092-0.433c-0.034-0.156-0.084-0.305-0.149-0.445s-0.147-0.26-0.246-0.359
		c-0.099-0.099-0.227-0.158-0.385-0.18l-0.39-0.041c-0.116-0.014-0.241-0.021-0.375-0.025c-0.133-0.003-0.234-0.012-0.303-0.025
		c-0.116,0-0.222,0.004-0.318,0.01c-0.096,0.008-0.185,0.011-0.267,0.011c-0.076,0-0.137,0-0.185,0s-0.079-0.007-0.092-0.021
		c-0.048,0-0.085-0.007-0.113-0.021c-0.075-0.021-0.123-0.03-0.144-0.03h-0.174c-0.075,0-0.134,0.01-0.175,0.03
		s-0.079,0.044-0.113,0.071c-0.014,0.014-0.029,0.026-0.046,0.036c-0.017,0.011-0.036,0.022-0.056,0.036
		c-0.027,0.014-0.051,0.023-0.072,0.031h-0.297c0.007,0.047,0.01,0.097,0.01,0.148c0,0.051,0,0.098,0,0.139
		c0,0.033-0.002,0.06-0.005,0.076c-0.004,0.018-0.012,0.039-0.026,0.066c-0.014,0.049-0.033,0.098-0.056,0.149
		c-0.024,0.051-0.036,0.091-0.036,0.118c0,0.014,0.003,0.041,0.01,0.082s0.017,0.085,0.031,0.133
		c0.014,0.034,0.021,0.068,0.021,0.104c0.007,0.02,0.014,0.057,0.021,0.107c0.007,0.052,0.012,0.106,0.016,0.164
		c0.003,0.059,0.008,0.114,0.015,0.169s0.01,0.096,0.01,0.123c0.014,0.014,0.021,0.029,0.021,0.047s0,0.032,0,0.046v0.021
		c0.048,0.027,0.072,0.045,0.072,0.051c0.034,0.096,0.063,0.197,0.087,0.303c0.023,0.106,0.042,0.217,0.056,0.334
		c0.007,0.047,0.012,0.143,0.015,0.288c0.003,0.143,0.009,0.299,0.016,0.466c0.007,0.168,0.012,0.328,0.016,0.482
		c0.003,0.153,0.005,0.265,0.005,0.333v1.058c0.014,0.137,0.06,0.24,0.139,0.313c0.078,0.071,0.174,0.127,0.288,0.164
		c0.112,0.037,0.232,0.06,0.358,0.066s0.245,0.01,0.354,0.01h0.349c0.034-0.014,0.125-0.025,0.272-0.035
		c0.146-0.011,0.385-0.016,0.713-0.016c0.027,0,0.058-0.004,0.092-0.01c0.034-0.008,0.072-0.011,0.113-0.011
		c0.116-0.014,0.241-0.025,0.375-0.036c0.133-0.01,0.217-0.021,0.251-0.035c0.014,0,0.027-0.004,0.041-0.011
		s0.027-0.012,0.041-0.016c0.014-0.003,0.027-0.012,0.041-0.025c0.055-0.021,0.087-0.034,0.098-0.041
		c0.01-0.007,0.032-0.017,0.066-0.03c0.034,0,0.094,0.019,0.18,0.056c0.085,0.038,0.135,0.067,0.148,0.087
		c0.041,0.008,0.092,0.013,0.154,0.016c0.062,0.004,0.125,0.006,0.19,0.006c0.064,0,0.125,0,0.179,0s0.096,0,0.124,0
		c0.041,0,0.094,0,0.159,0s0.132,0,0.2,0s0.128-0.002,0.18-0.006c0.051-0.003,0.077-0.008,0.077-0.016
		c0.007,0,0.014-0.003,0.021-0.01c0.007,0,0.014-0.002,0.021-0.005s0.014-0.005,0.021-0.005c0.137,0,0.24-0.012,0.308-0.036
		s0.14-0.06,0.215-0.108c0.055-0.041,0.089-0.064,0.103-0.071s0.024-0.011,0.031-0.011h-0.021c0.096-0.047,0.169-0.074,0.22-0.082
		c0.052-0.006,0.101-0.017,0.149-0.03c0.075-0.014,0.144-0.03,0.205-0.052c0.062-0.02,0.106-0.044,0.133-0.071
		c0.014-0.014,0.027-0.024,0.041-0.03c0.014-0.008,0.031-0.021,0.051-0.041c0.034-0.027,0.072-0.061,0.113-0.098
		s0.082-0.074,0.123-0.107c0.041-0.035,0.077-0.065,0.107-0.093c0.032-0.027,0.05-0.044,0.057-0.052
		c0.014-0.014,0.022-0.023,0.025-0.03s0.016-0.034,0.036-0.082c0.034-0.09,0.058-0.141,0.072-0.154
		c0.062-0.145,0.12-0.275,0.174-0.396c0.055-0.119,0.118-0.23,0.189-0.333c0.072-0.103,0.157-0.195,0.257-0.277
		c0.099-0.082,0.22-0.156,0.364-0.225c0.021,0,0.038-0.004,0.051-0.011s0.051-0.027,0.113-0.062
		c0.014-0.007,0.032-0.016,0.056-0.025c0.024-0.011,0.043-0.02,0.057-0.025l0.062-0.021c0.027,0,0.07,0.026,0.128,0.077
		c0.059,0.052,0.088,0.091,0.088,0.118v0.359c0,0.006,0.017,0.061,0.051,0.164c0.027,0.061,0.053,0.125,0.077,0.189
		c0.023,0.064,0.036,0.114,0.036,0.148v0.297c0,0.206-0.009,0.433-0.026,0.679s-0.032,0.447-0.046,0.604
		c-0.041,0.191-0.12,0.341-0.236,0.446c-0.116,0.106-0.251,0.187-0.405,0.241c-0.154,0.055-0.318,0.09-0.493,0.104
		c-0.175,0.014-0.34,0.02-0.498,0.02h-0.893c-0.062-0.047-0.118-0.074-0.169-0.082c-0.052-0.006-0.115-0.01-0.19-0.01
		c-0.007,0-0.015,0.002-0.026,0.005c-0.01,0.004-0.053,0.016-0.128,0.036c-0.075,0.027-0.123,0.043-0.144,0.046
		c-0.021,0.004-0.038,0.005-0.051,0.005c-0.041,0.014-0.109,0.024-0.205,0.031s-0.195,0.014-0.298,0.021s-0.198,0.013-0.287,0.016
		s-0.147,0.005-0.174,0.005H62.81c-0.075,0-0.144-0.007-0.205-0.021s-0.124-0.03-0.185-0.052c-0.062-0.014-0.125-0.031-0.189-0.056
		c-0.065-0.024-0.115-0.036-0.149-0.036c-0.014,0-0.027,0.002-0.041,0.005c-0.014,0.004-0.051,0.016-0.113,0.036
		c-0.014,0-0.036,0.004-0.066,0.01c-0.031,0.008-0.063,0.014-0.098,0.021c-0.034,0.014-0.066,0.02-0.098,0.02
		c-0.03,0-0.049,0-0.056,0c-0.034,0-0.094,0.01-0.179,0.026c-0.086,0.017-0.187,0.039-0.303,0.066
		c-0.144,0.027-0.281,0.055-0.411,0.082s-0.229,0.041-0.297,0.041h-0.215l-1.426,0.03c-0.014,0-0.034-0.027-0.062-0.082
		s-0.053-0.117-0.077-0.189c-0.024-0.071-0.048-0.145-0.072-0.221c-0.024-0.074-0.039-0.13-0.046-0.165V24.576z"/>
	<path fill="#545454" d="M73.377,24.803c0-0.13,0.025-0.244,0.077-0.34c0.051-0.096,0.12-0.174,0.206-0.235
		c0.085-0.062,0.183-0.106,0.292-0.134s0.222-0.041,0.338-0.041c0.124,0,0.24,0.016,0.349,0.047c0.109,0.03,0.222,0.046,0.338,0.046
		h0.103c0.226-0.157,0.406-0.356,0.539-0.6c0.134-0.243,0.214-0.497,0.242-0.766c0.048-0.389,0.068-0.766,0.062-1.127
		c-0.007-0.364,0.003-0.747,0.03-1.149c0-0.021,0.004-0.063,0.011-0.123c0.007-0.063,0.016-0.131,0.025-0.205
		c0.011-0.076,0.019-0.145,0.026-0.205c0.007-0.063,0.01-0.104,0.01-0.123v-0.278v-0.287c-0.034-0.444-0.07-0.885-0.107-1.323
		c-0.038-0.438-0.057-0.883-0.057-1.334v-1.18c0.034-0.041,0.058-0.091,0.071-0.148s0.021-0.122,0.021-0.19
		c0-0.055-0.003-0.105-0.01-0.153s-0.011-0.096-0.011-0.144c0-0.068,0.007-0.117,0.021-0.145c0-0.021,0.007-0.058,0.021-0.112
		s0.027-0.115,0.041-0.18s0.027-0.125,0.041-0.18s0.021-0.092,0.021-0.113v-0.051v-0.072c0-0.027-0.003-0.088-0.01-0.184
		s-0.012-0.2-0.016-0.313c-0.003-0.112-0.008-0.218-0.015-0.317s-0.01-0.16-0.01-0.181v-0.656c-0.007-0.021-0.034-0.06-0.082-0.118
		c-0.048-0.058-0.1-0.118-0.154-0.179c-0.055-0.063-0.109-0.117-0.164-0.164c-0.055-0.049-0.092-0.072-0.113-0.072h-1.426
		c-0.027-0.021-0.055-0.045-0.082-0.072c-0.027-0.02-0.055-0.039-0.082-0.056s-0.048-0.032-0.062-0.046
		c-0.089-0.09-0.144-0.166-0.164-0.232c-0.021-0.064-0.031-0.155-0.031-0.271c0-0.198,0.073-0.329,0.221-0.395
		c0.146-0.065,0.309-0.098,0.487-0.098c0.089,0,0.174,0.013,0.256,0.036s0.164,0.035,0.246,0.035c0.137,0,0.269-0.023,0.395-0.071
		s0.258-0.071,0.395-0.071c0-0.008,0.017-0.012,0.051-0.016s0.077-0.006,0.128-0.006c0.052,0,0.103,0,0.155,0
		c0.051,0,0.094,0,0.128,0s0.079,0,0.133,0s0.109,0,0.164,0s0.104,0.002,0.149,0.006c0.044,0.004,0.073,0.008,0.087,0.016
		c0.027,0,0.096,0.003,0.206,0.01c0.109,0.007,0.229,0.016,0.359,0.025c0.13,0.011,0.25,0.02,0.359,0.025
		c0.109,0.008,0.181,0.011,0.215,0.011h2.267c0.062,0.021,0.127,0.057,0.195,0.107c0.068,0.052,0.131,0.111,0.19,0.18
		c0.058,0.068,0.107,0.137,0.148,0.205s0.062,0.13,0.062,0.185c0,0.048-0.014,0.087-0.041,0.114s-0.062,0.047-0.103,0.061
		s-0.084,0.024-0.128,0.031c-0.045,0.007-0.081,0.014-0.108,0.021c-0.055,0.041-0.101,0.084-0.138,0.128
		c-0.039,0.045-0.078,0.088-0.119,0.129s-0.085,0.073-0.133,0.097c-0.048,0.024-0.113,0.036-0.195,0.036
		c-0.055,0-0.113-0.004-0.174-0.01c-0.062-0.008-0.116-0.031-0.164-0.072h-0.923c-0.096,0-0.195,0.046-0.298,0.139
		c-0.103,0.092-0.167,0.193-0.195,0.303c-0.007,0.02-0.012,0.06-0.015,0.117c-0.004,0.059-0.005,0.118-0.005,0.18s0,0.119,0,0.174
		s0,0.093,0,0.113c0,0.404,0.027,0.801,0.082,1.19s0.082,0.787,0.082,1.19v0.154c0,0.041-0.003,0.138-0.01,0.292
		c-0.007,0.153-0.016,0.319-0.025,0.497c-0.011,0.178-0.019,0.345-0.026,0.498c-0.007,0.154-0.01,0.251-0.01,0.292
		c0,0.014,0.003,0.063,0.01,0.145s0.015,0.17,0.026,0.266c0.01,0.096,0.019,0.188,0.025,0.272s0.01,0.138,0.01,0.159
		c0,0.041-0.003,0.142-0.01,0.303s-0.016,0.333-0.025,0.519c-0.011,0.184-0.019,0.358-0.026,0.522s-0.01,0.267-0.01,0.308v1.118
		c-0.007,0.055-0.014,0.143-0.021,0.262c-0.007,0.12-0.014,0.244-0.021,0.375c-0.007,0.13-0.014,0.25-0.021,0.359
		s-0.01,0.185-0.01,0.226c-0.014,0.014-0.033,0.051-0.056,0.113c-0.024,0.061-0.036,0.099-0.036,0.112v0.093
		c0,0.178,0.012,0.361,0.036,0.553c0.023,0.191,0.066,0.381,0.128,0.565s0.144,0.357,0.246,0.518
		c0.103,0.161,0.233,0.296,0.39,0.405h0.092c0.075,0,0.138-0.007,0.19-0.021c0.051-0.014,0.125-0.031,0.22-0.051h2.052
		c0.041-0.008,0.111-0.014,0.21-0.021c0.099-0.006,0.205-0.015,0.317-0.025c0.114-0.01,0.221-0.019,0.324-0.025
		s0.174-0.014,0.215-0.021c0.027,0,0.079-0.011,0.154-0.03c0.075-0.021,0.12-0.031,0.133-0.031h0.083
		c0.048,0,0.101,0.014,0.159,0.041s0.094,0.064,0.108,0.113c0.239,0.033,0.463,0.063,0.672,0.087s0.422,0.036,0.641,0.036
		c0.117,0,0.217-0.018,0.303-0.052s0.163-0.08,0.231-0.139c0.068-0.058,0.131-0.126,0.19-0.205c0.058-0.078,0.121-0.159,0.19-0.241
		c0.014-0.02,0.057-0.071,0.128-0.153c0.072-0.082,0.149-0.169,0.231-0.262c0.082-0.092,0.157-0.18,0.226-0.262
		s0.109-0.134,0.123-0.154c0.034-0.048,0.057-0.09,0.067-0.128c0.01-0.038,0.017-0.077,0.021-0.118
		c0.003-0.041,0.008-0.084,0.015-0.128s0.021-0.095,0.042-0.149c0.007-0.006,0.031-0.03,0.072-0.071s0.068-0.062,0.082-0.062
		c0.014-0.021,0.038-0.059,0.072-0.113s0.051-0.088,0.051-0.102c0.007-0.014,0.017-0.045,0.031-0.093s0.031-0.099,0.051-0.153
		s0.038-0.108,0.051-0.159c0.014-0.052,0.024-0.085,0.031-0.099c0.034-0.116,0.104-0.224,0.21-0.323
		c0.106-0.099,0.197-0.18,0.272-0.24h0.051h0.01c0.13,0.041,0.226,0.099,0.287,0.174s0.103,0.16,0.123,0.256s0.029,0.2,0.026,0.31
		c-0.004,0.109,0.001,0.219,0.015,0.328c0,0.006,0.003,0.029,0.01,0.066s0.016,0.076,0.025,0.117
		c0.011,0.041,0.022,0.096,0.036,0.164v0.113c0,0.171-0.024,0.333-0.072,0.487c-0.048,0.153-0.079,0.311-0.092,0.467v1.282
		c-0.014,0.123-0.057,0.223-0.128,0.299c-0.072,0.074-0.169,0.115-0.292,0.123c-0.034,0.006-0.103,0.014-0.205,0.02
		c-0.103,0.008-0.211,0.016-0.323,0.026c-0.113,0.01-0.221,0.019-0.323,0.025s-0.175,0.014-0.216,0.021h-1.918
		c-0.021,0-0.057,0.012-0.107,0.036c-0.052,0.023-0.087,0.036-0.108,0.036c-0.014,0-0.06,0.001-0.138,0.005
		c-0.079,0.003-0.167,0.009-0.262,0.015c-0.096,0.008-0.193,0.016-0.292,0.026c-0.1,0.01-0.176,0.019-0.231,0.025h-0.082h-0.072
		c-0.007,0-0.025-0.003-0.057-0.011c-0.03-0.006-0.067-0.015-0.108-0.025c-0.041-0.01-0.081-0.019-0.118-0.025
		s-0.063-0.01-0.077-0.01c-0.041-0.008-0.133-0.013-0.277-0.016c-0.144-0.004-0.297-0.009-0.462-0.016
		c-0.164-0.007-0.323-0.012-0.477-0.016c-0.153-0.004-0.265-0.005-0.333-0.005h-0.226c-0.103,0-0.271-0.002-0.508-0.005
		c-0.235-0.004-0.499-0.006-0.789-0.006c-0.292,0-0.585-0.002-0.883-0.005c-0.298-0.003-0.559-0.005-0.785-0.005H77.02
		c-0.452,0-0.901,0.023-1.349,0.072c-0.448,0.047-0.905,0.071-1.37,0.071h-0.564c-0.123-0.034-0.214-0.081-0.272-0.139
		S73.377,24.926,73.377,24.803z"/>
	<path fill="#545454" d="M88.521,24.803c0-0.13,0.025-0.244,0.077-0.34c0.051-0.096,0.119-0.174,0.205-0.235
		c0.085-0.062,0.183-0.106,0.292-0.134c0.11-0.027,0.223-0.041,0.339-0.041c0.123,0,0.239,0.016,0.349,0.047
		c0.109,0.03,0.222,0.046,0.338,0.046h0.103c0.226-0.157,0.405-0.356,0.538-0.6c0.134-0.243,0.214-0.497,0.242-0.766
		c0.048-0.389,0.068-0.766,0.062-1.127c-0.007-0.364,0.003-0.747,0.031-1.149c0-0.021,0.003-0.063,0.01-0.123
		c0.007-0.063,0.016-0.131,0.025-0.205c0.011-0.076,0.019-0.145,0.026-0.205c0.007-0.063,0.01-0.104,0.01-0.123v-0.278v-0.287
		c-0.034-0.444-0.07-0.885-0.107-1.323c-0.038-0.438-0.057-0.883-0.057-1.334v-1.18c0.034-0.041,0.058-0.091,0.072-0.148
		s0.021-0.122,0.021-0.19c0-0.055-0.003-0.105-0.01-0.153s-0.01-0.096-0.01-0.144c0-0.068,0.007-0.117,0.021-0.145
		c0-0.021,0.007-0.058,0.021-0.112s0.027-0.115,0.041-0.18s0.027-0.125,0.041-0.18s0.021-0.092,0.021-0.113v-0.051v-0.072
		c0-0.027-0.003-0.088-0.01-0.184s-0.012-0.2-0.016-0.313c-0.003-0.112-0.008-0.218-0.015-0.317s-0.01-0.16-0.01-0.181v-0.656
		c-0.007-0.021-0.034-0.06-0.082-0.118c-0.048-0.058-0.099-0.118-0.154-0.179c-0.055-0.063-0.109-0.117-0.164-0.164
		c-0.055-0.049-0.092-0.072-0.113-0.072h-1.426c-0.027-0.021-0.055-0.045-0.082-0.072c-0.027-0.02-0.055-0.039-0.082-0.056
		s-0.048-0.032-0.062-0.046c-0.089-0.09-0.144-0.166-0.164-0.232c-0.021-0.064-0.031-0.155-0.031-0.271
		c0-0.198,0.073-0.329,0.221-0.395c0.146-0.065,0.31-0.098,0.487-0.098c0.089,0,0.174,0.013,0.256,0.036s0.164,0.035,0.246,0.035
		c0.137,0,0.269-0.023,0.395-0.071s0.258-0.071,0.395-0.071c0-0.008,0.017-0.012,0.052-0.016c0.034-0.004,0.077-0.006,0.128-0.006
		c0.052,0,0.103,0,0.154,0c0.051,0,0.094,0,0.128,0s0.079,0,0.133,0s0.109,0,0.164,0s0.104,0.002,0.149,0.006
		c0.044,0.004,0.073,0.008,0.087,0.016c0.027,0,0.096,0.003,0.205,0.01s0.229,0.016,0.359,0.025c0.13,0.011,0.25,0.02,0.359,0.025
		c0.109,0.008,0.181,0.011,0.215,0.011h2.268c0.062,0.021,0.126,0.057,0.195,0.107c0.068,0.052,0.131,0.111,0.19,0.18
		c0.058,0.068,0.107,0.137,0.148,0.205s0.062,0.13,0.062,0.185c0,0.048-0.014,0.087-0.041,0.114s-0.062,0.047-0.103,0.061
		s-0.084,0.024-0.128,0.031c-0.045,0.007-0.081,0.014-0.108,0.021c-0.055,0.041-0.101,0.084-0.138,0.128
		c-0.038,0.045-0.077,0.088-0.118,0.129s-0.085,0.073-0.133,0.097c-0.048,0.024-0.113,0.036-0.195,0.036
		c-0.055,0-0.113-0.004-0.174-0.01c-0.062-0.008-0.116-0.031-0.164-0.072h-0.923c-0.096,0-0.195,0.046-0.298,0.139
		c-0.103,0.092-0.167,0.193-0.195,0.303c-0.007,0.02-0.012,0.06-0.015,0.117c-0.004,0.059-0.005,0.118-0.005,0.18s0,0.119,0,0.174
		s0,0.093,0,0.113c0,0.404,0.027,0.801,0.082,1.19s0.082,0.787,0.082,1.19v0.154c0,0.041-0.003,0.138-0.01,0.292
		c-0.007,0.153-0.016,0.319-0.025,0.497c-0.011,0.178-0.019,0.345-0.026,0.498c-0.007,0.154-0.01,0.251-0.01,0.292
		c0,0.014,0.003,0.063,0.01,0.145s0.015,0.17,0.026,0.266c0.01,0.096,0.019,0.188,0.025,0.272s0.01,0.138,0.01,0.159
		c0,0.041-0.003,0.142-0.01,0.303s-0.016,0.333-0.025,0.519c-0.011,0.184-0.019,0.358-0.026,0.522s-0.01,0.267-0.01,0.308v1.118
		c-0.007,0.055-0.014,0.143-0.021,0.262c-0.007,0.12-0.014,0.244-0.021,0.375c-0.007,0.13-0.014,0.25-0.021,0.359
		s-0.01,0.185-0.01,0.226c-0.014,0.014-0.033,0.051-0.056,0.113c-0.024,0.061-0.036,0.099-0.036,0.112v0.093
		c0,0.178,0.012,0.361,0.036,0.553c0.023,0.191,0.066,0.381,0.128,0.565s0.144,0.357,0.246,0.518
		c0.103,0.161,0.233,0.296,0.39,0.405h0.092c0.075,0,0.138-0.007,0.19-0.021c0.051-0.014,0.125-0.031,0.221-0.051h2.052
		c0.041-0.008,0.111-0.014,0.21-0.021c0.099-0.006,0.205-0.015,0.318-0.025c0.113-0.01,0.221-0.019,0.323-0.025
		s0.174-0.014,0.215-0.021c0.027,0,0.079-0.011,0.154-0.03c0.075-0.021,0.12-0.031,0.133-0.031h0.082
		c0.048,0,0.101,0.014,0.159,0.041s0.094,0.064,0.108,0.113c0.239,0.033,0.463,0.063,0.672,0.087s0.422,0.036,0.642,0.036
		c0.116,0,0.217-0.018,0.302-0.052s0.163-0.08,0.231-0.139c0.068-0.058,0.131-0.126,0.19-0.205c0.058-0.078,0.122-0.159,0.19-0.241
		c0.014-0.02,0.057-0.071,0.128-0.153c0.072-0.082,0.149-0.169,0.231-0.262c0.082-0.092,0.157-0.18,0.226-0.262
		s0.11-0.134,0.124-0.154c0.034-0.048,0.056-0.09,0.067-0.128c0.01-0.038,0.017-0.077,0.021-0.118
		c0.003-0.041,0.008-0.084,0.015-0.128s0.021-0.095,0.041-0.149c0.007-0.006,0.031-0.03,0.072-0.071s0.068-0.062,0.082-0.062
		c0.014-0.021,0.038-0.059,0.072-0.113s0.051-0.088,0.051-0.102c0.007-0.014,0.017-0.045,0.031-0.093s0.031-0.099,0.051-0.153
		s0.038-0.108,0.051-0.159c0.014-0.052,0.024-0.085,0.031-0.099c0.034-0.116,0.104-0.224,0.21-0.323
		c0.106-0.099,0.197-0.18,0.272-0.24h0.051h0.01c0.13,0.041,0.226,0.099,0.287,0.174s0.103,0.16,0.123,0.256s0.029,0.2,0.026,0.31
		c-0.004,0.109,0.001,0.219,0.015,0.328c0,0.006,0.004,0.029,0.011,0.066s0.016,0.076,0.025,0.117
		c0.011,0.041,0.022,0.096,0.036,0.164v0.113c0,0.171-0.024,0.333-0.072,0.487c-0.048,0.153-0.079,0.311-0.092,0.467v1.282
		c-0.014,0.123-0.057,0.223-0.128,0.299c-0.072,0.074-0.169,0.115-0.292,0.123c-0.034,0.006-0.103,0.014-0.205,0.02
		c-0.103,0.008-0.211,0.016-0.323,0.026c-0.113,0.01-0.221,0.019-0.323,0.025s-0.174,0.014-0.215,0.021h-1.919
		c-0.021,0-0.057,0.012-0.107,0.036c-0.052,0.023-0.087,0.036-0.108,0.036c-0.014,0-0.06,0.001-0.138,0.005
		c-0.079,0.003-0.166,0.009-0.262,0.015c-0.096,0.008-0.193,0.016-0.292,0.026c-0.1,0.01-0.176,0.019-0.231,0.025h-0.082h-0.072
		c-0.007,0-0.025-0.003-0.057-0.011c-0.03-0.006-0.066-0.015-0.107-0.025c-0.041-0.01-0.081-0.019-0.119-0.025
		s-0.063-0.01-0.077-0.01c-0.041-0.008-0.133-0.013-0.277-0.016c-0.144-0.004-0.297-0.009-0.462-0.016
		c-0.164-0.007-0.323-0.012-0.477-0.016c-0.153-0.004-0.265-0.005-0.333-0.005h-0.226c-0.103,0-0.271-0.002-0.508-0.005
		c-0.236-0.004-0.5-0.006-0.79-0.006c-0.292,0-0.585-0.002-0.882-0.005c-0.298-0.003-0.56-0.005-0.785-0.005h-0.513
		c-0.451,0-0.901,0.023-1.349,0.072c-0.448,0.047-0.905,0.071-1.37,0.071H88.88c-0.123-0.034-0.214-0.081-0.272-0.139
		S88.521,24.926,88.521,24.803z"/>
	<path fill="#545454" d="M110.6,24.978c-0.096,0-0.178,0.003-0.246,0.01s-0.147,0.034-0.236,0.082h-1.457
		c-0.007,0-0.025-0.005-0.057-0.016c-0.03-0.01-0.065-0.023-0.103-0.041c-0.038-0.017-0.073-0.035-0.107-0.057
		c-0.034-0.02-0.062-0.037-0.083-0.051c-0.062-0.055-0.098-0.118-0.107-0.189c-0.011-0.073-0.016-0.144-0.016-0.212v-0.092
		c0-0.034,0.001-0.072,0.005-0.113s0.022-0.074,0.057-0.102c0.014-0.008,0.062-0.026,0.144-0.057
		c0.082-0.031,0.13-0.053,0.144-0.066c0.007-0.008,0.024-0.024,0.051-0.052s0.056-0.058,0.087-0.093
		c0.03-0.033,0.06-0.064,0.087-0.092s0.048-0.045,0.062-0.051h0.144c0.075,0,0.144,0.01,0.205,0.03s0.127,0.03,0.195,0.03
		c0.13,0,0.253-0.005,0.369-0.015c0.116-0.011,0.243-0.026,0.38-0.046c0.185-0.035,0.316-0.113,0.395-0.236s0.132-0.28,0.159-0.472
		c0-0.014,0.005-0.064,0.016-0.149c0.01-0.085,0.019-0.185,0.025-0.298c0.007-0.112,0.016-0.226,0.025-0.338
		c0.011-0.113,0.016-0.207,0.016-0.282V21.93c0-0.048-0.003-0.083-0.01-0.107s-0.031-0.06-0.072-0.108V21.18v-0.533
		c0-0.027,0.008-0.1,0.025-0.22s0.036-0.248,0.057-0.385s0.038-0.263,0.051-0.381c0.014-0.115,0.021-0.188,0.021-0.215v-1.374
		c0.014-0.062,0.024-0.108,0.031-0.14c0.007-0.03,0.018-0.077,0.031-0.138v-0.021v-0.051c-0.048-0.267-0.096-0.518-0.144-0.754
		c-0.048-0.235-0.072-0.494-0.072-0.774v-0.533c0-0.008,0.003-0.026,0.01-0.057c0.007-0.031,0.015-0.062,0.026-0.093
		c0.01-0.03,0.021-0.06,0.03-0.087c0.011-0.027,0.016-0.045,0.016-0.051v-0.729v-0.256c0-0.021,0.003-0.063,0.01-0.129
		c0.007-0.064,0.015-0.133,0.026-0.205c0.01-0.071,0.019-0.14,0.025-0.205c0.007-0.064,0.01-0.104,0.01-0.117v-0.656v-0.556
		c-0.007-0.02-0.019-0.061-0.036-0.123c-0.018-0.061-0.038-0.124-0.062-0.189c-0.024-0.064-0.046-0.128-0.067-0.189
		s-0.041-0.103-0.062-0.123c-0.041-0.014-0.113-0.027-0.215-0.041s-0.21-0.029-0.323-0.046c-0.113-0.017-0.219-0.031-0.318-0.041
		c-0.1-0.011-0.169-0.019-0.21-0.026c-0.13-0.014-0.262-0.02-0.396-0.02c-0.133,0-0.256-0.016-0.369-0.047
		c-0.112-0.03-0.205-0.088-0.276-0.174c-0.072-0.086-0.108-0.222-0.108-0.406v-0.062c0-0.034,0.004-0.066,0.011-0.098
		c0.007-0.03,0.03-0.046,0.072-0.046c0.034-0.007,0.096-0.022,0.185-0.046s0.183-0.048,0.282-0.072
		c0.099-0.023,0.193-0.044,0.282-0.062c0.089-0.017,0.154-0.028,0.195-0.036h0.287c0.027,0,0.058-0.003,0.092-0.01
		s0.072-0.01,0.113-0.01c0.055,0,0.106,0.006,0.154,0.02c0.048,0.014,0.085,0.038,0.113,0.072c0.075,0.007,0.205,0.018,0.39,0.031
		s0.379,0.027,0.585,0.041c0.205,0.014,0.398,0.027,0.58,0.041c0.181,0.014,0.31,0.023,0.385,0.03h0.072
		c0.232,0,0.457-0.017,0.672-0.052c0.216-0.033,0.439-0.064,0.672-0.092h0.021h0.051c0.068,0.007,0.195,0.018,0.379,0.031
		s0.38,0.027,0.585,0.041s0.4,0.027,0.585,0.041c0.185,0.014,0.314,0.023,0.39,0.03c0.007,0,0.038,0.009,0.092,0.025
		c0.055,0.018,0.089,0.032,0.103,0.046h0.082h0.072c0.014,0,0.059-0.012,0.134-0.035s0.126-0.036,0.154-0.036l0.021-0.021
		c0.007,0,0.012,0.002,0.016,0.005c0.003,0.004,0.008,0.005,0.015,0.005c0.007,0.008,0.014,0.011,0.021,0.011
		c0.014,0,0.049,0.013,0.108,0.036c0.058,0.023,0.094,0.035,0.107,0.035c0.027,0,0.096,0.011,0.205,0.031
		c0.11,0.021,0.229,0.041,0.359,0.062s0.25,0.041,0.359,0.062s0.178,0.034,0.205,0.041c0.014,0.014,0.05,0.029,0.108,0.046
		c0.058,0.018,0.094,0.029,0.108,0.036c0.007,0,0.024,0.007,0.051,0.021s0.057,0.03,0.087,0.052
		c0.031,0.021,0.058,0.038,0.082,0.052s0.04,0.021,0.046,0.021c0.027,0.014,0.08,0.029,0.159,0.046
		c0.079,0.018,0.128,0.025,0.149,0.025c0.007,0.014,0.039,0.036,0.098,0.067c0.058,0.03,0.095,0.056,0.108,0.077
		c0.014,0.006,0.042,0.027,0.087,0.061c0.044,0.035,0.089,0.072,0.133,0.113s0.087,0.08,0.128,0.118s0.068,0.06,0.082,0.066
		c0.09,0.068,0.184,0.112,0.283,0.134c0.099,0.02,0.193,0.074,0.281,0.164c0.041,0.033,0.102,0.088,0.18,0.164
		c0.078,0.074,0.159,0.153,0.241,0.235s0.157,0.157,0.226,0.226s0.113,0.113,0.134,0.133c0.021,0.021,0.062,0.075,0.123,0.16
		c0.062,0.086,0.128,0.177,0.2,0.272c0.071,0.096,0.14,0.184,0.205,0.266c0.064,0.082,0.104,0.134,0.118,0.154
		c0.014,0.014,0.039,0.039,0.077,0.077c0.037,0.038,0.063,0.066,0.076,0.087c0.082,0.103,0.145,0.209,0.186,0.318
		s0.072,0.22,0.098,0.333c0.023,0.113,0.045,0.229,0.066,0.344c0.02,0.117,0.047,0.232,0.082,0.35c0,0.006,0.006,0.023,0.02,0.051
		s0.027,0.057,0.041,0.087c0.014,0.031,0.027,0.062,0.042,0.093c0.014,0.03,0.021,0.049,0.021,0.057
		c0.014,0.014,0.028,0.046,0.046,0.097c0.017,0.052,0.029,0.084,0.036,0.098c0.055,0.144,0.107,0.26,0.159,0.349
		c0.051,0.089,0.097,0.175,0.138,0.257s0.074,0.174,0.098,0.272s0.036,0.233,0.036,0.405c0,0.096-0.016,0.184-0.046,0.266
		c-0.031,0.082-0.063,0.164-0.098,0.246s-0.066,0.166-0.098,0.252c-0.03,0.087-0.046,0.173-0.046,0.263
		c0,0.156,0.012,0.311,0.036,0.461c0.023,0.15,0.035,0.305,0.035,0.461v0.287c-0.027,0.055-0.051,0.098-0.071,0.129
		c-0.021,0.03-0.038,0.062-0.052,0.092c-0.014,0.031-0.02,0.05-0.02,0.057v0.124v0.308c-0.008,0.014-0.031,0.05-0.072,0.107
		c-0.041,0.059-0.068,0.095-0.082,0.108c-0.076,0.137-0.131,0.29-0.164,0.461c-0.035,0.171-0.076,0.324-0.123,0.461
		c-0.049,0.179-0.141,0.339-0.277,0.479s-0.25,0.288-0.339,0.446c-0.157,0.26-0.342,0.516-0.554,0.769
		c-0.212,0.254-0.438,0.469-0.678,0.646c-0.006,0.014-0.03,0.031-0.071,0.052s-0.085,0.043-0.134,0.066
		c-0.047,0.024-0.092,0.046-0.133,0.067c-0.041,0.02-0.065,0.033-0.072,0.041c-0.116,0.068-0.223,0.143-0.318,0.225
		s-0.208,0.145-0.338,0.186c-0.233,0.109-0.469,0.203-0.708,0.281c-0.239,0.079-0.452,0.204-0.636,0.376
		c-0.062,0.006-0.167,0.015-0.318,0.025c-0.15,0.01-0.308,0.023-0.472,0.041s-0.321,0.032-0.472,0.046
		c-0.15,0.014-0.256,0.024-0.318,0.03c-0.014,0-0.058,0.013-0.133,0.036c-0.075,0.024-0.126,0.036-0.154,0.036
		c-0.048,0.007-0.14,0.014-0.277,0.021c-0.137,0.007-0.286,0.014-0.447,0.021s-0.313,0.014-0.457,0.021s-0.246,0.011-0.308,0.011
		h-0.923h-0.872c-0.233-0.014-0.465-0.045-0.698-0.093S110.846,24.978,110.6,24.978z M112.663,21.354
		c0.007,0.049,0.014,0.131,0.021,0.247s0.014,0.237,0.021,0.364s0.014,0.248,0.021,0.363c0.007,0.117,0.014,0.195,0.021,0.236
		c0.014,0.144,0.031,0.283,0.051,0.42c0.021,0.138,0.051,0.271,0.092,0.396s0.101,0.243,0.18,0.349
		c0.078,0.105,0.179,0.196,0.302,0.271h0.441h0.421c0.014-0.007,0.042-0.018,0.087-0.031c0.044-0.014,0.088-0.027,0.133-0.041
		s0.087-0.028,0.128-0.046c0.041-0.017,0.068-0.028,0.082-0.036c0.021,0,0.058-0.003,0.113-0.01s0.113-0.014,0.174-0.021
		s0.12-0.014,0.175-0.021s0.089-0.01,0.103-0.01c0.219-0.041,0.414-0.102,0.584-0.18c0.171-0.078,0.334-0.171,0.487-0.277
		c0.154-0.105,0.304-0.224,0.452-0.354c0.147-0.13,0.31-0.267,0.487-0.41c0.068-0.055,0.133-0.103,0.195-0.144
		s0.12-0.08,0.174-0.118c0.055-0.037,0.111-0.078,0.169-0.123c0.058-0.044,0.115-0.101,0.169-0.169
		c0.014-0.014,0.029-0.039,0.046-0.077c0.017-0.037,0.025-0.063,0.025-0.076c0.014-0.021,0.055-0.065,0.123-0.134
		s0.144-0.142,0.226-0.221c0.082-0.078,0.157-0.151,0.226-0.221c0.068-0.068,0.113-0.113,0.133-0.134
		c0.008-0.014,0.024-0.038,0.052-0.071c0.027-0.035,0.057-0.068,0.087-0.104c0.031-0.033,0.061-0.068,0.088-0.102
		c0.027-0.035,0.047-0.063,0.061-0.082c0.076-0.117,0.118-0.236,0.129-0.359c0.01-0.123,0.039-0.239,0.087-0.349
		c0.007-0.014,0.022-0.038,0.046-0.071c0.024-0.035,0.049-0.072,0.072-0.113s0.047-0.077,0.066-0.107
		c0.021-0.031,0.035-0.053,0.041-0.066c0.049-0.11,0.091-0.241,0.129-0.392c0.037-0.15,0.068-0.305,0.092-0.466
		s0.041-0.318,0.051-0.472c0.012-0.154,0.016-0.289,0.016-0.406c0-0.027-0.002-0.068-0.004-0.123
		c-0.004-0.055-0.006-0.107-0.006-0.159c0-0.051-0.002-0.096-0.006-0.133c-0.003-0.037-0.004-0.061-0.004-0.066
		c0-0.014-0.013-0.047-0.037-0.098c-0.023-0.052-0.035-0.084-0.035-0.098v-0.123c0-0.096,0.016-0.188,0.047-0.277
		c0.029-0.088,0.045-0.181,0.045-0.276c0-0.171-0.037-0.334-0.112-0.488c-0.075-0.153-0.163-0.304-0.261-0.451
		c-0.101-0.146-0.197-0.293-0.293-0.44s-0.164-0.303-0.205-0.467c-0.008,0-0.014-0.017-0.021-0.052
		c-0.006-0.033-0.012-0.07-0.015-0.108c-0.004-0.037-0.007-0.074-0.011-0.112s-0.005-0.063-0.005-0.077
		c-0.021-0.027-0.05-0.072-0.087-0.133c-0.038-0.063-0.08-0.127-0.129-0.195c-0.047-0.068-0.092-0.133-0.133-0.195
		c-0.041-0.061-0.072-0.102-0.093-0.123c-0.239-0.061-0.441-0.164-0.605-0.307c-0.165-0.145-0.342-0.277-0.534-0.4
		c-0.021-0.007-0.051-0.021-0.092-0.041s-0.081-0.044-0.118-0.067c-0.038-0.023-0.07-0.045-0.098-0.062s-0.044-0.026-0.051-0.026
		c-0.096-0.074-0.197-0.167-0.303-0.276c-0.106-0.109-0.217-0.188-0.333-0.235c-0.021-0.008-0.062-0.021-0.123-0.041
		c-0.062-0.021-0.13-0.043-0.205-0.067c-0.076-0.023-0.144-0.046-0.206-0.066s-0.103-0.034-0.123-0.041
		c-0.014,0-0.043-0.011-0.087-0.03c-0.044-0.021-0.096-0.045-0.153-0.072c-0.059-0.027-0.111-0.051-0.159-0.072
		c-0.048-0.02-0.075-0.03-0.082-0.03h-0.247h-0.625c-0.007,0-0.052-0.011-0.134-0.03c-0.082-0.021-0.13-0.031-0.144-0.031
		s-0.027-0.004-0.041-0.01c-0.027-0.014-0.051-0.021-0.072-0.021c-0.103,0-0.21,0.01-0.323,0.026
		c-0.113,0.017-0.218,0.048-0.313,0.092c-0.096,0.045-0.179,0.104-0.251,0.18c-0.071,0.075-0.118,0.171-0.138,0.287
		c-0.007,0.021-0.014,0.062-0.021,0.123s-0.014,0.128-0.021,0.2c-0.007,0.071-0.014,0.144-0.021,0.215
		c-0.007,0.073-0.01,0.13-0.01,0.171c0,0.014-0.003,0.029-0.01,0.046s-0.01,0.032-0.01,0.046c0,0.021,0.003,0.034,0.01,0.041
		c0,0.014,0.003,0.023,0.01,0.031c0,0.006,0.008,0.037,0.025,0.092s0.033,0.089,0.046,0.103l-0.031,1.929v0.358l-0.041,1.796
		c0.034,0.041,0.055,0.082,0.062,0.123s0.01,0.089,0.01,0.144c0,0.15-0.022,0.304-0.067,0.457c-0.044,0.154-0.073,0.31-0.087,0.467
		v0.226v0.481c0,0.123-0.005,0.249-0.016,0.376c-0.01,0.127-0.026,0.237-0.046,0.333c0,0.014-0.007,0.043-0.021,0.087
		c-0.014,0.045-0.03,0.093-0.051,0.144c-0.021,0.052-0.038,0.098-0.052,0.139s-0.021,0.065-0.021,0.071v0.093
		c0,0.116,0.022,0.226,0.066,0.328C112.568,21.17,112.614,21.266,112.663,21.354z"/>
	<path fill="#545454" d="M124.421,12.736c-0.021-0.021-0.063-0.062-0.123-0.123c-0.063-0.062-0.126-0.128-0.191-0.2
		c-0.064-0.071-0.127-0.139-0.189-0.199c-0.061-0.063-0.102-0.104-0.123-0.123c-0.055-0.041-0.117-0.068-0.189-0.082
		s-0.147-0.027-0.226-0.041c-0.079-0.014-0.157-0.041-0.236-0.082s-0.151-0.113-0.22-0.216v-0.041c0-0.062,0.02-0.114,0.061-0.159
		c0.041-0.044,0.093-0.073,0.154-0.087c0.314-0.056,0.624-0.097,0.928-0.124c0.305-0.027,0.611-0.062,0.919-0.103
		c0.014,0,0.052-0.01,0.113-0.031c0.062-0.02,0.103-0.03,0.123-0.03h0.052h0.071c0.014,0,0.042,0.003,0.087,0.011
		c0.045,0.006,0.091,0.014,0.139,0.02c0.048,0.008,0.09,0.014,0.129,0.021c0.037,0.006,0.059,0.01,0.066,0.01
		c0.047,0.007,0.123,0.014,0.226,0.021s0.219,0.011,0.349,0.011c0.123,0,0.239-0.004,0.349-0.011
		c0.11-0.007,0.188-0.014,0.236-0.021c0.137,0.041,0.244,0.128,0.323,0.263c0.078,0.133,0.117,0.268,0.117,0.404
		c0,0.014-0.002,0.031-0.004,0.052c-0.004,0.021-0.006,0.041-0.006,0.062c-0.007,0.027-0.01,0.055-0.01,0.082
		c-0.008,0.014-0.029,0.039-0.066,0.077c-0.039,0.038-0.078,0.075-0.119,0.112c-0.041,0.038-0.078,0.074-0.112,0.107
		c-0.034,0.035-0.052,0.055-0.052,0.063c-0.033,0.055-0.055,0.114-0.061,0.179c-0.008,0.065-0.011,0.128-0.011,0.19v0.143v0.269
		c0,0.014,0.007,0.033,0.021,0.061s0.027,0.057,0.041,0.088c0.014,0.03,0.027,0.06,0.041,0.087s0.021,0.044,0.021,0.052
		c0.007,0.014,0.015,0.039,0.026,0.076c0.01,0.038,0.018,0.076,0.025,0.113c0.006,0.037,0.014,0.09,0.02,0.158
		c0.068,0.227,0.146,0.443,0.23,0.651c0.086,0.209,0.156,0.427,0.211,0.652c0.034,0.137,0.06,0.291,0.077,0.461
		c0.017,0.172,0.057,0.325,0.118,0.462c0.007,0,0.021,0.014,0.046,0.041s0.048,0.057,0.072,0.087
		c0.023,0.031,0.048,0.062,0.071,0.093c0.023,0.03,0.036,0.05,0.036,0.056c0.007,0.021,0.022,0.051,0.046,0.089
		c0.023,0.037,0.048,0.08,0.072,0.128c0.023,0.048,0.044,0.091,0.062,0.128c0.017,0.038,0.028,0.066,0.036,0.088
		c0,0.014,0.006,0.044,0.02,0.092s0.029,0.1,0.047,0.154c0.017,0.055,0.032,0.105,0.046,0.153s0.024,0.079,0.03,0.093
		c0.008,0.014,0.021,0.037,0.042,0.071s0.042,0.071,0.066,0.112s0.046,0.081,0.067,0.118c0.02,0.038,0.033,0.063,0.041,0.077
		c0.041,0.089,0.066,0.18,0.076,0.271c0.01,0.093,0.033,0.185,0.066,0.272c0.035,0.131,0.091,0.243,0.17,0.339
		c0.078,0.096,0.139,0.198,0.18,0.308c0.014,0.014,0.028,0.051,0.045,0.113c0.018,0.061,0.026,0.099,0.026,0.112
		c0.007,0.021,0.026,0.062,0.056,0.123c0.032,0.062,0.063,0.126,0.094,0.194c0.03,0.068,0.06,0.134,0.087,0.195
		s0.044,0.103,0.052,0.123c0.006,0.014,0.014,0.047,0.02,0.099c0.008,0.051,0.014,0.104,0.021,0.158
		c0.006,0.055,0.014,0.106,0.02,0.154c0.008,0.048,0.011,0.078,0.011,0.092c0.007,0.021,0.025,0.059,0.057,0.113
		c0.03,0.055,0.064,0.111,0.103,0.169c0.037,0.059,0.076,0.114,0.117,0.169s0.072,0.093,0.093,0.113
		c0.13,0.096,0.284,0.144,0.462,0.144c0.082,0,0.155-0.038,0.221-0.112c0.064-0.076,0.123-0.164,0.174-0.268
		c0.051-0.102,0.094-0.206,0.129-0.313c0.034-0.105,0.062-0.189,0.082-0.251c0.021-0.041,0.051-0.12,0.092-0.236
		c0.041-0.117,0.088-0.241,0.139-0.375c0.052-0.133,0.102-0.262,0.148-0.385c0.049-0.123,0.082-0.211,0.104-0.266
		c0.033-0.09,0.083-0.173,0.148-0.252c0.064-0.078,0.114-0.166,0.148-0.262c0.014-0.014,0.025-0.059,0.036-0.139
		c0.01-0.079,0.016-0.125,0.016-0.139c0.007-0.014,0.015-0.05,0.025-0.107c0.01-0.058,0.019-0.118,0.026-0.18
		c0.006-0.062,0.012-0.12,0.016-0.175c0.002-0.055,0.004-0.085,0.004-0.092c0.008-0.014,0.018-0.039,0.031-0.077
		c0.014-0.037,0.031-0.077,0.051-0.118c0.021-0.041,0.038-0.076,0.052-0.107c0.014-0.03,0.024-0.049,0.03-0.057
		c0.063-0.178,0.104-0.34,0.123-0.486c0.021-0.147,0.031-0.321,0.031-0.519v-0.216c0-0.109-0.006-0.21-0.016-0.303
		c-0.01-0.092-0.032-0.187-0.066-0.282c-0.014-0.006-0.033-0.03-0.057-0.071s-0.048-0.085-0.072-0.134
		c-0.023-0.047-0.045-0.09-0.066-0.128c-0.02-0.037-0.033-0.063-0.041-0.077c0-0.02-0.002-0.061-0.004-0.124
		c-0.004-0.061-0.01-0.129-0.016-0.205c-0.008-0.074-0.017-0.143-0.026-0.205c-0.011-0.061-0.019-0.102-0.025-0.123
		c0-0.006-0.009-0.037-0.026-0.092c-0.017-0.055-0.035-0.114-0.057-0.18c-0.02-0.064-0.041-0.131-0.061-0.199
		c-0.021-0.068-0.038-0.123-0.052-0.164c-0.014-0.014-0.029-0.036-0.046-0.067c-0.018-0.03-0.029-0.05-0.036-0.056
		c-0.021-0.035-0.055-0.091-0.103-0.17c-0.048-0.078-0.098-0.161-0.148-0.247c-0.052-0.085-0.1-0.164-0.144-0.235
		c-0.045-0.072-0.073-0.122-0.087-0.149c-0.049-0.068-0.127-0.123-0.236-0.164s-0.232-0.074-0.369-0.102s-0.281-0.053-0.432-0.077
		s-0.287-0.05-0.41-0.077s-0.225-0.063-0.303-0.107c-0.079-0.045-0.118-0.104-0.118-0.18c0.007-0.021,0.017-0.041,0.03-0.062
		c0.014-0.014,0.024-0.028,0.031-0.046s0.018-0.029,0.031-0.036c0.116-0.15,0.25-0.265,0.4-0.345
		c0.15-0.078,0.309-0.135,0.477-0.169s0.338-0.059,0.514-0.072c0.174-0.014,0.343-0.03,0.508-0.051c0.014,0,0.039-0.004,0.076-0.01
		c0.037-0.008,0.077-0.016,0.118-0.026c0.041-0.01,0.077-0.019,0.107-0.025c0.031-0.007,0.05-0.011,0.057-0.011h0.194h0.104
		c0.048,0,0.094,0.004,0.139,0.011c0.044,0.007,0.094,0.027,0.148,0.062h0.656c0.355,0,0.708,0.004,1.057,0.01
		c0.35,0.008,0.698,0.024,1.047,0.052c0.082,0.034,0.13,0.104,0.144,0.21c0.014,0.107,0.021,0.198,0.021,0.272v0.093
		c-0.041,0.089-0.096,0.15-0.164,0.185s-0.143,0.057-0.221,0.066c-0.078,0.011-0.16,0.016-0.246,0.016s-0.166,0.007-0.241,0.021
		c-0.007,0-0.027,0.009-0.062,0.025c-0.034,0.018-0.062,0.029-0.082,0.036c-0.021,0.021-0.05,0.048-0.088,0.082
		c-0.037,0.034-0.072,0.072-0.107,0.113c-0.033,0.041-0.066,0.076-0.098,0.107c-0.029,0.03-0.049,0.049-0.056,0.057
		c-0.048,0.055-0.075,0.117-0.082,0.189c-0.007,0.071-0.011,0.145-0.011,0.221c0,0.014,0.002,0.043,0.006,0.087
		c0.003,0.044,0.016,0.073,0.035,0.087c0.008,0.049,0.029,0.134,0.066,0.257c0.038,0.123,0.079,0.252,0.123,0.385
		c0.045,0.134,0.088,0.262,0.129,0.385s0.068,0.209,0.082,0.256c0.007,0.014,0.021,0.041,0.047,0.082
		c0.023,0.041,0.049,0.084,0.076,0.129s0.049,0.087,0.066,0.128s0.025,0.068,0.025,0.082c0.076,0.172,0.115,0.336,0.119,0.493
		c0.003,0.157,0.012,0.325,0.025,0.503c0.014,0.088,0.043,0.167,0.087,0.235s0.095,0.134,0.149,0.194
		c0.055,0.063,0.105,0.127,0.153,0.195s0.082,0.145,0.103,0.227c0.007,0.014,0.014,0.055,0.021,0.123s0.016,0.144,0.025,0.226
		c0.011,0.082,0.019,0.157,0.026,0.226c0.006,0.068,0.014,0.112,0.02,0.134c0,0.02,0.009,0.066,0.026,0.138
		c0.017,0.072,0.032,0.122,0.046,0.149c0.007,0.027,0.021,0.076,0.046,0.148c0.024,0.071,0.052,0.148,0.082,0.23
		c0.032,0.082,0.061,0.163,0.088,0.242s0.052,0.138,0.071,0.179c0,0.014,0.008,0.035,0.021,0.063s0.03,0.047,0.051,0.061
		c0.034,0.068,0.084,0.178,0.148,0.328s0.137,0.303,0.215,0.457c0.079,0.153,0.16,0.289,0.242,0.404
		c0.082,0.118,0.157,0.176,0.226,0.176c0.055,0,0.091-0.003,0.107-0.011c0.017-0.006,0.057-0.027,0.118-0.061
		c0.027-0.014,0.063-0.036,0.107-0.063s0.084-0.055,0.118-0.082c0.041-0.027,0.086-0.055,0.134-0.082
		c0.014-0.014,0.025-0.058,0.035-0.133c0.012-0.075,0.016-0.127,0.016-0.154c0.117-0.307,0.221-0.62,0.313-0.938
		c0.094-0.319,0.184-0.639,0.272-0.96c0.048-0.171,0.112-0.34,0.195-0.508c0.082-0.167,0.137-0.336,0.164-0.509
		c0.007-0.02,0.014-0.069,0.021-0.148c0.007-0.078,0.014-0.16,0.021-0.246c0.007-0.085,0.014-0.167,0.021-0.246
		c0.007-0.078,0.01-0.128,0.01-0.148s0.009-0.077,0.026-0.169c0.017-0.093,0.025-0.155,0.025-0.19
		c0.021-0.068,0.053-0.133,0.098-0.194c0.044-0.062,0.091-0.121,0.138-0.18c0.049-0.058,0.091-0.118,0.129-0.18
		c0.037-0.063,0.063-0.131,0.076-0.205v-0.359v-0.164c0.027-0.068,0.052-0.123,0.072-0.164s0.038-0.08,0.052-0.118
		c0.014-0.037,0.021-0.06,0.021-0.066c0.034-0.116,0.059-0.214,0.072-0.292s0.02-0.176,0.02-0.294c0-0.246-0.055-0.42-0.164-0.522
		s-0.242-0.18-0.4-0.23c-0.156-0.052-0.32-0.098-0.492-0.139c-0.171-0.041-0.321-0.116-0.451-0.226
		c-0.021-0.014-0.048-0.037-0.082-0.072c-0.034-0.033-0.07-0.069-0.107-0.107c-0.038-0.037-0.074-0.073-0.108-0.107
		s-0.055-0.059-0.062-0.072v-0.071c0-0.124,0.038-0.218,0.113-0.283c0.075-0.064,0.166-0.112,0.271-0.144
		c0.105-0.03,0.215-0.05,0.328-0.056c0.113-0.008,0.207-0.011,0.283-0.011c0.055-0.007,0.151-0.014,0.292-0.021
		c0.14-0.007,0.29-0.014,0.451-0.021s0.312-0.014,0.452-0.021c0.139-0.007,0.236-0.018,0.291-0.031c0.021,0,0.059-0.005,0.113-0.015
		c0.055-0.011,0.09-0.022,0.104-0.036c0.014,0,0.037-0.007,0.071-0.021s0.071-0.03,0.112-0.052c0.041-0.02,0.077-0.037,0.108-0.051
		c0.03-0.014,0.053-0.021,0.066-0.021s0.041,0.007,0.082,0.021s0.085,0.031,0.134,0.051c0.047,0.021,0.092,0.038,0.133,0.052
		s0.065,0.021,0.072,0.021c0.13,0.034,0.256,0.053,0.379,0.057s0.248,0.005,0.375,0.005s0.252,0.005,0.375,0.016
		c0.123,0.01,0.249,0.032,0.379,0.066c0.014,0,0.059,0.016,0.134,0.046c0.075,0.031,0.126,0.063,0.153,0.098
		c0.049,0.034,0.121,0.075,0.221,0.123s0.166,0.1,0.2,0.154v0.247c0,0.184-0.03,0.317-0.093,0.399
		c-0.061,0.082-0.14,0.139-0.235,0.169c-0.096,0.031-0.208,0.05-0.339,0.057c-0.13,0.007-0.26,0.031-0.39,0.072
		c-0.014,0-0.041,0.008-0.082,0.025s-0.087,0.037-0.139,0.062c-0.051,0.024-0.099,0.046-0.144,0.066s-0.073,0.034-0.087,0.041
		c-0.007,0.014-0.038,0.029-0.093,0.046c-0.055,0.018-0.089,0.025-0.103,0.025c-0.096,0.055-0.173,0.129-0.231,0.221
		c-0.058,0.093-0.11,0.193-0.158,0.304c-0.048,0.109-0.091,0.219-0.129,0.328c-0.037,0.109-0.076,0.209-0.117,0.297
		c-0.014,0.014-0.041,0.049-0.082,0.104s-0.065,0.085-0.072,0.092c-0.075,0.137-0.135,0.28-0.18,0.431s-0.09,0.301-0.139,0.452
		c-0.047,0.15-0.102,0.298-0.164,0.44c-0.061,0.145-0.14,0.277-0.236,0.4c-0.027,0.342-0.061,0.654-0.102,0.939
		c-0.041,0.284-0.123,0.586-0.246,0.907c-0.041,0.109-0.09,0.209-0.145,0.297c-0.055,0.09-0.107,0.178-0.158,0.269
		c-0.051,0.088-0.1,0.179-0.145,0.271c-0.045,0.092-0.08,0.193-0.107,0.303c-0.014,0.014-0.021,0.064-0.021,0.153
		c0,0.075,0.003,0.15,0.011,0.226c0.006,0.075,0.01,0.119,0.01,0.133c-0.034,0.096-0.08,0.199-0.139,0.309s-0.119,0.22-0.185,0.334
		c-0.065,0.112-0.128,0.224-0.189,0.333s-0.109,0.212-0.144,0.308c-0.014,0.027-0.027,0.066-0.041,0.118
		c-0.014,0.051-0.031,0.076-0.052,0.076c0,0.021-0.002,0.063-0.005,0.123c-0.004,0.063-0.009,0.131-0.016,0.205
		c-0.007,0.076-0.012,0.145-0.016,0.205c-0.004,0.063-0.008,0.104-0.016,0.123c0,0.008-0.012,0.029-0.035,0.067
		c-0.024,0.039-0.036,0.061-0.036,0.066c-0.007,0.021-0.021,0.059-0.041,0.113s-0.03,0.09-0.03,0.104s-0.008,0.049-0.021,0.107
		s-0.029,0.119-0.045,0.185c-0.018,0.065-0.035,0.126-0.053,0.185c-0.017,0.059-0.028,0.09-0.035,0.098
		c-0.021,0.061-0.039,0.107-0.057,0.138c-0.018,0.031-0.039,0.077-0.066,0.139c-0.021,0.034-0.043,0.081-0.066,0.139
		c-0.024,0.058-0.05,0.114-0.077,0.169c-0.027,0.068-0.058,0.133-0.093,0.195c0,0.02-0.003,0.061-0.01,0.124
		c-0.007,0.061-0.013,0.126-0.016,0.194c-0.004,0.068-0.009,0.134-0.016,0.194c-0.007,0.063-0.01,0.104-0.01,0.123
		c-0.021,0.117-0.048,0.26-0.082,0.432c-0.035,0.17-0.084,0.336-0.149,0.497s-0.146,0.298-0.241,0.411
		c-0.096,0.112-0.215,0.169-0.358,0.169h-0.124c-0.047,0-0.094-0.004-0.139-0.01c-0.044-0.008-0.086-0.027-0.127-0.063
		c-0.049-0.047-0.117-0.113-0.205-0.199c-0.09-0.086-0.141-0.143-0.154-0.171c-0.007-0.006-0.023-0.044-0.052-0.112
		c-0.027-0.068-0.06-0.147-0.098-0.235c-0.038-0.09-0.077-0.18-0.118-0.272c-0.041-0.092-0.071-0.165-0.092-0.22
		c-0.089-0.232-0.139-0.459-0.148-0.678c-0.011-0.22-0.047-0.448-0.107-0.688c-0.076-0.205-0.146-0.392-0.211-0.559
		c-0.065-0.167-0.146-0.354-0.241-0.561c-0.082-0.219-0.153-0.441-0.216-0.671c-0.061-0.229-0.125-0.456-0.189-0.683
		c-0.064-0.225-0.139-0.448-0.221-0.667s-0.185-0.428-0.308-0.625c-0.034-0.068-0.062-0.111-0.082-0.129
		c-0.021-0.017-0.058-0.025-0.112-0.025s-0.098,0.009-0.129,0.025c-0.03,0.018-0.06,0.061-0.087,0.129
		c-0.014,0.014-0.032,0.044-0.057,0.092s-0.051,0.103-0.082,0.164c-0.03,0.062-0.062,0.119-0.092,0.174
		c-0.032,0.055-0.058,0.096-0.077,0.123c-0.008,0.035-0.021,0.079-0.041,0.134c-0.021,0.055-0.043,0.107-0.066,0.159
		c-0.025,0.051-0.045,0.098-0.063,0.139s-0.025,0.069-0.025,0.083s-0.006,0.041-0.016,0.082s-0.019,0.085-0.025,0.133
		s-0.014,0.092-0.021,0.133s-0.011,0.068-0.011,0.082c-0.006,0.008-0.027,0.031-0.061,0.072c-0.035,0.041-0.072,0.084-0.113,0.128
		c-0.041,0.045-0.08,0.089-0.117,0.134c-0.039,0.045-0.064,0.07-0.078,0.076c-0.075,0.137-0.126,0.27-0.154,0.396
		c-0.027,0.126-0.064,0.258-0.112,0.395c-0.062,0.172-0.118,0.354-0.169,0.545c-0.052,0.191-0.111,0.365-0.18,0.522
		c-0.007,0.014-0.021,0.044-0.041,0.093c-0.021,0.047-0.043,0.099-0.066,0.153c-0.024,0.055-0.047,0.107-0.066,0.159
		c-0.021,0.051-0.035,0.084-0.041,0.098c-0.09,0.22-0.16,0.438-0.211,0.657s-0.109,0.434-0.174,0.646
		c-0.066,0.212-0.149,0.413-0.252,0.605c-0.103,0.191-0.246,0.366-0.432,0.523c-0.014,0-0.058,0.021-0.133,0.062
		s-0.13,0.068-0.164,0.082h-0.041h-0.021c-0.027,0-0.057-0.013-0.087-0.036c-0.031-0.023-0.053-0.035-0.066-0.035
		c-0.021-0.021-0.055-0.054-0.104-0.098c-0.048-0.045-0.094-0.091-0.139-0.139s-0.086-0.089-0.123-0.123s-0.06-0.059-0.066-0.072
		c0-0.014-0.01-0.049-0.031-0.107c-0.02-0.058-0.044-0.119-0.071-0.186c-0.027-0.064-0.052-0.124-0.071-0.179
		c-0.021-0.055-0.031-0.086-0.031-0.093c-0.116-0.28-0.236-0.554-0.359-0.82s-0.242-0.544-0.359-0.832
		c-0.074-0.184-0.137-0.372-0.184-0.563c-0.049-0.191-0.104-0.376-0.164-0.554c-0.172-0.452-0.329-0.896-0.473-1.334
		s-0.301-0.876-0.472-1.313c0-0.014-0.009-0.042-0.026-0.087c-0.017-0.045-0.037-0.093-0.062-0.144
		c-0.024-0.052-0.046-0.098-0.066-0.139s-0.034-0.065-0.041-0.071c-0.014-0.027-0.041-0.094-0.082-0.2s-0.068-0.183-0.082-0.231
		c0-0.006-0.005-0.037-0.016-0.092c-0.01-0.055-0.022-0.115-0.036-0.181c-0.014-0.064-0.027-0.125-0.041-0.18
		s-0.023-0.085-0.03-0.092c-0.007-0.021-0.029-0.06-0.066-0.118c-0.038-0.058-0.077-0.119-0.118-0.185
		c-0.041-0.064-0.078-0.125-0.113-0.18c-0.034-0.055-0.051-0.088-0.051-0.102c-0.021-0.021-0.038-0.049-0.052-0.082
		c-0.014-0.035-0.021-0.055-0.021-0.063c-0.007-0.014-0.014-0.044-0.021-0.092s-0.015-0.101-0.026-0.159
		c-0.01-0.058-0.018-0.11-0.025-0.159c-0.006-0.047-0.014-0.078-0.02-0.093c-0.076-0.287-0.175-0.57-0.298-0.852
		c-0.123-0.279-0.229-0.563-0.317-0.852c-0.008-0.014-0.014-0.042-0.021-0.087c-0.007-0.045-0.016-0.091-0.025-0.139
		c-0.011-0.048-0.019-0.092-0.025-0.133s-0.014-0.063-0.021-0.063c0-0.014-0.009-0.037-0.026-0.071s-0.032-0.065-0.046-0.093
		c-0.123-0.232-0.234-0.449-0.333-0.65C124.552,13.229,124.476,12.997,124.421,12.736z"/>
	<path fill="#545454" d="M147.792,24.269c-0.006-0.027,0.016-0.071,0.066-0.134c0.053-0.061,0.115-0.121,0.19-0.179
		s0.15-0.111,0.226-0.159s0.13-0.072,0.164-0.072c0.021-0.006,0.065-0.014,0.134-0.02c0.068-0.008,0.142-0.014,0.221-0.021
		c0.078-0.006,0.151-0.014,0.22-0.02c0.068-0.008,0.113-0.011,0.134-0.011c0.014-0.014,0.057-0.046,0.128-0.098
		c0.072-0.051,0.125-0.091,0.16-0.118c0.006-0.02,0.03-0.047,0.071-0.082c0.041-0.033,0.068-0.061,0.082-0.082
		c0-0.027,0.001-0.076,0.005-0.148c0.004-0.071,0.009-0.151,0.016-0.236s0.016-0.166,0.025-0.241s0.02-0.127,0.025-0.154
		c0-0.006,0.008-0.037,0.021-0.092s0.027-0.114,0.041-0.18c0.014-0.064,0.027-0.126,0.041-0.185c0.014-0.058,0.02-0.094,0.02-0.107
		v-0.041c0-0.103-0.02-0.205-0.061-0.308s-0.063-0.213-0.063-0.329c0-0.144,0.021-0.287,0.063-0.431s0.061-0.294,0.061-0.451v-0.093
		c0-0.027-0.003-0.113-0.01-0.261s-0.016-0.304-0.025-0.473c-0.01-0.168-0.02-0.324-0.025-0.472
		c-0.008-0.147-0.011-0.241-0.011-0.282v-0.133c0-0.063,0.015-0.123,0.046-0.186c0.031-0.061,0.066-0.121,0.107-0.179
		s0.078-0.12,0.107-0.185c0.031-0.064,0.047-0.136,0.047-0.212c0-0.061-0.016-0.126-0.047-0.194
		c-0.029-0.068-0.045-0.134-0.045-0.194c0-0.09,0.023-0.172,0.071-0.246c0.048-0.076,0.072-0.158,0.072-0.246
		c0-0.145-0.021-0.318-0.062-0.523c-0.041-0.206-0.063-0.394-0.063-0.565c-0.014-0.061-0.02-0.167-0.02-0.317s0-0.312,0-0.481
		c0-0.172,0-0.334,0-0.488s0.006-0.262,0.02-0.323c-0.055-0.082-0.096-0.172-0.123-0.271s-0.041-0.193-0.041-0.282v-0.03
		c0.008-0.008,0.018-0.029,0.031-0.067c0.014-0.037,0.031-0.077,0.051-0.118c0.021-0.041,0.038-0.078,0.052-0.112
		s0.024-0.055,0.03-0.062v-0.37c0-0.171-0.023-0.342-0.071-0.513s-0.144-0.304-0.287-0.399c-0.034,0-0.091-0.008-0.169-0.021
		c-0.079-0.014-0.159-0.027-0.242-0.041c-0.082-0.014-0.16-0.027-0.235-0.041s-0.126-0.023-0.153-0.03
		c-0.008-0.014-0.038-0.032-0.093-0.057c-0.055-0.023-0.089-0.036-0.103-0.036s-0.055,0.004-0.123,0.011s-0.134,0.011-0.195,0.011
		c-0.068,0-0.109-0.008-0.123-0.021c-0.055-0.006-0.107-0.03-0.158-0.071c-0.053-0.041-0.098-0.089-0.139-0.144
		s-0.074-0.113-0.098-0.174c-0.024-0.063-0.036-0.117-0.036-0.165c0-0.082,0.021-0.161,0.062-0.236s0.092-0.142,0.154-0.2
		c0.061-0.058,0.129-0.104,0.205-0.138c0.074-0.035,0.15-0.055,0.226-0.063c0.021-0.006,0.077-0.014,0.169-0.02
		c0.093-0.008,0.197-0.016,0.313-0.026c0.117-0.01,0.229-0.019,0.339-0.025c0.11-0.007,0.192-0.014,0.247-0.021h0.174h0.174
		c0.021,0.007,0.07,0.016,0.148,0.025c0.079,0.011,0.163,0.021,0.252,0.031c0.09,0.01,0.173,0.019,0.252,0.025
		c0.078,0.007,0.128,0.01,0.148,0.01h2.359c0.014,0,0.055,0.013,0.123,0.036c0.068,0.024,0.117,0.036,0.145,0.036h0.041
		c0.123,0,0.232-0.016,0.328-0.046c0.096-0.031,0.223-0.046,0.379-0.046c0.055,0,0.132,0.003,0.231,0.01
		c0.099,0.007,0.159,0.01,0.18,0.01c0.007,0,0.048,0.013,0.123,0.036c0.075,0.024,0.126,0.036,0.153,0.036
		c0.123,0.014,0.266,0.025,0.427,0.036c0.16,0.01,0.299,0.039,0.415,0.087c0.26,0.096,0.498,0.209,0.713,0.338
		c0.215,0.132,0.433,0.285,0.652,0.463c0.137,0.103,0.283,0.259,0.44,0.467s0.306,0.436,0.446,0.682
		c0.141,0.247,0.262,0.495,0.364,0.744c0.103,0.25,0.164,0.471,0.185,0.662v0.317v0.123c0,0.014,0.012,0.059,0.035,0.135
		c0.024,0.074,0.037,0.119,0.037,0.133v0.041v0.051c-0.049,0.254-0.102,0.503-0.16,0.749c-0.058,0.246-0.129,0.487-0.215,0.724
		s-0.191,0.464-0.318,0.683c-0.126,0.219-0.281,0.424-0.467,0.615c-0.033,0.033-0.063,0.06-0.087,0.076
		c-0.024,0.018-0.048,0.033-0.071,0.047c-0.024,0.014-0.039,0.02-0.047,0.02c-0.014,0.008-0.044,0.041-0.092,0.104
		c-0.048,0.061-0.103,0.129-0.164,0.205c-0.063,0.074-0.123,0.152-0.186,0.23c-0.061,0.078-0.105,0.139-0.133,0.18
		c-0.014,0.014-0.041,0.047-0.082,0.102s-0.062,0.09-0.062,0.104c-0.15,0.006-0.271,0.015-0.359,0.025
		c-0.089,0.01-0.181,0.053-0.276,0.128c-0.082,0.041-0.182,0.084-0.298,0.128c-0.116,0.045-0.238,0.084-0.364,0.118
		c-0.127,0.034-0.252,0.062-0.375,0.082s-0.232,0.03-0.328,0.03c-0.178,0-0.346-0.031-0.502-0.097
		c-0.158-0.065-0.315-0.111-0.473-0.139h-0.308c-0.137-0.014-0.257-0.053-0.358-0.118c-0.104-0.064-0.227-0.098-0.37-0.098h-0.082
		c-0.055,0-0.112,0.008-0.175,0.021c-0.061,0.014-0.115,0.037-0.164,0.071c0,0.021-0.005,0.055-0.015,0.103
		c-0.011,0.048-0.024,0.098-0.041,0.148c-0.018,0.052-0.033,0.1-0.047,0.144c-0.014,0.045-0.021,0.073-0.021,0.087
		c-0.007,0.014-0.017,0.04-0.03,0.077c-0.015,0.038-0.03,0.075-0.046,0.114c-0.018,0.038-0.04,0.091-0.067,0.159
		c-0.014,0-0.021,0.014-0.021,0.041v0.03c0,0.014,0,0.029,0,0.046c0,0.018,0.007,0.033,0.021,0.047c0,0.014,0.024,0.058,0.071,0.133
		c0.049,0.075,0.072,0.119,0.072,0.133s0.006,0.043,0.016,0.088c0.011,0.045,0.019,0.092,0.025,0.144
		c0.007,0.051,0.014,0.097,0.021,0.138s0.011,0.065,0.011,0.072l0.051,0.144l0.031,0.052c0,0.088-0.022,0.189-0.066,0.302
		c-0.045,0.113-0.074,0.208-0.088,0.283c-0.007,0.014-0.017,0.041-0.03,0.082c-0.015,0.041-0.03,0.086-0.046,0.133
		c-0.018,0.049-0.033,0.093-0.047,0.134s-0.021,0.068-0.021,0.082c0,0.021,0.007,0.065,0.021,0.134s0.029,0.143,0.047,0.225
		c0.016,0.082,0.031,0.159,0.046,0.231c0.014,0.071,0.023,0.118,0.03,0.138c0.021,0.096,0.034,0.195,0.041,0.298
		c0.007,0.104,0.022,0.206,0.047,0.309c0.023,0.103,0.062,0.198,0.112,0.287c0.052,0.089,0.125,0.168,0.221,0.236
		c0.027,0.02,0.079,0.047,0.153,0.082c0.076,0.033,0.12,0.051,0.134,0.051h0.923c0.035,0,0.09,0.025,0.165,0.077
		c0.075,0.051,0.148,0.109,0.221,0.174c0.071,0.065,0.135,0.125,0.189,0.18s0.082,0.085,0.082,0.093v0.061
		c-0.055,0.096-0.104,0.175-0.148,0.237c-0.045,0.062-0.093,0.115-0.144,0.159c-0.052,0.044-0.109,0.079-0.175,0.103
		s-0.146,0.046-0.241,0.066c-0.062,0-0.166-0.004-0.313-0.01c-0.147-0.008-0.299-0.011-0.457-0.011
		c-0.157,0-0.307,0.003-0.446,0.011c-0.14,0.006-0.237,0.01-0.292,0.01c-0.034,0-0.098,0.008-0.189,0.025
		c-0.094,0.018-0.149,0.033-0.17,0.047h-2.432c-0.089-0.063-0.171-0.093-0.246-0.093c-0.034,0-0.068,0.003-0.103,0.011
		c-0.034,0.006-0.079,0.01-0.134,0.01h-0.082c-0.205-0.034-0.359-0.125-0.461-0.271C147.874,24.65,147.813,24.474,147.792,24.269z
		 M152.194,18.308c0.17,0.014,0.347,0.038,0.527,0.072c0.182,0.034,0.357,0.051,0.529,0.051h0.102
		c0.021-0.02,0.054-0.055,0.099-0.102c0.044-0.049,0.094-0.098,0.148-0.149c0.055-0.051,0.104-0.099,0.148-0.144
		s0.077-0.077,0.098-0.099c0.014,0,0.065-0.028,0.153-0.087c0.09-0.058,0.158-0.101,0.206-0.128
		c0.062-0.027,0.147-0.068,0.257-0.123s0.194-0.109,0.256-0.164c0.041-0.041,0.105-0.107,0.195-0.2
		c0.088-0.092,0.178-0.187,0.267-0.282s0.169-0.186,0.241-0.271c0.071-0.085,0.114-0.142,0.128-0.169
		c0.109-0.145,0.2-0.307,0.271-0.488c0.072-0.181,0.125-0.369,0.159-0.563c0.035-0.195,0.059-0.388,0.072-0.579
		s0.021-0.37,0.021-0.534c0-0.117-0.034-0.219-0.103-0.309c-0.068-0.088-0.131-0.191-0.186-0.307
		c-0.014-0.008-0.029-0.033-0.046-0.077s-0.038-0.091-0.062-0.139s-0.048-0.093-0.071-0.134c-0.024-0.041-0.043-0.061-0.057-0.061
		c0-0.027-0.029-0.07-0.087-0.129c-0.059-0.058-0.094-0.094-0.107-0.107c0-0.007-0.011-0.031-0.031-0.073
		c-0.021-0.041-0.043-0.087-0.066-0.138c-0.024-0.052-0.049-0.098-0.072-0.139s-0.043-0.065-0.057-0.071
		c0-0.008-0.017-0.022-0.051-0.047c-0.034-0.023-0.074-0.051-0.119-0.082c-0.044-0.03-0.088-0.06-0.133-0.087
		s-0.08-0.052-0.107-0.071c-0.014-0.014-0.041-0.029-0.082-0.047c-0.041-0.017-0.064-0.025-0.072-0.025
		c-0.006-0.007-0.02-0.025-0.041-0.057c-0.02-0.03-0.041-0.062-0.061-0.092c-0.021-0.031-0.041-0.061-0.063-0.088
		c-0.02-0.027-0.03-0.044-0.03-0.051c-0.014,0-0.03-0.01-0.052-0.031c-0.006-0.006-0.014-0.017-0.02-0.03
		c-0.021-0.007-0.056-0.017-0.104-0.03s-0.1-0.029-0.154-0.047c-0.055-0.017-0.107-0.032-0.158-0.046
		c-0.052-0.014-0.088-0.021-0.107-0.021c-0.008,0-0.031-0.004-0.072-0.01c-0.041-0.008-0.086-0.016-0.133-0.026
		c-0.049-0.01-0.093-0.019-0.134-0.025s-0.068-0.011-0.083-0.011c-0.014-0.006-0.044-0.017-0.092-0.03s-0.1-0.03-0.154-0.052
		c-0.055-0.02-0.107-0.037-0.158-0.051s-0.084-0.023-0.098-0.031h-0.082h-0.123c-0.014,0.021-0.041,0.061-0.082,0.118
		c-0.041,0.059-0.086,0.118-0.134,0.18s-0.095,0.12-0.139,0.175s-0.077,0.092-0.097,0.112c-0.014,0.027-0.031,0.06-0.052,0.098
		s-0.041,0.077-0.062,0.118c-0.027,0.047-0.055,0.096-0.082,0.143v1.272c-0.068,0.131-0.115,0.271-0.139,0.421
		s-0.035,0.301-0.035,0.451c0,0.063,0,0.124,0,0.186s0.006,0.119,0.02,0.174c-0.014,0.014-0.035,0.047-0.066,0.098
		c-0.03,0.052-0.05,0.084-0.057,0.098v0.072v0.082c0,0.074,0.006,0.176,0.016,0.302c0.011,0.127,0.019,0.25,0.025,0.369
		c0.007,0.12,0.014,0.226,0.021,0.319c0.007,0.092,0.011,0.142,0.011,0.148c0,0.014,0.007,0.04,0.021,0.077s0.028,0.08,0.046,0.128
		s0.033,0.093,0.047,0.134s0.023,0.064,0.03,0.071v0.298v0.287c0,0.014-0.013,0.035-0.036,0.066
		c-0.023,0.03-0.043,0.063-0.057,0.098c0,0.006-0.02,0.037-0.062,0.092c-0.041,0.055-0.062,0.089-0.062,0.103v0.03v0.041
		c0,0.008,0.011,0.021,0.031,0.041l0.041,0.042c0.007,0,0.041-0.014,0.103-0.042c0.062-0.027,0.096-0.041,0.103-0.041
		c0.096,0,0.144,0.041,0.144,0.124c0,0.027-0.002,0.051-0.005,0.067c-0.004,0.017-0.006,0.039-0.006,0.066
		C152.132,18.257,152.153,18.294,152.194,18.308z"/>
	<path fill="#545454" d="M159.632,24.443c0-0.123,0.038-0.228,0.113-0.313c0.075-0.085,0.164-0.165,0.267-0.241
		c0.103-0.074,0.206-0.151,0.308-0.23c0.104-0.078,0.182-0.176,0.236-0.292c0.034-0.082,0.059-0.167,0.072-0.257
		c0.014-0.089,0.02-0.182,0.02-0.277c0-0.089-0.003-0.175-0.01-0.257s-0.01-0.16-0.01-0.235v-0.112c0-0.014,0.012-0.063,0.035-0.145
		s0.036-0.126,0.036-0.133v-0.79c0-0.008,0.003-0.031,0.011-0.072c0.006-0.041,0.016-0.084,0.025-0.128s0.019-0.087,0.025-0.128
		s0.01-0.065,0.01-0.072c0-0.021-0.012-0.072-0.035-0.154c-0.024-0.082-0.036-0.133-0.036-0.153v-0.03V20.4
		c0-0.014,0.007-0.041,0.021-0.082s0.027-0.085,0.041-0.133s0.027-0.092,0.041-0.133s0.021-0.068,0.021-0.082
		c0-0.008,0.007-0.061,0.021-0.159s0.021-0.181,0.021-0.242c0-0.191-0.011-0.369-0.03-0.533c-0.021-0.164-0.09-0.324-0.205-0.482
		c-0.021-0.02-0.061-0.066-0.119-0.138c-0.058-0.072-0.117-0.147-0.179-0.226s-0.12-0.15-0.175-0.217
		c-0.055-0.064-0.085-0.107-0.092-0.128c0-0.014-0.021-0.064-0.063-0.154c-0.041-0.088-0.068-0.156-0.082-0.205v-0.051
		c0-0.055,0.021-0.109,0.063-0.164s0.085-0.1,0.133-0.133c0.137-0.096,0.281-0.188,0.432-0.277s0.297-0.168,0.441-0.236
		c0.014,0,0.059-0.008,0.138-0.025c0.079-0.017,0.128-0.032,0.149-0.046c0.014-0.007,0.055-0.027,0.123-0.062
		s0.14-0.072,0.215-0.113c0.075-0.042,0.147-0.081,0.216-0.118s0.112-0.061,0.134-0.066c0.027,0,0.082-0.004,0.164-0.011
		s0.14-0.011,0.174-0.011s0.08,0.004,0.139,0.011c0.058,0.007,0.094,0.011,0.107,0.011l0.123,0.226c0.008,0,0.014,0.031,0.021,0.093
		c0.006,0.062,0.015,0.134,0.025,0.216c0.01,0.082,0.019,0.167,0.025,0.256s0.014,0.164,0.021,0.226v0.103
		c0,0.062-0.003,0.111-0.011,0.148c-0.006,0.038-0.033,0.088-0.082,0.148c0,0.049,0.004,0.127,0.011,0.236s0.011,0.233,0.011,0.37
		s-0.004,0.264-0.011,0.379c-0.007,0.117-0.011,0.199-0.011,0.246c0,0.014-0.006,0.049-0.02,0.104s-0.028,0.112-0.042,0.174
		s-0.027,0.119-0.041,0.174s-0.021,0.086-0.021,0.093v0.185c0,0.075,0.012,0.14,0.036,0.19c0.023,0.052,0.048,0.1,0.072,0.144
		c0.023,0.045,0.048,0.087,0.071,0.128s0.036,0.09,0.036,0.145c0,0.115-0.007,0.238-0.021,0.369
		c-0.014,0.129-0.062,0.242-0.144,0.338c0.014,0.075,0.021,0.148,0.021,0.221c0,0.071,0,0.145,0,0.222
		c0,0.184-0.007,0.371-0.021,0.559s-0.031,0.381-0.052,0.579c0,0.007-0.012,0.05-0.035,0.128c-0.025,0.079-0.037,0.125-0.037,0.139
		v0.174v0.104c0,0.056,0.004,0.108,0.011,0.159c0.007,0.052,0.027,0.094,0.062,0.129l0.924,0.922c0,0.014,0.008,0.049,0.025,0.104
		s0.033,0.092,0.047,0.112v0.071c0,0.068-0.016,0.141-0.047,0.217c-0.031,0.075-0.073,0.144-0.128,0.205
		c-0.056,0.062-0.116,0.112-0.185,0.153s-0.145,0.063-0.227,0.063h-0.554h-0.563c-0.069,0-0.178-0.004-0.324-0.011
		s-0.299-0.016-0.456-0.025c-0.157-0.011-0.305-0.019-0.441-0.026c-0.137-0.006-0.226-0.01-0.267-0.01
		c-0.205-0.014-0.377-0.066-0.514-0.159C159.7,24.818,159.632,24.663,159.632,24.443z M160.474,12.644
		c0-0.266,0.073-0.523,0.221-0.773c0.146-0.25,0.34-0.436,0.58-0.56c0.027,0,0.082-0.004,0.164-0.011s0.167-0.014,0.256-0.021
		s0.175-0.012,0.257-0.016c0.082-0.003,0.14-0.005,0.175-0.005c0-0.021,0.01-0.03,0.03-0.03c0.109,0,0.203,0.021,0.282,0.066
		c0.078,0.046,0.148,0.102,0.211,0.17c0.061,0.068,0.117,0.146,0.169,0.23c0.051,0.086,0.097,0.166,0.138,0.241
		c0.021,0.034,0.043,0.074,0.067,0.118c0.023,0.044,0.048,0.091,0.071,0.138c0.023,0.049,0.045,0.09,0.062,0.123
		c0.017,0.035,0.026,0.055,0.026,0.063c0,0.02,0.003,0.084,0.01,0.189s0.01,0.186,0.01,0.24c0,0.205-0.03,0.403-0.092,0.591
		c-0.062,0.188-0.152,0.355-0.271,0.503c-0.12,0.147-0.264,0.265-0.432,0.354s-0.357,0.134-0.568,0.134
		c-0.021,0-0.058-0.004-0.108-0.011c-0.052-0.007-0.095-0.011-0.128-0.011c-0.131-0.129-0.262-0.256-0.396-0.379
		c-0.133-0.123-0.255-0.251-0.364-0.385c-0.109-0.133-0.198-0.276-0.267-0.431S160.474,12.843,160.474,12.644z"/>
	<path fill="#545454" d="M164.978,20.616v-0.554c0.007-0.014,0.029-0.048,0.066-0.103c0.038-0.055,0.057-0.096,0.057-0.123
		c0.014-0.027,0.039-0.094,0.078-0.201c0.037-0.105,0.074-0.219,0.111-0.338c0.038-0.119,0.074-0.23,0.108-0.334
		c0.034-0.102,0.052-0.167,0.052-0.194c0.109-0.267,0.232-0.511,0.369-0.733s0.305-0.43,0.502-0.621
		c0.049-0.041,0.111-0.098,0.19-0.169c0.078-0.072,0.159-0.146,0.241-0.226s0.155-0.147,0.221-0.205
		c0.064-0.058,0.107-0.095,0.128-0.108c0.082-0.055,0.169-0.09,0.261-0.107c0.094-0.017,0.181-0.057,0.263-0.117
		c0-0.008,0.017-0.022,0.052-0.047c0.033-0.023,0.069-0.051,0.107-0.083c0.037-0.029,0.074-0.062,0.112-0.092
		c0.038-0.031,0.063-0.053,0.077-0.066c0.014-0.008,0.031-0.014,0.051-0.021c0.035-0.014,0.059-0.03,0.072-0.051
		c0.041-0.014,0.09-0.031,0.148-0.051c0.059-0.021,0.113-0.041,0.164-0.063c0.053-0.02,0.119-0.047,0.201-0.082
		c0.471,0.008,0.838,0.013,1.098,0.016c0.26,0.004,0.451,0.009,0.574,0.016s0.198,0.012,0.226,0.016s0.048,0.005,0.062,0.005
		c0.062,0.021,0.123,0.034,0.185,0.041s0.13,0.024,0.206,0.052c0.006,0,0.023,0.006,0.051,0.02s0.057,0.027,0.087,0.041
		c0.031,0.014,0.058,0.027,0.082,0.041s0.04,0.021,0.046,0.021c0.063,0.027,0.137,0.049,0.227,0.066
		c0.088,0.018,0.16,0.049,0.215,0.098c0.131,0.116,0.26,0.233,0.391,0.349c0.129,0.117,0.244,0.241,0.344,0.375
		c0.098,0.133,0.179,0.278,0.24,0.436c0.063,0.157,0.093,0.332,0.093,0.524c0,0.109-0.036,0.22-0.107,0.333
		c-0.073,0.112-0.163,0.215-0.272,0.308c-0.109,0.092-0.228,0.168-0.354,0.226c-0.127,0.058-0.244,0.087-0.354,0.087h-0.123
		c-0.014-0.007-0.048-0.025-0.103-0.057c-0.055-0.03-0.116-0.063-0.185-0.098c-0.068-0.033-0.137-0.069-0.205-0.107
		c-0.068-0.037-0.123-0.066-0.165-0.087c-0.033-0.027-0.061-0.068-0.082-0.123c-0.02-0.055-0.037-0.109-0.051-0.164
		s-0.023-0.109-0.031-0.164c-0.006-0.055-0.017-0.099-0.03-0.134c-0.041-0.138-0.093-0.275-0.153-0.416
		c-0.063-0.14-0.137-0.265-0.227-0.374c-0.088-0.109-0.196-0.198-0.323-0.267c-0.126-0.068-0.274-0.103-0.446-0.103
		c-0.191,0-0.383,0.043-0.574,0.128c-0.191,0.086-0.355,0.19-0.492,0.313c-0.021,0.02-0.068,0.063-0.145,0.128
		c-0.074,0.065-0.156,0.133-0.246,0.205c-0.088,0.071-0.17,0.138-0.246,0.2c-0.074,0.061-0.123,0.099-0.143,0.112
		c-0.097,0.076-0.156,0.174-0.18,0.293c-0.025,0.12-0.061,0.241-0.108,0.364c-0.027,0.048-0.048,0.087-0.062,0.118
		c-0.014,0.03-0.027,0.062-0.041,0.092c-0.014,0.031-0.021,0.05-0.021,0.057c-0.109,0.246-0.177,0.501-0.2,0.764
		c-0.023,0.265-0.035,0.529-0.035,0.796v0.226v0.431c0.047,0.075,0.085,0.157,0.112,0.247c0.027,0.089,0.053,0.182,0.077,0.277
		c0.023,0.096,0.047,0.189,0.072,0.281c0.023,0.093,0.056,0.18,0.097,0.262c0.082,0.157,0.17,0.289,0.262,0.395
		c0.093,0.106,0.188,0.203,0.287,0.293c0.099,0.088,0.204,0.173,0.313,0.252s0.229,0.165,0.359,0.261l0.02,0.041
		c0.008,0.021,0.024,0.031,0.052,0.031c0.014,0.021,0.038,0.034,0.071,0.041c0.021,0.014,0.038,0.023,0.052,0.031h1.796
		c0.033-0.008,0.064-0.018,0.092-0.031c0.027-0.007,0.051-0.014,0.072-0.021c0.02-0.007,0.037-0.014,0.051-0.021
		c0.137-0.055,0.269-0.092,0.396-0.113c0.126-0.02,0.247-0.051,0.364-0.092c0.061-0.021,0.129-0.049,0.205-0.087
		c0.075-0.038,0.15-0.077,0.226-0.118c0.075-0.042,0.15-0.078,0.226-0.108c0.075-0.031,0.146-0.047,0.215-0.047
		c0.014,0,0.029,0.006,0.047,0.016c0.017,0.011,0.025,0.022,0.025,0.036c0,0.021-0.009,0.058-0.025,0.108
		c-0.018,0.052-0.033,0.095-0.047,0.128c-0.088,0.24-0.213,0.462-0.373,0.667c-0.162,0.205-0.347,0.388-0.555,0.549
		c-0.209,0.161-0.433,0.297-0.672,0.406c-0.24,0.109-0.486,0.184-0.739,0.225c-0.014,0-0.048,0.004-0.103,0.011
		s-0.115,0.014-0.18,0.021s-0.127,0.016-0.185,0.025c-0.058,0.011-0.097,0.02-0.118,0.025c-0.014,0-0.047,0.021-0.102,0.063
		s-0.086,0.061-0.093,0.061h-0.288c-0.211,0-0.436-0.027-0.672-0.082c-0.235-0.055-0.469-0.129-0.697-0.225
		c-0.229-0.096-0.448-0.207-0.656-0.335c-0.209-0.126-0.393-0.265-0.549-0.415c-0.008-0.007-0.031-0.036-0.072-0.087
		c-0.041-0.052-0.087-0.109-0.139-0.175c-0.051-0.064-0.103-0.133-0.153-0.205c-0.052-0.071-0.095-0.132-0.128-0.179
		c-0.35-0.451-0.603-0.911-0.76-1.376S164.978,21.184,164.978,20.616z"/>
	<path fill="#545454" d="M178.213,23.981c-0.062,0-0.12,0.017-0.175,0.052c-0.055,0.033-0.107,0.074-0.158,0.123
		c-0.052,0.047-0.1,0.097-0.144,0.148c-0.045,0.051-0.087,0.094-0.128,0.128c-0.008,0-0.028,0.007-0.063,0.021
		s-0.064,0.031-0.092,0.051c-0.123,0.049-0.243,0.105-0.359,0.171c-0.116,0.064-0.232,0.127-0.349,0.185s-0.238,0.107-0.364,0.148
		c-0.127,0.041-0.255,0.062-0.385,0.062h-0.318c-0.014-0.014-0.05-0.029-0.107-0.046c-0.059-0.017-0.094-0.032-0.107-0.046
		c-0.008,0-0.027-0.002-0.063-0.006c-0.033-0.003-0.071-0.008-0.112-0.016c-0.041-0.006-0.081-0.014-0.118-0.02
		c-0.037-0.008-0.06-0.018-0.066-0.031c-0.034-0.007-0.09-0.018-0.164-0.031c-0.076-0.014-0.12-0.02-0.134-0.02
		c-0.082-0.055-0.171-0.147-0.267-0.278c-0.096-0.13-0.185-0.273-0.267-0.431c-0.083-0.157-0.153-0.314-0.21-0.472
		c-0.059-0.157-0.088-0.291-0.088-0.4c0-0.156,0.027-0.312,0.082-0.462s0.096-0.297,0.123-0.441
		c0.205-0.307,0.407-0.574,0.605-0.799c0.198-0.227,0.455-0.433,0.77-0.616c0-0.008,0.018-0.02,0.051-0.036
		c0.035-0.017,0.07-0.034,0.107-0.052c0.038-0.017,0.076-0.032,0.113-0.046s0.063-0.024,0.077-0.03
		c0.069-0.035,0.141-0.08,0.216-0.139s0.15-0.116,0.226-0.175c0.075-0.058,0.147-0.108,0.216-0.153s0.129-0.074,0.185-0.088
		c0.014-0.006,0.05-0.014,0.108-0.02c0.057-0.008,0.119-0.014,0.184-0.021c0.064-0.006,0.125-0.014,0.18-0.02
		c0.055-0.008,0.092-0.014,0.113-0.021c0.006,0,0.037-0.023,0.092-0.071s0.089-0.071,0.103-0.071
		c0.021-0.008,0.073-0.031,0.159-0.072s0.176-0.086,0.271-0.133c0.096-0.049,0.187-0.094,0.272-0.14
		c0.085-0.045,0.138-0.074,0.159-0.088c0.068-0.041,0.123-0.099,0.164-0.174s0.07-0.154,0.088-0.236
		c0.016-0.082,0.026-0.164,0.029-0.246c0.004-0.082,0.006-0.156,0.006-0.225c0-0.328-0.043-0.626-0.129-0.894
		c-0.085-0.267-0.237-0.529-0.456-0.789c-0.014-0.035-0.05-0.076-0.107-0.123c-0.059-0.049-0.095-0.072-0.108-0.072h-0.615
		c-0.082,0.075-0.178,0.143-0.287,0.2s-0.185,0.132-0.226,0.22c-0.083,0.15-0.167,0.312-0.252,0.482s-0.146,0.343-0.179,0.514
		c-0.021,0.021-0.063,0.054-0.123,0.098c-0.063,0.044-0.125,0.087-0.19,0.128s-0.128,0.08-0.19,0.118
		c-0.061,0.038-0.105,0.063-0.133,0.077c-0.007,0-0.027,0.002-0.062,0.005s-0.073,0.005-0.118,0.005s-0.09,0.002-0.139,0.005
		c-0.047,0.004-0.085,0.005-0.112,0.005c-0.014,0-0.041-0.001-0.082-0.005c-0.041-0.003-0.086-0.005-0.134-0.005
		s-0.092-0.002-0.133-0.005s-0.072-0.005-0.093-0.005c-0.068-0.041-0.14-0.091-0.216-0.149c-0.074-0.058-0.143-0.119-0.205-0.185
		c-0.061-0.064-0.112-0.137-0.153-0.215c-0.042-0.078-0.062-0.167-0.062-0.263c0-0.103,0.012-0.191,0.035-0.267
		c0.024-0.075,0.055-0.147,0.093-0.216s0.084-0.135,0.139-0.199s0.112-0.135,0.175-0.211c0.055-0.074,0.097-0.138,0.128-0.189
		c0.03-0.051,0.083-0.104,0.159-0.158c0.041-0.035,0.078-0.057,0.112-0.067c0.034-0.01,0.07-0.017,0.108-0.021
		c0.037-0.003,0.076-0.008,0.117-0.016c0.041-0.006,0.093-0.02,0.154-0.041c0.027-0.006,0.089-0.035,0.185-0.087
		c0.096-0.051,0.2-0.106,0.313-0.165c0.112-0.058,0.217-0.112,0.313-0.164c0.096-0.051,0.157-0.083,0.185-0.097
		c0.014-0.008,0.041-0.012,0.082-0.016s0.083-0.009,0.128-0.016s0.088-0.012,0.129-0.016c0.041-0.003,0.068-0.005,0.082-0.005
		c0.191-0.048,0.375-0.11,0.549-0.189s0.361-0.118,0.559-0.118h0.123c0.287,0.048,0.592,0.111,0.914,0.189
		c0.321,0.079,0.608,0.211,0.861,0.395c0.021,0.021,0.053,0.051,0.098,0.088c0.044,0.037,0.088,0.08,0.133,0.129
		c0.045,0.048,0.084,0.091,0.119,0.128c0.033,0.038,0.055,0.066,0.061,0.088c0.008,0.006,0.016,0.03,0.025,0.071
		c0.012,0.041,0.02,0.084,0.026,0.128c0.007,0.045,0.012,0.09,0.015,0.134c0.004,0.044,0.006,0.069,0.006,0.077
		c0,0.02,0.012,0.061,0.035,0.123c0.024,0.061,0.051,0.129,0.078,0.205c0.027,0.074,0.053,0.143,0.076,0.205
		c0.023,0.061,0.036,0.102,0.036,0.123c0.007,0.232,0.012,0.428,0.015,0.585c0.004,0.157,0.01,0.318,0.016,0.482
		c0.008,0.164,0.014,0.297,0.021,0.399v0.052v0.041c-0.014,0.02-0.024,0.041-0.031,0.061c-0.014,0.041-0.021,0.068-0.021,0.082
		c-0.014,0.014-0.029,0.051-0.046,0.108c-0.018,0.058-0.025,0.091-0.025,0.097c-0.008,0.021-0.014,0.084-0.021,0.191
		c-0.006,0.106-0.014,0.219-0.02,0.338c-0.008,0.12-0.014,0.233-0.021,0.339c-0.006,0.105-0.01,0.172-0.01,0.199
		c0,0.021-0.012,0.059-0.035,0.113c-0.025,0.055-0.04,0.089-0.047,0.103c-0.021,0.123-0.034,0.23-0.041,0.323
		c-0.007,0.092-0.014,0.183-0.021,0.272c-0.007,0.089-0.011,0.178-0.011,0.267s0,0.191,0,0.308v0.533
		c0.014,0.034,0.039,0.096,0.078,0.185c0.037,0.089,0.063,0.147,0.076,0.175c0.048,0.116,0.125,0.2,0.23,0.252
		c0.105,0.051,0.227,0.089,0.359,0.112c0.134,0.024,0.269,0.043,0.405,0.057s0.263,0.036,0.38,0.066
		c0.116,0.031,0.212,0.084,0.287,0.159s0.113,0.185,0.113,0.328c0,0.109-0.054,0.239-0.16,0.39c-0.105,0.15-0.233,0.294-0.385,0.432
		c-0.15,0.137-0.307,0.253-0.471,0.349s-0.305,0.144-0.422,0.144h-0.194c-0.014,0-0.054-0.013-0.118-0.036s-0.101-0.035-0.107-0.035
		c-0.021-0.008-0.064-0.014-0.133-0.021c-0.068-0.006-0.145-0.012-0.227-0.015c-0.082-0.004-0.157-0.009-0.226-0.016
		s-0.112-0.014-0.134-0.021c-0.109-0.041-0.225-0.121-0.349-0.241c-0.123-0.119-0.245-0.242-0.364-0.365s-0.236-0.233-0.348-0.333
		C178.402,24.031,178.302,23.981,178.213,23.981z M176.028,22.463c0,0.144,0.049,0.255,0.148,0.333
		c0.099,0.079,0.217,0.139,0.354,0.18s0.281,0.071,0.432,0.088c0.15,0.018,0.273,0.04,0.369,0.067h0.01
		c0.137,0,0.281-0.043,0.432-0.13c0.15-0.085,0.256-0.176,0.317-0.271c0.021-0.034,0.048-0.082,0.082-0.144s0.066-0.123,0.098-0.185
		c0.03-0.062,0.058-0.116,0.082-0.164c0.023-0.048,0.036-0.078,0.036-0.092v-1.354l-0.063-0.145c-0.014,0-0.043-0.001-0.087-0.005
		c-0.044-0.003-0.077-0.005-0.097-0.005c-0.186,0-0.355,0.046-0.514,0.139c-0.157,0.092-0.311,0.193-0.461,0.303
		c-0.035,0.02-0.082,0.053-0.145,0.097c-0.061,0.045-0.121,0.091-0.18,0.139c-0.058,0.049-0.109,0.092-0.153,0.129
		c-0.045,0.038-0.07,0.057-0.077,0.057c-0.007,0.007-0.023,0.027-0.051,0.062s-0.057,0.073-0.088,0.118
		c-0.03,0.045-0.06,0.09-0.087,0.139c-0.027,0.047-0.052,0.085-0.071,0.112c-0.014,0.014-0.026,0.038-0.036,0.071
		c-0.011,0.035-0.016,0.059-0.016,0.072c-0.014,0.007-0.032,0.023-0.057,0.051s-0.048,0.057-0.071,0.088
		c-0.024,0.03-0.047,0.062-0.066,0.092c-0.021,0.031-0.035,0.053-0.041,0.066V22.463z"/>
</g>
</svg>
