<?xml version="1.0" encoding="utf-8"?>
<!-- Generator: Adobe Illustrator 16.0.0, SVG Export Plug-In . SVG Version: 6.00 Build 0)  -->
<!DOCTYPE svg PUBLIC "-//W3C//DTD SVG 1.1//EN" "http://www.w3.org/Graphics/SVG/1.1/DTD/svg11.dtd">
<svg version="1.1" id="图层_1" xmlns="http://www.w3.org/2000/svg" xmlns:xlink="http://www.w3.org/1999/xlink" x="0px" y="0px"
	 width="258px" height="36px" viewBox="0 0 258 36" enable-background="new 0 0 258 36" xml:space="preserve">
<g>
	<path fill="#545454" d="M13.315,10.008h4.172v12.296c0,0.752-0.107,1.414-0.322,1.985c-0.215,0.571-0.511,1.055-0.887,1.451
		s-0.82,0.702-1.33,0.917c-0.511,0.215-1.055,0.33-1.633,0.343v-0.806c0.487-0.027,0.936-0.136,1.348-0.323
		c0.413-0.188,0.768-0.449,1.064-0.786c0.298-0.337,0.531-0.742,0.7-1.22c0.169-0.476,0.253-1.018,0.253-1.622v-11.43h-3.366V10.008
		z"/>
	<path fill="#545454" d="M18.919,20.328c0-0.537,0.104-1.048,0.313-1.532c0.208-0.483,0.49-0.903,0.847-1.26
		c0.356-0.355,0.772-0.638,1.25-0.846c0.477-0.209,0.991-0.313,1.542-0.313c0.551,0,1.068,0.104,1.552,0.313
		c0.484,0.208,0.908,0.49,1.271,0.846c0.363,0.356,0.648,0.776,0.856,1.26c0.208,0.484,0.312,0.995,0.312,1.532
		c0,0.551-0.104,1.064-0.312,1.543c-0.208,0.476-0.494,0.89-0.856,1.239s-0.786,0.628-1.271,0.836
		c-0.483,0.208-1.001,0.313-1.552,0.313c-0.551,0-1.065-0.104-1.542-0.313s-0.894-0.486-1.25-0.836
		c-0.356-0.35-0.639-0.764-0.847-1.239C19.023,21.393,18.919,20.879,18.919,20.328z M19.726,20.328c0,0.433,0.081,0.839,0.242,1.218
		c0.162,0.378,0.384,0.709,0.667,0.994c0.283,0.283,0.613,0.506,0.991,0.669c0.377,0.162,0.782,0.244,1.213,0.244
		c0.432,0,0.839-0.082,1.223-0.244c0.384-0.163,0.718-0.386,1.001-0.669c0.283-0.285,0.506-0.616,0.667-0.994
		c0.162-0.379,0.243-0.785,0.243-1.218c0-0.434-0.081-0.838-0.243-1.217s-0.384-0.711-0.667-0.994
		c-0.283-0.284-0.617-0.512-1.001-0.68c-0.384-0.169-0.792-0.254-1.223-0.254c-0.431,0-0.836,0.085-1.213,0.254
		c-0.377,0.168-0.708,0.396-0.991,0.68c-0.283,0.283-0.506,0.615-0.667,0.994S19.726,19.895,19.726,20.328z"/>
	<path fill="#545454" d="M29.42,22.041v1.043c0.242,0.178,0.507,0.286,0.796,0.328c0.289,0.041,0.574,0.061,0.856,0.061
		c0.121,0,0.269-0.023,0.444-0.072c0.174-0.047,0.342-0.129,0.503-0.244c0.162-0.116,0.303-0.263,0.423-0.439
		c0.121-0.178,0.182-0.396,0.182-0.654c0-0.354-0.089-0.627-0.265-0.817c-0.177-0.191-0.404-0.346-0.683-0.461
		c-0.278-0.116-0.581-0.217-0.907-0.305c-0.326-0.086-0.628-0.203-0.906-0.351c-0.278-0.146-0.513-0.341-0.703-0.581
		c-0.19-0.241-0.285-0.583-0.285-1.023c0-0.349,0.067-0.652,0.202-0.913c0.134-0.261,0.305-0.478,0.514-0.652
		c0.208-0.173,0.443-0.304,0.706-0.391s0.514-0.131,0.755-0.131c0.054,0,0.165,0.008,0.333,0.021
		c0.167,0.013,0.359,0.043,0.575,0.09c0.214,0.047,0.426,0.118,0.634,0.212c0.208,0.094,0.386,0.221,0.534,0.382v1.492h-0.806
		v-1.083c-0.094-0.083-0.209-0.144-0.343-0.185c-0.135-0.041-0.266-0.071-0.394-0.092c-0.128-0.021-0.242-0.031-0.342-0.031
		c-0.101,0-0.171,0-0.212,0c-0.161,0-0.322,0.024-0.484,0.071c-0.161,0.048-0.309,0.122-0.443,0.223
		c-0.134,0.103-0.238,0.23-0.313,0.387c-0.074,0.155-0.11,0.349-0.11,0.579c0,0.298,0.095,0.532,0.285,0.701
		c0.19,0.169,0.425,0.312,0.703,0.427s0.578,0.223,0.896,0.323c0.319,0.101,0.618,0.232,0.896,0.394
		c0.279,0.161,0.51,0.369,0.693,0.624c0.183,0.256,0.275,0.599,0.275,1.028c0,0.229-0.044,0.474-0.131,0.736
		c-0.088,0.262-0.226,0.508-0.414,0.735c-0.188,0.229-0.44,0.42-0.756,0.574s-0.695,0.232-1.139,0.232
		c-0.134,0-0.305-0.011-0.514-0.03s-0.427-0.058-0.655-0.111c-0.229-0.053-0.451-0.128-0.665-0.222
		c-0.215-0.094-0.396-0.221-0.545-0.383v-1.492H29.42z"/>
	<path fill="#545454" d="M42.18,19.22c-1.048,0.416-2.089,0.83-3.124,1.239c-1.035,0.411-2.076,0.823-3.125,1.239
		c0.229,0.518,0.591,0.938,1.088,1.265c0.498,0.327,1.062,0.49,1.693,0.49c0.416,0,0.806-0.077,1.169-0.228
		c0.363-0.151,0.679-0.365,0.948-0.641c0.094,0.108,0.181,0.212,0.262,0.313c0.081,0.101,0.168,0.204,0.262,0.313
		c-0.35,0.322-0.746,0.578-1.189,0.766c-0.443,0.188-0.927,0.282-1.451,0.282c-0.551,0-1.065-0.104-1.542-0.313
		c-0.477-0.208-0.894-0.486-1.25-0.836c-0.356-0.35-0.638-0.764-0.846-1.239c-0.208-0.479-0.313-0.992-0.313-1.543
		c0-0.537,0.104-1.048,0.313-1.532c0.208-0.483,0.49-0.899,0.846-1.25c0.356-0.349,0.773-0.628,1.25-0.836
		c0.477-0.208,0.991-0.313,1.542-0.313c0.403,0,0.786,0.07,1.149,0.212s0.695,0.337,0.998,0.584
		c0.302,0.249,0.568,0.545,0.796,0.887C41.884,18.423,42.059,18.804,42.18,19.22z M38.713,17.204c-0.497,0-0.951,0.104-1.36,0.311
		c-0.41,0.207-0.756,0.481-1.038,0.822c-0.282,0.341-0.481,0.735-0.595,1.183c-0.115,0.447-0.125,0.906-0.03,1.373
		c0.9-0.362,1.8-0.722,2.701-1.078c0.9-0.356,1.807-0.717,2.721-1.078c-0.229-0.452-0.558-0.819-0.988-1.104
		S39.223,17.204,38.713,17.204z"/>
	<path fill="#545454" d="M43.651,23.312h1.23v-5.946h-1.23v-0.807h1.23v-2.882c0-0.739,0.107-1.397,0.322-1.977
		c0.215-0.577,0.51-1.061,0.887-1.451c0.376-0.39,0.82-0.688,1.331-0.896c0.51-0.209,1.055-0.326,1.632-0.354v0.806
		c-0.459,0.015-0.896,0.108-1.308,0.282c-0.413,0.175-0.771,0.431-1.075,0.768c-0.304,0.335-0.543,0.738-0.719,1.209
		s-0.264,1.001-0.264,1.592v2.902h2.54v0.807h-2.54v5.946h1.834v0.806h-3.871V23.312z"/>
	<path fill="#545454" d="M49.758,23.312h1.552v-5.946h-1.552v-0.807h2.358v6.753h1.492v0.806h-3.85V23.312z M51.048,13.878
		c0-0.188,0.067-0.346,0.202-0.474c0.134-0.127,0.289-0.19,0.463-0.19c0.162,0,0.309,0.063,0.443,0.19
		c0.135,0.128,0.202,0.285,0.202,0.474s-0.067,0.346-0.202,0.474c-0.134,0.127-0.282,0.191-0.443,0.191
		c-0.175,0-0.329-0.064-0.463-0.191C51.116,14.224,51.048,14.066,51.048,13.878z"/>
	<path fill="#545454" d="M60.784,23.312h1.572v-4.449c-0.027-0.432-0.188-0.809-0.479-1.133c-0.293-0.323-0.725-0.499-1.296-0.525
		c-0.408,0-0.803,0.07-1.184,0.212c-0.381,0.142-0.717,0.334-1.01,0.576c-0.292,0.243-0.524,0.533-0.694,0.87
		s-0.255,0.708-0.255,1.112v3.337h1.492v0.806h-3.87v-0.806h1.572v-5.946H55.18v-0.807h2.118l0.02,0.706
		c0.013,0.229,0.026,0.437,0.04,0.624c0.013,0.188,0.02,0.397,0.02,0.625c0.27-0.631,0.705-1.143,1.305-1.532
		c0.6-0.389,1.278-0.584,2.033-0.584c0.742,0,1.328,0.209,1.76,0.625c0.432,0.417,0.661,0.96,0.688,1.633v4.656h1.471v0.806h-3.85
		V23.312z"/>
	<path fill="#545454" d="M72.112,22.585V20.45h0.807v1.813c0.378,0.337,0.838,0.622,1.379,0.856c0.54,0.236,1.182,0.354,1.926,0.354
		c0.445,0,0.882-0.07,1.308-0.212s0.801-0.342,1.125-0.604c0.325-0.263,0.585-0.581,0.781-0.958c0.196-0.375,0.294-0.806,0.294-1.29
		c0-0.59-0.101-1.074-0.304-1.451c-0.203-0.375-0.466-0.685-0.791-0.927c-0.324-0.242-0.696-0.437-1.115-0.585
		c-0.419-0.146-0.848-0.285-1.287-0.413c-0.439-0.128-0.872-0.265-1.297-0.412c-0.426-0.148-0.811-0.344-1.155-0.585
		c-0.345-0.242-0.625-0.548-0.841-0.917c-0.216-0.369-0.338-0.844-0.365-1.421c-0.026-0.444,0.027-0.891,0.162-1.341
		s0.349-0.854,0.645-1.21c0.295-0.355,0.678-0.647,1.149-0.876c0.47-0.229,1.042-0.344,1.713-0.344c0.228,0,0.477,0.014,0.746,0.041
		c0.269,0.026,0.544,0.073,0.827,0.142c0.282,0.067,0.564,0.167,0.847,0.302s0.551,0.309,0.806,0.524v2.177h-0.806v-1.773
		c-0.257-0.161-0.593-0.303-1.005-0.424c-0.414-0.121-0.897-0.182-1.453-0.182c-0.474,0-0.887,0.077-1.239,0.232
		c-0.352,0.153-0.646,0.361-0.883,0.624c-0.237,0.263-0.414,0.564-0.528,0.907c-0.115,0.343-0.172,0.695-0.172,1.059
		c0,0.483,0.101,0.88,0.304,1.189c0.203,0.31,0.47,0.564,0.801,0.766c0.331,0.202,0.71,0.37,1.135,0.504
		c0.426,0.135,0.861,0.27,1.308,0.402c0.446,0.136,0.881,0.293,1.307,0.475c0.426,0.182,0.808,0.416,1.146,0.705
		c0.337,0.289,0.611,0.656,0.821,1.099c0.209,0.444,0.321,1.001,0.334,1.674c0,0.591-0.111,1.129-0.333,1.612
		s-0.524,0.896-0.907,1.239c-0.383,0.343-0.836,0.604-1.36,0.785c-0.524,0.182-1.076,0.273-1.653,0.273
		c-0.524,0-1.007-0.054-1.451-0.162c-0.443-0.107-0.843-0.244-1.199-0.413c-0.356-0.168-0.662-0.353-0.917-0.554
		C72.461,22.949,72.259,22.761,72.112,22.585z"/>
	<path fill="#545454" d="M81.726,23.312h1.492V9.806h-1.431V9h2.237v14.312h1.573v0.806h-3.871V23.312z"/>
	<path fill="#545454" d="M87.027,20.328c0-0.537,0.104-1.044,0.311-1.522c0.208-0.477,0.488-0.893,0.842-1.249
		c0.354-0.355,0.772-0.639,1.253-0.847s0.996-0.313,1.543-0.313c0.388,0,0.755,0.058,1.102,0.172
		c0.348,0.114,0.662,0.263,0.942,0.443s0.518,0.39,0.712,0.625c0.193,0.234,0.337,0.467,0.431,0.695c0-0.296,0.01-0.592,0.032-0.888
		c0.021-0.295,0.039-0.591,0.053-0.887h0.721v6.753h1.492v0.806h-2.298v-0.806c0-0.161,0.003-0.319,0.01-0.474
		c0.006-0.154,0.01-0.306,0.01-0.453c-0.094,0.229-0.238,0.456-0.431,0.685s-0.427,0.431-0.701,0.604
		c-0.274,0.175-0.588,0.316-0.942,0.424s-0.731,0.161-1.132,0.161c-0.548,0-1.063-0.104-1.543-0.313s-0.899-0.486-1.253-0.836
		c-0.354-0.35-0.634-0.764-0.842-1.239C87.131,21.393,87.027,20.879,87.027,20.328z M87.834,20.338c0,0.433,0.081,0.837,0.242,1.214
		c0.162,0.377,0.379,0.707,0.655,0.99c0.276,0.283,0.605,0.506,0.988,0.667c0.383,0.163,0.796,0.244,1.239,0.244
		s0.853-0.081,1.229-0.244c0.376-0.161,0.706-0.384,0.988-0.667c0.282-0.283,0.504-0.613,0.666-0.99
		c0.161-0.377,0.242-0.781,0.242-1.214c0-0.432-0.081-0.839-0.242-1.223c-0.162-0.385-0.383-0.719-0.666-1.001
		c-0.282-0.283-0.611-0.506-0.988-0.668c-0.376-0.161-0.786-0.242-1.229-0.242s-0.856,0.081-1.239,0.242
		c-0.383,0.162-0.712,0.385-0.988,0.668c-0.275,0.282-0.493,0.616-0.655,1.001C87.915,19.499,87.834,19.906,87.834,20.338z"/>
	<path fill="#545454" d="M97.872,23.312h1.492V9.806h-1.411V9h2.217v8.324c-0.014,0.162-0.027,0.326-0.04,0.494
		c-0.014,0.168-0.027,0.333-0.041,0.494c0.094-0.242,0.24-0.477,0.436-0.706c0.196-0.228,0.436-0.433,0.719-0.613
		c0.284-0.183,0.602-0.326,0.953-0.435c0.351-0.107,0.723-0.161,1.115-0.161c0.554,0,1.074,0.104,1.561,0.313
		c0.487,0.208,0.909,0.491,1.268,0.847c0.358,0.356,0.642,0.772,0.851,1.249c0.209,0.479,0.314,0.985,0.314,1.522
		c0,0.551-0.105,1.064-0.314,1.543c-0.209,0.476-0.493,0.89-0.851,1.239c-0.358,0.35-0.78,0.628-1.267,0.836
		c-0.486,0.208-1.006,0.313-1.561,0.313c-0.406,0-0.787-0.054-1.146-0.161c-0.358-0.107-0.676-0.249-0.952-0.424
		c-0.277-0.174-0.514-0.376-0.709-0.604c-0.196-0.229-0.341-0.456-0.436-0.685c0,0.147,0.003,0.299,0.01,0.453
		s0.01,0.313,0.01,0.474v0.806h-2.217V23.312z M106.499,20.338c0-0.432-0.082-0.839-0.245-1.223
		c-0.164-0.385-0.385-0.719-0.664-1.001c-0.279-0.283-0.613-0.506-1-0.668c-0.388-0.161-0.806-0.242-1.256-0.242
		c-0.449,0-0.864,0.081-1.245,0.242c-0.381,0.162-0.714,0.385-1,0.668c-0.286,0.282-0.511,0.616-0.674,1.001
		c-0.164,0.384-0.245,0.791-0.245,1.223c0,0.433,0.082,0.837,0.245,1.214c0.163,0.377,0.388,0.707,0.674,0.99s0.62,0.506,1,0.667
		c0.381,0.163,0.796,0.244,1.245,0.244c0.45,0,0.868-0.081,1.256-0.244c0.388-0.161,0.722-0.384,1-0.667s0.5-0.613,0.664-0.99
		C106.417,21.175,106.499,20.771,106.499,20.338z"/>
</g>
</svg>
