<?xml version="1.0" encoding="utf-8"?>
<!-- Generator: Adobe Illustrator 16.0.0, SVG Export Plug-In . SVG Version: 6.00 Build 0)  -->
<!DOCTYPE svg PUBLIC "-//W3C//DTD SVG 1.1//EN" "http://www.w3.org/Graphics/SVG/1.1/DTD/svg11.dtd">
<svg version="1.1" id="图层_1" xmlns="http://www.w3.org/2000/svg" xmlns:xlink="http://www.w3.org/1999/xlink" x="0px" y="0px"
	 width="258px" height="36px" viewBox="0 0 258 36" enable-background="new 0 0 258 36" xml:space="preserve">
<g>
	<path fill="#545454" d="M16.38,21.371V8.738h0.955v11.997c0,1.778-0.372,3.197-1.114,4.258c-0.372,0.544-0.75,0.998-1.134,1.363
		c-0.385,0.364-0.856,0.746-1.413,1.144l-0.418-0.616C15.339,25.357,16.38,23.521,16.38,21.371z"/>
	<path fill="#545454" d="M31.541,21.631c-0.876,1.021-2.208,1.532-4,1.532c-1.791,0-3.124-0.511-3.999-1.532
		s-1.313-2.434-1.313-4.238v-7.341h0.915v7.341c0,3.304,1.466,4.954,4.397,4.954s4.397-1.65,4.397-4.954v-7.341h0.915v7.341
		C32.854,19.197,32.416,20.609,31.541,21.631z"/>
	<path fill="#545454" d="M37.509,22.964V10.052h0.915v12.076h5.929v0.836H37.509z"/>
	<path fill="#545454" d="M47.06,22.964V10.052h0.915v12.912H47.06z"/>
	<path fill="#545454" d="M61.941,21.631c-0.876,1.021-2.208,1.532-4,1.532c-1.791,0-3.124-0.511-3.999-1.532
		s-1.313-2.434-1.313-4.238v-7.341h0.915v7.341c0,3.304,1.466,4.954,4.397,4.954s4.397-1.65,4.397-4.954v-7.341h0.915v7.341
		C63.254,19.197,62.816,20.609,61.941,21.631z"/>
	<path fill="#545454" d="M70.516,10.608c-0.716,0-1.3,0.173-1.751,0.518s-0.676,0.829-0.676,1.452c0,0.717,0.298,1.36,0.895,1.93
		c0.425,0.411,0.971,0.846,1.642,1.303c0.669,0.458,1.131,0.787,1.383,0.985c0.251,0.199,0.557,0.472,0.915,0.815
		c0.649,0.65,0.975,1.4,0.975,2.248c0,1.102-0.368,1.934-1.104,2.497s-1.764,0.846-3.084,0.846c-1.319,0-2.424-0.345-3.313-1.034
		l0.478-0.696c0.901,0.61,1.856,0.916,2.865,0.916c1.008,0,1.793-0.213,2.357-0.637c0.563-0.426,0.846-1.021,0.846-1.791
		c0-0.664-0.286-1.273-0.855-1.83c-0.398-0.398-0.932-0.829-1.602-1.294c-0.67-0.464-1.137-0.799-1.402-1.005
		c-0.265-0.205-0.577-0.48-0.935-0.825c-0.676-0.677-1.015-1.46-1.015-2.348c0-0.889,0.314-1.585,0.945-2.09
		c0.629-0.503,1.502-0.756,2.616-0.756s2.115,0.22,3.004,0.656l-0.338,0.736C72.539,10.808,71.59,10.608,70.516,10.608z"/>
	<path fill="#545454" d="M91.107,9.991c-0.969-0.41-1.93-0.616-2.885-0.616c-1.937,0-2.905,0.717-2.905,2.148
		c0,0.624,0.219,1.204,0.656,1.741c0.438,0.537,0.968,1.015,1.592,1.433s1.247,0.846,1.871,1.283
		c0.623,0.438,1.154,0.961,1.591,1.572c0.438,0.61,0.657,1.272,0.657,1.988c0,1.208-0.405,2.119-1.214,2.736
		s-1.927,0.925-3.353,0.925c-1.425,0-2.643-0.364-3.651-1.095l0.478-0.716c0.955,0.624,2.002,0.936,3.144,0.936
		c1.14,0,2.016-0.229,2.626-0.687s0.915-1.116,0.915-1.979c0-0.598-0.219-1.164-0.656-1.703c-0.438-0.536-0.968-1.021-1.592-1.451
		s-1.247-0.873-1.87-1.323s-1.154-0.988-1.592-1.611c-0.438-0.623-0.656-1.293-0.656-2.01c0-0.941,0.348-1.688,1.044-2.238
		c0.696-0.55,1.638-0.825,2.825-0.825c1.187,0,2.291,0.238,3.313,0.716L91.107,9.991z"/>
	<path fill="#545454" d="M96.24,18.486l-1.85,4.478h-0.935l5.412-12.992h0.537l5.452,12.992h-1.015l-1.87-4.478H96.24z
		 M99.085,11.444c-0.199,0.598-0.378,1.094-0.537,1.492l-1.99,4.774h5.093l-1.969-4.755C99.377,12.214,99.178,11.71,99.085,11.444z"
		/>
	<path fill="#545454" d="M107.48,22.964V9.972h0.438l8.476,9.749c0.305,0.346,0.586,0.687,0.845,1.025
		c0.259,0.338,0.395,0.514,0.408,0.526c-0.027-0.318-0.04-0.94-0.04-1.87v-9.351h0.915v12.991h-0.438l-8.634-9.907l-1.095-1.333
		c0.026,0.265,0.04,0.889,0.04,1.869v9.292H107.48z"/>
	<path fill="#545454" d="M125.904,10.608c-0.717,0-1.3,0.173-1.751,0.518s-0.677,0.829-0.677,1.452c0,0.717,0.299,1.36,0.896,1.93
		c0.425,0.411,0.972,0.846,1.642,1.303c0.67,0.458,1.131,0.787,1.383,0.985c0.252,0.199,0.557,0.472,0.915,0.815
		c0.649,0.65,0.976,1.4,0.976,2.248c0,1.102-0.369,1.934-1.105,2.497c-0.735,0.563-1.764,0.846-3.083,0.846
		s-2.425-0.345-3.313-1.034l0.479-0.696c0.902,0.61,1.856,0.916,2.865,0.916c1.008,0,1.793-0.213,2.357-0.637
		c0.563-0.426,0.846-1.021,0.846-1.791c0-0.664-0.285-1.273-0.855-1.83c-0.398-0.398-0.933-0.829-1.602-1.294
		c-0.67-0.464-1.138-0.799-1.403-1.005c-0.265-0.205-0.577-0.48-0.935-0.825c-0.677-0.677-1.015-1.46-1.015-2.348
		c0-0.889,0.314-1.585,0.944-2.09c0.631-0.503,1.502-0.756,2.617-0.756c1.113,0,2.115,0.22,3.004,0.656l-0.338,0.736
		C127.926,10.808,126.978,10.608,125.904,10.608z"/>
	<path fill="#545454" d="M141.492,21.073c-1.32-1.419-1.98-3.163-1.98-5.232s0.66-3.811,1.98-5.222
		c1.318-1.413,2.986-2.119,5.004-2.119c2.016,0,3.686,0.706,5.014,2.119c1.326,1.411,1.988,3.152,1.988,5.222
		s-0.662,3.813-1.988,5.232c-1.328,1.42-2.998,2.129-5.014,2.129C144.479,23.202,142.811,22.493,141.492,21.073z M142.197,11.235
		c-1.1,1.24-1.65,2.775-1.65,4.605c0,1.831,0.553,3.369,1.66,4.616c1.107,1.246,2.541,1.87,4.299,1.87
		c1.756,0,3.189-0.624,4.297-1.87c1.107-1.247,1.662-2.785,1.662-4.616c0-1.83-0.555-3.365-1.662-4.605s-2.543-1.86-4.307-1.86
		C144.73,9.375,143.299,9.995,142.197,11.235z"/>
	<path fill="#545454" d="M157.676,22.964V9.972h0.438l8.477,9.749c0.305,0.346,0.586,0.687,0.846,1.025
		c0.258,0.338,0.395,0.514,0.408,0.526c-0.027-0.318-0.041-0.94-0.041-1.87v-9.351h0.916v12.991h-0.438l-8.635-9.907l-1.094-1.333
		c0.025,0.265,0.039,0.889,0.039,1.869v9.292H157.676z"/>
	<path fill="#545454" d="M173.494,22.964V10.052h6.027v0.796h-5.113v4.695h4.615v0.775h-4.615v5.81h5.313v0.836H173.494z"/>
</g>
</svg>
