<?xml version="1.0" encoding="utf-8"?>
<!-- Generator: Adobe Illustrator 16.0.0, SVG Export Plug-In . SVG Version: 6.00 Build 0)  -->
<!DOCTYPE svg PUBLIC "-//W3C//DTD SVG 1.1//EN" "http://www.w3.org/Graphics/SVG/1.1/DTD/svg11.dtd">
<svg version="1.1" id="图层_1" xmlns="http://www.w3.org/2000/svg" xmlns:xlink="http://www.w3.org/1999/xlink" x="0px" y="0px"
	 width="258px" height="36px" viewBox="0 0 258 36" enable-background="new 0 0 258 36" xml:space="preserve">
<g>
	<path fill="#545454" d="M15.321,23.758c-0.466-0.11-0.853-0.304-1.159-0.58c-0.307-0.275-0.588-0.622-0.846-1.039
		c0.11-0.232,0.242-0.539,0.396-0.92c0.153-0.38,0.34-0.849,0.561-1.407c0.221-0.558,0.484-1.226,0.791-2.005
		c0.307-0.778,0.662-1.688,1.067-2.731c0.257-0.662,0.469-1.22,0.635-1.674c0.166-0.453,0.306-0.898,0.423-1.334
		s0.23-0.916,0.34-1.443s0.239-1.196,0.387-2.006c0.515,0.099,0.984,0.325,1.407,0.682c0.423,0.355,0.788,0.784,1.094,1.287
		c-0.135,0.172-0.292,0.432-0.469,0.782c-0.178,0.349-0.377,0.77-0.598,1.26s-0.466,1.037-0.736,1.637
		c-0.27,0.601-0.552,1.239-0.846,1.913c-0.663,1.472-1.184,2.817-1.563,4.038C15.824,21.438,15.529,22.617,15.321,23.758z
		 M18.099,16.437c0.76-1.129,1.511-2.168,2.253-3.118s1.45-1.769,2.125-2.455c0.674-0.688,1.293-1.221,1.857-1.601
		c0.564-0.381,1.055-0.57,1.472-0.57c0.159,0,0.334,0.062,0.524,0.184c0.19,0.123,0.368,0.282,0.533,0.479s0.304,0.407,0.414,0.635
		s0.166,0.444,0.166,0.652c-0.76,0.245-1.505,0.568-2.235,0.966c-0.73,0.398-1.429,0.858-2.097,1.38s-1.306,1.101-1.913,1.738
		s-1.156,1.319-1.646,2.042c0.196,0.503,0.438,1.039,0.727,1.609c0.288,0.571,0.604,1.123,0.947,1.655
		c0.343,0.534,0.711,1.027,1.104,1.481s0.791,0.815,1.196,1.085c-0.062,0.136-0.166,0.264-0.313,0.387
		c-0.147,0.122-0.307,0.236-0.478,0.34c-0.172,0.104-0.353,0.188-0.543,0.249c-0.19,0.061-0.365,0.092-0.524,0.092
		c-0.319,0-0.613-0.15-0.883-0.451s-0.542-0.754-0.818-1.361c-0.276-0.606-0.564-1.36-0.864-2.263
		C18.801,18.689,18.467,17.638,18.099,16.437z"/>
	<path fill="#545454" d="M31.196,14.836c0.123,0,0.267,0.022,0.432,0.064c0.166,0.043,0.315,0.099,0.451,0.165
		c0.135,0.068,0.249,0.138,0.34,0.212c0.092,0.073,0.138,0.141,0.138,0.202c-0.245,0.516-0.472,1.034-0.68,1.555
		c-0.209,0.521-0.386,1.021-0.534,1.5c-0.147,0.478-0.261,0.925-0.34,1.342c-0.08,0.417-0.12,0.779-0.12,1.086
		c0,0.344,0.037,0.628,0.11,0.854c0.074,0.229,0.196,0.39,0.368,0.488c-0.147,0.099-0.337,0.178-0.571,0.239
		c-0.233,0.061-0.441,0.092-0.625,0.092c-0.662,0-0.993-0.453-0.993-1.361c0-0.698,0.232-1.656,0.699-2.87
		c-0.246,0.563-0.527,1.09-0.846,1.585c-0.319,0.494-0.644,0.931-0.975,1.31s-0.666,0.687-1.002,0.926
		c-0.337,0.236-0.646,0.38-0.929,0.43c-0.454,0-0.822-0.207-1.104-0.619c-0.283-0.412-0.423-0.939-0.423-1.579
		c0-0.689,0.147-1.417,0.441-2.18s0.671-1.472,1.131-2.124s0.959-1.198,1.499-1.636s1.061-0.655,1.564-0.655
		c0.122,0.037,0.26,0.11,0.414,0.22c0.153,0.11,0.301,0.239,0.442,0.386c0.141,0.146,0.26,0.296,0.358,0.449
		c0.098,0.153,0.153,0.285,0.166,0.395c-0.491,0.073-0.997,0.313-1.518,0.716c-0.521,0.404-0.993,0.891-1.416,1.46
		c-0.424,0.568-0.77,1.177-1.04,1.825c-0.27,0.648-0.405,1.254-0.405,1.816c0,0.233,0.086,0.38,0.257,0.44
		c0.356-0.073,0.766-0.377,1.232-0.91c0.466-0.533,1.03-1.358,1.693-2.475c0.122-0.221,0.26-0.466,0.414-0.735
		s0.31-0.552,0.469-0.846c0.159-0.295,0.315-0.593,0.469-0.893S31.061,15.118,31.196,14.836z"/>
	<path fill="#545454" d="M38.425,21.863c-0.233-0.196-0.39-0.441-0.469-0.736c-0.08-0.294-0.12-0.545-0.12-0.754
		c0-0.258,0.031-0.479,0.092-0.662c-0.049,0-0.16,0.099-0.331,0.293c-0.172,0.196-0.359,0.428-0.562,0.697
		c-0.202,0.269-0.402,0.531-0.598,0.788c-0.196,0.257-0.344,0.446-0.441,0.569c-0.16,0.171-0.31,0.305-0.451,0.402
		c-0.141,0.098-0.255,0.153-0.34,0.165c-0.196,0-0.402-0.034-0.616-0.102c-0.215-0.067-0.417-0.163-0.607-0.286
		c-0.19-0.124-0.356-0.271-0.497-0.445c-0.141-0.173-0.236-0.37-0.285-0.592c0-0.343,0.009-0.625,0.027-0.846
		c0.018-0.221,0.058-0.461,0.12-0.718c0.11-0.467,0.272-0.993,0.487-1.582c0.214-0.59,0.462-1.169,0.745-1.739
		c0.282-0.569,0.598-1.104,0.947-1.6c0.35-0.497,0.72-0.886,1.113-1.168c0.11,0,0.239,0.009,0.386,0.027s0.297,0.053,0.451,0.102
		s0.3,0.106,0.441,0.174c0.141,0.068,0.261,0.157,0.359,0.268c-0.11,0.122-0.39,0.532-0.837,1.231
		c-0.448,0.7-0.947,1.705-1.499,3.018c-0.062,0.135-0.135,0.331-0.221,0.588c-0.086,0.258-0.172,0.528-0.257,0.81
		c-0.086,0.282-0.157,0.559-0.212,0.828c-0.055,0.271-0.083,0.485-0.083,0.645c0,0.098,0.015,0.172,0.046,0.221
		c0.03,0.048,0.058,0.085,0.083,0.109c0.184-0.073,0.417-0.275,0.699-0.606c0.282-0.331,0.674-0.841,1.177-1.527
		c0.123-0.171,0.267-0.368,0.433-0.589s0.334-0.456,0.506-0.708c0.172-0.251,0.334-0.512,0.488-0.782
		c0.153-0.27,0.278-0.539,0.377-0.809c0.048-0.147,0.113-0.322,0.193-0.524c0.08-0.202,0.177-0.413,0.294-0.634
		c0.117-0.222,0.251-0.445,0.405-0.672c0.153-0.227,0.334-0.438,0.543-0.635c0.159,0,0.331,0.018,0.515,0.055
		c0.184,0.037,0.359,0.083,0.524,0.139c0.166,0.055,0.31,0.116,0.432,0.184c0.123,0.068,0.215,0.138,0.276,0.212
		c-0.221,0.54-0.466,1.072-0.736,1.601c-0.27,0.526-0.521,1.045-0.754,1.554c-0.233,0.509-0.43,1.015-0.588,1.518
		c-0.16,0.503-0.239,0.993-0.239,1.472c0,0.258,0.021,0.481,0.064,0.672s0.089,0.35,0.138,0.478
		c0.049,0.129,0.095,0.236,0.138,0.322s0.064,0.159,0.064,0.221c0,0.013-0.012,0.03-0.037,0.056
		c-0.012,0.012-0.025,0.019-0.037,0.019c-0.086,0-0.196-0.019-0.331-0.056c-0.135-0.037-0.285-0.089-0.451-0.156
		c-0.166-0.068-0.331-0.145-0.497-0.23S38.572,21.962,38.425,21.863z"/>
	<path fill="#545454" d="M48.855,14.919c-0.013,0.233-0.053,0.476-0.12,0.727c-0.068,0.252-0.15,0.479-0.249,0.681
		s-0.203,0.371-0.313,0.506s-0.214,0.202-0.313,0.202c-0.135-0.012-0.215-0.104-0.239-0.275c0-0.037,0.016-0.095,0.046-0.176
		c0.03-0.079,0.064-0.168,0.101-0.267c0.037-0.098,0.07-0.195,0.101-0.294c0.03-0.098,0.046-0.185,0.046-0.258
		c0-0.171-0.04-0.315-0.119-0.432c-0.08-0.116-0.188-0.175-0.322-0.175c-0.491,0-0.864,0.306-1.122,0.915
		c-0.258,0.61-0.387,1.508-0.387,2.691c0,0.122,0.006,0.195,0.019,0.22c0.258,0,0.488,0,0.69,0s0.402,0,0.598,0
		c0.012,0.024,0.018,0.073,0.018,0.146c0,0.109-0.024,0.189-0.073,0.238c-0.282,0.061-0.506,0.112-0.672,0.155
		s-0.291,0.082-0.377,0.119c-0.086,0.036-0.138,0.076-0.156,0.118c-0.019,0.043-0.028,0.102-0.028,0.174
		c0,0.099,0.003,0.196,0.009,0.294s0.009,0.219,0.009,0.365c0,1.025-0.279,1.851-0.837,2.475c-0.559,0.624-1.334,0.985-2.327,1.084
		c-0.172-0.013-0.349-0.062-0.533-0.147s-0.359-0.195-0.524-0.331c-0.166-0.135-0.31-0.285-0.433-0.45
		c-0.123-0.166-0.208-0.335-0.257-0.506c0-0.47,0.098-0.918,0.294-1.344c0.196-0.427,0.463-0.804,0.8-1.131
		c0.337-0.328,0.735-0.594,1.196-0.798c0.46-0.203,0.959-0.306,1.499-0.306c0-0.309-0.031-0.609-0.092-0.905
		c-0.062-0.295-0.126-0.582-0.193-0.859c-0.067-0.276-0.132-0.548-0.193-0.813c-0.062-0.264-0.092-0.525-0.092-0.785
		c0-0.332,0.067-0.661,0.202-0.988c0.135-0.325,0.313-0.627,0.533-0.904s0.478-0.515,0.772-0.711
		c0.294-0.198,0.601-0.333,0.92-0.407c0.135,0.036,0.315,0.145,0.542,0.322c0.227,0.177,0.451,0.376,0.671,0.597
		s0.417,0.445,0.589,0.672C48.714,14.585,48.819,14.771,48.855,14.919z M42.785,23.307c0.294-0.122,0.573-0.3,0.837-0.533
		c0.263-0.232,0.493-0.496,0.69-0.791c0.196-0.294,0.352-0.607,0.469-0.938c0.116-0.331,0.175-0.656,0.175-0.976
		c-0.246,0.037-0.515,0.15-0.81,0.341s-0.57,0.417-0.828,0.681c-0.258,0.264-0.472,0.536-0.644,0.818s-0.257,0.527-0.257,0.735
		C42.417,22.914,42.54,23.135,42.785,23.307z"/>
	<path fill="#545454" d="M48.855,21.955c0-0.429,0.043-0.936,0.129-1.518c0.085-0.582,0.211-1.205,0.376-1.867
		c0.166-0.662,0.362-1.354,0.589-2.078c0.227-0.724,0.481-1.447,0.763-2.172c0.245-0.648,0.53-1.306,0.855-1.968
		c0.325-0.662,0.678-1.312,1.058-1.949c0.38-0.638,0.775-1.245,1.186-1.821C54.223,8.005,54.637,7.479,55.054,7
		c0.196,0,0.408,0.024,0.635,0.073c0.227,0.049,0.448,0.113,0.663,0.192c0.214,0.081,0.411,0.176,0.588,0.286
		s0.322,0.221,0.432,0.331c-0.919,0.944-1.747,1.897-2.483,2.86c-0.735,0.963-1.318,1.867-1.747,2.714
		c-0.233,0.466-0.445,0.9-0.635,1.305c-0.19,0.405-0.365,0.807-0.524,1.206c-0.16,0.398-0.304,0.797-0.432,1.195
		c-0.129,0.399-0.248,0.819-0.358,1.261c2.354-3.006,4.102-4.508,5.242-4.508c0.319,0,0.662,0.104,1.03,0.313
		c0.368,0.208,0.693,0.49,0.975,0.846c-0.38,0.417-0.772,0.92-1.178,1.508c-0.405,0.589-0.775,1.181-1.113,1.775
		c-0.337,0.596-0.613,1.147-0.828,1.656c-0.215,0.509-0.322,0.886-0.322,1.131c0,0.123,0.019,0.205,0.055,0.249
		c0.037,0.043,0.117,0.064,0.24,0.064c0.184,0,0.331-0.025,0.441-0.074s0.177-0.073,0.202-0.073c0.061,0.099,0.098,0.165,0.11,0.202
		c0.012,0.036,0.019,0.067,0.019,0.092c0,0.049-0.074,0.12-0.221,0.211c-0.147,0.093-0.322,0.185-0.524,0.276
		s-0.402,0.175-0.598,0.249c-0.196,0.073-0.343,0.109-0.441,0.109c-0.123,0-0.245-0.034-0.368-0.101
		c-0.123-0.067-0.23-0.156-0.322-0.267c-0.092-0.11-0.166-0.232-0.221-0.368c-0.055-0.135-0.083-0.276-0.083-0.423
		c0-0.185,0.052-0.457,0.156-0.819c0.104-0.36,0.249-0.784,0.433-1.269c0.184-0.484,0.404-1.015,0.662-1.592
		c0.257-0.576,0.533-1.164,0.828-1.766c0-0.049-0.025-0.073-0.074-0.073c-0.037,0-0.132,0.05-0.285,0.146
		c-0.154,0.099-0.298,0.197-0.433,0.295c-0.441,0.331-0.886,0.739-1.333,1.223c-0.448,0.485-0.883,1.016-1.306,1.592
		s-0.822,1.187-1.196,1.83c-0.374,0.645-0.696,1.291-0.966,1.941c-0.037,0.085-0.092,0.165-0.166,0.238
		c-0.073,0.073-0.135,0.11-0.184,0.11c-0.037,0-0.089-0.043-0.157-0.128c-0.067-0.087-0.129-0.193-0.184-0.323
		c-0.055-0.128-0.107-0.26-0.156-0.395C48.879,22.169,48.855,22.053,48.855,21.955z"/>
	<path fill="#545454" d="M64.73,14.836c0.122,0,0.266,0.022,0.432,0.064c0.166,0.043,0.315,0.099,0.451,0.165
		c0.135,0.068,0.248,0.138,0.34,0.212c0.092,0.073,0.139,0.141,0.139,0.202c-0.246,0.516-0.473,1.034-0.682,1.555
		c-0.209,0.521-0.386,1.021-0.533,1.5c-0.146,0.478-0.261,0.925-0.34,1.342c-0.08,0.417-0.12,0.779-0.12,1.086
		c0,0.344,0.036,0.628,0.11,0.854c0.074,0.229,0.196,0.39,0.368,0.488c-0.147,0.099-0.337,0.178-0.57,0.239
		c-0.233,0.061-0.441,0.092-0.626,0.092c-0.662,0-0.993-0.453-0.993-1.361c0-0.698,0.233-1.656,0.699-2.87
		c-0.245,0.563-0.527,1.09-0.846,1.585c-0.319,0.494-0.645,0.931-0.976,1.31s-0.665,0.687-1.002,0.926
		c-0.337,0.236-0.646,0.38-0.929,0.43c-0.454,0-0.822-0.207-1.104-0.619c-0.282-0.412-0.423-0.939-0.423-1.579
		c0-0.689,0.147-1.417,0.441-2.18c0.294-0.763,0.672-1.472,1.131-2.124c0.46-0.652,0.959-1.198,1.5-1.636
		c0.539-0.438,1.061-0.655,1.563-0.655c0.123,0.037,0.261,0.11,0.414,0.22c0.154,0.11,0.301,0.239,0.442,0.386
		c0.141,0.146,0.26,0.296,0.358,0.449s0.153,0.285,0.165,0.395c-0.49,0.073-0.996,0.313-1.517,0.716
		c-0.521,0.404-0.993,0.891-1.416,1.46c-0.423,0.568-0.77,1.177-1.04,1.825s-0.405,1.254-0.405,1.816c0,0.233,0.086,0.38,0.257,0.44
		c0.356-0.073,0.767-0.377,1.232-0.91s1.03-1.358,1.693-2.475c0.122-0.221,0.26-0.466,0.414-0.735s0.31-0.552,0.469-0.846
		c0.16-0.295,0.316-0.593,0.47-0.893S64.595,15.118,64.73,14.836z"/>
	<path fill="#545454" d="M70.009,13.347c0.319,0.098,0.62,0.315,0.901,0.652c0.282,0.337,0.49,0.708,0.626,1.113
		c-0.136,0.331-0.344,0.729-0.626,1.195c-0.281,0.467-0.564,0.941-0.846,1.426c-0.283,0.484-0.537,0.944-0.764,1.38
		s-0.358,0.793-0.396,1.076c0.196-0.209,0.413-0.451,0.653-0.727c0.238-0.276,0.472-0.552,0.699-0.828
		c0.227-0.276,0.438-0.527,0.634-0.755c0.196-0.227,0.351-0.395,0.46-0.505c0.232-0.246,0.509-0.53,0.828-0.855
		c0.318-0.325,0.652-0.632,1.002-0.92s0.703-0.534,1.059-0.735c0.355-0.203,0.68-0.304,0.975-0.304c0.318,0,0.586,0.106,0.801,0.321
		c0.214,0.215,0.383,0.438,0.506,0.672c0,0.024-0.047,0.058-0.139,0.101c-0.092,0.044-0.224,0.162-0.395,0.359
		c-0.173,0.221-0.366,0.524-0.58,0.91c-0.215,0.387-0.424,0.804-0.625,1.251c-0.203,0.448-0.371,0.904-0.506,1.37
		c-0.136,0.466-0.203,0.89-0.203,1.27c0,0.307,0.04,0.503,0.119,0.589c0.08,0.086,0.193,0.129,0.341,0.129
		c0.135,0,0.276-0.031,0.423-0.093c0.147-0.061,0.264-0.092,0.35-0.092c0.049,0.025,0.089,0.077,0.119,0.157
		c0.031,0.079,0.047,0.149,0.047,0.211c-0.099,0.086-0.215,0.172-0.35,0.258c-0.135,0.085-0.276,0.165-0.424,0.238
		c-0.146,0.074-0.291,0.136-0.432,0.185c-0.142,0.049-0.267,0.074-0.377,0.074c-0.355,0-0.647-0.054-0.874-0.157
		c-0.228-0.104-0.405-0.241-0.533-0.413c-0.129-0.173-0.218-0.378-0.267-0.616c-0.05-0.239-0.074-0.494-0.074-0.764
		c0-0.147,0.012-0.313,0.037-0.497c0.024-0.185,0.073-0.401,0.146-0.653c0.074-0.251,0.178-0.552,0.313-0.901
		c0.134-0.349,0.307-0.77,0.515-1.26c-0.024,0-0.189,0.086-0.496,0.257c-0.307,0.172-0.639,0.436-0.994,0.792
		c-0.576,0.552-1.094,1.098-1.554,1.637c-0.46,0.54-0.929,1.141-1.407,1.803c-0.271,0.381-0.506,0.702-0.709,0.966
		c-0.201,0.264-0.377,0.438-0.523,0.524c-0.258-0.147-0.448-0.353-0.57-0.616c-0.123-0.265-0.215-0.536-0.275-0.818
		c0-0.232,0.033-0.527,0.101-0.883c0.067-0.356,0.159-0.751,0.276-1.187c0.115-0.436,0.26-0.893,0.432-1.37
		c0.172-0.479,0.361-0.958,0.57-1.436c0.467-1.079,0.893-1.925,1.278-2.538S69.91,13.396,70.009,13.347z"/>
	<path fill="#545454" d="M93.408,9.869c0.036,0.209,0.064,0.354,0.082,0.433c0.019,0.08,0.027,0.187,0.027,0.322
		c0,0.404-0.088,0.781-0.267,1.131c-0.178,0.35-0.42,0.598-0.726,0.745c-0.246-0.331-0.547-0.616-0.902-0.855
		s-0.745-0.435-1.168-0.589c-0.423-0.153-0.861-0.267-1.315-0.341c-0.454-0.073-0.896-0.11-1.324-0.11s-0.831,0.034-1.204,0.103
		c-0.375,0.067-0.706,0.158-0.994,0.275s-0.516,0.261-0.681,0.433s-0.249,0.368-0.249,0.589c0.037,0.269,0.203,0.542,0.497,0.818
		c0.295,0.275,0.656,0.546,1.086,0.809c0.429,0.264,0.903,0.524,1.425,0.782s1.033,0.503,1.537,0.735
		c0.625,0.295,1.164,0.567,1.618,0.819c0.454,0.251,0.827,0.526,1.122,0.828c0.295,0.3,0.516,0.641,0.662,1.021
		c0.147,0.38,0.221,0.84,0.221,1.38c0,0.625-0.104,1.211-0.313,1.756c-0.209,0.547-0.512,1.021-0.91,1.426
		c-0.398,0.405-0.881,0.721-1.444,0.947c-0.564,0.228-1.196,0.341-1.895,0.341c-0.687,0-1.429-0.104-2.226-0.313
		c-0.798-0.209-1.543-0.495-2.236-0.855c-0.692-0.362-1.269-0.778-1.729-1.251c-0.46-0.472-0.689-0.972-0.689-1.499
		c0-0.246,0.07-0.559,0.211-0.938c0.142-0.38,0.396-0.778,0.764-1.196c0.037,0.369,0.236,0.804,0.598,1.307s0.904,0.969,1.629,1.398
		c0.674,0.393,1.369,0.678,2.088,0.855c0.717,0.177,1.389,0.266,2.014,0.266c0.687,0,1.244-0.085,1.674-0.257
		s0.766-0.378,1.012-0.616c0.245-0.239,0.417-0.481,0.516-0.728c0.098-0.244,0.152-0.441,0.165-0.588
		c-0.013-0.245-0.126-0.481-0.34-0.709c-0.215-0.227-0.503-0.447-0.865-0.662c-0.362-0.214-0.781-0.432-1.26-0.652
		s-0.976-0.441-1.489-0.662c-0.773-0.343-1.438-0.665-1.996-0.966c-0.559-0.3-1.019-0.607-1.38-0.92
		c-0.362-0.313-0.626-0.641-0.792-0.984c-0.165-0.343-0.248-0.735-0.248-1.177c0-0.688,0.209-1.337,0.626-1.95
		s1.018-1.079,1.803-1.398c0.392-0.171,0.812-0.294,1.26-0.367c0.448-0.074,0.886-0.11,1.315-0.11c0.809,0,1.601,0.11,2.373,0.331
		S92.635,9.526,93.408,9.869z"/>
	<path fill="#545454" d="M94.181,19.03c0-0.699,0.144-1.377,0.433-2.033c0.287-0.655,0.668-1.238,1.14-1.747s1.012-0.92,1.619-1.232
		c0.606-0.313,1.235-0.469,1.886-0.469c0.637,0,1.128,0.159,1.472,0.478c0.343,0.319,0.515,0.772,0.515,1.362
		c0,0.281-0.04,0.554-0.119,0.817c-0.08,0.265-0.185,0.501-0.313,0.708c-0.129,0.209-0.279,0.378-0.451,0.507
		c-0.172,0.128-0.344,0.192-0.516,0.192c-0.146,0-0.297-0.045-0.45-0.138c-0.153-0.092-0.279-0.211-0.377-0.358
		c0.821-0.748,1.231-1.429,1.231-2.042c0-0.355-0.141-0.534-0.422-0.534c-0.246,0-0.553,0.117-0.92,0.351
		c-0.368,0.232-0.724,0.539-1.067,0.919c-0.527,0.589-0.929,1.242-1.205,1.959c-0.275,0.718-0.413,1.469-0.413,2.254
		c0,0.994,0.221,1.588,0.662,1.784c0.184-0.024,0.398-0.08,0.644-0.165c0.245-0.086,0.509-0.199,0.791-0.341
		c0.282-0.141,0.573-0.304,0.874-0.487s0.591-0.38,0.873-0.589c0.049,0.037,0.092,0.093,0.129,0.166s0.055,0.142,0.055,0.202
		c-0.207,0.258-0.447,0.509-0.717,0.754c-0.27,0.246-0.552,0.469-0.846,0.672c-0.295,0.202-0.58,0.374-0.855,0.515
		s-0.519,0.23-0.727,0.268c-0.404-0.037-0.785-0.164-1.141-0.378s-0.666-0.493-0.929-0.837c-0.265-0.343-0.473-0.735-0.626-1.177
		S94.181,19.508,94.181,19.03z"/>
	<path fill="#545454" d="M101.354,21.9c0.062-0.356,0.168-0.825,0.321-1.407c0.153-0.583,0.334-1.202,0.543-1.858
		s0.43-1.315,0.662-1.978c0.233-0.662,0.46-1.257,0.682-1.785c0.158-0.379,0.3-0.677,0.422-0.892
		c0.123-0.214,0.258-0.396,0.405-0.543c0.171,0.025,0.35,0.068,0.533,0.13c0.185,0.062,0.362,0.135,0.534,0.221
		c0.172,0.085,0.324,0.174,0.459,0.266c0.135,0.093,0.24,0.182,0.313,0.267c-0.331,0.394-0.623,0.841-0.874,1.344
		c-0.252,0.503-0.506,1.146-0.764,1.932c0.662-0.589,1.248-1.152,1.757-1.692s0.983-1.142,1.425-1.804
		c0.074-0.061,0.203-0.091,0.387-0.091c0.172,0,0.338,0.027,0.497,0.082c0.159,0.056,0.27,0.133,0.331,0.229
		c-0.221,0.589-0.331,1.172-0.331,1.748c0,0.54,0.079,0.944,0.239,1.214c-0.012,0.073-0.096,0.215-0.248,0.424
		c-0.154,0.208-0.322,0.404-0.506,0.588c-0.332-0.171-0.626-0.407-0.883-0.708c-0.258-0.3-0.448-0.628-0.57-0.983
		c-0.577,0.404-1.067,0.8-1.473,1.187c-0.404,0.386-0.75,0.814-1.039,1.287c-0.288,0.473-0.533,1.015-0.735,1.628
		s-0.396,1.343-0.579,2.188c-0.111-0.012-0.242-0.052-0.396-0.119c-0.152-0.067-0.307-0.149-0.459-0.248
		c-0.154-0.099-0.292-0.202-0.414-0.313C101.471,22.102,101.391,21.998,101.354,21.9z"/>
	<path fill="#545454" d="M109.228,21.035c0-0.11,0.009-0.248,0.027-0.414c0.019-0.165,0.052-0.386,0.102-0.662
		c0.049-0.275,0.113-0.61,0.192-1.003c0.08-0.392,0.182-0.863,0.305-1.416c0.023-0.123,0.079-0.318,0.165-0.589
		c0.085-0.27,0.199-0.555,0.341-0.855c0.141-0.3,0.313-0.591,0.515-0.873s0.444-0.49,0.727-0.626
		c0.208,0.049,0.483,0.175,0.827,0.378c0.344,0.201,0.639,0.48,0.884,0.836c-0.282,0.319-0.519,0.639-0.708,0.957
		c-0.191,0.318-0.362,0.649-0.516,0.994c-0.153,0.343-0.295,0.698-0.424,1.066c-0.128,0.368-0.272,0.754-0.432,1.159
		c-0.135,0.343-0.258,0.695-0.368,1.058c-0.11,0.361-0.171,0.677-0.184,0.946c0,0.221-0.003,0.378-0.009,0.47
		c-0.007,0.092-0.04,0.138-0.102,0.138c-0.049,0-0.147-0.03-0.295-0.092c-0.146-0.062-0.297-0.156-0.449-0.285
		c-0.154-0.129-0.293-0.291-0.414-0.487C109.289,21.538,109.228,21.306,109.228,21.035z M112.74,13.052
		c0-0.074,0.02-0.185,0.056-0.331c-0.062-0.062-0.113-0.153-0.156-0.275c-0.043-0.123-0.064-0.233-0.064-0.332
		c0-0.109,0.016-0.261,0.046-0.45c0.031-0.19,0.07-0.396,0.119-0.616c0.05-0.221,0.111-0.451,0.185-0.69
		c0.073-0.238,0.147-0.456,0.221-0.652c0.147,0,0.328,0.039,0.542,0.12c0.215,0.079,0.434,0.184,0.654,0.312
		c0.221,0.13,0.422,0.271,0.606,0.424s0.325,0.297,0.423,0.432c-0.135,0.136-0.313,0.322-0.533,0.562
		c-0.221,0.238-0.436,0.49-0.644,0.754c-0.209,0.264-0.399,0.512-0.57,0.745c-0.172,0.233-0.282,0.399-0.331,0.497
		c-0.147-0.024-0.276-0.09-0.387-0.193S112.74,13.149,112.74,13.052z"/>
	<path fill="#545454" d="M112.207,28.356c-0.172-0.05-0.27-0.233-0.294-0.552c-0.05-0.16-0.083-0.35-0.101-0.57
		c-0.019-0.221-0.028-0.473-0.028-0.755c0-0.257,0.043-0.609,0.129-1.057c0.085-0.448,0.206-0.954,0.358-1.518
		c0.154-0.564,0.341-1.175,0.562-1.831s0.466-1.32,0.735-1.995c0.332-0.847,0.619-1.579,0.865-2.199
		c0.244-0.618,0.451-1.155,0.616-1.608c0.165-0.455,0.3-0.828,0.404-1.123c0.104-0.294,0.187-0.545,0.249-0.754
		c0.049-0.147,0.122-0.324,0.221-0.533c0.098-0.209,0.211-0.42,0.34-0.635s0.26-0.416,0.396-0.607
		c0.135-0.189,0.257-0.333,0.368-0.432c0.43,0.062,0.834,0.172,1.214,0.331s0.612,0.313,0.698,0.459
		c-0.172,0.16-0.367,0.408-0.588,0.745c-0.221,0.338-0.436,0.706-0.644,1.104c-0.209,0.398-0.399,0.806-0.571,1.224
		c-0.172,0.416-0.301,0.784-0.386,1.104c0.122-0.209,0.282-0.436,0.479-0.682c0.196-0.244,0.497-0.581,0.901-1.011
		c0.453-0.466,0.88-0.824,1.278-1.076c0.398-0.251,0.745-0.377,1.04-0.377c0.465,0,0.849,0.128,1.148,0.386
		c0.301,0.257,0.451,0.588,0.451,0.994c0,0.883-0.147,1.756-0.441,2.621c-0.295,0.864-0.717,1.646-1.27,2.346
		c-0.209,0.269-0.453,0.526-0.736,0.771c-0.281,0.246-0.576,0.463-0.883,0.653s-0.606,0.341-0.9,0.45
		c-0.295,0.111-0.559,0.166-0.791,0.166c-0.221,0-0.414-0.046-0.58-0.139c-0.166-0.091-0.279-0.205-0.34-0.34
		c0.479-0.281,0.943-0.674,1.397-1.177s0.874-1.083,1.261-1.738c0.387-0.656,0.723-1.365,1.012-2.125
		c0.287-0.76,0.506-1.533,0.652-2.317c-0.466,0.245-0.886,0.512-1.26,0.8s-0.744,0.665-1.113,1.132
		c-0.441,0.539-0.791,0.974-1.048,1.306c-0.258,0.331-0.47,0.613-0.635,0.847c-0.165,0.232-0.3,0.45-0.405,0.652
		c-0.104,0.203-0.217,0.451-0.34,0.745c-0.172,0.393-0.371,0.91-0.598,1.554c-0.227,0.645-0.46,1.365-0.699,2.162
		c-0.238,0.797-0.479,1.646-0.717,2.548c-0.24,0.901-0.469,1.8-0.689,2.694c-0.136-0.024-0.252-0.122-0.351-0.294
		c-0.098-0.11-0.169-0.19-0.212-0.239C112.32,28.417,112.269,28.381,112.207,28.356z"/>
	<path fill="#545454" d="M123.686,15.223c-0.062-0.074-0.117-0.23-0.166-0.469c-0.049-0.24-0.073-0.445-0.073-0.617
		c0.319,0.05,0.626,0.074,0.921,0.074c0.293,0,0.563,0,0.809,0c0.184-0.364,0.383-0.725,0.598-1.083
		c0.215-0.357,0.424-0.684,0.625-0.981c0.203-0.297,0.393-0.549,0.57-0.755s0.316-0.34,0.414-0.4c0.123,0,0.279,0.021,0.47,0.064
		c0.19,0.044,0.383,0.099,0.579,0.166s0.374,0.138,0.533,0.211c0.16,0.074,0.27,0.147,0.332,0.221
		c-0.368,0.463-0.685,0.893-0.947,1.288c-0.265,0.396-0.55,0.85-0.855,1.361c0.244,0,0.493,0,0.744,0
		c0.252,0,0.506-0.019,0.764-0.056c0.062,0.062,0.11,0.139,0.147,0.23c0.036,0.092,0.056,0.188,0.056,0.284
		c-0.602,0.234-1.332,0.351-2.189,0.351c-0.307,0.59-0.58,1.177-0.818,1.761c-0.24,0.585-0.441,1.146-0.607,1.688
		c-0.166,0.54-0.295,1.051-0.387,1.53s-0.138,0.91-0.138,1.291c0,0.54,0.202,0.842,0.606,0.903c0.368-0.049,0.718-0.141,1.049-0.276
		c0.332-0.135,0.626-0.306,0.883-0.515c0.074,0.11,0.117,0.202,0.129,0.275c-0.073,0.11-0.199,0.238-0.377,0.385
		c-0.178,0.146-0.371,0.289-0.579,0.429c-0.209,0.14-0.411,0.259-0.607,0.356c-0.196,0.097-0.343,0.152-0.441,0.164
		c-0.307,0-0.613-0.061-0.919-0.185c-0.307-0.122-0.586-0.275-0.838-0.46s-0.457-0.39-0.616-0.616
		c-0.159-0.228-0.239-0.452-0.239-0.673c0-0.295,0.04-0.666,0.12-1.114c0.079-0.447,0.192-0.936,0.34-1.464
		c0.147-0.527,0.319-1.08,0.515-1.658c0.197-0.576,0.412-1.147,0.645-1.712H123.686z"/>
</g>
</svg>
