<?xml version="1.0" encoding="utf-8"?>
<!-- Generator: Adobe Illustrator 16.0.0, SVG Export Plug-In . SVG Version: 6.00 Build 0)  -->
<!DOCTYPE svg PUBLIC "-//W3C//DTD SVG 1.1//EN" "http://www.w3.org/Graphics/SVG/1.1/DTD/svg11.dtd">
<svg version="1.1" id="图层_1" xmlns="http://www.w3.org/2000/svg" xmlns:xlink="http://www.w3.org/1999/xlink" x="0px" y="0px"
	 width="258px" height="36px" viewBox="0 0 258 36" enable-background="new 0 0 258 36" xml:space="preserve">
<g>
	<path fill="#545454" d="M23.841,22.076v1.403h-2.353l-5.181-7.698v6.295h1.341v1.403h-4.334v-1.403h1.3V9.403h-1.3V8h4.334v1.403
		h-1.424v5.759L21.489,8h2.229v1.403h-1.383l-4.293,6.027l4.479,6.646H23.841z"/>
	<path fill="#545454" d="M25.492,15.183c0-1.362,0.709-2.044,2.126-2.044h3.488c0.674,0,1.163,0.132,1.465,0.393
		c0.302,0.262,0.454,0.743,0.454,1.444v1.92l-5.882,3.715v1.466h4.252v-1.198h1.63v1.095c0,0.412-0.127,0.768-0.381,1.063
		c-0.255,0.296-0.678,0.443-1.269,0.443h-4.231c-0.592,0-1.015-0.147-1.27-0.443s-0.382-0.651-0.382-1.063V15.183z M27.144,18.938
		l4.231-2.662v-1.713h-4.231V18.938z"/>
	<path fill="#545454" d="M38.082,22.076h1.341v1.403h-4.334v-1.403h1.3V9.403h-1.3V8h2.993V22.076z"/>
	<path fill="#545454" d="M44.48,22.076h1.341v1.403h-4.334v-1.403h1.3V9.403h-1.3V8h2.993V22.076z"/>
	<path fill="#545454" d="M56.451,13.16v13.064c0,0.577-0.142,1.019-0.423,1.32C55.746,27.849,55.254,28,54.552,28h-4.768v-2.808
		h1.403v1.384h3.57v-5.429l-3.632,2.249c-0.316,0.192-0.633,0.289-0.95,0.289c-0.316,0-0.591-0.106-0.825-0.319
		C49.117,23.153,49,22.813,49,22.345v-7.781h-1.321V13.16h2.993v8.895l4.107-2.579v-4.912h-1.011V13.16H56.451z"/>
	<path fill="#545454" d="M72.714,15.904c0.275,0.193,0.533,0.361,0.774,0.506c0.24,0.146,0.451,0.299,0.629,0.464
		c0.358,0.331,0.537,0.737,0.537,1.219v3.509c0,0.618-0.22,1.094-0.66,1.424c-0.372,0.303-0.86,0.454-1.466,0.454h-6.584v-3.818
		h1.486v2.415h5.572v-4.025l-5.407-3.322c-0.482-0.275-0.877-0.561-1.187-0.856s-0.464-0.699-0.464-1.208v-2.601
		c0-0.812,0.193-1.368,0.578-1.672C66.853,8.131,67.423,8,68.235,8h6.233v3.818h-1.486V9.403h-5.387v3.303L72.714,15.904z"/>
	<path fill="#545454" d="M79.917,22.076h1.341v1.403h-4.334v-1.403h1.3V9.403h-1.3V8h2.993V22.076z"/>
	<path fill="#545454" d="M91.641,22.076v1.403h-7.183c-0.702,0-1.177-0.138-1.424-0.413c-0.22-0.247-0.33-0.716-0.33-1.403v-0.764
		c0-0.495,0.062-0.832,0.186-1.012c0.179-0.261,0.585-0.584,1.218-0.969l4.54-2.828v-1.527h-4.045v1.197h-1.321V13.16h5.16
		c0.702,0,1.193,0.151,1.476,0.454c0.282,0.302,0.423,0.742,0.423,1.321v7.141H91.641z M88.647,17.742l-4.292,2.684v1.65h4.292
		V17.742z"/>
	<path fill="#545454" d="M99.793,13.242c0.302-0.191,0.657-0.289,1.063-0.289s0.75,0.152,1.032,0.454
		c0.282,0.304,0.423,0.743,0.423,1.321v6.935c0,0.564-0.09,0.964-0.268,1.197c-0.331,0.413-0.833,0.619-1.507,0.619h-7.245v-1.403
		h1.3V9.403h-1.3V8h2.993v7.451L99.793,13.242z M100.66,14.356l-4.375,2.746v4.974h4.375V14.356z"/>
</g>
</svg>
