<?xml version="1.0" encoding="utf-8"?>
<!-- Generator: Adobe Illustrator 16.0.0, SVG Export Plug-In . SVG Version: 6.00 Build 0)  -->
<!DOCTYPE svg PUBLIC "-//W3C//DTD SVG 1.1//EN" "http://www.w3.org/Graphics/SVG/1.1/DTD/svg11.dtd">
<svg version="1.1" id="图层_1" xmlns="http://www.w3.org/2000/svg" xmlns:xlink="http://www.w3.org/1999/xlink" x="0px" y="0px"
	 width="258px" height="36px" viewBox="0 0 258 36" enable-background="new 0 0 258 36" xml:space="preserve">
<g>
	<path fill="#545454" d="M17.355,10.818c0.26-0.629,0.629-0.855,1.108-0.678C18.6,9.84,18.72,9.648,18.823,9.566
		c0.103-0.084,0.208-0.146,0.318-0.195c0.109-0.049,0.226-0.1,0.349-0.154s0.315-0.104,0.575-0.145s0.547-0.064,0.862-0.07
		c0.314-0.008,0.633,0.01,0.955,0.051c0.321,0.041,0.591,0.131,0.811,0.266c0.533,0.316,0.649,0.822,0.349,1.52
		c0.027-0.014,0.021,0-0.021,0.041l-0.185,0.35l-0.144,0.184c-0.069,0.07-0.281,0.486-0.637,1.252
		c-0.287,0.547-0.582,1.088-0.882,1.621c-0.492,0.918-0.793,1.506-0.902,1.766c0.479-0.26,1.032-0.637,1.662-1.129
		c1.19-0.916,1.95-1.465,2.278-1.641c0.328-0.18,0.557-0.289,0.688-0.33c0.13-0.041,0.256-0.051,0.38-0.031
		c0.123,0.021,0.253,0.059,0.39,0.113l0.513,0.207c0.328,0.109,0.505,0.504,0.533,1.189c0.013,0.67-0.123,1.176-0.41,1.518
		c-1.245,1.615-2.647,2.695-4.207,3.242c-0.479,0.178-0.971,0.328-1.477,0.451c0.725,0.082,1.416,0.563,2.073,1.438
		c0.533,0.711,0.919,1.443,1.159,2.195c0.24,0.752,0.428,1.311,0.564,1.672c0.137,0.363,0.195,0.643,0.175,0.842
		c-0.021,0.197-0.137,0.35-0.349,0.451c-0.212,0.104-0.571,0.201-1.077,0.297c-0.233,0.041-0.711-0.232-1.437-0.82
		c-0.315-0.26-0.65-0.543-1.005-0.852c-0.356-0.309-0.711-0.598-1.067-0.871c-0.821-0.645-1.395-0.979-1.723-1.006
		c-0.028,0-0.082-0.014-0.164-0.041l-0.37,0.924c-0.191,0.451-0.386,0.926-0.584,1.426c-0.198,0.498-0.435,0.947-0.708,1.344
		c-0.424,0.287-0.917,0.402-1.478,0.348c-0.643-0.068-1.067-0.328-1.272-0.779c-0.137-0.424,0.089-1.668,0.677-3.734
		c0.396-1.449,0.738-2.721,1.026-3.816c0.288-1.094,0.534-2,0.739-2.719s0.355-1.279,0.451-1.684
		c0.096-0.402,0.191-0.797,0.288-1.18C16.767,12.186,17.041,11.434,17.355,10.818z"/>
	<path fill="#545454" d="M28.969,16.502c0.917-0.369,1.533-0.377,1.848-0.021c0.164,0.191,0.246,0.459,0.246,0.801v0.102
		c0.506-0.588,1.389-1.08,2.646-1.477c1.327-0.41,2.422-0.527,3.283-0.348c1.122,0.232,1.752,0.963,1.889,2.195
		c0.109,1.039-0.131,2.359-0.719,3.961c-0.191,0.41-0.338,0.742-0.441,0.994c-0.102,0.254-0.194,0.482-0.276,0.688
		c-0.179,0.383-0.458,0.842-0.842,1.375c-0.219,0.41-0.558,0.725-1.016,0.943s-0.909,0.346-1.354,0.381
		c-0.444,0.033-0.811-0.035-1.098-0.205c-0.287-0.172-0.369-0.441-0.246-0.813c0.314-0.848,0.574-1.619,0.779-2.318
		c0.205-0.697,0.418-1.293,0.637-1.785c0.205-0.697,0.232-1.135,0.082-1.313c-0.123-0.137-0.336-0.117-0.637,0.061
		c-0.26,0.164-0.444,0.357-0.554,0.574c-0.246,0.178-0.711,0.891-1.396,2.135c-0.191,0.342-0.379,0.682-0.564,1.016
		c-0.184,0.336-0.355,0.646-0.512,0.934c-0.158,0.287-0.295,0.527-0.411,0.719s-0.22,0.318-0.308,0.379
		c-0.09,0.063-0.164,0.104-0.227,0.123c-0.061,0.021-0.111,0.045-0.152,0.072c-0.042,0.027-0.076,0.117-0.104,0.268
		c-0.055,0.314-0.383,0.547-0.984,0.697c-0.973,0.246-1.848,0.205-2.627-0.123c-0.26-0.109-0.464-0.26-0.615-0.451
		c-0.314-0.631,0.226-2.77,1.622-6.424c0.492-1.285,0.813-2.053,0.964-2.299c0.342-0.518,0.564-0.813,0.667-0.881
		S28.791,16.406,28.969,16.502z"/>
	<path fill="#545454" d="M46.083,22.35c-0.26,0.123-0.513,0.219-0.759,0.287c-0.247,0.068-0.534,0.137-0.862,0.207
		c-0.862,0.176-1.484,0.279-1.868,0.307c0.041,0.137,0.247,0.301,0.617,0.492c0.246,0.041,0.516,0.004,0.81-0.113
		c0.294-0.115,0.603-0.227,0.924-0.328c0.321-0.104,0.636-0.16,0.944-0.174c0.307-0.014,0.598,0.104,0.871,0.35
		c0.109,0.246,0.198,0.389,0.268,0.43c0.068,0.041,0.129,0.063,0.184,0.063s0.117,0.02,0.186,0.061s0.167,0.199,0.297,0.473
		c0.131,0.273,0.096,0.533-0.102,0.779c-0.199,0.246-0.504,0.459-0.914,0.637s-0.889,0.32-1.436,0.43
		c-0.548,0.109-1.096,0.186-1.643,0.227c-1.23,0.096-2.168,0-2.811-0.287c-0.931-0.314-1.533-0.938-1.807-1.867
		c-0.355-1.23-0.156-2.668,0.596-4.311c0.342-0.766,0.883-1.586,1.621-2.463c0.643-0.764,1.361-1.318,2.154-1.66
		c0.916-0.396,1.875-0.582,2.873-0.555c1.066,0.027,1.807,0.492,2.217,1.395c0.205,0.48,0.246,1.15,0.123,2.012
		c-0.219,1.121-0.507,1.916-0.863,2.381C47.349,21.57,46.808,21.98,46.083,22.35z M44.893,19.107c-0.725-0.15-1.293,0.26-1.703,1.23
		c-0.123,0.262-0.219,0.535-0.287,0.822c0.465,0.055,0.957-0.205,1.478-0.779c0.191-0.234,0.335-0.469,0.431-0.709
		S44.934,19.244,44.893,19.107z"/>
	<path fill="#545454" d="M58.559,17.896c-0.096,0.795-0.17,1.316-0.225,1.57s-0.096,0.482-0.123,0.688
		c-0.014,0.109,0.016,0.131,0.092,0.061c0.074-0.068,0.178-0.193,0.308-0.379c0.13-0.184,0.277-0.406,0.441-0.666
		s0.321-0.527,0.472-0.801c0.342-0.656,0.54-1.156,0.596-1.498c-0.014-0.055-0.018-0.105-0.011-0.154s-0.007-0.15-0.041-0.307
		c-0.034-0.158-0.024-0.354,0.03-0.586s0.158-0.43,0.309-0.594c0.328-0.357,0.813-0.494,1.457-0.412
		c0.574,0.027,0.964,0.096,1.17,0.205c0.369,0.207,0.711,0.576,1.025,1.109c0.15,0.328,0.062,1.074-0.267,2.236
		c-0.397,1.465-1.04,3.133-1.929,5.008c-0.246,0.492-0.479,0.908-0.697,1.25c-0.22,0.344-0.534,0.631-0.945,0.863
		c-0.41,0.232-0.848,0.396-1.313,0.492c-1.025,0.205-1.895,0.109-2.605-0.287c-0.11-0.096-0.22-0.18-0.329-0.246
		c-0.109-0.068-0.239-0.199-0.39-0.391c-0.479-0.643-0.753-1.539-0.821-2.688c-0.205,0.697-0.451,1.252-0.738,1.662
		c-0.438,0.574-0.972,1.148-1.601,1.723c-0.67,0.396-1.437,0.561-2.299,0.492c-0.287-0.014-0.54-0.074-0.759-0.184
		c-0.192-0.164-0.328-0.305-0.41-0.422c-0.083-0.115-0.124-0.352-0.124-0.707c0-0.629,0.165-1.518,0.493-2.668
		c0.082-0.301,0.181-0.664,0.298-1.088c0.115-0.424,0.229-0.861,0.338-1.313c0.301-1.326,0.469-2.158,0.503-2.494
		c0.034-0.334,0.065-0.564,0.093-0.688c0.123-0.23,0.314-0.41,0.574-0.533s0.53-0.184,0.811-0.184s0.537,0.068,0.77,0.205
		s0.391,0.348,0.473,0.635h0.02v0.021c0.41,0.766,0.616,1.545,0.616,2.34c0.369-0.494,0.694-0.859,0.975-1.098
		c0.28-0.24,0.558-0.414,0.831-0.525c0.41-0.148,0.721-0.238,0.934-0.266c0.212-0.027,0.441-0.064,0.688-0.113
		c0.246-0.047,0.485-0.072,0.719-0.072C58.498,17.123,58.695,17.391,58.559,17.896z"/>
	<path fill="#545454" d="M72.76,16.584l0.082,0.02c0.027,0,0.041,0.008,0.041,0.021c0.355-0.137,0.648-0.035,0.882,0.307
		c0.15,0.234,0.267,0.59,0.349,1.068c0.027,0.656-0.041,1.566-0.205,2.729c-0.314,2.354-0.486,3.756-0.513,4.207
		c0.026,0.479-0.267,0.807-0.882,0.984c-0.534,0.164-1.068,0.158-1.602-0.02c-0.561-0.191-0.793-0.486-0.697-0.883
		c-0.109,0.205-0.219,0.352-0.328,0.441c-0.109,0.088-0.326,0.211-0.646,0.369c-0.322,0.156-0.777,0.287-1.365,0.391
		c-0.588,0.102-1.176,0.129-1.764,0.082c-0.589-0.049-1.126-0.193-1.611-0.432c-0.486-0.24-0.811-0.611-0.975-1.119
		c-0.314-0.984-0.273-2.236,0.123-3.754c0.273-0.998,0.766-1.881,1.478-2.648c0.821-0.875,1.751-1.6,2.79-2.174
		c0.78-0.424,1.533-0.678,2.258-0.76c0.246-0.027,0.461-0.02,0.646,0.021c0.184,0.041,0.383,0.082,0.596,0.123
		c0.211,0.041,0.413,0.102,0.604,0.184C72.514,15.947,72.76,16.229,72.76,16.584z M68.963,22.021
		c0.096-0.191,0.175-0.432,0.236-0.719s0.146-0.602,0.256-0.943c-1.107,0.451-1.956,1.006-2.545,1.662
		c-0.643,0.725-0.602,1.225,0.124,1.498c0.629,0.164,1.087,0.063,1.375-0.307c0.123-0.164,0.232-0.369,0.328-0.617
		c0.095-0.246,0.212-0.5,0.349-0.758C69.045,21.906,69.004,21.967,68.963,22.021z"/>
	<path fill="#545454" d="M78.895,16.275c0.068,0.82,0.13,1.645,0.186,2.473c0.054,0.828,0.136,1.652,0.246,2.473
		c0.246-0.506,0.475-1.039,0.688-1.6c0.211-0.561,0.44-1.115,0.687-1.662c0.589-1.287,1.238-2.23,1.95-2.832
		c0.438-0.479,1.094-0.719,1.969-0.719c0.52,0,0.849,0.164,0.985,0.492c0.069,0.164,0.048,0.385-0.062,0.658
		c0.67,0.479,0.814,1.031,0.432,1.66c-0.109,0.164-0.219,0.316-0.329,0.451c-0.589,0.986-1.128,1.896-1.62,2.73
		c-0.809,1.383-1.533,2.566-2.176,3.551c-0.219,0.328-0.523,0.693-0.913,1.098c-0.39,0.402-0.817,0.748-1.282,1.035
		c-1.096,0.711-1.964,0.842-2.606,0.391c-0.425-0.055-0.821-0.191-1.19-0.41s-0.65-0.508-0.842-0.863
		c-0.287-0.752-0.219-2.475,0.205-5.17c0.097-0.602,0.158-1.053,0.186-1.355c0.027-0.301,0.062-0.574,0.103-0.82
		s0.075-0.479,0.103-0.697s0.055-0.441,0.082-0.666c0.027-0.227,0.09-0.436,0.186-0.627c0.232-0.438,0.656-0.676,1.271-0.717h0.246
		c0.246,0.055,0.479,0.115,0.697,0.184c0.37,0.137,0.616,0.396,0.739,0.779C78.847,16.152,78.867,16.207,78.895,16.275z"/>
	<path fill="#545454" d="M91.965,22.35c-0.26,0.123-0.512,0.219-0.759,0.287s-0.534,0.137-0.862,0.207
		c-0.861,0.176-1.484,0.279-1.867,0.307c0.041,0.137,0.247,0.301,0.616,0.492c0.246,0.041,0.517,0.004,0.81-0.113
		c0.295-0.115,0.603-0.227,0.924-0.328c0.321-0.104,0.637-0.16,0.944-0.174s0.599,0.104,0.872,0.35
		c0.109,0.246,0.197,0.389,0.267,0.43c0.068,0.041,0.13,0.063,0.185,0.063s0.116,0.02,0.185,0.061s0.167,0.199,0.298,0.473
		c0.13,0.273,0.096,0.533-0.103,0.779s-0.503,0.459-0.913,0.637s-0.89,0.32-1.437,0.43c-0.548,0.109-1.095,0.186-1.642,0.227
		c-1.231,0.096-2.168,0-2.811-0.287c-0.932-0.314-1.533-0.938-1.807-1.867c-0.355-1.23-0.156-2.668,0.596-4.311
		c0.342-0.766,0.883-1.586,1.621-2.463c0.643-0.764,1.361-1.318,2.154-1.66c0.916-0.396,1.874-0.582,2.873-0.555
		c1.066,0.027,1.806,0.492,2.216,1.395c0.205,0.48,0.246,1.15,0.123,2.012c-0.219,1.121-0.506,1.916-0.862,2.381
		C93.23,21.57,92.69,21.98,91.965,22.35z M90.775,19.107c-0.726-0.15-1.293,0.26-1.703,1.23c-0.123,0.262-0.219,0.535-0.287,0.822
		c0.465,0.055,0.957-0.205,1.477-0.779c0.191-0.234,0.336-0.469,0.432-0.709S90.816,19.244,90.775,19.107z"/>
</g>
</svg>
