<svg version="1.1" id="图层_1" x="0px" y="0px" width="200px" height="18.797px" viewBox="0 90.601 200 18.797" enable-background="new 0 90.601 200 18.797" xml:space="preserve" xmlns="http://www.w3.org/2000/svg" xmlns:xlink="http://www.w3.org/1999/xlink" xmlns:xml="http://www.w3.org/XML/1998/namespace">
  <g>
    <g>
      <polygon fill="#404040" points="9.884,90.601 12.284,97.687 19.765,97.78 13.77,102.253 15.99,109.398 9.884,105.079
			3.774,109.398 5.996,102.253 0,97.78 7.48,97.687 		" class="color c1"/>
    </g>
    <g>
      <polygon fill="#404040" points="39.923,90.601 42.323,97.687 49.804,97.78 43.809,102.253 46.029,109.398 39.923,105.079
			33.813,109.398 36.035,102.253 30.039,97.78 37.52,97.687 		" class="color c1"/>
    </g>
    <g>
      <polygon fill="#404040" points="69.962,90.601 72.362,97.687 79.843,97.78 73.848,102.253 76.068,109.398 69.962,105.079
			63.853,109.398 66.075,102.253 60.079,97.78 67.56,97.687 		" class="color c1"/>
    </g>
    <g>
      <polygon fill="#404040" points="100.001,90.601 102.4,97.687 109.883,97.78 103.887,102.253 106.107,109.398 100.001,105.079
			93.892,109.398 96.114,102.253 90.118,97.78 97.599,97.687 		" class="color c1"/>
    </g>
    <g>
      <polygon fill="#404040" points="130.04,90.601 132.441,97.687 139.922,97.78 133.926,102.253 136.146,109.398 130.04,105.079
			123.932,109.398 126.152,102.253 120.156,97.78 127.637,97.687 		" class="color c1"/>
    </g>
    <g>
      <polygon fill="#404040" points="160.079,90.601 162.48,97.687 169.961,97.78 163.965,102.253 166.186,109.398 160.079,105.079
			153.971,109.398 156.191,102.253 150.195,97.78 157.677,97.687 		" class="color c1"/>
    </g>
    <g>
      <polygon fill="#404040" points="190.118,90.601 192.52,97.687 200,97.78 194.004,102.253 196.227,109.398 190.118,105.079
			184.01,109.398 186.23,102.253 180.234,97.78 187.716,97.687 		" class="color c1"/>
    </g>
  </g>
</svg>