<svg version="1.1" id="图层_1" x="0px" y="0px" width="199.997px" height="7.556px" viewBox="0 96.222 199.997 7.556" enable-background="new 0 96.222 199.997 7.556" xml:space="preserve" xmlns="http://www.w3.org/2000/svg" xmlns:xlink="http://www.w3.org/1999/xlink" xmlns:xml="http://www.w3.org/XML/1998/namespace">
  <path fill="#404040" d="M194.795,98.175c-4.072-2.604-9.35-2.599-13.438,0.013c-2.662,1.706-6.112,1.701-8.789-0.009
	c-4.075-2.61-9.354-2.609-13.44,0.009c-2.663,1.705-6.114,1.702-8.788-0.007c-4.076-2.611-9.352-2.608-13.438,0.007
	c-2.664,1.705-6.112,1.704-8.787-0.007c-4.079-2.614-9.354-2.611-13.439,0.006c-2.666,1.707-6.115,1.703-8.783-0.006
	c-4.076-2.611-9.353-2.607-13.438,0.006c-2.668,1.703-6.118,1.703-8.783-0.004c-4.075-2.613-9.351-2.61-13.436,0.003
	c-2.666,1.704-6.115,1.703-8.787-0.005c-4.084-2.614-9.356-2.611-13.433,0.004c-2.67,1.703-6.113,1.704-8.777,0.001
	c-4.08-2.616-9.353-2.613-13.437-0.001c-2.668,1.705-6.117,1.703-8.789-0.004c-4.082-2.612-9.352-2.611-13.43,0
	C2.483,98.883,1.253,99.279,0,99.404v4.342c2.064-0.133,4.104-0.775,5.909-1.932c2.663-1.708,6.113-1.708,8.787,0.004
	c4.079,2.613,9.352,2.609,13.432-0.004c2.666-1.708,6.112-1.707,8.778,0.002c4.083,2.613,9.356,2.61,13.438-0.004
	c2.661-1.708,6.108-1.707,8.784,0.006c4.079,2.615,9.349,2.613,13.437-0.004c2.663-1.71,6.11-1.708,8.782,0.004
	c4.075,2.606,9.349,2.606,13.44-0.006c2.665-1.708,6.113-1.705,8.786,0.006c4.073,2.608,9.348,2.606,13.438-0.008
	c2.665-1.706,6.111-1.703,8.785,0.008c4.077,2.613,9.355,2.607,13.438-0.006c2.67-1.706,6.115-1.701,8.793,0.008
	c4.07,2.609,9.346,2.604,13.438-0.01c2.661-1.706,6.111-1.7,8.786,0.01c4.076,2.611,9.354,2.609,13.447-0.01
	c2.66-1.705,6.109-1.703,8.789,0.013c2.269,1.452,4.908,2.079,7.509,1.911V99.41C198.209,99.583,196.37,99.182,194.795,98.175z" class="color c1"/>
</svg>