<svg version="1.1" id="图层_1" x="0px" y="0px" width="200px" height="4.65px" viewBox="0 97.675 200 4.65" enable-background="new 0 97.675 200 4.65" xml:space="preserve" xmlns="http://www.w3.org/2000/svg" xmlns:xlink="http://www.w3.org/1999/xlink" xmlns:xml="http://www.w3.org/XML/1998/namespace">
  <g>
    <ellipse fill="#404040" cx="4.65" cy="100" rx="4.65" ry="2.325" class="color c1"/>
    <ellipse fill="#404040" cx="17.363" cy="100" rx="4.65" ry="2.325" class="color c1"/>
    <ellipse fill="#404040" cx="30.077" cy="100" rx="4.649" ry="2.325" class="color c1"/>
    <ellipse fill="#404040" cx="42.79" cy="100" rx="4.649" ry="2.325" class="color c1"/>
    <ellipse fill="#404040" cx="55.504" cy="100" rx="4.65" ry="2.325" class="color c1"/>
    <ellipse fill="#404040" cx="68.217" cy="100" rx="4.65" ry="2.325" class="color c1"/>
    <ellipse fill="#404040" cx="80.929" cy="100" rx="4.65" ry="2.325" class="color c1"/>
    <ellipse fill="#404040" cx="93.643" cy="100" rx="4.65" ry="2.325" class="color c1"/>
    <ellipse fill="#404040" cx="106.355" cy="100" rx="4.65" ry="2.325" class="color c1"/>
    <ellipse fill="#404040" cx="119.068" cy="100" rx="4.649" ry="2.325" class="color c1"/>
    <ellipse fill="#404040" cx="131.783" cy="100" rx="4.65" ry="2.325" class="color c1"/>
    <ellipse fill="#404040" cx="144.497" cy="100" rx="4.649" ry="2.325" class="color c1"/>
    <ellipse fill="#404040" cx="157.21" cy="100" rx="4.649" ry="2.325" class="color c1"/>
    <ellipse fill="#404040" cx="169.923" cy="100" rx="4.649" ry="2.325" class="color c1"/>
    <ellipse fill="#404040" cx="182.637" cy="100" rx="4.649" ry="2.325" class="color c1"/>
    <ellipse fill="#404040" cx="195.35" cy="100" rx="4.65" ry="2.325" class="color c1"/>
  </g>
</svg>