<?xml version="1.0" encoding="utf-8"?>
<!-- Generator: Adobe Illustrator 16.0.0, SVG Export Plug-In . SVG Version: 6.00 Build 0)  -->
<!DOCTYPE svg PUBLIC "-//W3C//DTD SVG 1.1//EN" "http://www.w3.org/Graphics/SVG/1.1/DTD/svg11.dtd">
<svg version="1.1" id="图层_1" xmlns="http://www.w3.org/2000/svg" xmlns:xlink="http://www.w3.org/1999/xlink" x="0px" y="0px"
	 width="258px" height="36px" viewBox="0 0 258 36" enable-background="new 0 0 258 36" xml:space="preserve">
<g>
	<path fill="#545454" d="M27.574,12.138c0.307,0.377,0.461,0.896,0.461,1.555c0,0.658-0.211,2.434-0.634,5.325
		s-0.633,4.916-0.633,6.074s0.089,1.947,0.269,2.369c-0.844-0.281-1.43-0.658-1.756-1.131s-0.489-1.037-0.489-1.689
		s0.144-2.027,0.432-4.127c0.288-2.098,0.477-3.696,0.566-4.797c-0.525,1.011-1.398,2.443-2.62,4.299
		c-1.222,1.854-1.929,2.936-2.121,3.242c-0.307,0.18-0.627,0.27-0.96,0.27c-0.601,0-0.94-0.109-1.017-0.327
		c-0.141-0.356-0.362-0.93-0.662-1.717c-0.301-0.787-0.547-1.43-0.739-1.929c-0.563-1.407-1.068-2.591-1.516-3.551
		c-0.013,0.09-0.17,1.321-0.47,3.694c-0.301,2.374-0.451,4.265-0.451,5.671c0,0.396,0.026,0.928,0.077,1.594
		c-1.331,0-1.996-0.402-1.996-1.209c0-0.115,0.246-1.852,0.739-5.211c0.492-3.358,0.739-5.696,0.739-7.015v-0.096
		c-0.371-0.601-0.761-1.094-1.17-1.478c0.307-0.332,0.684-0.499,1.132-0.499c0.87,0,1.57,0.489,2.102,1.469
		c0.53,0.978,1.71,3.879,3.541,8.703c0.039,0.076,0.064,0.134,0.077,0.172c0.115-0.179,0.429-0.64,0.94-1.382
		c0.511-0.741,0.898-1.314,1.161-1.718c0.262-0.403,0.624-0.978,1.084-1.728c0.46-0.748,0.818-1.391,1.075-1.928
		c0.716-1.459,1.151-2.648,1.305-3.569C26.755,11.54,27.267,11.76,27.574,12.138z"/>
	<path fill="#545454" d="M36.824,26.58c-0.704,0.383-1.52,0.574-2.447,0.574s-1.737-0.408-2.427-1.229
		c-0.691-0.818-1.036-1.969-1.036-3.454c0-1.689,0.454-3.198,1.362-4.529c0.447-0.64,1.033-1.157,1.756-1.554
		c0.723-0.397,1.519-0.596,2.389-0.596c1.919,0,2.879,0.928,2.879,2.782c0,1.114-0.432,1.987-1.295,2.621
		c-0.863,0.632-1.865,0.949-3.003,0.949c-0.755,0-1.433-0.069-2.035-0.211c-0.013,0.128-0.019,0.326-0.019,0.595
		c0,2.266,0.672,3.396,2.015,3.396c1.267,0,2.296-0.627,3.09-1.881c0.473,0.064,0.71,0.238,0.71,0.52
		C38.174,25.523,37.527,26.195,36.824,26.58z M36.057,16.791c-0.768,0-1.417,0.441-1.948,1.324
		c-0.531,0.884-0.886,1.919-1.065,3.109h0.538c0.678,0,1.266-0.097,1.765-0.287c0.5-0.193,0.883-0.443,1.152-0.75
		c0.511-0.587,0.768-1.253,0.768-1.996c0-0.422-0.099-0.76-0.297-1.017C36.77,16.919,36.466,16.791,36.057,16.791z"/>
	<path fill="#545454" d="M45.7,16.954c0.646-0.786,1.248-1.181,1.804-1.181s0.976,0.209,1.257,0.625s0.422,0.943,0.422,1.583
		c0,0.639-0.167,1.192-0.499,1.66c-0.333,0.467-0.819,0.699-1.458,0.699c-0.205,0-0.365-0.013-0.48-0.037
		c0.435-0.627,0.652-1.268,0.652-1.92c0-0.461-0.186-0.69-0.556-0.69c-0.294,0-0.608,0.172-0.941,0.519
		c-0.332,0.345-0.652,0.824-0.959,1.438c-0.307,0.613-0.563,1.413-0.768,2.398c-0.205,0.985-0.307,2.049-0.307,3.188
		c0,0.127,0.032,0.672,0.096,1.631c-0.333,0.025-0.524,0.037-0.576,0.037c-1.126,0-1.688-0.549-1.688-1.648
		c0-0.258,0.134-1.242,0.403-2.957c0.269-1.714,0.403-3.081,0.403-4.097c0-1.018-0.109-1.955-0.326-2.813
		c0.754,0.295,1.283,0.714,1.583,1.258c0.3,0.543,0.451,1.177,0.451,1.899s-0.057,1.417-0.172,2.082
		C44.5,18.967,45.054,17.741,45.7,16.954z"/>
	<path fill="#545454" d="M51.341,25.975c-0.288-0.531-0.432-1.174-0.432-1.93c0-0.755,0.103-1.835,0.307-3.243
		c0.205-1.407,0.307-2.501,0.307-3.281c0-0.779-0.039-1.381-0.115-1.804c0.23-0.025,0.416-0.039,0.557-0.039
		c0.576,0,0.991,0.128,1.248,0.384c0.256,0.256,0.384,0.68,0.384,1.267c0,0.192-0.157,1.199-0.47,3.023
		c-0.314,1.822-0.474,3.326-0.48,4.51c-0.007,1.184,0.067,1.949,0.221,2.293C52.138,26.898,51.63,26.506,51.341,25.975z
		 M53.155,13.778c-1.075,0-1.612-0.364-1.612-1.095c0-0.255,0.096-0.614,0.288-1.074c0.281-0.051,0.524-0.077,0.729-0.077
		c1.074,0,1.612,0.365,1.612,1.095c0,0.256-0.096,0.613-0.288,1.074C53.603,13.753,53.359,13.778,53.155,13.778z"/>
	<path fill="#545454" d="M62.271,26.58c-0.704,0.383-1.52,0.574-2.447,0.574c-0.928,0-1.737-0.408-2.428-1.229
		c-0.69-0.818-1.036-1.969-1.036-3.454c0-1.689,0.454-3.198,1.362-4.529c0.448-0.64,1.033-1.157,1.756-1.554
		c0.723-0.397,1.52-0.596,2.39-0.596c1.919,0,2.878,0.928,2.878,2.782c0,1.114-0.432,1.987-1.295,2.621
		c-0.863,0.632-1.865,0.949-3.003,0.949c-0.755,0-1.433-0.069-2.034-0.211c-0.013,0.128-0.019,0.326-0.019,0.595
		c0,2.266,0.672,3.396,2.015,3.396c1.267,0,2.296-0.627,3.09-1.881c0.474,0.064,0.71,0.238,0.71,0.52
		C63.621,25.523,62.974,26.195,62.271,26.58z M61.503,16.791c-0.768,0-1.417,0.441-1.948,1.324
		c-0.531,0.884-0.886,1.919-1.065,3.109h0.538c0.678,0,1.267-0.097,1.765-0.287c0.5-0.193,0.883-0.443,1.152-0.75
		c0.511-0.587,0.768-1.253,0.768-1.996c0-0.422-0.099-0.76-0.297-1.017C62.217,16.919,61.913,16.791,61.503,16.791z"/>
	<path fill="#545454" d="M75.935,18.519c0,0.589-0.125,1.628-0.374,3.118c-0.249,1.49-0.374,2.576-0.374,3.254
		s0.083,1.168,0.25,1.467c0.166,0.301,0.447,0.561,0.844,0.777c-0.166,0.014-0.403,0.02-0.71,0.02c-0.87,0-1.487-0.162-1.852-0.488
		c-0.364-0.328-0.547-0.912-0.547-1.758c0-0.473,0.127-1.43,0.384-2.868c0.256-1.439,0.384-2.498,0.384-3.176
		c0-0.846-0.256-1.267-0.768-1.267c-0.819,0-1.667,0.723-2.542,2.169c-0.877,1.445-1.315,3.185-1.315,5.22
		c0,0.807,0.039,1.432,0.115,1.881c-0.333,0.025-0.531,0.037-0.595,0.037c-1.126,0-1.688-0.549-1.688-1.648
		c0-0.258,0.134-1.242,0.403-2.957c0.269-1.714,0.403-3.081,0.403-4.097c0-1.018-0.108-1.955-0.326-2.813
		c0.755,0.295,1.283,0.714,1.583,1.258c0.3,0.543,0.451,1.164,0.451,1.861s-0.077,1.507-0.23,2.429
		c0.422-1.446,1.084-2.665,1.986-3.657c0.902-0.991,1.743-1.487,2.524-1.487C75.27,15.793,75.935,16.701,75.935,18.519z"/>
	<path fill="#545454" d="M81.001,24.775c0.282,0.461,0.72,0.689,1.314,0.689c0.596,0,1.139-0.264,1.632-0.795
		c0.492-0.531,0.889-1.248,1.19-2.149c0.3-0.903,0.563-1.862,0.787-2.879c0.224-1.018,0.387-2.103,0.489-3.253
		c0.192-2.137,0.288-3.832,0.288-5.086S86.65,9.115,86.548,8.5c1.317,0.423,1.977,1.747,1.977,3.973
		c0,0.909-0.215,2.738-0.643,5.489c-0.429,2.75-0.643,4.759-0.643,6.026s0.058,2.342,0.173,3.225
		c-0.729-0.244-1.228-0.678-1.497-1.305c-0.269-0.629-0.403-1.428-0.403-2.4c-0.397,1.102-0.985,1.971-1.766,2.611
		c-0.781,0.639-1.59,0.959-2.428,0.959s-1.516-0.324-2.034-0.971c-0.518-0.645-0.777-1.596-0.777-2.85
		c0-2.085,0.547-3.799,1.641-5.143c1.094-1.343,2.453-2.016,4.078-2.016c0.46,0,0.953,0.071,1.478,0.212
		c-0.87,0.14-1.65,0.458-2.341,0.949c-0.691,0.494-1.228,1.072-1.612,1.738c-0.781,1.355-1.171,2.686-1.171,3.99
		C80.579,23.72,80.72,24.314,81.001,24.775z"/>
	<path fill="#545454" d="M93.59,19.353c-0.371,0.647-0.656,1.306-0.854,1.978c-0.199,0.671-0.298,1.314-0.298,1.928
		c0,0.615,0.138,1.137,0.413,1.564c0.274,0.43,0.668,0.643,1.18,0.643c0.716,0,1.388-0.393,2.015-1.18
		c0.626-0.787,1.109-1.74,1.449-2.859c0.339-1.119,0.509-2.156,0.509-3.109s-0.039-1.736-0.115-2.351
		c0.307-0.025,0.499-0.039,0.576-0.039c1.087,0,1.631,0.557,1.631,1.671c0,0.242-0.153,1.231-0.46,2.965
		c-0.307,1.732-0.46,3.121-0.46,4.164s0.198,1.967,0.595,2.773c-0.806-0.166-1.391-0.521-1.756-1.064
		c-0.365-0.545-0.547-1.328-0.547-2.352c0-0.178,0.026-0.525,0.077-1.037c-0.346,1.217-0.953,2.195-1.823,2.938
		c-0.87,0.742-1.725,1.113-2.563,1.113s-1.513-0.316-2.024-0.949c-0.512-0.635-0.768-1.512-0.768-2.631s0.208-2.213,0.624-3.282
		c0.416-1.067,1.043-1.991,1.881-2.772c0.838-0.78,1.775-1.17,2.812-1.17c0.448,0,0.94,0.089,1.478,0.268
		c-0.755,0.192-1.446,0.544-2.073,1.056S93.961,18.708,93.59,19.353z"/>
</g>
</svg>
