<?xml version="1.0" encoding="utf-8"?>
<!-- Generator: Adobe Illustrator 16.0.0, SVG Export Plug-In . SVG Version: 6.00 Build 0)  -->
<!DOCTYPE svg PUBLIC "-//W3C//DTD SVG 1.1//EN" "http://www.w3.org/Graphics/SVG/1.1/DTD/svg11.dtd">
<svg version="1.1" id="图层_1" xmlns="http://www.w3.org/2000/svg" xmlns:xlink="http://www.w3.org/1999/xlink" x="0px" y="0px"
	 width="258px" height="36px" viewBox="0 0 258 36" enable-background="new 0 0 258 36" xml:space="preserve">
<g>
	<path fill="#545454" d="M22.075,10.001c0.786,0,1.499,0.117,2.138,0.352c0.638,0.232,1.182,0.551,1.629,0.957
		c0.447,0.404,0.792,0.877,1.033,1.418s0.362,1.115,0.362,1.723v7.1c0,0.607-0.121,1.184-0.362,1.725s-0.586,1.014-1.033,1.418
		c-0.447,0.406-0.991,0.725-1.629,0.957c-0.639,0.234-1.352,0.352-2.138,0.352h-3.597c-0.787,0-1.5-0.117-2.138-0.352
		c-0.638-0.232-1.182-0.551-1.63-0.957c-0.447-0.404-0.792-0.877-1.033-1.418c-0.24-0.541-0.361-1.117-0.361-1.725v-7.1
		c0-0.607,0.121-1.182,0.361-1.723c0.241-0.541,0.586-1.014,1.033-1.418c0.448-0.406,0.992-0.725,1.63-0.957
		c0.638-0.234,1.351-0.352,2.138-0.352H22.075z M20.252,11.239l-0.642-0.188h-1.53l-0.981,0.164l-0.747,0.748v8.746h1.249v-8.314
		c0.109-0.023,0.207-0.039,0.293-0.047s0.179-0.027,0.279-0.059h1.332c0.086,0.031,0.17,0.051,0.25,0.059
		c0.083,0.008,0.166,0.023,0.252,0.047v4.951h1.25v-4.951l0.502-0.105h1.344c0.093,0.031,0.186,0.051,0.279,0.059
		s0.191,0.023,0.293,0.047v8.314h1.237v-8.746l-0.735-0.748l-0.981-0.164h-1.53l-0.631,0.188l-0.396,0.807L20.252,11.239z"/>
	<path fill="#545454" d="M35.902,10.001c0.787,0,1.5,0.117,2.138,0.352c0.638,0.232,1.182,0.551,1.63,0.957
		c0.447,0.404,0.791,0.877,1.033,1.418c0.24,0.541,0.361,1.115,0.361,1.723v7.1c0,0.607-0.121,1.184-0.361,1.725
		c-0.242,0.541-0.586,1.014-1.033,1.418c-0.448,0.406-0.992,0.725-1.63,0.957c-0.638,0.234-1.351,0.352-2.138,0.352h-3.597
		c-0.786,0-1.499-0.117-2.138-0.352c-0.638-0.232-1.182-0.551-1.629-0.957c-0.447-0.404-0.792-0.877-1.033-1.418
		s-0.362-1.117-0.362-1.725v-7.1c0-0.607,0.121-1.182,0.362-1.723s0.586-1.014,1.033-1.418c0.447-0.406,0.991-0.725,1.629-0.957
		c0.639-0.234,1.352-0.352,2.138-0.352H35.902z M38.308,12.944l-0.164-0.98l-0.735-0.748l-1.202-0.164h-3.131l-1.191,0.164
		l-0.747,0.748l-0.14,0.98v5.885l0.14,1.006l0.771,0.734l1.168,0.141h3.131l1.202-0.141l0.735-0.734l0.164-1.006V12.944z
		 M36.907,19.354l-0.771,0.117h-2.99l-0.76-0.117l-0.174-0.701V13.06l0.116-0.641l0.817-0.129h2.99l0.817,0.129l0.116,0.688V18.7
		L36.907,19.354z"/>
	<path fill="#545454" d="M49.73,10.001c0.787,0,1.499,0.117,2.137,0.352c0.639,0.232,1.182,0.551,1.63,0.957
		c0.447,0.404,0.792,0.877,1.034,1.418c0.24,0.541,0.361,1.115,0.361,1.723v7.1c0,0.607-0.121,1.184-0.361,1.725
		c-0.242,0.541-0.587,1.014-1.034,1.418c-0.448,0.406-0.991,0.725-1.63,0.957c-0.638,0.234-1.35,0.352-2.137,0.352h-3.598
		c-0.786,0-1.498-0.117-2.137-0.352c-0.639-0.232-1.182-0.551-1.629-0.957c-0.447-0.404-0.793-0.877-1.033-1.418
		c-0.242-0.541-0.363-1.117-0.363-1.725v-7.1c0-0.607,0.121-1.182,0.363-1.723c0.24-0.541,0.586-1.014,1.033-1.418
		c0.447-0.406,0.99-0.725,1.629-0.957c0.639-0.234,1.351-0.352,2.137-0.352H49.73z M51.902,12.921l-0.163-0.98l-0.747-0.748
		L49.8,11.052h-2.92l-2.102,0.293v9.365h1.237v-8.291l0.911-0.152h2.803l0.807,0.129l0.116,0.688v7.627h1.249V12.921z"/>
	<path fill="#545454" d="M63.558,10.001c0.786,0,1.498,0.117,2.137,0.352c0.639,0.232,1.182,0.551,1.629,0.957
		c0.448,0.404,0.793,0.877,1.034,1.418s0.362,1.115,0.362,1.723v7.1c0,0.607-0.121,1.184-0.362,1.725s-0.586,1.014-1.034,1.418
		c-0.447,0.406-0.99,0.725-1.629,0.957c-0.639,0.234-1.351,0.352-2.137,0.352H59.96c-0.786,0-1.498-0.117-2.137-0.352
		c-0.639-0.232-1.182-0.551-1.63-0.957c-0.447-0.404-0.792-0.877-1.033-1.418s-0.362-1.117-0.362-1.725v-7.1
		c0-0.607,0.121-1.182,0.362-1.723s0.586-1.014,1.033-1.418c0.448-0.406,0.991-0.725,1.63-0.957
		c0.639-0.234,1.351-0.352,2.137-0.352H63.558z M65.964,12.944l-0.164-0.98l-0.736-0.748l-1.203-0.164h-3.129l-1.191,0.164
		l-0.748,0.748l-0.14,0.98v5.885l0.14,1.006l0.771,0.734l1.168,0.141h3.129l1.203-0.141l0.736-0.734l0.164-1.006V12.944z
		 M64.562,19.354l-0.771,0.117h-2.989l-0.76-0.117l-0.176-0.701V13.06l0.117-0.641l0.818-0.129h2.989l0.817,0.129l0.117,0.688V18.7
		L64.562,19.354z"/>
	<path fill="#545454" d="M77.386,10.001c0.785,0,1.498,0.117,2.137,0.352c0.639,0.232,1.182,0.551,1.629,0.957
		c0.447,0.404,0.793,0.877,1.033,1.418c0.242,0.541,0.362,1.115,0.362,1.723v7.1c0,0.607-0.12,1.184-0.362,1.725
		c-0.24,0.541-0.586,1.014-1.033,1.418c-0.447,0.406-0.99,0.725-1.629,0.957c-0.639,0.234-1.352,0.352-2.137,0.352h-3.598
		c-0.787,0-1.499-0.117-2.137-0.352c-0.639-0.232-1.182-0.551-1.63-0.957c-0.448-0.404-0.792-0.877-1.034-1.418
		c-0.24-0.541-0.361-1.117-0.361-1.725v-7.1c0-0.607,0.121-1.182,0.361-1.723c0.242-0.541,0.586-1.014,1.034-1.418
		c0.448-0.406,0.991-0.725,1.63-0.957c0.638-0.234,1.35-0.352,2.137-0.352H77.386z M78.46,15.069h-3.901V12.29h4.566v-1.238H73.31
		v9.658h1.249v-4.414h3.901V15.069z"/>
	<path fill="#545454" d="M91.213,10.001c0.786,0,1.499,0.117,2.138,0.352c0.638,0.232,1.182,0.551,1.629,0.957
		c0.447,0.404,0.792,0.877,1.033,1.418s0.362,1.115,0.362,1.723v7.1c0,0.607-0.121,1.184-0.362,1.725s-0.586,1.014-1.033,1.418
		c-0.447,0.406-0.991,0.725-1.629,0.957c-0.639,0.234-1.352,0.352-2.138,0.352h-3.597c-0.787,0-1.5-0.117-2.138-0.352
		c-0.638-0.232-1.182-0.551-1.63-0.957c-0.447-0.404-0.791-0.877-1.033-1.418c-0.24-0.541-0.361-1.117-0.361-1.725v-7.1
		c0-0.607,0.121-1.182,0.361-1.723c0.242-0.541,0.586-1.014,1.033-1.418c0.448-0.406,0.992-0.725,1.63-0.957
		c0.638-0.234,1.351-0.352,2.138-0.352H91.213z M92.744,12.921l-0.176-0.98l-0.736-0.748l-1.179-0.141h-2.534l-1.168,0.141
		l-0.736,0.748l-0.175,0.98v5.547l0.175,0.98l0.736,0.736l1.168,0.15h2.943l1.365-0.174l-0.291-1.262l-1.098,0.188h-2.838
		l-0.748-0.117l-0.164-0.701v-2.404h5.455V12.921z M87.289,14.636V13.06l0.094-0.664l0.818-0.129h2.382l0.794,0.129l0.117,0.688
		v1.553H87.289z"/>
	<path fill="#545454" d="M105.041,10.001c0.787,0,1.5,0.117,2.137,0.352c0.639,0.232,1.182,0.551,1.631,0.957
		c0.447,0.404,0.791,0.877,1.033,1.418c0.24,0.541,0.361,1.115,0.361,1.723v7.1c0,0.607-0.121,1.184-0.361,1.725
		c-0.242,0.541-0.586,1.014-1.033,1.418c-0.449,0.406-0.992,0.725-1.631,0.957c-0.637,0.234-1.35,0.352-2.137,0.352h-3.597
		c-0.786,0-1.499-0.117-2.138-0.352c-0.638-0.232-1.182-0.551-1.629-0.957c-0.447-0.404-0.792-0.877-1.033-1.418
		s-0.362-1.117-0.362-1.725v-7.1c0-0.607,0.121-1.182,0.362-1.723s0.586-1.014,1.033-1.418c0.447-0.406,0.991-0.725,1.629-0.957
		c0.639-0.234,1.352-0.352,2.138-0.352H105.041z M107.26,11.052h-6.75v1.238h2.756v8.42h1.25v-8.42h2.744V11.052z"/>
	<path fill="#545454" d="M118.869,10.001c0.787,0,1.498,0.117,2.137,0.352c0.639,0.232,1.182,0.551,1.629,0.957
		c0.447,0.404,0.793,0.877,1.035,1.418c0.24,0.541,0.361,1.115,0.361,1.723v7.1c0,0.607-0.121,1.184-0.361,1.725
		c-0.242,0.541-0.588,1.014-1.035,1.418c-0.447,0.406-0.99,0.725-1.629,0.957c-0.639,0.234-1.35,0.352-2.137,0.352h-3.598
		c-0.785,0-1.498-0.117-2.137-0.352c-0.639-0.232-1.182-0.551-1.629-0.957c-0.447-0.404-0.793-0.877-1.033-1.418
		c-0.242-0.541-0.363-1.117-0.363-1.725v-7.1c0-0.607,0.121-1.182,0.363-1.723c0.24-0.541,0.586-1.014,1.033-1.418
		c0.447-0.406,0.99-0.725,1.629-0.957c0.639-0.234,1.352-0.352,2.137-0.352H118.869z M121.088,11.052h-6.75v1.238h2.756v8.42h1.25
		v-8.42h2.744V11.052z"/>
</g>
</svg>
