<?xml version="1.0" encoding="utf-8"?>
<!-- Generator: Adobe Illustrator 16.0.0, SVG Export Plug-In . SVG Version: 6.00 Build 0)  -->
<!DOCTYPE svg PUBLIC "-//W3C//DTD SVG 1.1//EN" "http://www.w3.org/Graphics/SVG/1.1/DTD/svg11.dtd">
<svg version="1.1" id="图层_1" xmlns="http://www.w3.org/2000/svg" xmlns:xlink="http://www.w3.org/1999/xlink" x="0px" y="0px"
	 width="258px" height="36px" viewBox="0 0 258 36" enable-background="new 0 0 258 36" xml:space="preserve">
<g>
	<path fill="#545454" d="M23.719,16.842v8.492h-2.486v-8.492c0-2.625-0.904-3.938-2.714-3.938c-0.842,0-1.523,0.289-2.041,0.869
		c-0.519,0.58-0.777,1.479-0.777,2.693v8.867h-2.445V10.852h2.445v1.162c0.359-0.498,0.829-0.875,1.408-1.129
		c0.58-0.256,1.212-0.385,1.896-0.385s1.354,0.232,2.01,0.695c0.656,0.463,1.143,1.107,1.46,1.936
		c0.359-0.842,0.939-1.49,1.74-1.947c0.801-0.455,1.658-0.684,2.569-0.684c1.561,0,2.769,0.477,3.625,1.43s1.285,2.23,1.285,3.834
		v9.57h-2.445V16.57c0-2.445-0.939-3.666-2.817-3.666c-0.857,0-1.523,0.365-2,1.098S23.719,15.68,23.719,16.842z"/>
	<path fill="#545454" d="M44.458,23.854c-1.105,1.098-2.486,1.646-4.143,1.646c-1.658,0-3.039-0.549-4.144-1.646
		s-1.658-2.441-1.658-4.029s0.553-2.932,1.658-4.029c1.105-1.1,2.486-1.648,4.144-1.648c1.657,0,3.038,0.549,4.143,1.648
		c1.105,1.098,1.658,2.441,1.658,4.029S45.563,22.756,44.458,23.854z M37.817,22.424c0.656,0.67,1.488,1.006,2.497,1.006
		c1.008,0,1.84-0.336,2.496-1.006s0.984-1.537,0.984-2.6c0-1.064-0.328-1.932-0.984-2.602c-0.656-0.668-1.488-1.004-2.496-1.004
		c-1.009,0-1.841,0.336-2.497,1.004c-0.656,0.67-0.984,1.537-0.984,2.602C36.833,20.887,37.162,21.754,37.817,22.424z"/>
	<path fill="#545454" d="M51.067,19.367v5.967h-2.32V14.313h2.32v2.01c0.373-0.676,0.887-1.207,1.543-1.596
		c0.656-0.387,1.364-0.58,2.124-0.58c1.243,0,2.248,0.381,3.015,1.139c0.766,0.762,1.15,1.859,1.15,3.295v6.754h-2.32v-6.049
		c0-2.029-0.843-3.045-2.528-3.045c-0.802,0-1.499,0.266-2.093,0.797S51.067,18.346,51.067,19.367z"/>
	<path fill="#545454" d="M64.347,16.178v5.594c0,0.525,0.138,0.943,0.414,1.252c0.276,0.313,0.663,0.467,1.16,0.467
		s0.974-0.24,1.43-0.725l0.953,1.637C67.489,25.135,66.588,25.5,65.6,25.5c-0.987,0-1.83-0.342-2.527-1.025
		c-0.698-0.684-1.046-1.605-1.046-2.766V10.852h2.32v3.461h2.9v1.865H64.347z"/>
	<path fill="#545454" d="M78,22.041c0,1.049-0.38,1.889-1.14,2.518c-0.76,0.627-1.733,0.941-2.921,0.941
		c-0.801,0-1.634-0.145-2.497-0.436c-0.864-0.289-1.626-0.697-2.29-1.221l1.119-1.803c1.284,0.967,2.527,1.449,3.729,1.449
		c0.524,0,0.939-0.119,1.243-0.361s0.456-0.549,0.456-0.922c0-0.553-0.732-1.051-2.196-1.492c-0.111-0.041-0.194-0.068-0.249-0.084
		c-2.293-0.621-3.439-1.656-3.439-3.107c0-1.021,0.396-1.84,1.19-2.455c0.794-0.613,1.827-0.922,3.098-0.922
		s2.472,0.373,3.605,1.119l-0.871,1.721c-0.898-0.594-1.872-0.893-2.921-0.893c-0.552,0-1.001,0.102-1.346,0.301
		c-0.346,0.201-0.519,0.502-0.519,0.9c0,0.361,0.18,0.623,0.539,0.789c0.249,0.123,0.597,0.24,1.046,0.352
		c0.449,0.111,0.846,0.221,1.191,0.332c0.345,0.109,0.68,0.234,1.005,0.373s0.673,0.33,1.046,0.578
		C77.627,20.217,78,20.992,78,22.041z"/>
	<path fill="#545454" d="M85.646,14.146c1.505,0,2.755,0.418,3.75,1.254s1.499,1.924,1.513,3.264l0.021,0.041l-8.039,3.377
		c0.718,0.885,1.695,1.326,2.932,1.326c1.236,0,2.255-0.484,3.056-1.451l1.367,1.512c-1.312,1.355-2.859,2.031-4.64,2.031
		c-1.562,0-2.901-0.518-4.02-1.553c-1.119-1.037-1.679-2.404-1.679-4.102c0-1.176,0.29-2.207,0.871-3.1
		c0.58-0.891,1.298-1.547,2.155-1.967C83.787,14.357,84.692,14.146,85.646,14.146z M82.144,19.885c0,0.182,0.007,0.313,0.021,0.395
		l6.112-2.631c-0.47-0.912-1.305-1.367-2.507-1.367c-0.912,0-1.744,0.316-2.497,0.953C82.52,17.869,82.144,18.754,82.144,19.885z"/>
	<path fill="#545454" d="M99.091,16.488c-1.146,0-2.01,0.373-2.59,1.119s-0.87,1.746-0.87,3.004v4.723h-2.32V14.313h2.32v2.217
		c0.373-0.689,0.88-1.258,1.523-1.697c0.642-0.443,1.322-0.672,2.041-0.686l0.021,2.342C99.174,16.488,99.133,16.488,99.091,16.488z
		"/>
	<path fill="#545454" d="M107.316,16.488c-1.146,0-2.01,0.373-2.59,1.119s-0.87,1.746-0.87,3.004v4.723h-2.32V14.313h2.32v2.217
		c0.373-0.689,0.88-1.258,1.523-1.697c0.642-0.443,1.322-0.672,2.041-0.686l0.021,2.342
		C107.399,16.488,107.357,16.488,107.316,16.488z"/>
	<path fill="#545454" d="M110.61,23.926c-1.036-1.049-1.554-2.432-1.554-4.143c0-1.713,0.532-3.08,1.596-4.104
		c1.063-1.021,2.32-1.533,3.771-1.533s2.645,0.691,3.584,2.072v-1.906h2.32v11.021h-2.32v-1.803
		c-0.442,0.637-1.005,1.123-1.688,1.461c-0.684,0.338-1.371,0.508-2.062,0.508C112.861,25.5,111.646,24.977,110.61,23.926z
		 M111.376,19.875c0,1.057,0.339,1.918,1.016,2.58c0.676,0.662,1.471,0.994,2.383,0.994c0.911,0,1.685-0.334,2.32-1.004
		s0.954-1.531,0.954-2.58s-0.318-1.928-0.954-2.631c-0.635-0.705-1.416-1.057-2.341-1.057c-0.926,0-1.72,0.352-2.382,1.057
		C111.708,17.938,111.376,18.818,111.376,19.875z"/>
	<path fill="#545454" d="M125.9,16.178v5.594c0,0.525,0.138,0.943,0.414,1.252c0.275,0.313,0.663,0.467,1.16,0.467
		s0.974-0.24,1.43-0.725l0.953,1.637c-0.815,0.732-1.717,1.098-2.704,1.098s-1.83-0.342-2.527-1.025
		c-0.698-0.684-1.046-1.605-1.046-2.766V10.852h2.32v3.461h2.9v1.865H125.9z"/>
	<path fill="#545454" d="M137.523,25.334v-8.328c0-2.127,0.537-3.744,1.615-4.848c1.078-1.105,2.58-1.658,4.506-1.658
		c1.928,0,3.426,0.547,4.496,1.637c1.07,1.092,1.605,2.674,1.605,4.744v8.453h-2.465V21.75h-7.314v3.584H137.523z M139.967,16.902
		v2.568h7.314v-2.465c0-1.34-0.326-2.375-0.975-3.107s-1.547-1.098-2.693-1.098s-2.041,0.352-2.682,1.057
		C140.289,14.561,139.967,15.576,139.967,16.902z"/>
	<path fill="#545454" d="M158.779,24.547c-0.553,0.635-1.326,0.953-2.32,0.953s-1.793-0.297-2.393-0.891
		c-0.602-0.594-0.902-1.471-0.902-2.631V10.852h2.32v10.857c0,1.105,0.416,1.658,1.244,1.658c0.482,0,0.828-0.174,1.035-0.518
		L158.779,24.547z"/>
	<path fill="#545454" d="M162.613,16.178v5.594c0,0.525,0.137,0.943,0.414,1.252c0.275,0.313,0.662,0.467,1.16,0.467
		c0.496,0,0.973-0.24,1.43-0.725l0.951,1.637c-0.814,0.732-1.715,1.098-2.703,1.098s-1.83-0.342-2.527-1.025
		s-1.047-1.605-1.047-2.766V10.852h2.322v3.461h2.9v1.865H162.613z"/>
	<path fill="#545454" d="M173.426,14.146c1.506,0,2.756,0.418,3.75,1.254s1.5,1.924,1.514,3.264l0.02,0.041l-8.037,3.377
		c0.717,0.885,1.695,1.326,2.93,1.326c1.236,0,2.256-0.484,3.057-1.451l1.367,1.512c-1.313,1.355-2.859,2.031-4.641,2.031
		c-1.561,0-2.9-0.518-4.02-1.553c-1.117-1.037-1.678-2.404-1.678-4.102c0-1.176,0.289-2.207,0.871-3.1
		c0.58-0.891,1.297-1.547,2.154-1.967C171.568,14.357,172.473,14.146,173.426,14.146z M169.926,19.885
		c0,0.182,0.006,0.313,0.02,0.395l6.113-2.631c-0.471-0.912-1.307-1.367-2.508-1.367c-0.912,0-1.744,0.316-2.496,0.953
		C170.301,17.869,169.926,18.754,169.926,19.885z"/>
	<path fill="#545454" d="M186.873,16.488c-1.146,0-2.01,0.373-2.59,1.119s-0.871,1.746-0.871,3.004v4.723h-2.32V14.313h2.32v2.217
		c0.373-0.689,0.881-1.258,1.523-1.697c0.643-0.443,1.322-0.672,2.041-0.686l0.02,2.342
		C186.955,16.488,186.914,16.488,186.873,16.488z"/>
	<path fill="#545454" d="M191.639,19.367v5.967h-2.32V14.313h2.32v2.01c0.371-0.676,0.887-1.207,1.543-1.596
		c0.656-0.387,1.363-0.58,2.123-0.58c1.242,0,2.248,0.381,3.016,1.139c0.766,0.762,1.148,1.859,1.148,3.295v6.754h-2.32v-6.049
		c0-2.029-0.842-3.045-2.527-3.045c-0.801,0-1.498,0.266-2.092,0.797S191.639,18.346,191.639,19.367z"/>
	<path fill="#545454" d="M203.551,23.926c-1.035-1.049-1.555-2.432-1.555-4.143c0-1.713,0.531-3.08,1.596-4.104
		c1.064-1.021,2.32-1.533,3.771-1.533c1.449,0,2.645,0.691,3.584,2.072v-1.906h2.32v11.021h-2.32v-1.803
		c-0.443,0.637-1.006,1.123-1.689,1.461s-1.371,0.508-2.061,0.508C205.801,25.5,204.586,24.977,203.551,23.926z M204.316,19.875
		c0,1.057,0.34,1.918,1.016,2.58s1.471,0.994,2.383,0.994s1.686-0.334,2.32-1.004s0.953-1.531,0.953-2.58s-0.318-1.928-0.953-2.631
		c-0.635-0.705-1.416-1.057-2.342-1.057s-1.719,0.352-2.381,1.057C204.648,17.938,204.316,18.818,204.316,19.875z"/>
	<path fill="#545454" d="M218.84,16.178v5.594c0,0.525,0.139,0.943,0.414,1.252c0.277,0.313,0.664,0.467,1.16,0.467
		c0.498,0,0.975-0.24,1.43-0.725l0.953,1.637c-0.814,0.732-1.717,1.098-2.703,1.098c-0.988,0-1.83-0.342-2.527-1.025
		s-1.047-1.605-1.047-2.766V10.852h2.32v3.461h2.9v1.865H218.84z"/>
	<path fill="#545454" d="M229.654,14.146c1.506,0,2.756,0.418,3.75,1.254s1.5,1.924,1.514,3.264l0.02,0.041l-8.037,3.377
		c0.717,0.885,1.695,1.326,2.932,1.326c1.234,0,2.254-0.484,3.055-1.451l1.367,1.512c-1.313,1.355-2.859,2.031-4.641,2.031
		c-1.561,0-2.9-0.518-4.02-1.553c-1.117-1.037-1.678-2.404-1.678-4.102c0-1.176,0.289-2.207,0.871-3.1
		c0.58-0.891,1.297-1.547,2.154-1.967C227.797,14.357,228.701,14.146,229.654,14.146z M226.154,19.885
		c0,0.182,0.006,0.313,0.02,0.395l6.113-2.631c-0.471-0.912-1.307-1.367-2.508-1.367c-0.912,0-1.744,0.316-2.496,0.953
		C226.529,17.869,226.154,18.754,226.154,19.885z"/>
	<path fill="#545454" d="M245.174,22.041c0,1.049-0.381,1.889-1.141,2.518c-0.76,0.627-1.732,0.941-2.922,0.941
		c-0.801,0-1.633-0.145-2.496-0.436c-0.863-0.289-1.625-0.697-2.289-1.221l1.119-1.803c1.285,0.967,2.527,1.449,3.729,1.449
		c0.525,0,0.939-0.119,1.244-0.361c0.303-0.242,0.455-0.549,0.455-0.922c0-0.553-0.732-1.051-2.195-1.492
		c-0.111-0.041-0.193-0.068-0.25-0.084c-2.293-0.621-3.438-1.656-3.438-3.107c0-1.021,0.396-1.84,1.189-2.455
		c0.795-0.613,1.828-0.922,3.098-0.922c1.271,0,2.473,0.373,3.605,1.119l-0.871,1.721c-0.896-0.594-1.871-0.893-2.92-0.893
		c-0.553,0-1.002,0.102-1.348,0.301c-0.344,0.201-0.518,0.502-0.518,0.9c0,0.361,0.18,0.623,0.539,0.789
		c0.248,0.123,0.598,0.24,1.047,0.352c0.447,0.111,0.846,0.221,1.189,0.332c0.346,0.109,0.682,0.234,1.006,0.373
		s0.674,0.33,1.047,0.578C244.801,20.217,245.174,20.992,245.174,22.041z"/>
</g>
</svg>
