<?xml version="1.0" encoding="utf-8"?>
<!-- Generator: Adobe Illustrator 16.0.0, SVG Export Plug-In . SVG Version: 6.00 Build 0)  -->
<!DOCTYPE svg PUBLIC "-//W3C//DTD SVG 1.1//EN" "http://www.w3.org/Graphics/SVG/1.1/DTD/svg11.dtd">
<svg version="1.1" id="图层_1" xmlns="http://www.w3.org/2000/svg" xmlns:xlink="http://www.w3.org/1999/xlink" x="0px" y="0px"
	 width="258px" height="36px" viewBox="0 0 258 36" enable-background="new 0 0 258 36" xml:space="preserve">
<g>
	<path fill="#545454" d="M22.482,23.24l0.205-2.322c0-0.184-0.104-0.334-0.309-0.455c-0.337-0.188-0.748-0.281-1.234-0.281
		c-0.651,0-1.1,0.129-1.346,0.385c-0.107,0.115-0.162,0.281-0.162,0.502c0,0.219,0.065,0.604,0.197,1.152
		c0.131,0.549,0.197,0.936,0.197,1.162c0,0.225-0.041,0.404-0.125,0.539c-0.082,0.135-0.204,0.201-0.363,0.201
		c-0.16,0-0.283-0.066-0.369-0.201s-0.129-0.314-0.129-0.545c0-0.229,0.07-0.621,0.211-1.182c0.139-0.561,0.209-0.984,0.209-1.27
		L19.457,10.42c0-0.676-0.206-1.238-0.617-1.688l0.18-0.182c0.463,0.412,1.025,0.617,1.688,0.617h2.563
		c0.366,0,0.675-0.043,0.93-0.133c0.255-0.088,0.458-0.264,0.612-0.527l0.283,0.137C24.947,9,24.873,9.334,24.873,9.648
		c0,0.256,0.451,0.902,1.354,1.938c1.178,1.348,1.935,2.254,2.271,2.715c0.338,0.463,0.558,0.838,0.66,1.123h0.514
		c-0.279-0.41-0.42-0.99-0.42-1.74c0-0.348,0.043-0.869,0.129-1.563c0.086-0.695,0.129-1.217,0.129-1.564
		c0-0.938-0.297-1.545-0.891-1.824l0.18-0.182c0.462,0.412,1.025,0.617,1.688,0.617h1.758c0.662,0,1.225-0.205,1.688-0.617
		l0.172,0.182c-0.406,0.455-0.609,1.02-0.609,1.688l-0.017,10.463c0,0.246,0.058,0.615,0.171,1.102
		c0.115,0.488,0.172,0.855,0.172,1.102c0,0.365-0.141,0.549-0.42,0.549s-0.42-0.184-0.42-0.549c0-0.24,0.055-0.592,0.163-1.059
		c0.108-0.465,0.163-0.785,0.163-0.959s-0.058-0.299-0.172-0.373s-0.227-0.111-0.334-0.111h-3.385c-0.48,0-0.721,0.436-0.721,1.311
		c0,0.359,0.066,0.883,0.201,1.564s0.201,1.197,0.201,1.547c0,0.498-0.186,0.746-0.557,0.746s-0.557-0.252-0.557-0.756
		c0-0.318,0.072-0.785,0.219-1.396c0.145-0.611,0.221-1.07,0.227-1.379l0.018-1.141c0.017-0.531-0.037-0.877-0.163-1.035
		l-4.105-5.203c-0.108-0.143-0.228-0.439-0.36-0.893l-0.522,0.018c0.297,0.309,0.446,0.652,0.446,1.029v4.893l0.162,4.338
		c0,0.092-0.027,0.17-0.081,0.236c-0.055,0.064-0.128,0.098-0.223,0.098s-0.173-0.039-0.235-0.115
		c-0.063-0.078-0.095-0.164-0.095-0.262l0.103-3.291c0-0.068-0.025-0.131-0.077-0.189c-0.052-0.057-0.111-0.086-0.18-0.086
		c-0.148,0-0.223,0.115-0.223,0.344s0.038,0.604,0.116,1.123c0.076,0.52,0.115,0.877,0.115,1.07c0,0.436-0.107,0.652-0.322,0.652
		C22.588,23.807,22.482,23.617,22.482,23.24z"/>
	<path fill="#545454" d="M43.761,21.973l0.061-0.824c0-0.143-0.068-0.252-0.206-0.33c-0.138-0.076-0.286-0.115-0.446-0.115
		c-0.159,0-0.303,0.043-0.428,0.129s-0.188,0.209-0.188,0.369v1.971c0,0.285,0.06,0.705,0.18,1.26s0.181,0.949,0.181,1.188
		c0,0.236-0.053,0.432-0.155,0.588c-0.103,0.154-0.243,0.229-0.424,0.229c-0.18,0-0.315-0.078-0.407-0.238
		c-0.091-0.16-0.137-0.369-0.137-0.625c0-0.258,0.065-0.703,0.197-1.338c0.131-0.635,0.197-1.125,0.197-1.473
		c0-1.412-0.264-2.117-0.789-2.117c-0.708,0-1.063-0.029-1.063-0.086v0.016c0,0.396,0.087,0.975,0.262,1.736
		c0.174,0.764,0.261,1.311,0.261,1.641c0,0.332-0.06,0.605-0.18,0.818c-0.12,0.215-0.304,0.322-0.553,0.322
		s-0.443-0.104-0.583-0.309c-0.141-0.205-0.21-0.473-0.21-0.801c0-0.33,0.083-0.891,0.249-1.689c0.166-0.795,0.248-1.4,0.248-1.813
		c-1.354-0.428-2.373-1.129-3.055-2.1c-0.684-0.971-1.025-2.17-1.025-3.6c0-2.959,1.492-4.828,4.475-5.604
		c0.965-0.252,1.964-0.377,2.995-0.377s1.908,0.057,2.631,0.17c0.723,0.115,1.423,0.316,2.1,0.604
		c0.678,0.289,1.255,0.654,1.731,1.098s0.858,1.014,1.145,1.715c0.285,0.699,0.428,1.498,0.428,2.395
		c0,1.828-0.514,3.244-1.543,4.248c-1.027,1.002-2.473,1.617-4.336,1.846c-0.022,0.041-0.034,0.104-0.034,0.189l0.043,0.471
		c0,0.291-0.081,0.438-0.239,0.438c-0.16,0-0.24-0.141-0.24-0.42l0.025-0.48c0-0.17-0.123-0.258-0.369-0.258
		c-0.022,0.053-0.034,0.148-0.034,0.293l0.043,0.83c0,0.172-0.031,0.338-0.094,0.498c-0.063,0.16-0.169,0.24-0.317,0.24
		C43.893,22.676,43.761,22.441,43.761,21.973z M40.522,14.791c0,2.09,0.994,3.137,2.982,3.137s2.982-1.047,2.982-3.137
		c0-0.961-0.257-1.695-0.771-2.203c-0.516-0.51-1.252-0.764-2.212-0.764s-1.696,0.254-2.212,0.764
		C40.779,13.096,40.522,13.83,40.522,14.791z"/>
	<path fill="#545454" d="M58.648,23.086l0.086-0.865v-1.604c-1.537-0.08-2.686-0.289-3.445-0.629s-1.32-0.768-1.68-1.281
		c-0.218-0.303-0.385-0.641-0.502-1.016s-0.31-0.656-0.578-0.844l0.129-0.182c0.257,0.172,0.535,0.258,0.836,0.258
		c0.299,0,0.684-0.012,1.152-0.033c0.469-0.023,0.997-0.051,1.585-0.082c0.589-0.031,1.009-0.053,1.26-0.064
		c0.252-0.012,0.438-0.047,0.558-0.107c0.119-0.059,0.205-0.17,0.258-0.33l0.385,0.129c-0.018,0.045-0.025,0.105-0.025,0.182
		c0,0.188,0.156,0.4,0.471,0.641s0.883,0.361,1.705,0.361c0.555,0,0.949-0.096,1.184-0.283c0.104-0.086,0.154-0.189,0.154-0.309
		c0-0.279-0.154-0.465-0.463-0.557s-0.682-0.17-1.118-0.236c-0.437-0.064-0.874-0.117-1.312-0.158s-0.91-0.098-1.418-0.172
		c-0.509-0.074-0.989-0.156-1.44-0.244c-0.45-0.09-0.89-0.219-1.315-0.391s-0.789-0.373-1.093-0.604
		c-0.303-0.23-0.547-0.529-0.732-0.891c-0.186-0.365-0.278-0.775-0.278-1.238s0.072-0.887,0.218-1.27s0.345-0.711,0.597-0.984
		c0.251-0.275,0.555-0.518,0.912-0.729c0.357-0.213,0.731-0.383,1.123-0.516c0.391-0.131,0.818-0.236,1.281-0.316
		C57.945,8.574,58.706,8.5,59.419,8.5c0.715,0,1.258,0.01,1.633,0.029c0.374,0.02,0.814,0.057,1.32,0.113
		c0.505,0.053,0.962,0.141,1.371,0.264c0.408,0.123,0.813,0.279,1.213,0.467c0.834,0.389,1.419,0.992,1.756,1.809
		c0.138,0.293,0.326,0.563,0.566,0.814l-0.111,0.197c-0.24-0.166-0.518-0.248-0.832-0.248h-0.111
		c-0.457,0.018-1.109,0.051-1.959,0.098c-0.848,0.049-1.394,0.08-1.636,0.09c-0.243,0.012-0.417,0.047-0.523,0.104
		c-0.105,0.059-0.181,0.166-0.228,0.326l-0.377-0.104c0.018-0.051,0.025-0.105,0.025-0.162c0-0.24-0.193-0.447-0.582-0.621
		c-0.389-0.176-0.828-0.262-1.32-0.262c-0.959,0-1.439,0.188-1.439,0.564c0,0.338,0.721,0.584,2.16,0.738
		c0.337,0.039,0.72,0.08,1.148,0.119c1.49,0.154,2.634,0.357,3.428,0.609c1.668,0.525,2.503,1.527,2.503,3.008
		c0,0.605-0.126,1.15-0.378,1.633c-0.251,0.482-0.578,0.875-0.98,1.178s-0.879,0.555-1.428,0.754
		c-0.988,0.361-2.116,0.541-3.385,0.541c-0.343,0-0.545-0.004-0.608-0.01c-0.309,0-0.463,0.238-0.463,0.711v0.205
		c0,0.156,0.038,0.383,0.116,0.684c0.076,0.299,0.115,0.523,0.115,0.672c0,0.303-0.105,0.455-0.316,0.455
		c-0.109,0-0.193-0.047-0.254-0.139c-0.06-0.09-0.09-0.205-0.09-0.342s0.036-0.369,0.107-0.699c0.071-0.328,0.107-0.566,0.107-0.715
		s-0.002-0.252-0.005-0.313s-0.011-0.135-0.024-0.223c-0.016-0.088-0.039-0.152-0.074-0.193c-0.08-0.104-0.217-0.154-0.411-0.154
		c-0.354,0-0.531,0.309-0.531,0.926l0.052,1.406c0,0.377-0.055,0.564-0.163,0.564S58.648,23.291,58.648,23.086z"/>
	<path fill="#545454" d="M73.757,25.203l0.095-2.279c0-0.738-0.027-1.203-0.081-1.396c-0.055-0.195-0.11-0.367-0.168-0.516
		c-0.057-0.146-0.131-0.268-0.223-0.359c-0.091-0.092-0.2-0.178-0.326-0.258c-0.239-0.158-0.617-0.238-1.131-0.238
		s-0.947,0.207-1.298,0.625c-0.352,0.416-0.527,0.916-0.527,1.498c0,0.219,0.043,0.543,0.128,0.975
		c0.086,0.432,0.129,0.754,0.129,0.973c0,0.41-0.146,0.617-0.438,0.617c-0.291,0-0.437-0.201-0.437-0.6
		c0-0.223,0.044-0.557,0.134-1.004c0.088-0.445,0.132-0.781,0.132-1.012l0.06-2.297V9.863c0-0.355-0.111-0.641-0.334-0.857
		l0.172-0.18c0.24,0.229,0.525,0.342,0.857,0.342h3.102c0.344,0,0.629-0.113,0.857-0.342l0.172,0.18
		c-0.223,0.223-0.335,0.508-0.335,0.857v10.025c0,0.297-0.031,0.811-0.095,1.539c-0.063,0.729-0.082,1.291-0.06,1.684h-0.009
		c0.212,0.949,0.317,1.672,0.317,2.17c0,0.496-0.095,0.744-0.282,0.744C73.894,26.025,73.757,25.752,73.757,25.203z"/>
	<path fill="#545454" d="M81.839,17.045l-0.068,1.746c0,0.314,0.075,0.779,0.227,1.395c0.151,0.613,0.228,1.068,0.228,1.363
		c0,0.293,0.048,0.705,0.146,1.238c0.098,0.531,0.146,0.957,0.146,1.281c0,0.322-0.139,0.482-0.416,0.482s-0.416-0.156-0.416-0.475
		c0-0.316,0.05-0.74,0.15-1.27c0.1-0.527,0.149-0.924,0.149-1.186c0-0.264-0.091-0.502-0.274-0.715
		c-0.183-0.215-0.399-0.322-0.65-0.322c-0.572,0-0.857,0.693-0.857,2.082c0,0.326,0.043,0.814,0.128,1.467
		c0.086,0.65,0.13,1.096,0.13,1.336c0,0.469-0.141,0.703-0.421,0.703c-0.144,0-0.253-0.061-0.33-0.184s-0.116-0.299-0.116-0.527
		s0.051-0.646,0.15-1.252s0.15-1.045,0.15-1.318c0-0.275-0.016-0.535-0.047-0.777s-0.089-0.502-0.172-0.779
		s-0.215-0.502-0.394-0.672c-0.181-0.172-0.411-0.258-0.695-0.258c-0.282,0-0.536,0.123-0.762,0.369
		c-0.226,0.244-0.339,0.477-0.339,0.697c0,0.219,0.039,0.449,0.119,0.689c0.081,0.24,0.121,0.426,0.121,0.559
		c0,0.25-0.094,0.377-0.279,0.377s-0.278-0.127-0.278-0.377l0.206-1.371l-0.009-10.91c0-0.676-0.206-1.238-0.616-1.689l0.17-0.172
		c0.458,0.406,1.021,0.609,1.689,0.609h9.89c0.669,0,1.231-0.203,1.688-0.609l0.172,0.172c-0.406,0.457-0.609,0.971-0.609,1.543
		c0,0.57,0.037,1.014,0.111,1.328s0.24,0.617,0.498,0.908l-0.172,0.172c-0.303-0.404-0.68-0.607-1.131-0.607H82.55
		c-0.319,0-0.594-0.109-0.822-0.328l-0.163,0.164c0.218,0.229,0.325,0.506,0.325,0.832s-0.107,0.602-0.325,0.83l0.163,0.162
		c0.188-0.182,0.416-0.299,0.681-0.35c0.267-0.051,0.582-0.078,0.947-0.078l3.257,0.18c0.531,0,1.002-0.045,1.41-0.137
		s0.758-0.277,1.05-0.557l0.171,0.172c-0.428,0.467-0.643,1.115-0.643,1.945c0,0.828,0.197,1.449,0.592,1.859l-0.18,0.172
		c-0.52-0.465-1.36-0.693-2.521-0.693l-3.205,0.18c-0.782,0-1.316-0.143-1.603-0.43l-0.163,0.172
		C81.734,16.404,81.839,16.689,81.839,17.045z"/>
	<path fill="#545454" d="M97.154,19.162l-0.137-1.064v-0.094c0.12-0.211,0.283-0.316,0.488-0.316l6.995,0.008
		c0.348,0,0.631-0.111,0.848-0.334l0.172,0.172c-0.252,0.252-0.377,0.73-0.377,1.439v0.496c0,0.578,0.125,0.998,0.377,1.262
		l-0.172,0.172c-0.223-0.225-0.506-0.336-0.848-0.336H94.361c-0.509,0-0.883,0.098-1.123,0.291c-0.273,0.23-0.411,0.875-0.411,1.938
		c0,0.43,0.065,1.061,0.196,1.898c0.132,0.836,0.197,1.467,0.197,1.891c0,0.611-0.217,0.916-0.65,0.916
		c-0.469,0-0.703-0.314-0.703-0.941c0-0.43,0.094-1.064,0.283-1.904c0.188-0.84,0.282-1.477,0.282-1.912l-0.042-2.869V9.879
		c0-0.354-0.109-0.637-0.326-0.848l0.171-0.182c0.234,0.225,0.521,0.336,0.857,0.336h11.005c0.348,0,0.633-0.111,0.855-0.336
		l0.172,0.182c-0.252,0.252-0.377,0.725-0.377,1.422v0.48c0,0.611,0.125,1.039,0.377,1.285l-0.172,0.162
		c-0.285-0.289-0.957-0.436-2.014-0.436l-4.259,0.197c-1.052,0-1.72-0.146-2.005-0.438l-0.181,0.172
		c0.223,0.217,0.334,0.504,0.334,0.861c0,0.355-0.111,0.643-0.334,0.861l0.181,0.162c0.273-0.285,0.851-0.428,1.73-0.428
		l3.591,0.197c0.886,0,1.472-0.143,1.757-0.43l0.18,0.172c-0.252,0.252-0.377,0.734-0.377,1.449v0.479
		c0,0.59,0.125,1.014,0.377,1.277l-0.18,0.18c-0.275-0.285-0.854-0.428-1.741-0.428l-3.59,0.188c-0.881,0-1.463-0.143-1.748-0.428
		l-0.172,0.172c0.172,0.172,0.271,0.375,0.3,0.611s0.046,0.406,0.052,0.506c0.006,0.102,0.006,0.254,0,0.463s-0.01,0.334-0.01,0.373
		l-0.145,1.029c0,0.205,0.075,0.309,0.227,0.309S97.154,19.355,97.154,19.162z"/>
	<path fill="#545454" d="M121.461,23.395l0.188-1.773c0-0.719-0.293-1.27-0.879-1.65c-0.584-0.379-1.201-0.549-1.846-0.506
		c-0.646,0.043-1.098,0.262-1.354,0.656c-0.133,0.189-0.197,0.412-0.197,0.668l-0.045,2.297c0,0.314,0.049,0.781,0.146,1.4
		c0.098,0.621,0.146,1.088,0.146,1.402c0,0.555-0.158,0.832-0.473,0.832c-0.313,0-0.471-0.27-0.471-0.807
		c0-0.354,0.051-0.863,0.154-1.525s0.162-1.164,0.176-1.508c0.014-0.342,0.021-1.074,0.021-2.195c0-0.297-0.092-0.639-0.275-1.027
		c-0.182-0.389-0.471-0.924-0.865-1.602c-0.395-0.682-0.717-1.281-0.967-1.801l-0.258-0.146c-0.137,0.252-0.381,0.379-0.729,0.379
		l-0.721,0.025c-0.49,0-0.859-0.121-1.105-0.361l-0.18,0.172c0.018,0.211,0.025,0.664,0.025,1.354l-0.008,2.1
		c0,0.629,0.012,1.092,0.033,1.389l0.164,1.26c0,0.234-0.08,0.352-0.24,0.352s-0.24-0.109-0.24-0.326l0.137-1.063
		c0-0.256-0.076-0.461-0.227-0.611c-0.152-0.152-0.35-0.229-0.592-0.229s-0.457,0.107-0.643,0.322s-0.277,0.492-0.277,0.834
		c0,0.344,0.063,0.809,0.188,1.393c0.125,0.588,0.189,1.008,0.189,1.266c0,0.537-0.191,0.805-0.574,0.805s-0.574-0.262-0.574-0.789
		c0-0.244,0.055-0.672,0.166-1.283c0.111-0.613,0.168-1.098,0.168-1.459c0-0.359-0.084-0.654-0.248-0.887
		c-0.166-0.23-0.355-0.346-0.566-0.346s-0.391,0.072-0.541,0.219c-0.148,0.145-0.223,0.326-0.223,0.543l0.232,2.031
		c0,0.348-0.129,0.523-0.387,0.523c-0.256,0-0.385-0.178-0.385-0.531c0-0.205,0.055-0.564,0.162-1.076
		c0.109-0.51,0.16-0.91,0.154-1.195c-0.004-0.285-0.008-3.982-0.008-11.09c0-0.354-0.109-0.637-0.326-0.85l0.172-0.17
		c0.223,0.217,0.506,0.326,0.848,0.326h7.68c1.199,0,2.008,0.035,2.42,0.105c0.416,0.072,0.779,0.148,1.09,0.229
		s0.574,0.178,0.789,0.295c0.213,0.117,0.43,0.264,0.65,0.438s0.396,0.373,0.527,0.596c0.303,0.508,0.453,1.049,0.453,1.619
		c0,0.572-0.043,1.039-0.133,1.402c-0.088,0.363-0.234,0.705-0.441,1.023c-0.445,0.691-1.229,1.037-2.348,1.037l-0.068,0.197
		c0.359,0.143,0.6,0.34,0.721,0.59c0.502,1.098,0.873,1.793,1.113,2.088s0.463,0.529,0.668,0.707c0.207,0.178,0.5,0.357,0.883,0.539
		c0.383,0.184,0.615,0.303,0.695,0.355c0.08,0.055,0.119,0.1,0.119,0.135c0,0.57,0.078,1.305,0.232,2.201
		c0.154,0.898,0.23,1.475,0.23,1.732c0,0.256-0.01,0.441-0.029,0.557c-0.021,0.115-0.064,0.227-0.133,0.34
		c-0.068,0.109-0.168,0.166-0.301,0.166c-0.131,0-0.229-0.094-0.295-0.283c-0.066-0.188-0.1-0.42-0.1-0.695
		c0-0.273,0.037-0.764,0.111-1.469s0.111-1.238,0.111-1.598c0-0.715-0.23-1.072-0.693-1.072c-0.229,0-0.398,0.041-0.51,0.121
		s-0.168,0.244-0.168,0.492s0.053,0.645,0.154,1.188c0.104,0.543,0.154,0.953,0.154,1.229c0,0.277-0.105,0.416-0.316,0.416
		S121.461,23.676,121.461,23.395z M115.752,11.979l-2.023,0.061c-0.826,0-1.367-0.123-1.619-0.369l-0.18,0.162
		c0.229,0.225,0.344,0.51,0.344,0.857v0.574c0,0.344-0.115,0.629-0.344,0.857l0.18,0.172c0.246-0.252,0.754-0.377,1.525-0.377
		l2.17,0.076c0.576,0,1.023-0.074,1.34-0.227c0.316-0.15,0.477-0.43,0.477-0.836c0-0.256-0.09-0.457-0.266-0.604
		c-0.178-0.145-0.393-0.24-0.643-0.283C116.461,12,116.141,11.979,115.752,11.979z"/>
</g>
</svg>
