<?xml version="1.0" encoding="utf-8"?>
<!-- Generator: Adobe Illustrator 16.0.0, SVG Export Plug-In . SVG Version: 6.00 Build 0)  -->
<!DOCTYPE svg PUBLIC "-//W3C//DTD SVG 1.1//EN" "http://www.w3.org/Graphics/SVG/1.1/DTD/svg11.dtd">
<svg version="1.1" id="图层_1" xmlns="http://www.w3.org/2000/svg" xmlns:xlink="http://www.w3.org/1999/xlink" x="0px" y="0px"
	 width="258px" height="36px" viewBox="0 0 258 36" enable-background="new 0 0 258 36" xml:space="preserve">
<g>
	<path fill="#545454" d="M13.257,25.443V10.23c0-0.154,0.073-0.23,0.219-0.23h1.573c0.444,0,0.815,0.227,1.114,0.678l8.278,12.297
		V10.23c0-0.154,0.073-0.23,0.218-0.23h1.573c0.146,0,0.218,0.076,0.218,0.23v15.213c0,0.145-0.073,0.219-0.218,0.219h-1.573
		c-0.443,0-0.815-0.223-1.113-0.666l-8.278-12.309v12.756c0,0.145-0.073,0.219-0.218,0.219h-1.573
		C13.33,25.662,13.257,25.588,13.257,25.443z"/>
	<path fill="#545454" d="M30.928,20.736V13.92c0-0.146,0.073-0.221,0.218-0.229h1.573c0.146,0,0.218,0.078,0.218,0.229v6.816
		c0,1.178,0.306,2.09,0.917,2.73c0.611,0.641,1.387,0.961,2.326,0.961c0.43,0,0.854-0.082,1.272-0.248
		c0.418-0.162,0.767-0.355,1.043-0.578c0.276-0.221,0.524-0.449,0.742-0.682c0.422-0.459,0.634-0.74,0.634-0.84v-8.16
		c0-0.146,0.073-0.221,0.218-0.229h1.573c0.146,0,0.218,0.078,0.218,0.229v11.523c0,0.145-0.073,0.219-0.218,0.219h-1.234
		c-0.146,0-0.226-0.074-0.24-0.219l-0.208-1.234c-0.094,0.146-0.286,0.338-0.573,0.578c-0.288,0.24-0.57,0.438-0.847,0.59
		C37.833,25.793,37.003,26,36.071,26c-1.507,0-2.741-0.467-3.702-1.404C31.408,23.662,30.928,22.375,30.928,20.736z"/>
	<path fill="#545454" d="M46.359,25.443V13.92c0-0.15,0.073-0.229,0.219-0.229h1.234c0.146,0,0.226,0.078,0.24,0.229l0.208,1.225
		c0.044-0.045,0.104-0.105,0.18-0.186c0.076-0.08,0.236-0.227,0.481-0.438c0.243-0.211,0.5-0.393,0.769-0.545
		c0.7-0.408,1.471-0.613,2.316-0.613s1.594,0.205,2.25,0.613c0.655,0.406,1.154,0.986,1.497,1.734
		c0.211-0.313,0.469-0.621,0.775-0.928c0.306-0.307,0.771-0.619,1.398-0.939c0.626-0.32,1.281-0.48,1.966-0.48
		c1.325,0,2.382,0.447,3.172,1.338c0.79,0.893,1.186,2.16,1.186,3.807v6.936c0,0.145-0.073,0.219-0.219,0.219h-1.572
		c-0.146,0-0.219-0.074-0.219-0.219v-6.936c0-1.18-0.231-2.07-0.693-2.676c-0.463-0.605-1.021-0.906-1.677-0.906
		c-0.655,0-1.271,0.203-1.846,0.605c-0.575,0.404-1.005,0.785-1.289,1.141c-0.284,0.359-0.426,0.559-0.426,0.602v8.17
		c0,0.145-0.073,0.219-0.218,0.219h-1.573c-0.146,0-0.218-0.074-0.218-0.219v-6.936c0-1.18-0.231-2.07-0.694-2.676
		s-1.021-0.906-1.676-0.906s-1.271,0.203-1.846,0.605c-0.575,0.404-1.004,0.785-1.289,1.141c-0.284,0.359-0.426,0.559-0.426,0.602
		v8.17c0,0.145-0.073,0.219-0.218,0.219h-1.573C46.432,25.662,46.359,25.588,46.359,25.443z"/>
	<path fill="#545454" d="M68.873,24.979c-0.84-0.68-1.261-1.609-1.261-2.785s0.432-2.104,1.295-2.783
		c0.862-0.684,2.069-1.021,3.62-1.021h3.811v-0.109c0-2.236-1.121-3.354-3.363-3.354c-0.699,0-1.294,0.168-1.786,0.504
		c-0.491,0.334-0.828,0.762-1.01,1.287c-0.044,0.145-0.131,0.219-0.262,0.219h-1.409c-0.167,0-0.244-0.074-0.229-0.219
		c0.117-1.012,0.597-1.824,1.441-2.436c0.845-0.611,1.93-0.918,3.255-0.918c1.732,0,3.062,0.428,3.986,1.285
		c0.925,0.855,1.387,2.064,1.387,3.631v7.164c0,0.145-0.077,0.219-0.229,0.219h-1.223c-0.146,0-0.229-0.074-0.251-0.219
		l-0.197-1.234c-0.087,0.139-0.28,0.328-0.579,0.574c-0.299,0.244-0.597,0.441-0.896,0.594C74.186,25.793,73.298,26,72.308,26
		C70.859,26,69.714,25.66,68.873,24.979z M69.621,22.199c0,0.729,0.242,1.281,0.727,1.66c0.483,0.379,1.174,0.568,2.069,0.568
		c0.48,0,0.944-0.082,1.392-0.248c0.448-0.162,0.815-0.355,1.104-0.578c0.287-0.221,0.544-0.449,0.77-0.682
		c0.226-0.232,0.391-0.428,0.497-0.584c0.105-0.156,0.158-0.242,0.158-0.256v-2.119h-3.811
		C70.589,19.961,69.621,20.707,69.621,22.199z"/>
	<path fill="#545454" d="M82.596,25.443V13.92c0-0.15,0.073-0.229,0.218-0.229h1.234c0.146,0,0.226,0.078,0.24,0.229l0.208,1.225
		c0.087-0.123,0.277-0.313,0.568-0.563c0.292-0.252,0.575-0.453,0.852-0.605c0.713-0.408,1.543-0.613,2.49-0.613
		c1.507,0,2.741,0.467,3.703,1.398c0.961,0.932,1.441,2.217,1.441,3.855v6.826c0,0.145-0.072,0.219-0.218,0.219h-1.573
		c-0.146,0-0.218-0.074-0.218-0.219v-6.826c0-1.18-0.306-2.09-0.917-2.73c-0.612-0.641-1.387-0.961-2.326-0.961
		c-0.43,0-0.854,0.082-1.272,0.246c-0.419,0.164-0.766,0.357-1.043,0.578c-0.277,0.223-0.521,0.451-0.731,0.684
		c-0.43,0.457-0.645,0.738-0.645,0.84v8.17c0,0.145-0.073,0.219-0.218,0.219h-1.573C82.668,25.662,82.596,25.588,82.596,25.443z"/>
	<path fill="#545454" d="M96.705,22.461c-0.007-0.037-0.01-0.066-0.01-0.086c0-0.117,0.08-0.176,0.24-0.176h1.409
		c0.087,0,0.178,0.074,0.273,0.219c0.743,1.34,2.046,2.01,3.91,2.01c1.056,0,1.842-0.156,2.359-0.471
		c0.517-0.313,0.775-0.705,0.775-1.18c0-0.473-0.177-0.859-0.53-1.162c-0.354-0.301-0.959-0.555-1.818-0.76l-2.796-0.676
		c-2.388-0.584-3.582-1.736-3.582-3.463c0-0.982,0.444-1.787,1.332-2.414c0.889-0.625,2.108-0.939,3.659-0.939
		s2.804,0.32,3.757,0.963c0.954,0.641,1.58,1.494,1.878,2.564c0.044,0.184-0.033,0.273-0.229,0.273h-1.409
		c-0.087,0-0.175-0.076-0.262-0.229c-0.743-1.34-1.973-2.01-3.691-2.01c-0.998,0-1.751,0.16-2.261,0.48s-0.765,0.715-0.765,1.186
		c0,0.469,0.176,0.854,0.53,1.152c0.353,0.297,0.959,0.553,1.818,0.764l2.796,0.666c2.388,0.568,3.582,1.725,3.582,3.473
		c0,0.984-0.452,1.787-1.354,2.414c-0.903,0.625-2.166,0.939-3.79,0.939c-1.624,0-2.925-0.316-3.904-0.949
		C97.643,24.416,97.004,23.555,96.705,22.461z"/>
</g>
</svg>
