<?xml version="1.0" encoding="utf-8"?>
<!-- Generator: Adobe Illustrator 16.0.0, SVG Export Plug-In . SVG Version: 6.00 Build 0)  -->
<!DOCTYPE svg PUBLIC "-//W3C//DTD SVG 1.1//EN" "http://www.w3.org/Graphics/SVG/1.1/DTD/svg11.dtd">
<svg version="1.1" id="图层_1" xmlns="http://www.w3.org/2000/svg" xmlns:xlink="http://www.w3.org/1999/xlink" x="0px" y="0px"
	 width="258px" height="36px" viewBox="0 0 258 36" enable-background="new 0 0 258 36" xml:space="preserve">
<g>
	<path fill="#545454" d="M15.906,10.604h10.597c0.736,0,1.362,0.258,1.877,0.773s0.772,1.141,0.772,1.877v10.598
		c0,0.734-0.257,1.361-0.772,1.877S27.24,26.5,26.503,26.5H15.906c-0.736,0-1.361-0.256-1.876-0.771s-0.773-1.143-0.773-1.877
		V13.254c0-0.736,0.258-1.361,0.773-1.877S15.17,10.604,15.906,10.604z M15.906,24.711h10.597c0.236,0,0.438-0.084,0.607-0.252
		c0.169-0.17,0.254-0.373,0.254-0.607V13.254c0-0.236-0.085-0.438-0.254-0.607c-0.169-0.168-0.372-0.254-0.607-0.254H15.906
		c-0.236,0-0.438,0.086-0.607,0.254c-0.169,0.17-0.254,0.371-0.254,0.607v10.598c0,0.234,0.084,0.438,0.254,0.607
		C15.468,24.627,15.67,24.711,15.906,24.711z"/>
	<path fill="#545454" d="M34.165,13.695h7.197v1.811h-7.197c-0.236,0-0.438,0.084-0.607,0.254c-0.169,0.17-0.254,0.371-0.254,0.607
		V26.5h-1.811V16.367c0-0.736,0.262-1.365,0.784-1.889C32.799,13.957,33.428,13.695,34.165,13.695z"/>
	<path fill="#545454" d="M53.218,13.695c0.736,0,1.365,0.262,1.888,0.783c0.522,0.523,0.784,1.152,0.784,1.889v7.461
		c0,0.736-0.261,1.367-0.784,1.889c-0.523,0.523-1.152,0.783-1.888,0.783H42.841v-17h1.811v4.195H53.218z M54.079,23.828v-7.461
		c0-0.236-0.085-0.438-0.254-0.607c-0.169-0.17-0.373-0.254-0.607-0.254h-7.683c-0.236,0-0.442,0.084-0.618,0.254
		c-0.177,0.17-0.265,0.371-0.265,0.607v7.461c0,0.236,0.088,0.438,0.265,0.609c0.176,0.168,0.382,0.252,0.618,0.252h7.683
		c0.235,0,0.438-0.084,0.607-0.252C53.994,24.266,54.079,24.064,54.079,23.828z"/>
	<path fill="#545454" d="M57.522,9.5h1.811v1.811h-1.811V9.5z M57.522,26.5V13.695h1.811V26.5H57.522z"/>
	<path fill="#545454" d="M69.489,15.506h-5.542v8.322c0,0.236,0.084,0.438,0.254,0.609c0.169,0.168,0.371,0.252,0.607,0.252h4.681
		V26.5h-4.681c-0.75,0-1.383-0.26-1.898-0.783c-0.515-0.521-0.773-1.152-0.773-1.889V9.5h1.811v4.195h5.542V15.506z"/>
	<path fill="#545454" d="M73.838,13.695h7.198v1.811h-7.198c-0.236,0-0.438,0.084-0.607,0.254c-0.169,0.17-0.254,0.371-0.254,0.607
		V26.5h-1.811V16.367c0-0.736,0.261-1.365,0.784-1.889C72.473,13.957,73.102,13.695,73.838,13.695z"/>
	<path fill="#545454" d="M85.009,13.695h7.683c0.75,0,1.387,0.262,1.91,0.783c0.523,0.523,0.784,1.152,0.784,1.889v7.461
		c0,0.736-0.261,1.367-0.784,1.889c-0.522,0.523-1.159,0.783-1.91,0.783h-7.683c-0.736,0-1.365-0.26-1.888-0.783
		c-0.522-0.521-0.784-1.152-0.784-1.889v-7.461c0-0.736,0.261-1.365,0.784-1.889C83.645,13.957,84.273,13.695,85.009,13.695z
		 M92.692,15.506h-7.683c-0.235,0-0.438,0.084-0.607,0.254c-0.169,0.17-0.254,0.371-0.254,0.607v7.461
		c0,0.236,0.084,0.438,0.254,0.609c0.169,0.168,0.372,0.252,0.607,0.252h7.683c0.235,0,0.438-0.084,0.607-0.252
		c0.169-0.172,0.253-0.373,0.253-0.609v-7.461c0-0.236-0.084-0.438-0.253-0.607C93.13,15.59,92.928,15.506,92.692,15.506z"/>
	<path fill="#545454" d="M107.728,13.695c0.736,0,1.365,0.262,1.888,0.783c0.522,0.523,0.784,1.152,0.784,1.889V26.5h-1.81V16.367
		c0-0.236-0.085-0.438-0.254-0.607c-0.169-0.17-0.373-0.254-0.607-0.254h-7.683c-0.236,0-0.442,0.084-0.618,0.254
		c-0.177,0.17-0.265,0.371-0.265,0.607V26.5h-1.811V13.695H107.728z"/>
</g>
</svg>
