<?xml version="1.0" encoding="utf-8"?>
<!-- Generator: Adobe Illustrator 16.0.0, SVG Export Plug-In . SVG Version: 6.00 Build 0)  -->
<!DOCTYPE svg PUBLIC "-//W3C//DTD SVG 1.1//EN" "http://www.w3.org/Graphics/SVG/1.1/DTD/svg11.dtd">
<svg version="1.1" id="图层_1" xmlns="http://www.w3.org/2000/svg" xmlns:xlink="http://www.w3.org/1999/xlink" x="0px" y="0px"
	 width="258px" height="36px" viewBox="0 0 258 36" enable-background="new 0 0 258 36" xml:space="preserve">
<g>
	<path fill="#545454" d="M21.784,6.32c1.093,0,2.05,0.15,2.873,0.445c0.823,0.297,1.508,0.689,2.054,1.18
		c0.546,0.492,0.958,1.057,1.234,1.693c0.276,0.639,0.415,1.297,0.415,1.98c0,0.637-0.124,1.268-0.371,1.893
		s-0.62,1.199-1.117,1.727c-0.498,0.527-1.126,0.982-1.884,1.367c-0.757,0.383-1.646,0.652-2.668,0.809
		c-0.02,0.475-0.036,0.91-0.049,1.307c-0.006,0.17-0.013,0.34-0.02,0.508c-0.006,0.17-0.011,0.324-0.015,0.465
		c-0.003,0.139-0.006,0.262-0.009,0.365c-0.004,0.104-0.005,0.176-0.005,0.215c-0.013,0.455-0.067,0.928-0.161,1.418
		c-0.094,0.492-0.231,0.971-0.41,1.439s-0.396,0.912-0.653,1.332c-0.257,0.42-0.557,0.787-0.897,1.104
		c-0.342,0.314-0.724,0.564-1.146,0.75s-0.885,0.279-1.385,0.279c-0.534,0-1.01-0.139-1.429-0.416
		c-0.42-0.275-0.788-0.648-1.103-1.117s-0.582-1.008-0.8-1.619s-0.395-1.25-0.532-1.916c-0.136-0.668-0.236-1.338-0.297-2.016
		c-0.063-0.676-0.093-1.313-0.093-1.912c0-1.027,0.094-2.02,0.283-2.977c0.188-0.955,0.458-1.852,0.81-2.688
		c0.351-0.834,0.777-1.598,1.278-2.287c0.501-0.689,1.065-1.281,1.693-1.775c0.627-0.494,1.311-0.877,2.049-1.146
		C20.166,6.457,20.952,6.32,21.784,6.32z M15.931,17.346c0,0.268,0.001,0.627,0.005,1.078c0.003,0.451,0.021,0.936,0.054,1.449
		c0.032,0.514,0.084,1.033,0.156,1.561c0.071,0.527,0.177,1.004,0.316,1.43c0.14,0.426,0.315,0.773,0.527,1.043
		s0.477,0.404,0.795,0.404c0.332,0,0.615-0.115,0.849-0.346c0.234-0.23,0.429-0.529,0.585-0.896c0.156-0.369,0.28-0.785,0.371-1.25
		c0.091-0.465,0.159-0.932,0.205-1.398c0.046-0.469,0.075-0.916,0.088-1.342c0.013-0.426,0.02-0.789,0.02-1.088v-0.459
		c-0.54-0.215-0.964-0.402-1.273-0.566c-0.309-0.162-0.541-0.318-0.697-0.467c-0.156-0.15-0.255-0.309-0.298-0.475
		c-0.042-0.166-0.063-0.359-0.063-0.58c0-0.117,0.003-0.232,0.01-0.346c0.006-0.113,0.024-0.215,0.053-0.303
		c0.03-0.088,0.072-0.16,0.127-0.215c0.055-0.055,0.131-0.082,0.229-0.082c0.065,0,0.125,0.012,0.181,0.039
		c0.055,0.025,0.125,0.061,0.209,0.105c0.215,0.117,0.41,0.213,0.585,0.289c0.176,0.074,0.325,0.135,0.449,0.18
		c0.143,0.053,0.273,0.092,0.39,0.117c0-0.084,0.001-0.252,0.005-0.502c0.002-0.25,0.022-0.537,0.059-0.859
		c0.035-0.32,0.096-0.658,0.18-1.008c0.084-0.352,0.208-0.674,0.371-0.967s0.374-0.535,0.634-0.727
		c0.26-0.193,0.582-0.289,0.966-0.289c0.117,0,0.237,0.012,0.361,0.035c0.124,0.021,0.236,0.064,0.337,0.127
		c0.1,0.063,0.185,0.145,0.253,0.248c0.068,0.104,0.103,0.238,0.103,0.4c0,0.045-0.002,0.076-0.005,0.092
		c-0.003,0.018-0.005,0.039-0.005,0.064l-0.595,2.508l-0.088,0.77c0.637-0.098,1.187-0.254,1.649-0.467
		c0.462-0.217,0.844-0.469,1.146-0.762c0.302-0.293,0.527-0.615,0.673-0.967c0.146-0.352,0.22-0.713,0.22-1.082
		c0-0.363-0.07-0.736-0.209-1.117c-0.141-0.381-0.382-0.727-0.727-1.039s-0.807-0.568-1.386-0.77
		c-0.579-0.203-1.307-0.305-2.185-0.305c-0.657,0-1.252,0.127-1.786,0.377c-0.533,0.25-1.008,0.59-1.424,1.02
		c-0.416,0.43-0.777,0.93-1.083,1.502s-0.558,1.182-0.756,1.828c-0.199,0.648-0.345,1.314-0.439,2.002
		C15.978,16.027,15.931,16.695,15.931,17.346z"/>
	<path fill="#545454" d="M37.95,21.717c-0.149,0.209-0.35,0.451-0.6,0.732c-0.25,0.279-0.532,0.545-0.844,0.799
		s-0.647,0.469-1.005,0.645s-0.715,0.262-1.073,0.262c-0.429,0-0.787-0.137-1.073-0.414c-0.286-0.275-0.533-0.678-0.741-1.203
		c-0.156,0.182-0.348,0.367-0.576,0.555c-0.228,0.189-0.477,0.359-0.746,0.512c-0.271,0.154-0.552,0.279-0.844,0.377
		s-0.585,0.146-0.878,0.146c-0.313,0-0.617-0.064-0.912-0.191c-0.296-0.125-0.558-0.309-0.786-0.547
		c-0.228-0.236-0.41-0.525-0.546-0.867c-0.136-0.342-0.205-0.727-0.205-1.156c0-0.488,0.068-0.988,0.205-1.502
		c0.137-0.514,0.325-1.016,0.566-1.508c0.241-0.49,0.525-0.955,0.854-1.391s0.688-0.814,1.078-1.141
		c0.39-0.324,0.802-0.584,1.234-0.775c0.432-0.193,0.873-0.289,1.322-0.289c0.15,0,0.267,0.029,0.351,0.09
		c0.085,0.057,0.154,0.123,0.21,0.199c0.055,0.074,0.109,0.148,0.161,0.219c0.052,0.072,0.117,0.123,0.195,0.156
		s0.158,0.055,0.239,0.063c0.081,0.012,0.164,0.016,0.249,0.016c0.072,0,0.145-0.002,0.22-0.004
		c0.075-0.004,0.148-0.006,0.219-0.006c0.098,0,0.189,0.01,0.273,0.029s0.159,0.063,0.224,0.127
		c0.065,0.066,0.115,0.156,0.151,0.273c0.036,0.117,0.054,0.275,0.054,0.479c0,0.311-0.033,0.658-0.098,1.037
		c-0.065,0.381-0.137,0.771-0.214,1.172c-0.078,0.4-0.15,0.799-0.215,1.201c-0.065,0.398-0.098,0.777-0.098,1.135
		c0,0.307,0.027,0.545,0.083,0.719c0.055,0.172,0.174,0.258,0.356,0.258c0.137,0,0.28-0.035,0.43-0.104
		c0.149-0.068,0.3-0.156,0.454-0.268c0.152-0.111,0.305-0.236,0.458-0.375c0.153-0.141,0.298-0.285,0.435-0.434
		c0.319-0.352,0.641-0.748,0.966-1.191L37.95,21.717z M29.619,20.945c0,0.164,0.011,0.32,0.034,0.473
		c0.022,0.154,0.063,0.291,0.122,0.41c0.059,0.121,0.137,0.219,0.234,0.293c0.098,0.076,0.221,0.113,0.371,0.113
		c0.241,0,0.458-0.105,0.654-0.313c0.195-0.209,0.364-0.459,0.507-0.752s0.259-0.596,0.346-0.906
		c0.088-0.313,0.145-0.572,0.171-0.781l0.595-2.869c-0.267,0-0.527,0.068-0.781,0.201c-0.253,0.133-0.493,0.314-0.717,0.541
		c-0.225,0.229-0.431,0.488-0.62,0.781c-0.189,0.293-0.351,0.6-0.488,0.922s-0.243,0.645-0.317,0.971
		C29.656,20.354,29.619,20.66,29.619,20.945z"/>
	<path fill="#545454" d="M39.813,24.107c-0.598,0-1.124-0.111-1.575-0.332c-0.453-0.221-0.831-0.518-1.137-0.887
		c-0.306-0.373-0.537-0.801-0.693-1.289s-0.234-0.996-0.234-1.521c0-0.377,0.039-0.771,0.117-1.182
		c0.078-0.408,0.193-0.811,0.347-1.205c0.152-0.393,0.341-0.768,0.566-1.125c0.224-0.357,0.484-0.672,0.78-0.943
		c0.296-0.27,0.626-0.482,0.99-0.643s0.764-0.24,1.2-0.24c0.371,0,0.713,0.057,1.029,0.172c0.315,0.113,0.585,0.271,0.809,0.473
		c0.225,0.201,0.401,0.441,0.527,0.717c0.127,0.277,0.19,0.574,0.19,0.895c0,0.221-0.029,0.438-0.087,0.652
		c-0.059,0.215-0.145,0.408-0.259,0.58s-0.252,0.311-0.415,0.414c-0.163,0.105-0.345,0.156-0.546,0.156
		c-0.306,0-0.506-0.08-0.6-0.242c-0.094-0.164-0.142-0.389-0.142-0.674c0-0.117,0.005-0.24,0.015-0.371
		c0.009-0.131,0.014-0.248,0.014-0.352c0-0.156-0.016-0.285-0.048-0.391c-0.033-0.104-0.104-0.156-0.215-0.156
		c-0.267,0-0.494,0.064-0.683,0.191c-0.188,0.127-0.35,0.293-0.483,0.498s-0.239,0.436-0.317,0.691
		c-0.078,0.258-0.14,0.514-0.186,0.766c-0.045,0.254-0.075,0.496-0.088,0.727c-0.013,0.232-0.019,0.426-0.019,0.582
		c0,0.234,0.021,0.479,0.063,0.73c0.042,0.254,0.122,0.486,0.239,0.697c0.117,0.213,0.276,0.389,0.478,0.527
		c0.202,0.141,0.462,0.211,0.78,0.211c0.313,0,0.657-0.096,1.034-0.289c0.377-0.191,0.756-0.434,1.137-0.727
		c0.381-0.293,0.743-0.615,1.088-0.967c0.345-0.35,0.641-0.682,0.888-0.994l0.673,1.133c-0.488,0.695-1.015,1.316-1.581,1.863
		c-0.241,0.234-0.502,0.461-0.785,0.682c-0.283,0.223-0.58,0.418-0.888,0.59c-0.309,0.174-0.631,0.313-0.965,0.42
		C40.498,24.053,40.158,24.107,39.813,24.107z"/>
	<path fill="#545454" d="M49.911,22.029c-0.234,0.213-0.525,0.443-0.874,0.688c-0.348,0.244-0.723,0.469-1.126,0.672
		c-0.403,0.207-0.814,0.377-1.234,0.514c-0.419,0.137-0.817,0.205-1.195,0.205c-0.338,0-0.623-0.049-0.854-0.143
		s-0.417-0.225-0.561-0.395c-0.143-0.168-0.246-0.375-0.307-0.619c-0.063-0.244-0.093-0.514-0.093-0.805
		c0-0.41,0.047-0.887,0.141-1.43s0.21-1.105,0.347-1.688c0.136-0.582,0.281-1.162,0.434-1.742c0.153-0.578,0.288-1.111,0.405-1.6
		c0.045-0.168,0.137-0.314,0.273-0.434c0.137-0.121,0.291-0.219,0.464-0.293c0.172-0.074,0.351-0.131,0.536-0.166
		c0.186-0.037,0.353-0.055,0.502-0.055c0.273,0,0.458,0.051,0.556,0.152c0.098,0.1,0.146,0.236,0.146,0.404
		c0,0.145-0.033,0.35-0.098,0.619c-0.065,0.271-0.146,0.576-0.244,0.918c-0.098,0.342-0.202,0.709-0.313,1.102
		c-0.11,0.395-0.214,0.787-0.312,1.182c-0.098,0.393-0.179,0.777-0.244,1.15c-0.065,0.375-0.097,0.711-0.097,1.01
		c0,0.293,0.032,0.525,0.097,0.697c0.065,0.172,0.199,0.26,0.4,0.26c0.234,0,0.494-0.082,0.78-0.244s0.576-0.359,0.868-0.592
		c0.293-0.23,0.579-0.469,0.859-0.717c0.279-0.246,0.526-0.457,0.741-0.633V22.029z M45.55,12c0-0.15,0.032-0.318,0.098-0.508
		c0.065-0.188,0.17-0.365,0.317-0.531c0.146-0.166,0.341-0.307,0.585-0.42c0.244-0.113,0.548-0.17,0.912-0.17
		c0.228,0,0.442,0.025,0.644,0.078c0.202,0.051,0.377,0.131,0.527,0.238c0.149,0.107,0.268,0.248,0.356,0.424
		c0.087,0.176,0.132,0.385,0.132,0.625c0,0.221-0.036,0.436-0.107,0.645c-0.072,0.207-0.186,0.393-0.341,0.557
		c-0.156,0.162-0.354,0.293-0.591,0.395c-0.237,0.1-0.521,0.15-0.854,0.15c-0.572,0-0.995-0.135-1.268-0.404
		C45.687,12.807,45.55,12.447,45.55,12z"/>
	<path fill="#545454" d="M48.633,24.479c0-0.033,0.008-0.232,0.024-0.596s0.047-0.85,0.093-1.453
		c0.046-0.605,0.107-1.303,0.186-2.094s0.181-1.625,0.307-2.508c0.127-0.881,0.276-1.785,0.449-2.711
		c0.172-0.928,0.377-1.83,0.615-2.709c0.237-0.877,0.509-1.705,0.814-2.482s0.649-1.457,1.029-2.039
		c0.381-0.582,0.805-1.041,1.273-1.379C53.892,6.168,54.405,6,54.965,6c0.221,0,0.454,0.039,0.697,0.117
		c0.245,0.078,0.467,0.203,0.668,0.381c0.202,0.174,0.369,0.408,0.502,0.697s0.2,0.645,0.2,1.068c0,0.383-0.061,0.824-0.181,1.322
		c-0.121,0.496-0.29,1.027-0.507,1.594c-0.218,0.566-0.475,1.154-0.771,1.766c-0.296,0.611-0.62,1.221-0.971,1.83
		c-0.352,0.607-0.721,1.207-1.108,1.795c-0.387,0.588-0.782,1.141-1.185,1.652l-0.02,0.156c0.13-0.063,0.228-0.105,0.293-0.125
		s0.133-0.031,0.205-0.031c0.085,0,0.153,0.01,0.205,0.025c0.052,0.016,0.099,0.035,0.142,0.053
		c0.042,0.021,0.086,0.039,0.131,0.055c0.046,0.018,0.101,0.023,0.166,0.023c0.644,0,1.213-0.076,1.708-0.229
		c0.494-0.152,0.91-0.322,1.249-0.512c0.397-0.215,0.742-0.465,1.034-0.752l-0.215,2.371c-0.429,0.234-0.878,0.418-1.346,0.547
		c-0.468,0.131-0.901,0.229-1.297,0.291c-0.462,0.074-0.92,0.117-1.375,0.139c0.234,0.43,0.445,0.875,0.634,1.336
		c0.163,0.396,0.311,0.842,0.444,1.332c0.133,0.49,0.2,0.986,0.2,1.486c0,0.061-0.008,0.184-0.024,0.373
		c-0.017,0.188-0.044,0.418-0.083,0.691s-0.094,0.576-0.166,0.908c-0.072,0.33-0.165,0.666-0.278,1.004
		c-0.114,0.338-0.252,0.666-0.415,0.98c-0.163,0.316-0.353,0.596-0.571,0.84c-0.218,0.244-0.469,0.439-0.751,0.59
		C51.896,29.924,51.576,30,51.218,30c-0.357,0-0.67-0.082-0.937-0.244c-0.267-0.164-0.494-0.383-0.683-0.658
		c-0.189-0.277-0.346-0.6-0.474-0.967c-0.126-0.367-0.226-0.756-0.297-1.166c-0.071-0.408-0.122-0.826-0.151-1.254
		C48.648,25.285,48.633,24.875,48.633,24.479z M51.238,19.795c-0.026,0-0.055,0.072-0.087,0.219
		c-0.033,0.146-0.063,0.336-0.093,0.566c-0.029,0.23-0.057,0.49-0.083,0.775c-0.026,0.287-0.049,0.568-0.068,0.844
		c-0.02,0.277-0.036,0.533-0.049,0.771c-0.013,0.236-0.02,0.424-0.02,0.561c0,0.957,0.018,1.717,0.054,2.283
		c0.035,0.564,0.081,0.994,0.136,1.287c0.055,0.293,0.117,0.482,0.185,0.572c0.069,0.086,0.138,0.131,0.21,0.131
		c0.221,0,0.398-0.102,0.532-0.303c0.133-0.201,0.234-0.457,0.303-0.766c0.068-0.309,0.113-0.648,0.137-1.014
		c0.022-0.369,0.034-0.723,0.034-1.061c0-0.227-0.018-0.508-0.053-0.838c-0.037-0.332-0.085-0.678-0.147-1.039
		s-0.133-0.721-0.215-1.078c-0.081-0.357-0.165-0.678-0.253-0.961c-0.087-0.283-0.177-0.512-0.268-0.688
		C51.4,19.883,51.316,19.795,51.238,19.795z M53.609,9.15c-0.377,0.938-0.673,1.762-0.888,2.473
		c-0.214,0.713-0.377,1.346-0.488,1.898c-0.11,0.553-0.188,1.039-0.234,1.459s-0.091,0.809-0.137,1.166
		c0.397-0.748,0.797-1.484,1.2-2.211c0.403-0.725,0.768-1.398,1.093-2.02s0.59-1.168,0.795-1.643
		c0.205-0.475,0.307-0.836,0.307-1.084c0-0.344-0.049-0.596-0.146-0.756c-0.098-0.16-0.231-0.24-0.4-0.24
		c-0.299,0-0.526,0.08-0.683,0.24S53.732,8.832,53.609,9.15z"/>
	<path fill="#545454" d="M62.204,22.029c-0.234,0.213-0.526,0.443-0.874,0.688c-0.348,0.244-0.724,0.469-1.126,0.672
		c-0.403,0.207-0.814,0.377-1.234,0.514c-0.419,0.137-0.818,0.205-1.195,0.205c-0.338,0-0.623-0.049-0.854-0.143
		c-0.231-0.094-0.418-0.225-0.561-0.395c-0.143-0.168-0.246-0.375-0.307-0.619c-0.062-0.244-0.093-0.514-0.093-0.805
		c0-0.41,0.047-0.887,0.141-1.43s0.21-1.105,0.347-1.688s0.281-1.162,0.434-1.742c0.153-0.578,0.288-1.111,0.405-1.6
		c0.046-0.168,0.137-0.314,0.273-0.434c0.136-0.121,0.291-0.219,0.463-0.293c0.172-0.074,0.352-0.131,0.536-0.166
		c0.186-0.037,0.353-0.055,0.503-0.055c0.273,0,0.458,0.051,0.556,0.152c0.097,0.1,0.146,0.236,0.146,0.404
		c0,0.145-0.032,0.35-0.097,0.619c-0.065,0.271-0.146,0.576-0.244,0.918s-0.202,0.709-0.312,1.102
		c-0.111,0.395-0.215,0.787-0.313,1.182c-0.098,0.393-0.179,0.777-0.244,1.15c-0.065,0.375-0.098,0.711-0.098,1.01
		c0,0.293,0.033,0.525,0.098,0.697s0.198,0.26,0.4,0.26c0.234,0,0.494-0.082,0.78-0.244s0.576-0.359,0.869-0.592
		c0.292-0.23,0.579-0.469,0.858-0.717c0.28-0.246,0.527-0.457,0.742-0.633V22.029z M57.843,12c0-0.15,0.033-0.318,0.098-0.508
		c0.065-0.188,0.17-0.365,0.317-0.531c0.146-0.166,0.341-0.307,0.585-0.42c0.243-0.113,0.547-0.17,0.912-0.17
		c0.228,0,0.442,0.025,0.644,0.078c0.202,0.051,0.377,0.131,0.527,0.238s0.268,0.248,0.356,0.424
		c0.087,0.176,0.131,0.385,0.131,0.625c0,0.221-0.036,0.436-0.107,0.645c-0.071,0.207-0.185,0.393-0.341,0.557
		c-0.156,0.162-0.353,0.293-0.59,0.395c-0.238,0.1-0.522,0.15-0.854,0.15c-0.572,0-0.995-0.135-1.269-0.404
		C57.979,12.807,57.843,12.447,57.843,12z"/>
	<path fill="#545454" d="M64.525,24.107c-0.598,0-1.124-0.111-1.575-0.332c-0.452-0.221-0.831-0.518-1.137-0.887
		c-0.306-0.373-0.537-0.801-0.692-1.289c-0.156-0.488-0.234-0.996-0.234-1.521c0-0.377,0.039-0.771,0.117-1.182
		c0.078-0.408,0.193-0.811,0.347-1.205c0.152-0.393,0.341-0.768,0.565-1.125c0.224-0.357,0.484-0.672,0.781-0.943
		c0.295-0.27,0.626-0.482,0.99-0.643c0.364-0.16,0.765-0.24,1.2-0.24c0.371,0,0.714,0.057,1.029,0.172
		c0.315,0.113,0.586,0.271,0.81,0.473c0.225,0.201,0.4,0.441,0.526,0.717c0.128,0.277,0.191,0.574,0.191,0.895
		c0,0.221-0.029,0.438-0.088,0.652s-0.146,0.408-0.26,0.58c-0.113,0.172-0.251,0.311-0.414,0.414
		c-0.162,0.105-0.344,0.156-0.546,0.156c-0.306,0-0.506-0.08-0.601-0.242c-0.094-0.164-0.141-0.389-0.141-0.674
		c0-0.117,0.004-0.24,0.015-0.371c0.009-0.131,0.015-0.248,0.015-0.352c0-0.156-0.017-0.285-0.049-0.391
		c-0.033-0.104-0.104-0.156-0.215-0.156c-0.268,0-0.494,0.064-0.684,0.191c-0.188,0.127-0.35,0.293-0.482,0.498
		c-0.134,0.205-0.239,0.436-0.316,0.691c-0.078,0.258-0.141,0.514-0.186,0.766c-0.045,0.254-0.075,0.496-0.088,0.727
		c-0.013,0.232-0.02,0.426-0.02,0.582c0,0.234,0.021,0.479,0.063,0.73c0.042,0.254,0.123,0.486,0.239,0.697
		c0.117,0.213,0.276,0.389,0.479,0.527c0.201,0.141,0.462,0.211,0.78,0.211c0.313,0,0.656-0.096,1.034-0.289
		c0.377-0.191,0.757-0.434,1.136-0.727c0.381-0.293,0.744-0.615,1.089-0.967c0.345-0.35,0.641-0.682,0.888-0.994l0.673,1.133
		c-0.487,0.695-1.015,1.316-1.58,1.863c-0.241,0.234-0.503,0.461-0.785,0.682c-0.284,0.223-0.579,0.418-0.889,0.59
		c-0.309,0.174-0.631,0.313-0.966,0.42S64.871,24.107,64.525,24.107z"/>
	<path fill="#545454" d="M74.682,16.801c0.189,0.377,0.33,0.773,0.425,1.193c0.094,0.42,0.142,0.822,0.142,1.205
		c0,0.385-0.043,0.771-0.127,1.162c-0.085,0.389-0.207,0.768-0.365,1.131c-0.16,0.365-0.355,0.707-0.586,1.023
		c-0.231,0.32-0.494,0.596-0.791,0.83c-0.295,0.234-0.619,0.42-0.971,0.557c-0.351,0.137-0.725,0.205-1.121,0.205
		c-0.572,0-1.063-0.125-1.469-0.375c-0.406-0.252-0.74-0.578-1-0.982c-0.26-0.402-0.451-0.857-0.57-1.365
		c-0.121-0.508-0.181-1.02-0.181-1.541c0-0.715,0.107-1.385,0.321-2.006c0.215-0.621,0.522-1.16,0.923-1.619
		c0.399-0.459,0.89-0.818,1.468-1.082c0.579-0.264,1.229-0.396,1.951-0.396c0.618,0,1.197,0.096,1.736,0.289
		c0.541,0.191,1.046,0.449,1.518,0.77c0.471,0.322,0.91,0.691,1.316,1.107s0.786,0.846,1.137,1.289l-0.186,1.375
		c-0.175-0.234-0.412-0.488-0.711-0.762c-0.3-0.273-0.617-0.539-0.951-0.799c-0.336-0.26-0.666-0.506-0.99-0.736
		c-0.326-0.232-0.605-0.426-0.84-0.582L74.682,16.801z M71.668,22.234c0.221,0,0.436-0.113,0.643-0.338
		c0.209-0.225,0.391-0.506,0.547-0.848s0.281-0.719,0.376-1.133c0.094-0.412,0.142-0.807,0.142-1.186
		c0-0.299-0.023-0.576-0.068-0.834c-0.046-0.256-0.114-0.479-0.205-0.668c-0.092-0.188-0.209-0.338-0.352-0.449
		c-0.143-0.109-0.315-0.166-0.518-0.166c-0.266,0-0.52,0.115-0.76,0.344c-0.241,0.227-0.453,0.518-0.635,0.871
		c-0.182,0.355-0.325,0.746-0.43,1.176c-0.104,0.43-0.156,0.844-0.156,1.24c0,0.273,0.027,0.529,0.078,0.771
		c0.053,0.24,0.134,0.449,0.244,0.629c0.111,0.178,0.258,0.32,0.439,0.428S71.414,22.234,71.668,22.234z"/>
</g>
</svg>
