<?xml version="1.0" encoding="utf-8"?>
<!-- Generator: Adobe Illustrator 16.0.0, SVG Export Plug-In . SVG Version: 6.00 Build 0)  -->
<!DOCTYPE svg PUBLIC "-//W3C//DTD SVG 1.1//EN" "http://www.w3.org/Graphics/SVG/1.1/DTD/svg11.dtd">
<svg version="1.1" id="图层_1" xmlns="http://www.w3.org/2000/svg" xmlns:xlink="http://www.w3.org/1999/xlink" x="0px" y="0px"
	 width="258px" height="36px" viewBox="0 0 258 36" enable-background="new 0 0 258 36" xml:space="preserve">
<g>
	<path fill="#545454" d="M16.892,21.953c0,0.516,0.054,0.891,0.161,1.127c0.107,0.232,0.301,0.393,0.583,0.48
		c0.281,0.086,0.727,0.141,1.336,0.162v0.41c-0.709-0.039-1.718-0.061-3.023-0.061c-1.179,0-2.056,0.021-2.632,0.061v-0.41
		c0.496-0.021,0.855-0.076,1.08-0.162c0.224-0.088,0.378-0.248,0.462-0.48c0.084-0.236,0.126-0.611,0.126-1.127V11.748
		c0-0.518-0.042-0.893-0.126-1.125c-0.083-0.236-0.238-0.396-0.462-0.482c-0.225-0.088-0.584-0.141-1.08-0.16V9.568
		c0.569,0.039,1.406,0.059,2.511,0.059c0.536,0,1.126-0.006,1.773-0.02c0.646-0.014,1.089-0.02,1.331-0.02
		c1.078,0,1.989,0.17,2.732,0.506c0.743,0.34,1.301,0.813,1.672,1.422c0.372,0.609,0.558,1.32,0.558,2.131
		c0,0.75-0.167,1.473-0.502,2.17c-0.334,0.695-0.906,1.275-1.712,1.736c-0.807,0.463-1.874,0.693-3.2,0.693h-1.587V21.953z
		 M21.061,16.76c0.516-0.717,0.773-1.68,0.773-2.893c0-0.885-0.114-1.609-0.342-2.18c-0.228-0.568-0.591-0.996-1.09-1.281
		c-0.499-0.285-1.16-0.426-1.984-0.426c-0.429,0-0.75,0.047-0.964,0.145s-0.362,0.27-0.442,0.518
		c-0.081,0.248-0.121,0.615-0.121,1.105v6.086h1.386C19.617,17.834,20.545,17.477,21.061,16.76z"/>
	<path fill="#545454" d="M28.329,23.119c0.103,0.215,0.267,0.365,0.492,0.451c0.224,0.088,0.531,0.131,0.919,0.131v0.432
		c-1.259-0.053-2.089-0.08-2.491-0.08s-1.232,0.027-2.492,0.08v-0.432c0.389,0,0.695-0.043,0.919-0.131
		c0.224-0.086,0.388-0.236,0.492-0.451c0.104-0.215,0.156-0.512,0.156-0.895V10.471c0-0.635-0.116-1.096-0.346-1.381
		c-0.232-0.283-0.638-0.426-1.221-0.426V8.23c0.429,0.041,0.854,0.063,1.276,0.063c0.884,0,1.597-0.098,2.14-0.293v14.225
		C28.172,22.607,28.224,22.904,28.329,23.119z"/>
	<path fill="#545454" d="M36.274,14.104c-0.331-0.291-0.802-0.438-1.411-0.438c-0.971,0-1.651,0.244-2.039,0.734
		c0.274,0.066,0.503,0.211,0.688,0.436c0.184,0.225,0.276,0.498,0.276,0.818c0,0.35-0.109,0.623-0.327,0.82
		c-0.218,0.197-0.511,0.297-0.879,0.297c-0.348,0-0.622-0.119-0.818-0.354c-0.198-0.234-0.297-0.541-0.297-0.924
		c0-0.535,0.322-1.023,0.964-1.467c0.335-0.221,0.748-0.404,1.241-0.551c0.492-0.148,1.039-0.223,1.642-0.223
		c0.563,0,1.058,0.068,1.487,0.207c0.428,0.137,0.763,0.326,1.004,0.566c0.315,0.322,0.53,0.695,0.648,1.121
		c0.117,0.424,0.176,1.012,0.176,1.762v5.717c0,0.342,0.048,0.59,0.146,0.742c0.097,0.154,0.259,0.232,0.487,0.232
		c0.167,0,0.321-0.037,0.462-0.111s0.295-0.18,0.462-0.32l0.231,0.352c-0.241,0.18-0.442,0.32-0.603,0.42
		c-0.161,0.102-0.345,0.182-0.553,0.242s-0.449,0.09-0.723,0.09c-0.663,0-1.124-0.164-1.382-0.496
		c-0.258-0.332-0.386-0.775-0.386-1.332c-0.402,0.664-0.884,1.135-1.447,1.412s-1.135,0.416-1.718,0.416
		c-0.475,0-0.911-0.082-1.306-0.246s-0.712-0.418-0.95-0.762c-0.238-0.346-0.356-0.775-0.356-1.293c0-0.521,0.127-0.967,0.382-1.336
		c0.254-0.367,0.613-0.689,1.075-0.969c0.462-0.277,1.082-0.58,1.858-0.91c0.134-0.053,0.462-0.188,0.985-0.4
		c0.522-0.215,0.898-0.43,1.13-0.643c0.23-0.215,0.346-0.449,0.346-0.703v-1.275C36.771,14.939,36.606,14.395,36.274,14.104z
		 M36.269,18.287c-0.234,0.135-0.723,0.381-1.466,0.744c-0.396,0.188-0.73,0.381-1.005,0.576c-0.274,0.197-0.509,0.463-0.703,0.799
		c-0.194,0.334-0.291,0.746-0.291,1.236c0,0.596,0.15,1.047,0.452,1.35c0.301,0.307,0.7,0.459,1.196,0.459
		c0.911,0,1.684-0.52,2.32-1.559v-4.037C36.671,18.008,36.503,18.152,36.269,18.287z"/>
	<path fill="#545454" d="M48.926,13.596c0.609,0,1.132-0.02,1.567-0.061v0.412c-0.275,0.033-0.519,0.158-0.733,0.373
		c-0.214,0.213-0.416,0.572-0.603,1.074l-3.375,8.84l-0.703,1.787c-0.261,0.678-0.556,1.158-0.884,1.447
		C43.807,27.824,43.271,28,42.588,28c-0.409,0-0.744-0.109-1.005-0.326s-0.392-0.52-0.392-0.908c0-0.328,0.097-0.592,0.292-0.789
		c0.194-0.197,0.462-0.297,0.803-0.297c0.302,0,0.551,0.084,0.749,0.252c0.197,0.166,0.296,0.404,0.296,0.713
		c0,0.408-0.184,0.717-0.552,0.924c0.026,0.014,0.067,0.021,0.12,0.021c0.757,0,1.339-0.537,1.748-1.607l0.733-1.879l-3.737-8.98
		c-0.234-0.477-0.467-0.787-0.698-0.936c-0.231-0.146-0.464-0.221-0.698-0.221v-0.432c0.643,0.088,1.316,0.131,2.019,0.131
		c0.589,0,1.48-0.043,2.672-0.131v0.432c-0.335,0-0.596,0.012-0.784,0.035c-0.188,0.025-0.343,0.088-0.467,0.191
		s-0.186,0.266-0.186,0.488c0,0.246,0.087,0.586,0.261,1.014l2.481,6.148l2.271-5.957c0.147-0.402,0.221-0.717,0.221-0.945
		c0-0.322-0.122-0.559-0.367-0.713s-0.634-0.248-1.17-0.281v-0.412C47.922,13.576,48.498,13.596,48.926,13.596z"/>
	<path fill="#545454" d="M52.824,11.512c0.067-0.547,0.176-1.01,0.326-1.393c0.151-0.381,0.36-0.729,0.628-1.045
		c0.268-0.32,0.616-0.574,1.045-0.758c0.428-0.184,0.894-0.275,1.396-0.275c0.703,0,1.299,0.188,1.788,0.563
		c0.429,0.348,0.643,0.773,0.643,1.275c0,0.314-0.103,0.574-0.306,0.779c-0.205,0.203-0.467,0.305-0.789,0.305
		c-0.315,0-0.582-0.1-0.799-0.301c-0.218-0.199-0.327-0.469-0.327-0.803c0-0.281,0.079-0.516,0.236-0.699
		c0.158-0.184,0.367-0.303,0.628-0.355c-0.041-0.127-0.151-0.234-0.332-0.322c-0.181-0.086-0.409-0.131-0.683-0.131
		c-0.609,0-1.055,0.254-1.336,0.764c-0.154,0.275-0.255,0.686-0.302,1.23c-0.047,0.547-0.07,1.439-0.07,2.678v0.533h2.21v0.41h-2.21
		v8.047c0,0.637,0.181,1.076,0.542,1.32c0.362,0.246,0.908,0.367,1.638,0.367v0.432c-1.688-0.053-2.743-0.08-3.165-0.08
		c-0.335,0-1.145,0.027-2.431,0.08v-0.432c0.389,0,0.695-0.043,0.919-0.131c0.224-0.086,0.388-0.236,0.492-0.451
		c0.104-0.215,0.156-0.512,0.156-0.895v-8.258h-1.647v-0.41h1.647C52.724,12.738,52.757,12.059,52.824,11.512z"/>
	<path fill="#545454" d="M63.457,14.104c-0.331-0.291-0.802-0.438-1.411-0.438c-0.971,0-1.651,0.244-2.04,0.734
		c0.275,0.066,0.504,0.211,0.688,0.436c0.184,0.225,0.276,0.498,0.276,0.818c0,0.35-0.109,0.623-0.327,0.82
		c-0.217,0.197-0.51,0.297-0.878,0.297c-0.349,0-0.622-0.119-0.819-0.354c-0.198-0.234-0.296-0.541-0.296-0.924
		c0-0.535,0.321-1.023,0.964-1.467c0.335-0.221,0.748-0.404,1.241-0.551c0.492-0.148,1.04-0.223,1.643-0.223
		c0.563,0,1.058,0.068,1.486,0.207c0.429,0.137,0.764,0.326,1.005,0.566c0.314,0.322,0.53,0.695,0.648,1.121
		c0.117,0.424,0.176,1.012,0.176,1.762v5.717c0,0.342,0.048,0.59,0.146,0.742c0.097,0.154,0.259,0.232,0.487,0.232
		c0.167,0,0.321-0.037,0.462-0.111s0.295-0.18,0.462-0.32l0.231,0.352c-0.241,0.18-0.442,0.32-0.603,0.42
		c-0.161,0.102-0.345,0.182-0.552,0.242s-0.449,0.09-0.724,0.09c-0.663,0-1.124-0.164-1.381-0.496s-0.386-0.775-0.386-1.332
		c-0.402,0.664-0.884,1.135-1.447,1.412s-1.135,0.416-1.718,0.416c-0.476,0-0.911-0.082-1.306-0.246
		c-0.396-0.164-0.712-0.418-0.95-0.762c-0.238-0.346-0.356-0.775-0.356-1.293c0-0.521,0.127-0.967,0.382-1.336
		c0.254-0.367,0.613-0.689,1.075-0.969c0.462-0.277,1.082-0.58,1.858-0.91c0.134-0.053,0.462-0.188,0.984-0.4
		c0.522-0.215,0.899-0.43,1.13-0.643c0.231-0.215,0.347-0.449,0.347-0.703v-1.275C63.955,14.939,63.789,14.395,63.457,14.104z
		 M63.452,18.287c-0.234,0.135-0.723,0.381-1.467,0.744c-0.395,0.188-0.73,0.381-1.004,0.576c-0.274,0.197-0.509,0.463-0.703,0.799
		c-0.194,0.334-0.292,0.746-0.292,1.236c0,0.596,0.151,1.047,0.452,1.35c0.301,0.307,0.7,0.459,1.195,0.459
		c0.911,0,1.685-0.52,2.321-1.559v-4.037C63.854,18.008,63.687,18.152,63.452,18.287z"/>
	<path fill="#545454" d="M71.785,23.119c0.103,0.215,0.267,0.365,0.492,0.451c0.224,0.088,0.531,0.131,0.919,0.131v0.432
		c-1.259-0.053-2.089-0.08-2.491-0.08s-1.232,0.027-2.491,0.08v-0.432c0.388,0,0.694-0.043,0.919-0.131
		c0.224-0.086,0.388-0.236,0.492-0.451c0.104-0.215,0.156-0.512,0.156-0.895v-6.439c0-0.635-0.116-1.098-0.346-1.385
		c-0.231-0.289-0.638-0.434-1.221-0.434v-0.432c0.428,0.041,0.854,0.061,1.275,0.061c0.871,0,1.584-0.094,2.14-0.281v8.91
		C71.629,22.607,71.681,22.904,71.785,23.119z M71.217,8.574c0.201,0.119,0.362,0.281,0.482,0.482
		c0.121,0.199,0.181,0.418,0.181,0.652s-0.061,0.453-0.181,0.658c-0.12,0.203-0.281,0.365-0.482,0.48
		c-0.201,0.117-0.418,0.178-0.653,0.178s-0.454-0.061-0.658-0.178c-0.205-0.115-0.365-0.277-0.482-0.48
		c-0.117-0.205-0.175-0.424-0.175-0.658s0.058-0.453,0.175-0.652c0.117-0.201,0.278-0.363,0.482-0.482
		c0.204-0.121,0.424-0.182,0.658-0.182S71.016,8.453,71.217,8.574z"/>
	<path fill="#545454" d="M78.324,14.641c0.292-0.402,0.638-0.734,1.04-0.994c0.402-0.262,0.827-0.393,1.275-0.393
		c0.362,0,0.685,0.072,0.97,0.217c0.284,0.145,0.507,0.34,0.668,0.586c0.161,0.25,0.241,0.52,0.241,0.814
		c0,0.361-0.107,0.668-0.322,0.92c-0.214,0.25-0.499,0.377-0.854,0.377c-0.302,0-0.56-0.096-0.774-0.287
		c-0.214-0.189-0.321-0.449-0.321-0.779c0-0.447,0.234-0.818,0.703-1.113c-0.094-0.135-0.238-0.201-0.432-0.201
		c-0.542,0-1.032,0.207-1.467,0.623c-0.436,0.414-0.777,0.928-1.025,1.535c-0.248,0.611-0.372,1.18-0.372,1.709v4.359
		c0,0.637,0.181,1.076,0.542,1.32c0.362,0.246,0.908,0.367,1.638,0.367v0.432c-1.688-0.053-2.743-0.08-3.165-0.08
		c-0.362,0-1.172,0.027-2.431,0.08v-0.432c0.389,0,0.695-0.043,0.919-0.131c0.224-0.086,0.388-0.236,0.492-0.451
		c0.104-0.215,0.156-0.512,0.156-0.895v-6.439c0-0.635-0.116-1.098-0.346-1.385c-0.232-0.289-0.638-0.434-1.221-0.434v-0.432
		c0.429,0.041,0.854,0.061,1.276,0.061c0.871,0,1.584-0.094,2.14-0.281v2.572C77.811,15.459,78.033,15.043,78.324,14.641z"/>
	<path fill="#545454" d="M90.364,9.637l0.502-0.01c1.889-0.039,2.923-0.059,3.104-0.059c2.424,0,4.241,0.605,5.449,1.818
		c1.209,1.211,1.813,2.979,1.813,5.303c0,1.494-0.293,2.803-0.878,3.924c-0.587,1.121-1.438,1.988-2.557,2.602
		c-1.118,0.613-2.454,0.918-4.008,0.918c-0.188,0-0.635-0.01-1.341-0.029s-1.221-0.031-1.542-0.031
		c-1.125,0-1.976,0.021-2.551,0.061v-0.41c0.496-0.021,0.855-0.076,1.08-0.162c0.224-0.088,0.378-0.248,0.462-0.48
		c0.084-0.236,0.126-0.611,0.126-1.127V11.748c0-0.518-0.042-0.893-0.126-1.125c-0.083-0.236-0.238-0.396-0.462-0.482
		c-0.225-0.088-0.584-0.141-1.08-0.16V9.568C89.091,9.615,89.761,9.637,90.364,9.637z M92.051,23.104
		c0.081,0.246,0.229,0.416,0.447,0.512c0.217,0.098,0.544,0.146,0.979,0.146c1.46,0,2.605-0.264,3.436-0.793
		s1.415-1.301,1.753-2.316c0.338-1.014,0.507-2.309,0.507-3.881c0-1.582-0.184-2.869-0.553-3.863
		c-0.368-0.994-0.97-1.738-1.803-2.23c-0.834-0.492-1.954-0.738-3.36-0.738c-0.429,0-0.75,0.049-0.964,0.146
		s-0.362,0.27-0.442,0.516c-0.08,0.248-0.12,0.617-0.12,1.105v10.287C91.931,22.49,91.971,22.859,92.051,23.104z"/>
	<path fill="#545454" d="M106.532,23.119c0.104,0.215,0.268,0.365,0.492,0.451c0.225,0.088,0.531,0.131,0.919,0.131v0.432
		c-1.259-0.053-2.089-0.08-2.491-0.08s-1.232,0.027-2.491,0.08v-0.432c0.388,0,0.694-0.043,0.919-0.131
		c0.224-0.086,0.388-0.236,0.492-0.451c0.104-0.215,0.156-0.512,0.156-0.895v-6.439c0-0.635-0.116-1.098-0.346-1.385
		c-0.231-0.289-0.638-0.434-1.221-0.434v-0.432c0.429,0.041,0.854,0.061,1.276,0.061c0.871,0,1.583-0.094,2.14-0.281v8.91
		C106.376,22.607,106.428,22.904,106.532,23.119z M105.964,8.574c0.201,0.119,0.362,0.281,0.482,0.482
		c0.121,0.199,0.181,0.418,0.181,0.652s-0.06,0.453-0.181,0.658c-0.121,0.203-0.281,0.365-0.482,0.48
		c-0.201,0.117-0.418,0.178-0.653,0.178s-0.454-0.061-0.658-0.178c-0.204-0.115-0.365-0.277-0.482-0.48
		c-0.117-0.205-0.175-0.424-0.175-0.658s0.058-0.453,0.175-0.652c0.117-0.201,0.278-0.363,0.482-0.482
		c0.204-0.121,0.424-0.182,0.658-0.182S105.764,8.453,105.964,8.574z"/>
	<path fill="#545454" d="M110.515,22.266c0.188,0.549,0.476,0.977,0.864,1.285c0.389,0.309,0.911,0.463,1.567,0.463
		c0.302,0,0.591-0.066,0.869-0.197c0.278-0.129,0.508-0.342,0.688-0.633c0.181-0.291,0.271-0.666,0.271-1.131
		c0-0.375-0.096-0.711-0.286-1.008c-0.191-0.299-0.44-0.566-0.749-0.805c-0.308-0.236-0.74-0.531-1.296-0.879
		c-0.676-0.428-1.194-0.779-1.552-1.055c-0.359-0.273-0.662-0.609-0.91-1.004c-0.248-0.395-0.372-0.861-0.372-1.396
		c0-0.582,0.137-1.072,0.412-1.473c0.274-0.396,0.641-0.693,1.1-0.889c0.458-0.193,0.97-0.291,1.532-0.291
		c0.482,0,0.916,0.078,1.301,0.23c0.385,0.154,0.698,0.328,0.939,0.523c0.147,0.113,0.268,0.17,0.361,0.17
		c0.241,0,0.395-0.301,0.462-0.902h0.472c-0.053,0.67-0.08,1.834-0.08,3.496h-0.473c-0.146-0.906-0.438-1.652-0.874-2.242
		c-0.435-0.588-1.078-0.883-1.929-0.883c-0.496,0-0.901,0.139-1.215,0.416c-0.315,0.277-0.472,0.664-0.472,1.16
		c0,0.477,0.162,0.873,0.487,1.191c0.324,0.318,0.716,0.621,1.175,0.908c0.459,0.289,0.786,0.496,0.98,0.623
		c0.629,0.408,1.136,0.771,1.521,1.09c0.385,0.318,0.696,0.684,0.934,1.096c0.238,0.41,0.357,0.881,0.357,1.41
		c0,0.609-0.159,1.131-0.478,1.563c-0.317,0.432-0.745,0.76-1.28,0.984c-0.536,0.225-1.122,0.336-1.758,0.336
		c-0.609,0-1.152-0.096-1.627-0.291c-0.268-0.133-0.549-0.316-0.844-0.553c-0.053-0.053-0.117-0.08-0.19-0.08
		c-0.201,0-0.342,0.258-0.422,0.773h-0.472c0.053-0.783,0.08-2.152,0.08-4.109h0.472C110.184,21.016,110.328,21.717,110.515,22.266z
		"/>
	<path fill="#545454" d="M122.761,13.838c0.576-0.389,1.232-0.584,1.969-0.584c0.73,0,1.385,0.197,1.964,0.594
		c0.579,0.395,1.034,0.977,1.366,1.748c0.331,0.77,0.497,1.689,0.497,2.762c0,1.053-0.167,2.037-0.503,2.959
		c-0.334,0.92-0.855,1.67-1.561,2.244c-0.707,0.576-1.59,0.863-2.648,0.863c-0.521,0-0.996-0.102-1.421-0.307
		c-0.425-0.203-0.755-0.473-0.989-0.807v2.631c0,0.557,0.164,0.943,0.492,1.16s0.824,0.326,1.486,0.326v0.434
		c-0.174-0.008-0.564-0.025-1.17-0.051c-0.606-0.027-1.204-0.041-1.793-0.041c-0.436,0-0.885,0.014-1.346,0.041
		c-0.463,0.025-0.754,0.043-0.875,0.051v-0.434c0.503,0,0.854-0.092,1.055-0.275c0.201-0.186,0.302-0.518,0.302-1V15.785
		c0-0.635-0.116-1.098-0.347-1.385c-0.23-0.289-0.638-0.434-1.221-0.434v-0.432c0.43,0.041,0.854,0.061,1.276,0.061
		c0.87,0,1.583-0.094,2.14-0.281v2.17C121.743,14.775,122.185,14.227,122.761,13.838z M122.288,23.596
		c0.369,0.238,0.811,0.357,1.326,0.357c1.963,0,2.943-1.771,2.943-5.314c0-3.18-0.797-4.771-2.391-4.771
		c-0.623,0-1.181,0.223-1.672,0.668c-0.493,0.445-0.846,1.09-1.061,1.934v6.158C121.636,23.035,121.92,23.359,122.288,23.596z"/>
	<path fill="#545454" d="M133.544,23.119c0.104,0.215,0.268,0.365,0.492,0.451c0.225,0.088,0.531,0.131,0.92,0.131v0.432
		c-1.26-0.053-2.09-0.08-2.492-0.08c-0.401,0-1.232,0.027-2.49,0.08v-0.432c0.388,0,0.693-0.043,0.919-0.131
		c0.224-0.086,0.388-0.236,0.491-0.451s0.156-0.512,0.156-0.895V10.471c0-0.635-0.115-1.096-0.346-1.381
		c-0.232-0.283-0.639-0.426-1.221-0.426V8.23c0.428,0.041,0.854,0.063,1.275,0.063c0.884,0,1.598-0.098,2.14-0.293v14.225
		C133.389,22.607,133.44,22.904,133.544,23.119z"/>
	<path fill="#545454" d="M141.489,14.104c-0.33-0.291-0.801-0.438-1.41-0.438c-0.971,0-1.651,0.244-2.039,0.734
		c0.273,0.066,0.504,0.211,0.688,0.436s0.276,0.498,0.276,0.818c0,0.35-0.108,0.623-0.327,0.82c-0.217,0.197-0.51,0.297-0.879,0.297
		c-0.348,0-0.621-0.119-0.818-0.354s-0.296-0.541-0.296-0.924c0-0.535,0.321-1.023,0.964-1.467c0.335-0.221,0.748-0.404,1.241-0.551
		c0.491-0.148,1.04-0.223,1.642-0.223c0.563,0,1.059,0.068,1.487,0.207c0.429,0.137,0.763,0.326,1.005,0.566
		c0.314,0.322,0.53,0.695,0.648,1.121c0.116,0.424,0.175,1.012,0.175,1.762v5.717c0,0.342,0.048,0.59,0.146,0.742
		c0.098,0.154,0.26,0.232,0.487,0.232c0.167,0,0.321-0.037,0.462-0.111s0.295-0.18,0.463-0.32l0.23,0.352
		c-0.241,0.18-0.441,0.32-0.603,0.42c-0.161,0.102-0.345,0.182-0.553,0.242s-0.448,0.09-0.724,0.09
		c-0.662,0-1.123-0.164-1.381-0.496s-0.387-0.775-0.387-1.332c-0.402,0.664-0.884,1.135-1.446,1.412s-1.136,0.416-1.718,0.416
		c-0.476,0-0.911-0.082-1.307-0.246c-0.395-0.164-0.711-0.418-0.949-0.762c-0.237-0.346-0.355-0.775-0.355-1.293
		c0-0.521,0.127-0.967,0.381-1.336c0.255-0.367,0.613-0.689,1.075-0.969c0.462-0.277,1.081-0.58,1.858-0.91
		c0.134-0.053,0.462-0.188,0.984-0.4c0.522-0.215,0.898-0.43,1.131-0.643c0.23-0.215,0.346-0.449,0.346-0.703v-1.275
		C141.987,14.939,141.821,14.395,141.489,14.104z M141.485,18.287c-0.234,0.135-0.724,0.381-1.467,0.744
		c-0.395,0.188-0.73,0.381-1.004,0.576c-0.275,0.197-0.51,0.463-0.704,0.799c-0.194,0.334-0.291,0.746-0.291,1.236
		c0,0.596,0.15,1.047,0.452,1.35c0.301,0.307,0.699,0.459,1.195,0.459c0.91,0,1.684-0.52,2.32-1.559v-4.037
		C141.887,18.008,141.72,18.152,141.485,18.287z"/>
	<path fill="#545454" d="M154.143,13.596c0.609,0,1.132-0.02,1.567-0.061v0.412c-0.275,0.033-0.52,0.158-0.734,0.373
		c-0.214,0.213-0.414,0.572-0.602,1.074l-3.376,8.84l-0.703,1.787c-0.261,0.678-0.556,1.158-0.884,1.447
		c-0.389,0.355-0.924,0.531-1.607,0.531c-0.408,0-0.743-0.109-1.004-0.326c-0.262-0.217-0.393-0.52-0.393-0.908
		c0-0.328,0.098-0.592,0.291-0.789c0.195-0.197,0.463-0.297,0.805-0.297c0.301,0,0.55,0.084,0.748,0.252
		c0.197,0.166,0.296,0.404,0.296,0.713c0,0.408-0.185,0.717-0.552,0.924c0.026,0.014,0.066,0.021,0.12,0.021
		c0.757,0,1.339-0.537,1.747-1.607l0.734-1.879l-3.737-8.98c-0.234-0.477-0.468-0.787-0.698-0.936
		c-0.23-0.146-0.464-0.221-0.698-0.221v-0.432c0.644,0.088,1.316,0.131,2.02,0.131c0.589,0,1.479-0.043,2.672-0.131v0.432
		c-0.335,0-0.597,0.012-0.784,0.035c-0.188,0.025-0.343,0.088-0.467,0.191s-0.186,0.266-0.186,0.488
		c0,0.246,0.087,0.586,0.262,1.014l2.48,6.148l2.271-5.957c0.147-0.402,0.222-0.717,0.222-0.945c0-0.322-0.123-0.559-0.367-0.713
		s-0.635-0.248-1.17-0.281v-0.412C153.138,13.576,153.714,13.596,154.143,13.596z"/>
</g>
</svg>
