<?xml version="1.0" encoding="utf-8"?>
<!-- Generator: Adobe Illustrator 16.0.0, SVG Export Plug-In . SVG Version: 6.00 Build 0)  -->
<!DOCTYPE svg PUBLIC "-//W3C//DTD SVG 1.1//EN" "http://www.w3.org/Graphics/SVG/1.1/DTD/svg11.dtd">
<svg version="1.1" id="图层_1" xmlns="http://www.w3.org/2000/svg" xmlns:xlink="http://www.w3.org/1999/xlink" x="0px" y="0px"
	 width="258px" height="36px" viewBox="0 0 258 36" enable-background="new 0 0 258 36" xml:space="preserve">
<g>
	<path fill="#545454" d="M27.073,12.148c-0.084,0.93-0.381,1.746-0.889,2.445c-0.508,0.697-1.157,1.236-1.947,1.617
		c-1.51,0.762-3.259,1.143-5.249,1.143c-0.353,0-0.677-0.021-0.974-0.063c-1.171,2.963-1.756,4.961-1.756,5.988
		c0,0.213,0.027,0.367,0.084,0.467h-2.729c0.395-1.707,1.227-4.078,2.497-7.111c1.693-4.035,2.787-6.328,3.28-6.879
		c-1.199,0.029-2.416,0.271-3.65,0.73c-1.236,0.459-1.952,1.006-2.148,1.639c-0.015,0.043-0.043,0.066-0.085,0.066
		c-0.127,0-0.191-0.092-0.191-0.277c0-0.027,0.014-0.098,0.043-0.211c0.268-0.775,0.656-1.377,1.164-1.799
		c0.508-0.424,1.005-0.686,1.492-0.783c0.487-0.098,1.09-0.148,1.809-0.148h5.354c1.284,0,2.254,0.275,2.91,0.826
		c0.657,0.549,0.984,1.242,0.984,2.074V12.148z M21.433,16.424c1.009-0.354,1.838-0.893,2.487-1.619
		c0.649-0.729,0.974-1.592,0.974-2.594c0-1.609-0.974-2.477-2.92-2.604c-0.932,1.158-2.06,3.26-3.387,6.309l-0.444,1.035h0.254
		C19.411,16.951,20.423,16.775,21.433,16.424z"/>
	<path fill="#545454" d="M33.231,10.836c-0.508,1.029-1.284,2.197-2.329,3.502s-1.982,2.354-2.815,3.143l-0.338,0.975
		c-0.169,0.494-0.332,1.092-0.487,1.799c-0.155,0.705-0.226,1.207-0.211,1.502c0,0.424,0.155,0.635,0.465,0.635
		s0.681-0.176,1.111-0.529c0.43-0.352,0.744-0.658,0.942-0.92c0.197-0.262,0.426-0.604,0.688-1.025
		c0.261-0.424,0.487-0.791,0.677-1.102c0.191-0.311,0.3-0.467,0.329-0.467c0.085,0,0.127,0.133,0.127,0.393
		c0,0.262-0.071,0.512-0.212,0.752c-0.776,1.313-1.404,2.236-1.883,2.771c-0.974,1.072-1.976,1.609-3.005,1.609
		c-0.791,0-1.186-0.537-1.186-1.609c0-1.057,0.473-2.904,1.418-5.545c0.07-0.225,0.232-0.697,0.486-1.418
		c0.254-0.719,0.473-1.279,0.656-1.682c0.183-0.402,0.43-0.936,0.74-1.598c0.311-0.664,0.61-1.191,0.9-1.588
		c0.289-0.395,0.61-0.797,0.963-1.207C30.959,8.408,31.708,8,32.512,8c0.804,0,1.206,0.367,1.206,1.1
		C33.718,9.664,33.556,10.242,33.231,10.836z M32.787,8.529h-0.148c-0.861,0-2.237,2.58-4.127,7.746
		c1.933-2.273,3.252-4.135,3.958-5.588c0.394-0.889,0.592-1.471,0.592-1.746S32.97,8.529,32.787,8.529z"/>
	<path fill="#545454" d="M39.073,15.279l1.058,0.021h0.211c-0.465,0.381-1.037,1.344-1.714,2.889
		c-0.677,1.545-1.016,2.67-1.016,3.377c0,0.365,0.127,0.549,0.381,0.549c0.818,0,1.863-1.205,3.132-3.619
		c0.057-0.098,0.106-0.148,0.148-0.148c0.085,0,0.127,0.133,0.127,0.393c0,0.262-0.07,0.512-0.212,0.752
		c-1.735,2.92-3.188,4.381-4.359,4.381c-0.762,0-1.143-0.586-1.143-1.758c0-0.875,0.148-1.734,0.445-2.58
		c-1.608,2.85-3.098,4.273-4.466,4.273c-0.945,0-1.418-0.648-1.418-1.947c0-0.986,0.215-1.988,0.646-3.004
		c0.43-1.018,1.047-1.881,1.852-2.594c0.804-0.711,1.686-1.068,2.646-1.068c0.451,0,0.875,0.104,1.27,0.307
		c0.395,0.205,0.656,0.531,0.783,0.984c0.155-0.324,0.395-0.607,0.72-0.848C38.487,15.4,38.791,15.279,39.073,15.279z
		 M37.316,16.678C37.175,16.225,36.843,16,36.321,16c-0.931,0-1.834,0.645-2.709,1.936c-0.875,1.291-1.313,2.445-1.313,3.461
		c0,0.438,0.17,0.656,0.508,0.656c0.367,0,0.797-0.229,1.292-0.688c0.493-0.459,0.938-0.998,1.333-1.619
		C36.308,18.363,36.935,17.34,37.316,16.678z"/>
	<path fill="#545454" d="M48.978,15.492h0.868c-0.438,0.268-0.882,0.932-1.334,1.988c-0.367,0.889-0.677,1.697-0.931,2.424
		c-0.254,0.729-0.409,1.168-0.465,1.322c-0.056,0.156-0.188,0.533-0.392,1.133c-0.205,0.6-0.37,1.063-0.498,1.387
		c-0.353,0.986-0.762,1.77-1.227,2.348c-0.466,0.58-1.044,1.041-1.736,1.387S41.873,28,41.167,28s-1.309-0.137-1.81-0.412
		s-0.751-0.709-0.751-1.303c0-0.311,0.095-0.588,0.285-0.836c0.191-0.246,0.41-0.371,0.656-0.371c0.248,0,0.456,0.057,0.625,0.17
		c0.17,0.113,0.29,0.24,0.36,0.381c-0.254,0.086-0.381,0.381-0.381,0.889c0,0.27,0.096,0.484,0.286,0.646s0.434,0.244,0.73,0.244
		c1.143,0,2.102-1.023,2.878-3.07l1.207-3.217c-0.664,0.832-1.238,1.457-1.725,1.873s-0.868,0.668-1.143,0.752
		c-0.275,0.084-0.6,0.127-0.974,0.127c-0.374,0-0.674-0.152-0.899-0.455c-0.226-0.303-0.335-0.748-0.328-1.334
		c0.007-0.586,0.176-1.422,0.508-2.508c0.331-1.086,0.698-1.947,1.1-2.582s0.818-1.045,1.249-1.227
		c0.43-0.184,1.019-0.275,1.767-0.275c0.056,0,0.085,0.027,0.085,0.084s-0.042,0.127-0.127,0.211
		c-0.579,0.51-1.168,1.418-1.767,2.732c-0.6,1.311-0.899,2.418-0.899,3.322c0,0.479,0.133,0.719,0.402,0.719
		c0.508,0,1.157-0.508,1.947-1.525c0.79-1.016,1.397-2.031,1.82-3.047c0.056-0.141,0.138-0.344,0.244-0.613
		c0.105-0.268,0.18-0.451,0.222-0.551c0.042-0.098,0.108-0.234,0.201-0.412c0.091-0.176,0.173-0.295,0.244-0.359
		c0.07-0.064,0.166-0.145,0.286-0.244c0.12-0.098,0.244-0.162,0.37-0.189C48.243,15.533,48.624,15.492,48.978,15.492z"/>
	<path fill="#545454" d="M59.665,18.328c0.085,0,0.127,0.131,0.127,0.391c0,0.262-0.042,0.463-0.127,0.604l-0.465,0.783
		c-0.691,1.143-1.256,1.904-1.693,2.285c-0.48,0.438-0.945,0.656-1.396,0.656c-0.592,0-0.988-0.275-1.186-0.824
		c-0.579,0.578-1.164,1.012-1.756,1.301c-0.593,0.289-1.256,0.434-1.99,0.434s-1.252-0.115-1.555-0.35
		c-0.304-0.232-0.456-0.619-0.456-1.162s0.085-1.162,0.254-1.854c0.438-1.861,1.171-4.053,2.202-6.57
		c1.03-2.52,1.841-3.855,2.434-4.012c0.183-0.041,0.519-0.066,1.005-0.074c0.487-0.006,0.78-0.018,0.878-0.031
		c-0.55,0.408-1.295,1.609-2.233,3.598c-0.938,1.99-1.646,3.9-2.126,5.736c1.524-2.695,2.963-4.043,4.318-4.043
		c0.959,0,1.438,0.688,1.438,2.064c0,1.375-0.578,2.775-1.735,4.201c0.014,0.238,0.084,0.43,0.211,0.57
		c0.127,0.143,0.289,0.211,0.487,0.211c0.197,0,0.413-0.086,0.646-0.264c0.233-0.176,0.409-0.33,0.529-0.465
		c0.119-0.135,0.278-0.328,0.476-0.582c0.197-0.254,0.43-0.596,0.698-1.027c0.268-0.43,0.497-0.799,0.688-1.111
		C59.527,18.482,59.637,18.328,59.665,18.328z M54.966,16.994c-0.042-0.014-0.151-0.021-0.328-0.021
		c-0.177,0-0.508,0.184-0.995,0.551c-0.487,0.367-1.055,1.068-1.704,2.105c-0.648,1.037-0.973,1.891-0.973,2.561
		c0,0.672,0.204,1.006,0.613,1.006c0.748,0,1.552-0.723,2.413-2.17c0.86-1.445,1.291-2.584,1.291-3.418
		C55.284,17.256,55.178,17.051,54.966,16.994z"/>
	<path fill="#545454" d="M67.453,15.279l1.059,0.021h0.211c-0.465,0.381-1.037,1.344-1.715,2.889
		c-0.677,1.545-1.016,2.67-1.016,3.377c0,0.365,0.127,0.549,0.381,0.549c0.818,0,1.863-1.205,3.133-3.619
		c0.057-0.098,0.105-0.148,0.148-0.148c0.084,0,0.127,0.133,0.127,0.393c0,0.262-0.07,0.512-0.212,0.752
		c-1.735,2.92-3.188,4.381-4.36,4.381c-0.762,0-1.143-0.586-1.143-1.758c0-0.875,0.148-1.734,0.445-2.58
		c-1.609,2.85-3.098,4.273-4.466,4.273c-0.945,0-1.418-0.648-1.418-1.947c0-0.986,0.215-1.988,0.646-3.004
		c0.43-1.018,1.048-1.881,1.852-2.594c0.804-0.711,1.686-1.068,2.646-1.068c0.451,0,0.874,0.104,1.271,0.307
		c0.395,0.205,0.655,0.531,0.782,0.984c0.155-0.324,0.395-0.607,0.72-0.848C66.867,15.4,67.171,15.279,67.453,15.279z
		 M65.696,16.678C65.556,16.225,65.224,16,64.701,16c-0.931,0-1.834,0.645-2.708,1.936c-0.875,1.291-1.313,2.445-1.313,3.461
		c0,0.438,0.17,0.656,0.508,0.656c0.367,0,0.797-0.229,1.292-0.688c0.493-0.459,0.938-0.998,1.333-1.619
		C64.688,18.363,65.315,17.34,65.696,16.678z"/>
	<path fill="#545454" d="M76.828,10.836c-0.508,1.029-1.283,2.197-2.327,3.502s-1.982,2.354-2.815,3.143l-0.338,0.975
		c-0.17,0.494-0.332,1.092-0.486,1.799c-0.156,0.705-0.227,1.207-0.213,1.502c0,0.424,0.156,0.635,0.467,0.635
		c0.31,0,0.68-0.176,1.111-0.529c0.43-0.352,0.743-0.658,0.941-0.92c0.197-0.262,0.426-0.604,0.688-1.025
		c0.261-0.424,0.486-0.791,0.678-1.102c0.189-0.311,0.299-0.467,0.328-0.467c0.084,0,0.127,0.133,0.127,0.393
		c0,0.262-0.071,0.512-0.212,0.752c-0.776,1.313-1.405,2.236-1.884,2.771c-0.975,1.072-1.976,1.609-3.006,1.609
		c-0.79,0-1.186-0.537-1.186-1.609c0-1.057,0.474-2.904,1.419-5.545c0.07-0.225,0.233-0.697,0.487-1.418
		c0.254-0.719,0.472-1.279,0.655-1.682s0.431-0.936,0.741-1.598c0.311-0.664,0.609-1.191,0.898-1.588
		c0.29-0.395,0.61-0.797,0.964-1.207C74.557,8.408,75.305,8,76.109,8s1.207,0.367,1.207,1.1
		C77.316,9.664,77.153,10.242,76.828,10.836z M76.385,8.529h-0.148c-0.861,0-2.236,2.58-4.127,7.746
		c1.933-2.273,3.252-4.135,3.957-5.588c0.395-0.889,0.594-1.471,0.594-1.746S76.567,8.529,76.385,8.529z"/>
	<path fill="#545454" d="M82.035,10.836c-0.508,1.029-1.284,2.197-2.328,3.502c-1.045,1.305-1.982,2.354-2.815,3.143l-0.339,0.975
		c-0.169,0.494-0.331,1.092-0.486,1.799c-0.155,0.705-0.226,1.207-0.211,1.502c0,0.424,0.154,0.635,0.465,0.635
		s0.682-0.176,1.111-0.529c0.43-0.352,0.744-0.658,0.941-0.92s0.428-0.604,0.688-1.025c0.261-0.424,0.486-0.791,0.677-1.102
		s0.301-0.467,0.328-0.467c0.085,0,0.127,0.133,0.127,0.393c0,0.262-0.07,0.512-0.211,0.752c-0.777,1.313-1.404,2.236-1.884,2.771
		c-0.974,1.072-1.976,1.609-3.005,1.609c-0.791,0-1.186-0.537-1.186-1.609c0-1.057,0.473-2.904,1.418-5.545
		c0.07-0.225,0.232-0.697,0.486-1.418c0.254-0.719,0.473-1.279,0.656-1.682s0.43-0.936,0.74-1.598c0.311-0.664,0.61-1.191,0.9-1.588
		c0.289-0.395,0.609-0.797,0.963-1.207C79.764,8.408,80.512,8,81.314,8c0.805,0,1.207,0.367,1.207,1.1
		C82.521,9.664,82.359,10.242,82.035,10.836z M81.591,8.529h-0.149c-0.859,0-2.236,2.58-4.126,7.746
		c1.933-2.273,3.252-4.135,3.958-5.588c0.395-0.889,0.592-1.471,0.592-1.746S81.773,8.529,81.591,8.529z"/>
</g>
</svg>
