<?xml version="1.0" encoding="utf-8"?>
<!-- Generator: Adobe Illustrator 16.0.0, SVG Export Plug-In . SVG Version: 6.00 Build 0)  -->
<!DOCTYPE svg PUBLIC "-//W3C//DTD SVG 1.1//EN" "http://www.w3.org/Graphics/SVG/1.1/DTD/svg11.dtd">
<svg version="1.1" id="图层_1" xmlns="http://www.w3.org/2000/svg" xmlns:xlink="http://www.w3.org/1999/xlink" x="0px" y="0px"
	 width="258px" height="36px" viewBox="0 0 258 36" enable-background="new 0 0 258 36" xml:space="preserve">
<g>
	<path fill="#545454" d="M13.315,11.576h6.833c1.262-0.006,2.35,0.104,3.264,0.33s1.668,0.551,2.261,0.971s1.03,0.926,1.313,1.514
		c0.284,0.59,0.426,1.244,0.426,1.965c0,0.631-0.133,1.234-0.396,1.811c-0.265,0.576-0.672,1.086-1.223,1.525
		c-0.553,0.439-1.253,0.791-2.104,1.051c-0.851,0.262-1.861,0.393-3.034,0.393h-1.816v4.645h-5.524V11.576z M18.839,19.051
		c0.44-0.006,0.832-0.074,1.175-0.205c0.345-0.131,0.634-0.313,0.87-0.545s0.416-0.514,0.539-0.842
		c0.125-0.328,0.188-0.695,0.188-1.104c0-0.4-0.064-0.764-0.191-1.09c-0.127-0.324-0.311-0.604-0.55-0.836s-0.529-0.416-0.87-0.549
		c-0.34-0.135-0.728-0.207-1.161-0.221V19.051z"/>
	<path fill="#545454" d="M28.598,21.049c0-0.752,0.154-1.432,0.463-2.037c0.309-0.604,0.756-1.121,1.339-1.547
		c0.582-0.428,1.294-0.756,2.136-0.99c0.841-0.232,1.797-0.348,2.867-0.348s2.025,0.115,2.867,0.348
		c0.841,0.234,1.553,0.563,2.136,0.99c0.583,0.426,1.029,0.943,1.338,1.547c0.31,0.605,0.464,1.285,0.464,2.037
		c0,0.746-0.154,1.42-0.464,2.025c-0.309,0.605-0.755,1.121-1.338,1.549s-1.295,0.758-2.136,0.988
		c-0.842,0.234-1.797,0.35-2.867,0.35s-2.026-0.115-2.867-0.35c-0.842-0.23-1.554-0.561-2.136-0.988
		c-0.583-0.428-1.03-0.943-1.339-1.549S28.598,21.795,28.598,21.049z M35.402,24.211c0.235,0,0.446-0.047,0.631-0.143
		s0.338-0.264,0.459-0.502s0.213-0.561,0.277-0.969c0.063-0.408,0.095-0.924,0.095-1.549c0-0.631-0.031-1.15-0.095-1.559
		c-0.064-0.408-0.156-0.73-0.277-0.971c-0.121-0.238-0.274-0.404-0.459-0.5s-0.396-0.145-0.631-0.145
		c-0.242,0-0.453,0.049-0.636,0.145c-0.181,0.096-0.333,0.262-0.454,0.5c-0.121,0.24-0.213,0.563-0.277,0.971
		c-0.063,0.408-0.096,0.928-0.096,1.559c0,0.625,0.033,1.141,0.096,1.549c0.064,0.408,0.156,0.73,0.277,0.969
		s0.273,0.406,0.454,0.502C34.949,24.164,35.16,24.211,35.402,24.211z"/>
	<path fill="#545454" d="M44.262,10h5.189v15.779h-5.189V10z"/>
	<path fill="#545454" d="M52.128,10h5.189v15.779h-5.189V10z"/>
	<path fill="#545454" d="M59.372,20.99c0-0.547,0.086-1.047,0.258-1.5c0.173-0.453,0.409-0.859,0.712-1.219s0.662-0.674,1.076-0.941
		s0.863-0.49,1.348-0.668c0.484-0.18,0.99-0.313,1.52-0.402c0.528-0.09,1.063-0.133,1.605-0.133c0.713,0,1.361,0.07,1.944,0.215
		c0.584,0.143,1.103,0.338,1.559,0.586c0.455,0.25,0.851,0.541,1.185,0.871c0.334,0.332,0.612,0.684,0.832,1.057
		c0.22,0.371,0.382,0.756,0.487,1.15c0.104,0.395,0.157,0.781,0.157,1.156l-7.225,0.871c0.14,0.707,0.42,1.254,0.84,1.645
		c0.421,0.387,1.011,0.58,1.769,0.58c0.415,0,0.801-0.049,1.161-0.152c0.359-0.1,0.643-0.225,0.846-0.371l0.766,1.338
		c-0.236,0.121-0.492,0.234-0.77,0.344c-0.277,0.107-0.584,0.201-0.918,0.281s-0.705,0.145-1.109,0.191
		c-0.404,0.049-0.848,0.072-1.332,0.072c-1.16,0-2.16-0.135-3.002-0.406c-0.841-0.27-1.537-0.635-2.088-1.09
		s-0.959-0.982-1.224-1.582C59.504,22.285,59.372,21.654,59.372,20.99z M67.42,20.189c0-0.828-0.104-1.432-0.311-1.809
		c-0.207-0.375-0.516-0.563-0.923-0.563c-0.21,0-0.404,0.051-0.583,0.152c-0.178,0.102-0.331,0.262-0.459,0.477
		c-0.127,0.219-0.229,0.496-0.305,0.838c-0.077,0.342-0.119,0.752-0.125,1.236L67.42,20.189z"/>
	<path fill="#545454" d="M73.842,16.307h4.578l0.459,1.377c0.363-0.268,0.705-0.498,1.027-0.693
		c0.322-0.193,0.634-0.355,0.937-0.486s0.596-0.227,0.88-0.287c0.283-0.061,0.564-0.09,0.846-0.09c0.407,0,0.775,0.057,1.104,0.172
		c0.328,0.113,0.608,0.275,0.841,0.488c0.233,0.209,0.411,0.459,0.535,0.75c0.125,0.289,0.187,0.609,0.187,0.959
		c0,0.352-0.074,0.674-0.225,0.965c-0.15,0.295-0.367,0.547-0.654,0.76c-0.287,0.215-0.639,0.379-1.057,0.498
		c-0.418,0.117-0.894,0.176-1.428,0.176l-1.683-2.246c-0.185,0-0.386,0.039-0.603,0.115s-0.401,0.197-0.555,0.363v6.652h-5.189
		V16.307z"/>
	<path fill="#545454" d="M92.297,18.648c0-1.076,0.173-2.063,0.517-2.957c0.345-0.895,0.856-1.664,1.539-2.309
		c0.682-0.643,1.532-1.143,2.552-1.5s2.205-0.535,3.555-0.535c1.352,0,2.537,0.178,3.556,0.535c1.021,0.357,1.87,0.857,2.552,1.5
		c0.682,0.645,1.195,1.414,1.539,2.309s0.516,1.881,0.516,2.957c0,1.092-0.172,2.088-0.516,2.992
		c-0.344,0.906-0.857,1.678-1.539,2.322s-1.531,1.145-2.552,1.502C102.996,25.82,101.811,26,100.459,26
		c-1.35,0-2.535-0.18-3.555-0.535c-1.02-0.357-1.87-0.857-2.552-1.502c-0.683-0.645-1.194-1.416-1.539-2.322
		C92.47,20.736,92.297,19.74,92.297,18.648z M100.459,24.021c0.383,0,0.721-0.068,1.014-0.201c0.293-0.135,0.539-0.395,0.736-0.785
		c0.197-0.387,0.347-0.934,0.449-1.633c0.102-0.701,0.152-1.619,0.152-2.754c0-1.121-0.051-2.027-0.152-2.723
		c-0.103-0.695-0.252-1.232-0.449-1.615s-0.443-0.641-0.736-0.773c-0.293-0.135-0.631-0.203-1.014-0.203
		c-0.382,0-0.721,0.068-1.018,0.203c-0.296,0.133-0.543,0.391-0.74,0.773s-0.348,0.92-0.449,1.615s-0.153,1.602-0.153,2.723
		c0,1.135,0.052,2.053,0.153,2.754c0.102,0.699,0.252,1.246,0.449,1.633c0.197,0.391,0.444,0.65,0.74,0.785
		C99.738,23.953,100.077,24.021,100.459,24.021z"/>
	<path fill="#545454" d="M110.943,16.307h4.578l0.459,1.377c0.676-0.516,1.362-0.904,2.06-1.164
		c0.698-0.262,1.433-0.393,2.203-0.393c0.44,0,0.849,0.072,1.229,0.219c0.378,0.146,0.708,0.373,0.989,0.678
		c0.279,0.307,0.5,0.701,0.659,1.182s0.239,1.057,0.239,1.725v5.85h-5.19v-6.174c0-0.332-0.073-0.574-0.22-0.727
		c-0.146-0.154-0.359-0.23-0.64-0.23c-0.185,0-0.39,0.039-0.612,0.115s-0.411,0.197-0.563,0.363v6.652h-5.19V16.307z"/>
	<path fill="#545454" d="M125.318,20.99c0-0.547,0.086-1.047,0.258-1.5s0.409-0.859,0.712-1.219s0.661-0.674,1.075-0.941
		s0.863-0.49,1.348-0.668c0.484-0.18,0.99-0.313,1.52-0.402s1.064-0.133,1.605-0.133c0.715,0,1.363,0.07,1.945,0.215
		c0.583,0.143,1.102,0.338,1.559,0.586c0.455,0.25,0.85,0.541,1.185,0.871c0.334,0.332,0.612,0.684,0.831,1.057
		c0.221,0.371,0.383,0.756,0.488,1.15c0.104,0.395,0.157,0.781,0.157,1.156l-7.226,0.871c0.141,0.707,0.421,1.254,0.842,1.645
		c0.42,0.387,1.01,0.58,1.768,0.58c0.414,0,0.801-0.049,1.16-0.152c0.361-0.1,0.643-0.225,0.847-0.371l0.765,1.338
		c-0.236,0.121-0.492,0.234-0.77,0.344c-0.277,0.107-0.582,0.201-0.918,0.281c-0.334,0.08-0.703,0.145-1.107,0.191
		c-0.405,0.049-0.85,0.072-1.334,0.072c-1.159,0-2.16-0.135-3-0.406c-0.842-0.27-1.538-0.635-2.09-1.09
		c-0.551-0.455-0.958-0.982-1.223-1.582C125.45,22.285,125.318,21.654,125.318,20.99z M133.365,20.189
		c0-0.828-0.104-1.432-0.311-1.809c-0.207-0.375-0.514-0.563-0.922-0.563c-0.211,0-0.404,0.051-0.583,0.152
		s-0.331,0.262-0.459,0.477c-0.127,0.219-0.229,0.496-0.306,0.838s-0.117,0.752-0.124,1.236L133.365,20.189z"/>
</g>
</svg>
