<?xml version="1.0" encoding="utf-8"?>
<!-- Generator: Adobe Illustrator 16.0.0, SVG Export Plug-In . SVG Version: 6.00 Build 0)  -->
<!DOCTYPE svg PUBLIC "-//W3C//DTD SVG 1.1//EN" "http://www.w3.org/Graphics/SVG/1.1/DTD/svg11.dtd">
<svg version="1.1" id="图层_1" xmlns="http://www.w3.org/2000/svg" xmlns:xlink="http://www.w3.org/1999/xlink" x="0px" y="0px"
	 width="258px" height="36px" viewBox="0 0 258 36" enable-background="new 0 0 258 36" xml:space="preserve">
<g>
	<path fill="#545454" d="M21.556,10.07c0.844,0.781,1.265,1.781,1.265,3.002s-0.408,2.225-1.224,3.016
		c-0.816,0.787-2.053,1.182-3.712,1.182h-2.756v5.883h-1.872V8.898h4.628C19.489,8.898,20.713,9.289,21.556,10.07z M15.128,15.789
		h2.756c1.029,0,1.793-0.238,2.293-0.711s0.751-1.133,0.751-1.984c0-1.797-1.015-2.693-3.044-2.693h-2.756V15.789z"/>
	<path fill="#545454" d="M25.958,21.732c-1.036-1.07-1.553-2.477-1.553-4.217s0.542-3.15,1.625-4.227
		c1.083-1.076,2.44-1.615,4.073-1.615c1.631,0,2.989,0.539,4.072,1.615s1.625,2.482,1.625,4.217s-0.565,3.141-1.697,4.217
		s-2.513,1.615-4.145,1.615S26.993,22.801,25.958,21.732z M29.958,21.793c1.056,0,1.972-0.379,2.746-1.141
		c0.775-0.76,1.162-1.813,1.162-3.158c0-1.342-0.37-2.391-1.11-3.146c-0.741-0.754-1.643-1.131-2.705-1.131
		s-1.951,0.377-2.664,1.131c-0.713,0.756-1.07,1.809-1.07,3.158c0,1.352,0.343,2.402,1.028,3.156
		C28.032,21.416,28.902,21.793,29.958,21.793z"/>
	<path fill="#545454" d="M44.192,11.674c1.549,0,2.835,0.531,3.856,1.596c1.021,1.061,1.532,2.453,1.532,4.174
		s-0.514,3.133-1.542,4.236c-1.028,1.105-2.311,1.658-3.846,1.658c-0.96,0-1.8-0.23-2.52-0.689c-0.72-0.459-1.271-1.061-1.656-1.801
		V28.5h-1.872V11.859h1.872v2.264c0.384-0.729,0.936-1.316,1.656-1.77C42.392,11.9,43.232,11.674,44.192,11.674z M43.832,21.732
		c1.049,0,1.947-0.395,2.695-1.182c0.747-0.789,1.121-1.824,1.121-3.107c0-1.281-0.374-2.293-1.121-3.033
		c-0.748-0.742-1.646-1.111-2.695-1.111c-1.049,0-1.947,0.385-2.694,1.152s-1.121,1.787-1.121,3.055c0,1.27,0.374,2.291,1.121,3.064
		C41.885,21.346,42.783,21.732,43.832,21.732z"/>
	<path fill="#545454" d="M57.973,11.674c1.549,0,2.835,0.531,3.856,1.596c1.021,1.061,1.532,2.453,1.532,4.174
		s-0.514,3.133-1.542,4.236c-1.028,1.105-2.311,1.658-3.846,1.658c-0.96,0-1.8-0.23-2.52-0.689c-0.72-0.459-1.271-1.061-1.656-1.801
		V28.5h-1.871V11.859h1.871v2.264c0.384-0.729,0.936-1.316,1.656-1.77C56.173,11.9,57.013,11.674,57.973,11.674z M57.612,21.732
		c1.049,0,1.947-0.395,2.695-1.182c0.748-0.789,1.121-1.824,1.121-3.107c0-1.281-0.373-2.293-1.121-3.033
		c-0.748-0.742-1.646-1.111-2.695-1.111c-1.049,0-1.947,0.385-2.694,1.152s-1.121,1.787-1.121,3.055c0,1.27,0.374,2.291,1.121,3.064
		C55.666,21.346,56.563,21.732,57.612,21.732z"/>
	<path fill="#545454" d="M67.557,9.68c-0.247,0.246-0.548,0.369-0.905,0.369c-0.357,0-0.655-0.123-0.895-0.369
		c-0.24-0.248-0.36-0.549-0.36-0.906c0-0.355,0.124-0.658,0.371-0.904C66.015,7.621,66.313,7.5,66.663,7.5
		c0.35,0,0.648,0.121,0.895,0.369c0.247,0.246,0.37,0.549,0.37,0.904C67.927,9.131,67.804,9.432,67.557,9.68z M65.707,23.152V11.859
		h1.871v11.293H65.707z"/>
	<path fill="#545454" d="M72.535,11.859v1.83c0.768-1.342,1.996-2.016,3.682-2.016c1.248,0,2.29,0.414,3.126,1.246
		c0.836,0.83,1.254,2.012,1.254,3.547v6.686h-1.851v-6.377c0-1.139-0.275-2.002-0.823-2.592c-0.549-0.59-1.306-0.885-2.272-0.885
		c-0.967,0-1.728,0.295-2.283,0.885c-0.556,0.59-0.833,1.453-0.833,2.592v6.377h-1.871V11.859H72.535z"/>
	<path fill="#545454" d="M83.169,15.049c0-0.947,0.394-1.746,1.183-2.398c0.789-0.65,1.81-0.977,3.065-0.977
		c1.254,0,2.238,0.318,2.951,0.957c0.713,0.639,1.104,1.512,1.173,2.621h-1.934c-0.028-0.629-0.24-1.137-0.637-1.521
		c-0.398-0.383-0.95-0.574-1.656-0.574c-0.707,0-1.262,0.168-1.667,0.504s-0.607,0.768-0.607,1.295s0.229,0.936,0.689,1.225
		c0.459,0.287,1.014,0.496,1.666,0.627c0.651,0.129,1.302,0.281,1.954,0.451c0.651,0.172,1.207,0.494,1.667,0.969
		c0.459,0.471,0.689,1.145,0.689,2.014c0,0.873-0.395,1.605-1.183,2.201c-0.789,0.598-1.813,0.896-3.075,0.896
		s-2.272-0.316-3.034-0.947c-0.761-0.631-1.175-1.502-1.244-2.611h1.934c0.027,0.631,0.25,1.135,0.668,1.512
		c0.418,0.377,0.994,0.564,1.728,0.564c0.733,0,1.309-0.158,1.727-0.473s0.627-0.717,0.627-1.203s-0.164-0.875-0.493-1.162
		c-0.329-0.289-0.74-0.486-1.234-0.598c-0.494-0.107-1.032-0.238-1.615-0.389c-0.583-0.152-1.121-0.313-1.615-0.484
		c-0.493-0.172-0.905-0.469-1.234-0.896C83.334,16.227,83.169,15.693,83.169,15.049z"/>
</g>
</svg>
