<?xml version="1.0" encoding="utf-8"?>
<!-- Generator: Adobe Illustrator 16.0.0, SVG Export Plug-In . SVG Version: 6.00 Build 0)  -->
<!DOCTYPE svg PUBLIC "-//W3C//DTD SVG 1.1//EN" "http://www.w3.org/Graphics/SVG/1.1/DTD/svg11.dtd">
<svg version="1.1" id="图层_1" xmlns="http://www.w3.org/2000/svg" xmlns:xlink="http://www.w3.org/1999/xlink" x="0px" y="0px"
	 width="258px" height="36px" viewBox="0 0 258 36" enable-background="new 0 0 258 36" xml:space="preserve">
<g>
	<path fill="#545454" d="M28.577,25.213c0.111,0.111,0.166,0.242,0.166,0.396c0,0.305-0.204,0.602-0.613,0.893
		s-0.915,0.531-1.518,0.719c-0.603,0.186-1.161,0.279-1.673,0.279c-0.79,0-1.452-0.086-1.985-0.26
		c-0.534-0.174-1.12-0.42-1.757-0.738c-0.513-0.277-0.95-0.479-1.31-0.602c-0.361-0.125-0.783-0.188-1.269-0.188
		c-0.18,0-0.342,0.02-0.488,0.063c-0.146,0.041-0.323,0.111-0.53,0.207c-0.305,0.139-0.527,0.209-0.665,0.209
		c-0.167,0-0.309-0.064-0.426-0.188c-0.118-0.125-0.177-0.271-0.177-0.438c0-0.277,0.118-0.457,0.354-0.541l2.723-0.977
		c-1.206-0.125-2.273-0.521-3.201-1.193c-0.929-0.674-1.653-1.549-2.172-2.631c-0.52-1.082-0.78-2.287-0.78-3.617
		c0-1.441,0.298-2.729,0.894-3.865c0.596-1.139,1.42-2.023,2.474-2.662c1.053-0.637,2.252-0.957,3.596-0.957s2.543,0.32,3.596,0.957
		c1.053,0.639,1.877,1.523,2.474,2.662c0.596,1.137,0.894,2.424,0.894,3.865c0,1.234-0.226,2.363-0.676,3.389
		s-1.078,1.879-1.881,2.557c-0.804,0.68-1.74,1.137-2.807,1.371l-2.183,0.729c0.402,0.041,0.766,0.127,1.091,0.26
		c0.325,0.131,0.738,0.314,1.237,0.551c0.568,0.291,1.074,0.51,1.518,0.654c0.443,0.146,0.942,0.219,1.497,0.219
		c0.471,0,0.876-0.063,1.216-0.188c0.339-0.125,0.668-0.283,0.987-0.477c0.125-0.07,0.256-0.174,0.395-0.313
		c0.097-0.084,0.197-0.156,0.301-0.219s0.204-0.094,0.301-0.094C28.334,25.047,28.466,25.104,28.577,25.213z M15.305,19.84
		c0.478,0.949,1.143,1.688,1.995,2.215c0.853,0.525,1.826,0.789,2.921,0.789s2.068-0.264,2.921-0.789
		c0.852-0.527,1.517-1.266,1.995-2.215c0.479-0.949,0.717-2.027,0.717-3.232s-0.239-2.283-0.717-3.232
		c-0.478-0.949-1.143-1.688-1.995-2.213c-0.853-0.527-1.826-0.791-2.921-0.791s-2.068,0.264-2.921,0.791
		c-0.852,0.525-1.517,1.264-1.995,2.213c-0.479,0.949-0.717,2.027-0.717,3.232S14.826,18.891,15.305,19.84z"/>
	<path fill="#545454" d="M38.399,13.5c0.118,0.117,0.177,0.268,0.177,0.447v5.861c0,1.357-0.381,2.4-1.144,3.129
		c-0.762,0.727-1.815,1.09-3.159,1.09c-1.331,0-2.374-0.363-3.128-1.09c-0.756-0.729-1.133-1.771-1.133-3.129v-5.861
		c0-0.18,0.059-0.33,0.176-0.447s0.267-0.178,0.447-0.178c0.18,0,0.329,0.061,0.447,0.178s0.177,0.268,0.177,0.447v5.861
		c0,0.998,0.263,1.756,0.79,2.277c0.527,0.52,1.269,0.779,2.225,0.779c0.97,0,1.722-0.26,2.255-0.779
		c0.533-0.521,0.8-1.279,0.8-2.277v-5.861c0-0.18,0.059-0.33,0.177-0.447c0.117-0.117,0.267-0.178,0.447-0.178
		C38.132,13.322,38.281,13.383,38.399,13.5z"/>
	<path fill="#545454" d="M41.777,11.484c-0.152-0.133-0.229-0.322-0.229-0.572v-0.209c0-0.25,0.079-0.439,0.239-0.57
		c0.159-0.133,0.377-0.197,0.655-0.197c0.554,0,0.832,0.256,0.832,0.768v0.209c0,0.25-0.072,0.439-0.218,0.572
		c-0.146,0.131-0.357,0.197-0.634,0.197C42.144,11.682,41.929,11.615,41.777,11.484z M42.869,23.707
		c-0.118,0.117-0.268,0.176-0.447,0.176c-0.18,0-0.33-0.059-0.447-0.176s-0.176-0.268-0.176-0.447v-9.563
		c0-0.18,0.059-0.33,0.176-0.447s0.267-0.176,0.447-0.176c0.18,0,0.329,0.059,0.447,0.176c0.117,0.117,0.176,0.268,0.176,0.447
		v9.563C43.045,23.439,42.986,23.59,42.869,23.707z"/>
	<path fill="#545454" d="M52.701,13.229c0.561,0.146,1.011,0.344,1.351,0.594c0.339,0.25,0.51,0.52,0.51,0.811
		c0,0.152-0.052,0.291-0.156,0.416s-0.232,0.186-0.384,0.186c-0.139,0-0.253-0.025-0.343-0.082c-0.09-0.055-0.19-0.139-0.302-0.25
		c-0.18-0.18-0.353-0.311-0.52-0.395c-0.208-0.096-0.481-0.176-0.821-0.238c-0.339-0.063-0.703-0.094-1.091-0.094
		c-0.762,0-1.458,0.193-2.089,0.582c-0.631,0.389-1.126,0.914-1.486,1.58c-0.36,0.664-0.54,1.398-0.54,2.203
		c0,0.832,0.173,1.58,0.52,2.244c0.346,0.666,0.828,1.189,1.444,1.57s1.32,0.572,2.11,0.572c0.5,0,0.897-0.043,1.195-0.125
		c0.298-0.084,0.593-0.201,0.884-0.354c0.097-0.057,0.263-0.18,0.499-0.375c0.111-0.096,0.208-0.168,0.292-0.217
		c0.083-0.049,0.173-0.074,0.271-0.074c0.166,0,0.297,0.053,0.395,0.156c0.097,0.104,0.146,0.238,0.146,0.404
		c0,0.236-0.166,0.49-0.499,0.76s-0.791,0.504-1.373,0.697c-0.582,0.193-1.226,0.291-1.933,0.291c-1.012,0-1.912-0.24-2.703-0.719
		c-0.79-0.479-1.403-1.139-1.839-1.984s-0.655-1.795-0.655-2.848c0-1.012,0.222-1.938,0.666-2.775
		c0.443-0.838,1.066-1.506,1.871-2.006c0.804-0.498,1.725-0.748,2.765-0.748C51.533,13.012,52.139,13.084,52.701,13.229z"/>
	<path fill="#545454" d="M65.578,23.26c0,0.18-0.073,0.33-0.219,0.447s-0.28,0.176-0.405,0.176c-0.18,0-0.333-0.074-0.458-0.229
		l-4.594-4.863l-1.56,1.33v3.139c0,0.18-0.059,0.33-0.176,0.447c-0.118,0.117-0.267,0.176-0.447,0.176s-0.329-0.059-0.447-0.176
		c-0.118-0.117-0.176-0.268-0.176-0.447V9.123c0-0.18,0.058-0.328,0.176-0.445C57.391,8.559,57.54,8.5,57.72,8.5
		s0.329,0.059,0.447,0.178c0.118,0.117,0.176,0.266,0.176,0.445v9.48l6.007-5.176c0.125-0.139,0.271-0.209,0.437-0.209
		c0.152,0,0.291,0.066,0.416,0.197c0.125,0.133,0.187,0.275,0.187,0.428c0,0.166-0.077,0.324-0.229,0.477l-4.283,3.639l4.511,4.822
		C65.516,22.92,65.578,23.078,65.578,23.26z"/>
	<path fill="#545454" d="M67.22,21.742c0-0.18,0.09-0.318,0.271-0.416c0.083-0.084,0.194-0.125,0.333-0.125
		c0.166,0,0.318,0.07,0.457,0.209c0.817,1.08,1.905,1.621,3.264,1.621c0.665,0,1.244-0.156,1.736-0.469
		c0.492-0.311,0.738-0.766,0.738-1.361c0-0.582-0.229-1.018-0.686-1.309c-0.457-0.291-1.095-0.541-1.913-0.75
		c-1.15-0.289-2.051-0.668-2.702-1.133c-0.651-0.463-0.977-1.146-0.977-2.047c0-0.566,0.159-1.078,0.479-1.527
		c0.318-0.451,0.751-0.801,1.299-1.051s1.167-0.373,1.86-0.373c0.596,0,1.195,0.115,1.798,0.342c0.603,0.23,1.119,0.594,1.548,1.092
		c0.125,0.098,0.187,0.236,0.187,0.416c0,0.168-0.069,0.313-0.208,0.438c-0.097,0.082-0.222,0.123-0.374,0.123
		c-0.139,0-0.264-0.055-0.375-0.166c-0.333-0.373-0.727-0.658-1.185-0.852c-0.457-0.193-0.949-0.291-1.476-0.291
		c-0.651,0-1.209,0.152-1.673,0.457c-0.464,0.305-0.696,0.762-0.696,1.373c0.027,0.553,0.281,0.977,0.759,1.268
		s1.181,0.555,2.11,0.789c0.721,0.182,1.316,0.381,1.788,0.604c0.471,0.223,0.855,0.533,1.154,0.936
		c0.298,0.402,0.447,0.936,0.447,1.602c0,0.9-0.361,1.617-1.081,2.15c-0.721,0.533-1.615,0.801-2.682,0.801
		c-1.69,0-3.035-0.631-4.033-1.893C67.275,22.02,67.22,21.867,67.22,21.742z"/>
	<path fill="#545454" d="M86.979,13.447c0.117,0.125,0.176,0.277,0.176,0.457v9.355c0,0.18-0.059,0.33-0.176,0.447
		c-0.118,0.117-0.268,0.176-0.447,0.176c-0.18,0-0.329-0.059-0.447-0.176c-0.118-0.117-0.176-0.268-0.176-0.447v-1.393
		c-0.347,0.623-0.867,1.15-1.559,1.578c-0.693,0.432-1.448,0.646-2.266,0.646c-0.928,0-1.764-0.244-2.504-0.729
		c-0.742-0.484-1.324-1.15-1.747-1.996c-0.423-0.844-0.634-1.793-0.634-2.848c0-1.053,0.215-1.998,0.645-2.838
		c0.429-0.836,1.015-1.492,1.756-1.965c0.741-0.469,1.562-0.705,2.463-0.705c0.832,0,1.593,0.201,2.287,0.602
		c0.692,0.402,1.212,0.93,1.559,1.582v-1.291c0-0.18,0.059-0.332,0.176-0.457c0.118-0.125,0.267-0.186,0.447-0.186
		C86.711,13.262,86.86,13.322,86.979,13.447z M84.151,22.355c0.575-0.381,1.025-0.908,1.351-1.58s0.489-1.424,0.489-2.256
		c0-0.805-0.163-1.539-0.489-2.203c-0.326-0.666-0.776-1.188-1.351-1.568c-0.576-0.381-1.224-0.572-1.944-0.572
		c-0.721,0-1.369,0.188-1.944,0.561c-0.575,0.375-1.025,0.891-1.351,1.549c-0.326,0.66-0.488,1.404-0.488,2.234
		c0,0.832,0.159,1.584,0.478,2.256c0.318,0.672,0.766,1.199,1.341,1.58c0.575,0.381,1.229,0.572,1.964,0.572
		C82.928,22.928,83.576,22.736,84.151,22.355z"/>
	<path fill="#545454" d="M98.266,14.145c0.603,0.756,0.904,1.756,0.904,3.002v6.113c0,0.18-0.063,0.33-0.187,0.447
		s-0.27,0.176-0.437,0.176c-0.18,0-0.33-0.059-0.447-0.176c-0.118-0.117-0.177-0.268-0.177-0.447v-6.049
		c0-0.9-0.226-1.633-0.676-2.193s-1.147-0.842-2.089-0.842c-0.596,0-1.16,0.139-1.694,0.416c-0.534,0.275-0.967,0.646-1.299,1.111
		s-0.499,0.967-0.499,1.508v6.049c0,0.18-0.059,0.33-0.176,0.447s-0.267,0.176-0.447,0.176s-0.33-0.059-0.447-0.176
		c-0.118-0.117-0.177-0.268-0.177-0.447v-9.313c0-0.18,0.059-0.33,0.177-0.447c0.117-0.117,0.267-0.178,0.447-0.178
		s0.33,0.061,0.447,0.178s0.176,0.268,0.176,0.447v1.143c0.374-0.596,0.911-1.092,1.611-1.486c0.7-0.395,1.417-0.592,2.151-0.592
		C96.717,13.012,97.663,13.389,98.266,14.145z"/>
	<path fill="#545454" d="M111.507,8.678c0.117,0.117,0.176,0.266,0.176,0.445V23.26c0,0.18-0.059,0.33-0.176,0.447
		c-0.118,0.117-0.268,0.176-0.447,0.176c-0.18,0-0.329-0.059-0.447-0.176c-0.118-0.117-0.176-0.268-0.176-0.447v-1.455
		c-0.347,0.637-0.863,1.178-1.548,1.621c-0.687,0.443-1.445,0.666-2.277,0.666c-0.915,0-1.743-0.24-2.484-0.719
		s-1.327-1.139-1.756-1.984c-0.43-0.846-0.645-1.795-0.645-2.848c0-1.039,0.215-1.98,0.645-2.828
		c0.429-0.846,1.015-1.506,1.756-1.984s1.563-0.717,2.463-0.717c0.818,0,1.573,0.205,2.266,0.613s1.22,0.938,1.58,1.59V9.123
		c0-0.18,0.059-0.328,0.176-0.445c0.118-0.119,0.267-0.178,0.447-0.178C111.24,8.5,111.389,8.559,111.507,8.678z M108.68,22.365
		c0.575-0.373,1.025-0.896,1.351-1.57c0.325-0.67,0.488-1.422,0.488-2.254c0-0.818-0.163-1.561-0.488-2.225
		c-0.326-0.666-0.776-1.188-1.351-1.568c-0.576-0.381-1.223-0.572-1.944-0.572s-1.369,0.191-1.944,0.572
		c-0.575,0.381-1.025,0.902-1.351,1.568c-0.326,0.664-0.489,1.406-0.489,2.225c0,0.832,0.163,1.58,0.489,2.244
		c0.325,0.666,0.775,1.189,1.351,1.57c0.575,0.381,1.223,0.572,1.944,0.572S108.104,22.74,108.68,22.365z"/>
</g>
</svg>
