<?xml version="1.0" encoding="utf-8"?>
<!-- Generator: Adobe Illustrator 16.0.0, SVG Export Plug-In . SVG Version: 6.00 Build 0)  -->
<!DOCTYPE svg PUBLIC "-//W3C//DTD SVG 1.1//EN" "http://www.w3.org/Graphics/SVG/1.1/DTD/svg11.dtd">
<svg version="1.1" id="图层_1" xmlns="http://www.w3.org/2000/svg" xmlns:xlink="http://www.w3.org/1999/xlink" x="0px" y="0px"
	 width="258px" height="36px" viewBox="0 0 258 36" enable-background="new 0 0 258 36" xml:space="preserve">
<g>
	<path fill="#545454" d="M13.257,23.32V8.42h6.295c0.644,0,1.235,0.137,1.773,0.408c0.539,0.273,1.004,0.631,1.396,1.072
		c0.392,0.439,0.696,0.941,0.913,1.5c0.217,0.559,0.326,1.127,0.326,1.699c0,0.547-0.081,1.068-0.242,1.564
		c-0.161,0.496-0.385,0.943-0.671,1.344c-0.287,0.398-0.633,0.734-1.039,1.006c-0.406,0.273-0.86,0.459-1.364,0.557l3.651,5.75
		h-1.658l-3.504-5.498h-4.407v5.498H13.257z M14.726,16.521h4.869c0.434,0,0.829-0.096,1.186-0.283
		c0.356-0.189,0.661-0.445,0.913-0.768c0.251-0.32,0.447-0.684,0.587-1.09c0.14-0.406,0.21-0.832,0.21-1.281
		c0-0.447-0.081-0.877-0.241-1.291c-0.161-0.41-0.378-0.771-0.651-1.08c-0.273-0.307-0.595-0.553-0.965-0.734
		s-0.759-0.273-1.165-0.273h-4.743V16.521z"/>
	<path fill="#545454" d="M29.27,23.531c-0.518,0-0.997-0.088-1.438-0.264c-0.441-0.174-0.826-0.416-1.155-0.723
		c-0.329-0.309-0.584-0.668-0.766-1.082c-0.182-0.412-0.272-0.855-0.272-1.332s0.111-0.916,0.335-1.322s0.539-0.756,0.945-1.049
		c0.405-0.293,0.888-0.521,1.448-0.682c0.56-0.162,1.175-0.242,1.847-0.242c0.559,0,1.126,0.049,1.7,0.146
		c0.574,0.1,1.084,0.238,1.532,0.42v-0.986c0-0.965-0.272-1.73-0.818-2.297c-0.545-0.568-1.301-0.852-2.267-0.852
		c-0.56,0-1.133,0.113-1.721,0.336c-0.588,0.225-1.183,0.547-1.784,0.967l-0.503-0.945c1.413-0.951,2.784-1.428,4.113-1.428
		c1.372,0,2.448,0.385,3.232,1.154s1.176,1.834,1.176,3.189v4.932c0,0.393,0.174,0.59,0.524,0.59v1.258
		c-0.238,0.043-0.42,0.064-0.545,0.064c-0.364,0-0.648-0.092-0.85-0.273c-0.203-0.182-0.312-0.434-0.326-0.756l-0.042-0.861
		c-0.503,0.658-1.137,1.162-1.899,1.512C30.973,23.355,30.151,23.531,29.27,23.531z M29.605,22.439c0.741,0,1.424-0.141,2.046-0.42
		s1.094-0.65,1.417-1.111c0.126-0.127,0.221-0.264,0.284-0.41c0.063-0.146,0.094-0.283,0.094-0.408v-1.785
		c-0.476-0.182-0.969-0.322-1.479-0.418c-0.511-0.098-1.032-0.148-1.563-0.148c-1.007,0-1.826,0.209-2.455,0.629
		c-0.63,0.42-0.944,0.973-0.944,1.658c0,0.336,0.066,0.652,0.199,0.945s0.314,0.549,0.546,0.766
		c0.231,0.217,0.506,0.389,0.829,0.514C28.899,22.377,29.242,22.439,29.605,22.439z"/>
	<path fill="#545454" d="M38.021,8h1.427v12.846c0,0.404,0.112,0.723,0.335,0.953c0.224,0.23,0.539,0.348,0.945,0.348
		c0.154,0,0.335-0.021,0.545-0.064c0.21-0.041,0.406-0.098,0.588-0.168l0.251,1.154c-0.266,0.113-0.591,0.203-0.976,0.273
		c-0.385,0.07-0.717,0.105-0.997,0.105c-0.658,0-1.175-0.186-1.553-0.557c-0.378-0.371-0.567-0.893-0.567-1.564V8z"/>
	<path fill="#545454" d="M48.388,23.531c-0.797,0-1.528-0.15-2.193-0.451s-1.242-0.715-1.731-1.238
		c-0.49-0.525-0.871-1.129-1.144-1.816c-0.273-0.686-0.41-1.42-0.41-2.203c0-0.77,0.137-1.492,0.41-2.172
		c0.272-0.68,0.65-1.273,1.133-1.783c0.483-0.512,1.06-0.918,1.732-1.219c0.671-0.301,1.398-0.451,2.182-0.451
		c0.798,0,1.529,0.15,2.193,0.451c0.664,0.301,1.235,0.711,1.71,1.229c0.475,0.518,0.846,1.111,1.112,1.783
		c0.266,0.672,0.398,1.387,0.398,2.143c0,0.109,0,0.223,0,0.334s-0.007,0.189-0.021,0.23h-9.36c0.042,0.588,0.178,1.131,0.41,1.627
		c0.23,0.498,0.527,0.928,0.891,1.291c0.364,0.363,0.78,0.646,1.249,0.85s0.969,0.305,1.5,0.305c0.35,0,0.7-0.049,1.05-0.146
		c0.349-0.098,0.671-0.23,0.965-0.4c0.294-0.168,0.56-0.373,0.797-0.619c0.238-0.244,0.42-0.512,0.546-0.807l1.238,0.336
		c-0.168,0.404-0.406,0.773-0.713,1.102c-0.308,0.328-0.665,0.615-1.071,0.859c-0.405,0.246-0.854,0.436-1.343,0.568
		C49.431,23.465,48.92,23.531,48.388,23.531z M52.418,17.277c-0.042-0.588-0.179-1.123-0.41-1.605
		c-0.23-0.484-0.524-0.898-0.881-1.248c-0.356-0.352-0.77-0.623-1.238-0.82c-0.468-0.195-0.969-0.293-1.5-0.293
		s-1.036,0.098-1.511,0.293c-0.476,0.197-0.892,0.469-1.249,0.82c-0.357,0.35-0.644,0.768-0.86,1.258
		c-0.217,0.49-0.347,1.021-0.389,1.596H52.418z"/>
	<path fill="#545454" d="M69.459,12.387h1.406L66.164,23.32h-1.176l-2.35-5.582l-2.33,5.582h-1.175l-4.701-10.934h1.385l3.987,9.465
		l2.078-4.994l-1.868-4.449h1.196l1.427,3.566l1.427-3.566h1.217l-1.868,4.449l2.078,4.994L69.459,12.387z"/>
	<path fill="#545454" d="M75.23,23.531c-0.518,0-0.997-0.088-1.438-0.264c-0.441-0.174-0.826-0.416-1.155-0.723
		c-0.329-0.309-0.584-0.668-0.766-1.082c-0.182-0.412-0.273-0.855-0.273-1.332s0.112-0.916,0.335-1.322
		c0.224-0.406,0.539-0.756,0.945-1.049s0.888-0.521,1.448-0.682c0.56-0.162,1.176-0.242,1.847-0.242c0.559,0,1.126,0.049,1.7,0.146
		c0.573,0.1,1.083,0.238,1.532,0.42v-0.986c0-0.965-0.273-1.73-0.818-2.297c-0.546-0.568-1.302-0.852-2.267-0.852
		c-0.56,0-1.133,0.113-1.721,0.336c-0.587,0.225-1.183,0.547-1.784,0.967l-0.503-0.945c1.413-0.951,2.784-1.428,4.113-1.428
		c1.371,0,2.448,0.385,3.231,1.154s1.176,1.834,1.176,3.189v4.932c0,0.393,0.175,0.59,0.524,0.59v1.258
		c-0.238,0.043-0.419,0.064-0.545,0.064c-0.364,0-0.647-0.092-0.85-0.273c-0.203-0.182-0.312-0.434-0.326-0.756l-0.042-0.861
		c-0.503,0.658-1.137,1.162-1.899,1.512C76.934,23.355,76.112,23.531,75.23,23.531z M75.566,22.439c0.741,0,1.423-0.141,2.046-0.42
		s1.095-0.65,1.417-1.111c0.126-0.127,0.221-0.264,0.284-0.41s0.094-0.283,0.094-0.408v-1.785c-0.476-0.182-0.969-0.322-1.479-0.418
		c-0.511-0.098-1.032-0.148-1.563-0.148c-1.007,0-1.826,0.209-2.456,0.629s-0.944,0.973-0.944,1.658
		c0,0.336,0.066,0.652,0.199,0.945c0.133,0.293,0.314,0.549,0.546,0.766c0.231,0.217,0.506,0.389,0.829,0.514
		C74.86,22.377,75.202,22.439,75.566,22.439z"/>
	<path fill="#545454" d="M84.275,26.68c0.112,0.014,0.22,0.023,0.325,0.031c0.105,0.006,0.207,0.01,0.304,0.01
		c0.252,0,0.452-0.035,0.599-0.105s0.29-0.223,0.43-0.461c0.14-0.238,0.297-0.58,0.473-1.029c0.174-0.447,0.423-1.049,0.745-1.805
		l-4.764-10.934h1.469l4.05,9.611l3.757-9.611h1.364L87.36,26.49c-0.154,0.406-0.409,0.758-0.766,1.059
		C86.238,27.85,85.751,28,85.136,28c-0.14,0-0.272-0.004-0.398-0.01c-0.126-0.008-0.28-0.025-0.462-0.053V26.68z"/>
</g>
</svg>
