<?xml version="1.0" encoding="utf-8"?>
<!-- Generator: Adobe Illustrator 16.0.0, SVG Export Plug-In . SVG Version: 6.00 Build 0)  -->
<!DOCTYPE svg PUBLIC "-//W3C//DTD SVG 1.1//EN" "http://www.w3.org/Graphics/SVG/1.1/DTD/svg11.dtd">
<svg version="1.1" id="图层_1" xmlns="http://www.w3.org/2000/svg" xmlns:xlink="http://www.w3.org/1999/xlink" x="0px" y="0px"
	 width="258px" height="36px" viewBox="0 0 258 36" enable-background="new 0 0 258 36" xml:space="preserve">
<g>
	<path fill="#545454" d="M19.782,11.063c1.606,0,2.837,0.357,3.694,1.068c0.856,0.713,1.285,1.723,1.285,3.031
		c0,0.715-0.199,1.35-0.597,1.902s-0.968,0.988-1.71,1.307c0.803,0.262,1.381,0.691,1.736,1.285
		c0.354,0.594,0.531,1.324,0.531,2.195v1.184c0,0.453,0.057,0.787,0.172,1.002c0.115,0.217,0.304,0.344,0.567,0.385l0.486,0.061
		v1.307h-1.073c-0.776,0-1.328-0.271-1.654-0.811c-0.328-0.539-0.491-1.193-0.491-1.963v-1.145c0-0.801-0.233-1.447-0.698-1.932
		c-0.466-0.486-1.09-0.729-1.873-0.729h-3.198v5.02l1.649,0.283v1.275h-5.293v-1.275l1.649-0.283V12.623l-1.649-0.285v-1.275h1.649
		H19.782z M16.959,17.643h2.621c1.113,0,1.923-0.213,2.429-0.639c0.506-0.426,0.759-1.045,0.759-1.861
		c0-0.777-0.243-1.391-0.729-1.844c-0.485-0.451-1.238-0.676-2.257-0.676h-2.823V17.643z"/>
	<path fill="#545454" d="M27.535,20.211c0-1.619,0.438-2.953,1.316-4.002c0.877-1.049,2.068-1.574,3.572-1.574
		c1.511,0,2.707,0.523,3.588,1.568c0.88,1.047,1.32,2.383,1.32,4.008v0.225c0,1.633-0.438,2.969-1.315,4.008S33.948,26,32.443,26
		c-1.519,0-2.716-0.52-3.593-1.563c-0.877-1.043-1.316-2.377-1.316-4.002V20.211z M29.528,20.436c0,1.16,0.245,2.117,0.734,2.873
		c0.489,0.756,1.216,1.135,2.181,1.135c0.944,0,1.663-0.379,2.155-1.135c0.493-0.756,0.739-1.713,0.739-2.873v-0.225
		c0-1.146-0.246-2.102-0.739-2.863c-0.492-0.762-1.218-1.145-2.176-1.145s-1.68,0.383-2.166,1.145
		c-0.485,0.762-0.729,1.717-0.729,2.863V20.436z"/>
	<path fill="#545454" d="M49.172,20.729c0,1.578-0.379,2.854-1.139,3.82C47.275,25.516,46.23,26,44.901,26
		c-0.715,0-1.336-0.135-1.862-0.41c-0.526-0.271-0.965-0.674-1.315-1.209l-0.182,1.408h-1.721V11.57l-1.649-0.283V10h3.643v6.133
		c0.344-0.484,0.771-0.855,1.28-1.113c0.509-0.256,1.105-0.385,1.787-0.385c1.349,0,2.402,0.541,3.157,1.621
		c0.756,1.078,1.134,2.498,1.134,4.26V20.729z M47.168,20.516c0-1.262-0.229-2.287-0.688-3.076
		c-0.459-0.791-1.161-1.184-2.105-1.184c-0.614,0-1.132,0.148-1.553,0.445c-0.422,0.297-0.757,0.693-1.007,1.193v4.838
		c0.25,0.506,0.589,0.906,1.017,1.203s0.95,0.445,1.564,0.445c0.938,0,1.634-0.334,2.09-1.002c0.455-0.668,0.683-1.551,0.683-2.65
		V20.516z"/>
	<path fill="#545454" d="M51.166,20.211c0-1.619,0.438-2.953,1.315-4.002c0.877-1.049,2.068-1.574,3.573-1.574
		c1.511,0,2.707,0.523,3.588,1.568c0.88,1.047,1.321,2.383,1.321,4.008v0.225c0,1.633-0.439,2.969-1.316,4.008S57.579,26,56.074,26
		c-1.518,0-2.715-0.52-3.593-1.563c-0.877-1.043-1.315-2.377-1.315-4.002V20.211z M53.16,20.436c0,1.16,0.245,2.117,0.734,2.873
		c0.489,0.756,1.216,1.135,2.181,1.135c0.945,0,1.664-0.379,2.156-1.135c0.493-0.756,0.739-1.713,0.739-2.873v-0.225
		c0-1.146-0.246-2.102-0.739-2.863c-0.492-0.762-1.218-1.145-2.176-1.145s-1.68,0.383-2.166,1.145
		c-0.486,0.762-0.729,1.717-0.729,2.863V20.436z"/>
	<path fill="#545454" d="M66.266,12.195v2.643h2.075v1.479h-2.075v6.648c0,0.512,0.106,0.873,0.319,1.082
		c0.213,0.209,0.494,0.314,0.845,0.314c0.175,0,0.373-0.016,0.592-0.045c0.219-0.031,0.403-0.063,0.552-0.098l0.273,1.367
		c-0.189,0.121-0.466,0.221-0.83,0.299C67.652,25.961,67.288,26,66.924,26c-0.81,0-1.454-0.244-1.933-0.732
		c-0.479-0.49-0.719-1.256-0.719-2.303v-6.648h-1.73v-1.479h1.73v-2.643H66.266z"/>
	<path fill="#545454" d="M70.183,20.211c0-1.619,0.438-2.953,1.315-4.002s2.068-1.574,3.573-1.574c1.511,0,2.707,0.523,3.588,1.568
		c0.88,1.047,1.32,2.383,1.32,4.008v0.225c0,1.633-0.438,2.969-1.315,4.008C77.786,25.482,76.595,26,75.091,26
		c-1.518,0-2.716-0.52-3.593-1.563s-1.315-2.377-1.315-4.002V20.211z M72.176,20.436c0,1.16,0.244,2.117,0.734,2.873
		c0.489,0.756,1.216,1.135,2.181,1.135c0.944,0,1.663-0.379,2.156-1.135s0.739-1.713,0.739-2.873v-0.225
		c0-1.146-0.246-2.102-0.739-2.863s-1.218-1.145-2.176-1.145c-0.958,0-1.68,0.383-2.166,1.145s-0.729,1.717-0.729,2.863V20.436z"/>
	<path fill="#545454" d="M97.437,15.404h-1.508l-0.374-2.105c-0.304-0.256-0.708-0.469-1.215-0.637
		c-0.506-0.17-1.093-0.254-1.761-0.254c-1.06,0-1.873,0.225-2.439,0.674c-0.567,0.449-0.85,1.033-0.85,1.756
		c0,0.641,0.288,1.176,0.865,1.604c0.577,0.43,1.51,0.805,2.798,1.129c1.552,0.385,2.73,0.951,3.537,1.701
		c0.806,0.748,1.209,1.676,1.209,2.783c0,1.188-0.484,2.141-1.452,2.863C95.279,25.641,94.013,26,92.447,26
		c-1.133,0-2.141-0.186-3.021-0.557c-0.881-0.371-1.598-0.855-2.151-1.457v-2.742h1.498l0.384,2.115
		c0.385,0.316,0.843,0.576,1.376,0.779c0.533,0.201,1.17,0.305,1.913,0.305c1.005,0,1.8-0.213,2.384-0.639
		c0.583-0.426,0.875-1.002,0.875-1.73c0-0.676-0.253-1.24-0.759-1.695s-1.4-0.838-2.682-1.148c-1.559-0.371-2.776-0.918-3.653-1.641
		c-0.877-0.721-1.316-1.629-1.316-2.723c0-1.152,0.489-2.111,1.468-2.879c0.978-0.766,2.25-1.146,3.815-1.146
		c1.032,0,1.972,0.176,2.819,0.529c0.846,0.355,1.526,0.785,2.039,1.291V15.404z"/>
	<path fill="#545454" d="M99.299,11.287V10h3.644v14.23l1.649,0.283v1.275h-5.293v-1.275l1.65-0.283V11.57L99.299,11.287z"/>
	<path fill="#545454" d="M113.245,25.789c-0.061-0.297-0.108-0.564-0.142-0.801c-0.034-0.234-0.058-0.473-0.071-0.707
		c-0.385,0.492-0.866,0.902-1.442,1.229c-0.578,0.326-1.193,0.49-1.848,0.49c-1.14,0-2.007-0.277-2.601-0.834
		s-0.891-1.342-0.891-2.354c0-1.039,0.42-1.84,1.26-2.404c0.84-0.563,1.992-0.844,3.456-0.844h2.055v-1.275
		c0-0.641-0.203-1.148-0.607-1.523c-0.405-0.373-0.968-0.563-1.69-0.563c-0.5,0-0.94,0.064-1.32,0.193
		c-0.382,0.129-0.69,0.305-0.926,0.527l-0.213,1.152h-1.538v-2.125c0.499-0.398,1.103-0.717,1.812-0.955
		c0.708-0.24,1.478-0.361,2.308-0.361c1.241,0,2.247,0.318,3.016,0.953c0.769,0.633,1.154,1.541,1.154,2.721v5.273
		c0,0.143,0.001,0.281,0.005,0.416s0.012,0.27,0.025,0.404l0.81,0.111v1.275H113.245z M110.037,24.33
		c0.661,0,1.265-0.156,1.812-0.475c0.546-0.316,0.938-0.699,1.174-1.145V20.91h-2.125c-0.816,0-1.462,0.189-1.938,0.566
		c-0.477,0.379-0.714,0.838-0.714,1.377c0,0.479,0.148,0.846,0.445,1.098C108.988,24.205,109.437,24.33,110.037,24.33z"/>
	<path fill="#545454" d="M127.535,20.729c0,1.578-0.379,2.854-1.139,3.82c-0.759,0.967-1.803,1.451-3.133,1.451
		c-0.715,0-1.336-0.135-1.861-0.41c-0.526-0.271-0.965-0.674-1.316-1.209l-0.182,1.408h-1.721V11.57l-1.649-0.283V10h3.644v6.133
		c0.344-0.484,0.771-0.855,1.279-1.113c0.51-0.256,1.105-0.385,1.787-0.385c1.35,0,2.402,0.541,3.158,1.621
		c0.755,1.078,1.133,2.498,1.133,4.26V20.729z M125.531,20.516c0-1.262-0.229-2.287-0.688-3.076
		c-0.459-0.791-1.161-1.184-2.105-1.184c-0.614,0-1.133,0.148-1.554,0.445c-0.422,0.297-0.757,0.693-1.007,1.193v4.838
		c0.25,0.506,0.588,0.906,1.017,1.203s0.95,0.445,1.563,0.445c0.938,0,1.635-0.334,2.091-1.002c0.454-0.668,0.683-1.551,0.683-2.65
		V20.516z"/>
</g>
</svg>
