<?xml version="1.0" encoding="utf-8"?>
<!-- Generator: Adobe Illustrator 16.0.0, SVG Export Plug-In . SVG Version: 6.00 Build 0)  -->
<!DOCTYPE svg PUBLIC "-//W3C//DTD SVG 1.1//EN" "http://www.w3.org/Graphics/SVG/1.1/DTD/svg11.dtd">
<svg version="1.1" id="图层_1" xmlns="http://www.w3.org/2000/svg" xmlns:xlink="http://www.w3.org/1999/xlink" x="0px" y="0px"
	 width="258px" height="36px" viewBox="0 0 258 36" enable-background="new 0 0 258 36" xml:space="preserve">
<g>
	<path fill="#545454" d="M18.064,19.846h-2.797v6.436h-2.01V10.373h4.458c1.558,0,2.739,0.408,3.54,1.219
		c0.801,0.813,1.202,2.002,1.202,3.566c0,0.984-0.217,1.842-0.649,2.574c-0.435,0.73-1.048,1.283-1.841,1.656l3.081,6.762v0.131
		h-2.152L18.064,19.846z M15.267,18.131h2.426c0.837,0,1.505-0.27,2.004-0.811c0.5-0.539,0.749-1.262,0.749-2.166
		c0-2.045-0.925-3.064-2.775-3.064h-2.404V18.131z"/>
	<path fill="#545454" d="M24.455,19.824c0-1.719,0.417-3.08,1.251-4.08c0.834-1.002,1.936-1.502,3.305-1.502
		c1.369,0,2.47,0.486,3.305,1.463c0.833,0.977,1.262,2.305,1.284,3.988v1.244c0,1.713-0.416,3.068-1.246,4.064
		c-0.831,1-1.938,1.498-3.321,1.498c-1.369,0-2.467-0.484-3.294-1.455c-0.826-0.967-1.254-2.277-1.283-3.932V19.824z M26.389,20.938
		c0,1.217,0.238,2.174,0.716,2.869c0.476,0.697,1.12,1.045,1.928,1.045c1.705,0,2.582-1.234,2.633-3.695v-1.332
		c0-1.209-0.24-2.166-0.721-2.869c-0.48-0.701-1.125-1.053-1.933-1.053c-0.794,0-1.43,0.352-1.906,1.053
		c-0.478,0.703-0.716,1.656-0.716,2.857V20.938z"/>
	<path fill="#545454" d="M44.656,20.938c0,1.844-0.332,3.232-0.994,4.164S42.038,26.5,40.778,26.5c-1.253,0-2.192-0.539-2.819-1.617
		l-0.098,1.398h-1.759V9.5h1.923v6.26c0.634-1.014,1.544-1.518,2.731-1.518c1.297,0,2.27,0.457,2.917,1.377
		c0.648,0.916,0.977,2.301,0.983,4.15V20.938z M42.733,19.83c0-1.396-0.195-2.393-0.585-2.982c-0.39-0.594-1.021-0.891-1.895-0.891
		c-0.998,0-1.741,0.537-2.229,1.613v5.621c0.48,1.063,1.231,1.592,2.251,1.592c0.874,0,1.5-0.305,1.879-0.916
		s0.572-1.561,0.579-2.848V19.83z"/>
	<path fill="#545454" d="M46.721,19.824c0-1.719,0.417-3.08,1.251-4.08c0.833-1.002,1.935-1.502,3.304-1.502
		c1.37,0,2.471,0.486,3.305,1.463c0.834,0.977,1.262,2.305,1.284,3.988v1.244c0,1.713-0.415,3.068-1.246,4.064
		c-0.83,1-1.938,1.498-3.321,1.498c-1.37,0-2.468-0.484-3.294-1.455c-0.827-0.967-1.254-2.277-1.284-3.932V19.824z M48.655,20.938
		c0,1.217,0.238,2.174,0.716,2.869c0.477,0.697,1.12,1.045,1.929,1.045c1.704,0,2.582-1.234,2.633-3.695v-1.332
		c0-1.209-0.241-2.166-0.721-2.869c-0.481-0.701-1.125-1.053-1.934-1.053c-0.794,0-1.429,0.352-1.906,1.053
		c-0.478,0.703-0.716,1.656-0.716,2.857V20.938z"/>
	<path fill="#545454" d="M60.891,11.598v2.863h1.781v1.563h-1.781v7.34c0,0.465,0.077,0.818,0.23,1.061
		c0.152,0.24,0.415,0.359,0.787,0.359c0.254,0,0.513-0.043,0.775-0.131l-0.022,1.631c-0.437,0.145-0.885,0.217-1.343,0.217
		c-0.765,0-1.348-0.275-1.749-0.818c-0.4-0.549-0.601-1.32-0.601-2.316v-7.342h-1.803v-1.563h1.803v-2.863H60.891z"/>
	<path fill="#545454" d="M64.344,19.824c0-1.719,0.417-3.08,1.251-4.08c0.833-1.002,1.935-1.502,3.305-1.502
		c1.369,0,2.471,0.486,3.305,1.463s1.262,2.305,1.284,3.988v1.244c0,1.713-0.416,3.068-1.246,4.064
		c-0.831,1-1.938,1.498-3.321,1.498c-1.37,0-2.468-0.484-3.294-1.455c-0.827-0.967-1.254-2.277-1.284-3.932V19.824z M66.278,20.938
		c0,1.217,0.238,2.174,0.715,2.869c0.477,0.697,1.12,1.045,1.929,1.045c1.704,0,2.582-1.234,2.633-3.695v-1.332
		c0-1.209-0.24-2.166-0.721-2.869c-0.48-0.701-1.125-1.053-1.934-1.053c-0.794,0-1.43,0.352-1.907,1.053
		c-0.477,0.703-0.715,1.656-0.715,2.857V20.938z"/>
	<path fill="#545454" d="M91.352,21.223c-0.087,1.705-0.566,3.01-1.437,3.916c-0.87,0.908-2.099,1.361-3.687,1.361
		c-1.595,0-2.862-0.607-3.802-1.82c-0.939-1.213-1.409-2.857-1.409-4.932v-2.885c0-2.068,0.482-3.705,1.447-4.904
		c0.965-1.203,2.282-1.805,3.95-1.805c1.537,0,2.726,0.459,3.567,1.377s1.298,2.234,1.371,3.943H89.33
		c-0.087-1.295-0.36-2.221-0.819-2.773c-0.459-0.555-1.158-0.83-2.098-0.83c-1.085,0-1.919,0.424-2.502,1.271
		c-0.583,0.85-0.874,2.094-0.874,3.73v2.918c0,1.609,0.271,2.846,0.814,3.705c0.542,0.859,1.334,1.287,2.376,1.287
		s1.792-0.258,2.251-0.775c0.458-0.516,0.743-1.445,0.852-2.785H91.352z"/>
	<path fill="#545454" d="M93.384,19.824c0-1.719,0.417-3.08,1.251-4.08c0.834-1.002,1.936-1.502,3.305-1.502
		s2.471,0.486,3.305,1.463c0.833,0.977,1.262,2.305,1.284,3.988v1.244c0,1.713-0.415,3.068-1.246,4.064
		c-0.831,1-1.938,1.498-3.321,1.498c-1.369,0-2.467-0.484-3.294-1.455c-0.826-0.967-1.254-2.277-1.283-3.932V19.824z M95.318,20.938
		c0,1.217,0.238,2.174,0.716,2.869c0.476,0.697,1.12,1.045,1.928,1.045c1.704,0,2.582-1.234,2.633-3.695v-1.332
		c0-1.209-0.24-2.166-0.721-2.869c-0.48-0.701-1.125-1.053-1.934-1.053c-0.793,0-1.43,0.352-1.906,1.053
		c-0.478,0.703-0.716,1.656-0.716,2.857V20.938z"/>
	<path fill="#545454" d="M106.844,14.461l0.055,1.277c0.75-0.998,1.708-1.496,2.874-1.496c2.09,0,3.15,1.395,3.179,4.184v7.855
		h-1.923v-7.768c0-0.926-0.155-1.582-0.464-1.973c-0.31-0.389-0.774-0.584-1.393-0.584c-0.48,0-0.912,0.16-1.294,0.48
		c-0.383,0.32-0.691,0.738-0.924,1.256v8.588h-1.934v-11.82H106.844z"/>
	<path fill="#545454" d="M115.442,19.836c0-1.822,0.34-3.211,1.021-4.162c0.681-0.957,1.659-1.432,2.934-1.432
		c1.129,0,2.011,0.457,2.644,1.377V9.5h1.935v16.781h-1.771l-0.098-1.268c-0.635,0.99-1.541,1.486-2.721,1.486
		c-1.224,0-2.184-0.477-2.879-1.426c-0.695-0.951-1.05-2.293-1.064-4.025V19.836z M117.376,20.932c0,1.324,0.197,2.297,0.59,2.92
		s1.035,0.932,1.923,0.932c0.962,0,1.679-0.482,2.151-1.449v-5.959c-0.494-0.945-1.209-1.418-2.141-1.418
		c-0.889,0-1.53,0.311-1.923,0.932c-0.393,0.623-0.593,1.576-0.601,2.865V20.932z"/>
	<path fill="#545454" d="M131.176,26.5c-1.472,0-2.601-0.438-3.388-1.316c-0.786-0.879-1.187-2.166-1.202-3.863v-1.432
		c0-1.762,0.385-3.145,1.152-4.145c0.77-1.002,1.842-1.502,3.219-1.502c1.383,0,2.418,0.439,3.102,1.32
		c0.686,0.883,1.035,2.256,1.049,4.119v1.268h-6.598v0.273c0,1.268,0.238,2.189,0.715,2.764c0.478,0.576,1.165,0.865,2.059,0.865
		c0.568,0,1.07-0.109,1.502-0.324c0.436-0.215,0.842-0.555,1.219-1.021l1.006,1.223C134.172,25.908,132.895,26.5,131.176,26.5z
		 M130.957,15.902c-0.803,0-1.395,0.273-1.782,0.824c-0.386,0.551-0.604,1.404-0.656,2.563h4.655v-0.262
		c-0.051-1.123-0.252-1.924-0.605-2.404S131.678,15.902,130.957,15.902z"/>
	<path fill="#545454" d="M139.248,14.461l0.057,1.277c0.75-0.998,1.707-1.496,2.873-1.496c2.09,0,3.148,1.395,3.18,4.184v7.855
		h-1.924v-7.768c0-0.926-0.156-1.582-0.465-1.973c-0.309-0.389-0.773-0.584-1.393-0.584c-0.48,0-0.912,0.16-1.295,0.48
		s-0.689,0.738-0.924,1.256v8.588h-1.934v-11.82H139.248z"/>
	<path fill="#545454" d="M153.998,23.254c0-0.414-0.156-0.771-0.469-1.07c-0.314-0.299-0.918-0.648-1.814-1.047
		c-1.041-0.432-1.775-0.799-2.201-1.105c-0.426-0.305-0.744-0.652-0.957-1.043c-0.211-0.389-0.316-0.854-0.316-1.393
		c0-0.961,0.352-1.76,1.055-2.398c0.703-0.637,1.6-0.955,2.693-0.955c1.15,0,2.076,0.334,2.775,1.004s1.049,1.529,1.049,2.578
		h-1.924c0-0.531-0.178-0.984-0.535-1.359s-0.813-0.563-1.365-0.563c-0.568,0-1.016,0.148-1.338,0.441
		c-0.326,0.293-0.486,0.688-0.486,1.182c0,0.391,0.117,0.707,0.355,0.945c0.236,0.242,0.807,0.557,1.709,0.949
		c1.434,0.561,2.41,1.109,2.928,1.646s0.775,1.217,0.775,2.041c0,1.029-0.354,1.852-1.059,2.467
		c-0.707,0.617-1.654,0.926-2.842,0.926c-1.23,0-2.229-0.354-2.994-1.061c-0.764-0.705-1.146-1.602-1.146-2.688h1.945
		c0.021,0.656,0.223,1.17,0.602,1.541c0.377,0.371,0.91,0.559,1.594,0.559c0.641,0,1.129-0.145,1.465-0.434
		C153.83,24.131,153.998,23.744,153.998,23.254z"/>
	<path fill="#545454" d="M162.674,26.5c-1.473,0-2.602-0.438-3.387-1.316c-0.787-0.879-1.188-2.166-1.203-3.863v-1.432
		c0-1.762,0.385-3.145,1.152-4.145c0.77-1.002,1.842-1.502,3.219-1.502c1.383,0,2.418,0.439,3.102,1.32
		c0.686,0.883,1.035,2.256,1.051,4.119v1.268h-6.6v0.273c0,1.268,0.238,2.189,0.715,2.764c0.477,0.576,1.164,0.865,2.061,0.865
		c0.568,0,1.068-0.109,1.502-0.324c0.432-0.215,0.838-0.555,1.217-1.021l1.006,1.223C165.67,25.908,164.393,26.5,162.674,26.5z
		 M162.455,15.902c-0.801,0-1.395,0.273-1.781,0.824s-0.605,1.404-0.656,2.563h4.654v-0.262c-0.051-1.123-0.252-1.924-0.605-2.404
		S163.176,15.902,162.455,15.902z"/>
	<path fill="#545454" d="M168.518,19.836c0-1.822,0.342-3.211,1.021-4.162c0.682-0.957,1.66-1.432,2.934-1.432
		c1.129,0,2.012,0.457,2.645,1.377V9.5h1.934v16.781h-1.77l-0.098-1.268c-0.635,0.99-1.541,1.486-2.721,1.486
		c-1.225,0-2.184-0.477-2.879-1.426c-0.695-0.951-1.051-2.293-1.066-4.025V19.836z M170.451,20.932c0,1.324,0.197,2.297,0.592,2.92
		c0.393,0.623,1.033,0.932,1.922,0.932c0.961,0,1.68-0.482,2.152-1.449v-5.959c-0.496-0.945-1.209-1.418-2.141-1.418
		c-0.889,0-1.529,0.311-1.924,0.932c-0.393,0.623-0.594,1.576-0.602,2.865V20.932z"/>
</g>
</svg>
