<?xml version="1.0" encoding="utf-8"?>
<!-- Generator: Adobe Illustrator 16.0.0, SVG Export Plug-In . SVG Version: 6.00 Build 0)  -->
<!DOCTYPE svg PUBLIC "-//W3C//DTD SVG 1.1//EN" "http://www.w3.org/Graphics/SVG/1.1/DTD/svg11.dtd">
<svg version="1.1" id="图层_1" xmlns="http://www.w3.org/2000/svg" xmlns:xlink="http://www.w3.org/1999/xlink" x="0px" y="0px"
	 width="258px" height="36px" viewBox="0 0 258 36" enable-background="new 0 0 258 36" xml:space="preserve">
<g>
	<path fill="#545454" d="M18.143,23.252c-0.335,0.209-0.716,0.314-1.143,0.314c-0.427,0-0.808-0.105-1.143-0.314
		c-0.335,0.209-0.645,0.314-0.931,0.314c-0.285,0-0.521-0.023-0.704-0.074c-0.184-0.049-0.345-0.115-0.483-0.201
		c-0.282-0.17-0.424-0.385-0.424-0.641c0-0.131,0.036-0.246,0.108-0.344c0.145,0.111,0.329,0.166,0.552,0.166
		c0.584,0,0.989-0.25,1.212-0.748v-4.818c0-0.301-0.063-0.525-0.187-0.67c-0.197-0.242-0.536-0.482-1.015-0.719
		c0.447-0.203,0.736-0.385,0.867-0.541c0.223-0.258,0.335-0.545,0.335-0.867V9.951c-0.223-0.506-0.627-0.76-1.212-0.76
		c-0.223,0-0.407,0.057-0.552,0.168c-0.072-0.098-0.108-0.211-0.108-0.34c0-0.127,0.038-0.248,0.113-0.359s0.179-0.207,0.311-0.285
		c0.302-0.184,0.648-0.275,1.04-0.275c0.391,0,0.75,0.107,1.079,0.324C16.199,8.207,16.58,8.1,17,8.1s0.801,0.107,1.143,0.324
		C18.885,8.141,19.708,8,20.611,8c0.903,0,1.66,0.084,2.271,0.246c0.611,0.166,1.136,0.398,1.576,0.701
		c0.887,0.609,1.438,1.461,1.655,2.551c0.085,0.486,0.397,0.854,0.936,1.104c-0.513,0.289-0.848,0.75-1.005,1.379
		c-0.322,1.301-1.126,2.111-2.414,2.434c0.664,0.178,1.205,0.541,1.625,1.094c0.434,0.572,0.65,1.244,0.65,2.02v0.986
		c0,0.945,0.305,1.557,0.917,1.832c0.184,0.086,0.384,0.127,0.601,0.127s0.397-0.055,0.542-0.166
		c0.072,0.098,0.108,0.211,0.108,0.34c0,0.127-0.033,0.246-0.099,0.359c-0.065,0.111-0.154,0.207-0.266,0.285
		c-0.237,0.184-0.513,0.275-0.828,0.275c-0.315,0-0.624-0.084-0.926-0.256c-0.552,0.303-1.067,0.332-1.547,0.09
		c-0.184,0.109-0.377,0.166-0.581,0.166s-0.399-0.045-0.586-0.137c-0.187-0.092-0.353-0.244-0.498-0.453
		c-0.309-0.453-0.463-1.15-0.463-2.09v-0.729c0-1.518-0.434-2.502-1.301-2.955c-0.289-0.152-0.627-0.227-1.015-0.227h-1.153v4.797
		c0.177,0.467,0.516,0.699,1.015,0.699c0.223,0,0.407-0.055,0.552-0.166c0.072,0.098,0.108,0.242,0.108,0.434
		c0,0.189-0.104,0.375-0.311,0.555c-0.207,0.182-0.517,0.271-0.931,0.271C18.833,23.566,18.465,23.461,18.143,23.252z M16.133,20.76
		c0.329-0.125,0.509-0.555,0.542-1.291c0.04-0.736,0.059-1.754,0.059-3.055s-0.002-2.166-0.005-2.596
		c-0.003-0.43-0.008-0.777-0.015-1.039c-0.02-0.775-0.094-1.244-0.222-1.404c-0.128-0.16-0.248-0.268-0.36-0.32
		c0,2.285-0.04,3.586-0.118,3.902c-0.092,0.262-0.315,0.449-0.67,0.561c0.394,0.137,0.617,0.305,0.67,0.502
		c0.079,0.316,0.118,1.469,0.118,3.459V20.76z M20.705,9.311c-1.261,0-1.892,0.49-1.892,1.469v4.029c0,0.342,0.135,0.57,0.404,0.689
		c0.256,0.111,0.635,0.168,1.138,0.168c0.502,0,0.853-0.027,1.054-0.084c0.2-0.057,0.373-0.152,0.517-0.291
		c0.296-0.283,0.443-0.756,0.443-1.418v-2.877c0-0.822-0.341-1.348-1.024-1.576C21.142,9.348,20.928,9.311,20.705,9.311z
		 M22.931,18.059c0.263,0.297,0.395,0.658,0.395,1.086v1.299c0,1.092,0.216,1.672,0.65,1.744c0.118,0.02,0.233,0.018,0.345-0.01
		c-0.236-0.367-0.354-0.756-0.354-1.162v-1.381c0-0.518-0.072-0.885-0.217-1.104C23.5,18.164,23.227,18.006,22.931,18.059z
		 M23.03,9.941c0.204,0.459,0.306,1.195,0.306,2.207c0,1.74-0.082,2.781-0.247,3.123c0.361-0.072,0.621-0.555,0.778-1.447
		l0.079-0.404c0.072-0.428,0.282-0.699,0.63-0.818c-0.256-0.086-0.42-0.188-0.493-0.305c-0.079-0.139-0.149-0.373-0.212-0.705
		s-0.126-0.6-0.192-0.803c-0.066-0.205-0.135-0.365-0.207-0.482C23.349,10.096,23.201,9.975,23.03,9.941z"/>
	<path fill="#545454" d="M40.32,13.211c-0.144-0.092-0.374-0.137-0.689-0.137c-0.63,0-1.107,0.426-1.429,1.281l-0.305,0.857
		c-0.223,0.623-0.337,1.051-0.34,1.279c-0.003,0.23,0.036,0.416,0.118,0.557c0.082,0.143,0.268,0.287,0.557,0.439
		c-0.709,0.197-1.192,0.529-1.448,0.994c-0.079,0.145-0.148,0.297-0.207,0.453l-1.635,4.443c-0.637,1.834-1.229,3.074-1.773,3.725
		C32.668,27.701,32.045,28,31.296,28c-0.571,0-1.11-0.184-1.616-0.551c-0.578-0.414-0.867-0.9-0.867-1.459
		c0-0.348,0.092-0.613,0.276-0.793c0.184-0.18,0.353-0.271,0.507-0.271s0.261,0.002,0.32,0.006s0.118,0.016,0.177,0.035
		c0.118,0.053,0.23,0.17,0.335,0.354c-0.138,0.264-0.049,0.553,0.266,0.867c0.295,0.309,0.573,0.463,0.833,0.463
		c0.259,0,0.476-0.049,0.65-0.146c0.174-0.1,0.331-0.25,0.468-0.455c0.302-0.445,0.453-1.086,0.453-1.92
		c0-0.453-0.121-0.953-0.364-1.498c-0.066-0.184-0.145-0.377-0.236-0.582l-1.399-3.152c-0.151-0.334-0.379-0.631-0.684-0.891
		c-0.306-0.26-0.649-0.434-1.03-0.518c0.453-0.23,0.68-0.533,0.68-0.906c0-0.27-0.108-0.666-0.325-1.191l-0.581-1.4
		c-0.171-0.381-0.312-0.621-0.424-0.719c-0.197-0.156-0.426-0.236-0.685-0.236c-0.259,0-0.461,0.055-0.606,0.168
		c-0.079-0.08-0.12-0.193-0.123-0.346c-0.003-0.15,0.015-0.277,0.054-0.379c0.04-0.102,0.105-0.191,0.197-0.271
		c0.197-0.178,0.481-0.266,0.853-0.266c0.371,0,0.721,0.119,1.049,0.355c0.27-0.236,0.598-0.355,0.985-0.355
		s0.729,0.109,1.024,0.324c0.296-0.215,0.627-0.324,0.995-0.324c0.368,0,0.658,0.088,0.873,0.262
		c0.213,0.174,0.323,0.346,0.33,0.518c0.006,0.254-0.036,0.43-0.128,0.521c-0.158-0.119-0.322-0.178-0.493-0.178
		s-0.311,0.051-0.418,0.146c-0.109,0.1-0.156,0.262-0.143,0.484l2.276,6.148l2.157-6.316c-0.072-0.334-0.312-0.502-0.719-0.502
		c-0.256,0-0.499,0.063-0.729,0.186c-0.065-0.123-0.097-0.285-0.094-0.48c0.003-0.197,0.095-0.379,0.276-0.543
		s0.427-0.246,0.739-0.246c0.312,0,0.58,0.105,0.803,0.314c0.237-0.209,0.503-0.314,0.798-0.314s0.565,0.092,0.808,0.275
		c0.224-0.184,0.471-0.275,0.744-0.275c0.272,0,0.489,0.078,0.65,0.236c0.161,0.158,0.238,0.322,0.231,0.492
		C40.426,12.934,40.386,13.115,40.32,13.211z M30.833,14.197c-0.151,0.1-0.226,0.223-0.222,0.375c0.003,0.15,0.009,0.268,0.02,0.35
		c0.009,0.082,0.027,0.18,0.054,0.291c0.059,0.209,0.179,0.52,0.36,0.93c0.18,0.412,0.276,0.668,0.285,0.77
		c0.01,0.102-0.024,0.213-0.103,0.334c-0.079,0.123-0.174,0.203-0.286,0.242c0.42,0.08,0.68,0.227,0.778,0.443
		c0.046,0.092,0.111,0.236,0.197,0.434l0.67,1.498c0.131,0.301,0.27,0.6,0.414,0.896c0.269-0.328,0.151-1.084-0.355-2.268
		L30.833,14.197z"/>
	<path fill="#545454" d="M49.306,20.395c0.145-0.275,0.411-0.414,0.798-0.414c0.263,0,0.466,0.109,0.611,0.324
		c0.118,0.172,0.177,0.381,0.177,0.627s-0.063,0.494-0.188,0.744c-0.125,0.25-0.295,0.477-0.512,0.68s-0.465,0.385-0.744,0.541
		c-0.279,0.158-0.577,0.289-0.892,0.395c-0.65,0.217-1.327,0.324-2.03,0.324c-0.703,0-1.361-0.115-1.976-0.348
		c-0.614-0.234-1.141-0.561-1.581-0.98c-0.86-0.828-1.386-1.965-1.576-3.41c-0.046-0.322-0.122-0.551-0.227-0.689
		c-0.197-0.242-0.522-0.475-0.976-0.699c0.571-0.256,0.936-0.666,1.094-1.232c0.046-0.156,0.082-0.314,0.108-0.473
		c0.164-1.156,0.749-2.141,1.753-2.955c0.972-0.789,2.059-1.182,3.261-1.182c1.248,0,2.329,0.439,3.241,1.32
		c0.946,0.906,1.419,2.018,1.419,3.34c0,0.045-0.002,0.092-0.005,0.137c-0.003,0.047-0.002,0.09,0.005,0.129
		c0.013,0.086,0.065,0.135,0.158,0.146c0.118,0.152,0.177,0.313,0.177,0.484c0,0.393-0.21,0.627-0.63,0.699
		c-0.105,0.02-0.27,0.047-0.493,0.078l-5.557,0.887v0.947c0,0.762,0.23,1.365,0.689,1.813c0.434,0.426,0.982,0.639,1.646,0.639
		c0.703,0,1.268-0.145,1.694-0.434c0.401-0.275,0.601-0.637,0.601-1.082C49.355,20.645,49.338,20.525,49.306,20.395z M43.119,20.76
		c0.092-0.074,0.138-0.154,0.138-0.246c0-0.145-0.029-0.33-0.088-0.553c-0.27-1.031-0.404-1.748-0.404-2.152s0.013-0.719,0.04-0.945
		c0.026-0.229,0.063-0.455,0.108-0.686c0.079-0.447,0.164-0.84,0.256-1.182c0.059-0.225,0.088-0.375,0.088-0.453
		c0-0.158-0.046-0.273-0.138-0.346c-0.276,0.328-0.486,0.77-0.63,1.32c-0.145,0.553-0.263,1.039-0.355,1.459
		c-0.033,0.176-0.227,0.348-0.581,0.512c0.354,0.164,0.548,0.328,0.581,0.492c0.243,1.111,0.443,1.816,0.601,2.119
		C42.892,20.4,43.02,20.621,43.119,20.76z M47.582,17.213v-2.758c0-0.434-0.085-0.754-0.256-0.957
		c-0.302-0.348-0.601-0.523-0.897-0.523c-0.295,0-0.542,0.045-0.739,0.135c-0.197,0.088-0.368,0.229-0.512,0.418
		c-0.302,0.402-0.453,1.023-0.453,1.873v2.275L47.582,17.213z M49.04,16.967V16.66c0-1.221-0.102-1.961-0.305-2.217
		c-0.092-0.111-0.194-0.193-0.306-0.246v2.867L49.04,16.967z"/>
</g>
</svg>
