<?xml version="1.0" encoding="utf-8"?>
<!-- Generator: Adobe Illustrator 16.0.0, SVG Export Plug-In . SVG Version: 6.00 Build 0)  -->
<!DOCTYPE svg PUBLIC "-//W3C//DTD SVG 1.1//EN" "http://www.w3.org/Graphics/SVG/1.1/DTD/svg11.dtd">
<svg version="1.1" id="图层_1" xmlns="http://www.w3.org/2000/svg" xmlns:xlink="http://www.w3.org/1999/xlink" x="0px" y="0px"
	 width="258px" height="36px" viewBox="0 0 258 36" enable-background="new 0 0 258 36" xml:space="preserve">
<g>
	<path fill="#545454" d="M30.059,15.16c-0.681,0-1.156-0.322-1.424-0.969c-0.991,0-2.079,0.24-3.262,0.723
		c-0.736,0.303-1.232,0.58-1.486,0.836c-0.255,0.254-0.391,0.453-0.408,0.598s0.054,0.268,0.212,0.367s0.38,0.193,0.666,0.283
		c0.285,0.09,0.618,0.18,0.996,0.27c1.982,0.461,3.238,0.781,3.768,0.959c1.053,0.35,1.841,0.736,2.364,1.156
		c0.496,0.42,0.743,0.992,0.743,1.713c0,0.6-0.184,1.105-0.552,1.518c-0.368,0.414-0.855,0.781-1.46,1.105s-1.282,0.611-2.029,0.861
		c-0.747,0.252-1.535,0.467-2.363,0.645c-0.83,0.18-1.646,0.328-2.452,0.445C21.794,25.889,20.449,26,19.334,26
		c-2.03,0-3.596-0.246-4.697-0.734c-0.413-0.184-0.75-0.648-1.012-1.393c-0.207-0.613-0.31-1.117-0.31-1.512
		c0-0.396,0.034-0.615,0.103-0.656s0.21-0.043,0.423-0.004c0.213,0.037,0.492,0.1,0.836,0.189l1.239,0.33
		c1.92,0.482,3.95,0.723,6.09,0.723c1.576,0,2.911-0.141,4.005-0.422c0.647-0.172,0.991-0.365,1.032-0.578
		c0.027-0.188-0.482-0.416-1.528-0.691c-0.475-0.131-1.025-0.27-1.652-0.414c-3.035-0.736-4.865-1.211-5.491-1.424
		c-0.626-0.213-1.034-0.402-1.223-0.568c-0.19-0.164-0.346-0.348-0.47-0.547c-0.227-0.393-0.341-0.766-0.341-1.119
		c0-0.355,0.019-0.629,0.057-0.822c0.038-0.191,0.091-0.371,0.16-0.535c0.145-0.338,0.327-0.568,0.547-0.691
		c1.769-0.992,4.367-1.863,7.794-2.613c3.048-0.674,5.557-1.012,7.525-1.012c0.399,0,0.699,0.07,0.898,0.207
		c0.344,0.254,0.496,0.527,0.455,0.816c-0.042,0.289-0.129,0.555-0.264,0.799c-0.134,0.244-0.301,0.465-0.5,0.66
		c-0.2,0.197-0.422,0.369-0.666,0.518c-0.245,0.148-0.498,0.27-0.759,0.365C31.064,15.064,30.555,15.16,30.059,15.16z"/>
	<path fill="#545454" d="M52.16,17.793c0.22,0,0.331,0.186,0.331,0.559c0,0.639-0.448,1.469-1.342,2.486l-0.588,0.6
		c-1.782,1.781-3.461,2.969-5.037,3.561c-0.978,0.365-1.679,0.348-2.106-0.051c-0.351-0.338-0.63-0.881-0.836-1.631l-0.248-0.898
		l-2.199,1.352l-1.27,0.723c-1.514,0.826-2.649,1.238-3.406,1.238c-0.971,0-1.779-0.373-2.426-1.125
		c-0.619-0.707-0.929-1.531-0.929-2.467c0-0.922,0.368-1.744,1.104-2.467c1.053-1.031,2.715-1.979,4.986-2.838
		c2.147-0.807,3.881-1.209,5.203-1.209c0.447,0,0.671,0.221,0.671,0.662c0,0.303-0.059,0.529-0.176,0.68
		c-0.117,0.152-0.358,0.307-0.722,0.465l-1.301,0.557c-1.927,0.807-3.338,1.643-4.232,2.51c-0.254,0.24-0.382,0.475-0.382,0.701
		s0.182,0.342,0.547,0.342c0.358,0,1.191-0.387,2.498-1.156l0.857-0.506c1.328-0.799,2.439-1.197,3.334-1.197
		c0.757,0,1.259,0.332,1.507,1c0.062,0.18,0.121,0.359,0.175,0.543c0.055,0.182,0.11,0.346,0.166,0.49
		c0.124,0.336,0.235,0.504,0.335,0.504c0.1,0,0.243-0.049,0.428-0.148c0.186-0.1,0.39-0.227,0.614-0.381
		c0.224-0.156,0.456-0.326,0.697-0.512l1.249-1C50.77,18.254,51.602,17.793,52.16,17.793z"/>
	<path fill="#545454" d="M49.465,22.139c-0.13,0-0.259-0.029-0.387-0.094c-0.127-0.061-0.246-0.16-0.356-0.299
		c-0.241-0.303-0.361-0.715-0.361-1.238c0-0.557,0.334-1.252,1.001-2.086c0.647-0.805,1.4-1.5,2.261-2.084
		c0.922-0.633,1.713-0.949,2.374-0.949c0.585,0,0.98,0.164,1.187,0.494l0.145,0.229c0.11,0.172,0.22,0.258,0.331,0.258
		c0.11,0,0.282-0.012,0.516-0.031l1.466-0.104c0.227-0.021,0.406-0.031,0.537-0.031s0.28,0.047,0.449,0.139
		c0.168,0.094,0.318,0.217,0.449,0.367c0.289,0.344,0.434,0.723,0.434,1.135c0,0.428-0.471,1.1-1.414,2.014l-0.681,0.682
		c-0.489,0.502-0.733,0.818-0.733,0.949s0.062,0.246,0.186,0.346c0.124,0.1,0.258,0.15,0.403,0.15s0.308-0.041,0.49-0.119
		c0.182-0.08,0.408-0.195,0.676-0.352c0.268-0.154,0.574-0.342,0.918-0.561c0.943-0.621,1.572-1.047,1.889-1.281l0.857-0.609
		c0.584-0.412,1.001-0.619,1.249-0.619s0.451,0.053,0.609,0.16c0.158,0.105,0.236,0.291,0.236,0.551
		c0,0.264-0.134,0.615-0.402,1.055c-0.268,0.441-0.559,0.822-0.872,1.145c-0.314,0.324-0.618,0.625-0.914,0.898
		c-0.296,0.275-0.646,0.572-1.047,0.895c-0.403,0.318-0.849,0.643-1.337,0.969c-0.489,0.326-1.005,0.621-1.548,0.883
		c-1.232,0.598-2.364,0.898-3.396,0.898c-1.507,0-2.426-0.389-2.756-1.168c-0.104-0.232-0.155-0.494-0.155-0.783
		s0.055-0.6,0.165-0.934c0.11-0.334,0.254-0.666,0.434-0.996c0.358-0.654,0.781-1.232,1.27-1.734c0.413-0.434,0.62-0.691,0.62-0.773
		c0-0.131-0.074-0.215-0.222-0.248c-0.148-0.035-0.366-0.053-0.655-0.053c-0.124,0-0.389,0.18-0.795,0.537l-1.012,0.93
		C50.498,21.65,49.796,22.139,49.465,22.139z"/>
	<path fill="#545454" d="M68.676,24.973c-0.523,0.271-1.032,0.488-1.527,0.65c-0.496,0.162-0.982,0.242-1.461,0.242
		s-0.975-0.115-1.486-0.346c-0.514-0.23-0.969-0.539-1.368-0.924c-0.888-0.859-1.332-1.816-1.332-2.869
		c0-0.971,0.289-1.955,0.867-2.953c0.53-0.9,1.205-1.658,2.024-2.271c0.818-0.611,1.578-0.918,2.281-0.918
		c1.004,0,1.541,0.283,1.609,0.846c0.021,0.174,0.031,0.371,0.031,0.6c0,0.227-0.054,0.486-0.16,0.779s-0.244,0.584-0.413,0.877
		s-0.354,0.578-0.558,0.857s-0.396,0.531-0.582,0.758c-0.358,0.434-0.645,0.748-0.857,0.941c0,0.232,0.176,0.473,0.526,0.721
		c0.331,0.234,0.61,0.352,0.842,0.352c0.229,0,0.502-0.055,0.815-0.164c0.313-0.111,0.637-0.26,0.97-0.445
		c0.334-0.186,0.675-0.398,1.022-0.641c0.348-0.24,0.689-0.488,1.027-0.742l1.889-1.477c0.75-0.543,1.359-0.814,1.827-0.814
		c0.186,0,0.328,0.066,0.428,0.201c0.101,0.133,0.15,0.291,0.15,0.469c0,0.18-0.09,0.426-0.269,0.738
		c-0.18,0.313-0.426,0.66-0.738,1.037c-0.313,0.379-0.68,0.775-1.1,1.188s-0.873,0.818-1.362,1.219
		c-0.488,0.398-0.996,0.779-1.522,1.141C69.723,24.385,69.199,24.701,68.676,24.973z M71.277,13.607
		c-0.199,0.168-0.416,0.307-0.65,0.412c-0.234,0.107-0.496,0.162-0.785,0.162s-0.567-0.049-0.836-0.146
		c-0.268-0.096-0.502-0.23-0.701-0.402c-0.434-0.371-0.65-0.846-0.65-1.424c0-0.889,0.742-1.549,2.229-1.982
		C70.386,10.076,70.799,10,71.122,10s0.565,0.035,0.728,0.107s0.295,0.168,0.398,0.285c0.206,0.232,0.309,0.473,0.309,0.717
		s-0.029,0.467-0.088,0.666s-0.143,0.406-0.252,0.619c-0.11,0.213-0.244,0.426-0.402,0.641
		C71.656,13.248,71.477,13.438,71.277,13.607z"/>
	<path fill="#545454" d="M84.335,20.002c0,0.627,0.183,0.939,0.548,0.939c0.895,0,2.057-0.605,3.488-1.816l0.279-0.236
		c0.557-0.373,1.01-0.559,1.357-0.559c0.347,0,0.567,0.051,0.66,0.154c0.094,0.104,0.14,0.27,0.14,0.496
		c0,0.51-0.259,1.049-0.774,1.619c-0.771,0.938-1.827,1.826-3.169,2.664c-1.556,0.979-2.948,1.465-4.181,1.465
		c-0.86,0-1.4-0.477-1.621-1.434c-0.062-0.248-0.106-0.484-0.134-0.713c-0.069-0.549-0.142-0.855-0.217-0.918
		s-0.226-0.057-0.449,0.016s-0.489,0.193-0.794,0.361c-0.307,0.168-0.646,0.373-1.018,0.613c-1.969,1.309-3.1,2.055-3.396,2.24
		c-0.709,0.441-1.187,0.66-1.435,0.66c-0.247,0-0.489-0.051-0.728-0.154c-0.237-0.104-0.445-0.234-0.625-0.393
		c-0.371-0.35-0.557-0.709-0.557-1.072c0-2.086,0.454-3.91,1.362-5.471c0.605-1.053,1.349-1.783,2.229-2.189
		c0.447-0.213,0.93-0.318,1.445-0.318c0.943,0,1.414,0.309,1.414,0.928c0,0.379-0.224,0.998-0.671,1.857l-0.31,0.609
		c-0.221,0.42-0.327,0.658-0.32,0.713c0.041,0.205,0.135,0.311,0.279,0.311c0.158,0,0.393-0.117,0.701-0.354l1.9-1.412l0.949-0.662
		c1.094-0.715,1.899-1.072,2.416-1.072c0.274,0,0.525,0.109,0.753,0.33c0.42,0.398,0.63,0.746,0.63,1.041
		c0,0.098-0.01,0.215-0.025,0.354c-0.018,0.137-0.037,0.285-0.058,0.443l-0.041,0.484C84.346,19.691,84.335,19.852,84.335,20.002z"
		/>
	<path fill="#545454" d="M106.58,17.793c0.221,0,0.33,0.186,0.33,0.559c0,0.639-0.447,1.469-1.342,2.486l-0.588,0.6
		c-1.783,1.781-3.461,2.969-5.037,3.561c-0.978,0.365-1.68,0.348-2.106-0.051c-0.351-0.338-0.63-0.881-0.836-1.631l-0.247-0.898
		l-2.199,1.352l-1.27,0.723c-1.514,0.826-2.65,1.238-3.406,1.238c-0.971,0-1.779-0.373-2.426-1.125
		c-0.62-0.707-0.93-1.531-0.93-2.467c0-0.922,0.368-1.744,1.104-2.467c1.054-1.031,2.715-1.979,4.985-2.838
		c2.147-0.807,3.882-1.209,5.203-1.209c0.447,0,0.671,0.221,0.671,0.662c0,0.303-0.059,0.529-0.175,0.68
		c-0.117,0.152-0.358,0.307-0.723,0.465l-1.301,0.557c-1.928,0.807-3.338,1.643-4.232,2.51c-0.255,0.24-0.383,0.475-0.383,0.701
		s0.184,0.342,0.548,0.342c0.358,0,1.19-0.387,2.498-1.156l0.856-0.506c1.328-0.799,2.439-1.197,3.334-1.197
		c0.758,0,1.26,0.332,1.508,1c0.062,0.18,0.12,0.359,0.176,0.543c0.055,0.182,0.109,0.346,0.164,0.49
		c0.125,0.336,0.236,0.504,0.336,0.504s0.242-0.049,0.429-0.148c0.186-0.1,0.39-0.227,0.614-0.381
		c0.223-0.156,0.455-0.326,0.696-0.512l1.249-1C105.19,18.254,106.023,17.793,106.58,17.793z"/>
</g>
</svg>
