<?xml version="1.0" encoding="utf-8"?>
<!-- Generator: Adobe Illustrator 16.0.0, SVG Export Plug-In . SVG Version: 6.00 Build 0)  -->
<!DOCTYPE svg PUBLIC "-//W3C//DTD SVG 1.1//EN" "http://www.w3.org/Graphics/SVG/1.1/DTD/svg11.dtd">
<svg version="1.1" id="图层_1" xmlns="http://www.w3.org/2000/svg" xmlns:xlink="http://www.w3.org/1999/xlink" x="0px" y="0px"
	 width="258px" height="36px" viewBox="0 0 258 36" enable-background="new 0 0 258 36" xml:space="preserve">
<g>
	<path fill="#545454" d="M23.507,11.93c0.667,0.189,1.346,0.488,2.035,0.896l0.485-0.402c0.337-0.266,0.615-0.449,0.833-0.547
		s0.467-0.146,0.748-0.146c0.338,0,0.604,0.072,0.801,0.221c0.197,0.146,0.295,0.361,0.295,0.643c0,0.111-0.021,0.232-0.063,0.357
		l-0.886,2.91c-0.098,0.336-0.221,0.576-0.369,0.715c-0.147,0.141-0.369,0.211-0.664,0.211c-0.309,0-0.58-0.094-0.812-0.283
		c-0.232-0.191-0.594-0.58-1.086-1.17c-0.492-0.563-0.938-0.959-1.338-1.191s-0.811-0.348-1.233-0.348
		c-0.31,0-0.569,0.102-0.78,0.305c-0.21,0.205-0.316,0.455-0.316,0.75c0,0.336,0.168,0.648,0.506,0.938s0.864,0.65,1.581,1.086
		c0.73,0.436,1.335,0.828,1.813,1.18c0.478,0.352,0.886,0.787,1.223,1.307c0.337,0.52,0.506,1.119,0.506,1.793
		c0,0.436-0.071,0.871-0.211,1.307c-0.337,1.125-0.991,1.979-1.96,2.561s-2.101,0.875-3.394,0.875c-0.969,0-1.785-0.111-2.445-0.338
		c-0.661-0.225-1.335-0.604-2.024-1.139l-0.759,0.633c-0.352,0.295-0.64,0.496-0.864,0.602s-0.478,0.158-0.759,0.158
		c-0.323,0-0.579-0.076-0.769-0.232c-0.19-0.154-0.285-0.365-0.285-0.633c0-0.141,0.029-0.287,0.084-0.441l1.033-3.143
		c0.113-0.363,0.267-0.623,0.464-0.779c0.196-0.154,0.449-0.232,0.758-0.232c0.323,0,0.615,0.115,0.875,0.338
		c0.26,0.225,0.601,0.633,1.022,1.223c0.45,0.648,0.868,1.096,1.254,1.35c0.386,0.252,0.846,0.379,1.381,0.379
		c0.379,0,0.67-0.059,0.874-0.18c0.204-0.119,0.348-0.311,0.433-0.578c0.028-0.07,0.042-0.176,0.042-0.316
		c0-0.338-0.162-0.646-0.485-0.928s-0.822-0.617-1.497-1.012c-0.717-0.436-1.3-0.826-1.75-1.17s-0.84-0.777-1.17-1.297
		c-0.331-0.52-0.496-1.131-0.496-1.834c0-0.49,0.077-0.977,0.232-1.453c0.295-0.971,0.899-1.752,1.813-2.342
		c0.913-0.59,1.96-0.885,3.141-0.885C22.112,11.645,22.84,11.74,23.507,11.93z"/>
	<path fill="#545454" d="M40.888,22.9c-0.028,0.057-0.042,0.143-0.042,0.254c0,0.098,0.024,0.176,0.073,0.232
		c0.05,0.055,0.116,0.084,0.201,0.084c0.168,0,0.313-0.074,0.432-0.221c0.119-0.148,0.2-0.223,0.242-0.223
		c0.07,0,0.126,0.047,0.168,0.137c0.042,0.092,0.063,0.201,0.063,0.326c0.014,0.408-0.12,0.807-0.4,1.193
		c-0.281,0.385-0.692,0.701-1.233,0.947S39.201,26,38.442,26c-0.927,0-1.666-0.215-2.213-0.643c-0.548-0.43-0.83-1.002-0.843-1.719
		c0-0.52,0.126-1.102,0.379-1.75l1.159-3.035c0.071-0.182,0.105-0.33,0.105-0.441c0-0.184-0.06-0.328-0.179-0.432
		c-0.12-0.107-0.264-0.16-0.433-0.16c-0.267,0-0.537,0.125-0.812,0.369c-0.274,0.248-0.495,0.643-0.664,1.191v-0.043l-1.328,4.281
		c-0.042,0.168-0.063,0.314-0.063,0.441c0,0.184,0.035,0.326,0.105,0.432c0.07,0.107,0.168,0.209,0.295,0.307
		c0.099,0.098,0.168,0.178,0.211,0.242c0.042,0.064,0.049,0.145,0.021,0.242c-0.07,0.184-0.211,0.316-0.421,0.4
		c-0.211,0.084-0.534,0.127-0.97,0.127h-4.806c-0.365,0-0.632-0.061-0.801-0.18c-0.169-0.119-0.225-0.277-0.169-0.473
		c0.057-0.17,0.204-0.318,0.443-0.443c0.21-0.113,0.387-0.246,0.527-0.402c0.14-0.152,0.26-0.4,0.358-0.736l3.204-10.52
		c0.042-0.127,0.063-0.23,0.063-0.314c0-0.156-0.039-0.281-0.116-0.381c-0.077-0.098-0.179-0.197-0.306-0.295
		c-0.141-0.111-0.242-0.211-0.306-0.295c-0.063-0.084-0.074-0.197-0.032-0.338c0.084-0.324,0.527-0.604,1.329-0.844
		c0.801-0.238,1.636-0.357,2.508-0.357c0.814,0,1.416,0.154,1.802,0.465c0.386,0.309,0.579,0.73,0.579,1.264
		c0,0.311-0.049,0.611-0.147,0.906l-1.138,3.709c0.548-0.715,1.128-1.213,1.739-1.496c0.611-0.279,1.275-0.422,1.992-0.422
		c0.857,0,1.549,0.262,2.077,0.781c0.527,0.52,0.791,1.193,0.791,2.023c0,0.436-0.07,0.863-0.211,1.285L40.888,22.9z"/>
	<path fill="#545454" d="M55.169,15.377c0.47,0.477,0.706,1.066,0.706,1.77c0,0.268-0.028,0.514-0.084,0.738
		c-0.141,0.576-0.408,1.018-0.801,1.328c-0.394,0.309-0.864,0.463-1.413,0.463c-0.534,0-0.938-0.125-1.212-0.379
		s-0.517-0.59-0.728-1.012c-0.113-0.238-0.218-0.416-0.316-0.527c-0.099-0.111-0.211-0.168-0.337-0.168
		c-0.141,0-0.264,0.057-0.369,0.168s-0.2,0.309-0.284,0.59l-1.623,5.271c-0.029,0.07-0.042,0.174-0.042,0.314
		c0,0.184,0.053,0.334,0.158,0.453c0.105,0.119,0.249,0.236,0.432,0.35c0.168,0.111,0.281,0.203,0.337,0.273
		s0.077,0.162,0.063,0.273c-0.028,0.184-0.13,0.316-0.306,0.4c-0.176,0.084-0.475,0.127-0.896,0.127h-5.396
		c-0.365,0-0.629-0.061-0.791-0.18s-0.221-0.277-0.179-0.473c0.057-0.17,0.204-0.318,0.443-0.443
		c0.21-0.113,0.387-0.246,0.527-0.402c0.14-0.152,0.26-0.4,0.358-0.736l1.876-6.092c0.028-0.07,0.042-0.17,0.042-0.295
		c0-0.154-0.032-0.273-0.095-0.359c-0.063-0.084-0.166-0.189-0.306-0.316c-0.141-0.111-0.239-0.211-0.295-0.295
		c-0.056-0.084-0.063-0.197-0.021-0.336c0.084-0.324,0.527-0.609,1.328-0.855c0.801-0.244,1.637-0.369,2.509-0.369
		c0.576,0,1.054,0.131,1.434,0.391c0.379,0.262,0.625,0.629,0.737,1.107c0.675-0.998,1.561-1.498,2.656-1.498
		C54.069,14.658,54.698,14.898,55.169,15.377z"/>
	<path fill="#545454" d="M62.473,15.123c0.379,0.309,0.569,0.73,0.569,1.266c0,0.322-0.05,0.631-0.147,0.926l-1.939,6.305
		c-0.042,0.168-0.063,0.314-0.063,0.441c0,0.184,0.035,0.326,0.105,0.432c0.07,0.107,0.168,0.209,0.295,0.307
		c0.099,0.098,0.168,0.178,0.211,0.242c0.042,0.064,0.049,0.145,0.021,0.242c-0.07,0.184-0.211,0.316-0.421,0.4
		c-0.211,0.084-0.534,0.127-0.97,0.127h-4.806c-0.365,0-0.632-0.061-0.801-0.18c-0.169-0.119-0.225-0.277-0.169-0.473
		c0.057-0.17,0.204-0.318,0.443-0.443c0.21-0.113,0.386-0.246,0.527-0.402c0.14-0.152,0.26-0.4,0.358-0.736l1.834-6.092
		c0.042-0.127,0.063-0.232,0.063-0.316c0-0.154-0.035-0.277-0.105-0.369s-0.176-0.186-0.316-0.285
		c-0.141-0.111-0.239-0.211-0.295-0.295c-0.057-0.084-0.063-0.197-0.021-0.336c0.084-0.324,0.527-0.609,1.328-0.855
		c0.801-0.244,1.637-0.369,2.508-0.369C61.497,14.658,62.094,14.814,62.473,15.123z M63.464,10.537
		c0.365,0.359,0.548,0.799,0.548,1.318c0,0.367-0.095,0.725-0.284,1.074c-0.19,0.354-0.457,0.637-0.801,0.855
		c-0.344,0.217-0.727,0.326-1.148,0.326c-0.534,0-0.98-0.18-1.339-0.537c-0.358-0.359-0.545-0.805-0.559-1.338
		c0-0.354,0.091-0.701,0.274-1.045s0.443-0.629,0.78-0.854C61.271,10.113,61.658,10,62.094,10C62.642,10,63.098,10.18,63.464,10.537
		z"/>
	<path fill="#545454" d="M77.282,15.324c0.485,0.441,0.728,0.979,0.728,1.611c0,0.674-0.204,1.201-0.611,1.582
		c-0.408,0.377-0.942,0.568-1.603,0.568c-0.59,0-1.047-0.15-1.37-0.453c-0.324-0.303-0.478-0.643-0.464-1.023
		c-0.141-0.027-0.26,0.029-0.358,0.17s-0.204,0.414-0.316,0.822c-0.071,0.266-0.204,0.512-0.4,0.736
		c0.955,0.07,1.665,0.289,2.129,0.654s0.696,0.836,0.696,1.412c0,0.281-0.05,0.563-0.147,0.844L75.395,22.9
		c-0.028,0.07-0.042,0.164-0.042,0.275c0,0.197,0.091,0.295,0.274,0.295c0.168,0,0.313-0.074,0.432-0.221
		c0.119-0.148,0.2-0.223,0.242-0.223c0.07,0,0.126,0.047,0.169,0.137c0.042,0.092,0.063,0.201,0.063,0.326
		c0.014,0.408-0.109,0.807-0.369,1.193c-0.26,0.385-0.654,0.701-1.181,0.947S73.821,26,73.076,26c-0.899,0-1.647-0.225-2.245-0.674
		c-0.598-0.449-0.896-1.041-0.896-1.771c0-0.268,0.056-0.57,0.168-0.906l0.4-1.055c0.07-0.252,0.105-0.436,0.105-0.547
		c0-0.184-0.06-0.316-0.179-0.4s-0.305-0.127-0.558-0.127h-0.422l-0.949,3.1c-0.042,0.168-0.063,0.314-0.063,0.441
		c0,0.184,0.035,0.326,0.105,0.432c0.07,0.107,0.169,0.209,0.295,0.307c0.098,0.098,0.168,0.178,0.21,0.242
		c0.042,0.064,0.049,0.145,0.021,0.242c-0.07,0.184-0.21,0.316-0.421,0.4s-0.534,0.127-0.969,0.127h-4.807
		c-0.365,0-0.632-0.061-0.801-0.18s-0.225-0.277-0.168-0.473c0.056-0.17,0.204-0.318,0.442-0.443
		c0.211-0.113,0.387-0.246,0.527-0.402c0.14-0.152,0.26-0.4,0.358-0.736l3.204-10.52c0.042-0.127,0.063-0.23,0.063-0.314
		c0-0.156-0.039-0.281-0.115-0.381c-0.078-0.098-0.18-0.197-0.306-0.295c-0.141-0.111-0.242-0.211-0.305-0.295
		c-0.063-0.084-0.074-0.197-0.032-0.338c0.084-0.324,0.527-0.604,1.328-0.844c0.801-0.238,1.637-0.357,2.508-0.357
		c0.815,0,1.412,0.15,1.792,0.453s0.569,0.721,0.569,1.254c0,0.324-0.049,0.633-0.148,0.928l-1.833,5.986h0.696
		c0.281,0,0.509-0.084,0.685-0.252c0.175-0.168,0.312-0.414,0.411-0.738c0.352-1.041,0.808-1.834,1.371-2.383
		c0.562-0.547,1.307-0.822,2.234-0.822C76.154,14.658,76.797,14.881,77.282,15.324z"/>
	<path fill="#545454" d="M90.509,22.9c-0.029,0.057-0.042,0.143-0.042,0.254c0,0.098,0.024,0.176,0.074,0.232
		c0.049,0.055,0.116,0.084,0.2,0.084c0.169,0,0.313-0.074,0.433-0.221c0.119-0.148,0.2-0.223,0.242-0.223
		c0.07,0,0.126,0.047,0.168,0.137c0.042,0.092,0.063,0.201,0.063,0.326c0.014,0.408-0.12,0.807-0.4,1.193
		c-0.281,0.385-0.692,0.701-1.233,0.947C89.472,25.877,88.822,26,88.064,26c-0.928,0-1.666-0.215-2.214-0.643
		c-0.548-0.43-0.829-1.002-0.843-1.719c0-0.52,0.126-1.102,0.379-1.75l1.159-3.035c0.07-0.182,0.105-0.33,0.105-0.441
		c0-0.184-0.06-0.328-0.179-0.432c-0.12-0.107-0.264-0.16-0.432-0.16c-0.267,0-0.537,0.125-0.812,0.369
		c-0.274,0.248-0.495,0.643-0.664,1.191v-0.043l-1.328,4.281c-0.042,0.168-0.063,0.314-0.063,0.441c0,0.184,0.035,0.326,0.105,0.432
		c0.07,0.107,0.168,0.209,0.295,0.307c0.099,0.098,0.168,0.178,0.21,0.242c0.042,0.064,0.049,0.145,0.021,0.242
		c-0.07,0.184-0.211,0.316-0.422,0.4c-0.21,0.084-0.534,0.127-0.969,0.127h-4.807c-0.365,0-0.632-0.061-0.801-0.18
		c-0.168-0.119-0.225-0.277-0.168-0.473c0.056-0.17,0.204-0.318,0.442-0.443c0.211-0.113,0.387-0.246,0.527-0.402
		c0.141-0.152,0.26-0.4,0.358-0.736l3.204-10.52c0.042-0.127,0.063-0.23,0.063-0.314c0-0.156-0.039-0.281-0.116-0.381
		c-0.078-0.098-0.18-0.197-0.306-0.295c-0.141-0.111-0.242-0.211-0.305-0.295s-0.074-0.197-0.032-0.338
		c0.084-0.324,0.527-0.604,1.328-0.844c0.801-0.238,1.637-0.357,2.509-0.357c0.814,0,1.415,0.154,1.802,0.465
		c0.386,0.309,0.58,0.73,0.58,1.264c0,0.311-0.049,0.611-0.147,0.906l-1.138,3.709c0.548-0.715,1.128-1.213,1.739-1.496
		c0.611-0.279,1.275-0.422,1.992-0.422c0.857,0,1.549,0.262,2.077,0.781c0.527,0.52,0.79,1.193,0.79,2.023
		c0,0.436-0.07,0.863-0.211,1.285L90.509,22.9z"/>
	<path fill="#545454" d="M103.958,15.555c0.97,0.598,1.455,1.508,1.455,2.73c0,0.463-0.084,0.99-0.253,1.58l-0.865,2.91
		c-0.014,0.057-0.021,0.125-0.021,0.209c0,0.227,0.092,0.338,0.274,0.338c0.169,0,0.313-0.072,0.432-0.221
		c0.119-0.148,0.2-0.221,0.243-0.221c0.07,0,0.13,0.049,0.179,0.146c0.049,0.1,0.074,0.211,0.074,0.338
		c0.014,0.379-0.13,0.766-0.432,1.158c-0.302,0.395-0.706,0.719-1.212,0.971c-0.506,0.254-1.061,0.379-1.665,0.379
		c-0.731,0-1.357-0.133-1.876-0.4c-0.52-0.266-0.878-0.66-1.075-1.18c-0.422,0.506-0.921,0.896-1.497,1.17s-1.194,0.41-1.855,0.41
		c-0.745,0-1.37-0.143-1.876-0.432c-0.506-0.287-0.882-0.66-1.127-1.117c-0.246-0.457-0.369-0.938-0.369-1.443
		c0-0.225,0.021-0.443,0.063-0.654c0.225-0.969,0.713-1.699,1.465-2.191s1.647-0.738,2.688-0.738c1.166,0,2.311,0.184,3.436,0.547
		l0.527-1.391c0.183-0.59,0.274-1.045,0.274-1.369c-0.014-0.338-0.126-0.592-0.337-0.76c-0.211-0.168-0.534-0.252-0.97-0.252
		c0.084,0.223,0.126,0.455,0.126,0.695c0,0.52-0.197,0.969-0.59,1.348c-0.394,0.381-0.957,0.57-1.687,0.57
		c-0.689,0-1.227-0.15-1.613-0.453c-0.387-0.303-0.58-0.678-0.58-1.127c0-0.703,0.393-1.287,1.18-1.75
		c0.787-0.465,1.988-0.697,3.605-0.697C101.695,14.658,102.988,14.957,103.958,15.555z M97.939,21.5
		c-0.246,0.303-0.369,0.629-0.369,0.979c0,0.227,0.053,0.408,0.158,0.549c0.106,0.141,0.256,0.211,0.454,0.211
		c0.182,0,0.383-0.074,0.601-0.223c0.217-0.146,0.376-0.367,0.474-0.662l0.443-1.244c-0.239-0.041-0.506-0.063-0.802-0.063
		C98.504,21.047,98.185,21.197,97.939,21.5z"/>
	<path fill="#545454" d="M119.388,22.9c-0.028,0.057-0.042,0.143-0.042,0.254c0,0.098,0.024,0.176,0.074,0.232
		c0.049,0.055,0.116,0.084,0.2,0.084c0.169,0,0.313-0.074,0.433-0.221c0.119-0.148,0.199-0.223,0.242-0.223
		c0.07,0,0.126,0.047,0.168,0.137c0.043,0.092,0.063,0.201,0.063,0.326c0.015,0.408-0.12,0.807-0.4,1.193
		c-0.281,0.385-0.692,0.701-1.233,0.947c-0.541,0.246-1.191,0.369-1.95,0.369c-0.927,0-1.666-0.215-2.213-0.643
		c-0.548-0.43-0.829-1.002-0.843-1.719c0-0.52,0.126-1.102,0.379-1.75l1.159-3.035c0.07-0.182,0.105-0.33,0.105-0.441
		c0-0.184-0.06-0.328-0.179-0.432c-0.12-0.107-0.264-0.16-0.432-0.16c-0.31,0-0.604,0.145-0.885,0.434
		c-0.281,0.287-0.485,0.641-0.611,1.064l-1.307,4.301c-0.056,0.154-0.084,0.301-0.084,0.441c0,0.168,0.035,0.307,0.105,0.41
		c0.07,0.105,0.168,0.215,0.295,0.328c0.099,0.084,0.169,0.162,0.211,0.23c0.042,0.07,0.049,0.156,0.021,0.254
		c-0.056,0.184-0.189,0.316-0.4,0.4c-0.21,0.084-0.541,0.127-0.991,0.127h-4.806c-0.365,0-0.629-0.061-0.791-0.18
		c-0.161-0.119-0.221-0.277-0.179-0.473c0.056-0.17,0.204-0.318,0.442-0.443c0.211-0.113,0.387-0.246,0.527-0.402
		c0.14-0.152,0.26-0.4,0.358-0.736l1.876-6.092c0.028-0.07,0.042-0.17,0.042-0.295c0-0.154-0.032-0.273-0.095-0.359
		c-0.063-0.084-0.165-0.189-0.305-0.316c-0.141-0.111-0.239-0.211-0.295-0.295s-0.063-0.197-0.021-0.336
		c0.084-0.324,0.527-0.609,1.328-0.855c0.801-0.244,1.637-0.369,2.508-0.369c0.702,0,1.258,0.195,1.666,0.58
		c0.407,0.387,0.59,0.924,0.548,1.613c0.576-0.83,1.187-1.402,1.834-1.719c0.646-0.314,1.349-0.475,2.108-0.475
		c0.857,0,1.55,0.262,2.077,0.781c0.526,0.52,0.79,1.193,0.79,2.023c0,0.436-0.07,0.863-0.211,1.285L119.388,22.9z"/>
	<path fill="#545454" d="M133.173,23.006c0,0.1,0.029,0.178,0.084,0.232c0.057,0.057,0.127,0.084,0.211,0.084
		c0.17,0,0.313-0.072,0.434-0.221c0.119-0.148,0.199-0.221,0.242-0.221c0.07,0,0.127,0.049,0.168,0.146
		c0.043,0.1,0.064,0.211,0.064,0.338c0.014,0.379-0.131,0.766-0.434,1.158c-0.303,0.395-0.705,0.719-1.211,0.971
		c-0.506,0.254-1.055,0.379-1.645,0.379c-0.703,0-1.314-0.133-1.834-0.4c-0.52-0.266-0.879-0.617-1.076-1.055
		c-0.379,0.492-0.814,0.859-1.307,1.098c-0.492,0.238-1.011,0.357-1.56,0.357c-0.646,0-1.246-0.16-1.802-0.484
		s-0.998-0.783-1.327-1.381c-0.331-0.598-0.496-1.275-0.496-2.035c0-1.277,0.242-2.482,0.728-3.615
		c0.484-1.131,1.163-2.045,2.034-2.738c0.871-0.697,1.861-1.045,2.972-1.045c0.604,0,1.119,0.07,1.549,0.213
		c0.43,0.139,0.818,0.35,1.17,0.631l0.717-2.361c0.043-0.127,0.064-0.23,0.064-0.314c0-0.156-0.041-0.281-0.117-0.381
		c-0.078-0.098-0.18-0.197-0.307-0.295c-0.141-0.111-0.24-0.211-0.305-0.295c-0.063-0.084-0.074-0.197-0.031-0.338
		c0.084-0.324,0.527-0.604,1.328-0.844c0.801-0.238,1.637-0.357,2.508-0.357c0.814,0,1.416,0.154,1.803,0.465
		c0.387,0.309,0.58,0.73,0.58,1.264c0,0.311-0.049,0.611-0.148,0.906l-3.014,9.908C133.187,22.887,133.173,22.965,133.173,23.006z
		 M128.958,16.557c-0.408,0-0.809,0.303-1.203,0.906c-0.393,0.604-0.709,1.334-0.947,2.191c-0.24,0.859-0.351,1.631-0.337,2.318
		c0,0.773,0.253,1.16,0.759,1.16c0.182,0,0.336-0.072,0.463-0.221s0.246-0.389,0.359-0.727l1.643-5.334
		C129.47,16.654,129.224,16.557,128.958,16.557z"/>
</g>
</svg>
