<?xml version="1.0" encoding="utf-8"?>
<!-- Generator: Adobe Illustrator 16.0.0, SVG Export Plug-In . SVG Version: 6.00 Build 0)  -->
<!DOCTYPE svg PUBLIC "-//W3C//DTD SVG 1.1//EN" "http://www.w3.org/Graphics/SVG/1.1/DTD/svg11.dtd">
<svg version="1.1" id="图层_1" xmlns="http://www.w3.org/2000/svg" xmlns:xlink="http://www.w3.org/1999/xlink" x="0px" y="0px"
	 width="258px" height="36px" viewBox="0 0 258 36" enable-background="new 0 0 258 36" xml:space="preserve">
<g>
	<path fill="#545454" d="M16.43,23.385c0-0.877-0.045-1.629-0.136-2.256c-0.09-0.629-0.21-1.176-0.358-1.643
		c-0.148-0.467-0.324-0.869-0.527-1.205s-0.399-0.662-0.59-0.977c-0.19-0.314-0.378-0.625-0.564-0.932
		c-0.186-0.309-0.353-0.656-0.501-1.045c-0.149-0.389-0.269-0.836-0.36-1.346c-0.091-0.508-0.136-1.115-0.136-1.826V9.168
		c0-0.199,0.031-0.424,0.093-0.676c0.062-0.25,0.18-0.486,0.353-0.707c0.173-0.219,0.416-0.402,0.725-0.557
		C14.738,7.074,15.141,7,15.637,7c0.496,0,0.898,0.074,1.208,0.229c0.31,0.154,0.551,0.338,0.725,0.557
		c0.173,0.221,0.292,0.457,0.353,0.707c0.063,0.252,0.093,0.477,0.093,0.676v5.553H16.43V9.168c0-0.199-0.023-0.361-0.068-0.49
		c-0.045-0.127-0.105-0.227-0.179-0.297c-0.075-0.07-0.16-0.119-0.254-0.148c-0.096-0.029-0.192-0.043-0.292-0.043
		s-0.197,0.014-0.292,0.043c-0.095,0.027-0.18,0.078-0.254,0.148s-0.135,0.168-0.179,0.297c-0.046,0.127-0.069,0.291-0.069,0.488
		v2.412c0,0.932,0.081,1.711,0.241,2.338c0.161,0.627,0.361,1.172,0.603,1.639c0.241,0.465,0.484,0.898,0.73,1.295
		c0.246,0.396,0.5,0.807,0.764,1.23c0.264,0.426,0.469,0.93,0.616,1.512c0.146,0.586,0.22,1.311,0.22,2.18v4.844
		c0,0.1-0.013,0.279-0.037,0.541c-0.025,0.26-0.112,0.527-0.261,0.801c-0.148,0.273-0.384,0.516-0.706,0.727S16.231,29,15.637,29
		c-0.595,0-1.054-0.105-1.376-0.316s-0.558-0.453-0.707-0.725c-0.148-0.273-0.235-0.541-0.26-0.801
		c-0.024-0.26-0.037-0.439-0.037-0.539V19.48h1.586v7.139c0,0.1,0.004,0.217,0.013,0.354s0.037,0.268,0.086,0.391
		c0.05,0.125,0.128,0.229,0.236,0.316c0.107,0.086,0.26,0.131,0.458,0.131s0.351-0.045,0.458-0.131
		c0.107-0.088,0.186-0.191,0.235-0.316c0.05-0.123,0.079-0.254,0.087-0.391s0.012-0.254,0.012-0.354V23.385z"/>
	<path fill="#545454" d="M20.991,9.564v19.039h-1.586V9.564H20.991z"/>
	<path fill="#545454" d="M24.759,15.117l0.396-5.553h1.586l-1.19,9.916l1.19,9.123h-1.586l-0.396-4.76l-0.198-3.174l-0.199,3.174
		l-0.396,4.76h-1.586l1.19-9.123l-1.19-9.916h1.586l0.396,5.553l0.199,3.174L24.759,15.117z"/>
	<path fill="#545454" d="M35.629,15.91h-1.586V9.168c0-0.199-0.023-0.361-0.069-0.49c-0.045-0.127-0.105-0.227-0.179-0.297
		s-0.159-0.119-0.254-0.148c-0.096-0.029-0.192-0.043-0.292-0.043s-0.197,0.014-0.292,0.043c-0.095,0.029-0.18,0.078-0.254,0.148
		s-0.135,0.17-0.179,0.297c-0.046,0.129-0.069,0.291-0.069,0.49v17.451c0,0.1,0.004,0.217,0.013,0.354s0.037,0.268,0.087,0.391
		c0.049,0.125,0.128,0.229,0.235,0.316c0.107,0.086,0.26,0.131,0.458,0.131s0.351-0.045,0.458-0.131
		c0.107-0.088,0.186-0.191,0.236-0.316c0.049-0.123,0.078-0.254,0.086-0.391s0.013-0.254,0.013-0.354v-8.328h1.586v8.328
		c0,0.1-0.013,0.279-0.037,0.539c-0.025,0.26-0.112,0.527-0.26,0.801c-0.149,0.271-0.384,0.514-0.707,0.725S33.845,29,33.25,29
		c-0.595,0-1.054-0.105-1.376-0.316s-0.558-0.453-0.707-0.725c-0.148-0.273-0.235-0.541-0.26-0.801
		c-0.024-0.26-0.037-0.439-0.037-0.539V9.168c0-0.381,0.07-0.709,0.211-0.986c0.14-0.275,0.324-0.502,0.552-0.674
		c0.227-0.174,0.481-0.303,0.762-0.385C32.675,7.039,32.96,7,33.25,7c0.306,0,0.601,0.045,0.887,0.135
		c0.284,0.092,0.539,0.229,0.762,0.41s0.401,0.408,0.533,0.682c0.132,0.271,0.198,0.586,0.198,0.941V15.91z"/>
	<path fill="#545454" d="M41.579,28.604h-1.493L39.744,24.5h-1.103l-0.23,4.104h-1.592l1.475-19.039h1.698L41.579,28.604z
		 M39.658,23.199l-0.458-9.668l-0.471,9.668H39.658z"/>
	<path fill="#545454" d="M47.528,17.895c0,0.494-0.091,0.877-0.273,1.146c-0.182,0.268-0.421,0.465-0.719,0.588
		c-0.297,0.125-0.636,0.197-1.016,0.217c-0.38,0.021-0.769,0.031-1.166,0.031v8.727h-1.586V9.564h1.983
		c0.702,0,1.241,0.066,1.617,0.199c0.376,0.131,0.651,0.297,0.824,0.494c0.174,0.199,0.273,0.414,0.298,0.645
		c0.024,0.232,0.037,0.447,0.037,0.645V17.895z M45.942,11.547c0-0.197-0.027-0.35-0.081-0.459
		c-0.054-0.105-0.143-0.186-0.267-0.234s-0.288-0.078-0.49-0.086c-0.203-0.01-0.452-0.014-0.75-0.014v7.934
		c0.199,0,0.393-0.006,0.583-0.02c0.19-0.012,0.36-0.055,0.508-0.129c0.149-0.074,0.269-0.193,0.359-0.354
		c0.091-0.162,0.137-0.391,0.137-0.688V11.547z"/>
	<path fill="#545454" d="M53.081,16.307h-1.586V11.35c0-0.297-0.062-0.504-0.186-0.619c-0.124-0.117-0.26-0.174-0.409-0.174
		c-0.148,0-0.285,0.057-0.409,0.174c-0.124,0.115-0.186,0.322-0.186,0.619c0,0.885,0.041,1.699,0.124,2.441
		c0.082,0.744,0.188,1.432,0.32,2.059c0.131,0.629,0.286,1.197,0.466,1.707c0.179,0.51,0.345,0.984,0.498,1.42
		c0.12,0.344,0.259,0.738,0.416,1.188c0.157,0.449,0.307,0.982,0.45,1.6c0.142,0.621,0.262,1.344,0.359,2.168
		c0.096,0.826,0.145,1.789,0.145,2.887c0,0.348-0.062,0.648-0.186,0.898c-0.124,0.252-0.289,0.459-0.496,0.621
		c-0.207,0.16-0.44,0.277-0.701,0.352c-0.26,0.074-0.526,0.111-0.799,0.111c-0.272,0-0.539-0.037-0.799-0.111
		c-0.261-0.074-0.494-0.191-0.701-0.354c-0.207-0.16-0.372-0.367-0.496-0.619c-0.124-0.252-0.186-0.551-0.186-0.898v-4.959h1.586
		v4.959c0,0.297,0.062,0.504,0.186,0.619c0.124,0.115,0.26,0.174,0.409,0.174c0.149,0,0.285-0.059,0.409-0.174
		s0.186-0.322,0.186-0.619c0-1.066-0.052-2.002-0.156-2.807c-0.104-0.805-0.236-1.516-0.394-2.131
		c-0.158-0.615-0.323-1.158-0.493-1.627c-0.17-0.471-0.327-0.9-0.468-1.287c-0.139-0.381-0.295-0.813-0.47-1.293
		c-0.175-0.48-0.319-1.033-0.43-1.65c-0.112-0.621-0.201-1.316-0.267-2.09c-0.066-0.771-0.099-1.635-0.099-2.584
		c0-0.348,0.062-0.645,0.186-0.893c0.124-0.248,0.289-0.451,0.496-0.613c0.207-0.16,0.439-0.281,0.701-0.359
		c0.26-0.08,0.526-0.117,0.799-0.117c0.273,0,0.54,0.037,0.799,0.117c0.261,0.078,0.494,0.199,0.701,0.359
		c0.207,0.162,0.372,0.365,0.496,0.613s0.186,0.545,0.186,0.893V16.307z"/>
</g>
</svg>
