<?xml version="1.0" encoding="utf-8"?>
<!-- Generator: Adobe Illustrator 16.0.0, SVG Export Plug-In . SVG Version: 6.00 Build 0)  -->
<!DOCTYPE svg PUBLIC "-//W3C//DTD SVG 1.1//EN" "http://www.w3.org/Graphics/SVG/1.1/DTD/svg11.dtd">
<svg version="1.1" id="图层_1" xmlns="http://www.w3.org/2000/svg" xmlns:xlink="http://www.w3.org/1999/xlink" x="0px" y="0px"
	 width="258px" height="36px" viewBox="0 0 258 36" enable-background="new 0 0 258 36" xml:space="preserve">
<g>
	<path fill="#545454" d="M13.529,23.995c-0.142-0.068-0.213-0.211-0.213-0.426c0-0.217,0.174-0.679,0.52-1.386
		c0.347-0.706,0.62-1.06,0.819-1.06c0.112,0,0.289,0.077,0.527,0.232c0.239,0.157,0.517,0.346,0.833,0.567
		c0.315,0.222,0.657,0.44,1.026,0.656c0.897,0.534,1.77,0.8,2.616,0.8c0.42,0,0.721-0.083,0.903-0.255
		c0.181-0.169,0.272-0.342,0.272-0.515c0-0.174-0.097-0.369-0.29-0.588s-0.445-0.446-0.754-0.68
		c-0.31-0.232-0.652-0.478-1.027-0.736c-0.375-0.258-0.75-0.532-1.125-0.822c-0.375-0.287-0.715-0.578-1.022-0.868
		c-0.698-0.659-1.048-1.301-1.048-1.926c0-0.443,0.119-0.843,0.354-1.201c0.236-0.358,0.537-0.647,0.903-0.87
		c0.368-0.221,0.783-0.405,1.249-0.553c0.835-0.272,1.695-0.409,2.581-0.409c0.244,0,0.427,0.037,0.545,0.111
		c0.121,0.072,0.18,0.158,0.18,0.255s-0.043,0.242-0.127,0.439c-0.086,0.195-0.128,0.37-0.128,0.523c0,0.152,0.103,0.35,0.311,0.588
		s0.476,0.482,0.805,0.732c0.33,0.25,0.694,0.517,1.092,0.801c0.397,0.285,0.794,0.586,1.191,0.902
		c0.398,0.319,0.763,0.643,1.092,0.972c0.744,0.746,1.116,1.465,1.116,2.16c0,0.696-0.18,1.278-0.541,1.744
		c-0.36,0.466-0.862,0.825-1.504,1.083c-0.642,0.254-1.347,0.439-2.113,0.558C21.804,24.941,20.869,25,19.767,25
		s-2.316-0.116-3.643-0.346S13.932,24.204,13.529,23.995z M27.64,15.653c-0.743-0.887-1.665-1.547-2.765-1.981
		c-1.099-0.436-2.245-0.652-3.438-0.652c-2.188,0-4.294,0.411-6.323,1.236c-0.273,0.106-0.466,0.161-0.58,0.161
		c-0.228,0-0.34-0.108-0.34-0.323c0-0.176,0.151-0.387,0.455-0.631c0.305-0.244,0.742-0.496,1.313-0.754
		c0.572-0.259,1.217-0.499,1.939-0.721c1.647-0.505,3.414-0.759,5.299-0.759c2.789,0,4.895,0.393,6.316,1.176
		c0.078,0.046,0.114,0.181,0.105,0.406c-0.008,0.224-0.112,0.569-0.31,1.035c-0.199,0.466-0.439,0.896-0.721,1.295
		c-0.282,0.396-0.521,0.596-0.721,0.596C27.819,15.682,27.743,15.653,27.64,15.653z"/>
	<path fill="#545454" d="M30.657,24.089c-1.068-0.642-1.602-1.617-1.602-2.924c0-0.683,0.14-1.322,0.421-1.921
		c0.282-0.599,0.668-1.117,1.16-1.554c0.491-0.438,1.063-0.814,1.717-1.127c1.306-0.631,2.803-0.945,4.491-0.945
		c3.316,0,5.108,1.051,5.375,3.154c0.398,0.13,0.809,0.193,1.231,0.193s0.776-0.029,1.061-0.093c0.283-0.062,0.552-0.155,0.805-0.28
		c0.253-0.125,0.434-0.188,0.542-0.188c0.215,0,0.323,0.106,0.323,0.315c0,0.21-0.167,0.429-0.503,0.655
		c-0.632,0.434-1.466,0.648-2.505,0.648c-0.393,0-0.711-0.021-0.955-0.061c-0.181,1.434-0.919,2.624-2.216,3.571
		c-0.619,0.454-1.378,0.813-2.278,1.074C36.824,24.87,35.893,25,34.93,25c-0.963,0-1.788-0.075-2.475-0.226
		C31.767,24.624,31.168,24.395,30.657,24.089z M33.75,21.916c0,1.052,0.383,1.574,1.15,1.574c0.488,0,0.944-0.266,1.367-0.8
		s0.753-1.196,0.989-1.985c0.235-0.789,0.354-1.594,0.354-2.415c0-0.82-0.287-1.231-0.861-1.231c-0.499,0-0.984,0.235-1.453,0.706
		c-0.468,0.474-0.843,1.085-1.125,1.838C33.891,20.355,33.75,21.124,33.75,21.916z"/>
	<path fill="#545454" d="M60.42,22.231c0.21,0,0.315,0.096,0.315,0.293s-0.103,0.368-0.311,0.515
		c-0.208,0.149-0.513,0.317-0.916,0.508c-0.403,0.189-0.905,0.399-1.504,0.626c-0.599,0.229-1.292,0.423-2.079,0.585
		S54.387,25,53.672,25c-1.687,0-2.531-0.387-2.531-1.158c0-0.501,0.286-1.394,0.857-2.68c0.57-1.287,0.856-2.156,0.856-2.604
		c0-0.505-0.396-0.758-1.185-0.758c-0.358,0-0.764,0.045-1.219,0.137c-0.215,0.761-0.601,1.971-1.155,3.629
		c-0.553,1.659-0.865,2.603-0.937,2.829c-0.071,0.229-0.222,0.341-0.456,0.341l-4.388,0.094c-0.063,0-0.132-0.039-0.21-0.114
		c-0.077-0.077-0.115-0.169-0.115-0.272c0-0.105,0.12-0.478,0.362-1.117c0.243-0.639,0.51-1.326,0.801-2.063
		c0.292-0.734,0.56-1.546,0.801-2.428c0.241-0.883,0.363-1.615,0.363-2.195l-0.009-0.322c0-0.283,0.276-0.427,0.826-0.427
		l4.039-0.094c0.149,0,0.259,0.045,0.334,0.132c0.074,0.089,0.11,0.196,0.11,0.325c0,0.126-0.031,0.333-0.094,0.618
		c2-0.836,3.642-1.254,4.926-1.254c0.546,0,1.042,0.15,1.491,0.451c0.499,0.336,0.75,0.844,0.75,1.525
		c0,0.699-0.265,1.615-0.793,2.744c-0.528,1.13-0.792,1.829-0.792,2.098c0,0.527,0.209,0.792,0.63,0.792
		c0.267,0,0.724-0.102,1.368-0.303c0.646-0.202,1.121-0.368,1.432-0.5C60.044,22.297,60.272,22.231,60.42,22.231z"/>
	<path fill="#545454" d="M65.268,24.993C65.126,24.996,64.917,25,64.639,25c-1.307,0-2.538-0.122-3.694-0.366
		s-1.838-0.529-2.049-0.853c-0.068-0.101-0.102-0.229-0.102-0.384c0-0.153,0.181-0.399,0.545-0.736s0.613-0.508,0.75-0.508
		c0.136,0,0.277,0.051,0.422,0.148c0.144,0.101,0.306,0.221,0.48,0.364c0.177,0.141,0.373,0.283,0.589,0.426
		c0.517,0.341,1.139,0.51,1.866,0.51c0.29,0,0.524-0.072,0.703-0.222c0.179-0.146,0.269-0.332,0.269-0.558
		c0-0.223-0.076-0.418-0.226-0.583s-0.346-0.309-0.588-0.432c-0.242-0.122-0.507-0.244-0.796-0.366
		c-0.29-0.122-0.581-0.255-0.875-0.399c-0.292-0.146-0.561-0.302-0.805-0.474c-0.54-0.38-0.809-0.853-0.809-1.418
		s0.171-1.056,0.514-1.472c0.345-0.412,0.777-0.745,1.3-0.996c0.523-0.248,1.113-0.459,1.773-0.631
		c1.158-0.288,2.253-0.434,3.284-0.434c1.032,0,1.992,0.053,2.881,0.158c0.889,0.105,1.5,0.26,1.835,0.465
		c0.091,0.051,0.136,0.186,0.136,0.404s-0.076,0.53-0.23,0.938c-0.153,0.406-0.347,0.779-0.583,1.124
		c-0.235,0.343-0.447,0.517-0.634,0.517c-0.074,0-0.137-0.031-0.188-0.096c-0.54-0.646-1.064-1.146-1.571-1.494
		c-0.51-0.35-1.062-0.524-1.659-0.524c-0.453,0-0.779,0.093-0.974,0.277c-0.196,0.183-0.294,0.376-0.294,0.575
		c0,0.198,0.109,0.388,0.328,0.57s0.491,0.348,0.817,0.494c0.327,0.147,0.682,0.32,1.065,0.516c0.383,0.197,0.738,0.394,1.065,0.598
		c0.327,0.201,0.599,0.452,0.818,0.757s0.328,0.688,0.328,1.146c0,0.462-0.168,0.91-0.503,1.348c1.409-0.284,2.511-0.635,3.306-1.05
		c0.137-0.073,0.253-0.109,0.35-0.109c0.216,0,0.323,0.107,0.323,0.323c0,0.183-0.11,0.347-0.333,0.497
		c-0.222,0.15-0.587,0.333-1.098,0.547c-0.512,0.213-1.12,0.426-1.824,0.643C68.911,24.741,67.149,24.993,65.268,24.993z"/>
	<path fill="#545454" d="M78.553,23.219c0.387,0,0.911-0.092,1.572-0.276s1.144-0.35,1.444-0.494
		c0.301-0.146,0.512-0.217,0.631-0.217c0.238,0,0.357,0.119,0.357,0.356c0,0.108-0.088,0.231-0.264,0.368
		c-0.579,0.431-1.622,0.879-3.128,1.345C77.661,24.767,76.317,25,75.136,25c-0.732,0-1.346-0.116-1.84-0.349
		s-0.741-0.588-0.741-1.066c0-0.288,0.247-0.998,0.741-2.131c0.932-2.14,1.398-3.753,1.398-4.839l-0.009-0.323
		c0-0.284,0.276-0.427,0.826-0.427l4.209-0.093c0.148,0,0.259,0.044,0.334,0.131c0.073,0.089,0.11,0.188,0.11,0.295
		c0,0.391-0.179,1.038-0.538,1.938c-0.357,0.899-0.715,1.784-1.073,2.654c-0.357,0.867-0.536,1.491-0.536,1.864
		C78.017,23.031,78.195,23.219,78.553,23.219z M80.947,12.645c0,0.607-0.337,1.138-1.009,1.589c-0.673,0.451-1.383,0.678-2.13,0.678
		s-1.328-0.152-1.742-0.456s-0.623-0.674-0.623-1.111s0.16-0.835,0.479-1.193c0.318-0.357,0.729-0.639,1.239-0.843
		C77.668,11.103,78.222,11,78.817,11c0.597,0,1.101,0.157,1.512,0.473C80.741,11.787,80.947,12.18,80.947,12.645z"/>
	<path fill="#545454" d="M95.356,22.231c0.199,0,0.298,0.093,0.298,0.275c0,0.186-0.135,0.354-0.404,0.512
		c-0.271,0.156-0.604,0.323-1.001,0.503c-0.398,0.179-0.946,0.392-1.645,0.636C90.997,24.72,89.181,25,87.159,25
		c-3.84,0-5.76-1.183-5.76-3.546c0-1.151,0.364-2.176,1.095-3.07c0.729-0.896,1.708-1.58,2.935-2.055
		c1.228-0.473,2.565-0.711,4.013-0.711c1.449,0,2.51,0.225,3.184,0.674c0.672,0.448,1.01,1.064,1.01,1.85
		c0,0.807-0.322,1.465-0.969,1.976c-0.644,0.512-1.5,0.893-2.568,1.143c-1.073,0.249-2.303,0.425-3.689,0.528
		c0.091,0.881,0.721,1.428,1.892,1.645c0.301,0.051,0.62,0.076,0.955,0.076c1.329,0,3.247-0.401,5.751-1.201
		C95.161,22.257,95.277,22.231,95.356,22.231z M86.418,20.851c0.989-0.273,1.771-0.69,2.343-1.254
		c0.574-0.562,0.861-1.24,0.861-2.036c0-0.21-0.068-0.377-0.205-0.502s-0.342-0.187-0.617-0.187s-0.563,0.118-0.861,0.355
		c-0.297,0.24-0.549,0.552-0.754,0.938C86.754,18.966,86.498,19.862,86.418,20.851z"/>
	<path fill="#545454" d="M109.45,15.396c-0.943,0.768-1.661,1.907-2.155,3.418c-0.262,0.819-0.392,1.647-0.392,2.488
		c0,1.472,0.479,2.207,1.438,2.207c0.489,0,0.995-0.201,1.517-0.605c0.523-0.402,0.993-0.928,1.411-1.573
		c0.418-0.644,0.761-1.409,1.031-2.295s0.404-1.771,0.404-2.658c0-1.251-0.222-2.14-0.665-2.666
		c-0.442-0.53-1.187-0.793-2.232-0.793c-0.579,0-1.204,0.061-1.874,0.187c-0.671,0.126-1.236,0.263-1.7,0.414
		c-0.463,0.15-0.879,0.288-1.248,0.413c-0.37,0.124-0.582,0.188-0.639,0.188c-0.21,0-0.316-0.086-0.316-0.256
		c0-0.136,0.142-0.313,0.422-0.532c0.281-0.219,0.672-0.45,1.172-0.69c0.5-0.241,1.054-0.469,1.662-0.677
		c1.414-0.489,2.798-0.734,4.149-0.734c2.596,0,4.432,0.757,5.504,2.267c0.63,0.892,0.946,1.995,0.946,3.308
		c0,0.994-0.172,1.928-0.521,2.799c-0.345,0.871-0.828,1.633-1.447,2.287s-1.345,1.217-2.181,1.687
		c-1.688,0.95-3.599,1.424-5.736,1.424c-4.18,0-6.271-1.429-6.271-4.286c0-0.802,0.173-1.569,0.52-2.306
		c0.347-0.734,0.802-1.374,1.368-1.917c0.565-0.542,1.201-1.018,1.905-1.426c1.431-0.818,2.868-1.229,4.311-1.229
		c0.229,0,0.392,0.041,0.49,0.124c0.1,0.082,0.149,0.166,0.149,0.252s-0.013,0.157-0.038,0.216c-0.025,0.062-0.075,0.131-0.149,0.21
		c-0.073,0.079-0.14,0.147-0.196,0.204C109.948,14.969,109.734,15.152,109.45,15.396z"/>
	<path fill="#545454" d="M135.389,22.231c0.211,0,0.314,0.096,0.314,0.293s-0.104,0.368-0.309,0.515
		c-0.209,0.149-0.516,0.317-0.918,0.508c-0.404,0.189-0.904,0.399-1.504,0.626c-0.6,0.229-1.293,0.423-2.08,0.585
		S129.354,25,128.64,25c-1.688,0-2.53-0.387-2.53-1.158c0-0.501,0.284-1.394,0.854-2.68c0.57-1.287,0.856-2.156,0.856-2.604
		c0-0.505-0.396-0.758-1.185-0.758c-0.357,0-0.764,0.045-1.218,0.137c-0.217,0.761-0.602,1.971-1.153,3.629
		c-0.555,1.659-0.868,2.603-0.939,2.829c-0.071,0.229-0.223,0.341-0.455,0.341l-4.388,0.094c-0.063,0-0.133-0.039-0.209-0.114
		c-0.077-0.077-0.116-0.169-0.116-0.272c0-0.105,0.121-0.478,0.363-1.117c0.241-0.639,0.509-1.326,0.8-2.063
		c0.293-0.734,0.56-1.546,0.802-2.428c0.24-0.883,0.361-1.615,0.361-2.195l-0.008-0.322c0-0.283,0.275-0.427,0.826-0.427
		l4.039-0.094c0.147,0,0.259,0.045,0.331,0.132c0.075,0.089,0.109,0.196,0.109,0.325c0,0.126-0.028,0.333-0.093,0.618
		c2-0.836,3.643-1.254,4.925-1.254c0.545,0,1.043,0.15,1.492,0.451c0.498,0.336,0.75,0.844,0.75,1.525
		c0,0.699-0.266,1.615-0.793,2.744c-0.527,1.13-0.793,1.829-0.793,2.098c0,0.527,0.213,0.792,0.631,0.792
		c0.266,0,0.725-0.102,1.367-0.303c0.646-0.202,1.123-0.368,1.432-0.5C135.012,22.297,135.24,22.231,135.389,22.231z"/>
	<path fill="#545454" d="M148.502,22.231c0.199,0,0.297,0.093,0.297,0.275c0,0.186-0.133,0.354-0.402,0.512
		c-0.271,0.156-0.605,0.323-1.002,0.503c-0.398,0.179-0.947,0.392-1.645,0.636C144.143,24.72,142.326,25,140.305,25
		c-3.842,0-5.76-1.183-5.76-3.546c0-1.151,0.363-2.176,1.096-3.07c0.729-0.896,1.707-1.58,2.934-2.055
		c1.227-0.473,2.564-0.711,4.012-0.711c1.449,0,2.514,0.225,3.186,0.674c0.672,0.448,1.01,1.064,1.01,1.85
		c0,0.807-0.324,1.465-0.969,1.976c-0.643,0.512-1.502,0.893-2.57,1.143c-1.07,0.249-2.301,0.425-3.689,0.528
		c0.094,0.881,0.723,1.428,1.895,1.645c0.301,0.051,0.619,0.076,0.953,0.076c1.33,0,3.248-0.401,5.752-1.201
		C148.305,22.257,148.424,22.231,148.502,22.231z M139.564,20.851c0.986-0.273,1.768-0.69,2.342-1.254
		c0.572-0.562,0.861-1.24,0.861-2.036c0-0.21-0.07-0.377-0.205-0.502c-0.137-0.125-0.342-0.187-0.619-0.187
		c-0.273,0-0.561,0.118-0.861,0.355c-0.297,0.24-0.547,0.552-0.752,0.938C139.898,18.966,139.643,19.862,139.564,20.851z"/>
</g>
</svg>
