<?xml version="1.0" encoding="utf-8"?>
<!-- Generator: Adobe Illustrator 16.0.0, SVG Export Plug-In . SVG Version: 6.00 Build 0)  -->
<!DOCTYPE svg PUBLIC "-//W3C//DTD SVG 1.1//EN" "http://www.w3.org/Graphics/SVG/1.1/DTD/svg11.dtd">
<svg version="1.1" id="图层_1" xmlns="http://www.w3.org/2000/svg" xmlns:xlink="http://www.w3.org/1999/xlink" x="0px" y="0px"
	 width="258px" height="36px" viewBox="0 0 258 36" enable-background="new 0 0 258 36" xml:space="preserve">
<g>
	<path fill="#545454" d="M23.597,17.848c0,0.346-0.022,0.684-0.066,1.016s-0.076,0.67-0.096,1.014
		c-0.047-0.045-0.1-0.086-0.157-0.115c-0.058-0.031-0.117-0.047-0.178-0.047c-0.075,0-0.146,0.025-0.213,0.072
		c-0.067,0.047-0.102,0.107-0.102,0.182c0,0.082,0.039,0.137,0.117,0.164c0.078,0.025,0.158,0.039,0.239,0.039
		c0.068,0,0.115-0.002,0.142-0.01c0,0.08-0.022,0.164-0.066,0.25c-0.044,0.084-0.099,0.166-0.162,0.248
		c-0.065,0.08-0.132,0.156-0.203,0.229c-0.071,0.07-0.134,0.133-0.188,0.188c-0.041,0.041-0.084,0.098-0.132,0.172
		s-0.1,0.146-0.158,0.219c-0.058,0.07-0.116,0.131-0.177,0.184c-0.061,0.049-0.122,0.076-0.183,0.076
		c-0.068,0-0.122-0.02-0.163-0.057s-0.088-0.057-0.142-0.057c-0.074,0-0.12,0.039-0.137,0.117c-0.018,0.078-0.025,0.154-0.025,0.229
		v0.121c0,0.035-0.071,0.078-0.213,0.133s-0.313,0.113-0.512,0.178c-0.2,0.064-0.406,0.127-0.62,0.193
		c-0.213,0.064-0.391,0.125-0.533,0.188c-0.277,0.115-0.558,0.209-0.842,0.283s-0.579,0.111-0.883,0.111
		c-0.223,0-0.438-0.029-0.645-0.086s-0.413-0.121-0.619-0.191c-0.207-0.072-0.413-0.137-0.62-0.193
		c-0.207-0.059-0.421-0.088-0.644-0.088c-0.088,0-0.203,0.014-0.345,0.041s-0.25,0.068-0.325,0.123
		c-0.034,0.025-0.068,0.076-0.102,0.146s-0.075,0.107-0.122,0.107c-0.034,0-0.081-0.014-0.142-0.041
		c-0.061-0.027-0.104-0.049-0.132-0.063c-0.156-0.08-0.288-0.188-0.396-0.318c-0.108-0.133-0.2-0.277-0.274-0.432
		c-0.074-0.156-0.128-0.32-0.162-0.492c-0.034-0.172-0.051-0.34-0.051-0.502c0-0.115,0.012-0.229,0.035-0.34
		c0.024-0.113,0.036-0.227,0.036-0.34c0-0.164-0.019-0.322-0.056-0.477c-0.038-0.158-0.056-0.316-0.056-0.479
		c0-0.115,0.018-0.23,0.056-0.346c0.037-0.113,0.056-0.229,0.056-0.344c0-0.088-0.02-0.17-0.061-0.248
		c-0.041-0.08-0.061-0.162-0.061-0.25c0-0.061,0.021-0.111,0.066-0.152c0.044-0.041,0.066-0.088,0.066-0.143
		c0-0.08-0.003-0.162-0.01-0.242c-0.007-0.082-0.01-0.162-0.01-0.244c0-0.041,0.001-0.1,0.005-0.178
		c0.003-0.078,0.012-0.154,0.025-0.229s0.037-0.139,0.071-0.191c0.034-0.055,0.082-0.082,0.142-0.082
		c0.122,0,0.245,0.076,0.371,0.229c0.125,0.152,0.24,0.33,0.345,0.533c0.104,0.201,0.191,0.404,0.259,0.607
		c0.067,0.203,0.102,0.355,0.102,0.457c0,0.033-0.014,0.066-0.041,0.096c-0.027,0.031-0.061,0.047-0.102,0.047
		c0.027,0.047,0.057,0.119,0.091,0.213c0.034,0.096,0.051,0.17,0.051,0.223c0,0.082-0.012,0.16-0.035,0.234
		c-0.024,0.074-0.036,0.152-0.036,0.232c0,0.068,0.016,0.133,0.045,0.193c0.031,0.063,0.063,0.119,0.097,0.174
		c0.054,0.08,0.102,0.141,0.142,0.182s0.084,0.07,0.132,0.086c0.048,0.018,0.1,0.029,0.157,0.035
		c0.058,0.008,0.134,0.014,0.229,0.021c0.136,0.195,0.288,0.379,0.457,0.547c0.169,0.17,0.352,0.322,0.548,0.457
		c0.305,0.068,0.605,0.121,0.903,0.162s0.599,0.063,0.903,0.063c0.25,0,0.468-0.027,0.654-0.082
		c0.186-0.053,0.359-0.125,0.519-0.213c0.158-0.088,0.313-0.188,0.461-0.301c0.149-0.109,0.304-0.227,0.467-0.35
		c0.115-0.08,0.237-0.158,0.365-0.232c0.129-0.076,0.254-0.152,0.375-0.234c0.122-0.08,0.237-0.17,0.345-0.268
		c0.108-0.1,0.2-0.213,0.274-0.342c0.047-0.08,0.117-0.164,0.208-0.248c0.091-0.084,0.137-0.178,0.137-0.279
		c0-0.041-0.003-0.07-0.01-0.09c-0.027-0.217-0.045-0.43-0.056-0.635c-0.009-0.207-0.021-0.418-0.035-0.635
		c-0.014-0.203-0.058-0.357-0.132-0.463c-0.075-0.104-0.167-0.191-0.279-0.264c-0.111-0.07-0.231-0.141-0.36-0.207
		c-0.128-0.068-0.253-0.162-0.375-0.285c-0.128-0.129-0.272-0.209-0.431-0.242c-0.159-0.035-0.323-0.055-0.492-0.063
		c-0.169-0.006-0.337-0.018-0.502-0.035c-0.166-0.016-0.32-0.078-0.462-0.188c-0.041-0.027-0.074-0.041-0.102-0.041
		c-0.061,0-0.12,0.02-0.178,0.057s-0.12,0.055-0.188,0.055c-0.102,0-0.205-0.014-0.31-0.041c-0.105-0.025-0.208-0.057-0.31-0.09
		s-0.203-0.068-0.305-0.102s-0.203-0.057-0.304-0.07c-0.135-0.021-0.246-0.035-0.33-0.041c-0.084-0.008-0.163-0.02-0.233-0.035
		c-0.072-0.018-0.147-0.045-0.229-0.082c-0.081-0.037-0.183-0.096-0.304-0.178c-0.352-0.23-0.728-0.398-1.126-0.508
		c-0.075-0.189-0.173-0.383-0.294-0.578c-0.075-0.047-0.147-0.092-0.218-0.137c-0.071-0.045-0.141-0.092-0.208-0.146
		c-0.041-0.068-0.093-0.188-0.157-0.355c-0.065-0.17-0.127-0.35-0.188-0.543s-0.114-0.375-0.157-0.545
		c-0.044-0.168-0.066-0.289-0.066-0.365c0-0.154,0.017-0.303,0.051-0.445c0.034-0.143,0.111-0.271,0.233-0.385
		c0.02-0.014,0.046-0.033,0.076-0.057c0.031-0.023,0.046-0.053,0.046-0.088c0-0.031-0.025-0.057-0.076-0.074
		c-0.051-0.018-0.077-0.053-0.077-0.107c0-0.008,0.003-0.02,0.01-0.035s0.01-0.031,0.01-0.045c0.047-0.148,0.118-0.293,0.213-0.428
		s0.203-0.264,0.325-0.385c0.122-0.121,0.249-0.236,0.38-0.34c0.132-0.105,0.259-0.201,0.381-0.291
		c0.088-0.059,0.164-0.137,0.228-0.232c0.064-0.094,0.134-0.162,0.208-0.203c0.047,0,0.095,0,0.142-0.004s0.095-0.006,0.142-0.006
		c0.054,0,0.103,0.002,0.147,0.006C16.236,9.17,16.286,9.17,16.34,9.17c0.075-0.027,0.125-0.059,0.152-0.096
		s0.054-0.072,0.081-0.107c0.027-0.033,0.063-0.061,0.107-0.08c0.043-0.021,0.123-0.031,0.238-0.031
		c0.074,0,0.149,0.002,0.223,0.006c0.075,0.002,0.149,0.004,0.224,0.004c0.257,0,0.513-0.004,0.766-0.01
		c0.254-0.008,0.509-0.01,0.766-0.01c0.183,0,0.364,0.002,0.543,0.004c0.179,0.004,0.36,0.02,0.543,0.047
		c0.122,0.014,0.24,0.039,0.355,0.076s0.237,0.055,0.365,0.055c0.122,0,0.208-0.021,0.259-0.07c0.05-0.047,0.091-0.098,0.122-0.152
		c0.03-0.055,0.066-0.105,0.106-0.152s0.112-0.07,0.213-0.07c0.142,0,0.289,0.037,0.441,0.111c0.153,0.074,0.296,0.137,0.432,0.182
		l-0.01,0.041c-0.02,0.063-0.03,0.129-0.03,0.203c0,0.115,0.019,0.229,0.056,0.34c0.037,0.113,0.076,0.223,0.117,0.33
		c0.041,0.109,0.08,0.217,0.117,0.326c0.037,0.107,0.056,0.223,0.056,0.344c0,0.076-0.007,0.145-0.021,0.209
		c-0.013,0.063-0.02,0.133-0.02,0.207c0,0.137,0.027,0.232,0.081,0.289c0.054,0.059,0.081,0.111,0.081,0.158
		c0,0.055-0.023,0.1-0.071,0.137s-0.071,0.094-0.071,0.168c0,0.176,0.01,0.35,0.031,0.523c0.02,0.172,0.03,0.346,0.03,0.521
		c0,0.061-0.002,0.152-0.005,0.273c-0.003,0.123-0.017,0.244-0.041,0.361c-0.024,0.117-0.061,0.221-0.111,0.309
		c-0.051,0.088-0.124,0.133-0.218,0.133c-0.102,0-0.2-0.039-0.294-0.117c-0.095-0.076-0.172-0.154-0.233-0.229
		c-0.088-0.094-0.152-0.197-0.193-0.309s-0.074-0.229-0.102-0.352c-0.027-0.121-0.058-0.24-0.091-0.359s-0.084-0.229-0.152-0.33
		c-0.108-0.156-0.211-0.313-0.31-0.471c-0.098-0.16-0.194-0.32-0.289-0.482c-0.075-0.123-0.139-0.207-0.193-0.254
		c-0.054-0.049-0.112-0.08-0.172-0.098c-0.061-0.018-0.131-0.023-0.208-0.023c-0.078,0-0.174-0.012-0.29-0.031
		c-0.122-0.021-0.242-0.051-0.36-0.092c-0.119-0.041-0.237-0.078-0.356-0.117c-0.118-0.037-0.238-0.07-0.36-0.102
		c-0.122-0.031-0.244-0.045-0.366-0.045c-0.196,0-0.396,0.029-0.599,0.092c-0.203,0.061-0.406,0.137-0.609,0.227
		c-0.203,0.092-0.403,0.188-0.599,0.285c-0.196,0.098-0.385,0.18-0.568,0.248c-0.169,0.359-0.253,0.744-0.253,1.158
		c0,0.297,0.034,0.541,0.102,0.73c0.067,0.189,0.16,0.35,0.279,0.482c0.118,0.131,0.253,0.248,0.406,0.35
		c0.152,0.102,0.313,0.211,0.482,0.324c0.176,0.115,0.351,0.191,0.522,0.229c0.173,0.039,0.36,0.057,0.563,0.057
		c0.115,0,0.228-0.004,0.34-0.01c0.111-0.008,0.225-0.01,0.34-0.01c0.128,0,0.25,0.016,0.365,0.049
		c0.115,0.035,0.229,0.074,0.34,0.117c0.112,0.045,0.225,0.082,0.34,0.117c0.115,0.033,0.233,0.051,0.355,0.051
		c0.115,0,0.225-0.008,0.33-0.02c0.104-0.014,0.211-0.021,0.32-0.021c0.095,0,0.179,0.021,0.253,0.066
		c0.075,0.045,0.149,0.094,0.224,0.152c0.074,0.059,0.15,0.109,0.228,0.156c0.078,0.049,0.164,0.076,0.259,0.082
		c0.136,0.066,0.247,0.129,0.335,0.184c0.088,0.053,0.168,0.111,0.238,0.172c0.072,0.061,0.139,0.135,0.203,0.223
		s0.137,0.197,0.218,0.324c0.075,0.129,0.173,0.242,0.294,0.336c0.122,0.096,0.22,0.209,0.294,0.344
		c0.027,0.049,0.044,0.105,0.051,0.168c0.007,0.064,0.017,0.127,0.03,0.184c0.014,0.057,0.036,0.107,0.066,0.152
		c0.031,0.043,0.08,0.068,0.147,0.076c0.007,0.074,0.012,0.146,0.015,0.219C23.595,17.701,23.597,17.773,23.597,17.848z"/>
	<path fill="#545454" d="M35.837,17.969c0,0.293-0.031,0.576-0.091,0.854c-0.061,0.277-0.112,0.559-0.152,0.842
		c-0.014,0.096-0.022,0.184-0.026,0.26c-0.003,0.078-0.011,0.152-0.025,0.223c-0.014,0.072-0.037,0.143-0.071,0.213
		c-0.034,0.072-0.084,0.145-0.152,0.219c-0.088,0.096-0.149,0.195-0.183,0.301c-0.034,0.105-0.067,0.213-0.101,0.328
		c-0.041,0.115-0.086,0.201-0.138,0.26c-0.05,0.059-0.104,0.105-0.162,0.146s-0.119,0.08-0.183,0.117
		c-0.064,0.037-0.13,0.094-0.198,0.168c-0.041,0.047-0.066,0.094-0.076,0.141c-0.011,0.049-0.019,0.094-0.026,0.139
		c-0.007,0.043-0.022,0.086-0.046,0.127c-0.024,0.039-0.069,0.074-0.137,0.102c-0.108,0.047-0.186,0.1-0.233,0.156
		c-0.047,0.059-0.108,0.125-0.183,0.197c-0.075,0.076-0.171,0.148-0.289,0.219c-0.119,0.072-0.244,0.133-0.376,0.188
		c-0.132,0.055-0.266,0.1-0.401,0.133s-0.254,0.051-0.355,0.051c-0.129,0-0.256-0.014-0.381-0.041
		c-0.125-0.027-0.252-0.039-0.38-0.039c-0.075,0-0.131,0.01-0.168,0.033s-0.069,0.051-0.096,0.076
		c-0.027,0.027-0.056,0.053-0.086,0.078c-0.03,0.021-0.076,0.033-0.137,0.033c-0.115,0-0.284-0.045-0.507-0.135
		c-0.224-0.092-0.459-0.193-0.706-0.305c-0.247-0.113-0.485-0.215-0.716-0.305c-0.23-0.092-0.406-0.139-0.527-0.139
		c-0.108,0-0.195,0.041-0.259,0.117c-0.065,0.078-0.117,0.176-0.158,0.295c-0.041,0.117-0.069,0.248-0.086,0.385
		c-0.017,0.139-0.027,0.27-0.031,0.393c-0.003,0.121-0.001,0.262,0.005,0.424c0,0.068-0.012,0.113-0.036,0.133
		c-0.024,0.021-0.056,0.031-0.097,0.031c-0.027,0-0.054-0.002-0.081-0.006c-0.027-0.002-0.058-0.008-0.091-0.014
		c0,0.08,0.015,0.168,0.046,0.262c0.03,0.096,0.067,0.195,0.111,0.301c0.044,0.104,0.086,0.209,0.127,0.309
		c0.041,0.104,0.071,0.197,0.091,0.285c0.047,0.217,0.097,0.373,0.147,0.467c0.051,0.096,0.117,0.158,0.198,0.193
		c0.081,0.033,0.183,0.049,0.304,0.045c0.122-0.004,0.278,0.006,0.467,0.025c0.088,0.014,0.183,0.033,0.284,0.057
		c0.102,0.021,0.193,0.061,0.274,0.111s0.149,0.113,0.203,0.188c0.054,0.074,0.081,0.166,0.081,0.273
		c0,0.223-0.066,0.383-0.198,0.477c-0.132,0.096-0.3,0.143-0.502,0.143c-0.277,0-0.553-0.02-0.828-0.061
		c-0.273-0.041-0.553-0.061-0.837-0.061c-0.298,0-0.594,0.018-0.889,0.051c-0.293,0.033-0.586,0.051-0.877,0.051
		c-0.074,0-0.178-0.014-0.31-0.041c-0.132-0.027-0.264-0.066-0.396-0.117c-0.131-0.051-0.247-0.111-0.345-0.182
		s-0.147-0.15-0.147-0.24c0-0.059,0.036-0.119,0.106-0.176c0.071-0.059,0.153-0.107,0.244-0.148
		c0.092-0.041,0.185-0.072,0.279-0.096s0.169-0.035,0.223-0.035c0.122,0,0.235-0.02,0.34-0.057c0.104-0.037,0.208-0.076,0.31-0.115
		c0.101-0.041,0.203-0.08,0.304-0.117s0.21-0.057,0.325-0.057c0.061-0.258,0.1-0.514,0.117-0.771
		c0.016-0.256,0.025-0.514,0.025-0.771c0-0.182-0.002-0.365-0.005-0.547c-0.004-0.184-0.005-0.365-0.005-0.549
		c0-0.359,0.026-0.715,0.076-1.066c0.051-0.352,0.076-0.709,0.076-1.074c0-0.225-0.009-0.447-0.025-0.672
		c-0.018-0.223-0.033-0.445-0.046-0.668c-0.021-0.027-0.044-0.117-0.071-0.27c-0.027-0.152-0.053-0.32-0.076-0.502
		c-0.024-0.184-0.042-0.357-0.056-0.523s-0.021-0.275-0.021-0.33c0-0.074,0.012-0.141,0.036-0.197
		c0.023-0.057,0.049-0.109,0.076-0.152c0.027-0.045,0.052-0.082,0.076-0.117c0.023-0.033,0.036-0.064,0.036-0.092
		c0-0.006-0.01-0.031-0.031-0.07c-0.02-0.041-0.042-0.092-0.065-0.152c-0.024-0.061-0.046-0.129-0.066-0.203
		c-0.02-0.074-0.03-0.148-0.03-0.223c0-0.217,0.025-0.434,0.076-0.65c0.05-0.217,0.076-0.434,0.076-0.648
		c0-0.291-0.105-0.547-0.315-0.762c-0.102-0.102-0.183-0.18-0.244-0.234c-0.061-0.053-0.122-0.092-0.183-0.117
		c-0.061-0.021-0.132-0.039-0.213-0.049c-0.082-0.012-0.193-0.025-0.335-0.047c-0.075-0.006-0.178-0.027-0.31-0.066
		c-0.132-0.037-0.262-0.082-0.391-0.137c-0.129-0.055-0.242-0.117-0.34-0.193c-0.099-0.074-0.147-0.154-0.147-0.242
		c0-0.115,0.054-0.215,0.162-0.301c0.108-0.084,0.235-0.15,0.38-0.203c0.146-0.049,0.293-0.088,0.442-0.109
		c0.149-0.023,0.267-0.037,0.355-0.037c0.095,0,0.189,0.01,0.284,0.025c0.095,0.018,0.176,0.059,0.243,0.127
		c0.075-0.074,0.166-0.123,0.274-0.146c0.108-0.023,0.213-0.035,0.314-0.035c0.291,0,0.514,0.043,0.67,0.131
		s0.279,0.186,0.371,0.289c0.091,0.105,0.166,0.203,0.223,0.289c0.057,0.09,0.13,0.133,0.218,0.133c0.054,0,0.107-0.012,0.157-0.029
		c0.051-0.021,0.103-0.045,0.157-0.072c0.142-0.068,0.355-0.15,0.64-0.248s0.585-0.193,0.903-0.285
		c0.318-0.092,0.623-0.166,0.914-0.229c0.291-0.061,0.511-0.092,0.66-0.092c0.074,0,0.181,0.02,0.319,0.057s0.293,0.086,0.462,0.143
		c0.169,0.057,0.345,0.125,0.528,0.203s0.352,0.158,0.507,0.238c0.156,0.082,0.291,0.16,0.406,0.238
		c0.115,0.078,0.193,0.146,0.233,0.209c0.074,0.121,0.154,0.227,0.238,0.314s0.198,0.154,0.34,0.203
		c0.041,0.053,0.065,0.109,0.076,0.172c0.01,0.061,0.015,0.125,0.015,0.193v0.191c0,0.135,0.023,0.24,0.071,0.314
		c0.047,0.076,0.098,0.139,0.152,0.188c0.054,0.053,0.105,0.1,0.152,0.143c0.047,0.045,0.071,0.107,0.071,0.189
		c0,0.045-0.013,0.088-0.041,0.127c-0.027,0.037-0.041,0.076-0.041,0.115c0,0.102,0.024,0.205,0.071,0.311
		c0.047,0.104,0.098,0.221,0.152,0.344c0.054,0.125,0.105,0.26,0.152,0.402C35.813,17.645,35.837,17.801,35.837,17.969z
		 M34.64,18.285c0-0.203-0.027-0.402-0.081-0.594c-0.054-0.193-0.122-0.379-0.203-0.559s-0.172-0.354-0.274-0.521
		c-0.102-0.172-0.203-0.336-0.305-0.498c-0.027-0.041-0.044-0.086-0.051-0.139c-0.007-0.049-0.01-0.102-0.01-0.15
		c0-0.053-0.004-0.102-0.015-0.154c-0.01-0.049-0.032-0.096-0.066-0.137c-0.054-0.059-0.105-0.096-0.152-0.105
		s-0.093-0.02-0.137-0.025c-0.044-0.008-0.092-0.023-0.142-0.051c-0.051-0.027-0.1-0.088-0.147-0.184
		c-0.034-0.061-0.106-0.127-0.218-0.203c-0.112-0.072-0.234-0.145-0.365-0.213c-0.133-0.066-0.261-0.123-0.386-0.166
		c-0.126-0.045-0.222-0.066-0.29-0.066c-0.135,0-0.27,0.027-0.401,0.086c-0.132,0.059-0.266,0.086-0.401,0.086
		c-0.095,0-0.182-0.016-0.259-0.051c-0.078-0.033-0.152-0.068-0.223-0.107c-0.071-0.035-0.144-0.072-0.218-0.105
		c-0.074-0.033-0.152-0.051-0.233-0.051h-0.051c0.014,0.068,0.021,0.123,0.021,0.162c0,0.061-0.014,0.111-0.041,0.148
		c-0.027,0.035-0.063,0.068-0.107,0.096s-0.091,0.053-0.142,0.076c-0.05,0.023-0.096,0.049-0.137,0.076
		c-0.061,0.074-0.093,0.148-0.096,0.223c-0.004,0.074-0.039,0.113-0.107,0.113c-0.047,0-0.084-0.008-0.111-0.021
		c0,0.047-0.014,0.08-0.041,0.102c-0.027,0.02-0.057,0.037-0.091,0.051c-0.034,0.014-0.067,0.029-0.102,0.045
		c-0.034,0.018-0.054,0.045-0.061,0.086c-0.088,0.008-0.169,0.061-0.244,0.158c-0.075,0.098-0.139,0.221-0.193,0.369
		c-0.054,0.15-0.102,0.316-0.142,0.498c-0.041,0.184-0.075,0.361-0.102,0.533c-0.027,0.174-0.047,0.332-0.061,0.479
		c-0.013,0.145-0.02,0.254-0.02,0.328c0,0.244,0.015,0.486,0.045,0.727c0.031,0.24,0.046,0.48,0.046,0.725
		c0,0.184-0.005,0.365-0.015,0.549c-0.011,0.182-0.022,0.369-0.036,0.559c0.169,0.182,0.332,0.365,0.487,0.547
		c0.155,0.184,0.32,0.348,0.492,0.492c0.173,0.146,0.364,0.268,0.574,0.365c0.21,0.1,0.454,0.152,0.731,0.158
		c0.108,0,0.216,0.014,0.325,0.041s0.216,0.055,0.325,0.08c0.108,0.027,0.215,0.053,0.319,0.078c0.105,0.023,0.212,0.035,0.32,0.035
		c0.102,0,0.209-0.023,0.325-0.066c0.115-0.045,0.228-0.1,0.34-0.168c0.111-0.068,0.218-0.141,0.319-0.219
		c0.102-0.076,0.186-0.152,0.254-0.229c0.054-0.061,0.12-0.104,0.198-0.131c0.078-0.027,0.144-0.068,0.198-0.121
		c0.041-0.041,0.068-0.086,0.082-0.133c0.013-0.047,0.025-0.096,0.035-0.143c0.011-0.047,0.025-0.092,0.046-0.137
		c0.02-0.043,0.061-0.084,0.122-0.115c0.129-0.068,0.21-0.117,0.244-0.148s0.051-0.086,0.051-0.168v-0.193
		c0-0.066,0.017-0.115,0.051-0.146c0.034-0.029,0.071-0.061,0.112-0.092c0.041-0.029,0.078-0.07,0.111-0.121
		c0.034-0.051,0.051-0.137,0.051-0.26c0-0.088-0.007-0.174-0.02-0.258c-0.014-0.084-0.021-0.17-0.021-0.26
		c0-0.086,0.016-0.168,0.045-0.244c0.031-0.072,0.064-0.145,0.102-0.211c0.037-0.068,0.072-0.135,0.102-0.199
		C34.625,18.428,34.64,18.359,34.64,18.285z M31.189,13.646c0-0.035-0.017-0.066-0.051-0.102c-0.034-0.033-0.068-0.051-0.102-0.051
		c-0.068,0-0.11,0.035-0.127,0.105c-0.017,0.072-0.025,0.135-0.025,0.188c0-0.014,0.003-0.018,0.01-0.018
		c0.013,0,0.023,0.002,0.03,0.008l-0.041,0.021c0.047,0,0.11-0.01,0.188-0.025C31.149,13.758,31.189,13.715,31.189,13.646z"/>
	<path fill="#545454" d="M47.104,20.793c0,0.182-0.029,0.338-0.086,0.465c-0.058,0.129-0.132,0.244-0.223,0.346
		c-0.092,0.102-0.197,0.195-0.315,0.285c-0.119,0.086-0.238,0.182-0.36,0.283c-0.095,0.082-0.179,0.143-0.253,0.182
		c-0.075,0.041-0.147,0.076-0.219,0.104c-0.07,0.027-0.146,0.053-0.223,0.08s-0.167,0.064-0.269,0.111
		c-0.136,0.068-0.249,0.131-0.34,0.188c-0.091,0.059-0.183,0.111-0.274,0.158c-0.092,0.047-0.191,0.086-0.299,0.117
		c-0.108,0.029-0.244,0.055-0.406,0.076c-0.271,0.033-0.543,0.074-0.816,0.121c-0.275,0.047-0.547,0.07-0.817,0.07
		c-0.054,0-0.11-0.012-0.168-0.035c-0.057-0.023-0.123-0.047-0.198-0.07c-0.074-0.023-0.157-0.047-0.249-0.072
		c-0.091-0.023-0.201-0.035-0.33-0.035c-0.136,0-0.244-0.02-0.325-0.061c-0.081-0.039-0.154-0.088-0.218-0.143
		s-0.13-0.111-0.198-0.176c-0.067-0.066-0.155-0.121-0.264-0.168c-0.406-0.184-0.751-0.402-1.035-0.66s-0.528-0.545-0.731-0.863
		c-0.203-0.316-0.372-0.664-0.507-1.035c-0.136-0.373-0.25-0.762-0.345-1.166c-0.075-0.285-0.112-0.568-0.112-0.854
		c0-0.373,0.088-0.717,0.264-1.035c-0.068-0.189-0.102-0.373-0.102-0.549c0-0.127,0.037-0.318,0.112-0.572
		c0.074-0.254,0.17-0.51,0.289-0.768c0.118-0.256,0.247-0.488,0.386-0.693c0.138-0.207,0.269-0.334,0.391-0.381
		c0.095-0.035,0.161-0.064,0.198-0.086c0.037-0.023,0.056-0.092,0.056-0.199c0-0.082,0.032-0.148,0.096-0.203
		c0.064-0.055,0.142-0.098,0.234-0.133c0.091-0.033,0.183-0.063,0.273-0.09c0.092-0.027,0.167-0.055,0.229-0.082
		c0.25-0.121,0.489-0.225,0.716-0.309c0.226-0.086,0.453-0.156,0.68-0.215c0.227-0.057,0.462-0.098,0.706-0.125
		s0.504-0.041,0.782-0.041c0.148,0,0.294,0.02,0.436,0.061s0.279,0.094,0.411,0.158c0.132,0.063,0.262,0.135,0.391,0.213
		c0.129,0.078,0.254,0.154,0.375,0.227h-0.01c0.102,0.014,0.198,0.043,0.29,0.088c0.091,0.045,0.188,0.072,0.289,0.086
		c0.095,0.115,0.218,0.225,0.37,0.33c0.153,0.105,0.301,0.215,0.446,0.33c0.146,0.113,0.271,0.238,0.376,0.371
		c0.104,0.131,0.157,0.281,0.157,0.451c0,0.027-0.002,0.053-0.005,0.08s-0.008,0.059-0.015,0.092l0.041-0.051
		c0.027,0.02,0.052,0.055,0.076,0.102c0.024,0.047,0.046,0.1,0.066,0.158c0.02,0.057,0.037,0.115,0.051,0.172
		c0.013,0.057,0.023,0.104,0.03,0.137c0.054,0.088,0.127,0.158,0.218,0.213c0.092,0.055,0.165,0.129,0.219,0.225
		c-0.068,0.066-0.102,0.154-0.102,0.262c0,0.117,0.023,0.23,0.071,0.342s0.071,0.225,0.071,0.34c0,0.135-0.007,0.266-0.021,0.391
		c-0.013,0.125-0.02,0.254-0.02,0.391c0,0.102-0.039,0.18-0.117,0.232c-0.078,0.055-0.162,0.102-0.253,0.143
		c-0.092,0.041-0.175,0.082-0.249,0.123c-0.075,0.039-0.112,0.098-0.112,0.172c0,0.055-0.032,0.08-0.097,0.076
		c-0.064-0.004-0.116-0.006-0.157-0.006c-0.298,0-0.594-0.037-0.888-0.111c-0.295-0.074-0.587-0.111-0.878-0.111
		c-0.318,0-0.633,0.021-0.944,0.066c-0.312,0.043-0.626,0.064-0.944,0.064c-0.237,0-0.472-0.006-0.705-0.02
		c-0.234-0.014-0.469-0.021-0.706-0.021c-0.061,0-0.176,0.014-0.345,0.037c-0.169,0.023-0.347,0.055-0.532,0.092
		c-0.187,0.037-0.364,0.08-0.533,0.131c-0.169,0.051-0.288,0.102-0.355,0.146c-0.007,0.035-0.01,0.082-0.01,0.145
		c0,0.316,0.093,0.645,0.279,0.982c0.186,0.34,0.432,0.646,0.736,0.926c0.305,0.275,0.646,0.506,1.025,0.689
		c0.379,0.182,0.761,0.273,1.146,0.273c0.224,0,0.445,0.008,0.665,0.025c0.22,0.018,0.435,0.066,0.645,0.148
		c0.183-0.09,0.35-0.189,0.502-0.307c0.152-0.113,0.299-0.236,0.441-0.365c0.142-0.127,0.281-0.26,0.416-0.395
		c0.135-0.137,0.274-0.271,0.417-0.406c0.027-0.027,0.093-0.053,0.197-0.076c0.105-0.023,0.219-0.045,0.34-0.061
		c0.122-0.018,0.239-0.031,0.35-0.041c0.112-0.01,0.188-0.016,0.229-0.016c0.156,0,0.301,0.023,0.437,0.07
		C47.083,20.49,47.104,20.643,47.104,20.793z M45.581,16.67c0-0.1-0.017-0.199-0.051-0.293c-0.034-0.096-0.061-0.193-0.082-0.295
		c-0.034-0.189-0.051-0.373-0.051-0.553s-0.027-0.361-0.081-0.543h-0.01c0,0.041-0.013,0.08-0.041,0.115
		c-0.027,0.039-0.064,0.057-0.111,0.057c-0.082,0-0.159-0.02-0.233-0.061c-0.075-0.041-0.139-0.092-0.193-0.152
		c-0.257-0.115-0.489-0.225-0.695-0.324c-0.207-0.102-0.413-0.191-0.62-0.27c-0.206-0.078-0.426-0.139-0.659-0.184
		c-0.234-0.043-0.502-0.064-0.807-0.064c-0.027,0-0.053,0.002-0.076,0.004c-0.024,0.004-0.045,0.016-0.066,0.037l0.051,0.111
		l-0.081,0.02c-0.183,0.035-0.333,0.066-0.452,0.096c-0.118,0.031-0.225,0.074-0.319,0.129c-0.095,0.053-0.188,0.119-0.279,0.197
		c-0.092,0.078-0.208,0.178-0.351,0.299c-0.067,0.061-0.141,0.105-0.218,0.137c-0.079,0.031-0.156,0.059-0.234,0.082
		c-0.078,0.023-0.152,0.049-0.224,0.074c-0.07,0.027-0.13,0.072-0.177,0.133c-0.047,0.17-0.116,0.334-0.208,0.492
		c-0.091,0.16-0.137,0.326-0.137,0.504c0,0.102,0.042,0.191,0.127,0.268c0.084,0.078,0.192,0.145,0.325,0.199
		c0.131,0.053,0.277,0.102,0.436,0.141c0.159,0.041,0.316,0.072,0.472,0.092c0.155,0.021,0.299,0.035,0.432,0.047
		c0.131,0.01,0.235,0.016,0.309,0.016c0.257,0,0.511-0.027,0.761-0.078s0.504-0.076,0.761-0.076c0.264,0,0.528,0.012,0.792,0.037
		c0.264,0.023,0.528,0.035,0.792,0.035c0.067,0,0.169-0.004,0.304-0.01c0.136-0.008,0.269-0.025,0.401-0.057
		C45.22,17,45.335,16.957,45.434,16.9C45.532,16.842,45.581,16.766,45.581,16.67z"/>
	<path fill="#545454" d="M58.501,20.822c0,0.068-0.026,0.115-0.076,0.143c-0.051,0.025-0.1,0.053-0.147,0.08
		c-0.074,0.041-0.135,0.088-0.183,0.143s-0.091,0.113-0.132,0.178s-0.078,0.131-0.112,0.203c-0.034,0.07-0.071,0.137-0.111,0.197
		c-0.095,0.143-0.226,0.24-0.391,0.295c-0.167,0.055-0.33,0.104-0.493,0.152c-0.162,0.047-0.31,0.113-0.441,0.197
		c-0.132,0.086-0.215,0.229-0.249,0.432h-0.051c-0.156,0-0.3,0.027-0.431,0.08c-0.132,0.055-0.264,0.115-0.396,0.178
		c-0.131,0.064-0.265,0.125-0.4,0.178c-0.136,0.055-0.277,0.082-0.426,0.082c-0.082,0-0.157-0.014-0.229-0.041
		c-0.07-0.027-0.142-0.057-0.212-0.09c-0.072-0.035-0.142-0.064-0.214-0.092c-0.07-0.027-0.147-0.041-0.228-0.041
		c-0.108,0-0.213,0.006-0.314,0.02s-0.203,0.021-0.305,0.021c-0.074,0-0.162-0.01-0.264-0.025c-0.102-0.018-0.196-0.045-0.284-0.086
		s-0.163-0.094-0.224-0.158c-0.061-0.064-0.091-0.145-0.091-0.238c0-0.033,0.003-0.061,0.01-0.082
		c-0.034,0.035-0.071,0.057-0.111,0.066c-0.041,0.01-0.082,0.016-0.122,0.016c-0.203,0-0.391-0.045-0.563-0.137
		c-0.172-0.092-0.334-0.203-0.487-0.336c-0.152-0.131-0.294-0.273-0.426-0.426c-0.131-0.152-0.262-0.293-0.391-0.422
		c-0.155-0.154-0.276-0.334-0.36-0.537s-0.184-0.398-0.299-0.588c-0.244-0.393-0.392-0.791-0.446-1.193s-0.082-0.824-0.082-1.264
		c0-0.082,0.005-0.174,0.015-0.279c0.011-0.104,0.032-0.182,0.066-0.229c0.027-0.033,0.061-0.059,0.102-0.076
		c0.041-0.016,0.079-0.033,0.116-0.051c0.037-0.016,0.07-0.035,0.097-0.057c0.027-0.02,0.041-0.049,0.041-0.09
		c0-0.096-0.023-0.182-0.071-0.26c-0.047-0.076-0.071-0.164-0.071-0.258c0-0.068,0.016-0.125,0.045-0.174
		c0.031-0.047,0.063-0.098,0.097-0.152c0.054-0.086,0.103-0.234,0.147-0.439c0.044-0.207,0.092-0.414,0.142-0.621
		c0.051-0.205,0.115-0.389,0.193-0.547c0.077-0.158,0.181-0.238,0.31-0.238c0.095,0,0.183,0.014,0.264,0.041
		s0.169,0.041,0.264,0.041c0.082,0,0.159-0.012,0.234-0.031l0.01-0.082c0-0.08-0.025-0.131-0.076-0.152
		c-0.05-0.02-0.105-0.033-0.163-0.041c-0.057-0.006-0.111-0.014-0.162-0.025c-0.05-0.01-0.076-0.045-0.076-0.105
		c0-0.041,0.019-0.076,0.056-0.107c0.037-0.029,0.082-0.057,0.132-0.08c0.05-0.023,0.103-0.047,0.157-0.066
		c0.054-0.021,0.095-0.041,0.122-0.063c0.067-0.053,0.115-0.105,0.142-0.156c0.027-0.051,0.052-0.1,0.076-0.146
		c0.023-0.049,0.06-0.088,0.107-0.121c0.047-0.035,0.125-0.064,0.233-0.092c0.095-0.021,0.189-0.033,0.284-0.037
		c0.095-0.002,0.189-0.006,0.284-0.01s0.189-0.008,0.284-0.014c0.095-0.008,0.189-0.023,0.284-0.051l-0.102-0.104
		c0.034-0.059,0.081-0.109,0.142-0.146s0.13-0.066,0.208-0.086c0.078-0.02,0.155-0.031,0.234-0.035
		c0.077-0.004,0.147-0.006,0.208-0.006c0.237,0,0.467,0.031,0.69,0.092c0.223,0.061,0.446,0.092,0.67,0.092
		c0.095,0,0.188-0.012,0.279-0.037c0.091-0.021,0.184-0.035,0.279-0.035c0.142,0,0.275,0.035,0.401,0.107
		c0.125,0.07,0.245,0.137,0.36,0.199l0.041,0.01c0.061,0,0.112-0.023,0.152-0.072c0.041-0.047,0.081-0.07,0.122-0.07
		c0.034,0,0.061,0.016,0.082,0.045c0.02,0.031,0.041,0.061,0.061,0.088c0.054,0.059,0.127,0.1,0.218,0.115
		c0.092,0.018,0.154,0.053,0.188,0.105c0.047,0.082,0.102,0.139,0.162,0.17c0.061,0.029,0.122,0.051,0.183,0.064
		c0.061,0.014,0.125,0.027,0.192,0.041c0.068,0.014,0.132,0.045,0.193,0.09v0.285c0.135,0.176,0.262,0.311,0.38,0.4
		c0.119,0.092,0.224,0.188,0.315,0.285c0.091,0.098,0.162,0.221,0.212,0.365c0.051,0.146,0.077,0.357,0.077,0.635
		c0,0.299-0.025,0.559-0.077,0.781c-0.05,0.223-0.139,0.41-0.264,0.564c-0.125,0.15-0.292,0.268-0.502,0.344
		c-0.209,0.078-0.47,0.113-0.781,0.107l-0.66-0.01c-0.054-0.09-0.132-0.213-0.233-0.371c-0.102-0.16-0.203-0.326-0.305-0.498
		s-0.191-0.334-0.269-0.486c-0.079-0.152-0.117-0.27-0.117-0.35c0-0.104,0.008-0.203,0.025-0.307c0.017-0.1,0.025-0.203,0.025-0.303
		c-0.047-0.129-0.11-0.234-0.188-0.314c-0.078-0.082-0.167-0.145-0.269-0.188c-0.102-0.045-0.212-0.074-0.33-0.088
		c-0.119-0.014-0.239-0.02-0.361-0.02c-0.176,0-0.35,0.014-0.523,0.041c-0.172,0.027-0.34,0.07-0.502,0.131
		c0-0.061-0.015-0.117-0.046-0.166c-0.03-0.053-0.083-0.078-0.157-0.078c-0.095,0-0.209,0.037-0.345,0.107
		c-0.135,0.072-0.272,0.158-0.411,0.26s-0.265,0.207-0.38,0.318s-0.2,0.209-0.254,0.289c-0.047,0.068-0.111,0.172-0.193,0.316
		c-0.081,0.141-0.167,0.283-0.258,0.424c-0.092,0.145-0.187,0.271-0.284,0.381c-0.099,0.113-0.188,0.172-0.269,0.178
		c0.02,0.096,0.047,0.223,0.081,0.381c0.034,0.16,0.064,0.328,0.091,0.504s0.051,0.344,0.071,0.502
		c0.021,0.158,0.031,0.283,0.031,0.369c0,0.156,0.027,0.303,0.081,0.438s0.081,0.279,0.081,0.438c0,0.113-0.015,0.229-0.045,0.344
		c-0.031,0.115-0.046,0.23-0.046,0.346c0,0.1,0.015,0.168,0.046,0.203c0.03,0.033,0.093,0.064,0.188,0.09
		c0.108,0.035,0.185,0.092,0.229,0.174c0.044,0.08,0.081,0.164,0.112,0.248c0.03,0.086,0.067,0.156,0.111,0.219
		c0.044,0.061,0.124,0.092,0.239,0.092h0.051l0.122-0.01c0.082,0.107,0.13,0.229,0.147,0.365c0.017,0.135,0.066,0.256,0.147,0.365
		c0.047-0.008,0.078-0.027,0.091-0.063c0.014-0.033,0.027-0.066,0.041-0.1c0.014-0.035,0.035-0.064,0.066-0.092
		c0.03-0.027,0.086-0.041,0.167-0.041c0.075,0,0.135,0.02,0.183,0.061s0.092,0.086,0.132,0.137s0.083,0.098,0.127,0.139
		c0.043,0.039,0.1,0.059,0.167,0.059c0.115,0,0.241-0.021,0.38-0.064c0.139-0.045,0.281-0.096,0.426-0.152
		c0.145-0.057,0.289-0.117,0.431-0.178s0.271-0.109,0.386-0.143c0.277-0.08,0.538-0.199,0.782-0.355
		c0.244-0.154,0.44-0.361,0.588-0.619c0.075-0.135,0.164-0.26,0.27-0.375c0.104-0.115,0.188-0.242,0.249-0.387
		c0.067,0,0.135-0.002,0.203-0.01c0.068-0.006,0.139-0.01,0.213-0.01c0.02,0,0.052,0,0.096,0s0.09,0.004,0.137,0.01
		c0.047,0.008,0.089,0.018,0.126,0.031s0.056,0.031,0.056,0.051c0,0.061-0.022,0.109-0.066,0.146
		c-0.044,0.037-0.092,0.072-0.142,0.102c-0.051,0.031-0.097,0.064-0.137,0.102s-0.061,0.09-0.061,0.158l0.111-0.012
		c0.082,0,0.189,0.021,0.325,0.063c0.136,0.041,0.27,0.096,0.401,0.168c0.132,0.07,0.247,0.148,0.345,0.238
		C58.452,20.635,58.501,20.727,58.501,20.822z M57.771,21.391c0-0.041-0.015-0.076-0.046-0.107c-0.03-0.029-0.066-0.045-0.106-0.045
		c-0.047,0-0.088,0.031-0.122,0.092c-0.034,0.061-0.051,0.107-0.051,0.141c0,0.041,0.023,0.061,0.071,0.057
		c0.047-0.002,0.078-0.004,0.091-0.004c0.034,0,0.069-0.01,0.107-0.027C57.751,21.48,57.771,21.445,57.771,21.391z"/>
	<path fill="#545454" d="M71.168,22.527c0,0.115-0.022,0.223-0.066,0.324c-0.044,0.102-0.105,0.191-0.183,0.27
		c-0.078,0.078-0.167,0.141-0.269,0.188s-0.213,0.07-0.335,0.07c-0.047,0-0.078-0.006-0.091-0.02s-0.037-0.037-0.071-0.072
		c-0.095-0.1-0.209-0.16-0.345-0.176c-0.136-0.018-0.276-0.033-0.422-0.051s-0.284-0.055-0.416-0.111
		c-0.132-0.059-0.239-0.176-0.32-0.352c-0.054-0.113-0.112-0.189-0.172-0.223c-0.061-0.035-0.156-0.051-0.285-0.051
		c-0.297,0-0.582,0.047-0.853,0.143c-0.271,0.094-0.538,0.201-0.802,0.32c-0.264,0.117-0.532,0.225-0.807,0.318
		c-0.273,0.096-0.556,0.143-0.847,0.143c-0.162,0-0.323-0.016-0.482-0.047c-0.159-0.029-0.313-0.078-0.462-0.146
		c-0.034,0.033-0.073,0.057-0.117,0.07c-0.044,0.014-0.093,0.021-0.147,0.021c-0.047,0-0.093-0.004-0.137-0.01
		c-0.044-0.008-0.083-0.012-0.117-0.012c-0.007,0-0.044,0.012-0.112,0.037c-0.067,0.023-0.108,0.039-0.122,0.045l0.061,0.102
		c-0.041,0.061-0.132,0.121-0.274,0.178s-0.296,0.107-0.461,0.148c-0.166,0.039-0.327,0.072-0.482,0.1s-0.274,0.041-0.355,0.041
		c-0.217,0-0.395-0.035-0.533-0.107c-0.139-0.07-0.275-0.193-0.411-0.369c-0.047-0.068-0.106-0.135-0.178-0.203
		c-0.07-0.068-0.139-0.137-0.203-0.207c-0.064-0.072-0.119-0.148-0.163-0.229c-0.044-0.082-0.066-0.166-0.066-0.254
		c0-0.102,0.054-0.188,0.163-0.256c0.108-0.066,0.237-0.121,0.386-0.166s0.298-0.074,0.446-0.092
		c0.149-0.016,0.264-0.025,0.345-0.025c0.163,0,0.325,0.023,0.487,0.066S62.277,22,62.439,22c0.149,0,0.291-0.021,0.426-0.061
		c0.135-0.041,0.277-0.063,0.426-0.063c0.128,0,0.255,0.01,0.381,0.025c0.125,0.018,0.251,0.027,0.38,0.027
		c0.162,0,0.319-0.029,0.472-0.088c0.152-0.057,0.296-0.133,0.431-0.229c0.054-0.332,0.093-0.662,0.117-0.994
		c0.023-0.332,0.036-0.666,0.036-1.004c0-0.334-0.027-0.664-0.082-0.996c-0.054-0.33-0.081-0.66-0.081-0.984
		c0-0.027,0.007-0.043,0.02-0.045c0.014-0.004,0.029-0.008,0.046-0.012c0.017-0.002,0.032-0.008,0.046-0.02
		c0.013-0.01,0.02-0.035,0.02-0.076c0-0.141-0.02-0.281-0.061-0.416c-0.041-0.135-0.061-0.273-0.061-0.416
		c0-0.176,0.023-0.348,0.071-0.518s0.071-0.342,0.071-0.518c0-0.123-0.027-0.244-0.082-0.365c-0.054-0.123-0.125-0.23-0.213-0.326
		c-0.088-0.094-0.189-0.17-0.305-0.227c-0.115-0.059-0.237-0.086-0.365-0.086c-0.142,0-0.283,0.016-0.421,0.051
		c-0.139,0.033-0.283,0.072-0.432,0.115c-0.149,0.045-0.299,0.084-0.452,0.117c-0.151,0.033-0.313,0.051-0.481,0.051
		c-0.196,0-0.389-0.014-0.579-0.039c-0.189-0.027-0.382-0.059-0.579-0.092c-0.095-0.014-0.202-0.027-0.319-0.041
		c-0.119-0.014-0.232-0.039-0.34-0.07c-0.108-0.035-0.2-0.086-0.274-0.154c-0.075-0.066-0.112-0.166-0.112-0.293
		c0-0.238,0.042-0.418,0.126-0.543c0.085-0.127,0.189-0.219,0.315-0.279c0.125-0.061,0.265-0.098,0.421-0.111
		c0.155-0.014,0.304-0.027,0.446-0.041c0.257-0.021,0.513-0.039,0.766-0.057c0.254-0.018,0.51-0.025,0.767-0.025
		c0.318,0,0.631,0.02,0.938,0.057c0.308,0.037,0.621,0.055,0.939,0.055c0.223,0,0.436,0.035,0.639,0.102
		c0.203,0.068,0.381,0.172,0.533,0.311c0.153,0.139,0.272,0.313,0.36,0.521c0.088,0.211,0.132,0.455,0.132,0.732
		c0,0.182-0.04,0.359-0.117,0.531c-0.078,0.174-0.178,0.328-0.3,0.463c0.047,0.088,0.095,0.146,0.142,0.178
		c0.047,0.029,0.091,0.059,0.132,0.082c0.041,0.021,0.074,0.053,0.101,0.09c0.027,0.037,0.041,0.107,0.041,0.209
		c0,0.055,0.008,0.115,0.025,0.188c0.017,0.07,0.063,0.109,0.137,0.115c0,0.365-0.003,0.727-0.01,1.082
		c-0.006,0.355-0.01,0.713-0.01,1.07c0,0.305,0.001,0.609,0.005,0.914c0.003,0.305,0.029,0.609,0.076,0.912
		c0.027,0.189,0.081,0.336,0.162,0.438c0.082,0.102,0.227,0.152,0.437,0.152c0.305,0,0.606-0.031,0.903-0.096
		c0.298-0.064,0.599-0.098,0.903-0.098c0.176,0,0.343,0.045,0.503,0.133c0.158,0.088,0.311,0.184,0.456,0.283
		c0.146,0.104,0.286,0.197,0.421,0.285s0.264,0.131,0.386,0.131c0.054,0,0.098,0.02,0.132,0.057
		c0.034,0.037,0.059,0.082,0.076,0.131c0.017,0.053,0.027,0.104,0.031,0.158C71.166,22.439,71.168,22.486,71.168,22.527z
		 M66.255,10.174c0,0.197-0.032,0.398-0.097,0.605c-0.064,0.207-0.157,0.396-0.279,0.568c-0.122,0.172-0.269,0.314-0.441,0.426
		c-0.173,0.111-0.364,0.168-0.574,0.168c-0.142,0-0.318-0.021-0.528-0.066c-0.21-0.043-0.412-0.107-0.604-0.193
		c-0.193-0.084-0.359-0.193-0.498-0.33c-0.139-0.135-0.208-0.293-0.208-0.477c0-0.162,0.019-0.33,0.056-0.502
		c0.037-0.172,0.059-0.348,0.066-0.523c0.067-0.033,0.135-0.094,0.203-0.182c0.068-0.088,0.134-0.178,0.198-0.27
		c0.064-0.092,0.128-0.174,0.192-0.248c0.064-0.074,0.13-0.115,0.198-0.123l-0.051,0.021c0.095-0.041,0.194-0.074,0.299-0.102
		s0.211-0.041,0.32-0.041c0.142,0,0.313,0.035,0.512,0.107c0.2,0.07,0.391,0.164,0.574,0.279c0.183,0.113,0.338,0.25,0.467,0.404
		C66.191,9.854,66.255,10.012,66.255,10.174z"/>
	<path fill="#545454" d="M82.84,21.137c0,0.115-0.02,0.225-0.061,0.324c-0.041,0.102-0.078,0.207-0.111,0.314
		c-0.027,0.096-0.046,0.172-0.056,0.234c-0.011,0.061-0.025,0.113-0.046,0.156c-0.021,0.045-0.053,0.086-0.096,0.123
		c-0.044,0.037-0.114,0.078-0.208,0.127c-0.203,0.107-0.418,0.217-0.644,0.33c-0.227,0.111-0.456,0.166-0.686,0.166
		c-0.196,0-0.381-0.045-0.553-0.137c-0.173-0.09-0.332-0.191-0.478-0.305c-0.146-0.111-0.277-0.215-0.396-0.309
		c-0.119-0.096-0.218-0.143-0.299-0.143c-0.088,0-0.165,0.023-0.229,0.072c-0.064,0.045-0.129,0.098-0.193,0.15
		c-0.064,0.055-0.136,0.105-0.213,0.152c-0.078,0.049-0.174,0.072-0.29,0.072c-0.095,0-0.193,0.018-0.294,0.049
		c-0.102,0.035-0.203,0.074-0.304,0.117c-0.102,0.045-0.205,0.088-0.31,0.133c-0.105,0.045-0.201,0.08-0.29,0.107
		c-0.304,0.08-0.611,0.127-0.918,0.141c-0.308,0.014-0.617,0.021-0.929,0.021c-0.081,0-0.206-0.002-0.375-0.006
		c-0.169-0.004-0.34-0.02-0.512-0.051c-0.173-0.029-0.325-0.08-0.457-0.146c-0.132-0.068-0.198-0.162-0.198-0.285
		c0-0.027,0.003-0.049,0.01-0.07c-0.048,0.053-0.102,0.098-0.163,0.131c-0.061,0.035-0.128,0.053-0.203,0.053
		c-0.108,0-0.24-0.076-0.396-0.225c-0.155-0.148-0.304-0.32-0.446-0.518c-0.142-0.195-0.264-0.391-0.365-0.584
		c-0.102-0.191-0.152-0.336-0.152-0.432c0-0.074,0.021-0.141,0.065-0.201c0.044-0.063,0.066-0.129,0.066-0.203
		c0-0.096-0.012-0.186-0.035-0.27c-0.024-0.084-0.036-0.176-0.036-0.27c0-0.121,0.023-0.252,0.071-0.391s0.105-0.277,0.172-0.416
		c0.068-0.139,0.139-0.273,0.213-0.406c0.074-0.131,0.142-0.254,0.203-0.371c0.067-0.135,0.162-0.242,0.284-0.324
		c0.122-0.082,0.25-0.152,0.386-0.213c0.135-0.061,0.271-0.121,0.406-0.182c0.135-0.063,0.254-0.143,0.355-0.244
		c0.102,0.115,0.234,0.172,0.396,0.172c0.169,0,0.335-0.025,0.498-0.076c0.162-0.051,0.328-0.076,0.497-0.076
		c0.135,0,0.266,0.014,0.391,0.041c0.125,0.027,0.255,0.041,0.391,0.041c0.149,0,0.259-0.02,0.33-0.057
		c0.071-0.037,0.161-0.102,0.269-0.197c0.108-0.094,0.245-0.168,0.412-0.219c0.165-0.051,0.337-0.092,0.517-0.121
		c0.179-0.031,0.358-0.063,0.538-0.098c0.179-0.033,0.34-0.082,0.482-0.146c0.142-0.063,0.257-0.152,0.345-0.264
		s0.132-0.266,0.132-0.461c0-0.217-0.063-0.445-0.188-0.686c-0.125-0.24-0.286-0.461-0.482-0.66s-0.413-0.363-0.649-0.492
		s-0.463-0.193-0.68-0.193c-0.027,0-0.054,0.004-0.081,0.012c-0.027,0.006-0.051,0.01-0.071,0.01
		c-0.162,0.025-0.345,0.045-0.548,0.055s-0.393,0.041-0.568,0.092s-0.325,0.135-0.447,0.254c-0.122,0.119-0.183,0.293-0.183,0.523
		c0,0.135,0.012,0.268,0.036,0.4c0.023,0.131,0.036,0.266,0.036,0.4c0,0.203-0.049,0.373-0.147,0.508s-0.223,0.244-0.375,0.324
		c-0.153,0.082-0.32,0.137-0.503,0.168s-0.358,0.045-0.528,0.045c-0.203,0-0.379-0.027-0.527-0.082
		c-0.149-0.053-0.271-0.178-0.366-0.375c-0.074-0.141-0.154-0.295-0.239-0.461s-0.126-0.332-0.126-0.504
		c0-0.182,0.032-0.352,0.097-0.512c0.064-0.158,0.137-0.314,0.218-0.467c0.082-0.152,0.161-0.305,0.238-0.455
		c0.078-0.154,0.134-0.316,0.168-0.492c0.047-0.027,0.113-0.055,0.198-0.082c0.084-0.027,0.176-0.055,0.274-0.082
		c0.098-0.025,0.192-0.051,0.284-0.076c0.091-0.023,0.167-0.045,0.228-0.066c0.163-0.047,0.32-0.102,0.472-0.166
		c0.153-0.064,0.308-0.123,0.467-0.178c0.159-0.055,0.318-0.102,0.478-0.143c0.159-0.041,0.323-0.064,0.492-0.07l0.314-0.012
		c0.291,0,0.589,0.027,0.893,0.076c0.305,0.053,0.603,0.131,0.894,0.24c0.291,0.107,0.566,0.24,0.827,0.4
		c0.261,0.16,0.493,0.348,0.696,0.564c0.148,0.162,0.272,0.354,0.371,0.572c0.098,0.219,0.175,0.451,0.233,0.695
		s0.098,0.488,0.122,0.734c0.024,0.248,0.036,0.477,0.036,0.686c0,0.285-0.008,0.564-0.025,0.838
		c-0.018,0.275-0.025,0.553-0.025,0.838c0,0.27,0.015,0.539,0.046,0.807c0.03,0.268,0.065,0.533,0.106,0.803
		c0.041,0.268,0.077,0.533,0.106,0.801c0.031,0.268,0.046,0.533,0.046,0.797c0.014,0.162,0.035,0.262,0.066,0.299
		c0.03,0.037,0.062,0.057,0.096,0.057c0.149,0,0.269-0.045,0.36-0.137c0.092-0.092,0.175-0.193,0.249-0.305s0.156-0.215,0.244-0.311
		c0.088-0.094,0.2-0.143,0.335-0.143c0.061,0,0.123,0.004,0.188,0.01c0.064,0.008,0.124,0.023,0.178,0.047s0.098,0.059,0.132,0.102
		C82.823,21.002,82.84,21.063,82.84,21.137z M79.5,18.609c0-0.041-0.002-0.111-0.005-0.213c-0.003-0.102-0.012-0.205-0.025-0.311
		c-0.014-0.104-0.036-0.197-0.065-0.279c-0.031-0.08-0.077-0.121-0.138-0.121c-0.013,0-0.03,0.006-0.051,0.016
		c-0.02,0.01-0.037,0.016-0.05,0.016c-0.257,0.141-0.477,0.258-0.66,0.35c-0.183,0.092-0.364,0.166-0.542,0.223
		c-0.18,0.059-0.371,0.098-0.574,0.117s-0.457,0.031-0.761,0.031c-0.041,0-0.152,0.016-0.335,0.051
		c-0.183,0.033-0.382,0.072-0.599,0.117c-0.217,0.043-0.42,0.088-0.609,0.131c-0.189,0.045-0.308,0.072-0.355,0.086
		c-0.088,0.035-0.151,0.068-0.188,0.102s-0.066,0.07-0.086,0.111c-0.021,0.041-0.041,0.084-0.061,0.127
		c-0.021,0.045-0.058,0.09-0.112,0.137c-0.067,0.055-0.141,0.1-0.218,0.133c-0.078,0.035-0.151,0.084-0.219,0.152
		c-0.101,0.102-0.196,0.236-0.284,0.4c-0.088,0.166-0.132,0.324-0.132,0.473c0,0.182,0.047,0.344,0.142,0.486
		s0.22,0.264,0.375,0.365c0.156,0.102,0.332,0.189,0.528,0.264c0.196,0.076,0.394,0.133,0.594,0.174
		c0.2,0.039,0.392,0.07,0.579,0.092c0.186,0.02,0.346,0.029,0.481,0.029c0.163,0,0.355-0.012,0.579-0.035
		c0.224-0.023,0.447-0.061,0.67-0.111s0.433-0.121,0.629-0.209s0.352-0.199,0.467-0.334c0.047-0.055,0.081-0.104,0.102-0.148
		c0.02-0.043,0.042-0.086,0.066-0.131c0.023-0.045,0.051-0.09,0.081-0.137c0.031-0.049,0.08-0.1,0.147-0.152
		c0.155-0.129,0.275-0.271,0.36-0.426c0.084-0.156,0.147-0.32,0.188-0.488c0.041-0.17,0.064-0.346,0.071-0.527
		C79.498,18.984,79.5,18.799,79.5,18.609z"/>
	<path fill="#545454" d="M94.116,22.385c0,0.236-0.08,0.426-0.238,0.564c-0.16,0.137-0.351,0.242-0.574,0.314
		c-0.223,0.07-0.455,0.115-0.695,0.137c-0.24,0.02-0.445,0.031-0.614,0.031c-0.223,0-0.408-0.021-0.553-0.063
		c-0.146-0.041-0.272-0.084-0.381-0.127s-0.203-0.086-0.284-0.127c-0.081-0.039-0.166-0.061-0.254-0.061
		c-0.115,0-0.229,0.021-0.339,0.061c-0.112,0.041-0.226,0.061-0.34,0.061c-0.082,0-0.147-0.012-0.198-0.039
		c-0.05-0.027-0.093-0.059-0.126-0.098c-0.034-0.037-0.066-0.068-0.097-0.096c-0.03-0.027-0.066-0.041-0.106-0.041
		c-0.047,0-0.084,0.018-0.112,0.057c-0.027,0.037-0.058,0.08-0.091,0.125c-0.034,0.049-0.083,0.09-0.147,0.129
		c-0.064,0.037-0.157,0.057-0.279,0.057c-0.142,0-0.281-0.016-0.416-0.047s-0.274-0.047-0.416-0.047s-0.283,0.025-0.422,0.078
		c-0.139,0.049-0.269,0.074-0.39,0.074c-0.054,0-0.095-0.018-0.122-0.055c-0.027-0.037-0.057-0.057-0.091-0.057
		c-0.115,0-0.235,0.027-0.36,0.082c-0.126,0.055-0.252,0.08-0.381,0.08c-0.068,0-0.134-0.008-0.198-0.023
		c-0.064-0.018-0.13-0.027-0.198-0.027c-0.115,0-0.23,0.027-0.345,0.082c-0.115,0.053-0.257,0.08-0.426,0.08
		c-0.061,0-0.194-0.008-0.4-0.025c-0.207-0.016-0.418-0.041-0.635-0.074c-0.216-0.035-0.411-0.076-0.583-0.127
		c-0.173-0.051-0.259-0.107-0.259-0.168c0-0.176,0.032-0.352,0.097-0.527c0.064-0.176,0.096-0.346,0.096-0.508v-0.021
		c-0.088,0-0.139-0.047-0.152-0.141c0.014-0.027,0.036-0.049,0.066-0.066c0.031-0.018,0.063-0.031,0.097-0.041
		c0.034-0.01,0.064-0.025,0.091-0.045c0.027-0.02,0.041-0.051,0.041-0.092v-0.041c0.271,0.027,0.536,0.045,0.797,0.051
		c0.26,0.008,0.533,0.01,0.817,0.01c0.264,0,0.556-0.008,0.877-0.023c0.322-0.018,0.62-0.068,0.894-0.148
		c0.274-0.082,0.504-0.205,0.69-0.371c0.186-0.164,0.279-0.396,0.279-0.695v-0.07v-0.162c-0.034-0.744-0.069-1.477-0.106-2.197
		c-0.038-0.721-0.056-1.453-0.056-2.197c0-0.197-0.016-0.387-0.045-0.574c-0.031-0.186-0.046-0.373-0.046-0.563
		c0-0.236,0.042-0.475,0.127-0.711c0.084-0.236,0.218-0.436,0.4-0.598c-0.006-0.041-0.023-0.07-0.05-0.088
		c-0.027-0.016-0.061-0.029-0.102-0.035c-0.041-0.008-0.08-0.014-0.117-0.021c-0.037-0.006-0.069-0.016-0.096-0.029
		c-0.041-0.02-0.067-0.068-0.081-0.143s-0.026-0.154-0.035-0.242c-0.011-0.088-0.021-0.176-0.031-0.26
		c-0.01-0.084-0.032-0.15-0.065-0.197c0.02-0.197,0.054-0.389,0.101-0.578c0.048-0.189,0.071-0.383,0.071-0.58
		c0-0.141-0.019-0.254-0.056-0.334c-0.038-0.082-0.08-0.148-0.127-0.203s-0.09-0.104-0.127-0.146
		c-0.038-0.045-0.056-0.102-0.056-0.168c0-0.055,0.017-0.105,0.051-0.152l-0.082-0.012c-0.067,0-0.118,0.018-0.152,0.053
		c-0.034,0.033-0.066,0.07-0.096,0.111c-0.031,0.039-0.063,0.078-0.097,0.111c-0.034,0.033-0.082,0.051-0.142,0.051
		c-0.047,0-0.102-0.01-0.163-0.031c-0.115,0.035-0.223,0.053-0.325,0.053c-0.237,0-0.472-0.033-0.706-0.098
		c-0.233-0.064-0.468-0.096-0.706-0.096c-0.128,0-0.253,0.004-0.375,0.016c-0.122,0.008-0.243,0.014-0.365,0.014
		c-0.176,0-0.352-0.02-0.528-0.061s-0.332-0.129-0.467-0.264V9.912c0-0.359,0.12-0.631,0.36-0.813
		c0.24-0.184,0.533-0.273,0.878-0.273c0.237,0,0.47,0.029,0.7,0.09c0.23,0.063,0.464,0.092,0.7,0.092
		c0.129,0,0.264-0.014,0.406-0.041s0.288-0.057,0.437-0.092c0.149-0.033,0.299-0.063,0.452-0.09
		c0.152-0.027,0.303-0.041,0.452-0.041c0.23,0,0.446,0.049,0.649,0.146c0.203,0.1,0.406,0.191,0.609,0.279l-0.01,0.082
		c0,0.061,0.015,0.117,0.046,0.166c0.03,0.053,0.066,0.102,0.106,0.154c0.041,0.049,0.077,0.102,0.106,0.15
		c0.031,0.053,0.046,0.107,0.046,0.168c0,0.063-0.009,0.121-0.025,0.178c-0.017,0.059-0.025,0.117-0.025,0.178
		c0,0.148,0.029,0.291,0.086,0.426c0.058,0.137,0.087,0.281,0.087,0.438c0,0.162-0.019,0.32-0.056,0.477
		c-0.038,0.156-0.056,0.314-0.056,0.477c0,0.195,0.023,0.393,0.071,0.588c0.047,0.197,0.071,0.393,0.071,0.59
		c0,0.162-0.025,0.322-0.077,0.477c-0.05,0.156-0.076,0.313-0.076,0.467c0,0.115,0.015,0.229,0.046,0.342
		c0.03,0.109,0.066,0.221,0.106,0.328c0.041,0.109,0.076,0.219,0.106,0.33c0.031,0.111,0.046,0.229,0.046,0.35v0.203
		c0,0.109-0.009,0.213-0.026,0.311c-0.017,0.098-0.062,0.191-0.137,0.279c0.034,0.127,0.069,0.268,0.107,0.416
		c0.037,0.148,0.056,0.291,0.056,0.426c0,0.068-0.005,0.141-0.015,0.219c-0.011,0.078-0.027,0.156-0.051,0.232
		c-0.023,0.078-0.056,0.148-0.096,0.215c-0.041,0.064-0.088,0.115-0.142,0.156c0.088,0.258,0.146,0.518,0.172,0.781
		c0.027,0.264,0.047,0.527,0.061,0.793c0.007,0.08,0.021,0.186,0.041,0.313c0.021,0.131,0.041,0.258,0.061,0.381
		c0.021,0.127,0.039,0.242,0.056,0.346c0.016,0.105,0.025,0.178,0.025,0.219c0,0.115-0.02,0.227-0.061,0.336
		c-0.041,0.107-0.061,0.219-0.061,0.334c0,0.088,0.02,0.182,0.061,0.279c0.041,0.098,0.115,0.146,0.223,0.146
		c0.081,0,0.15-0.018,0.208-0.057c0.058-0.035,0.121-0.076,0.188-0.121c0.067-0.043,0.147-0.084,0.238-0.121
		c0.092-0.037,0.215-0.057,0.371-0.057c0.176,0,0.342,0.023,0.497,0.072c0.156,0.047,0.322,0.07,0.498,0.07
		c0.128,0,0.258-0.012,0.391-0.035c0.131-0.023,0.26-0.051,0.385-0.082c0.125-0.029,0.252-0.059,0.38-0.086
		c0.129-0.027,0.261-0.041,0.396-0.041c0.271,0,0.499,0.078,0.686,0.234C94.023,21.85,94.116,22.08,94.116,22.385z M88.29,9.75
		c-0.027-0.027-0.059-0.055-0.096-0.082c-0.038-0.027-0.08-0.041-0.127-0.041c-0.034,0-0.063,0.016-0.086,0.047
		c-0.024,0.029-0.035,0.063-0.035,0.096l0.051,0.121c0.027,0.014,0.047,0.021,0.061,0.021c0.054,0,0.1-0.02,0.137-0.057
		C88.231,9.818,88.263,9.781,88.29,9.75z M88.899,12.57c0-0.055-0.015-0.109-0.046-0.168c-0.03-0.057-0.08-0.086-0.147-0.086
		c-0.021,0-0.042,0.004-0.066,0.01c-0.024,0.008-0.042,0.014-0.056,0.021v0.436c0.054,0.027,0.095,0.041,0.122,0.041
		c0.067,0,0.117-0.027,0.147-0.086C88.884,12.68,88.899,12.625,88.899,12.57z"/>
	<path fill="#545454" d="M112.466,12.783c0,0.027-0.017,0.082-0.05,0.162c-0.034,0.082-0.073,0.17-0.117,0.264
		c-0.044,0.096-0.09,0.184-0.137,0.266c-0.047,0.08-0.084,0.135-0.112,0.162l0.021,0.01c-0.014,0-0.027,0.004-0.041,0.01h-0.051
		c-0.027,0.008-0.056,0.01-0.086,0.01c-0.031,0-0.063,0-0.097,0l0.041-0.01c-0.156-0.006-0.296-0.035-0.421-0.086
		c-0.125-0.051-0.229-0.148-0.31-0.289c-0.014-0.027-0.034-0.076-0.061-0.148c-0.027-0.07-0.054-0.146-0.081-0.227
		c-0.027-0.082-0.049-0.158-0.065-0.229c-0.018-0.072-0.026-0.125-0.026-0.158c0-0.055,0.005-0.111,0.015-0.172
		c0.011-0.063,0.015-0.119,0.015-0.174c0-0.209-0.02-0.416-0.061-0.619s-0.061-0.408-0.061-0.619c0-0.135,0.017-0.266,0.051-0.396
		c0.034-0.127,0.095-0.246,0.183-0.354h-0.051c-0.081,0-0.146-0.025-0.193-0.076s-0.125-0.076-0.233-0.076
		c-0.257,0-0.507,0.031-0.751,0.092s-0.501,0.09-0.771,0.09c-0.108,0-0.216,0-0.325-0.004s-0.22-0.006-0.335-0.006
		c-0.21,0-0.416,0.023-0.619,0.072c-0.203,0.047-0.399,0.07-0.589,0.07c-0.02,0-0.03-0.002-0.03-0.01
		c0-0.014,0.024-0.031,0.071-0.057c0.047-0.023,0.071-0.041,0.071-0.055c0-0.027-0.022-0.041-0.066-0.041c-0.044,0-0.073,0-0.086,0
		c-0.054,0-0.1,0.027-0.137,0.08c-0.037,0.055-0.093,0.092-0.167,0.111c-0.102,0.027-0.21,0.041-0.325,0.041
		c-0.115,0-0.227,0-0.335,0c-0.068,0-0.166-0.002-0.294-0.01c-0.129-0.006-0.257-0.021-0.386-0.045s-0.246-0.061-0.35-0.111
		c-0.105-0.051-0.164-0.123-0.178-0.219c-0.074,0.02-0.124,0.055-0.147,0.107c-0.024,0.049-0.044,0.102-0.061,0.156
		c-0.017,0.053-0.042,0.104-0.076,0.148c-0.034,0.043-0.102,0.068-0.203,0.076c-0.189,0.014-0.311,0.072-0.365,0.182
		c-0.054,0.107-0.081,0.229-0.081,0.365c0,0.074,0.003,0.148,0.01,0.225c0.007,0.072,0.01,0.148,0.01,0.221
		c0,0.271-0.005,0.541-0.015,0.809c-0.01,0.268-0.015,0.535-0.015,0.807c0,0.115,0.001,0.268,0.005,0.461
		c0.003,0.193,0.016,0.383,0.041,0.568c0.023,0.186,0.059,0.354,0.106,0.498c0.047,0.146,0.115,0.229,0.203,0.25
		c0.054,0.012,0.112,0.02,0.173,0.023s0.122,0.006,0.183,0.006c0.237,0,0.468-0.027,0.695-0.082c0.227-0.053,0.458-0.08,0.695-0.08
		c0.095,0,0.184,0.014,0.269,0.041c0.084,0.025,0.171,0.039,0.259,0.039c0.128,0,0.228-0.063,0.299-0.188
		c0.071-0.125,0.122-0.27,0.152-0.436c0.031-0.166,0.049-0.334,0.056-0.502c0.007-0.17,0.01-0.295,0.01-0.377
		c0-0.168-0.005-0.336-0.015-0.502c-0.011-0.166-0.016-0.334-0.016-0.502h0.061c0.169,0,0.328,0.027,0.477,0.082
		c0.149,0.053,0.305,0.08,0.467,0.08c0.068,0,0.119-0.004,0.152-0.01c0,0.135,0.023,0.27,0.071,0.406
		c0.047,0.135,0.071,0.273,0.071,0.416c0,0.176-0.095,0.287-0.284,0.334c0.054,0.096,0.098,0.189,0.132,0.285
		c0.034,0.094,0.051,0.193,0.051,0.293c0,0.076-0.007,0.148-0.021,0.219c-0.013,0.072-0.02,0.145-0.02,0.219
		c0,0.066,0.022,0.119,0.066,0.156c0.044,0.039,0.066,0.08,0.066,0.127c0,0.082-0.032,0.184-0.096,0.305
		c-0.064,0.123-0.097,0.246-0.097,0.377c0,0.148,0.014,0.303,0.041,0.465c0.027,0.162,0.058,0.332,0.091,0.51
		c0.034,0.176,0.064,0.354,0.092,0.531c0.027,0.18,0.041,0.361,0.041,0.543c0,0.107-0.005,0.221-0.016,0.336
		c-0.01,0.115-0.034,0.225-0.071,0.328c-0.038,0.105-0.088,0.201-0.152,0.291c-0.064,0.086-0.147,0.162-0.249,0.223
		c-0.128-0.014-0.237-0.053-0.325-0.117c-0.088-0.063-0.161-0.141-0.219-0.232c-0.057-0.092-0.102-0.193-0.131-0.305
		c-0.031-0.111-0.053-0.227-0.066-0.34c-0.027-0.176-0.041-0.338-0.041-0.488c0-0.148-0.032-0.275-0.096-0.381
		c-0.064-0.104-0.187-0.188-0.365-0.248c-0.18-0.061-0.458-0.092-0.837-0.092c-0.108,0-0.263,0.01-0.462,0.031
		c-0.2,0.02-0.397,0.055-0.594,0.107c-0.196,0.049-0.367,0.123-0.513,0.217c-0.146,0.096-0.218,0.213-0.218,0.355
		c0,0.082,0.008,0.162,0.026,0.238c0.016,0.078,0.025,0.156,0.025,0.238c0,0.068-0.003,0.135-0.01,0.203
		c-0.006,0.068-0.01,0.139-0.01,0.213c0,0.184,0.01,0.365,0.03,0.543c0.021,0.18,0.03,0.361,0.03,0.543
		c0,0.197-0.025,0.391-0.076,0.58c-0.05,0.189-0.076,0.381-0.076,0.578c0,0.217,0.052,0.387,0.157,0.512
		c0.105,0.127,0.239,0.221,0.401,0.285c0.162,0.064,0.338,0.105,0.528,0.127c0.189,0.02,0.365,0.029,0.528,0.029
		c0.325,0,0.649-0.02,0.974-0.061c0.325-0.039,0.649-0.061,0.975-0.061c0.203,0,0.406,0.01,0.609,0.029
		c0.203,0.021,0.406,0.031,0.609,0.031c0.156,0,0.328-0.006,0.518-0.016s0.371-0.041,0.543-0.096
		c0.173-0.055,0.321-0.133,0.446-0.238c0.125-0.105,0.205-0.256,0.239-0.451c0.007-0.055,0.025-0.094,0.056-0.117
		c0.03-0.023,0.064-0.045,0.102-0.063c0.037-0.016,0.069-0.033,0.096-0.055c0.027-0.02,0.041-0.055,0.041-0.102
		c0-0.053-0.021-0.117-0.061-0.188s-0.067-0.137-0.081-0.199c-0.027-0.127-0.042-0.258-0.046-0.391
		c-0.003-0.131-0.005-0.262-0.005-0.391c0-0.201,0.032-0.381,0.097-0.531c0.064-0.152,0.096-0.32,0.096-0.504
		c0-0.053-0.002-0.105-0.005-0.15c-0.003-0.049-0.005-0.1-0.005-0.152c0-0.041,0.031-0.082,0.091-0.123
		c0.061-0.041,0.132-0.076,0.213-0.105c0.081-0.031,0.162-0.057,0.244-0.076c0.081-0.021,0.142-0.031,0.183-0.031
		c0.169,0,0.308,0.059,0.416,0.178s0.191,0.262,0.249,0.432c0.057,0.168,0.096,0.344,0.116,0.527
		c0.021,0.182,0.031,0.34,0.031,0.467c0,0.211-0.017,0.445-0.051,0.711c-0.034,0.264-0.08,0.533-0.137,0.813
		c-0.058,0.275-0.124,0.545-0.198,0.807c-0.075,0.26-0.149,0.488-0.223,0.684c-0.041,0.096-0.08,0.166-0.117,0.215
		c-0.037,0.047-0.078,0.086-0.122,0.115c-0.044,0.031-0.091,0.061-0.142,0.092c-0.05,0.031-0.106,0.08-0.167,0.146
		c-0.054,0.063-0.158,0.102-0.309,0.123c-0.153,0.02-0.313,0.029-0.482,0.029c-0.128,0-0.25-0.002-0.366-0.01
		c-0.115-0.006-0.203-0.01-0.264-0.01c-0.223,0-0.404,0.027-0.543,0.082c-0.139,0.055-0.269,0.08-0.39,0.08
		c-0.088,0-0.146-0.018-0.173-0.055c-0.027-0.037-0.067-0.057-0.122-0.057c-0.047,0-0.091,0.02-0.132,0.061
		s-0.102,0.061-0.183,0.061c-0.081,0-0.164-0.002-0.248-0.004c-0.085-0.004-0.171-0.006-0.259-0.006
		c-0.507,0-1.011,0.016-1.512,0.047c-0.5,0.029-1.005,0.051-1.512,0.064c-0.345,0.014-0.687,0.055-1.025,0.123
		c-0.338,0.066-0.68,0.102-1.025,0.102c-0.122,0-0.261-0.012-0.416-0.037c-0.156-0.023-0.303-0.064-0.441-0.125
		c-0.139-0.063-0.256-0.145-0.351-0.25s-0.142-0.234-0.142-0.391c0-0.148,0.054-0.291,0.163-0.426s0.238-0.26,0.391-0.375
		c0.152-0.115,0.309-0.223,0.472-0.32c0.162-0.098,0.294-0.191,0.396-0.279c-0.007-0.053-0.01-0.105-0.01-0.152s0-0.094,0-0.143
		c0-0.102,0.001-0.203,0.005-0.305s0.022-0.203,0.056-0.303c0.014-0.063,0.049-0.135,0.106-0.219s0.086-0.158,0.086-0.219
		c0-0.047-0.008-0.092-0.025-0.131c-0.017-0.041-0.032-0.086-0.045-0.133c-0.075-0.182-0.126-0.344-0.158-0.488
		c-0.03-0.141-0.045-0.314-0.045-0.518c0-0.121,0.001-0.227,0.005-0.318s0.011-0.18,0.021-0.264c0.01-0.084,0.027-0.174,0.051-0.266
		c0.023-0.09,0.055-0.193,0.096-0.309c-0.027-0.047-0.058-0.117-0.092-0.213c-0.034-0.094-0.05-0.17-0.05-0.225l0.142-1.439
		c-0.007-0.021-0.01-0.055-0.01-0.104c0-0.059,0.01-0.121,0.03-0.182c0.021-0.061,0.03-0.125,0.03-0.193
		c0-0.154-0.027-0.309-0.081-0.461s-0.081-0.305-0.081-0.463c0-0.053,0.014-0.117,0.041-0.191s0.056-0.156,0.086-0.244
		c0.031-0.088,0.06-0.184,0.086-0.289c0.027-0.104,0.041-0.219,0.041-0.34c0-0.096-0.022-0.176-0.066-0.244
		c-0.044-0.066-0.066-0.145-0.066-0.234c0-0.08,0.021-0.162,0.061-0.242c0.041-0.082,0.061-0.168,0.061-0.264
		c0-0.135-0.025-0.266-0.077-0.391c-0.05-0.125-0.103-0.246-0.157-0.361c-0.082-0.168-0.144-0.305-0.188-0.41
		s-0.096-0.189-0.157-0.254s-0.144-0.111-0.249-0.143s-0.255-0.051-0.451-0.064c-0.095-0.008-0.185-0.037-0.269-0.088
		c-0.085-0.051-0.159-0.115-0.223-0.197c-0.065-0.08-0.117-0.17-0.158-0.264c-0.041-0.096-0.061-0.186-0.061-0.275
		c0-0.121,0.054-0.225,0.162-0.309c0.108-0.084,0.247-0.152,0.416-0.203c0.169-0.051,0.359-0.092,0.569-0.121
		c0.209-0.031,0.414-0.055,0.614-0.072c0.199-0.016,0.382-0.027,0.548-0.035c0.166-0.006,0.292-0.018,0.38-0.029
		c0.135-0.021,0.267-0.035,0.396-0.041c0.128-0.008,0.26-0.012,0.396-0.012c0.264,0,0.529,0.01,0.797,0.027
		c0.267,0.016,0.532,0.025,0.796,0.025c0.284,0,0.563-0.027,0.837-0.082c0.274-0.055,0.554-0.082,0.838-0.082
		c0.257,0,0.511,0.029,0.761,0.086c0.25,0.059,0.498,0.088,0.741,0.088c0.237,0,0.47-0.029,0.7-0.088
		c0.23-0.057,0.463-0.086,0.7-0.086c0.102,0,0.203,0.012,0.305,0.031c0.149,0.162,0.286,0.297,0.411,0.406
		c0.125,0.107,0.233,0.217,0.325,0.33c0.091,0.111,0.165,0.242,0.223,0.391c0.057,0.148,0.096,0.346,0.116,0.588
		c0.007,0.088,0.01,0.195,0.01,0.32s0.003,0.248,0.01,0.365s0.025,0.225,0.056,0.318c0.031,0.096,0.08,0.154,0.147,0.174
		c0,0.096-0.047,0.143-0.142,0.143c0.007,0.094,0.027,0.191,0.061,0.289c0.034,0.098,0.068,0.195,0.102,0.295
		c0.034,0.098,0.064,0.195,0.091,0.293C112.453,12.604,112.466,12.695,112.466,12.783z M103.677,15.281
		c-0.041,0-0.078,0.006-0.112,0.02s-0.058,0.043-0.071,0.092c0.257,0.148,0.462,0.289,0.614,0.42
		c0.153,0.133,0.271,0.238,0.356,0.32c0.084,0.082,0.147,0.127,0.188,0.137s0.081-0.031,0.122-0.127
		c0.054-0.121,0.046-0.236-0.025-0.344c-0.072-0.109-0.169-0.201-0.295-0.275c-0.125-0.074-0.26-0.133-0.406-0.178
		C103.902,15.303,103.778,15.281,103.677,15.281z"/>
	<path fill="#545454" d="M124.717,22.385c0,0.236-0.08,0.426-0.238,0.564c-0.159,0.137-0.351,0.242-0.573,0.314
		c-0.225,0.07-0.456,0.115-0.696,0.137c-0.24,0.02-0.444,0.031-0.614,0.031c-0.223,0-0.407-0.021-0.553-0.063
		s-0.271-0.084-0.381-0.127c-0.107-0.043-0.203-0.086-0.283-0.127c-0.082-0.039-0.166-0.061-0.254-0.061
		c-0.115,0-0.229,0.021-0.34,0.061c-0.112,0.041-0.226,0.061-0.341,0.061c-0.081,0-0.146-0.012-0.198-0.039
		c-0.05-0.027-0.092-0.059-0.127-0.098c-0.033-0.037-0.064-0.068-0.096-0.096c-0.03-0.027-0.066-0.041-0.106-0.041
		c-0.048,0-0.085,0.018-0.112,0.057c-0.026,0.037-0.057,0.08-0.091,0.125c-0.034,0.049-0.083,0.09-0.147,0.129
		c-0.064,0.037-0.157,0.057-0.279,0.057c-0.142,0-0.28-0.016-0.416-0.047c-0.135-0.031-0.273-0.047-0.416-0.047
		s-0.283,0.025-0.422,0.078c-0.139,0.049-0.268,0.074-0.39,0.074c-0.054,0-0.095-0.018-0.122-0.055s-0.058-0.057-0.092-0.057
		c-0.115,0-0.234,0.027-0.359,0.082c-0.126,0.055-0.252,0.08-0.381,0.08c-0.068,0-0.135-0.008-0.198-0.023
		c-0.064-0.018-0.13-0.027-0.198-0.027c-0.115,0-0.23,0.027-0.345,0.082c-0.115,0.053-0.257,0.08-0.426,0.08
		c-0.061,0-0.195-0.008-0.4-0.025c-0.207-0.016-0.418-0.041-0.635-0.074c-0.216-0.035-0.411-0.076-0.583-0.127
		c-0.173-0.051-0.259-0.107-0.259-0.168c0-0.176,0.032-0.352,0.097-0.527c0.063-0.176,0.096-0.346,0.096-0.508v-0.021
		c-0.088,0-0.139-0.047-0.152-0.141c0.014-0.027,0.036-0.049,0.065-0.066c0.031-0.018,0.063-0.031,0.097-0.041
		c0.034-0.01,0.064-0.025,0.091-0.045c0.027-0.02,0.041-0.051,0.041-0.092v-0.041c0.271,0.027,0.536,0.045,0.797,0.051
		c0.26,0.008,0.533,0.01,0.817,0.01c0.264,0,0.556-0.008,0.877-0.023c0.321-0.018,0.619-0.068,0.893-0.148
		c0.275-0.082,0.505-0.205,0.691-0.371c0.186-0.164,0.279-0.396,0.279-0.695v-0.07v-0.162c-0.034-0.744-0.07-1.477-0.107-2.197
		s-0.056-1.453-0.056-2.197c0-0.197-0.015-0.387-0.046-0.574c-0.03-0.186-0.045-0.373-0.045-0.563c0-0.236,0.041-0.475,0.127-0.711
		c0.084-0.236,0.218-0.436,0.4-0.598c-0.007-0.041-0.023-0.07-0.051-0.088c-0.027-0.016-0.061-0.029-0.102-0.035
		c-0.041-0.008-0.08-0.014-0.117-0.021c-0.037-0.006-0.068-0.016-0.096-0.029c-0.041-0.02-0.068-0.068-0.081-0.143
		c-0.014-0.074-0.026-0.154-0.036-0.242s-0.02-0.176-0.03-0.26c-0.01-0.084-0.032-0.15-0.065-0.197
		c0.02-0.197,0.054-0.389,0.102-0.578c0.047-0.189,0.07-0.383,0.07-0.58c0-0.141-0.019-0.254-0.055-0.334
		c-0.038-0.082-0.08-0.148-0.127-0.203c-0.048-0.055-0.091-0.104-0.128-0.146c-0.037-0.045-0.056-0.102-0.056-0.168
		c0-0.055,0.018-0.105,0.051-0.152l-0.081-0.012c-0.067,0-0.118,0.018-0.152,0.053c-0.034,0.033-0.065,0.07-0.097,0.111
		c-0.03,0.039-0.063,0.078-0.096,0.111c-0.034,0.033-0.082,0.051-0.143,0.051c-0.047,0-0.102-0.01-0.162-0.031
		c-0.115,0.035-0.224,0.053-0.324,0.053c-0.237,0-0.473-0.033-0.707-0.098c-0.233-0.064-0.468-0.096-0.705-0.096
		c-0.128,0-0.253,0.004-0.375,0.016c-0.122,0.008-0.244,0.014-0.365,0.014c-0.176,0-0.352-0.02-0.528-0.061
		s-0.332-0.129-0.467-0.264V9.912c0-0.359,0.12-0.631,0.36-0.813c0.24-0.184,0.533-0.273,0.878-0.273c0.237,0,0.47,0.029,0.7,0.09
		c0.23,0.063,0.463,0.092,0.7,0.092c0.129,0,0.264-0.014,0.407-0.041c0.142-0.027,0.287-0.057,0.436-0.092
		c0.148-0.033,0.299-0.063,0.452-0.09c0.151-0.027,0.303-0.041,0.451-0.041c0.23,0,0.446,0.049,0.649,0.146
		c0.203,0.1,0.406,0.191,0.609,0.279l-0.01,0.082c0,0.061,0.015,0.117,0.045,0.166c0.031,0.053,0.066,0.102,0.107,0.154
		c0.04,0.049,0.076,0.102,0.105,0.15c0.031,0.053,0.047,0.107,0.047,0.168c0,0.063-0.01,0.121-0.026,0.178
		c-0.017,0.059-0.024,0.117-0.024,0.178c0,0.148,0.027,0.291,0.086,0.426c0.057,0.137,0.086,0.281,0.086,0.438
		c0,0.162-0.019,0.32-0.056,0.477c-0.038,0.156-0.056,0.314-0.056,0.477c0,0.195,0.023,0.393,0.07,0.588
		c0.048,0.197,0.072,0.393,0.072,0.59c0,0.162-0.025,0.322-0.077,0.477c-0.05,0.156-0.075,0.313-0.075,0.467
		c0,0.115,0.015,0.229,0.045,0.342c0.03,0.109,0.066,0.221,0.107,0.328c0.04,0.109,0.076,0.219,0.105,0.33
		c0.031,0.111,0.046,0.229,0.046,0.35v0.203c0,0.109-0.009,0.213-0.025,0.311s-0.063,0.191-0.137,0.279
		c0.034,0.127,0.069,0.268,0.106,0.416s0.056,0.291,0.056,0.426c0,0.068-0.005,0.141-0.015,0.219
		c-0.011,0.078-0.027,0.156-0.051,0.232c-0.024,0.078-0.057,0.148-0.097,0.215c-0.04,0.064-0.088,0.115-0.142,0.156
		c0.088,0.258,0.145,0.518,0.172,0.781s0.047,0.527,0.061,0.793c0.008,0.08,0.021,0.186,0.041,0.313
		c0.021,0.131,0.041,0.258,0.061,0.381c0.021,0.127,0.039,0.242,0.057,0.346c0.016,0.105,0.025,0.178,0.025,0.219
		c0,0.115-0.021,0.227-0.062,0.336c-0.04,0.107-0.061,0.219-0.061,0.334c0,0.088,0.021,0.182,0.061,0.279
		c0.041,0.098,0.115,0.146,0.224,0.146c0.081,0,0.15-0.018,0.207-0.057c0.059-0.035,0.121-0.076,0.188-0.121
		c0.067-0.043,0.147-0.084,0.238-0.121c0.092-0.037,0.216-0.057,0.371-0.057c0.176,0,0.341,0.023,0.497,0.072
		c0.156,0.047,0.321,0.07,0.498,0.07c0.128,0,0.258-0.012,0.391-0.035c0.131-0.023,0.26-0.051,0.385-0.082
		c0.125-0.029,0.252-0.059,0.381-0.086s0.261-0.041,0.396-0.041c0.27,0,0.498,0.078,0.685,0.234
		C124.625,21.85,124.717,22.08,124.717,22.385z M118.891,9.75c-0.026-0.027-0.06-0.055-0.097-0.082s-0.079-0.041-0.127-0.041
		c-0.033,0-0.063,0.016-0.086,0.047c-0.023,0.029-0.035,0.063-0.035,0.096l0.051,0.121c0.027,0.014,0.047,0.021,0.061,0.021
		c0.055,0,0.1-0.02,0.137-0.057S118.865,9.781,118.891,9.75z M119.5,12.57c0-0.055-0.014-0.109-0.045-0.168
		c-0.03-0.057-0.08-0.086-0.147-0.086c-0.021,0-0.042,0.004-0.065,0.01c-0.024,0.008-0.043,0.014-0.057,0.021v0.436
		c0.055,0.027,0.096,0.041,0.122,0.041c0.067,0,0.117-0.027,0.147-0.086C119.486,12.68,119.5,12.625,119.5,12.57z"/>
	<path fill="#545454" d="M136.571,22.527c0,0.115-0.021,0.223-0.066,0.324c-0.043,0.102-0.104,0.191-0.182,0.27
		s-0.168,0.141-0.27,0.188s-0.213,0.07-0.334,0.07c-0.049,0-0.078-0.006-0.092-0.02s-0.037-0.037-0.072-0.072
		c-0.094-0.1-0.209-0.16-0.344-0.176c-0.135-0.018-0.277-0.033-0.422-0.051s-0.283-0.055-0.416-0.111
		c-0.133-0.059-0.238-0.176-0.32-0.352c-0.053-0.113-0.111-0.189-0.172-0.223c-0.061-0.035-0.156-0.051-0.283-0.051
		c-0.299,0-0.582,0.047-0.854,0.143c-0.271,0.094-0.537,0.201-0.803,0.32c-0.264,0.117-0.531,0.225-0.807,0.318
		c-0.273,0.096-0.557,0.143-0.848,0.143c-0.162,0-0.322-0.016-0.48-0.047c-0.16-0.029-0.314-0.078-0.463-0.146
		c-0.033,0.033-0.072,0.057-0.117,0.07c-0.043,0.014-0.092,0.021-0.146,0.021c-0.047,0-0.094-0.004-0.137-0.01
		c-0.045-0.008-0.084-0.012-0.117-0.012c-0.006,0-0.043,0.012-0.111,0.037c-0.068,0.023-0.107,0.039-0.121,0.045l0.061,0.102
		c-0.041,0.061-0.133,0.121-0.275,0.178c-0.141,0.057-0.295,0.107-0.461,0.148c-0.166,0.039-0.326,0.072-0.482,0.1
		c-0.154,0.027-0.273,0.041-0.355,0.041c-0.217,0-0.395-0.035-0.533-0.107c-0.139-0.07-0.275-0.193-0.41-0.369
		c-0.047-0.068-0.106-0.135-0.178-0.203c-0.07-0.068-0.139-0.137-0.203-0.207c-0.064-0.072-0.119-0.148-0.162-0.229
		c-0.045-0.082-0.066-0.166-0.066-0.254c0-0.102,0.055-0.188,0.162-0.256c0.109-0.066,0.237-0.121,0.387-0.166
		c0.148-0.045,0.297-0.074,0.446-0.092c0.149-0.016,0.264-0.025,0.344-0.025c0.162,0,0.324,0.023,0.488,0.066
		c0.162,0.043,0.324,0.066,0.486,0.066c0.148,0,0.291-0.021,0.426-0.061c0.137-0.041,0.277-0.063,0.428-0.063
		c0.127,0,0.254,0.01,0.381,0.025c0.123,0.018,0.252,0.027,0.379,0.027c0.162,0,0.32-0.029,0.473-0.088
		c0.152-0.057,0.297-0.133,0.432-0.229c0.055-0.332,0.092-0.662,0.117-0.994c0.023-0.332,0.035-0.666,0.035-1.004
		c0-0.334-0.027-0.664-0.082-0.996c-0.055-0.33-0.08-0.66-0.08-0.984c0-0.027,0.006-0.043,0.02-0.045
		c0.014-0.004,0.029-0.008,0.047-0.012c0.016-0.002,0.031-0.008,0.045-0.02c0.014-0.01,0.02-0.035,0.02-0.076
		c0-0.141-0.02-0.281-0.061-0.416s-0.061-0.273-0.061-0.416c0-0.176,0.023-0.348,0.07-0.518s0.072-0.342,0.072-0.518
		c0-0.123-0.027-0.244-0.082-0.365c-0.055-0.123-0.125-0.23-0.213-0.326c-0.088-0.094-0.189-0.17-0.305-0.227
		c-0.115-0.059-0.236-0.086-0.365-0.086c-0.143,0-0.283,0.016-0.422,0.051c-0.139,0.033-0.281,0.072-0.432,0.115
		c-0.148,0.045-0.299,0.084-0.451,0.117s-0.313,0.051-0.482,0.051c-0.195,0-0.389-0.014-0.578-0.039
		c-0.189-0.027-0.383-0.059-0.578-0.092c-0.096-0.014-0.202-0.027-0.32-0.041c-0.119-0.014-0.231-0.039-0.34-0.07
		c-0.108-0.035-0.199-0.086-0.273-0.154c-0.075-0.066-0.112-0.166-0.112-0.293c0-0.238,0.042-0.418,0.126-0.543
		c0.086-0.127,0.189-0.219,0.316-0.279c0.124-0.061,0.265-0.098,0.42-0.111c0.156-0.014,0.304-0.027,0.447-0.041
		c0.258-0.021,0.514-0.039,0.766-0.057c0.254-0.018,0.51-0.025,0.768-0.025c0.318,0,0.631,0.02,0.938,0.057
		c0.309,0.037,0.621,0.055,0.939,0.055c0.223,0,0.438,0.035,0.639,0.102c0.203,0.068,0.381,0.172,0.533,0.311
		s0.273,0.313,0.361,0.521c0.088,0.211,0.131,0.455,0.131,0.732c0,0.182-0.039,0.359-0.115,0.531
		c-0.078,0.174-0.178,0.328-0.301,0.463c0.047,0.088,0.096,0.146,0.143,0.178c0.047,0.029,0.092,0.059,0.133,0.082
		c0.039,0.021,0.074,0.053,0.102,0.09c0.025,0.037,0.039,0.107,0.039,0.209c0,0.055,0.01,0.115,0.025,0.188
		c0.018,0.07,0.063,0.109,0.137,0.115c0,0.365-0.002,0.727-0.01,1.082c-0.006,0.355-0.01,0.713-0.01,1.07
		c0,0.305,0.002,0.609,0.006,0.914c0.002,0.305,0.027,0.609,0.076,0.912c0.025,0.189,0.08,0.336,0.162,0.438
		c0.08,0.102,0.227,0.152,0.436,0.152c0.305,0,0.605-0.031,0.904-0.096c0.297-0.064,0.598-0.098,0.902-0.098
		c0.176,0,0.344,0.045,0.504,0.133c0.158,0.088,0.311,0.184,0.455,0.283c0.146,0.104,0.287,0.197,0.422,0.285
		s0.264,0.131,0.385,0.131c0.055,0,0.1,0.02,0.133,0.057s0.059,0.082,0.076,0.131c0.016,0.053,0.027,0.104,0.031,0.158
		C136.569,22.439,136.571,22.486,136.571,22.527z M131.659,10.174c0,0.197-0.033,0.398-0.098,0.605
		c-0.063,0.207-0.156,0.396-0.277,0.568c-0.123,0.172-0.27,0.314-0.441,0.426c-0.174,0.111-0.365,0.168-0.574,0.168
		c-0.143,0-0.318-0.021-0.527-0.066c-0.211-0.043-0.412-0.107-0.604-0.193c-0.193-0.084-0.359-0.193-0.498-0.33
		c-0.139-0.135-0.209-0.293-0.209-0.477c0-0.162,0.02-0.33,0.057-0.502s0.059-0.348,0.066-0.523
		c0.066-0.033,0.135-0.094,0.203-0.182c0.066-0.088,0.133-0.178,0.197-0.27s0.129-0.174,0.193-0.248s0.131-0.115,0.197-0.123
		l-0.051,0.021c0.096-0.041,0.195-0.074,0.299-0.102c0.105-0.027,0.213-0.041,0.32-0.041c0.143,0,0.313,0.035,0.512,0.107
		c0.201,0.07,0.393,0.164,0.574,0.279c0.184,0.113,0.338,0.25,0.467,0.404C131.595,9.854,131.659,10.012,131.659,10.174z"/>
	<path fill="#545454" d="M146.163,19.309c0,0.217-0.023,0.422-0.07,0.615c-0.049,0.193-0.102,0.383-0.164,0.568
		c-0.061,0.186-0.123,0.375-0.188,0.568s-0.113,0.391-0.146,0.594c-0.061,0.338-0.184,0.619-0.365,0.844
		c-0.184,0.221-0.402,0.398-0.66,0.531s-0.543,0.23-0.857,0.295s-0.639,0.113-0.969,0.146c-0.332,0.033-0.658,0.059-0.98,0.072
		c-0.32,0.012-0.617,0.037-0.889,0.07c-0.1-0.074-0.186-0.154-0.252-0.244c-0.068-0.088-0.133-0.17-0.193-0.248
		s-0.129-0.143-0.203-0.193s-0.172-0.076-0.295-0.076c-0.041,0-0.072-0.057-0.096-0.166c-0.023-0.113-0.047-0.238-0.066-0.377
		s-0.043-0.264-0.066-0.375s-0.055-0.168-0.096-0.168c-0.156,0-0.279-0.033-0.371-0.102c-0.09-0.068-0.162-0.152-0.213-0.258
		s-0.084-0.223-0.102-0.352c-0.018-0.127-0.025-0.254-0.025-0.375c0-0.094-0.02-0.182-0.061-0.264s-0.084-0.16-0.133-0.238
		c-0.047-0.078-0.09-0.156-0.131-0.238s-0.061-0.166-0.061-0.254c0-0.102,0.004-0.229,0.014-0.381
		c0.012-0.152,0.021-0.311,0.031-0.473s0.021-0.32,0.031-0.477s0.014-0.283,0.014-0.387c0-0.121,0.016-0.221,0.047-0.303
		s0.066-0.152,0.105-0.213c0.041-0.063,0.076-0.115,0.107-0.164c0.029-0.047,0.045-0.1,0.045-0.162c0-0.08-0.018-0.148-0.055-0.203
		c-0.037-0.053-0.057-0.107-0.057-0.162c0-0.074,0.023-0.146,0.072-0.219c0.047-0.07,0.08-0.143,0.102-0.217
		c0.074-0.297,0.111-0.592,0.111-0.883c0-0.061-0.002-0.121-0.006-0.178c-0.004-0.059-0.008-0.113-0.016-0.168
		c-0.154-0.129-0.328-0.211-0.518-0.248s-0.379-0.064-0.568-0.082s-0.371-0.039-0.547-0.064c-0.176-0.027-0.326-0.1-0.447-0.215
		c-0.102-0.094-0.193-0.201-0.273-0.32c-0.082-0.117-0.189-0.197-0.326-0.236c-0.094-0.035-0.174-0.08-0.238-0.139
		c-0.064-0.057-0.096-0.141-0.096-0.248c0-0.162,0.049-0.285,0.146-0.371c0.098-0.084,0.215-0.152,0.352-0.203
		c0.135-0.051,0.275-0.094,0.42-0.131c0.146-0.037,0.27-0.094,0.371-0.168s0.223-0.111,0.365-0.111c0.061,0,0.119,0.002,0.178,0.004
		c0.057,0.004,0.117,0.006,0.178,0.006c0.168,0,0.309-0.029,0.422-0.086c0.111-0.057,0.199-0.135,0.264-0.234
		c0.063-0.098,0.107-0.211,0.131-0.34s0.035-0.266,0.035-0.416c0-0.215-0.014-0.426-0.039-0.629
		c-0.027-0.203-0.041-0.412-0.041-0.629c0-0.252,0.033-0.48,0.102-0.689c0.066-0.211,0.195-0.404,0.385-0.58
		c0.041-0.033,0.086-0.078,0.133-0.133c0.047-0.053,0.098-0.105,0.152-0.156c0.053-0.051,0.109-0.092,0.166-0.127
		c0.059-0.033,0.117-0.051,0.178-0.051c0.041,0,0.076,0.01,0.107,0.025c0.031,0.018,0.063,0.039,0.096,0.066
		c0.15,0.148,0.246,0.258,0.289,0.33c0.045,0.07,0.066,0.154,0.066,0.248c0,0.055-0.002,0.113-0.006,0.178
		c-0.002,0.064-0.004,0.146-0.004,0.248c0,0.217,0.027,0.43,0.082,0.641c0.053,0.209,0.08,0.389,0.08,0.537
		c0,0.129-0.025,0.252-0.076,0.371s-0.076,0.242-0.076,0.369c0,0.096,0.021,0.182,0.066,0.26c0.043,0.078,0.094,0.154,0.152,0.229
		c0.057,0.074,0.109,0.15,0.156,0.229c0.049,0.078,0.072,0.168,0.072,0.27c0.068,0.047,0.219,0.09,0.457,0.127
		c0.236,0.037,0.5,0.066,0.791,0.092c0.291,0.023,0.586,0.041,0.883,0.055c0.299,0.014,0.545,0.021,0.74,0.021
		c0.178,0,0.313,0.014,0.406,0.039c0.096,0.027,0.174,0.057,0.24,0.086c0.063,0.031,0.123,0.064,0.176,0.096
		c0.055,0.035,0.127,0.055,0.215,0.063c0.107,0.014,0.199,0.043,0.279,0.086c0.076,0.043,0.115,0.131,0.115,0.258
		c0,0.162-0.043,0.293-0.127,0.387c-0.084,0.096-0.189,0.166-0.314,0.213s-0.258,0.076-0.4,0.086
		c-0.143,0.012-0.273,0.016-0.396,0.016c-0.195,0-0.393-0.006-0.588-0.02c-0.197-0.014-0.393-0.021-0.59-0.021
		c-0.324,0-0.619,0.031-0.883,0.092s-0.492,0.164-0.686,0.305c-0.191,0.143-0.342,0.33-0.445,0.563
		c-0.105,0.234-0.158,0.527-0.158,0.879c0,0.344,0.021,0.684,0.066,1.016c0.045,0.33,0.066,0.668,0.066,1.014
		c0,0.326,0.004,0.586,0.016,0.781c0.01,0.197,0.049,0.361,0.115,0.498c0.09,0.197,0.16,0.42,0.215,0.67
		c0.053,0.25,0.123,0.488,0.207,0.711s0.203,0.41,0.355,0.563s0.377,0.229,0.676,0.229c0.102,0,0.236-0.014,0.404-0.039
		c0.17-0.027,0.34-0.07,0.508-0.129c0.17-0.057,0.314-0.131,0.438-0.223c0.121-0.092,0.182-0.205,0.182-0.34
		c0-0.115-0.033-0.232-0.102-0.35c-0.066-0.119-0.102-0.246-0.102-0.381c0-0.094,0.021-0.178,0.066-0.25
		c0.045-0.07,0.102-0.135,0.172-0.191c0.072-0.057,0.146-0.109,0.225-0.152c0.076-0.045,0.154-0.082,0.229-0.117
		c0.121-0.154,0.27-0.285,0.441-0.391s0.355-0.156,0.553-0.156c0.135,0,0.266,0.023,0.391,0.07s0.242,0.107,0.35,0.182
		C146.153,19.057,146.163,19.182,146.163,19.309z"/>
	<path fill="#545454" d="M157.044,20.793c0,0.182-0.029,0.338-0.086,0.465c-0.059,0.129-0.133,0.244-0.225,0.346
		s-0.195,0.195-0.314,0.285c-0.119,0.086-0.238,0.182-0.359,0.283c-0.096,0.082-0.18,0.143-0.254,0.182
		c-0.074,0.041-0.148,0.076-0.219,0.104s-0.146,0.053-0.225,0.08c-0.076,0.027-0.166,0.064-0.268,0.111
		c-0.135,0.068-0.248,0.131-0.34,0.188c-0.092,0.059-0.184,0.111-0.273,0.158c-0.092,0.047-0.191,0.086-0.301,0.117
		c-0.107,0.029-0.244,0.055-0.406,0.076c-0.27,0.033-0.543,0.074-0.816,0.121s-0.547,0.07-0.816,0.07
		c-0.055,0-0.111-0.012-0.168-0.035c-0.059-0.023-0.123-0.047-0.197-0.07s-0.158-0.047-0.25-0.072
		c-0.09-0.023-0.201-0.035-0.33-0.035c-0.135,0-0.242-0.02-0.324-0.061c-0.08-0.039-0.154-0.088-0.219-0.143
		s-0.129-0.111-0.197-0.176c-0.068-0.066-0.156-0.121-0.264-0.168c-0.406-0.184-0.752-0.402-1.035-0.66
		c-0.285-0.258-0.527-0.545-0.73-0.863c-0.203-0.316-0.373-0.664-0.508-1.035c-0.135-0.373-0.25-0.762-0.346-1.166
		c-0.074-0.285-0.111-0.568-0.111-0.854c0-0.373,0.088-0.717,0.264-1.035c-0.066-0.189-0.102-0.373-0.102-0.549
		c0-0.127,0.037-0.318,0.111-0.572s0.172-0.51,0.291-0.768c0.117-0.256,0.246-0.488,0.385-0.693c0.139-0.207,0.27-0.334,0.391-0.381
		c0.096-0.035,0.16-0.064,0.197-0.086c0.037-0.023,0.057-0.092,0.057-0.199c0-0.082,0.031-0.148,0.096-0.203
		s0.143-0.098,0.234-0.133c0.09-0.033,0.182-0.063,0.273-0.09s0.168-0.055,0.229-0.082c0.25-0.121,0.488-0.225,0.717-0.309
		c0.225-0.086,0.451-0.156,0.678-0.215c0.229-0.057,0.463-0.098,0.707-0.125c0.242-0.027,0.504-0.041,0.781-0.041
		c0.148,0,0.295,0.02,0.436,0.061c0.143,0.041,0.279,0.094,0.412,0.158c0.131,0.063,0.262,0.135,0.391,0.213
		s0.254,0.154,0.375,0.227h-0.01c0.102,0.014,0.197,0.043,0.289,0.088s0.188,0.072,0.289,0.086c0.096,0.115,0.219,0.225,0.371,0.33
		s0.301,0.215,0.445,0.33c0.146,0.113,0.271,0.238,0.377,0.371c0.104,0.131,0.156,0.281,0.156,0.451c0,0.027-0.002,0.053-0.004,0.08
		c-0.004,0.027-0.01,0.059-0.016,0.092l0.041-0.051c0.027,0.02,0.051,0.055,0.076,0.102c0.023,0.047,0.045,0.1,0.064,0.158
		c0.021,0.057,0.037,0.115,0.051,0.172s0.025,0.104,0.031,0.137c0.055,0.088,0.127,0.158,0.219,0.213s0.164,0.129,0.217,0.225
		c-0.066,0.066-0.102,0.154-0.102,0.262c0,0.117,0.025,0.23,0.072,0.342s0.07,0.225,0.07,0.34c0,0.135-0.006,0.266-0.02,0.391
		s-0.021,0.254-0.021,0.391c0,0.102-0.039,0.18-0.115,0.232c-0.078,0.055-0.164,0.102-0.254,0.143
		c-0.092,0.041-0.174,0.082-0.25,0.123c-0.074,0.039-0.111,0.098-0.111,0.172c0,0.055-0.031,0.08-0.096,0.076
		s-0.117-0.006-0.158-0.006c-0.297,0-0.594-0.037-0.887-0.111c-0.295-0.074-0.588-0.111-0.879-0.111
		c-0.318,0-0.633,0.021-0.943,0.066c-0.311,0.043-0.627,0.064-0.943,0.064c-0.238,0-0.473-0.006-0.705-0.02
		c-0.234-0.014-0.469-0.021-0.707-0.021c-0.061,0-0.176,0.014-0.344,0.037c-0.17,0.023-0.348,0.055-0.533,0.092
		c-0.188,0.037-0.363,0.08-0.533,0.131s-0.287,0.102-0.355,0.146c-0.006,0.035-0.01,0.082-0.01,0.145
		c0,0.316,0.092,0.645,0.279,0.982c0.186,0.34,0.432,0.646,0.736,0.926c0.303,0.275,0.645,0.506,1.023,0.689
		c0.379,0.182,0.762,0.273,1.148,0.273c0.223,0,0.443,0.008,0.664,0.025c0.219,0.018,0.436,0.066,0.645,0.148
		c0.184-0.09,0.35-0.189,0.502-0.307c0.152-0.113,0.301-0.236,0.441-0.365c0.143-0.127,0.281-0.26,0.416-0.395
		c0.137-0.137,0.275-0.271,0.416-0.406c0.027-0.027,0.094-0.053,0.199-0.076c0.104-0.023,0.217-0.045,0.34-0.061
		c0.121-0.018,0.238-0.031,0.35-0.041s0.188-0.016,0.229-0.016c0.156,0,0.301,0.023,0.436,0.07
		C157.022,20.49,157.044,20.643,157.044,20.793z M155.521,16.67c0-0.1-0.018-0.199-0.051-0.293c-0.033-0.096-0.061-0.193-0.08-0.295
		c-0.035-0.189-0.051-0.373-0.051-0.553s-0.027-0.361-0.082-0.543h-0.01c0,0.041-0.014,0.08-0.041,0.115
		c-0.027,0.039-0.064,0.057-0.111,0.057c-0.082,0-0.16-0.02-0.234-0.061s-0.139-0.092-0.191-0.152
		c-0.258-0.115-0.49-0.225-0.695-0.324c-0.207-0.102-0.414-0.191-0.619-0.27c-0.207-0.078-0.428-0.139-0.66-0.184
		c-0.234-0.043-0.502-0.064-0.807-0.064c-0.027,0-0.053,0.002-0.076,0.004c-0.023,0.004-0.047,0.016-0.066,0.037l0.051,0.111
		l-0.082,0.02c-0.182,0.035-0.332,0.066-0.451,0.096c-0.119,0.031-0.225,0.074-0.32,0.129c-0.094,0.053-0.188,0.119-0.277,0.197
		c-0.092,0.078-0.209,0.178-0.352,0.299c-0.066,0.061-0.141,0.105-0.217,0.137c-0.078,0.031-0.156,0.059-0.234,0.082
		s-0.152,0.049-0.223,0.074c-0.072,0.027-0.131,0.072-0.178,0.133c-0.047,0.17-0.117,0.334-0.209,0.492
		c-0.09,0.16-0.137,0.326-0.137,0.504c0,0.102,0.043,0.191,0.127,0.268c0.084,0.078,0.193,0.145,0.324,0.199
		c0.133,0.053,0.277,0.102,0.438,0.141c0.158,0.041,0.316,0.072,0.471,0.092c0.156,0.021,0.301,0.035,0.432,0.047
		c0.133,0.01,0.236,0.016,0.311,0.016c0.256,0,0.51-0.027,0.762-0.078c0.25-0.051,0.504-0.076,0.76-0.076
		c0.264,0,0.529,0.012,0.793,0.037c0.264,0.023,0.527,0.035,0.791,0.035c0.068,0,0.17-0.004,0.305-0.01
		c0.135-0.008,0.268-0.025,0.4-0.057s0.246-0.074,0.346-0.131C155.472,16.842,155.521,16.766,155.521,16.67z"/>
</g>
</svg>
