<?xml version="1.0" encoding="utf-8"?>
<!-- Generator: Adobe Illustrator 16.0.0, SVG Export Plug-In . SVG Version: 6.00 Build 0)  -->
<!DOCTYPE svg PUBLIC "-//W3C//DTD SVG 1.1//EN" "http://www.w3.org/Graphics/SVG/1.1/DTD/svg11.dtd">
<svg version="1.1" id="图层_1" xmlns="http://www.w3.org/2000/svg" xmlns:xlink="http://www.w3.org/1999/xlink" x="0px" y="0px"
	 width="258px" height="36px" viewBox="0 0 258 36" enable-background="new 0 0 258 36" xml:space="preserve">
<g>
	<path fill="#545454" d="M16.35,15.369c-0.858-0.291-1.495-0.729-1.909-1.311c-0.413-0.582-0.62-1.381-0.62-2.391
		c0-1.412,0.536-2.541,1.608-3.393C16.502,7.426,17.595,7,18.707,7c1.11,0,2.092,0.25,2.941,0.748
		c0.852,0.498,1.276,1.176,1.276,2.035c0,0.52-0.161,0.918-0.483,1.193c-0.32,0.277-0.709,0.414-1.16,0.414
		c-0.452,0-0.813-0.125-1.08-0.379c-0.269-0.254-0.402-0.49-0.402-0.713c0-0.221,0.041-0.332,0.126-0.332s0.157,0.049,0.219,0.148
		s0.114,0.211,0.161,0.334c0.121,0.32,0.387,0.482,0.793,0.482c0.405,0,0.728-0.1,0.965-0.299c0.238-0.199,0.357-0.484,0.357-0.85
		c0-0.676-0.377-1.227-1.127-1.656c-0.752-0.43-1.602-0.645-2.553-0.645c-0.949,0-1.838,0.293-2.666,0.873
		c-0.827,0.584-1.241,1.32-1.241,2.207c0,0.6,0.21,1.094,0.632,1.484s0.896,0.67,1.426,0.838c0.529,0.17,1.219,0.369,2.068,0.598
		c0.852,0.23,1.514,0.453,1.988,0.666c1.656,0.736,2.484,2.063,2.484,3.979c0,0.965-0.182,1.816-0.541,2.551
		c-0.361,0.736-0.816,1.297-1.368,1.678c-1.089,0.736-2.184,1.105-3.287,1.105c-1.011,0-2.054-0.314-3.126-0.943
		c-0.521-0.307-0.951-0.734-1.288-1.287s-0.505-1.199-0.505-1.943c0-0.742,0.202-1.287,0.608-1.631
		c0.406-0.346,0.767-0.518,1.081-0.518c0.313,0,0.586,0.068,0.815,0.207c0.229,0.137,0.345,0.291,0.345,0.459
		c0,0.17-0.038,0.254-0.115,0.254c-0.076,0-0.134-0.023-0.172-0.068c-0.039-0.047-0.072-0.1-0.104-0.162
		c-0.107-0.152-0.355-0.23-0.747-0.23s-0.705,0.166-0.942,0.496c-0.238,0.328-0.356,0.746-0.356,1.252
		c0,1.104,0.468,1.988,1.402,2.654s1.938,1,3.012,1c1.471,0,2.644-0.498,3.517-1.494c0.506-0.598,0.76-1.363,0.76-2.299
		s-0.318-1.635-0.955-2.104c-0.636-0.467-1.528-0.836-2.678-1.104C17.636,15.732,16.825,15.521,16.35,15.369z"/>
	<path fill="#545454" d="M28.028,12.609v1.311c1.364-1.012,2.56-1.518,3.586-1.518c0.904,0,1.786,0.367,2.644,1.104
		c0.46,0.385,0.836,0.961,1.127,1.736c0.291,0.773,0.437,1.682,0.437,2.725c0,1.746-0.409,3.104-1.229,4.068
		s-1.928,1.449-3.322,1.449c-0.857,0-1.59-0.174-2.195-0.518c-0.605-0.346-0.954-0.855-1.046-1.529V29h-2.299V12.609H28.028z
		 M33.522,17.668c0-1.35-0.272-2.473-0.815-3.369c-0.545-0.896-1.162-1.344-1.852-1.344s-1.632,0.498-2.827,1.494v6.299
		c0.046-0.383,0.177-0.721,0.392-1.012c0.367-0.506,0.72-0.76,1.057-0.76c0.123,0,0.184,0.078,0.184,0.23
		c0,0.078-0.138,0.207-0.413,0.391c-0.521,0.369-0.782,0.84-0.782,1.414s0.271,1.055,0.816,1.438
		c0.544,0.383,1.115,0.574,1.713,0.574C32.679,23.023,33.522,21.238,33.522,17.668z"/>
	<path fill="#545454" d="M38.384,10.459c-0.238-0.236-0.356-0.523-0.356-0.861c0-0.336,0.118-0.623,0.356-0.861
		c0.237-0.238,0.525-0.357,0.862-0.357s0.624,0.119,0.862,0.357c0.237,0.238,0.355,0.525,0.355,0.861
		c0,0.338-0.118,0.625-0.355,0.861c-0.238,0.238-0.525,0.357-0.862,0.357S38.622,10.697,38.384,10.459z M40.396,12.633v10.645
		h-2.299V12.633H40.396z"/>
	<path fill="#545454" d="M50.878,13.482c0,0.17-0.065,0.301-0.195,0.393c-0.131,0.092-0.295,0.137-0.494,0.137
		s-0.361-0.057-0.483-0.172s-0.203-0.242-0.241-0.379c-0.039-0.139-0.134-0.266-0.287-0.381s-0.368-0.172-0.645-0.172
		c-0.674,0-1.302,0.49-1.885,1.471c-0.582,0.982-0.92,2.092-1.012,3.334v5.541h-2.298V12.609h2.298v2.713
		c0.369-0.889,0.848-1.629,1.438-2.219s1.184-0.885,1.781-0.885s1.084,0.104,1.461,0.311C50.691,12.736,50.878,13.055,50.878,13.482
		z"/>
	<path fill="#545454" d="M55.337,23.484c-1.104,0-2.08-0.311-2.93-0.932c-0.852-0.621-1.277-1.482-1.277-2.586
		c0-0.645,0.158-1.203,0.472-1.68c0.313-0.475,0.717-0.826,1.207-1.057c0.903-0.461,1.785-0.689,2.644-0.689s1.832,0.229,2.92,0.689
		c-0.016-1.777-0.234-2.963-0.655-3.551c-0.421-0.592-1.069-0.887-1.942-0.887c-0.874,0-1.629,0.162-2.265,0.482
		c-0.636,0.322-0.954,0.752-0.954,1.287c0,0.186-0.08,0.277-0.241,0.277s-0.241-0.084-0.241-0.254c0-0.643,0.355-1.176,1.068-1.598
		s1.767-0.633,3.162-0.633c2.911,0,4.367,1.719,4.367,5.15v5.748h-2.299v-1.816c-0.107,0.598-0.452,1.088-1.035,1.471
		C56.755,23.291,56.089,23.484,55.337,23.484z M57.361,19.184c0.552,0.385,0.889,0.914,1.012,1.586v-3.125
		c-1.104-0.445-2.004-0.668-2.701-0.668s-1.246,0.293-1.645,0.875s-0.598,1.295-0.598,2.139c0,0.842,0.165,1.559,0.495,2.148
		c0.329,0.59,0.827,0.885,1.493,0.885c0.668,0,1.254-0.172,1.76-0.518s0.758-0.754,0.758-1.229c0-0.828-0.275-1.395-0.827-1.701
		c-0.229-0.139-0.345-0.27-0.345-0.393c0-0.121,0.054-0.184,0.161-0.184C57.031,19,57.177,19.063,57.361,19.184z"/>
	<path fill="#545454" d="M73.683,20.518c0.137,0,0.207,0.092,0.207,0.275c-0.016,0.676-0.288,1.273-0.816,1.793
		c-0.529,0.521-1.089,0.783-1.678,0.783c-0.591,0-1.123-0.162-1.599-0.484c-0.475-0.322-0.858-0.766-1.149-1.332l-1.425-2.783
		c-1.119,0.736-1.985,1.457-2.599,2.162c-0.612,0.705-0.935,1.479-0.965,2.322H63.2c0-1.012,0.306-1.863,0.92-2.553
		c0.612-0.689,1.578-1.471,2.896-2.346l-1.311-2.596c-0.797-1.564-1.456-2.346-1.978-2.346c-0.566,0-0.973,0.482-1.219,1.449
		c-0.076,0.336-0.129,0.514-0.16,0.527c-0.138,0-0.207-0.088-0.207-0.264s0.072-0.449,0.219-0.816
		c0.145-0.367,0.433-0.754,0.862-1.16c0.429-0.406,0.919-0.609,1.471-0.609s1.084,0.195,1.599,0.586
		c0.513,0.391,0.938,0.932,1.275,1.621l1.287,2.551c1.119-0.721,1.965-1.451,2.541-2.195c0.574-0.744,0.885-1.574,0.931-2.494h0.46
		c0,1.074-0.285,1.973-0.852,2.701s-1.518,1.529-2.85,2.402l2,3.955c0.291,0.551,0.697,0.826,1.219,0.826
		c0.336,0,0.608-0.156,0.815-0.471s0.349-0.639,0.425-0.977L73.683,20.518z"/>
</g>
</svg>
