<?xml version="1.0" encoding="utf-8"?>
<!-- Generator: Adobe Illustrator 16.0.0, SVG Export Plug-In . SVG Version: 6.00 Build 0)  -->
<!DOCTYPE svg PUBLIC "-//W3C//DTD SVG 1.1//EN" "http://www.w3.org/Graphics/SVG/1.1/DTD/svg11.dtd">
<svg version="1.1" id="Layer_1" xmlns="http://www.w3.org/2000/svg" xmlns:xlink="http://www.w3.org/1999/xlink" x="0px" y="0px"
	 width="46px" height="46px" viewBox="0 0 46 46" enable-background="new 0 0 46 46" xml:space="preserve">
<polygon fill="#52BF8A" points="17.998,34.414 10.584,27 11.999,25.586 17.998,31.586 33.998,15.586 35.412,17 "/>
<path fill="#52BF8A" d="M23,46C10.317,46,0,35.684,0,23C0,10.318,10.317,0,23,0c12.684,0,23,10.318,23,23
	C45.998,35.684,35.684,46,23,46z M23,2.001C11.421,2.001,2,11.421,2,23s9.421,20.998,21,20.998c11.58,0,20.998-9.419,20.998-20.998
	C43.996,11.421,34.578,2.001,23,2.001z"/>
</svg>
