<svg version="1.1" id="图层_1" x="0px" y="0px" width="200px" height="200px" viewBox="0 0 200 200" enable-background="new 0 0 200 200" xml:space="preserve" xmlns="http://www.w3.org/2000/svg" xmlns:xlink="http://www.w3.org/1999/xlink" xmlns:xml="http://www.w3.org/XML/1998/namespace">
  <g>
    <path fill="#404040" d="M100,10c49.626,0,90,40.374,90,90s-40.374,90-90,90s-90-40.374-90-90S50.374,10,100,10 M100,0
		C44.771,0,0,44.771,0,100s44.771,100,100,100s100-44.771,100-100S155.229,0,100,0L100,0z" class="color c1"/>
    <g>
      <path fill="#404040" d="M58.874,153.687V46.313h34.791c13.184,0,21.776,0.538,25.781,1.611c6.152,1.611,11.303,5.116,15.453,10.51
			c4.15,5.396,6.227,12.367,6.227,20.911c0,6.592-1.197,12.134-3.59,16.626c-2.393,4.493-5.432,8.02-9.118,10.583
			c-3.688,2.563-7.435,4.261-11.243,5.09c-5.176,1.025-12.67,1.538-22.484,1.538H80.554v40.503H58.874z M80.554,64.478v30.469
			h11.865c8.545,0,14.258-0.561,17.139-1.685c2.881-1.123,5.139-2.88,6.775-5.273c1.635-2.392,2.453-5.175,2.453-8.35
			c0-3.906-1.147-7.128-3.441-9.668c-2.297-2.538-5.201-4.125-8.717-4.761c-2.588-0.487-7.789-0.732-15.6-0.732H80.554z" class="color c1"/>
    </g>
  </g>
</svg>