<svg version="1.1" id="图层_1" x="0px" y="0px" width="200px" height="200px" viewBox="0 0 200 200" enable-background="new 0 0 200 200" xml:space="preserve" xmlns="http://www.w3.org/2000/svg" xmlns:xlink="http://www.w3.org/1999/xlink" xmlns:xml="http://www.w3.org/XML/1998/namespace">
  <g>
    <path fill="#404040" d="M100,10c49.626,0,90,40.374,90,90s-40.374,90-90,90s-90-40.374-90-90S50.374,10,100,10 M100,0
		C44.771,0,0,44.771,0,100s44.771,100,100,100s100-44.771,100-100S155.229,0,100,0L100,0z" class="color c1"/>
    <g>
      <path fill="#404040" d="M51.733,153.687V46.313h45.629c11.475,0,19.813,0.965,25.013,2.893c5.2,1.93,9.362,5.359,12.487,10.291
			c3.125,4.933,4.688,10.572,4.688,16.919c0,8.057-2.369,14.71-7.104,19.958c-4.737,5.25-11.818,8.558-21.24,9.924
			c4.688,2.735,8.557,5.738,11.608,9.009c3.051,3.272,7.165,9.082,12.341,17.432l13.111,20.947h-25.928l-15.674-23.364
			c-5.566-8.35-9.375-13.61-11.426-15.784c-2.051-2.172-4.225-3.662-6.52-4.468s-5.932-1.208-10.912-1.208h-4.395v44.824H51.733z
			 M73.413,91.724h16.039c10.4,0,16.895-0.439,19.482-1.318s4.615-2.392,6.08-4.541c1.465-2.148,2.197-4.834,2.197-8.057
			c0-3.613-0.965-6.53-2.894-8.752c-1.93-2.221-4.651-3.625-8.167-4.211c-1.758-0.244-7.031-0.366-15.82-0.366H73.413V91.724z" class="color c1"/>
    </g>
  </g>
</svg>