<?xml version="1.0" encoding="utf-8"?>
<!-- Generator: Adobe Illustrator 16.0.0, SVG Export Plug-In . SVG Version: 6.00 Build 0)  -->
<!DOCTYPE svg PUBLIC "-//W3C//DTD SVG 1.1//EN" "http://www.w3.org/Graphics/SVG/1.1/DTD/svg11.dtd">
<svg version="1.1" id="图层_1" xmlns="http://www.w3.org/2000/svg" xmlns:xlink="http://www.w3.org/1999/xlink" x="0px" y="0px"
	 width="258px" height="36px" viewBox="0 0 258 36" enable-background="new 0 0 258 36" xml:space="preserve">
<g>
	<path fill="#545454" d="M24.349,11.783c-1.244-0.197-2.277-0.297-3.098-0.297h-1.273c-0.057,0.313-0.084,0.609-0.084,0.891v10.314
		c0,1.102,0.098,2.135,0.297,3.098h-2.717c0.197-0.963,0.297-1.996,0.297-3.098V12.377c0-0.281-0.027-0.578-0.084-0.891h-1.273
		c-0.821,0-1.854,0.1-3.098,0.297v-1.57h11.033V11.783z"/>
	<path fill="#545454" d="M35.638,22.139v1.994C34.59,25.379,33.162,26,31.351,26s-3.219-0.607-4.223-1.824s-1.506-2.568-1.506-4.053
		c0-1.486,0.48-2.836,1.442-4.053c1.019-1.217,2.391-1.824,4.116-1.824s3.098,0.678,4.117,2.035c0.65,0.99,0.977,2.264,0.977,3.82
		l-0.043,0.637h-8.361c0.086,1.217,0.396,2.121,0.935,2.717c0.65,0.82,1.584,1.229,2.8,1.229c1.642,0,2.943-0.848,3.905-2.545
		H35.638z M34.152,19.465c0-1.188-0.227-2.08-0.679-2.674c-0.651-0.848-1.45-1.273-2.397-1.273c-0.948,0-1.705,0.426-2.271,1.273
		c-0.538,0.623-0.849,1.514-0.935,2.674H34.152z"/>
	<path fill="#545454" d="M39.117,25.789c0.17-1.02,0.255-2.051,0.255-3.098v-4.84c0-1.018-0.085-2.051-0.255-3.098l2.674-0.508
		c-0.084,0.281-0.156,0.734-0.212,1.357c0.735-0.906,1.839-1.357,3.31-1.357s2.646,0.537,3.523,1.611
		c0.65,0.793,0.976,1.854,0.976,3.184v3.65c0,1.102,0.099,2.135,0.297,3.098h-2.673c0.197-1.02,0.297-2.051,0.297-3.098v-3.65
		c0-1.047-0.156-1.783-0.467-2.207c-0.51-0.877-1.33-1.316-2.462-1.316s-1.952,0.439-2.462,1.316
		c-0.311,0.424-0.467,1.16-0.467,2.207v3.65c0,1.102,0.113,2.135,0.34,3.098H39.117z"/>
	<path fill="#545454" d="M63.349,22.691c0,0.877,0.1,1.908,0.297,3.098h-2.673c0.056-0.17,0.091-0.354,0.106-0.553
		c0.014-0.197,0.035-0.396,0.063-0.594C60.351,25.549,59.304,26,58.002,26c-1.669,0-3.007-0.607-4.011-1.824
		s-1.506-2.568-1.506-4.053c0-1.486,0.48-2.836,1.442-4.053c1.019-1.217,2.306-1.824,3.862-1.824c1.555,0,2.658,0.424,3.31,1.271
		c0-0.254-0.042-0.508-0.127-0.764l2.673-0.508c-0.197,1.188-0.297,2.221-0.297,3.098V22.691z M60.378,16.791
		c-0.622-0.848-1.422-1.273-2.397-1.273s-1.747,0.426-2.313,1.273c-0.622,0.736-0.934,1.84-0.934,3.311s0.312,2.59,0.934,3.354
		c0.566,0.82,1.338,1.229,2.313,1.229s1.768-0.395,2.376-1.188c0.609-0.791,0.913-1.924,0.913-3.395S60.973,17.527,60.378,16.791z"
		/>
	<path fill="#545454" d="M67.21,25.789c0.17-1.02,0.255-2.051,0.255-3.098v-9.084c0-0.988-0.085-2.021-0.255-3.098L69.884,10
		c-0.227,0.934-0.34,1.969-0.34,3.1v9.592c0,1.102,0.113,2.135,0.34,3.098H67.21z"/>
	<path fill="#545454" d="M74.722,12.76c-0.367,0-0.68-0.135-0.934-0.402c-0.254-0.27-0.382-0.588-0.382-0.955
		s0.112-0.707,0.339-1.02C74.057,10.129,74.382,10,74.722,10s0.65,0.129,0.934,0.383c0.283,0.256,0.425,0.572,0.425,0.955
		c0,0.381-0.136,0.715-0.403,0.998C75.408,12.619,75.089,12.76,74.722,12.76z M73.407,25.789c0.169-1.02,0.255-2.051,0.255-3.098
		v-4.84c0-1.018-0.086-2.051-0.255-3.098l2.674-0.508c-0.228,0.932-0.34,1.965-0.34,3.098v5.348c0,1.102,0.112,2.135,0.34,3.098
		H73.407z"/>
	<path fill="#545454" d="M92.207,19.465l-0.764,0.043h-1.23v3.184c0,1.102,0.112,2.135,0.34,3.098h-2.674
		c0.169-1.02,0.254-2.051,0.254-3.098V13.27c0-0.99-0.085-2.01-0.254-3.057h3.564c1.697,0,3.041,0.439,4.031,1.316
		c1.047,0.877,1.57,1.988,1.57,3.332c0,1.342-0.523,2.453-1.57,3.33c-0.198,0.143-0.396,0.283-0.594,0.424
		c-0.199,0.143-0.41,0.256-0.637,0.34l2.928,4.414c0.595,0.877,1.245,1.684,1.953,2.42h-3.099c-0.538-1.246-1.033-2.164-1.485-2.76
		L92.207,19.465z M90.339,11.486c-0.085,0.934-0.127,1.527-0.127,1.783v4.922h1.23c1.018,0,1.831-0.303,2.439-0.912
		c0.609-0.607,0.913-1.408,0.913-2.398s-0.283-1.795-0.849-2.418c-0.707-0.65-1.543-0.977-2.504-0.977H90.339z"/>
	<path fill="#545454" d="M111.049,22.691c0,0.877,0.1,1.908,0.297,3.098h-2.672c0.055-0.17,0.09-0.354,0.105-0.553
		c0.014-0.197,0.035-0.396,0.063-0.594c-0.791,0.906-1.838,1.357-3.139,1.357c-1.67,0-3.008-0.607-4.012-1.824
		s-1.506-2.568-1.506-4.053c0-1.486,0.48-2.836,1.442-4.053c1.019-1.217,2.306-1.824,3.863-1.824c1.555,0,2.658,0.424,3.311,1.271
		c0-0.254-0.043-0.508-0.127-0.764l2.672-0.508c-0.197,1.188-0.297,2.221-0.297,3.098V22.691z M108.078,16.791
		c-0.623-0.848-1.422-1.273-2.396-1.273c-0.977,0-1.748,0.426-2.314,1.273c-0.622,0.736-0.933,1.84-0.933,3.311
		s0.312,2.59,0.933,3.354c0.566,0.82,1.338,1.229,2.314,1.229c0.975,0,1.768-0.395,2.375-1.188c0.609-0.791,0.914-1.924,0.914-3.395
		S108.674,17.527,108.078,16.791z"/>
	<path fill="#545454" d="M127.346,15.518c-1.756,0-2.631,1.176-2.631,3.523v3.65c0,1.102,0.111,2.135,0.338,3.098h-2.715
		c0.197-1.02,0.297-2.051,0.297-3.098v-3.65c0-1.076-0.156-1.826-0.467-2.25c-0.482-0.848-1.225-1.273-2.229-1.273
		s-1.746,0.41-2.229,1.232c-0.311,0.48-0.467,1.244-0.467,2.291v3.65c0,1.102,0.113,2.135,0.34,3.098h-2.674
		c0.17-1.02,0.256-2.051,0.256-3.098v-4.84c0-1.018-0.086-2.051-0.256-3.098l2.674-0.508c-0.084,0.281-0.156,0.734-0.211,1.357
		c0.82-0.906,1.895-1.357,3.225-1.357s2.404,0.564,3.225,1.697c0.934-1.133,2.178-1.697,3.734-1.697
		c1.555,0,2.771,0.537,3.648,1.611c0.623,0.85,0.934,1.91,0.934,3.184v3.65c0,1.102,0.1,2.135,0.298,3.098h-2.675
		c0.227-0.963,0.34-1.996,0.34-3.098v-3.65c0-0.99-0.154-1.74-0.467-2.25C129.098,15.943,128.334,15.518,127.346,15.518z"/>
	<path fill="#545454" d="M146.146,22.691c0,0.877,0.098,1.908,0.297,3.098h-2.674c0.057-0.17,0.092-0.354,0.105-0.553
		c0.014-0.197,0.035-0.396,0.064-0.594c-0.793,0.906-1.84,1.357-3.141,1.357c-1.67,0-3.006-0.607-4.012-1.824
		c-1.004-1.217-1.506-2.568-1.506-4.053c0-1.486,0.48-2.836,1.443-4.053c1.018-1.217,2.305-1.824,3.861-1.824
		s2.66,0.424,3.311,1.271c0-0.254-0.043-0.508-0.127-0.764l2.674-0.508c-0.199,1.188-0.297,2.221-0.297,3.098V22.691z
		 M143.175,16.791c-0.623-0.848-1.422-1.273-2.398-1.273s-1.748,0.426-2.313,1.273c-0.623,0.736-0.934,1.84-0.934,3.311
		s0.311,2.59,0.934,3.354c0.564,0.82,1.336,1.229,2.313,1.229s1.768-0.395,2.377-1.188c0.607-0.791,0.912-1.924,0.912-3.395
		S143.769,17.527,143.175,16.791z"/>
	<path fill="#545454" d="M150.007,25.789c0.168-1.02,0.254-2.051,0.254-3.098v-9.084c0-0.988-0.086-2.021-0.254-3.098l2.674-0.51
		c-0.229,0.934-0.34,1.969-0.34,3.1v6.152l2.545-2.377c0.793-0.705,1.457-1.527,1.996-2.461h2.715
		c-0.848,0.68-1.641,1.359-2.377,2.037l-3.141,2.93l4.797,4.498c0.934,0.82,1.754,1.457,2.461,1.91h-3.734
		c-0.48-0.793-1.174-1.586-2.08-2.377l-2.801-2.59l-0.381,0.424v1.445c0,1.102,0.111,2.135,0.34,3.098H150.007z"/>
	<path fill="#545454" d="M163.12,25.789c0.168-1.02,0.254-2.051,0.254-3.098v-4.84c0-1.018-0.086-2.051-0.254-3.098l2.674-0.508
		c-0.086,0.281-0.156,0.734-0.213,1.357c0.734-0.906,1.654-1.357,2.758-1.357c0.623,0,1.217,0.141,1.783,0.424v2.334h-0.084
		c-0.568-0.99-1.268-1.486-2.102-1.486c-0.836,0-1.508,0.439-2.016,1.316c-0.313,0.424-0.467,1.16-0.467,2.207v3.65
		c0,1.102,0.111,2.135,0.34,3.098H163.12z"/>
	<path fill="#545454" d="M173.433,12.76c-0.369,0-0.68-0.135-0.936-0.402c-0.254-0.27-0.381-0.588-0.381-0.955
		s0.113-0.707,0.34-1.02c0.311-0.254,0.637-0.383,0.977-0.383c0.338,0,0.65,0.129,0.934,0.383c0.281,0.256,0.424,0.572,0.424,0.955
		c0,0.381-0.135,0.715-0.402,0.998C174.118,12.619,173.8,12.76,173.433,12.76z M172.116,25.789c0.17-1.02,0.254-2.051,0.254-3.098
		v-4.84c0-1.018-0.084-2.051-0.254-3.098l2.674-0.508c-0.227,0.932-0.34,1.965-0.34,3.098v5.348c0,1.102,0.113,2.135,0.34,3.098
		H172.116z"/>
	<path fill="#545454" d="M183.276,16.961c-0.424-0.961-1.061-1.443-1.91-1.443c-0.367,0-0.707,0.092-1.018,0.277
		c-0.313,0.184-0.467,0.508-0.467,0.975s0.354,0.912,1.061,1.338l1.91,1.145c1.301,0.766,1.953,1.748,1.953,2.949
		c0,1.203-0.412,2.137-1.232,2.803c-0.82,0.664-1.725,0.996-2.715,0.996c-1.189-0.057-1.926-0.17-2.207-0.34
		c-0.623-0.395-1.061-0.721-1.316-0.977v-2.715h0.086c0.65,1.811,1.781,2.715,3.395,2.715c0.623,0,1.131-0.197,1.527-0.594
		c0.396-0.395,0.594-0.912,0.594-1.549c0-0.635-0.354-1.166-1.061-1.59l-1.654-0.977c-1.416-0.85-2.123-1.867-2.123-3.057
		c0-0.82,0.34-1.512,1.02-2.078c0.51-0.396,1.188-0.594,2.037-0.594c0.848,0,1.584,0.197,2.207,0.594v2.121H183.276z"/>
	<path fill="#545454" d="M187.394,25.789c0.17-1.02,0.254-2.051,0.254-3.098v-9.084c0-0.988-0.084-2.021-0.254-3.098l2.674-0.51
		c-0.229,0.934-0.34,1.969-0.34,3.1v2.588c0.791-0.961,1.93-1.441,3.416-1.441c1.484,0,2.666,0.537,3.543,1.611
		c0.65,0.793,0.977,1.854,0.977,3.184v3.65c0,1.102,0.1,2.135,0.297,3.098h-2.674c0.197-1.02,0.297-2.051,0.297-3.098v-3.65
		c0-1.047-0.156-1.783-0.467-2.207c-0.508-0.877-1.33-1.316-2.461-1.316s-1.951,0.439-2.461,1.316
		c-0.313,0.424-0.467,1.16-0.467,2.207v3.65c0,1.102,0.111,2.135,0.34,3.098H187.394z"/>
	<path fill="#545454" d="M201.483,25.789c0.168-1.02,0.254-2.051,0.254-3.098v-4.84c0-1.018-0.086-2.051-0.254-3.098l2.674-0.508
		c-0.086,0.281-0.156,0.734-0.213,1.357c0.734-0.906,1.838-1.357,3.311-1.357c1.471,0,2.645,0.537,3.521,1.611
		c0.65,0.793,0.977,1.854,0.977,3.184v3.65c0,1.102,0.098,2.135,0.297,3.098h-2.674c0.197-1.02,0.297-2.051,0.297-3.098v-3.65
		c0-1.047-0.156-1.783-0.467-2.207c-0.51-0.877-1.33-1.316-2.461-1.316c-1.133,0-1.953,0.439-2.461,1.316
		c-0.313,0.424-0.467,1.16-0.467,2.207v3.65c0,1.102,0.111,2.135,0.34,3.098H201.483z"/>
	<path fill="#545454" d="M225.714,22.691c0,0.877,0.1,1.908,0.297,3.098h-2.672c0.055-0.17,0.09-0.354,0.105-0.553
		c0.014-0.197,0.035-0.396,0.063-0.594c-0.791,0.906-1.838,1.357-3.139,1.357c-1.67,0-3.008-0.607-4.012-1.824
		s-1.506-2.568-1.506-4.053c0-1.486,0.48-2.836,1.443-4.053c1.018-1.217,2.305-1.824,3.861-1.824c1.555,0,2.658,0.424,3.311,1.271
		c0-0.254-0.043-0.508-0.127-0.764l2.672-0.508c-0.197,1.188-0.297,2.221-0.297,3.098V22.691z M222.743,16.791
		c-0.621-0.848-1.422-1.273-2.396-1.273c-0.977,0-1.748,0.426-2.314,1.273c-0.621,0.736-0.934,1.84-0.934,3.311
		s0.313,2.59,0.934,3.354c0.566,0.82,1.338,1.229,2.314,1.229c0.975,0,1.768-0.395,2.375-1.188c0.609-0.791,0.914-1.924,0.914-3.395
		S223.339,17.527,222.743,16.791z"/>
</g>
</svg>
