<?xml version="1.0" encoding="utf-8"?>
<!-- Generator: Adobe Illustrator 16.0.0, SVG Export Plug-In . SVG Version: 6.00 Build 0)  -->
<!DOCTYPE svg PUBLIC "-//W3C//DTD SVG 1.1//EN" "http://www.w3.org/Graphics/SVG/1.1/DTD/svg11.dtd">
<svg version="1.1" id="图层_1" xmlns="http://www.w3.org/2000/svg" xmlns:xlink="http://www.w3.org/1999/xlink" x="0px" y="0px"
	 width="258px" height="36px" viewBox="0 0 258 36" enable-background="new 0 0 258 36" xml:space="preserve">
<g>
	<path fill="#545454" d="M25.141,23.77c-0.718-0.348-1.198-0.676-1.44-0.98c-0.256-0.336-0.398-0.938-0.426-1.805
		c0-0.1-0.034-0.158-0.102-0.18c-0.067-0.021-0.133,0.004-0.197,0.074c-0.299,0.318-0.6,0.639-0.901,0.955
		c-0.303,0.316-0.603,0.635-0.902,0.955c-1.394,1.449-2.855,1.361-4.385-0.268c-0.533-0.561-1.06-0.934-1.579-1.115
		c-0.52-0.18-1.024-0.055-1.515,0.379c-0.128,0.1-0.237,0.1-0.325,0c-0.089-0.1-0.066-0.209,0.069-0.33l2.699-2.273l0.01-0.01
		c0.903-0.867,1.236-1.623,0.998-2.268c-0.239-0.643-0.667-1.285-1.286-1.926c-0.526-0.533-0.971-1.182-1.333-1.945
		c-0.363-0.766-0.259-1.625,0.31-2.578c0.448-0.746,1.042-1.285,1.782-1.615s1.387-0.486,1.941-0.465
		c0.996,0.043,1.622,0.449,1.878,1.223c0.256,0.771,0.042,1.416-0.64,1.936c-0.157,0.129-0.29,0.127-0.4-0.006
		c-0.11-0.131-0.08-0.268,0.091-0.41c0.576-0.447,0.716-0.922,0.421-1.424c-0.295-0.502-0.741-0.771-1.339-0.805
		c-0.434-0.023-0.834,0.123-1.2,0.436c-0.366,0.314-0.557,0.691-0.571,1.131c-0.028,0.826,0.126,1.395,0.464,1.707
		s0.621,0.58,0.849,0.801c1.166,1.203,1.673,2.246,1.52,3.137c-0.153,0.889-1.072,1.91-2.758,3.061
		c-0.078,0.051-0.114,0.109-0.106,0.176c0.007,0.068,0.064,0.113,0.17,0.135c0.441,0.1,0.78,0.283,1.019,0.549
		c0.238,0.268,0.492,0.523,0.763,0.773c0.917,0.854,1.729,1.131,2.433,0.832s1.39-0.832,2.059-1.6
		c0.029-0.037,0.043-0.074,0.043-0.117l-0.064-7.703c0-0.525-0.199-0.867-0.598-1.023c-0.327-0.15-0.32-0.32,0.021-0.512
		c0.711-0.342,1.422-0.691,2.134-1.047c0.711-0.355,1.426-0.711,2.144-1.066c0.128-0.07,0.24-0.059,0.336,0.037
		c0.097,0.096,0.069,0.211-0.08,0.348c-0.555,0.398-0.927,0.934-1.115,1.605s-0.279,1.457-0.272,2.352l0.075,7.512
		c0.007,1.137,0.551,1.51,1.632,1.119c0.142-0.057,0.252-0.037,0.331,0.059c0.079,0.096,0.064,0.193-0.042,0.293l-2.038,1.836
		c-0.085,0.07-0.182,0.109-0.288,0.117C25.322,23.842,25.227,23.82,25.141,23.77z"/>
	<path fill="#545454" d="M32.673,19.77c-0.007,1.145,0.207,1.807,0.64,1.984c0.05,0.035,0.075,0.084,0.075,0.143
		c0,0.063-0.025,0.105-0.075,0.135c-0.64,0.484-1.159,1.127-1.558,1.93c-0.042,0.059-0.096,0.086-0.16,0.086
		c-0.064,0-0.118-0.027-0.16-0.086c-0.398-0.803-0.939-1.443-1.622-1.92c-0.043-0.027-0.064-0.074-0.064-0.139
		s0.025-0.113,0.075-0.148c0.462-0.178,0.693-0.84,0.693-1.984v-3.541c0-0.727-0.135-1.172-0.406-1.334
		c-0.313-0.207-0.569-0.133-0.768,0.225c-0.079,0.146-0.167,0.184-0.267,0.105s-0.096-0.203,0.011-0.373
		c0.207-0.328,0.403-0.662,0.592-1.004s0.383-0.682,0.582-1.023c0.114-0.207,0.274-0.25,0.48-0.129l0.011,0.012
		c1.045,0.525,1.671,1.17,1.877,1.93c0.014,0.08,0.05,0.125,0.106,0.141c0.057,0.014,0.114,0,0.171-0.043
		c0.39-0.328,0.791-0.672,1.203-1.035c0.411-0.363,0.692-0.697,0.84-1.004c0.079-0.184,0.207-0.18,0.384,0.012
		c0.426,0.447,0.79,0.805,1.091,1.066c0.302,0.264,0.815,0.459,1.54,0.586c0.128,0.029,0.194,0.084,0.198,0.166
		c0.003,0.082-0.041,0.137-0.134,0.166c-0.185,0.07-0.348,0.193-0.491,0.367c-0.142,0.176-0.213,0.465-0.213,0.871v4.512
		c0,0.725,0.135,1.17,0.406,1.334c0.313,0.191,0.565,0.113,0.757-0.236c0.078-0.133,0.168-0.164,0.272-0.09
		c0.103,0.074,0.101,0.197-0.006,0.369c-0.213,0.332-0.415,0.67-0.603,1.008s-0.378,0.674-0.57,1.008
		c-0.128,0.199-0.288,0.246-0.479,0.139c-1.288-0.627-1.932-1.555-1.932-2.785l0.011-5.461c0-0.215-0.053-0.352-0.16-0.418h-0.011
		v-0.02l-0.907-0.748c-0.078-0.057-0.16-0.061-0.245-0.01l-1.11,0.863c-0.05,0.037-0.075,0.08-0.075,0.129V19.77z"/>
	<path fill="#545454" d="M41.187,21.113l-0.075-5.848c0-0.133-0.021-0.244-0.064-0.33c-0.171-0.277-0.317-0.344-0.438-0.201
		l-0.427,0.438c-0.114,0.127-0.223,0.141-0.326,0.041s-0.087-0.236,0.048-0.416c0.313-0.391,0.594-0.781,0.843-1.172
		c0.249-0.393,0.505-0.779,0.768-1.164c0.114-0.135,0.246-0.131,0.395,0.012c0.299,0.361,0.59,0.68,0.875,0.953
		c0.285,0.275,0.69,0.564,1.216,0.871c0.149,0.057,0.215,0.125,0.197,0.201c-0.018,0.08-0.066,0.123-0.144,0.129
		c-0.185,0.07-0.349,0.195-0.491,0.369s-0.213,0.463-0.213,0.867v4.514c0,0.727,0.135,1.17,0.405,1.334
		c0.313,0.184,0.569,0.107,0.768-0.234c0.071-0.137,0.158-0.166,0.261-0.092c0.103,0.076,0.102,0.197-0.005,0.369
		c-0.213,0.334-0.413,0.67-0.598,1.008s-0.374,0.674-0.565,1.008c-0.135,0.199-0.302,0.242-0.501,0.129
		c-0.64-0.307-1.122-0.68-1.446-1.121S41.187,21.781,41.187,21.113z M42.733,8.449c0.789,0,1.148,0.381,1.077,1.143
		c-0.042,0.383-0.283,0.77-0.72,1.158c-0.438,0.387-0.784,0.576-1.041,0.57c-0.256,0-0.452-0.203-0.586-0.609
		c-0.135-0.404-0.188-0.779-0.16-1.119c0.021-0.328,0.179-0.6,0.475-0.816C42.073,8.559,42.392,8.449,42.733,8.449z"/>
	<path fill="#545454" d="M48.889,12.834h1.846c0.114,0,0.171,0.057,0.171,0.17v0.664c0,0.113-0.057,0.17-0.171,0.17h-1.291
		c-0.05,0-0.095,0.02-0.133,0.063c-0.04,0.043-0.052,0.086-0.038,0.129c0.042,0.398,0.032,0.953-0.032,1.664l-1.078,11.223
		c-0.029,0.242-0.1,0.365-0.213,0.369s-0.185-0.127-0.213-0.389c-0.178-2.176-0.359-4.35-0.544-6.52
		c-0.185-2.17-0.38-4.342-0.586-6.52h-1.238c-0.106,0-0.161-0.051-0.166-0.154c-0.003-0.102,0.038-0.16,0.123-0.176
		c0.462-0.078,0.846-0.314,1.152-0.713c0.306-0.398,0.437-0.92,0.395-1.559c-0.05-1.01,0.082-1.857,0.395-2.545
		c0.313-0.686,0.938-0.875,1.877-0.57c0.519,0.178,0.994,0.332,1.424,0.463c0.43,0.133,0.734,0.061,0.912-0.217
		c0.085-0.15,0.164-0.215,0.234-0.193c0.071,0.021,0.061,0.16-0.032,0.416c-0.256,0.811-0.589,1.357-0.998,1.639
		c-0.409,0.281-1.044,0.215-1.904-0.197c-0.832-0.385-1.321-0.193-1.467,0.57c-0.146,0.764,0.009,1.264,0.464,1.498
		c0.441,0.242,0.729,0.441,0.864,0.598C48.722,12.795,48.804,12.834,48.889,12.834z"/>
	<path fill="#545454" d="M54.917,15.619l-0.011,5.174c0,0.229,0.057,0.373,0.171,0.438l0.768,0.449
		c0.164,0.1,0.413-0.074,0.747-0.523c0.071-0.092,0.16-0.113,0.267-0.059c0.106,0.053,0.106,0.143,0,0.271
		c-0.747,0.832-1.319,1.65-1.718,2.455c-0.121,0.162-0.253,0.162-0.396,0c-0.4-0.465-0.774-0.816-1.121-1.057
		c-0.346-0.242-0.855-0.441-1.524-0.598c-0.128-0.035-0.192-0.094-0.192-0.172s0.046-0.135,0.139-0.17
		c0.477-0.078,0.711-0.488,0.704-1.227v-4.514c0-0.725-0.135-1.168-0.405-1.334c-0.313-0.205-0.569-0.131-0.769,0.225
		c-0.078,0.15-0.167,0.186-0.267,0.107s-0.096-0.203,0.011-0.375c0.206-0.326,0.403-0.66,0.592-1
		c0.188-0.342,0.382-0.684,0.581-1.025c0.121-0.213,0.282-0.252,0.481-0.117c1.05,0.504,1.679,1.145,1.887,1.92
		c0.021,0.07,0.064,0.115,0.128,0.133c0.064,0.02,0.121-0.004,0.171-0.068l1.643-1.889c0.043-0.043,0.093-0.063,0.149-0.059
		c0.057,0.004,0.104,0.033,0.139,0.09l1.12,2.145c0.029,0.064,0.021,0.125-0.021,0.182l-1.28,1.537
		c-0.05,0.049-0.105,0.07-0.166,0.063c-0.061-0.006-0.101-0.037-0.123-0.094l-0.864-1.602c-0.028-0.043-0.073-0.07-0.133-0.08
		c-0.061-0.012-0.116,0.008-0.166,0.059l-0.501,0.607C54.931,15.541,54.917,15.576,54.917,15.619z"/>
	<path fill="#545454" d="M64.348,22.117c-0.363,0.275-0.761,0.58-1.195,0.91c-0.434,0.332-0.835,0.637-1.205,0.914
		c-0.128,0.098-0.229,0.141-0.305,0.127c-0.074-0.014-0.104-0.078-0.09-0.191c0-0.15-0.22-0.434-0.662-0.854
		c-1.159-1.088-1.717-2.504-1.675-4.246c0.043-1.494,0.736-2.758,2.081-3.787c0.413-0.313,0.798-0.645,1.157-0.992
		c0.359-0.35,0.678-0.771,0.955-1.27c0.114-0.221,0.27-0.229,0.469-0.021c1.078,1.223,2.156,1.945,3.232,2.166
		c0.342,0.063,0.377,0.199,0.107,0.404c-0.334,0.242-0.516,0.541-0.544,0.896v0.021l0.032,4.875c0,0.326,0.119,0.551,0.357,0.672
		s0.496,0.029,0.773-0.277c0.106-0.121,0.208-0.15,0.304-0.09c0.096,0.061,0.098,0.168,0.005,0.324
		c-0.256,0.385-0.503,0.762-0.742,1.131c-0.238,0.371-0.439,0.754-0.603,1.152l-0.011,0.012c-0.1,0.162-0.22,0.162-0.362,0
		c-0.078-0.086-0.169-0.143-0.276-0.17c-0.807-0.18-1.316-0.717-1.529-1.611c-0.014-0.043-0.05-0.086-0.106-0.129
		C64.454,22.076,64.397,22.088,64.348,22.117z M64.465,15.832c-0.441-0.121-0.957-0.461-1.547-1.023
		c-0.285-0.342-0.512-0.373-0.683-0.098c-0.754,1.125-1.049,2.365-0.885,3.725c0.228,1.941,0.91,3.141,2.048,3.596
		c0.007,0,0.014,0.004,0.021,0.01c0.292,0.094,0.644-0.08,1.056-0.521c0.028-0.043,0.042-0.082,0.042-0.117
		c-0.007-0.107-0.011-0.275-0.011-0.502l0.096-4.896C64.604,15.918,64.557,15.861,64.465,15.832z"/>
	<path fill="#545454" d="M69.148,14.541c0.014-0.1,0.089-0.162,0.224-0.191c0.434-0.107,0.738-0.291,0.913-0.549
		c0.174-0.26,0.25-0.713,0.229-1.361c-0.078-0.682-0.219-1.24-0.421-1.674c-0.204-0.436-0.461-0.811-0.774-1.133
		c-0.121-0.119-0.131-0.223-0.032-0.309c0.099-0.084,0.217-0.061,0.352,0.076c0.164,0.199,0.333,0.412,0.507,0.641
		c0.174,0.227,0.322,0.461,0.442,0.703c0.036,0.07,0.087,0.107,0.154,0.107c0.068,0,0.119-0.029,0.154-0.086
		c0.425-0.711,1.008-1.287,1.75-1.723c0.741-0.439,1.546-0.643,2.414-0.615c0.149,0.008,0.231,0.078,0.245,0.209
		s-0.067,0.197-0.245,0.197c-0.704,0-1.268,0.203-1.691,0.609c-0.423,0.404-0.634,1.184-0.634,2.336c0,0.092,0.044,0.15,0.133,0.176
		c0.088,0.025,0.158-0.01,0.208-0.102c0.434-0.945,1.092-1.543,1.974-1.793c0.149-0.006,0.224,0.051,0.224,0.17v1.889
		c0.007,0.15-0.057,0.207-0.192,0.172c-0.775-0.1-1.447,0.125-2.016,0.672c-0.106,0.15-0.153,0.303-0.139,0.459
		s0.106,0.234,0.277,0.234h1.835c0.114,0,0.171,0.057,0.171,0.17v0.684c0,0.121-0.057,0.182-0.171,0.182h-2.155
		c-0.099,0-0.149,0.063-0.149,0.191L72.722,20.9c0,0.227,0.053,0.373,0.16,0.438l0.769,0.438c0.164,0.076,0.409-0.094,0.736-0.512
		c0.071-0.086,0.157-0.094,0.256-0.023c0.1,0.072,0.106,0.15,0.021,0.236c-0.747,0.832-1.319,1.65-1.717,2.453
		c-0.085,0.15-0.213,0.15-0.383,0c-0.361-0.477-0.709-0.838-1.046-1.082c-0.336-0.246-0.863-0.436-1.58-0.572
		c-0.114-0.014-0.173-0.064-0.176-0.154c-0.003-0.088,0.034-0.15,0.112-0.186c0.178-0.064,0.339-0.184,0.485-0.357
		c0.146-0.174,0.219-0.465,0.219-0.869l-0.011-5.805c0-0.143-0.071-0.213-0.213-0.213h-0.971
		C69.219,14.691,69.141,14.641,69.148,14.541z"/>
	<path fill="#545454" d="M79.891,14.926L79.88,20.9c0,0.221,0.054,0.365,0.16,0.438l0.768,0.438
		c0.149,0.127,0.398-0.043,0.747-0.512c0.064-0.094,0.151-0.107,0.262-0.043c0.109,0.063,0.115,0.148,0.016,0.256
		c-0.761,0.832-1.333,1.65-1.718,2.453c-0.121,0.15-0.252,0.15-0.395,0c-0.398-0.471-0.769-0.822-1.11-1.057
		s-0.85-0.434-1.525-0.598c-0.114-0.021-0.174-0.074-0.181-0.158c-0.007-0.086,0.035-0.146,0.128-0.182
		c0.477-0.115,0.711-0.523,0.704-1.227l-0.011-5.773c0.007-0.127-0.046-0.191-0.16-0.191h-1.259c-0.1,0-0.164-0.039-0.192-0.117
		c-0.029-0.078,0.003-0.146,0.096-0.203c0.854-0.604,1.723-1.334,2.608-2.188c0.886-0.854,1.691-1.664,2.417-2.432
		c0.093-0.1,0.183-0.119,0.272-0.059s0.091,0.148,0.005,0.262c-0.327,0.404-0.656,0.932-0.987,1.578
		c-0.331,0.648-0.532,1.238-0.603,1.771c-0.014,0.07-0.011,0.125,0.011,0.16c0.042,0.043,0.092,0.064,0.149,0.064h1.846
		c0.05,0,0.093,0.018,0.128,0.053c0.036,0.051,0.054,0.096,0.054,0.139l-0.043,0.801c-0.014,0.113-0.074,0.17-0.181,0.17h-1.846
		C79.941,14.744,79.891,14.805,79.891,14.926z"/>
	<path fill="#545454" d="M89.301,20.984l0.011-4.447c0-1.195-0.217-1.857-0.651-1.984c-0.05-0.035-0.075-0.08-0.075-0.133
		c0-0.055,0.025-0.102,0.075-0.145c0.632-0.455,1.153-1.096,1.563-1.92c0.029-0.064,0.078-0.096,0.148-0.096
		c0.071,0,0.124,0.031,0.16,0.096c0.375,0.816,0.914,1.453,1.617,1.91c0.05,0.041,0.074,0.092,0.074,0.154
		c0,0.061-0.028,0.104-0.085,0.133c-0.47,0.135-0.697,0.797-0.683,1.984v3.754c0,0.734,0.135,1.182,0.406,1.346
		c0.298,0.199,0.551,0.121,0.757-0.234c0.078-0.137,0.168-0.166,0.272-0.092c0.103,0.074,0.102,0.197-0.005,0.369
		c-0.213,0.326-0.415,0.66-0.603,1.002c-0.189,0.342-0.379,0.676-0.571,1.002c-0.121,0.207-0.288,0.246-0.5,0.117
		c-1.054-0.504-1.673-1.145-1.857-1.92c-0.014-0.057-0.057-0.096-0.128-0.117s-0.121-0.01-0.149,0.031
		c-0.405,0.328-0.811,0.672-1.216,1.031c-0.405,0.359-0.683,0.688-0.832,0.986c-0.121,0.17-0.252,0.168-0.395-0.012
		c-0.391-0.455-0.773-0.803-1.147-1.045c-0.373-0.24-0.869-0.438-1.488-0.586c-0.135-0.051-0.199-0.109-0.192-0.182
		c0.007-0.07,0.053-0.125,0.139-0.16c0.178-0.064,0.339-0.184,0.485-0.357c0.146-0.174,0.219-0.463,0.219-0.869v-4.514
		c0-0.725-0.135-1.168-0.405-1.334c-0.32-0.191-0.576-0.113-0.769,0.236c-0.078,0.135-0.167,0.162-0.267,0.086
		c-0.1-0.08-0.096-0.203,0.011-0.375c0.206-0.32,0.403-0.65,0.592-0.99c0.188-0.342,0.382-0.684,0.582-1.025
		c0.121-0.213,0.281-0.252,0.481-0.117h0.011c1.293,0.676,1.94,1.6,1.94,2.773l-0.021,5.463c0,0.205,0.053,0.344,0.16,0.416
		l0.914,0.756c0.07,0.064,0.152,0.072,0.244,0.021c0.574-0.455,0.945-0.746,1.115-0.875C89.279,21.096,89.301,21.051,89.301,20.984z
		"/>
	<path fill="#545454" d="M97.761,15.619l-0.011,5.174c0,0.229,0.057,0.373,0.171,0.438l0.768,0.449
		c0.164,0.1,0.413-0.074,0.747-0.523c0.071-0.092,0.16-0.113,0.267-0.059c0.107,0.053,0.107,0.143,0,0.271
		c-0.747,0.832-1.319,1.65-1.717,2.455c-0.121,0.162-0.253,0.162-0.396,0c-0.4-0.465-0.773-0.816-1.12-1.057
		c-0.346-0.242-0.855-0.441-1.524-0.598c-0.128-0.035-0.192-0.094-0.192-0.172s0.046-0.135,0.139-0.17
		c0.477-0.078,0.711-0.488,0.704-1.227v-4.514c0-0.725-0.135-1.168-0.406-1.334c-0.313-0.205-0.569-0.131-0.768,0.225
		c-0.078,0.15-0.167,0.186-0.267,0.107s-0.096-0.203,0.011-0.375c0.206-0.326,0.403-0.66,0.592-1
		c0.188-0.342,0.382-0.684,0.581-1.025c0.121-0.213,0.282-0.252,0.481-0.117c1.05,0.504,1.679,1.145,1.887,1.92
		c0.021,0.07,0.064,0.115,0.128,0.133c0.064,0.02,0.121-0.004,0.171-0.068l1.643-1.889c0.043-0.043,0.093-0.063,0.149-0.059
		c0.057,0.004,0.103,0.033,0.139,0.09l1.12,2.145c0.029,0.064,0.021,0.125-0.021,0.182l-1.28,1.537
		c-0.05,0.049-0.105,0.07-0.166,0.063c-0.061-0.006-0.101-0.037-0.123-0.094l-0.864-1.602c-0.028-0.043-0.073-0.07-0.133-0.08
		c-0.061-0.012-0.116,0.008-0.166,0.059l-0.501,0.607C97.775,15.541,97.761,15.576,97.761,15.619z"/>
	<path fill="#545454" d="M107.512,17.721c0.014-0.398-0.08-0.646-0.283-0.74c-0.203-0.098-0.631-0.07-1.286,0.078
		c-1.01,0.242-1.913,0.018-2.71-0.672c-0.796-0.689-1.195-1.717-1.195-3.084c0.007-1.357,0.501-2.531,1.483-3.52
		s2.155-1.482,3.521-1.482c0.619,0,1.291,0.152,2.017,0.459c0.726,0.305,1.344,0.76,1.856,1.365
		c0.042,0.057,0.089,0.082,0.139,0.074c0.05-0.006,0.092-0.039,0.128-0.096c0.313-0.512,0.716-0.941,1.211-1.291
		c0.494-0.348,1.15-0.512,1.968-0.49c1.06,0.049,2.009,0.703,2.848,1.963c0.043,0.064,0.096,0.096,0.16,0.096
		s0.114-0.035,0.149-0.107c0.299-0.555,0.676-1.01,1.131-1.365c0.456-0.355,1.024-0.533,1.708-0.533
		c0.875,0.016,1.596,0.281,2.165,0.801s0.981,1.391,1.237,2.613c0.156,0.846,0.484,1.295,0.982,1.344
		c0.142,0.008,0.219,0.068,0.229,0.182c0.012,0.113-0.076,0.199-0.262,0.256c-1.379,0.471-2.328,1.223-2.848,2.258
		c-0.52,1.033-0.498,2.352,0.064,3.951c0.248,0.727,0.605,1.236,1.072,1.531c0.465,0.297,0.976,0.271,1.53-0.07
		c0.206-0.119,0.36-0.117,0.464,0.006c0.104,0.125,0.084,0.248-0.059,0.369c-0.484,0.383-0.963,0.766-1.436,1.146
		s-0.947,0.76-1.424,1.137c-0.078,0.057-0.152,0.057-0.224,0c-1.515-1.217-2.427-2.568-2.736-4.055
		c-0.31-1.486,0.67-3.246,2.938-5.281c0.051-0.051,0.073-0.098,0.07-0.148c-0.004-0.049-0.038-0.092-0.102-0.129
		c-0.498-0.334-0.865-1.191-1.1-2.57c-0.248-1.365-0.803-2.057-1.664-2.07c-0.611-0.014-1.13,0.434-1.557,1.344
		c-0.029,0.051-0.029,0.1,0,0.15c0.277,0.59,0.478,1.248,0.603,1.975c0.124,0.725,0.13,1.492,0.016,2.303
		c-0.285,1.965-0.706,3.445-1.265,4.443c-0.558,1-1.221,1.998-1.989,2.992c-1.017,1.273-1.977,1.412-2.88,0.418
		c-0.256-0.285-0.525-0.471-0.806-0.555c-0.281-0.086-0.603,0.014-0.965,0.299c-0.135,0.113-0.251,0.125-0.347,0.035
		c-0.096-0.088-0.091-0.201,0.016-0.334c0.91-1.268,1.634-1.988,2.17-2.166c0.537-0.18,1.062-0.029,1.574,0.447
		c0.42,0.391,0.806,0.6,1.157,0.629c0.353,0.029,0.628-0.234,0.827-0.789c0.384-1.066,0.521-2.559,0.411-4.475
		c-0.11-1.918-0.498-3.389-1.163-4.412c-0.665-1.023-1.298-1.627-1.899-1.809c-0.601-0.182-1.147-0.023-1.638,0.475
		c-0.071,0.07-0.075,0.146-0.011,0.225c0.846,1.174,1.302,2.531,1.366,4.074c0.042,1.268-0.203,2.48-0.736,3.645
		c-0.533,1.162-1.22,2.277-2.059,3.344c-0.918,1.168-1.787,1.836-2.609,2.006c-0.821,0.172-1.573-0.244-2.256-1.248
		c-0.597-0.896-1.205-1.006-1.824-0.33c-0.149,0.129-0.282,0.131-0.4,0.01c-0.117-0.121-0.101-0.26,0.048-0.416
		c1.942-1.977,3.467-2.236,4.577-0.779c0.178,0.242,0.347,0.467,0.507,0.674c0.159,0.205,0.4,0.301,0.72,0.287
		c0.413-0.014,0.846-0.467,1.301-1.354c0.456-0.891,0.683-2.01,0.683-3.361c-0.014-1.771-0.477-3.324-1.387-4.656
		c-0.91-1.334-1.952-2.064-3.125-2.193c-1.173-0.121-2.098,0.1-2.774,0.662c-0.676,0.561-1.003,1.227-0.981,1.994
		c0.021,0.783,0.229,1.408,0.624,1.879c0.395,0.469,1.125,0.564,2.192,0.287c2.056-0.527,2.948,0.23,2.678,2.273
		c-0.028,0.213-0.126,0.32-0.293,0.324C107.595,17.965,107.512,17.885,107.512,17.721z"/>
	<path fill="#545454" d="M131.354,22.117c-0.361,0.275-0.76,0.58-1.193,0.91c-0.436,0.332-0.836,0.637-1.207,0.914
		c-0.127,0.098-0.229,0.141-0.303,0.127s-0.105-0.078-0.092-0.191c0-0.15-0.221-0.434-0.66-0.854
		c-1.16-1.088-1.718-2.504-1.675-4.246c0.043-1.494,0.736-2.758,2.08-3.787c0.412-0.313,0.799-0.645,1.158-0.992
		c0.359-0.35,0.678-0.771,0.955-1.27c0.113-0.221,0.27-0.229,0.469-0.021c1.078,1.223,2.156,1.945,3.232,2.166
		c0.342,0.063,0.377,0.199,0.107,0.404c-0.334,0.242-0.516,0.541-0.545,0.896v0.021l0.033,4.875c0,0.326,0.117,0.551,0.355,0.672
		s0.496,0.029,0.775-0.277c0.105-0.121,0.207-0.15,0.303-0.09s0.098,0.168,0.006,0.324c-0.256,0.385-0.504,0.762-0.742,1.131
		c-0.238,0.371-0.439,0.754-0.602,1.152l-0.012,0.012c-0.1,0.162-0.219,0.162-0.361,0c-0.078-0.086-0.17-0.143-0.275-0.17
		c-0.807-0.18-1.316-0.717-1.529-1.611c-0.014-0.043-0.049-0.086-0.105-0.129C131.462,22.076,131.405,22.088,131.354,22.117z
		 M131.472,15.832c-0.439-0.121-0.955-0.461-1.547-1.023c-0.283-0.342-0.512-0.373-0.682-0.098
		c-0.754,1.125-1.049,2.365-0.887,3.725c0.229,1.941,0.912,3.141,2.049,3.596c0.008,0,0.016,0.004,0.021,0.01
		c0.291,0.094,0.645-0.08,1.057-0.521c0.027-0.043,0.043-0.082,0.043-0.117c-0.008-0.107-0.012-0.275-0.012-0.502l0.096-4.896
		C131.61,15.918,131.565,15.861,131.472,15.832z"/>
	<path fill="#545454" d="M142.065,22.309c-0.512,0.234-1.127,0.496-1.846,0.783c-0.717,0.289-1.279,0.582-1.686,0.881
		c-0.148,0.1-0.256,0.139-0.318,0.117c-0.064-0.021-0.09-0.082-0.076-0.182c0.008-0.127-0.047-0.344-0.164-0.65
		c-0.119-0.307-0.258-0.58-0.422-0.822c-0.455-0.66-0.75-1.266-0.885-1.813c-0.137-0.549-0.246-1.199-0.332-1.953
		c-0.078-0.725,0.084-1.412,0.486-2.059c0.4-0.648,0.93-1.223,1.584-1.729c0.412-0.313,0.801-0.643,1.162-0.992
		c0.363-0.348,0.68-0.771,0.949-1.27c0.121-0.221,0.281-0.229,0.48-0.021c1.066,1.209,2.205,1.938,3.414,2.188
		c0.313,0.078,0.381,0.191,0.203,0.342c-0.654,0.959-0.946,1.939-0.875,2.939c0.07,0.998,0.303,2.01,0.693,3.035v0.01l0.011,0.01
		c0.64,2.342,0.425,4.039-0.646,5.096c-1.07,1.055-2.131,1.637-3.184,1.744c-1.822,0.178-3.027-0.293-3.617-1.408
		c-0.135-0.256-0.137-0.498-0.006-0.725c0.131-0.229,0.326-0.365,0.582-0.406c0.504-0.086,0.949,0.24,1.334,0.98
		c0.525,1.061,1.293,1.385,2.303,0.971c0.869-0.361,1.367-0.988,1.494-1.877c0.129-0.889,0-1.91-0.383-3.063
		c0-0.014-0.004-0.023-0.012-0.031l-0.01-0.012C142.259,22.287,142.181,22.26,142.065,22.309z M142.685,16.355
		c-0.398-0.164-0.871-0.416-1.418-0.758c-0.549-0.342-0.949-0.629-1.205-0.863l-0.021-0.012c0-0.006,0-0.014,0-0.021
		c-0.256-0.377-0.484-0.408-0.684-0.096c-0.754,1.125-1.053,2.365-0.896,3.723c0.107,0.904,0.303,1.736,0.588,2.498
		c0.283,0.76,0.725,1.258,1.322,1.492l0.01,0.012h0.012c0.398,0.105,0.914-0.043,1.547-0.449c0.07-0.035,0.096-0.102,0.074-0.201
		c-0.299-0.818-0.41-1.648-0.336-2.492c0.074-0.842,0.436-1.701,1.082-2.576C142.823,16.498,142.798,16.412,142.685,16.355z"/>
	<path fill="#545454" d="M152.617,20.984l0.011-4.447c0-1.195-0.217-1.857-0.65-1.984c-0.051-0.035-0.075-0.08-0.075-0.133
		c0-0.055,0.024-0.102,0.075-0.145c0.631-0.455,1.152-1.096,1.563-1.92c0.029-0.064,0.078-0.096,0.148-0.096
		c0.072,0,0.125,0.031,0.16,0.096c0.375,0.816,0.914,1.453,1.617,1.91c0.049,0.041,0.074,0.092,0.074,0.154
		c0,0.061-0.028,0.104-0.085,0.133c-0.47,0.135-0.697,0.797-0.683,1.984v3.754c0,0.734,0.135,1.182,0.404,1.346
		c0.299,0.199,0.552,0.121,0.758-0.234c0.078-0.137,0.169-0.166,0.271-0.092c0.104,0.074,0.102,0.197-0.004,0.369
		c-0.214,0.326-0.415,0.66-0.604,1.002s-0.379,0.676-0.57,1.002c-0.121,0.207-0.287,0.246-0.5,0.117
		c-1.055-0.504-1.674-1.145-1.857-1.92c-0.015-0.057-0.057-0.096-0.129-0.117c-0.07-0.021-0.121-0.01-0.148,0.031
		c-0.406,0.328-0.812,0.672-1.217,1.031s-0.683,0.688-0.832,0.986c-0.121,0.17-0.252,0.168-0.395-0.012
		c-0.391-0.455-0.773-0.803-1.147-1.045c-0.372-0.24-0.869-0.438-1.487-0.586c-0.136-0.051-0.199-0.109-0.192-0.182
		c0.007-0.07,0.054-0.125,0.139-0.16c0.178-0.064,0.339-0.184,0.485-0.357c0.146-0.174,0.219-0.463,0.219-0.869v-4.514
		c0-0.725-0.135-1.168-0.406-1.334c-0.319-0.191-0.575-0.113-0.768,0.236c-0.078,0.135-0.167,0.162-0.267,0.086
		c-0.1-0.08-0.097-0.203,0.011-0.375c0.206-0.32,0.403-0.65,0.592-0.99c0.188-0.342,0.383-0.684,0.582-1.025
		c0.121-0.213,0.281-0.252,0.48-0.117h0.011c1.294,0.676,1.94,1.6,1.94,2.773l-0.021,5.463c0,0.205,0.053,0.344,0.16,0.416
		l0.914,0.756c0.07,0.064,0.151,0.072,0.244,0.021c0.573-0.455,0.944-0.746,1.115-0.875
		C152.596,21.096,152.617,21.051,152.617,20.984z"/>
	<path fill="#545454" d="M161.142,19.77c-0.008,1.145,0.205,1.807,0.64,1.984c0.05,0.035,0.075,0.084,0.075,0.143
		c0,0.063-0.025,0.105-0.075,0.135c-0.64,0.484-1.159,1.127-1.558,1.93c-0.043,0.059-0.096,0.086-0.16,0.086
		s-0.117-0.027-0.16-0.086c-0.398-0.803-0.938-1.443-1.621-1.92c-0.043-0.027-0.064-0.074-0.064-0.139s0.025-0.113,0.074-0.148
		c0.463-0.178,0.693-0.84,0.693-1.984v-3.541c0-0.727-0.135-1.172-0.404-1.334c-0.313-0.207-0.569-0.133-0.769,0.225
		c-0.078,0.146-0.167,0.184-0.267,0.105s-0.096-0.203,0.011-0.373c0.206-0.328,0.403-0.662,0.592-1.004s0.382-0.682,0.581-1.023
		c0.114-0.207,0.274-0.25,0.48-0.129l0.011,0.012c1.046,0.525,1.671,1.17,1.878,1.93c0.014,0.08,0.049,0.125,0.105,0.141
		c0.058,0.014,0.114,0,0.172-0.043c0.39-0.328,0.791-0.672,1.201-1.035c0.412-0.363,0.692-0.697,0.842-1.004
		c0.078-0.184,0.206-0.18,0.383,0.012c0.426,0.447,0.789,0.805,1.092,1.066c0.301,0.264,0.814,0.459,1.539,0.586
		c0.128,0.029,0.193,0.084,0.197,0.166s-0.041,0.137-0.133,0.166c-0.186,0.07-0.35,0.193-0.491,0.367
		c-0.142,0.176-0.214,0.465-0.214,0.871v4.512c0,0.725,0.136,1.17,0.406,1.334c0.313,0.191,0.564,0.113,0.758-0.236
		c0.078-0.133,0.168-0.164,0.271-0.09s0.102,0.197-0.006,0.369c-0.213,0.332-0.414,0.67-0.603,1.008s-0.378,0.674-0.571,1.008
		c-0.127,0.199-0.287,0.246-0.479,0.139c-1.287-0.627-1.932-1.555-1.932-2.785l0.01-5.461c0-0.215-0.053-0.352-0.159-0.418h-0.011
		v-0.02l-0.906-0.748c-0.078-0.057-0.16-0.061-0.246-0.01l-1.109,0.863c-0.05,0.037-0.074,0.08-0.074,0.129V19.77z"/>
	<path fill="#545454" d="M171.979,14.926l-0.01,5.975c0,0.221,0.053,0.365,0.16,0.438l0.768,0.438
		c0.149,0.127,0.398-0.043,0.747-0.512c0.063-0.094,0.151-0.107,0.262-0.043c0.109,0.063,0.115,0.148,0.016,0.256
		c-0.761,0.832-1.333,1.65-1.718,2.453c-0.121,0.15-0.252,0.15-0.395,0c-0.398-0.471-0.768-0.822-1.109-1.057
		s-0.85-0.434-1.525-0.598c-0.114-0.021-0.175-0.074-0.182-0.158c-0.008-0.086,0.035-0.146,0.128-0.182
		c0.477-0.115,0.712-0.523,0.704-1.227l-0.011-5.773c0.007-0.127-0.046-0.191-0.16-0.191h-1.259c-0.1,0-0.164-0.039-0.191-0.117
		c-0.029-0.078,0.003-0.146,0.096-0.203c0.854-0.604,1.723-1.334,2.607-2.188c0.887-0.854,1.691-1.664,2.417-2.432
		c0.093-0.1,0.183-0.119,0.272-0.059c0.088,0.061,0.09,0.148,0.006,0.262c-0.328,0.404-0.656,0.932-0.988,1.578
		c-0.33,0.648-0.531,1.238-0.602,1.771c-0.015,0.07-0.012,0.125,0.01,0.16c0.043,0.043,0.093,0.064,0.15,0.064h1.846
		c0.049,0,0.092,0.018,0.127,0.053c0.035,0.051,0.054,0.096,0.054,0.139l-0.042,0.801c-0.016,0.113-0.075,0.17-0.182,0.17h-1.846
		C172.03,14.744,171.979,14.805,171.979,14.926z"/>
	<path fill="#545454" d="M176.407,21.113l-0.074-5.848c0-0.133-0.021-0.244-0.064-0.33c-0.17-0.277-0.316-0.344-0.438-0.201
		l-0.426,0.438c-0.114,0.127-0.223,0.141-0.326,0.041s-0.087-0.236,0.049-0.416c0.313-0.391,0.594-0.781,0.842-1.172
		c0.25-0.393,0.506-0.779,0.769-1.164c0.114-0.135,0.245-0.131,0.395,0.012c0.299,0.361,0.591,0.68,0.875,0.953
		c0.284,0.275,0.69,0.564,1.216,0.871c0.15,0.057,0.215,0.125,0.198,0.201c-0.019,0.08-0.066,0.123-0.145,0.129
		c-0.185,0.07-0.349,0.195-0.491,0.369c-0.142,0.174-0.213,0.463-0.213,0.867v4.514c0,0.727,0.135,1.17,0.405,1.334
		c0.313,0.184,0.569,0.107,0.769-0.234c0.07-0.137,0.158-0.166,0.261-0.092c0.103,0.076,0.102,0.197-0.005,0.369
		c-0.213,0.334-0.412,0.67-0.598,1.008s-0.373,0.674-0.565,1.008c-0.136,0.199-0.302,0.242-0.501,0.129
		c-0.641-0.307-1.123-0.68-1.446-1.121S176.407,21.781,176.407,21.113z M177.954,8.449c0.79,0,1.148,0.381,1.078,1.143
		c-0.043,0.383-0.283,0.77-0.721,1.158c-0.438,0.387-0.783,0.576-1.039,0.57c-0.257,0-0.453-0.203-0.588-0.609
		c-0.135-0.404-0.188-0.779-0.16-1.119c0.021-0.328,0.18-0.6,0.475-0.816S177.613,8.449,177.954,8.449z"/>
	<path fill="#545454" d="M186.308,22.117c-0.362,0.275-0.761,0.58-1.195,0.91c-0.434,0.332-0.835,0.637-1.205,0.914
		c-0.128,0.098-0.229,0.141-0.305,0.127c-0.074-0.014-0.104-0.078-0.09-0.191c0-0.15-0.221-0.434-0.662-0.854
		c-1.158-1.088-1.717-2.504-1.674-4.246c0.043-1.494,0.736-2.758,2.08-3.787c0.412-0.313,0.798-0.645,1.157-0.992
		c0.358-0.35,0.678-0.771,0.955-1.27c0.114-0.221,0.271-0.229,0.47-0.021c1.078,1.223,2.155,1.945,3.232,2.166
		c0.341,0.063,0.377,0.199,0.106,0.404c-0.335,0.242-0.516,0.541-0.544,0.896v0.021l0.031,4.875c0,0.326,0.119,0.551,0.357,0.672
		s0.496,0.029,0.773-0.277c0.107-0.121,0.209-0.15,0.305-0.09s0.098,0.168,0.006,0.324c-0.257,0.385-0.504,0.762-0.742,1.131
		c-0.238,0.371-0.439,0.754-0.603,1.152l-0.011,0.012c-0.1,0.162-0.221,0.162-0.361,0c-0.078-0.086-0.17-0.143-0.276-0.17
		c-0.807-0.18-1.316-0.717-1.528-1.611c-0.015-0.043-0.051-0.086-0.106-0.129C186.415,22.076,186.357,22.088,186.308,22.117z
		 M186.425,15.832c-0.44-0.121-0.956-0.461-1.547-1.023c-0.284-0.342-0.512-0.373-0.683-0.098c-0.754,1.125-1.049,2.365-0.886,3.725
		c0.229,1.941,0.91,3.141,2.049,3.596c0.007,0,0.014,0.004,0.021,0.01c0.291,0.094,0.644-0.08,1.057-0.521
		c0.027-0.043,0.042-0.082,0.042-0.117c-0.007-0.107-0.011-0.275-0.011-0.502l0.096-4.896
		C186.563,15.918,186.518,15.861,186.425,15.832z"/>
</g>
</svg>
