<?xml version="1.0" encoding="utf-8"?>
<!-- Generator: Adobe Illustrator 16.0.0, SVG Export Plug-In . SVG Version: 6.00 Build 0)  -->
<!DOCTYPE svg PUBLIC "-//W3C//DTD SVG 1.1//EN" "http://www.w3.org/Graphics/SVG/1.1/DTD/svg11.dtd">
<svg version="1.1" id="图层_1" xmlns="http://www.w3.org/2000/svg" xmlns:xlink="http://www.w3.org/1999/xlink" x="0px" y="0px"
	 width="258px" height="36px" viewBox="0 0 258 36" enable-background="new 0 0 258 36" xml:space="preserve">
<g>
	<path fill="#545454" d="M15.904,20.044c2.902-2.531,5.503-5.912,7.804-10.143l2.071,2.051c-1.867,3.503-4.206,6.564-7.018,9.185
		c-0.882,0.831-1.764,1.546-2.646,2.146l-2.013-1.859c0.499-0.332,0.888-0.619,1.169-0.862l-1.956-1.705
		c0.78-2.507,1.828-4.75,3.145-6.73c-0.435,0.204-1.157,0.581-2.166,1.131l-0.94-2.205c1.278-0.729,2.224-1.215,2.838-1.458
		c0.613-0.241,1.15-0.439,1.61-0.594l2.128,2.262C17.988,14.292,16.646,17.22,15.904,20.044z"/>
	<path fill="#545454" d="M30.361,21.349c-1.01,0.792-2.173,1.367-3.489,1.725l-2.377-2.204c0-1.011,0.153-2.002,0.46-2.972
		c0.307-0.973,0.76-1.849,1.361-2.628c0.601-0.779,1.346-1.429,2.234-1.946c0.889-0.518,1.914-0.827,3.078-0.93l1.265,1.938
		c0.153-0.243,0.479-0.665,0.978-1.266l1.878,1.61c-1.265,1.647-2.313,3.412-3.144,5.292l-0.058,0.037
		c0.742-0.191,1.611-0.52,2.607-0.987c0.998-0.466,1.63-0.77,1.898-0.911l0.421,1.938c-0.754,0.551-2.006,1.26-3.757,2.128
		c-0.69,0.345-1.317,0.62-1.879,0.826L30.361,21.349z M27.178,20.313c1.368-0.371,2.614-1.278,3.738-2.724
		c0.333-0.728,0.582-1.635,0.748-2.722c-1.317,0.128-2.396,0.71-3.24,1.746C27.593,17.636,27.178,18.867,27.178,20.313z"/>
	<path fill="#545454" d="M46.562,16.057c1.035-0.832,2.186-1.585,3.451-2.262l2.32,1.819c-0.409,1.7-1.086,3.164-2.032,4.391
		c1.239-0.421,2.684-1.054,4.333-1.898l0.403,1.938c-0.524,0.345-1.323,0.786-2.396,1.322c-1.841,0.908-3.114,1.478-3.816,1.707
		l-2.377-1.688c1.584-1.904,2.518-3.45,2.799-4.639c-1.342,0.65-2.607,1.404-3.795,2.262c-0.627,1.406-1.4,2.761-2.32,4.064
		l-2.205-1.516c0.613-0.816,1.131-1.61,1.553-2.377c0.678-1.252,1.093-2.235,1.247-2.952c-1.227,0.575-2.358,1.227-3.394,1.956
		c-0.358,0.243-0.735,0.505-1.131,0.785c-0.575,1.354-1.08,2.724-1.515,4.104l-2.282-1.477c0.435-1.47,1.112-3.125,2.032-4.965
		c0.831-1.649,1.7-3.041,2.607-4.181l1.937,1.399c-0.46,0.627-0.87,1.272-1.227,1.937c1.163-0.959,2.409-1.796,3.738-2.512
		l2.32,1.821L46.562,16.057z"/>
	<path fill="#545454" d="M58.354,15.577c0.844-0.755,1.962-1.521,3.355-2.302l2.319,1.821c-0.102,1.022-0.268,1.904-0.498,2.646
		s-0.608,1.38-1.131,1.916c1.38-0.446,2.69-0.965,3.93-1.553l0.403,1.938c-1.624,0.907-3.886,1.72-6.788,2.435
		c-0.895,0.229-1.795,0.429-2.703,0.595l-1.783-1.631c-1.099,2.481-1.917,4.667-2.454,6.558l-2.186-1.476
		c1.572-4.729,3.777-9.484,6.615-14.265l1.937,1.42L58.354,15.577z M55.688,20.925c1.381-0.215,2.39-0.452,3.03-0.709
		c0.92-0.434,1.648-1.354,2.186-2.761c0.178-0.434,0.3-0.881,0.364-1.341c-1.304,0.689-2.499,1.43-3.585,2.223
		c-0.371,0.269-0.767,0.563-1.188,0.883L55.688,20.925z"/>
	<path fill="#545454" d="M67.997,20.139c1.304-0.396,2.869-1.073,4.697-2.032l0.403,1.938c-1.241,0.805-2.736,1.592-4.487,2.358
		c-0.587,0.256-1.163,0.48-1.726,0.671L64.68,21.04c0.627-1.713,1.751-3.847,3.375-6.403c0.485-0.767,0.958-1.438,1.418-2.013
		l1.898,1.4c-0.934,1.276-1.841,2.816-2.723,4.62C68.393,19.181,68.175,19.68,67.997,20.139z M70.892,11.703
		c-0.293-0.306-0.44-0.677-0.44-1.111c0-0.434,0.149-0.802,0.45-1.102c0.301-0.301,0.668-0.451,1.103-0.451s0.803,0.15,1.103,0.451
		c0.3,0.3,0.451,0.668,0.451,1.102c0,0.435-0.15,0.802-0.451,1.103c-0.3,0.301-0.667,0.45-1.103,0.45S71.199,11.998,70.892,11.703z"
		/>
	<path fill="#545454" d="M73.326,13.965c0.614-0.831,1.381-1.691,2.301-2.588l1.783,1.38c-0.14,0.589-0.262,1.018-0.364,1.286
		c1.649-0.178,2.837-0.358,3.566-0.538c0.729-0.178,1.362-0.338,1.898-0.479l0.536,2.28c-0.523,0.156-1.072,0.289-1.647,0.404
		c-0.883,1.394-1.618,2.871-2.206,4.428c2.122-0.728,3.687-1.405,4.697-2.032l0.421,1.938c-1.176,0.766-2.716,1.553-4.62,2.358
		c-0.613,0.256-1.202,0.48-1.765,0.671l-2.032-2.033c0.831-1.903,1.719-3.546,2.665-4.926c-0.895,0.076-1.687,0.128-2.377,0.153
		c-0.204,0.383-0.755,1.342-1.648,2.874l-1.419,0.902l-1.822-1.074c1.061-1.148,1.776-1.956,2.146-2.416
		c0.371-0.46,0.691-0.855,0.959-1.188C74.029,14.956,73.671,14.49,73.326,13.965z"/>
	<path fill="#545454" d="M90.717,20.389c-1.228,1.42-2.844,2.313-4.851,2.685l-2.723-2.281c0-1.227,0.243-2.44,0.729-3.643
		c0.612-1.509,1.623-2.729,3.028-3.663c0.972-0.651,2.026-1.054,3.165-1.208l3.047,2.607c-0.217,1.382-0.587,2.583-1.111,3.605
		c0.92-0.051,1.961-0.179,3.125-0.385l0.422,1.938c-1.662,0.69-2.966,1.157-3.912,1.398L90.717,20.389z M85.713,20.465
		c1.457-0.332,2.671-1.231,3.642-2.703c0.409-0.626,0.703-1.227,0.882-1.802s0.274-1.035,0.288-1.381
		c-1.036,0.142-2.02,0.69-2.953,1.649C86.409,17.416,85.789,18.83,85.713,20.465z"/>
	<path fill="#545454" d="M113.609,15.154c-1.355-1.213-2.621-2.18-3.797-2.895c-1.303,0.678-2.46,1.828-3.47,3.451
		c-1.048,1.674-1.637,3.374-1.764,5.099c2.007-0.549,3.719-1.909,5.139-4.083c0.472-0.741,0.888-1.585,1.246-2.531L113.609,15.154
		c-0.856,2.403-1.975,4.265-3.356,5.58c-1.495,1.432-3.425,2.371-5.79,2.818l-2.838-2.607c0.371-3.938,1.987-7.106,4.852-9.509
		c0.997-0.845,2.166-1.579,3.507-2.206c1.701,0.87,3.196,1.981,4.487,3.336L113.609,15.154z"/>
	<path fill="#545454" d="M118.863,15.884c1.277-1.012,2.601-1.88,3.968-2.608l2.32,1.821c-0.422,1.815-1.163,3.451-2.225,4.908
		c1.278-0.435,2.729-1.067,4.354-1.898l0.402,1.938c-0.525,0.345-1.323,0.786-2.397,1.322c-1.841,0.908-3.111,1.478-3.815,1.707
		l-2.376-1.688c0.766-0.921,1.408-1.83,1.926-2.731c0.518-0.902,0.854-1.69,1.007-2.368c-1.637,0.767-3.195,1.661-4.679,2.684
		c-0.588,1.406-1.085,2.773-1.496,4.104l-2.281-1.477c0.435-1.47,1.112-3.125,2.033-4.965c0.831-1.649,1.7-3.041,2.607-4.181
		l1.937,1.399C119.7,14.451,119.271,15.129,118.863,15.884z"/>
	<path fill="#545454" d="M131.037,18.856c-0.602,0-1.074-0.047-1.418-0.136c-0.205,0.499-0.333,1.119-0.384,1.859
		c2.199-0.126,4.32-0.62,6.365-1.476c0.691-0.281,1.355-0.613,1.994-0.998l0.402,1.938c-1.188,0.755-2.594,1.419-4.217,1.994
		c-1.727,0.614-3.355,0.96-4.889,1.035l-2.378-2.204c0-1.765,0.479-3.375,1.438-4.831c0.69-1.012,1.474-1.81,2.349-2.397
		c0.875-0.588,1.715-1.012,2.521-1.266l3.24,2.683c-0.32,1.331-0.928,2.296-1.822,2.896
		C133.344,18.556,132.275,18.856,131.037,18.856z M130.424,16.995c0.74,0,1.387-0.204,1.936-0.612
		c0.641-0.486,0.959-1.165,0.959-2.033C132.027,15.053,131.063,15.934,130.424,16.995z"/>
</g>
</svg>
