<?xml version="1.0" encoding="utf-8"?>
<!-- Generator: Adobe Illustrator 16.0.0, SVG Export Plug-In . SVG Version: 6.00 Build 0)  -->
<!DOCTYPE svg PUBLIC "-//W3C//DTD SVG 1.1//EN" "http://www.w3.org/Graphics/SVG/1.1/DTD/svg11.dtd">
<svg version="1.1" id="图层_1" xmlns="http://www.w3.org/2000/svg" xmlns:xlink="http://www.w3.org/1999/xlink" x="0px" y="0px"
	 width="258px" height="36px" viewBox="0 0 258 36" enable-background="new 0 0 258 36" xml:space="preserve">
<g>
	<path fill="#545454" d="M18.13,29.5c-0.191-0.191-0.369-0.374-0.534-0.547c-0.164-0.174-0.327-0.344-0.489-0.511
		c-0.161-0.168-0.327-0.338-0.498-0.512c-0.17-0.173-0.351-0.355-0.542-0.547c0.251-0.741,0.52-1.487,0.807-2.237
		s0.607-1.538,0.959-2.362c0.353-0.825,0.747-1.701,1.184-2.628s0.933-1.939,1.488-3.039c-0.275,0.406-0.53,0.762-0.767,1.066
		c-0.236,0.305-0.441,0.563-0.614,0.771c-0.203,0.239-0.395,0.448-0.574,0.628c-0.454,0.436-0.859,0.813-1.215,1.13
		c-0.356,0.316-0.673,0.578-0.951,0.784s-0.521,0.36-0.731,0.462c-0.209,0.102-0.395,0.152-0.556,0.152
		c-0.125,0-0.259-0.043-0.399-0.13c-0.141-0.087-0.278-0.194-0.413-0.323c-0.135-0.128-0.262-0.265-0.381-0.408
		c-0.119-0.143-0.224-0.271-0.313-0.385c-0.149-0.191-0.233-0.439-0.251-0.744c-0.018-0.306-0.027-0.682-0.027-1.13
		c0-0.688,0.059-1.408,0.175-2.161c0.116-0.754,0.282-1.511,0.498-2.273c0.215-0.762,0.475-1.521,0.78-2.277
		c0.305-0.756,0.646-1.483,1.022-2.179s0.783-1.35,1.219-1.959c0.437-0.61,0.894-1.157,1.372-1.641
		c0.125,0.131,0.269,0.282,0.431,0.453c0.161,0.17,0.324,0.345,0.488,0.525c0.165,0.179,0.323,0.357,0.476,0.533
		c0.152,0.177,0.282,0.331,0.39,0.462c-0.508,0.46-0.985,0.979-1.43,1.556c-0.446,0.577-0.854,1.193-1.224,1.847
		c-0.371,0.655-0.703,1.336-0.996,2.044c-0.292,0.708-0.54,1.426-0.74,2.152s-0.355,1.451-0.466,2.175
		c-0.11,0.723-0.168,1.422-0.175,2.098c0.664-0.335,1.273-0.741,1.83-1.22c0.556-0.478,1.065-0.999,1.529-1.564
		c0.463-0.564,0.885-1.158,1.264-1.78s0.723-1.25,1.031-1.883c0.308-0.633,0.583-1.258,0.825-1.874
		c0.242-0.616,0.462-1.195,0.659-1.739s0.372-1.041,0.524-1.489c0.153-0.448,0.292-0.822,0.417-1.121
		c0.06,0.089,0.141,0.2,0.242,0.332c0.102,0.132,0.211,0.273,0.328,0.426c0.116,0.153,0.236,0.307,0.358,0.462
		c0.123,0.156,0.236,0.3,0.341,0.435c0.104,0.134,0.196,0.251,0.273,0.35s0.128,0.166,0.152,0.202
		c-0.317,0.753-0.629,1.505-0.937,2.255c-0.308,0.75-0.623,1.542-0.946,2.376s-0.658,1.735-1.004,2.704
		c-0.347,0.968-0.719,2.053-1.116,3.255c-0.398,1.201-0.825,2.543-1.282,4.025C19.166,25.979,18.668,27.646,18.13,29.5z"/>
	<path fill="#545454" d="M30.245,18.291c-0.55,0.538-1.069,0.99-1.556,1.354c-0.487,0.364-0.952,0.657-1.395,0.879
		c-0.442,0.221-0.865,0.379-1.269,0.475c-0.404,0.096-0.797,0.144-1.179,0.144c-0.162,0-0.341-0.06-0.538-0.179
		c-0.197-0.12-0.381-0.265-0.552-0.436c-0.17-0.17-0.312-0.348-0.426-0.533c-0.113-0.186-0.17-0.344-0.17-0.476
		c0-0.49,0.067-0.939,0.202-1.35c0.135-0.409,0.313-0.778,0.534-1.107c0.221-0.328,0.474-0.618,0.758-0.869
		c0.284-0.251,0.58-0.46,0.888-0.628c0.308-0.167,0.614-0.293,0.919-0.376c0.305-0.084,0.586-0.125,0.843-0.125
		c0.186,0,0.369,0.054,0.552,0.161c0.182,0.108,0.348,0.239,0.498,0.395c0.149,0.156,0.271,0.318,0.363,0.489
		c0.093,0.17,0.139,0.318,0.139,0.443c0,0.203-0.085,0.411-0.255,0.623c-0.17,0.213-0.411,0.429-0.722,0.65
		c-0.311,0.221-0.685,0.447-1.121,0.677c-0.436,0.23-0.917,0.462-1.443,0.695c-0.018,0.144-0.027,0.284-0.027,0.421
		c0,0.186,0.04,0.312,0.121,0.377c0.081,0.065,0.232,0.099,0.453,0.099c0.395,0,0.767-0.065,1.116-0.197s0.686-0.302,1.009-0.511
		c0.323-0.21,0.634-0.448,0.933-0.718c0.299-0.269,0.595-0.541,0.888-0.816L30.245,18.291z M27.088,16.05
		c-0.12,0-0.251,0.064-0.395,0.192c-0.144,0.129-0.287,0.298-0.431,0.507s-0.281,0.45-0.413,0.722
		c-0.131,0.272-0.245,0.555-0.34,0.848c0.221-0.144,0.438-0.296,0.65-0.457c0.212-0.162,0.402-0.331,0.569-0.507
		c0.167-0.177,0.302-0.357,0.404-0.543c0.102-0.185,0.152-0.37,0.152-0.556c0-0.054-0.017-0.102-0.049-0.144
		C27.203,16.07,27.154,16.05,27.088,16.05z"/>
	<path fill="#545454" d="M30.105,17.574c0.176-0.168,0.353-0.35,0.529-0.547s0.341-0.41,0.493-0.637
		c0.152-0.228,0.273-0.473,0.363-0.735c0.023-0.138,0.061-0.283,0.112-0.435s0.107-0.292,0.17-0.417s0.124-0.23,0.184-0.314
		c0.06-0.083,0.114-0.125,0.162-0.125c0.072,0.042,0.179,0.121,0.323,0.238s0.287,0.241,0.431,0.372
		c0.143,0.131,0.271,0.252,0.381,0.363c0.111,0.11,0.166,0.178,0.166,0.202c-0.072,0.275-0.106,0.523-0.103,0.745
		c0.003,0.221,0.021,0.439,0.054,0.654c0.033,0.215,0.069,0.443,0.107,0.686c0.039,0.242,0.059,0.521,0.059,0.839
		c0,0.191-0.032,0.411-0.094,0.659c-0.063,0.248-0.172,0.471-0.328,0.668c0.305-0.18,0.607-0.381,0.906-0.605
		s0.565-0.435,0.798-0.632c0.275-0.233,0.538-0.467,0.789-0.7l0.403,0.439c-0.197,0.186-0.411,0.383-0.641,0.592
		c-0.23,0.21-0.469,0.416-0.717,0.619s-0.5,0.397-0.758,0.583c-0.257,0.186-0.511,0.35-0.762,0.493s-0.493,0.257-0.726,0.341
		c-0.233,0.083-0.452,0.125-0.655,0.125c-0.173,0-0.365-0.042-0.574-0.125c-0.209-0.084-0.407-0.186-0.592-0.305
		c-0.186-0.12-0.347-0.245-0.484-0.377s-0.218-0.242-0.242-0.332c0-0.012,0.012-0.037,0.036-0.076s0.052-0.079,0.085-0.121
		s0.066-0.079,0.099-0.112c0.033-0.032,0.059-0.049,0.076-0.049c0.036,0,0.108,0.026,0.215,0.081c0.107,0.054,0.287,0.08,0.538,0.08
		c0.137,0,0.255-0.036,0.354-0.107s0.181-0.167,0.247-0.287c0.066-0.119,0.114-0.257,0.144-0.412s0.045-0.32,0.045-0.493
		c0-0.251-0.012-0.495-0.036-0.731c-0.024-0.235-0.051-0.464-0.081-0.686c-0.102,0.119-0.218,0.245-0.35,0.377
		c-0.131,0.131-0.265,0.261-0.399,0.39c-0.135,0.129-0.269,0.254-0.404,0.377c-0.134,0.122-0.255,0.231-0.363,0.327l-0.431-0.439
		C29.772,17.891,29.929,17.741,30.105,17.574z"/>
	<path fill="#545454" d="M36.468,20.99c-0.102,0-0.235-0.046-0.399-0.139c-0.164-0.093-0.324-0.206-0.479-0.341
		s-0.29-0.273-0.403-0.417c-0.114-0.144-0.17-0.266-0.17-0.367c0-0.18,0.049-0.464,0.148-0.853s0.229-0.832,0.39-1.331
		c0.162-0.499,0.345-1.033,0.552-1.601c0.206-0.568,0.414-1.124,0.623-1.668h-1.264h-0.009c-0.006,0-0.009-0.006-0.009-0.018
		c0-0.036,0.014-0.088,0.041-0.157c0.027-0.069,0.06-0.141,0.099-0.215c0.039-0.075,0.083-0.144,0.134-0.207
		c0.051-0.063,0.1-0.103,0.148-0.121l1.166-0.054c0.167-0.406,0.327-0.781,0.479-1.125s0.289-0.638,0.408-0.883
		c0.03-0.066,0.061-0.136,0.094-0.211c0.033-0.075,0.081-0.149,0.144-0.224c0.063-0.075,0.146-0.152,0.251-0.233
		c0.105-0.081,0.247-0.163,0.426-0.247c0.131-0.066,0.292-0.138,0.479-0.215c0.188-0.078,0.374-0.149,0.556-0.215
		c0.182-0.065,0.348-0.121,0.498-0.166c0.149-0.044,0.257-0.067,0.323-0.067c0.06,0,0.09,0.012,0.09,0.036V9.97
		c0,0.006-0.006,0.021-0.018,0.045c-0.036,0.06-0.102,0.189-0.197,0.39c-0.096,0.2-0.214,0.451-0.354,0.753
		c-0.141,0.302-0.296,0.646-0.466,1.031s-0.345,0.793-0.525,1.224l2.152-0.081c0.06,0,0.078,0.036,0.054,0.108
		s-0.069,0.155-0.134,0.251c-0.066,0.096-0.142,0.194-0.229,0.296c-0.086,0.102-0.16,0.179-0.22,0.233
		c-0.012,0.012-0.036,0.023-0.072,0.036c-0.036,0.012-0.081,0.018-0.134,0.018h-1.775c-0.215,0.52-0.421,1.046-0.619,1.578
		s-0.374,1.037-0.529,1.516c-0.155,0.478-0.279,0.917-0.372,1.317c-0.093,0.401-0.139,0.729-0.139,0.986
		c0,0.036,0.018,0.055,0.054,0.055c0.065,0,0.164-0.038,0.296-0.112c0.131-0.075,0.279-0.172,0.444-0.292
		c0.164-0.119,0.339-0.251,0.524-0.395c0.185-0.144,0.362-0.285,0.529-0.426c0.167-0.141,0.318-0.269,0.453-0.386
		c0.134-0.116,0.237-0.204,0.309-0.265c0.054,0.055,0.118,0.123,0.193,0.207c0.075,0.083,0.145,0.161,0.211,0.232
		c-0.132,0.132-0.296,0.292-0.493,0.48c-0.197,0.188-0.411,0.381-0.641,0.578c-0.23,0.197-0.469,0.395-0.717,0.592
		s-0.49,0.374-0.727,0.529c-0.236,0.155-0.456,0.28-0.659,0.376C36.775,20.942,36.605,20.99,36.468,20.99z"/>
	<path fill="#545454" d="M46.017,18.291c-0.55,0.538-1.068,0.99-1.556,1.354s-0.952,0.657-1.394,0.879
		c-0.442,0.221-0.866,0.379-1.269,0.475s-0.796,0.144-1.179,0.144c-0.161,0-0.341-0.06-0.538-0.179
		c-0.197-0.12-0.381-0.265-0.551-0.436c-0.17-0.17-0.313-0.348-0.426-0.533c-0.114-0.186-0.17-0.344-0.17-0.476
		c0-0.49,0.067-0.939,0.202-1.35c0.134-0.409,0.313-0.778,0.534-1.107c0.221-0.328,0.474-0.618,0.757-0.869
		c0.284-0.251,0.58-0.46,0.888-0.628c0.308-0.167,0.614-0.293,0.919-0.376c0.305-0.084,0.586-0.125,0.843-0.125
		c0.186,0,0.369,0.054,0.551,0.161c0.183,0.108,0.348,0.239,0.498,0.395c0.149,0.156,0.271,0.318,0.363,0.489
		c0.093,0.17,0.139,0.318,0.139,0.443c0,0.203-0.085,0.411-0.255,0.623c-0.17,0.213-0.411,0.429-0.722,0.65
		c-0.311,0.221-0.685,0.447-1.121,0.677c-0.437,0.23-0.918,0.462-1.444,0.695c-0.018,0.144-0.027,0.284-0.027,0.421
		c0,0.186,0.041,0.312,0.121,0.377s0.231,0.099,0.453,0.099c0.395,0,0.767-0.065,1.117-0.197c0.35-0.132,0.686-0.302,1.009-0.511
		c0.323-0.21,0.633-0.448,0.933-0.718c0.299-0.269,0.595-0.541,0.888-0.816L46.017,18.291z M42.861,16.05
		c-0.12,0-0.251,0.064-0.395,0.192c-0.144,0.129-0.287,0.298-0.43,0.507s-0.281,0.45-0.413,0.722
		c-0.131,0.272-0.245,0.555-0.341,0.848c0.221-0.144,0.438-0.296,0.65-0.457c0.212-0.162,0.402-0.331,0.569-0.507
		c0.167-0.177,0.302-0.357,0.403-0.543c0.102-0.185,0.152-0.37,0.152-0.556c0-0.054-0.016-0.102-0.049-0.144
		C42.976,16.07,42.927,16.05,42.861,16.05z"/>
	<path fill="#545454" d="M49.64,16.785c-0.078,0.233-0.175,0.499-0.291,0.798c-0.117,0.299-0.229,0.592-0.336,0.879
		s-0.199,0.547-0.273,0.78c-0.075,0.232-0.112,0.4-0.112,0.502c0,0.036,0.018,0.054,0.054,0.054c0.065,0,0.164-0.039,0.296-0.116
		c0.131-0.078,0.282-0.18,0.453-0.306c0.17-0.125,0.348-0.263,0.534-0.412c0.185-0.149,0.363-0.297,0.533-0.443
		s0.324-0.28,0.462-0.399s0.242-0.209,0.314-0.27c0.054,0.055,0.118,0.123,0.193,0.207c0.075,0.083,0.145,0.161,0.21,0.232
		c-0.131,0.132-0.296,0.292-0.493,0.48c-0.197,0.188-0.411,0.381-0.641,0.578s-0.469,0.395-0.717,0.592s-0.49,0.374-0.727,0.529
		c-0.236,0.155-0.456,0.28-0.659,0.376c-0.204,0.096-0.374,0.144-0.511,0.144c-0.09,0-0.203-0.031-0.341-0.094
		c-0.137-0.063-0.269-0.141-0.395-0.233s-0.233-0.195-0.323-0.31c-0.09-0.113-0.134-0.224-0.134-0.331
		c0.089-0.401,0.179-0.751,0.269-1.05c0.09-0.299,0.173-0.555,0.251-0.767c0.078-0.212,0.146-0.384,0.206-0.516
		c0.06-0.131,0.104-0.229,0.135-0.296c-0.072-0.029-0.141-0.063-0.207-0.099s-0.131-0.071-0.197-0.107
		c-0.096,0.102-0.202,0.209-0.318,0.323c-0.117,0.113-0.234,0.227-0.354,0.34c-0.12,0.114-0.239,0.225-0.359,0.332
		s-0.227,0.206-0.323,0.296l-0.43-0.439c0.155-0.149,0.342-0.33,0.56-0.542c0.218-0.213,0.432-0.426,0.641-0.642
		c-0.149-0.09-0.284-0.175-0.403-0.255c-0.12-0.081-0.221-0.154-0.305-0.22c-0.102-0.072-0.191-0.138-0.269-0.197
		c-0.036-0.019-0.054-0.058-0.054-0.117c0-0.065,0.025-0.16,0.076-0.282c0.051-0.123,0.115-0.254,0.192-0.395
		c0.078-0.141,0.162-0.284,0.251-0.43c0.089-0.146,0.176-0.28,0.26-0.399c0.084-0.12,0.157-0.216,0.22-0.291
		c0.063-0.075,0.103-0.112,0.121-0.112c0.012,0,0.052,0.015,0.121,0.045s0.142,0.064,0.22,0.103s0.149,0.082,0.215,0.13
		c0.065,0.048,0.107,0.09,0.125,0.125c0.006,0.03,0.012,0.093,0.018,0.188c0.006,0.096,0.012,0.212,0.018,0.35
		c0.233,0.12,0.472,0.256,0.717,0.408s0.469,0.297,0.673,0.435c0.239,0.155,0.466,0.313,0.681,0.475
		c0.078,0.048,0.127,0.108,0.148,0.18S49.658,16.731,49.64,16.785z"/>
	<path fill="#545454" d="M58.894,18.273c-0.538,0.484-1.091,0.941-1.659,1.372s-1.136,0.846-1.704,1.246
		c-0.084,0.251-0.18,0.518-0.287,0.798c-0.107,0.281-0.239,0.602-0.395,0.96c-0.173,0.395-0.371,0.78-0.592,1.156
		c-0.221,0.377-0.456,0.731-0.704,1.063c-0.248,0.332-0.503,0.636-0.767,0.91c-0.263,0.275-0.521,0.513-0.775,0.713
		s-0.499,0.356-0.735,0.467s-0.453,0.166-0.65,0.166c-0.096,0-0.212-0.036-0.35-0.107c-0.137-0.072-0.269-0.163-0.395-0.273
		c-0.125-0.111-0.231-0.229-0.318-0.354c-0.086-0.126-0.13-0.242-0.13-0.35c0-0.377,0.102-0.746,0.305-1.107
		c0.203-0.362,0.482-0.725,0.838-1.09c0.355-0.364,0.774-0.733,1.255-1.107c0.481-0.373,1-0.758,1.556-1.152
		c0.173-0.46,0.342-0.939,0.506-1.438c0.165-0.5,0.324-0.994,0.48-1.484c-0.257,0.329-0.505,0.615-0.744,0.86
		c-0.239,0.245-0.46,0.453-0.664,0.624c-0.204,0.17-0.38,0.308-0.529,0.412s-0.263,0.184-0.341,0.237
		c-0.048,0.03-0.104,0.053-0.17,0.067c-0.065,0.015-0.125,0.022-0.179,0.022c-0.114,0-0.239-0.034-0.376-0.104
		c-0.138-0.068-0.265-0.155-0.381-0.26c-0.116-0.104-0.215-0.22-0.296-0.345c-0.081-0.126-0.121-0.245-0.121-0.359
		c0-0.131,0.043-0.342,0.13-0.632c0.086-0.29,0.203-0.641,0.35-1.054c0.146-0.412,0.318-0.876,0.516-1.39
		c0.197-0.515,0.409-1.061,0.637-1.641c0.012-0.03,0.022-0.043,0.031-0.04c0.009,0.003,0.025,0.004,0.049,0.004
		c0.114,0.018,0.269,0.064,0.466,0.139s0.39,0.157,0.578,0.247c0.188,0.09,0.352,0.175,0.489,0.256
		c0.138,0.081,0.207,0.136,0.207,0.166c-0.018,0.042-0.064,0.141-0.139,0.296s-0.162,0.343-0.26,0.561
		c-0.099,0.219-0.203,0.454-0.313,0.709c-0.111,0.254-0.212,0.497-0.305,0.73s-0.169,0.443-0.229,0.632s-0.09,0.327-0.09,0.417
		c0,0.024,0.012,0.036,0.036,0.036c0.042,0,0.133-0.054,0.273-0.161c0.141-0.108,0.315-0.278,0.524-0.512
		c0.209-0.232,0.445-0.53,0.708-0.892c0.263-0.362,0.541-0.797,0.834-1.305c0.12-0.395,0.218-0.71,0.296-0.946
		c0.078-0.236,0.128-0.354,0.152-0.354c0.036,0,0.128,0.045,0.278,0.135s0.308,0.196,0.476,0.318
		c0.167,0.123,0.316,0.245,0.448,0.367c0.131,0.123,0.197,0.217,0.197,0.283c0,0.029-0.003,0.057-0.009,0.08
		c-0.006,0.024-0.015,0.051-0.027,0.081c-0.137,0.418-0.257,0.797-0.358,1.134c-0.102,0.338-0.193,0.647-0.273,0.929
		c-0.081,0.28-0.152,0.539-0.215,0.775s-0.124,0.465-0.184,0.686c0.449-0.322,0.894-0.652,1.336-0.99s0.878-0.692,1.309-1.063
		L58.894,18.273z M50.572,26.138c0.108,0,0.257-0.104,0.449-0.31c0.191-0.206,0.397-0.471,0.619-0.794
		c0.221-0.322,0.444-0.683,0.668-1.08s0.423-0.788,0.596-1.17c-0.227,0.191-0.481,0.4-0.762,0.627
		c-0.281,0.228-0.544,0.476-0.789,0.744c-0.245,0.27-0.451,0.558-0.619,0.866c-0.167,0.308-0.251,0.635-0.251,0.981
		C50.483,26.093,50.513,26.138,50.572,26.138z"/>
	<path fill="#545454" d="M64.641,18.291c-0.55,0.538-1.067,0.99-1.554,1.354s-0.954,0.657-1.396,0.879
		c-0.442,0.221-0.864,0.379-1.268,0.475c-0.403,0.096-0.796,0.144-1.179,0.144c-0.161,0-0.34-0.06-0.538-0.179
		c-0.197-0.12-0.381-0.265-0.552-0.436c-0.17-0.17-0.312-0.348-0.426-0.533s-0.17-0.344-0.17-0.476c0-0.49,0.067-0.939,0.202-1.35
		c0.135-0.409,0.313-0.778,0.534-1.107c0.221-0.328,0.474-0.618,0.758-0.869c0.284-0.251,0.58-0.46,0.888-0.628
		c0.308-0.167,0.614-0.293,0.918-0.376c0.305-0.084,0.586-0.125,0.843-0.125c0.185,0,0.371,0.054,0.553,0.161
		c0.183,0.108,0.347,0.239,0.496,0.395c0.149,0.156,0.272,0.318,0.365,0.489c0.093,0.17,0.138,0.318,0.138,0.443
		c0,0.203-0.084,0.411-0.254,0.623c-0.17,0.213-0.412,0.429-0.723,0.65c-0.311,0.221-0.685,0.447-1.121,0.677
		c-0.436,0.23-0.917,0.462-1.443,0.695c-0.018,0.144-0.027,0.284-0.027,0.421c0,0.186,0.041,0.312,0.121,0.377
		c0.081,0.065,0.232,0.099,0.453,0.099c0.395,0,0.767-0.065,1.117-0.197c0.35-0.132,0.684-0.302,1.007-0.511
		c0.323-0.21,0.634-0.448,0.933-0.718c0.299-0.269,0.595-0.541,0.888-0.816L64.641,18.291z M61.484,16.05
		c-0.12,0-0.251,0.064-0.395,0.192c-0.144,0.129-0.287,0.298-0.43,0.507c-0.144,0.209-0.281,0.45-0.413,0.722
		c-0.131,0.272-0.245,0.555-0.341,0.848c0.221-0.144,0.438-0.296,0.65-0.457c0.212-0.162,0.401-0.331,0.568-0.507
		c0.167-0.177,0.302-0.357,0.404-0.543c0.102-0.185,0.152-0.37,0.152-0.556c0-0.054-0.015-0.102-0.048-0.144
		S61.55,16.05,61.484,16.05z"/>
	<path fill="#545454" d="M69.25,19.708c0,0.036,0.018,0.054,0.054,0.054c0.054,0,0.144-0.039,0.269-0.116
		c0.126-0.078,0.27-0.177,0.431-0.296c0.161-0.12,0.335-0.254,0.517-0.403c0.183-0.149,0.356-0.296,0.523-0.439
		s0.32-0.275,0.454-0.395c0.135-0.12,0.236-0.213,0.309-0.278c0.054,0.054,0.122,0.126,0.203,0.216
		c0.08,0.089,0.152,0.17,0.218,0.241c-0.144,0.132-0.313,0.292-0.514,0.48c-0.2,0.188-0.416,0.384-0.646,0.587
		c-0.23,0.203-0.47,0.405-0.715,0.605s-0.484,0.378-0.718,0.533c-0.232,0.155-0.454,0.282-0.663,0.381s-0.392,0.148-0.547,0.148
		c-0.107,0-0.225-0.021-0.353-0.063c-0.129-0.042-0.248-0.101-0.355-0.175c-0.108-0.075-0.197-0.163-0.27-0.265
		c-0.071-0.102-0.107-0.216-0.107-0.341c0-0.048,0-0.106-0.003-0.175c-0.003-0.069,0-0.158,0.012-0.27
		c0.012-0.11,0.036-0.245,0.072-0.403c0.035-0.158,0.089-0.354,0.161-0.587c-0.197,0.209-0.428,0.427-0.693,0.654
		c-0.266,0.228-0.547,0.442-0.84,0.646s-0.585,0.387-0.881,0.552c-0.296,0.164-0.571,0.288-0.822,0.372
		c-0.03,0.012-0.054,0.018-0.072,0.018c-0.018,0-0.036,0-0.054,0c-0.06,0-0.138-0.029-0.236-0.09
		c-0.099-0.06-0.197-0.139-0.292-0.237c-0.096-0.099-0.177-0.211-0.245-0.336c-0.069-0.126-0.105-0.251-0.105-0.377
		c0-0.036,0.018-0.155,0.054-0.358c0.036-0.203,0.123-0.462,0.257-0.775c0.134-0.314,0.332-0.667,0.595-1.059
		s0.622-0.794,1.076-1.206c0.233-0.209,0.484-0.406,0.753-0.592c0.228-0.155,0.487-0.314,0.78-0.475
		c0.293-0.162,0.601-0.29,0.924-0.386c0.012,0,0.023-0.003,0.032-0.009c0.01-0.006,0.021-0.003,0.039,0.009
		c0.072,0.024,0.158,0.062,0.257,0.112s0.197,0.104,0.297,0.161c0.098,0.057,0.185,0.114,0.26,0.17
		c0.074,0.057,0.122,0.103,0.146,0.139c0.006,0.012,0.006,0.021,0,0.027l-0.019,0.018c-0.269,0.143-0.522,0.303-0.762,0.48
		c-0.239,0.176-0.451,0.342-0.637,0.497c-0.215,0.186-0.415,0.368-0.601,0.547c-0.437,0.431-0.738,0.803-0.906,1.116
		c-0.167,0.314-0.251,0.54-0.251,0.678c0,0.102,0.042,0.152,0.125,0.152c0.083,0,0.191-0.034,0.32-0.104
		c0.128-0.068,0.272-0.161,0.433-0.277c0.162-0.117,0.341-0.255,0.535-0.413s0.395-0.324,0.604-0.497
		c0.186-0.149,0.365-0.312,0.538-0.484c0.149-0.144,0.305-0.308,0.467-0.493c0.161-0.186,0.299-0.374,0.412-0.565
		c0-0.006,0.003-0.012,0.009-0.018s0.016-0.006,0.027,0c0.065,0.048,0.141,0.127,0.224,0.237c0.084,0.11,0.162,0.231,0.233,0.363
		s0.135,0.259,0.186,0.381c0.051,0.123,0.074,0.217,0.074,0.283c-0.137,0.28-0.242,0.536-0.316,0.767
		c-0.075,0.229-0.132,0.432-0.171,0.604c-0.038,0.174-0.063,0.321-0.071,0.444C69.256,19.548,69.25,19.643,69.25,19.708z"/>
	<path fill="#545454" d="M75.85,16.785c-0.078,0.233-0.174,0.499-0.29,0.798c-0.117,0.299-0.23,0.592-0.338,0.879
		s-0.197,0.547-0.272,0.78c-0.074,0.232-0.113,0.4-0.113,0.502c0,0.036,0.018,0.054,0.054,0.054c0.066,0,0.165-0.039,0.296-0.116
		c0.132-0.078,0.284-0.18,0.454-0.306c0.171-0.125,0.347-0.263,0.532-0.412c0.185-0.149,0.365-0.297,0.535-0.443
		c0.172-0.146,0.324-0.28,0.461-0.399s0.242-0.209,0.314-0.27c0.053,0.055,0.119,0.123,0.193,0.207
		c0.074,0.083,0.145,0.161,0.209,0.232c-0.131,0.132-0.295,0.292-0.492,0.48c-0.197,0.188-0.41,0.381-0.641,0.578
		s-0.469,0.395-0.717,0.592s-0.49,0.374-0.726,0.529c-0.236,0.155-0.458,0.28-0.661,0.376s-0.373,0.144-0.511,0.144
		c-0.09,0-0.203-0.031-0.341-0.094s-0.269-0.141-0.395-0.233s-0.233-0.195-0.323-0.31c-0.089-0.113-0.134-0.224-0.134-0.331
		c0.089-0.401,0.179-0.751,0.269-1.05s0.174-0.555,0.251-0.767c0.078-0.212,0.146-0.384,0.206-0.516
		c0.061-0.131,0.105-0.229,0.135-0.296c-0.071-0.029-0.141-0.063-0.206-0.099s-0.132-0.071-0.197-0.107
		c-0.096,0.102-0.2,0.209-0.316,0.323c-0.117,0.113-0.236,0.227-0.356,0.34c-0.119,0.114-0.239,0.225-0.358,0.332
		s-0.228,0.206-0.323,0.296l-0.43-0.439c0.155-0.149,0.344-0.33,0.562-0.542c0.219-0.213,0.431-0.426,0.64-0.642
		c-0.149-0.09-0.284-0.175-0.403-0.255c-0.119-0.081-0.222-0.154-0.305-0.22c-0.102-0.072-0.191-0.138-0.27-0.197
		c-0.035-0.019-0.054-0.058-0.054-0.117c0-0.065,0.027-0.16,0.078-0.282c0.051-0.123,0.113-0.254,0.191-0.395
		c0.077-0.141,0.161-0.284,0.251-0.43s0.176-0.28,0.26-0.399s0.158-0.216,0.222-0.291c0.063-0.075,0.102-0.112,0.119-0.112
		c0.012,0,0.054,0.015,0.122,0.045c0.069,0.03,0.141,0.064,0.219,0.103c0.077,0.039,0.149,0.082,0.215,0.13
		c0.066,0.048,0.107,0.09,0.126,0.125c0.006,0.03,0.012,0.093,0.018,0.188s0.012,0.212,0.019,0.35
		c0.232,0.12,0.472,0.256,0.717,0.408s0.47,0.297,0.673,0.435c0.239,0.155,0.466,0.313,0.682,0.475
		c0.077,0.048,0.128,0.108,0.149,0.18C75.867,16.668,75.867,16.731,75.85,16.785z"/>
</g>
</svg>
